<?xml version="1.0" encoding="UTF-8" standalone="no"?>
<!DOCTYPE svg PUBLIC "-//W3C//DTD SVG 1.1//EN"
 "http://www.w3.org/Graphics/SVG/1.1/DTD/svg11.dtd">
<!-- Generated by graphviz version 7.0.5 (20221223.1930)
 -->
<!-- Title: src/Generic/align.h Pages: 1 -->
<svg width="8872pt" height="225pt"
 viewBox="0.00 0.00 8872.00 225.00" xmlns="http://www.w3.org/2000/svg" xmlns:xlink="http://www.w3.org/1999/xlink">
<g id="graph0" class="graph" transform="scale(1 1) rotate(0) translate(4 221)">
<title>src/Generic/align.h</title>
<!-- Node1 -->
<g id="node1" class="node">
<title>Node1</title>
<g id="a_node1"><a xlink:title=" ">
<polygon fill="#999999" stroke="#666666" points="2139.5,-217 2041.5,-217 2041.5,-198 2139.5,-198 2139.5,-217"/>
<text text-anchor="middle" x="2090.5" y="-205" font-family="Helvetica,sans-Serif" font-size="10.00">src/Generic/align.h</text>
</a>
</g>
</g>
<!-- Node2 -->
<g id="node2" class="node">
<title>Node2</title>
<g id="a_node2"><a xlink:href="directx12buffer_8cpp.html" target="_top" xlink:title=" ">
<polygon fill="white" stroke="#666666" points="179,-30 0,-30 0,0 179,0 179,-30"/>
<text text-anchor="start" x="8" y="-18" font-family="Helvetica,sans-Serif" font-size="10.00">plugins/renderer/directx12</text>
<text text-anchor="middle" x="89.5" y="-7" font-family="Helvetica,sans-Serif" font-size="10.00">/src/DirectX12/util/directx12buffer.cpp</text>
</a>
</g>
</g>
<!-- Node1&#45;&gt;Node2 -->
<g id="edge1" class="edge">
<title>Node1&#45;&gt;Node2</title>
<path fill="none" stroke="#63b8ff" d="M2029.81,-203.57C1908.06,-197.5 1625.41,-182.38 1388.5,-162 1118.13,-138.74 1051.24,-125.65 781.5,-96 517.47,-66.98 451.01,-63.45 187.5,-30 184.86,-29.66 182.18,-29.32 179.47,-28.96"/>
<polygon fill="#63b8ff" stroke="#63b8ff" points="2029.41,-207.06 2039.57,-204.06 2029.75,-200.07 2029.41,-207.06"/>
</g>
<!-- Node3 -->
<g id="node3" class="node">
<title>Node3</title>
<g id="a_node3"><a xlink:href="directx12persistentbuffer_8cpp.html" target="_top" xlink:title=" ">
<polygon fill="white" stroke="#666666" points="418,-30 197,-30 197,0 418,0 418,-30"/>
<text text-anchor="start" x="205" y="-18" font-family="Helvetica,sans-Serif" font-size="10.00">plugins/renderer/directx12</text>
<text text-anchor="middle" x="307.5" y="-7" font-family="Helvetica,sans-Serif" font-size="10.00">/src/DirectX12/util/directx12persistentbuffer.cpp</text>
</a>
</g>
</g>
<!-- Node1&#45;&gt;Node3 -->
<g id="edge2" class="edge">
<title>Node1&#45;&gt;Node3</title>
<path fill="none" stroke="#63b8ff" d="M2029.72,-200.28C1812.38,-177.99 1053.32,-99.72 427.5,-30 424.48,-29.66 421.41,-29.32 418.32,-28.97"/>
<polygon fill="#63b8ff" stroke="#63b8ff" points="2029.35,-203.76 2039.66,-201.3 2030.07,-196.8 2029.35,-203.76"/>
</g>
<!-- Node4 -->
<g id="node4" class="node">
<title>Node4</title>
<g id="a_node4"><a xlink:href="directx12pipelineinstance_8cpp.html" target="_top" xlink:title=" ">
<polygon fill="white" stroke="#666666" points="660.5,-30 436.5,-30 436.5,0 660.5,0 660.5,-30"/>
<text text-anchor="start" x="444.5" y="-18" font-family="Helvetica,sans-Serif" font-size="10.00">plugins/renderer/directx12</text>
<text text-anchor="middle" x="548.5" y="-7" font-family="Helvetica,sans-Serif" font-size="10.00">/src/DirectX12/util/directx12pipelineinstance.cpp</text>
</a>
</g>
</g>
<!-- Node1&#45;&gt;Node4 -->
<g id="edge3" class="edge">
<title>Node1&#45;&gt;Node4</title>
<path fill="none" stroke="#63b8ff" d="M2034.96,-195.37C1899.36,-168.63 1540.28,-100.44 1237.5,-66 986.17,-37.41 921.44,-52.54 669.5,-30 666.66,-29.75 663.78,-29.48 660.87,-29.2"/>
<polygon fill="#63b8ff" stroke="#63b8ff" points="2033.89,-198.73 2044.38,-197.23 2035.25,-191.86 2033.89,-198.73"/>
</g>
<!-- Node5 -->
<g id="node5" class="node">
<title>Node5</title>
<g id="a_node5"><a xlink:href="directx12texture_8cpp.html" target="_top" xlink:title=" ">
<polygon fill="white" stroke="#666666" points="862.5,-30 678.5,-30 678.5,0 862.5,0 862.5,-30"/>
<text text-anchor="start" x="686.5" y="-18" font-family="Helvetica,sans-Serif" font-size="10.00">plugins/renderer/directx12</text>
<text text-anchor="middle" x="770.5" y="-7" font-family="Helvetica,sans-Serif" font-size="10.00">/src/DirectX12/util/directx12texture.cpp</text>
</a>
</g>
</g>
<!-- Node1&#45;&gt;Node5 -->
<g id="edge4" class="edge">
<title>Node1&#45;&gt;Node5</title>
<path fill="none" stroke="#63b8ff" d="M2065.56,-192.03C2012.13,-161.9 1881.77,-92.99 1762.5,-66 1569.23,-22.26 1068.88,-47.62 871.5,-30 868.68,-29.75 865.82,-29.47 862.93,-29.18"/>
<polygon fill="#63b8ff" stroke="#63b8ff" points="2063.74,-195.02 2074.16,-196.93 2067.2,-188.94 2063.74,-195.02"/>
</g>
<!-- Node6 -->
<g id="node6" class="node">
<title>Node6</title>
<g id="a_node6"><a xlink:href="vulkanbuffer_8cpp.html" target="_top" xlink:title=" ">
<polygon fill="white" stroke="#666666" points="6119,-30 5964,-30 5964,0 6119,0 6119,-30"/>
<text text-anchor="start" x="5972" y="-18" font-family="Helvetica,sans-Serif" font-size="10.00">plugins/renderer/vulkan</text>
<text text-anchor="middle" x="6041.5" y="-7" font-family="Helvetica,sans-Serif" font-size="10.00">/src/Vulkan/util/vulkanbuffer.cpp</text>
</a>
</g>
</g>
<!-- Node1&#45;&gt;Node6 -->
<g id="edge5" class="edge">
<title>Node1&#45;&gt;Node6</title>
<path fill="none" stroke="#63b8ff" d="M2151.13,-205.34C2362.38,-201.2 3085.64,-186.05 3682.5,-162 4240.15,-139.53 4379.36,-128.72 4936.5,-96 5389.11,-69.42 5503.95,-80.74 5954.5,-30 5957.54,-29.66 5960.64,-29.28 5963.76,-28.88"/>
<polygon fill="#63b8ff" stroke="#63b8ff" points="2151.14,-201.84 2141.21,-205.54 2151.28,-208.84 2151.14,-201.84"/>
</g>
<!-- Node7 -->
<g id="node7" class="node">
<title>Node7</title>
<g id="a_node7"><a xlink:href="vulkantexture_8cpp.html" target="_top" xlink:title=" ">
<polygon fill="white" stroke="#666666" points="6298,-30 6137,-30 6137,0 6298,0 6298,-30"/>
<text text-anchor="start" x="6145" y="-18" font-family="Helvetica,sans-Serif" font-size="10.00">plugins/renderer/vulkan</text>
<text text-anchor="middle" x="6217.5" y="-7" font-family="Helvetica,sans-Serif" font-size="10.00">/src/Vulkan/util/vulkantexture.cpp</text>
</a>
</g>
</g>
<!-- Node1&#45;&gt;Node7 -->
<g id="edge6" class="edge">
<title>Node1&#45;&gt;Node7</title>
<path fill="none" stroke="#63b8ff" d="M2151.17,-205.77C2389.32,-202.75 3283.16,-190.11 4018.5,-162 4568.21,-140.98 4705.52,-131.38 5254.5,-96 5643.24,-70.95 5741.55,-74.97 6128.5,-30 6131.14,-29.69 6133.82,-29.37 6136.53,-29.02"/>
<polygon fill="#63b8ff" stroke="#63b8ff" points="2151.15,-202.27 2141.19,-205.89 2151.23,-209.27 2151.15,-202.27"/>
</g>
<!-- Node8 -->
<g id="node8" class="node">
<title>Node8</title>
<g id="a_node8"><a xlink:href="bump_8h.html" target="_top" xlink:title=" ">
<polygon fill="white" stroke="#666666" points="2938,-162 2831,-162 2831,-132 2938,-132 2938,-162"/>
<text text-anchor="start" x="2839" y="-150" font-family="Helvetica,sans-Serif" font-size="10.00">src/Generic/allocator</text>
<text text-anchor="middle" x="2884.5" y="-139" font-family="Helvetica,sans-Serif" font-size="10.00">/bump.h</text>
</a>
</g>
</g>
<!-- Node1&#45;&gt;Node8 -->
<g id="edge7" class="edge">
<title>Node1&#45;&gt;Node8</title>
<path fill="none" stroke="#63b8ff" d="M2151.1,-202.03C2301.14,-190.98 2688.01,-162.48 2830.65,-151.97"/>
<polygon fill="#63b8ff" stroke="#63b8ff" points="2151.09,-198.53 2141.38,-202.75 2151.61,-205.51 2151.09,-198.53"/>
</g>
<!-- Node49 -->
<g id="node49" class="node">
<title>Node49</title>
<g id="a_node49"><a xlink:href="fixed_8h.html" target="_top" xlink:title=" ">
<polygon fill="white" stroke="#666666" points="3674,-162 3567,-162 3567,-132 3674,-132 3674,-162"/>
<text text-anchor="start" x="3575" y="-150" font-family="Helvetica,sans-Serif" font-size="10.00">src/Generic/allocator</text>
<text text-anchor="middle" x="3620.5" y="-139" font-family="Helvetica,sans-Serif" font-size="10.00">/fixed.h</text>
</a>
</g>
</g>
<!-- Node1&#45;&gt;Node49 -->
<g id="edge54" class="edge">
<title>Node1&#45;&gt;Node49</title>
<path fill="none" stroke="#63b8ff" d="M2150.93,-204.19C2398.39,-194.73 3332.29,-159.02 3566.82,-150.05"/>
<polygon fill="#63b8ff" stroke="#63b8ff" points="2151.04,-200.68 2141.19,-204.56 2151.31,-207.68 2151.04,-200.68"/>
</g>
<!-- Node9 -->
<g id="node9" class="node">
<title>Node9</title>
<g id="a_node9"><a xlink:href="directx12rendercontext_8h.html" target="_top" xlink:title=" ">
<polygon fill="white" stroke="#666666" points="2367,-96 2180,-96 2180,-66 2367,-66 2367,-96"/>
<text text-anchor="start" x="2188" y="-84" font-family="Helvetica,sans-Serif" font-size="10.00">plugins/renderer/directx12</text>
<text text-anchor="middle" x="2273.5" y="-73" font-family="Helvetica,sans-Serif" font-size="10.00">/src/DirectX12/directx12rendercontext.h</text>
</a>
</g>
</g>
<!-- Node8&#45;&gt;Node9 -->
<g id="edge8" class="edge">
<title>Node8&#45;&gt;Node9</title>
<path fill="none" stroke="#63b8ff" d="M2819.12,-139.15C2710.49,-127.77 2492.45,-104.93 2367.39,-91.83"/>
<polygon fill="#63b8ff" stroke="#63b8ff" points="2818.73,-142.63 2829.04,-140.19 2819.46,-135.67 2818.73,-142.63"/>
</g>
<!-- Node25 -->
<g id="node25" class="node">
<title>Node25</title>
<g id="a_node25"><a xlink:href="openglrendercontext_8h.html" target="_top" xlink:title=" ">
<polygon fill="white" stroke="#666666" points="4927.5,-96 4757.5,-96 4757.5,-66 4927.5,-66 4927.5,-96"/>
<text text-anchor="start" x="4765.5" y="-84" font-family="Helvetica,sans-Serif" font-size="10.00">plugins/renderer/opengl</text>
<text text-anchor="middle" x="4842.5" y="-73" font-family="Helvetica,sans-Serif" font-size="10.00">/src/OpenGL/openglrendercontext.h</text>
</a>
</g>
</g>
<!-- Node8&#45;&gt;Node25 -->
<g id="edge28" class="edge">
<title>Node8&#45;&gt;Node25</title>
<path fill="none" stroke="#63b8ff" d="M2949.6,-143.87C3241.19,-134.34 4427.24,-95.57 4757.04,-84.79"/>
<polygon fill="#63b8ff" stroke="#63b8ff" points="2949.79,-140.36 2939.91,-144.19 2950.02,-147.36 2949.79,-140.36"/>
</g>
<!-- Node35 -->
<g id="node35" class="node">
<title>Node35</title>
<g id="a_node35"><a xlink:href="vulkanrendercontext_8h.html" target="_top" xlink:title=" ">
<polygon fill="white" stroke="#666666" points="7326.5,-96 7162.5,-96 7162.5,-66 7326.5,-66 7326.5,-96"/>
<text text-anchor="start" x="7170.5" y="-84" font-family="Helvetica,sans-Serif" font-size="10.00">plugins/renderer/vulkan</text>
<text text-anchor="middle" x="7244.5" y="-73" font-family="Helvetica,sans-Serif" font-size="10.00">/src/Vulkan/vulkanrendercontext.h</text>
</a>
</g>
</g>
<!-- Node8&#45;&gt;Node35 -->
<g id="edge38" class="edge">
<title>Node8&#45;&gt;Node35</title>
<path fill="none" stroke="#63b8ff" d="M2949.3,-144.5C3069.3,-141.75 3334.22,-135.84 3557.5,-132 5001.65,-107.19 6764.17,-87.27 7162.09,-82.9"/>
<polygon fill="#63b8ff" stroke="#63b8ff" points="2949.58,-140.99 2939.66,-144.72 2949.74,-147.99 2949.58,-140.99"/>
</g>
<!-- Node9&#45;&gt;Node2 -->
<g id="edge18" class="edge">
<title>Node9&#45;&gt;Node2</title>
<path fill="none" stroke="#63b8ff" d="M2168.14,-79.12C1800.9,-75.79 578.43,-62.5 187.5,-30 184.85,-29.78 182.15,-29.53 179.44,-29.27"/>
<polygon fill="#63b8ff" stroke="#63b8ff" points="2168,-82.62 2178.03,-79.21 2168.06,-75.62 2168,-82.62"/>
</g>
<!-- Node9&#45;&gt;Node3 -->
<g id="edge22" class="edge">
<title>Node9&#45;&gt;Node3</title>
<path fill="none" stroke="#63b8ff" d="M2168.15,-78.38C1829.29,-72.99 769.59,-54.54 427.5,-30 424.47,-29.78 421.39,-29.54 418.29,-29.29"/>
<polygon fill="#63b8ff" stroke="#63b8ff" points="2168.09,-81.88 2178.14,-78.54 2168.2,-74.88 2168.09,-81.88"/>
</g>
<!-- Node9&#45;&gt;Node4 -->
<g id="edge24" class="edge">
<title>Node9&#45;&gt;Node4</title>
<path fill="none" stroke="#63b8ff" d="M2168.08,-76.96C1822.87,-66.96 744.11,-35.47 669.5,-30 666.65,-29.79 663.77,-29.57 660.86,-29.33"/>
<polygon fill="#63b8ff" stroke="#63b8ff" points="2167.95,-80.46 2178.05,-77.25 2168.15,-73.46 2167.95,-80.46"/>
</g>
<!-- Node9&#45;&gt;Node5 -->
<g id="edge26" class="edge">
<title>Node9&#45;&gt;Node5</title>
<path fill="none" stroke="#63b8ff" d="M2168.12,-72.92C2129,-70.46 2084.24,-67.87 2043.5,-66 1522.91,-42.17 1390.79,-73.84 871.5,-30 868.68,-29.76 865.81,-29.5 862.92,-29.21"/>
<polygon fill="#63b8ff" stroke="#63b8ff" points="2167.82,-76.41 2178.02,-73.54 2168.27,-69.42 2167.82,-76.41"/>
</g>
<!-- Node10 -->
<g id="node10" class="node">
<title>Node10</title>
<g id="a_node10"><a xlink:href="directx12meshloader_8cpp.html" target="_top" xlink:title=" ">
<polygon fill="white" stroke="#666666" points="1070,-30 881,-30 881,0 1070,0 1070,-30"/>
<text text-anchor="start" x="889" y="-18" font-family="Helvetica,sans-Serif" font-size="10.00">plugins/renderer/directx12</text>
<text text-anchor="middle" x="975.5" y="-7" font-family="Helvetica,sans-Serif" font-size="10.00">/src/DirectX12/directx12meshloader.cpp</text>
</a>
</g>
</g>
<!-- Node9&#45;&gt;Node10 -->
<g id="edge9" class="edge">
<title>Node9&#45;&gt;Node10</title>
<path fill="none" stroke="#63b8ff" d="M2168.12,-73.06C2128.99,-70.63 2084.23,-68 2043.5,-66 1615.27,-44.97 1506.67,-66.64 1079.5,-30 1076.5,-29.74 1073.46,-29.46 1070.4,-29.16"/>
<polygon fill="#63b8ff" stroke="#63b8ff" points="2167.82,-76.55 2178.02,-73.69 2168.26,-69.57 2167.82,-76.55"/>
</g>
<!-- Node11 -->
<g id="node11" class="node">
<title>Node11</title>
<g id="a_node11"><a xlink:href="directx12pipelineloader_8cpp.html" target="_top" xlink:title=" ">
<polygon fill="white" stroke="#666666" points="1286.5,-30 1088.5,-30 1088.5,0 1286.5,0 1286.5,-30"/>
<text text-anchor="start" x="1096.5" y="-18" font-family="Helvetica,sans-Serif" font-size="10.00">plugins/renderer/directx12</text>
<text text-anchor="middle" x="1187.5" y="-7" font-family="Helvetica,sans-Serif" font-size="10.00">/src/DirectX12/directx12pipelineloader.cpp</text>
</a>
</g>
</g>
<!-- Node9&#45;&gt;Node11 -->
<g id="edge10" class="edge">
<title>Node9&#45;&gt;Node11</title>
<path fill="none" stroke="#63b8ff" d="M2168.1,-73.3C2128.98,-70.89 2084.22,-68.22 2043.5,-66 1711.16,-47.89 1627.03,-59.42 1295.5,-30 1292.68,-29.75 1289.81,-29.48 1286.92,-29.19"/>
<polygon fill="#63b8ff" stroke="#63b8ff" points="2167.81,-76.79 2178.01,-73.92 2168.24,-69.8 2167.81,-76.79"/>
</g>
<!-- Node12 -->
<g id="node12" class="node">
<title>Node12</title>
<g id="a_node12"><a xlink:href="directx12pixelshaderloader_8cpp.html" target="_top" xlink:title=" ">
<polygon fill="white" stroke="#666666" points="1518.5,-30 1304.5,-30 1304.5,0 1518.5,0 1518.5,-30"/>
<text text-anchor="start" x="1312.5" y="-18" font-family="Helvetica,sans-Serif" font-size="10.00">plugins/renderer/directx12</text>
<text text-anchor="middle" x="1411.5" y="-7" font-family="Helvetica,sans-Serif" font-size="10.00">/src/DirectX12/directx12pixelshaderloader.cpp</text>
</a>
</g>
</g>
<!-- Node9&#45;&gt;Node12 -->
<g id="edge11" class="edge">
<title>Node9&#45;&gt;Node12</title>
<path fill="none" stroke="#63b8ff" d="M2168.24,-73.64C1993,-62.93 1648.74,-41.37 1527.5,-30 1524.67,-29.73 1521.81,-29.46 1518.92,-29.17"/>
<polygon fill="#63b8ff" stroke="#63b8ff" points="2167.83,-77.12 2178.02,-74.24 2168.25,-70.13 2167.83,-77.12"/>
</g>
<!-- Node13 -->
<g id="node13" class="node">
<title>Node13</title>
<g id="a_node13"><a xlink:href="directx12rendercontext_8cpp.html" target="_top" xlink:title=" ">
<polygon fill="white" stroke="#666666" points="1734,-30 1537,-30 1537,0 1734,0 1734,-30"/>
<text text-anchor="start" x="1545" y="-18" font-family="Helvetica,sans-Serif" font-size="10.00">plugins/renderer/directx12</text>
<text text-anchor="middle" x="1635.5" y="-7" font-family="Helvetica,sans-Serif" font-size="10.00">/src/DirectX12/directx12rendercontext.cpp</text>
</a>
</g>
</g>
<!-- Node9&#45;&gt;Node13 -->
<g id="edge12" class="edge">
<title>Node9&#45;&gt;Node13</title>
<path fill="none" stroke="#63b8ff" d="M2168.41,-71.23C2061.2,-62.03 1890.1,-46.6 1742.5,-30 1739.8,-29.7 1737.06,-29.38 1734.3,-29.06"/>
<polygon fill="#63b8ff" stroke="#63b8ff" points="2168.1,-74.72 2178.36,-72.09 2168.7,-67.75 2168.1,-74.72"/>
</g>
<!-- Node14 -->
<g id="node14" class="node">
<title>Node14</title>
<g id="a_node14"><a xlink:href="directx12rendertarget_8cpp.html" target="_top" xlink:title=" ">
<polygon fill="white" stroke="#666666" points="1943,-30 1752,-30 1752,0 1943,0 1943,-30"/>
<text text-anchor="start" x="1760" y="-18" font-family="Helvetica,sans-Serif" font-size="10.00">plugins/renderer/directx12</text>
<text text-anchor="middle" x="1847.5" y="-7" font-family="Helvetica,sans-Serif" font-size="10.00">/src/DirectX12/directx12rendertarget.cpp</text>
</a>
</g>
</g>
<!-- Node9&#45;&gt;Node14 -->
<g id="edge13" class="edge">
<title>Node9&#45;&gt;Node14</title>
<path fill="none" stroke="#63b8ff" d="M2168.44,-64.22C2099.54,-53.87 2010.17,-40.44 1943.23,-30.38"/>
<polygon fill="#63b8ff" stroke="#63b8ff" points="2167.84,-67.67 2178.25,-65.69 2168.88,-60.74 2167.84,-67.67"/>
</g>
<!-- Node15 -->
<g id="node15" class="node">
<title>Node15</title>
<g id="a_node15"><a xlink:href="directx12rendertexture_8cpp.html" target="_top" xlink:title=" ">
<polygon fill="white" stroke="#666666" points="2156,-30 1961,-30 1961,0 2156,0 2156,-30"/>
<text text-anchor="start" x="1969" y="-18" font-family="Helvetica,sans-Serif" font-size="10.00">plugins/renderer/directx12</text>
<text text-anchor="middle" x="2058.5" y="-7" font-family="Helvetica,sans-Serif" font-size="10.00">/src/DirectX12/directx12rendertexture.cpp</text>
</a>
</g>
</g>
<!-- Node9&#45;&gt;Node15 -->
<g id="edge14" class="edge">
<title>Node9&#45;&gt;Node15</title>
<path fill="none" stroke="#63b8ff" d="M2214.31,-62.38C2180.51,-52.32 2138.66,-39.86 2106.84,-30.39"/>
<polygon fill="#63b8ff" stroke="#63b8ff" points="2212.95,-65.63 2223.53,-65.13 2214.95,-58.92 2212.95,-65.63"/>
</g>
<!-- Node16 -->
<g id="node16" class="node">
<title>Node16</title>
<g id="a_node16"><a xlink:href="directx12renderwindow_8cpp.html" target="_top" xlink:title=" ">
<polygon fill="white" stroke="#666666" points="2373,-30 2174,-30 2174,0 2373,0 2373,-30"/>
<text text-anchor="start" x="2182" y="-18" font-family="Helvetica,sans-Serif" font-size="10.00">plugins/renderer/directx12</text>
<text text-anchor="middle" x="2273.5" y="-7" font-family="Helvetica,sans-Serif" font-size="10.00">/src/DirectX12/directx12renderwindow.cpp</text>
</a>
</g>
</g>
<!-- Node9&#45;&gt;Node16 -->
<g id="edge15" class="edge">
<title>Node9&#45;&gt;Node16</title>
<path fill="none" stroke="#63b8ff" d="M2273.5,-54.39C2273.5,-46.13 2273.5,-37.28 2273.5,-30.16"/>
<polygon fill="#63b8ff" stroke="#63b8ff" points="2270,-54.28 2273.5,-64.28 2277,-54.28 2270,-54.28"/>
</g>
<!-- Node17 -->
<g id="node17" class="node">
<title>Node17</title>
<g id="a_node17"><a xlink:href="directx12textureloader_8cpp.html" target="_top" xlink:title=" ">
<polygon fill="white" stroke="#666666" points="2585.5,-30 2391.5,-30 2391.5,0 2585.5,0 2585.5,-30"/>
<text text-anchor="start" x="2399.5" y="-18" font-family="Helvetica,sans-Serif" font-size="10.00">plugins/renderer/directx12</text>
<text text-anchor="middle" x="2488.5" y="-7" font-family="Helvetica,sans-Serif" font-size="10.00">/src/DirectX12/directx12textureloader.cpp</text>
</a>
</g>
</g>
<!-- Node9&#45;&gt;Node17 -->
<g id="edge16" class="edge">
<title>Node9&#45;&gt;Node17</title>
<path fill="none" stroke="#63b8ff" d="M2332.69,-62.38C2366.49,-52.32 2408.34,-39.86 2440.16,-30.39"/>
<polygon fill="#63b8ff" stroke="#63b8ff" points="2332.05,-58.92 2323.47,-65.13 2334.05,-65.63 2332.05,-58.92"/>
</g>
<!-- Node18 -->
<g id="node18" class="node">
<title>Node18</title>
<g id="a_node18"><a xlink:href="directx12vertexshaderloader_8cpp.html" target="_top" xlink:title=" ">
<polygon fill="white" stroke="#666666" points="2825,-30 2604,-30 2604,0 2825,0 2825,-30"/>
<text text-anchor="start" x="2612" y="-18" font-family="Helvetica,sans-Serif" font-size="10.00">plugins/renderer/directx12</text>
<text text-anchor="middle" x="2714.5" y="-7" font-family="Helvetica,sans-Serif" font-size="10.00">/src/DirectX12/directx12vertexshaderloader.cpp</text>
</a>
</g>
</g>
<!-- Node9&#45;&gt;Node18 -->
<g id="edge17" class="edge">
<title>Node9&#45;&gt;Node18</title>
<path fill="none" stroke="#63b8ff" d="M2378.58,-64.75C2450.15,-54.36 2544.3,-40.7 2614.71,-30.48"/>
<polygon fill="#63b8ff" stroke="#63b8ff" points="2378.19,-61.27 2368.79,-66.17 2379.19,-68.2 2378.19,-61.27"/>
</g>
<!-- Node19 -->
<g id="node19" class="node">
<title>Node19</title>
<g id="a_node19"><a xlink:href="directx12commandallocator_8cpp.html" target="_top" xlink:title=" ">
<polygon fill="white" stroke="#666666" points="3077.5,-30 2843.5,-30 2843.5,0 3077.5,0 3077.5,-30"/>
<text text-anchor="start" x="2851.5" y="-18" font-family="Helvetica,sans-Serif" font-size="10.00">plugins/renderer/directx12</text>
<text text-anchor="middle" x="2960.5" y="-7" font-family="Helvetica,sans-Serif" font-size="10.00">/src/DirectX12/util/directx12commandallocator.cpp</text>
</a>
</g>
</g>
<!-- Node9&#45;&gt;Node19 -->
<g id="edge19" class="edge">
<title>Node9&#45;&gt;Node19</title>
<path fill="none" stroke="#63b8ff" d="M2378.53,-71.28C2491.11,-61.77 2675.04,-45.81 2833.5,-30 2836.7,-29.68 2839.95,-29.35 2843.22,-29.02"/>
<polygon fill="#63b8ff" stroke="#63b8ff" points="2378.37,-67.78 2368.7,-72.11 2378.96,-74.75 2378.37,-67.78"/>
</g>
<!-- Node20 -->
<g id="node20" class="node">
<title>Node20</title>
<g id="a_node20"><a xlink:href="directx12descriptorheap_8cpp.html" target="_top" xlink:title=" ">
<polygon fill="white" stroke="#666666" points="3313.5,-30 3095.5,-30 3095.5,0 3313.5,0 3313.5,-30"/>
<text text-anchor="start" x="3103.5" y="-18" font-family="Helvetica,sans-Serif" font-size="10.00">plugins/renderer/directx12</text>
<text text-anchor="middle" x="3204.5" y="-7" font-family="Helvetica,sans-Serif" font-size="10.00">/src/DirectX12/util/directx12descriptorheap.cpp</text>
</a>
</g>
</g>
<!-- Node9&#45;&gt;Node20 -->
<g id="edge20" class="edge">
<title>Node9&#45;&gt;Node20</title>
<path fill="none" stroke="#63b8ff" d="M2378.58,-75.44C2533.65,-68.29 2832.82,-52.83 3086.5,-30 3089.38,-29.74 3092.29,-29.47 3095.23,-29.18"/>
<polygon fill="#63b8ff" stroke="#63b8ff" points="2378.55,-71.94 2368.73,-75.9 2378.88,-78.93 2378.55,-71.94"/>
</g>
<!-- Node21 -->
<g id="node21" class="node">
<title>Node21</title>
<g id="a_node21"><a xlink:href="directx12heapallocator_8cpp.html" target="_top" xlink:title=" ">
<polygon fill="white" stroke="#666666" points="3543.5,-30 3331.5,-30 3331.5,0 3543.5,0 3543.5,-30"/>
<text text-anchor="start" x="3339.5" y="-18" font-family="Helvetica,sans-Serif" font-size="10.00">plugins/renderer/directx12</text>
<text text-anchor="middle" x="3437.5" y="-7" font-family="Helvetica,sans-Serif" font-size="10.00">/src/DirectX12/util/directx12heapallocator.cpp</text>
</a>
</g>
</g>
<!-- Node9&#45;&gt;Node21 -->
<g id="edge21" class="edge">
<title>Node9&#45;&gt;Node21</title>
<path fill="none" stroke="#63b8ff" d="M2378.64,-77.55C2567.77,-72.56 2977.77,-59.16 3322.5,-30 3325.31,-29.76 3328.15,-29.51 3331.02,-29.24"/>
<polygon fill="#63b8ff" stroke="#63b8ff" points="2378.75,-74.04 2368.84,-77.8 2378.93,-81.04 2378.75,-74.04"/>
</g>
<!-- Node22 -->
<g id="node22" class="node">
<title>Node22</title>
<g id="a_node22"><a xlink:href="directx12pipeline_8cpp.html" target="_top" xlink:title=" ">
<polygon fill="white" stroke="#666666" points="3749.5,-30 3561.5,-30 3561.5,0 3749.5,0 3749.5,-30"/>
<text text-anchor="start" x="3569.5" y="-18" font-family="Helvetica,sans-Serif" font-size="10.00">plugins/renderer/directx12</text>
<text text-anchor="middle" x="3655.5" y="-7" font-family="Helvetica,sans-Serif" font-size="10.00">/src/DirectX12/util/directx12pipeline.cpp</text>
</a>
</g>
</g>
<!-- Node9&#45;&gt;Node22 -->
<g id="edge23" class="edge">
<title>Node9&#45;&gt;Node22</title>
<path fill="none" stroke="#63b8ff" d="M2378.62,-79.3C2597.47,-77.1 3117.8,-67.95 3552.5,-30 3555.38,-29.75 3558.3,-29.47 3561.24,-29.18"/>
<polygon fill="#63b8ff" stroke="#63b8ff" points="2378.65,-75.8 2368.68,-79.4 2378.72,-82.8 2378.65,-75.8"/>
</g>
<!-- Node23 -->
<g id="node23" class="node">
<title>Node23</title>
<g id="a_node23"><a xlink:href="directx12queryheap_8cpp.html" target="_top" xlink:title=" ">
<polygon fill="white" stroke="#666666" points="3967,-30 3768,-30 3768,0 3967,0 3967,-30"/>
<text text-anchor="start" x="3776" y="-18" font-family="Helvetica,sans-Serif" font-size="10.00">plugins/renderer/directx12</text>
<text text-anchor="middle" x="3867.5" y="-7" font-family="Helvetica,sans-Serif" font-size="10.00">/src/DirectX12/util/directx12queryheap.cpp</text>
</a>
</g>
</g>
<!-- Node9&#45;&gt;Node23 -->
<g id="edge25" class="edge">
<title>Node9&#45;&gt;Node23</title>
<path fill="none" stroke="#63b8ff" d="M2378.8,-79.85C2622.13,-78.77 3242.17,-71.76 3758.5,-30 3761.54,-29.75 3764.63,-29.48 3767.75,-29.19"/>
<polygon fill="#63b8ff" stroke="#63b8ff" points="2378.99,-76.35 2369.01,-79.89 2379.02,-83.35 2378.99,-76.35"/>
</g>
<!-- Node24 -->
<g id="node24" class="node">
<title>Node24</title>
<g id="a_node24"><a xlink:href="dx12dump_8cpp.html" target="_top" xlink:title=" ">
<polygon fill="white" stroke="#666666" points="4145.5,-30 3985.5,-30 3985.5,0 4145.5,0 4145.5,-30"/>
<text text-anchor="start" x="3993.5" y="-18" font-family="Helvetica,sans-Serif" font-size="10.00">plugins/renderer/directx12</text>
<text text-anchor="middle" x="4065.5" y="-7" font-family="Helvetica,sans-Serif" font-size="10.00">/src/DirectX12/util/dx12dump.cpp</text>
</a>
</g>
</g>
<!-- Node9&#45;&gt;Node24 -->
<g id="edge27" class="edge">
<title>Node9&#45;&gt;Node24</title>
<path fill="none" stroke="#63b8ff" d="M2378.62,-78.63C2699.46,-74.19 3663.22,-58.76 3975.5,-30 3978.65,-29.71 3981.86,-29.38 3985.09,-29.02"/>
<polygon fill="#63b8ff" stroke="#63b8ff" points="2378.94,-75.13 2368.99,-78.77 2379.04,-82.13 2378.94,-75.13"/>
</g>
<!-- Node26 -->
<g id="node26" class="node">
<title>Node26</title>
<g id="a_node26"><a xlink:href="openglmeshloader_8cpp.html" target="_top" xlink:title=" ">
<polygon fill="white" stroke="#666666" points="4337,-30 4164,-30 4164,0 4337,0 4337,-30"/>
<text text-anchor="start" x="4172" y="-18" font-family="Helvetica,sans-Serif" font-size="10.00">plugins/renderer/opengl</text>
<text text-anchor="middle" x="4250.5" y="-7" font-family="Helvetica,sans-Serif" font-size="10.00">/src/OpenGL/openglmeshloader.cpp</text>
</a>
</g>
</g>
<!-- Node25&#45;&gt;Node26 -->
<g id="edge29" class="edge">
<title>Node25&#45;&gt;Node26</title>
<path fill="none" stroke="#63b8ff" d="M4745.94,-71.54C4645.89,-62.48 4485.04,-47.08 4346.5,-30 4343.49,-29.63 4340.43,-29.24 4337.34,-28.84"/>
<polygon fill="#63b8ff" stroke="#63b8ff" points="4745.46,-75.01 4755.73,-72.43 4746.09,-68.04 4745.46,-75.01"/>
</g>
<!-- Node27 -->
<g id="node27" class="node">
<title>Node27</title>
<g id="a_node27"><a xlink:href="openglpipelineloader_8cpp.html" target="_top" xlink:title=" ">
<polygon fill="white" stroke="#666666" points="4537.5,-30 4355.5,-30 4355.5,0 4537.5,0 4537.5,-30"/>
<text text-anchor="start" x="4363.5" y="-18" font-family="Helvetica,sans-Serif" font-size="10.00">plugins/renderer/opengl</text>
<text text-anchor="middle" x="4446.5" y="-7" font-family="Helvetica,sans-Serif" font-size="10.00">/src/OpenGL/openglpipelineloader.cpp</text>
</a>
</g>
</g>
<!-- Node25&#45;&gt;Node27 -->
<g id="edge30" class="edge">
<title>Node25&#45;&gt;Node27</title>
<path fill="none" stroke="#63b8ff" d="M4745.75,-64.36C4681.72,-54.02 4598.38,-40.55 4535.91,-30.45"/>
<polygon fill="#63b8ff" stroke="#63b8ff" points="4745.14,-67.81 4755.57,-65.95 4746.25,-60.9 4745.14,-67.81"/>
</g>
<!-- Node28 -->
<g id="node28" class="node">
<title>Node28</title>
<g id="a_node28"><a xlink:href="openglrendercontext_8cpp.html" target="_top" xlink:title=" ">
<polygon fill="white" stroke="#666666" points="4737,-30 4556,-30 4556,0 4737,0 4737,-30"/>
<text text-anchor="start" x="4564" y="-18" font-family="Helvetica,sans-Serif" font-size="10.00">plugins/renderer/opengl</text>
<text text-anchor="middle" x="4646.5" y="-7" font-family="Helvetica,sans-Serif" font-size="10.00">/src/OpenGL/openglrendercontext.cpp</text>
</a>
</g>
</g>
<!-- Node25&#45;&gt;Node28 -->
<g id="edge31" class="edge">
<title>Node25&#45;&gt;Node28</title>
<path fill="none" stroke="#63b8ff" d="M4787.58,-62.07C4756.98,-52.07 4719.37,-39.79 4690.68,-30.43"/>
<polygon fill="#63b8ff" stroke="#63b8ff" points="4786.48,-65.39 4797.07,-65.17 4788.66,-58.74 4786.48,-65.39"/>
</g>
<!-- Node29 -->
<g id="node29" class="node">
<title>Node29</title>
<g id="a_node29"><a xlink:href="openglrendertarget_8cpp.html" target="_top" xlink:title=" ">
<polygon fill="white" stroke="#666666" points="4929.5,-30 4755.5,-30 4755.5,0 4929.5,0 4929.5,-30"/>
<text text-anchor="start" x="4763.5" y="-18" font-family="Helvetica,sans-Serif" font-size="10.00">plugins/renderer/opengl</text>
<text text-anchor="middle" x="4842.5" y="-7" font-family="Helvetica,sans-Serif" font-size="10.00">/src/OpenGL/openglrendertarget.cpp</text>
</a>
</g>
</g>
<!-- Node25&#45;&gt;Node29 -->
<g id="edge32" class="edge">
<title>Node25&#45;&gt;Node29</title>
<path fill="none" stroke="#63b8ff" d="M4842.5,-54.39C4842.5,-46.13 4842.5,-37.28 4842.5,-30.16"/>
<polygon fill="#63b8ff" stroke="#63b8ff" points="4839,-54.28 4842.5,-64.28 4846,-54.28 4839,-54.28"/>
</g>
<!-- Node30 -->
<g id="node30" class="node">
<title>Node30</title>
<g id="a_node30"><a xlink:href="openglrendertexture_8cpp.html" target="_top" xlink:title=" ">
<polygon fill="white" stroke="#666666" points="5127,-30 4948,-30 4948,0 5127,0 5127,-30"/>
<text text-anchor="start" x="4956" y="-18" font-family="Helvetica,sans-Serif" font-size="10.00">plugins/renderer/opengl</text>
<text text-anchor="middle" x="5037.5" y="-7" font-family="Helvetica,sans-Serif" font-size="10.00">/src/OpenGL/openglrendertexture.cpp</text>
</a>
</g>
</g>
<!-- Node25&#45;&gt;Node30 -->
<g id="edge33" class="edge">
<title>Node25&#45;&gt;Node30</title>
<path fill="none" stroke="#63b8ff" d="M4897.14,-62.07C4927.59,-52.07 4965.01,-39.79 4993.55,-30.43"/>
<polygon fill="#63b8ff" stroke="#63b8ff" points="4896.11,-58.72 4887.7,-65.17 4898.29,-65.37 4896.11,-58.72"/>
</g>
<!-- Node31 -->
<g id="node31" class="node">
<title>Node31</title>
<g id="a_node31"><a xlink:href="openglrenderwindow_8cpp.html" target="_top" xlink:title=" ">
<polygon fill="white" stroke="#666666" points="5327.5,-30 5145.5,-30 5145.5,0 5327.5,0 5327.5,-30"/>
<text text-anchor="start" x="5153.5" y="-18" font-family="Helvetica,sans-Serif" font-size="10.00">plugins/renderer/opengl</text>
<text text-anchor="middle" x="5236.5" y="-7" font-family="Helvetica,sans-Serif" font-size="10.00">/src/OpenGL/openglrenderwindow.cpp</text>
</a>
</g>
</g>
<!-- Node25&#45;&gt;Node31 -->
<g id="edge34" class="edge">
<title>Node25&#45;&gt;Node31</title>
<path fill="none" stroke="#63b8ff" d="M4939.23,-64.29C5002.83,-53.96 5085.43,-40.54 5147.42,-30.47"/>
<polygon fill="#63b8ff" stroke="#63b8ff" points="4938.8,-60.81 4929.49,-65.87 4939.92,-67.72 4938.8,-60.81"/>
</g>
<!-- Node32 -->
<g id="node32" class="node">
<title>Node32</title>
<g id="a_node32"><a xlink:href="openglshaderloader_8cpp.html" target="_top" xlink:title=" ">
<polygon fill="white" stroke="#666666" points="5523.5,-30 5345.5,-30 5345.5,0 5523.5,0 5523.5,-30"/>
<text text-anchor="start" x="5353.5" y="-18" font-family="Helvetica,sans-Serif" font-size="10.00">plugins/renderer/opengl</text>
<text text-anchor="middle" x="5434.5" y="-7" font-family="Helvetica,sans-Serif" font-size="10.00">/src/OpenGL/openglshaderloader.cpp</text>
</a>
</g>
</g>
<!-- Node25&#45;&gt;Node32 -->
<g id="edge35" class="edge">
<title>Node25&#45;&gt;Node32</title>
<path fill="none" stroke="#63b8ff" d="M4939.1,-71.4C5038.78,-62.26 5198.7,-46.81 5336.5,-30 5339.31,-29.66 5342.17,-29.3 5345.06,-28.93"/>
<polygon fill="#63b8ff" stroke="#63b8ff" points="4939,-67.9 4929.36,-72.3 4939.63,-74.87 4939,-67.9"/>
</g>
<!-- Node33 -->
<g id="node33" class="node">
<title>Node33</title>
<g id="a_node33"><a xlink:href="opengltextureloader_8cpp.html" target="_top" xlink:title=" ">
<polygon fill="white" stroke="#666666" points="5719.5,-30 5541.5,-30 5541.5,0 5719.5,0 5719.5,-30"/>
<text text-anchor="start" x="5549.5" y="-18" font-family="Helvetica,sans-Serif" font-size="10.00">plugins/renderer/opengl</text>
<text text-anchor="middle" x="5630.5" y="-7" font-family="Helvetica,sans-Serif" font-size="10.00">/src/OpenGL/opengltextureloader.cpp</text>
</a>
</g>
</g>
<!-- Node25&#45;&gt;Node33 -->
<g id="edge36" class="edge">
<title>Node25&#45;&gt;Node33</title>
<path fill="none" stroke="#63b8ff" d="M4939.31,-75.11C5072.97,-67.88 5321.46,-52.69 5532.5,-30 5535.32,-29.7 5538.18,-29.37 5541.07,-29.04"/>
<polygon fill="#63b8ff" stroke="#63b8ff" points="4939.23,-71.61 4929.43,-75.64 4939.6,-78.6 4939.23,-71.61"/>
</g>
<!-- Node34 -->
<g id="node34" class="node">
<title>Node34</title>
<g id="a_node34"><a xlink:href="openglpipelineinstance_8cpp.html" target="_top" xlink:title=" ">
<polygon fill="white" stroke="#666666" points="5945.5,-30 5737.5,-30 5737.5,0 5945.5,0 5945.5,-30"/>
<text text-anchor="start" x="5745.5" y="-18" font-family="Helvetica,sans-Serif" font-size="10.00">plugins/renderer/opengl</text>
<text text-anchor="middle" x="5841.5" y="-7" font-family="Helvetica,sans-Serif" font-size="10.00">/src/OpenGL/util/openglpipelineinstance.cpp</text>
</a>
</g>
</g>
<!-- Node25&#45;&gt;Node34 -->
<g id="edge37" class="edge">
<title>Node25&#45;&gt;Node34</title>
<path fill="none" stroke="#63b8ff" d="M4939.29,-76.66C5102.36,-70.55 5442.11,-55.79 5728.5,-30 5731.35,-29.74 5734.25,-29.47 5737.17,-29.18"/>
<polygon fill="#63b8ff" stroke="#63b8ff" points="4939.23,-73.16 4929.37,-77.03 4939.49,-80.15 4939.23,-73.16"/>
</g>
<!-- Node35&#45;&gt;Node6 -->
<g id="edge39" class="edge">
<title>Node35&#45;&gt;Node6</title>
<path fill="none" stroke="#63b8ff" d="M7150.55,-79.43C6958.22,-77.45 6505.93,-68.69 6128.5,-30 6125.46,-29.69 6122.36,-29.34 6119.23,-28.96"/>
<polygon fill="#63b8ff" stroke="#63b8ff" points="7150.46,-82.92 7160.49,-79.52 7150.53,-75.92 7150.46,-82.92"/>
</g>
<!-- Node35&#45;&gt;Node7 -->
<g id="edge45" class="edge">
<title>Node35&#45;&gt;Node7</title>
<path fill="none" stroke="#63b8ff" d="M7150.86,-78.13C6981.94,-74.07 6615.17,-62.06 6307.5,-30 6304.51,-29.69 6301.47,-29.35 6298.4,-28.98"/>
<polygon fill="#63b8ff" stroke="#63b8ff" points="7150.59,-81.63 7160.67,-78.36 7150.76,-74.63 7150.59,-81.63"/>
</g>
<!-- Node36 -->
<g id="node36" class="node">
<title>Node36</title>
<g id="a_node36"><a xlink:href="vulkancommandlist_8cpp.html" target="_top" xlink:title=" ">
<polygon fill="white" stroke="#666666" points="6503,-30 6316,-30 6316,0 6503,0 6503,-30"/>
<text text-anchor="start" x="6324" y="-18" font-family="Helvetica,sans-Serif" font-size="10.00">plugins/renderer/vulkan</text>
<text text-anchor="middle" x="6409.5" y="-7" font-family="Helvetica,sans-Serif" font-size="10.00">/src/Vulkan/util/vulkancommandlist.cpp</text>
</a>
</g>
</g>
<!-- Node35&#45;&gt;Node36 -->
<g id="edge40" class="edge">
<title>Node35&#45;&gt;Node36</title>
<path fill="none" stroke="#63b8ff" d="M7150.57,-75.6C7011.1,-68.61 6741.14,-53.32 6512.5,-30 6509.54,-29.7 6506.53,-29.38 6503.49,-29.04"/>
<polygon fill="#63b8ff" stroke="#63b8ff" points="7150.34,-79.09 7160.5,-76.09 7150.69,-72.1 7150.34,-79.09"/>
</g>
<!-- Node37 -->
<g id="node37" class="node">
<title>Node37</title>
<g id="a_node37"><a xlink:href="vulkanconstantbufferheap_8cpp.html" target="_top" xlink:title=" ">
<polygon fill="white" stroke="#666666" points="6735.5,-30 6521.5,-30 6521.5,0 6735.5,0 6735.5,-30"/>
<text text-anchor="start" x="6529.5" y="-18" font-family="Helvetica,sans-Serif" font-size="10.00">plugins/renderer/vulkan</text>
<text text-anchor="middle" x="6628.5" y="-7" font-family="Helvetica,sans-Serif" font-size="10.00">/src/Vulkan/util/vulkanconstantbufferheap.cpp</text>
</a>
</g>
</g>
<!-- Node35&#45;&gt;Node37 -->
<g id="edge41" class="edge">
<title>Node35&#45;&gt;Node37</title>
<path fill="none" stroke="#63b8ff" d="M7151.02,-71.17C7050.72,-61.58 6886.75,-45.53 6745.5,-30 6742.35,-29.65 6739.15,-29.3 6735.92,-28.93"/>
<polygon fill="#63b8ff" stroke="#63b8ff" points="7150.54,-74.64 7160.82,-72.11 7151.2,-67.68 7150.54,-74.64"/>
</g>
<!-- Node38 -->
<g id="node38" class="node">
<title>Node38</title>
<g id="a_node38"><a xlink:href="vulkanheapallocator_8cpp.html" target="_top" xlink:title=" ">
<polygon fill="white" stroke="#666666" points="6943,-30 6754,-30 6754,0 6943,0 6943,-30"/>
<text text-anchor="start" x="6762" y="-18" font-family="Helvetica,sans-Serif" font-size="10.00">plugins/renderer/vulkan</text>
<text text-anchor="middle" x="6848.5" y="-7" font-family="Helvetica,sans-Serif" font-size="10.00">/src/Vulkan/util/vulkanheapallocator.cpp</text>
</a>
</g>
</g>
<!-- Node35&#45;&gt;Node38 -->
<g id="edge42" class="edge">
<title>Node35&#45;&gt;Node38</title>
<path fill="none" stroke="#63b8ff" d="M7151.48,-64.97C7087.03,-54.55 7001.71,-40.76 6938.03,-30.47"/>
<polygon fill="#63b8ff" stroke="#63b8ff" points="7150.52,-68.36 7160.95,-66.5 7151.64,-61.45 7150.52,-68.36"/>
</g>
<!-- Node39 -->
<g id="node39" class="node">
<title>Node39</title>
<g id="a_node39"><a xlink:href="vulkanpipeline_8cpp.html" target="_top" xlink:title=" ">
<polygon fill="white" stroke="#666666" points="7125.5,-30 6961.5,-30 6961.5,0 7125.5,0 7125.5,-30"/>
<text text-anchor="start" x="6969.5" y="-18" font-family="Helvetica,sans-Serif" font-size="10.00">plugins/renderer/vulkan</text>
<text text-anchor="middle" x="7043.5" y="-7" font-family="Helvetica,sans-Serif" font-size="10.00">/src/Vulkan/util/vulkanpipeline.cpp</text>
</a>
</g>
</g>
<!-- Node35&#45;&gt;Node39 -->
<g id="edge43" class="edge">
<title>Node35&#45;&gt;Node39</title>
<path fill="none" stroke="#63b8ff" d="M7188.34,-62.12C7156.89,-52.1 7118.18,-39.78 7088.69,-30.39"/>
<polygon fill="#63b8ff" stroke="#63b8ff" points="7187.11,-65.4 7197.7,-65.1 7189.23,-58.73 7187.11,-65.4"/>
</g>
<!-- Node40 -->
<g id="node40" class="node">
<title>Node40</title>
<g id="a_node40"><a xlink:href="vulkanpipelineinstance_8cpp.html" target="_top" xlink:title=" ">
<polygon fill="white" stroke="#666666" points="7345,-30 7144,-30 7144,0 7345,0 7345,-30"/>
<text text-anchor="start" x="7152" y="-18" font-family="Helvetica,sans-Serif" font-size="10.00">plugins/renderer/vulkan</text>
<text text-anchor="middle" x="7244.5" y="-7" font-family="Helvetica,sans-Serif" font-size="10.00">/src/Vulkan/util/vulkanpipelineinstance.cpp</text>
</a>
</g>
</g>
<!-- Node35&#45;&gt;Node40 -->
<g id="edge44" class="edge">
<title>Node35&#45;&gt;Node40</title>
<path fill="none" stroke="#63b8ff" d="M7244.5,-54.39C7244.5,-46.13 7244.5,-37.28 7244.5,-30.16"/>
<polygon fill="#63b8ff" stroke="#63b8ff" points="7241,-54.28 7244.5,-64.28 7248,-54.28 7241,-54.28"/>
</g>
<!-- Node41 -->
<g id="node41" class="node">
<title>Node41</title>
<g id="a_node41"><a xlink:href="vulkanmeshloader_8cpp.html" target="_top" xlink:title=" ">
<polygon fill="white" stroke="#666666" points="7529.5,-30 7363.5,-30 7363.5,0 7529.5,0 7529.5,-30"/>
<text text-anchor="start" x="7371.5" y="-18" font-family="Helvetica,sans-Serif" font-size="10.00">plugins/renderer/vulkan</text>
<text text-anchor="middle" x="7446.5" y="-7" font-family="Helvetica,sans-Serif" font-size="10.00">/src/Vulkan/vulkanmeshloader.cpp</text>
</a>
</g>
</g>
<!-- Node35&#45;&gt;Node41 -->
<g id="edge46" class="edge">
<title>Node35&#45;&gt;Node41</title>
<path fill="none" stroke="#63b8ff" d="M7300.94,-62.12C7332.55,-52.1 7371.45,-39.78 7401.08,-30.39"/>
<polygon fill="#63b8ff" stroke="#63b8ff" points="7300,-58.74 7291.53,-65.1 7302.12,-65.42 7300,-58.74"/>
</g>
<!-- Node42 -->
<g id="node42" class="node">
<title>Node42</title>
<g id="a_node42"><a xlink:href="vulkanpipelineloader_8cpp.html" target="_top" xlink:title=" ">
<polygon fill="white" stroke="#666666" points="7723,-30 7548,-30 7548,0 7723,0 7723,-30"/>
<text text-anchor="start" x="7556" y="-18" font-family="Helvetica,sans-Serif" font-size="10.00">plugins/renderer/vulkan</text>
<text text-anchor="middle" x="7635.5" y="-7" font-family="Helvetica,sans-Serif" font-size="10.00">/src/Vulkan/vulkanpipelineloader.cpp</text>
</a>
</g>
</g>
<!-- Node35&#45;&gt;Node42 -->
<g id="edge47" class="edge">
<title>Node35&#45;&gt;Node42</title>
<path fill="none" stroke="#63b8ff" d="M7338.18,-64.67C7401.81,-54.25 7485.4,-40.57 7547.74,-30.37"/>
<polygon fill="#63b8ff" stroke="#63b8ff" points="7337.74,-61.19 7328.44,-66.26 7338.87,-68.1 7337.74,-61.19"/>
</g>
<!-- Node43 -->
<g id="node43" class="node">
<title>Node43</title>
<g id="a_node43"><a xlink:href="vulkanrendercontext_8cpp.html" target="_top" xlink:title=" ">
<polygon fill="white" stroke="#666666" points="7915.5,-30 7741.5,-30 7741.5,0 7915.5,0 7915.5,-30"/>
<text text-anchor="start" x="7749.5" y="-18" font-family="Helvetica,sans-Serif" font-size="10.00">plugins/renderer/vulkan</text>
<text text-anchor="middle" x="7828.5" y="-7" font-family="Helvetica,sans-Serif" font-size="10.00">/src/Vulkan/vulkanrendercontext.cpp</text>
</a>
</g>
</g>
<!-- Node35&#45;&gt;Node43 -->
<g id="edge48" class="edge">
<title>Node35&#45;&gt;Node43</title>
<path fill="none" stroke="#63b8ff" d="M7338.04,-71.61C7436.37,-62.52 7595.51,-47 7732.5,-30 7735.34,-29.65 7738.23,-29.28 7741.14,-28.9"/>
<polygon fill="#63b8ff" stroke="#63b8ff" points="7337.79,-68.12 7328.16,-72.52 7338.43,-75.09 7337.79,-68.12"/>
</g>
<!-- Node44 -->
<g id="node44" class="node">
<title>Node44</title>
<g id="a_node44"><a xlink:href="vulkanrendertarget_8cpp.html" target="_top" xlink:title=" ">
<polygon fill="white" stroke="#666666" points="8101,-30 7934,-30 7934,0 8101,0 8101,-30"/>
<text text-anchor="start" x="7942" y="-18" font-family="Helvetica,sans-Serif" font-size="10.00">plugins/renderer/vulkan</text>
<text text-anchor="middle" x="8017.5" y="-7" font-family="Helvetica,sans-Serif" font-size="10.00">/src/Vulkan/vulkanrendertarget.cpp</text>
</a>
</g>
</g>
<!-- Node35&#45;&gt;Node44 -->
<g id="edge49" class="edge">
<title>Node35&#45;&gt;Node44</title>
<path fill="none" stroke="#63b8ff" d="M7338.04,-75.38C7469.33,-68.38 7715.6,-53.37 7924.5,-30 7927.58,-29.66 7930.72,-29.28 7933.89,-28.89"/>
<polygon fill="#63b8ff" stroke="#63b8ff" points="7338.17,-71.87 7328.37,-75.89 7338.54,-78.86 7338.17,-71.87"/>
</g>
<!-- Node45 -->
<g id="node45" class="node">
<title>Node45</title>
<g id="a_node45"><a xlink:href="vulkanrendertexture_8cpp.html" target="_top" xlink:title=" ">
<polygon fill="white" stroke="#666666" points="8291.5,-30 8119.5,-30 8119.5,0 8291.5,0 8291.5,-30"/>
<text text-anchor="start" x="8127.5" y="-18" font-family="Helvetica,sans-Serif" font-size="10.00">plugins/renderer/vulkan</text>
<text text-anchor="middle" x="8205.5" y="-7" font-family="Helvetica,sans-Serif" font-size="10.00">/src/Vulkan/vulkanrendertexture.cpp</text>
</a>
</g>
</g>
<!-- Node35&#45;&gt;Node45 -->
<g id="edge50" class="edge">
<title>Node35&#45;&gt;Node45</title>
<path fill="none" stroke="#63b8ff" d="M7337.93,-77.32C7496.92,-72.16 7830.15,-58.69 8110.5,-30 8113.32,-29.71 8116.18,-29.4 8119.07,-29.07"/>
<polygon fill="#63b8ff" stroke="#63b8ff" points="7338.18,-73.81 7328.29,-77.63 7338.4,-80.81 7338.18,-73.81"/>
</g>
<!-- Node46 -->
<g id="node46" class="node">
<title>Node46</title>
<g id="a_node46"><a xlink:href="vulkanrenderwindow_8cpp.html" target="_top" xlink:title=" ">
<polygon fill="white" stroke="#666666" points="8485.5,-30 8309.5,-30 8309.5,0 8485.5,0 8485.5,-30"/>
<text text-anchor="start" x="8317.5" y="-18" font-family="Helvetica,sans-Serif" font-size="10.00">plugins/renderer/vulkan</text>
<text text-anchor="middle" x="8397.5" y="-7" font-family="Helvetica,sans-Serif" font-size="10.00">/src/Vulkan/vulkanrenderwindow.cpp</text>
</a>
</g>
</g>
<!-- Node35&#45;&gt;Node46 -->
<g id="edge51" class="edge">
<title>Node35&#45;&gt;Node46</title>
<path fill="none" stroke="#63b8ff" d="M7338.12,-78.58C7522.64,-75.12 7946.16,-63.88 8300.5,-30 8303.38,-29.72 8306.3,-29.42 8309.26,-29.1"/>
<polygon fill="#63b8ff" stroke="#63b8ff" points="7338.29,-75.08 7328.36,-78.76 7338.42,-82.08 7338.29,-75.08"/>
</g>
<!-- Node47 -->
<g id="node47" class="node">
<title>Node47</title>
<g id="a_node47"><a xlink:href="vulkanshaderloader_8cpp.html" target="_top" xlink:title=" ">
<polygon fill="white" stroke="#666666" points="8675,-30 8504,-30 8504,0 8675,0 8675,-30"/>
<text text-anchor="start" x="8512" y="-18" font-family="Helvetica,sans-Serif" font-size="10.00">plugins/renderer/vulkan</text>
<text text-anchor="middle" x="8589.5" y="-7" font-family="Helvetica,sans-Serif" font-size="10.00">/src/Vulkan/vulkanshaderloader.cpp</text>
</a>
</g>
</g>
<!-- Node35&#45;&gt;Node47 -->
<g id="edge52" class="edge">
<title>Node35&#45;&gt;Node47</title>
<path fill="none" stroke="#63b8ff" d="M7338.46,-79.65C7546.96,-78.12 8063.93,-70.22 8494.5,-30 8497.49,-29.72 8500.53,-29.41 8503.59,-29.08"/>
<polygon fill="#63b8ff" stroke="#63b8ff" points="7338.46,-76.15 7328.48,-79.72 7338.51,-83.15 7338.46,-76.15"/>
</g>
<!-- Node48 -->
<g id="node48" class="node">
<title>Node48</title>
<g id="a_node48"><a xlink:href="vulkantextureloader_8cpp.html" target="_top" xlink:title=" ">
<polygon fill="white" stroke="#666666" points="8864,-30 8693,-30 8693,0 8864,0 8864,-30"/>
<text text-anchor="start" x="8701" y="-18" font-family="Helvetica,sans-Serif" font-size="10.00">plugins/renderer/vulkan</text>
<text text-anchor="middle" x="8778.5" y="-7" font-family="Helvetica,sans-Serif" font-size="10.00">/src/Vulkan/vulkantextureloader.cpp</text>
</a>
</g>
</g>
<!-- Node35&#45;&gt;Node48 -->
<g id="edge53" class="edge">
<title>Node35&#45;&gt;Node48</title>
<path fill="none" stroke="#63b8ff" d="M7338,-80.41C7567.73,-80.62 8178.02,-76.36 8684.5,-30 8687.21,-29.75 8689.96,-29.48 8692.74,-29.18"/>
<polygon fill="#63b8ff" stroke="#63b8ff" points="7338.21,-76.91 7328.21,-80.4 7338.2,-83.91 7338.21,-76.91"/>
</g>
<!-- Node49&#45;&gt;Node9 -->
<g id="edge55" class="edge">
<title>Node49&#45;&gt;Node9</title>
<path fill="none" stroke="#63b8ff" d="M3555.59,-142.92C3336.57,-132.51 2624.23,-98.66 2367.13,-86.45"/>
<polygon fill="#63b8ff" stroke="#63b8ff" points="3555.2,-146.4 3565.35,-143.38 3555.53,-139.41 3555.2,-146.4"/>
</g>
<!-- Node49&#45;&gt;Node25 -->
<g id="edge56" class="edge">
<title>Node49&#45;&gt;Node25</title>
<path fill="none" stroke="#63b8ff" d="M3685.67,-142.59C3891.18,-131.82 4525.73,-98.59 4757.02,-86.48"/>
<polygon fill="#63b8ff" stroke="#63b8ff" points="3685.5,-139.09 3675.7,-143.11 3685.87,-146.08 3685.5,-139.09"/>
</g>
<!-- Node49&#45;&gt;Node35 -->
<g id="edge57" class="edge">
<title>Node49&#45;&gt;Node35</title>
<path fill="none" stroke="#63b8ff" d="M3685.4,-144.85C4125.55,-137.08 6670.4,-92.14 7162.22,-83.45"/>
<polygon fill="#63b8ff" stroke="#63b8ff" points="3685.64,-141.35 3675.7,-145.03 3685.76,-148.35 3685.64,-141.35"/>
</g>
</g>
</svg>
