<?xml version="1.0" encoding="UTF-8" standalone="no"?>
<!DOCTYPE svg PUBLIC "-//W3C//DTD SVG 1.1//EN"
 "http://www.w3.org/Graphics/SVG/1.1/DTD/svg11.dtd">
<!-- Generated by graphviz version 7.0.5 (20221223.1930)
 -->
<!-- Title: plugins/resources/animationloader/Madgine/animationloaderforward.h Pages: 1 -->
<svg width="225pt" height="170pt"
 viewBox="0.00 0.00 225.00 170.00" xmlns="http://www.w3.org/2000/svg" xmlns:xlink="http://www.w3.org/1999/xlink">
<g id="graph0" class="graph" transform="scale(1 1) rotate(0) translate(4 166)">
<title>plugins/resources/animationloader/Madgine/animationloaderforward.h</title>
<!-- Node1 -->
<g id="node1" class="node">
<title>Node1</title>
<g id="a_node1"><a xlink:title=" ">
<polygon fill="#999999" stroke="#666666" points="192,-162 25,-162 25,-132 192,-132 192,-162"/>
<text text-anchor="start" x="33" y="-150" font-family="Helvetica,sans-Serif" font-size="10.00">plugins/resources/animationloader</text>
<text text-anchor="middle" x="108.5" y="-139" font-family="Helvetica,sans-Serif" font-size="10.00">/Madgine/animationloaderforward.h</text>
</a>
</g>
</g>
<!-- Node2 -->
<g id="node2" class="node">
<title>Node2</title>
<g id="a_node2"><a xlink:href="animationloaderlib_8h.html" target="_top" xlink:title=" ">
<polygon fill="white" stroke="#666666" points="190.5,-96 26.5,-96 26.5,-66 190.5,-66 190.5,-96"/>
<text text-anchor="start" x="34.5" y="-84" font-family="Helvetica,sans-Serif" font-size="10.00">plugins/resources/animationloader</text>
<text text-anchor="middle" x="108.5" y="-73" font-family="Helvetica,sans-Serif" font-size="10.00">/Madgine/animationloaderlib.h</text>
</a>
</g>
</g>
<!-- Node1&#45;&gt;Node2 -->
<g id="edge1" class="edge">
<title>Node1&#45;&gt;Node2</title>
<path fill="none" stroke="#63b8ff" d="M108.5,-120.39C108.5,-112.13 108.5,-103.28 108.5,-96.16"/>
<polygon fill="#63b8ff" stroke="#63b8ff" points="105,-120.28 108.5,-130.28 112,-120.28 105,-120.28"/>
</g>
<!-- Node3 -->
<g id="node3" class="node">
<title>Node3</title>
<g id="a_node3"><a xlink:href="animationloader_8cpp.html" target="_top" xlink:title=" ">
<polygon fill="white" stroke="#666666" points="217,-30 0,-30 0,0 217,0 217,-30"/>
<text text-anchor="start" x="8" y="-18" font-family="Helvetica,sans-Serif" font-size="10.00">plugins/resources/animationloader</text>
<text text-anchor="middle" x="108.5" y="-7" font-family="Helvetica,sans-Serif" font-size="10.00">/Madgine/animationloader/animationloader.cpp</text>
</a>
</g>
</g>
<!-- Node2&#45;&gt;Node3 -->
<g id="edge2" class="edge">
<title>Node2&#45;&gt;Node3</title>
<path fill="none" stroke="#63b8ff" d="M108.5,-54.39C108.5,-46.13 108.5,-37.28 108.5,-30.16"/>
<polygon fill="#63b8ff" stroke="#63b8ff" points="105,-54.28 108.5,-64.28 112,-54.28 105,-54.28"/>
</g>
</g>
</svg>
