<?xml version="1.0" encoding="UTF-8" standalone="no"?>
<!DOCTYPE svg PUBLIC "-//W3C//DTD SVG 1.1//EN"
 "http://www.w3.org/Graphics/SVG/1.1/DTD/svg11.dtd">
<!-- Generated by graphviz version 7.0.5 (20221223.1930)
 -->
<!-- Title: plugins/audio/api/src/Madgine/audio/audioloader.h Pages: 1 -->
<svg width="504pt" height="236pt"
 viewBox="0.00 0.00 503.50 236.00" xmlns="http://www.w3.org/2000/svg" xmlns:xlink="http://www.w3.org/1999/xlink">
<g id="graph0" class="graph" transform="scale(1 1) rotate(0) translate(4 232)">
<title>plugins/audio/api/src/Madgine/audio/audioloader.h</title>
<!-- Node1 -->
<g id="node1" class="node">
<title>Node1</title>
<g id="a_node1"><a xlink:title=" ">
<polygon fill="#999999" stroke="#666666" points="380.5,-228 237.5,-228 237.5,-198 380.5,-198 380.5,-228"/>
<text text-anchor="start" x="245.5" y="-216" font-family="Helvetica,sans-Serif" font-size="10.00">plugins/audio/api/src</text>
<text text-anchor="middle" x="309" y="-205" font-family="Helvetica,sans-Serif" font-size="10.00">/Madgine/audio/audioloader.h</text>
</a>
</g>
</g>
<!-- Node2 -->
<g id="node2" class="node">
<title>Node2</title>
<g id="a_node2"><a xlink:href="audioapi_8h.html" target="_top" xlink:title=" ">
<polygon fill="white" stroke="#666666" points="294.5,-162 165.5,-162 165.5,-132 294.5,-132 294.5,-162"/>
<text text-anchor="start" x="173.5" y="-150" font-family="Helvetica,sans-Serif" font-size="10.00">plugins/audio/api/src</text>
<text text-anchor="middle" x="230" y="-139" font-family="Helvetica,sans-Serif" font-size="10.00">/Madgine/audio/audioapi.h</text>
</a>
</g>
</g>
<!-- Node1&#45;&gt;Node2 -->
<g id="edge1" class="edge">
<title>Node1&#45;&gt;Node2</title>
<path fill="none" stroke="#63b8ff" d="M282.71,-190.7C271.22,-181.4 258.06,-170.73 247.76,-162.39"/>
<polygon fill="#63b8ff" stroke="#63b8ff" points="280.32,-193.27 290.29,-196.84 284.72,-187.83 280.32,-193.27"/>
</g>
<!-- Node8 -->
<g id="node8" class="node">
<title>Node8</title>
<g id="a_node8"><a xlink:href="audioloader_8cpp.html" target="_top" xlink:title=" ">
<polygon fill="white" stroke="#666666" points="465.5,-162 312.5,-162 312.5,-132 465.5,-132 465.5,-162"/>
<text text-anchor="start" x="320.5" y="-150" font-family="Helvetica,sans-Serif" font-size="10.00">plugins/audio/api/src</text>
<text text-anchor="middle" x="389" y="-139" font-family="Helvetica,sans-Serif" font-size="10.00">/Madgine/audio/audioloader.cpp</text>
</a>
</g>
</g>
<!-- Node1&#45;&gt;Node8 -->
<g id="edge7" class="edge">
<title>Node1&#45;&gt;Node8</title>
<path fill="none" stroke="#63b8ff" d="M335.63,-190.7C347.26,-181.4 360.59,-170.73 371.02,-162.39"/>
<polygon fill="#63b8ff" stroke="#63b8ff" points="333.56,-187.87 327.94,-196.85 337.93,-193.34 333.56,-187.87"/>
</g>
<!-- Node3 -->
<g id="node3" class="node">
<title>Node3</title>
<g id="a_node3"><a xlink:href="audioapi_8cpp.html" target="_top" xlink:title=" ">
<polygon fill="white" stroke="#666666" points="140,-96 0,-96 0,-66 140,-66 140,-96"/>
<text text-anchor="start" x="8" y="-84" font-family="Helvetica,sans-Serif" font-size="10.00">plugins/audio/api/src</text>
<text text-anchor="middle" x="70" y="-73" font-family="Helvetica,sans-Serif" font-size="10.00">/Madgine/audio/audioapi.cpp</text>
</a>
</g>
</g>
<!-- Node2&#45;&gt;Node3 -->
<g id="edge2" class="edge">
<title>Node2&#45;&gt;Node3</title>
<path fill="none" stroke="#63b8ff" d="M183.52,-127.41C158.84,-117.54 128.97,-105.59 106.06,-96.43"/>
<polygon fill="#63b8ff" stroke="#63b8ff" points="182.1,-130.61 192.69,-131.08 184.7,-124.11 182.1,-130.61"/>
</g>
<!-- Node4 -->
<g id="node4" class="node">
<title>Node4</title>
<g id="a_node4"><a xlink:href="oboeapi_8h.html" target="_top" xlink:title=" ">
<polygon fill="white" stroke="#666666" points="301.5,-96 158.5,-96 158.5,-66 301.5,-66 301.5,-96"/>
<text text-anchor="start" x="166.5" y="-84" font-family="Helvetica,sans-Serif" font-size="10.00">plugins/audio/oboe</text>
<text text-anchor="middle" x="230" y="-73" font-family="Helvetica,sans-Serif" font-size="10.00">/src/Madgine/audio/oboeapi.h</text>
</a>
</g>
</g>
<!-- Node2&#45;&gt;Node4 -->
<g id="edge3" class="edge">
<title>Node2&#45;&gt;Node4</title>
<path fill="none" stroke="#63b8ff" d="M230,-120.39C230,-112.13 230,-103.28 230,-96.16"/>
<polygon fill="#63b8ff" stroke="#63b8ff" points="226.5,-120.28 230,-130.28 233.5,-120.28 226.5,-120.28"/>
</g>
<!-- Node6 -->
<g id="node6" class="node">
<title>Node6</title>
<g id="a_node6"><a xlink:href="portaudioapi_8h.html" target="_top" xlink:title=" ">
<polygon fill="white" stroke="#666666" points="487,-96 325,-96 325,-66 487,-66 487,-96"/>
<text text-anchor="start" x="333" y="-84" font-family="Helvetica,sans-Serif" font-size="10.00">plugins/audio/portaudio</text>
<text text-anchor="middle" x="406" y="-73" font-family="Helvetica,sans-Serif" font-size="10.00">/src/Madgine/audio/portaudioapi.h</text>
</a>
</g>
</g>
<!-- Node2&#45;&gt;Node6 -->
<g id="edge5" class="edge">
<title>Node2&#45;&gt;Node6</title>
<path fill="none" stroke="#63b8ff" d="M280.04,-127.8C307.39,-117.86 340.79,-105.71 366.33,-96.43"/>
<polygon fill="#63b8ff" stroke="#63b8ff" points="279.12,-124.41 270.92,-131.12 281.51,-130.99 279.12,-124.41"/>
</g>
<!-- Node5 -->
<g id="node5" class="node">
<title>Node5</title>
<g id="a_node5"><a xlink:href="oboeapi_8cpp.html" target="_top" xlink:title=" ">
<polygon fill="white" stroke="#666666" points="304,-30 150,-30 150,0 304,0 304,-30"/>
<text text-anchor="start" x="158" y="-18" font-family="Helvetica,sans-Serif" font-size="10.00">plugins/audio/oboe</text>
<text text-anchor="middle" x="227" y="-7" font-family="Helvetica,sans-Serif" font-size="10.00">/src/Madgine/audio/oboeapi.cpp</text>
</a>
</g>
</g>
<!-- Node4&#45;&gt;Node5 -->
<g id="edge4" class="edge">
<title>Node4&#45;&gt;Node5</title>
<path fill="none" stroke="#63b8ff" d="M228.8,-54.39C228.41,-46.13 228,-37.28 227.66,-30.16"/>
<polygon fill="#63b8ff" stroke="#63b8ff" points="225.3,-54.46 229.26,-64.28 232.29,-54.13 225.3,-54.46"/>
</g>
<!-- Node7 -->
<g id="node7" class="node">
<title>Node7</title>
<g id="a_node7"><a xlink:href="portaudioapi_8cpp.html" target="_top" xlink:title=" ">
<polygon fill="white" stroke="#666666" points="495.5,-30 322.5,-30 322.5,0 495.5,0 495.5,-30"/>
<text text-anchor="start" x="330.5" y="-18" font-family="Helvetica,sans-Serif" font-size="10.00">plugins/audio/portaudio</text>
<text text-anchor="middle" x="409" y="-7" font-family="Helvetica,sans-Serif" font-size="10.00">/src/Madgine/audio/portaudioapi.cpp</text>
</a>
</g>
</g>
<!-- Node6&#45;&gt;Node7 -->
<g id="edge6" class="edge">
<title>Node6&#45;&gt;Node7</title>
<path fill="none" stroke="#63b8ff" d="M407.2,-54.39C407.59,-46.13 408,-37.28 408.34,-30.16"/>
<polygon fill="#63b8ff" stroke="#63b8ff" points="403.71,-54.13 406.74,-64.28 410.7,-54.46 403.71,-54.13"/>
</g>
</g>
</svg>
