<?xml version="1.0" encoding="UTF-8" standalone="no"?>
<!DOCTYPE svg PUBLIC "-//W3C//DTD SVG 1.1//EN"
 "http://www.w3.org/Graphics/SVG/1.1/DTD/svg11.dtd">
<!-- Generated by graphviz version 7.0.5 (20221223.1930)
 -->
<!-- Title: src/Meta/base64/base64.cpp Pages: 1 -->
<svg width="396pt" height="192pt"
 viewBox="0.00 0.00 396.00 192.00" xmlns="http://www.w3.org/2000/svg" xmlns:xlink="http://www.w3.org/1999/xlink">
<g id="graph0" class="graph" transform="scale(1 1) rotate(0) translate(4 188)">
<title>src/Meta/base64/base64.cpp</title>
<!-- Node1 -->
<g id="node1" class="node">
<title>Node1</title>
<g id="a_node1"><a xlink:title=" ">
<polygon fill="#999999" stroke="#666666" points="302,-184 160,-184 160,-165 302,-165 302,-184"/>
<text text-anchor="middle" x="231" y="-172" font-family="Helvetica,sans-Serif" font-size="10.00">src/Meta/base64/base64.cpp</text>
</a>
</g>
</g>
<!-- Node2 -->
<g id="node2" class="node">
<title>Node2</title>
<g id="a_node2"><a xlink:href="metalib_8h.html" target="_top" xlink:title=" ">
<polygon fill="white" stroke="#666666" points="135.5,-129 72.5,-129 72.5,-110 135.5,-110 135.5,-129"/>
<text text-anchor="middle" x="104" y="-117" font-family="Helvetica,sans-Serif" font-size="10.00">../metalib.h</text>
</a>
</g>
</g>
<!-- Node1&#45;&gt;Node2 -->
<g id="edge1" class="edge">
<title>Node1&#45;&gt;Node2</title>
<path fill="none" stroke="#63b8ff" d="M209.46,-164.51C189.26,-156.08 158.83,-143.38 135.84,-133.79"/>
<polygon fill="#63b8ff" stroke="#63b8ff" points="137.2,-130.56 126.62,-129.94 134.5,-137.02 137.2,-130.56"/>
</g>
<!-- Node5 -->
<g id="node5" class="node">
<title>Node5</title>
<g id="a_node5"><a xlink:href="base64_8h.html" target="_top" xlink:title=" ">
<polygon fill="white" stroke="#666666" points="210,-129 154,-129 154,-110 210,-110 210,-129"/>
<text text-anchor="middle" x="182" y="-117" font-family="Helvetica,sans-Serif" font-size="10.00">base64.h</text>
</a>
</g>
</g>
<!-- Node1&#45;&gt;Node5 -->
<g id="edge4" class="edge">
<title>Node1&#45;&gt;Node5</title>
<path fill="none" stroke="#63b8ff" d="M222.91,-164.75C216.14,-157.43 206.28,-146.76 197.94,-137.74"/>
<polygon fill="#63b8ff" stroke="#63b8ff" points="200.65,-135.52 191.29,-130.55 195.51,-140.27 200.65,-135.52"/>
</g>
<!-- Node6 -->
<g id="node6" class="node">
<title>Node6</title>
<g id="a_node6"><a xlink:href="bytebuffer_8h.html" target="_top" xlink:title=" ">
<polygon fill="white" stroke="#666666" points="331.5,-129 228.5,-129 228.5,-110 331.5,-110 331.5,-129"/>
<text text-anchor="middle" x="280" y="-117" font-family="Helvetica,sans-Serif" font-size="10.00">Generic/bytebuffer.h</text>
</a>
</g>
</g>
<!-- Node1&#45;&gt;Node6 -->
<g id="edge5" class="edge">
<title>Node1&#45;&gt;Node6</title>
<path fill="none" stroke="#63b8ff" d="M239.09,-164.75C245.86,-157.43 255.72,-146.76 264.06,-137.74"/>
<polygon fill="#63b8ff" stroke="#63b8ff" points="266.49,-140.27 270.71,-130.55 261.35,-135.52 266.49,-140.27"/>
</g>
<!-- Node9 -->
<g id="node9" class="node">
<title>Node9</title>
<g id="a_node9"><a xlink:title=" ">
<polygon fill="#e0e0e0" stroke="#999999" points="388,-129 350,-129 350,-110 388,-110 388,-129"/>
<text text-anchor="middle" x="369" y="-117" font-family="Helvetica,sans-Serif" font-size="10.00">span</text>
</a>
</g>
</g>
<!-- Node1&#45;&gt;Node9 -->
<g id="edge8" class="edge">
<title>Node1&#45;&gt;Node9</title>
<path fill="none" stroke="#63b8ff" d="M254.41,-164.51C277.85,-155.51 314.01,-141.62 339.43,-131.86"/>
<polygon fill="#63b8ff" stroke="#63b8ff" points="340.43,-135.22 348.51,-128.37 337.92,-128.69 340.43,-135.22"/>
</g>
<!-- Node3 -->
<g id="node3" class="node">
<title>Node3</title>
<g id="a_node3"><a xlink:href="genericlib_8h.html" target="_top" xlink:title=" ">
<polygon fill="white" stroke="#666666" points="102,-74 0,-74 0,-55 102,-55 102,-74"/>
<text text-anchor="middle" x="51" y="-62" font-family="Helvetica,sans-Serif" font-size="10.00">Generic/genericlib.h</text>
</a>
</g>
</g>
<!-- Node2&#45;&gt;Node3 -->
<g id="edge2" class="edge">
<title>Node2&#45;&gt;Node3</title>
<path fill="none" stroke="#63b8ff" d="M95.25,-109.75C87.85,-102.35 77.04,-91.54 67.95,-82.45"/>
<polygon fill="#63b8ff" stroke="#63b8ff" points="70.56,-80.11 61.01,-75.51 65.61,-85.06 70.56,-80.11"/>
</g>
<!-- Node4 -->
<g id="node4" class="node">
<title>Node4</title>
<g id="a_node4"><a xlink:title=" ">
<polygon fill="#e0e0e0" stroke="#999999" points="191.5,-74 120.5,-74 120.5,-55 191.5,-55 191.5,-74"/>
<text text-anchor="middle" x="156" y="-62" font-family="Helvetica,sans-Serif" font-size="10.00">metaconfig.h</text>
</a>
</g>
</g>
<!-- Node2&#45;&gt;Node4 -->
<g id="edge3" class="edge">
<title>Node2&#45;&gt;Node4</title>
<path fill="none" stroke="#63b8ff" d="M112.59,-109.75C119.84,-102.35 130.45,-91.54 139.37,-82.45"/>
<polygon fill="#63b8ff" stroke="#63b8ff" points="141.66,-85.11 146.17,-75.52 136.66,-80.21 141.66,-85.11"/>
</g>
<!-- Node7 -->
<g id="node7" class="node">
<title>Node7</title>
<g id="a_node7"><a xlink:href="any_8h.html" target="_top" xlink:title=" ">
<polygon fill="white" stroke="#666666" points="299.5,-74 260.5,-74 260.5,-55 299.5,-55 299.5,-74"/>
<text text-anchor="middle" x="280" y="-62" font-family="Helvetica,sans-Serif" font-size="10.00">any.h</text>
</a>
</g>
</g>
<!-- Node6&#45;&gt;Node7 -->
<g id="edge6" class="edge">
<title>Node6&#45;&gt;Node7</title>
<path fill="none" stroke="#63b8ff" d="M280,-109.75C280,-103.27 280,-94.16 280,-85.9"/>
<polygon fill="#63b8ff" stroke="#63b8ff" points="283.5,-85.96 280,-75.96 276.5,-85.96 283.5,-85.96"/>
</g>
<!-- Node8 -->
<g id="node8" class="node">
<title>Node8</title>
<g id="a_node8"><a xlink:href="inheritable_8h.html" target="_top" xlink:title=" ">
<polygon fill="white" stroke="#666666" points="314,-19 246,-19 246,0 314,0 314,-19"/>
<text text-anchor="middle" x="280" y="-7" font-family="Helvetica,sans-Serif" font-size="10.00">inheritable.h</text>
</a>
</g>
</g>
<!-- Node7&#45;&gt;Node8 -->
<g id="edge7" class="edge">
<title>Node7&#45;&gt;Node8</title>
<path fill="none" stroke="#63b8ff" d="M280,-54.75C280,-48.27 280,-39.16 280,-30.9"/>
<polygon fill="#63b8ff" stroke="#63b8ff" points="283.5,-30.96 280,-20.96 276.5,-30.96 283.5,-30.96"/>
</g>
</g>
</svg>
