<?xml version="1.0" encoding="UTF-8" standalone="no"?>
<!DOCTYPE svg PUBLIC "-//W3C//DTD SVG 1.1//EN"
 "http://www.w3.org/Graphics/SVG/1.1/DTD/svg11.dtd">
<!-- Generated by graphviz version 7.0.5 (20221223.1930)
 -->
<!-- Title: plugins/behavior/api/src/Madgine/behaviorerror.cpp Pages: 1 -->
<svg width="196pt" height="313pt"
 viewBox="0.00 0.00 195.50 313.00" xmlns="http://www.w3.org/2000/svg" xmlns:xlink="http://www.w3.org/1999/xlink">
<g id="graph0" class="graph" transform="scale(1 1) rotate(0) translate(4 309)">
<title>plugins/behavior/api/src/Madgine/behaviorerror.cpp</title>
<!-- Node1 -->
<g id="node1" class="node">
<title>Node1</title>
<g id="a_node1"><a xlink:title=" ">
<polygon fill="#999999" stroke="#666666" points="157.5,-305 7.5,-305 7.5,-275 157.5,-275 157.5,-305"/>
<text text-anchor="start" x="15.5" y="-293" font-family="Helvetica,sans-Serif" font-size="10.00">plugins/behavior/api</text>
<text text-anchor="middle" x="82.5" y="-282" font-family="Helvetica,sans-Serif" font-size="10.00">/src/Madgine/behaviorerror.cpp</text>
</a>
</g>
</g>
<!-- Node2 -->
<g id="node2" class="node">
<title>Node2</title>
<g id="a_node2"><a xlink:href="behaviorlib_8h.html" target="_top" xlink:title=" ">
<polygon fill="white" stroke="#666666" points="71,-239 0,-239 0,-220 71,-220 71,-239"/>
<text text-anchor="middle" x="35.5" y="-227" font-family="Helvetica,sans-Serif" font-size="10.00">behaviorlib.h</text>
</a>
</g>
</g>
<!-- Node1&#45;&gt;Node2 -->
<g id="edge1" class="edge">
<title>Node1&#45;&gt;Node2</title>
<path fill="none" stroke="#63b8ff" d="M70.88,-274.54C64.4,-266.48 56.29,-256.38 49.47,-247.89"/>
<polygon fill="#63b8ff" stroke="#63b8ff" points="52.41,-245.96 43.42,-240.36 46.95,-250.34 52.41,-245.96"/>
</g>
<!-- Node3 -->
<g id="node3" class="node">
<title>Node3</title>
<g id="a_node3"><a xlink:href="behaviorerror_8h.html" target="_top" xlink:title=" ">
<polygon fill="white" stroke="#666666" points="169.5,-239 89.5,-239 89.5,-220 169.5,-220 169.5,-239"/>
<text text-anchor="middle" x="129.5" y="-227" font-family="Helvetica,sans-Serif" font-size="10.00">behaviorerror.h</text>
</a>
</g>
</g>
<!-- Node1&#45;&gt;Node3 -->
<g id="edge2" class="edge">
<title>Node1&#45;&gt;Node3</title>
<path fill="none" stroke="#63b8ff" d="M94.12,-274.54C100.6,-266.48 108.71,-256.38 115.53,-247.89"/>
<polygon fill="#63b8ff" stroke="#63b8ff" points="118.05,-250.34 121.58,-240.36 112.59,-245.96 118.05,-250.34"/>
</g>
<!-- Node4 -->
<g id="node4" class="node">
<title>Node4</title>
<g id="a_node4"><a xlink:href="genericresult_8h.html" target="_top" xlink:title=" ">
<polygon fill="white" stroke="#666666" points="187.5,-184 71.5,-184 71.5,-165 187.5,-165 187.5,-184"/>
<text text-anchor="middle" x="129.5" y="-172" font-family="Helvetica,sans-Serif" font-size="10.00">Generic/genericresult.h</text>
</a>
</g>
</g>
<!-- Node3&#45;&gt;Node4 -->
<g id="edge3" class="edge">
<title>Node3&#45;&gt;Node4</title>
<path fill="none" stroke="#63b8ff" d="M129.5,-219.75C129.5,-213.27 129.5,-204.16 129.5,-195.9"/>
<polygon fill="#63b8ff" stroke="#63b8ff" points="133,-195.96 129.5,-185.96 126,-195.96 133,-195.96"/>
</g>
<!-- Node5 -->
<g id="node5" class="node">
<title>Node5</title>
<g id="a_node5"><a xlink:href="enum_8h.html" target="_top" xlink:title=" ">
<polygon fill="white" stroke="#666666" points="153.5,-129 105.5,-129 105.5,-110 153.5,-110 153.5,-129"/>
<text text-anchor="middle" x="129.5" y="-117" font-family="Helvetica,sans-Serif" font-size="10.00">enum.h</text>
</a>
</g>
</g>
<!-- Node4&#45;&gt;Node5 -->
<g id="edge4" class="edge">
<title>Node4&#45;&gt;Node5</title>
<path fill="none" stroke="#63b8ff" d="M129.5,-164.75C129.5,-158.27 129.5,-149.16 129.5,-140.9"/>
<polygon fill="#63b8ff" stroke="#63b8ff" points="133,-140.96 129.5,-130.96 126,-140.96 133,-140.96"/>
</g>
<!-- Node6 -->
<g id="node6" class="node">
<title>Node6</title>
<g id="a_node6"><a xlink:href="array_8h.html" target="_top" xlink:title=" ">
<polygon fill="white" stroke="#666666" points="161.5,-74 97.5,-74 97.5,-55 161.5,-55 161.5,-74"/>
<text text-anchor="middle" x="129.5" y="-62" font-family="Helvetica,sans-Serif" font-size="10.00">bits/array.h</text>
</a>
</g>
</g>
<!-- Node5&#45;&gt;Node6 -->
<g id="edge5" class="edge">
<title>Node5&#45;&gt;Node6</title>
<path fill="none" stroke="#63b8ff" d="M129.5,-109.75C129.5,-103.27 129.5,-94.16 129.5,-85.9"/>
<polygon fill="#63b8ff" stroke="#63b8ff" points="133,-85.96 129.5,-75.96 126,-85.96 133,-85.96"/>
</g>
<!-- Node7 -->
<g id="node7" class="node">
<title>Node7</title>
<g id="a_node7"><a xlink:href="types_8h.html" target="_top" xlink:title=" ">
<polygon fill="white" stroke="#666666" points="153,-19 106,-19 106,0 153,0 153,-19"/>
<text text-anchor="middle" x="129.5" y="-7" font-family="Helvetica,sans-Serif" font-size="10.00">types.h</text>
</a>
</g>
</g>
<!-- Node6&#45;&gt;Node7 -->
<g id="edge6" class="edge">
<title>Node6&#45;&gt;Node7</title>
<path fill="none" stroke="#63b8ff" d="M129.5,-54.75C129.5,-48.27 129.5,-39.16 129.5,-30.9"/>
<polygon fill="#63b8ff" stroke="#63b8ff" points="133,-30.96 129.5,-20.96 126,-30.96 133,-30.96"/>
</g>
</g>
</svg>
