<?xml version="1.0" encoding="UTF-8" standalone="no"?>
<!DOCTYPE svg PUBLIC "-//W3C//DTD SVG 1.1//EN"
 "http://www.w3.org/Graphics/SVG/1.1/DTD/svg11.dtd">
<!-- Generated by graphviz version 7.0.5 (20221223.1930)
 -->
<!-- Title: plugins/behavior/api/src/Madgine/behaviorcollector.h Pages: 1 -->
<!--zoomable 544 -->
<svg id="main" version="1.1" xmlns="http://www.w3.org/2000/svg" xmlns:xlink="http://www.w3.org/1999/xlink" xml:space="preserve" onload="init(evt)">
<style type="text/css"><![CDATA[
.edge:hover path { stroke: red; }
.edge:hover polygon { stroke: red; fill: red; }
]]></style>
<script type="text/javascript"><![CDATA[
var edges = document.getElementsByTagName('g');
if (edges && edges.length) {
  for (var i=0;i<edges.length;i++) {
    if (edges[i].id.substr(0,4)=='edge') {
      edges[i].setAttribute('class','edge');
    }
  }
}
]]></script>
        <defs>
                <circle id="rim" cx="0" cy="0" r="7"/>
                <circle id="rim2" cx="0" cy="0" r="3.5"/>
                <g id="zoomPlus">
                        <use xlink:href="#rim" fill="#404040">
                                <set attributeName="fill" to="#808080" begin="zoomplus.mouseover" end="zoomplus.mouseout"/>
                        </use>
                        <path d="M-4,0h8M0,-4v8" fill="none" stroke="white" stroke-width="1.5" pointer-events="none"/>
                </g>
                <g id="zoomMin">
                        <use xlink:href="#rim" fill="#404040">
                                <set attributeName="fill" to="#808080" begin="zoomminus.mouseover" end="zoomminus.mouseout"/>
                        </use>
                        <path d="M-4,0h8" fill="none" stroke="white" stroke-width="1.5" pointer-events="none"/>
                </g>
                <g id="dirArrow">
                        <path fill="none" stroke="white" stroke-width="1.5" d="M0,-3.0v7 M-2.5,-0.5L0,-3.0L2.5,-0.5"/>
                </g>
               <g id="resetDef">
                       <use xlink:href="#rim2" fill="#404040">
                               <set attributeName="fill" to="#808080" begin="reset.mouseover" end="reset.mouseout"/>
                       </use>
               </g>
        </defs>

<script type="text/javascript">
var viewWidth = 917;
var viewHeight = 544;
var sectionId = 'dynsection-0';
</script>
<script xlink:href="svgpan.js"/>
<svg id="graph" class="graph">
<g id="viewport">
<title>plugins/behavior/api/src/Madgine/behaviorcollector.h</title>
<!-- Node1 -->
<g id="node1" class="node">
<title>Node1</title>
<g id="a_node1"><a xlink:title=" ">
<polygon fill="#999999" stroke="#666666" points="447.5,-536 290.5,-536 290.5,-506 447.5,-506 447.5,-536"/>
<text text-anchor="start" x="298.5" y="-524" font-family="Helvetica,sans-Serif" font-size="10.00">plugins/behavior/api</text>
<text text-anchor="middle" x="369" y="-513" font-family="Helvetica,sans-Serif" font-size="10.00">/src/Madgine/behaviorcollector.h</text>
</a>
</g>
</g>
<!-- Node2 -->
<g id="node2" class="node">
<title>Node2</title>
<g id="a_node2"><a xlink:href="uniquecomponent_8h.html" target="_top" xlink:title=" ">
<polygon fill="white" stroke="#666666" points="204.5,-470 71.5,-470 71.5,-440 204.5,-440 204.5,-470"/>
<text text-anchor="start" x="79.5" y="-458" font-family="Helvetica,sans-Serif" font-size="10.00">Modules/uniquecomponent</text>
<text text-anchor="middle" x="138" y="-447" font-family="Helvetica,sans-Serif" font-size="10.00">/uniquecomponent.h</text>
</a>
</g>
</g>
<!-- Node1&#45;&gt;Node2 -->
<g id="edge1" class="edge">
<title>Node1&#45;&gt;Node2</title>
<path fill="none" stroke="#63b8ff" d="M316.87,-505.56C282.5,-496.04 237.29,-483.51 200.92,-473.43"/>
<polygon fill="#63b8ff" stroke="#63b8ff" points="201.97,-470.09 191.4,-470.79 200.1,-476.84 201.97,-470.09"/>
</g>
<!-- Node6 -->
<g id="node6" class="node">
<title>Node6</title>
<g id="a_node6"><a xlink:href="uniquecomponentdefine_8h.html" target="_top" xlink:title=" ">
<polygon fill="white" stroke="#666666" points="355.5,-470 222.5,-470 222.5,-440 355.5,-440 355.5,-470"/>
<text text-anchor="start" x="230.5" y="-458" font-family="Helvetica,sans-Serif" font-size="10.00">Modules/uniquecomponent</text>
<text text-anchor="middle" x="289" y="-447" font-family="Helvetica,sans-Serif" font-size="10.00">/uniquecomponentdefine.h</text>
</a>
</g>
</g>
<!-- Node1&#45;&gt;Node6 -->
<g id="edge5" class="edge">
<title>Node1&#45;&gt;Node6</title>
<path fill="none" stroke="#63b8ff" d="M351.25,-505.8C340.86,-497.49 327.53,-486.83 315.88,-477.5"/>
<polygon fill="#63b8ff" stroke="#63b8ff" points="318.16,-474.84 308.16,-471.33 313.79,-480.31 318.16,-474.84"/>
</g>
<!-- Node9 -->
<g id="node9" class="node">
<title>Node9</title>
<g id="a_node9"><a xlink:href="taskfuture_8h.html" target="_top" xlink:title=" ">
<polygon fill="white" stroke="#666666" points="524,-464.5 374,-464.5 374,-445.5 524,-445.5 524,-464.5"/>
<text text-anchor="middle" x="449" y="-452.5" font-family="Helvetica,sans-Serif" font-size="10.00">Modules/threading/taskfuture.h</text>
</a>
</g>
</g>
<!-- Node1&#45;&gt;Node9 -->
<g id="edge9" class="edge">
<title>Node1&#45;&gt;Node9</title>
<path fill="none" stroke="#63b8ff" d="M386.75,-505.8C399.35,-495.72 416.26,-482.19 429.27,-471.78"/>
<polygon fill="#63b8ff" stroke="#63b8ff" points="431.14,-474.77 436.76,-465.79 426.77,-469.3 431.14,-474.77"/>
</g>
<!-- Node36 -->
<g id="node36" class="node">
<title>Node36</title>
<g id="a_node36"><a xlink:href="opaqueptr_8h.html" target="_top" xlink:title=" ">
<polygon fill="white" stroke="#666666" points="646,-464.5 542,-464.5 542,-445.5 646,-445.5 646,-464.5"/>
<text text-anchor="middle" x="594" y="-452.5" font-family="Helvetica,sans-Serif" font-size="10.00">Generic/opaqueptr.h</text>
</a>
</g>
</g>
<!-- Node1&#45;&gt;Node36 -->
<g id="edge43" class="edge">
<title>Node1&#45;&gt;Node36</title>
<path fill="none" stroke="#63b8ff" d="M419.77,-505.56C459.48,-494.26 514.03,-478.75 551.46,-468.1"/>
<polygon fill="#63b8ff" stroke="#63b8ff" points="552.37,-471.48 561.03,-465.38 550.46,-464.75 552.37,-471.48"/>
</g>
<!-- Node3 -->
<g id="node3" class="node">
<title>Node3</title>
<g id="a_node3"><a xlink:href="component__index_8h.html" target="_top" xlink:title=" ">
<polygon fill="white" stroke="#666666" points="100,-404 0,-404 0,-385 100,-385 100,-404"/>
<text text-anchor="middle" x="50" y="-392" font-family="Helvetica,sans-Serif" font-size="10.00">component_index.h</text>
</a>
</g>
</g>
<!-- Node2&#45;&gt;Node3 -->
<g id="edge2" class="edge">
<title>Node2&#45;&gt;Node3</title>
<path fill="none" stroke="#63b8ff" d="M116.25,-439.54C103.03,-430.75 86.17,-419.54 72.76,-410.63"/>
<polygon fill="#63b8ff" stroke="#63b8ff" points="74.83,-407.81 64.57,-405.18 70.96,-413.63 74.83,-407.81"/>
</g>
<!-- Node4 -->
<g id="node4" class="node">
<title>Node4</title>
<g id="a_node4"><a xlink:href="indexholder_8h.html" target="_top" xlink:title=" ">
<polygon fill="white" stroke="#666666" points="191.5,-404 118.5,-404 118.5,-385 191.5,-385 191.5,-404"/>
<text text-anchor="middle" x="155" y="-392" font-family="Helvetica,sans-Serif" font-size="10.00">indexholder.h</text>
</a>
</g>
</g>
<!-- Node2&#45;&gt;Node4 -->
<g id="edge3" class="edge">
<title>Node2&#45;&gt;Node4</title>
<path fill="none" stroke="#63b8ff" d="M142.2,-439.54C144.34,-432.17 146.98,-423.1 149.3,-415.11"/>
<polygon fill="#63b8ff" stroke="#63b8ff" points="152.63,-416.21 152.06,-405.63 145.91,-414.25 152.63,-416.21"/>
</g>
<!-- Node5 -->
<g id="node5" class="node">
<title>Node5</title>
<g id="a_node5"><a xlink:href="indextype_8h.html" target="_top" xlink:title=" ">
<polygon fill="white" stroke="#666666" points="205.5,-349 104.5,-349 104.5,-330 205.5,-330 205.5,-349"/>
<text text-anchor="middle" x="155" y="-337" font-family="Helvetica,sans-Serif" font-size="10.00">Generic/indextype.h</text>
</a>
</g>
</g>
<!-- Node4&#45;&gt;Node5 -->
<g id="edge4" class="edge">
<title>Node4&#45;&gt;Node5</title>
<path fill="none" stroke="#63b8ff" d="M155,-384.75C155,-378.27 155,-369.16 155,-360.9"/>
<polygon fill="#63b8ff" stroke="#63b8ff" points="158.5,-360.96 155,-350.96 151.5,-360.96 158.5,-360.96"/>
</g>
<!-- Node7 -->
<g id="node7" class="node">
<title>Node7</title>
<g id="a_node7"><a xlink:href="replace_8h.html" target="_top" xlink:title=" ">
<polygon fill="white" stroke="#666666" points="349,-349 257,-349 257,-330 349,-330 349,-349"/>
<text text-anchor="middle" x="303" y="-337" font-family="Helvetica,sans-Serif" font-size="10.00">Generic/replace.h</text>
</a>
</g>
</g>
<!-- Node6&#45;&gt;Node7 -->
<g id="edge6" class="edge">
<title>Node6&#45;&gt;Node7</title>
<path fill="none" stroke="#63b8ff" d="M288.8,-439.65C288.79,-425.64 289.3,-403.75 292,-385 293.18,-376.83 295.21,-367.97 297.2,-360.33"/>
<polygon fill="#63b8ff" stroke="#63b8ff" points="300.57,-361.29 299.88,-350.72 293.82,-359.42 300.57,-361.29"/>
</g>
<!-- Node8 -->
<g id="node8" class="node">
<title>Node8</title>
<g id="a_node8"><a xlink:href="_modules_2uniquecomponent_2annotations_8h.html" target="_top" xlink:title=" ">
<polygon fill="white" stroke="#666666" points="375,-404 301,-404 301,-385 375,-385 375,-404"/>
<text text-anchor="middle" x="338" y="-392" font-family="Helvetica,sans-Serif" font-size="10.00">annotations.h</text>
</a>
</g>
</g>
<!-- Node6&#45;&gt;Node8 -->
<g id="edge7" class="edge">
<title>Node6&#45;&gt;Node8</title>
<path fill="none" stroke="#63b8ff" d="M301.11,-439.54C307.87,-431.48 316.32,-421.38 323.44,-412.89"/>
<polygon fill="#63b8ff" stroke="#63b8ff" points="326.02,-415.25 329.76,-405.34 320.66,-410.75 326.02,-415.25"/>
</g>
<!-- Node8&#45;&gt;Node7 -->
<g id="edge8" class="edge">
<title>Node8&#45;&gt;Node7</title>
<path fill="none" stroke="#63b8ff" d="M332.22,-384.75C327.59,-377.73 320.93,-367.64 315.13,-358.87"/>
<polygon fill="#63b8ff" stroke="#63b8ff" points="318.17,-357.12 309.74,-350.71 312.33,-360.98 318.17,-357.12"/>
</g>
<!-- Node10 -->
<g id="node10" class="node">
<title>Node10</title>
<g id="a_node10"><a xlink:href="taskhandle_8h.html" target="_top" xlink:title=" ">
<polygon fill="white" stroke="#666666" points="453.5,-349 382.5,-349 382.5,-330 453.5,-330 453.5,-349"/>
<text text-anchor="middle" x="418" y="-337" font-family="Helvetica,sans-Serif" font-size="10.00">taskhandle.h</text>
</a>
</g>
</g>
<!-- Node9&#45;&gt;Node10 -->
<g id="edge10" class="edge">
<title>Node9&#45;&gt;Node10</title>
<path fill="none" stroke="#63b8ff" d="M446.57,-445.09C441.61,-426.94 430.23,-385.29 423.43,-360.37"/>
<polygon fill="#63b8ff" stroke="#63b8ff" points="426.83,-359.55 420.82,-350.82 420.08,-361.39 426.83,-359.55"/>
</g>
<!-- Node11 -->
<g id="node11" class="node">
<title>Node11</title>
<g id="a_node11"><a xlink:href="taskpromisesharedstate_8h.html" target="_top" xlink:title=" ">
<polygon fill="white" stroke="#666666" points="574,-404 446,-404 446,-385 574,-385 574,-404"/>
<text text-anchor="middle" x="510" y="-392" font-family="Helvetica,sans-Serif" font-size="10.00">taskpromisesharedstate.h</text>
</a>
</g>
</g>
<!-- Node9&#45;&gt;Node11 -->
<g id="edge11" class="edge">
<title>Node9&#45;&gt;Node11</title>
<path fill="none" stroke="#63b8ff" d="M458.26,-445.12C467.31,-436.44 481.31,-423.02 492.46,-412.32"/>
<polygon fill="#63b8ff" stroke="#63b8ff" points="494.76,-414.96 499.56,-405.52 489.92,-409.91 494.76,-414.96"/>
</g>
<!-- Node11&#45;&gt;Node10 -->
<g id="edge42" class="edge">
<title>Node11&#45;&gt;Node10</title>
<path fill="none" stroke="#63b8ff" d="M494.39,-384.51C480.3,-376.39 459.31,-364.3 442.9,-354.85"/>
<polygon fill="#63b8ff" stroke="#63b8ff" points="445.1,-352.07 434.69,-350.11 441.61,-358.14 445.1,-352.07"/>
</g>
<!-- Node12 -->
<g id="node12" class="node">
<title>Node12</title>
<g id="a_node12"><a xlink:href="flag_8h.html" target="_top" xlink:title=" ">
<polygon fill="white" stroke="#666666" points="592,-349 472,-349 472,-330 592,-330 592,-349"/>
<text text-anchor="middle" x="532" y="-337" font-family="Helvetica,sans-Serif" font-size="10.00">Generic/execution/flag.h</text>
</a>
</g>
</g>
<!-- Node11&#45;&gt;Node12 -->
<g id="edge12" class="edge">
<title>Node11&#45;&gt;Node12</title>
<path fill="none" stroke="#63b8ff" d="M513.63,-384.75C516.42,-378.04 520.37,-368.52 523.9,-360.02"/>
<polygon fill="#63b8ff" stroke="#63b8ff" points="527.11,-361.42 527.71,-350.84 520.64,-358.73 527.11,-361.42"/>
</g>
<!-- Node13 -->
<g id="node13" class="node">
<title>Node13</title>
<g id="a_node13"><a xlink:href="flagstub_8h.html" target="_top" xlink:title=" ">
<polygon fill="white" stroke="#666666" points="561,-294 503,-294 503,-275 561,-275 561,-294"/>
<text text-anchor="middle" x="532" y="-282" font-family="Helvetica,sans-Serif" font-size="10.00">flagstub.h</text>
</a>
</g>
</g>
<!-- Node12&#45;&gt;Node13 -->
<g id="edge13" class="edge">
<title>Node12&#45;&gt;Node13</title>
<path fill="none" stroke="#63b8ff" d="M532,-329.75C532,-323.27 532,-314.16 532,-305.9"/>
<polygon fill="#63b8ff" stroke="#63b8ff" points="535.5,-305.96 532,-295.96 528.5,-305.96 535.5,-305.96"/>
</g>
<!-- Node14 -->
<g id="node14" class="node">
<title>Node14</title>
<g id="a_node14"><a xlink:href="algorithm_8h.html" target="_top" xlink:title=" ">
<polygon fill="white" stroke="#666666" points="564,-239 500,-239 500,-220 564,-220 564,-239"/>
<text text-anchor="middle" x="532" y="-227" font-family="Helvetica,sans-Serif" font-size="10.00">algorithm.h</text>
</a>
</g>
</g>
<!-- Node13&#45;&gt;Node14 -->
<g id="edge14" class="edge">
<title>Node13&#45;&gt;Node14</title>
<path fill="none" stroke="#63b8ff" d="M532,-274.75C532,-268.27 532,-259.16 532,-250.9"/>
<polygon fill="#63b8ff" stroke="#63b8ff" points="535.5,-250.96 532,-240.96 528.5,-250.96 535.5,-250.96"/>
</g>
<!-- Node22 -->
<g id="node22" class="node">
<title>Node22</title>
<g id="a_node22"><a xlink:href="connection_8h.html" target="_top" xlink:title=" ">
<polygon fill="white" stroke="#666666" points="207.5,-239 136.5,-239 136.5,-220 207.5,-220 207.5,-239"/>
<text text-anchor="middle" x="172" y="-227" font-family="Helvetica,sans-Serif" font-size="10.00">connection.h</text>
</a>
</g>
</g>
<!-- Node13&#45;&gt;Node22 -->
<g id="edge22" class="edge">
<title>Node13&#45;&gt;Node22</title>
<path fill="none" stroke="#63b8ff" d="M502.54,-279.16C440.17,-269.98 294.33,-248.51 218.96,-237.41"/>
<polygon fill="#63b8ff" stroke="#63b8ff" points="219.83,-234 209.43,-236.01 218.81,-240.93 219.83,-234"/>
</g>
<!-- Node27 -->
<g id="node27" class="node">
<title>Node27</title>
<g id="a_node27"><a xlink:href="virtualsender_8h.html" target="_top" xlink:title=" ">
<polygon fill="white" stroke="#666666" points="246,-184 166,-184 166,-165 246,-165 246,-184"/>
<text text-anchor="middle" x="206" y="-172" font-family="Helvetica,sans-Serif" font-size="10.00">virtualsender.h</text>
</a>
</g>
</g>
<!-- Node13&#45;&gt;Node27 -->
<g id="edge40" class="edge">
<title>Node13&#45;&gt;Node27</title>
<path fill="none" stroke="#63b8ff" d="M505.04,-274.57C447.07,-255.36 310.42,-210.09 243.81,-188.03"/>
<polygon fill="#63b8ff" stroke="#63b8ff" points="245.02,-184.74 234.42,-184.92 242.82,-191.38 245.02,-184.74"/>
</g>
<!-- Node32 -->
<g id="node32" class="node">
<title>Node32</title>
<g id="a_node32"><a xlink:href="execution_8h.html" target="_top" xlink:title=" ">
<polygon fill="white" stroke="#666666" points="707.5,-239 642.5,-239 642.5,-220 707.5,-220 707.5,-239"/>
<text text-anchor="middle" x="675" y="-227" font-family="Helvetica,sans-Serif" font-size="10.00">execution.h</text>
</a>
</g>
</g>
<!-- Node13&#45;&gt;Node32 -->
<g id="edge35" class="edge">
<title>Node13&#45;&gt;Node32</title>
<path fill="none" stroke="#63b8ff" d="M556.26,-274.51C579.41,-265.93 614.51,-252.92 640.56,-243.27"/>
<polygon fill="#63b8ff" stroke="#63b8ff" points="641.52,-246.64 649.68,-239.88 639.09,-240.08 641.52,-246.64"/>
</g>
<!-- Node35 -->
<g id="node35" class="node">
<title>Node35</title>
<g id="a_node35"><a xlink:href="stack_8h.html" target="_top" xlink:title=" ">
<polygon fill="white" stroke="#666666" points="816.5,-239 725.5,-239 725.5,-220 816.5,-220 816.5,-239"/>
<text text-anchor="middle" x="771" y="-227" font-family="Helvetica,sans-Serif" font-size="10.00">container/stack.h</text>
</a>
</g>
</g>
<!-- Node13&#45;&gt;Node35 -->
<g id="edge41" class="edge">
<title>Node13&#45;&gt;Node35</title>
<path fill="none" stroke="#63b8ff" d="M561.31,-277C600.66,-268.27 671.2,-252.63 719.51,-241.92"/>
<polygon fill="#63b8ff" stroke="#63b8ff" points="720.19,-245.35 729.2,-239.77 718.68,-238.52 720.19,-245.35"/>
</g>
<!-- Node15 -->
<g id="node15" class="node">
<title>Node15</title>
<g id="a_node15"><a xlink:href="delayedconstruct_8h.html" target="_top" xlink:title=" ">
<polygon fill="white" stroke="#666666" points="369.5,-184 264.5,-184 264.5,-165 369.5,-165 369.5,-184"/>
<text text-anchor="middle" x="317" y="-172" font-family="Helvetica,sans-Serif" font-size="10.00">../delayedconstruct.h</text>
</a>
</g>
</g>
<!-- Node14&#45;&gt;Node15 -->
<g id="edge15" class="edge">
<title>Node14&#45;&gt;Node15</title>
<path fill="none" stroke="#63b8ff" d="M499.81,-220.57C463.94,-211.72 405.59,-197.34 364.47,-187.2"/>
<polygon fill="#63b8ff" stroke="#63b8ff" points="365.38,-183.82 354.84,-184.83 363.71,-190.62 365.38,-183.82"/>
</g>
<!-- Node17 -->
<g id="node17" class="node">
<title>Node17</title>
<g id="a_node17"><a xlink:href="manuallifetime_8h.html" target="_top" xlink:title=" ">
<polygon fill="white" stroke="#666666" points="482.5,-184 387.5,-184 387.5,-165 482.5,-165 482.5,-184"/>
<text text-anchor="middle" x="435" y="-172" font-family="Helvetica,sans-Serif" font-size="10.00">../manuallifetime.h</text>
</a>
</g>
</g>
<!-- Node14&#45;&gt;Node17 -->
<g id="edge17" class="edge">
<title>Node14&#45;&gt;Node17</title>
<path fill="none" stroke="#63b8ff" d="M515.55,-219.51C500.68,-211.39 478.56,-199.3 461.25,-189.85"/>
<polygon fill="#63b8ff" stroke="#63b8ff" points="462.99,-186.81 452.54,-185.08 459.64,-192.95 462.99,-186.81"/>
</g>
<!-- Node18 -->
<g id="node18" class="node">
<title>Node18</title>
<g id="a_node18"><a xlink:href="pipable_8h.html" target="_top" xlink:title=" ">
<polygon fill="white" stroke="#666666" points="563,-184 501,-184 501,-165 563,-165 563,-184"/>
<text text-anchor="middle" x="532" y="-172" font-family="Helvetica,sans-Serif" font-size="10.00">../pipable.h</text>
</a>
</g>
</g>
<!-- Node14&#45;&gt;Node18 -->
<g id="edge18" class="edge">
<title>Node14&#45;&gt;Node18</title>
<path fill="none" stroke="#63b8ff" d="M532,-219.75C532,-213.27 532,-204.16 532,-195.9"/>
<polygon fill="#63b8ff" stroke="#63b8ff" points="535.5,-195.96 532,-185.96 528.5,-195.96 535.5,-195.96"/>
</g>
<!-- Node20 -->
<g id="node20" class="node">
<title>Node20</title>
<g id="a_node20"><a xlink:href="execution_2concepts_8h.html" target="_top" xlink:title=" ">
<polygon fill="white" stroke="#666666" points="478,-74 414,-74 414,-55 478,-55 478,-74"/>
<text text-anchor="middle" x="446" y="-62" font-family="Helvetica,sans-Serif" font-size="10.00">concepts.h</text>
</a>
</g>
</g>
<!-- Node14&#45;&gt;Node20 -->
<g id="edge20" class="edge">
<title>Node14&#45;&gt;Node20</title>
<path fill="none" stroke="#63b8ff" d="M543.64,-219.73C553.31,-211.67 566.35,-198.74 572,-184 580.32,-162.3 562.1,-114.67 558,-110 540.49,-90.08 512.86,-78.97 489.43,-72.84"/>
<polygon fill="#63b8ff" stroke="#63b8ff" points="490.33,-69.46 479.8,-70.56 488.72,-76.27 490.33,-69.46"/>
</g>
<!-- Node21 -->
<g id="node21" class="node">
<title>Node21</title>
<g id="a_node21"><a xlink:href="storage_8h.html" target="_top" xlink:title=" ">
<polygon fill="white" stroke="#666666" points="675,-184 619,-184 619,-165 675,-165 675,-184"/>
<text text-anchor="middle" x="647" y="-172" font-family="Helvetica,sans-Serif" font-size="10.00">storage.h</text>
</a>
</g>
</g>
<!-- Node14&#45;&gt;Node21 -->
<g id="edge21" class="edge">
<title>Node14&#45;&gt;Node21</title>
<path fill="none" stroke="#63b8ff" d="M551.51,-219.51C569.63,-211.16 596.85,-198.61 617.6,-189.05"/>
<polygon fill="#63b8ff" stroke="#63b8ff" points="618.79,-192.36 626.41,-184.99 615.86,-186 618.79,-192.36"/>
</g>
<!-- Node16 -->
<g id="node16" class="node">
<title>Node16</title>
<g id="a_node16"><a xlink:href="closure_8h.html" target="_top" xlink:title=" ">
<polygon fill="white" stroke="#666666" points="373,-129 317,-129 317,-110 373,-110 373,-129"/>
<text text-anchor="middle" x="345" y="-117" font-family="Helvetica,sans-Serif" font-size="10.00">closure.h</text>
</a>
</g>
</g>
<!-- Node15&#45;&gt;Node16 -->
<g id="edge16" class="edge">
<title>Node15&#45;&gt;Node16</title>
<path fill="none" stroke="#63b8ff" d="M321.62,-164.75C325.25,-157.88 330.43,-148.08 334.99,-139.45"/>
<polygon fill="#63b8ff" stroke="#63b8ff" points="337.99,-141.26 339.57,-130.78 331.8,-137.99 337.99,-141.26"/>
</g>
<!-- Node19 -->
<g id="node19" class="node">
<title>Node19</title>
<g id="a_node19"><a xlink:href="lift_8h.html" target="_top" xlink:title=" ">
<polygon fill="white" stroke="#666666" points="549.5,-129 514.5,-129 514.5,-110 549.5,-110 549.5,-129"/>
<text text-anchor="middle" x="532" y="-117" font-family="Helvetica,sans-Serif" font-size="10.00">lift.h</text>
</a>
</g>
</g>
<!-- Node18&#45;&gt;Node19 -->
<g id="edge19" class="edge">
<title>Node18&#45;&gt;Node19</title>
<path fill="none" stroke="#63b8ff" d="M532,-164.75C532,-158.27 532,-149.16 532,-140.9"/>
<polygon fill="#63b8ff" stroke="#63b8ff" points="535.5,-140.96 532,-130.96 528.5,-140.96 535.5,-140.96"/>
</g>
<!-- Node23 -->
<g id="node23" class="node">
<title>Node23</title>
<g id="a_node23"><a xlink:href="genericresult_8h.html" target="_top" xlink:title=" ">
<polygon fill="white" stroke="#666666" points="109.5,-184 22.5,-184 22.5,-165 109.5,-165 109.5,-184"/>
<text text-anchor="middle" x="66" y="-172" font-family="Helvetica,sans-Serif" font-size="10.00">../genericresult.h</text>
</a>
</g>
</g>
<!-- Node22&#45;&gt;Node23 -->
<g id="edge23" class="edge">
<title>Node22&#45;&gt;Node23</title>
<path fill="none" stroke="#63b8ff" d="M154.02,-219.51C137.55,-211.27 112.91,-198.96 93.89,-189.45"/>
<polygon fill="#63b8ff" stroke="#63b8ff" points="95.58,-186.38 85.07,-185.03 92.45,-192.64 95.58,-186.38"/>
</g>
<!-- Node22&#45;&gt;Node27 -->
<g id="edge27" class="edge">
<title>Node22&#45;&gt;Node27</title>
<path fill="none" stroke="#63b8ff" d="M177.61,-219.75C182.12,-212.73 188.59,-202.64 194.21,-193.87"/>
<polygon fill="#63b8ff" stroke="#63b8ff" points="196.99,-196.02 199.45,-185.72 191.1,-192.24 196.99,-196.02"/>
</g>
<!-- Node29 -->
<g id="node29" class="node">
<title>Node29</title>
<g id="a_node29"><a xlink:href="virtualstate_8h.html" target="_top" xlink:title=" ">
<polygon fill="white" stroke="#666666" points="227,-129 155,-129 155,-110 227,-110 227,-129"/>
<text text-anchor="middle" x="191" y="-117" font-family="Helvetica,sans-Serif" font-size="10.00">virtualstate.h</text>
</a>
</g>
</g>
<!-- Node22&#45;&gt;Node29 -->
<g id="edge34" class="edge">
<title>Node22&#45;&gt;Node29</title>
<path fill="none" stroke="#63b8ff" d="M166.87,-219.73C160.31,-207.34 150.54,-184.1 157,-165 160.41,-154.92 167.12,-145.32 173.69,-137.64"/>
<polygon fill="#63b8ff" stroke="#63b8ff" points="176.14,-140.14 180.37,-130.42 171.01,-135.38 176.14,-140.14"/>
</g>
<!-- Node24 -->
<g id="node24" class="node">
<title>Node24</title>
<g id="a_node24"><a xlink:href="enum_8h.html" target="_top" xlink:title=" ">
<polygon fill="white" stroke="#666666" points="90,-129 42,-129 42,-110 90,-110 90,-129"/>
<text text-anchor="middle" x="66" y="-117" font-family="Helvetica,sans-Serif" font-size="10.00">enum.h</text>
</a>
</g>
</g>
<!-- Node23&#45;&gt;Node24 -->
<g id="edge24" class="edge">
<title>Node23&#45;&gt;Node24</title>
<path fill="none" stroke="#63b8ff" d="M66,-164.75C66,-158.27 66,-149.16 66,-140.9"/>
<polygon fill="#63b8ff" stroke="#63b8ff" points="69.5,-140.96 66,-130.96 62.5,-140.96 69.5,-140.96"/>
</g>
<!-- Node25 -->
<g id="node25" class="node">
<title>Node25</title>
<g id="a_node25"><a xlink:href="array_8h.html" target="_top" xlink:title=" ">
<polygon fill="white" stroke="#666666" points="98,-74 34,-74 34,-55 98,-55 98,-74"/>
<text text-anchor="middle" x="66" y="-62" font-family="Helvetica,sans-Serif" font-size="10.00">bits/array.h</text>
</a>
</g>
</g>
<!-- Node24&#45;&gt;Node25 -->
<g id="edge25" class="edge">
<title>Node24&#45;&gt;Node25</title>
<path fill="none" stroke="#63b8ff" d="M66,-109.75C66,-103.27 66,-94.16 66,-85.9"/>
<polygon fill="#63b8ff" stroke="#63b8ff" points="69.5,-85.96 66,-75.96 62.5,-85.96 69.5,-85.96"/>
</g>
<!-- Node26 -->
<g id="node26" class="node">
<title>Node26</title>
<g id="a_node26"><a xlink:href="types_8h.html" target="_top" xlink:title=" ">
<polygon fill="white" stroke="#666666" points="89.5,-19 42.5,-19 42.5,0 89.5,0 89.5,-19"/>
<text text-anchor="middle" x="66" y="-7" font-family="Helvetica,sans-Serif" font-size="10.00">types.h</text>
</a>
</g>
</g>
<!-- Node25&#45;&gt;Node26 -->
<g id="edge26" class="edge">
<title>Node25&#45;&gt;Node26</title>
<path fill="none" stroke="#63b8ff" d="M66,-54.75C66,-48.27 66,-39.16 66,-30.9"/>
<polygon fill="#63b8ff" stroke="#63b8ff" points="69.5,-30.96 66,-20.96 62.5,-30.96 69.5,-30.96"/>
</g>
<!-- Node28 -->
<g id="node28" class="node">
<title>Node28</title>
<g id="a_node28"><a xlink:href="src_2_generic_2execution_2sender_8h.html" target="_top" xlink:title=" ">
<polygon fill="white" stroke="#666666" points="298.5,-129 245.5,-129 245.5,-110 298.5,-110 298.5,-129"/>
<text text-anchor="middle" x="272" y="-117" font-family="Helvetica,sans-Serif" font-size="10.00">sender.h</text>
</a>
</g>
</g>
<!-- Node27&#45;&gt;Node28 -->
<g id="edge28" class="edge">
<title>Node27&#45;&gt;Node28</title>
<path fill="none" stroke="#63b8ff" d="M217.2,-164.51C226.74,-156.85 240.67,-145.66 252.11,-136.47"/>
<polygon fill="#63b8ff" stroke="#63b8ff" points="254.18,-139.3 259.79,-130.31 249.8,-133.84 254.18,-139.3"/>
</g>
<!-- Node27&#45;&gt;Node29 -->
<g id="edge30" class="edge">
<title>Node27&#45;&gt;Node29</title>
<path fill="none" stroke="#63b8ff" d="M203.52,-164.75C201.65,-158.11 198.99,-148.73 196.61,-140.31"/>
<polygon fill="#63b8ff" stroke="#63b8ff" points="200.03,-139.57 193.94,-130.9 193.3,-141.47 200.03,-139.57"/>
</g>
<!-- Node28&#45;&gt;Node20 -->
<g id="edge29" class="edge">
<title>Node28&#45;&gt;Node20</title>
<path fill="none" stroke="#63b8ff" d="M298.81,-110.33C327.41,-101.62 373.05,-87.72 405.93,-77.71"/>
<polygon fill="#63b8ff" stroke="#63b8ff" points="406.55,-81.18 415.1,-74.91 404.51,-74.48 406.55,-81.18"/>
</g>
<!-- Node29&#45;&gt;Node20 -->
<g id="edge31" class="edge">
<title>Node29&#45;&gt;Node20</title>
<path fill="none" stroke="#63b8ff" d="M227.26,-110.96C273.47,-101.36 353.26,-84.78 402.63,-74.51"/>
<polygon fill="#63b8ff" stroke="#63b8ff" points="403.33,-77.94 412.41,-72.48 401.9,-71.09 403.33,-77.94"/>
</g>
<!-- Node30 -->
<g id="node30" class="node">
<title>Node30</title>
<g id="a_node30"><a xlink:href="virtual__invoke_8h.html" target="_top" xlink:title=" ">
<polygon fill="white" stroke="#666666" points="251.5,-74 130.5,-74 130.5,-55 251.5,-55 251.5,-74"/>
<text text-anchor="middle" x="191" y="-62" font-family="Helvetica,sans-Serif" font-size="10.00">Generic/virtual_invoke.h</text>
</a>
</g>
</g>
<!-- Node29&#45;&gt;Node30 -->
<g id="edge32" class="edge">
<title>Node29&#45;&gt;Node30</title>
<path fill="none" stroke="#63b8ff" d="M191,-109.75C191,-103.27 191,-94.16 191,-85.9"/>
<polygon fill="#63b8ff" stroke="#63b8ff" points="194.5,-85.96 191,-75.96 187.5,-85.96 194.5,-85.96"/>
</g>
<!-- Node31 -->
<g id="node31" class="node">
<title>Node31</title>
<g id="a_node31"><a xlink:href="callable__traits_8h.html" target="_top" xlink:title=" ">
<polygon fill="white" stroke="#666666" points="233,-19 149,-19 149,0 233,0 233,-19"/>
<text text-anchor="middle" x="191" y="-7" font-family="Helvetica,sans-Serif" font-size="10.00">callable_traits.h</text>
</a>
</g>
</g>
<!-- Node30&#45;&gt;Node31 -->
<g id="edge33" class="edge">
<title>Node30&#45;&gt;Node31</title>
<path fill="none" stroke="#63b8ff" d="M191,-54.75C191,-48.27 191,-39.16 191,-30.9"/>
<polygon fill="#63b8ff" stroke="#63b8ff" points="194.5,-30.96 191,-20.96 187.5,-30.96 194.5,-30.96"/>
</g>
<!-- Node32&#45;&gt;Node20 -->
<g id="edge38" class="edge">
<title>Node32&#45;&gt;Node20</title>
<path fill="none" stroke="#63b8ff" d="M679.68,-219.55C685.77,-206.54 694.47,-182.09 684,-165 642.84,-97.84 545.89,-76 489.25,-68.9"/>
<polygon fill="#63b8ff" stroke="#63b8ff" points="489.98,-65.46 479.65,-67.81 489.19,-72.42 489.98,-65.46"/>
</g>
<!-- Node32&#45;&gt;Node21 -->
<g id="edge39" class="edge">
<title>Node32&#45;&gt;Node21</title>
<path fill="none" stroke="#63b8ff" d="M670.38,-219.75C666.75,-212.88 661.57,-203.08 657.01,-194.45"/>
<polygon fill="#63b8ff" stroke="#63b8ff" points="660.2,-192.99 652.43,-185.78 654.01,-196.26 660.2,-192.99"/>
</g>
<!-- Node33 -->
<g id="node33" class="node">
<title>Node33</title>
<g id="a_node33"><a xlink:href="makeowning_8h.html" target="_top" xlink:title=" ">
<polygon fill="white" stroke="#666666" points="909,-184 823,-184 823,-165 909,-165 909,-184"/>
<text text-anchor="middle" x="866" y="-172" font-family="Helvetica,sans-Serif" font-size="10.00">../makeowning.h</text>
</a>
</g>
</g>
<!-- Node32&#45;&gt;Node33 -->
<g id="edge36" class="edge">
<title>Node32&#45;&gt;Node33</title>
<path fill="none" stroke="#63b8ff" d="M707.4,-219.51C739.19,-210.69 787.86,-197.18 822.9,-187.46"/>
<polygon fill="#63b8ff" stroke="#63b8ff" points="823.6,-190.9 832.3,-184.85 821.73,-184.15 823.6,-190.9"/>
</g>
<!-- Node34 -->
<g id="node34" class="node">
<title>Node34</title>
<g id="a_node34"><a xlink:href="withresult_8h.html" target="_top" xlink:title=" ">
<polygon fill="white" stroke="#666666" points="805,-184 731,-184 731,-165 805,-165 805,-184"/>
<text text-anchor="middle" x="768" y="-172" font-family="Helvetica,sans-Serif" font-size="10.00">../withresult.h</text>
</a>
</g>
</g>
<!-- Node32&#45;&gt;Node34 -->
<g id="edge37" class="edge">
<title>Node32&#45;&gt;Node34</title>
<path fill="none" stroke="#63b8ff" d="M690.78,-219.51C705.02,-211.39 726.24,-199.3 742.83,-189.85"/>
<polygon fill="#63b8ff" stroke="#63b8ff" points="744.19,-193.1 751.14,-185.11 740.72,-187.02 744.19,-193.1"/>
</g>
</g>
</svg>
        <g id="navigator" transform="translate(0 0)" fill="#404254">
                <rect fill="#f2f5e9" fill-opacity="0.5" stroke="#606060" stroke-width=".5" x="0" y="0" width="60" height="60"/>
                <use id="zoomplus" xlink:href="#zoomPlus" x="17" y="9" onmousedown="handleZoom(evt,'in')"/>
                <use id="zoomminus" xlink:href="#zoomMin" x="42" y="9" onmousedown="handleZoom(evt,'out')"/>
                <use id="reset" xlink:href="#resetDef" x="30" y="36" onmousedown="handleReset()"/>
                <g id="arrowUp" xlink:href="#dirArrow" transform="translate(30 24)" onmousedown="handlePan(0,-1)">
                  <use xlink:href="#rim" fill="#404040">
                        <set attributeName="fill" to="#808080" begin="arrowUp.mouseover" end="arrowUp.mouseout"/>
                  </use>
                  <path fill="none" stroke="white" stroke-width="1.5" d="M0,-3.0v7 M-2.5,-0.5L0,-3.0L2.5,-0.5"/>
                </g>
                <g id="arrowRight" xlink:href="#dirArrow" transform="rotate(90) translate(36 -43)" onmousedown="handlePan(1,0)">
                  <use xlink:href="#rim" fill="#404040">
                        <set attributeName="fill" to="#808080" begin="arrowRight.mouseover" end="arrowRight.mouseout"/>
                  </use>
                  <path fill="none" stroke="white" stroke-width="1.5" d="M0,-3.0v7 M-2.5,-0.5L0,-3.0L2.5,-0.5"/>
                </g>
                <g id="arrowDown" xlink:href="#dirArrow" transform="rotate(180) translate(-30 -48)" onmousedown="handlePan(0,1)">
                  <use xlink:href="#rim" fill="#404040">
                        <set attributeName="fill" to="#808080" begin="arrowDown.mouseover" end="arrowDown.mouseout"/>
                  </use>
                  <path fill="none" stroke="white" stroke-width="1.5" d="M0,-3.0v7 M-2.5,-0.5L0,-3.0L2.5,-0.5"/>
                </g>
                <g id="arrowLeft" xlink:href="#dirArrow" transform="rotate(270) translate(-36 17)" onmousedown="handlePan(-1,0)">
                  <use xlink:href="#rim" fill="#404040">
                        <set attributeName="fill" to="#808080" begin="arrowLeft.mouseover" end="arrowLeft.mouseout"/>
                  </use>
                  <path fill="none" stroke="white" stroke-width="1.5" d="M0,-3.0v7 M-2.5,-0.5L0,-3.0L2.5,-0.5"/>
                </g>
        </g>
        <svg viewBox="0 0 15 15" width="100%" height="30px" preserveAspectRatio="xMaxYMin meet">
         <g id="arrow_out" transform="scale(0.3 0.3)">
          <a xlink:href="behaviorcollector_8h__incl_org.svg" target="_base">
           <rect id="button" ry="5" rx="5" y="6" x="6" height="38" width="38"
                fill="#f2f5e9" fill-opacity="0.5" stroke="#606060" stroke-width="1.0"/>
           <path id="arrow"
             d="M 11.500037,31.436501 C 11.940474,20.09759 22.043105,11.32322 32.158766,21.979434 L 37.068811,17.246167 C 37.068811,17.246167 37.088388,32 37.088388,32 L 22.160133,31.978069 C 22.160133,31.978069 26.997745,27.140456 26.997745,27.140456 C 18.528582,18.264221 13.291696,25.230495 11.500037,31.436501 z"
             style="fill:#404040;"/>
          </a>
         </g>
        </svg>
</svg>
