<?xml version="1.0" encoding="UTF-8" standalone="no"?>
<!DOCTYPE svg PUBLIC "-//W3C//DTD SVG 1.1//EN"
 "http://www.w3.org/Graphics/SVG/1.1/DTD/svg11.dtd">
<!-- Generated by graphviz version 7.0.5 (20221223.1930)
 -->
<!-- Title: plugins/behavior/api/src/Madgine/behavior.h Pages: 1 -->
<svg width="1573pt" height="720pt"
 viewBox="0.00 0.00 1572.50 720.00" xmlns="http://www.w3.org/2000/svg" xmlns:xlink="http://www.w3.org/1999/xlink">
<g id="graph0" class="graph" transform="scale(1 1) rotate(0) translate(4 716)">
<title>plugins/behavior/api/src/Madgine/behavior.h</title>
<!-- Node1 -->
<g id="node1" class="node">
<title>Node1</title>
<g id="a_node1"><a xlink:title=" ">
<polygon fill="#999999" stroke="#666666" points="1234,-712 1114,-712 1114,-682 1234,-682 1234,-712"/>
<text text-anchor="start" x="1122" y="-700" font-family="Helvetica,sans-Serif" font-size="10.00">plugins/behavior/api</text>
<text text-anchor="middle" x="1174" y="-689" font-family="Helvetica,sans-Serif" font-size="10.00">/src/Madgine/behavior.h</text>
</a>
</g>
</g>
<!-- Node2 -->
<g id="node2" class="node">
<title>Node2</title>
<g id="a_node2"><a xlink:href="behaviorerror_8h.html" target="_top" xlink:title=" ">
<polygon fill="white" stroke="#666666" points="80,-530.5 0,-530.5 0,-511.5 80,-511.5 80,-530.5"/>
<text text-anchor="middle" x="40" y="-518.5" font-family="Helvetica,sans-Serif" font-size="10.00">behaviorerror.h</text>
</a>
</g>
</g>
<!-- Node1&#45;&gt;Node2 -->
<g id="edge1" class="edge">
<title>Node1&#45;&gt;Node2</title>
<path fill="none" stroke="#63b8ff" d="M1113.71,-688.22C1040.43,-678.67 913.05,-661.81 804,-646 487.99,-600.17 406.72,-600.59 94,-536 90.6,-535.3 87.09,-534.52 83.58,-533.7"/>
<polygon fill="#63b8ff" stroke="#63b8ff" points="84.45,-530.3 73.9,-531.33 82.78,-537.1 84.45,-530.3"/>
</g>
<!-- Node7 -->
<g id="node7" class="node">
<title>Node7</title>
<g id="a_node7"><a xlink:href="stacktrace_8h.html" target="_top" xlink:title=" ">
<polygon fill="white" stroke="#666666" points="1455,-646 1309,-646 1309,-627 1455,-627 1455,-646"/>
<text text-anchor="middle" x="1382" y="-634" font-family="Helvetica,sans-Serif" font-size="10.00">Interfaces/debug/stacktrace.h</text>
</a>
</g>
</g>
<!-- Node1&#45;&gt;Node7 -->
<g id="edge6" class="edge">
<title>Node1&#45;&gt;Node7</title>
<path fill="none" stroke="#63b8ff" d="M1225.42,-681.54C1260.54,-671.66 1306.53,-658.73 1339.57,-649.43"/>
<polygon fill="#63b8ff" stroke="#63b8ff" points="1340.11,-652.92 1348.78,-646.84 1338.21,-646.18 1340.11,-652.92"/>
</g>
<!-- Node9 -->
<g id="node9" class="node">
<title>Node9</title>
<g id="a_node9"><a xlink:href="delayedconstruct_8h.html" target="_top" xlink:title=" ">
<polygon fill="white" stroke="#666666" points="1186,-299.5 1052,-299.5 1052,-280.5 1186,-280.5 1186,-299.5"/>
<text text-anchor="middle" x="1119" y="-287.5" font-family="Helvetica,sans-Serif" font-size="10.00">Generic/delayedconstruct.h</text>
</a>
</g>
</g>
<!-- Node1&#45;&gt;Node9 -->
<g id="edge8" class="edge">
<title>Node1&#45;&gt;Node9</title>
<path fill="none" stroke="#63b8ff" d="M1202.39,-681.6C1234.09,-663.28 1281,-628.4 1281,-582.5 1281,-582.5 1281,-582.5 1281,-404.5 1281,-348.91 1216.22,-318.24 1168.58,-303.2"/>
<polygon fill="#63b8ff" stroke="#63b8ff" points="1169.84,-299.92 1159.25,-300.4 1167.83,-306.63 1169.84,-299.92"/>
</g>
<!-- Node11 -->
<g id="node11" class="node">
<title>Node11</title>
<g id="a_node11"><a xlink:href="debuggablesender_8h.html" target="_top" xlink:title=" ">
<polygon fill="white" stroke="#666666" points="1153,-591 981,-591 981,-572 1153,-572 1153,-591"/>
<text text-anchor="middle" x="1067" y="-579" font-family="Helvetica,sans-Serif" font-size="10.00">Madgine/debug/debuggablesender.h</text>
</a>
</g>
</g>
<!-- Node1&#45;&gt;Node11 -->
<g id="edge10" class="edge">
<title>Node1&#45;&gt;Node11</title>
<path fill="none" stroke="#63b8ff" d="M1160.45,-681.63C1140.68,-660.65 1104,-621.75 1082.95,-599.42"/>
<polygon fill="#63b8ff" stroke="#63b8ff" points="1085.67,-597.21 1076.27,-592.33 1080.58,-602.01 1085.67,-597.21"/>
</g>
<!-- Node23 -->
<g id="node23" class="node">
<title>Node23</title>
<g id="a_node23"><a xlink:href="behaviorreceiver_8h.html" target="_top" xlink:title=" ">
<polygon fill="white" stroke="#666666" points="908.5,-646 813.5,-646 813.5,-627 908.5,-627 908.5,-646"/>
<text text-anchor="middle" x="861" y="-634" font-family="Helvetica,sans-Serif" font-size="10.00">behaviorreceiver.h</text>
</a>
</g>
</g>
<!-- Node1&#45;&gt;Node23 -->
<g id="edge23" class="edge">
<title>Node1&#45;&gt;Node23</title>
<path fill="none" stroke="#63b8ff" d="M1113.65,-684.72C1057.81,-674.28 975.3,-658.86 919.92,-648.51"/>
<polygon fill="#63b8ff" stroke="#63b8ff" points="920.84,-645.12 910.37,-646.73 919.55,-652 920.84,-645.12"/>
</g>
<!-- Node55 -->
<g id="node55" class="node">
<title>Node55</title>
<g id="a_node55"><a xlink:href="functor_8h.html" target="_top" xlink:title=" ">
<polygon fill="white" stroke="#666666" points="1564.5,-646 1473.5,-646 1473.5,-627 1564.5,-627 1564.5,-646"/>
<text text-anchor="middle" x="1519" y="-634" font-family="Helvetica,sans-Serif" font-size="10.00">Generic/functor.h</text>
</a>
</g>
</g>
<!-- Node1&#45;&gt;Node55 -->
<g id="edge76" class="edge">
<title>Node1&#45;&gt;Node55</title>
<path fill="none" stroke="#63b8ff" d="M1234.49,-685.74C1298.62,-674.87 1399.14,-657.82 1461.93,-647.18"/>
<polygon fill="#63b8ff" stroke="#63b8ff" points="1462.44,-650.64 1471.71,-645.52 1461.27,-643.74 1462.44,-650.64"/>
</g>
<!-- Node3 -->
<g id="node3" class="node">
<title>Node3</title>
<g id="a_node3"><a xlink:href="genericresult_8h.html" target="_top" xlink:title=" ">
<polygon fill="white" stroke="#666666" points="474,-184 358,-184 358,-165 474,-165 474,-184"/>
<text text-anchor="middle" x="416" y="-172" font-family="Helvetica,sans-Serif" font-size="10.00">Generic/genericresult.h</text>
</a>
</g>
</g>
<!-- Node2&#45;&gt;Node3 -->
<g id="edge2" class="edge">
<title>Node2&#45;&gt;Node3</title>
<path fill="none" stroke="#63b8ff" d="M40,-511.17C40,-492.08 40,-445.52 40,-406.5 40,-406.5 40,-406.5 40,-289 40,-257.19 34.94,-240.81 59,-220 60.35,-218.83 242.95,-196.5 346.43,-183.93"/>
<polygon fill="#63b8ff" stroke="#63b8ff" points="346.72,-187.42 356.22,-182.74 345.87,-180.47 346.72,-187.42"/>
</g>
<!-- Node4 -->
<g id="node4" class="node">
<title>Node4</title>
<g id="a_node4"><a xlink:href="enum_8h.html" target="_top" xlink:title=" ">
<polygon fill="white" stroke="#666666" points="440,-129 392,-129 392,-110 440,-110 440,-129"/>
<text text-anchor="middle" x="416" y="-117" font-family="Helvetica,sans-Serif" font-size="10.00">enum.h</text>
</a>
</g>
</g>
<!-- Node3&#45;&gt;Node4 -->
<g id="edge3" class="edge">
<title>Node3&#45;&gt;Node4</title>
<path fill="none" stroke="#63b8ff" d="M416,-164.75C416,-158.27 416,-149.16 416,-140.9"/>
<polygon fill="#63b8ff" stroke="#63b8ff" points="419.5,-140.96 416,-130.96 412.5,-140.96 419.5,-140.96"/>
</g>
<!-- Node5 -->
<g id="node5" class="node">
<title>Node5</title>
<g id="a_node5"><a xlink:href="array_8h.html" target="_top" xlink:title=" ">
<polygon fill="white" stroke="#666666" points="448,-74 384,-74 384,-55 448,-55 448,-74"/>
<text text-anchor="middle" x="416" y="-62" font-family="Helvetica,sans-Serif" font-size="10.00">bits/array.h</text>
</a>
</g>
</g>
<!-- Node4&#45;&gt;Node5 -->
<g id="edge4" class="edge">
<title>Node4&#45;&gt;Node5</title>
<path fill="none" stroke="#63b8ff" d="M416,-109.75C416,-103.27 416,-94.16 416,-85.9"/>
<polygon fill="#63b8ff" stroke="#63b8ff" points="419.5,-85.96 416,-75.96 412.5,-85.96 419.5,-85.96"/>
</g>
<!-- Node6 -->
<g id="node6" class="node">
<title>Node6</title>
<g id="a_node6"><a xlink:href="types_8h.html" target="_top" xlink:title=" ">
<polygon fill="white" stroke="#666666" points="439.5,-19 392.5,-19 392.5,0 439.5,0 439.5,-19"/>
<text text-anchor="middle" x="416" y="-7" font-family="Helvetica,sans-Serif" font-size="10.00">types.h</text>
</a>
</g>
</g>
<!-- Node5&#45;&gt;Node6 -->
<g id="edge5" class="edge">
<title>Node5&#45;&gt;Node6</title>
<path fill="none" stroke="#63b8ff" d="M416,-54.75C416,-48.27 416,-39.16 416,-30.9"/>
<polygon fill="#63b8ff" stroke="#63b8ff" points="419.5,-30.96 416,-20.96 412.5,-30.96 419.5,-30.96"/>
</g>
<!-- Node8 -->
<g id="node8" class="node">
<title>Node8</title>
<g id="a_node8"><a xlink:href="traceback_8h.html" target="_top" xlink:title=" ">
<polygon fill="white" stroke="#666666" points="1415.5,-591 1348.5,-591 1348.5,-572 1415.5,-572 1415.5,-591"/>
<text text-anchor="middle" x="1382" y="-579" font-family="Helvetica,sans-Serif" font-size="10.00">traceback.h</text>
</a>
</g>
</g>
<!-- Node7&#45;&gt;Node8 -->
<g id="edge7" class="edge">
<title>Node7&#45;&gt;Node8</title>
<path fill="none" stroke="#63b8ff" d="M1382,-626.75C1382,-620.27 1382,-611.16 1382,-602.9"/>
<polygon fill="#63b8ff" stroke="#63b8ff" points="1385.5,-602.96 1382,-592.96 1378.5,-602.96 1385.5,-602.96"/>
</g>
<!-- Node10 -->
<g id="node10" class="node">
<title>Node10</title>
<g id="a_node10"><a xlink:href="closure_8h.html" target="_top" xlink:title=" ">
<polygon fill="white" stroke="#666666" points="1147,-239 1091,-239 1091,-220 1147,-220 1147,-239"/>
<text text-anchor="middle" x="1119" y="-227" font-family="Helvetica,sans-Serif" font-size="10.00">closure.h</text>
</a>
</g>
</g>
<!-- Node9&#45;&gt;Node10 -->
<g id="edge9" class="edge">
<title>Node9&#45;&gt;Node10</title>
<path fill="none" stroke="#63b8ff" d="M1119,-280.37C1119,-272.5 1119,-260.6 1119,-250.39"/>
<polygon fill="#63b8ff" stroke="#63b8ff" points="1122.5,-250.68 1119,-240.68 1115.5,-250.68 1122.5,-250.68"/>
</g>
<!-- Node12 -->
<g id="node12" class="node">
<title>Node12</title>
<g id="a_node12"><a xlink:href="senderlocation_8h.html" target="_top" xlink:title=" ">
<polygon fill="white" stroke="#666666" points="1089.5,-530.5 1002.5,-530.5 1002.5,-511.5 1089.5,-511.5 1089.5,-530.5"/>
<text text-anchor="middle" x="1046" y="-518.5" font-family="Helvetica,sans-Serif" font-size="10.00">senderlocation.h</text>
</a>
</g>
</g>
<!-- Node11&#45;&gt;Node12 -->
<g id="edge11" class="edge">
<title>Node11&#45;&gt;Node12</title>
<path fill="none" stroke="#63b8ff" d="M1063.9,-571.87C1061.02,-563.83 1056.62,-551.57 1052.9,-541.22"/>
<polygon fill="#63b8ff" stroke="#63b8ff" points="1056.3,-540.32 1049.62,-532.09 1049.71,-542.69 1056.3,-540.32"/>
</g>
<!-- Node13 -->
<g id="node13" class="node">
<title>Node13</title>
<g id="a_node13"><a xlink:href="callable__view_8h.html" target="_top" xlink:title=" ">
<polygon fill="white" stroke="#666666" points="924.5,-470 805.5,-470 805.5,-451 924.5,-451 924.5,-470"/>
<text text-anchor="middle" x="865" y="-458" font-family="Helvetica,sans-Serif" font-size="10.00">Generic/callable_view.h</text>
</a>
</g>
</g>
<!-- Node12&#45;&gt;Node13 -->
<g id="edge12" class="edge">
<title>Node12&#45;&gt;Node13</title>
<path fill="none" stroke="#63b8ff" d="M1018.51,-511.12C987.81,-501.19 937.91,-485.07 903.38,-473.9"/>
<polygon fill="#63b8ff" stroke="#63b8ff" points="904.78,-470.68 894.19,-470.93 902.63,-477.34 904.78,-470.68"/>
</g>
<!-- Node14 -->
<g id="node14" class="node">
<title>Node14</title>
<g id="a_node14"><a xlink:href="debuglocation_8h.html" target="_top" xlink:title=" ">
<polygon fill="white" stroke="#666666" points="1065,-470 981,-470 981,-451 1065,-451 1065,-470"/>
<text text-anchor="middle" x="1023" y="-458" font-family="Helvetica,sans-Serif" font-size="10.00">debuglocation.h</text>
</a>
</g>
</g>
<!-- Node12&#45;&gt;Node14 -->
<g id="edge13" class="edge">
<title>Node12&#45;&gt;Node14</title>
<path fill="none" stroke="#63b8ff" d="M1042.61,-511.37C1039.45,-503.33 1034.63,-491.07 1030.56,-480.72"/>
<polygon fill="#63b8ff" stroke="#63b8ff" points="1033.88,-479.6 1026.96,-471.58 1027.36,-482.16 1033.88,-479.6"/>
</g>
<!-- Node16 -->
<g id="node16" class="node">
<title>Node16</title>
<g id="a_node16"><a xlink:href="statedescriptor_8h.html" target="_top" xlink:title=" ">
<polygon fill="white" stroke="#666666" points="1253,-470 1083,-470 1083,-451 1253,-451 1253,-470"/>
<text text-anchor="middle" x="1168" y="-458" font-family="Helvetica,sans-Serif" font-size="10.00">Generic/execution/statedescriptor.h</text>
</a>
</g>
</g>
<!-- Node12&#45;&gt;Node16 -->
<g id="edge15" class="edge">
<title>Node12&#45;&gt;Node16</title>
<path fill="none" stroke="#63b8ff" d="M1064.53,-511.12C1084.32,-501.62 1115.97,-486.45 1139.05,-475.38"/>
<polygon fill="#63b8ff" stroke="#63b8ff" points="1140.43,-478.6 1147.93,-471.12 1137.4,-472.29 1140.43,-478.6"/>
</g>
<!-- Node15 -->
<g id="node15" class="node">
<title>Node15</title>
<g id="a_node15"><a xlink:href="continuation_8h.html" target="_top" xlink:title=" ">
<polygon fill="white" stroke="#666666" points="1061.5,-415 984.5,-415 984.5,-396 1061.5,-396 1061.5,-415"/>
<text text-anchor="middle" x="1023" y="-403" font-family="Helvetica,sans-Serif" font-size="10.00">continuation.h</text>
</a>
</g>
</g>
<!-- Node14&#45;&gt;Node15 -->
<g id="edge14" class="edge">
<title>Node14&#45;&gt;Node15</title>
<path fill="none" stroke="#63b8ff" d="M1023,-450.75C1023,-444.27 1023,-435.16 1023,-426.9"/>
<polygon fill="#63b8ff" stroke="#63b8ff" points="1026.5,-426.96 1023,-416.96 1019.5,-426.96 1026.5,-426.96"/>
</g>
<!-- Node17 -->
<g id="node17" class="node">
<title>Node17</title>
<g id="a_node17"><a xlink:href="algorithm_8h.html" target="_top" xlink:title=" ">
<polygon fill="white" stroke="#666666" points="1373,-360 1309,-360 1309,-341 1373,-341 1373,-360"/>
<text text-anchor="middle" x="1341" y="-348" font-family="Helvetica,sans-Serif" font-size="10.00">algorithm.h</text>
</a>
</g>
</g>
<!-- Node16&#45;&gt;Node17 -->
<g id="edge16" class="edge">
<title>Node16&#45;&gt;Node17</title>
<path fill="none" stroke="#63b8ff" d="M1182.16,-450.66C1211.81,-432.15 1280.72,-389.13 1317.26,-366.32"/>
<polygon fill="#63b8ff" stroke="#63b8ff" points="1318.73,-369.53 1325.36,-361.26 1315.03,-363.59 1318.73,-369.53"/>
</g>
<!-- Node17&#45;&gt;Node9 -->
<g id="edge17" class="edge">
<title>Node17&#45;&gt;Node9</title>
<path fill="none" stroke="#63b8ff" d="M1308.72,-340.99C1270.63,-330.96 1207.08,-314.21 1164.13,-302.89"/>
<polygon fill="#63b8ff" stroke="#63b8ff" points="1165.17,-299.55 1154.61,-300.38 1163.38,-306.32 1165.17,-299.55"/>
</g>
<!-- Node18 -->
<g id="node18" class="node">
<title>Node18</title>
<g id="a_node18"><a xlink:href="manuallifetime_8h.html" target="_top" xlink:title=" ">
<polygon fill="white" stroke="#666666" points="1299.5,-299.5 1204.5,-299.5 1204.5,-280.5 1299.5,-280.5 1299.5,-299.5"/>
<text text-anchor="middle" x="1252" y="-287.5" font-family="Helvetica,sans-Serif" font-size="10.00">../manuallifetime.h</text>
</a>
</g>
</g>
<!-- Node17&#45;&gt;Node18 -->
<g id="edge18" class="edge">
<title>Node17&#45;&gt;Node18</title>
<path fill="none" stroke="#63b8ff" d="M1327.48,-340.62C1313.63,-331.51 1291.82,-317.18 1275.2,-306.25"/>
<polygon fill="#63b8ff" stroke="#63b8ff" points="1277.19,-303.37 1266.91,-300.8 1273.34,-309.22 1277.19,-303.37"/>
</g>
<!-- Node19 -->
<g id="node19" class="node">
<title>Node19</title>
<g id="a_node19"><a xlink:href="pipable_8h.html" target="_top" xlink:title=" ">
<polygon fill="white" stroke="#666666" points="1492,-299.5 1430,-299.5 1430,-280.5 1492,-280.5 1492,-299.5"/>
<text text-anchor="middle" x="1461" y="-287.5" font-family="Helvetica,sans-Serif" font-size="10.00">../pipable.h</text>
</a>
</g>
</g>
<!-- Node17&#45;&gt;Node19 -->
<g id="edge19" class="edge">
<title>Node17&#45;&gt;Node19</title>
<path fill="none" stroke="#63b8ff" d="M1359.23,-340.62C1378.7,-331.12 1409.82,-315.95 1432.53,-304.88"/>
<polygon fill="#63b8ff" stroke="#63b8ff" points="1433.79,-308.16 1441.24,-300.63 1430.72,-301.87 1433.79,-308.16"/>
</g>
<!-- Node21 -->
<g id="node21" class="node">
<title>Node21</title>
<g id="a_node21"><a xlink:href="execution_2concepts_8h.html" target="_top" xlink:title=" ">
<polygon fill="white" stroke="#666666" points="844,-239 780,-239 780,-220 844,-220 844,-239"/>
<text text-anchor="middle" x="812" y="-227" font-family="Helvetica,sans-Serif" font-size="10.00">concepts.h</text>
</a>
</g>
</g>
<!-- Node17&#45;&gt;Node21 -->
<g id="edge21" class="edge">
<title>Node17&#45;&gt;Node21</title>
<path fill="none" stroke="#63b8ff" d="M1340.08,-340.56C1337.91,-324.43 1330.85,-290.66 1309,-275 1229.05,-217.69 971.01,-251.02 855.24,-238.93"/>
<polygon fill="#63b8ff" stroke="#63b8ff" points="856.02,-235.5 845.66,-237.75 855.16,-242.45 856.02,-235.5"/>
</g>
<!-- Node22 -->
<g id="node22" class="node">
<title>Node22</title>
<g id="a_node22"><a xlink:href="storage_8h.html" target="_top" xlink:title=" ">
<polygon fill="white" stroke="#666666" points="1412,-299.5 1356,-299.5 1356,-280.5 1412,-280.5 1412,-299.5"/>
<text text-anchor="middle" x="1384" y="-287.5" font-family="Helvetica,sans-Serif" font-size="10.00">storage.h</text>
</a>
</g>
</g>
<!-- Node17&#45;&gt;Node22 -->
<g id="edge22" class="edge">
<title>Node17&#45;&gt;Node22</title>
<path fill="none" stroke="#63b8ff" d="M1347.34,-340.87C1353.51,-332.49 1363.04,-319.51 1370.85,-308.89"/>
<polygon fill="#63b8ff" stroke="#63b8ff" points="1373.63,-311.02 1376.73,-300.89 1367.99,-306.87 1373.63,-311.02"/>
</g>
<!-- Node20 -->
<g id="node20" class="node">
<title>Node20</title>
<g id="a_node20"><a xlink:href="lift_8h.html" target="_top" xlink:title=" ">
<polygon fill="white" stroke="#666666" points="1478.5,-239 1443.5,-239 1443.5,-220 1478.5,-220 1478.5,-239"/>
<text text-anchor="middle" x="1461" y="-227" font-family="Helvetica,sans-Serif" font-size="10.00">lift.h</text>
</a>
</g>
</g>
<!-- Node19&#45;&gt;Node20 -->
<g id="edge20" class="edge">
<title>Node19&#45;&gt;Node20</title>
<path fill="none" stroke="#63b8ff" d="M1461,-280.37C1461,-272.5 1461,-260.6 1461,-250.39"/>
<polygon fill="#63b8ff" stroke="#63b8ff" points="1464.5,-250.68 1461,-240.68 1457.5,-250.68 1464.5,-250.68"/>
</g>
<!-- Node23&#45;&gt;Node2 -->
<g id="edge32" class="edge">
<title>Node23&#45;&gt;Node2</title>
<path fill="none" stroke="#63b8ff" d="M830.72,-626.5C803.7,-618.19 763.23,-605.04 729,-591 711.16,-583.68 708.65,-576.9 690,-572 433.33,-504.59 356.11,-577.49 94,-536 89.88,-535.35 85.63,-534.52 81.39,-533.59"/>
<polygon fill="#63b8ff" stroke="#63b8ff" points="82.35,-530.22 71.81,-531.31 80.73,-537.03 82.35,-530.22"/>
</g>
<!-- Node23&#45;&gt;Node11 -->
<g id="edge75" class="edge">
<title>Node23&#45;&gt;Node11</title>
<path fill="none" stroke="#63b8ff" d="M895.95,-626.51C930.53,-617.61 983.63,-603.95 1021.49,-594.21"/>
<polygon fill="#63b8ff" stroke="#63b8ff" points="1021.95,-597.7 1030.76,-591.82 1020.21,-590.93 1021.95,-597.7"/>
</g>
<!-- Node24 -->
<g id="node24" class="node">
<title>Node24</title>
<g id="a_node24"><a xlink:href="virtualsender_8h.html" target="_top" xlink:title=" ">
<polygon fill="white" stroke="#666666" points="1038.5,-360 877.5,-360 877.5,-341 1038.5,-341 1038.5,-360"/>
<text text-anchor="middle" x="958" y="-348" font-family="Helvetica,sans-Serif" font-size="10.00">Generic/execution/virtualsender.h</text>
</a>
</g>
</g>
<!-- Node23&#45;&gt;Node24 -->
<g id="edge24" class="edge">
<title>Node23&#45;&gt;Node24</title>
<path fill="none" stroke="#63b8ff" d="M875.78,-626.63C901.79,-609.78 953,-570.45 953,-522 953,-522 953,-522 953,-459.5 953,-428.89 955.03,-393.45 956.5,-371.76"/>
<polygon fill="#63b8ff" stroke="#63b8ff" points="959.98,-372.19 957.2,-361.96 953,-371.69 959.98,-372.19"/>
</g>
<!-- Node29 -->
<g id="node29" class="node">
<title>Node29</title>
<g id="a_node29"><a xlink:href="argumentlist_8h.html" target="_top" xlink:title=" ">
<polygon fill="white" stroke="#666666" points="681.5,-591 538.5,-591 538.5,-572 681.5,-572 681.5,-591"/>
<text text-anchor="middle" x="610" y="-579" font-family="Helvetica,sans-Serif" font-size="10.00">Meta/keyvalue/argumentlist.h</text>
</a>
</g>
</g>
<!-- Node23&#45;&gt;Node29 -->
<g id="edge31" class="edge">
<title>Node23&#45;&gt;Node29</title>
<path fill="none" stroke="#63b8ff" d="M818.42,-626.51C775.65,-617.48 709.63,-603.54 663.38,-593.77"/>
<polygon fill="#63b8ff" stroke="#63b8ff" points="664.36,-590.4 653.85,-591.76 662.91,-597.25 664.36,-590.4"/>
</g>
<!-- Node30 -->
<g id="node30" class="node">
<title>Node30</title>
<g id="a_node30"><a xlink:href="bindings_8h.html" target="_top" xlink:title=" ">
<polygon fill="white" stroke="#666666" points="798,-591 738,-591 738,-572 798,-572 798,-591"/>
<text text-anchor="middle" x="768" y="-579" font-family="Helvetica,sans-Serif" font-size="10.00">bindings.h</text>
</a>
</g>
</g>
<!-- Node23&#45;&gt;Node30 -->
<g id="edge33" class="edge">
<title>Node23&#45;&gt;Node30</title>
<path fill="none" stroke="#63b8ff" d="M845.22,-626.51C830.98,-618.39 809.76,-606.3 793.17,-596.85"/>
<polygon fill="#63b8ff" stroke="#63b8ff" points="795.28,-594.02 784.86,-592.11 791.81,-600.1 795.28,-594.02"/>
</g>
<!-- Node25 -->
<g id="node25" class="node">
<title>Node25</title>
<g id="a_node25"><a xlink:href="src_2_generic_2execution_2sender_8h.html" target="_top" xlink:title=" ">
<polygon fill="white" stroke="#666666" points="1020.5,-299.5 967.5,-299.5 967.5,-280.5 1020.5,-280.5 1020.5,-299.5"/>
<text text-anchor="middle" x="994" y="-287.5" font-family="Helvetica,sans-Serif" font-size="10.00">sender.h</text>
</a>
</g>
</g>
<!-- Node24&#45;&gt;Node25 -->
<g id="edge25" class="edge">
<title>Node24&#45;&gt;Node25</title>
<path fill="none" stroke="#63b8ff" d="M963.31,-340.87C968.42,-332.57 976.29,-319.78 982.79,-309.22"/>
<polygon fill="#63b8ff" stroke="#63b8ff" points="985.61,-311.31 987.87,-300.96 979.65,-307.64 985.61,-311.31"/>
</g>
<!-- Node26 -->
<g id="node26" class="node">
<title>Node26</title>
<g id="a_node26"><a xlink:href="virtualstate_8h.html" target="_top" xlink:title=" ">
<polygon fill="white" stroke="#666666" points="949,-299.5 877,-299.5 877,-280.5 949,-280.5 949,-299.5"/>
<text text-anchor="middle" x="913" y="-287.5" font-family="Helvetica,sans-Serif" font-size="10.00">virtualstate.h</text>
</a>
</g>
</g>
<!-- Node24&#45;&gt;Node26 -->
<g id="edge27" class="edge">
<title>Node24&#45;&gt;Node26</title>
<path fill="none" stroke="#63b8ff" d="M951.36,-340.87C944.85,-332.4 934.72,-319.24 926.51,-308.57"/>
<polygon fill="#63b8ff" stroke="#63b8ff" points="929.46,-306.66 920.59,-300.87 923.91,-310.93 929.46,-306.66"/>
</g>
<!-- Node25&#45;&gt;Node21 -->
<g id="edge26" class="edge">
<title>Node25&#45;&gt;Node21</title>
<path fill="none" stroke="#63b8ff" d="M971.63,-280C967.14,-278.28 962.44,-276.54 958,-275 923.47,-263.04 883.79,-251.06 854.51,-242.54"/>
<polygon fill="#63b8ff" stroke="#63b8ff" points="855.87,-239.29 845.29,-239.88 853.92,-246.02 855.87,-239.29"/>
</g>
<!-- Node26&#45;&gt;Node21 -->
<g id="edge28" class="edge">
<title>Node26&#45;&gt;Node21</title>
<path fill="none" stroke="#63b8ff" d="M897.66,-280.12C881.64,-270.84 856.26,-256.13 837.27,-245.14"/>
<polygon fill="#63b8ff" stroke="#63b8ff" points="839.2,-242.21 828.79,-240.23 835.69,-248.27 839.2,-242.21"/>
</g>
<!-- Node27 -->
<g id="node27" class="node">
<title>Node27</title>
<g id="a_node27"><a xlink:href="virtual__invoke_8h.html" target="_top" xlink:title=" ">
<polygon fill="white" stroke="#666666" points="983.5,-239 862.5,-239 862.5,-220 983.5,-220 983.5,-239"/>
<text text-anchor="middle" x="923" y="-227" font-family="Helvetica,sans-Serif" font-size="10.00">Generic/virtual_invoke.h</text>
</a>
</g>
</g>
<!-- Node26&#45;&gt;Node27 -->
<g id="edge29" class="edge">
<title>Node26&#45;&gt;Node27</title>
<path fill="none" stroke="#63b8ff" d="M914.48,-280.37C915.82,-272.5 917.86,-260.6 919.6,-250.39"/>
<polygon fill="#63b8ff" stroke="#63b8ff" points="923.03,-251.11 921.26,-240.66 916.13,-249.93 923.03,-251.11"/>
</g>
<!-- Node28 -->
<g id="node28" class="node">
<title>Node28</title>
<g id="a_node28"><a xlink:href="callable__traits_8h.html" target="_top" xlink:title=" ">
<polygon fill="white" stroke="#666666" points="965,-184 881,-184 881,-165 965,-165 965,-184"/>
<text text-anchor="middle" x="923" y="-172" font-family="Helvetica,sans-Serif" font-size="10.00">callable_traits.h</text>
</a>
</g>
</g>
<!-- Node27&#45;&gt;Node28 -->
<g id="edge30" class="edge">
<title>Node27&#45;&gt;Node28</title>
<path fill="none" stroke="#63b8ff" d="M923,-219.75C923,-213.27 923,-204.16 923,-195.9"/>
<polygon fill="#63b8ff" stroke="#63b8ff" points="926.5,-195.96 923,-185.96 919.5,-195.96 926.5,-195.96"/>
</g>
<!-- Node30&#45;&gt;Node2 -->
<g id="edge36" class="edge">
<title>Node30&#45;&gt;Node2</title>
<path fill="none" stroke="#63b8ff" d="M737.79,-574.11C733.19,-573.3 728.48,-572.56 724,-572 445.7,-537.32 371.08,-579.4 94,-536 89.88,-535.36 85.62,-534.53 81.39,-533.61"/>
<polygon fill="#63b8ff" stroke="#63b8ff" points="82.35,-530.24 71.81,-531.33 80.73,-537.05 82.35,-530.24"/>
</g>
<!-- Node30&#45;&gt;Node13 -->
<g id="edge74" class="edge">
<title>Node30&#45;&gt;Node13</title>
<path fill="none" stroke="#63b8ff" d="M770.91,-571.95C776.19,-557.29 788.45,-526.91 806,-506 815.57,-494.6 828.58,-484.39 839.95,-476.64"/>
<polygon fill="#63b8ff" stroke="#63b8ff" points="841.66,-479.7 848.12,-471.31 837.84,-473.84 841.66,-479.7"/>
</g>
<!-- Node30&#45;&gt;Node21 -->
<g id="edge34" class="edge">
<title>Node30&#45;&gt;Node21</title>
<path fill="none" stroke="#63b8ff" d="M769.86,-571.78C772.84,-557.87 778.85,-529.79 784,-506 789.29,-481.55 788.94,-475 796,-451 810.45,-401.91 834.13,-392 830,-341 827.42,-309.1 820.71,-272.51 816.25,-250.47"/>
<polygon fill="#63b8ff" stroke="#63b8ff" points="819.7,-249.88 814.24,-240.8 812.85,-251.31 819.7,-249.88"/>
</g>
<!-- Node31 -->
<g id="node31" class="node">
<title>Node31</title>
<g id="a_node31"><a xlink:href="fixed__string_8h.html" target="_top" xlink:title=" ">
<polygon fill="white" stroke="#666666" points="925,-530.5 815,-530.5 815,-511.5 925,-511.5 925,-530.5"/>
<text text-anchor="middle" x="870" y="-518.5" font-family="Helvetica,sans-Serif" font-size="10.00">Generic/fixed_string.h</text>
</a>
</g>
</g>
<!-- Node30&#45;&gt;Node31 -->
<g id="edge35" class="edge">
<title>Node30&#45;&gt;Node31</title>
<path fill="none" stroke="#63b8ff" d="M783.49,-571.62C799.67,-562.34 825.3,-547.63 844.48,-536.64"/>
<polygon fill="#63b8ff" stroke="#63b8ff" points="846.12,-539.73 853.05,-531.72 842.63,-533.66 846.12,-539.73"/>
</g>
<!-- Node32 -->
<g id="node32" class="node">
<title>Node32</title>
<g id="a_node32"><a xlink:href="valuetype__desc_8h.html" target="_top" xlink:title=" ">
<polygon fill="white" stroke="#666666" points="295,-305 171,-305 171,-275 295,-275 295,-305"/>
<text text-anchor="start" x="179" y="-293" font-family="Helvetica,sans-Serif" font-size="10.00">Meta/keyvalue/valuetype</text>
<text text-anchor="middle" x="233" y="-282" font-family="Helvetica,sans-Serif" font-size="10.00">_desc.h</text>
</a>
</g>
</g>
<!-- Node30&#45;&gt;Node32 -->
<g id="edge37" class="edge">
<title>Node30&#45;&gt;Node32</title>
<path fill="none" stroke="#63b8ff" d="M737.72,-574.58C733.12,-573.7 728.44,-572.82 724,-572 594.87,-548.21 226.45,-570.54 142,-470 100.31,-420.37 167.19,-348.4 206.91,-312.73"/>
<polygon fill="#63b8ff" stroke="#63b8ff" points="209.06,-315.51 214.27,-306.28 204.44,-310.25 209.06,-315.51"/>
</g>
<!-- Node39 -->
<g id="node39" class="node">
<title>Node39</title>
<g id="a_node39"><a xlink:href="valuetype__forward_8h.html" target="_top" xlink:title=" ">
<polygon fill="white" stroke="#666666" points="656,-536 532,-536 532,-506 656,-506 656,-536"/>
<text text-anchor="start" x="540" y="-524" font-family="Helvetica,sans-Serif" font-size="10.00">Meta/keyvalue/valuetype</text>
<text text-anchor="middle" x="594" y="-513" font-family="Helvetica,sans-Serif" font-size="10.00">_forward.h</text>
</a>
</g>
</g>
<!-- Node30&#45;&gt;Node39 -->
<g id="edge48" class="edge">
<title>Node30&#45;&gt;Node39</title>
<path fill="none" stroke="#63b8ff" d="M741.57,-571.62C716.74,-563.27 678.84,-550.52 647.66,-540.04"/>
<polygon fill="#63b8ff" stroke="#63b8ff" points="648.98,-536.79 638.38,-536.92 646.75,-543.43 648.98,-536.79"/>
</g>
<!-- Node32&#45;&gt;Node5 -->
<g id="edge41" class="edge">
<title>Node32&#45;&gt;Node5</title>
<path fill="none" stroke="#63b8ff" d="M227.09,-274.56C214.15,-240.34 187.89,-153.88 233,-110 252.6,-90.94 324.67,-77.79 372.3,-70.97"/>
<polygon fill="#63b8ff" stroke="#63b8ff" points="372.62,-74.46 382.04,-69.62 371.66,-67.52 372.62,-74.46"/>
</g>
<!-- Node32&#45;&gt;Node21 -->
<g id="edge46" class="edge">
<title>Node32&#45;&gt;Node21</title>
<path fill="none" stroke="#63b8ff" d="M295.37,-277.56C301.32,-276.63 307.27,-275.76 313,-275 480.77,-252.88 681.75,-238.68 768.56,-233.14"/>
<polygon fill="#63b8ff" stroke="#63b8ff" points="768.52,-236.65 778.28,-232.52 768.08,-229.66 768.52,-236.65"/>
</g>
<!-- Node33 -->
<g id="node33" class="node">
<title>Node33</title>
<g id="a_node33"><a xlink:href="valuetype__types_8h.html" target="_top" xlink:title=" ">
<polygon fill="white" stroke="#666666" points="356,-239 262,-239 262,-220 356,-220 356,-239"/>
<text text-anchor="middle" x="309" y="-227" font-family="Helvetica,sans-Serif" font-size="10.00">valuetype_types.h</text>
</a>
</g>
</g>
<!-- Node32&#45;&gt;Node33 -->
<g id="edge38" class="edge">
<title>Node32&#45;&gt;Node33</title>
<path fill="none" stroke="#63b8ff" d="M251.79,-274.54C263.05,-265.87 277.37,-254.85 288.87,-246"/>
<polygon fill="#63b8ff" stroke="#63b8ff" points="290.74,-248.97 296.53,-240.1 286.47,-243.42 290.74,-248.97"/>
</g>
<!-- Node34 -->
<g id="node34" class="node">
<title>Node34</title>
<g id="a_node34"><a xlink:href="valuetypedefinclude_8h.html" target="_top" xlink:title=" ">
<polygon fill="white" stroke="#666666" points="336.5,-184 227.5,-184 227.5,-165 336.5,-165 336.5,-184"/>
<text text-anchor="middle" x="282" y="-172" font-family="Helvetica,sans-Serif" font-size="10.00">valuetypedefinclude.h</text>
</a>
</g>
</g>
<!-- Node32&#45;&gt;Node34 -->
<g id="edge47" class="edge">
<title>Node32&#45;&gt;Node34</title>
<path fill="none" stroke="#63b8ff" d="M235.88,-274.55C239.02,-260.28 244.74,-238.03 253,-220 257.22,-210.79 263.16,-201.29 268.57,-193.45"/>
<polygon fill="#63b8ff" stroke="#63b8ff" points="271.3,-195.64 274.29,-185.48 265.61,-191.56 271.3,-195.64"/>
</g>
<!-- Node36 -->
<g id="node36" class="node">
<title>Node36</title>
<g id="a_node36"><a xlink:href="keyvalue_8h.html" target="_top" xlink:title=" ">
<polygon fill="white" stroke="#666666" points="167.5,-239 68.5,-239 68.5,-220 167.5,-220 167.5,-239"/>
<text text-anchor="middle" x="118" y="-227" font-family="Helvetica,sans-Serif" font-size="10.00">Generic/keyvalue.h</text>
</a>
</g>
</g>
<!-- Node32&#45;&gt;Node36 -->
<g id="edge42" class="edge">
<title>Node32&#45;&gt;Node36</title>
<path fill="none" stroke="#63b8ff" d="M204.57,-274.54C186.53,-265.36 163.31,-253.55 145.46,-244.47"/>
<polygon fill="#63b8ff" stroke="#63b8ff" points="147.24,-241.45 136.74,-240.03 144.07,-247.69 147.24,-241.45"/>
</g>
<!-- Node38 -->
<g id="node38" class="node">
<title>Node38</title>
<g id="a_node38"><a xlink:href="table__forward_8h.html" target="_top" xlink:title=" ">
<polygon fill="white" stroke="#666666" points="457.5,-239 374.5,-239 374.5,-220 457.5,-220 457.5,-239"/>
<text text-anchor="middle" x="416" y="-227" font-family="Helvetica,sans-Serif" font-size="10.00">table_forward.h</text>
</a>
</g>
</g>
<!-- Node32&#45;&gt;Node38 -->
<g id="edge44" class="edge">
<title>Node32&#45;&gt;Node38</title>
<path fill="none" stroke="#63b8ff" d="M278.24,-274.54C308.6,-264.83 348.2,-252.17 377.14,-242.92"/>
<polygon fill="#63b8ff" stroke="#63b8ff" points="378.16,-246.27 386.62,-239.89 376.03,-239.6 378.16,-246.27"/>
</g>
<!-- Node33&#45;&gt;Node34 -->
<g id="edge39" class="edge">
<title>Node33&#45;&gt;Node34</title>
<path fill="none" stroke="#63b8ff" d="M304.54,-219.75C301.05,-212.88 296.05,-203.08 291.65,-194.45"/>
<polygon fill="#63b8ff" stroke="#63b8ff" points="294.9,-193.11 287.24,-185.79 288.66,-196.29 294.9,-193.11"/>
</g>
<!-- Node35 -->
<g id="node35" class="node">
<title>Node35</title>
<g id="a_node35"><a xlink:href="valuetypedef_8h.html" target="_top" xlink:title=" ">
<polygon fill="white" stroke="#666666" points="321.5,-129 242.5,-129 242.5,-110 321.5,-110 321.5,-129"/>
<text text-anchor="middle" x="282" y="-117" font-family="Helvetica,sans-Serif" font-size="10.00">valuetypedef.h</text>
</a>
</g>
</g>
<!-- Node34&#45;&gt;Node35 -->
<g id="edge40" class="edge">
<title>Node34&#45;&gt;Node35</title>
<path fill="none" stroke="#63b8ff" d="M282,-164.75C282,-158.27 282,-149.16 282,-140.9"/>
<polygon fill="#63b8ff" stroke="#63b8ff" points="285.5,-140.96 282,-130.96 278.5,-140.96 285.5,-140.96"/>
</g>
<!-- Node37 -->
<g id="node37" class="node">
<title>Node37</title>
<g id="a_node37"><a xlink:href="comparator__traits_8h.html" target="_top" xlink:title=" ">
<polygon fill="white" stroke="#666666" points="168,-184 68,-184 68,-165 168,-165 168,-184"/>
<text text-anchor="middle" x="118" y="-172" font-family="Helvetica,sans-Serif" font-size="10.00">comparator_traits.h</text>
</a>
</g>
</g>
<!-- Node36&#45;&gt;Node37 -->
<g id="edge43" class="edge">
<title>Node36&#45;&gt;Node37</title>
<path fill="none" stroke="#63b8ff" d="M118,-219.75C118,-213.27 118,-204.16 118,-195.9"/>
<polygon fill="#63b8ff" stroke="#63b8ff" points="121.5,-195.96 118,-185.96 114.5,-195.96 121.5,-195.96"/>
</g>
<!-- Node38&#45;&gt;Node3 -->
<g id="edge45" class="edge">
<title>Node38&#45;&gt;Node3</title>
<path fill="none" stroke="#63b8ff" d="M416,-219.75C416,-213.27 416,-204.16 416,-195.9"/>
<polygon fill="#63b8ff" stroke="#63b8ff" points="419.5,-195.96 416,-185.96 412.5,-195.96 419.5,-195.96"/>
</g>
<!-- Node39&#45;&gt;Node21 -->
<g id="edge73" class="edge">
<title>Node39&#45;&gt;Node21</title>
<path fill="none" stroke="#63b8ff" d="M628.86,-505.58C645.34,-497.26 664.18,-485.38 677,-470 696.32,-446.83 701,-436.67 701,-406.5 701,-406.5 701,-406.5 701,-349.5 701,-301.06 750.78,-264.13 783.67,-245.02"/>
<polygon fill="#63b8ff" stroke="#63b8ff" points="785.32,-248.11 792.35,-240.18 781.91,-241.99 785.32,-248.11"/>
</g>
<!-- Node39&#45;&gt;Node32 -->
<g id="edge69" class="edge">
<title>Node39&#45;&gt;Node32</title>
<path fill="none" stroke="#63b8ff" d="M531.57,-517.08C439.63,-511.86 273.07,-498.7 221,-470 187.09,-451.31 168.9,-434.24 175,-396 179.05,-370.6 180.77,-363.63 193,-341 198.15,-331.48 205.16,-321.97 211.88,-313.84"/>
<polygon fill="#63b8ff" stroke="#63b8ff" points="214.36,-316.32 218.24,-306.46 209.06,-311.75 214.36,-316.32"/>
</g>
<!-- Node39&#45;&gt;Node36 -->
<g id="edge68" class="edge">
<title>Node39&#45;&gt;Node36</title>
<path fill="none" stroke="#63b8ff" d="M531.59,-516.85C433.6,-511.14 248.67,-497.1 189,-470 150.45,-452.5 118,-448.83 118,-406.5 118,-406.5 118,-406.5 118,-349.5 118,-314.81 118,-274.43 118,-250.75"/>
<polygon fill="#63b8ff" stroke="#63b8ff" points="121.5,-250.97 118,-240.97 114.5,-250.97 121.5,-250.97"/>
</g>
<!-- Node40 -->
<g id="node40" class="node">
<title>Node40</title>
<g id="a_node40"><a xlink:href="ownedscopeptr_8h.html" target="_top" xlink:title=" ">
<polygon fill="white" stroke="#666666" points="320,-470 230,-470 230,-451 320,-451 320,-470"/>
<text text-anchor="middle" x="275" y="-458" font-family="Helvetica,sans-Serif" font-size="10.00">ownedscopeptr.h</text>
</a>
</g>
</g>
<!-- Node39&#45;&gt;Node40 -->
<g id="edge49" class="edge">
<title>Node39&#45;&gt;Node40</title>
<path fill="none" stroke="#63b8ff" d="M531.74,-508.58C473.55,-497.91 387.45,-482.12 331.29,-471.82"/>
<polygon fill="#63b8ff" stroke="#63b8ff" points="332.08,-468.41 321.61,-470.05 330.82,-475.29 332.08,-468.41"/>
</g>
<!-- Node44 -->
<g id="node44" class="node">
<title>Node44</title>
<g id="a_node44"><a xlink:href="keyvaluesender_8h.html" target="_top" xlink:title=" ">
<polygon fill="white" stroke="#666666" points="821,-360 729,-360 729,-341 821,-341 821,-360"/>
<text text-anchor="middle" x="775" y="-348" font-family="Helvetica,sans-Serif" font-size="10.00">keyvaluesender.h</text>
</a>
</g>
</g>
<!-- Node39&#45;&gt;Node44 -->
<g id="edge55" class="edge">
<title>Node39&#45;&gt;Node44</title>
<path fill="none" stroke="#63b8ff" d="M651.43,-505.59C673.31,-497.86 697.24,-486.45 715,-470 744.66,-442.53 761.84,-397.11 769.72,-371.21"/>
<polygon fill="#63b8ff" stroke="#63b8ff" points="773.06,-372.26 772.44,-361.68 766.33,-370.34 773.06,-372.26"/>
</g>
<!-- Node45 -->
<g id="node45" class="node">
<title>Node45</title>
<g id="a_node45"><a xlink:href="virtualrange_8h.html" target="_top" xlink:title=" ">
<polygon fill="white" stroke="#666666" points="535,-470 381,-470 381,-451 535,-451 535,-470"/>
<text text-anchor="middle" x="458" y="-458" font-family="Helvetica,sans-Serif" font-size="10.00">Generic/container/virtualrange.h</text>
</a>
</g>
</g>
<!-- Node39&#45;&gt;Node45 -->
<g id="edge60" class="edge">
<title>Node39&#45;&gt;Node45</title>
<path fill="none" stroke="#63b8ff" d="M560.38,-505.54C538.55,-496.15 510.29,-483.99 489,-474.83"/>
<polygon fill="#63b8ff" stroke="#63b8ff" points="490.53,-471.68 479.96,-470.94 487.76,-478.11 490.53,-471.68"/>
</g>
<!-- Node53 -->
<g id="node53" class="node">
<title>Node53</title>
<g id="a_node53"><a xlink:href="enumholder_8h.html" target="_top" xlink:title=" ">
<polygon fill="white" stroke="#666666" points="635,-470 553,-470 553,-451 635,-451 635,-470"/>
<text text-anchor="middle" x="594" y="-458" font-family="Helvetica,sans-Serif" font-size="10.00">../enumholder.h</text>
</a>
</g>
</g>
<!-- Node39&#45;&gt;Node53 -->
<g id="edge70" class="edge">
<title>Node39&#45;&gt;Node53</title>
<path fill="none" stroke="#63b8ff" d="M594,-505.54C594,-498.34 594,-489.53 594,-481.68"/>
<polygon fill="#63b8ff" stroke="#63b8ff" points="597.5,-481.69 594,-471.69 590.5,-481.69 597.5,-481.69"/>
</g>
<!-- Node54 -->
<g id="node54" class="node">
<title>Node54</title>
<g id="a_node54"><a xlink:href="flagsholder_8h.html" target="_top" xlink:title=" ">
<polygon fill="white" stroke="#666666" points="619,-129 541,-129 541,-110 619,-110 619,-129"/>
<text text-anchor="middle" x="580" y="-117" font-family="Helvetica,sans-Serif" font-size="10.00">../flagsholder.h</text>
</a>
</g>
</g>
<!-- Node39&#45;&gt;Node54 -->
<g id="edge71" class="edge">
<title>Node39&#45;&gt;Node54</title>
<path fill="none" stroke="#63b8ff" d="M612.47,-505.55C623.06,-496.38 635.82,-483.7 644,-470 659.1,-444.7 663,-435.96 663,-406.5 663,-406.5 663,-406.5 663,-228.5 663,-188.84 627.37,-154.78 602.8,-136.02"/>
<polygon fill="#63b8ff" stroke="#63b8ff" points="605.07,-133.34 594.93,-130.27 600.94,-138.99 605.07,-133.34"/>
</g>
<!-- Node41 -->
<g id="node41" class="node">
<title>Node41</title>
<g id="a_node41"><a xlink:href="proxyscopebase_8h.html" target="_top" xlink:title=" ">
<polygon fill="white" stroke="#666666" points="278,-415 184,-415 184,-396 278,-396 278,-415"/>
<text text-anchor="middle" x="231" y="-403" font-family="Helvetica,sans-Serif" font-size="10.00">proxyscopebase.h</text>
</a>
</g>
</g>
<!-- Node40&#45;&gt;Node41 -->
<g id="edge50" class="edge">
<title>Node40&#45;&gt;Node41</title>
<path fill="none" stroke="#63b8ff" d="M267.73,-450.75C261.72,-443.5 252.99,-432.98 245.54,-424.02"/>
<polygon fill="#63b8ff" stroke="#63b8ff" points="248.47,-422.07 239.39,-416.61 243.08,-426.54 248.47,-422.07"/>
</g>
<!-- Node42 -->
<g id="node42" class="node">
<title>Node42</title>
<g id="a_node42"><a xlink:href="scopeptr_8h.html" target="_top" xlink:title=" ">
<polygon fill="white" stroke="#666666" points="264,-360 202,-360 202,-341 264,-341 264,-360"/>
<text text-anchor="middle" x="233" y="-348" font-family="Helvetica,sans-Serif" font-size="10.00">scopeptr.h</text>
</a>
</g>
</g>
<!-- Node41&#45;&gt;Node42 -->
<g id="edge51" class="edge">
<title>Node41&#45;&gt;Node42</title>
<path fill="none" stroke="#63b8ff" d="M231.33,-395.75C231.57,-389.27 231.92,-380.16 232.23,-371.9"/>
<polygon fill="#63b8ff" stroke="#63b8ff" points="235.73,-372.08 232.61,-361.95 228.73,-371.82 235.73,-372.08"/>
</g>
<!-- Node42&#45;&gt;Node32 -->
<g id="edge54" class="edge">
<title>Node42&#45;&gt;Node32</title>
<path fill="none" stroke="#63b8ff" d="M233,-340.87C233,-334.4 233,-325.2 233,-316.45"/>
<polygon fill="#63b8ff" stroke="#63b8ff" points="236.5,-316.63 233,-306.63 229.5,-316.63 236.5,-316.63"/>
</g>
<!-- Node43 -->
<g id="node43" class="node">
<title>Node43</title>
<g id="a_node43"><a xlink:href="metatable_8h.html" target="_top" xlink:title=" ">
<polygon fill="white" stroke="#666666" points="389.5,-299.5 322.5,-299.5 322.5,-280.5 389.5,-280.5 389.5,-299.5"/>
<text text-anchor="middle" x="356" y="-287.5" font-family="Helvetica,sans-Serif" font-size="10.00">metatable.h</text>
</a>
</g>
</g>
<!-- Node42&#45;&gt;Node43 -->
<g id="edge52" class="edge">
<title>Node42&#45;&gt;Node43</title>
<path fill="none" stroke="#63b8ff" d="M251.68,-340.62C271.64,-331.12 303.54,-315.95 326.82,-304.88"/>
<polygon fill="#63b8ff" stroke="#63b8ff" points="328.25,-308.07 335.78,-300.62 325.24,-301.75 328.25,-308.07"/>
</g>
<!-- Node43&#45;&gt;Node38 -->
<g id="edge53" class="edge">
<title>Node43&#45;&gt;Node38</title>
<path fill="none" stroke="#63b8ff" d="M365.11,-280.12C374.01,-271.44 387.78,-258.02 398.75,-247.32"/>
<polygon fill="#63b8ff" stroke="#63b8ff" points="401,-250.01 405.72,-240.53 396.11,-245 401,-250.01"/>
</g>
<!-- Node44&#45;&gt;Node3 -->
<g id="edge59" class="edge">
<title>Node44&#45;&gt;Node3</title>
<path fill="none" stroke="#63b8ff" d="M759.34,-340.66C733.79,-326.34 681.42,-297.41 636,-275 569.6,-242.24 490.1,-207.32 447.19,-188.82"/>
<polygon fill="#63b8ff" stroke="#63b8ff" points="448.8,-185.7 438.23,-184.97 446.04,-192.13 448.8,-185.7"/>
</g>
<!-- Node44&#45;&gt;Node9 -->
<g id="edge56" class="edge">
<title>Node44&#45;&gt;Node9</title>
<path fill="none" stroke="#63b8ff" d="M821.39,-341.61C881.76,-331.34 987.52,-313.36 1055.35,-301.82"/>
<polygon fill="#63b8ff" stroke="#63b8ff" points="1055.55,-305.34 1064.82,-300.21 1054.38,-298.44 1055.55,-305.34"/>
</g>
<!-- Node44&#45;&gt;Node21 -->
<g id="edge57" class="edge">
<title>Node44&#45;&gt;Node21</title>
<path fill="none" stroke="#63b8ff" d="M777.78,-340.56C783.73,-321.42 797.81,-276.15 805.93,-250.02"/>
<polygon fill="#63b8ff" stroke="#63b8ff" points="809.21,-251.26 808.84,-240.67 802.53,-249.18 809.21,-251.26"/>
</g>
<!-- Node44&#45;&gt;Node26 -->
<g id="edge58" class="edge">
<title>Node44&#45;&gt;Node26</title>
<path fill="none" stroke="#63b8ff" d="M795.96,-340.62C818.65,-330.99 855.12,-315.54 881.31,-304.43"/>
<polygon fill="#63b8ff" stroke="#63b8ff" points="882.61,-307.68 890.45,-300.56 879.88,-301.24 882.61,-307.68"/>
</g>
<!-- Node46 -->
<g id="node46" class="node">
<title>Node46</title>
<g id="a_node46"><a xlink:href="proxy_8h.html" target="_top" xlink:title=" ">
<polygon fill="white" stroke="#666666" points="448,-415 394,-415 394,-396 448,-396 448,-415"/>
<text text-anchor="middle" x="421" y="-403" font-family="Helvetica,sans-Serif" font-size="10.00">../proxy.h</text>
</a>
</g>
</g>
<!-- Node45&#45;&gt;Node46 -->
<g id="edge61" class="edge">
<title>Node45&#45;&gt;Node46</title>
<path fill="none" stroke="#63b8ff" d="M451.89,-450.75C446.99,-443.73 439.95,-433.64 433.83,-424.87"/>
<polygon fill="#63b8ff" stroke="#63b8ff" points="436.7,-422.88 428.11,-416.68 430.96,-426.89 436.7,-422.88"/>
</g>
<!-- Node47 -->
<g id="node47" class="node">
<title>Node47</title>
<g id="a_node47"><a xlink:href="defaultassign_8h.html" target="_top" xlink:title=" ">
<polygon fill="white" stroke="#666666" points="634.5,-415 545.5,-415 545.5,-396 634.5,-396 634.5,-415"/>
<text text-anchor="middle" x="590" y="-403" font-family="Helvetica,sans-Serif" font-size="10.00">../defaultassign.h</text>
</a>
</g>
</g>
<!-- Node45&#45;&gt;Node47 -->
<g id="edge62" class="edge">
<title>Node45&#45;&gt;Node47</title>
<path fill="none" stroke="#63b8ff" d="M480.39,-450.51C501.57,-442.01 533.59,-429.15 557.56,-419.53"/>
<polygon fill="#63b8ff" stroke="#63b8ff" points="558.56,-422.9 566.53,-415.92 555.95,-416.4 558.56,-422.9"/>
</g>
<!-- Node48 -->
<g id="node48" class="node">
<title>Node48</title>
<g id="a_node48"><a xlink:href="heapobject_8h.html" target="_top" xlink:title=" ">
<polygon fill="white" stroke="#666666" points="375.5,-415 296.5,-415 296.5,-396 375.5,-396 375.5,-415"/>
<text text-anchor="middle" x="336" y="-403" font-family="Helvetica,sans-Serif" font-size="10.00">../heapobject.h</text>
</a>
</g>
</g>
<!-- Node45&#45;&gt;Node48 -->
<g id="edge63" class="edge">
<title>Node45&#45;&gt;Node48</title>
<path fill="none" stroke="#63b8ff" d="M437.3,-450.51C418,-442.12 388.94,-429.5 366.89,-419.92"/>
<polygon fill="#63b8ff" stroke="#63b8ff" points="368.34,-416.74 357.78,-415.96 365.56,-423.16 368.34,-416.74"/>
</g>
<!-- Node49 -->
<g id="node49" class="node">
<title>Node49</title>
<g id="a_node49"><a xlink:href="emplace_8h.html" target="_top" xlink:title=" ">
<polygon fill="white" stroke="#666666" points="527.5,-415 466.5,-415 466.5,-396 527.5,-396 527.5,-415"/>
<text text-anchor="middle" x="497" y="-403" font-family="Helvetica,sans-Serif" font-size="10.00">emplace.h</text>
</a>
</g>
</g>
<!-- Node45&#45;&gt;Node49 -->
<g id="edge64" class="edge">
<title>Node45&#45;&gt;Node49</title>
<path fill="none" stroke="#63b8ff" d="M464.44,-450.75C469.66,-443.66 477.19,-433.42 483.69,-424.59"/>
<polygon fill="#63b8ff" stroke="#63b8ff" points="486.42,-426.79 489.52,-416.66 480.78,-422.64 486.42,-426.79"/>
</g>
<!-- Node50 -->
<g id="node50" class="node">
<title>Node50</title>
<g id="a_node50"><a xlink:href="container__traits_8h.html" target="_top" xlink:title=" ">
<polygon fill="white" stroke="#666666" points="542.5,-360 451.5,-360 451.5,-341 542.5,-341 542.5,-360"/>
<text text-anchor="middle" x="497" y="-348" font-family="Helvetica,sans-Serif" font-size="10.00">container_traits.h</text>
</a>
</g>
</g>
<!-- Node49&#45;&gt;Node50 -->
<g id="edge65" class="edge">
<title>Node49&#45;&gt;Node50</title>
<path fill="none" stroke="#63b8ff" d="M497,-395.75C497,-389.27 497,-380.16 497,-371.9"/>
<polygon fill="#63b8ff" stroke="#63b8ff" points="500.5,-371.96 497,-361.96 493.5,-371.96 500.5,-371.96"/>
</g>
<!-- Node51 -->
<g id="node51" class="node">
<title>Node51</title>
<g id="a_node51"><a xlink:href="indextype_8h.html" target="_top" xlink:title=" ">
<polygon fill="white" stroke="#666666" points="627,-299.5 555,-299.5 555,-280.5 627,-280.5 627,-299.5"/>
<text text-anchor="middle" x="591" y="-287.5" font-family="Helvetica,sans-Serif" font-size="10.00">../indextype.h</text>
</a>
</g>
</g>
<!-- Node50&#45;&gt;Node51 -->
<g id="edge66" class="edge">
<title>Node50&#45;&gt;Node51</title>
<path fill="none" stroke="#63b8ff" d="M511.28,-340.62C526.05,-331.42 549.37,-316.91 566.99,-305.94"/>
<polygon fill="#63b8ff" stroke="#63b8ff" points="568.66,-309.02 575.3,-300.77 564.96,-303.08 568.66,-309.02"/>
</g>
<!-- Node52 -->
<g id="node52" class="node">
<title>Node52</title>
<g id="a_node52"><a xlink:href="underlying__container_8h.html" target="_top" xlink:title=" ">
<polygon fill="white" stroke="#666666" points="536.5,-299.5 423.5,-299.5 423.5,-280.5 536.5,-280.5 536.5,-299.5"/>
<text text-anchor="middle" x="480" y="-287.5" font-family="Helvetica,sans-Serif" font-size="10.00">underlying_container.h</text>
</a>
</g>
</g>
<!-- Node50&#45;&gt;Node52 -->
<g id="edge67" class="edge">
<title>Node50&#45;&gt;Node52</title>
<path fill="none" stroke="#63b8ff" d="M494.49,-340.87C492.18,-332.92 488.67,-320.83 485.68,-310.55"/>
<polygon fill="#63b8ff" stroke="#63b8ff" points="489.09,-309.75 482.94,-301.12 482.37,-311.7 489.09,-309.75"/>
</g>
<!-- Node54&#45;&gt;Node5 -->
<g id="edge72" class="edge">
<title>Node54&#45;&gt;Node5</title>
<path fill="none" stroke="#63b8ff" d="M552.18,-109.51C525.36,-100.84 484.54,-87.65 454.58,-77.97"/>
<polygon fill="#63b8ff" stroke="#63b8ff" points="455.71,-74.66 445.12,-74.91 453.56,-81.32 455.71,-74.66"/>
</g>
</g>
</svg>
