<?xml version="1.0" encoding="UTF-8" standalone="no"?>
<!DOCTYPE svg PUBLIC "-//W3C//DTD SVG 1.1//EN"
 "http://www.w3.org/Graphics/SVG/1.1/DTD/svg11.dtd">
<!-- Generated by graphviz version 7.0.5 (20221223.1930)
 -->
<!-- Title: plugins/behavior/api/src/Madgine/bindings.h Pages: 1 -->
<svg width="1172pt" height="610pt"
 viewBox="0.00 0.00 1171.50 610.00" xmlns="http://www.w3.org/2000/svg" xmlns:xlink="http://www.w3.org/1999/xlink">
<g id="graph0" class="graph" transform="scale(1 1) rotate(0) translate(4 606)">
<title>plugins/behavior/api/src/Madgine/bindings.h</title>
<!-- Node1 -->
<g id="node1" class="node">
<title>Node1</title>
<g id="a_node1"><a xlink:title=" ">
<polygon fill="#999999" stroke="#666666" points="826.5,-602 707.5,-602 707.5,-572 826.5,-572 826.5,-602"/>
<text text-anchor="start" x="715.5" y="-590" font-family="Helvetica,sans-Serif" font-size="10.00">plugins/behavior/api</text>
<text text-anchor="middle" x="767" y="-579" font-family="Helvetica,sans-Serif" font-size="10.00">/src/Madgine/bindings.h</text>
</a>
</g>
</g>
<!-- Node2 -->
<g id="node2" class="node">
<title>Node2</title>
<g id="a_node2"><a xlink:href="execution_2concepts_8h.html" target="_top" xlink:title=" ">
<polygon fill="white" stroke="#666666" points="750.5,-239 605.5,-239 605.5,-220 750.5,-220 750.5,-239"/>
<text text-anchor="middle" x="678" y="-227" font-family="Helvetica,sans-Serif" font-size="10.00">Generic/execution/concepts.h</text>
</a>
</g>
</g>
<!-- Node1&#45;&gt;Node2 -->
<g id="edge1" class="edge">
<title>Node1&#45;&gt;Node2</title>
<path fill="none" stroke="#63b8ff" d="M796.91,-571.67C832.74,-552.17 888,-513.64 888,-461.5 888,-461.5 888,-461.5 888,-349.5 888,-315.33 893.41,-298.91 869,-275 853.42,-259.74 805.61,-248.61 761.72,-241.3"/>
<polygon fill="#63b8ff" stroke="#63b8ff" points="762.3,-237.85 751.87,-239.71 761.19,-244.76 762.3,-237.85"/>
</g>
<!-- Node3 -->
<g id="node3" class="node">
<title>Node3</title>
<g id="a_node3"><a xlink:href="fixed__string_8h.html" target="_top" xlink:title=" ">
<polygon fill="white" stroke="#666666" points="1026,-530.5 916,-530.5 916,-511.5 1026,-511.5 1026,-530.5"/>
<text text-anchor="middle" x="971" y="-518.5" font-family="Helvetica,sans-Serif" font-size="10.00">Generic/fixed_string.h</text>
</a>
</g>
</g>
<!-- Node1&#45;&gt;Node3 -->
<g id="edge2" class="edge">
<title>Node1&#45;&gt;Node3</title>
<path fill="none" stroke="#63b8ff" d="M813.04,-571.56C848.72,-560.36 897.64,-545.01 931.55,-534.38"/>
<polygon fill="#63b8ff" stroke="#63b8ff" points="932.49,-537.75 940.99,-531.42 930.4,-531.07 932.49,-537.75"/>
</g>
<!-- Node4 -->
<g id="node4" class="node">
<title>Node4</title>
<g id="a_node4"><a xlink:href="behaviorerror_8h.html" target="_top" xlink:title=" ">
<polygon fill="white" stroke="#666666" points="80,-360 0,-360 0,-341 80,-341 80,-360"/>
<text text-anchor="middle" x="40" y="-348" font-family="Helvetica,sans-Serif" font-size="10.00">behaviorerror.h</text>
</a>
</g>
</g>
<!-- Node1&#45;&gt;Node4 -->
<g id="edge3" class="edge">
<title>Node1&#45;&gt;Node4</title>
<path fill="none" stroke="#63b8ff" d="M707.22,-583.61C567.39,-577.65 227.31,-560.76 182,-536 112.24,-497.89 65.86,-409.45 48.11,-370.5"/>
<polygon fill="#63b8ff" stroke="#63b8ff" points="51.37,-369.23 44.13,-361.5 44.97,-372.06 51.37,-369.23"/>
</g>
<!-- Node9 -->
<g id="node9" class="node">
<title>Node9</title>
<g id="a_node9"><a xlink:href="valuetype__desc_8h.html" target="_top" xlink:title=" ">
<polygon fill="white" stroke="#666666" points="352,-305 228,-305 228,-275 352,-275 352,-305"/>
<text text-anchor="start" x="236" y="-293" font-family="Helvetica,sans-Serif" font-size="10.00">Meta/keyvalue/valuetype</text>
<text text-anchor="middle" x="290" y="-282" font-family="Helvetica,sans-Serif" font-size="10.00">_desc.h</text>
</a>
</g>
</g>
<!-- Node1&#45;&gt;Node9 -->
<g id="edge8" class="edge">
<title>Node1&#45;&gt;Node9</title>
<path fill="none" stroke="#63b8ff" d="M707.11,-581.61C584.01,-571.21 309.34,-540.47 253,-470 234.17,-446.45 263.68,-359.24 280.14,-315.85"/>
<polygon fill="#63b8ff" stroke="#63b8ff" points="283.32,-317.35 283.65,-306.76 276.79,-314.82 283.32,-317.35"/>
</g>
<!-- Node16 -->
<g id="node16" class="node">
<title>Node16</title>
<g id="a_node16"><a xlink:href="valuetype__forward_8h.html" target="_top" xlink:title=" ">
<polygon fill="white" stroke="#666666" points="714,-536 590,-536 590,-506 714,-506 714,-536"/>
<text text-anchor="start" x="598" y="-524" font-family="Helvetica,sans-Serif" font-size="10.00">Meta/keyvalue/valuetype</text>
<text text-anchor="middle" x="652" y="-513" font-family="Helvetica,sans-Serif" font-size="10.00">_forward.h</text>
</a>
</g>
</g>
<!-- Node1&#45;&gt;Node16 -->
<g id="edge19" class="edge">
<title>Node1&#45;&gt;Node16</title>
<path fill="none" stroke="#63b8ff" d="M741.19,-571.64C725.36,-562.83 704.87,-551.42 687.52,-541.77"/>
<polygon fill="#63b8ff" stroke="#63b8ff" points="689.48,-538.86 679.04,-537.05 686.08,-544.97 689.48,-538.86"/>
</g>
<!-- Node37 -->
<g id="node37" class="node">
<title>Node37</title>
<g id="a_node37"><a xlink:href="callable__view_8h.html" target="_top" xlink:title=" ">
<polygon fill="white" stroke="#666666" points="1163.5,-530.5 1044.5,-530.5 1044.5,-511.5 1163.5,-511.5 1163.5,-530.5"/>
<text text-anchor="middle" x="1104" y="-518.5" font-family="Helvetica,sans-Serif" font-size="10.00">Generic/callable_view.h</text>
</a>
</g>
</g>
<!-- Node1&#45;&gt;Node37 -->
<g id="edge49" class="edge">
<title>Node1&#45;&gt;Node37</title>
<path fill="none" stroke="#63b8ff" d="M826.92,-575.1C881.27,-565.15 963.57,-549.91 1035,-536 1039.59,-535.11 1044.35,-534.17 1049.12,-533.22"/>
<polygon fill="#63b8ff" stroke="#63b8ff" points="1049.62,-536.69 1058.73,-531.29 1048.24,-529.82 1049.62,-536.69"/>
</g>
<!-- Node5 -->
<g id="node5" class="node">
<title>Node5</title>
<g id="a_node5"><a xlink:href="genericresult_8h.html" target="_top" xlink:title=" ">
<polygon fill="white" stroke="#666666" points="328,-184 212,-184 212,-165 328,-165 328,-184"/>
<text text-anchor="middle" x="270" y="-172" font-family="Helvetica,sans-Serif" font-size="10.00">Generic/genericresult.h</text>
</a>
</g>
</g>
<!-- Node4&#45;&gt;Node5 -->
<g id="edge4" class="edge">
<title>Node4&#45;&gt;Node5</title>
<path fill="none" stroke="#63b8ff" d="M39.46,-340.76C38.53,-317.47 39.41,-253.45 74,-220 92.03,-202.56 151.65,-190.67 200.44,-183.6"/>
<polygon fill="#63b8ff" stroke="#63b8ff" points="200.71,-187.1 210.13,-182.25 199.74,-180.17 200.71,-187.1"/>
</g>
<!-- Node6 -->
<g id="node6" class="node">
<title>Node6</title>
<g id="a_node6"><a xlink:href="enum_8h.html" target="_top" xlink:title=" ">
<polygon fill="white" stroke="#666666" points="311,-129 263,-129 263,-110 311,-110 311,-129"/>
<text text-anchor="middle" x="287" y="-117" font-family="Helvetica,sans-Serif" font-size="10.00">enum.h</text>
</a>
</g>
</g>
<!-- Node5&#45;&gt;Node6 -->
<g id="edge5" class="edge">
<title>Node5&#45;&gt;Node6</title>
<path fill="none" stroke="#63b8ff" d="M272.81,-164.75C274.94,-158.11 277.94,-148.73 280.64,-140.31"/>
<polygon fill="#63b8ff" stroke="#63b8ff" points="283.95,-141.47 283.67,-130.88 277.28,-139.34 283.95,-141.47"/>
</g>
<!-- Node7 -->
<g id="node7" class="node">
<title>Node7</title>
<g id="a_node7"><a xlink:href="array_8h.html" target="_top" xlink:title=" ">
<polygon fill="white" stroke="#666666" points="388,-74 324,-74 324,-55 388,-55 388,-74"/>
<text text-anchor="middle" x="356" y="-62" font-family="Helvetica,sans-Serif" font-size="10.00">bits/array.h</text>
</a>
</g>
</g>
<!-- Node6&#45;&gt;Node7 -->
<g id="edge6" class="edge">
<title>Node6&#45;&gt;Node7</title>
<path fill="none" stroke="#63b8ff" d="M298.7,-109.51C308.78,-101.77 323.54,-90.43 335.56,-81.2"/>
<polygon fill="#63b8ff" stroke="#63b8ff" points="337.47,-84.15 343.27,-75.28 333.21,-78.6 337.47,-84.15"/>
</g>
<!-- Node8 -->
<g id="node8" class="node">
<title>Node8</title>
<g id="a_node8"><a xlink:href="types_8h.html" target="_top" xlink:title=" ">
<polygon fill="white" stroke="#666666" points="379.5,-19 332.5,-19 332.5,0 379.5,0 379.5,-19"/>
<text text-anchor="middle" x="356" y="-7" font-family="Helvetica,sans-Serif" font-size="10.00">types.h</text>
</a>
</g>
</g>
<!-- Node7&#45;&gt;Node8 -->
<g id="edge7" class="edge">
<title>Node7&#45;&gt;Node8</title>
<path fill="none" stroke="#63b8ff" d="M356,-54.75C356,-48.27 356,-39.16 356,-30.9"/>
<polygon fill="#63b8ff" stroke="#63b8ff" points="359.5,-30.96 356,-20.96 352.5,-30.96 359.5,-30.96"/>
</g>
<!-- Node9&#45;&gt;Node2 -->
<g id="edge17" class="edge">
<title>Node9&#45;&gt;Node2</title>
<path fill="none" stroke="#63b8ff" d="M352.4,-276.66C355.65,-276.08 358.86,-275.53 362,-275 440.99,-261.77 531.55,-249.29 595.41,-240.93"/>
<polygon fill="#63b8ff" stroke="#63b8ff" points="595.65,-244.43 605.11,-239.67 594.75,-237.49 595.65,-244.43"/>
</g>
<!-- Node9&#45;&gt;Node7 -->
<g id="edge12" class="edge">
<title>Node9&#45;&gt;Node7</title>
<path fill="none" stroke="#63b8ff" d="M300.32,-274.7C306.95,-265.01 315.35,-251.69 321,-239 344.29,-186.71 352.22,-118.66 354.81,-85.47"/>
<polygon fill="#63b8ff" stroke="#63b8ff" points="358.28,-85.93 355.48,-75.72 351.3,-85.45 358.28,-85.93"/>
</g>
<!-- Node10 -->
<g id="node10" class="node">
<title>Node10</title>
<g id="a_node10"><a xlink:href="valuetype__types_8h.html" target="_top" xlink:title=" ">
<polygon fill="white" stroke="#666666" points="587,-239 493,-239 493,-220 587,-220 587,-239"/>
<text text-anchor="middle" x="540" y="-227" font-family="Helvetica,sans-Serif" font-size="10.00">valuetype_types.h</text>
</a>
</g>
</g>
<!-- Node9&#45;&gt;Node10 -->
<g id="edge9" class="edge">
<title>Node9&#45;&gt;Node10</title>
<path fill="none" stroke="#63b8ff" d="M351.8,-274.54C394.66,-264.51 450.98,-251.33 490.8,-242.01"/>
<polygon fill="#63b8ff" stroke="#63b8ff" points="491.42,-245.46 500.35,-239.78 489.82,-238.65 491.42,-245.46"/>
</g>
<!-- Node11 -->
<g id="node11" class="node">
<title>Node11</title>
<g id="a_node11"><a xlink:href="valuetypedefinclude_8h.html" target="_top" xlink:title=" ">
<polygon fill="white" stroke="#666666" points="556.5,-184 447.5,-184 447.5,-165 556.5,-165 556.5,-184"/>
<text text-anchor="middle" x="502" y="-172" font-family="Helvetica,sans-Serif" font-size="10.00">valuetypedefinclude.h</text>
</a>
</g>
</g>
<!-- Node9&#45;&gt;Node11 -->
<g id="edge18" class="edge">
<title>Node9&#45;&gt;Node11</title>
<path fill="none" stroke="#63b8ff" d="M316.85,-274.63C357.66,-252.78 434.83,-211.46 475.46,-189.71"/>
<polygon fill="#63b8ff" stroke="#63b8ff" points="476.92,-192.9 484.09,-185.09 473.62,-186.72 476.92,-192.9"/>
</g>
<!-- Node13 -->
<g id="node13" class="node">
<title>Node13</title>
<g id="a_node13"><a xlink:href="keyvalue_8h.html" target="_top" xlink:title=" ">
<polygon fill="white" stroke="#666666" points="182.5,-239 83.5,-239 83.5,-220 182.5,-220 182.5,-239"/>
<text text-anchor="middle" x="133" y="-227" font-family="Helvetica,sans-Serif" font-size="10.00">Generic/keyvalue.h</text>
</a>
</g>
</g>
<!-- Node9&#45;&gt;Node13 -->
<g id="edge13" class="edge">
<title>Node9&#45;&gt;Node13</title>
<path fill="none" stroke="#63b8ff" d="M251.19,-274.54C225.52,-264.97 192.16,-252.55 167.44,-243.33"/>
<polygon fill="#63b8ff" stroke="#63b8ff" points="168.75,-240.09 158.16,-239.87 166.31,-246.65 168.75,-240.09"/>
</g>
<!-- Node15 -->
<g id="node15" class="node">
<title>Node15</title>
<g id="a_node15"><a xlink:href="table__forward_8h.html" target="_top" xlink:title=" ">
<polygon fill="white" stroke="#666666" points="311.5,-239 228.5,-239 228.5,-220 311.5,-220 311.5,-239"/>
<text text-anchor="middle" x="270" y="-227" font-family="Helvetica,sans-Serif" font-size="10.00">table_forward.h</text>
</a>
</g>
</g>
<!-- Node9&#45;&gt;Node15 -->
<g id="edge15" class="edge">
<title>Node9&#45;&gt;Node15</title>
<path fill="none" stroke="#63b8ff" d="M285.06,-274.54C282.51,-267.08 279.36,-257.89 276.61,-249.83"/>
<polygon fill="#63b8ff" stroke="#63b8ff" points="280,-248.94 273.46,-240.61 273.38,-251.2 280,-248.94"/>
</g>
<!-- Node10&#45;&gt;Node11 -->
<g id="edge10" class="edge">
<title>Node10&#45;&gt;Node11</title>
<path fill="none" stroke="#63b8ff" d="M533.73,-219.75C528.64,-212.66 521.3,-202.42 514.97,-193.59"/>
<polygon fill="#63b8ff" stroke="#63b8ff" points="517.96,-191.76 509.29,-185.67 512.28,-195.84 517.96,-191.76"/>
</g>
<!-- Node12 -->
<g id="node12" class="node">
<title>Node12</title>
<g id="a_node12"><a xlink:href="valuetypedef_8h.html" target="_top" xlink:title=" ">
<polygon fill="white" stroke="#666666" points="541.5,-129 462.5,-129 462.5,-110 541.5,-110 541.5,-129"/>
<text text-anchor="middle" x="502" y="-117" font-family="Helvetica,sans-Serif" font-size="10.00">valuetypedef.h</text>
</a>
</g>
</g>
<!-- Node11&#45;&gt;Node12 -->
<g id="edge11" class="edge">
<title>Node11&#45;&gt;Node12</title>
<path fill="none" stroke="#63b8ff" d="M502,-164.75C502,-158.27 502,-149.16 502,-140.9"/>
<polygon fill="#63b8ff" stroke="#63b8ff" points="505.5,-140.96 502,-130.96 498.5,-140.96 505.5,-140.96"/>
</g>
<!-- Node14 -->
<g id="node14" class="node">
<title>Node14</title>
<g id="a_node14"><a xlink:href="comparator__traits_8h.html" target="_top" xlink:title=" ">
<polygon fill="white" stroke="#666666" points="183,-184 83,-184 83,-165 183,-165 183,-184"/>
<text text-anchor="middle" x="133" y="-172" font-family="Helvetica,sans-Serif" font-size="10.00">comparator_traits.h</text>
</a>
</g>
</g>
<!-- Node13&#45;&gt;Node14 -->
<g id="edge14" class="edge">
<title>Node13&#45;&gt;Node14</title>
<path fill="none" stroke="#63b8ff" d="M133,-219.75C133,-213.27 133,-204.16 133,-195.9"/>
<polygon fill="#63b8ff" stroke="#63b8ff" points="136.5,-195.96 133,-185.96 129.5,-195.96 136.5,-195.96"/>
</g>
<!-- Node15&#45;&gt;Node5 -->
<g id="edge16" class="edge">
<title>Node15&#45;&gt;Node5</title>
<path fill="none" stroke="#63b8ff" d="M270,-219.75C270,-213.27 270,-204.16 270,-195.9"/>
<polygon fill="#63b8ff" stroke="#63b8ff" points="273.5,-195.96 270,-185.96 266.5,-195.96 273.5,-195.96"/>
</g>
<!-- Node16&#45;&gt;Node2 -->
<g id="edge48" class="edge">
<title>Node16&#45;&gt;Node2</title>
<path fill="none" stroke="#63b8ff" d="M658.07,-505.86C661.98,-496.01 666.74,-482.45 669,-470 679.23,-413.56 670.81,-398.32 673,-341 674.2,-309.4 675.93,-272.73 677.01,-250.59"/>
<polygon fill="#63b8ff" stroke="#63b8ff" points="680.49,-251.05 677.48,-240.89 673.49,-250.71 680.49,-251.05"/>
</g>
<!-- Node16&#45;&gt;Node9 -->
<g id="edge44" class="edge">
<title>Node16&#45;&gt;Node9</title>
<path fill="none" stroke="#63b8ff" d="M654.39,-505.65C657.77,-480.14 660.74,-426.71 633,-396 590.22,-348.65 555.16,-378.24 494,-360 441.32,-344.29 381.87,-323.87 340.79,-309.33"/>
<polygon fill="#63b8ff" stroke="#63b8ff" points="342,-306.04 331.41,-305.99 339.66,-312.64 342,-306.04"/>
</g>
<!-- Node16&#45;&gt;Node13 -->
<g id="edge43" class="edge">
<title>Node16&#45;&gt;Node13</title>
<path fill="none" stroke="#63b8ff" d="M589.67,-518.07C461.73,-512.54 177.21,-491.7 127,-415 93.25,-363.45 113.58,-285.26 125.79,-249.53"/>
<polygon fill="#63b8ff" stroke="#63b8ff" points="128.93,-251.15 129.02,-240.56 122.34,-248.78 128.93,-251.15"/>
</g>
<!-- Node17 -->
<g id="node17" class="node">
<title>Node17</title>
<g id="a_node17"><a xlink:href="ownedscopeptr_8h.html" target="_top" xlink:title=" ">
<polygon fill="white" stroke="#666666" points="352,-470 262,-470 262,-451 352,-451 352,-470"/>
<text text-anchor="middle" x="307" y="-458" font-family="Helvetica,sans-Serif" font-size="10.00">ownedscopeptr.h</text>
</a>
</g>
</g>
<!-- Node16&#45;&gt;Node17 -->
<g id="edge20" class="edge">
<title>Node16&#45;&gt;Node17</title>
<path fill="none" stroke="#63b8ff" d="M589.52,-509.41C525.09,-498.48 425.49,-481.59 363.39,-471.06"/>
<polygon fill="#63b8ff" stroke="#63b8ff" points="364.18,-467.65 353.74,-469.42 363.01,-474.55 364.18,-467.65"/>
</g>
<!-- Node21 -->
<g id="node21" class="node">
<title>Node21</title>
<g id="a_node21"><a xlink:href="keyvaluesender_8h.html" target="_top" xlink:title=" ">
<polygon fill="white" stroke="#666666" points="774,-360 682,-360 682,-341 774,-341 774,-360"/>
<text text-anchor="middle" x="728" y="-348" font-family="Helvetica,sans-Serif" font-size="10.00">keyvaluesender.h</text>
</a>
</g>
</g>
<!-- Node16&#45;&gt;Node21 -->
<g id="edge26" class="edge">
<title>Node16&#45;&gt;Node21</title>
<path fill="none" stroke="#63b8ff" d="M672.21,-505.54C683.28,-496.55 696.28,-484.05 704,-470 721.22,-438.66 726.15,-396.54 727.52,-371.88"/>
<polygon fill="#63b8ff" stroke="#63b8ff" points="731.02,-372.08 727.91,-361.95 724.02,-371.81 731.02,-372.08"/>
</g>
<!-- Node27 -->
<g id="node27" class="node">
<title>Node27</title>
<g id="a_node27"><a xlink:href="virtualrange_8h.html" target="_top" xlink:title=" ">
<polygon fill="white" stroke="#666666" points="624,-470 470,-470 470,-451 624,-451 624,-470"/>
<text text-anchor="middle" x="547" y="-458" font-family="Helvetica,sans-Serif" font-size="10.00">Generic/container/virtualrange.h</text>
</a>
</g>
</g>
<!-- Node16&#45;&gt;Node27 -->
<g id="edge35" class="edge">
<title>Node16&#45;&gt;Node27</title>
<path fill="none" stroke="#63b8ff" d="M626.04,-505.54C609.8,-496.49 588.97,-484.88 572.76,-475.85"/>
<polygon fill="#63b8ff" stroke="#63b8ff" points="574.64,-472.89 564.2,-471.08 571.23,-479.01 574.64,-472.89"/>
</g>
<!-- Node35 -->
<g id="node35" class="node">
<title>Node35</title>
<g id="a_node35"><a xlink:href="enumholder_8h.html" target="_top" xlink:title=" ">
<polygon fill="white" stroke="#666666" points="452,-470 370,-470 370,-451 452,-451 452,-470"/>
<text text-anchor="middle" x="411" y="-458" font-family="Helvetica,sans-Serif" font-size="10.00">../enumholder.h</text>
</a>
</g>
</g>
<!-- Node16&#45;&gt;Node35 -->
<g id="edge45" class="edge">
<title>Node16&#45;&gt;Node35</title>
<path fill="none" stroke="#63b8ff" d="M592.43,-505.54C551.2,-495.53 497.05,-482.39 458.67,-473.07"/>
<polygon fill="#63b8ff" stroke="#63b8ff" points="459.81,-469.75 449.27,-470.79 458.16,-476.55 459.81,-469.75"/>
</g>
<!-- Node36 -->
<g id="node36" class="node">
<title>Node36</title>
<g id="a_node36"><a xlink:href="flagsholder_8h.html" target="_top" xlink:title=" ">
<polygon fill="white" stroke="#666666" points="896,-129 818,-129 818,-110 896,-110 896,-129"/>
<text text-anchor="middle" x="857" y="-117" font-family="Helvetica,sans-Serif" font-size="10.00">../flagsholder.h</text>
</a>
</g>
</g>
<!-- Node16&#45;&gt;Node36 -->
<g id="edge46" class="edge">
<title>Node16&#45;&gt;Node36</title>
<path fill="none" stroke="#63b8ff" d="M714.38,-507.99C808.45,-486.14 983.61,-430.08 1059,-305 1106.82,-225.65 964.49,-160.1 894.02,-133.4"/>
<polygon fill="#63b8ff" stroke="#63b8ff" points="895.37,-130.17 884.78,-129.97 892.94,-136.73 895.37,-130.17"/>
</g>
<!-- Node18 -->
<g id="node18" class="node">
<title>Node18</title>
<g id="a_node18"><a xlink:href="proxyscopebase_8h.html" target="_top" xlink:title=" ">
<polygon fill="white" stroke="#666666" points="230,-415 136,-415 136,-396 230,-396 230,-415"/>
<text text-anchor="middle" x="183" y="-403" font-family="Helvetica,sans-Serif" font-size="10.00">proxyscopebase.h</text>
</a>
</g>
</g>
<!-- Node17&#45;&gt;Node18 -->
<g id="edge21" class="edge">
<title>Node17&#45;&gt;Node18</title>
<path fill="none" stroke="#63b8ff" d="M285.97,-450.51C266.25,-442.08 236.53,-429.38 214.09,-419.79"/>
<polygon fill="#63b8ff" stroke="#63b8ff" points="215.69,-416.66 205.12,-415.95 212.94,-423.1 215.69,-416.66"/>
</g>
<!-- Node19 -->
<g id="node19" class="node">
<title>Node19</title>
<g id="a_node19"><a xlink:href="scopeptr_8h.html" target="_top" xlink:title=" ">
<polygon fill="white" stroke="#666666" points="214,-360 152,-360 152,-341 214,-341 214,-360"/>
<text text-anchor="middle" x="183" y="-348" font-family="Helvetica,sans-Serif" font-size="10.00">scopeptr.h</text>
</a>
</g>
</g>
<!-- Node18&#45;&gt;Node19 -->
<g id="edge22" class="edge">
<title>Node18&#45;&gt;Node19</title>
<path fill="none" stroke="#63b8ff" d="M183,-395.75C183,-389.27 183,-380.16 183,-371.9"/>
<polygon fill="#63b8ff" stroke="#63b8ff" points="186.5,-371.96 183,-361.96 179.5,-371.96 186.5,-371.96"/>
</g>
<!-- Node19&#45;&gt;Node9 -->
<g id="edge25" class="edge">
<title>Node19&#45;&gt;Node9</title>
<path fill="none" stroke="#63b8ff" d="M199.25,-340.62C213.65,-332.74 235.21,-320.96 253.7,-310.85"/>
<polygon fill="#63b8ff" stroke="#63b8ff" points="255.17,-314.03 262.26,-306.17 251.81,-307.89 255.17,-314.03"/>
</g>
<!-- Node20 -->
<g id="node20" class="node">
<title>Node20</title>
<g id="a_node20"><a xlink:href="metatable_8h.html" target="_top" xlink:title=" ">
<polygon fill="white" stroke="#666666" points="209.5,-299.5 142.5,-299.5 142.5,-280.5 209.5,-280.5 209.5,-299.5"/>
<text text-anchor="middle" x="176" y="-287.5" font-family="Helvetica,sans-Serif" font-size="10.00">metatable.h</text>
</a>
</g>
</g>
<!-- Node19&#45;&gt;Node20 -->
<g id="edge23" class="edge">
<title>Node19&#45;&gt;Node20</title>
<path fill="none" stroke="#63b8ff" d="M181.97,-340.87C181.03,-333 179.6,-321.1 178.38,-310.89"/>
<polygon fill="#63b8ff" stroke="#63b8ff" points="181.88,-310.68 177.22,-301.17 174.93,-311.52 181.88,-310.68"/>
</g>
<!-- Node20&#45;&gt;Node15 -->
<g id="edge24" class="edge">
<title>Node20&#45;&gt;Node15</title>
<path fill="none" stroke="#63b8ff" d="M190.28,-280.12C205.05,-270.92 228.37,-256.41 245.99,-245.44"/>
<polygon fill="#63b8ff" stroke="#63b8ff" points="247.66,-248.52 254.3,-240.27 243.96,-242.58 247.66,-248.52"/>
</g>
<!-- Node21&#45;&gt;Node2 -->
<g id="edge29" class="edge">
<title>Node21&#45;&gt;Node2</title>
<path fill="none" stroke="#63b8ff" d="M720.86,-340.82C714.1,-332.21 704.11,-318.4 698,-305 689.93,-287.29 684.58,-265.68 681.46,-250.31"/>
<polygon fill="#63b8ff" stroke="#63b8ff" points="684.91,-249.75 679.63,-240.57 678.03,-251.04 684.91,-249.75"/>
</g>
<!-- Node21&#45;&gt;Node5 -->
<g id="edge34" class="edge">
<title>Node21&#45;&gt;Node5</title>
<path fill="none" stroke="#63b8ff" d="M712.74,-340.58C686.74,-325.63 631.93,-295.18 583,-275 532.84,-254.31 384.27,-209.39 311.33,-187.7"/>
<polygon fill="#63b8ff" stroke="#63b8ff" points="312.34,-184.35 301.75,-184.86 310.35,-191.06 312.34,-184.35"/>
</g>
<!-- Node22 -->
<g id="node22" class="node">
<title>Node22</title>
<g id="a_node22"><a xlink:href="delayedconstruct_8h.html" target="_top" xlink:title=" ">
<polygon fill="white" stroke="#666666" points="1050,-299.5 916,-299.5 916,-280.5 1050,-280.5 1050,-299.5"/>
<text text-anchor="middle" x="983" y="-287.5" font-family="Helvetica,sans-Serif" font-size="10.00">Generic/delayedconstruct.h</text>
</a>
</g>
</g>
<!-- Node21&#45;&gt;Node22 -->
<g id="edge27" class="edge">
<title>Node21&#45;&gt;Node22</title>
<path fill="none" stroke="#63b8ff" d="M767.01,-340.55C811.44,-330.36 884.16,-313.67 932.79,-302.52"/>
<polygon fill="#63b8ff" stroke="#63b8ff" points="933.56,-305.93 942.52,-300.29 931.99,-299.11 933.56,-305.93"/>
</g>
<!-- Node24 -->
<g id="node24" class="node">
<title>Node24</title>
<g id="a_node24"><a xlink:href="virtualstate_8h.html" target="_top" xlink:title=" ">
<polygon fill="white" stroke="#666666" points="859.5,-299.5 706.5,-299.5 706.5,-280.5 859.5,-280.5 859.5,-299.5"/>
<text text-anchor="middle" x="783" y="-287.5" font-family="Helvetica,sans-Serif" font-size="10.00">Generic/execution/virtualstate.h</text>
</a>
</g>
</g>
<!-- Node21&#45;&gt;Node24 -->
<g id="edge30" class="edge">
<title>Node21&#45;&gt;Node24</title>
<path fill="none" stroke="#63b8ff" d="M736.12,-340.87C744.24,-332.23 756.96,-318.7 767.1,-307.92"/>
<polygon fill="#63b8ff" stroke="#63b8ff" points="769.51,-310.45 773.81,-300.77 764.41,-305.66 769.51,-310.45"/>
</g>
<!-- Node23 -->
<g id="node23" class="node">
<title>Node23</title>
<g id="a_node23"><a xlink:href="closure_8h.html" target="_top" xlink:title=" ">
<polygon fill="white" stroke="#666666" points="1011,-239 955,-239 955,-220 1011,-220 1011,-239"/>
<text text-anchor="middle" x="983" y="-227" font-family="Helvetica,sans-Serif" font-size="10.00">closure.h</text>
</a>
</g>
</g>
<!-- Node22&#45;&gt;Node23 -->
<g id="edge28" class="edge">
<title>Node22&#45;&gt;Node23</title>
<path fill="none" stroke="#63b8ff" d="M983,-280.37C983,-272.5 983,-260.6 983,-250.39"/>
<polygon fill="#63b8ff" stroke="#63b8ff" points="986.5,-250.68 983,-240.68 979.5,-250.68 986.5,-250.68"/>
</g>
<!-- Node24&#45;&gt;Node2 -->
<g id="edge31" class="edge">
<title>Node24&#45;&gt;Node2</title>
<path fill="none" stroke="#63b8ff" d="M767.05,-280.12C750.32,-270.79 723.77,-256 704,-244.99"/>
<polygon fill="#63b8ff" stroke="#63b8ff" points="705.86,-242.01 695.42,-240.21 702.45,-248.13 705.86,-242.01"/>
</g>
<!-- Node25 -->
<g id="node25" class="node">
<title>Node25</title>
<g id="a_node25"><a xlink:href="virtual__invoke_8h.html" target="_top" xlink:title=" ">
<polygon fill="white" stroke="#666666" points="889.5,-239 768.5,-239 768.5,-220 889.5,-220 889.5,-239"/>
<text text-anchor="middle" x="829" y="-227" font-family="Helvetica,sans-Serif" font-size="10.00">Generic/virtual_invoke.h</text>
</a>
</g>
</g>
<!-- Node24&#45;&gt;Node25 -->
<g id="edge32" class="edge">
<title>Node24&#45;&gt;Node25</title>
<path fill="none" stroke="#63b8ff" d="M789.79,-280.37C796.45,-271.9 806.79,-258.74 815.19,-248.07"/>
<polygon fill="#63b8ff" stroke="#63b8ff" points="817.82,-250.38 821.25,-240.36 812.32,-246.05 817.82,-250.38"/>
</g>
<!-- Node26 -->
<g id="node26" class="node">
<title>Node26</title>
<g id="a_node26"><a xlink:href="callable__traits_8h.html" target="_top" xlink:title=" ">
<polygon fill="white" stroke="#666666" points="871,-184 787,-184 787,-165 871,-165 871,-184"/>
<text text-anchor="middle" x="829" y="-172" font-family="Helvetica,sans-Serif" font-size="10.00">callable_traits.h</text>
</a>
</g>
</g>
<!-- Node25&#45;&gt;Node26 -->
<g id="edge33" class="edge">
<title>Node25&#45;&gt;Node26</title>
<path fill="none" stroke="#63b8ff" d="M829,-219.75C829,-213.27 829,-204.16 829,-195.9"/>
<polygon fill="#63b8ff" stroke="#63b8ff" points="832.5,-195.96 829,-185.96 825.5,-195.96 832.5,-195.96"/>
</g>
<!-- Node28 -->
<g id="node28" class="node">
<title>Node28</title>
<g id="a_node28"><a xlink:href="proxy_8h.html" target="_top" xlink:title=" ">
<polygon fill="white" stroke="#666666" points="624,-415 570,-415 570,-396 624,-396 624,-415"/>
<text text-anchor="middle" x="597" y="-403" font-family="Helvetica,sans-Serif" font-size="10.00">../proxy.h</text>
</a>
</g>
</g>
<!-- Node27&#45;&gt;Node28 -->
<g id="edge36" class="edge">
<title>Node27&#45;&gt;Node28</title>
<path fill="none" stroke="#63b8ff" d="M555.26,-450.75C562.16,-443.43 572.22,-432.76 580.74,-423.74"/>
<polygon fill="#63b8ff" stroke="#63b8ff" points="583.21,-426.22 587.53,-416.54 578.12,-421.42 583.21,-426.22"/>
</g>
<!-- Node29 -->
<g id="node29" class="node">
<title>Node29</title>
<g id="a_node29"><a xlink:href="defaultassign_8h.html" target="_top" xlink:title=" ">
<polygon fill="white" stroke="#666666" points="454.5,-415 365.5,-415 365.5,-396 454.5,-396 454.5,-415"/>
<text text-anchor="middle" x="410" y="-403" font-family="Helvetica,sans-Serif" font-size="10.00">../defaultassign.h</text>
</a>
</g>
</g>
<!-- Node27&#45;&gt;Node29 -->
<g id="edge37" class="edge">
<title>Node27&#45;&gt;Node29</title>
<path fill="none" stroke="#63b8ff" d="M523.76,-450.51C501.68,-441.97 468.25,-429.03 443.33,-419.4"/>
<polygon fill="#63b8ff" stroke="#63b8ff" points="444.9,-416.25 434.31,-415.9 442.37,-422.78 444.9,-416.25"/>
</g>
<!-- Node30 -->
<g id="node30" class="node">
<title>Node30</title>
<g id="a_node30"><a xlink:href="heapobject_8h.html" target="_top" xlink:title=" ">
<polygon fill="white" stroke="#666666" points="551.5,-415 472.5,-415 472.5,-396 551.5,-396 551.5,-415"/>
<text text-anchor="middle" x="512" y="-403" font-family="Helvetica,sans-Serif" font-size="10.00">../heapobject.h</text>
</a>
</g>
</g>
<!-- Node27&#45;&gt;Node30 -->
<g id="edge38" class="edge">
<title>Node27&#45;&gt;Node30</title>
<path fill="none" stroke="#63b8ff" d="M541.22,-450.75C536.59,-443.73 529.93,-433.64 524.13,-424.87"/>
<polygon fill="#63b8ff" stroke="#63b8ff" points="527.17,-423.12 518.74,-416.71 521.33,-426.98 527.17,-423.12"/>
</g>
<!-- Node31 -->
<g id="node31" class="node">
<title>Node31</title>
<g id="a_node31"><a xlink:href="emplace_8h.html" target="_top" xlink:title=" ">
<polygon fill="white" stroke="#666666" points="347.5,-415 286.5,-415 286.5,-396 347.5,-396 347.5,-415"/>
<text text-anchor="middle" x="317" y="-403" font-family="Helvetica,sans-Serif" font-size="10.00">emplace.h</text>
</a>
</g>
</g>
<!-- Node27&#45;&gt;Node31 -->
<g id="edge39" class="edge">
<title>Node27&#45;&gt;Node31</title>
<path fill="none" stroke="#63b8ff" d="M507.98,-450.51C466.54,-440.96 401.27,-425.92 358.8,-416.13"/>
<polygon fill="#63b8ff" stroke="#63b8ff" points="359.73,-412.76 349.2,-413.92 358.16,-419.58 359.73,-412.76"/>
</g>
<!-- Node32 -->
<g id="node32" class="node">
<title>Node32</title>
<g id="a_node32"><a xlink:href="container__traits_8h.html" target="_top" xlink:title=" ">
<polygon fill="white" stroke="#666666" points="593.5,-360 502.5,-360 502.5,-341 593.5,-341 593.5,-360"/>
<text text-anchor="middle" x="548" y="-348" font-family="Helvetica,sans-Serif" font-size="10.00">container_traits.h</text>
</a>
</g>
</g>
<!-- Node31&#45;&gt;Node32 -->
<g id="edge40" class="edge">
<title>Node31&#45;&gt;Node32</title>
<path fill="none" stroke="#63b8ff" d="M347.68,-397.46C386.03,-388.66 452.2,-373.48 497.93,-362.99"/>
<polygon fill="#63b8ff" stroke="#63b8ff" points="498.65,-366.41 507.62,-360.77 497.09,-359.59 498.65,-366.41"/>
</g>
<!-- Node33 -->
<g id="node33" class="node">
<title>Node33</title>
<g id="a_node33"><a xlink:href="indextype_8h.html" target="_top" xlink:title=" ">
<polygon fill="white" stroke="#666666" points="574,-299.5 502,-299.5 502,-280.5 574,-280.5 574,-299.5"/>
<text text-anchor="middle" x="538" y="-287.5" font-family="Helvetica,sans-Serif" font-size="10.00">../indextype.h</text>
</a>
</g>
</g>
<!-- Node32&#45;&gt;Node33 -->
<g id="edge41" class="edge">
<title>Node32&#45;&gt;Node33</title>
<path fill="none" stroke="#63b8ff" d="M546.52,-340.87C545.18,-333 543.14,-321.1 541.4,-310.89"/>
<polygon fill="#63b8ff" stroke="#63b8ff" points="544.87,-310.43 539.74,-301.16 537.97,-311.61 544.87,-310.43"/>
</g>
<!-- Node34 -->
<g id="node34" class="node">
<title>Node34</title>
<g id="a_node34"><a xlink:href="underlying__container_8h.html" target="_top" xlink:title=" ">
<polygon fill="white" stroke="#666666" points="483.5,-299.5 370.5,-299.5 370.5,-280.5 483.5,-280.5 483.5,-299.5"/>
<text text-anchor="middle" x="427" y="-287.5" font-family="Helvetica,sans-Serif" font-size="10.00">underlying_container.h</text>
</a>
</g>
</g>
<!-- Node32&#45;&gt;Node34 -->
<g id="edge42" class="edge">
<title>Node32&#45;&gt;Node34</title>
<path fill="none" stroke="#63b8ff" d="M529.62,-340.62C509.99,-331.12 478.61,-315.95 455.71,-304.88"/>
<polygon fill="#63b8ff" stroke="#63b8ff" points="457.44,-301.83 446.91,-300.63 454.39,-308.13 457.44,-301.83"/>
</g>
<!-- Node36&#45;&gt;Node7 -->
<g id="edge47" class="edge">
<title>Node36&#45;&gt;Node7</title>
<path fill="none" stroke="#63b8ff" d="M817.69,-114.34C725.57,-104.6 496.28,-80.34 399.84,-70.14"/>
<polygon fill="#63b8ff" stroke="#63b8ff" points="400.3,-66.67 389.99,-69.1 399.57,-73.63 400.3,-66.67"/>
</g>
</g>
</svg>
