<?xml version="1.0" encoding="UTF-8" standalone="no"?>
<!DOCTYPE svg PUBLIC "-//W3C//DTD SVG 1.1//EN"
 "http://www.w3.org/Graphics/SVG/1.1/DTD/svg11.dtd">
<!-- Generated by graphviz version 7.0.5 (20221223.1930)
 -->
<!-- Title: src/Meta/math/boundingbox.h Pages: 1 -->
<svg width="186pt" height="302pt"
 viewBox="0.00 0.00 185.50 302.00" xmlns="http://www.w3.org/2000/svg" xmlns:xlink="http://www.w3.org/1999/xlink">
<g id="graph0" class="graph" transform="scale(1 1) rotate(0) translate(4 298)">
<title>src/Meta/math/boundingbox.h</title>
<!-- Node1 -->
<g id="node1" class="node">
<title>Node1</title>
<g id="a_node1"><a xlink:title=" ">
<polygon fill="#999999" stroke="#666666" points="144,-294 0,-294 0,-275 144,-275 144,-294"/>
<text text-anchor="middle" x="72" y="-282" font-family="Helvetica,sans-Serif" font-size="10.00">src/Meta/math/boundingbox.h</text>
</a>
</g>
</g>
<!-- Node2 -->
<g id="node2" class="node">
<title>Node2</title>
<g id="a_node2"><a xlink:href="matrix4_8h.html" target="_top" xlink:title=" ">
<polygon fill="white" stroke="#666666" points="100,-239 44,-239 44,-220 100,-220 100,-239"/>
<text text-anchor="middle" x="72" y="-227" font-family="Helvetica,sans-Serif" font-size="10.00">matrix4.h</text>
</a>
</g>
</g>
<!-- Node1&#45;&gt;Node2 -->
<g id="edge1" class="edge">
<title>Node1&#45;&gt;Node2</title>
<path fill="none" stroke="#63b8ff" d="M72,-274.75C72,-268.27 72,-259.16 72,-250.9"/>
<polygon fill="#63b8ff" stroke="#63b8ff" points="75.5,-250.96 72,-240.96 68.5,-250.96 75.5,-250.96"/>
</g>
<!-- Node3 -->
<g id="node3" class="node">
<title>Node3</title>
<g id="a_node3"><a xlink:href="matrix3_8h.html" target="_top" xlink:title=" ">
<polygon fill="white" stroke="#666666" points="63,-184 7,-184 7,-165 63,-165 63,-184"/>
<text text-anchor="middle" x="35" y="-172" font-family="Helvetica,sans-Serif" font-size="10.00">matrix3.h</text>
</a>
</g>
</g>
<!-- Node2&#45;&gt;Node3 -->
<g id="edge2" class="edge">
<title>Node2&#45;&gt;Node3</title>
<path fill="none" stroke="#63b8ff" d="M65.89,-219.75C60.99,-212.73 53.95,-202.64 47.83,-193.87"/>
<polygon fill="#63b8ff" stroke="#63b8ff" points="50.7,-191.88 42.11,-185.68 44.96,-195.89 50.7,-191.88"/>
</g>
<!-- Node9 -->
<g id="node9" class="node">
<title>Node9</title>
<g id="a_node9"><a xlink:href="vector4_8h.html" target="_top" xlink:title=" ">
<polygon fill="white" stroke="#666666" points="137,-184 81,-184 81,-165 137,-165 137,-184"/>
<text text-anchor="middle" x="109" y="-172" font-family="Helvetica,sans-Serif" font-size="10.00">vector4.h</text>
</a>
</g>
</g>
<!-- Node2&#45;&gt;Node9 -->
<g id="edge10" class="edge">
<title>Node2&#45;&gt;Node9</title>
<path fill="none" stroke="#63b8ff" d="M78.11,-219.75C83.01,-212.73 90.05,-202.64 96.17,-193.87"/>
<polygon fill="#63b8ff" stroke="#63b8ff" points="99.04,-195.89 101.89,-185.68 93.3,-191.88 99.04,-195.89"/>
</g>
<!-- Node4 -->
<g id="node4" class="node">
<title>Node4</title>
<g id="a_node4"><a xlink:href="vector3_8h.html" target="_top" xlink:title=" ">
<polygon fill="white" stroke="#666666" points="100,-129 44,-129 44,-110 100,-110 100,-129"/>
<text text-anchor="middle" x="72" y="-117" font-family="Helvetica,sans-Serif" font-size="10.00">vector3.h</text>
</a>
</g>
</g>
<!-- Node3&#45;&gt;Node4 -->
<g id="edge3" class="edge">
<title>Node3&#45;&gt;Node4</title>
<path fill="none" stroke="#63b8ff" d="M41.11,-164.75C46.01,-157.73 53.05,-147.64 59.17,-138.87"/>
<polygon fill="#63b8ff" stroke="#63b8ff" points="62.04,-140.89 64.89,-130.68 56.3,-136.88 62.04,-140.89"/>
</g>
<!-- Node5 -->
<g id="node5" class="node">
<title>Node5</title>
<g id="a_node5"><a xlink:href="common_8h.html" target="_top" xlink:title=" ">
<polygon fill="white" stroke="#666666" points="73,-19 11,-19 11,0 73,0 73,-19"/>
<text text-anchor="middle" x="42" y="-7" font-family="Helvetica,sans-Serif" font-size="10.00">common.h</text>
</a>
</g>
</g>
<!-- Node4&#45;&gt;Node5 -->
<g id="edge4" class="edge">
<title>Node4&#45;&gt;Node5</title>
<path fill="none" stroke="#63b8ff" d="M61.21,-109.55C52.26,-101.36 40.19,-88.36 35,-74 29.91,-59.93 32.13,-43.06 35.37,-30.24"/>
<polygon fill="#63b8ff" stroke="#63b8ff" points="38.66,-31.46 38.15,-20.87 31.95,-29.46 38.66,-31.46"/>
</g>
<!-- Node6 -->
<g id="node6" class="node">
<title>Node6</title>
<g id="a_node6"><a xlink:href="vector2_8h.html" target="_top" xlink:title=" ">
<polygon fill="white" stroke="#666666" points="100,-74 44,-74 44,-55 100,-55 100,-74"/>
<text text-anchor="middle" x="72" y="-62" font-family="Helvetica,sans-Serif" font-size="10.00">vector2.h</text>
</a>
</g>
</g>
<!-- Node4&#45;&gt;Node6 -->
<g id="edge5" class="edge">
<title>Node4&#45;&gt;Node6</title>
<path fill="none" stroke="#63b8ff" d="M72,-109.75C72,-103.27 72,-94.16 72,-85.9"/>
<polygon fill="#63b8ff" stroke="#63b8ff" points="75.5,-85.96 72,-75.96 68.5,-85.96 75.5,-85.96"/>
</g>
<!-- Node8 -->
<g id="node8" class="node">
<title>Node8</title>
<g id="a_node8"><a xlink:href="vector3i_8h.html" target="_top" xlink:title=" ">
<polygon fill="white" stroke="#666666" points="177.5,-74 118.5,-74 118.5,-55 177.5,-55 177.5,-74"/>
<text text-anchor="middle" x="148" y="-62" font-family="Helvetica,sans-Serif" font-size="10.00">vector3i.h</text>
</a>
</g>
</g>
<!-- Node4&#45;&gt;Node8 -->
<g id="edge8" class="edge">
<title>Node4&#45;&gt;Node8</title>
<path fill="none" stroke="#63b8ff" d="M84.89,-109.51C96.1,-101.7 112.57,-90.21 125.88,-80.93"/>
<polygon fill="#63b8ff" stroke="#63b8ff" points="127.86,-83.81 134.06,-75.22 123.85,-78.07 127.86,-83.81"/>
</g>
<!-- Node6&#45;&gt;Node5 -->
<g id="edge7" class="edge">
<title>Node6&#45;&gt;Node5</title>
<path fill="none" stroke="#63b8ff" d="M67.05,-54.75C63.16,-47.88 57.61,-38.08 52.72,-29.45"/>
<polygon fill="#63b8ff" stroke="#63b8ff" points="55.78,-27.74 47.81,-20.76 49.69,-31.19 55.78,-27.74"/>
</g>
<!-- Node7 -->
<g id="node7" class="node">
<title>Node7</title>
<g id="a_node7"><a xlink:href="vector2i_8h.html" target="_top" xlink:title=" ">
<polygon fill="white" stroke="#666666" points="163.5,-19 104.5,-19 104.5,0 163.5,0 163.5,-19"/>
<text text-anchor="middle" x="134" y="-7" font-family="Helvetica,sans-Serif" font-size="10.00">vector2i.h</text>
</a>
</g>
</g>
<!-- Node6&#45;&gt;Node7 -->
<g id="edge6" class="edge">
<title>Node6&#45;&gt;Node7</title>
<path fill="none" stroke="#63b8ff" d="M82.52,-54.51C91.39,-46.93 104.31,-35.88 114.99,-26.75"/>
<polygon fill="#63b8ff" stroke="#63b8ff" points="117.16,-29.5 122.49,-20.34 112.61,-24.18 117.16,-29.5"/>
</g>
<!-- Node8&#45;&gt;Node7 -->
<g id="edge9" class="edge">
<title>Node8&#45;&gt;Node7</title>
<path fill="none" stroke="#63b8ff" d="M145.69,-54.75C143.94,-48.11 141.46,-38.73 139.23,-30.31"/>
<polygon fill="#63b8ff" stroke="#63b8ff" points="142.69,-29.68 136.75,-20.91 135.92,-31.47 142.69,-29.68"/>
</g>
<!-- Node9&#45;&gt;Node4 -->
<g id="edge11" class="edge">
<title>Node9&#45;&gt;Node4</title>
<path fill="none" stroke="#63b8ff" d="M102.89,-164.75C97.99,-157.73 90.95,-147.64 84.83,-138.87"/>
<polygon fill="#63b8ff" stroke="#63b8ff" points="87.7,-136.88 79.11,-130.68 81.96,-140.89 87.7,-136.88"/>
</g>
</g>
</svg>
