<?xml version="1.0" encoding="UTF-8" standalone="no"?>
<!DOCTYPE svg PUBLIC "-//W3C//DTD SVG 1.1//EN"
 "http://www.w3.org/Graphics/SVG/1.1/DTD/svg11.dtd">
<!-- Generated by graphviz version 7.0.5 (20221223.1930)
 -->
<!-- Title: src/Generic/classname.h Pages: 1 -->
<svg width="180pt" height="192pt"
 viewBox="0.00 0.00 180.00 192.00" xmlns="http://www.w3.org/2000/svg" xmlns:xlink="http://www.w3.org/1999/xlink">
<g id="graph0" class="graph" transform="scale(1 1) rotate(0) translate(4 188)">
<title>src/Generic/classname.h</title>
<!-- Node1 -->
<g id="node1" class="node">
<title>Node1</title>
<g id="a_node1"><a xlink:title=" ">
<polygon fill="#999999" stroke="#666666" points="125,-184 0,-184 0,-165 125,-165 125,-184"/>
<text text-anchor="middle" x="62.5" y="-172" font-family="Helvetica,sans-Serif" font-size="10.00">src/Generic/classname.h</text>
</a>
</g>
</g>
<!-- Node2 -->
<g id="node2" class="node">
<title>Node2</title>
<g id="a_node2"><a xlink:href="decay_8h.html" target="_top" xlink:title=" ">
<polygon fill="white" stroke="#666666" points="50.5,-129 0.5,-129 0.5,-110 50.5,-110 50.5,-129"/>
<text text-anchor="middle" x="25.5" y="-117" font-family="Helvetica,sans-Serif" font-size="10.00">decay.h</text>
</a>
</g>
</g>
<!-- Node1&#45;&gt;Node2 -->
<g id="edge1" class="edge">
<title>Node1&#45;&gt;Node2</title>
<path fill="none" stroke="#63b8ff" d="M56.39,-164.75C51.49,-157.73 44.45,-147.64 38.33,-138.87"/>
<polygon fill="#63b8ff" stroke="#63b8ff" points="41.2,-136.88 32.61,-130.68 35.46,-140.89 41.2,-136.88"/>
</g>
<!-- Node3 -->
<g id="node3" class="node">
<title>Node3</title>
<g id="a_node3"><a xlink:href="stringutil_8h.html" target="_top" xlink:title=" ">
<polygon fill="white" stroke="#666666" points="130,-129 69,-129 69,-110 130,-110 130,-129"/>
<text text-anchor="middle" x="99.5" y="-117" font-family="Helvetica,sans-Serif" font-size="10.00">stringutil.h</text>
</a>
</g>
</g>
<!-- Node1&#45;&gt;Node3 -->
<g id="edge2" class="edge">
<title>Node1&#45;&gt;Node3</title>
<path fill="none" stroke="#63b8ff" d="M68.61,-164.75C73.51,-157.73 80.55,-147.64 86.67,-138.87"/>
<polygon fill="#63b8ff" stroke="#63b8ff" points="89.54,-140.89 92.39,-130.68 83.8,-136.88 89.54,-140.89"/>
</g>
<!-- Node4 -->
<g id="node4" class="node">
<title>Node4</title>
<g id="a_node4"><a xlink:href="generator_8h.html" target="_top" xlink:title=" ">
<polygon fill="white" stroke="#666666" points="156,-74 43,-74 43,-55 156,-55 156,-74"/>
<text text-anchor="middle" x="99.5" y="-62" font-family="Helvetica,sans-Serif" font-size="10.00">coroutines/generator.h</text>
</a>
</g>
</g>
<!-- Node3&#45;&gt;Node4 -->
<g id="edge3" class="edge">
<title>Node3&#45;&gt;Node4</title>
<path fill="none" stroke="#63b8ff" d="M99.5,-109.75C99.5,-103.27 99.5,-94.16 99.5,-85.9"/>
<polygon fill="#63b8ff" stroke="#63b8ff" points="103,-85.96 99.5,-75.96 96,-85.96 103,-85.96"/>
</g>
<!-- Node5 -->
<g id="node5" class="node">
<title>Node5</title>
<g id="a_node5"><a xlink:href="manuallifetime_8h.html" target="_top" xlink:title=" ">
<polygon fill="white" stroke="#666666" points="101,-19 6,-19 6,0 101,0 101,-19"/>
<text text-anchor="middle" x="53.5" y="-7" font-family="Helvetica,sans-Serif" font-size="10.00">../manuallifetime.h</text>
</a>
</g>
</g>
<!-- Node4&#45;&gt;Node5 -->
<g id="edge4" class="edge">
<title>Node4&#45;&gt;Node5</title>
<path fill="none" stroke="#63b8ff" d="M91.9,-54.75C85.62,-47.5 76.49,-36.98 68.7,-28.02"/>
<polygon fill="#63b8ff" stroke="#63b8ff" points="71.45,-25.84 62.25,-20.59 66.16,-30.43 71.45,-25.84"/>
</g>
<!-- Node6 -->
<g id="node6" class="node">
<title>Node6</title>
<g id="a_node6"><a xlink:href="src_2_generic_2coroutines_2handle_8h.html" target="_top" xlink:title=" ">
<polygon fill="white" stroke="#666666" points="172,-19 119,-19 119,0 172,0 172,-19"/>
<text text-anchor="middle" x="145.5" y="-7" font-family="Helvetica,sans-Serif" font-size="10.00">handle.h</text>
</a>
</g>
</g>
<!-- Node4&#45;&gt;Node6 -->
<g id="edge5" class="edge">
<title>Node4&#45;&gt;Node6</title>
<path fill="none" stroke="#63b8ff" d="M107.1,-54.75C113.38,-47.5 122.51,-36.98 130.3,-28.02"/>
<polygon fill="#63b8ff" stroke="#63b8ff" points="132.84,-30.43 136.75,-20.59 127.55,-25.84 132.84,-30.43"/>
</g>
</g>
</svg>
