<?xml version="1.0" encoding="UTF-8" standalone="no"?>
<!DOCTYPE svg PUBLIC "-//W3C//DTD SVG 1.1//EN"
 "http://www.w3.org/Graphics/SVG/1.1/DTD/svg11.dtd">
<!-- Generated by graphviz version 7.0.5 (20221223.1930)
 -->
<!-- Title: src/Madgine/cli/cli.cpp Pages: 1 -->
<svg width="448pt" height="148pt"
 viewBox="0.00 0.00 448.00 148.00" xmlns="http://www.w3.org/2000/svg" xmlns:xlink="http://www.w3.org/1999/xlink">
<g id="graph0" class="graph" transform="scale(1 1) rotate(0) translate(4 144)">
<title>src/Madgine/cli/cli.cpp</title>
<!-- Node1 -->
<g id="node1" class="node">
<title>Node1</title>
<g id="a_node1"><a xlink:title=" ">
<polygon fill="#999999" stroke="#666666" points="312,-140 199,-140 199,-121 312,-121 312,-140"/>
<text text-anchor="middle" x="255.5" y="-128" font-family="Helvetica,sans-Serif" font-size="10.00">src/Madgine/cli/cli.cpp</text>
</a>
</g>
</g>
<!-- Node2 -->
<g id="node2" class="node">
<title>Node2</title>
<g id="a_node2"><a xlink:href="clilib_8h.html" target="_top" xlink:title=" ">
<polygon fill="white" stroke="#666666" points="196.5,-85 152.5,-85 152.5,-66 196.5,-66 196.5,-85"/>
<text text-anchor="middle" x="174.5" y="-73" font-family="Helvetica,sans-Serif" font-size="10.00">clilib.h</text>
</a>
</g>
</g>
<!-- Node1&#45;&gt;Node2 -->
<g id="edge1" class="edge">
<title>Node1&#45;&gt;Node2</title>
<path fill="none" stroke="#63b8ff" d="M241.76,-120.51C229.7,-112.62 211.91,-100.98 197.66,-91.65"/>
<polygon fill="#63b8ff" stroke="#63b8ff" points="199.59,-88.73 189.3,-86.19 195.76,-94.59 199.59,-88.73"/>
</g>
<!-- Node5 -->
<g id="node5" class="node">
<title>Node5</title>
<g id="a_node5"><a xlink:href="cli_8h.html" target="_top" xlink:title=" ">
<polygon fill="white" stroke="#666666" points="272.5,-85 238.5,-85 238.5,-66 272.5,-66 272.5,-85"/>
<text text-anchor="middle" x="255.5" y="-73" font-family="Helvetica,sans-Serif" font-size="10.00">cli.h</text>
</a>
</g>
</g>
<!-- Node1&#45;&gt;Node5 -->
<g id="edge4" class="edge">
<title>Node1&#45;&gt;Node5</title>
<path fill="none" stroke="#63b8ff" d="M255.5,-120.75C255.5,-114.27 255.5,-105.16 255.5,-96.9"/>
<polygon fill="#63b8ff" stroke="#63b8ff" points="259,-96.96 255.5,-86.96 252,-96.96 259,-96.96"/>
</g>
<!-- Node7 -->
<g id="node7" class="node">
<title>Node7</title>
<g id="a_node7"><a xlink:href="parameter_8h.html" target="_top" xlink:title=" ">
<polygon fill="white" stroke="#666666" points="358.5,-85 290.5,-85 290.5,-66 358.5,-66 358.5,-85"/>
<text text-anchor="middle" x="324.5" y="-73" font-family="Helvetica,sans-Serif" font-size="10.00">parameter.h</text>
</a>
</g>
</g>
<!-- Node1&#45;&gt;Node7 -->
<g id="edge6" class="edge">
<title>Node1&#45;&gt;Node7</title>
<path fill="none" stroke="#63b8ff" d="M267.2,-120.51C277.28,-112.77 292.04,-101.43 304.06,-92.2"/>
<polygon fill="#63b8ff" stroke="#63b8ff" points="305.97,-95.15 311.77,-86.28 301.71,-89.6 305.97,-95.15"/>
</g>
<!-- Node3 -->
<g id="node3" class="node">
<title>Node3</title>
<g id="a_node3"><a xlink:href="interfaceslib_8h.html" target="_top" xlink:title=" ">
<polygon fill="white" stroke="#666666" points="123,-24.5 0,-24.5 0,-5.5 123,-5.5 123,-24.5"/>
<text text-anchor="middle" x="61.5" y="-12.5" font-family="Helvetica,sans-Serif" font-size="10.00">Interfaces/interfaceslib.h</text>
</a>
</g>
</g>
<!-- Node2&#45;&gt;Node3 -->
<g id="edge2" class="edge">
<title>Node2&#45;&gt;Node3</title>
<path fill="none" stroke="#63b8ff" d="M157.34,-65.62C139.17,-56.21 110.22,-41.22 88.89,-30.18"/>
<polygon fill="#63b8ff" stroke="#63b8ff" points="90.66,-27.15 80.17,-25.66 87.44,-33.37 90.66,-27.15"/>
</g>
<!-- Node4 -->
<g id="node4" class="node">
<title>Node4</title>
<g id="a_node4"><a xlink:href="cliforward_8h.html" target="_top" xlink:title=" ">
<polygon fill="white" stroke="#666666" points="207.5,-24.5 141.5,-24.5 141.5,-5.5 207.5,-5.5 207.5,-24.5"/>
<text text-anchor="middle" x="174.5" y="-12.5" font-family="Helvetica,sans-Serif" font-size="10.00">cliforward.h</text>
</a>
</g>
</g>
<!-- Node2&#45;&gt;Node4 -->
<g id="edge3" class="edge">
<title>Node2&#45;&gt;Node4</title>
<path fill="none" stroke="#63b8ff" d="M174.5,-65.87C174.5,-58 174.5,-46.1 174.5,-35.89"/>
<polygon fill="#63b8ff" stroke="#63b8ff" points="178,-36.18 174.5,-26.18 171,-36.18 178,-36.18"/>
</g>
<!-- Node6 -->
<g id="node6" class="node">
<title>Node6</title>
<g id="a_node6"><a xlink:href="path_8h.html" target="_top" xlink:title=" ">
<polygon fill="white" stroke="#666666" points="333,-30 226,-30 226,0 333,0 333,-30"/>
<text text-anchor="start" x="234" y="-18" font-family="Helvetica,sans-Serif" font-size="10.00">Interfaces/filesystem</text>
<text text-anchor="middle" x="279.5" y="-7" font-family="Helvetica,sans-Serif" font-size="10.00">/path.h</text>
</a>
</g>
</g>
<!-- Node5&#45;&gt;Node6 -->
<g id="edge5" class="edge">
<title>Node5&#45;&gt;Node6</title>
<path fill="none" stroke="#63b8ff" d="M259.04,-65.87C261.79,-59.18 265.73,-49.57 269.42,-40.56"/>
<polygon fill="#63b8ff" stroke="#63b8ff" points="272.58,-42.1 273.13,-31.51 266.1,-39.44 272.58,-42.1"/>
</g>
<!-- Node7&#45;&gt;Node6 -->
<g id="edge8" class="edge">
<title>Node7&#45;&gt;Node6</title>
<path fill="none" stroke="#63b8ff" d="M317.86,-65.87C312.43,-58.81 304.5,-48.5 297.25,-39.08"/>
<polygon fill="#63b8ff" stroke="#63b8ff" points="300.15,-37.11 291.28,-31.31 294.6,-41.37 300.15,-37.11"/>
</g>
<!-- Node8 -->
<g id="node8" class="node">
<title>Node8</title>
<g id="a_node8"><a xlink:href="parameterbase_8h.html" target="_top" xlink:title=" ">
<polygon fill="white" stroke="#666666" points="440,-24.5 351,-24.5 351,-5.5 440,-5.5 440,-24.5"/>
<text text-anchor="middle" x="395.5" y="-12.5" font-family="Helvetica,sans-Serif" font-size="10.00">parameterbase.h</text>
</a>
</g>
</g>
<!-- Node7&#45;&gt;Node8 -->
<g id="edge7" class="edge">
<title>Node7&#45;&gt;Node8</title>
<path fill="none" stroke="#63b8ff" d="M335.28,-65.62C346.02,-56.77 362.75,-42.98 375.85,-32.19"/>
<polygon fill="#63b8ff" stroke="#63b8ff" points="377.95,-34.99 383.45,-25.93 373.5,-29.59 377.95,-34.99"/>
</g>
</g>
</svg>
