<?xml version="1.0" encoding="UTF-8" standalone="no"?>
<!DOCTYPE svg PUBLIC "-//W3C//DTD SVG 1.1//EN"
 "http://www.w3.org/Graphics/SVG/1.1/DTD/svg11.dtd">
<!-- Generated by graphviz version 7.0.5 (20221223.1930)
 -->
<!-- Title: src/Madgine/cli/cliforward.h Pages: 1 -->
<svg width="308pt" height="137pt"
 viewBox="0.00 0.00 307.50 137.00" xmlns="http://www.w3.org/2000/svg" xmlns:xlink="http://www.w3.org/1999/xlink">
<g id="graph0" class="graph" transform="scale(1 1) rotate(0) translate(4 133)">
<title>src/Madgine/cli/cliforward.h</title>
<!-- Node1 -->
<g id="node1" class="node">
<title>Node1</title>
<g id="a_node1"><a xlink:title=" ">
<polygon fill="#999999" stroke="#666666" points="203,-129 68,-129 68,-110 203,-110 203,-129"/>
<text text-anchor="middle" x="135.5" y="-117" font-family="Helvetica,sans-Serif" font-size="10.00">src/Madgine/cli/cliforward.h</text>
</a>
</g>
</g>
<!-- Node2 -->
<g id="node2" class="node">
<title>Node2</title>
<g id="a_node2"><a xlink:href="clilib_8h.html" target="_top" xlink:title=" ">
<polygon fill="white" stroke="#666666" points="192,-74 79,-74 79,-55 192,-55 192,-74"/>
<text text-anchor="middle" x="135.5" y="-62" font-family="Helvetica,sans-Serif" font-size="10.00">src/Madgine/cli/clilib.h</text>
</a>
</g>
</g>
<!-- Node1&#45;&gt;Node2 -->
<g id="edge1" class="edge">
<title>Node1&#45;&gt;Node2</title>
<path fill="none" stroke="#63b8ff" d="M135.5,-98.35C135.5,-90.1 135.5,-80.97 135.5,-74.44"/>
<polygon fill="#63b8ff" stroke="#63b8ff" points="132,-98.23 135.5,-108.23 139,-98.23 132,-98.23"/>
</g>
<!-- Node3 -->
<g id="node3" class="node">
<title>Node3</title>
<g id="a_node3"><a xlink:href="cli_8cpp.html" target="_top" xlink:title=" ">
<polygon fill="white" stroke="#666666" points="113,-19 0,-19 0,0 113,0 113,-19"/>
<text text-anchor="middle" x="56.5" y="-7" font-family="Helvetica,sans-Serif" font-size="10.00">src/Madgine/cli/cli.cpp</text>
</a>
</g>
</g>
<!-- Node2&#45;&gt;Node3 -->
<g id="edge2" class="edge">
<title>Node2&#45;&gt;Node3</title>
<path fill="none" stroke="#63b8ff" d="M112.68,-48.19C98.74,-38.84 81.4,-27.21 69.7,-19.36"/>
<polygon fill="#63b8ff" stroke="#63b8ff" points="110.59,-51 120.84,-53.67 114.49,-45.19 110.59,-51"/>
</g>
<!-- Node4 -->
<g id="node4" class="node">
<title>Node4</title>
<g id="a_node4"><a xlink:href="parameterbase_8cpp.html" target="_top" xlink:title=" ">
<polygon fill="white" stroke="#666666" points="299.5,-19 131.5,-19 131.5,0 299.5,0 299.5,-19"/>
<text text-anchor="middle" x="215.5" y="-7" font-family="Helvetica,sans-Serif" font-size="10.00">src/Madgine/cli/parameterbase.cpp</text>
</a>
</g>
</g>
<!-- Node2&#45;&gt;Node4 -->
<g id="edge3" class="edge">
<title>Node2&#45;&gt;Node4</title>
<path fill="none" stroke="#63b8ff" d="M158.61,-48.19C172.73,-38.84 190.28,-27.21 202.13,-19.36"/>
<polygon fill="#63b8ff" stroke="#63b8ff" points="156.74,-45.23 150.33,-53.67 160.6,-51.07 156.74,-45.23"/>
</g>
</g>
</svg>
