<?xml version="1.0" encoding="UTF-8" standalone="no"?>
<!DOCTYPE svg PUBLIC "-//W3C//DTD SVG 1.1//EN"
 "http://www.w3.org/Graphics/SVG/1.1/DTD/svg11.dtd">
<!-- Generated by graphviz version 7.0.5 (20221223.1930)
 -->
<!-- Title: src/Madgine/codegen/codegenlib.h Pages: 1 -->
<svg width="473pt" height="148pt"
 viewBox="0.00 0.00 473.00 148.00" xmlns="http://www.w3.org/2000/svg" xmlns:xlink="http://www.w3.org/1999/xlink">
<g id="graph0" class="graph" transform="scale(1 1) rotate(0) translate(4 144)">
<title>src/Madgine/codegen/codegenlib.h</title>
<!-- Node1 -->
<g id="node1" class="node">
<title>Node1</title>
<g id="a_node1"><a xlink:title=" ">
<polygon fill="#999999" stroke="#666666" points="324,-140 214,-140 214,-110 324,-110 324,-140"/>
<text text-anchor="start" x="222" y="-128" font-family="Helvetica,sans-Serif" font-size="10.00">src/Madgine/codegen</text>
<text text-anchor="middle" x="269" y="-117" font-family="Helvetica,sans-Serif" font-size="10.00">/codegenlib.h</text>
</a>
</g>
</g>
<!-- Node2 -->
<g id="node2" class="node">
<title>Node2</title>
<g id="a_node2"><a xlink:href="genericlib_8h.html" target="_top" xlink:title=" ">
<polygon fill="white" stroke="#666666" points="102,-19 0,-19 0,0 102,0 102,-19"/>
<text text-anchor="middle" x="51" y="-7" font-family="Helvetica,sans-Serif" font-size="10.00">Generic/genericlib.h</text>
</a>
</g>
</g>
<!-- Node1&#45;&gt;Node2 -->
<g id="edge1" class="edge">
<title>Node1&#45;&gt;Node2</title>
<path fill="none" stroke="#63b8ff" d="M213.75,-116.34C162.28,-108.12 90.47,-93.57 70,-74 58.28,-62.8 53.71,-44.69 51.96,-30.68"/>
<polygon fill="#63b8ff" stroke="#63b8ff" points="55.46,-30.46 51.16,-20.78 48.48,-31.03 55.46,-30.46"/>
</g>
<!-- Node3 -->
<g id="node3" class="node">
<title>Node3</title>
<g id="a_node3"><a xlink:href="metalib_8h.html" target="_top" xlink:title=" ">
<polygon fill="white" stroke="#666666" points="159,-74 79,-74 79,-55 159,-55 159,-74"/>
<text text-anchor="middle" x="119" y="-62" font-family="Helvetica,sans-Serif" font-size="10.00">Meta/metalib.h</text>
</a>
</g>
</g>
<!-- Node1&#45;&gt;Node3 -->
<g id="edge2" class="edge">
<title>Node1&#45;&gt;Node3</title>
<path fill="none" stroke="#63b8ff" d="M231.92,-109.54C207.51,-100.02 175.81,-87.66 152.22,-78.46"/>
<polygon fill="#63b8ff" stroke="#63b8ff" points="153.68,-75.27 143.09,-74.9 151.14,-81.79 153.68,-75.27"/>
</g>
<!-- Node5 -->
<g id="node5" class="node">
<title>Node5</title>
<g id="a_node5"><a xlink:href="codegenforward_8h.html" target="_top" xlink:title=" ">
<polygon fill="white" stroke="#666666" points="270.5,-74 177.5,-74 177.5,-55 270.5,-55 270.5,-74"/>
<text text-anchor="middle" x="224" y="-62" font-family="Helvetica,sans-Serif" font-size="10.00">codegenforward.h</text>
</a>
</g>
</g>
<!-- Node1&#45;&gt;Node5 -->
<g id="edge5" class="edge">
<title>Node1&#45;&gt;Node5</title>
<path fill="none" stroke="#63b8ff" d="M257.88,-109.54C251.74,-101.56 244.07,-91.59 237.59,-83.16"/>
<polygon fill="#63b8ff" stroke="#63b8ff" points="240.47,-81.17 231.6,-75.37 234.92,-85.44 240.47,-81.17"/>
</g>
<!-- Node6 -->
<g id="node6" class="node">
<title>Node6</title>
<g id="a_node6"><a xlink:title=" ">
<polygon fill="#e0e0e0" stroke="#999999" points="341,-74 289,-74 289,-55 341,-55 341,-74"/>
<text text-anchor="middle" x="315" y="-62" font-family="Helvetica,sans-Serif" font-size="10.00">sstream</text>
</a>
</g>
</g>
<!-- Node1&#45;&gt;Node6 -->
<g id="edge6" class="edge">
<title>Node1&#45;&gt;Node6</title>
<path fill="none" stroke="#63b8ff" d="M280.37,-109.54C286.64,-101.56 294.48,-91.59 301.11,-83.16"/>
<polygon fill="#63b8ff" stroke="#63b8ff" points="303.81,-85.39 307.24,-75.36 298.31,-81.06 303.81,-85.39"/>
</g>
<!-- Node7 -->
<g id="node7" class="node">
<title>Node7</title>
<g id="a_node7"><a xlink:title=" ">
<polygon fill="#e0e0e0" stroke="#999999" points="400.5,-74 359.5,-74 359.5,-55 400.5,-55 400.5,-74"/>
<text text-anchor="middle" x="380" y="-62" font-family="Helvetica,sans-Serif" font-size="10.00">stack</text>
</a>
</g>
</g>
<!-- Node1&#45;&gt;Node7 -->
<g id="edge7" class="edge">
<title>Node1&#45;&gt;Node7</title>
<path fill="none" stroke="#63b8ff" d="M296.44,-109.54C313.77,-100.4 336.06,-88.66 353.25,-79.6"/>
<polygon fill="#63b8ff" stroke="#63b8ff" points="354.66,-82.81 361.88,-75.05 351.4,-76.62 354.66,-82.81"/>
</g>
<!-- Node8 -->
<g id="node8" class="node">
<title>Node8</title>
<g id="a_node8"><a xlink:title=" ">
<polygon fill="#e0e0e0" stroke="#999999" points="465,-74 419,-74 419,-55 465,-55 465,-74"/>
<text text-anchor="middle" x="442" y="-62" font-family="Helvetica,sans-Serif" font-size="10.00">variant</text>
</a>
</g>
</g>
<!-- Node1&#45;&gt;Node8 -->
<g id="edge8" class="edge">
<title>Node1&#45;&gt;Node8</title>
<path fill="none" stroke="#63b8ff" d="M311.76,-109.54C341.49,-99.49 380.56,-86.27 408.13,-76.95"/>
<polygon fill="#63b8ff" stroke="#63b8ff" points="409.03,-80.34 417.38,-73.82 406.79,-73.71 409.03,-80.34"/>
</g>
<!-- Node3&#45;&gt;Node2 -->
<g id="edge3" class="edge">
<title>Node3&#45;&gt;Node2</title>
<path fill="none" stroke="#63b8ff" d="M107.46,-54.51C97.54,-46.77 82.99,-35.43 71.14,-26.2"/>
<polygon fill="#63b8ff" stroke="#63b8ff" points="73.6,-23.68 63.56,-20.29 69.29,-29.2 73.6,-23.68"/>
</g>
<!-- Node4 -->
<g id="node4" class="node">
<title>Node4</title>
<g id="a_node4"><a xlink:title=" ">
<polygon fill="#e0e0e0" stroke="#999999" points="191.5,-19 120.5,-19 120.5,0 191.5,0 191.5,-19"/>
<text text-anchor="middle" x="156" y="-7" font-family="Helvetica,sans-Serif" font-size="10.00">metaconfig.h</text>
</a>
</g>
</g>
<!-- Node3&#45;&gt;Node4 -->
<g id="edge4" class="edge">
<title>Node3&#45;&gt;Node4</title>
<path fill="none" stroke="#63b8ff" d="M125.11,-54.75C130.01,-47.73 137.05,-37.64 143.17,-28.87"/>
<polygon fill="#63b8ff" stroke="#63b8ff" points="146.04,-30.89 148.89,-20.68 140.3,-26.88 146.04,-30.89"/>
</g>
</g>
</svg>
