<?xml version="1.0" encoding="UTF-8" standalone="no"?>
<!DOCTYPE svg PUBLIC "-//W3C//DTD SVG 1.1//EN"
 "http://www.w3.org/Graphics/SVG/1.1/DTD/svg11.dtd">
<!-- Generated by graphviz version 7.0.5 (20221223.1930)
 -->
<!-- Title: src/Madgine/codegen/codegen_shader.h Pages: 1 -->
<svg width="1560pt" height="104pt"
 viewBox="0.00 0.00 1559.50 104.00" xmlns="http://www.w3.org/2000/svg" xmlns:xlink="http://www.w3.org/1999/xlink">
<g id="graph0" class="graph" transform="scale(1 1) rotate(0) translate(4 100)">
<title>src/Madgine/codegen/codegen_shader.h</title>
<!-- Node1 -->
<g id="node1" class="node">
<title>Node1</title>
<g id="a_node1"><a xlink:title=" ">
<polygon fill="#999999" stroke="#666666" points="888.5,-96 778.5,-96 778.5,-66 888.5,-66 888.5,-96"/>
<text text-anchor="start" x="786.5" y="-84" font-family="Helvetica,sans-Serif" font-size="10.00">src/Madgine/codegen</text>
<text text-anchor="middle" x="833.5" y="-73" font-family="Helvetica,sans-Serif" font-size="10.00">/codegen_shader.h</text>
</a>
</g>
</g>
<!-- Node2 -->
<g id="node2" class="node">
<title>Node2</title>
<g id="a_node2"><a xlink:href="pipelineloader_8cpp.html" target="_top" xlink:title=" ">
<polygon fill="white" stroke="#666666" points="183,-30 0,-30 0,0 183,0 183,-30"/>
<text text-anchor="start" x="8" y="-18" font-family="Helvetica,sans-Serif" font-size="10.00">plugins/renderer/api</text>
<text text-anchor="middle" x="91.5" y="-7" font-family="Helvetica,sans-Serif" font-size="10.00">/src/Madgine/render/pipelineloader.cpp</text>
</a>
</g>
</g>
<!-- Node1&#45;&gt;Node2 -->
<g id="edge1" class="edge">
<title>Node1&#45;&gt;Node2</title>
<path fill="none" stroke="#63b8ff" d="M766.89,-76.12C650.28,-69.04 401.66,-52.63 192.5,-30 189.51,-29.68 186.47,-29.33 183.4,-28.98"/>
<polygon fill="#63b8ff" stroke="#63b8ff" points="766.39,-79.6 776.58,-76.71 766.81,-72.61 766.39,-79.6"/>
</g>
<!-- Node3 -->
<g id="node3" class="node">
<title>Node3</title>
<g id="a_node3"><a xlink:href="directx12pipelineloader_8cpp.html" target="_top" xlink:title=" ">
<polygon fill="white" stroke="#666666" points="399.5,-30 201.5,-30 201.5,0 399.5,0 399.5,-30"/>
<text text-anchor="start" x="209.5" y="-18" font-family="Helvetica,sans-Serif" font-size="10.00">plugins/renderer/directx12</text>
<text text-anchor="middle" x="300.5" y="-7" font-family="Helvetica,sans-Serif" font-size="10.00">/src/DirectX12/directx12pipelineloader.cpp</text>
</a>
</g>
</g>
<!-- Node1&#45;&gt;Node3 -->
<g id="edge2" class="edge">
<title>Node1&#45;&gt;Node3</title>
<path fill="none" stroke="#63b8ff" d="M766.74,-72.39C683.02,-62.8 535.08,-45.65 408.5,-30 405.69,-29.65 402.83,-29.3 399.95,-28.94"/>
<polygon fill="#63b8ff" stroke="#63b8ff" points="766.28,-75.86 776.62,-73.52 767.08,-68.91 766.28,-75.86"/>
</g>
<!-- Node4 -->
<g id="node4" class="node">
<title>Node4</title>
<g id="a_node4"><a xlink:href="directx12shadercodegen_8cpp.html" target="_top" xlink:title=" ">
<polygon fill="white" stroke="#666666" points="623,-30 418,-30 418,0 623,0 623,-30"/>
<text text-anchor="start" x="426" y="-18" font-family="Helvetica,sans-Serif" font-size="10.00">plugins/renderer/directx12</text>
<text text-anchor="middle" x="520.5" y="-7" font-family="Helvetica,sans-Serif" font-size="10.00">/src/DirectX12/directx12shadercodegen.cpp</text>
</a>
</g>
</g>
<!-- Node1&#45;&gt;Node4 -->
<g id="edge3" class="edge">
<title>Node1&#45;&gt;Node4</title>
<path fill="none" stroke="#63b8ff" d="M767.24,-66.45C715.63,-55.9 644.15,-41.28 591.4,-30.5"/>
<polygon fill="#63b8ff" stroke="#63b8ff" points="766.28,-69.83 776.78,-68.4 767.68,-62.97 766.28,-69.83"/>
</g>
<!-- Node5 -->
<g id="node5" class="node">
<title>Node5</title>
<g id="a_node5"><a xlink:href="openglpipelineloader_8cpp.html" target="_top" xlink:title=" ">
<polygon fill="white" stroke="#666666" points="823.5,-30 641.5,-30 641.5,0 823.5,0 823.5,-30"/>
<text text-anchor="start" x="649.5" y="-18" font-family="Helvetica,sans-Serif" font-size="10.00">plugins/renderer/opengl</text>
<text text-anchor="middle" x="732.5" y="-7" font-family="Helvetica,sans-Serif" font-size="10.00">/src/OpenGL/openglpipelineloader.cpp</text>
</a>
</g>
</g>
<!-- Node1&#45;&gt;Node5 -->
<g id="edge4" class="edge">
<title>Node1&#45;&gt;Node5</title>
<path fill="none" stroke="#63b8ff" d="M801.37,-59.64C786.31,-50.09 768.72,-38.95 755.09,-30.31"/>
<polygon fill="#63b8ff" stroke="#63b8ff" points="799.23,-62.43 809.56,-64.83 802.98,-56.52 799.23,-62.43"/>
</g>
<!-- Node6 -->
<g id="node6" class="node">
<title>Node6</title>
<g id="a_node6"><a xlink:href="openglshadercodegen_8cpp.html" target="_top" xlink:title=" ">
<polygon fill="white" stroke="#666666" points="1029.5,-30 841.5,-30 841.5,0 1029.5,0 1029.5,-30"/>
<text text-anchor="start" x="849.5" y="-18" font-family="Helvetica,sans-Serif" font-size="10.00">plugins/renderer/opengl</text>
<text text-anchor="middle" x="935.5" y="-7" font-family="Helvetica,sans-Serif" font-size="10.00">/src/OpenGL/openglshadercodegen.cpp</text>
</a>
</g>
</g>
<!-- Node1&#45;&gt;Node6 -->
<g id="edge5" class="edge">
<title>Node1&#45;&gt;Node6</title>
<path fill="none" stroke="#63b8ff" d="M865.95,-59.64C881.16,-50.09 898.92,-38.95 912.69,-30.31"/>
<polygon fill="#63b8ff" stroke="#63b8ff" points="864.28,-56.55 857.67,-64.83 868,-62.48 864.28,-56.55"/>
</g>
<!-- Node7 -->
<g id="node7" class="node">
<title>Node7</title>
<g id="a_node7"><a xlink:href="vulkanpipelineloader_8cpp.html" target="_top" xlink:title=" ">
<polygon fill="white" stroke="#666666" points="1223,-30 1048,-30 1048,0 1223,0 1223,-30"/>
<text text-anchor="start" x="1056" y="-18" font-family="Helvetica,sans-Serif" font-size="10.00">plugins/renderer/vulkan</text>
<text text-anchor="middle" x="1135.5" y="-7" font-family="Helvetica,sans-Serif" font-size="10.00">/src/Vulkan/vulkanpipelineloader.cpp</text>
</a>
</g>
</g>
<!-- Node1&#45;&gt;Node7 -->
<g id="edge6" class="edge">
<title>Node1&#45;&gt;Node7</title>
<path fill="none" stroke="#63b8ff" d="M900.14,-65.88C949.75,-55.37 1017.23,-41.06 1067.23,-30.47"/>
<polygon fill="#63b8ff" stroke="#63b8ff" points="899.43,-62.45 890.37,-67.95 900.88,-69.3 899.43,-62.45"/>
</g>
<!-- Node8 -->
<g id="node8" class="node">
<title>Node8</title>
<g id="a_node8"><a xlink:href="vulkanshadercodegen_8cpp.html" target="_top" xlink:title=" ">
<polygon fill="white" stroke="#666666" points="1423.5,-30 1241.5,-30 1241.5,0 1423.5,0 1423.5,-30"/>
<text text-anchor="start" x="1249.5" y="-18" font-family="Helvetica,sans-Serif" font-size="10.00">plugins/renderer/vulkan</text>
<text text-anchor="middle" x="1332.5" y="-7" font-family="Helvetica,sans-Serif" font-size="10.00">/src/Vulkan/vulkanshadercodegen.cpp</text>
</a>
</g>
</g>
<!-- Node1&#45;&gt;Node8 -->
<g id="edge7" class="edge">
<title>Node1&#45;&gt;Node8</title>
<path fill="none" stroke="#63b8ff" d="M899.98,-71.97C979.21,-62.32 1115.58,-45.51 1232.5,-30 1235.37,-29.62 1238.28,-29.23 1241.22,-28.83"/>
<polygon fill="#63b8ff" stroke="#63b8ff" points="899.72,-68.47 890.22,-73.15 900.57,-75.42 899.72,-68.47"/>
</g>
<!-- Node9 -->
<g id="node9" class="node">
<title>Node9</title>
<g id="a_node9"><a xlink:href="codegen__shader_8cpp.html" target="_top" xlink:title=" ">
<polygon fill="white" stroke="#666666" points="1551.5,-30 1441.5,-30 1441.5,0 1551.5,0 1551.5,-30"/>
<text text-anchor="start" x="1449.5" y="-18" font-family="Helvetica,sans-Serif" font-size="10.00">src/Madgine/codegen</text>
<text text-anchor="middle" x="1496.5" y="-7" font-family="Helvetica,sans-Serif" font-size="10.00">/codegen_shader.cpp</text>
</a>
</g>
</g>
<!-- Node1&#45;&gt;Node9 -->
<g id="edge8" class="edge">
<title>Node1&#45;&gt;Node9</title>
<path fill="none" stroke="#63b8ff" d="M900.02,-77.32C1010.93,-72.21 1240.39,-58.9 1432.5,-30 1435.31,-29.58 1438.18,-29.1 1441.08,-28.59"/>
<polygon fill="#63b8ff" stroke="#63b8ff" points="900.05,-73.81 890.21,-77.76 900.36,-80.81 900.05,-73.81"/>
</g>
</g>
</svg>
