<?xml version="1.0" encoding="UTF-8" standalone="no"?>
<!DOCTYPE svg PUBLIC "-//W3C//DTD SVG 1.1//EN"
 "http://www.w3.org/Graphics/SVG/1.1/DTD/svg11.dtd">
<!-- Generated by graphviz version 7.0.5 (20221223.1930)
 -->
<!-- Title: src/Madgine/codegen/codegen.h Pages: 1 -->
<svg width="320pt" height="313pt"
 viewBox="0.00 0.00 320.00 313.00" xmlns="http://www.w3.org/2000/svg" xmlns:xlink="http://www.w3.org/1999/xlink">
<g id="graph0" class="graph" transform="scale(1 1) rotate(0) translate(4 309)">
<title>src/Madgine/codegen/codegen.h</title>
<!-- Node1 -->
<g id="node1" class="node">
<title>Node1</title>
<g id="a_node1"><a xlink:title=" ">
<polygon fill="#999999" stroke="#666666" points="153.5,-305 43.5,-305 43.5,-275 153.5,-275 153.5,-305"/>
<text text-anchor="start" x="51.5" y="-293" font-family="Helvetica,sans-Serif" font-size="10.00">src/Madgine/codegen</text>
<text text-anchor="middle" x="98.5" y="-282" font-family="Helvetica,sans-Serif" font-size="10.00">/codegen.h</text>
</a>
</g>
</g>
<!-- Node2 -->
<g id="node2" class="node">
<title>Node2</title>
<g id="a_node2"><a xlink:href="array_8h.html" target="_top" xlink:title=" ">
<polygon fill="white" stroke="#666666" points="101,-129 0,-129 0,-110 101,-110 101,-129"/>
<text text-anchor="middle" x="50.5" y="-117" font-family="Helvetica,sans-Serif" font-size="10.00">Generic/bits/array.h</text>
</a>
</g>
</g>
<!-- Node1&#45;&gt;Node2 -->
<g id="edge1" class="edge">
<title>Node1&#45;&gt;Node2</title>
<path fill="none" stroke="#63b8ff" d="M87.28,-274.52C80.45,-264.96 72.18,-251.86 67.5,-239 55.52,-206.04 51.94,-165.04 50.9,-140.93"/>
<polygon fill="#63b8ff" stroke="#63b8ff" points="54.4,-140.82 50.59,-130.94 47.4,-141.04 54.4,-140.82"/>
</g>
<!-- Node4 -->
<g id="node4" class="node">
<title>Node4</title>
<g id="a_node4"><a xlink:href="tinyvector_8h.html" target="_top" xlink:title=" ">
<polygon fill="white" stroke="#666666" points="222.5,-239 76.5,-239 76.5,-220 222.5,-220 222.5,-239"/>
<text text-anchor="middle" x="149.5" y="-227" font-family="Helvetica,sans-Serif" font-size="10.00">Generic/container/tinyvector.h</text>
</a>
</g>
</g>
<!-- Node1&#45;&gt;Node4 -->
<g id="edge3" class="edge">
<title>Node1&#45;&gt;Node4</title>
<path fill="none" stroke="#63b8ff" d="M111.11,-274.54C118.21,-266.39 127.13,-256.16 134.58,-247.61"/>
<polygon fill="#63b8ff" stroke="#63b8ff" points="137.01,-250.15 140.94,-240.32 131.73,-245.55 137.01,-250.15"/>
</g>
<!-- Node3 -->
<g id="node3" class="node">
<title>Node3</title>
<g id="a_node3"><a xlink:href="types_8h.html" target="_top" xlink:title=" ">
<polygon fill="white" stroke="#666666" points="210,-19 163,-19 163,0 210,0 210,-19"/>
<text text-anchor="middle" x="186.5" y="-7" font-family="Helvetica,sans-Serif" font-size="10.00">types.h</text>
</a>
</g>
</g>
<!-- Node2&#45;&gt;Node3 -->
<g id="edge2" class="edge">
<title>Node2&#45;&gt;Node3</title>
<path fill="none" stroke="#63b8ff" d="M58.55,-109.71C70.51,-96.9 94,-72.69 116.5,-55 130.48,-44.01 147.27,-33.26 160.9,-25.09"/>
<polygon fill="#63b8ff" stroke="#63b8ff" points="162.46,-28.23 169.3,-20.14 158.91,-22.2 162.46,-28.23"/>
</g>
<!-- Node5 -->
<g id="node5" class="node">
<title>Node5</title>
<g id="a_node5"><a xlink:href="src_2_generic_2bits_2ptr_8h.html" target="_top" xlink:title=" ">
<polygon fill="white" stroke="#666666" points="138.5,-184 76.5,-184 76.5,-165 138.5,-165 138.5,-184"/>
<text text-anchor="middle" x="107.5" y="-172" font-family="Helvetica,sans-Serif" font-size="10.00">../bits/ptr.h</text>
</a>
</g>
</g>
<!-- Node4&#45;&gt;Node5 -->
<g id="edge4" class="edge">
<title>Node4&#45;&gt;Node5</title>
<path fill="none" stroke="#63b8ff" d="M142.56,-219.75C136.88,-212.58 128.66,-202.2 121.61,-193.3"/>
<polygon fill="#63b8ff" stroke="#63b8ff" points="124.48,-191.29 115.53,-185.63 118.99,-195.64 124.48,-191.29"/>
</g>
<!-- Node6 -->
<g id="node6" class="node">
<title>Node6</title>
<g id="a_node6"><a xlink:href="variant_8h.html" target="_top" xlink:title=" ">
<polygon fill="white" stroke="#666666" points="236.5,-184 156.5,-184 156.5,-165 236.5,-165 236.5,-184"/>
<text text-anchor="middle" x="196.5" y="-172" font-family="Helvetica,sans-Serif" font-size="10.00">../bits/variant.h</text>
</a>
</g>
</g>
<!-- Node4&#45;&gt;Node6 -->
<g id="edge5" class="edge">
<title>Node4&#45;&gt;Node6</title>
<path fill="none" stroke="#63b8ff" d="M157.26,-219.75C163.69,-212.5 173.01,-201.98 180.96,-193.02"/>
<polygon fill="#63b8ff" stroke="#63b8ff" points="183.55,-195.38 187.57,-185.57 178.31,-190.73 183.55,-195.38"/>
</g>
<!-- Node6&#45;&gt;Node3 -->
<g id="edge12" class="edge">
<title>Node6&#45;&gt;Node3</title>
<path fill="none" stroke="#63b8ff" d="M190.66,-164.66C179.95,-147.86 157.53,-109.79 149.5,-74 147.65,-65.76 146.63,-62.94 149.5,-55 153.23,-44.68 160.52,-35.06 167.64,-27.43"/>
<polygon fill="#63b8ff" stroke="#63b8ff" points="169.98,-30.04 174.64,-20.52 165.06,-25.06 169.98,-30.04"/>
</g>
<!-- Node7 -->
<g id="node7" class="node">
<title>Node7</title>
<g id="a_node7"><a xlink:href="freebits_8h.html" target="_top" xlink:title=" ">
<polygon fill="white" stroke="#666666" points="214.5,-74 158.5,-74 158.5,-55 214.5,-55 214.5,-74"/>
<text text-anchor="middle" x="186.5" y="-62" font-family="Helvetica,sans-Serif" font-size="10.00">freebits.h</text>
</a>
</g>
</g>
<!-- Node6&#45;&gt;Node7 -->
<g id="edge6" class="edge">
<title>Node6&#45;&gt;Node7</title>
<path fill="none" stroke="#63b8ff" d="M195.68,-164.66C194.1,-147.57 190.58,-109.61 188.39,-85.92"/>
<polygon fill="#63b8ff" stroke="#63b8ff" points="191.88,-85.6 187.47,-75.97 184.91,-86.25 191.88,-85.6"/>
</g>
<!-- Node8 -->
<g id="node8" class="node">
<title>Node8</title>
<g id="a_node8"><a xlink:href="pair_8h.html" target="_top" xlink:title=" ">
<polygon fill="white" stroke="#666666" points="260.5,-129 220.5,-129 220.5,-110 260.5,-110 260.5,-129"/>
<text text-anchor="middle" x="240.5" y="-117" font-family="Helvetica,sans-Serif" font-size="10.00">pair.h</text>
</a>
</g>
</g>
<!-- Node6&#45;&gt;Node8 -->
<g id="edge7" class="edge">
<title>Node6&#45;&gt;Node8</title>
<path fill="none" stroke="#63b8ff" d="M203.77,-164.75C209.78,-157.5 218.51,-146.98 225.96,-138.02"/>
<polygon fill="#63b8ff" stroke="#63b8ff" points="228.42,-140.54 232.11,-130.61 223.03,-136.07 228.42,-140.54"/>
</g>
<!-- Node8&#45;&gt;Node3 -->
<g id="edge9" class="edge">
<title>Node8&#45;&gt;Node3</title>
<path fill="none" stroke="#63b8ff" d="M239.39,-109.86C237.51,-97.23 232.94,-73.24 223.5,-55 218.32,-45 210.58,-35.22 203.52,-27.39"/>
<polygon fill="#63b8ff" stroke="#63b8ff" points="206.2,-25.13 196.77,-20.29 201.12,-29.95 206.2,-25.13"/>
</g>
<!-- Node8&#45;&gt;Node7 -->
<g id="edge8" class="edge">
<title>Node8&#45;&gt;Node7</title>
<path fill="none" stroke="#63b8ff" d="M231.58,-109.75C224.05,-102.35 213.03,-91.54 203.77,-82.45"/>
<polygon fill="#63b8ff" stroke="#63b8ff" points="206.28,-80.01 196.69,-75.5 201.38,-85 206.28,-80.01"/>
</g>
<!-- Node9 -->
<g id="node9" class="node">
<title>Node9</title>
<g id="a_node9"><a xlink:href="field_8h.html" target="_top" xlink:title=" ">
<polygon fill="white" stroke="#666666" points="312,-74 271,-74 271,-55 312,-55 312,-74"/>
<text text-anchor="middle" x="291.5" y="-62" font-family="Helvetica,sans-Serif" font-size="10.00">field.h</text>
</a>
</g>
</g>
<!-- Node8&#45;&gt;Node9 -->
<g id="edge10" class="edge">
<title>Node8&#45;&gt;Node9</title>
<path fill="none" stroke="#63b8ff" d="M248.92,-109.75C255.97,-102.43 266.23,-91.76 274.91,-82.74"/>
<polygon fill="#63b8ff" stroke="#63b8ff" points="277.43,-85.17 281.85,-75.53 272.39,-80.31 277.43,-85.17"/>
</g>
<!-- Node9&#45;&gt;Node3 -->
<g id="edge11" class="edge">
<title>Node9&#45;&gt;Node3</title>
<path fill="none" stroke="#63b8ff" d="M273.69,-54.51C257.37,-46.27 232.97,-33.96 214.13,-24.45"/>
<polygon fill="#63b8ff" stroke="#63b8ff" points="215.9,-21.42 205.4,-20.04 212.75,-27.67 215.9,-21.42"/>
</g>
</g>
</svg>
