<?xml version="1.0" encoding="UTF-8" standalone="no"?>
<!DOCTYPE svg PUBLIC "-//W3C//DTD SVG 1.1//EN"
 "http://www.w3.org/Graphics/SVG/1.1/DTD/svg11.dtd">
<!-- Generated by graphviz version 7.0.5 (20221223.1930)
 -->
<!-- Title: src/Generic/container/compactcontainer.h Pages: 1 -->
<!--zoomable 500 -->
<svg id="main" version="1.1" xmlns="http://www.w3.org/2000/svg" xmlns:xlink="http://www.w3.org/1999/xlink" xml:space="preserve" onload="init(evt)">
<style type="text/css"><![CDATA[
.edge:hover path { stroke: red; }
.edge:hover polygon { stroke: red; fill: red; }
]]></style>
<script type="text/javascript"><![CDATA[
var edges = document.getElementsByTagName('g');
if (edges && edges.length) {
  for (var i=0;i<edges.length;i++) {
    if (edges[i].id.substr(0,4)=='edge') {
      edges[i].setAttribute('class','edge');
    }
  }
}
]]></script>
        <defs>
                <circle id="rim" cx="0" cy="0" r="7"/>
                <circle id="rim2" cx="0" cy="0" r="3.5"/>
                <g id="zoomPlus">
                        <use xlink:href="#rim" fill="#404040">
                                <set attributeName="fill" to="#808080" begin="zoomplus.mouseover" end="zoomplus.mouseout"/>
                        </use>
                        <path d="M-4,0h8M0,-4v8" fill="none" stroke="white" stroke-width="1.5" pointer-events="none"/>
                </g>
                <g id="zoomMin">
                        <use xlink:href="#rim" fill="#404040">
                                <set attributeName="fill" to="#808080" begin="zoomminus.mouseover" end="zoomminus.mouseout"/>
                        </use>
                        <path d="M-4,0h8" fill="none" stroke="white" stroke-width="1.5" pointer-events="none"/>
                </g>
                <g id="dirArrow">
                        <path fill="none" stroke="white" stroke-width="1.5" d="M0,-3.0v7 M-2.5,-0.5L0,-3.0L2.5,-0.5"/>
                </g>
               <g id="resetDef">
                       <use xlink:href="#rim2" fill="#404040">
                               <set attributeName="fill" to="#808080" begin="reset.mouseover" end="reset.mouseout"/>
                       </use>
               </g>
        </defs>

<script type="text/javascript">
var viewWidth = 2445;
var viewHeight = 500;
var sectionId = 'dynsection-1';
</script>
<script xlink:href="svgpan.js"/>
<svg id="graph" class="graph">
<g id="viewport">
<title>src/Generic/container/compactcontainer.h</title>
<!-- Node1 -->
<g id="node1" class="node">
<title>Node1</title>
<g id="a_node1"><a xlink:title=" ">
<polygon fill="#999999" stroke="#666666" points="1092.5,-492 982.5,-492 982.5,-462 1092.5,-462 1092.5,-492"/>
<text text-anchor="start" x="990.5" y="-480" font-family="Helvetica,sans-Serif" font-size="10.00">src/Generic/container</text>
<text text-anchor="middle" x="1037.5" y="-469" font-family="Helvetica,sans-Serif" font-size="10.00">/compactcontainer.h</text>
</a>
</g>
</g>
<!-- Node2 -->
<g id="node2" class="node">
<title>Node2</title>
<g id="a_node2"><a xlink:href="entitycomponentbase_8h.html" target="_top" xlink:title=" ">
<polygon fill="white" stroke="#666666" points="1101.5,-426 973.5,-426 973.5,-385 1101.5,-385 1101.5,-426"/>
<text text-anchor="start" x="981.5" y="-414" font-family="Helvetica,sans-Serif" font-size="10.00">plugins/misc/scene</text>
<text text-anchor="start" x="981.5" y="-403" font-family="Helvetica,sans-Serif" font-size="10.00">/src/Madgine/scene/entity</text>
<text text-anchor="middle" x="1037.5" y="-392" font-family="Helvetica,sans-Serif" font-size="10.00">/entitycomponentbase.h</text>
</a>
</g>
</g>
<!-- Node1&#45;&gt;Node2 -->
<g id="edge1" class="edge">
<title>Node1&#45;&gt;Node2</title>
<path fill="none" stroke="#63b8ff" d="M1037.5,-450.36C1037.5,-442.45 1037.5,-433.87 1037.5,-426.42"/>
<polygon fill="#63b8ff" stroke="#63b8ff" points="1034,-450.09 1037.5,-460.09 1041,-450.09 1034,-450.09"/>
</g>
<!-- Node3 -->
<g id="node3" class="node">
<title>Node3</title>
<g id="a_node3"><a xlink:href="entity_8cpp.html" target="_top" xlink:title=" ">
<polygon fill="white" stroke="#666666" points="882.5,-349 754.5,-349 754.5,-308 882.5,-308 882.5,-349"/>
<text text-anchor="start" x="762.5" y="-337" font-family="Helvetica,sans-Serif" font-size="10.00">plugins/misc/scene</text>
<text text-anchor="start" x="762.5" y="-326" font-family="Helvetica,sans-Serif" font-size="10.00">/src/Madgine/scene/entity</text>
<text text-anchor="middle" x="818.5" y="-315" font-family="Helvetica,sans-Serif" font-size="10.00">/entity.cpp</text>
</a>
</g>
</g>
<!-- Node2&#45;&gt;Node3 -->
<g id="edge2" class="edge">
<title>Node2&#45;&gt;Node3</title>
<path fill="none" stroke="#63b8ff" d="M968.75,-380.95C939.24,-370.85 905.14,-359.17 876.88,-349.49"/>
<polygon fill="#63b8ff" stroke="#63b8ff" points="967.36,-384.18 977.96,-384.11 969.63,-377.56 967.36,-384.18"/>
</g>
<!-- Node4 -->
<g id="node4" class="node">
<title>Node4</title>
<g id="a_node4"><a xlink:href="entitycomponent_8h.html" target="_top" xlink:title=" ">
<polygon fill="white" stroke="#666666" points="1028.5,-349 900.5,-349 900.5,-308 1028.5,-308 1028.5,-349"/>
<text text-anchor="start" x="908.5" y="-337" font-family="Helvetica,sans-Serif" font-size="10.00">plugins/misc/scene</text>
<text text-anchor="start" x="908.5" y="-326" font-family="Helvetica,sans-Serif" font-size="10.00">/src/Madgine/scene/entity</text>
<text text-anchor="middle" x="964.5" y="-315" font-family="Helvetica,sans-Serif" font-size="10.00">/entitycomponent.h</text>
</a>
</g>
</g>
<!-- Node2&#45;&gt;Node4 -->
<g id="edge3" class="edge">
<title>Node2&#45;&gt;Node4</title>
<path fill="none" stroke="#63b8ff" d="M1010.48,-376.74C1001.62,-367.64 991.97,-357.72 983.81,-349.33"/>
<polygon fill="#63b8ff" stroke="#63b8ff" points="1007.78,-378.99 1017.26,-383.71 1012.8,-374.1 1007.78,-378.99"/>
</g>
<!-- Node29 -->
<g id="node29" class="node">
<title>Node29</title>
<g id="a_node29"><a xlink:href="entitycomponentbase_8cpp.html" target="_top" xlink:title=" ">
<polygon fill="white" stroke="#666666" points="1176.5,-349 1046.5,-349 1046.5,-308 1176.5,-308 1176.5,-349"/>
<text text-anchor="start" x="1054.5" y="-337" font-family="Helvetica,sans-Serif" font-size="10.00">plugins/misc/scene</text>
<text text-anchor="start" x="1054.5" y="-326" font-family="Helvetica,sans-Serif" font-size="10.00">/src/Madgine/scene/entity</text>
<text text-anchor="middle" x="1111.5" y="-315" font-family="Helvetica,sans-Serif" font-size="10.00">/entitycomponentbase.cpp</text>
</a>
</g>
</g>
<!-- Node2&#45;&gt;Node29 -->
<g id="edge49" class="edge">
<title>Node2&#45;&gt;Node29</title>
<path fill="none" stroke="#63b8ff" d="M1064.89,-376.74C1073.87,-367.64 1083.65,-357.72 1091.93,-349.33"/>
<polygon fill="#63b8ff" stroke="#63b8ff" points="1062.54,-374.14 1058.01,-383.72 1067.52,-379.06 1062.54,-374.14"/>
</g>
<!-- Node30 -->
<g id="node30" class="node">
<title>Node30</title>
<g id="a_node30"><a xlink:href="entitycomponenthandle_8cpp.html" target="_top" xlink:title=" ">
<polygon fill="white" stroke="#666666" points="1332,-349 1195,-349 1195,-308 1332,-308 1332,-349"/>
<text text-anchor="start" x="1203" y="-337" font-family="Helvetica,sans-Serif" font-size="10.00">plugins/misc/scene</text>
<text text-anchor="start" x="1203" y="-326" font-family="Helvetica,sans-Serif" font-size="10.00">/src/Madgine/scene/entity</text>
<text text-anchor="middle" x="1263.5" y="-315" font-family="Helvetica,sans-Serif" font-size="10.00">/entitycomponenthandle.cpp</text>
</a>
</g>
</g>
<!-- Node2&#45;&gt;Node30 -->
<g id="edge50" class="edge">
<title>Node2&#45;&gt;Node30</title>
<path fill="none" stroke="#63b8ff" d="M1108.05,-381.09C1138.59,-370.95 1173.97,-359.21 1203.25,-349.49"/>
<polygon fill="#63b8ff" stroke="#63b8ff" points="1107.3,-377.65 1098.91,-384.12 1109.5,-384.29 1107.3,-377.65"/>
</g>
<!-- Node5 -->
<g id="node5" class="node">
<title>Node5</title>
<g id="a_node5"><a xlink:href="material_8h.html" target="_top" xlink:title=" ">
<polygon fill="white" stroke="#666666" points="881.5,-272 753.5,-272 753.5,-231 881.5,-231 881.5,-272"/>
<text text-anchor="start" x="761.5" y="-260" font-family="Helvetica,sans-Serif" font-size="10.00">plugins/misc/scene</text>
<text text-anchor="start" x="761.5" y="-249" font-family="Helvetica,sans-Serif" font-size="10.00">/src/Madgine/scene/entity</text>
<text text-anchor="middle" x="817.5" y="-238" font-family="Helvetica,sans-Serif" font-size="10.00">/components/material.h</text>
</a>
</g>
</g>
<!-- Node4&#45;&gt;Node5 -->
<g id="edge4" class="edge">
<title>Node4&#45;&gt;Node5</title>
<path fill="none" stroke="#63b8ff" d="M915.46,-302.48C896.35,-292.73 874.74,-281.7 856.69,-272.49"/>
<polygon fill="#63b8ff" stroke="#63b8ff" points="913.65,-305.48 924.14,-306.91 916.83,-299.25 913.65,-305.48"/>
</g>
<!-- Node10 -->
<g id="node10" class="node">
<title>Node10</title>
<g id="a_node10"><a xlink:href="mesh_8h.html" target="_top" xlink:title=" ">
<polygon fill="white" stroke="#666666" points="1028.5,-272 900.5,-272 900.5,-231 1028.5,-231 1028.5,-272"/>
<text text-anchor="start" x="908.5" y="-260" font-family="Helvetica,sans-Serif" font-size="10.00">plugins/misc/scene</text>
<text text-anchor="start" x="908.5" y="-249" font-family="Helvetica,sans-Serif" font-size="10.00">/src/Madgine/scene/entity</text>
<text text-anchor="middle" x="964.5" y="-238" font-family="Helvetica,sans-Serif" font-size="10.00">/components/mesh.h</text>
</a>
</g>
</g>
<!-- Node4&#45;&gt;Node10 -->
<g id="edge9" class="edge">
<title>Node4&#45;&gt;Node10</title>
<path fill="none" stroke="#63b8ff" d="M964.5,-296.36C964.5,-288.24 964.5,-279.7 964.5,-272.33"/>
<polygon fill="#63b8ff" stroke="#63b8ff" points="961,-296.28 964.5,-306.28 968,-296.28 961,-296.28"/>
</g>
<!-- Node16 -->
<g id="node16" class="node">
<title>Node16</title>
<g id="a_node16"><a xlink:href="pointlight_8h.html" target="_top" xlink:title=" ">
<polygon fill="white" stroke="#666666" points="646.5,-272 518.5,-272 518.5,-231 646.5,-231 646.5,-272"/>
<text text-anchor="start" x="526.5" y="-260" font-family="Helvetica,sans-Serif" font-size="10.00">plugins/misc/scene</text>
<text text-anchor="start" x="526.5" y="-249" font-family="Helvetica,sans-Serif" font-size="10.00">/src/Madgine/scene/entity</text>
<text text-anchor="middle" x="582.5" y="-238" font-family="Helvetica,sans-Serif" font-size="10.00">/components/pointlight.h</text>
</a>
</g>
</g>
<!-- Node4&#45;&gt;Node16 -->
<g id="edge18" class="edge">
<title>Node4&#45;&gt;Node16</title>
<path fill="none" stroke="#63b8ff" d="M888.93,-307.51C799.66,-287.93 706.93,-272.11 646.73,-262.43"/>
<polygon fill="#63b8ff" stroke="#63b8ff" points="888.09,-310.91 898.61,-309.65 889.6,-304.07 888.09,-310.91"/>
</g>
<!-- Node18 -->
<g id="node18" class="node">
<title>Node18</title>
<g id="a_node18"><a xlink:href="skeleton_8h.html" target="_top" xlink:title=" ">
<polygon fill="white" stroke="#666666" points="1176.5,-272 1048.5,-272 1048.5,-231 1176.5,-231 1176.5,-272"/>
<text text-anchor="start" x="1056.5" y="-260" font-family="Helvetica,sans-Serif" font-size="10.00">plugins/misc/scene</text>
<text text-anchor="start" x="1056.5" y="-249" font-family="Helvetica,sans-Serif" font-size="10.00">/src/Madgine/scene/entity</text>
<text text-anchor="middle" x="1112.5" y="-238" font-family="Helvetica,sans-Serif" font-size="10.00">/components/skeleton.h</text>
</a>
</g>
</g>
<!-- Node4&#45;&gt;Node18 -->
<g id="edge22" class="edge">
<title>Node4&#45;&gt;Node18</title>
<path fill="none" stroke="#63b8ff" d="M1013.87,-302.48C1033.12,-292.73 1054.87,-281.7 1073.04,-272.49"/>
<polygon fill="#63b8ff" stroke="#63b8ff" points="1012.46,-299.27 1005.12,-306.91 1015.62,-305.52 1012.46,-299.27"/>
</g>
<!-- Node23 -->
<g id="node23" class="node">
<title>Node23</title>
<g id="a_node23"><a xlink:href="entity_2components_2transform_8h.html" target="_top" xlink:title=" ">
<polygon fill="white" stroke="#666666" points="1332.5,-272 1204.5,-272 1204.5,-231 1332.5,-231 1332.5,-272"/>
<text text-anchor="start" x="1212.5" y="-260" font-family="Helvetica,sans-Serif" font-size="10.00">plugins/misc/scene</text>
<text text-anchor="start" x="1212.5" y="-249" font-family="Helvetica,sans-Serif" font-size="10.00">/src/Madgine/scene/entity</text>
<text text-anchor="middle" x="1268.5" y="-238" font-family="Helvetica,sans-Serif" font-size="10.00">/components/transform.h</text>
</a>
</g>
</g>
<!-- Node4&#45;&gt;Node23 -->
<g id="edge33" class="edge">
<title>Node4&#45;&gt;Node23</title>
<path fill="none" stroke="#63b8ff" d="M1040,-307.41C1081.93,-296.93 1152.02,-280.17 1204.02,-267.8"/>
<polygon fill="#63b8ff" stroke="#63b8ff" points="1039.27,-303.98 1030.43,-309.82 1040.98,-310.77 1039.27,-303.98"/>
</g>
<!-- Node6 -->
<g id="node6" class="node">
<title>Node6</title>
<g id="a_node6"><a xlink:href="litscenerenderdata_8cpp.html" target="_top" xlink:title=" ">
<polygon fill="white" stroke="#666666" points="1032,-195 907,-195 907,-154 1032,-154 1032,-195"/>
<text text-anchor="start" x="915" y="-183" font-family="Helvetica,sans-Serif" font-size="10.00">plugins/misc/scene</text>
<text text-anchor="start" x="915" y="-172" font-family="Helvetica,sans-Serif" font-size="10.00">/renderer/Madgine/render</text>
<text text-anchor="middle" x="969.5" y="-161" font-family="Helvetica,sans-Serif" font-size="10.00">/litscenerenderdata.cpp</text>
</a>
</g>
</g>
<!-- Node5&#45;&gt;Node6 -->
<g id="edge5" class="edge">
<title>Node5&#45;&gt;Node6</title>
<path fill="none" stroke="#63b8ff" d="M867.93,-225.62C887.77,-215.83 910.23,-204.75 928.98,-195.49"/>
<polygon fill="#63b8ff" stroke="#63b8ff" points="866.61,-222.36 859.19,-229.93 869.71,-228.64 866.61,-222.36"/>
</g>
<!-- Node7 -->
<g id="node7" class="node">
<title>Node7</title>
<g id="a_node7"><a xlink:href="scenerenderpass_8cpp.html" target="_top" xlink:title=" ">
<polygon fill="white" stroke="#666666" points="569,-195 444,-195 444,-154 569,-154 569,-195"/>
<text text-anchor="start" x="452" y="-183" font-family="Helvetica,sans-Serif" font-size="10.00">plugins/misc/scene</text>
<text text-anchor="start" x="452" y="-172" font-family="Helvetica,sans-Serif" font-size="10.00">/renderer/Madgine/render</text>
<text text-anchor="middle" x="506.5" y="-161" font-family="Helvetica,sans-Serif" font-size="10.00">/scenerenderpass.cpp</text>
</a>
</g>
</g>
<!-- Node5&#45;&gt;Node7 -->
<g id="edge6" class="edge">
<title>Node5&#45;&gt;Node7</title>
<path fill="none" stroke="#63b8ff" d="M742.15,-233.74C695.02,-223.07 633.1,-208.73 578.5,-195 575.49,-194.24 572.4,-193.45 569.29,-192.65"/>
<polygon fill="#63b8ff" stroke="#63b8ff" points="741.19,-237.11 751.71,-235.9 742.73,-230.28 741.19,-237.11"/>
</g>
<!-- Node8 -->
<g id="node8" class="node">
<title>Node8</title>
<g id="a_node8"><a xlink:href="shadowscenerenderdata_8cpp.html" target="_top" xlink:title=" ">
<polygon fill="white" stroke="#666666" points="889,-195 746,-195 746,-154 889,-154 889,-195"/>
<text text-anchor="start" x="754" y="-183" font-family="Helvetica,sans-Serif" font-size="10.00">plugins/misc/scene</text>
<text text-anchor="start" x="754" y="-172" font-family="Helvetica,sans-Serif" font-size="10.00">/renderer/Madgine/render</text>
<text text-anchor="middle" x="817.5" y="-161" font-family="Helvetica,sans-Serif" font-size="10.00">/shadowscenerenderdata.cpp</text>
</a>
</g>
</g>
<!-- Node5&#45;&gt;Node8 -->
<g id="edge7" class="edge">
<title>Node5&#45;&gt;Node8</title>
<path fill="none" stroke="#63b8ff" d="M817.5,-219.36C817.5,-211.24 817.5,-202.7 817.5,-195.33"/>
<polygon fill="#63b8ff" stroke="#63b8ff" points="814,-219.28 817.5,-229.28 821,-219.28 814,-219.28"/>
</g>
<!-- Node9 -->
<g id="node9" class="node">
<title>Node9</title>
<g id="a_node9"><a xlink:href="material_8cpp.html" target="_top" xlink:title=" ">
<polygon fill="white" stroke="#666666" points="279.5,-195 151.5,-195 151.5,-154 279.5,-154 279.5,-195"/>
<text text-anchor="start" x="159.5" y="-183" font-family="Helvetica,sans-Serif" font-size="10.00">plugins/misc/scene</text>
<text text-anchor="start" x="159.5" y="-172" font-family="Helvetica,sans-Serif" font-size="10.00">/src/Madgine/scene/entity</text>
<text text-anchor="middle" x="215.5" y="-161" font-family="Helvetica,sans-Serif" font-size="10.00">/components/material.cpp</text>
</a>
</g>
</g>
<!-- Node5&#45;&gt;Node9 -->
<g id="edge8" class="edge">
<title>Node5&#45;&gt;Node9</title>
<path fill="none" stroke="#63b8ff" d="M741.87,-241.05C714.66,-237.74 683.71,-234.08 655.5,-231 492.57,-213.21 449.76,-224.25 288.5,-195 285.66,-194.49 282.77,-193.91 279.86,-193.3"/>
<polygon fill="#63b8ff" stroke="#63b8ff" points="741.43,-244.52 751.78,-242.26 742.28,-237.57 741.43,-244.52"/>
</g>
<!-- Node10&#45;&gt;Node6 -->
<g id="edge10" class="edge">
<title>Node10&#45;&gt;Node6</title>
<path fill="none" stroke="#63b8ff" d="M966.58,-219.36C967.12,-211.24 967.69,-202.7 968.18,-195.33"/>
<polygon fill="#63b8ff" stroke="#63b8ff" points="963.09,-219.07 965.91,-229.28 970.07,-219.54 963.09,-219.07"/>
</g>
<!-- Node10&#45;&gt;Node7 -->
<g id="edge12" class="edge">
<title>Node10&#45;&gt;Node7</title>
<path fill="none" stroke="#63b8ff" d="M889.08,-230.9C751.35,-205.94 712.1,-220.65 578.5,-195 575.45,-194.41 572.33,-193.77 569.2,-193.07"/>
<polygon fill="#63b8ff" stroke="#63b8ff" points="888.09,-234.28 898.56,-232.66 889.37,-227.4 888.09,-234.28"/>
</g>
<!-- Node10&#45;&gt;Node8 -->
<g id="edge14" class="edge">
<title>Node10&#45;&gt;Node8</title>
<path fill="none" stroke="#63b8ff" d="M915.46,-225.48C896.35,-215.73 874.74,-204.7 856.69,-195.49"/>
<polygon fill="#63b8ff" stroke="#63b8ff" points="913.65,-228.48 924.14,-229.91 916.83,-222.25 913.65,-228.48"/>
</g>
<!-- Node11 -->
<g id="node11" class="node">
<title>Node11</title>
<g id="a_node11"><a xlink:href="pointshadowrenderpass_8cpp.html" target="_top" xlink:title=" ">
<polygon fill="white" stroke="#666666" points="727.5,-195 587.5,-195 587.5,-154 727.5,-154 727.5,-195"/>
<text text-anchor="start" x="595.5" y="-183" font-family="Helvetica,sans-Serif" font-size="10.00">plugins/misc/scene</text>
<text text-anchor="start" x="595.5" y="-172" font-family="Helvetica,sans-Serif" font-size="10.00">/renderer/Madgine/render</text>
<text text-anchor="middle" x="657.5" y="-161" font-family="Helvetica,sans-Serif" font-size="10.00">/pointshadowrenderpass.cpp</text>
</a>
</g>
</g>
<!-- Node10&#45;&gt;Node11 -->
<g id="edge11" class="edge">
<title>Node10&#45;&gt;Node11</title>
<path fill="none" stroke="#63b8ff" d="M889.34,-230.75C820.46,-213.75 801.51,-210.62 736.5,-195 733.62,-194.31 730.67,-193.6 727.7,-192.88"/>
<polygon fill="#63b8ff" stroke="#63b8ff" points="888.34,-234.11 898.88,-233.11 890.02,-227.31 888.34,-234.11"/>
</g>
<!-- Node12 -->
<g id="node12" class="node">
<title>Node12</title>
<g id="a_node12"><a xlink:href="shadowrenderpass_8cpp.html" target="_top" xlink:title=" ">
<polygon fill="white" stroke="#666666" points="1175,-195 1050,-195 1050,-154 1175,-154 1175,-195"/>
<text text-anchor="start" x="1058" y="-183" font-family="Helvetica,sans-Serif" font-size="10.00">plugins/misc/scene</text>
<text text-anchor="start" x="1058" y="-172" font-family="Helvetica,sans-Serif" font-size="10.00">/renderer/Madgine/render</text>
<text text-anchor="middle" x="1112.5" y="-161" font-family="Helvetica,sans-Serif" font-size="10.00">/shadowrenderpass.cpp</text>
</a>
</g>
</g>
<!-- Node10&#45;&gt;Node12 -->
<g id="edge13" class="edge">
<title>Node10&#45;&gt;Node12</title>
<path fill="none" stroke="#63b8ff" d="M1013.87,-225.48C1033.12,-215.73 1054.87,-204.7 1073.04,-195.49"/>
<polygon fill="#63b8ff" stroke="#63b8ff" points="1012.46,-222.27 1005.12,-229.91 1015.62,-228.52 1012.46,-222.27"/>
</g>
<!-- Node13 -->
<g id="node13" class="node">
<title>Node13</title>
<g id="a_node13"><a xlink:href="sceneeditor_8cpp.html" target="_top" xlink:title=" ">
<polygon fill="white" stroke="#666666" points="1363.5,-195 1193.5,-195 1193.5,-154 1363.5,-154 1363.5,-195"/>
<text text-anchor="start" x="1201.5" y="-183" font-family="Helvetica,sans-Serif" font-size="10.00">plugins/misc/scene</text>
<text text-anchor="start" x="1201.5" y="-172" font-family="Helvetica,sans-Serif" font-size="10.00">/renderer_tools/Madgine</text>
<text text-anchor="middle" x="1278.5" y="-161" font-family="Helvetica,sans-Serif" font-size="10.00">_Tools/sceneeditor/sceneeditor.cpp</text>
</a>
</g>
</g>
<!-- Node10&#45;&gt;Node13 -->
<g id="edge15" class="edge">
<title>Node10&#45;&gt;Node13</title>
<path fill="none" stroke="#63b8ff" d="M1039.86,-230.95C1097.26,-216.88 1150.3,-204.55 1193.2,-194.74"/>
<polygon fill="#63b8ff" stroke="#63b8ff" points="1039.05,-227.54 1030.18,-233.33 1040.72,-234.34 1039.05,-227.54"/>
</g>
<!-- Node14 -->
<g id="node14" class="node">
<title>Node14</title>
<g id="a_node14"><a xlink:href="sceneview_8cpp.html" target="_top" xlink:title=" ">
<polygon fill="white" stroke="#666666" points="1549,-195 1382,-195 1382,-154 1549,-154 1549,-195"/>
<text text-anchor="start" x="1390" y="-183" font-family="Helvetica,sans-Serif" font-size="10.00">plugins/misc/scene</text>
<text text-anchor="start" x="1390" y="-172" font-family="Helvetica,sans-Serif" font-size="10.00">/renderer_tools/Madgine</text>
<text text-anchor="middle" x="1465.5" y="-161" font-family="Helvetica,sans-Serif" font-size="10.00">_Tools/sceneeditor/sceneview.cpp</text>
</a>
</g>
</g>
<!-- Node10&#45;&gt;Node14 -->
<g id="edge16" class="edge">
<title>Node10&#45;&gt;Node14</title>
<path fill="none" stroke="#63b8ff" d="M1039.91,-231.13C1187.92,-204.86 1229.06,-217.73 1372.5,-195 1375.51,-194.52 1378.58,-194.01 1381.67,-193.48"/>
<polygon fill="#63b8ff" stroke="#63b8ff" points="1039.3,-227.68 1030.08,-232.91 1040.55,-234.57 1039.3,-227.68"/>
</g>
<!-- Node15 -->
<g id="node15" class="node">
<title>Node15</title>
<g id="a_node15"><a xlink:href="mesh_8cpp.html" target="_top" xlink:title=" ">
<polygon fill="white" stroke="#666666" points="425.5,-195 297.5,-195 297.5,-154 425.5,-154 425.5,-195"/>
<text text-anchor="start" x="305.5" y="-183" font-family="Helvetica,sans-Serif" font-size="10.00">plugins/misc/scene</text>
<text text-anchor="start" x="305.5" y="-172" font-family="Helvetica,sans-Serif" font-size="10.00">/src/Madgine/scene/entity</text>
<text text-anchor="middle" x="361.5" y="-161" font-family="Helvetica,sans-Serif" font-size="10.00">/components/mesh.cpp</text>
</a>
</g>
</g>
<!-- Node10&#45;&gt;Node15 -->
<g id="edge17" class="edge">
<title>Node10&#45;&gt;Node15</title>
<path fill="none" stroke="#63b8ff" d="M888.84,-230.92C688.03,-198.11 631.25,-228.75 434.5,-195 431.66,-194.51 428.76,-193.96 425.85,-193.37"/>
<polygon fill="#63b8ff" stroke="#63b8ff" points="888.14,-234.35 898.58,-232.55 889.3,-227.45 888.14,-234.35"/>
</g>
<!-- Node16&#45;&gt;Node7 -->
<g id="edge20" class="edge">
<title>Node16&#45;&gt;Node7</title>
<path fill="none" stroke="#63b8ff" d="M554.37,-222.74C545.15,-213.64 535.1,-203.72 526.6,-195.33"/>
<polygon fill="#63b8ff" stroke="#63b8ff" points="551.88,-225.2 561.45,-229.73 556.8,-220.22 551.88,-225.2"/>
</g>
<!-- Node16&#45;&gt;Node11 -->
<g id="edge19" class="edge">
<title>Node16&#45;&gt;Node11</title>
<path fill="none" stroke="#63b8ff" d="M610.26,-222.74C619.36,-213.64 629.28,-203.72 637.67,-195.33"/>
<polygon fill="#63b8ff" stroke="#63b8ff" points="607.87,-220.18 603.28,-229.72 612.82,-225.13 607.87,-220.18"/>
</g>
<!-- Node17 -->
<g id="node17" class="node">
<title>Node17</title>
<g id="a_node17"><a xlink:href="pointlight_8cpp.html" target="_top" xlink:title=" ">
<polygon fill="white" stroke="#666666" points="133,-195 0,-195 0,-154 133,-154 133,-195"/>
<text text-anchor="start" x="8" y="-183" font-family="Helvetica,sans-Serif" font-size="10.00">plugins/misc/scene</text>
<text text-anchor="start" x="8" y="-172" font-family="Helvetica,sans-Serif" font-size="10.00">/src/Madgine/scene/entity</text>
<text text-anchor="middle" x="66.5" y="-161" font-family="Helvetica,sans-Serif" font-size="10.00">/components/pointlight.cpp</text>
</a>
</g>
</g>
<!-- Node16&#45;&gt;Node17 -->
<g id="edge21" class="edge">
<title>Node16&#45;&gt;Node17</title>
<path fill="none" stroke="#63b8ff" d="M507.14,-243.9C419.15,-235.53 269.48,-219.2 142.5,-195 139.42,-194.41 136.28,-193.77 133.12,-193.1"/>
<polygon fill="#63b8ff" stroke="#63b8ff" points="506.56,-247.36 516.84,-244.82 507.21,-240.39 506.56,-247.36"/>
</g>
<!-- Node18&#45;&gt;Node6 -->
<g id="edge23" class="edge">
<title>Node18&#45;&gt;Node6</title>
<path fill="none" stroke="#63b8ff" d="M1064.54,-225.35C1046.01,-215.63 1025.1,-204.66 1007.62,-195.49"/>
<polygon fill="#63b8ff" stroke="#63b8ff" points="1062.73,-228.35 1073.21,-229.9 1065.98,-222.15 1062.73,-228.35"/>
</g>
<!-- Node18&#45;&gt;Node7 -->
<g id="edge26" class="edge">
<title>Node18&#45;&gt;Node7</title>
<path fill="none" stroke="#63b8ff" d="M1036.66,-231.09C833.64,-198.29 776.49,-229.27 578.5,-195 575.44,-194.47 572.32,-193.87 569.17,-193.21"/>
<polygon fill="#63b8ff" stroke="#63b8ff" points="1036.09,-234.54 1046.52,-232.72 1037.23,-227.63 1036.09,-234.54"/>
</g>
<!-- Node18&#45;&gt;Node8 -->
<g id="edge28" class="edge">
<title>Node18&#45;&gt;Node8</title>
<path fill="none" stroke="#63b8ff" d="M1037.39,-230.98C981.38,-216.65 929.76,-203.64 889.37,-193.49"/>
<polygon fill="#63b8ff" stroke="#63b8ff" points="1036.25,-234.3 1046.81,-233.39 1037.99,-227.52 1036.25,-234.3"/>
</g>
<!-- Node18&#45;&gt;Node11 -->
<g id="edge24" class="edge">
<title>Node18&#45;&gt;Node11</title>
<path fill="none" stroke="#63b8ff" d="M1037.28,-231.15C903.14,-206.66 865.55,-218.55 736.5,-195 733.58,-194.47 730.61,-193.89 727.61,-193.28"/>
<polygon fill="#63b8ff" stroke="#63b8ff" points="1036.44,-234.55 1046.91,-232.95 1037.72,-227.67 1036.44,-234.55"/>
</g>
<!-- Node18&#45;&gt;Node12 -->
<g id="edge27" class="edge">
<title>Node18&#45;&gt;Node12</title>
<path fill="none" stroke="#63b8ff" d="M1112.5,-219.36C1112.5,-211.24 1112.5,-202.7 1112.5,-195.33"/>
<polygon fill="#63b8ff" stroke="#63b8ff" points="1109,-219.28 1112.5,-229.28 1116,-219.28 1109,-219.28"/>
</g>
<!-- Node18&#45;&gt;Node13 -->
<g id="edge29" class="edge">
<title>Node18&#45;&gt;Node13</title>
<path fill="none" stroke="#63b8ff" d="M1166.98,-225.88C1188.79,-216.03 1213.58,-204.83 1234.25,-195.49"/>
<polygon fill="#63b8ff" stroke="#63b8ff" points="1165.6,-222.67 1157.93,-229.98 1168.48,-229.05 1165.6,-222.67"/>
</g>
<!-- Node19 -->
<g id="node19" class="node">
<title>Node19</title>
<g id="a_node19"><a xlink:href="scenerenderdata_8cpp.html" target="_top" xlink:title=" ">
<polygon fill="white" stroke="#666666" points="2085,-195 1960,-195 1960,-154 2085,-154 2085,-195"/>
<text text-anchor="start" x="1968" y="-183" font-family="Helvetica,sans-Serif" font-size="10.00">plugins/misc/scene</text>
<text text-anchor="start" x="1968" y="-172" font-family="Helvetica,sans-Serif" font-size="10.00">/renderer/Madgine/render</text>
<text text-anchor="middle" x="2022.5" y="-161" font-family="Helvetica,sans-Serif" font-size="10.00">/scenerenderdata.cpp</text>
</a>
</g>
</g>
<!-- Node18&#45;&gt;Node19 -->
<g id="edge25" class="edge">
<title>Node18&#45;&gt;Node19</title>
<path fill="none" stroke="#63b8ff" d="M1187.91,-232.16C1190.46,-231.74 1193,-231.35 1195.5,-231 1528.19,-184.39 1618.65,-247.22 1950.5,-195 1953.57,-194.52 1956.7,-193.95 1959.84,-193.33"/>
<polygon fill="#63b8ff" stroke="#63b8ff" points="1187.33,-228.71 1178.11,-233.94 1188.58,-235.6 1187.33,-228.71"/>
</g>
<!-- Node20 -->
<g id="node20" class="node">
<title>Node20</title>
<g id="a_node20"><a xlink:href="animation_8cpp.html" target="_top" xlink:title=" ">
<polygon fill="white" stroke="#666666" points="2018.5,-41 1876.5,-41 1876.5,0 2018.5,0 2018.5,-41"/>
<text text-anchor="start" x="1884.5" y="-29" font-family="Helvetica,sans-Serif" font-size="10.00">plugins/misc/scene</text>
<text text-anchor="start" x="1884.5" y="-18" font-family="Helvetica,sans-Serif" font-size="10.00">/src/Madgine/scene/behavior</text>
<text text-anchor="middle" x="1947.5" y="-7" font-family="Helvetica,sans-Serif" font-size="10.00">/animation.cpp</text>
</a>
</g>
</g>
<!-- Node18&#45;&gt;Node20 -->
<g id="edge30" class="edge">
<title>Node18&#45;&gt;Node20</title>
<path fill="none" stroke="#63b8ff" d="M1187.91,-232.22C1190.47,-231.78 1193,-231.37 1195.5,-231 1320.39,-212.5 1648.11,-248.42 1762.5,-195 1785.29,-184.36 1783.51,-171.57 1801.5,-154 1843.74,-112.74 1895.34,-66.92 1924.52,-41.43"/>
<polygon fill="#63b8ff" stroke="#63b8ff" points="1187.32,-228.77 1178.13,-234.04 1188.6,-235.65 1187.32,-228.77"/>
</g>
<!-- Node21 -->
<g id="node21" class="node">
<title>Node21</title>
<g id="a_node21"><a xlink:href="skeleton_8cpp.html" target="_top" xlink:title=" ">
<polygon fill="white" stroke="#666666" points="1942,-195 1811,-195 1811,-154 1942,-154 1942,-195"/>
<text text-anchor="start" x="1819" y="-183" font-family="Helvetica,sans-Serif" font-size="10.00">plugins/misc/scene</text>
<text text-anchor="start" x="1819" y="-172" font-family="Helvetica,sans-Serif" font-size="10.00">/src/Madgine/scene/entity</text>
<text text-anchor="middle" x="1876.5" y="-161" font-family="Helvetica,sans-Serif" font-size="10.00">/components/skeleton.cpp</text>
</a>
</g>
</g>
<!-- Node18&#45;&gt;Node21 -->
<g id="edge31" class="edge">
<title>Node18&#45;&gt;Node21</title>
<path fill="none" stroke="#63b8ff" d="M1187.91,-232.2C1190.47,-231.77 1193,-231.37 1195.5,-231 1460.27,-192.26 1531.89,-234.84 1796.5,-195 1801.16,-194.3 1805.96,-193.45 1810.76,-192.51"/>
<polygon fill="#63b8ff" stroke="#63b8ff" points="1187.32,-228.75 1178.12,-234.01 1188.59,-235.64 1187.32,-228.75"/>
</g>
<!-- Node22 -->
<g id="node22" class="node">
<title>Node22</title>
<g id="a_node22"><a xlink:href="scenemanager_8cpp.html" target="_top" xlink:title=" ">
<polygon fill="white" stroke="#666666" points="1754,-189.5 1567,-189.5 1567,-159.5 1754,-159.5 1754,-189.5"/>
<text text-anchor="start" x="1575" y="-177.5" font-family="Helvetica,sans-Serif" font-size="10.00">plugins/misc/scene</text>
<text text-anchor="middle" x="1660.5" y="-166.5" font-family="Helvetica,sans-Serif" font-size="10.00">/src/Madgine/scene/scenemanager.cpp</text>
</a>
</g>
</g>
<!-- Node18&#45;&gt;Node22 -->
<g id="edge32" class="edge">
<title>Node18&#45;&gt;Node22</title>
<path fill="none" stroke="#63b8ff" d="M1187.93,-232.33C1190.48,-231.86 1193.01,-231.41 1195.5,-231 1354.99,-204.45 1397.47,-218.06 1557.5,-195 1567.5,-193.56 1578,-191.83 1588.32,-190"/>
<polygon fill="#63b8ff" stroke="#63b8ff" points="1187.3,-228.89 1178.16,-234.25 1188.65,-235.76 1187.3,-228.89"/>
</g>
<!-- Node23&#45;&gt;Node6 -->
<g id="edge34" class="edge">
<title>Node23&#45;&gt;Node6</title>
<path fill="none" stroke="#63b8ff" d="M1192.99,-232.7C1148.52,-222.08 1091.22,-208.13 1040.5,-195 1037.78,-194.29 1035,-193.57 1032.19,-192.83"/>
<polygon fill="#63b8ff" stroke="#63b8ff" points="1191.99,-236.07 1202.53,-234.98 1193.62,-229.26 1191.99,-236.07"/>
</g>
<!-- Node23&#45;&gt;Node7 -->
<g id="edge37" class="edge">
<title>Node23&#45;&gt;Node7</title>
<path fill="none" stroke="#63b8ff" d="M1193.09,-232.2C1190.53,-231.77 1188,-231.36 1185.5,-231 918.08,-191.95 845.22,-238.55 578.5,-195 575.43,-194.5 572.31,-193.92 569.16,-193.28"/>
<polygon fill="#63b8ff" stroke="#63b8ff" points="1192.41,-235.64 1202.88,-234.01 1193.68,-228.75 1192.41,-235.64"/>
</g>
<!-- Node23&#45;&gt;Node8 -->
<g id="edge39" class="edge">
<title>Node23&#45;&gt;Node8</title>
<path fill="none" stroke="#63b8ff" d="M1193.05,-232.41C1190.51,-231.92 1187.99,-231.45 1185.5,-231 1058.53,-208.22 1024.37,-218.31 897.5,-195 894.83,-194.51 892.11,-193.98 889.37,-193.43"/>
<polygon fill="#63b8ff" stroke="#63b8ff" points="1192.32,-235.84 1202.81,-234.4 1193.71,-228.98 1192.32,-235.84"/>
</g>
<!-- Node23&#45;&gt;Node11 -->
<g id="edge35" class="edge">
<title>Node23&#45;&gt;Node11</title>
<path fill="none" stroke="#63b8ff" d="M1193.08,-232.27C1190.53,-231.82 1188,-231.39 1185.5,-231 987.72,-200.02 934.11,-227.09 736.5,-195 733.57,-194.52 730.59,-194 727.59,-193.43"/>
<polygon fill="#63b8ff" stroke="#63b8ff" points="1192.38,-235.7 1202.86,-234.14 1193.69,-228.82 1192.38,-235.7"/>
</g>
<!-- Node23&#45;&gt;Node12 -->
<g id="edge38" class="edge">
<title>Node23&#45;&gt;Node12</title>
<path fill="none" stroke="#63b8ff" d="M1216.74,-225.62C1196.39,-215.83 1173.33,-204.75 1154.09,-195.49"/>
<polygon fill="#63b8ff" stroke="#63b8ff" points="1215.21,-228.76 1225.74,-229.94 1218.24,-222.46 1215.21,-228.76"/>
</g>
<!-- Node23&#45;&gt;Node13 -->
<g id="edge40" class="edge">
<title>Node23&#45;&gt;Node13</title>
<path fill="none" stroke="#63b8ff" d="M1272.61,-219.65C1273.71,-211.43 1274.86,-202.78 1275.86,-195.33"/>
<polygon fill="#63b8ff" stroke="#63b8ff" points="1269.18,-218.92 1271.33,-229.29 1276.12,-219.84 1269.18,-218.92"/>
</g>
<!-- Node23&#45;&gt;Node14 -->
<g id="edge41" class="edge">
<title>Node23&#45;&gt;Node14</title>
<path fill="none" stroke="#63b8ff" d="M1331.4,-226.55C1357.69,-216.54 1387.9,-205.04 1412.98,-195.49"/>
<polygon fill="#63b8ff" stroke="#63b8ff" points="1330.29,-223.23 1322.19,-230.06 1332.78,-229.77 1330.29,-223.23"/>
</g>
<!-- Node23&#45;&gt;Node19 -->
<g id="edge36" class="edge">
<title>Node23&#45;&gt;Node19</title>
<path fill="none" stroke="#63b8ff" d="M1344.38,-248.86C1470.91,-245.1 1732.62,-233.04 1950.5,-195 1953.56,-194.47 1956.68,-193.86 1959.82,-193.2"/>
<polygon fill="#63b8ff" stroke="#63b8ff" points="1344.34,-245.36 1334.45,-249.14 1344.54,-252.35 1344.34,-245.36"/>
</g>
<!-- Node24 -->
<g id="node24" class="node">
<title>Node24</title>
<g id="a_node24"><a xlink:href="scenesenders_8h.html" target="_top" xlink:title=" ">
<polygon fill="white" stroke="#666666" points="2245.5,-195 2103.5,-195 2103.5,-154 2245.5,-154 2245.5,-195"/>
<text text-anchor="start" x="2111.5" y="-183" font-family="Helvetica,sans-Serif" font-size="10.00">plugins/misc/scene</text>
<text text-anchor="start" x="2111.5" y="-172" font-family="Helvetica,sans-Serif" font-size="10.00">/src/Madgine/scene/behavior</text>
<text text-anchor="middle" x="2174.5" y="-161" font-family="Helvetica,sans-Serif" font-size="10.00">/scenesenders.h</text>
</a>
</g>
</g>
<!-- Node23&#45;&gt;Node24 -->
<g id="edge42" class="edge">
<title>Node23&#45;&gt;Node24</title>
<path fill="none" stroke="#63b8ff" d="M1344.37,-249.75C1490.43,-247.35 1820.49,-237.28 2094.5,-195 2097.33,-194.56 2100.2,-194.08 2103.09,-193.55"/>
<polygon fill="#63b8ff" stroke="#63b8ff" points="1344.37,-246.25 1334.42,-249.91 1344.48,-253.25 1344.37,-246.25"/>
</g>
<!-- Node26 -->
<g id="node26" class="node">
<title>Node26</title>
<g id="a_node26"><a xlink:href="behavior_2transform_8h.html" target="_top" xlink:title=" ">
<polygon fill="white" stroke="#666666" points="2294.5,-118 2152.5,-118 2152.5,-77 2294.5,-77 2294.5,-118"/>
<text text-anchor="start" x="2160.5" y="-106" font-family="Helvetica,sans-Serif" font-size="10.00">plugins/misc/scene</text>
<text text-anchor="start" x="2160.5" y="-95" font-family="Helvetica,sans-Serif" font-size="10.00">/src/Madgine/scene/behavior</text>
<text text-anchor="middle" x="2223.5" y="-84" font-family="Helvetica,sans-Serif" font-size="10.00">/transform.h</text>
</a>
</g>
</g>
<!-- Node23&#45;&gt;Node26 -->
<g id="edge47" class="edge">
<title>Node23&#45;&gt;Node26</title>
<path fill="none" stroke="#63b8ff" d="M1344.08,-249.05C1569.47,-244.36 2223.33,-227.97 2254.5,-195 2274.45,-173.9 2255.8,-139.91 2240.03,-118.41"/>
<polygon fill="#63b8ff" stroke="#63b8ff" points="1344.15,-245.55 1334.23,-249.25 1344.3,-252.55 1344.15,-245.55"/>
</g>
<!-- Node28 -->
<g id="node28" class="node">
<title>Node28</title>
<g id="a_node28"><a xlink:href="entity_2components_2transform_8cpp.html" target="_top" xlink:title=" ">
<polygon fill="white" stroke="#666666" points="2437,-195 2302,-195 2302,-154 2437,-154 2437,-195"/>
<text text-anchor="start" x="2310" y="-183" font-family="Helvetica,sans-Serif" font-size="10.00">plugins/misc/scene</text>
<text text-anchor="start" x="2310" y="-172" font-family="Helvetica,sans-Serif" font-size="10.00">/src/Madgine/scene/entity</text>
<text text-anchor="middle" x="2369.5" y="-161" font-family="Helvetica,sans-Serif" font-size="10.00">/components/transform.cpp</text>
</a>
</g>
</g>
<!-- Node23&#45;&gt;Node28 -->
<g id="edge48" class="edge">
<title>Node23&#45;&gt;Node28</title>
<path fill="none" stroke="#63b8ff" d="M1344.28,-250.99C1514.08,-251.09 1937.63,-245.71 2287.5,-195 2292.13,-194.33 2296.89,-193.52 2301.67,-192.62"/>
<polygon fill="#63b8ff" stroke="#63b8ff" points="1344.5,-247.49 1334.49,-250.98 1344.49,-254.49 1344.5,-247.49"/>
</g>
<!-- Node25 -->
<g id="node25" class="node">
<title>Node25</title>
<g id="a_node25"><a xlink:href="scenesenders_8cpp.html" target="_top" xlink:title=" ">
<polygon fill="white" stroke="#666666" points="2134.5,-118 1992.5,-118 1992.5,-77 2134.5,-77 2134.5,-118"/>
<text text-anchor="start" x="2000.5" y="-106" font-family="Helvetica,sans-Serif" font-size="10.00">plugins/misc/scene</text>
<text text-anchor="start" x="2000.5" y="-95" font-family="Helvetica,sans-Serif" font-size="10.00">/src/Madgine/scene/behavior</text>
<text text-anchor="middle" x="2063.5" y="-84" font-family="Helvetica,sans-Serif" font-size="10.00">/scenesenders.cpp</text>
</a>
</g>
</g>
<!-- Node24&#45;&gt;Node25 -->
<g id="edge43" class="edge">
<title>Node24&#45;&gt;Node25</title>
<path fill="none" stroke="#63b8ff" d="M2135.67,-147.26C2121.69,-137.82 2106.16,-127.32 2093.09,-118.49"/>
<polygon fill="#63b8ff" stroke="#63b8ff" points="2133.55,-150.05 2143.79,-152.75 2137.46,-144.25 2133.55,-150.05"/>
</g>
<!-- Node24&#45;&gt;Node26 -->
<g id="edge44" class="edge">
<title>Node24&#45;&gt;Node26</title>
<path fill="none" stroke="#63b8ff" d="M2193.55,-144.34C2199.24,-135.63 2205.34,-126.3 2210.54,-118.33"/>
<polygon fill="#63b8ff" stroke="#63b8ff" points="2190.74,-142.24 2188.2,-152.53 2196.6,-146.07 2190.74,-142.24"/>
</g>
<!-- Node26&#45;&gt;Node20 -->
<g id="edge45" class="edge">
<title>Node26&#45;&gt;Node20</title>
<path fill="none" stroke="#63b8ff" d="M2141.02,-74.09C2102.06,-63.5 2056.03,-50.99 2018.64,-40.83"/>
<polygon fill="#63b8ff" stroke="#63b8ff" points="2140.04,-77.45 2150.6,-76.69 2141.87,-70.69 2140.04,-77.45"/>
</g>
<!-- Node27 -->
<g id="node27" class="node">
<title>Node27</title>
<g id="a_node27"><a xlink:href="behavior_2transform_8cpp.html" target="_top" xlink:title=" ">
<polygon fill="white" stroke="#666666" points="2294.5,-41 2152.5,-41 2152.5,0 2294.5,0 2294.5,-41"/>
<text text-anchor="start" x="2160.5" y="-29" font-family="Helvetica,sans-Serif" font-size="10.00">plugins/misc/scene</text>
<text text-anchor="start" x="2160.5" y="-18" font-family="Helvetica,sans-Serif" font-size="10.00">/src/Madgine/scene/behavior</text>
<text text-anchor="middle" x="2223.5" y="-7" font-family="Helvetica,sans-Serif" font-size="10.00">/transform.cpp</text>
</a>
</g>
</g>
<!-- Node26&#45;&gt;Node27 -->
<g id="edge46" class="edge">
<title>Node26&#45;&gt;Node27</title>
<path fill="none" stroke="#63b8ff" d="M2223.5,-65.36C2223.5,-57.24 2223.5,-48.7 2223.5,-41.33"/>
<polygon fill="#63b8ff" stroke="#63b8ff" points="2220,-65.28 2223.5,-75.28 2227,-65.28 2220,-65.28"/>
</g>
</g>
</svg>
        <g id="navigator" transform="translate(0 0)" fill="#404254">
                <rect fill="#f2f5e9" fill-opacity="0.5" stroke="#606060" stroke-width=".5" x="0" y="0" width="60" height="60"/>
                <use id="zoomplus" xlink:href="#zoomPlus" x="17" y="9" onmousedown="handleZoom(evt,'in')"/>
                <use id="zoomminus" xlink:href="#zoomMin" x="42" y="9" onmousedown="handleZoom(evt,'out')"/>
                <use id="reset" xlink:href="#resetDef" x="30" y="36" onmousedown="handleReset()"/>
                <g id="arrowUp" xlink:href="#dirArrow" transform="translate(30 24)" onmousedown="handlePan(0,-1)">
                  <use xlink:href="#rim" fill="#404040">
                        <set attributeName="fill" to="#808080" begin="arrowUp.mouseover" end="arrowUp.mouseout"/>
                  </use>
                  <path fill="none" stroke="white" stroke-width="1.5" d="M0,-3.0v7 M-2.5,-0.5L0,-3.0L2.5,-0.5"/>
                </g>
                <g id="arrowRight" xlink:href="#dirArrow" transform="rotate(90) translate(36 -43)" onmousedown="handlePan(1,0)">
                  <use xlink:href="#rim" fill="#404040">
                        <set attributeName="fill" to="#808080" begin="arrowRight.mouseover" end="arrowRight.mouseout"/>
                  </use>
                  <path fill="none" stroke="white" stroke-width="1.5" d="M0,-3.0v7 M-2.5,-0.5L0,-3.0L2.5,-0.5"/>
                </g>
                <g id="arrowDown" xlink:href="#dirArrow" transform="rotate(180) translate(-30 -48)" onmousedown="handlePan(0,1)">
                  <use xlink:href="#rim" fill="#404040">
                        <set attributeName="fill" to="#808080" begin="arrowDown.mouseover" end="arrowDown.mouseout"/>
                  </use>
                  <path fill="none" stroke="white" stroke-width="1.5" d="M0,-3.0v7 M-2.5,-0.5L0,-3.0L2.5,-0.5"/>
                </g>
                <g id="arrowLeft" xlink:href="#dirArrow" transform="rotate(270) translate(-36 17)" onmousedown="handlePan(-1,0)">
                  <use xlink:href="#rim" fill="#404040">
                        <set attributeName="fill" to="#808080" begin="arrowLeft.mouseover" end="arrowLeft.mouseout"/>
                  </use>
                  <path fill="none" stroke="white" stroke-width="1.5" d="M0,-3.0v7 M-2.5,-0.5L0,-3.0L2.5,-0.5"/>
                </g>
        </g>
        <svg viewBox="0 0 15 15" width="100%" height="30px" preserveAspectRatio="xMaxYMin meet">
         <g id="arrow_out" transform="scale(0.3 0.3)">
          <a xlink:href="compactcontainer_8h__dep__incl_org.svg" target="_base">
           <rect id="button" ry="5" rx="5" y="6" x="6" height="38" width="38"
                fill="#f2f5e9" fill-opacity="0.5" stroke="#606060" stroke-width="1.0"/>
           <path id="arrow"
             d="M 11.500037,31.436501 C 11.940474,20.09759 22.043105,11.32322 32.158766,21.979434 L 37.068811,17.246167 C 37.068811,17.246167 37.088388,32 37.088388,32 L 22.160133,31.978069 C 22.160133,31.978069 26.997745,27.140456 26.997745,27.140456 C 18.528582,18.264221 13.291696,25.230495 11.500037,31.436501 z"
             style="fill:#404040;"/>
          </a>
         </g>
        </svg>
</svg>
