<?xml version="1.0" encoding="UTF-8" standalone="no"?>
<!DOCTYPE svg PUBLIC "-//W3C//DTD SVG 1.1//EN"
 "http://www.w3.org/Graphics/SVG/1.1/DTD/svg11.dtd">
<!-- Generated by graphviz version 7.0.5 (20221223.1930)
 -->
<!-- Title: src/Generic/container/compoundatomicoperation.h Pages: 1 -->
<svg width="217pt" height="148pt"
 viewBox="0.00 0.00 216.50 148.00" xmlns="http://www.w3.org/2000/svg" xmlns:xlink="http://www.w3.org/1999/xlink">
<g id="graph0" class="graph" transform="scale(1 1) rotate(0) translate(4 144)">
<title>src/Generic/container/compoundatomicoperation.h</title>
<!-- Node1 -->
<g id="node1" class="node">
<title>Node1</title>
<g id="a_node1"><a xlink:title=" ">
<polygon fill="#999999" stroke="#666666" points="191,-140 50,-140 50,-110 191,-110 191,-140"/>
<text text-anchor="start" x="58" y="-128" font-family="Helvetica,sans-Serif" font-size="10.00">src/Generic/container</text>
<text text-anchor="middle" x="120.5" y="-117" font-family="Helvetica,sans-Serif" font-size="10.00">/compoundatomicoperation.h</text>
</a>
</g>
</g>
<!-- Node2 -->
<g id="node2" class="node">
<title>Node2</title>
<g id="a_node2"><a xlink:href="atomiccontaineroperation_8h.html" target="_top" xlink:title=" ">
<polygon fill="white" stroke="#666666" points="133,-74 0,-74 0,-55 133,-55 133,-74"/>
<text text-anchor="middle" x="66.5" y="-62" font-family="Helvetica,sans-Serif" font-size="10.00">atomiccontaineroperation.h</text>
</a>
</g>
</g>
<!-- Node1&#45;&gt;Node2 -->
<g id="edge1" class="edge">
<title>Node1&#45;&gt;Node2</title>
<path fill="none" stroke="#63b8ff" d="M107.15,-109.54C99.63,-101.39 90.19,-91.16 82.3,-82.61"/>
<polygon fill="#63b8ff" stroke="#63b8ff" points="84.89,-80.26 75.53,-75.29 79.75,-85.01 84.89,-80.26"/>
</g>
<!-- Node3 -->
<g id="node3" class="node">
<title>Node3</title>
<g id="a_node3"><a xlink:href="any_8h.html" target="_top" xlink:title=" ">
<polygon fill="white" stroke="#666666" points="198,-74 151,-74 151,-55 198,-55 198,-74"/>
<text text-anchor="middle" x="174.5" y="-62" font-family="Helvetica,sans-Serif" font-size="10.00">../any.h</text>
</a>
</g>
</g>
<!-- Node1&#45;&gt;Node3 -->
<g id="edge2" class="edge">
<title>Node1&#45;&gt;Node3</title>
<path fill="none" stroke="#63b8ff" d="M133.85,-109.54C141.37,-101.39 150.81,-91.16 158.7,-82.61"/>
<polygon fill="#63b8ff" stroke="#63b8ff" points="161.25,-85.01 165.47,-75.29 156.11,-80.26 161.25,-85.01"/>
</g>
<!-- Node4 -->
<g id="node4" class="node">
<title>Node4</title>
<g id="a_node4"><a xlink:href="inheritable_8h.html" target="_top" xlink:title=" ">
<polygon fill="white" stroke="#666666" points="208.5,-19 140.5,-19 140.5,0 208.5,0 208.5,-19"/>
<text text-anchor="middle" x="174.5" y="-7" font-family="Helvetica,sans-Serif" font-size="10.00">inheritable.h</text>
</a>
</g>
</g>
<!-- Node3&#45;&gt;Node4 -->
<g id="edge3" class="edge">
<title>Node3&#45;&gt;Node4</title>
<path fill="none" stroke="#63b8ff" d="M174.5,-54.75C174.5,-48.27 174.5,-39.16 174.5,-30.9"/>
<polygon fill="#63b8ff" stroke="#63b8ff" points="178,-30.96 174.5,-20.96 171,-30.96 178,-30.96"/>
</g>
</g>
</svg>
