<?xml version="1.0" encoding="UTF-8" standalone="no"?>
<!DOCTYPE svg PUBLIC "-//W3C//DTD SVG 1.1//EN"
 "http://www.w3.org/Graphics/SVG/1.1/DTD/svg11.dtd">
<!-- Generated by graphviz version 7.0.5 (20221223.1930)
 -->
<!-- Title: src/Generic/container/container_traits.h Pages: 1 -->
<svg width="212pt" height="93pt"
 viewBox="0.00 0.00 211.50 93.00" xmlns="http://www.w3.org/2000/svg" xmlns:xlink="http://www.w3.org/1999/xlink">
<g id="graph0" class="graph" transform="scale(1 1) rotate(0) translate(4 89)">
<title>src/Generic/container/container_traits.h</title>
<!-- Node1 -->
<g id="node1" class="node">
<title>Node1</title>
<g id="a_node1"><a xlink:title=" ">
<polygon fill="#999999" stroke="#666666" points="146,-85 36,-85 36,-55 146,-55 146,-85"/>
<text text-anchor="start" x="44" y="-73" font-family="Helvetica,sans-Serif" font-size="10.00">src/Generic/container</text>
<text text-anchor="middle" x="91" y="-62" font-family="Helvetica,sans-Serif" font-size="10.00">/container_traits.h</text>
</a>
</g>
</g>
<!-- Node2 -->
<g id="node2" class="node">
<title>Node2</title>
<g id="a_node2"><a xlink:href="indextype_8h.html" target="_top" xlink:title=" ">
<polygon fill="white" stroke="#666666" points="72,-19 0,-19 0,0 72,0 72,-19"/>
<text text-anchor="middle" x="36" y="-7" font-family="Helvetica,sans-Serif" font-size="10.00">../indextype.h</text>
</a>
</g>
</g>
<!-- Node1&#45;&gt;Node2 -->
<g id="edge1" class="edge">
<title>Node1&#45;&gt;Node2</title>
<path fill="none" stroke="#63b8ff" d="M77.4,-54.54C69.66,-46.3 59.92,-35.94 51.83,-27.34"/>
<polygon fill="#63b8ff" stroke="#63b8ff" points="54.59,-25.17 45.19,-20.28 49.49,-29.96 54.59,-25.17"/>
</g>
<!-- Node3 -->
<g id="node3" class="node">
<title>Node3</title>
<g id="a_node3"><a xlink:href="underlying__container_8h.html" target="_top" xlink:title=" ">
<polygon fill="white" stroke="#666666" points="203.5,-19 90.5,-19 90.5,0 203.5,0 203.5,-19"/>
<text text-anchor="middle" x="147" y="-7" font-family="Helvetica,sans-Serif" font-size="10.00">underlying_container.h</text>
</a>
</g>
</g>
<!-- Node1&#45;&gt;Node3 -->
<g id="edge2" class="edge">
<title>Node1&#45;&gt;Node3</title>
<path fill="none" stroke="#63b8ff" d="M104.84,-54.54C112.73,-46.3 122.64,-35.94 130.88,-27.34"/>
<polygon fill="#63b8ff" stroke="#63b8ff" points="133.26,-29.91 137.65,-20.27 128.21,-25.07 133.26,-29.91"/>
</g>
</g>
</svg>
