<?xml version="1.0" encoding="UTF-8" standalone="no"?>
<!DOCTYPE svg PUBLIC "-//W3C//DTD SVG 1.1//EN"
 "http://www.w3.org/Graphics/SVG/1.1/DTD/svg11.dtd">
<!-- Generated by graphviz version 7.0.5 (20221223.1930)
 -->
<!-- Title: src/Meta/serialize/container/container_operations.h Pages: 1 -->
<svg width="995pt" height="379pt"
 viewBox="0.00 0.00 994.50 379.00" xmlns="http://www.w3.org/2000/svg" xmlns:xlink="http://www.w3.org/1999/xlink">
<g id="graph0" class="graph" transform="scale(1 1) rotate(0) translate(4 375)">
<title>src/Meta/serialize/container/container_operations.h</title>
<!-- Node1 -->
<g id="node1" class="node">
<title>Node1</title>
<g id="a_node1"><a xlink:title=" ">
<polygon fill="#999999" stroke="#666666" points="509.5,-371 407.5,-371 407.5,-330 509.5,-330 509.5,-371"/>
<text text-anchor="start" x="415.5" y="-359" font-family="Helvetica,sans-Serif" font-size="10.00">src/Meta/serialize</text>
<text text-anchor="start" x="415.5" y="-348" font-family="Helvetica,sans-Serif" font-size="10.00">/container/container</text>
<text text-anchor="middle" x="458.5" y="-337" font-family="Helvetica,sans-Serif" font-size="10.00">_operations.h</text>
</a>
</g>
</g>
<!-- Node2 -->
<g id="node2" class="node">
<title>Node2</title>
<g id="a_node2"><a xlink:href="filter_8h.html" target="_top" xlink:title=" ">
<polygon fill="white" stroke="#666666" points="83,-294 0,-294 0,-275 83,-275 83,-294"/>
<text text-anchor="middle" x="41.5" y="-282" font-family="Helvetica,sans-Serif" font-size="10.00">../configs/filter.h</text>
</a>
</g>
</g>
<!-- Node1&#45;&gt;Node2 -->
<g id="edge1" class="edge">
<title>Node1&#45;&gt;Node2</title>
<path fill="none" stroke="#63b8ff" d="M407.24,-341.97C338.57,-331.83 212.6,-313.03 94.3,-294.27"/>
<polygon fill="#63b8ff" stroke="#63b8ff" points="95.16,-290.86 84.74,-292.75 94.06,-297.77 95.16,-290.86"/>
</g>
<!-- Node3 -->
<g id="node3" class="node">
<title>Node3</title>
<g id="a_node3"><a xlink:href="primitivetypes_8h.html" target="_top" xlink:title=" ">
<polygon fill="white" stroke="#666666" points="193.5,-294 101.5,-294 101.5,-275 193.5,-275 193.5,-294"/>
<text text-anchor="middle" x="147.5" y="-282" font-family="Helvetica,sans-Serif" font-size="10.00">../primitivetypes.h</text>
</a>
</g>
</g>
<!-- Node1&#45;&gt;Node3 -->
<g id="edge2" class="edge">
<title>Node1&#45;&gt;Node3</title>
<path fill="none" stroke="#63b8ff" d="M407.14,-338.93C350.53,-327.28 259.84,-308.62 202.01,-296.72"/>
<polygon fill="#63b8ff" stroke="#63b8ff" points="202.88,-293.32 192.38,-294.74 201.47,-300.18 202.88,-293.32"/>
</g>
<!-- Node4 -->
<g id="node4" class="node">
<title>Node4</title>
<g id="a_node4"><a xlink:href="comparestreamid_8h.html" target="_top" xlink:title=" ">
<polygon fill="white" stroke="#666666" points="357,-294 212,-294 212,-275 357,-275 357,-294"/>
<text text-anchor="middle" x="284.5" y="-282" font-family="Helvetica,sans-Serif" font-size="10.00">../streams/comparestreamid.h</text>
</a>
</g>
</g>
<!-- Node1&#45;&gt;Node4 -->
<g id="edge3" class="edge">
<title>Node1&#45;&gt;Node4</title>
<path fill="none" stroke="#63b8ff" d="M407.24,-330.64C378.94,-320.24 344.55,-307.59 319.37,-298.33"/>
<polygon fill="#63b8ff" stroke="#63b8ff" points="320.87,-295.15 310.27,-294.98 318.45,-301.72 320.87,-295.15"/>
</g>
<!-- Node5 -->
<g id="node5" class="node">
<title>Node5</title>
<g id="a_node5"><a xlink:href="containerevent_8h.html" target="_top" xlink:title=" ">
<polygon fill="white" stroke="#666666" points="542,-294 375,-294 375,-275 542,-275 542,-294"/>
<text text-anchor="middle" x="458.5" y="-282" font-family="Helvetica,sans-Serif" font-size="10.00">Generic/container/containerevent.h</text>
</a>
</g>
</g>
<!-- Node1&#45;&gt;Node5 -->
<g id="edge4" class="edge">
<title>Node1&#45;&gt;Node5</title>
<path fill="none" stroke="#63b8ff" d="M458.5,-329.6C458.5,-321.98 458.5,-313.3 458.5,-305.66"/>
<polygon fill="#63b8ff" stroke="#63b8ff" points="462,-305.68 458.5,-295.68 455,-305.68 462,-305.68"/>
</g>
<!-- Node6 -->
<g id="node6" class="node">
<title>Node6</title>
<g id="a_node6"><a xlink:href="requestpolicy_8h.html" target="_top" xlink:title=" ">
<polygon fill="white" stroke="#666666" points="682.5,-294 560.5,-294 560.5,-275 682.5,-275 682.5,-294"/>
<text text-anchor="middle" x="621.5" y="-282" font-family="Helvetica,sans-Serif" font-size="10.00">../configs/requestpolicy.h</text>
</a>
</g>
</g>
<!-- Node1&#45;&gt;Node6 -->
<g id="edge5" class="edge">
<title>Node1&#45;&gt;Node6</title>
<path fill="none" stroke="#63b8ff" d="M509.18,-329.6C535.04,-319.45 565.76,-307.39 588.53,-298.45"/>
<polygon fill="#63b8ff" stroke="#63b8ff" points="589.57,-301.8 597.6,-294.88 587.01,-295.28 589.57,-301.8"/>
</g>
<!-- Node7 -->
<g id="node7" class="node">
<title>Node7</title>
<g id="a_node7"><a xlink:href="pendingrequest_8h.html" target="_top" xlink:title=" ">
<polygon fill="white" stroke="#666666" points="778.5,-239 642.5,-239 642.5,-220 778.5,-220 778.5,-239"/>
<text text-anchor="middle" x="710.5" y="-227" font-family="Helvetica,sans-Serif" font-size="10.00">../streams/pendingrequest.h</text>
</a>
</g>
</g>
<!-- Node1&#45;&gt;Node7 -->
<g id="edge6" class="edge">
<title>Node1&#45;&gt;Node7</title>
<path fill="none" stroke="#63b8ff" d="M509.96,-343.28C570.38,-334.98 665.65,-318.41 691.5,-294 703.28,-282.87 707.85,-264.76 709.58,-250.72"/>
<polygon fill="#63b8ff" stroke="#63b8ff" points="713.06,-251.05 710.37,-240.8 706.09,-250.49 713.06,-251.05"/>
</g>
<!-- Node16 -->
<g id="node16" class="node">
<title>Node16</title>
<g id="a_node16"><a xlink:href="writemessage_8h.html" target="_top" xlink:title=" ">
<polygon fill="white" stroke="#666666" points="870,-294 739,-294 739,-275 870,-275 870,-294"/>
<text text-anchor="middle" x="804.5" y="-282" font-family="Helvetica,sans-Serif" font-size="10.00">../streams/writemessage.h</text>
</a>
</g>
</g>
<!-- Node1&#45;&gt;Node16 -->
<g id="edge18" class="edge">
<title>Node1&#45;&gt;Node16</title>
<path fill="none" stroke="#63b8ff" d="M509.93,-339.99C572.66,-328.38 678.51,-308.81 744.78,-296.55"/>
<polygon fill="#63b8ff" stroke="#63b8ff" points="745.18,-300.03 754.38,-294.77 743.91,-293.15 745.18,-300.03"/>
</g>
<!-- Node8 -->
<g id="node8" class="node">
<title>Node8</title>
<g id="a_node8"><a xlink:href="src_2_generic_2execution_2sender_8h.html" target="_top" xlink:title=" ">
<polygon fill="white" stroke="#666666" points="607.5,-129 473.5,-129 473.5,-110 607.5,-110 607.5,-129"/>
<text text-anchor="middle" x="540.5" y="-117" font-family="Helvetica,sans-Serif" font-size="10.00">Generic/execution/sender.h</text>
</a>
</g>
</g>
<!-- Node7&#45;&gt;Node8 -->
<g id="edge7" class="edge">
<title>Node7&#45;&gt;Node8</title>
<path fill="none" stroke="#63b8ff" d="M642.1,-222.24C591.18,-216.01 527.8,-204.34 511.5,-184 500.42,-170.17 511.46,-151.41 522.97,-137.88"/>
<polygon fill="#63b8ff" stroke="#63b8ff" points="525.5,-140.3 529.72,-130.58 520.36,-135.55 525.5,-140.3"/>
</g>
<!-- Node10 -->
<g id="node10" class="node">
<title>Node10</title>
<g id="a_node10"><a xlink:href="virtualsender_8h.html" target="_top" xlink:title=" ">
<polygon fill="white" stroke="#666666" points="682,-184 521,-184 521,-165 682,-165 682,-184"/>
<text text-anchor="middle" x="601.5" y="-172" font-family="Helvetica,sans-Serif" font-size="10.00">Generic/execution/virtualsender.h</text>
</a>
</g>
</g>
<!-- Node7&#45;&gt;Node10 -->
<g id="edge9" class="edge">
<title>Node7&#45;&gt;Node10</title>
<path fill="none" stroke="#63b8ff" d="M692.01,-219.51C675,-211.24 649.51,-198.84 629.91,-189.31"/>
<polygon fill="#63b8ff" stroke="#63b8ff" points="631.6,-186.25 621.08,-185.02 628.54,-192.54 631.6,-186.25"/>
</g>
<!-- Node11 -->
<g id="node11" class="node">
<title>Node11</title>
<g id="a_node11"><a xlink:href="virtualstate_8h.html" target="_top" xlink:title=" ">
<polygon fill="white" stroke="#666666" points="697.5,-129 625.5,-129 625.5,-110 697.5,-110 697.5,-129"/>
<text text-anchor="middle" x="661.5" y="-117" font-family="Helvetica,sans-Serif" font-size="10.00">virtualstate.h</text>
</a>
</g>
</g>
<!-- Node7&#45;&gt;Node11 -->
<g id="edge15" class="edge">
<title>Node7&#45;&gt;Node11</title>
<path fill="none" stroke="#63b8ff" d="M708.72,-219.56C706.02,-206.98 700.26,-183.51 691.5,-165 687.12,-155.75 680.98,-146.24 675.39,-138.4"/>
<polygon fill="#63b8ff" stroke="#63b8ff" points="678.24,-136.37 669.46,-130.44 672.62,-140.55 678.24,-136.37"/>
</g>
<!-- Node14 -->
<g id="node14" class="node">
<title>Node14</title>
<g id="a_node14"><a xlink:href="forward__capture_8h.html" target="_top" xlink:title=" ">
<polygon fill="white" stroke="#666666" points="870,-184 739,-184 739,-165 870,-165 870,-184"/>
<text text-anchor="middle" x="804.5" y="-172" font-family="Helvetica,sans-Serif" font-size="10.00">Generic/forward_capture.h</text>
</a>
</g>
</g>
<!-- Node7&#45;&gt;Node14 -->
<g id="edge16" class="edge">
<title>Node7&#45;&gt;Node14</title>
<path fill="none" stroke="#63b8ff" d="M726.45,-219.51C740.85,-211.39 762.29,-199.3 779.06,-189.85"/>
<polygon fill="#63b8ff" stroke="#63b8ff" points="780.48,-193.06 787.47,-185.1 777.04,-186.96 780.48,-193.06"/>
</g>
<!-- Node15 -->
<g id="node15" class="node">
<title>Node15</title>
<g id="a_node15"><a xlink:href="nulledptr_8h.html" target="_top" xlink:title=" ">
<polygon fill="white" stroke="#666666" points="986.5,-184 888.5,-184 888.5,-165 986.5,-165 986.5,-184"/>
<text text-anchor="middle" x="937.5" y="-172" font-family="Helvetica,sans-Serif" font-size="10.00">Generic/nulledptr.h</text>
</a>
</g>
</g>
<!-- Node7&#45;&gt;Node15 -->
<g id="edge17" class="edge">
<title>Node7&#45;&gt;Node15</title>
<path fill="none" stroke="#63b8ff" d="M749.01,-219.51C787.36,-210.55 846.39,-196.77 888.16,-187.02"/>
<polygon fill="#63b8ff" stroke="#63b8ff" points="888.77,-190.47 897.71,-184.79 887.18,-183.66 888.77,-190.47"/>
</g>
<!-- Node9 -->
<g id="node9" class="node">
<title>Node9</title>
<g id="a_node9"><a xlink:href="execution_2concepts_8h.html" target="_top" xlink:title=" ">
<polygon fill="white" stroke="#666666" points="577.5,-74 513.5,-74 513.5,-55 577.5,-55 577.5,-74"/>
<text text-anchor="middle" x="545.5" y="-62" font-family="Helvetica,sans-Serif" font-size="10.00">concepts.h</text>
</a>
</g>
</g>
<!-- Node8&#45;&gt;Node9 -->
<g id="edge8" class="edge">
<title>Node8&#45;&gt;Node9</title>
<path fill="none" stroke="#63b8ff" d="M541.33,-109.75C541.94,-103.27 542.8,-94.16 543.58,-85.9"/>
<polygon fill="#63b8ff" stroke="#63b8ff" points="547.06,-86.23 544.51,-75.95 540.09,-85.58 547.06,-86.23"/>
</g>
<!-- Node10&#45;&gt;Node8 -->
<g id="edge10" class="edge">
<title>Node10&#45;&gt;Node8</title>
<path fill="none" stroke="#63b8ff" d="M591.15,-164.51C582.42,-156.93 569.71,-145.88 559.2,-136.75"/>
<polygon fill="#63b8ff" stroke="#63b8ff" points="561.68,-134.27 551.84,-130.35 557.09,-139.55 561.68,-134.27"/>
</g>
<!-- Node10&#45;&gt;Node11 -->
<g id="edge11" class="edge">
<title>Node10&#45;&gt;Node11</title>
<path fill="none" stroke="#63b8ff" d="M611.68,-164.51C620.26,-156.93 632.77,-145.88 643.1,-136.75"/>
<polygon fill="#63b8ff" stroke="#63b8ff" points="645.16,-139.6 650.34,-130.36 640.53,-134.36 645.16,-139.6"/>
</g>
<!-- Node11&#45;&gt;Node9 -->
<g id="edge12" class="edge">
<title>Node11&#45;&gt;Node9</title>
<path fill="none" stroke="#63b8ff" d="M641.82,-109.51C623.55,-101.16 596.09,-88.61 575.15,-79.05"/>
<polygon fill="#63b8ff" stroke="#63b8ff" points="576.81,-75.96 566.26,-74.99 573.9,-82.33 576.81,-75.96"/>
</g>
<!-- Node12 -->
<g id="node12" class="node">
<title>Node12</title>
<g id="a_node12"><a xlink:href="virtual__invoke_8h.html" target="_top" xlink:title=" ">
<polygon fill="white" stroke="#666666" points="722,-74 601,-74 601,-55 722,-55 722,-74"/>
<text text-anchor="middle" x="661.5" y="-62" font-family="Helvetica,sans-Serif" font-size="10.00">Generic/virtual_invoke.h</text>
</a>
</g>
</g>
<!-- Node11&#45;&gt;Node12 -->
<g id="edge13" class="edge">
<title>Node11&#45;&gt;Node12</title>
<path fill="none" stroke="#63b8ff" d="M661.5,-109.75C661.5,-103.27 661.5,-94.16 661.5,-85.9"/>
<polygon fill="#63b8ff" stroke="#63b8ff" points="665,-85.96 661.5,-75.96 658,-85.96 665,-85.96"/>
</g>
<!-- Node13 -->
<g id="node13" class="node">
<title>Node13</title>
<g id="a_node13"><a xlink:href="callable__traits_8h.html" target="_top" xlink:title=" ">
<polygon fill="white" stroke="#666666" points="703.5,-19 619.5,-19 619.5,0 703.5,0 703.5,-19"/>
<text text-anchor="middle" x="661.5" y="-7" font-family="Helvetica,sans-Serif" font-size="10.00">callable_traits.h</text>
</a>
</g>
</g>
<!-- Node12&#45;&gt;Node13 -->
<g id="edge14" class="edge">
<title>Node12&#45;&gt;Node13</title>
<path fill="none" stroke="#63b8ff" d="M661.5,-54.75C661.5,-48.27 661.5,-39.16 661.5,-30.9"/>
<polygon fill="#63b8ff" stroke="#63b8ff" points="665,-30.96 661.5,-20.96 658,-30.96 665,-30.96"/>
</g>
<!-- Node16&#45;&gt;Node7 -->
<g id="edge19" class="edge">
<title>Node16&#45;&gt;Node7</title>
<path fill="none" stroke="#63b8ff" d="M788.55,-274.51C774.15,-266.39 752.71,-254.3 735.94,-244.85"/>
<polygon fill="#63b8ff" stroke="#63b8ff" points="737.96,-241.96 727.53,-240.1 734.52,-248.06 737.96,-241.96"/>
</g>
<!-- Node17 -->
<g id="node17" class="node">
<title>Node17</title>
<g id="a_node17"><a xlink:href="serializablemapholder_8h.html" target="_top" xlink:title=" ">
<polygon fill="white" stroke="#666666" points="914,-239 797,-239 797,-220 914,-220 914,-239"/>
<text text-anchor="middle" x="855.5" y="-227" font-family="Helvetica,sans-Serif" font-size="10.00">serializablemapholder.h</text>
</a>
</g>
</g>
<!-- Node16&#45;&gt;Node17 -->
<g id="edge20" class="edge">
<title>Node16&#45;&gt;Node17</title>
<path fill="none" stroke="#63b8ff" d="M812.92,-274.75C819.97,-267.43 830.23,-256.76 838.91,-247.74"/>
<polygon fill="#63b8ff" stroke="#63b8ff" points="841.43,-250.17 845.85,-240.53 836.39,-245.31 841.43,-250.17"/>
</g>
</g>
</svg>
