<?xml version="1.0" encoding="UTF-8" standalone="no"?>
<!DOCTYPE svg PUBLIC "-//W3C//DTD SVG 1.1//EN"
 "http://www.w3.org/Graphics/SVG/1.1/DTD/svg11.dtd">
<!-- Generated by graphviz version 7.0.5 (20221223.1930)
 -->
<!-- Title: src/Generic/customfunctors.h Pages: 1 -->
<svg width="153pt" height="137pt"
 viewBox="0.00 0.00 153.00 137.00" xmlns="http://www.w3.org/2000/svg" xmlns:xlink="http://www.w3.org/1999/xlink">
<g id="graph0" class="graph" transform="scale(1 1) rotate(0) translate(4 133)">
<title>src/Generic/customfunctors.h</title>
<!-- Node1 -->
<g id="node1" class="node">
<title>Node1</title>
<g id="a_node1"><a xlink:title=" ">
<polygon fill="#999999" stroke="#666666" points="145,-129 0,-129 0,-110 145,-110 145,-129"/>
<text text-anchor="middle" x="72.5" y="-117" font-family="Helvetica,sans-Serif" font-size="10.00">src/Generic/customfunctors.h</text>
</a>
</g>
</g>
<!-- Node2 -->
<g id="node2" class="node">
<title>Node2</title>
<g id="a_node2"><a xlink:href="memberoffsetptr_8h.html" target="_top" xlink:title=" ">
<polygon fill="white" stroke="#666666" points="120,-74 25,-74 25,-55 120,-55 120,-74"/>
<text text-anchor="middle" x="72.5" y="-62" font-family="Helvetica,sans-Serif" font-size="10.00">memberoffsetptr.h</text>
</a>
</g>
</g>
<!-- Node1&#45;&gt;Node2 -->
<g id="edge1" class="edge">
<title>Node1&#45;&gt;Node2</title>
<path fill="none" stroke="#63b8ff" d="M72.5,-109.75C72.5,-103.27 72.5,-94.16 72.5,-85.9"/>
<polygon fill="#63b8ff" stroke="#63b8ff" points="76,-85.96 72.5,-75.96 69,-85.96 76,-85.96"/>
</g>
<!-- Node3 -->
<g id="node3" class="node">
<title>Node3</title>
<g id="a_node3"><a xlink:href="replace_8h.html" target="_top" xlink:title=" ">
<polygon fill="white" stroke="#666666" points="62.5,-19 6.5,-19 6.5,0 62.5,0 62.5,-19"/>
<text text-anchor="middle" x="34.5" y="-7" font-family="Helvetica,sans-Serif" font-size="10.00">replace.h</text>
</a>
</g>
</g>
<!-- Node2&#45;&gt;Node3 -->
<g id="edge2" class="edge">
<title>Node2&#45;&gt;Node3</title>
<path fill="none" stroke="#63b8ff" d="M66.23,-54.75C61.14,-47.66 53.8,-37.42 47.47,-28.59"/>
<polygon fill="#63b8ff" stroke="#63b8ff" points="50.46,-26.76 41.79,-20.67 44.78,-30.84 50.46,-26.76"/>
</g>
<!-- Node4 -->
<g id="node4" class="node">
<title>Node4</title>
<g id="a_node4"><a xlink:href="offsetptr_8h.html" target="_top" xlink:title=" ">
<polygon fill="white" stroke="#666666" points="140,-19 81,-19 81,0 140,0 140,-19"/>
<text text-anchor="middle" x="110.5" y="-7" font-family="Helvetica,sans-Serif" font-size="10.00">offsetptr.h</text>
</a>
</g>
</g>
<!-- Node2&#45;&gt;Node4 -->
<g id="edge3" class="edge">
<title>Node2&#45;&gt;Node4</title>
<path fill="none" stroke="#63b8ff" d="M78.77,-54.75C83.86,-47.66 91.2,-37.42 97.53,-28.59"/>
<polygon fill="#63b8ff" stroke="#63b8ff" points="100.22,-30.84 103.21,-20.67 94.54,-26.76 100.22,-30.84"/>
</g>
</g>
</svg>
