<?xml version="1.0" encoding="UTF-8" standalone="no"?>
<!DOCTYPE svg PUBLIC "-//W3C//DTD SVG 1.1//EN"
 "http://www.w3.org/Graphics/SVG/1.1/DTD/svg11.dtd">
<!-- Generated by graphviz version 7.0.5 (20221223.1930)
 -->
<!-- Title: src/Modules/threading/datamutex.cpp Pages: 1 -->
<svg width="1130pt" height="720pt"
 viewBox="0.00 0.00 1129.50 720.00" xmlns="http://www.w3.org/2000/svg" xmlns:xlink="http://www.w3.org/1999/xlink">
<g id="graph0" class="graph" transform="scale(1 1) rotate(0) translate(4 716)">
<title>src/Modules/threading/datamutex.cpp</title>
<!-- Node1 -->
<g id="node1" class="node">
<title>Node1</title>
<g id="a_node1"><a xlink:title=" ">
<polygon fill="#999999" stroke="#666666" points="499,-712 386,-712 386,-682 499,-682 499,-712"/>
<text text-anchor="start" x="394" y="-700" font-family="Helvetica,sans-Serif" font-size="10.00">src/Modules/threading</text>
<text text-anchor="middle" x="442.5" y="-689" font-family="Helvetica,sans-Serif" font-size="10.00">/datamutex.cpp</text>
</a>
</g>
</g>
<!-- Node2 -->
<g id="node2" class="node">
<title>Node2</title>
<g id="a_node2"><a xlink:href="moduleslib_8h.html" target="_top" xlink:title=" ">
<polygon fill="white" stroke="#666666" points="360.5,-646 282.5,-646 282.5,-627 360.5,-627 360.5,-646"/>
<text text-anchor="middle" x="321.5" y="-634" font-family="Helvetica,sans-Serif" font-size="10.00">../moduleslib.h</text>
</a>
</g>
</g>
<!-- Node1&#45;&gt;Node2 -->
<g id="edge1" class="edge">
<title>Node1&#45;&gt;Node2</title>
<path fill="none" stroke="#63b8ff" d="M412.59,-681.54C393.52,-672.32 368.94,-660.44 350.13,-651.34"/>
<polygon fill="#63b8ff" stroke="#63b8ff" points="351.69,-648.21 341.16,-647 348.64,-654.51 351.69,-648.21"/>
</g>
<!-- Node5 -->
<g id="node5" class="node">
<title>Node5</title>
<g id="a_node5"><a xlink:href="datamutex_8h.html" target="_top" xlink:title=" ">
<polygon fill="white" stroke="#666666" points="238,-305 169,-305 169,-286 238,-286 238,-305"/>
<text text-anchor="middle" x="203.5" y="-293" font-family="Helvetica,sans-Serif" font-size="10.00">datamutex.h</text>
</a>
</g>
</g>
<!-- Node1&#45;&gt;Node5 -->
<g id="edge4" class="edge">
<title>Node1&#45;&gt;Node5</title>
<path fill="none" stroke="#63b8ff" d="M435.93,-681.65C426.83,-660.44 411.5,-619.27 411.5,-582.5 411.5,-582.5 411.5,-582.5 411.5,-404.5 411.5,-332.06 310.91,-308.14 249.63,-300.29"/>
<polygon fill="#63b8ff" stroke="#63b8ff" points="250.16,-296.83 239.82,-299.14 249.34,-303.78 250.16,-296.83"/>
</g>
<!-- Node18 -->
<g id="node18" class="node">
<title>Node18</title>
<g id="a_node18"><a xlink:href="execution_8h.html" target="_top" xlink:title=" ">
<polygon fill="white" stroke="#666666" points="960.5,-244.5 814.5,-244.5 814.5,-225.5 960.5,-225.5 960.5,-244.5"/>
<text text-anchor="middle" x="887.5" y="-232.5" font-family="Helvetica,sans-Serif" font-size="10.00">Generic/execution/execution.h</text>
</a>
</g>
</g>
<!-- Node1&#45;&gt;Node18 -->
<g id="edge21" class="edge">
<title>Node1&#45;&gt;Node18</title>
<path fill="none" stroke="#63b8ff" d="M499.47,-689.2C597.46,-675.91 787.5,-642.4 787.5,-582.5 787.5,-582.5 787.5,-582.5 787.5,-349.5 787.5,-304.86 831.58,-269.47 861.21,-250.72"/>
<polygon fill="#63b8ff" stroke="#63b8ff" points="862.95,-253.75 869.69,-245.58 859.33,-247.77 862.95,-253.75"/>
</g>
<!-- Node22 -->
<g id="node22" class="node">
<title>Node22</title>
<g id="a_node22"><a xlink:href="taskqueue_8h.html" target="_top" xlink:title=" ">
<polygon fill="white" stroke="#666666" points="513,-646 444,-646 444,-627 513,-627 513,-646"/>
<text text-anchor="middle" x="478.5" y="-634" font-family="Helvetica,sans-Serif" font-size="10.00">taskqueue.h</text>
</a>
</g>
</g>
<!-- Node1&#45;&gt;Node22 -->
<g id="edge26" class="edge">
<title>Node1&#45;&gt;Node22</title>
<path fill="none" stroke="#63b8ff" d="M451.4,-681.54C456.2,-673.74 462.18,-664.03 467.29,-655.71"/>
<polygon fill="#63b8ff" stroke="#63b8ff" points="470.11,-657.82 472.37,-647.46 464.15,-654.15 470.11,-657.82"/>
</g>
<!-- Node3 -->
<g id="node3" class="node">
<title>Node3</title>
<g id="a_node3"><a xlink:href="interfaceslib_8h.html" target="_top" xlink:title=" ">
<polygon fill="white" stroke="#666666" points="383,-591 260,-591 260,-572 383,-572 383,-591"/>
<text text-anchor="middle" x="321.5" y="-579" font-family="Helvetica,sans-Serif" font-size="10.00">Interfaces/interfaceslib.h</text>
</a>
</g>
</g>
<!-- Node2&#45;&gt;Node3 -->
<g id="edge2" class="edge">
<title>Node2&#45;&gt;Node3</title>
<path fill="none" stroke="#63b8ff" d="M321.5,-626.75C321.5,-620.27 321.5,-611.16 321.5,-602.9"/>
<polygon fill="#63b8ff" stroke="#63b8ff" points="325,-602.96 321.5,-592.96 318,-602.96 325,-602.96"/>
</g>
<!-- Node4 -->
<g id="node4" class="node">
<title>Node4</title>
<g id="a_node4"><a xlink:title=" ">
<polygon fill="#e0e0e0" stroke="#999999" points="241.5,-591 155.5,-591 155.5,-572 241.5,-572 241.5,-591"/>
<text text-anchor="middle" x="198.5" y="-579" font-family="Helvetica,sans-Serif" font-size="10.00">modulesconfig.h</text>
</a>
</g>
</g>
<!-- Node2&#45;&gt;Node4 -->
<g id="edge3" class="edge">
<title>Node2&#45;&gt;Node4</title>
<path fill="none" stroke="#63b8ff" d="M300.63,-626.51C281.08,-618.08 251.6,-605.38 229.33,-595.79"/>
<polygon fill="#63b8ff" stroke="#63b8ff" points="231.02,-592.7 220.45,-591.96 228.25,-599.13 231.02,-592.7"/>
</g>
<!-- Node6 -->
<g id="node6" class="node">
<title>Node6</title>
<g id="a_node6"><a xlink:href="execution_2concepts_8h.html" target="_top" xlink:title=" ">
<polygon fill="white" stroke="#666666" points="520,-74 375,-74 375,-55 520,-55 520,-74"/>
<text text-anchor="middle" x="447.5" y="-62" font-family="Helvetica,sans-Serif" font-size="10.00">Generic/execution/concepts.h</text>
</a>
</g>
</g>
<!-- Node5&#45;&gt;Node6 -->
<g id="edge5" class="edge">
<title>Node5&#45;&gt;Node6</title>
<path fill="none" stroke="#63b8ff" d="M203.46,-285.52C203.83,-255.53 209.33,-158.06 263.5,-110 279.9,-95.45 329.16,-83.98 372.59,-76.34"/>
<polygon fill="#63b8ff" stroke="#63b8ff" points="373.01,-79.81 382.28,-74.68 371.84,-72.91 373.01,-79.81"/>
</g>
<!-- Node7 -->
<g id="node7" class="node">
<title>Node7</title>
<g id="a_node7"><a xlink:href="genericresult_8h.html" target="_top" xlink:title=" ">
<polygon fill="white" stroke="#666666" points="175.5,-184 59.5,-184 59.5,-165 175.5,-165 175.5,-184"/>
<text text-anchor="middle" x="117.5" y="-172" font-family="Helvetica,sans-Serif" font-size="10.00">Generic/genericresult.h</text>
</a>
</g>
</g>
<!-- Node5&#45;&gt;Node7 -->
<g id="edge6" class="edge">
<title>Node5&#45;&gt;Node7</title>
<path fill="none" stroke="#63b8ff" d="M197.04,-285.56C182.9,-265.99 149,-219.09 130.35,-193.28"/>
<polygon fill="#63b8ff" stroke="#63b8ff" points="133.39,-191.51 124.69,-185.45 127.71,-195.61 133.39,-191.51"/>
</g>
<!-- Node11 -->
<g id="node11" class="node">
<title>Node11</title>
<g id="a_node11"><a xlink:href="connection_8h.html" target="_top" xlink:title=" ">
<polygon fill="white" stroke="#666666" points="383.5,-244.5 231.5,-244.5 231.5,-225.5 383.5,-225.5 383.5,-244.5"/>
<text text-anchor="middle" x="307.5" y="-232.5" font-family="Helvetica,sans-Serif" font-size="10.00">Generic/execution/connection.h</text>
</a>
</g>
</g>
<!-- Node5&#45;&gt;Node11 -->
<g id="edge10" class="edge">
<title>Node5&#45;&gt;Node11</title>
<path fill="none" stroke="#63b8ff" d="M219.3,-285.62C235.86,-276.29 262.17,-261.5 281.75,-250.49"/>
<polygon fill="#63b8ff" stroke="#63b8ff" points="283.24,-253.66 290.24,-245.71 279.81,-247.56 283.24,-253.66"/>
</g>
<!-- Node17 -->
<g id="node17" class="node">
<title>Node17</title>
<g id="a_node17"><a xlink:href="queue_8h.html" target="_top" xlink:title=" ">
<polygon fill="white" stroke="#666666" points="137,-250 0,-250 0,-220 137,-220 137,-250"/>
<text text-anchor="start" x="8" y="-238" font-family="Helvetica,sans-Serif" font-size="10.00">Generic/execution/container</text>
<text text-anchor="middle" x="68.5" y="-227" font-family="Helvetica,sans-Serif" font-size="10.00">/queue.h</text>
</a>
</g>
</g>
<!-- Node5&#45;&gt;Node17 -->
<g id="edge20" class="edge">
<title>Node5&#45;&gt;Node17</title>
<path fill="none" stroke="#63b8ff" d="M183,-285.62C164.32,-277.52 136.11,-265.3 112.37,-255.01"/>
<polygon fill="#63b8ff" stroke="#63b8ff" points="113.78,-251.81 103.21,-251.04 110.99,-258.23 113.78,-251.81"/>
</g>
<!-- Node8 -->
<g id="node8" class="node">
<title>Node8</title>
<g id="a_node8"><a xlink:href="enum_8h.html" target="_top" xlink:title=" ">
<polygon fill="white" stroke="#666666" points="141.5,-129 93.5,-129 93.5,-110 141.5,-110 141.5,-129"/>
<text text-anchor="middle" x="117.5" y="-117" font-family="Helvetica,sans-Serif" font-size="10.00">enum.h</text>
</a>
</g>
</g>
<!-- Node7&#45;&gt;Node8 -->
<g id="edge7" class="edge">
<title>Node7&#45;&gt;Node8</title>
<path fill="none" stroke="#63b8ff" d="M117.5,-164.75C117.5,-158.27 117.5,-149.16 117.5,-140.9"/>
<polygon fill="#63b8ff" stroke="#63b8ff" points="121,-140.96 117.5,-130.96 114,-140.96 121,-140.96"/>
</g>
<!-- Node9 -->
<g id="node9" class="node">
<title>Node9</title>
<g id="a_node9"><a xlink:href="array_8h.html" target="_top" xlink:title=" ">
<polygon fill="white" stroke="#666666" points="149.5,-74 85.5,-74 85.5,-55 149.5,-55 149.5,-74"/>
<text text-anchor="middle" x="117.5" y="-62" font-family="Helvetica,sans-Serif" font-size="10.00">bits/array.h</text>
</a>
</g>
</g>
<!-- Node8&#45;&gt;Node9 -->
<g id="edge8" class="edge">
<title>Node8&#45;&gt;Node9</title>
<path fill="none" stroke="#63b8ff" d="M117.5,-109.75C117.5,-103.27 117.5,-94.16 117.5,-85.9"/>
<polygon fill="#63b8ff" stroke="#63b8ff" points="121,-85.96 117.5,-75.96 114,-85.96 121,-85.96"/>
</g>
<!-- Node10 -->
<g id="node10" class="node">
<title>Node10</title>
<g id="a_node10"><a xlink:href="types_8h.html" target="_top" xlink:title=" ">
<polygon fill="white" stroke="#666666" points="141,-19 94,-19 94,0 141,0 141,-19"/>
<text text-anchor="middle" x="117.5" y="-7" font-family="Helvetica,sans-Serif" font-size="10.00">types.h</text>
</a>
</g>
</g>
<!-- Node9&#45;&gt;Node10 -->
<g id="edge9" class="edge">
<title>Node9&#45;&gt;Node10</title>
<path fill="none" stroke="#63b8ff" d="M117.5,-54.75C117.5,-48.27 117.5,-39.16 117.5,-30.9"/>
<polygon fill="#63b8ff" stroke="#63b8ff" points="121,-30.96 117.5,-20.96 114,-30.96 121,-30.96"/>
</g>
<!-- Node11&#45;&gt;Node7 -->
<g id="edge11" class="edge">
<title>Node11&#45;&gt;Node7</title>
<path fill="none" stroke="#63b8ff" d="M278.64,-225.12C246.28,-215.15 193.58,-198.93 157.32,-187.76"/>
<polygon fill="#63b8ff" stroke="#63b8ff" points="158.66,-184.51 148.08,-184.91 156.6,-191.2 158.66,-184.51"/>
</g>
<!-- Node12 -->
<g id="node12" class="node">
<title>Node12</title>
<g id="a_node12"><a xlink:href="virtualsender_8h.html" target="_top" xlink:title=" ">
<polygon fill="white" stroke="#666666" points="417.5,-184 337.5,-184 337.5,-165 417.5,-165 417.5,-184"/>
<text text-anchor="middle" x="377.5" y="-172" font-family="Helvetica,sans-Serif" font-size="10.00">virtualsender.h</text>
</a>
</g>
</g>
<!-- Node11&#45;&gt;Node12 -->
<g id="edge12" class="edge">
<title>Node11&#45;&gt;Node12</title>
<path fill="none" stroke="#63b8ff" d="M318.13,-225.12C328.72,-216.27 345.21,-202.48 358.13,-191.69"/>
<polygon fill="#63b8ff" stroke="#63b8ff" points="360.18,-194.54 365.61,-185.44 355.69,-189.17 360.18,-194.54"/>
</g>
<!-- Node14 -->
<g id="node14" class="node">
<title>Node14</title>
<g id="a_node14"><a xlink:href="virtualstate_8h.html" target="_top" xlink:title=" ">
<polygon fill="white" stroke="#666666" points="344.5,-129 272.5,-129 272.5,-110 344.5,-110 344.5,-129"/>
<text text-anchor="middle" x="308.5" y="-117" font-family="Helvetica,sans-Serif" font-size="10.00">virtualstate.h</text>
</a>
</g>
</g>
<!-- Node11&#45;&gt;Node14 -->
<g id="edge19" class="edge">
<title>Node11&#45;&gt;Node14</title>
<path fill="none" stroke="#63b8ff" d="M307.58,-225.09C307.74,-207.03 308.1,-165.67 308.32,-140.71"/>
<polygon fill="#63b8ff" stroke="#63b8ff" points="311.82,-140.91 308.41,-130.88 304.82,-140.85 311.82,-140.91"/>
</g>
<!-- Node13 -->
<g id="node13" class="node">
<title>Node13</title>
<g id="a_node13"><a xlink:href="src_2_generic_2execution_2sender_8h.html" target="_top" xlink:title=" ">
<polygon fill="white" stroke="#666666" points="418,-129 365,-129 365,-110 418,-110 418,-129"/>
<text text-anchor="middle" x="391.5" y="-117" font-family="Helvetica,sans-Serif" font-size="10.00">sender.h</text>
</a>
</g>
</g>
<!-- Node12&#45;&gt;Node13 -->
<g id="edge13" class="edge">
<title>Node12&#45;&gt;Node13</title>
<path fill="none" stroke="#63b8ff" d="M379.81,-164.75C381.56,-158.11 384.04,-148.73 386.27,-140.31"/>
<polygon fill="#63b8ff" stroke="#63b8ff" points="389.58,-141.47 388.75,-130.91 382.81,-139.68 389.58,-141.47"/>
</g>
<!-- Node12&#45;&gt;Node14 -->
<g id="edge15" class="edge">
<title>Node12&#45;&gt;Node14</title>
<path fill="none" stroke="#63b8ff" d="M365.8,-164.51C355.72,-156.77 340.96,-145.43 328.94,-136.2"/>
<polygon fill="#63b8ff" stroke="#63b8ff" points="331.29,-133.6 321.23,-130.28 327.03,-139.15 331.29,-133.6"/>
</g>
<!-- Node13&#45;&gt;Node6 -->
<g id="edge14" class="edge">
<title>Node13&#45;&gt;Node6</title>
<path fill="none" stroke="#63b8ff" d="M401,-109.51C408.93,-102 420.45,-91.1 430.04,-82.03"/>
<polygon fill="#63b8ff" stroke="#63b8ff" points="432.18,-84.81 437.04,-75.4 427.37,-79.73 432.18,-84.81"/>
</g>
<!-- Node14&#45;&gt;Node6 -->
<g id="edge16" class="edge">
<title>Node14&#45;&gt;Node6</title>
<path fill="none" stroke="#63b8ff" d="M332.08,-109.51C354.48,-100.97 388.4,-88.03 413.68,-78.4"/>
<polygon fill="#63b8ff" stroke="#63b8ff" points="414.76,-81.73 422.85,-74.9 412.26,-75.19 414.76,-81.73"/>
</g>
<!-- Node15 -->
<g id="node15" class="node">
<title>Node15</title>
<g id="a_node15"><a xlink:href="virtual__invoke_8h.html" target="_top" xlink:title=" ">
<polygon fill="white" stroke="#666666" points="357,-74 236,-74 236,-55 357,-55 357,-74"/>
<text text-anchor="middle" x="296.5" y="-62" font-family="Helvetica,sans-Serif" font-size="10.00">Generic/virtual_invoke.h</text>
</a>
</g>
</g>
<!-- Node14&#45;&gt;Node15 -->
<g id="edge17" class="edge">
<title>Node14&#45;&gt;Node15</title>
<path fill="none" stroke="#63b8ff" d="M306.52,-109.75C305.03,-103.19 302.94,-93.95 301.05,-85.6"/>
<polygon fill="#63b8ff" stroke="#63b8ff" points="304.48,-84.9 298.86,-75.92 297.65,-86.44 304.48,-84.9"/>
</g>
<!-- Node16 -->
<g id="node16" class="node">
<title>Node16</title>
<g id="a_node16"><a xlink:href="callable__traits_8h.html" target="_top" xlink:title=" ">
<polygon fill="white" stroke="#666666" points="338.5,-19 254.5,-19 254.5,0 338.5,0 338.5,-19"/>
<text text-anchor="middle" x="296.5" y="-7" font-family="Helvetica,sans-Serif" font-size="10.00">callable_traits.h</text>
</a>
</g>
</g>
<!-- Node15&#45;&gt;Node16 -->
<g id="edge18" class="edge">
<title>Node15&#45;&gt;Node16</title>
<path fill="none" stroke="#63b8ff" d="M296.5,-54.75C296.5,-48.27 296.5,-39.16 296.5,-30.9"/>
<polygon fill="#63b8ff" stroke="#63b8ff" points="300,-30.96 296.5,-20.96 293,-30.96 300,-30.96"/>
</g>
<!-- Node18&#45;&gt;Node6 -->
<g id="edge24" class="edge">
<title>Node18&#45;&gt;Node6</title>
<path fill="none" stroke="#63b8ff" d="M892.06,-225.15C898.55,-211.2 908.41,-183.77 896.5,-165 865.7,-116.49 834.62,-126.23 779.5,-110 697.19,-85.77 599.49,-74.69 531.47,-69.65"/>
<polygon fill="#63b8ff" stroke="#63b8ff" points="532.12,-66.18 521.9,-68.97 531.63,-73.17 532.12,-66.18"/>
</g>
<!-- Node19 -->
<g id="node19" class="node">
<title>Node19</title>
<g id="a_node19"><a xlink:href="makeowning_8h.html" target="_top" xlink:title=" ">
<polygon fill="white" stroke="#666666" points="1029.5,-184 943.5,-184 943.5,-165 1029.5,-165 1029.5,-184"/>
<text text-anchor="middle" x="986.5" y="-172" font-family="Helvetica,sans-Serif" font-size="10.00">../makeowning.h</text>
</a>
</g>
</g>
<!-- Node18&#45;&gt;Node19 -->
<g id="edge22" class="edge">
<title>Node18&#45;&gt;Node19</title>
<path fill="none" stroke="#63b8ff" d="M902.54,-225.12C918.16,-215.88 942.89,-201.27 961.47,-190.29"/>
<polygon fill="#63b8ff" stroke="#63b8ff" points="963.19,-193.34 970.02,-185.24 959.63,-187.31 963.19,-193.34"/>
</g>
<!-- Node20 -->
<g id="node20" class="node">
<title>Node20</title>
<g id="a_node20"><a xlink:href="withresult_8h.html" target="_top" xlink:title=" ">
<polygon fill="white" stroke="#666666" points="1121.5,-184 1047.5,-184 1047.5,-165 1121.5,-165 1121.5,-184"/>
<text text-anchor="middle" x="1084.5" y="-172" font-family="Helvetica,sans-Serif" font-size="10.00">../withresult.h</text>
</a>
</g>
</g>
<!-- Node18&#45;&gt;Node20 -->
<g id="edge23" class="edge">
<title>Node18&#45;&gt;Node20</title>
<path fill="none" stroke="#63b8ff" d="M917.42,-225.12C951.12,-215.11 1006.08,-198.79 1043.7,-187.62"/>
<polygon fill="#63b8ff" stroke="#63b8ff" points="1044.26,-191.1 1052.85,-184.9 1042.26,-184.39 1044.26,-191.1"/>
</g>
<!-- Node21 -->
<g id="node21" class="node">
<title>Node21</title>
<g id="a_node21"><a xlink:href="storage_8h.html" target="_top" xlink:title=" ">
<polygon fill="white" stroke="#666666" points="887.5,-184 831.5,-184 831.5,-165 887.5,-165 887.5,-184"/>
<text text-anchor="middle" x="859.5" y="-172" font-family="Helvetica,sans-Serif" font-size="10.00">storage.h</text>
</a>
</g>
</g>
<!-- Node18&#45;&gt;Node21 -->
<g id="edge25" class="edge">
<title>Node18&#45;&gt;Node21</title>
<path fill="none" stroke="#63b8ff" d="M883.37,-225.37C879.48,-217.25 873.53,-204.81 868.54,-194.39"/>
<polygon fill="#63b8ff" stroke="#63b8ff" points="871.78,-193.04 864.3,-185.53 865.46,-196.06 871.78,-193.04"/>
</g>
<!-- Node23 -->
<g id="node23" class="node">
<title>Node23</title>
<g id="a_node23"><a xlink:href="task_8h.html" target="_top" xlink:title=" ">
<polygon fill="white" stroke="#666666" points="505,-591 462,-591 462,-572 505,-572 505,-591"/>
<text text-anchor="middle" x="483.5" y="-579" font-family="Helvetica,sans-Serif" font-size="10.00">task.h</text>
</a>
</g>
</g>
<!-- Node22&#45;&gt;Node23 -->
<g id="edge27" class="edge">
<title>Node22&#45;&gt;Node23</title>
<path fill="none" stroke="#63b8ff" d="M479.33,-626.75C479.94,-620.27 480.8,-611.16 481.58,-602.9"/>
<polygon fill="#63b8ff" stroke="#63b8ff" points="485.06,-603.23 482.51,-592.95 478.09,-602.58 485.06,-603.23"/>
</g>
<!-- Node24 -->
<g id="node24" class="node">
<title>Node24</title>
<g id="a_node24"><a xlink:href="src_2_generic_2coroutines_2handle_8h.html" target="_top" xlink:title=" ">
<polygon fill="white" stroke="#666666" points="638.5,-536 540.5,-536 540.5,-506 638.5,-506 638.5,-536"/>
<text text-anchor="start" x="548.5" y="-524" font-family="Helvetica,sans-Serif" font-size="10.00">Generic/coroutines</text>
<text text-anchor="middle" x="589.5" y="-513" font-family="Helvetica,sans-Serif" font-size="10.00">/handle.h</text>
</a>
</g>
</g>
<!-- Node23&#45;&gt;Node24 -->
<g id="edge28" class="edge">
<title>Node23&#45;&gt;Node24</title>
<path fill="none" stroke="#63b8ff" d="M499.6,-571.62C513.8,-563.78 535.02,-552.06 553.28,-541.99"/>
<polygon fill="#63b8ff" stroke="#63b8ff" points="554.95,-545.07 562.01,-537.17 551.56,-538.94 554.95,-545.07"/>
</g>
<!-- Node25 -->
<g id="node25" class="node">
<title>Node25</title>
<g id="a_node25"><a xlink:href="taskpromise_8h.html" target="_top" xlink:title=" ">
<polygon fill="white" stroke="#666666" points="522,-530.5 445,-530.5 445,-511.5 522,-511.5 522,-530.5"/>
<text text-anchor="middle" x="483.5" y="-518.5" font-family="Helvetica,sans-Serif" font-size="10.00">taskpromise.h</text>
</a>
</g>
</g>
<!-- Node23&#45;&gt;Node25 -->
<g id="edge29" class="edge">
<title>Node23&#45;&gt;Node25</title>
<path fill="none" stroke="#63b8ff" d="M483.5,-571.87C483.5,-564 483.5,-552.1 483.5,-541.89"/>
<polygon fill="#63b8ff" stroke="#63b8ff" points="487,-542.18 483.5,-532.18 480,-542.18 487,-542.18"/>
</g>
<!-- Node25&#45;&gt;Node6 -->
<g id="edge49" class="edge">
<title>Node25&#45;&gt;Node6</title>
<path fill="none" stroke="#63b8ff" d="M478.91,-511.15C469.63,-492.39 449.5,-447.02 449.5,-406.5 449.5,-406.5 449.5,-406.5 449.5,-294.5 449.5,-217.34 448.35,-125.57 447.79,-85.68"/>
<polygon fill="#63b8ff" stroke="#63b8ff" points="451.3,-85.7 447.65,-75.75 444.3,-85.8 451.3,-85.7"/>
</g>
<!-- Node26 -->
<g id="node26" class="node">
<title>Node26</title>
<g id="a_node26"><a xlink:href="taskfuture_8h.html" target="_top" xlink:title=" ">
<polygon fill="white" stroke="#666666" points="583.5,-470 515.5,-470 515.5,-451 583.5,-451 583.5,-470"/>
<text text-anchor="middle" x="549.5" y="-458" font-family="Helvetica,sans-Serif" font-size="10.00">taskfuture.h</text>
</a>
</g>
</g>
<!-- Node25&#45;&gt;Node26 -->
<g id="edge30" class="edge">
<title>Node25&#45;&gt;Node26</title>
<path fill="none" stroke="#63b8ff" d="M493.52,-511.12C503.41,-502.35 518.76,-488.75 530.88,-478"/>
<polygon fill="#63b8ff" stroke="#63b8ff" points="533.09,-480.72 538.25,-471.47 528.44,-475.49 533.09,-480.72"/>
</g>
<!-- Node27 -->
<g id="node27" class="node">
<title>Node27</title>
<g id="a_node27"><a xlink:href="taskhandle_8h.html" target="_top" xlink:title=" ">
<polygon fill="white" stroke="#666666" points="549,-360 478,-360 478,-341 549,-341 549,-360"/>
<text text-anchor="middle" x="513.5" y="-348" font-family="Helvetica,sans-Serif" font-size="10.00">taskhandle.h</text>
</a>
</g>
</g>
<!-- Node25&#45;&gt;Node27 -->
<g id="edge48" class="edge">
<title>Node25&#45;&gt;Node27</title>
<path fill="none" stroke="#63b8ff" d="M485.03,-511.41C489.62,-485.62 503.38,-408.32 509.94,-371.47"/>
<polygon fill="#63b8ff" stroke="#63b8ff" points="513.37,-372.22 511.67,-361.76 506.47,-370.99 513.37,-372.22"/>
</g>
<!-- Node26&#45;&gt;Node27 -->
<g id="edge31" class="edge">
<title>Node26&#45;&gt;Node27</title>
<path fill="none" stroke="#63b8ff" d="M546.55,-450.66C540.81,-433.42 527.97,-394.9 520.09,-371.27"/>
<polygon fill="#63b8ff" stroke="#63b8ff" points="523.45,-370.28 516.97,-361.9 516.81,-372.49 523.45,-370.28"/>
</g>
<!-- Node28 -->
<g id="node28" class="node">
<title>Node28</title>
<g id="a_node28"><a xlink:href="taskpromisesharedstate_8h.html" target="_top" xlink:title=" ">
<polygon fill="white" stroke="#666666" points="681.5,-415 553.5,-415 553.5,-396 681.5,-396 681.5,-415"/>
<text text-anchor="middle" x="617.5" y="-403" font-family="Helvetica,sans-Serif" font-size="10.00">taskpromisesharedstate.h</text>
</a>
</g>
</g>
<!-- Node26&#45;&gt;Node28 -->
<g id="edge32" class="edge">
<title>Node26&#45;&gt;Node28</title>
<path fill="none" stroke="#63b8ff" d="M561.04,-450.51C570.96,-442.77 585.51,-431.43 597.36,-422.2"/>
<polygon fill="#63b8ff" stroke="#63b8ff" points="599.21,-425.2 604.94,-416.29 594.9,-419.68 599.21,-425.2"/>
</g>
<!-- Node28&#45;&gt;Node27 -->
<g id="edge47" class="edge">
<title>Node28&#45;&gt;Node27</title>
<path fill="none" stroke="#63b8ff" d="M599.86,-395.51C583.77,-387.31 559.75,-375.07 541.13,-365.58"/>
<polygon fill="#63b8ff" stroke="#63b8ff" points="542.73,-362.47 532.23,-361.05 539.55,-368.7 542.73,-362.47"/>
</g>
<!-- Node29 -->
<g id="node29" class="node">
<title>Node29</title>
<g id="a_node29"><a xlink:href="flag_8h.html" target="_top" xlink:title=" ">
<polygon fill="white" stroke="#666666" points="687.5,-360 567.5,-360 567.5,-341 687.5,-341 687.5,-360"/>
<text text-anchor="middle" x="627.5" y="-348" font-family="Helvetica,sans-Serif" font-size="10.00">Generic/execution/flag.h</text>
</a>
</g>
</g>
<!-- Node28&#45;&gt;Node29 -->
<g id="edge33" class="edge">
<title>Node28&#45;&gt;Node29</title>
<path fill="none" stroke="#63b8ff" d="M619.15,-395.75C620.39,-389.19 622.13,-379.95 623.71,-371.6"/>
<polygon fill="#63b8ff" stroke="#63b8ff" points="627.12,-372.4 625.53,-361.93 620.24,-371.11 627.12,-372.4"/>
</g>
<!-- Node30 -->
<g id="node30" class="node">
<title>Node30</title>
<g id="a_node30"><a xlink:href="flagstub_8h.html" target="_top" xlink:title=" ">
<polygon fill="white" stroke="#666666" points="655.5,-305 597.5,-305 597.5,-286 655.5,-286 655.5,-305"/>
<text text-anchor="middle" x="626.5" y="-293" font-family="Helvetica,sans-Serif" font-size="10.00">flagstub.h</text>
</a>
</g>
</g>
<!-- Node29&#45;&gt;Node30 -->
<g id="edge34" class="edge">
<title>Node29&#45;&gt;Node30</title>
<path fill="none" stroke="#63b8ff" d="M627.33,-340.75C627.21,-334.27 627.04,-325.16 626.88,-316.9"/>
<polygon fill="#63b8ff" stroke="#63b8ff" points="630.39,-316.89 626.7,-306.96 623.39,-317.02 630.39,-316.89"/>
</g>
<!-- Node30&#45;&gt;Node11 -->
<g id="edge43" class="edge">
<title>Node30&#45;&gt;Node11</title>
<path fill="none" stroke="#63b8ff" d="M597.06,-289.1C545.05,-279.56 435.93,-259.55 367.5,-247"/>
<polygon fill="#63b8ff" stroke="#63b8ff" points="368.43,-243.61 357.96,-245.25 367.16,-250.5 368.43,-243.61"/>
</g>
<!-- Node30&#45;&gt;Node12 -->
<g id="edge45" class="edge">
<title>Node30&#45;&gt;Node12</title>
<path fill="none" stroke="#63b8ff" d="M607.78,-285.56C564.6,-264.92 457.75,-213.85 406.21,-189.22"/>
<polygon fill="#63b8ff" stroke="#63b8ff" points="407.99,-186.19 397.46,-185.04 404.97,-192.51 407.99,-186.19"/>
</g>
<!-- Node30&#45;&gt;Node18 -->
<g id="edge44" class="edge">
<title>Node30&#45;&gt;Node18</title>
<path fill="none" stroke="#63b8ff" d="M655.93,-287.9C699.74,-278.08 782.71,-259.49 836.52,-247.43"/>
<polygon fill="#63b8ff" stroke="#63b8ff" points="837.07,-250.89 846.06,-245.29 835.54,-244.06 837.07,-250.89"/>
</g>
<!-- Node31 -->
<g id="node31" class="node">
<title>Node31</title>
<g id="a_node31"><a xlink:href="algorithm_8h.html" target="_top" xlink:title=" ">
<polygon fill="white" stroke="#666666" points="754.5,-244.5 690.5,-244.5 690.5,-225.5 754.5,-225.5 754.5,-244.5"/>
<text text-anchor="middle" x="722.5" y="-232.5" font-family="Helvetica,sans-Serif" font-size="10.00">algorithm.h</text>
</a>
</g>
</g>
<!-- Node30&#45;&gt;Node31 -->
<g id="edge35" class="edge">
<title>Node30&#45;&gt;Node31</title>
<path fill="none" stroke="#63b8ff" d="M641.08,-285.62C656.16,-276.42 679.99,-261.91 697.98,-250.94"/>
<polygon fill="#63b8ff" stroke="#63b8ff" points="699.77,-253.95 706.49,-245.76 696.13,-247.97 699.77,-253.95"/>
</g>
<!-- Node37 -->
<g id="node37" class="node">
<title>Node37</title>
<g id="a_node37"><a xlink:href="stack_8h.html" target="_top" xlink:title=" ">
<polygon fill="white" stroke="#666666" points="672,-244.5 581,-244.5 581,-225.5 672,-225.5 672,-244.5"/>
<text text-anchor="middle" x="626.5" y="-232.5" font-family="Helvetica,sans-Serif" font-size="10.00">container/stack.h</text>
</a>
</g>
</g>
<!-- Node30&#45;&gt;Node37 -->
<g id="edge46" class="edge">
<title>Node30&#45;&gt;Node37</title>
<path fill="none" stroke="#63b8ff" d="M626.5,-285.87C626.5,-278 626.5,-266.1 626.5,-255.89"/>
<polygon fill="#63b8ff" stroke="#63b8ff" points="630,-256.18 626.5,-246.18 623,-256.18 630,-256.18"/>
</g>
<!-- Node31&#45;&gt;Node6 -->
<g id="edge41" class="edge">
<title>Node31&#45;&gt;Node6</title>
<path fill="none" stroke="#63b8ff" d="M740.98,-225.01C755.8,-216.66 775.55,-202.71 784.5,-184 796.96,-157.95 762.28,-112.08 759.5,-110 724.47,-83.76 611.38,-72.94 531.48,-68.51"/>
<polygon fill="#63b8ff" stroke="#63b8ff" points="532.11,-65.04 521.94,-68.01 531.75,-72.03 532.11,-65.04"/>
</g>
<!-- Node31&#45;&gt;Node21 -->
<g id="edge42" class="edge">
<title>Node31&#45;&gt;Node21</title>
<path fill="none" stroke="#63b8ff" d="M743.31,-225.12C765.84,-215.49 802.04,-200.04 828.04,-188.93"/>
<polygon fill="#63b8ff" stroke="#63b8ff" points="829.28,-192.21 837.1,-185.06 826.53,-185.77 829.28,-192.21"/>
</g>
<!-- Node32 -->
<g id="node32" class="node">
<title>Node32</title>
<g id="a_node32"><a xlink:href="delayedconstruct_8h.html" target="_top" xlink:title=" ">
<polygon fill="white" stroke="#666666" points="775,-184 670,-184 670,-165 775,-165 775,-184"/>
<text text-anchor="middle" x="722.5" y="-172" font-family="Helvetica,sans-Serif" font-size="10.00">../delayedconstruct.h</text>
</a>
</g>
</g>
<!-- Node31&#45;&gt;Node32 -->
<g id="edge36" class="edge">
<title>Node31&#45;&gt;Node32</title>
<path fill="none" stroke="#63b8ff" d="M722.5,-225.37C722.5,-217.5 722.5,-205.6 722.5,-195.39"/>
<polygon fill="#63b8ff" stroke="#63b8ff" points="726,-195.68 722.5,-185.68 719,-195.68 726,-195.68"/>
</g>
<!-- Node34 -->
<g id="node34" class="node">
<title>Node34</title>
<g id="a_node34"><a xlink:href="manuallifetime_8h.html" target="_top" xlink:title=" ">
<polygon fill="white" stroke="#666666" points="571,-184 476,-184 476,-165 571,-165 571,-184"/>
<text text-anchor="middle" x="523.5" y="-172" font-family="Helvetica,sans-Serif" font-size="10.00">../manuallifetime.h</text>
</a>
</g>
</g>
<!-- Node31&#45;&gt;Node34 -->
<g id="edge38" class="edge">
<title>Node31&#45;&gt;Node34</title>
<path fill="none" stroke="#63b8ff" d="M696.98,-225.05C691.87,-223.32 686.53,-221.56 681.5,-220 643.41,-208.14 599.73,-195.95 567.96,-187.33"/>
<polygon fill="#63b8ff" stroke="#63b8ff" points="569.28,-184.06 558.71,-184.83 567.46,-190.82 569.28,-184.06"/>
</g>
<!-- Node35 -->
<g id="node35" class="node">
<title>Node35</title>
<g id="a_node35"><a xlink:href="pipable_8h.html" target="_top" xlink:title=" ">
<polygon fill="white" stroke="#666666" points="651.5,-184 589.5,-184 589.5,-165 651.5,-165 651.5,-184"/>
<text text-anchor="middle" x="620.5" y="-172" font-family="Helvetica,sans-Serif" font-size="10.00">../pipable.h</text>
</a>
</g>
</g>
<!-- Node31&#45;&gt;Node35 -->
<g id="edge39" class="edge">
<title>Node31&#45;&gt;Node35</title>
<path fill="none" stroke="#63b8ff" d="M707.01,-225.12C690.83,-215.84 665.2,-201.13 646.02,-190.14"/>
<polygon fill="#63b8ff" stroke="#63b8ff" points="647.87,-187.16 637.45,-185.22 644.38,-193.23 647.87,-187.16"/>
</g>
<!-- Node33 -->
<g id="node33" class="node">
<title>Node33</title>
<g id="a_node33"><a xlink:href="closure_8h.html" target="_top" xlink:title=" ">
<polygon fill="white" stroke="#666666" points="750.5,-129 694.5,-129 694.5,-110 750.5,-110 750.5,-129"/>
<text text-anchor="middle" x="722.5" y="-117" font-family="Helvetica,sans-Serif" font-size="10.00">closure.h</text>
</a>
</g>
</g>
<!-- Node32&#45;&gt;Node33 -->
<g id="edge37" class="edge">
<title>Node32&#45;&gt;Node33</title>
<path fill="none" stroke="#63b8ff" d="M722.5,-164.75C722.5,-158.27 722.5,-149.16 722.5,-140.9"/>
<polygon fill="#63b8ff" stroke="#63b8ff" points="726,-140.96 722.5,-130.96 719,-140.96 726,-140.96"/>
</g>
<!-- Node36 -->
<g id="node36" class="node">
<title>Node36</title>
<g id="a_node36"><a xlink:href="lift_8h.html" target="_top" xlink:title=" ">
<polygon fill="white" stroke="#666666" points="638,-129 603,-129 603,-110 638,-110 638,-129"/>
<text text-anchor="middle" x="620.5" y="-117" font-family="Helvetica,sans-Serif" font-size="10.00">lift.h</text>
</a>
</g>
</g>
<!-- Node35&#45;&gt;Node36 -->
<g id="edge40" class="edge">
<title>Node35&#45;&gt;Node36</title>
<path fill="none" stroke="#63b8ff" d="M620.5,-164.75C620.5,-158.27 620.5,-149.16 620.5,-140.9"/>
<polygon fill="#63b8ff" stroke="#63b8ff" points="624,-140.96 620.5,-130.96 617,-140.96 624,-140.96"/>
</g>
</g>
</svg>
