<?xml version="1.0" encoding="UTF-8" standalone="no"?>
<!DOCTYPE svg PUBLIC "-//W3C//DTD SVG 1.1//EN"
 "http://www.w3.org/Graphics/SVG/1.1/DTD/svg11.dtd">
<!-- Generated by graphviz version 7.0.5 (20221223.1930)
 -->
<!-- Title: plugins/debug/api/src/Madgine/debug/debugger.h Pages: 1 -->
<svg width="1284pt" height="544pt"
 viewBox="0.00 0.00 1283.50 544.00" xmlns="http://www.w3.org/2000/svg" xmlns:xlink="http://www.w3.org/1999/xlink">
<g id="graph0" class="graph" transform="scale(1 1) rotate(0) translate(4 540)">
<title>plugins/debug/api/src/Madgine/debug/debugger.h</title>
<!-- Node1 -->
<g id="node1" class="node">
<title>Node1</title>
<g id="a_node1"><a xlink:title=" ">
<polygon fill="#999999" stroke="#666666" points="697.5,-536 561.5,-536 561.5,-506 697.5,-506 697.5,-536"/>
<text text-anchor="start" x="569.5" y="-524" font-family="Helvetica,sans-Serif" font-size="10.00">plugins/debug/api/src</text>
<text text-anchor="middle" x="629.5" y="-513" font-family="Helvetica,sans-Serif" font-size="10.00">/Madgine/debug/debugger.h</text>
</a>
</g>
</g>
<!-- Node2 -->
<g id="node2" class="node">
<title>Node2</title>
<g id="a_node2"><a xlink:href="callable__view_8h.html" target="_top" xlink:title=" ">
<polygon fill="white" stroke="#666666" points="119,-470 0,-470 0,-451 119,-451 119,-470"/>
<text text-anchor="middle" x="59.5" y="-458" font-family="Helvetica,sans-Serif" font-size="10.00">Generic/callable_view.h</text>
</a>
</g>
</g>
<!-- Node1&#45;&gt;Node2 -->
<g id="edge1" class="edge">
<title>Node1&#45;&gt;Node2</title>
<path fill="none" stroke="#63b8ff" d="M561.27,-513.42C465.62,-504.14 286.24,-486.47 133.5,-470 132.49,-469.89 131.47,-469.78 130.44,-469.67"/>
<polygon fill="#63b8ff" stroke="#63b8ff" points="131.09,-466.22 120.77,-468.6 130.33,-473.18 131.09,-466.22"/>
</g>
<!-- Node3 -->
<g id="node3" class="node">
<title>Node3</title>
<g id="a_node3"><a xlink:href="closure_8h.html" target="_top" xlink:title=" ">
<polygon fill="white" stroke="#666666" points="290.5,-294 198.5,-294 198.5,-275 290.5,-275 290.5,-294"/>
<text text-anchor="middle" x="244.5" y="-282" font-family="Helvetica,sans-Serif" font-size="10.00">Generic/closure.h</text>
</a>
</g>
</g>
<!-- Node1&#45;&gt;Node3 -->
<g id="edge2" class="edge">
<title>Node1&#45;&gt;Node3</title>
<path fill="none" stroke="#63b8ff" d="M561.05,-514.43C496.45,-507.94 397.39,-494.78 314.5,-470 257.51,-452.97 233.53,-458.06 192.5,-415 165.25,-386.4 146.66,-364.16 166.5,-330 174.69,-315.9 189.21,-305.89 203.52,-298.98"/>
<polygon fill="#63b8ff" stroke="#63b8ff" points="204.66,-302.31 212.42,-295.1 201.86,-295.89 204.66,-302.31"/>
</g>
<!-- Node4 -->
<g id="node4" class="node">
<title>Node4</title>
<g id="a_node4"><a xlink:href="statedescriptor_8h.html" target="_top" xlink:title=" ">
<polygon fill="white" stroke="#666666" points="529.5,-470 359.5,-470 359.5,-451 529.5,-451 529.5,-470"/>
<text text-anchor="middle" x="444.5" y="-458" font-family="Helvetica,sans-Serif" font-size="10.00">Generic/execution/statedescriptor.h</text>
</a>
</g>
</g>
<!-- Node1&#45;&gt;Node4 -->
<g id="edge3" class="edge">
<title>Node1&#45;&gt;Node4</title>
<path fill="none" stroke="#63b8ff" d="M583.77,-505.54C552.93,-495.79 512.69,-483.06 483.4,-473.8"/>
<polygon fill="#63b8ff" stroke="#63b8ff" points="484.78,-470.57 474.19,-470.89 482.67,-477.24 484.78,-470.57"/>
</g>
<!-- Node12 -->
<g id="node12" class="node">
<title>Node12</title>
<g id="a_node12"><a xlink:href="stop__callback_8h.html" target="_top" xlink:title=" ">
<polygon fill="white" stroke="#666666" points="317.5,-415 201.5,-415 201.5,-385 317.5,-385 317.5,-415"/>
<text text-anchor="start" x="209.5" y="-403" font-family="Helvetica,sans-Serif" font-size="10.00">Generic/execution/stop</text>
<text text-anchor="middle" x="259.5" y="-392" font-family="Helvetica,sans-Serif" font-size="10.00">_callback.h</text>
</a>
</g>
</g>
<!-- Node1&#45;&gt;Node12 -->
<g id="edge12" class="edge">
<title>Node1&#45;&gt;Node12</title>
<path fill="none" stroke="#63b8ff" d="M561.25,-516.69C503.12,-511.82 418.44,-499.78 350.5,-470 324.68,-458.68 299.46,-438.65 282.15,-423.07"/>
<polygon fill="#63b8ff" stroke="#63b8ff" points="284.68,-420.65 274.96,-416.43 279.93,-425.79 284.68,-420.65"/>
</g>
<!-- Node13 -->
<g id="node13" class="node">
<title>Node13</title>
<g id="a_node13"><a xlink:href="virtualsender_8h.html" target="_top" xlink:title=" ">
<polygon fill="white" stroke="#666666" points="766,-349 605,-349 605,-330 766,-330 766,-349"/>
<text text-anchor="middle" x="685.5" y="-337" font-family="Helvetica,sans-Serif" font-size="10.00">Generic/execution/virtualsender.h</text>
</a>
</g>
</g>
<!-- Node1&#45;&gt;Node13 -->
<g id="edge14" class="edge">
<title>Node1&#45;&gt;Node13</title>
<path fill="none" stroke="#63b8ff" d="M613.65,-505.76C600.56,-492.19 585.23,-470.92 592.5,-451 607,-411.25 642.79,-375.89 665.51,-356.41"/>
<polygon fill="#63b8ff" stroke="#63b8ff" points="667.45,-359.34 672.9,-350.25 662.97,-353.96 667.45,-359.34"/>
</g>
<!-- Node18 -->
<g id="node18" class="node">
<title>Node18</title>
<g id="a_node18"><a xlink:href="forward__capture_8h.html" target="_top" xlink:title=" ">
<polygon fill="white" stroke="#666666" points="920,-470 789,-470 789,-451 920,-451 920,-470"/>
<text text-anchor="middle" x="854.5" y="-458" font-family="Helvetica,sans-Serif" font-size="10.00">Generic/forward_capture.h</text>
</a>
</g>
</g>
<!-- Node1&#45;&gt;Node18 -->
<g id="edge21" class="edge">
<title>Node1&#45;&gt;Node18</title>
<path fill="none" stroke="#63b8ff" d="M685.12,-505.54C723.28,-495.62 773.3,-482.61 809.07,-473.31"/>
<polygon fill="#63b8ff" stroke="#63b8ff" points="809.88,-476.72 818.68,-470.81 808.12,-469.94 809.88,-476.72"/>
</g>
<!-- Node19 -->
<g id="node19" class="node">
<title>Node19</title>
<g id="a_node19"><a xlink:href="rootcomponentbase_8h.html" target="_top" xlink:title=" ">
<polygon fill="white" stroke="#666666" points="771,-470 602,-470 602,-451 771,-451 771,-470"/>
<text text-anchor="middle" x="686.5" y="-458" font-family="Helvetica,sans-Serif" font-size="10.00">Madgine/root/rootcomponentbase.h</text>
</a>
</g>
</g>
<!-- Node1&#45;&gt;Node19 -->
<g id="edge22" class="edge">
<title>Node1&#45;&gt;Node19</title>
<path fill="none" stroke="#63b8ff" d="M643.59,-505.54C651.62,-497.3 661.71,-486.94 670.09,-478.34"/>
<polygon fill="#63b8ff" stroke="#63b8ff" points="672.52,-480.86 676.99,-471.26 667.51,-475.98 672.52,-480.86"/>
</g>
<!-- Node34 -->
<g id="node34" class="node">
<title>Node34</title>
<g id="a_node34"><a xlink:href="rootcomponentcollector_8h.html" target="_top" xlink:title=" ">
<polygon fill="white" stroke="#666666" points="1123,-470 938,-470 938,-451 1123,-451 1123,-470"/>
<text text-anchor="middle" x="1030.5" y="-458" font-family="Helvetica,sans-Serif" font-size="10.00">Madgine/root/rootcomponentcollector.h</text>
</a>
</g>
</g>
<!-- Node1&#45;&gt;Node34 -->
<g id="edge41" class="edge">
<title>Node1&#45;&gt;Node34</title>
<path fill="none" stroke="#63b8ff" d="M697.98,-510.01C770.32,-499.46 883.94,-482.88 957.83,-472.1"/>
<polygon fill="#63b8ff" stroke="#63b8ff" points="958,-475.61 967.39,-470.71 956.99,-468.69 958,-475.61"/>
</g>
<!-- Node42 -->
<g id="node42" class="node">
<title>Node42</title>
<g id="a_node42"><a xlink:href="continuation_8h.html" target="_top" xlink:title=" ">
<polygon fill="white" stroke="#666666" points="1274,-409.5 1197,-409.5 1197,-390.5 1274,-390.5 1274,-409.5"/>
<text text-anchor="middle" x="1235.5" y="-397.5" font-family="Helvetica,sans-Serif" font-size="10.00">continuation.h</text>
</a>
</g>
</g>
<!-- Node1&#45;&gt;Node42 -->
<g id="edge50" class="edge">
<title>Node1&#45;&gt;Node42</title>
<path fill="none" stroke="#63b8ff" d="M697.7,-517.27C815.82,-511.88 1053.33,-497.87 1131.5,-470 1164.65,-458.18 1197.6,-433.58 1217.26,-417.18"/>
<polygon fill="#63b8ff" stroke="#63b8ff" points="1219.32,-420.03 1224.63,-410.86 1214.76,-414.71 1219.32,-420.03"/>
</g>
<!-- Node43 -->
<g id="node43" class="node">
<title>Node43</title>
<g id="a_node43"><a xlink:href="debuglocation_8h.html" target="_top" xlink:title=" ">
<polygon fill="white" stroke="#666666" points="1275.5,-470 1191.5,-470 1191.5,-451 1275.5,-451 1275.5,-470"/>
<text text-anchor="middle" x="1233.5" y="-458" font-family="Helvetica,sans-Serif" font-size="10.00">debuglocation.h</text>
</a>
</g>
</g>
<!-- Node1&#45;&gt;Node43 -->
<g id="edge51" class="edge">
<title>Node1&#45;&gt;Node43</title>
<path fill="none" stroke="#63b8ff" d="M697.89,-514.8C801.1,-506.7 1002.76,-489.93 1173.5,-470 1175.66,-469.75 1177.85,-469.48 1180.07,-469.21"/>
<polygon fill="#63b8ff" stroke="#63b8ff" points="1180.28,-472.71 1189.75,-467.95 1179.38,-465.77 1180.28,-472.71"/>
</g>
<!-- Node5 -->
<g id="node5" class="node">
<title>Node5</title>
<g id="a_node5"><a xlink:href="algorithm_8h.html" target="_top" xlink:title=" ">
<polygon fill="white" stroke="#666666" points="476.5,-409.5 412.5,-409.5 412.5,-390.5 476.5,-390.5 476.5,-409.5"/>
<text text-anchor="middle" x="444.5" y="-397.5" font-family="Helvetica,sans-Serif" font-size="10.00">algorithm.h</text>
</a>
</g>
</g>
<!-- Node4&#45;&gt;Node5 -->
<g id="edge4" class="edge">
<title>Node4&#45;&gt;Node5</title>
<path fill="none" stroke="#63b8ff" d="M444.5,-450.87C444.5,-443 444.5,-431.1 444.5,-420.89"/>
<polygon fill="#63b8ff" stroke="#63b8ff" points="448,-421.18 444.5,-411.18 441,-421.18 448,-421.18"/>
</g>
<!-- Node6 -->
<g id="node6" class="node">
<title>Node6</title>
<g id="a_node6"><a xlink:href="delayedconstruct_8h.html" target="_top" xlink:title=" ">
<polygon fill="white" stroke="#666666" points="394,-349 289,-349 289,-330 394,-330 394,-349"/>
<text text-anchor="middle" x="341.5" y="-337" font-family="Helvetica,sans-Serif" font-size="10.00">../delayedconstruct.h</text>
</a>
</g>
</g>
<!-- Node5&#45;&gt;Node6 -->
<g id="edge5" class="edge">
<title>Node5&#45;&gt;Node6</title>
<path fill="none" stroke="#63b8ff" d="M428.86,-390.12C412.52,-380.84 386.63,-366.13 367.27,-355.14"/>
<polygon fill="#63b8ff" stroke="#63b8ff" points="369.03,-352.11 358.61,-350.22 365.57,-358.2 369.03,-352.11"/>
</g>
<!-- Node7 -->
<g id="node7" class="node">
<title>Node7</title>
<g id="a_node7"><a xlink:href="manuallifetime_8h.html" target="_top" xlink:title=" ">
<polygon fill="white" stroke="#666666" points="271,-349 176,-349 176,-330 271,-330 271,-349"/>
<text text-anchor="middle" x="223.5" y="-337" font-family="Helvetica,sans-Serif" font-size="10.00">../manuallifetime.h</text>
</a>
</g>
</g>
<!-- Node5&#45;&gt;Node7 -->
<g id="edge7" class="edge">
<title>Node5&#45;&gt;Node7</title>
<path fill="none" stroke="#63b8ff" d="M412.36,-390.49C374.45,-380.46 311.18,-363.71 268.43,-352.39"/>
<polygon fill="#63b8ff" stroke="#63b8ff" points="269.52,-349.06 258.95,-349.88 267.72,-355.83 269.52,-349.06"/>
</g>
<!-- Node8 -->
<g id="node8" class="node">
<title>Node8</title>
<g id="a_node8"><a xlink:href="pipable_8h.html" target="_top" xlink:title=" ">
<polygon fill="white" stroke="#666666" points="474.5,-349 412.5,-349 412.5,-330 474.5,-330 474.5,-349"/>
<text text-anchor="middle" x="443.5" y="-337" font-family="Helvetica,sans-Serif" font-size="10.00">../pipable.h</text>
</a>
</g>
</g>
<!-- Node5&#45;&gt;Node8 -->
<g id="edge8" class="edge">
<title>Node5&#45;&gt;Node8</title>
<path fill="none" stroke="#63b8ff" d="M444.35,-390.37C444.22,-382.5 444.01,-370.6 443.84,-360.39"/>
<polygon fill="#63b8ff" stroke="#63b8ff" points="447.34,-360.62 443.67,-350.68 440.35,-360.74 447.34,-360.62"/>
</g>
<!-- Node10 -->
<g id="node10" class="node">
<title>Node10</title>
<g id="a_node10"><a xlink:href="execution_2concepts_8h.html" target="_top" xlink:title=" ">
<polygon fill="white" stroke="#666666" points="672.5,-239 608.5,-239 608.5,-220 672.5,-220 672.5,-239"/>
<text text-anchor="middle" x="640.5" y="-227" font-family="Helvetica,sans-Serif" font-size="10.00">concepts.h</text>
</a>
</g>
</g>
<!-- Node5&#45;&gt;Node10 -->
<g id="edge10" class="edge">
<title>Node5&#45;&gt;Node10</title>
<path fill="none" stroke="#63b8ff" d="M476.8,-391.07C501.4,-383.65 534.8,-370.42 557.5,-349 584.39,-323.62 573.64,-304.82 595.5,-275 603.02,-264.74 612.95,-254.66 621.56,-246.69"/>
<polygon fill="#63b8ff" stroke="#63b8ff" points="623.65,-249.52 628.78,-240.25 618.99,-244.3 623.65,-249.52"/>
</g>
<!-- Node11 -->
<g id="node11" class="node">
<title>Node11</title>
<g id="a_node11"><a xlink:href="storage_8h.html" target="_top" xlink:title=" ">
<polygon fill="white" stroke="#666666" points="548.5,-349 492.5,-349 492.5,-330 548.5,-330 548.5,-349"/>
<text text-anchor="middle" x="520.5" y="-337" font-family="Helvetica,sans-Serif" font-size="10.00">storage.h</text>
</a>
</g>
</g>
<!-- Node5&#45;&gt;Node11 -->
<g id="edge11" class="edge">
<title>Node5&#45;&gt;Node11</title>
<path fill="none" stroke="#63b8ff" d="M456.04,-390.12C467.65,-381.18 485.79,-367.22 499.88,-356.37"/>
<polygon fill="#63b8ff" stroke="#63b8ff" points="501.86,-359.26 507.65,-350.39 497.59,-353.72 501.86,-359.26"/>
</g>
<!-- Node6&#45;&gt;Node3 -->
<g id="edge6" class="edge">
<title>Node6&#45;&gt;Node3</title>
<path fill="none" stroke="#63b8ff" d="M325.05,-329.51C310.18,-321.39 288.06,-309.3 270.75,-299.85"/>
<polygon fill="#63b8ff" stroke="#63b8ff" points="272.49,-296.81 262.04,-295.08 269.14,-302.95 272.49,-296.81"/>
</g>
<!-- Node9 -->
<g id="node9" class="node">
<title>Node9</title>
<g id="a_node9"><a xlink:href="lift_8h.html" target="_top" xlink:title=" ">
<polygon fill="white" stroke="#666666" points="461,-294 426,-294 426,-275 461,-275 461,-294"/>
<text text-anchor="middle" x="443.5" y="-282" font-family="Helvetica,sans-Serif" font-size="10.00">lift.h</text>
</a>
</g>
</g>
<!-- Node8&#45;&gt;Node9 -->
<g id="edge9" class="edge">
<title>Node8&#45;&gt;Node9</title>
<path fill="none" stroke="#63b8ff" d="M443.5,-329.75C443.5,-323.27 443.5,-314.16 443.5,-305.9"/>
<polygon fill="#63b8ff" stroke="#63b8ff" points="447,-305.96 443.5,-295.96 440,-305.96 447,-305.96"/>
</g>
<!-- Node12&#45;&gt;Node7 -->
<g id="edge13" class="edge">
<title>Node12&#45;&gt;Node7</title>
<path fill="none" stroke="#63b8ff" d="M250.6,-384.54C245.8,-376.74 239.82,-367.03 234.71,-358.71"/>
<polygon fill="#63b8ff" stroke="#63b8ff" points="237.85,-357.15 229.63,-350.46 231.89,-360.82 237.85,-357.15"/>
</g>
<!-- Node14 -->
<g id="node14" class="node">
<title>Node14</title>
<g id="a_node14"><a xlink:href="src_2_generic_2execution_2sender_8h.html" target="_top" xlink:title=" ">
<polygon fill="white" stroke="#666666" points="748,-294 695,-294 695,-275 748,-275 748,-294"/>
<text text-anchor="middle" x="721.5" y="-282" font-family="Helvetica,sans-Serif" font-size="10.00">sender.h</text>
</a>
</g>
</g>
<!-- Node13&#45;&gt;Node14 -->
<g id="edge15" class="edge">
<title>Node13&#45;&gt;Node14</title>
<path fill="none" stroke="#63b8ff" d="M691.44,-329.75C696.21,-322.73 703.06,-312.64 709.02,-303.87"/>
<polygon fill="#63b8ff" stroke="#63b8ff" points="711.85,-305.93 714.58,-295.69 706.06,-302 711.85,-305.93"/>
</g>
<!-- Node15 -->
<g id="node15" class="node">
<title>Node15</title>
<g id="a_node15"><a xlink:href="virtualstate_8h.html" target="_top" xlink:title=" ">
<polygon fill="white" stroke="#666666" points="676.5,-294 604.5,-294 604.5,-275 676.5,-275 676.5,-294"/>
<text text-anchor="middle" x="640.5" y="-282" font-family="Helvetica,sans-Serif" font-size="10.00">virtualstate.h</text>
</a>
</g>
</g>
<!-- Node13&#45;&gt;Node15 -->
<g id="edge17" class="edge">
<title>Node13&#45;&gt;Node15</title>
<path fill="none" stroke="#63b8ff" d="M678.07,-329.75C671.92,-322.5 662.99,-311.98 655.37,-303.02"/>
<polygon fill="#63b8ff" stroke="#63b8ff" points="658.21,-300.95 649.07,-295.6 652.88,-305.48 658.21,-300.95"/>
</g>
<!-- Node14&#45;&gt;Node10 -->
<g id="edge16" class="edge">
<title>Node14&#45;&gt;Node10</title>
<path fill="none" stroke="#63b8ff" d="M707.76,-274.51C695.7,-266.62 677.91,-254.98 663.66,-245.65"/>
<polygon fill="#63b8ff" stroke="#63b8ff" points="665.59,-242.73 655.3,-240.19 661.76,-248.59 665.59,-242.73"/>
</g>
<!-- Node15&#45;&gt;Node10 -->
<g id="edge18" class="edge">
<title>Node15&#45;&gt;Node10</title>
<path fill="none" stroke="#63b8ff" d="M640.5,-274.75C640.5,-268.27 640.5,-259.16 640.5,-250.9"/>
<polygon fill="#63b8ff" stroke="#63b8ff" points="644,-250.96 640.5,-240.96 637,-250.96 644,-250.96"/>
</g>
<!-- Node16 -->
<g id="node16" class="node">
<title>Node16</title>
<g id="a_node16"><a xlink:href="virtual__invoke_8h.html" target="_top" xlink:title=" ">
<polygon fill="white" stroke="#666666" points="590,-239 469,-239 469,-220 590,-220 590,-239"/>
<text text-anchor="middle" x="529.5" y="-227" font-family="Helvetica,sans-Serif" font-size="10.00">Generic/virtual_invoke.h</text>
</a>
</g>
</g>
<!-- Node15&#45;&gt;Node16 -->
<g id="edge19" class="edge">
<title>Node15&#45;&gt;Node16</title>
<path fill="none" stroke="#63b8ff" d="M621.67,-274.51C604.34,-266.24 578.39,-253.84 558.43,-244.31"/>
<polygon fill="#63b8ff" stroke="#63b8ff" points="559.95,-241.16 549.42,-240.01 556.93,-247.48 559.95,-241.16"/>
</g>
<!-- Node17 -->
<g id="node17" class="node">
<title>Node17</title>
<g id="a_node17"><a xlink:href="callable__traits_8h.html" target="_top" xlink:title=" ">
<polygon fill="white" stroke="#666666" points="571.5,-184 487.5,-184 487.5,-165 571.5,-165 571.5,-184"/>
<text text-anchor="middle" x="529.5" y="-172" font-family="Helvetica,sans-Serif" font-size="10.00">callable_traits.h</text>
</a>
</g>
</g>
<!-- Node16&#45;&gt;Node17 -->
<g id="edge20" class="edge">
<title>Node16&#45;&gt;Node17</title>
<path fill="none" stroke="#63b8ff" d="M529.5,-219.75C529.5,-213.27 529.5,-204.16 529.5,-195.9"/>
<polygon fill="#63b8ff" stroke="#63b8ff" points="533,-195.96 529.5,-185.96 526,-195.96 533,-195.96"/>
</g>
<!-- Node20 -->
<g id="node20" class="node">
<title>Node20</title>
<g id="a_node20"><a xlink:href="virtualscope_8h.html" target="_top" xlink:title=" ">
<polygon fill="white" stroke="#666666" points="817,-409.5 674,-409.5 674,-390.5 817,-390.5 817,-409.5"/>
<text text-anchor="middle" x="745.5" y="-397.5" font-family="Helvetica,sans-Serif" font-size="10.00">Meta/keyvalue/virtualscope.h</text>
</a>
</g>
</g>
<!-- Node19&#45;&gt;Node20 -->
<g id="edge23" class="edge">
<title>Node19&#45;&gt;Node20</title>
<path fill="none" stroke="#63b8ff" d="M695.46,-450.62C704.21,-441.94 717.75,-428.52 728.54,-417.82"/>
<polygon fill="#63b8ff" stroke="#63b8ff" points="730.74,-420.56 735.38,-411.03 725.81,-415.59 730.74,-420.56"/>
</g>
<!-- Node21 -->
<g id="node21" class="node">
<title>Node21</title>
<g id="a_node21"><a xlink:href="scopeptr_8h.html" target="_top" xlink:title=" ">
<polygon fill="white" stroke="#666666" points="846.5,-349 784.5,-349 784.5,-330 846.5,-330 846.5,-349"/>
<text text-anchor="middle" x="815.5" y="-337" font-family="Helvetica,sans-Serif" font-size="10.00">scopeptr.h</text>
</a>
</g>
</g>
<!-- Node20&#45;&gt;Node21 -->
<g id="edge24" class="edge">
<title>Node20&#45;&gt;Node21</title>
<path fill="none" stroke="#63b8ff" d="M756.13,-390.12C766.72,-381.27 783.21,-367.48 796.13,-356.69"/>
<polygon fill="#63b8ff" stroke="#63b8ff" points="798.18,-359.54 803.61,-350.44 793.69,-354.17 798.18,-359.54"/>
</g>
<!-- Node22 -->
<g id="node22" class="node">
<title>Node22</title>
<g id="a_node22"><a xlink:href="metatable_8h.html" target="_top" xlink:title=" ">
<polygon fill="white" stroke="#666666" points="944,-294 877,-294 877,-275 944,-275 944,-294"/>
<text text-anchor="middle" x="910.5" y="-282" font-family="Helvetica,sans-Serif" font-size="10.00">metatable.h</text>
</a>
</g>
</g>
<!-- Node21&#45;&gt;Node22 -->
<g id="edge25" class="edge">
<title>Node21&#45;&gt;Node22</title>
<path fill="none" stroke="#63b8ff" d="M831.62,-329.51C846.17,-321.39 867.84,-309.3 884.79,-299.85"/>
<polygon fill="#63b8ff" stroke="#63b8ff" points="886.27,-303.02 893.3,-295.1 882.86,-296.91 886.27,-303.02"/>
</g>
<!-- Node28 -->
<g id="node28" class="node">
<title>Node28</title>
<g id="a_node28"><a xlink:href="valuetype__desc_8h.html" target="_top" xlink:title=" ">
<polygon fill="white" stroke="#666666" points="858.5,-294 766.5,-294 766.5,-275 858.5,-275 858.5,-294"/>
<text text-anchor="middle" x="812.5" y="-282" font-family="Helvetica,sans-Serif" font-size="10.00">valuetype_desc.h</text>
</a>
</g>
</g>
<!-- Node21&#45;&gt;Node28 -->
<g id="edge31" class="edge">
<title>Node21&#45;&gt;Node28</title>
<path fill="none" stroke="#63b8ff" d="M815,-329.75C814.64,-323.27 814.12,-314.16 813.65,-305.9"/>
<polygon fill="#63b8ff" stroke="#63b8ff" points="817.15,-305.74 813.09,-295.95 810.16,-306.13 817.15,-305.74"/>
</g>
<!-- Node23 -->
<g id="node23" class="node">
<title>Node23</title>
<g id="a_node23"><a xlink:href="table__forward_8h.html" target="_top" xlink:title=" ">
<polygon fill="white" stroke="#666666" points="1080,-239 997,-239 997,-220 1080,-220 1080,-239"/>
<text text-anchor="middle" x="1038.5" y="-227" font-family="Helvetica,sans-Serif" font-size="10.00">table_forward.h</text>
</a>
</g>
</g>
<!-- Node22&#45;&gt;Node23 -->
<g id="edge26" class="edge">
<title>Node22&#45;&gt;Node23</title>
<path fill="none" stroke="#63b8ff" d="M932.21,-274.51C952.66,-266.04 983.52,-253.27 1006.73,-243.66"/>
<polygon fill="#63b8ff" stroke="#63b8ff" points="1007.81,-247 1015.71,-239.94 1005.13,-240.53 1007.81,-247"/>
</g>
<!-- Node24 -->
<g id="node24" class="node">
<title>Node24</title>
<g id="a_node24"><a xlink:href="genericresult_8h.html" target="_top" xlink:title=" ">
<polygon fill="white" stroke="#666666" points="1112.5,-184 996.5,-184 996.5,-165 1112.5,-165 1112.5,-184"/>
<text text-anchor="middle" x="1054.5" y="-172" font-family="Helvetica,sans-Serif" font-size="10.00">Generic/genericresult.h</text>
</a>
</g>
</g>
<!-- Node23&#45;&gt;Node24 -->
<g id="edge27" class="edge">
<title>Node23&#45;&gt;Node24</title>
<path fill="none" stroke="#63b8ff" d="M1041.14,-219.75C1043.14,-213.11 1045.98,-203.73 1048.52,-195.31"/>
<polygon fill="#63b8ff" stroke="#63b8ff" points="1051.82,-196.48 1051.36,-185.89 1045.12,-194.45 1051.82,-196.48"/>
</g>
<!-- Node25 -->
<g id="node25" class="node">
<title>Node25</title>
<g id="a_node25"><a xlink:href="enum_8h.html" target="_top" xlink:title=" ">
<polygon fill="white" stroke="#666666" points="1061.5,-129 1013.5,-129 1013.5,-110 1061.5,-110 1061.5,-129"/>
<text text-anchor="middle" x="1037.5" y="-117" font-family="Helvetica,sans-Serif" font-size="10.00">enum.h</text>
</a>
</g>
</g>
<!-- Node24&#45;&gt;Node25 -->
<g id="edge28" class="edge">
<title>Node24&#45;&gt;Node25</title>
<path fill="none" stroke="#63b8ff" d="M1051.69,-164.75C1049.56,-158.11 1046.56,-148.73 1043.86,-140.31"/>
<polygon fill="#63b8ff" stroke="#63b8ff" points="1047.22,-139.34 1040.83,-130.88 1040.55,-141.47 1047.22,-139.34"/>
</g>
<!-- Node26 -->
<g id="node26" class="node">
<title>Node26</title>
<g id="a_node26"><a xlink:href="array_8h.html" target="_top" xlink:title=" ">
<polygon fill="white" stroke="#666666" points="1034.5,-74 970.5,-74 970.5,-55 1034.5,-55 1034.5,-74"/>
<text text-anchor="middle" x="1002.5" y="-62" font-family="Helvetica,sans-Serif" font-size="10.00">bits/array.h</text>
</a>
</g>
</g>
<!-- Node25&#45;&gt;Node26 -->
<g id="edge29" class="edge">
<title>Node25&#45;&gt;Node26</title>
<path fill="none" stroke="#63b8ff" d="M1031.72,-109.75C1027.09,-102.73 1020.43,-92.64 1014.63,-83.87"/>
<polygon fill="#63b8ff" stroke="#63b8ff" points="1017.67,-82.12 1009.24,-75.71 1011.83,-85.98 1017.67,-82.12"/>
</g>
<!-- Node27 -->
<g id="node27" class="node">
<title>Node27</title>
<g id="a_node27"><a xlink:href="types_8h.html" target="_top" xlink:title=" ">
<polygon fill="white" stroke="#666666" points="1026,-19 979,-19 979,0 1026,0 1026,-19"/>
<text text-anchor="middle" x="1002.5" y="-7" font-family="Helvetica,sans-Serif" font-size="10.00">types.h</text>
</a>
</g>
</g>
<!-- Node26&#45;&gt;Node27 -->
<g id="edge30" class="edge">
<title>Node26&#45;&gt;Node27</title>
<path fill="none" stroke="#63b8ff" d="M1002.5,-54.75C1002.5,-48.27 1002.5,-39.16 1002.5,-30.9"/>
<polygon fill="#63b8ff" stroke="#63b8ff" points="1006,-30.96 1002.5,-20.96 999,-30.96 1006,-30.96"/>
</g>
<!-- Node28&#45;&gt;Node10 -->
<g id="edge39" class="edge">
<title>Node28&#45;&gt;Node10</title>
<path fill="none" stroke="#63b8ff" d="M783.32,-274.51C754.94,-265.76 711.62,-252.42 680.13,-242.71"/>
<polygon fill="#63b8ff" stroke="#63b8ff" points="681.57,-239.49 670.98,-239.89 679.51,-246.18 681.57,-239.49"/>
</g>
<!-- Node28&#45;&gt;Node23 -->
<g id="edge38" class="edge">
<title>Node28&#45;&gt;Node23</title>
<path fill="none" stroke="#63b8ff" d="M850.84,-274.51C889.02,-265.55 947.79,-251.77 989.38,-242.02"/>
<polygon fill="#63b8ff" stroke="#63b8ff" points="989.94,-245.48 998.88,-239.79 988.34,-238.67 989.94,-245.48"/>
</g>
<!-- Node28&#45;&gt;Node26 -->
<g id="edge35" class="edge">
<title>Node28&#45;&gt;Node26</title>
<path fill="none" stroke="#63b8ff" d="M853.33,-274.51C888.28,-266.05 935.03,-252.67 948.5,-239 970.33,-216.85 990.56,-125.93 998.71,-85.29"/>
<polygon fill="#63b8ff" stroke="#63b8ff" points="1002.1,-86.19 1000.59,-75.7 995.23,-84.84 1002.1,-86.19"/>
</g>
<!-- Node29 -->
<g id="node29" class="node">
<title>Node29</title>
<g id="a_node29"><a xlink:href="valuetype__types_8h.html" target="_top" xlink:title=" ">
<polygon fill="white" stroke="#666666" points="822.5,-239 728.5,-239 728.5,-220 822.5,-220 822.5,-239"/>
<text text-anchor="middle" x="775.5" y="-227" font-family="Helvetica,sans-Serif" font-size="10.00">valuetype_types.h</text>
</a>
</g>
</g>
<!-- Node28&#45;&gt;Node29 -->
<g id="edge32" class="edge">
<title>Node28&#45;&gt;Node29</title>
<path fill="none" stroke="#63b8ff" d="M806.39,-274.75C801.49,-267.73 794.45,-257.64 788.33,-248.87"/>
<polygon fill="#63b8ff" stroke="#63b8ff" points="791.2,-246.88 782.61,-240.68 785.46,-250.89 791.2,-246.88"/>
</g>
<!-- Node30 -->
<g id="node30" class="node">
<title>Node30</title>
<g id="a_node30"><a xlink:href="valuetypedefinclude_8h.html" target="_top" xlink:title=" ">
<polygon fill="white" stroke="#666666" points="789,-184 680,-184 680,-165 789,-165 789,-184"/>
<text text-anchor="middle" x="734.5" y="-172" font-family="Helvetica,sans-Serif" font-size="10.00">valuetypedefinclude.h</text>
</a>
</g>
</g>
<!-- Node28&#45;&gt;Node30 -->
<g id="edge40" class="edge">
<title>Node28&#45;&gt;Node30</title>
<path fill="none" stroke="#63b8ff" d="M771.34,-274.55C752.1,-268.09 730.95,-257.17 719.5,-239 711.01,-225.52 716.37,-207.69 722.93,-194.36"/>
<polygon fill="#63b8ff" stroke="#63b8ff" points="725.93,-196.17 727.71,-185.73 719.8,-192.78 725.93,-196.17"/>
</g>
<!-- Node32 -->
<g id="node32" class="node">
<title>Node32</title>
<g id="a_node32"><a xlink:href="keyvalue_8h.html" target="_top" xlink:title=" ">
<polygon fill="white" stroke="#666666" points="940,-239 841,-239 841,-220 940,-220 940,-239"/>
<text text-anchor="middle" x="890.5" y="-227" font-family="Helvetica,sans-Serif" font-size="10.00">Generic/keyvalue.h</text>
</a>
</g>
</g>
<!-- Node28&#45;&gt;Node32 -->
<g id="edge36" class="edge">
<title>Node28&#45;&gt;Node32</title>
<path fill="none" stroke="#63b8ff" d="M825.73,-274.51C837.34,-266.62 854.47,-254.98 868.2,-245.65"/>
<polygon fill="#63b8ff" stroke="#63b8ff" points="869.91,-248.72 876.21,-240.21 865.97,-242.93 869.91,-248.72"/>
</g>
<!-- Node29&#45;&gt;Node30 -->
<g id="edge33" class="edge">
<title>Node29&#45;&gt;Node30</title>
<path fill="none" stroke="#63b8ff" d="M768.73,-219.75C763.18,-212.58 755.16,-202.2 748.27,-193.3"/>
<polygon fill="#63b8ff" stroke="#63b8ff" points="751.23,-191.41 742.34,-185.64 745.69,-195.69 751.23,-191.41"/>
</g>
<!-- Node31 -->
<g id="node31" class="node">
<title>Node31</title>
<g id="a_node31"><a xlink:href="valuetypedef_8h.html" target="_top" xlink:title=" ">
<polygon fill="white" stroke="#666666" points="774,-129 695,-129 695,-110 774,-110 774,-129"/>
<text text-anchor="middle" x="734.5" y="-117" font-family="Helvetica,sans-Serif" font-size="10.00">valuetypedef.h</text>
</a>
</g>
</g>
<!-- Node30&#45;&gt;Node31 -->
<g id="edge34" class="edge">
<title>Node30&#45;&gt;Node31</title>
<path fill="none" stroke="#63b8ff" d="M734.5,-164.75C734.5,-158.27 734.5,-149.16 734.5,-140.9"/>
<polygon fill="#63b8ff" stroke="#63b8ff" points="738,-140.96 734.5,-130.96 731,-140.96 738,-140.96"/>
</g>
<!-- Node33 -->
<g id="node33" class="node">
<title>Node33</title>
<g id="a_node33"><a xlink:href="comparator__traits_8h.html" target="_top" xlink:title=" ">
<polygon fill="white" stroke="#666666" points="940.5,-184 840.5,-184 840.5,-165 940.5,-165 940.5,-184"/>
<text text-anchor="middle" x="890.5" y="-172" font-family="Helvetica,sans-Serif" font-size="10.00">comparator_traits.h</text>
</a>
</g>
</g>
<!-- Node32&#45;&gt;Node33 -->
<g id="edge37" class="edge">
<title>Node32&#45;&gt;Node33</title>
<path fill="none" stroke="#63b8ff" d="M890.5,-219.75C890.5,-213.27 890.5,-204.16 890.5,-195.9"/>
<polygon fill="#63b8ff" stroke="#63b8ff" points="894,-195.96 890.5,-185.96 887,-195.96 894,-195.96"/>
</g>
<!-- Node35 -->
<g id="node35" class="node">
<title>Node35</title>
<g id="a_node35"><a xlink:href="uniquecomponentdefine_8h.html" target="_top" xlink:title=" ">
<polygon fill="white" stroke="#666666" points="1028,-415 895,-415 895,-385 1028,-385 1028,-415"/>
<text text-anchor="start" x="903" y="-403" font-family="Helvetica,sans-Serif" font-size="10.00">Modules/uniquecomponent</text>
<text text-anchor="middle" x="961.5" y="-392" font-family="Helvetica,sans-Serif" font-size="10.00">/uniquecomponentdefine.h</text>
</a>
</g>
</g>
<!-- Node34&#45;&gt;Node35 -->
<g id="edge42" class="edge">
<title>Node34&#45;&gt;Node35</title>
<path fill="none" stroke="#63b8ff" d="M1020.02,-450.62C1011.33,-443.25 998.61,-432.47 987.25,-422.83"/>
<polygon fill="#63b8ff" stroke="#63b8ff" points="989.58,-420.22 979.69,-416.42 985.05,-425.55 989.58,-420.22"/>
</g>
<!-- Node38 -->
<g id="node38" class="node">
<title>Node38</title>
<g id="a_node38"><a xlink:href="uniquecomponent_8h.html" target="_top" xlink:title=" ">
<polygon fill="white" stroke="#666666" points="1179,-415 1046,-415 1046,-385 1179,-385 1179,-415"/>
<text text-anchor="start" x="1054" y="-403" font-family="Helvetica,sans-Serif" font-size="10.00">Modules/uniquecomponent</text>
<text text-anchor="middle" x="1112.5" y="-392" font-family="Helvetica,sans-Serif" font-size="10.00">/uniquecomponent.h</text>
</a>
</g>
</g>
<!-- Node34&#45;&gt;Node38 -->
<g id="edge46" class="edge">
<title>Node34&#45;&gt;Node38</title>
<path fill="none" stroke="#63b8ff" d="M1042.95,-450.62C1053.58,-443.03 1069.3,-431.82 1083.1,-421.98"/>
<polygon fill="#63b8ff" stroke="#63b8ff" points="1084.92,-424.98 1091.03,-416.32 1080.85,-419.28 1084.92,-424.98"/>
</g>
<!-- Node36 -->
<g id="node36" class="node">
<title>Node36</title>
<g id="a_node36"><a xlink:href="replace_8h.html" target="_top" xlink:title=" ">
<polygon fill="white" stroke="#666666" points="1054.5,-294 962.5,-294 962.5,-275 1054.5,-275 1054.5,-294"/>
<text text-anchor="middle" x="1008.5" y="-282" font-family="Helvetica,sans-Serif" font-size="10.00">Generic/replace.h</text>
</a>
</g>
</g>
<!-- Node35&#45;&gt;Node36 -->
<g id="edge43" class="edge">
<title>Node35&#45;&gt;Node36</title>
<path fill="none" stroke="#63b8ff" d="M958.3,-384.6C955.82,-370.16 953.92,-347.61 961.5,-330 966.38,-318.66 975.72,-308.86 984.8,-301.37"/>
<polygon fill="#63b8ff" stroke="#63b8ff" points="986.91,-304.16 992.77,-295.33 982.68,-298.58 986.91,-304.16"/>
</g>
<!-- Node37 -->
<g id="node37" class="node">
<title>Node37</title>
<g id="a_node37"><a xlink:href="_modules_2uniquecomponent_2annotations_8h.html" target="_top" xlink:title=" ">
<polygon fill="white" stroke="#666666" points="1044.5,-349 970.5,-349 970.5,-330 1044.5,-330 1044.5,-349"/>
<text text-anchor="middle" x="1007.5" y="-337" font-family="Helvetica,sans-Serif" font-size="10.00">annotations.h</text>
</a>
</g>
</g>
<!-- Node35&#45;&gt;Node37 -->
<g id="edge44" class="edge">
<title>Node35&#45;&gt;Node37</title>
<path fill="none" stroke="#63b8ff" d="M972.87,-384.54C979.14,-376.56 986.98,-366.59 993.61,-358.16"/>
<polygon fill="#63b8ff" stroke="#63b8ff" points="996.31,-360.39 999.74,-350.36 990.81,-356.06 996.31,-360.39"/>
</g>
<!-- Node37&#45;&gt;Node36 -->
<g id="edge45" class="edge">
<title>Node37&#45;&gt;Node36</title>
<path fill="none" stroke="#63b8ff" d="M1007.67,-329.75C1007.79,-323.27 1007.96,-314.16 1008.12,-305.9"/>
<polygon fill="#63b8ff" stroke="#63b8ff" points="1011.61,-306.02 1008.3,-295.96 1004.61,-305.89 1011.61,-306.02"/>
</g>
<!-- Node39 -->
<g id="node39" class="node">
<title>Node39</title>
<g id="a_node39"><a xlink:href="component__index_8h.html" target="_top" xlink:title=" ">
<polygon fill="white" stroke="#666666" points="1162.5,-349 1062.5,-349 1062.5,-330 1162.5,-330 1162.5,-349"/>
<text text-anchor="middle" x="1112.5" y="-337" font-family="Helvetica,sans-Serif" font-size="10.00">component_index.h</text>
</a>
</g>
</g>
<!-- Node38&#45;&gt;Node39 -->
<g id="edge47" class="edge">
<title>Node38&#45;&gt;Node39</title>
<path fill="none" stroke="#63b8ff" d="M1112.5,-384.54C1112.5,-377.34 1112.5,-368.53 1112.5,-360.68"/>
<polygon fill="#63b8ff" stroke="#63b8ff" points="1116,-360.69 1112.5,-350.69 1109,-360.69 1116,-360.69"/>
</g>
<!-- Node40 -->
<g id="node40" class="node">
<title>Node40</title>
<g id="a_node40"><a xlink:href="indexholder_8h.html" target="_top" xlink:title=" ">
<polygon fill="white" stroke="#666666" points="1254,-349 1181,-349 1181,-330 1254,-330 1254,-349"/>
<text text-anchor="middle" x="1217.5" y="-337" font-family="Helvetica,sans-Serif" font-size="10.00">indexholder.h</text>
</a>
</g>
</g>
<!-- Node38&#45;&gt;Node40 -->
<g id="edge48" class="edge">
<title>Node38&#45;&gt;Node40</title>
<path fill="none" stroke="#63b8ff" d="M1138.46,-384.54C1154.7,-375.49 1175.53,-363.88 1191.74,-354.85"/>
<polygon fill="#63b8ff" stroke="#63b8ff" points="1193.27,-358.01 1200.3,-350.08 1189.86,-351.89 1193.27,-358.01"/>
</g>
<!-- Node41 -->
<g id="node41" class="node">
<title>Node41</title>
<g id="a_node41"><a xlink:href="indextype_8h.html" target="_top" xlink:title=" ">
<polygon fill="white" stroke="#666666" points="1268,-294 1167,-294 1167,-275 1268,-275 1268,-294"/>
<text text-anchor="middle" x="1217.5" y="-282" font-family="Helvetica,sans-Serif" font-size="10.00">Generic/indextype.h</text>
</a>
</g>
</g>
<!-- Node40&#45;&gt;Node41 -->
<g id="edge49" class="edge">
<title>Node40&#45;&gt;Node41</title>
<path fill="none" stroke="#63b8ff" d="M1217.5,-329.75C1217.5,-323.27 1217.5,-314.16 1217.5,-305.9"/>
<polygon fill="#63b8ff" stroke="#63b8ff" points="1221,-305.96 1217.5,-295.96 1214,-305.96 1221,-305.96"/>
</g>
<!-- Node43&#45;&gt;Node42 -->
<g id="edge52" class="edge">
<title>Node43&#45;&gt;Node42</title>
<path fill="none" stroke="#63b8ff" d="M1233.8,-450.87C1234.06,-443 1234.47,-431.1 1234.82,-420.89"/>
<polygon fill="#63b8ff" stroke="#63b8ff" points="1238.31,-421.29 1235.15,-411.18 1231.31,-421.05 1238.31,-421.29"/>
</g>
</g>
</svg>
