<?xml version="1.0" encoding="UTF-8" standalone="no"?>
<!DOCTYPE svg PUBLIC "-//W3C//DTD SVG 1.1//EN"
 "http://www.w3.org/Graphics/SVG/1.1/DTD/svg11.dtd">
<!-- Generated by graphviz version 7.0.5 (20221223.1930)
 -->
<!-- Title: plugins/misc/scene/src/Madgine/scene/entity Pages: 1 -->
<svg width="248pt" height="125pt"
 viewBox="0.00 0.00 248.00 125.00" xmlns="http://www.w3.org/2000/svg" xmlns:xlink="http://www.w3.org/1999/xlink">
<g id="graph0" class="graph" transform="scale(1 1) rotate(0) translate(4 121)">
<title>plugins/misc/scene/src/Madgine/scene/entity</title>
<g id="clust1" class="cluster">
<title>clusterdir_5e99d57c423f2d995f3c22bc64854efd</title>
<g id="a_clust1"><a xlink:href="dir_5e99d57c423f2d995f3c22bc64854efd.html" target="_top" xlink:title="scene">
<polygon fill="#edf0f7" stroke="#7f7f7f" stroke-dasharray="5,2" points="56.5,-39 56.5,-109 216.5,-109 216.5,-39 56.5,-39"/>
<text text-anchor="middle" x="136.5" y="-97" font-family="Helvetica,sans-Serif" font-size="10.00">scene</text>
</a>
</g>
</g>
<g id="clust2" class="cluster">
<title>clusterdir_112a6cb9e7a5eb64a3ca03808cb8102a</title>
<g id="a_clust2"><a xlink:href="dir_112a6cb9e7a5eb64a3ca03808cb8102a.html" target="_top">
<polygon fill="#edf0f7" stroke="#404040" stroke-width="2" points="64.5,-47 64.5,-82 208.5,-82 208.5,-47 64.5,-47"/>
</a>
</g>
</g>
<!-- dir_112a6cb9e7a5eb64a3ca03808cb8102a -->
<g id="node1" class="node">
<title>dir_112a6cb9e7a5eb64a3ca03808cb8102a</title>
<text text-anchor="middle" x="92.5" y="-62" font-family="Helvetica,sans-Serif" font-size="10.00">entity</text>
</g>
<!-- dir_68267d1309a1af8e8297ef4c3efbcdba -->
<g id="node4" class="node">
<title>dir_68267d1309a1af8e8297ef4c3efbcdba</title>
<g id="a_node4"><a xlink:href="dir_68267d1309a1af8e8297ef4c3efbcdba.html" target="_top" xlink:title="src">
<polygon fill="#edf0f7" stroke="red" points="162.5,-19 132.5,-19 132.5,0 162.5,0 162.5,-19"/>
<text text-anchor="middle" x="147.5" y="-7" font-family="Helvetica,sans-Serif" font-size="10.00">src</text>
</a>
</g>
</g>
<!-- dir_112a6cb9e7a5eb64a3ca03808cb8102a&#45;&gt;dir_68267d1309a1af8e8297ef4c3efbcdba -->
<g id="edge1" class="edge">
<title>dir_112a6cb9e7a5eb64a3ca03808cb8102a&#45;&gt;dir_68267d1309a1af8e8297ef4c3efbcdba</title>
<path fill="none" stroke="#63b8ff" d="M101.09,-55.22C108.87,-47.73 120.54,-36.48 130.24,-27.13"/>
<polygon fill="#63b8ff" stroke="#63b8ff" points="132.56,-29.76 137.33,-20.3 127.7,-24.72 132.56,-29.76"/>
<g id="a_edge1&#45;headlabel"><a xlink:href="dir_000042_000153.html" target="_top" xlink:title="59">
<text text-anchor="middle" x="133.03" y="-30.75" font-family="Helvetica,sans-Serif" font-size="10.00" fill="#63b8ff">59</text>
</a>
</g>
</g>
<!-- dir_6e88b2e4d8b32e1638ce514da6209492 -->
<g id="node5" class="node">
<title>dir_6e88b2e4d8b32e1638ce514da6209492</title>
<g id="a_node5"><a xlink:href="dir_6e88b2e4d8b32e1638ce514da6209492.html" target="_top" xlink:title="debug">
<polygon fill="#edf0f7" stroke="red" stroke-dasharray="5,2" points="114,-19 71,-19 71,0 114,0 114,-19"/>
<text text-anchor="middle" x="92.5" y="-7" font-family="Helvetica,sans-Serif" font-size="10.00">debug</text>
</a>
</g>
</g>
<!-- dir_112a6cb9e7a5eb64a3ca03808cb8102a&#45;&gt;dir_6e88b2e4d8b32e1638ce514da6209492 -->
<g id="edge2" class="edge">
<title>dir_112a6cb9e7a5eb64a3ca03808cb8102a&#45;&gt;dir_6e88b2e4d8b32e1638ce514da6209492</title>
<path fill="none" stroke="#63b8ff" d="M92.5,-55.22C92.5,-48.65 92.5,-39.18 92.5,-30.64"/>
<polygon fill="#63b8ff" stroke="#63b8ff" points="96,-30.77 92.5,-20.77 89,-30.77 96,-30.77"/>
<g id="a_edge2&#45;headlabel"><a xlink:href="dir_000042_000035.html" target="_top" xlink:title="1">
<text text-anchor="middle" x="98.84" y="-30.35" font-family="Helvetica,sans-Serif" font-size="10.00" fill="#63b8ff">1</text>
</a>
</g>
</g>
<!-- dir_730e86da1a00f4cd5a8ebc1b01c8a81f -->
<g id="node6" class="node">
<title>dir_730e86da1a00f4cd5a8ebc1b01c8a81f</title>
<g id="a_node6"><a xlink:href="dir_730e86da1a00f4cd5a8ebc1b01c8a81f.html" target="_top" xlink:title="behavior">
<polygon fill="#edf0f7" stroke="red" stroke-dasharray="5,2" points="53,-19 0,-19 0,0 53,0 53,-19"/>
<text text-anchor="middle" x="26.5" y="-7" font-family="Helvetica,sans-Serif" font-size="10.00">behavior</text>
</a>
</g>
</g>
<!-- dir_112a6cb9e7a5eb64a3ca03808cb8102a&#45;&gt;dir_730e86da1a00f4cd5a8ebc1b01c8a81f -->
<g id="edge3" class="edge">
<title>dir_112a6cb9e7a5eb64a3ca03808cb8102a&#45;&gt;dir_730e86da1a00f4cd5a8ebc1b01c8a81f</title>
<path fill="none" stroke="#63b8ff" d="M82.19,-55.22C72.58,-47.5 57.99,-35.78 46.15,-26.28"/>
<polygon fill="#63b8ff" stroke="#63b8ff" points="48.57,-23.73 38.58,-20.2 44.18,-29.19 48.57,-23.73"/>
<g id="a_edge3&#45;headlabel"><a xlink:href="dir_000042_000021.html" target="_top" xlink:title="1">
<text text-anchor="middle" x="51.97" y="-20.32" font-family="Helvetica,sans-Serif" font-size="10.00" fill="#63b8ff">1</text>
</a>
</g>
</g>
<!-- dir_17e9bb01598ec1f43ca119c9bde23fd3 -->
<g id="node2" class="node">
<title>dir_17e9bb01598ec1f43ca119c9bde23fd3</title>
<g id="a_node2"><a xlink:href="dir_17e9bb01598ec1f43ca119c9bde23fd3.html" target="_top" xlink:title="components">
<polygon fill="#a2b4d6" stroke="#404040" points="200.5,-74 130.5,-74 130.5,-55 200.5,-55 200.5,-74"/>
<text text-anchor="middle" x="165.5" y="-62" font-family="Helvetica,sans-Serif" font-size="10.00">components</text>
</a>
</g>
</g>
<!-- dir_18cb38c735f8a580e1e086510eb8c495 -->
<g id="node3" class="node">
<title>dir_18cb38c735f8a580e1e086510eb8c495</title>
<g id="a_node3"><a xlink:href="dir_18cb38c735f8a580e1e086510eb8c495.html" target="_top" xlink:title="resources">
<polygon fill="#edf0f7" stroke="red" stroke-dasharray="5,2" points="240,-19 181,-19 181,0 240,0 240,-19"/>
<text text-anchor="middle" x="210.5" y="-7" font-family="Helvetica,sans-Serif" font-size="10.00">resources</text>
</a>
</g>
</g>
<!-- dir_17e9bb01598ec1f43ca119c9bde23fd3&#45;&gt;dir_18cb38c735f8a580e1e086510eb8c495 -->
<g id="edge4" class="edge">
<title>dir_17e9bb01598ec1f43ca119c9bde23fd3&#45;&gt;dir_18cb38c735f8a580e1e086510eb8c495</title>
<path fill="none" stroke="#63b8ff" d="M172.93,-54.75C179.08,-47.5 188.01,-36.98 195.63,-28.02"/>
<polygon fill="#63b8ff" stroke="#63b8ff" points="198.12,-30.48 201.93,-20.6 192.79,-25.95 198.12,-30.48"/>
<g id="a_edge4&#45;headlabel"><a xlink:href="dir_000029_000119.html" target="_top" xlink:title="5">
<text text-anchor="middle" x="198.94" y="-31.41" font-family="Helvetica,sans-Serif" font-size="10.00" fill="#63b8ff">5</text>
</a>
</g>
</g>
<!-- dir_17e9bb01598ec1f43ca119c9bde23fd3&#45;&gt;dir_68267d1309a1af8e8297ef4c3efbcdba -->
<g id="edge5" class="edge">
<title>dir_17e9bb01598ec1f43ca119c9bde23fd3&#45;&gt;dir_68267d1309a1af8e8297ef4c3efbcdba</title>
<path fill="none" stroke="#63b8ff" d="M162.53,-54.75C160.27,-48.11 157.09,-38.73 154.23,-30.31"/>
<polygon fill="#63b8ff" stroke="#63b8ff" points="157.55,-29.22 151.02,-20.88 150.93,-31.47 157.55,-29.22"/>
<g id="a_edge5&#45;headlabel"><a xlink:href="dir_000029_000153.html" target="_top" xlink:title="22">
<text text-anchor="middle" x="160.91" y="-27.78" font-family="Helvetica,sans-Serif" font-size="10.00" fill="#63b8ff">22</text>
</a>
</g>
</g>
</g>
</svg>
