<?xml version="1.0" encoding="UTF-8" standalone="no"?>
<!DOCTYPE svg PUBLIC "-//W3C//DTD SVG 1.1//EN"
 "http://www.w3.org/Graphics/SVG/1.1/DTD/svg11.dtd">
<!-- Generated by graphviz version 7.0.5 (20221223.1930)
 -->
<!-- Title: src/Meta Pages: 1 -->
<svg width="212pt" height="251pt"
 viewBox="0.00 0.00 212.00 251.00" xmlns="http://www.w3.org/2000/svg" xmlns:xlink="http://www.w3.org/1999/xlink">
<g id="graph0" class="graph" transform="scale(1 1) rotate(0) translate(4 247)">
<title>src/Meta</title>
<g id="clust1" class="cluster">
<title>clusterdir_68267d1309a1af8e8297ef4c3efbcdba</title>
<g id="a_clust1"><a xlink:href="dir_68267d1309a1af8e8297ef4c3efbcdba.html" target="_top" xlink:title="src">
<polygon fill="#edf0f7" stroke="#404040" stroke-dasharray="5,2" points="8,-8 8,-235 196,-235 196,-8 8,-8"/>
<text text-anchor="middle" x="102" y="-223" font-family="Helvetica,sans-Serif" font-size="10.00">src</text>
</a>
</g>
</g>
<g id="clust2" class="cluster">
<title>clusterdir_022f6552a590871b5e744fe7964d6696</title>
<g id="a_clust2"><a xlink:href="dir_022f6552a590871b5e744fe7964d6696.html" target="_top">
<polygon fill="#edf0f7" stroke="#404040" stroke-width="2" points="16,-63 16,-208 158,-208 158,-63 16,-63"/>
</a>
</g>
</g>
<!-- dir_b37d33ceb7f5c107fb027d4db224bc89 -->
<g id="node1" class="node">
<title>dir_b37d33ceb7f5c107fb027d4db224bc89</title>
<g id="a_node1"><a xlink:href="dir_b37d33ceb7f5c107fb027d4db224bc89.html" target="_top" xlink:title="Generic">
<polygon fill="#a2b4d6" stroke="red" points="180,-35 130,-35 130,-16 180,-16 180,-35"/>
<text text-anchor="middle" x="155" y="-23" font-family="Helvetica,sans-Serif" font-size="10.00">Generic</text>
</a>
</g>
</g>
<!-- dir_022f6552a590871b5e744fe7964d6696 -->
<g id="node2" class="node">
<title>dir_022f6552a590871b5e744fe7964d6696</title>
<text text-anchor="middle" x="131" y="-188" font-family="Helvetica,sans-Serif" font-size="10.00">Meta</text>
</g>
<!-- dir_022f6552a590871b5e744fe7964d6696&#45;&gt;dir_b37d33ceb7f5c107fb027d4db224bc89 -->
<g id="edge1" class="edge">
<title>dir_022f6552a590871b5e744fe7964d6696&#45;&gt;dir_b37d33ceb7f5c107fb027d4db224bc89</title>
<path fill="none" stroke="#63b8ff" d="M137.79,-181.26C144.34,-172.77 153.85,-158.85 158,-145 168.01,-111.58 163.44,-70.45 159.22,-46.49"/>
<polygon fill="#63b8ff" stroke="#63b8ff" points="162.69,-46.01 157.35,-36.86 155.82,-47.34 162.69,-46.01"/>
<g id="a_edge1&#45;headlabel"><a xlink:href="dir_000096_000049.html" target="_top" xlink:title="72">
<text text-anchor="middle" x="165.88" y="-45.01" font-family="Helvetica,sans-Serif" font-size="10.00" fill="#63b8ff">72</text>
</a>
</g>
</g>
<!-- dir_908ca8dc7b56b79ceb98e52b6f721797 -->
<g id="node3" class="node">
<title>dir_908ca8dc7b56b79ceb98e52b6f721797</title>
<g id="a_node3"><a xlink:href="dir_908ca8dc7b56b79ceb98e52b6f721797.html" target="_top" xlink:title="base64">
<polygon fill="#a2b4d6" stroke="#404040" points="72,-90 24,-90 24,-71 72,-71 72,-90"/>
<text text-anchor="middle" x="48" y="-78" font-family="Helvetica,sans-Serif" font-size="10.00">base64</text>
</a>
</g>
</g>
<!-- dir_908ca8dc7b56b79ceb98e52b6f721797&#45;&gt;dir_b37d33ceb7f5c107fb027d4db224bc89 -->
<g id="edge2" class="edge">
<title>dir_908ca8dc7b56b79ceb98e52b6f721797&#45;&gt;dir_b37d33ceb7f5c107fb027d4db224bc89</title>
<path fill="none" stroke="#63b8ff" d="M65.8,-70.58C70.72,-68.12 76.07,-65.45 81,-63 95.98,-55.56 112.7,-47.31 126.44,-40.54"/>
<polygon fill="#63b8ff" stroke="#63b8ff" points="127.96,-43.7 135.38,-36.14 124.86,-37.42 127.96,-43.7"/>
<g id="a_edge2&#45;headlabel"><a xlink:href="dir_000020_000049.html" target="_top" xlink:title="1">
<text text-anchor="middle" x="127.34" y="-44.66" font-family="Helvetica,sans-Serif" font-size="10.00" fill="#63b8ff">1</text>
</a>
</g>
</g>
<!-- dir_29403f201f06e7814a351cd02c00d002 -->
<g id="node4" class="node">
<title>dir_29403f201f06e7814a351cd02c00d002</title>
<g id="a_node4"><a xlink:href="dir_29403f201f06e7814a351cd02c00d002.html" target="_top" xlink:title="keyvalue">
<polygon fill="#a2b4d6" stroke="#404040" points="149.5,-145 94.5,-145 94.5,-126 149.5,-126 149.5,-145"/>
<text text-anchor="middle" x="122" y="-133" font-family="Helvetica,sans-Serif" font-size="10.00">keyvalue</text>
</a>
</g>
</g>
<!-- dir_29403f201f06e7814a351cd02c00d002&#45;&gt;dir_b37d33ceb7f5c107fb027d4db224bc89 -->
<g id="edge4" class="edge">
<title>dir_29403f201f06e7814a351cd02c00d002&#45;&gt;dir_b37d33ceb7f5c107fb027d4db224bc89</title>
<path fill="none" stroke="#63b8ff" d="M130.06,-125.75C137.29,-117.3 147.43,-103.8 152,-90 156.64,-76.01 157.25,-59.35 156.78,-46.6"/>
<polygon fill="#63b8ff" stroke="#63b8ff" points="160.29,-46.66 156.15,-36.91 153.31,-47.12 160.29,-46.66"/>
<g id="a_edge4&#45;headlabel"><a xlink:href="dir_000062_000049.html" target="_top" xlink:title="21">
<text text-anchor="middle" x="163.26" y="-46.06" font-family="Helvetica,sans-Serif" font-size="10.00" fill="#63b8ff">21</text>
</a>
</g>
</g>
<!-- dir_34c07fe1be5c3b7f1f34000374ce60e9 -->
<g id="node6" class="node">
<title>dir_34c07fe1be5c3b7f1f34000374ce60e9</title>
<g id="a_node6"><a xlink:href="dir_34c07fe1be5c3b7f1f34000374ce60e9.html" target="_top" xlink:title="math">
<polygon fill="#a2b4d6" stroke="#404040" points="128,-90 90,-90 90,-71 128,-71 128,-90"/>
<text text-anchor="middle" x="109" y="-78" font-family="Helvetica,sans-Serif" font-size="10.00">math</text>
</a>
</g>
</g>
<!-- dir_29403f201f06e7814a351cd02c00d002&#45;&gt;dir_34c07fe1be5c3b7f1f34000374ce60e9 -->
<g id="edge3" class="edge">
<title>dir_29403f201f06e7814a351cd02c00d002&#45;&gt;dir_34c07fe1be5c3b7f1f34000374ce60e9</title>
<path fill="none" stroke="#63b8ff" d="M119.85,-125.75C118.24,-119.19 115.98,-109.95 113.93,-101.6"/>
<polygon fill="#63b8ff" stroke="#63b8ff" points="117.34,-100.79 111.55,-91.91 110.54,-102.46 117.34,-100.79"/>
<g id="a_edge3&#45;headlabel"><a xlink:href="dir_000062_000091.html" target="_top" xlink:title="11">
<text text-anchor="middle" x="120.59" y="-99.64" font-family="Helvetica,sans-Serif" font-size="10.00" fill="#63b8ff">11</text>
</a>
</g>
</g>
<!-- dir_ace40138f6a2a65baa801081acd2aabb -->
<g id="node5" class="node">
<title>dir_ace40138f6a2a65baa801081acd2aabb</title>
<g id="a_node5"><a xlink:href="dir_ace40138f6a2a65baa801081acd2aabb.html" target="_top" xlink:title="keyvalueutil">
<polygon fill="#a2b4d6" stroke="#404040" points="93,-200 25,-200 25,-181 93,-181 93,-200"/>
<text text-anchor="middle" x="59" y="-188" font-family="Helvetica,sans-Serif" font-size="10.00">keyvalueutil</text>
</a>
</g>
</g>
<!-- dir_ace40138f6a2a65baa801081acd2aabb&#45;&gt;dir_29403f201f06e7814a351cd02c00d002 -->
<g id="edge5" class="edge">
<title>dir_ace40138f6a2a65baa801081acd2aabb&#45;&gt;dir_29403f201f06e7814a351cd02c00d002</title>
<path fill="none" stroke="#63b8ff" d="M69.69,-180.51C78.7,-172.93 91.83,-161.88 102.68,-152.75"/>
<polygon fill="#63b8ff" stroke="#63b8ff" points="104.91,-155.45 110.31,-146.33 100.41,-150.09 104.91,-155.45"/>
<g id="a_edge5&#45;headlabel"><a xlink:href="dir_000063_000062.html" target="_top" xlink:title="1">
<text text-anchor="middle" x="105.15" y="-156.46" font-family="Helvetica,sans-Serif" font-size="10.00" fill="#63b8ff">1</text>
</a>
</g>
</g>
<!-- dir_dc74b7af8b93dd978acec3749eb614d8 -->
<g id="node7" class="node">
<title>dir_dc74b7af8b93dd978acec3749eb614d8</title>
<g id="a_node7"><a xlink:href="dir_dc74b7af8b93dd978acec3749eb614d8.html" target="_top" xlink:title="serialize">
<polygon fill="#a2b4d6" stroke="#404040" points="76,-145 24,-145 24,-126 76,-126 76,-145"/>
<text text-anchor="middle" x="50" y="-133" font-family="Helvetica,sans-Serif" font-size="10.00">serialize</text>
</a>
</g>
</g>
<!-- dir_ace40138f6a2a65baa801081acd2aabb&#45;&gt;dir_dc74b7af8b93dd978acec3749eb614d8 -->
<g id="edge6" class="edge">
<title>dir_ace40138f6a2a65baa801081acd2aabb&#45;&gt;dir_dc74b7af8b93dd978acec3749eb614d8</title>
<path fill="none" stroke="#63b8ff" d="M57.51,-180.75C56.4,-174.19 54.83,-164.95 53.41,-156.6"/>
<polygon fill="#63b8ff" stroke="#63b8ff" points="56.9,-156.21 51.77,-146.93 50,-157.38 56.9,-156.21"/>
<g id="a_edge6&#45;headlabel"><a xlink:href="dir_000063_000127.html" target="_top" xlink:title="4">
<text text-anchor="middle" x="60.04" y="-155.28" font-family="Helvetica,sans-Serif" font-size="10.00" fill="#63b8ff">4</text>
</a>
</g>
</g>
<!-- dir_dc74b7af8b93dd978acec3749eb614d8&#45;&gt;dir_b37d33ceb7f5c107fb027d4db224bc89 -->
<g id="edge8" class="edge">
<title>dir_dc74b7af8b93dd978acec3749eb614d8&#45;&gt;dir_b37d33ceb7f5c107fb027d4db224bc89</title>
<path fill="none" stroke="#63b8ff" d="M76.49,-127.25C95.91,-120.61 121.5,-108.89 137,-90 147.13,-77.66 151.56,-59.94 153.5,-46.35"/>
<polygon fill="#63b8ff" stroke="#63b8ff" points="156.94,-47.13 154.51,-36.81 149.98,-46.39 156.94,-47.13"/>
<g id="a_edge8&#45;headlabel"><a xlink:href="dir_000127_000049.html" target="_top" xlink:title="44">
<text text-anchor="middle" x="159.54" y="-47" font-family="Helvetica,sans-Serif" font-size="10.00" fill="#63b8ff">44</text>
</a>
</g>
</g>
<!-- dir_dc74b7af8b93dd978acec3749eb614d8&#45;&gt;dir_908ca8dc7b56b79ceb98e52b6f721797 -->
<g id="edge9" class="edge">
<title>dir_dc74b7af8b93dd978acec3749eb614d8&#45;&gt;dir_908ca8dc7b56b79ceb98e52b6f721797</title>
<path fill="none" stroke="#63b8ff" d="M49.67,-125.75C49.43,-119.27 49.08,-110.16 48.77,-101.9"/>
<polygon fill="#63b8ff" stroke="#63b8ff" points="52.27,-101.82 48.39,-91.95 45.27,-102.08 52.27,-101.82"/>
<g id="a_edge9&#45;headlabel"><a xlink:href="dir_000127_000020.html" target="_top" xlink:title="1">
<text text-anchor="middle" x="55.18" y="-101.29" font-family="Helvetica,sans-Serif" font-size="10.00" fill="#63b8ff">1</text>
</a>
</g>
</g>
<!-- dir_dc74b7af8b93dd978acec3749eb614d8&#45;&gt;dir_34c07fe1be5c3b7f1f34000374ce60e9 -->
<g id="edge7" class="edge">
<title>dir_dc74b7af8b93dd978acec3749eb614d8&#45;&gt;dir_34c07fe1be5c3b7f1f34000374ce60e9</title>
<path fill="none" stroke="#63b8ff" d="M60.01,-125.51C68.37,-118 80.5,-107.1 90.6,-98.03"/>
<polygon fill="#63b8ff" stroke="#63b8ff" points="92.91,-100.66 98.01,-91.37 88.24,-95.45 92.91,-100.66"/>
<g id="a_edge7&#45;headlabel"><a xlink:href="dir_000127_000091.html" target="_top" xlink:title="3">
<text text-anchor="middle" x="93.26" y="-101.66" font-family="Helvetica,sans-Serif" font-size="10.00" fill="#63b8ff">3</text>
</a>
</g>
</g>
</g>
</svg>
