<?xml version="1.0" encoding="UTF-8" standalone="no"?>
<!DOCTYPE svg PUBLIC "-//W3C//DTD SVG 1.1//EN"
 "http://www.w3.org/Graphics/SVG/1.1/DTD/svg11.dtd">
<!-- Generated by graphviz version 7.0.5 (20221223.1930)
 -->
<!-- Title: src/Madgine Pages: 1 -->
<svg width="418pt" height="141pt"
 viewBox="0.00 0.00 418.00 141.00" xmlns="http://www.w3.org/2000/svg" xmlns:xlink="http://www.w3.org/1999/xlink">
<g id="graph0" class="graph" transform="scale(1 1) rotate(0) translate(4 137)">
<title>src/Madgine</title>
<g id="clust1" class="cluster">
<title>clusterdir_68267d1309a1af8e8297ef4c3efbcdba</title>
<g id="a_clust1"><a xlink:href="dir_68267d1309a1af8e8297ef4c3efbcdba.html" target="_top" xlink:title="src">
<polygon fill="#edf0f7" stroke="#404040" stroke-dasharray="5,2" points="8,-8 8,-125 402,-125 402,-8 8,-8"/>
<text text-anchor="middle" x="205" y="-113" font-family="Helvetica,sans-Serif" font-size="10.00">src</text>
</a>
</g>
</g>
<g id="clust2" class="cluster">
<title>clusterdir_adf00ee8b354a2b801c83d87dd7d0417</title>
<g id="a_clust2"><a xlink:href="dir_adf00ee8b354a2b801c83d87dd7d0417.html" target="_top">
<polygon fill="#edf0f7" stroke="#404040" stroke-width="2" points="16,-63 16,-98 394,-98 394,-63 16,-63"/>
</a>
</g>
</g>
<!-- dir_022f6552a590871b5e744fe7964d6696 -->
<g id="node1" class="node">
<title>dir_022f6552a590871b5e744fe7964d6696</title>
<g id="a_node1"><a xlink:href="dir_022f6552a590871b5e744fe7964d6696.html" target="_top" xlink:title="Meta">
<polygon fill="#a2b4d6" stroke="red" points="188,-35 150,-35 150,-16 188,-16 188,-35"/>
<text text-anchor="middle" x="169" y="-23" font-family="Helvetica,sans-Serif" font-size="10.00">Meta</text>
</a>
</g>
</g>
<!-- dir_b37d33ceb7f5c107fb027d4db224bc89 -->
<g id="node2" class="node">
<title>dir_b37d33ceb7f5c107fb027d4db224bc89</title>
<g id="a_node2"><a xlink:href="dir_b37d33ceb7f5c107fb027d4db224bc89.html" target="_top" xlink:title="Generic">
<polygon fill="#a2b4d6" stroke="red" points="258,-35 208,-35 208,-16 258,-16 258,-35"/>
<text text-anchor="middle" x="233" y="-23" font-family="Helvetica,sans-Serif" font-size="10.00">Generic</text>
</a>
</g>
</g>
<!-- dir_ce6405ba0afce575b27b3b998c1d24f9 -->
<g id="node3" class="node">
<title>dir_ce6405ba0afce575b27b3b998c1d24f9</title>
<g id="a_node3"><a xlink:href="dir_ce6405ba0afce575b27b3b998c1d24f9.html" target="_top" xlink:title="Interfaces">
<polygon fill="#a2b4d6" stroke="red" points="102,-35 42,-35 42,-16 102,-16 102,-35"/>
<text text-anchor="middle" x="72" y="-23" font-family="Helvetica,sans-Serif" font-size="10.00">Interfaces</text>
</a>
</g>
</g>
<!-- dir_adf00ee8b354a2b801c83d87dd7d0417 -->
<g id="node4" class="node">
<title>dir_adf00ee8b354a2b801c83d87dd7d0417</title>
<text text-anchor="middle" x="359" y="-78" font-family="Helvetica,sans-Serif" font-size="10.00">Madgine</text>
</g>
<!-- dir_ff688eae94fa27797244746aa5863429 -->
<g id="node5" class="node">
<title>dir_ff688eae94fa27797244746aa5863429</title>
<g id="a_node5"><a xlink:href="dir_ff688eae94fa27797244746aa5863429.html" target="_top" xlink:title="cli">
<polygon fill="#a2b4d6" stroke="#404040" points="53.5,-90 24.5,-90 24.5,-71 53.5,-71 53.5,-90"/>
<text text-anchor="middle" x="39" y="-78" font-family="Helvetica,sans-Serif" font-size="10.00">cli</text>
</a>
</g>
</g>
<!-- dir_ff688eae94fa27797244746aa5863429&#45;&gt;dir_ce6405ba0afce575b27b3b998c1d24f9 -->
<g id="edge1" class="edge">
<title>dir_ff688eae94fa27797244746aa5863429&#45;&gt;dir_ce6405ba0afce575b27b3b998c1d24f9</title>
<path fill="none" stroke="#63b8ff" d="M44.45,-70.75C48.77,-63.81 54.96,-53.86 60.38,-45.16"/>
<polygon fill="#63b8ff" stroke="#63b8ff" points="63.32,-47.07 65.63,-36.73 57.38,-43.37 63.32,-47.07"/>
<g id="a_edge1&#45;headlabel"><a xlink:href="dir_000025_000061.html" target="_top" xlink:title="3">
<text text-anchor="middle" x="64.63" y="-47.83" font-family="Helvetica,sans-Serif" font-size="10.00" fill="#63b8ff">3</text>
</a>
</g>
</g>
<!-- dir_b765a92c707b41d2038b7a83d3d5add5 -->
<g id="node6" class="node">
<title>dir_b765a92c707b41d2038b7a83d3d5add5</title>
<g id="a_node6"><a xlink:href="dir_b765a92c707b41d2038b7a83d3d5add5.html" target="_top" xlink:title="codegen">
<polygon fill="#a2b4d6" stroke="#404040" points="195.5,-90 142.5,-90 142.5,-71 195.5,-71 195.5,-90"/>
<text text-anchor="middle" x="169" y="-78" font-family="Helvetica,sans-Serif" font-size="10.00">codegen</text>
</a>
</g>
</g>
<!-- dir_b765a92c707b41d2038b7a83d3d5add5&#45;&gt;dir_022f6552a590871b5e744fe7964d6696 -->
<g id="edge2" class="edge">
<title>dir_b765a92c707b41d2038b7a83d3d5add5&#45;&gt;dir_022f6552a590871b5e744fe7964d6696</title>
<path fill="none" stroke="#63b8ff" d="M169,-70.75C169,-64.27 169,-55.16 169,-46.9"/>
<polygon fill="#63b8ff" stroke="#63b8ff" points="172.5,-46.96 169,-36.96 165.5,-46.96 172.5,-46.96"/>
<g id="a_edge2&#45;headlabel"><a xlink:href="dir_000027_000096.html" target="_top" xlink:title="4">
<text text-anchor="middle" x="175.34" y="-46.54" font-family="Helvetica,sans-Serif" font-size="10.00" fill="#63b8ff">4</text>
</a>
</g>
</g>
<!-- dir_b765a92c707b41d2038b7a83d3d5add5&#45;&gt;dir_b37d33ceb7f5c107fb027d4db224bc89 -->
<g id="edge3" class="edge">
<title>dir_b765a92c707b41d2038b7a83d3d5add5&#45;&gt;dir_b37d33ceb7f5c107fb027d4db224bc89</title>
<path fill="none" stroke="#63b8ff" d="M179.86,-70.51C189.11,-62.85 202.62,-51.66 213.71,-42.47"/>
<polygon fill="#63b8ff" stroke="#63b8ff" points="215.67,-45.4 221.14,-36.32 211.2,-40.01 215.67,-45.4"/>
<g id="a_edge3&#45;headlabel"><a xlink:href="dir_000027_000049.html" target="_top" xlink:title="6">
<text text-anchor="middle" x="215.88" y="-46.41" font-family="Helvetica,sans-Serif" font-size="10.00" fill="#63b8ff">6</text>
</a>
</g>
</g>
<!-- dir_0d3c1913db37f2a249687edc253511df -->
<g id="node7" class="node">
<title>dir_0d3c1913db37f2a249687edc253511df</title>
<g id="a_node7"><a xlink:href="dir_0d3c1913db37f2a249687edc253511df.html" target="_top" xlink:title="render">
<polygon fill="#a2b4d6" stroke="#404040" points="258,-90 214,-90 214,-71 258,-71 258,-90"/>
<text text-anchor="middle" x="236" y="-78" font-family="Helvetica,sans-Serif" font-size="10.00">render</text>
</a>
</g>
</g>
<!-- dir_0d3c1913db37f2a249687edc253511df&#45;&gt;dir_022f6552a590871b5e744fe7964d6696 -->
<g id="edge4" class="edge">
<title>dir_0d3c1913db37f2a249687edc253511df&#45;&gt;dir_022f6552a590871b5e744fe7964d6696</title>
<path fill="none" stroke="#63b8ff" d="M224.63,-70.51C214.95,-62.85 200.8,-51.66 189.19,-42.47"/>
<polygon fill="#63b8ff" stroke="#63b8ff" points="191.4,-39.76 181.38,-36.3 187.06,-45.25 191.4,-39.76"/>
<g id="a_edge4&#45;headlabel"><a xlink:href="dir_000115_000096.html" target="_top" xlink:title="2">
<text text-anchor="middle" x="194.79" y="-36.32" font-family="Helvetica,sans-Serif" font-size="10.00" fill="#63b8ff">2</text>
</a>
</g>
</g>
<!-- dir_0d3c1913db37f2a249687edc253511df&#45;&gt;dir_b37d33ceb7f5c107fb027d4db224bc89 -->
<g id="edge5" class="edge">
<title>dir_0d3c1913db37f2a249687edc253511df&#45;&gt;dir_b37d33ceb7f5c107fb027d4db224bc89</title>
<path fill="none" stroke="#63b8ff" d="M235.5,-70.75C235.14,-64.27 234.62,-55.16 234.15,-46.9"/>
<polygon fill="#63b8ff" stroke="#63b8ff" points="237.65,-46.74 233.59,-36.95 230.66,-47.13 237.65,-46.74"/>
<g id="a_edge5&#45;headlabel"><a xlink:href="dir_000115_000049.html" target="_top" xlink:title="5">
<text text-anchor="middle" x="240.6" y="-46.16" font-family="Helvetica,sans-Serif" font-size="10.00" fill="#63b8ff">5</text>
</a>
</g>
</g>
<!-- dir_4a38c61ec08aa6c8e6bad1fda26800ec -->
<g id="node8" class="node">
<title>dir_4a38c61ec08aa6c8e6bad1fda26800ec</title>
<g id="a_node8"><a xlink:href="dir_4a38c61ec08aa6c8e6bad1fda26800ec.html" target="_top" xlink:title="serialize">
<polygon fill="#a2b4d6" stroke="#404040" points="124,-90 72,-90 72,-71 124,-71 124,-90"/>
<text text-anchor="middle" x="98" y="-78" font-family="Helvetica,sans-Serif" font-size="10.00">serialize</text>
</a>
</g>
</g>
<!-- dir_4a38c61ec08aa6c8e6bad1fda26800ec&#45;&gt;dir_022f6552a590871b5e744fe7964d6696 -->
<g id="edge6" class="edge">
<title>dir_4a38c61ec08aa6c8e6bad1fda26800ec&#45;&gt;dir_022f6552a590871b5e744fe7964d6696</title>
<path fill="none" stroke="#63b8ff" d="M110.04,-70.51C120.41,-62.77 135.6,-51.43 147.97,-42.2"/>
<polygon fill="#63b8ff" stroke="#63b8ff" points="150,-45.05 155.92,-36.26 145.81,-39.44 150,-45.05"/>
<g id="a_edge6&#45;headlabel"><a xlink:href="dir_000126_000096.html" target="_top" xlink:title="18">
<text text-anchor="middle" x="150.03" y="-46.07" font-family="Helvetica,sans-Serif" font-size="10.00" fill="#63b8ff">18</text>
</a>
</g>
</g>
<!-- dir_4a38c61ec08aa6c8e6bad1fda26800ec&#45;&gt;dir_b37d33ceb7f5c107fb027d4db224bc89 -->
<g id="edge7" class="edge">
<title>dir_4a38c61ec08aa6c8e6bad1fda26800ec&#45;&gt;dir_b37d33ceb7f5c107fb027d4db224bc89</title>
<path fill="none" stroke="#63b8ff" d="M116.03,-70.62C121.44,-68.06 127.42,-65.33 133,-63 153.96,-54.26 177.84,-45.5 197,-38.75"/>
<polygon fill="#63b8ff" stroke="#63b8ff" points="197.97,-42.12 206.26,-35.53 195.66,-35.51 197.97,-42.12"/>
<g id="a_edge7&#45;headlabel"><a xlink:href="dir_000126_000049.html" target="_top" xlink:title="2">
<text text-anchor="middle" x="196.94" y="-42.99" font-family="Helvetica,sans-Serif" font-size="10.00" fill="#63b8ff">2</text>
</a>
</g>
</g>
<!-- dir_4a38c61ec08aa6c8e6bad1fda26800ec&#45;&gt;dir_ce6405ba0afce575b27b3b998c1d24f9 -->
<g id="edge8" class="edge">
<title>dir_4a38c61ec08aa6c8e6bad1fda26800ec&#45;&gt;dir_ce6405ba0afce575b27b3b998c1d24f9</title>
<path fill="none" stroke="#63b8ff" d="M93.71,-70.75C90.38,-63.96 85.64,-54.3 81.44,-45.73"/>
<polygon fill="#63b8ff" stroke="#63b8ff" points="84.6,-44.24 77.05,-36.8 78.32,-47.32 84.6,-44.24"/>
<g id="a_edge8&#45;headlabel"><a xlink:href="dir_000126_000061.html" target="_top" xlink:title="7">
<text text-anchor="middle" x="88.07" y="-42.36" font-family="Helvetica,sans-Serif" font-size="10.00" fill="#63b8ff">7</text>
</a>
</g>
</g>
<!-- dir_f5ecacc74e6eb6c09e43c3d874ddc9eb -->
<g id="node9" class="node">
<title>dir_f5ecacc74e6eb6c09e43c3d874ddc9eb</title>
<g id="a_node9"><a xlink:href="dir_f5ecacc74e6eb6c09e43c3d874ddc9eb.html" target="_top" xlink:title="trees">
<polygon fill="#a2b4d6" stroke="#404040" points="314,-90 276,-90 276,-71 314,-71 314,-90"/>
<text text-anchor="middle" x="295" y="-78" font-family="Helvetica,sans-Serif" font-size="10.00">trees</text>
</a>
</g>
</g>
<!-- dir_f5ecacc74e6eb6c09e43c3d874ddc9eb&#45;&gt;dir_b37d33ceb7f5c107fb027d4db224bc89 -->
<g id="edge9" class="edge">
<title>dir_f5ecacc74e6eb6c09e43c3d874ddc9eb&#45;&gt;dir_b37d33ceb7f5c107fb027d4db224bc89</title>
<path fill="none" stroke="#63b8ff" d="M284.48,-70.51C275.61,-62.93 262.69,-51.88 252.01,-42.75"/>
<polygon fill="#63b8ff" stroke="#63b8ff" points="254.39,-40.18 244.51,-36.34 249.84,-45.5 254.39,-40.18"/>
<g id="a_edge9&#45;headlabel"><a xlink:href="dir_000159_000049.html" target="_top" xlink:title="1">
<text text-anchor="middle" x="257.81" y="-36.87" font-family="Helvetica,sans-Serif" font-size="10.00" fill="#63b8ff">1</text>
</a>
</g>
</g>
</g>
</svg>
