<?xml version="1.0" encoding="UTF-8" standalone="no"?>
<!DOCTYPE svg PUBLIC "-//W3C//DTD SVG 1.1//EN"
 "http://www.w3.org/Graphics/SVG/1.1/DTD/svg11.dtd">
<!-- Generated by graphviz version 7.0.5 (20221223.1930)
 -->
<!-- Title: plugins/misc/scene Pages: 1 -->
<svg width="364pt" height="235pt"
 viewBox="0.00 0.00 364.00 235.00" xmlns="http://www.w3.org/2000/svg" xmlns:xlink="http://www.w3.org/1999/xlink">
<g id="graph0" class="graph" transform="scale(1 1) rotate(0) translate(4 231)">
<title>plugins/misc/scene</title>
<g id="clust1" class="cluster">
<title>clusterdir_5cf1fb433efe8c2c59502b29665893a0</title>
<g id="a_clust1"><a xlink:href="dir_5cf1fb433efe8c2c59502b29665893a0.html" target="_top" xlink:title="misc">
<polygon fill="#edf0f7" stroke="#7f7f7f" stroke-dasharray="5,2" points="32.5,-39 32.5,-219 204.5,-219 204.5,-39 32.5,-39"/>
<text text-anchor="middle" x="118.5" y="-207" font-family="Helvetica,sans-Serif" font-size="10.00">misc</text>
</a>
</g>
</g>
<g id="clust2" class="cluster">
<title>clusterdir_b63ee17378c3d614e7f7ad7597e33a2b</title>
<g id="a_clust2"><a xlink:href="dir_b63ee17378c3d614e7f7ad7597e33a2b.html" target="_top">
<polygon fill="#edf0f7" stroke="#404040" stroke-width="2" points="40.5,-47 40.5,-192 196.5,-192 196.5,-47 40.5,-47"/>
</a>
</g>
</g>
<!-- dir_b63ee17378c3d614e7f7ad7597e33a2b -->
<g id="node1" class="node">
<title>dir_b63ee17378c3d614e7f7ad7597e33a2b</title>
<text text-anchor="middle" x="166.5" y="-172" font-family="Helvetica,sans-Serif" font-size="10.00">scene</text>
</g>
<!-- dir_c2fed6526e181bdb4377f81967619a80 -->
<g id="node2" class="node">
<title>dir_c2fed6526e181bdb4377f81967619a80</title>
<g id="a_node2"><a xlink:href="dir_c2fed6526e181bdb4377f81967619a80.html" target="_top" xlink:title="renderer">
<polygon fill="#a2b4d6" stroke="#404040" points="167.5,-129 115.5,-129 115.5,-110 167.5,-110 167.5,-129"/>
<text text-anchor="middle" x="141.5" y="-117" font-family="Helvetica,sans-Serif" font-size="10.00">renderer</text>
</a>
</g>
</g>
<!-- dir_203de531cdb8dc5996b860069ca6d98e -->
<g id="node4" class="node">
<title>dir_203de531cdb8dc5996b860069ca6d98e</title>
<g id="a_node4"><a xlink:href="dir_203de531cdb8dc5996b860069ca6d98e.html" target="_top" xlink:title="src">
<polygon fill="#a2b4d6" stroke="#404040" points="156.5,-74 126.5,-74 126.5,-55 156.5,-55 156.5,-74"/>
<text text-anchor="middle" x="141.5" y="-62" font-family="Helvetica,sans-Serif" font-size="10.00">src</text>
</a>
</g>
</g>
<!-- dir_c2fed6526e181bdb4377f81967619a80&#45;&gt;dir_203de531cdb8dc5996b860069ca6d98e -->
<g id="edge3" class="edge">
<title>dir_c2fed6526e181bdb4377f81967619a80&#45;&gt;dir_203de531cdb8dc5996b860069ca6d98e</title>
<path fill="none" stroke="#63b8ff" d="M141.5,-109.75C141.5,-103.27 141.5,-94.16 141.5,-85.9"/>
<polygon fill="#63b8ff" stroke="#63b8ff" points="145,-85.96 141.5,-75.96 138,-85.96 145,-85.96"/>
<g id="a_edge3&#45;headlabel"><a xlink:href="dir_000116_000144.html" target="_top" xlink:title="34">
<text text-anchor="middle" x="147.84" y="-85.54" font-family="Helvetica,sans-Serif" font-size="10.00" fill="#63b8ff">34</text>
</a>
</g>
</g>
<!-- dir_18cb38c735f8a580e1e086510eb8c495 -->
<g id="node5" class="node">
<title>dir_18cb38c735f8a580e1e086510eb8c495</title>
<g id="a_node5"><a xlink:href="dir_18cb38c735f8a580e1e086510eb8c495.html" target="_top" xlink:title="resources">
<polygon fill="#edf0f7" stroke="red" stroke-dasharray="5,2" points="59,-19 0,-19 0,0 59,0 59,-19"/>
<text text-anchor="middle" x="29.5" y="-7" font-family="Helvetica,sans-Serif" font-size="10.00">resources</text>
</a>
</g>
</g>
<!-- dir_c2fed6526e181bdb4377f81967619a80&#45;&gt;dir_18cb38c735f8a580e1e086510eb8c495 -->
<g id="edge1" class="edge">
<title>dir_c2fed6526e181bdb4377f81967619a80&#45;&gt;dir_18cb38c735f8a580e1e086510eb8c495</title>
<path fill="none" stroke="#63b8ff" d="M132.33,-109.66C113.71,-91.7 71.17,-50.69 47.05,-27.42"/>
<polygon fill="#63b8ff" stroke="#63b8ff" points="49.51,-24.93 39.88,-20.51 44.65,-29.97 49.51,-24.93"/>
<g id="a_edge1&#45;headlabel"><a xlink:href="dir_000116_000119.html" target="_top" xlink:title="2">
<text text-anchor="middle" x="52.98" y="-21.83" font-family="Helvetica,sans-Serif" font-size="10.00" fill="#63b8ff">2</text>
</a>
</g>
</g>
<!-- dir_1da05fa7afbe4395eeb05c97a448f57a -->
<g id="node6" class="node">
<title>dir_1da05fa7afbe4395eeb05c97a448f57a</title>
<g id="a_node6"><a xlink:href="dir_1da05fa7afbe4395eeb05c97a448f57a.html" target="_top" xlink:title="client">
<polygon fill="#edf0f7" stroke="red" stroke-dasharray="5,2" points="252.5,-74 212.5,-74 212.5,-55 252.5,-55 252.5,-74"/>
<text text-anchor="middle" x="232.5" y="-62" font-family="Helvetica,sans-Serif" font-size="10.00">client</text>
</a>
</g>
</g>
<!-- dir_c2fed6526e181bdb4377f81967619a80&#45;&gt;dir_1da05fa7afbe4395eeb05c97a448f57a -->
<g id="edge2" class="edge">
<title>dir_c2fed6526e181bdb4377f81967619a80&#45;&gt;dir_1da05fa7afbe4395eeb05c97a448f57a</title>
<path fill="none" stroke="#63b8ff" d="M156.94,-109.51C170.75,-101.47 191.25,-89.53 207.41,-80.11"/>
<polygon fill="#63b8ff" stroke="#63b8ff" points="209.1,-83.18 215.98,-75.12 205.58,-77.13 209.1,-83.18"/>
<g id="a_edge2&#45;headlabel"><a xlink:href="dir_000116_000026.html" target="_top" xlink:title="5">
<text text-anchor="middle" x="208.73" y="-84.18" font-family="Helvetica,sans-Serif" font-size="10.00" fill="#63b8ff">5</text>
</a>
</g>
</g>
<!-- dir_4abd3b1ce7e6fd1c14d3fa34b06b5a7b -->
<g id="node7" class="node">
<title>dir_4abd3b1ce7e6fd1c14d3fa34b06b5a7b</title>
<g id="a_node7"><a xlink:href="dir_4abd3b1ce7e6fd1c14d3fa34b06b5a7b.html" target="_top" xlink:title="app">
<polygon fill="#edf0f7" stroke="red" stroke-dasharray="5,2" points="219.5,-19 187.5,-19 187.5,0 219.5,0 219.5,-19"/>
<text text-anchor="middle" x="203.5" y="-7" font-family="Helvetica,sans-Serif" font-size="10.00">app</text>
</a>
</g>
</g>
<!-- dir_c2fed6526e181bdb4377f81967619a80&#45;&gt;dir_4abd3b1ce7e6fd1c14d3fa34b06b5a7b -->
<g id="edge4" class="edge">
<title>dir_c2fed6526e181bdb4377f81967619a80&#45;&gt;dir_4abd3b1ce7e6fd1c14d3fa34b06b5a7b</title>
<path fill="none" stroke="#63b8ff" d="M146.57,-109.66C156.61,-92.18 179.19,-52.84 192.71,-29.3"/>
<polygon fill="#63b8ff" stroke="#63b8ff" points="195.66,-31.19 197.6,-20.77 189.59,-27.7 195.66,-31.19"/>
<g id="a_edge4&#45;headlabel"><a xlink:href="dir_000116_000012.html" target="_top" xlink:title="1">
<text text-anchor="middle" x="197.09" y="-31.91" font-family="Helvetica,sans-Serif" font-size="10.00" fill="#63b8ff">1</text>
</a>
</g>
</g>
<!-- dir_68267d1309a1af8e8297ef4c3efbcdba -->
<g id="node8" class="node">
<title>dir_68267d1309a1af8e8297ef4c3efbcdba</title>
<g id="a_node8"><a xlink:href="dir_68267d1309a1af8e8297ef4c3efbcdba.html" target="_top" xlink:title="src">
<polygon fill="#edf0f7" stroke="red" points="107.5,-19 77.5,-19 77.5,0 107.5,0 107.5,-19"/>
<text text-anchor="middle" x="92.5" y="-7" font-family="Helvetica,sans-Serif" font-size="10.00">src</text>
</a>
</g>
</g>
<!-- dir_c2fed6526e181bdb4377f81967619a80&#45;&gt;dir_68267d1309a1af8e8297ef4c3efbcdba -->
<g id="edge5" class="edge">
<title>dir_c2fed6526e181bdb4377f81967619a80&#45;&gt;dir_68267d1309a1af8e8297ef4c3efbcdba</title>
<path fill="none" stroke="#63b8ff" d="M136.4,-109.79C131.31,-100.94 123.42,-86.74 117.5,-74 110.77,-59.51 104.19,-42.66 99.47,-29.96"/>
<polygon fill="#63b8ff" stroke="#63b8ff" points="102.81,-28.88 96.09,-20.69 96.23,-31.28 102.81,-28.88"/>
<g id="a_edge5&#45;headlabel"><a xlink:href="dir_000116_000153.html" target="_top" xlink:title="16">
<text text-anchor="middle" x="106.19" y="-27.37" font-family="Helvetica,sans-Serif" font-size="10.00" fill="#63b8ff">16</text>
</a>
</g>
</g>
<!-- dir_74d4e5f47262527cf6938c6017890522 -->
<g id="node11" class="node">
<title>dir_74d4e5f47262527cf6938c6017890522</title>
<g id="a_node11"><a xlink:href="dir_74d4e5f47262527cf6938c6017890522.html" target="_top" xlink:title="renderer">
<polygon fill="#edf0f7" stroke="red" stroke-dasharray="5,2" points="322.5,-74 270.5,-74 270.5,-55 322.5,-55 322.5,-74"/>
<text text-anchor="middle" x="296.5" y="-62" font-family="Helvetica,sans-Serif" font-size="10.00">renderer</text>
</a>
</g>
</g>
<!-- dir_c2fed6526e181bdb4377f81967619a80&#45;&gt;dir_74d4e5f47262527cf6938c6017890522 -->
<g id="edge6" class="edge">
<title>dir_c2fed6526e181bdb4377f81967619a80&#45;&gt;dir_74d4e5f47262527cf6938c6017890522</title>
<path fill="none" stroke="#63b8ff" d="M167.79,-109.51C193.03,-100.88 231.39,-87.76 259.66,-78.1"/>
<polygon fill="#63b8ff" stroke="#63b8ff" points="260.57,-81.48 268.9,-74.94 258.31,-74.86 260.57,-81.48"/>
<g id="a_edge6&#45;headlabel"><a xlink:href="dir_000116_000117.html" target="_top" xlink:title="29">
<text text-anchor="middle" x="259.52" y="-82.34" font-family="Helvetica,sans-Serif" font-size="10.00" fill="#63b8ff">29</text>
</a>
</g>
</g>
<!-- dir_05bf879588c9184a91828995b7c287fd -->
<g id="node3" class="node">
<title>dir_05bf879588c9184a91828995b7c287fd</title>
<g id="a_node3"><a xlink:href="dir_05bf879588c9184a91828995b7c287fd.html" target="_top" xlink:title="renderer_tools">
<polygon fill="#a2b4d6" stroke="#404040" points="126.5,-184 48.5,-184 48.5,-165 126.5,-165 126.5,-184"/>
<text text-anchor="middle" x="87.5" y="-172" font-family="Helvetica,sans-Serif" font-size="10.00">renderer_tools</text>
</a>
</g>
</g>
<!-- dir_05bf879588c9184a91828995b7c287fd&#45;&gt;dir_c2fed6526e181bdb4377f81967619a80 -->
<g id="edge8" class="edge">
<title>dir_05bf879588c9184a91828995b7c287fd&#45;&gt;dir_c2fed6526e181bdb4377f81967619a80</title>
<path fill="none" stroke="#63b8ff" d="M96.42,-164.75C103.95,-157.35 114.97,-146.54 124.23,-137.45"/>
<polygon fill="#63b8ff" stroke="#63b8ff" points="126.62,-140 131.31,-130.5 121.72,-135.01 126.62,-140"/>
<g id="a_edge8&#45;headlabel"><a xlink:href="dir_000118_000116.html" target="_top" xlink:title="3">
<text text-anchor="middle" x="127.13" y="-140.99" font-family="Helvetica,sans-Serif" font-size="10.00" fill="#63b8ff">3</text>
</a>
</g>
</g>
<!-- dir_05bf879588c9184a91828995b7c287fd&#45;&gt;dir_203de531cdb8dc5996b860069ca6d98e -->
<g id="edge13" class="edge">
<title>dir_05bf879588c9184a91828995b7c287fd&#45;&gt;dir_203de531cdb8dc5996b860069ca6d98e</title>
<path fill="none" stroke="#63b8ff" d="M89.01,-164.89C91.44,-152.31 96.96,-128.39 106.5,-110 111.52,-100.32 118.76,-90.68 125.35,-82.86"/>
<polygon fill="#63b8ff" stroke="#63b8ff" points="127.88,-85.28 131.88,-75.47 122.64,-80.64 127.88,-85.28"/>
<g id="a_edge13&#45;headlabel"><a xlink:href="dir_000118_000144.html" target="_top" xlink:title="13">
<text text-anchor="middle" x="128.63" y="-86.22" font-family="Helvetica,sans-Serif" font-size="10.00" fill="#63b8ff">13</text>
</a>
</g>
</g>
<!-- dir_05bf879588c9184a91828995b7c287fd&#45;&gt;dir_18cb38c735f8a580e1e086510eb8c495 -->
<g id="edge9" class="edge">
<title>dir_05bf879588c9184a91828995b7c287fd&#45;&gt;dir_18cb38c735f8a580e1e086510eb8c495</title>
<path fill="none" stroke="#63b8ff" d="M84.38,-164.74C75.33,-139.31 48.92,-65.08 36.33,-29.69"/>
<polygon fill="#63b8ff" stroke="#63b8ff" points="39.79,-28.98 33.14,-20.73 33.2,-31.33 39.79,-28.98"/>
<g id="a_edge9&#45;headlabel"><a xlink:href="dir_000118_000119.html" target="_top" xlink:title="3">
<text text-anchor="middle" x="43.16" y="-27.49" font-family="Helvetica,sans-Serif" font-size="10.00" fill="#63b8ff">3</text>
</a>
</g>
</g>
<!-- dir_05bf879588c9184a91828995b7c287fd&#45;&gt;dir_1da05fa7afbe4395eeb05c97a448f57a -->
<g id="edge11" class="edge">
<title>dir_05bf879588c9184a91828995b7c287fd&#45;&gt;dir_1da05fa7afbe4395eeb05c97a448f57a</title>
<path fill="none" stroke="#63b8ff" d="M111.22,-164.59C130.02,-156.86 156.37,-144.49 176.5,-129 193.56,-115.87 209.43,-96.98 219.89,-83.22"/>
<polygon fill="#63b8ff" stroke="#63b8ff" points="222.47,-85.61 225.58,-75.48 216.84,-81.46 222.47,-85.61"/>
<g id="a_edge11&#45;headlabel"><a xlink:href="dir_000118_000026.html" target="_top" xlink:title="2">
<text text-anchor="middle" x="223.53" y="-86.47" font-family="Helvetica,sans-Serif" font-size="10.00" fill="#63b8ff">2</text>
</a>
</g>
</g>
<!-- dir_05bf879588c9184a91828995b7c287fd&#45;&gt;dir_4abd3b1ce7e6fd1c14d3fa34b06b5a7b -->
<g id="edge12" class="edge">
<title>dir_05bf879588c9184a91828995b7c287fd&#45;&gt;dir_4abd3b1ce7e6fd1c14d3fa34b06b5a7b</title>
<path fill="none" stroke="#63b8ff" d="M123.35,-164.51C185.61,-148.05 309.22,-111.32 331.5,-74 339.47,-60.64 341.23,-51.14 331.5,-39 319.2,-23.66 265.19,-16.04 231.38,-12.71"/>
<polygon fill="#63b8ff" stroke="#63b8ff" points="231.74,-9.23 221.46,-11.81 231.11,-16.2 231.74,-9.23"/>
<g id="a_edge12&#45;headlabel"><a xlink:href="dir_000118_000012.html" target="_top" xlink:title="1">
<text text-anchor="middle" x="234.07" y="-4.09" font-family="Helvetica,sans-Serif" font-size="10.00" fill="#63b8ff">1</text>
</a>
</g>
</g>
<!-- dir_05bf879588c9184a91828995b7c287fd&#45;&gt;dir_68267d1309a1af8e8297ef4c3efbcdba -->
<g id="edge7" class="edge">
<title>dir_05bf879588c9184a91828995b7c287fd&#45;&gt;dir_68267d1309a1af8e8297ef4c3efbcdba</title>
<path fill="none" stroke="#63b8ff" d="M87.77,-164.74C88.54,-139.53 90.79,-66.36 91.88,-30.62"/>
<polygon fill="#63b8ff" stroke="#63b8ff" points="95.38,-30.92 92.18,-20.82 88.38,-30.71 95.38,-30.92"/>
<g id="a_edge7&#45;headlabel"><a xlink:href="dir_000118_000153.html" target="_top" xlink:title="19">
<text text-anchor="middle" x="98.15" y="-30.59" font-family="Helvetica,sans-Serif" font-size="10.00" fill="#63b8ff">19</text>
</a>
</g>
</g>
<!-- dir_730e86da1a00f4cd5a8ebc1b01c8a81f -->
<g id="node10" class="node">
<title>dir_730e86da1a00f4cd5a8ebc1b01c8a81f</title>
<g id="a_node10"><a xlink:href="dir_730e86da1a00f4cd5a8ebc1b01c8a81f.html" target="_top" xlink:title="behavior">
<polygon fill="#edf0f7" stroke="red" stroke-dasharray="5,2" points="356,-19 303,-19 303,0 356,0 356,-19"/>
<text text-anchor="middle" x="329.5" y="-7" font-family="Helvetica,sans-Serif" font-size="10.00">behavior</text>
</a>
</g>
</g>
<!-- dir_05bf879588c9184a91828995b7c287fd&#45;&gt;dir_730e86da1a00f4cd5a8ebc1b01c8a81f -->
<g id="edge14" class="edge">
<title>dir_05bf879588c9184a91828995b7c287fd&#45;&gt;dir_730e86da1a00f4cd5a8ebc1b01c8a81f</title>
<path fill="none" stroke="#63b8ff" d="M126.84,-165.82C172.86,-156.52 246.02,-140.65 271.5,-129 309.75,-111.52 329.26,-111.39 348.5,-74 355.62,-60.17 353.01,-53.89 348.5,-39 347.43,-35.47 345.77,-31.98 343.86,-28.72"/>
<polygon fill="#63b8ff" stroke="#63b8ff" points="346.77,-26.77 338.21,-20.53 341.01,-30.75 346.77,-26.77"/>
<g id="a_edge14&#45;headlabel"><a xlink:href="dir_000118_000021.html" target="_top" xlink:title="4">
<text text-anchor="middle" x="350.29" y="-24.37" font-family="Helvetica,sans-Serif" font-size="10.00" fill="#63b8ff">4</text>
</a>
</g>
</g>
<!-- dir_05bf879588c9184a91828995b7c287fd&#45;&gt;dir_74d4e5f47262527cf6938c6017890522 -->
<g id="edge10" class="edge">
<title>dir_05bf879588c9184a91828995b7c287fd&#45;&gt;dir_74d4e5f47262527cf6938c6017890522</title>
<path fill="none" stroke="#63b8ff" d="M114.68,-164.6C138.02,-156.54 172.26,-143.7 200.5,-129 227.7,-114.85 256.78,-94.85 275.71,-81.1"/>
<polygon fill="#63b8ff" stroke="#63b8ff" points="277.67,-84 283.65,-75.26 273.52,-78.36 277.67,-84"/>
<g id="a_edge10&#45;headlabel"><a xlink:href="dir_000118_000117.html" target="_top" xlink:title="10">
<text text-anchor="middle" x="277.68" y="-85.02" font-family="Helvetica,sans-Serif" font-size="10.00" fill="#63b8ff">10</text>
</a>
</g>
</g>
<!-- dir_203de531cdb8dc5996b860069ca6d98e&#45;&gt;dir_18cb38c735f8a580e1e086510eb8c495 -->
<g id="edge15" class="edge">
<title>dir_203de531cdb8dc5996b860069ca6d98e&#45;&gt;dir_18cb38c735f8a580e1e086510eb8c495</title>
<path fill="none" stroke="#63b8ff" d="M126.4,-56.35C109.13,-48.18 80.46,-34.62 58.78,-24.35"/>
<polygon fill="#63b8ff" stroke="#63b8ff" points="60.38,-21.24 49.84,-20.13 57.38,-27.57 60.38,-21.24"/>
<g id="a_edge15&#45;headlabel"><a xlink:href="dir_000144_000119.html" target="_top" xlink:title="7">
<text text-anchor="middle" x="63.47" y="-17.06" font-family="Helvetica,sans-Serif" font-size="10.00" fill="#63b8ff">7</text>
</a>
</g>
</g>
<!-- dir_203de531cdb8dc5996b860069ca6d98e&#45;&gt;dir_4abd3b1ce7e6fd1c14d3fa34b06b5a7b -->
<g id="edge16" class="edge">
<title>dir_203de531cdb8dc5996b860069ca6d98e&#45;&gt;dir_4abd3b1ce7e6fd1c14d3fa34b06b5a7b</title>
<path fill="none" stroke="#63b8ff" d="M152.02,-54.51C160.89,-46.93 173.81,-35.88 184.49,-26.75"/>
<polygon fill="#63b8ff" stroke="#63b8ff" points="186.66,-29.5 191.99,-20.34 182.11,-24.18 186.66,-29.5"/>
<g id="a_edge16&#45;headlabel"><a xlink:href="dir_000144_000012.html" target="_top" xlink:title="3">
<text text-anchor="middle" x="186.92" y="-30.51" font-family="Helvetica,sans-Serif" font-size="10.00" fill="#63b8ff">3</text>
</a>
</g>
</g>
<!-- dir_203de531cdb8dc5996b860069ca6d98e&#45;&gt;dir_68267d1309a1af8e8297ef4c3efbcdba -->
<g id="edge17" class="edge">
<title>dir_203de531cdb8dc5996b860069ca6d98e&#45;&gt;dir_68267d1309a1af8e8297ef4c3efbcdba</title>
<path fill="none" stroke="#63b8ff" d="M133.41,-54.75C126.64,-47.43 116.78,-36.76 108.44,-27.74"/>
<polygon fill="#63b8ff" stroke="#63b8ff" points="111.15,-25.52 101.79,-20.55 106.01,-30.27 111.15,-25.52"/>
<g id="a_edge17&#45;headlabel"><a xlink:href="dir_000144_000153.html" target="_top" xlink:title="98">
<text text-anchor="middle" x="114.65" y="-22.62" font-family="Helvetica,sans-Serif" font-size="10.00" fill="#63b8ff">98</text>
</a>
</g>
</g>
<!-- dir_6e88b2e4d8b32e1638ce514da6209492 -->
<g id="node9" class="node">
<title>dir_6e88b2e4d8b32e1638ce514da6209492</title>
<g id="a_node9"><a xlink:href="dir_6e88b2e4d8b32e1638ce514da6209492.html" target="_top" xlink:title="debug">
<polygon fill="#edf0f7" stroke="red" stroke-dasharray="5,2" points="169,-19 126,-19 126,0 169,0 169,-19"/>
<text text-anchor="middle" x="147.5" y="-7" font-family="Helvetica,sans-Serif" font-size="10.00">debug</text>
</a>
</g>
</g>
<!-- dir_203de531cdb8dc5996b860069ca6d98e&#45;&gt;dir_6e88b2e4d8b32e1638ce514da6209492 -->
<g id="edge18" class="edge">
<title>dir_203de531cdb8dc5996b860069ca6d98e&#45;&gt;dir_6e88b2e4d8b32e1638ce514da6209492</title>
<path fill="none" stroke="#63b8ff" d="M142.49,-54.75C143.23,-48.19 144.28,-38.95 145.22,-30.6"/>
<polygon fill="#63b8ff" stroke="#63b8ff" points="148.67,-31.28 146.32,-20.95 141.71,-30.49 148.67,-31.28"/>
<g id="a_edge18&#45;headlabel"><a xlink:href="dir_000144_000035.html" target="_top" xlink:title="2">
<text text-anchor="middle" x="151.26" y="-31.16" font-family="Helvetica,sans-Serif" font-size="10.00" fill="#63b8ff">2</text>
</a>
</g>
</g>
<!-- dir_203de531cdb8dc5996b860069ca6d98e&#45;&gt;dir_730e86da1a00f4cd5a8ebc1b01c8a81f -->
<g id="edge19" class="edge">
<title>dir_203de531cdb8dc5996b860069ca6d98e&#45;&gt;dir_730e86da1a00f4cd5a8ebc1b01c8a81f</title>
<path fill="none" stroke="#63b8ff" d="M156.81,-56.69C169.21,-51.35 187.24,-44.02 203.5,-39 232.55,-30.03 266.15,-22.57 291.35,-17.54"/>
<polygon fill="#63b8ff" stroke="#63b8ff" points="292.01,-20.97 301.15,-15.62 290.67,-14.11 292.01,-20.97"/>
<g id="a_edge19&#45;headlabel"><a xlink:href="dir_000144_000021.html" target="_top" xlink:title="10">
<text text-anchor="middle" x="290.51" y="-21.66" font-family="Helvetica,sans-Serif" font-size="10.00" fill="#63b8ff">10</text>
</a>
</g>
</g>
</g>
</svg>
