<?xml version="1.0" encoding="UTF-8" standalone="no"?>
<!DOCTYPE svg PUBLIC "-//W3C//DTD SVG 1.1//EN"
 "http://www.w3.org/Graphics/SVG/1.1/DTD/svg11.dtd">
<!-- Generated by graphviz version 7.0.5 (20221223.1930)
 -->
<!-- Title: plugins/behavior/handler Pages: 1 -->
<svg width="352pt" height="141pt"
 viewBox="0.00 0.00 352.00 141.00" xmlns="http://www.w3.org/2000/svg" xmlns:xlink="http://www.w3.org/1999/xlink">
<g id="graph0" class="graph" transform="scale(1 1) rotate(0) translate(4 137)">
<title>plugins/behavior/handler</title>
<g id="clust1" class="cluster">
<title>clusterdir_730e86da1a00f4cd5a8ebc1b01c8a81f</title>
<g id="a_clust1"><a xlink:href="dir_730e86da1a00f4cd5a8ebc1b01c8a81f.html" target="_top" xlink:title="behavior">
<polygon fill="#edf0f7" stroke="#7f7f7f" stroke-dasharray="5,2" points="8,-8 8,-125 136,-125 136,-8 8,-8"/>
<text text-anchor="middle" x="72" y="-113" font-family="Helvetica,sans-Serif" font-size="10.00">behavior</text>
</a>
</g>
</g>
<g id="clust2" class="cluster">
<title>clusterdir_6fb9209fe66f35a5866cceefd38d56b2</title>
<g id="a_clust2"><a xlink:href="dir_6fb9209fe66f35a5866cceefd38d56b2.html" target="_top">
<polygon fill="#edf0f7" stroke="#404040" stroke-width="2" points="16,-63 16,-98 128,-98 128,-63 16,-63"/>
</a>
</g>
</g>
<!-- dir_fd844bac20a88d0c302e5ffc8d80306f -->
<g id="node1" class="node">
<title>dir_fd844bac20a88d0c302e5ffc8d80306f</title>
<g id="a_node1"><a xlink:href="dir_fd844bac20a88d0c302e5ffc8d80306f.html" target="_top" xlink:title="api">
<polygon fill="#a2b4d6" stroke="red" points="53.5,-35 24.5,-35 24.5,-16 53.5,-16 53.5,-35"/>
<text text-anchor="middle" x="39" y="-23" font-family="Helvetica,sans-Serif" font-size="10.00">api</text>
</a>
</g>
</g>
<!-- dir_6fb9209fe66f35a5866cceefd38d56b2 -->
<g id="node2" class="node">
<title>dir_6fb9209fe66f35a5866cceefd38d56b2</title>
<text text-anchor="middle" x="96" y="-78" font-family="Helvetica,sans-Serif" font-size="10.00">handler</text>
</g>
<!-- dir_295fb31b5173deeea481e7aff0859482 -->
<g id="node3" class="node">
<title>dir_295fb31b5173deeea481e7aff0859482</title>
<g id="a_node3"><a xlink:href="dir_295fb31b5173deeea481e7aff0859482.html" target="_top" xlink:title="src">
<polygon fill="#a2b4d6" stroke="#404040" points="54,-90 24,-90 24,-71 54,-71 54,-90"/>
<text text-anchor="middle" x="39" y="-78" font-family="Helvetica,sans-Serif" font-size="10.00">src</text>
</a>
</g>
</g>
<!-- dir_295fb31b5173deeea481e7aff0859482&#45;&gt;dir_fd844bac20a88d0c302e5ffc8d80306f -->
<g id="edge5" class="edge">
<title>dir_295fb31b5173deeea481e7aff0859482&#45;&gt;dir_fd844bac20a88d0c302e5ffc8d80306f</title>
<path fill="none" stroke="#63b8ff" d="M39,-70.75C39,-64.27 39,-55.16 39,-46.9"/>
<polygon fill="#63b8ff" stroke="#63b8ff" points="42.5,-46.96 39,-36.96 35.5,-46.96 42.5,-46.96"/>
<g id="a_edge5&#45;headlabel"><a xlink:href="dir_000139_000005.html" target="_top" xlink:title="1">
<text text-anchor="middle" x="45.34" y="-46.54" font-family="Helvetica,sans-Serif" font-size="10.00" fill="#63b8ff">1</text>
</a>
</g>
</g>
<!-- dir_1da05fa7afbe4395eeb05c97a448f57a -->
<g id="node4" class="node">
<title>dir_1da05fa7afbe4395eeb05c97a448f57a</title>
<g id="a_node4"><a xlink:href="dir_1da05fa7afbe4395eeb05c97a448f57a.html" target="_top" xlink:title="client">
<polygon fill="#edf0f7" stroke="red" stroke-dasharray="5,2" points="184,-35 144,-35 144,-16 184,-16 184,-35"/>
<text text-anchor="middle" x="164" y="-23" font-family="Helvetica,sans-Serif" font-size="10.00">client</text>
</a>
</g>
</g>
<!-- dir_295fb31b5173deeea481e7aff0859482&#45;&gt;dir_1da05fa7afbe4395eeb05c97a448f57a -->
<g id="edge1" class="edge">
<title>dir_295fb31b5173deeea481e7aff0859482&#45;&gt;dir_1da05fa7afbe4395eeb05c97a448f57a</title>
<path fill="none" stroke="#63b8ff" d="M50.35,-70.82C54.23,-68.09 58.68,-65.22 63,-63 66.29,-61.31 104.41,-47.65 132.86,-37.54"/>
<polygon fill="#63b8ff" stroke="#63b8ff" points="133.89,-40.89 142.14,-34.24 131.55,-34.29 133.89,-40.89"/>
<g id="a_edge1&#45;headlabel"><a xlink:href="dir_000139_000026.html" target="_top" xlink:title="3">
<text text-anchor="middle" x="132.88" y="-41.76" font-family="Helvetica,sans-Serif" font-size="10.00" fill="#63b8ff">3</text>
</a>
</g>
</g>
<!-- dir_68267d1309a1af8e8297ef4c3efbcdba -->
<g id="node5" class="node">
<title>dir_68267d1309a1af8e8297ef4c3efbcdba</title>
<g id="a_node5"><a xlink:href="dir_68267d1309a1af8e8297ef4c3efbcdba.html" target="_top" xlink:title="src">
<polygon fill="#edf0f7" stroke="red" points="232,-35 202,-35 202,-16 232,-16 232,-35"/>
<text text-anchor="middle" x="217" y="-23" font-family="Helvetica,sans-Serif" font-size="10.00">src</text>
</a>
</g>
</g>
<!-- dir_295fb31b5173deeea481e7aff0859482&#45;&gt;dir_68267d1309a1af8e8297ef4c3efbcdba -->
<g id="edge3" class="edge">
<title>dir_295fb31b5173deeea481e7aff0859482&#45;&gt;dir_68267d1309a1af8e8297ef4c3efbcdba</title>
<path fill="none" stroke="#63b8ff" d="M49.7,-70.82C53.68,-67.96 58.36,-65 63,-63 114.09,-40.96 133.81,-49.89 190.56,-35.29"/>
<polygon fill="#63b8ff" stroke="#63b8ff" points="191.41,-38.69 200.14,-32.68 189.57,-31.93 191.41,-38.69"/>
<g id="a_edge3&#45;headlabel"><a xlink:href="dir_000139_000153.html" target="_top" xlink:title="20">
<text text-anchor="middle" x="190.15" y="-39.47" font-family="Helvetica,sans-Serif" font-size="10.00" fill="#63b8ff">20</text>
</a>
</g>
</g>
<!-- dir_6e88b2e4d8b32e1638ce514da6209492 -->
<g id="node6" class="node">
<title>dir_6e88b2e4d8b32e1638ce514da6209492</title>
<g id="a_node6"><a xlink:href="dir_6e88b2e4d8b32e1638ce514da6209492.html" target="_top" xlink:title="debug">
<polygon fill="#edf0f7" stroke="red" stroke-dasharray="5,2" points="293.5,-35 250.5,-35 250.5,-16 293.5,-16 293.5,-35"/>
<text text-anchor="middle" x="272" y="-23" font-family="Helvetica,sans-Serif" font-size="10.00">debug</text>
</a>
</g>
</g>
<!-- dir_295fb31b5173deeea481e7aff0859482&#45;&gt;dir_6e88b2e4d8b32e1638ce514da6209492 -->
<g id="edge4" class="edge">
<title>dir_295fb31b5173deeea481e7aff0859482&#45;&gt;dir_6e88b2e4d8b32e1638ce514da6209492</title>
<path fill="none" stroke="#63b8ff" d="M49.64,-70.67C53.61,-67.8 58.3,-64.87 63,-63 134.2,-34.63 160.44,-50.34 239.13,-35.09"/>
<polygon fill="#63b8ff" stroke="#63b8ff" points="239.49,-38.59 248.58,-33.15 238.08,-31.73 239.49,-38.59"/>
<g id="a_edge4&#45;headlabel"><a xlink:href="dir_000139_000035.html" target="_top" xlink:title="2">
<text text-anchor="middle" x="238.02" y="-39.29" font-family="Helvetica,sans-Serif" font-size="10.00" fill="#63b8ff">2</text>
</a>
</g>
</g>
<!-- dir_4abd3b1ce7e6fd1c14d3fa34b06b5a7b -->
<g id="node7" class="node">
<title>dir_4abd3b1ce7e6fd1c14d3fa34b06b5a7b</title>
<g id="a_node7"><a xlink:href="dir_4abd3b1ce7e6fd1c14d3fa34b06b5a7b.html" target="_top" xlink:title="app">
<polygon fill="#edf0f7" stroke="red" stroke-dasharray="5,2" points="344,-35 312,-35 312,-16 344,-16 344,-35"/>
<text text-anchor="middle" x="328" y="-23" font-family="Helvetica,sans-Serif" font-size="10.00">app</text>
</a>
</g>
</g>
<!-- dir_295fb31b5173deeea481e7aff0859482&#45;&gt;dir_4abd3b1ce7e6fd1c14d3fa34b06b5a7b -->
<g id="edge2" class="edge">
<title>dir_295fb31b5173deeea481e7aff0859482&#45;&gt;dir_4abd3b1ce7e6fd1c14d3fa34b06b5a7b</title>
<path fill="none" stroke="#63b8ff" d="M49.6,-70.57C53.57,-67.68 58.27,-64.78 63,-63 160.2,-26.5 195.87,-56.5 300.69,-34.99"/>
<polygon fill="#63b8ff" stroke="#63b8ff" points="301.23,-38.45 310.26,-32.9 299.74,-31.61 301.23,-38.45"/>
<g id="a_edge2&#45;headlabel"><a xlink:href="dir_000139_000012.html" target="_top" xlink:title="1">
<text text-anchor="middle" x="299.8" y="-39.17" font-family="Helvetica,sans-Serif" font-size="10.00" fill="#63b8ff">1</text>
</a>
</g>
</g>
</g>
</svg>
