<?xml version="1.0" encoding="UTF-8" standalone="no"?>
<!DOCTYPE svg PUBLIC "-//W3C//DTD SVG 1.1//EN"
 "http://www.w3.org/Graphics/SVG/1.1/DTD/svg11.dtd">
<!-- Generated by graphviz version 7.0.5 (20221223.1930)
 -->
<!-- Title: src/Meta/serialize/streams Pages: 1 -->
<svg width="214pt" height="133pt"
 viewBox="0.00 0.00 214.00 133.00" xmlns="http://www.w3.org/2000/svg" xmlns:xlink="http://www.w3.org/1999/xlink">
<g id="graph0" class="graph" transform="scale(1 1) rotate(0) translate(4 129)">
<title>src/Meta/serialize/streams</title>
<g id="clust1" class="cluster">
<title>clusterdir_dc74b7af8b93dd978acec3749eb614d8</title>
<g id="a_clust1"><a xlink:href="dir_dc74b7af8b93dd978acec3749eb614d8.html" target="_top" xlink:title="serialize">
<polygon fill="#edf0f7" stroke="#7f7f7f" stroke-dasharray="5,2" points="8,-8 8,-117 80,-117 80,-8 8,-8"/>
<text text-anchor="middle" x="44" y="-105" font-family="Helvetica,sans-Serif" font-size="10.00">serialize</text>
</a>
</g>
</g>
<!-- dir_aa0142b4c7fb2da23a3a7d8d6bf1991b -->
<g id="node1" class="node">
<title>dir_aa0142b4c7fb2da23a3a7d8d6bf1991b</title>
<g id="a_node1"><a xlink:href="dir_aa0142b4c7fb2da23a3a7d8d6bf1991b.html" target="_top" xlink:title="hierarchy">
<polygon fill="#a2b4d6" stroke="#404040" points="72,-35 16,-35 16,-16 72,-16 72,-35"/>
<text text-anchor="middle" x="44" y="-23" font-family="Helvetica,sans-Serif" font-size="10.00">hierarchy</text>
</a>
</g>
</g>
<!-- dir_a11de37cc423d9719832fdeaf5bba7ac -->
<g id="node2" class="node">
<title>dir_a11de37cc423d9719832fdeaf5bba7ac</title>
<g id="a_node2"><a xlink:href="dir_a11de37cc423d9719832fdeaf5bba7ac.html" target="_top" xlink:title="streams">
<polygon fill="#edf0f7" stroke="#404040" stroke-width="2" points="72,-90 20,-90 20,-71 72,-71 72,-90"/>
<text text-anchor="middle" x="46" y="-78" font-family="Helvetica,sans-Serif" font-size="10.00">streams</text>
</a>
</g>
</g>
<!-- dir_a11de37cc423d9719832fdeaf5bba7ac&#45;&gt;dir_aa0142b4c7fb2da23a3a7d8d6bf1991b -->
<g id="edge2" class="edge">
<title>dir_a11de37cc423d9719832fdeaf5bba7ac&#45;&gt;dir_aa0142b4c7fb2da23a3a7d8d6bf1991b</title>
<path fill="none" stroke="#63b8ff" d="M45.67,-70.75C45.43,-64.27 45.08,-55.16 44.77,-46.9"/>
<polygon fill="#63b8ff" stroke="#63b8ff" points="48.27,-46.82 44.39,-36.95 41.27,-47.08 48.27,-46.82"/>
<g id="a_edge2&#45;headlabel"><a xlink:href="dir_000154_000056.html" target="_top" xlink:title="4">
<text text-anchor="middle" x="51.18" y="-46.29" font-family="Helvetica,sans-Serif" font-size="10.00" fill="#63b8ff">4</text>
</a>
</g>
</g>
<!-- dir_908ca8dc7b56b79ceb98e52b6f721797 -->
<g id="node3" class="node">
<title>dir_908ca8dc7b56b79ceb98e52b6f721797</title>
<g id="a_node3"><a xlink:href="dir_908ca8dc7b56b79ceb98e52b6f721797.html" target="_top" xlink:title="base64">
<polygon fill="#edf0f7" stroke="#7f7f7f" points="138,-35 90,-35 90,-16 138,-16 138,-35"/>
<text text-anchor="middle" x="114" y="-23" font-family="Helvetica,sans-Serif" font-size="10.00">base64</text>
</a>
</g>
</g>
<!-- dir_a11de37cc423d9719832fdeaf5bba7ac&#45;&gt;dir_908ca8dc7b56b79ceb98e52b6f721797 -->
<g id="edge1" class="edge">
<title>dir_a11de37cc423d9719832fdeaf5bba7ac&#45;&gt;dir_908ca8dc7b56b79ceb98e52b6f721797</title>
<path fill="none" stroke="#63b8ff" d="M57.54,-70.51C67.46,-62.77 82.01,-51.43 93.86,-42.2"/>
<polygon fill="#63b8ff" stroke="#63b8ff" points="95.71,-45.2 101.44,-36.29 91.4,-39.68 95.71,-45.2"/>
<g id="a_edge1&#45;headlabel"><a xlink:href="dir_000154_000020.html" target="_top" xlink:title="1">
<text text-anchor="middle" x="95.81" y="-46.22" font-family="Helvetica,sans-Serif" font-size="10.00" fill="#63b8ff">1</text>
</a>
</g>
</g>
<!-- dir_b37d33ceb7f5c107fb027d4db224bc89 -->
<g id="node4" class="node">
<title>dir_b37d33ceb7f5c107fb027d4db224bc89</title>
<g id="a_node4"><a xlink:href="dir_b37d33ceb7f5c107fb027d4db224bc89.html" target="_top" xlink:title="Generic">
<polygon fill="#edf0f7" stroke="red" stroke-dasharray="5,2" points="206,-35 156,-35 156,-16 206,-16 206,-35"/>
<text text-anchor="middle" x="181" y="-23" font-family="Helvetica,sans-Serif" font-size="10.00">Generic</text>
</a>
</g>
</g>
<!-- dir_a11de37cc423d9719832fdeaf5bba7ac&#45;&gt;dir_b37d33ceb7f5c107fb027d4db224bc89 -->
<g id="edge3" class="edge">
<title>dir_a11de37cc423d9719832fdeaf5bba7ac&#45;&gt;dir_b37d33ceb7f5c107fb027d4db224bc89</title>
<path fill="none" stroke="#63b8ff" d="M68.9,-70.51C90.56,-62.01 123.31,-49.15 147.82,-39.53"/>
<polygon fill="#63b8ff" stroke="#63b8ff" points="149,-42.82 157.03,-35.91 146.44,-36.31 149,-42.82"/>
<g id="a_edge3&#45;headlabel"><a xlink:href="dir_000154_000049.html" target="_top" xlink:title="8">
<text text-anchor="middle" x="148.1" y="-43.73" font-family="Helvetica,sans-Serif" font-size="10.00" fill="#63b8ff">8</text>
</a>
</g>
</g>
</g>
</svg>
