<?xml version="1.0" encoding="UTF-8" standalone="no"?>
<!DOCTYPE svg PUBLIC "-//W3C//DTD SVG 1.1//EN"
 "http://www.w3.org/Graphics/SVG/1.1/DTD/svg11.dtd">
<!-- Generated by graphviz version 7.0.5 (20221223.1930)
 -->
<!-- Title: plugins/behavior/nodegraph/src/Madgine/nodegraph/nodes Pages: 1 -->
<svg width="147pt" height="180pt"
 viewBox="0.00 0.00 146.50 180.00" xmlns="http://www.w3.org/2000/svg" xmlns:xlink="http://www.w3.org/1999/xlink">
<g id="graph0" class="graph" transform="scale(1 1) rotate(0) translate(4 176)">
<title>plugins/behavior/nodegraph/src/Madgine/nodegraph/nodes</title>
<g id="clust1" class="cluster">
<title>clusterdir_4699e983506933b945fa2f69ce6eb295</title>
<g id="a_clust1"><a xlink:href="dir_4699e983506933b945fa2f69ce6eb295.html" target="_top" xlink:title="nodegraph">
<polygon fill="#edf0f7" stroke="#7f7f7f" stroke-dasharray="5,2" points="20,-39 20,-164 96,-164 96,-39 20,-39"/>
<text text-anchor="middle" x="58" y="-152" font-family="Helvetica,sans-Serif" font-size="10.00">nodegraph</text>
</a>
</g>
</g>
<g id="clust2" class="cluster">
<title>clusterdir_12f4d6aad87753f2e37c21c12f9f24a8</title>
<g id="a_clust2"><a xlink:href="dir_12f4d6aad87753f2e37c21c12f9f24a8.html" target="_top">
<polygon fill="#edf0f7" stroke="#404040" stroke-width="2" points="28,-47 28,-137 88,-137 88,-47 28,-47"/>
</a>
</g>
</g>
<!-- dir_12f4d6aad87753f2e37c21c12f9f24a8 -->
<g id="node1" class="node">
<title>dir_12f4d6aad87753f2e37c21c12f9f24a8</title>
<text text-anchor="middle" x="58" y="-117" font-family="Helvetica,sans-Serif" font-size="10.00">nodes</text>
</g>
<!-- dir_6f7fa3b14d70f160d59d706bf8a050f2 -->
<g id="node2" class="node">
<title>dir_6f7fa3b14d70f160d59d706bf8a050f2</title>
<g id="a_node2"><a xlink:href="dir_6f7fa3b14d70f160d59d706bf8a050f2.html" target="_top" xlink:title="util">
<polygon fill="#a2b4d6" stroke="#404040" points="75.5,-74 46.5,-74 46.5,-55 75.5,-55 75.5,-74"/>
<text text-anchor="middle" x="61" y="-62" font-family="Helvetica,sans-Serif" font-size="10.00">util</text>
</a>
</g>
</g>
<!-- dir_12f4d6aad87753f2e37c21c12f9f24a8&#45;&gt;dir_6f7fa3b14d70f160d59d706bf8a050f2 -->
<g id="edge2" class="edge">
<title>dir_12f4d6aad87753f2e37c21c12f9f24a8&#45;&gt;dir_6f7fa3b14d70f160d59d706bf8a050f2</title>
<path fill="none" stroke="#63b8ff" d="M58.47,-110.22C58.84,-103.65 59.38,-94.18 59.86,-85.64"/>
<polygon fill="#63b8ff" stroke="#63b8ff" points="63.35,-85.94 60.42,-75.76 56.36,-85.55 63.35,-85.94"/>
<g id="a_edge2&#45;headlabel"><a xlink:href="dir_000102_000161.html" target="_top" xlink:title="3">
<text text-anchor="middle" x="66.07" y="-85.68" font-family="Helvetica,sans-Serif" font-size="10.00" fill="#63b8ff">3</text>
</a>
</g>
</g>
<!-- dir_68267d1309a1af8e8297ef4c3efbcdba -->
<g id="node3" class="node">
<title>dir_68267d1309a1af8e8297ef4c3efbcdba</title>
<g id="a_node3"><a xlink:href="dir_68267d1309a1af8e8297ef4c3efbcdba.html" target="_top" xlink:title="src">
<polygon fill="#edf0f7" stroke="red" points="30,-19 0,-19 0,0 30,0 30,-19"/>
<text text-anchor="middle" x="15" y="-7" font-family="Helvetica,sans-Serif" font-size="10.00">src</text>
</a>
</g>
</g>
<!-- dir_12f4d6aad87753f2e37c21c12f9f24a8&#45;&gt;dir_68267d1309a1af8e8297ef4c3efbcdba -->
<g id="edge1" class="edge">
<title>dir_12f4d6aad87753f2e37c21c12f9f24a8&#45;&gt;dir_68267d1309a1af8e8297ef4c3efbcdba</title>
<path fill="none" stroke="#63b8ff" d="M53.97,-110.05C49.79,-101.16 43.15,-86.72 38,-74 32.06,-59.34 25.99,-42.5 21.58,-29.85"/>
<polygon fill="#63b8ff" stroke="#63b8ff" points="24.98,-28.95 18.41,-20.64 18.36,-31.23 24.98,-28.95"/>
<g id="a_edge1&#45;headlabel"><a xlink:href="dir_000102_000153.html" target="_top" xlink:title="32">
<text text-anchor="middle" x="28.34" y="-27.5" font-family="Helvetica,sans-Serif" font-size="10.00" fill="#63b8ff">32</text>
</a>
</g>
</g>
<!-- dir_6f7fa3b14d70f160d59d706bf8a050f2&#45;&gt;dir_68267d1309a1af8e8297ef4c3efbcdba -->
<g id="edge3" class="edge">
<title>dir_6f7fa3b14d70f160d59d706bf8a050f2&#45;&gt;dir_68267d1309a1af8e8297ef4c3efbcdba</title>
<path fill="none" stroke="#63b8ff" d="M53.4,-54.75C47.12,-47.5 37.99,-36.98 30.2,-28.02"/>
<polygon fill="#63b8ff" stroke="#63b8ff" points="32.95,-25.84 23.75,-20.59 27.66,-30.43 32.95,-25.84"/>
<g id="a_edge3&#45;headlabel"><a xlink:href="dir_000161_000153.html" target="_top" xlink:title="15">
<text text-anchor="middle" x="36.46" y="-23.05" font-family="Helvetica,sans-Serif" font-size="10.00" fill="#63b8ff">15</text>
</a>
</g>
</g>
<!-- dir_fd844bac20a88d0c302e5ffc8d80306f -->
<g id="node4" class="node">
<title>dir_fd844bac20a88d0c302e5ffc8d80306f</title>
<g id="a_node4"><a xlink:href="dir_fd844bac20a88d0c302e5ffc8d80306f.html" target="_top" xlink:title="api">
<polygon fill="#edf0f7" stroke="red" stroke-dasharray="5,2" points="77.5,-19 48.5,-19 48.5,0 77.5,0 77.5,-19"/>
<text text-anchor="middle" x="63" y="-7" font-family="Helvetica,sans-Serif" font-size="10.00">api</text>
</a>
</g>
</g>
<!-- dir_6f7fa3b14d70f160d59d706bf8a050f2&#45;&gt;dir_fd844bac20a88d0c302e5ffc8d80306f -->
<g id="edge5" class="edge">
<title>dir_6f7fa3b14d70f160d59d706bf8a050f2&#45;&gt;dir_fd844bac20a88d0c302e5ffc8d80306f</title>
<path fill="none" stroke="#63b8ff" d="M61.33,-54.75C61.57,-48.27 61.92,-39.16 62.23,-30.9"/>
<polygon fill="#63b8ff" stroke="#63b8ff" points="65.73,-31.08 62.61,-20.95 58.73,-30.82 65.73,-31.08"/>
<g id="a_edge5&#45;headlabel"><a xlink:href="dir_000161_000005.html" target="_top" xlink:title="3">
<text text-anchor="middle" x="68.48" y="-30.77" font-family="Helvetica,sans-Serif" font-size="10.00" fill="#63b8ff">3</text>
</a>
</g>
</g>
<!-- dir_6e88b2e4d8b32e1638ce514da6209492 -->
<g id="node5" class="node">
<title>dir_6e88b2e4d8b32e1638ce514da6209492</title>
<g id="a_node5"><a xlink:href="dir_6e88b2e4d8b32e1638ce514da6209492.html" target="_top" xlink:title="debug">
<polygon fill="#edf0f7" stroke="red" stroke-dasharray="5,2" points="138.5,-19 95.5,-19 95.5,0 138.5,0 138.5,-19"/>
<text text-anchor="middle" x="117" y="-7" font-family="Helvetica,sans-Serif" font-size="10.00">debug</text>
</a>
</g>
</g>
<!-- dir_6f7fa3b14d70f160d59d706bf8a050f2&#45;&gt;dir_6e88b2e4d8b32e1638ce514da6209492 -->
<g id="edge4" class="edge">
<title>dir_6f7fa3b14d70f160d59d706bf8a050f2&#45;&gt;dir_6e88b2e4d8b32e1638ce514da6209492</title>
<path fill="none" stroke="#63b8ff" d="M70.5,-54.51C78.43,-47 89.95,-36.1 99.54,-27.03"/>
<polygon fill="#63b8ff" stroke="#63b8ff" points="101.68,-29.81 106.54,-20.4 96.87,-24.73 101.68,-29.81"/>
<g id="a_edge4&#45;headlabel"><a xlink:href="dir_000161_000035.html" target="_top" xlink:title="1">
<text text-anchor="middle" x="102.12" y="-30.81" font-family="Helvetica,sans-Serif" font-size="10.00" fill="#63b8ff">1</text>
</a>
</g>
</g>
</g>
</svg>
