<?xml version="1.0" encoding="UTF-8" standalone="no"?>
<!DOCTYPE svg PUBLIC "-//W3C//DTD SVG 1.1//EN"
 "http://www.w3.org/Graphics/SVG/1.1/DTD/svg11.dtd">
<!-- Generated by graphviz version 7.0.5 (20221223.1930)
 -->
<!-- Title: plugins/misc/scene/renderer_tools/Madgine_Tools/sceneeditor Pages: 1 -->
<svg width="484pt" height="117pt"
 viewBox="0.00 0.00 483.50 117.00" xmlns="http://www.w3.org/2000/svg" xmlns:xlink="http://www.w3.org/1999/xlink">
<g id="graph0" class="graph" transform="scale(1 1) rotate(0) translate(4 113)">
<title>plugins/misc/scene/renderer_tools/Madgine_Tools/sceneeditor</title>
<g id="clust1" class="cluster">
<title>clusterdir_79b5c2fb7a660a91deecc23feab9a094</title>
<g id="a_clust1"><a xlink:href="dir_79b5c2fb7a660a91deecc23feab9a094.html" target="_top" xlink:title="Madgine_Tools">
<polygon fill="#edf0f7" stroke="#7f7f7f" stroke-dasharray="5,2" points="181.5,-47 181.5,-101 265.5,-101 265.5,-47 181.5,-47"/>
<text text-anchor="middle" x="223.5" y="-89" font-family="Helvetica,sans-Serif" font-size="10.00">Madgine_Tools</text>
</a>
</g>
</g>
<!-- dir_c1da87bd407e5d2eabff1539a14ed801 -->
<g id="node1" class="node">
<title>dir_c1da87bd407e5d2eabff1539a14ed801</title>
<g id="a_node1"><a xlink:href="dir_c1da87bd407e5d2eabff1539a14ed801.html" target="_top" xlink:title="sceneeditor">
<polygon fill="#edf0f7" stroke="#404040" stroke-width="2" points="257,-74 190,-74 190,-55 257,-55 257,-74"/>
<text text-anchor="middle" x="223.5" y="-62" font-family="Helvetica,sans-Serif" font-size="10.00">sceneeditor</text>
</a>
</g>
</g>
<!-- dir_18cb38c735f8a580e1e086510eb8c495 -->
<g id="node2" class="node">
<title>dir_18cb38c735f8a580e1e086510eb8c495</title>
<g id="a_node2"><a xlink:href="dir_18cb38c735f8a580e1e086510eb8c495.html" target="_top" xlink:title="resources">
<polygon fill="#edf0f7" stroke="red" stroke-dasharray="5,2" points="59,-19 0,-19 0,0 59,0 59,-19"/>
<text text-anchor="middle" x="29.5" y="-7" font-family="Helvetica,sans-Serif" font-size="10.00">resources</text>
</a>
</g>
</g>
<!-- dir_c1da87bd407e5d2eabff1539a14ed801&#45;&gt;dir_18cb38c735f8a580e1e086510eb8c495 -->
<g id="edge1" class="edge">
<title>dir_c1da87bd407e5d2eabff1539a14ed801&#45;&gt;dir_18cb38c735f8a580e1e086510eb8c495</title>
<path fill="none" stroke="#63b8ff" d="M190.59,-54.51C157.42,-45.45 106.17,-31.44 70.4,-21.67"/>
<polygon fill="#63b8ff" stroke="#63b8ff" points="71.41,-18.32 60.84,-19.06 69.56,-25.07 71.41,-18.32"/>
<g id="a_edge1&#45;headlabel"><a xlink:href="dir_000125_000119.html" target="_top" xlink:title="3">
<text text-anchor="middle" x="74.17" y="-13.63" font-family="Helvetica,sans-Serif" font-size="10.00" fill="#63b8ff">3</text>
</a>
</g>
</g>
<!-- dir_1da05fa7afbe4395eeb05c97a448f57a -->
<g id="node3" class="node">
<title>dir_1da05fa7afbe4395eeb05c97a448f57a</title>
<g id="a_node3"><a xlink:href="dir_1da05fa7afbe4395eeb05c97a448f57a.html" target="_top" xlink:title="client">
<polygon fill="#edf0f7" stroke="red" stroke-dasharray="5,2" points="117.5,-19 77.5,-19 77.5,0 117.5,0 117.5,-19"/>
<text text-anchor="middle" x="97.5" y="-7" font-family="Helvetica,sans-Serif" font-size="10.00">client</text>
</a>
</g>
</g>
<!-- dir_c1da87bd407e5d2eabff1539a14ed801&#45;&gt;dir_1da05fa7afbe4395eeb05c97a448f57a -->
<g id="edge2" class="edge">
<title>dir_c1da87bd407e5d2eabff1539a14ed801&#45;&gt;dir_1da05fa7afbe4395eeb05c97a448f57a</title>
<path fill="none" stroke="#63b8ff" d="M202.13,-54.51C181.85,-45.98 151.17,-33.08 128.27,-23.44"/>
<polygon fill="#63b8ff" stroke="#63b8ff" points="129.7,-20.25 119.12,-19.59 126.98,-26.7 129.7,-20.25"/>
<g id="a_edge2&#45;headlabel"><a xlink:href="dir_000125_000026.html" target="_top" xlink:title="2">
<text text-anchor="middle" x="132.72" y="-15.94" font-family="Helvetica,sans-Serif" font-size="10.00" fill="#63b8ff">2</text>
</a>
</g>
</g>
<!-- dir_203de531cdb8dc5996b860069ca6d98e -->
<g id="node4" class="node">
<title>dir_203de531cdb8dc5996b860069ca6d98e</title>
<g id="a_node4"><a xlink:href="dir_203de531cdb8dc5996b860069ca6d98e.html" target="_top" xlink:title="src">
<polygon fill="#edf0f7" stroke="red" stroke-dasharray="5,2" points="165.5,-19 135.5,-19 135.5,0 165.5,0 165.5,-19"/>
<text text-anchor="middle" x="150.5" y="-7" font-family="Helvetica,sans-Serif" font-size="10.00">src</text>
</a>
</g>
</g>
<!-- dir_c1da87bd407e5d2eabff1539a14ed801&#45;&gt;dir_203de531cdb8dc5996b860069ca6d98e -->
<g id="edge3" class="edge">
<title>dir_c1da87bd407e5d2eabff1539a14ed801&#45;&gt;dir_203de531cdb8dc5996b860069ca6d98e</title>
<path fill="none" stroke="#63b8ff" d="M211.12,-54.51C200.35,-46.7 184.53,-35.21 171.75,-25.93"/>
<polygon fill="#63b8ff" stroke="#63b8ff" points="174.07,-23.29 163.93,-20.25 169.96,-28.95 174.07,-23.29"/>
<g id="a_edge3&#45;headlabel"><a xlink:href="dir_000125_000144.html" target="_top" xlink:title="13">
<text text-anchor="middle" x="177.43" y="-19.72" font-family="Helvetica,sans-Serif" font-size="10.00" fill="#63b8ff">13</text>
</a>
</g>
</g>
<!-- dir_4abd3b1ce7e6fd1c14d3fa34b06b5a7b -->
<g id="node5" class="node">
<title>dir_4abd3b1ce7e6fd1c14d3fa34b06b5a7b</title>
<g id="a_node5"><a xlink:href="dir_4abd3b1ce7e6fd1c14d3fa34b06b5a7b.html" target="_top" xlink:title="app">
<polygon fill="#edf0f7" stroke="red" stroke-dasharray="5,2" points="215.5,-19 183.5,-19 183.5,0 215.5,0 215.5,-19"/>
<text text-anchor="middle" x="199.5" y="-7" font-family="Helvetica,sans-Serif" font-size="10.00">app</text>
</a>
</g>
</g>
<!-- dir_c1da87bd407e5d2eabff1539a14ed801&#45;&gt;dir_4abd3b1ce7e6fd1c14d3fa34b06b5a7b -->
<g id="edge4" class="edge">
<title>dir_c1da87bd407e5d2eabff1539a14ed801&#45;&gt;dir_4abd3b1ce7e6fd1c14d3fa34b06b5a7b</title>
<path fill="none" stroke="#63b8ff" d="M219.54,-54.75C216.46,-47.96 212.09,-38.3 208.21,-29.73"/>
<polygon fill="#63b8ff" stroke="#63b8ff" points="211.49,-28.49 204.17,-20.82 205.11,-31.37 211.49,-28.49"/>
<g id="a_edge4&#45;headlabel"><a xlink:href="dir_000125_000012.html" target="_top" xlink:title="1">
<text text-anchor="middle" x="214.93" y="-26.71" font-family="Helvetica,sans-Serif" font-size="10.00" fill="#63b8ff">1</text>
</a>
</g>
</g>
<!-- dir_68267d1309a1af8e8297ef4c3efbcdba -->
<g id="node6" class="node">
<title>dir_68267d1309a1af8e8297ef4c3efbcdba</title>
<g id="a_node6"><a xlink:href="dir_68267d1309a1af8e8297ef4c3efbcdba.html" target="_top" xlink:title="src">
<polygon fill="#edf0f7" stroke="red" points="263.5,-19 233.5,-19 233.5,0 263.5,0 263.5,-19"/>
<text text-anchor="middle" x="248.5" y="-7" font-family="Helvetica,sans-Serif" font-size="10.00">src</text>
</a>
</g>
</g>
<!-- dir_c1da87bd407e5d2eabff1539a14ed801&#45;&gt;dir_68267d1309a1af8e8297ef4c3efbcdba -->
<g id="edge5" class="edge">
<title>dir_c1da87bd407e5d2eabff1539a14ed801&#45;&gt;dir_68267d1309a1af8e8297ef4c3efbcdba</title>
<path fill="none" stroke="#63b8ff" d="M227.63,-54.75C230.83,-47.96 235.39,-38.3 239.43,-29.73"/>
<polygon fill="#63b8ff" stroke="#63b8ff" points="242.54,-31.35 243.64,-20.81 236.2,-28.36 242.54,-31.35"/>
<g id="a_edge5&#45;headlabel"><a xlink:href="dir_000125_000153.html" target="_top" xlink:title="17">
<text text-anchor="middle" x="244.22" y="-31.94" font-family="Helvetica,sans-Serif" font-size="10.00" fill="#63b8ff">17</text>
</a>
</g>
</g>
<!-- dir_730e86da1a00f4cd5a8ebc1b01c8a81f -->
<g id="node7" class="node">
<title>dir_730e86da1a00f4cd5a8ebc1b01c8a81f</title>
<g id="a_node7"><a xlink:href="dir_730e86da1a00f4cd5a8ebc1b01c8a81f.html" target="_top" xlink:title="behavior">
<polygon fill="#edf0f7" stroke="red" stroke-dasharray="5,2" points="335,-19 282,-19 282,0 335,0 335,-19"/>
<text text-anchor="middle" x="308.5" y="-7" font-family="Helvetica,sans-Serif" font-size="10.00">behavior</text>
</a>
</g>
</g>
<!-- dir_c1da87bd407e5d2eabff1539a14ed801&#45;&gt;dir_730e86da1a00f4cd5a8ebc1b01c8a81f -->
<g id="edge6" class="edge">
<title>dir_c1da87bd407e5d2eabff1539a14ed801&#45;&gt;dir_730e86da1a00f4cd5a8ebc1b01c8a81f</title>
<path fill="none" stroke="#63b8ff" d="M237.92,-54.51C250.7,-46.54 269.6,-34.75 284.63,-25.38"/>
<polygon fill="#63b8ff" stroke="#63b8ff" points="286.38,-28.42 293.01,-20.16 282.67,-22.48 286.38,-28.42"/>
<g id="a_edge6&#45;headlabel"><a xlink:href="dir_000125_000021.html" target="_top" xlink:title="4">
<text text-anchor="middle" x="286.11" y="-29.43" font-family="Helvetica,sans-Serif" font-size="10.00" fill="#63b8ff">4</text>
</a>
</g>
</g>
<!-- dir_74d4e5f47262527cf6938c6017890522 -->
<g id="node8" class="node">
<title>dir_74d4e5f47262527cf6938c6017890522</title>
<g id="a_node8"><a xlink:href="dir_74d4e5f47262527cf6938c6017890522.html" target="_top" xlink:title="renderer">
<polygon fill="#edf0f7" stroke="red" stroke-dasharray="5,2" points="405.5,-19 353.5,-19 353.5,0 405.5,0 405.5,-19"/>
<text text-anchor="middle" x="379.5" y="-7" font-family="Helvetica,sans-Serif" font-size="10.00">renderer</text>
</a>
</g>
</g>
<!-- dir_c1da87bd407e5d2eabff1539a14ed801&#45;&gt;dir_74d4e5f47262527cf6938c6017890522 -->
<g id="edge7" class="edge">
<title>dir_c1da87bd407e5d2eabff1539a14ed801&#45;&gt;dir_74d4e5f47262527cf6938c6017890522</title>
<path fill="none" stroke="#63b8ff" d="M249.96,-54.51C275.36,-45.88 313.97,-32.76 342.42,-23.1"/>
<polygon fill="#63b8ff" stroke="#63b8ff" points="343.39,-26.46 351.73,-19.93 341.14,-19.84 343.39,-26.46"/>
<g id="a_edge7&#45;headlabel"><a xlink:href="dir_000125_000117.html" target="_top" xlink:title="10">
<text text-anchor="middle" x="342.33" y="-27.32" font-family="Helvetica,sans-Serif" font-size="10.00" fill="#63b8ff">10</text>
</a>
</g>
</g>
<!-- dir_c2fed6526e181bdb4377f81967619a80 -->
<g id="node9" class="node">
<title>dir_c2fed6526e181bdb4377f81967619a80</title>
<g id="a_node9"><a xlink:href="dir_c2fed6526e181bdb4377f81967619a80.html" target="_top" xlink:title="renderer">
<polygon fill="#edf0f7" stroke="red" stroke-dasharray="5,2" points="475.5,-19 423.5,-19 423.5,0 475.5,0 475.5,-19"/>
<text text-anchor="middle" x="449.5" y="-7" font-family="Helvetica,sans-Serif" font-size="10.00">renderer</text>
</a>
</g>
</g>
<!-- dir_c1da87bd407e5d2eabff1539a14ed801&#45;&gt;dir_c2fed6526e181bdb4377f81967619a80 -->
<g id="edge8" class="edge">
<title>dir_c1da87bd407e5d2eabff1539a14ed801&#45;&gt;dir_c2fed6526e181bdb4377f81967619a80</title>
<path fill="none" stroke="#63b8ff" d="M257.33,-55.72C293.29,-47.43 352.11,-33.8 411.95,-19.59"/>
<polygon fill="#63b8ff" stroke="#63b8ff" points="412.74,-23 421.66,-17.28 411.12,-16.19 412.74,-23"/>
<g id="a_edge8&#45;headlabel"><a xlink:href="dir_000125_000116.html" target="_top" xlink:title="2">
<text text-anchor="middle" x="411.37" y="-23.74" font-family="Helvetica,sans-Serif" font-size="10.00" fill="#63b8ff">2</text>
</a>
</g>
</g>
</g>
</svg>
