<?xml version="1.0" encoding="UTF-8" standalone="no"?>
<!DOCTYPE svg PUBLIC "-//W3C//DTD SVG 1.1//EN"
 "http://www.w3.org/Graphics/SVG/1.1/DTD/svg11.dtd">
<!-- Generated by graphviz version 7.0.5 (20221223.1930)
 -->
<!-- Title: plugins/misc/widgets Pages: 1 -->
<svg width="377pt" height="180pt"
 viewBox="0.00 0.00 376.50 180.00" xmlns="http://www.w3.org/2000/svg" xmlns:xlink="http://www.w3.org/1999/xlink">
<g id="graph0" class="graph" transform="scale(1 1) rotate(0) translate(4 176)">
<title>plugins/misc/widgets</title>
<g id="clust1" class="cluster">
<title>clusterdir_5cf1fb433efe8c2c59502b29665893a0</title>
<g id="a_clust1"><a xlink:href="dir_5cf1fb433efe8c2c59502b29665893a0.html" target="_top" xlink:title="misc">
<polygon fill="#edf0f7" stroke="#7f7f7f" stroke-dasharray="5,2" points="65,-39 65,-164 213,-164 213,-39 65,-39"/>
<text text-anchor="middle" x="139" y="-152" font-family="Helvetica,sans-Serif" font-size="10.00">misc</text>
</a>
</g>
</g>
<g id="clust2" class="cluster">
<title>clusterdir_f51fd49331a1a09f44636a108d128678</title>
<g id="a_clust2"><a xlink:href="dir_f51fd49331a1a09f44636a108d128678.html" target="_top">
<polygon fill="#edf0f7" stroke="#404040" stroke-width="2" points="73,-47 73,-137 205,-137 205,-47 73,-47"/>
</a>
</g>
</g>
<!-- dir_f51fd49331a1a09f44636a108d128678 -->
<g id="node1" class="node">
<title>dir_f51fd49331a1a09f44636a108d128678</title>
<text text-anchor="middle" x="172" y="-117" font-family="Helvetica,sans-Serif" font-size="10.00">widgets</text>
</g>
<!-- dir_72b7052581dbfe38fdfec6fb1065a6bf -->
<g id="node2" class="node">
<title>dir_72b7052581dbfe38fdfec6fb1065a6bf</title>
<g id="a_node2"><a xlink:href="dir_72b7052581dbfe38fdfec6fb1065a6bf.html" target="_top" xlink:title="handler">
<polygon fill="#a2b4d6" stroke="#404040" points="129,-129 81,-129 81,-110 129,-110 129,-129"/>
<text text-anchor="middle" x="105" y="-117" font-family="Helvetica,sans-Serif" font-size="10.00">handler</text>
</a>
</g>
</g>
<!-- dir_6c67fa29e594c54b78f7ee5438b72d27 -->
<g id="node3" class="node">
<title>dir_6c67fa29e594c54b78f7ee5438b72d27</title>
<g id="a_node3"><a xlink:href="dir_6c67fa29e594c54b78f7ee5438b72d27.html" target="_top" xlink:title="src">
<polygon fill="#a2b4d6" stroke="#404040" points="151,-74 121,-74 121,-55 151,-55 151,-74"/>
<text text-anchor="middle" x="136" y="-62" font-family="Helvetica,sans-Serif" font-size="10.00">src</text>
</a>
</g>
</g>
<!-- dir_72b7052581dbfe38fdfec6fb1065a6bf&#45;&gt;dir_6c67fa29e594c54b78f7ee5438b72d27 -->
<g id="edge1" class="edge">
<title>dir_72b7052581dbfe38fdfec6fb1065a6bf&#45;&gt;dir_6c67fa29e594c54b78f7ee5438b72d27</title>
<path fill="none" stroke="#63b8ff" d="M110.12,-109.75C114.18,-102.81 119.99,-92.86 125.09,-84.16"/>
<polygon fill="#63b8ff" stroke="#63b8ff" points="127.98,-86.15 130.01,-75.75 121.94,-82.61 127.98,-86.15"/>
<g id="a_edge1&#45;headlabel"><a xlink:href="dir_000053_000145.html" target="_top" xlink:title="4">
<text text-anchor="middle" x="129.38" y="-86.88" font-family="Helvetica,sans-Serif" font-size="10.00" fill="#63b8ff">4</text>
</a>
</g>
</g>
<!-- dir_1da05fa7afbe4395eeb05c97a448f57a -->
<g id="node5" class="node">
<title>dir_1da05fa7afbe4395eeb05c97a448f57a</title>
<g id="a_node5"><a xlink:href="dir_1da05fa7afbe4395eeb05c97a448f57a.html" target="_top" xlink:title="client">
<polygon fill="#edf0f7" stroke="red" stroke-dasharray="5,2" points="40,-19 0,-19 0,0 40,0 40,-19"/>
<text text-anchor="middle" x="20" y="-7" font-family="Helvetica,sans-Serif" font-size="10.00">client</text>
</a>
</g>
</g>
<!-- dir_72b7052581dbfe38fdfec6fb1065a6bf&#45;&gt;dir_1da05fa7afbe4395eeb05c97a448f57a -->
<g id="edge3" class="edge">
<title>dir_72b7052581dbfe38fdfec6fb1065a6bf&#45;&gt;dir_1da05fa7afbe4395eeb05c97a448f57a</title>
<path fill="none" stroke="#63b8ff" d="M98.04,-109.66C84.1,-91.94 52.48,-51.77 34.05,-28.35"/>
<polygon fill="#63b8ff" stroke="#63b8ff" points="36.92,-26.34 27.99,-20.65 31.42,-30.67 36.92,-26.34"/>
<g id="a_edge3&#45;headlabel"><a xlink:href="dir_000053_000026.html" target="_top" xlink:title="1">
<text text-anchor="middle" x="40.44" y="-23.72" font-family="Helvetica,sans-Serif" font-size="10.00" fill="#63b8ff">1</text>
</a>
</g>
</g>
<!-- dir_68267d1309a1af8e8297ef4c3efbcdba -->
<g id="node6" class="node">
<title>dir_68267d1309a1af8e8297ef4c3efbcdba</title>
<g id="a_node6"><a xlink:href="dir_68267d1309a1af8e8297ef4c3efbcdba.html" target="_top" xlink:title="src">
<polygon fill="#edf0f7" stroke="red" points="88,-19 58,-19 58,0 88,0 88,-19"/>
<text text-anchor="middle" x="73" y="-7" font-family="Helvetica,sans-Serif" font-size="10.00">src</text>
</a>
</g>
</g>
<!-- dir_72b7052581dbfe38fdfec6fb1065a6bf&#45;&gt;dir_68267d1309a1af8e8297ef4c3efbcdba -->
<g id="edge4" class="edge">
<title>dir_72b7052581dbfe38fdfec6fb1065a6bf&#45;&gt;dir_68267d1309a1af8e8297ef4c3efbcdba</title>
<path fill="none" stroke="#63b8ff" d="M102.38,-109.66C97.27,-92.42 85.86,-53.9 78.86,-30.27"/>
<polygon fill="#63b8ff" stroke="#63b8ff" points="82.28,-29.51 76.08,-20.91 75.57,-31.49 82.28,-29.51"/>
<g id="a_edge4&#45;headlabel"><a xlink:href="dir_000053_000153.html" target="_top" xlink:title="3">
<text text-anchor="middle" x="85.6" y="-28.19" font-family="Helvetica,sans-Serif" font-size="10.00" fill="#63b8ff">3</text>
</a>
</g>
</g>
<!-- dir_730e86da1a00f4cd5a8ebc1b01c8a81f -->
<g id="node7" class="node">
<title>dir_730e86da1a00f4cd5a8ebc1b01c8a81f</title>
<g id="a_node7"><a xlink:href="dir_730e86da1a00f4cd5a8ebc1b01c8a81f.html" target="_top" xlink:title="behavior">
<polygon fill="#edf0f7" stroke="red" stroke-dasharray="5,2" points="368.5,-19 315.5,-19 315.5,0 368.5,0 368.5,-19"/>
<text text-anchor="middle" x="342" y="-7" font-family="Helvetica,sans-Serif" font-size="10.00">behavior</text>
</a>
</g>
</g>
<!-- dir_72b7052581dbfe38fdfec6fb1065a6bf&#45;&gt;dir_730e86da1a00f4cd5a8ebc1b01c8a81f -->
<g id="edge2" class="edge">
<title>dir_72b7052581dbfe38fdfec6fb1065a6bf&#45;&gt;dir_730e86da1a00f4cd5a8ebc1b01c8a81f</title>
<path fill="none" stroke="#63b8ff" d="M124.39,-109.66C165.71,-90.83 262.66,-46.66 312,-24.17"/>
<polygon fill="#63b8ff" stroke="#63b8ff" points="313.31,-27.42 320.96,-20.09 310.41,-21.05 313.31,-27.42"/>
<g id="a_edge2&#45;headlabel"><a xlink:href="dir_000053_000021.html" target="_top" xlink:title="4">
<text text-anchor="middle" x="312.6" y="-28.37" font-family="Helvetica,sans-Serif" font-size="10.00" fill="#63b8ff">4</text>
</a>
</g>
</g>
<!-- dir_18cb38c735f8a580e1e086510eb8c495 -->
<g id="node4" class="node">
<title>dir_18cb38c735f8a580e1e086510eb8c495</title>
<g id="a_node4"><a xlink:href="dir_18cb38c735f8a580e1e086510eb8c495.html" target="_top" xlink:title="resources">
<polygon fill="#edf0f7" stroke="red" stroke-dasharray="5,2" points="165.5,-19 106.5,-19 106.5,0 165.5,0 165.5,-19"/>
<text text-anchor="middle" x="136" y="-7" font-family="Helvetica,sans-Serif" font-size="10.00">resources</text>
</a>
</g>
</g>
<!-- dir_6c67fa29e594c54b78f7ee5438b72d27&#45;&gt;dir_18cb38c735f8a580e1e086510eb8c495 -->
<g id="edge5" class="edge">
<title>dir_6c67fa29e594c54b78f7ee5438b72d27&#45;&gt;dir_18cb38c735f8a580e1e086510eb8c495</title>
<path fill="none" stroke="#63b8ff" d="M136,-54.75C136,-48.27 136,-39.16 136,-30.9"/>
<polygon fill="#63b8ff" stroke="#63b8ff" points="139.5,-30.96 136,-20.96 132.5,-30.96 139.5,-30.96"/>
<g id="a_edge5&#45;headlabel"><a xlink:href="dir_000145_000119.html" target="_top" xlink:title="13">
<text text-anchor="middle" x="142.34" y="-30.54" font-family="Helvetica,sans-Serif" font-size="10.00" fill="#63b8ff">13</text>
</a>
</g>
</g>
<!-- dir_6c67fa29e594c54b78f7ee5438b72d27&#45;&gt;dir_1da05fa7afbe4395eeb05c97a448f57a -->
<g id="edge6" class="edge">
<title>dir_6c67fa29e594c54b78f7ee5438b72d27&#45;&gt;dir_1da05fa7afbe4395eeb05c97a448f57a</title>
<path fill="none" stroke="#63b8ff" d="M120.84,-56.57C102.89,-48.37 72.59,-34.53 49.88,-24.15"/>
<polygon fill="#63b8ff" stroke="#63b8ff" points="51.35,-20.98 40.8,-20 48.44,-27.34 51.35,-20.98"/>
<g id="a_edge6&#45;headlabel"><a xlink:href="dir_000145_000026.html" target="_top" xlink:title="6">
<text text-anchor="middle" x="54.42" y="-16.76" font-family="Helvetica,sans-Serif" font-size="10.00" fill="#63b8ff">6</text>
</a>
</g>
</g>
<!-- dir_6c67fa29e594c54b78f7ee5438b72d27&#45;&gt;dir_68267d1309a1af8e8297ef4c3efbcdba -->
<g id="edge7" class="edge">
<title>dir_6c67fa29e594c54b78f7ee5438b72d27&#45;&gt;dir_68267d1309a1af8e8297ef4c3efbcdba</title>
<path fill="none" stroke="#63b8ff" d="M125.31,-54.51C116.3,-46.93 103.17,-35.88 92.32,-26.75"/>
<polygon fill="#63b8ff" stroke="#63b8ff" points="94.59,-24.09 84.69,-20.33 90.09,-29.45 94.59,-24.09"/>
<g id="a_edge7&#45;headlabel"><a xlink:href="dir_000145_000153.html" target="_top" xlink:title="110">
<text text-anchor="middle" x="98.01" y="-20.76" font-family="Helvetica,sans-Serif" font-size="10.00" fill="#63b8ff">110</text>
</a>
</g>
</g>
<!-- dir_6c67fa29e594c54b78f7ee5438b72d27&#45;&gt;dir_730e86da1a00f4cd5a8ebc1b01c8a81f -->
<g id="edge8" class="edge">
<title>dir_6c67fa29e594c54b78f7ee5438b72d27&#45;&gt;dir_730e86da1a00f4cd5a8ebc1b01c8a81f</title>
<path fill="none" stroke="#63b8ff" d="M151.48,-59.52C183.66,-51.24 258.55,-31.97 304.27,-20.21"/>
<polygon fill="#63b8ff" stroke="#63b8ff" points="304.94,-23.65 313.75,-17.77 303.19,-16.87 304.94,-23.65"/>
<g id="a_edge8&#45;headlabel"><a xlink:href="dir_000145_000021.html" target="_top" xlink:title="7">
<text text-anchor="middle" x="303.63" y="-24.42" font-family="Helvetica,sans-Serif" font-size="10.00" fill="#63b8ff">7</text>
</a>
</g>
</g>
<!-- dir_74d4e5f47262527cf6938c6017890522 -->
<g id="node8" class="node">
<title>dir_74d4e5f47262527cf6938c6017890522</title>
<g id="a_node8"><a xlink:href="dir_74d4e5f47262527cf6938c6017890522.html" target="_top" xlink:title="renderer">
<polygon fill="#edf0f7" stroke="red" stroke-dasharray="5,2" points="236,-19 184,-19 184,0 236,0 236,-19"/>
<text text-anchor="middle" x="210" y="-7" font-family="Helvetica,sans-Serif" font-size="10.00">renderer</text>
</a>
</g>
</g>
<!-- dir_6c67fa29e594c54b78f7ee5438b72d27&#45;&gt;dir_74d4e5f47262527cf6938c6017890522 -->
<g id="edge9" class="edge">
<title>dir_6c67fa29e594c54b78f7ee5438b72d27&#45;&gt;dir_74d4e5f47262527cf6938c6017890522</title>
<path fill="none" stroke="#63b8ff" d="M148.55,-54.51C159.46,-46.7 175.5,-35.21 188.46,-25.93"/>
<polygon fill="#63b8ff" stroke="#63b8ff" points="190.31,-28.91 196.4,-20.24 186.23,-23.22 190.31,-28.91"/>
<g id="a_edge9&#45;headlabel"><a xlink:href="dir_000145_000117.html" target="_top" xlink:title="10">
<text text-anchor="middle" x="190.27" y="-29.93" font-family="Helvetica,sans-Serif" font-size="10.00" fill="#63b8ff">10</text>
</a>
</g>
</g>
<!-- dir_6e88b2e4d8b32e1638ce514da6209492 -->
<g id="node9" class="node">
<title>dir_6e88b2e4d8b32e1638ce514da6209492</title>
<g id="a_node9"><a xlink:href="dir_6e88b2e4d8b32e1638ce514da6209492.html" target="_top" xlink:title="debug">
<polygon fill="#edf0f7" stroke="red" stroke-dasharray="5,2" points="297.5,-19 254.5,-19 254.5,0 297.5,0 297.5,-19"/>
<text text-anchor="middle" x="276" y="-7" font-family="Helvetica,sans-Serif" font-size="10.00">debug</text>
</a>
</g>
</g>
<!-- dir_6c67fa29e594c54b78f7ee5438b72d27&#45;&gt;dir_6e88b2e4d8b32e1638ce514da6209492 -->
<g id="edge10" class="edge">
<title>dir_6c67fa29e594c54b78f7ee5438b72d27&#45;&gt;dir_6e88b2e4d8b32e1638ce514da6209492</title>
<path fill="none" stroke="#63b8ff" d="M151.25,-57.73C173.37,-49.35 214.88,-33.64 243.92,-22.64"/>
<polygon fill="#63b8ff" stroke="#63b8ff" points="244.85,-26.04 252.96,-19.22 242.37,-19.49 244.85,-26.04"/>
<g id="a_edge10&#45;headlabel"><a xlink:href="dir_000145_000035.html" target="_top" xlink:title="3">
<text text-anchor="middle" x="243.9" y="-26.93" font-family="Helvetica,sans-Serif" font-size="10.00" fill="#63b8ff">3</text>
</a>
</g>
</g>
</g>
</svg>
