<?xml version="1.0" encoding="UTF-8" standalone="no"?>
<!DOCTYPE svg PUBLIC "-//W3C//DTD SVG 1.1//EN"
 "http://www.w3.org/Graphics/SVG/1.1/DTD/svg11.dtd">
<!-- Generated by graphviz version 7.0.5 (20221223.1930)
 -->
<!-- Title: plugins/behavior/python3/src/Python3 Pages: 1 -->
<svg width="279pt" height="180pt"
 viewBox="0.00 0.00 278.50 180.00" xmlns="http://www.w3.org/2000/svg" xmlns:xlink="http://www.w3.org/1999/xlink">
<g id="graph0" class="graph" transform="scale(1 1) rotate(0) translate(4 176)">
<title>plugins/behavior/python3/src/Python3</title>
<g id="clust1" class="cluster">
<title>clusterdir_6ee92aafa61edc4fe6978c3f15b1b05e</title>
<g id="a_clust1"><a xlink:href="dir_6ee92aafa61edc4fe6978c3f15b1b05e.html" target="_top" xlink:title="src">
<polygon fill="#edf0f7" stroke="#7f7f7f" stroke-dasharray="5,2" points="20,-39 20,-164 104,-164 104,-39 20,-39"/>
<text text-anchor="middle" x="62" y="-152" font-family="Helvetica,sans-Serif" font-size="10.00">src</text>
</a>
</g>
</g>
<g id="clust2" class="cluster">
<title>clusterdir_6ca745c7d7ee39eb5ceadd08521cd194</title>
<g id="a_clust2"><a xlink:href="dir_6ca745c7d7ee39eb5ceadd08521cd194.html" target="_top">
<polygon fill="#edf0f7" stroke="#404040" stroke-width="2" points="28,-47 28,-137 96,-137 96,-47 28,-47"/>
</a>
</g>
</g>
<!-- dir_6ca745c7d7ee39eb5ceadd08521cd194 -->
<g id="node1" class="node">
<title>dir_6ca745c7d7ee39eb5ceadd08521cd194</title>
<text text-anchor="middle" x="62" y="-117" font-family="Helvetica,sans-Serif" font-size="10.00">Python3</text>
</g>
<!-- dir_a020b659b6abc6a6bcab5c298e6cd98d -->
<g id="node2" class="node">
<title>dir_a020b659b6abc6a6bcab5c298e6cd98d</title>
<g id="a_node2"><a xlink:href="dir_a020b659b6abc6a6bcab5c298e6cd98d.html" target="_top" xlink:title="util">
<polygon fill="#a2b4d6" stroke="#404040" points="65.5,-74 36.5,-74 36.5,-55 65.5,-55 65.5,-74"/>
<text text-anchor="middle" x="51" y="-62" font-family="Helvetica,sans-Serif" font-size="10.00">util</text>
</a>
</g>
</g>
<!-- dir_6ca745c7d7ee39eb5ceadd08521cd194&#45;&gt;dir_a020b659b6abc6a6bcab5c298e6cd98d -->
<g id="edge4" class="edge">
<title>dir_6ca745c7d7ee39eb5ceadd08521cd194&#45;&gt;dir_a020b659b6abc6a6bcab5c298e6cd98d</title>
<path fill="none" stroke="#63b8ff" d="M60.28,-110.22C58.9,-103.57 56.91,-93.96 55.12,-85.34"/>
<polygon fill="#63b8ff" stroke="#63b8ff" points="58.58,-84.81 53.12,-75.73 51.73,-86.24 58.58,-84.81"/>
<g id="a_edge4&#45;headlabel"><a xlink:href="dir_000112_000162.html" target="_top" xlink:title="38">
<text text-anchor="middle" x="61.79" y="-83.77" font-family="Helvetica,sans-Serif" font-size="10.00" fill="#63b8ff">38</text>
</a>
</g>
</g>
<!-- dir_18cb38c735f8a580e1e086510eb8c495 -->
<g id="node3" class="node">
<title>dir_18cb38c735f8a580e1e086510eb8c495</title>
<g id="a_node3"><a xlink:href="dir_18cb38c735f8a580e1e086510eb8c495.html" target="_top" xlink:title="resources">
<polygon fill="#edf0f7" stroke="red" stroke-dasharray="5,2" points="219.5,-74 160.5,-74 160.5,-55 219.5,-55 219.5,-74"/>
<text text-anchor="middle" x="190" y="-62" font-family="Helvetica,sans-Serif" font-size="10.00">resources</text>
</a>
</g>
</g>
<!-- dir_6ca745c7d7ee39eb5ceadd08521cd194&#45;&gt;dir_18cb38c735f8a580e1e086510eb8c495 -->
<g id="edge1" class="edge">
<title>dir_6ca745c7d7ee39eb5ceadd08521cd194&#45;&gt;dir_18cb38c735f8a580e1e086510eb8c495</title>
<path fill="none" stroke="#63b8ff" d="M82.28,-110.1C102.61,-101.69 134.2,-88.6 157.93,-78.78"/>
<polygon fill="#63b8ff" stroke="#63b8ff" points="159.23,-82.03 167.13,-74.97 156.56,-75.56 159.23,-82.03"/>
<g id="a_edge1&#45;headlabel"><a xlink:href="dir_000112_000119.html" target="_top" xlink:title="2">
<text text-anchor="middle" x="158.4" y="-82.95" font-family="Helvetica,sans-Serif" font-size="10.00" fill="#63b8ff">2</text>
</a>
</g>
</g>
<!-- dir_68267d1309a1af8e8297ef4c3efbcdba -->
<g id="node4" class="node">
<title>dir_68267d1309a1af8e8297ef4c3efbcdba</title>
<g id="a_node4"><a xlink:href="dir_68267d1309a1af8e8297ef4c3efbcdba.html" target="_top" xlink:title="src">
<polygon fill="#edf0f7" stroke="red" points="30,-19 0,-19 0,0 30,0 30,-19"/>
<text text-anchor="middle" x="15" y="-7" font-family="Helvetica,sans-Serif" font-size="10.00">src</text>
</a>
</g>
</g>
<!-- dir_6ca745c7d7ee39eb5ceadd08521cd194&#45;&gt;dir_68267d1309a1af8e8297ef4c3efbcdba -->
<g id="edge2" class="edge">
<title>dir_6ca745c7d7ee39eb5ceadd08521cd194&#45;&gt;dir_68267d1309a1af8e8297ef4c3efbcdba</title>
<path fill="none" stroke="#63b8ff" d="M53.36,-110.14C45.25,-101.78 33.43,-88.14 27,-74 20.73,-60.21 17.74,-43.31 16.31,-30.41"/>
<polygon fill="#63b8ff" stroke="#63b8ff" points="19.81,-30.28 15.47,-20.61 12.84,-30.88 19.81,-30.28"/>
<g id="a_edge2&#45;headlabel"><a xlink:href="dir_000112_000153.html" target="_top" xlink:title="67">
<text text-anchor="middle" x="22.82" y="-29.61" font-family="Helvetica,sans-Serif" font-size="10.00" fill="#63b8ff">67</text>
</a>
</g>
</g>
<!-- dir_6e88b2e4d8b32e1638ce514da6209492 -->
<g id="node5" class="node">
<title>dir_6e88b2e4d8b32e1638ce514da6209492</title>
<g id="a_node5"><a xlink:href="dir_6e88b2e4d8b32e1638ce514da6209492.html" target="_top" xlink:title="debug">
<polygon fill="#edf0f7" stroke="red" stroke-dasharray="5,2" points="95.5,-19 52.5,-19 52.5,0 95.5,0 95.5,-19"/>
<text text-anchor="middle" x="74" y="-7" font-family="Helvetica,sans-Serif" font-size="10.00">debug</text>
</a>
</g>
</g>
<!-- dir_6ca745c7d7ee39eb5ceadd08521cd194&#45;&gt;dir_6e88b2e4d8b32e1638ce514da6209492 -->
<g id="edge3" class="edge">
<title>dir_6ca745c7d7ee39eb5ceadd08521cd194&#45;&gt;dir_6e88b2e4d8b32e1638ce514da6209492</title>
<path fill="none" stroke="#63b8ff" d="M64.98,-110.1C67.94,-101.26 72.3,-86.85 74,-74 75.91,-59.56 75.85,-43.11 75.34,-30.58"/>
<polygon fill="#63b8ff" stroke="#63b8ff" points="78.84,-30.48 74.8,-20.69 71.85,-30.86 78.84,-30.48"/>
<g id="a_edge3&#45;headlabel"><a xlink:href="dir_000112_000035.html" target="_top" xlink:title="4">
<text text-anchor="middle" x="81.79" y="-29.9" font-family="Helvetica,sans-Serif" font-size="10.00" fill="#63b8ff">4</text>
</a>
</g>
</g>
<!-- dir_a43d145ffbe64deac948a04a80a43b61 -->
<g id="node6" class="node">
<title>dir_a43d145ffbe64deac948a04a80a43b61</title>
<g id="a_node6"><a xlink:href="dir_a43d145ffbe64deac948a04a80a43b61.html" target="_top" xlink:title="root">
<polygon fill="#edf0f7" stroke="red" stroke-dasharray="5,2" points="270.5,-74 237.5,-74 237.5,-55 270.5,-55 270.5,-74"/>
<text text-anchor="middle" x="254" y="-62" font-family="Helvetica,sans-Serif" font-size="10.00">root</text>
</a>
</g>
</g>
<!-- dir_6ca745c7d7ee39eb5ceadd08521cd194&#45;&gt;dir_a43d145ffbe64deac948a04a80a43b61 -->
<g id="edge5" class="edge">
<title>dir_6ca745c7d7ee39eb5ceadd08521cd194&#45;&gt;dir_a43d145ffbe64deac948a04a80a43b61</title>
<path fill="none" stroke="#63b8ff" d="M87.9,-112.17C118.8,-104.5 172.24,-90.85 226.29,-74.68"/>
<polygon fill="#63b8ff" stroke="#63b8ff" points="227.1,-78.1 235.66,-71.85 225.07,-71.39 227.1,-78.1"/>
<g id="a_edge5&#45;headlabel"><a xlink:href="dir_000112_000121.html" target="_top" xlink:title="5">
<text text-anchor="middle" x="225.92" y="-78.92" font-family="Helvetica,sans-Serif" font-size="10.00" fill="#63b8ff">5</text>
</a>
</g>
</g>
<!-- dir_fd844bac20a88d0c302e5ffc8d80306f -->
<g id="node7" class="node">
<title>dir_fd844bac20a88d0c302e5ffc8d80306f</title>
<g id="a_node7"><a xlink:href="dir_fd844bac20a88d0c302e5ffc8d80306f.html" target="_top" xlink:title="api">
<polygon fill="#edf0f7" stroke="red" stroke-dasharray="5,2" points="144.5,-19 115.5,-19 115.5,0 144.5,0 144.5,-19"/>
<text text-anchor="middle" x="130" y="-7" font-family="Helvetica,sans-Serif" font-size="10.00">api</text>
</a>
</g>
</g>
<!-- dir_6ca745c7d7ee39eb5ceadd08521cd194&#45;&gt;dir_fd844bac20a88d0c302e5ffc8d80306f -->
<g id="edge6" class="edge">
<title>dir_6ca745c7d7ee39eb5ceadd08521cd194&#45;&gt;dir_fd844bac20a88d0c302e5ffc8d80306f</title>
<path fill="none" stroke="#63b8ff" d="M67.34,-110.03C78.3,-92.6 103.6,-52.42 118.48,-28.79"/>
<polygon fill="#63b8ff" stroke="#63b8ff" points="121.33,-30.84 123.69,-20.52 115.4,-27.11 121.33,-30.84"/>
<g id="a_edge6&#45;headlabel"><a xlink:href="dir_000112_000005.html" target="_top" xlink:title="6">
<text text-anchor="middle" x="122.62" y="-31.62" font-family="Helvetica,sans-Serif" font-size="10.00" fill="#63b8ff">6</text>
</a>
</g>
</g>
<!-- dir_a020b659b6abc6a6bcab5c298e6cd98d&#45;&gt;dir_68267d1309a1af8e8297ef4c3efbcdba -->
<g id="edge7" class="edge">
<title>dir_a020b659b6abc6a6bcab5c298e6cd98d&#45;&gt;dir_68267d1309a1af8e8297ef4c3efbcdba</title>
<path fill="none" stroke="#63b8ff" d="M45.06,-54.75C40.29,-47.73 33.44,-37.64 27.48,-28.87"/>
<polygon fill="#63b8ff" stroke="#63b8ff" points="30.44,-27 21.92,-20.69 24.65,-30.93 30.44,-27"/>
<g id="a_edge7&#45;headlabel"><a xlink:href="dir_000162_000153.html" target="_top" xlink:title="45">
<text text-anchor="middle" x="33.96" y="-24.63" font-family="Helvetica,sans-Serif" font-size="10.00" fill="#63b8ff">45</text>
</a>
</g>
</g>
<!-- dir_a020b659b6abc6a6bcab5c298e6cd98d&#45;&gt;dir_6e88b2e4d8b32e1638ce514da6209492 -->
<g id="edge8" class="edge">
<title>dir_a020b659b6abc6a6bcab5c298e6cd98d&#45;&gt;dir_6e88b2e4d8b32e1638ce514da6209492</title>
<path fill="none" stroke="#63b8ff" d="M54.8,-54.75C57.74,-47.96 61.94,-38.3 65.65,-29.73"/>
<polygon fill="#63b8ff" stroke="#63b8ff" points="68.75,-31.4 69.52,-20.83 62.33,-28.61 68.75,-31.4"/>
<g id="a_edge8&#45;headlabel"><a xlink:href="dir_000162_000035.html" target="_top" xlink:title="1">
<text text-anchor="middle" x="70.52" y="-31.94" font-family="Helvetica,sans-Serif" font-size="10.00" fill="#63b8ff">1</text>
</a>
</g>
</g>
<!-- dir_a020b659b6abc6a6bcab5c298e6cd98d&#45;&gt;dir_fd844bac20a88d0c302e5ffc8d80306f -->
<g id="edge9" class="edge">
<title>dir_a020b659b6abc6a6bcab5c298e6cd98d&#45;&gt;dir_fd844bac20a88d0c302e5ffc8d80306f</title>
<path fill="none" stroke="#63b8ff" d="M64.4,-54.51C76.16,-46.62 93.51,-34.98 107.41,-25.65"/>
<polygon fill="#63b8ff" stroke="#63b8ff" points="109.19,-28.68 115.54,-20.2 105.29,-22.87 109.19,-28.68"/>
<g id="a_edge9&#45;headlabel"><a xlink:href="dir_000162_000005.html" target="_top" xlink:title="2">
<text text-anchor="middle" x="109.04" y="-29.7" font-family="Helvetica,sans-Serif" font-size="10.00" fill="#63b8ff">2</text>
</a>
</g>
</g>
</g>
</svg>
