<?xml version="1.0" encoding="UTF-8" standalone="no"?>
<!DOCTYPE svg PUBLIC "-//W3C//DTD SVG 1.1//EN"
 "http://www.w3.org/Graphics/SVG/1.1/DTD/svg11.dtd">
<!-- Generated by graphviz version 7.0.5 (20221223.1930)
 -->
<!-- Title: src Pages: 1 -->
<svg width="213pt" height="169pt"
 viewBox="0.00 0.00 213.00 169.00" xmlns="http://www.w3.org/2000/svg" xmlns:xlink="http://www.w3.org/1999/xlink">
<g id="graph0" class="graph" transform="scale(1 1) rotate(0) translate(4 165)">
<title>src</title>
<g id="clust1" class="cluster">
<title>clusterdir_68267d1309a1af8e8297ef4c3efbcdba</title>
<g id="a_clust1"><a xlink:href="dir_68267d1309a1af8e8297ef4c3efbcdba.html" target="_top">
<polygon fill="#edf0f7" stroke="#404040" stroke-width="2" points="8,-8 8,-153 197,-153 197,-8 8,-8"/>
</a>
</g>
</g>
<!-- dir_68267d1309a1af8e8297ef4c3efbcdba -->
<g id="node1" class="node">
<title>dir_68267d1309a1af8e8297ef4c3efbcdba</title>
<text text-anchor="middle" x="174" y="-133" font-family="Helvetica,sans-Serif" font-size="10.00">src</text>
</g>
<!-- dir_b37d33ceb7f5c107fb027d4db224bc89 -->
<g id="node2" class="node">
<title>dir_b37d33ceb7f5c107fb027d4db224bc89</title>
<g id="a_node2"><a xlink:href="dir_b37d33ceb7f5c107fb027d4db224bc89.html" target="_top" xlink:title="Generic">
<polygon fill="#a2b4d6" stroke="#404040" points="115,-35 65,-35 65,-16 115,-16 115,-35"/>
<text text-anchor="middle" x="90" y="-23" font-family="Helvetica,sans-Serif" font-size="10.00">Generic</text>
</a>
</g>
</g>
<!-- dir_ce6405ba0afce575b27b3b998c1d24f9 -->
<g id="node3" class="node">
<title>dir_ce6405ba0afce575b27b3b998c1d24f9</title>
<g id="a_node3"><a xlink:href="dir_ce6405ba0afce575b27b3b998c1d24f9.html" target="_top" xlink:title="Interfaces">
<polygon fill="#a2b4d6" stroke="#404040" points="96,-90 36,-90 36,-71 96,-71 96,-90"/>
<text text-anchor="middle" x="66" y="-78" font-family="Helvetica,sans-Serif" font-size="10.00">Interfaces</text>
</a>
</g>
</g>
<!-- dir_ce6405ba0afce575b27b3b998c1d24f9&#45;&gt;dir_b37d33ceb7f5c107fb027d4db224bc89 -->
<g id="edge1" class="edge">
<title>dir_ce6405ba0afce575b27b3b998c1d24f9&#45;&gt;dir_b37d33ceb7f5c107fb027d4db224bc89</title>
<path fill="none" stroke="#63b8ff" d="M69.96,-70.75C73.04,-63.96 77.41,-54.3 81.29,-45.73"/>
<polygon fill="#63b8ff" stroke="#63b8ff" points="84.39,-47.37 85.33,-36.82 78.01,-44.49 84.39,-47.37"/>
<g id="a_edge1&#45;headlabel"><a xlink:href="dir_000061_000049.html" target="_top" xlink:title="16">
<text text-anchor="middle" x="86.12" y="-47.94" font-family="Helvetica,sans-Serif" font-size="10.00" fill="#63b8ff">16</text>
</a>
</g>
</g>
<!-- dir_adf00ee8b354a2b801c83d87dd7d0417 -->
<g id="node4" class="node">
<title>dir_adf00ee8b354a2b801c83d87dd7d0417</title>
<g id="a_node4"><a xlink:href="dir_adf00ee8b354a2b801c83d87dd7d0417.html" target="_top" xlink:title="Madgine">
<polygon fill="#a2b4d6" stroke="#404040" points="140.5,-145 87.5,-145 87.5,-126 140.5,-126 140.5,-145"/>
<text text-anchor="middle" x="114" y="-133" font-family="Helvetica,sans-Serif" font-size="10.00">Madgine</text>
</a>
</g>
</g>
<!-- dir_adf00ee8b354a2b801c83d87dd7d0417&#45;&gt;dir_b37d33ceb7f5c107fb027d4db224bc89 -->
<g id="edge3" class="edge">
<title>dir_adf00ee8b354a2b801c83d87dd7d0417&#45;&gt;dir_b37d33ceb7f5c107fb027d4db224bc89</title>
<path fill="none" stroke="#63b8ff" d="M113.28,-125.78C112.14,-113.45 109.58,-90.28 105,-71 103.02,-62.67 100.15,-53.69 97.44,-45.99"/>
<polygon fill="#63b8ff" stroke="#63b8ff" points="100.74,-44.82 94,-36.65 94.17,-47.24 100.74,-44.82"/>
<g id="a_edge3&#45;headlabel"><a xlink:href="dir_000088_000049.html" target="_top" xlink:title="14">
<text text-anchor="middle" x="104.12" y="-43.29" font-family="Helvetica,sans-Serif" font-size="10.00" fill="#63b8ff">14</text>
</a>
</g>
</g>
<!-- dir_adf00ee8b354a2b801c83d87dd7d0417&#45;&gt;dir_ce6405ba0afce575b27b3b998c1d24f9 -->
<g id="edge4" class="edge">
<title>dir_adf00ee8b354a2b801c83d87dd7d0417&#45;&gt;dir_ce6405ba0afce575b27b3b998c1d24f9</title>
<path fill="none" stroke="#63b8ff" d="M106.07,-125.75C99.44,-118.43 89.78,-107.76 81.61,-98.74"/>
<polygon fill="#63b8ff" stroke="#63b8ff" points="84.42,-96.63 75.11,-91.56 79.23,-101.33 84.42,-96.63"/>
<g id="a_edge4&#45;headlabel"><a xlink:href="dir_000088_000061.html" target="_top" xlink:title="10">
<text text-anchor="middle" x="87.92" y="-93.76" font-family="Helvetica,sans-Serif" font-size="10.00" fill="#63b8ff">10</text>
</a>
</g>
</g>
<!-- dir_022f6552a590871b5e744fe7964d6696 -->
<g id="node5" class="node">
<title>dir_022f6552a590871b5e744fe7964d6696</title>
<g id="a_node5"><a xlink:href="dir_022f6552a590871b5e744fe7964d6696.html" target="_top" xlink:title="Meta">
<polygon fill="#a2b4d6" stroke="#404040" points="172,-90 134,-90 134,-71 172,-71 172,-90"/>
<text text-anchor="middle" x="153" y="-78" font-family="Helvetica,sans-Serif" font-size="10.00">Meta</text>
</a>
</g>
</g>
<!-- dir_adf00ee8b354a2b801c83d87dd7d0417&#45;&gt;dir_022f6552a590871b5e744fe7964d6696 -->
<g id="edge2" class="edge">
<title>dir_adf00ee8b354a2b801c83d87dd7d0417&#45;&gt;dir_022f6552a590871b5e744fe7964d6696</title>
<path fill="none" stroke="#63b8ff" d="M120.44,-125.75C125.66,-118.66 133.19,-108.42 139.69,-99.59"/>
<polygon fill="#63b8ff" stroke="#63b8ff" points="142.42,-101.79 145.52,-91.66 136.78,-97.64 142.42,-101.79"/>
<g id="a_edge2&#45;headlabel"><a xlink:href="dir_000088_000096.html" target="_top" xlink:title="24">
<text text-anchor="middle" x="143.47" y="-102.65" font-family="Helvetica,sans-Serif" font-size="10.00" fill="#63b8ff">24</text>
</a>
</g>
</g>
<!-- dir_022f6552a590871b5e744fe7964d6696&#45;&gt;dir_b37d33ceb7f5c107fb027d4db224bc89 -->
<g id="edge5" class="edge">
<title>dir_022f6552a590871b5e744fe7964d6696&#45;&gt;dir_b37d33ceb7f5c107fb027d4db224bc89</title>
<path fill="none" stroke="#63b8ff" d="M142.31,-70.51C133.3,-62.93 120.17,-51.88 109.32,-42.75"/>
<polygon fill="#63b8ff" stroke="#63b8ff" points="111.59,-40.09 101.69,-36.33 107.09,-45.45 111.59,-40.09"/>
<g id="a_edge5&#45;headlabel"><a xlink:href="dir_000096_000049.html" target="_top" xlink:title="72">
<text text-anchor="middle" x="115.01" y="-36.76" font-family="Helvetica,sans-Serif" font-size="10.00" fill="#63b8ff">72</text>
</a>
</g>
</g>
<!-- dir_eeb7fcc90d516a232deaaf4de23f9c95 -->
<g id="node6" class="node">
<title>dir_eeb7fcc90d516a232deaaf4de23f9c95</title>
<g id="a_node6"><a xlink:href="dir_eeb7fcc90d516a232deaaf4de23f9c95.html" target="_top" xlink:title="Modules">
<polygon fill="#a2b4d6" stroke="#404040" points="69.5,-145 16.5,-145 16.5,-126 69.5,-126 69.5,-145"/>
<text text-anchor="middle" x="43" y="-133" font-family="Helvetica,sans-Serif" font-size="10.00">Modules</text>
</a>
</g>
</g>
<!-- dir_eeb7fcc90d516a232deaaf4de23f9c95&#45;&gt;dir_b37d33ceb7f5c107fb027d4db224bc89 -->
<g id="edge6" class="edge">
<title>dir_eeb7fcc90d516a232deaaf4de23f9c95&#45;&gt;dir_b37d33ceb7f5c107fb027d4db224bc89</title>
<path fill="none" stroke="#63b8ff" d="M37.12,-125.84C29.32,-113.18 17.59,-89.17 27,-71 33.74,-57.99 46.22,-47.98 58.3,-40.77"/>
<polygon fill="#63b8ff" stroke="#63b8ff" points="59.78,-43.95 66.9,-36.1 56.44,-37.8 59.78,-43.95"/>
<g id="a_edge6&#45;headlabel"><a xlink:href="dir_000098_000049.html" target="_top" xlink:title="29">
<text text-anchor="middle" x="59.31" y="-44.94" font-family="Helvetica,sans-Serif" font-size="10.00" fill="#63b8ff">29</text>
</a>
</g>
</g>
<!-- dir_eeb7fcc90d516a232deaaf4de23f9c95&#45;&gt;dir_ce6405ba0afce575b27b3b998c1d24f9 -->
<g id="edge7" class="edge">
<title>dir_eeb7fcc90d516a232deaaf4de23f9c95&#45;&gt;dir_ce6405ba0afce575b27b3b998c1d24f9</title>
<path fill="none" stroke="#63b8ff" d="M46.8,-125.75C49.74,-118.96 53.94,-109.3 57.65,-100.73"/>
<polygon fill="#63b8ff" stroke="#63b8ff" points="60.75,-102.4 61.52,-91.83 54.33,-99.61 60.75,-102.4"/>
<g id="a_edge7&#45;headlabel"><a xlink:href="dir_000098_000061.html" target="_top" xlink:title="12">
<text text-anchor="middle" x="62.52" y="-102.94" font-family="Helvetica,sans-Serif" font-size="10.00" fill="#63b8ff">12</text>
</a>
</g>
</g>
</g>
</svg>
