<?xml version="1.0" encoding="UTF-8" standalone="no"?>
<!DOCTYPE svg PUBLIC "-//W3C//DTD SVG 1.1//EN"
 "http://www.w3.org/Graphics/SVG/1.1/DTD/svg11.dtd">
<!-- Generated by graphviz version 7.0.5 (20221223.1930)
 -->
<!-- Title: plugins/renderer/opengl/src Pages: 1 -->
<svg width="253pt" height="125pt"
 viewBox="0.00 0.00 252.50 125.00" xmlns="http://www.w3.org/2000/svg" xmlns:xlink="http://www.w3.org/1999/xlink">
<g id="graph0" class="graph" transform="scale(1 1) rotate(0) translate(4 121)">
<title>plugins/renderer/opengl/src</title>
<g id="clust1" class="cluster">
<title>clusterdir_3d41a4446253bd4211a295d312a1a5af</title>
<g id="a_clust1"><a xlink:href="dir_3d41a4446253bd4211a295d312a1a5af.html" target="_top" xlink:title="opengl">
<polygon fill="#edf0f7" stroke="#7f7f7f" stroke-dasharray="5,2" points="49.5,-39 49.5,-109 236.5,-109 236.5,-39 49.5,-39"/>
<text text-anchor="middle" x="143" y="-97" font-family="Helvetica,sans-Serif" font-size="10.00">opengl</text>
</a>
</g>
</g>
<g id="clust2" class="cluster">
<title>clusterdir_ec491287f7fd7640afcfc53ef60a5019</title>
<g id="a_clust2"><a xlink:href="dir_ec491287f7fd7640afcfc53ef60a5019.html" target="_top">
<polygon fill="#edf0f7" stroke="#404040" stroke-width="2" points="57.5,-47 57.5,-82 228.5,-82 228.5,-47 57.5,-47"/>
</a>
</g>
</g>
<!-- dir_ec491287f7fd7640afcfc53ef60a5019 -->
<g id="node1" class="node">
<title>dir_ec491287f7fd7640afcfc53ef60a5019</title>
<text text-anchor="middle" x="205.5" y="-62" font-family="Helvetica,sans-Serif" font-size="10.00">src</text>
</g>
<!-- dir_43a065b244170888b86a00c518b17ff3 -->
<g id="node2" class="node">
<title>dir_43a065b244170888b86a00c518b17ff3</title>
<g id="a_node2"><a xlink:href="dir_43a065b244170888b86a00c518b17ff3.html" target="_top" xlink:title="glad">
<polygon fill="#a2b4d6" stroke="#404040" points="172,-74 137,-74 137,-55 172,-55 172,-74"/>
<text text-anchor="middle" x="154.5" y="-62" font-family="Helvetica,sans-Serif" font-size="10.00">glad</text>
</a>
</g>
</g>
<!-- dir_cd5d8232ba9caa6b69760d1e295639af -->
<g id="node3" class="node">
<title>dir_cd5d8232ba9caa6b69760d1e295639af</title>
<g id="a_node3"><a xlink:href="dir_cd5d8232ba9caa6b69760d1e295639af.html" target="_top" xlink:title="OpenGL">
<polygon fill="#a2b4d6" stroke="#404040" points="119,-74 66,-74 66,-55 119,-55 119,-74"/>
<text text-anchor="middle" x="92.5" y="-62" font-family="Helvetica,sans-Serif" font-size="10.00">OpenGL</text>
</a>
</g>
</g>
<!-- dir_18cb38c735f8a580e1e086510eb8c495 -->
<g id="node4" class="node">
<title>dir_18cb38c735f8a580e1e086510eb8c495</title>
<g id="a_node4"><a xlink:href="dir_18cb38c735f8a580e1e086510eb8c495.html" target="_top" xlink:title="resources">
<polygon fill="#edf0f7" stroke="red" stroke-dasharray="5,2" points="59,-19 0,-19 0,0 59,0 59,-19"/>
<text text-anchor="middle" x="29.5" y="-7" font-family="Helvetica,sans-Serif" font-size="10.00">resources</text>
</a>
</g>
</g>
<!-- dir_cd5d8232ba9caa6b69760d1e295639af&#45;&gt;dir_18cb38c735f8a580e1e086510eb8c495 -->
<g id="edge1" class="edge">
<title>dir_cd5d8232ba9caa6b69760d1e295639af&#45;&gt;dir_18cb38c735f8a580e1e086510eb8c495</title>
<path fill="none" stroke="#63b8ff" d="M81.81,-54.51C72.8,-46.93 59.67,-35.88 48.82,-26.75"/>
<polygon fill="#63b8ff" stroke="#63b8ff" points="51.09,-24.09 41.19,-20.33 46.59,-29.45 51.09,-24.09"/>
<g id="a_edge1&#45;headlabel"><a xlink:href="dir_000105_000119.html" target="_top" xlink:title="7">
<text text-anchor="middle" x="54.51" y="-20.76" font-family="Helvetica,sans-Serif" font-size="10.00" fill="#63b8ff">7</text>
</a>
</g>
</g>
<!-- dir_68267d1309a1af8e8297ef4c3efbcdba -->
<g id="node5" class="node">
<title>dir_68267d1309a1af8e8297ef4c3efbcdba</title>
<g id="a_node5"><a xlink:href="dir_68267d1309a1af8e8297ef4c3efbcdba.html" target="_top" xlink:title="src">
<polygon fill="#edf0f7" stroke="red" points="107.5,-19 77.5,-19 77.5,0 107.5,0 107.5,-19"/>
<text text-anchor="middle" x="92.5" y="-7" font-family="Helvetica,sans-Serif" font-size="10.00">src</text>
</a>
</g>
</g>
<!-- dir_cd5d8232ba9caa6b69760d1e295639af&#45;&gt;dir_68267d1309a1af8e8297ef4c3efbcdba -->
<g id="edge2" class="edge">
<title>dir_cd5d8232ba9caa6b69760d1e295639af&#45;&gt;dir_68267d1309a1af8e8297ef4c3efbcdba</title>
<path fill="none" stroke="#63b8ff" d="M92.5,-54.75C92.5,-48.27 92.5,-39.16 92.5,-30.9"/>
<polygon fill="#63b8ff" stroke="#63b8ff" points="96,-30.96 92.5,-20.96 89,-30.96 96,-30.96"/>
<g id="a_edge2&#45;headlabel"><a xlink:href="dir_000105_000153.html" target="_top" xlink:title="45">
<text text-anchor="middle" x="98.84" y="-30.54" font-family="Helvetica,sans-Serif" font-size="10.00" fill="#63b8ff">45</text>
</a>
</g>
</g>
<!-- dir_aeed45be98285214c75ce59c2db68594 -->
<g id="node6" class="node">
<title>dir_aeed45be98285214c75ce59c2db68594</title>
<g id="a_node6"><a xlink:href="dir_aeed45be98285214c75ce59c2db68594.html" target="_top" xlink:title="api">
<polygon fill="#edf0f7" stroke="red" stroke-dasharray="5,2" points="155,-19 126,-19 126,0 155,0 155,-19"/>
<text text-anchor="middle" x="140.5" y="-7" font-family="Helvetica,sans-Serif" font-size="10.00">api</text>
</a>
</g>
</g>
<!-- dir_cd5d8232ba9caa6b69760d1e295639af&#45;&gt;dir_aeed45be98285214c75ce59c2db68594 -->
<g id="edge3" class="edge">
<title>dir_cd5d8232ba9caa6b69760d1e295639af&#45;&gt;dir_aeed45be98285214c75ce59c2db68594</title>
<path fill="none" stroke="#63b8ff" d="M100.43,-54.75C107.06,-47.43 116.72,-36.76 124.89,-27.74"/>
<polygon fill="#63b8ff" stroke="#63b8ff" points="127.27,-30.33 131.39,-20.56 122.08,-25.63 127.27,-30.33"/>
<g id="a_edge3&#45;headlabel"><a xlink:href="dir_000105_000008.html" target="_top" xlink:title="9">
<text text-anchor="middle" x="127.97" y="-31.27" font-family="Helvetica,sans-Serif" font-size="10.00" fill="#63b8ff">9</text>
</a>
</g>
</g>
</g>
</svg>
