<?xml version="1.0" encoding="UTF-8" standalone="no"?>
<!DOCTYPE svg PUBLIC "-//W3C//DTD SVG 1.1//EN"
 "http://www.w3.org/Graphics/SVG/1.1/DTD/svg11.dtd">
<!-- Generated by graphviz version 7.0.5 (20221223.1930)
 -->
<!-- Title: src/Madgine/serialize Pages: 1 -->
<svg width="325pt" height="125pt"
 viewBox="0.00 0.00 325.00 125.00" xmlns="http://www.w3.org/2000/svg" xmlns:xlink="http://www.w3.org/1999/xlink">
<g id="graph0" class="graph" transform="scale(1 1) rotate(0) translate(4 121)">
<title>src/Madgine/serialize</title>
<g id="clust1" class="cluster">
<title>clusterdir_adf00ee8b354a2b801c83d87dd7d0417</title>
<g id="a_clust1"><a xlink:href="dir_adf00ee8b354a2b801c83d87dd7d0417.html" target="_top" xlink:title="Madgine">
<polygon fill="#edf0f7" stroke="#7f7f7f" stroke-dasharray="5,2" points="8,-39 8,-109 309,-109 309,-39 8,-39"/>
<text text-anchor="middle" x="158.5" y="-97" font-family="Helvetica,sans-Serif" font-size="10.00">Madgine</text>
</a>
</g>
</g>
<g id="clust2" class="cluster">
<title>clusterdir_4a38c61ec08aa6c8e6bad1fda26800ec</title>
<g id="a_clust2"><a xlink:href="dir_4a38c61ec08aa6c8e6bad1fda26800ec.html" target="_top">
<polygon fill="#edf0f7" stroke="#404040" stroke-width="2" points="16,-47 16,-82 301,-82 301,-47 16,-47"/>
</a>
</g>
</g>
<!-- dir_4a38c61ec08aa6c8e6bad1fda26800ec -->
<g id="node1" class="node">
<title>dir_4a38c61ec08aa6c8e6bad1fda26800ec</title>
<text text-anchor="middle" x="267" y="-62" font-family="Helvetica,sans-Serif" font-size="10.00">serialize</text>
</g>
<!-- dir_20dbc80c6b807e4764137aa0fcc04cea -->
<g id="node2" class="node">
<title>dir_20dbc80c6b807e4764137aa0fcc04cea</title>
<g id="a_node2"><a xlink:href="dir_20dbc80c6b807e4764137aa0fcc04cea.html" target="_top" xlink:title="filesystem">
<polygon fill="#a2b4d6" stroke="#404040" points="84,-74 24,-74 24,-55 84,-55 84,-74"/>
<text text-anchor="middle" x="54" y="-62" font-family="Helvetica,sans-Serif" font-size="10.00">filesystem</text>
</a>
</g>
</g>
<!-- dir_022f6552a590871b5e744fe7964d6696 -->
<g id="node5" class="node">
<title>dir_022f6552a590871b5e744fe7964d6696</title>
<g id="a_node5"><a xlink:href="dir_022f6552a590871b5e744fe7964d6696.html" target="_top" xlink:title="Meta">
<polygon fill="#edf0f7" stroke="red" stroke-dasharray="5,2" points="147,-19 109,-19 109,0 147,0 147,-19"/>
<text text-anchor="middle" x="128" y="-7" font-family="Helvetica,sans-Serif" font-size="10.00">Meta</text>
</a>
</g>
</g>
<!-- dir_20dbc80c6b807e4764137aa0fcc04cea&#45;&gt;dir_022f6552a590871b5e744fe7964d6696 -->
<g id="edge1" class="edge">
<title>dir_20dbc80c6b807e4764137aa0fcc04cea&#45;&gt;dir_022f6552a590871b5e744fe7964d6696</title>
<path fill="none" stroke="#63b8ff" d="M66.55,-54.51C77.46,-46.7 93.5,-35.21 106.46,-25.93"/>
<polygon fill="#63b8ff" stroke="#63b8ff" points="108.31,-28.91 114.4,-20.24 104.23,-23.22 108.31,-28.91"/>
<g id="a_edge1&#45;headlabel"><a xlink:href="dir_000046_000096.html" target="_top" xlink:title="6">
<text text-anchor="middle" x="108.27" y="-29.93" font-family="Helvetica,sans-Serif" font-size="10.00" fill="#63b8ff">6</text>
</a>
</g>
</g>
<!-- dir_ce6405ba0afce575b27b3b998c1d24f9 -->
<g id="node7" class="node">
<title>dir_ce6405ba0afce575b27b3b998c1d24f9</title>
<g id="a_node7"><a xlink:href="dir_ce6405ba0afce575b27b3b998c1d24f9.html" target="_top" xlink:title="Interfaces">
<polygon fill="#edf0f7" stroke="red" stroke-dasharray="5,2" points="88,-19 28,-19 28,0 88,0 88,-19"/>
<text text-anchor="middle" x="58" y="-7" font-family="Helvetica,sans-Serif" font-size="10.00">Interfaces</text>
</a>
</g>
</g>
<!-- dir_20dbc80c6b807e4764137aa0fcc04cea&#45;&gt;dir_ce6405ba0afce575b27b3b998c1d24f9 -->
<g id="edge2" class="edge">
<title>dir_20dbc80c6b807e4764137aa0fcc04cea&#45;&gt;dir_ce6405ba0afce575b27b3b998c1d24f9</title>
<path fill="none" stroke="#63b8ff" d="M54.66,-54.75C55.15,-48.27 55.84,-39.16 56.46,-30.9"/>
<polygon fill="#63b8ff" stroke="#63b8ff" points="59.95,-31.19 57.21,-20.95 52.97,-30.66 59.95,-31.19"/>
<g id="a_edge2&#45;headlabel"><a xlink:href="dir_000046_000061.html" target="_top" xlink:title="4">
<text text-anchor="middle" x="62.62" y="-30.98" font-family="Helvetica,sans-Serif" font-size="10.00" fill="#63b8ff">4</text>
</a>
</g>
</g>
<!-- dir_eea61c55091171dd1662532d9155b7aa -->
<g id="node3" class="node">
<title>dir_eea61c55091171dd1662532d9155b7aa</title>
<g id="a_node3"><a xlink:href="dir_eea61c55091171dd1662532d9155b7aa.html" target="_top" xlink:title="memory">
<polygon fill="#a2b4d6" stroke="#404040" points="222.5,-74 171.5,-74 171.5,-55 222.5,-55 222.5,-74"/>
<text text-anchor="middle" x="197" y="-62" font-family="Helvetica,sans-Serif" font-size="10.00">memory</text>
</a>
</g>
</g>
<!-- dir_eea61c55091171dd1662532d9155b7aa&#45;&gt;dir_022f6552a590871b5e744fe7964d6696 -->
<g id="edge3" class="edge">
<title>dir_eea61c55091171dd1662532d9155b7aa&#45;&gt;dir_022f6552a590871b5e744fe7964d6696</title>
<path fill="none" stroke="#63b8ff" d="M185.3,-54.51C175.22,-46.77 160.46,-35.43 148.44,-26.2"/>
<polygon fill="#63b8ff" stroke="#63b8ff" points="150.79,-23.6 140.73,-20.28 146.53,-29.15 150.79,-23.6"/>
<g id="a_edge3&#45;headlabel"><a xlink:href="dir_000093_000096.html" target="_top" xlink:title="6">
<text text-anchor="middle" x="154.17" y="-20.11" font-family="Helvetica,sans-Serif" font-size="10.00" fill="#63b8ff">6</text>
</a>
</g>
</g>
<!-- dir_b37d33ceb7f5c107fb027d4db224bc89 -->
<g id="node6" class="node">
<title>dir_b37d33ceb7f5c107fb027d4db224bc89</title>
<g id="a_node6"><a xlink:href="dir_b37d33ceb7f5c107fb027d4db224bc89.html" target="_top" xlink:title="Generic">
<polygon fill="#edf0f7" stroke="red" stroke-dasharray="5,2" points="222,-19 172,-19 172,0 222,0 222,-19"/>
<text text-anchor="middle" x="197" y="-7" font-family="Helvetica,sans-Serif" font-size="10.00">Generic</text>
</a>
</g>
</g>
<!-- dir_eea61c55091171dd1662532d9155b7aa&#45;&gt;dir_b37d33ceb7f5c107fb027d4db224bc89 -->
<g id="edge4" class="edge">
<title>dir_eea61c55091171dd1662532d9155b7aa&#45;&gt;dir_b37d33ceb7f5c107fb027d4db224bc89</title>
<path fill="none" stroke="#63b8ff" d="M197,-54.75C197,-48.27 197,-39.16 197,-30.9"/>
<polygon fill="#63b8ff" stroke="#63b8ff" points="200.5,-30.96 197,-20.96 193.5,-30.96 200.5,-30.96"/>
<g id="a_edge4&#45;headlabel"><a xlink:href="dir_000093_000049.html" target="_top" xlink:title="2">
<text text-anchor="middle" x="203.34" y="-30.54" font-family="Helvetica,sans-Serif" font-size="10.00" fill="#63b8ff">2</text>
</a>
</g>
</g>
<!-- dir_7610819c539d03fbd9b7b6293782acac -->
<g id="node4" class="node">
<title>dir_7610819c539d03fbd9b7b6293782acac</title>
<g id="a_node4"><a xlink:href="dir_7610819c539d03fbd9b7b6293782acac.html" target="_top" xlink:title="network">
<polygon fill="#a2b4d6" stroke="#404040" points="153.5,-74 102.5,-74 102.5,-55 153.5,-55 153.5,-74"/>
<text text-anchor="middle" x="128" y="-62" font-family="Helvetica,sans-Serif" font-size="10.00">network</text>
</a>
</g>
</g>
<!-- dir_7610819c539d03fbd9b7b6293782acac&#45;&gt;dir_022f6552a590871b5e744fe7964d6696 -->
<g id="edge5" class="edge">
<title>dir_7610819c539d03fbd9b7b6293782acac&#45;&gt;dir_022f6552a590871b5e744fe7964d6696</title>
<path fill="none" stroke="#63b8ff" d="M128,-54.75C128,-48.27 128,-39.16 128,-30.9"/>
<polygon fill="#63b8ff" stroke="#63b8ff" points="131.5,-30.96 128,-20.96 124.5,-30.96 131.5,-30.96"/>
<g id="a_edge5&#45;headlabel"><a xlink:href="dir_000099_000096.html" target="_top" xlink:title="6">
<text text-anchor="middle" x="134.34" y="-30.54" font-family="Helvetica,sans-Serif" font-size="10.00" fill="#63b8ff">6</text>
</a>
</g>
</g>
<!-- dir_7610819c539d03fbd9b7b6293782acac&#45;&gt;dir_ce6405ba0afce575b27b3b998c1d24f9 -->
<g id="edge6" class="edge">
<title>dir_7610819c539d03fbd9b7b6293782acac&#45;&gt;dir_ce6405ba0afce575b27b3b998c1d24f9</title>
<path fill="none" stroke="#63b8ff" d="M116.13,-54.51C105.91,-46.77 90.93,-35.43 78.74,-26.2"/>
<polygon fill="#63b8ff" stroke="#63b8ff" points="80.99,-23.52 70.91,-20.27 76.77,-29.1 80.99,-23.52"/>
<g id="a_edge6&#45;headlabel"><a xlink:href="dir_000099_000061.html" target="_top" xlink:title="3">
<text text-anchor="middle" x="84.36" y="-20.01" font-family="Helvetica,sans-Serif" font-size="10.00" fill="#63b8ff">3</text>
</a>
</g>
</g>
</g>
</svg>
