<?xml version="1.0" encoding="UTF-8" standalone="no"?>
<!DOCTYPE svg PUBLIC "-//W3C//DTD SVG 1.1//EN"
 "http://www.w3.org/Graphics/SVG/1.1/DTD/svg11.dtd">
<!-- Generated by graphviz version 7.0.5 (20221223.1930)
 -->
<!-- Title: plugins/behavior/handler/src/Madgine Pages: 1 -->
<svg width="255pt" height="117pt"
 viewBox="0.00 0.00 254.50 117.00" xmlns="http://www.w3.org/2000/svg" xmlns:xlink="http://www.w3.org/1999/xlink">
<g id="graph0" class="graph" transform="scale(1 1) rotate(0) translate(4 113)">
<title>plugins/behavior/handler/src/Madgine</title>
<g id="clust1" class="cluster">
<title>clusterdir_295fb31b5173deeea481e7aff0859482</title>
<g id="a_clust1"><a xlink:href="dir_295fb31b5173deeea481e7aff0859482.html" target="_top" xlink:title="src">
<polygon fill="#edf0f7" stroke="#7f7f7f" stroke-dasharray="5,2" points="88,-47 88,-101 158,-101 158,-47 88,-47"/>
<text text-anchor="middle" x="123" y="-89" font-family="Helvetica,sans-Serif" font-size="10.00">src</text>
</a>
</g>
</g>
<!-- dir_4628a06d0fc118497ef44d47a117f106 -->
<g id="node1" class="node">
<title>dir_4628a06d0fc118497ef44d47a117f106</title>
<g id="a_node1"><a xlink:href="dir_4628a06d0fc118497ef44d47a117f106.html" target="_top" xlink:title="Madgine">
<polygon fill="#edf0f7" stroke="#404040" stroke-width="2" points="149.5,-74 96.5,-74 96.5,-55 149.5,-55 149.5,-74"/>
<text text-anchor="middle" x="123" y="-62" font-family="Helvetica,sans-Serif" font-size="10.00">Madgine</text>
</a>
</g>
</g>
<!-- dir_1da05fa7afbe4395eeb05c97a448f57a -->
<g id="node2" class="node">
<title>dir_1da05fa7afbe4395eeb05c97a448f57a</title>
<g id="a_node2"><a xlink:href="dir_1da05fa7afbe4395eeb05c97a448f57a.html" target="_top" xlink:title="client">
<polygon fill="#edf0f7" stroke="red" stroke-dasharray="5,2" points="40,-19 0,-19 0,0 40,0 40,-19"/>
<text text-anchor="middle" x="20" y="-7" font-family="Helvetica,sans-Serif" font-size="10.00">client</text>
</a>
</g>
</g>
<!-- dir_4628a06d0fc118497ef44d47a117f106&#45;&gt;dir_1da05fa7afbe4395eeb05c97a448f57a -->
<g id="edge1" class="edge">
<title>dir_4628a06d0fc118497ef44d47a117f106&#45;&gt;dir_1da05fa7afbe4395eeb05c97a448f57a</title>
<path fill="none" stroke="#63b8ff" d="M105.53,-54.51C89.6,-46.31 65.81,-34.07 47.36,-24.58"/>
<polygon fill="#63b8ff" stroke="#63b8ff" points="49.05,-21.51 38.56,-20.05 45.85,-27.74 49.05,-21.51"/>
<g id="a_edge1&#45;headlabel"><a xlink:href="dir_000072_000026.html" target="_top" xlink:title="3">
<text text-anchor="middle" x="52.2" y="-17.44" font-family="Helvetica,sans-Serif" font-size="10.00" fill="#63b8ff">3</text>
</a>
</g>
</g>
<!-- dir_4abd3b1ce7e6fd1c14d3fa34b06b5a7b -->
<g id="node3" class="node">
<title>dir_4abd3b1ce7e6fd1c14d3fa34b06b5a7b</title>
<g id="a_node3"><a xlink:href="dir_4abd3b1ce7e6fd1c14d3fa34b06b5a7b.html" target="_top" xlink:title="app">
<polygon fill="#edf0f7" stroke="red" stroke-dasharray="5,2" points="90,-19 58,-19 58,0 90,0 90,-19"/>
<text text-anchor="middle" x="74" y="-7" font-family="Helvetica,sans-Serif" font-size="10.00">app</text>
</a>
</g>
</g>
<!-- dir_4628a06d0fc118497ef44d47a117f106&#45;&gt;dir_4abd3b1ce7e6fd1c14d3fa34b06b5a7b -->
<g id="edge2" class="edge">
<title>dir_4628a06d0fc118497ef44d47a117f106&#45;&gt;dir_4abd3b1ce7e6fd1c14d3fa34b06b5a7b</title>
<path fill="none" stroke="#63b8ff" d="M114.91,-54.75C108.14,-47.43 98.28,-36.76 89.94,-27.74"/>
<polygon fill="#63b8ff" stroke="#63b8ff" points="92.65,-25.52 83.29,-20.55 87.51,-30.27 92.65,-25.52"/>
<g id="a_edge2&#45;headlabel"><a xlink:href="dir_000072_000012.html" target="_top" xlink:title="1">
<text text-anchor="middle" x="96.15" y="-22.62" font-family="Helvetica,sans-Serif" font-size="10.00" fill="#63b8ff">1</text>
</a>
</g>
</g>
<!-- dir_68267d1309a1af8e8297ef4c3efbcdba -->
<g id="node4" class="node">
<title>dir_68267d1309a1af8e8297ef4c3efbcdba</title>
<g id="a_node4"><a xlink:href="dir_68267d1309a1af8e8297ef4c3efbcdba.html" target="_top" xlink:title="src">
<polygon fill="#edf0f7" stroke="red" points="138,-19 108,-19 108,0 138,0 138,-19"/>
<text text-anchor="middle" x="123" y="-7" font-family="Helvetica,sans-Serif" font-size="10.00">src</text>
</a>
</g>
</g>
<!-- dir_4628a06d0fc118497ef44d47a117f106&#45;&gt;dir_68267d1309a1af8e8297ef4c3efbcdba -->
<g id="edge3" class="edge">
<title>dir_4628a06d0fc118497ef44d47a117f106&#45;&gt;dir_68267d1309a1af8e8297ef4c3efbcdba</title>
<path fill="none" stroke="#63b8ff" d="M123,-54.75C123,-48.27 123,-39.16 123,-30.9"/>
<polygon fill="#63b8ff" stroke="#63b8ff" points="126.5,-30.96 123,-20.96 119.5,-30.96 126.5,-30.96"/>
<g id="a_edge3&#45;headlabel"><a xlink:href="dir_000072_000153.html" target="_top" xlink:title="20">
<text text-anchor="middle" x="129.34" y="-30.54" font-family="Helvetica,sans-Serif" font-size="10.00" fill="#63b8ff">20</text>
</a>
</g>
</g>
<!-- dir_6e88b2e4d8b32e1638ce514da6209492 -->
<g id="node5" class="node">
<title>dir_6e88b2e4d8b32e1638ce514da6209492</title>
<g id="a_node5"><a xlink:href="dir_6e88b2e4d8b32e1638ce514da6209492.html" target="_top" xlink:title="debug">
<polygon fill="#edf0f7" stroke="red" stroke-dasharray="5,2" points="199.5,-19 156.5,-19 156.5,0 199.5,0 199.5,-19"/>
<text text-anchor="middle" x="178" y="-7" font-family="Helvetica,sans-Serif" font-size="10.00">debug</text>
</a>
</g>
</g>
<!-- dir_4628a06d0fc118497ef44d47a117f106&#45;&gt;dir_6e88b2e4d8b32e1638ce514da6209492 -->
<g id="edge4" class="edge">
<title>dir_4628a06d0fc118497ef44d47a117f106&#45;&gt;dir_6e88b2e4d8b32e1638ce514da6209492</title>
<path fill="none" stroke="#63b8ff" d="M132.08,-54.75C139.84,-47.27 151.21,-36.32 160.7,-27.17"/>
<polygon fill="#63b8ff" stroke="#63b8ff" points="162.86,-29.95 167.63,-20.49 158,-24.91 162.86,-29.95"/>
<g id="a_edge4&#45;headlabel"><a xlink:href="dir_000072_000035.html" target="_top" xlink:title="2">
<text text-anchor="middle" x="163.33" y="-30.94" font-family="Helvetica,sans-Serif" font-size="10.00" fill="#63b8ff">2</text>
</a>
</g>
</g>
<!-- dir_fd844bac20a88d0c302e5ffc8d80306f -->
<g id="node6" class="node">
<title>dir_fd844bac20a88d0c302e5ffc8d80306f</title>
<g id="a_node6"><a xlink:href="dir_fd844bac20a88d0c302e5ffc8d80306f.html" target="_top" xlink:title="api">
<polygon fill="#edf0f7" stroke="red" stroke-dasharray="5,2" points="246.5,-19 217.5,-19 217.5,0 246.5,0 246.5,-19"/>
<text text-anchor="middle" x="232" y="-7" font-family="Helvetica,sans-Serif" font-size="10.00">api</text>
</a>
</g>
</g>
<!-- dir_4628a06d0fc118497ef44d47a117f106&#45;&gt;dir_fd844bac20a88d0c302e5ffc8d80306f -->
<g id="edge5" class="edge">
<title>dir_4628a06d0fc118497ef44d47a117f106&#45;&gt;dir_fd844bac20a88d0c302e5ffc8d80306f</title>
<path fill="none" stroke="#63b8ff" d="M141.49,-54.51C159.53,-45.74 187.1,-32.33 207.07,-22.62"/>
<polygon fill="#63b8ff" stroke="#63b8ff" points="208.45,-25.84 215.91,-18.32 205.39,-19.55 208.45,-25.84"/>
<g id="a_edge5&#45;headlabel"><a xlink:href="dir_000072_000005.html" target="_top" xlink:title="1">
<text text-anchor="middle" x="207.82" y="-26.81" font-family="Helvetica,sans-Serif" font-size="10.00" fill="#63b8ff">1</text>
</a>
</g>
</g>
</g>
</svg>
