<?xml version="1.0" encoding="UTF-8" standalone="no"?>
<!DOCTYPE svg PUBLIC "-//W3C//DTD SVG 1.1//EN"
 "http://www.w3.org/Graphics/SVG/1.1/DTD/svg11.dtd">
<!-- Generated by graphviz version 7.0.5 (20221223.1930)
 -->
<!-- Title: plugins/renderer Pages: 1 -->
<svg width="340pt" height="196pt"
 viewBox="0.00 0.00 340.00 196.00" xmlns="http://www.w3.org/2000/svg" xmlns:xlink="http://www.w3.org/1999/xlink">
<g id="graph0" class="graph" transform="scale(1 1) rotate(0) translate(4 192)">
<title>plugins/renderer</title>
<g id="clust1" class="cluster">
<title>clusterdir_38c8d24aef3972a7f87b834274e76e31</title>
<g id="a_clust1"><a xlink:href="dir_38c8d24aef3972a7f87b834274e76e31.html" target="_top" xlink:title="plugins">
<polygon fill="#edf0f7" stroke="#404040" stroke-dasharray="5,2" points="8,-8 8,-180 294,-180 294,-8 8,-8"/>
<text text-anchor="middle" x="151" y="-168" font-family="Helvetica,sans-Serif" font-size="10.00">plugins</text>
</a>
</g>
</g>
<g id="clust2" class="cluster">
<title>clusterdir_74d4e5f47262527cf6938c6017890522</title>
<g id="a_clust2"><a xlink:href="dir_74d4e5f47262527cf6938c6017890522.html" target="_top">
<polygon fill="#edf0f7" stroke="#404040" stroke-width="2" points="16,-63 16,-153 286,-153 286,-63 16,-63"/>
</a>
</g>
</g>
<!-- dir_18cb38c735f8a580e1e086510eb8c495 -->
<g id="node1" class="node">
<title>dir_18cb38c735f8a580e1e086510eb8c495</title>
<g id="a_node1"><a xlink:href="dir_18cb38c735f8a580e1e086510eb8c495.html" target="_top" xlink:title="resources">
<polygon fill="#a2b4d6" stroke="red" points="155.5,-35 96.5,-35 96.5,-16 155.5,-16 155.5,-35"/>
<text text-anchor="middle" x="126" y="-23" font-family="Helvetica,sans-Serif" font-size="10.00">resources</text>
</a>
</g>
</g>
<!-- dir_74d4e5f47262527cf6938c6017890522 -->
<g id="node2" class="node">
<title>dir_74d4e5f47262527cf6938c6017890522</title>
<text text-anchor="middle" x="252" y="-133" font-family="Helvetica,sans-Serif" font-size="10.00">renderer</text>
</g>
<!-- dir_aeed45be98285214c75ce59c2db68594 -->
<g id="node3" class="node">
<title>dir_aeed45be98285214c75ce59c2db68594</title>
<g id="a_node3"><a xlink:href="dir_aeed45be98285214c75ce59c2db68594.html" target="_top" xlink:title="api">
<polygon fill="#a2b4d6" stroke="#404040" points="184.5,-90 155.5,-90 155.5,-71 184.5,-71 184.5,-90"/>
<text text-anchor="middle" x="170" y="-78" font-family="Helvetica,sans-Serif" font-size="10.00">api</text>
</a>
</g>
</g>
<!-- dir_aeed45be98285214c75ce59c2db68594&#45;&gt;dir_18cb38c735f8a580e1e086510eb8c495 -->
<g id="edge2" class="edge">
<title>dir_aeed45be98285214c75ce59c2db68594&#45;&gt;dir_18cb38c735f8a580e1e086510eb8c495</title>
<path fill="none" stroke="#63b8ff" d="M162.73,-70.75C156.72,-63.5 147.99,-52.98 140.54,-44.02"/>
<polygon fill="#63b8ff" stroke="#63b8ff" points="143.47,-42.07 134.39,-36.61 138.08,-46.54 143.47,-42.07"/>
<g id="a_edge2&#45;headlabel"><a xlink:href="dir_000008_000119.html" target="_top" xlink:title="5">
<text text-anchor="middle" x="146.98" y="-39.35" font-family="Helvetica,sans-Serif" font-size="10.00" fill="#63b8ff">5</text>
</a>
</g>
</g>
<!-- dir_68267d1309a1af8e8297ef4c3efbcdba -->
<g id="node7" class="node">
<title>dir_68267d1309a1af8e8297ef4c3efbcdba</title>
<g id="a_node7"><a xlink:href="dir_68267d1309a1af8e8297ef4c3efbcdba.html" target="_top" xlink:title="src">
<polygon fill="#edf0f7" stroke="red" points="332,-35 302,-35 302,-16 332,-16 332,-35"/>
<text text-anchor="middle" x="317" y="-23" font-family="Helvetica,sans-Serif" font-size="10.00">src</text>
</a>
</g>
</g>
<!-- dir_aeed45be98285214c75ce59c2db68594&#45;&gt;dir_68267d1309a1af8e8297ef4c3efbcdba -->
<g id="edge1" class="edge">
<title>dir_aeed45be98285214c75ce59c2db68594&#45;&gt;dir_68267d1309a1af8e8297ef4c3efbcdba</title>
<path fill="none" stroke="#63b8ff" d="M184.66,-73.67C192.94,-70.43 203.51,-66.38 213,-63 246.95,-50.9 258.71,-49.53 290.99,-37.58"/>
<polygon fill="#63b8ff" stroke="#63b8ff" points="292.19,-40.86 300.29,-34.04 289.7,-34.32 292.19,-40.86"/>
<g id="a_edge1&#45;headlabel"><a xlink:href="dir_000008_000153.html" target="_top" xlink:title="75">
<text text-anchor="middle" x="291.25" y="-41.76" font-family="Helvetica,sans-Serif" font-size="10.00" fill="#63b8ff">75</text>
</a>
</g>
</g>
<!-- dir_e604caeefe8dc0bc7496e5d5ddab5bc8 -->
<g id="node4" class="node">
<title>dir_e604caeefe8dc0bc7496e5d5ddab5bc8</title>
<g id="a_node4"><a xlink:href="dir_e604caeefe8dc0bc7496e5d5ddab5bc8.html" target="_top" xlink:title="directx12">
<polygon fill="#a2b4d6" stroke="#404040" points="144,-145 88,-145 88,-126 144,-126 144,-145"/>
<text text-anchor="middle" x="116" y="-133" font-family="Helvetica,sans-Serif" font-size="10.00">directx12</text>
</a>
</g>
</g>
<!-- dir_e604caeefe8dc0bc7496e5d5ddab5bc8&#45;&gt;dir_18cb38c735f8a580e1e086510eb8c495 -->
<g id="edge3" class="edge">
<title>dir_e604caeefe8dc0bc7496e5d5ddab5bc8&#45;&gt;dir_18cb38c735f8a580e1e086510eb8c495</title>
<path fill="none" stroke="#63b8ff" d="M116.82,-125.66C118.4,-108.57 121.92,-70.61 124.11,-46.92"/>
<polygon fill="#63b8ff" stroke="#63b8ff" points="127.59,-47.25 125.03,-36.97 120.62,-46.6 127.59,-47.25"/>
<g id="a_edge3&#45;headlabel"><a xlink:href="dir_000039_000119.html" target="_top" xlink:title="12">
<text text-anchor="middle" x="130.23" y="-47.08" font-family="Helvetica,sans-Serif" font-size="10.00" fill="#63b8ff">12</text>
</a>
</g>
</g>
<!-- dir_e604caeefe8dc0bc7496e5d5ddab5bc8&#45;&gt;dir_aeed45be98285214c75ce59c2db68594 -->
<g id="edge5" class="edge">
<title>dir_e604caeefe8dc0bc7496e5d5ddab5bc8&#45;&gt;dir_aeed45be98285214c75ce59c2db68594</title>
<path fill="none" stroke="#63b8ff" d="M124.92,-125.75C132.45,-118.35 143.47,-107.54 152.73,-98.45"/>
<polygon fill="#63b8ff" stroke="#63b8ff" points="155.12,-101 159.81,-91.5 150.22,-96.01 155.12,-101"/>
<g id="a_edge5&#45;headlabel"><a xlink:href="dir_000039_000008.html" target="_top" xlink:title="8">
<text text-anchor="middle" x="155.63" y="-101.99" font-family="Helvetica,sans-Serif" font-size="10.00" fill="#63b8ff">8</text>
</a>
</g>
</g>
<!-- dir_e604caeefe8dc0bc7496e5d5ddab5bc8&#45;&gt;dir_68267d1309a1af8e8297ef4c3efbcdba -->
<g id="edge4" class="edge">
<title>dir_e604caeefe8dc0bc7496e5d5ddab5bc8&#45;&gt;dir_68267d1309a1af8e8297ef4c3efbcdba</title>
<path fill="none" stroke="#63b8ff" d="M144.29,-127.53C170.46,-120.37 209.9,-107.77 241,-90 263.5,-77.15 285.85,-57.42 300.43,-43.36"/>
<polygon fill="#63b8ff" stroke="#63b8ff" points="302.7,-46.04 307.35,-36.52 297.78,-41.06 302.7,-46.04"/>
<g id="a_edge4&#45;headlabel"><a xlink:href="dir_000039_000153.html" target="_top" xlink:title="53">
<text text-anchor="middle" x="303.21" y="-47.02" font-family="Helvetica,sans-Serif" font-size="10.00" fill="#63b8ff">53</text>
</a>
</g>
</g>
<!-- dir_3d41a4446253bd4211a295d312a1a5af -->
<g id="node5" class="node">
<title>dir_3d41a4446253bd4211a295d312a1a5af</title>
<g id="a_node5"><a xlink:href="dir_3d41a4446253bd4211a295d312a1a5af.html" target="_top" xlink:title="opengl">
<polygon fill="#a2b4d6" stroke="#404040" points="207.5,-145 162.5,-145 162.5,-126 207.5,-126 207.5,-145"/>
<text text-anchor="middle" x="185" y="-133" font-family="Helvetica,sans-Serif" font-size="10.00">opengl</text>
</a>
</g>
</g>
<!-- dir_3d41a4446253bd4211a295d312a1a5af&#45;&gt;dir_18cb38c735f8a580e1e086510eb8c495 -->
<g id="edge7" class="edge">
<title>dir_3d41a4446253bd4211a295d312a1a5af&#45;&gt;dir_18cb38c735f8a580e1e086510eb8c495</title>
<path fill="none" stroke="#63b8ff" d="M175.7,-125.75C167.19,-117.31 154.78,-103.81 147,-90 139.23,-76.2 133.77,-59.08 130.38,-46.09"/>
<polygon fill="#63b8ff" stroke="#63b8ff" points="133.84,-45.53 128.1,-36.62 127.04,-47.17 133.84,-45.53"/>
<g id="a_edge7&#45;headlabel"><a xlink:href="dir_000104_000119.html" target="_top" xlink:title="7">
<text text-anchor="middle" x="137.09" y="-44.38" font-family="Helvetica,sans-Serif" font-size="10.00" fill="#63b8ff">7</text>
</a>
</g>
</g>
<!-- dir_3d41a4446253bd4211a295d312a1a5af&#45;&gt;dir_aeed45be98285214c75ce59c2db68594 -->
<g id="edge8" class="edge">
<title>dir_3d41a4446253bd4211a295d312a1a5af&#45;&gt;dir_aeed45be98285214c75ce59c2db68594</title>
<path fill="none" stroke="#63b8ff" d="M182.52,-125.75C180.65,-119.11 177.99,-109.73 175.61,-101.31"/>
<polygon fill="#63b8ff" stroke="#63b8ff" points="179.03,-100.57 172.94,-91.9 172.3,-102.47 179.03,-100.57"/>
<g id="a_edge8&#45;headlabel"><a xlink:href="dir_000104_000008.html" target="_top" xlink:title="9">
<text text-anchor="middle" x="182.33" y="-99.3" font-family="Helvetica,sans-Serif" font-size="10.00" fill="#63b8ff">9</text>
</a>
</g>
</g>
<!-- dir_3d41a4446253bd4211a295d312a1a5af&#45;&gt;dir_68267d1309a1af8e8297ef4c3efbcdba -->
<g id="edge6" class="edge">
<title>dir_3d41a4446253bd4211a295d312a1a5af&#45;&gt;dir_68267d1309a1af8e8297ef4c3efbcdba</title>
<path fill="none" stroke="#63b8ff" d="M207.56,-126.63C233.57,-117.21 274.26,-101.29 286,-90 298.45,-78.03 306.58,-60.02 311.38,-46.24"/>
<polygon fill="#63b8ff" stroke="#63b8ff" points="314.65,-47.5 314.31,-36.91 307.97,-45.41 314.65,-47.5"/>
<g id="a_edge6&#45;headlabel"><a xlink:href="dir_000104_000153.html" target="_top" xlink:title="45">
<text text-anchor="middle" x="316.73" y="-47.84" font-family="Helvetica,sans-Serif" font-size="10.00" fill="#63b8ff">45</text>
</a>
</g>
</g>
<!-- dir_c7918647fe53d1e1e2a918714036f1c2 -->
<g id="node6" class="node">
<title>dir_c7918647fe53d1e1e2a918714036f1c2</title>
<g id="a_node6"><a xlink:href="dir_c7918647fe53d1e1e2a918714036f1c2.html" target="_top" xlink:title="vulkan">
<polygon fill="#a2b4d6" stroke="#404040" points="69.5,-145 24.5,-145 24.5,-126 69.5,-126 69.5,-145"/>
<text text-anchor="middle" x="47" y="-133" font-family="Helvetica,sans-Serif" font-size="10.00">vulkan</text>
</a>
</g>
</g>
<!-- dir_c7918647fe53d1e1e2a918714036f1c2&#45;&gt;dir_18cb38c735f8a580e1e086510eb8c495 -->
<g id="edge11" class="edge">
<title>dir_c7918647fe53d1e1e2a918714036f1c2&#45;&gt;dir_18cb38c735f8a580e1e086510eb8c495</title>
<path fill="none" stroke="#63b8ff" d="M53.46,-125.66C66.37,-108.02 95.55,-68.12 112.71,-44.67"/>
<polygon fill="#63b8ff" stroke="#63b8ff" points="115.47,-46.82 118.55,-36.68 109.82,-42.69 115.47,-46.82"/>
<g id="a_edge11&#45;headlabel"><a xlink:href="dir_000168_000119.html" target="_top" xlink:title="6">
<text text-anchor="middle" x="116.54" y="-47.68" font-family="Helvetica,sans-Serif" font-size="10.00" fill="#63b8ff">6</text>
</a>
</g>
</g>
<!-- dir_c7918647fe53d1e1e2a918714036f1c2&#45;&gt;dir_aeed45be98285214c75ce59c2db68594 -->
<g id="edge10" class="edge">
<title>dir_c7918647fe53d1e1e2a918714036f1c2&#45;&gt;dir_aeed45be98285214c75ce59c2db68594</title>
<path fill="none" stroke="#63b8ff" d="M68.83,-125.55C87.81,-117.7 116.31,-105.78 144.67,-93.24"/>
<polygon fill="#63b8ff" stroke="#63b8ff" points="146,-96.48 153.71,-89.21 143.15,-90.08 146,-96.48"/>
<g id="a_edge10&#45;headlabel"><a xlink:href="dir_000168_000008.html" target="_top" xlink:title="9">
<text text-anchor="middle" x="145.25" y="-97.42" font-family="Helvetica,sans-Serif" font-size="10.00" fill="#63b8ff">9</text>
</a>
</g>
</g>
<!-- dir_c7918647fe53d1e1e2a918714036f1c2&#45;&gt;dir_68267d1309a1af8e8297ef4c3efbcdba -->
<g id="edge9" class="edge">
<title>dir_c7918647fe53d1e1e2a918714036f1c2&#45;&gt;dir_68267d1309a1af8e8297ef4c3efbcdba</title>
<path fill="none" stroke="#63b8ff" d="M70,-128.23C105.39,-118.46 171.48,-99.73 194,-90 216.12,-80.45 219.68,-74.22 241,-63 257.51,-54.31 276.43,-45.22 291.26,-38.29"/>
<polygon fill="#63b8ff" stroke="#63b8ff" points="292.72,-41.47 300.32,-34.08 289.78,-35.11 292.72,-41.47"/>
<g id="a_edge9&#45;headlabel"><a xlink:href="dir_000168_000153.html" target="_top" xlink:title="51">
<text text-anchor="middle" x="292.03" y="-42.42" font-family="Helvetica,sans-Serif" font-size="10.00" fill="#63b8ff">51</text>
</a>
</g>
</g>
</g>
</svg>
