<?xml version="1.0" encoding="UTF-8" standalone="no"?>
<!DOCTYPE svg PUBLIC "-//W3C//DTD SVG 1.1//EN"
 "http://www.w3.org/Graphics/SVG/1.1/DTD/svg11.dtd">
<!-- Generated by graphviz version 7.0.5 (20221223.1930)
 -->
<!-- Title: plugins/renderer/api/src/Madgine/render Pages: 1 -->
<svg width="235pt" height="180pt"
 viewBox="0.00 0.00 235.38 180.00" xmlns="http://www.w3.org/2000/svg" xmlns:xlink="http://www.w3.org/1999/xlink">
<g id="graph0" class="graph" transform="scale(1 1) rotate(0) translate(4 176)">
<title>plugins/renderer/api/src/Madgine/render</title>
<g id="clust1" class="cluster">
<title>clusterdir_c023e4bc8451a9bb300ba3e336162a1f</title>
<g id="a_clust1"><a xlink:href="dir_c023e4bc8451a9bb300ba3e336162a1f.html" target="_top" xlink:title="Madgine">
<polygon fill="#edf0f7" stroke="#7f7f7f" stroke-dasharray="5,2" points="17.5,-39 17.5,-164 195.5,-164 195.5,-39 17.5,-39"/>
<text text-anchor="middle" x="106.5" y="-152" font-family="Helvetica,sans-Serif" font-size="10.00">Madgine</text>
</a>
</g>
</g>
<g id="clust2" class="cluster">
<title>clusterdir_a392dffa7da8456ae62dfaf894c3520d</title>
<g id="a_clust2"><a xlink:href="dir_a392dffa7da8456ae62dfaf894c3520d.html" target="_top">
<polygon fill="#edf0f7" stroke="#404040" stroke-width="2" points="25.5,-47 25.5,-137 187.5,-137 187.5,-47 25.5,-47"/>
</a>
</g>
</g>
<!-- dir_a392dffa7da8456ae62dfaf894c3520d -->
<g id="node1" class="node">
<title>dir_a392dffa7da8456ae62dfaf894c3520d</title>
<text text-anchor="middle" x="55.5" y="-117" font-family="Helvetica,sans-Serif" font-size="10.00">render</text>
</g>
<!-- dir_cf43dc1a045173a018b11c296310dd6f -->
<g id="node2" class="node">
<title>dir_cf43dc1a045173a018b11c296310dd6f</title>
<g id="a_node2"><a xlink:href="dir_cf43dc1a045173a018b11c296310dd6f.html" target="_top" xlink:title="fonts">
<polygon fill="#a2b4d6" stroke="#404040" points="71.5,-74 33.5,-74 33.5,-55 71.5,-55 71.5,-74"/>
<text text-anchor="middle" x="52.5" y="-62" font-family="Helvetica,sans-Serif" font-size="10.00">fonts</text>
</a>
</g>
</g>
<!-- dir_a392dffa7da8456ae62dfaf894c3520d&#45;&gt;dir_cf43dc1a045173a018b11c296310dd6f -->
<g id="edge3" class="edge">
<title>dir_a392dffa7da8456ae62dfaf894c3520d&#45;&gt;dir_cf43dc1a045173a018b11c296310dd6f</title>
<path fill="none" stroke="#63b8ff" d="M55.03,-110.22C54.66,-103.65 54.12,-94.18 53.64,-85.64"/>
<polygon fill="#63b8ff" stroke="#63b8ff" points="57.14,-85.55 53.08,-75.76 50.15,-85.94 57.14,-85.55"/>
<g id="a_edge3&#45;headlabel"><a xlink:href="dir_000114_000047.html" target="_top" xlink:title="1">
<text text-anchor="middle" x="60.09" y="-84.97" font-family="Helvetica,sans-Serif" font-size="10.00" fill="#63b8ff">1</text>
</a>
</g>
</g>
<!-- dir_18cb38c735f8a580e1e086510eb8c495 -->
<g id="node5" class="node">
<title>dir_18cb38c735f8a580e1e086510eb8c495</title>
<g id="a_node5"><a xlink:href="dir_18cb38c735f8a580e1e086510eb8c495.html" target="_top" xlink:title="resources">
<polygon fill="#edf0f7" stroke="red" stroke-dasharray="5,2" points="59,-19 0,-19 0,0 59,0 59,-19"/>
<text text-anchor="middle" x="29.5" y="-7" font-family="Helvetica,sans-Serif" font-size="10.00">resources</text>
</a>
</g>
</g>
<!-- dir_a392dffa7da8456ae62dfaf894c3520d&#45;&gt;dir_18cb38c735f8a580e1e086510eb8c495 -->
<g id="edge1" class="edge">
<title>dir_a392dffa7da8456ae62dfaf894c3520d&#45;&gt;dir_18cb38c735f8a580e1e086510eb8c495</title>
<path fill="none" stroke="#63b8ff" d="M47.31,-110.17C39.72,-101.82 28.96,-88.19 24.5,-74 20.08,-59.91 21.63,-43.25 24.12,-30.53"/>
<polygon fill="#63b8ff" stroke="#63b8ff" points="27.52,-31.37 26.4,-20.84 20.71,-29.77 27.52,-31.37"/>
<g id="a_edge1&#45;headlabel"><a xlink:href="dir_000114_000119.html" target="_top" xlink:title="5">
<text text-anchor="middle" x="29.81" y="-31.55" font-family="Helvetica,sans-Serif" font-size="10.00" fill="#63b8ff">5</text>
</a>
</g>
</g>
<!-- dir_68267d1309a1af8e8297ef4c3efbcdba -->
<g id="node6" class="node">
<title>dir_68267d1309a1af8e8297ef4c3efbcdba</title>
<g id="a_node6"><a xlink:href="dir_68267d1309a1af8e8297ef4c3efbcdba.html" target="_top" xlink:title="src">
<polygon fill="#edf0f7" stroke="red" points="185.5,-19 155.5,-19 155.5,0 185.5,0 185.5,-19"/>
<text text-anchor="middle" x="170.5" y="-7" font-family="Helvetica,sans-Serif" font-size="10.00">src</text>
</a>
</g>
</g>
<!-- dir_a392dffa7da8456ae62dfaf894c3520d&#45;&gt;dir_68267d1309a1af8e8297ef4c3efbcdba -->
<g id="edge2" class="edge">
<title>dir_a392dffa7da8456ae62dfaf894c3520d&#45;&gt;dir_68267d1309a1af8e8297ef4c3efbcdba</title>
<path fill="none" stroke="#63b8ff" d="M77.48,-114.35C111.74,-107.38 175.34,-92.28 188.5,-74 198.11,-60.65 191.28,-42.29 183.42,-28.75"/>
<polygon fill="#63b8ff" stroke="#63b8ff" points="186.38,-26.88 178.02,-20.38 180.5,-30.68 186.38,-26.88"/>
<g id="a_edge2&#45;headlabel"><a xlink:href="dir_000114_000153.html" target="_top" xlink:title="75">
<text text-anchor="middle" x="189.9" y="-24.59" font-family="Helvetica,sans-Serif" font-size="10.00" fill="#63b8ff">75</text>
</a>
</g>
</g>
<!-- dir_cf43dc1a045173a018b11c296310dd6f&#45;&gt;dir_18cb38c735f8a580e1e086510eb8c495 -->
<g id="edge4" class="edge">
<title>dir_cf43dc1a045173a018b11c296310dd6f&#45;&gt;dir_18cb38c735f8a580e1e086510eb8c495</title>
<path fill="none" stroke="#63b8ff" d="M48.7,-54.75C45.76,-47.96 41.56,-38.3 37.85,-29.73"/>
<polygon fill="#63b8ff" stroke="#63b8ff" points="41.17,-28.61 33.98,-20.83 34.75,-31.4 41.17,-28.61"/>
<g id="a_edge4&#45;headlabel"><a xlink:href="dir_000047_000119.html" target="_top" xlink:title="1">
<text text-anchor="middle" x="44.61" y="-26.89" font-family="Helvetica,sans-Serif" font-size="10.00" fill="#63b8ff">1</text>
</a>
</g>
</g>
<!-- dir_cf43dc1a045173a018b11c296310dd6f&#45;&gt;dir_68267d1309a1af8e8297ef4c3efbcdba -->
<g id="edge5" class="edge">
<title>dir_cf43dc1a045173a018b11c296310dd6f&#45;&gt;dir_68267d1309a1af8e8297ef4c3efbcdba</title>
<path fill="none" stroke="#63b8ff" d="M60.96,-54.79C66.42,-49.6 73.89,-43.21 81.5,-39 101.29,-28.04 125.93,-20.56 144.26,-16.03"/>
<polygon fill="#63b8ff" stroke="#63b8ff" points="144.86,-19.48 153.81,-13.81 143.28,-12.66 144.86,-19.48"/>
<g id="a_edge5&#45;headlabel"><a xlink:href="dir_000047_000153.html" target="_top" xlink:title="19">
<text text-anchor="middle" x="143.48" y="-20.22" font-family="Helvetica,sans-Serif" font-size="10.00" fill="#63b8ff">19</text>
</a>
</g>
</g>
<!-- dir_d9bc6bc6b253e27761ac0fa58dd9bb8e -->
<g id="node3" class="node">
<title>dir_d9bc6bc6b253e27761ac0fa58dd9bb8e</title>
<g id="a_node3"><a xlink:href="dir_d9bc6bc6b253e27761ac0fa58dd9bb8e.html" target="_top" xlink:title="passes">
<polygon fill="#a2b4d6" stroke="#404040" points="168.5,-129 120.5,-129 120.5,-110 168.5,-110 168.5,-129"/>
<text text-anchor="middle" x="144.5" y="-117" font-family="Helvetica,sans-Serif" font-size="10.00">passes</text>
</a>
</g>
</g>
<!-- dir_4763950fc81aaae2a18a7da446deb523 -->
<g id="node4" class="node">
<title>dir_4763950fc81aaae2a18a7da446deb523</title>
<g id="a_node4"><a xlink:href="dir_4763950fc81aaae2a18a7da446deb523.html" target="_top" xlink:title="shadinglanguage">
<polygon fill="#a2b4d6" stroke="#404040" points="179,-74 90,-74 90,-55 179,-55 179,-74"/>
<text text-anchor="middle" x="134.5" y="-62" font-family="Helvetica,sans-Serif" font-size="10.00">shadinglanguage</text>
</a>
</g>
</g>
<!-- dir_d9bc6bc6b253e27761ac0fa58dd9bb8e&#45;&gt;dir_4763950fc81aaae2a18a7da446deb523 -->
<g id="edge6" class="edge">
<title>dir_d9bc6bc6b253e27761ac0fa58dd9bb8e&#45;&gt;dir_4763950fc81aaae2a18a7da446deb523</title>
<path fill="none" stroke="#63b8ff" d="M142.85,-109.75C141.61,-103.19 139.87,-93.95 138.29,-85.6"/>
<polygon fill="#63b8ff" stroke="#63b8ff" points="141.76,-85.11 136.47,-75.93 134.88,-86.4 141.76,-85.11"/>
<g id="a_edge6&#45;headlabel"><a xlink:href="dir_000106_000130.html" target="_top" xlink:title="4">
<text text-anchor="middle" x="144.94" y="-84.13" font-family="Helvetica,sans-Serif" font-size="10.00" fill="#63b8ff">4</text>
</a>
</g>
</g>
<!-- dir_d9bc6bc6b253e27761ac0fa58dd9bb8e&#45;&gt;dir_68267d1309a1af8e8297ef4c3efbcdba -->
<g id="edge7" class="edge">
<title>dir_d9bc6bc6b253e27761ac0fa58dd9bb8e&#45;&gt;dir_68267d1309a1af8e8297ef4c3efbcdba</title>
<path fill="none" stroke="#63b8ff" d="M168.69,-111.73C186.77,-105.25 210.23,-93.52 221.5,-74 229.27,-60.53 229.37,-52.42 221.5,-39 215.91,-29.47 205.83,-22.88 196.11,-18.47"/>
<polygon fill="#63b8ff" stroke="#63b8ff" points="197.53,-15.27 186.94,-14.91 195,-21.79 197.53,-15.27"/>
<g id="a_edge7&#45;headlabel"><a xlink:href="dir_000106_000153.html" target="_top" xlink:title="4">
<text text-anchor="middle" x="200.5" y="-10.87" font-family="Helvetica,sans-Serif" font-size="10.00" fill="#63b8ff">4</text>
</a>
</g>
</g>
<!-- dir_4763950fc81aaae2a18a7da446deb523&#45;&gt;dir_68267d1309a1af8e8297ef4c3efbcdba -->
<g id="edge8" class="edge">
<title>dir_4763950fc81aaae2a18a7da446deb523&#45;&gt;dir_68267d1309a1af8e8297ef4c3efbcdba</title>
<path fill="none" stroke="#63b8ff" d="M140.44,-54.75C145.21,-47.73 152.06,-37.64 158.02,-28.87"/>
<polygon fill="#63b8ff" stroke="#63b8ff" points="160.85,-30.93 163.58,-20.69 155.06,-27 160.85,-30.93"/>
<g id="a_edge8&#45;headlabel"><a xlink:href="dir_000130_000153.html" target="_top" xlink:title="2">
<text text-anchor="middle" x="162.03" y="-31.75" font-family="Helvetica,sans-Serif" font-size="10.00" fill="#63b8ff">2</text>
</a>
</g>
</g>
</g>
</svg>
