<?xml version="1.0" encoding="UTF-8" standalone="no"?>
<!DOCTYPE svg PUBLIC "-//W3C//DTD SVG 1.1//EN"
 "http://www.w3.org/Graphics/SVG/1.1/DTD/svg11.dtd">
<!-- Generated by graphviz version 7.0.5 (20221223.1930)
 -->
<!-- Title: plugins/behavior/python3/src Pages: 1 -->
<svg width="275pt" height="125pt"
 viewBox="0.00 0.00 275.00 125.00" xmlns="http://www.w3.org/2000/svg" xmlns:xlink="http://www.w3.org/1999/xlink">
<g id="graph0" class="graph" transform="scale(1 1) rotate(0) translate(4 121)">
<title>plugins/behavior/python3/src</title>
<g id="clust1" class="cluster">
<title>clusterdir_a9ff606b9f3801f4413d93ed30fb82ff</title>
<g id="a_clust1"><a xlink:href="dir_a9ff606b9f3801f4413d93ed30fb82ff.html" target="_top" xlink:title="python3">
<polygon fill="#edf0f7" stroke="#7f7f7f" stroke-dasharray="5,2" points="105.5,-39 105.5,-109 237.5,-109 237.5,-39 105.5,-39"/>
<text text-anchor="middle" x="171.5" y="-97" font-family="Helvetica,sans-Serif" font-size="10.00">python3</text>
</a>
</g>
</g>
<g id="clust2" class="cluster">
<title>clusterdir_6ee92aafa61edc4fe6978c3f15b1b05e</title>
<g id="a_clust2"><a xlink:href="dir_6ee92aafa61edc4fe6978c3f15b1b05e.html" target="_top">
<polygon fill="#edf0f7" stroke="#404040" stroke-width="2" points="113.5,-47 113.5,-82 229.5,-82 229.5,-47 113.5,-47"/>
</a>
</g>
</g>
<!-- dir_6ee92aafa61edc4fe6978c3f15b1b05e -->
<g id="node1" class="node">
<title>dir_6ee92aafa61edc4fe6978c3f15b1b05e</title>
<text text-anchor="middle" x="206.5" y="-62" font-family="Helvetica,sans-Serif" font-size="10.00">src</text>
</g>
<!-- dir_6ca745c7d7ee39eb5ceadd08521cd194 -->
<g id="node2" class="node">
<title>dir_6ca745c7d7ee39eb5ceadd08521cd194</title>
<g id="a_node2"><a xlink:href="dir_6ca745c7d7ee39eb5ceadd08521cd194.html" target="_top" xlink:title="Python3">
<polygon fill="#a2b4d6" stroke="#404040" points="173.5,-74 121.5,-74 121.5,-55 173.5,-55 173.5,-74"/>
<text text-anchor="middle" x="147.5" y="-62" font-family="Helvetica,sans-Serif" font-size="10.00">Python3</text>
</a>
</g>
</g>
<!-- dir_18cb38c735f8a580e1e086510eb8c495 -->
<g id="node3" class="node">
<title>dir_18cb38c735f8a580e1e086510eb8c495</title>
<g id="a_node3"><a xlink:href="dir_18cb38c735f8a580e1e086510eb8c495.html" target="_top" xlink:title="resources">
<polygon fill="#edf0f7" stroke="red" stroke-dasharray="5,2" points="59,-19 0,-19 0,0 59,0 59,-19"/>
<text text-anchor="middle" x="29.5" y="-7" font-family="Helvetica,sans-Serif" font-size="10.00">resources</text>
</a>
</g>
</g>
<!-- dir_6ca745c7d7ee39eb5ceadd08521cd194&#45;&gt;dir_18cb38c735f8a580e1e086510eb8c495 -->
<g id="edge1" class="edge">
<title>dir_6ca745c7d7ee39eb5ceadd08521cd194&#45;&gt;dir_18cb38c735f8a580e1e086510eb8c495</title>
<path fill="none" stroke="#63b8ff" d="M127.48,-54.51C108.89,-46.16 80.96,-33.61 59.67,-24.05"/>
<polygon fill="#63b8ff" stroke="#63b8ff" points="61.16,-20.88 50.6,-19.98 58.29,-27.27 61.16,-20.88"/>
<g id="a_edge1&#45;headlabel"><a xlink:href="dir_000112_000119.html" target="_top" xlink:title="2">
<text text-anchor="middle" x="64.22" y="-16.65" font-family="Helvetica,sans-Serif" font-size="10.00" fill="#63b8ff">2</text>
</a>
</g>
</g>
<!-- dir_68267d1309a1af8e8297ef4c3efbcdba -->
<g id="node4" class="node">
<title>dir_68267d1309a1af8e8297ef4c3efbcdba</title>
<g id="a_node4"><a xlink:href="dir_68267d1309a1af8e8297ef4c3efbcdba.html" target="_top" xlink:title="src">
<polygon fill="#edf0f7" stroke="red" points="107.5,-19 77.5,-19 77.5,0 107.5,0 107.5,-19"/>
<text text-anchor="middle" x="92.5" y="-7" font-family="Helvetica,sans-Serif" font-size="10.00">src</text>
</a>
</g>
</g>
<!-- dir_6ca745c7d7ee39eb5ceadd08521cd194&#45;&gt;dir_68267d1309a1af8e8297ef4c3efbcdba -->
<g id="edge2" class="edge">
<title>dir_6ca745c7d7ee39eb5ceadd08521cd194&#45;&gt;dir_68267d1309a1af8e8297ef4c3efbcdba</title>
<path fill="none" stroke="#63b8ff" d="M138.42,-54.75C130.66,-47.27 119.29,-36.32 109.8,-27.17"/>
<polygon fill="#63b8ff" stroke="#63b8ff" points="112.5,-24.91 102.87,-20.49 107.64,-29.95 112.5,-24.91"/>
<g id="a_edge2&#45;headlabel"><a xlink:href="dir_000112_000153.html" target="_top" xlink:title="67">
<text text-anchor="middle" x="115.97" y="-21.81" font-family="Helvetica,sans-Serif" font-size="10.00" fill="#63b8ff">67</text>
</a>
</g>
</g>
<!-- dir_6e88b2e4d8b32e1638ce514da6209492 -->
<g id="node5" class="node">
<title>dir_6e88b2e4d8b32e1638ce514da6209492</title>
<g id="a_node5"><a xlink:href="dir_6e88b2e4d8b32e1638ce514da6209492.html" target="_top" xlink:title="debug">
<polygon fill="#edf0f7" stroke="red" stroke-dasharray="5,2" points="169,-19 126,-19 126,0 169,0 169,-19"/>
<text text-anchor="middle" x="147.5" y="-7" font-family="Helvetica,sans-Serif" font-size="10.00">debug</text>
</a>
</g>
</g>
<!-- dir_6ca745c7d7ee39eb5ceadd08521cd194&#45;&gt;dir_6e88b2e4d8b32e1638ce514da6209492 -->
<g id="edge3" class="edge">
<title>dir_6ca745c7d7ee39eb5ceadd08521cd194&#45;&gt;dir_6e88b2e4d8b32e1638ce514da6209492</title>
<path fill="none" stroke="#63b8ff" d="M147.5,-54.75C147.5,-48.27 147.5,-39.16 147.5,-30.9"/>
<polygon fill="#63b8ff" stroke="#63b8ff" points="151,-30.96 147.5,-20.96 144,-30.96 151,-30.96"/>
<g id="a_edge3&#45;headlabel"><a xlink:href="dir_000112_000035.html" target="_top" xlink:title="4">
<text text-anchor="middle" x="153.84" y="-30.54" font-family="Helvetica,sans-Serif" font-size="10.00" fill="#63b8ff">4</text>
</a>
</g>
</g>
<!-- dir_a43d145ffbe64deac948a04a80a43b61 -->
<g id="node6" class="node">
<title>dir_a43d145ffbe64deac948a04a80a43b61</title>
<g id="a_node6"><a xlink:href="dir_a43d145ffbe64deac948a04a80a43b61.html" target="_top" xlink:title="root">
<polygon fill="#edf0f7" stroke="red" stroke-dasharray="5,2" points="220,-19 187,-19 187,0 220,0 220,-19"/>
<text text-anchor="middle" x="203.5" y="-7" font-family="Helvetica,sans-Serif" font-size="10.00">root</text>
</a>
</g>
</g>
<!-- dir_6ca745c7d7ee39eb5ceadd08521cd194&#45;&gt;dir_a43d145ffbe64deac948a04a80a43b61 -->
<g id="edge4" class="edge">
<title>dir_6ca745c7d7ee39eb5ceadd08521cd194&#45;&gt;dir_a43d145ffbe64deac948a04a80a43b61</title>
<path fill="none" stroke="#63b8ff" d="M157,-54.51C164.93,-47 176.45,-36.1 186.04,-27.03"/>
<polygon fill="#63b8ff" stroke="#63b8ff" points="188.18,-29.81 193.04,-20.4 183.37,-24.73 188.18,-29.81"/>
<g id="a_edge4&#45;headlabel"><a xlink:href="dir_000112_000121.html" target="_top" xlink:title="5">
<text text-anchor="middle" x="188.62" y="-30.81" font-family="Helvetica,sans-Serif" font-size="10.00" fill="#63b8ff">5</text>
</a>
</g>
</g>
<!-- dir_fd844bac20a88d0c302e5ffc8d80306f -->
<g id="node7" class="node">
<title>dir_fd844bac20a88d0c302e5ffc8d80306f</title>
<g id="a_node7"><a xlink:href="dir_fd844bac20a88d0c302e5ffc8d80306f.html" target="_top" xlink:title="api">
<polygon fill="#edf0f7" stroke="red" stroke-dasharray="5,2" points="267,-19 238,-19 238,0 267,0 267,-19"/>
<text text-anchor="middle" x="252.5" y="-7" font-family="Helvetica,sans-Serif" font-size="10.00">api</text>
</a>
</g>
</g>
<!-- dir_6ca745c7d7ee39eb5ceadd08521cd194&#45;&gt;dir_fd844bac20a88d0c302e5ffc8d80306f -->
<g id="edge5" class="edge">
<title>dir_6ca745c7d7ee39eb5ceadd08521cd194&#45;&gt;dir_fd844bac20a88d0c302e5ffc8d80306f</title>
<path fill="none" stroke="#63b8ff" d="M158.75,-54.66C165.41,-49.67 174.16,-43.54 182.5,-39 190.51,-34.64 210.44,-26.62 227,-20.19"/>
<polygon fill="#63b8ff" stroke="#63b8ff" points="228.24,-23.46 236.32,-16.61 225.73,-16.93 228.24,-23.46"/>
<g id="a_edge5&#45;headlabel"><a xlink:href="dir_000112_000005.html" target="_top" xlink:title="6">
<text text-anchor="middle" x="227.32" y="-24.36" font-family="Helvetica,sans-Serif" font-size="10.00" fill="#63b8ff">6</text>
</a>
</g>
</g>
</g>
</svg>
