<?xml version="1.0" encoding="UTF-8" standalone="no"?>
<!DOCTYPE svg PUBLIC "-//W3C//DTD SVG 1.1//EN"
 "http://www.w3.org/Graphics/SVG/1.1/DTD/svg11.dtd">
<!-- Generated by graphviz version 7.0.5 (20221223.1930)
 -->
<!-- Title: plugins/debug Pages: 1 -->
<svg width="177pt" height="141pt"
 viewBox="0.00 0.00 177.00 141.00" xmlns="http://www.w3.org/2000/svg" xmlns:xlink="http://www.w3.org/1999/xlink">
<g id="graph0" class="graph" transform="scale(1 1) rotate(0) translate(4 137)">
<title>plugins/debug</title>
<g id="clust1" class="cluster">
<title>clusterdir_38c8d24aef3972a7f87b834274e76e31</title>
<g id="a_clust1"><a xlink:href="dir_38c8d24aef3972a7f87b834274e76e31.html" target="_top" xlink:title="plugins">
<polygon fill="#edf0f7" stroke="#404040" stroke-dasharray="5,2" points="8,-8 8,-125 131,-125 131,-8 8,-8"/>
<text text-anchor="middle" x="69.5" y="-113" font-family="Helvetica,sans-Serif" font-size="10.00">plugins</text>
</a>
</g>
</g>
<g id="clust2" class="cluster">
<title>clusterdir_6e88b2e4d8b32e1638ce514da6209492</title>
<g id="a_clust2"><a xlink:href="dir_6e88b2e4d8b32e1638ce514da6209492.html" target="_top">
<polygon fill="#edf0f7" stroke="#404040" stroke-width="2" points="16,-63 16,-98 123,-98 123,-63 16,-63"/>
</a>
</g>
</g>
<!-- dir_a43d145ffbe64deac948a04a80a43b61 -->
<g id="node1" class="node">
<title>dir_a43d145ffbe64deac948a04a80a43b61</title>
<g id="a_node1"><a xlink:href="dir_a43d145ffbe64deac948a04a80a43b61.html" target="_top" xlink:title="root">
<polygon fill="#a2b4d6" stroke="red" points="55.5,-35 22.5,-35 22.5,-16 55.5,-16 55.5,-35"/>
<text text-anchor="middle" x="39" y="-23" font-family="Helvetica,sans-Serif" font-size="10.00">root</text>
</a>
</g>
</g>
<!-- dir_6e88b2e4d8b32e1638ce514da6209492 -->
<g id="node2" class="node">
<title>dir_6e88b2e4d8b32e1638ce514da6209492</title>
<text text-anchor="middle" x="93" y="-78" font-family="Helvetica,sans-Serif" font-size="10.00">debug</text>
</g>
<!-- dir_23726cb245eace3bcedd5a362697ca62 -->
<g id="node3" class="node">
<title>dir_23726cb245eace3bcedd5a362697ca62</title>
<g id="a_node3"><a xlink:href="dir_23726cb245eace3bcedd5a362697ca62.html" target="_top" xlink:title="api">
<polygon fill="#a2b4d6" stroke="#404040" points="53.5,-90 24.5,-90 24.5,-71 53.5,-71 53.5,-90"/>
<text text-anchor="middle" x="39" y="-78" font-family="Helvetica,sans-Serif" font-size="10.00">api</text>
</a>
</g>
</g>
<!-- dir_23726cb245eace3bcedd5a362697ca62&#45;&gt;dir_a43d145ffbe64deac948a04a80a43b61 -->
<g id="edge2" class="edge">
<title>dir_23726cb245eace3bcedd5a362697ca62&#45;&gt;dir_a43d145ffbe64deac948a04a80a43b61</title>
<path fill="none" stroke="#63b8ff" d="M39,-70.75C39,-64.27 39,-55.16 39,-46.9"/>
<polygon fill="#63b8ff" stroke="#63b8ff" points="42.5,-46.96 39,-36.96 35.5,-46.96 42.5,-46.96"/>
<g id="a_edge2&#45;headlabel"><a xlink:href="dir_000007_000121.html" target="_top" xlink:title="4">
<text text-anchor="middle" x="45.34" y="-46.54" font-family="Helvetica,sans-Serif" font-size="10.00" fill="#63b8ff">4</text>
</a>
</g>
</g>
<!-- dir_68267d1309a1af8e8297ef4c3efbcdba -->
<g id="node4" class="node">
<title>dir_68267d1309a1af8e8297ef4c3efbcdba</title>
<g id="a_node4"><a xlink:href="dir_68267d1309a1af8e8297ef4c3efbcdba.html" target="_top" xlink:title="src">
<polygon fill="#edf0f7" stroke="red" points="169,-35 139,-35 139,-16 169,-16 169,-35"/>
<text text-anchor="middle" x="154" y="-23" font-family="Helvetica,sans-Serif" font-size="10.00">src</text>
</a>
</g>
</g>
<!-- dir_23726cb245eace3bcedd5a362697ca62&#45;&gt;dir_68267d1309a1af8e8297ef4c3efbcdba -->
<g id="edge1" class="edge">
<title>dir_23726cb245eace3bcedd5a362697ca62&#45;&gt;dir_68267d1309a1af8e8297ef4c3efbcdba</title>
<path fill="none" stroke="#63b8ff" d="M50.87,-70.54C54.63,-67.92 58.89,-65.18 63,-63 90.15,-48.64 100.99,-48.16 128.29,-37.62"/>
<polygon fill="#63b8ff" stroke="#63b8ff" points="129.31,-40.98 137.28,-34 126.69,-34.49 129.31,-40.98"/>
<g id="a_edge1&#45;headlabel"><a xlink:href="dir_000007_000153.html" target="_top" xlink:title="18">
<text text-anchor="middle" x="128.44" y="-41.89" font-family="Helvetica,sans-Serif" font-size="10.00" fill="#63b8ff">18</text>
</a>
</g>
</g>
</g>
</svg>
