<?xml version="1.0" encoding="UTF-8" standalone="no"?>
<!DOCTYPE svg PUBLIC "-//W3C//DTD SVG 1.1//EN"
 "http://www.w3.org/Graphics/SVG/1.1/DTD/svg11.dtd">
<!-- Generated by graphviz version 7.0.5 (20221223.1930)
 -->
<!-- Title: plugins/misc/scene/renderer_tools/Madgine_Tools Pages: 1 -->
<svg width="483pt" height="125pt"
 viewBox="0.00 0.00 483.00 125.00" xmlns="http://www.w3.org/2000/svg" xmlns:xlink="http://www.w3.org/1999/xlink">
<g id="graph0" class="graph" transform="scale(1 1) rotate(0) translate(4 121)">
<title>plugins/misc/scene/renderer_tools/Madgine_Tools</title>
<g id="clust1" class="cluster">
<title>clusterdir_05bf879588c9184a91828995b7c287fd</title>
<g id="a_clust1"><a xlink:href="dir_05bf879588c9184a91828995b7c287fd.html" target="_top" xlink:title="renderer_tools">
<polygon fill="#edf0f7" stroke="#7f7f7f" stroke-dasharray="5,2" points="29,-39 29,-109 230,-109 230,-39 29,-39"/>
<text text-anchor="middle" x="129.5" y="-97" font-family="Helvetica,sans-Serif" font-size="10.00">renderer_tools</text>
</a>
</g>
</g>
<g id="clust2" class="cluster">
<title>clusterdir_79b5c2fb7a660a91deecc23feab9a094</title>
<g id="a_clust2"><a xlink:href="dir_79b5c2fb7a660a91deecc23feab9a094.html" target="_top">
<polygon fill="#edf0f7" stroke="#404040" stroke-width="2" points="37,-47 37,-82 222,-82 222,-47 37,-47"/>
</a>
</g>
</g>
<!-- dir_79b5c2fb7a660a91deecc23feab9a094 -->
<g id="node1" class="node">
<title>dir_79b5c2fb7a660a91deecc23feab9a094</title>
<text text-anchor="middle" x="87" y="-62" font-family="Helvetica,sans-Serif" font-size="10.00">Madgine_Tools</text>
</g>
<!-- dir_68267d1309a1af8e8297ef4c3efbcdba -->
<g id="node3" class="node">
<title>dir_68267d1309a1af8e8297ef4c3efbcdba</title>
<g id="a_node3"><a xlink:href="dir_68267d1309a1af8e8297ef4c3efbcdba.html" target="_top" xlink:title="src">
<polygon fill="#edf0f7" stroke="red" points="30,-19 0,-19 0,0 30,0 30,-19"/>
<text text-anchor="middle" x="15" y="-7" font-family="Helvetica,sans-Serif" font-size="10.00">src</text>
</a>
</g>
</g>
<!-- dir_79b5c2fb7a660a91deecc23feab9a094&#45;&gt;dir_68267d1309a1af8e8297ef4c3efbcdba -->
<g id="edge1" class="edge">
<title>dir_79b5c2fb7a660a91deecc23feab9a094&#45;&gt;dir_68267d1309a1af8e8297ef4c3efbcdba</title>
<path fill="none" stroke="#63b8ff" d="M75.75,-55.22C65.16,-47.42 49.03,-35.55 36.06,-26"/>
<polygon fill="#63b8ff" stroke="#63b8ff" points="38.24,-23.26 28.11,-20.15 34.09,-28.9 38.24,-23.26"/>
<g id="a_edge1&#45;headlabel"><a xlink:href="dir_000089_000153.html" target="_top" xlink:title="19">
<text text-anchor="middle" x="41.6" y="-19.71" font-family="Helvetica,sans-Serif" font-size="10.00" fill="#63b8ff">19</text>
</a>
</g>
</g>
<!-- dir_c2fed6526e181bdb4377f81967619a80 -->
<g id="node4" class="node">
<title>dir_c2fed6526e181bdb4377f81967619a80</title>
<g id="a_node4"><a xlink:href="dir_c2fed6526e181bdb4377f81967619a80.html" target="_top" xlink:title="renderer">
<polygon fill="#edf0f7" stroke="red" stroke-dasharray="5,2" points="100,-19 48,-19 48,0 100,0 100,-19"/>
<text text-anchor="middle" x="74" y="-7" font-family="Helvetica,sans-Serif" font-size="10.00">renderer</text>
</a>
</g>
</g>
<!-- dir_79b5c2fb7a660a91deecc23feab9a094&#45;&gt;dir_c2fed6526e181bdb4377f81967619a80 -->
<g id="edge2" class="edge">
<title>dir_79b5c2fb7a660a91deecc23feab9a094&#45;&gt;dir_c2fed6526e181bdb4377f81967619a80</title>
<path fill="none" stroke="#63b8ff" d="M84.97,-55.22C83.34,-48.57 80.98,-38.96 78.87,-30.34"/>
<polygon fill="#63b8ff" stroke="#63b8ff" points="82.29,-29.6 76.51,-20.72 75.49,-31.27 82.29,-29.6"/>
<g id="a_edge2&#45;headlabel"><a xlink:href="dir_000089_000116.html" target="_top" xlink:title="3">
<text text-anchor="middle" x="85.54" y="-28.44" font-family="Helvetica,sans-Serif" font-size="10.00" fill="#63b8ff">3</text>
</a>
</g>
</g>
<!-- dir_c1da87bd407e5d2eabff1539a14ed801 -->
<g id="node2" class="node">
<title>dir_c1da87bd407e5d2eabff1539a14ed801</title>
<g id="a_node2"><a xlink:href="dir_c1da87bd407e5d2eabff1539a14ed801.html" target="_top" xlink:title="sceneeditor">
<polygon fill="#a2b4d6" stroke="#404040" points="213.5,-74 146.5,-74 146.5,-55 213.5,-55 213.5,-74"/>
<text text-anchor="middle" x="180" y="-62" font-family="Helvetica,sans-Serif" font-size="10.00">sceneeditor</text>
</a>
</g>
</g>
<!-- dir_c1da87bd407e5d2eabff1539a14ed801&#45;&gt;dir_68267d1309a1af8e8297ef4c3efbcdba -->
<g id="edge7" class="edge">
<title>dir_c1da87bd407e5d2eabff1539a14ed801&#45;&gt;dir_68267d1309a1af8e8297ef4c3efbcdba</title>
<path fill="none" stroke="#63b8ff" d="M166.98,-54.63C158.72,-49.38 147.62,-42.99 137,-39 98.48,-24.52 84,-29.9 41.25,-19.21"/>
<polygon fill="#63b8ff" stroke="#63b8ff" points="42.42,-15.9 31.85,-16.7 40.61,-22.66 42.42,-15.9"/>
<g id="a_edge7&#45;headlabel"><a xlink:href="dir_000125_000153.html" target="_top" xlink:title="17">
<text text-anchor="middle" x="45.16" y="-11.19" font-family="Helvetica,sans-Serif" font-size="10.00" fill="#63b8ff">17</text>
</a>
</g>
</g>
<!-- dir_c1da87bd407e5d2eabff1539a14ed801&#45;&gt;dir_c2fed6526e181bdb4377f81967619a80 -->
<g id="edge10" class="edge">
<title>dir_c1da87bd407e5d2eabff1539a14ed801&#45;&gt;dir_c2fed6526e181bdb4377f81967619a80</title>
<path fill="none" stroke="#63b8ff" d="M165.06,-54.53C156.88,-49.74 146.49,-43.84 137,-39 126.87,-33.84 115.61,-28.59 105.44,-24.03"/>
<polygon fill="#63b8ff" stroke="#63b8ff" points="106.89,-20.85 96.33,-20 104.06,-27.25 106.89,-20.85"/>
<g id="a_edge10&#45;headlabel"><a xlink:href="dir_000125_000116.html" target="_top" xlink:title="2">
<text text-anchor="middle" x="109.94" y="-16.59" font-family="Helvetica,sans-Serif" font-size="10.00" fill="#63b8ff">2</text>
</a>
</g>
</g>
<!-- dir_18cb38c735f8a580e1e086510eb8c495 -->
<g id="node5" class="node">
<title>dir_18cb38c735f8a580e1e086510eb8c495</title>
<g id="a_node5"><a xlink:href="dir_18cb38c735f8a580e1e086510eb8c495.html" target="_top" xlink:title="resources">
<polygon fill="#edf0f7" stroke="red" stroke-dasharray="5,2" points="296.5,-19 237.5,-19 237.5,0 296.5,0 296.5,-19"/>
<text text-anchor="middle" x="267" y="-7" font-family="Helvetica,sans-Serif" font-size="10.00">resources</text>
</a>
</g>
</g>
<!-- dir_c1da87bd407e5d2eabff1539a14ed801&#45;&gt;dir_18cb38c735f8a580e1e086510eb8c495 -->
<g id="edge3" class="edge">
<title>dir_c1da87bd407e5d2eabff1539a14ed801&#45;&gt;dir_18cb38c735f8a580e1e086510eb8c495</title>
<path fill="none" stroke="#63b8ff" d="M194.76,-54.51C207.96,-46.47 227.56,-34.53 243.01,-25.11"/>
<polygon fill="#63b8ff" stroke="#63b8ff" points="244.45,-28.34 251.17,-20.15 240.81,-22.36 244.45,-28.34"/>
<g id="a_edge3&#45;headlabel"><a xlink:href="dir_000125_000119.html" target="_top" xlink:title="3">
<text text-anchor="middle" x="244.15" y="-29.34" font-family="Helvetica,sans-Serif" font-size="10.00" fill="#63b8ff">3</text>
</a>
</g>
</g>
<!-- dir_74d4e5f47262527cf6938c6017890522 -->
<g id="node6" class="node">
<title>dir_74d4e5f47262527cf6938c6017890522</title>
<g id="a_node6"><a xlink:href="dir_74d4e5f47262527cf6938c6017890522.html" target="_top" xlink:title="renderer">
<polygon fill="#edf0f7" stroke="red" stroke-dasharray="5,2" points="367,-19 315,-19 315,0 367,0 367,-19"/>
<text text-anchor="middle" x="341" y="-7" font-family="Helvetica,sans-Serif" font-size="10.00">renderer</text>
</a>
</g>
</g>
<!-- dir_c1da87bd407e5d2eabff1539a14ed801&#45;&gt;dir_74d4e5f47262527cf6938c6017890522 -->
<g id="edge9" class="edge">
<title>dir_c1da87bd407e5d2eabff1539a14ed801&#45;&gt;dir_74d4e5f47262527cf6938c6017890522</title>
<path fill="none" stroke="#63b8ff" d="M207.31,-54.51C233.88,-45.76 274.45,-32.41 303.92,-22.71"/>
<polygon fill="#63b8ff" stroke="#63b8ff" points="304.78,-26.11 313.19,-19.66 302.59,-19.46 304.78,-26.11"/>
<g id="a_edge9&#45;headlabel"><a xlink:href="dir_000125_000117.html" target="_top" xlink:title="10">
<text text-anchor="middle" x="303.69" y="-26.95" font-family="Helvetica,sans-Serif" font-size="10.00" fill="#63b8ff">10</text>
</a>
</g>
</g>
<!-- dir_1da05fa7afbe4395eeb05c97a448f57a -->
<g id="node7" class="node">
<title>dir_1da05fa7afbe4395eeb05c97a448f57a</title>
<g id="a_node7"><a xlink:href="dir_1da05fa7afbe4395eeb05c97a448f57a.html" target="_top" xlink:title="client">
<polygon fill="#edf0f7" stroke="red" stroke-dasharray="5,2" points="425,-19 385,-19 385,0 425,0 425,-19"/>
<text text-anchor="middle" x="405" y="-7" font-family="Helvetica,sans-Serif" font-size="10.00">client</text>
</a>
</g>
</g>
<!-- dir_c1da87bd407e5d2eabff1539a14ed801&#45;&gt;dir_1da05fa7afbe4395eeb05c97a448f57a -->
<g id="edge4" class="edge">
<title>dir_c1da87bd407e5d2eabff1539a14ed801&#45;&gt;dir_1da05fa7afbe4395eeb05c97a448f57a</title>
<path fill="none" stroke="#63b8ff" d="M213.79,-56.49C250.76,-48.68 311.99,-35.32 373.66,-19.48"/>
<polygon fill="#63b8ff" stroke="#63b8ff" points="374.5,-22.88 383.3,-16.98 372.74,-16.11 374.5,-22.88"/>
<g id="a_edge4&#45;headlabel"><a xlink:href="dir_000125_000026.html" target="_top" xlink:title="2">
<text text-anchor="middle" x="373.19" y="-23.65" font-family="Helvetica,sans-Serif" font-size="10.00" fill="#63b8ff">2</text>
</a>
</g>
</g>
<!-- dir_4abd3b1ce7e6fd1c14d3fa34b06b5a7b -->
<g id="node8" class="node">
<title>dir_4abd3b1ce7e6fd1c14d3fa34b06b5a7b</title>
<g id="a_node8"><a xlink:href="dir_4abd3b1ce7e6fd1c14d3fa34b06b5a7b.html" target="_top" xlink:title="app">
<polygon fill="#edf0f7" stroke="red" stroke-dasharray="5,2" points="475,-19 443,-19 443,0 475,0 475,-19"/>
<text text-anchor="middle" x="459" y="-7" font-family="Helvetica,sans-Serif" font-size="10.00">app</text>
</a>
</g>
</g>
<!-- dir_c1da87bd407e5d2eabff1539a14ed801&#45;&gt;dir_4abd3b1ce7e6fd1c14d3fa34b06b5a7b -->
<g id="edge6" class="edge">
<title>dir_c1da87bd407e5d2eabff1539a14ed801&#45;&gt;dir_4abd3b1ce7e6fd1c14d3fa34b06b5a7b</title>
<path fill="none" stroke="#63b8ff" d="M213.63,-59.29C260.54,-53.06 348.37,-40.08 431.77,-19.23"/>
<polygon fill="#63b8ff" stroke="#63b8ff" points="432.41,-22.68 441.24,-16.82 430.68,-15.9 432.41,-22.68"/>
<g id="a_edge6&#45;headlabel"><a xlink:href="dir_000125_000012.html" target="_top" xlink:title="1">
<text text-anchor="middle" x="431.09" y="-23.44" font-family="Helvetica,sans-Serif" font-size="10.00" fill="#63b8ff">1</text>
</a>
</g>
</g>
<!-- dir_203de531cdb8dc5996b860069ca6d98e -->
<g id="node9" class="node">
<title>dir_203de531cdb8dc5996b860069ca6d98e</title>
<g id="a_node9"><a xlink:href="dir_203de531cdb8dc5996b860069ca6d98e.html" target="_top" xlink:title="src">
<polygon fill="#edf0f7" stroke="red" stroke-dasharray="5,2" points="148,-19 118,-19 118,0 148,0 148,-19"/>
<text text-anchor="middle" x="133" y="-7" font-family="Helvetica,sans-Serif" font-size="10.00">src</text>
</a>
</g>
</g>
<!-- dir_c1da87bd407e5d2eabff1539a14ed801&#45;&gt;dir_203de531cdb8dc5996b860069ca6d98e -->
<g id="edge5" class="edge">
<title>dir_c1da87bd407e5d2eabff1539a14ed801&#45;&gt;dir_203de531cdb8dc5996b860069ca6d98e</title>
<path fill="none" stroke="#63b8ff" d="M172.24,-54.75C165.81,-47.5 156.49,-36.98 148.54,-28.02"/>
<polygon fill="#63b8ff" stroke="#63b8ff" points="151.19,-25.73 141.93,-20.57 145.95,-30.38 151.19,-25.73"/>
<g id="a_edge5&#45;headlabel"><a xlink:href="dir_000125_000144.html" target="_top" xlink:title="13">
<text text-anchor="middle" x="154.69" y="-22.91" font-family="Helvetica,sans-Serif" font-size="10.00" fill="#63b8ff">13</text>
</a>
</g>
</g>
<!-- dir_730e86da1a00f4cd5a8ebc1b01c8a81f -->
<g id="node10" class="node">
<title>dir_730e86da1a00f4cd5a8ebc1b01c8a81f</title>
<g id="a_node10"><a xlink:href="dir_730e86da1a00f4cd5a8ebc1b01c8a81f.html" target="_top" xlink:title="behavior">
<polygon fill="#edf0f7" stroke="red" stroke-dasharray="5,2" points="219.5,-19 166.5,-19 166.5,0 219.5,0 219.5,-19"/>
<text text-anchor="middle" x="193" y="-7" font-family="Helvetica,sans-Serif" font-size="10.00">behavior</text>
</a>
</g>
</g>
<!-- dir_c1da87bd407e5d2eabff1539a14ed801&#45;&gt;dir_730e86da1a00f4cd5a8ebc1b01c8a81f -->
<g id="edge8" class="edge">
<title>dir_c1da87bd407e5d2eabff1539a14ed801&#45;&gt;dir_730e86da1a00f4cd5a8ebc1b01c8a81f</title>
<path fill="none" stroke="#63b8ff" d="M182.15,-54.75C183.76,-48.19 186.02,-38.95 188.07,-30.6"/>
<polygon fill="#63b8ff" stroke="#63b8ff" points="191.46,-31.46 190.45,-20.91 184.66,-29.79 191.46,-31.46"/>
<g id="a_edge8&#45;headlabel"><a xlink:href="dir_000125_000021.html" target="_top" xlink:title="4">
<text text-anchor="middle" x="193.72" y="-31.66" font-family="Helvetica,sans-Serif" font-size="10.00" fill="#63b8ff">4</text>
</a>
</g>
</g>
</g>
</svg>
