<?xml version="1.0" encoding="UTF-8" standalone="no"?>
<!DOCTYPE svg PUBLIC "-//W3C//DTD SVG 1.1//EN"
 "http://www.w3.org/Graphics/SVG/1.1/DTD/svg11.dtd">
<!-- Generated by graphviz version 7.0.5 (20221223.1930)
 -->
<!-- Title: src/Interfaces Pages: 1 -->
<!--zoomable 196 -->
<svg id="main" version="1.1" xmlns="http://www.w3.org/2000/svg" xmlns:xlink="http://www.w3.org/1999/xlink" xml:space="preserve" onload="init(evt)">
<style type="text/css"><![CDATA[
.edge:hover path { stroke: red; }
.edge:hover polygon { stroke: red; fill: red; }
]]></style>
<script type="text/javascript"><![CDATA[
var edges = document.getElementsByTagName('g');
if (edges && edges.length) {
  for (var i=0;i<edges.length;i++) {
    if (edges[i].id.substr(0,4)=='edge') {
      edges[i].setAttribute('class','edge');
    }
  }
}
]]></script>
        <defs>
                <circle id="rim" cx="0" cy="0" r="7"/>
                <circle id="rim2" cx="0" cy="0" r="3.5"/>
                <g id="zoomPlus">
                        <use xlink:href="#rim" fill="#404040">
                                <set attributeName="fill" to="#808080" begin="zoomplus.mouseover" end="zoomplus.mouseout"/>
                        </use>
                        <path d="M-4,0h8M0,-4v8" fill="none" stroke="white" stroke-width="1.5" pointer-events="none"/>
                </g>
                <g id="zoomMin">
                        <use xlink:href="#rim" fill="#404040">
                                <set attributeName="fill" to="#808080" begin="zoomminus.mouseover" end="zoomminus.mouseout"/>
                        </use>
                        <path d="M-4,0h8" fill="none" stroke="white" stroke-width="1.5" pointer-events="none"/>
                </g>
                <g id="dirArrow">
                        <path fill="none" stroke="white" stroke-width="1.5" d="M0,-3.0v7 M-2.5,-0.5L0,-3.0L2.5,-0.5"/>
                </g>
               <g id="resetDef">
                       <use xlink:href="#rim2" fill="#404040">
                               <set attributeName="fill" to="#808080" begin="reset.mouseover" end="reset.mouseout"/>
                       </use>
               </g>
        </defs>

<script type="text/javascript">
var viewWidth = 539;
var viewHeight = 196;
var sectionId = 'dynsection-0';
</script>
<script xlink:href="svgpan.js"/>
<svg id="graph" class="graph">
<g id="viewport">
<title>src/Interfaces</title>
<g id="clust1" class="cluster">
<title>clusterdir_68267d1309a1af8e8297ef4c3efbcdba</title>
<g id="a_clust1"><a xlink:href="dir_68267d1309a1af8e8297ef4c3efbcdba.html" target="_top" xlink:title="src">
<polygon fill="#edf0f7" stroke="#404040" stroke-dasharray="5,2" points="8,-8 8,-180 523,-180 523,-8 8,-8"/>
<text text-anchor="middle" x="265.5" y="-168" font-family="Helvetica,sans-Serif" font-size="10.00">src</text>
</a>
</g>
</g>
<g id="clust2" class="cluster">
<title>clusterdir_ce6405ba0afce575b27b3b998c1d24f9</title>
<g id="a_clust2"><a xlink:href="dir_ce6405ba0afce575b27b3b998c1d24f9.html" target="_top">
<polygon fill="#edf0f7" stroke="#404040" stroke-width="2" points="16,-63 16,-153 515,-153 515,-63 16,-63"/>
</a>
</g>
</g>
<!-- dir_b37d33ceb7f5c107fb027d4db224bc89 -->
<g id="node1" class="node">
<title>dir_b37d33ceb7f5c107fb027d4db224bc89</title>
<g id="a_node1"><a xlink:href="dir_b37d33ceb7f5c107fb027d4db224bc89.html" target="_top" xlink:title="Generic">
<polygon fill="#a2b4d6" stroke="red" points="323,-35 273,-35 273,-16 323,-16 323,-35"/>
<text text-anchor="middle" x="298" y="-23" font-family="Helvetica,sans-Serif" font-size="10.00">Generic</text>
</a>
</g>
</g>
<!-- dir_ce6405ba0afce575b27b3b998c1d24f9 -->
<g id="node2" class="node">
<title>dir_ce6405ba0afce575b27b3b998c1d24f9</title>
<text text-anchor="middle" x="477" y="-133" font-family="Helvetica,sans-Serif" font-size="10.00">Interfaces</text>
</g>
<!-- dir_d42c8599f48ee1f959d0497dc5b20271 -->
<g id="node3" class="node">
<title>dir_d42c8599f48ee1f959d0497dc5b20271</title>
<g id="a_node3"><a xlink:href="dir_d42c8599f48ee1f959d0497dc5b20271.html" target="_top" xlink:title="debug">
<polygon fill="#a2b4d6" stroke="#404040" points="258.5,-90 215.5,-90 215.5,-71 258.5,-71 258.5,-90"/>
<text text-anchor="middle" x="237" y="-78" font-family="Helvetica,sans-Serif" font-size="10.00">debug</text>
</a>
</g>
</g>
<!-- dir_e05dbbda0be2d990b059e31c3e230a61 -->
<g id="node4" class="node">
<title>dir_e05dbbda0be2d990b059e31c3e230a61</title>
<g id="a_node4"><a xlink:href="dir_e05dbbda0be2d990b059e31c3e230a61.html" target="_top" xlink:title="dl">
<polygon fill="#a2b4d6" stroke="#404040" points="195.5,-145 166.5,-145 166.5,-126 195.5,-126 195.5,-145"/>
<text text-anchor="middle" x="181" y="-133" font-family="Helvetica,sans-Serif" font-size="10.00">dl</text>
</a>
</g>
</g>
<!-- dir_e05dbbda0be2d990b059e31c3e230a61&#45;&gt;dir_b37d33ceb7f5c107fb027d4db224bc89 -->
<g id="edge2" class="edge">
<title>dir_e05dbbda0be2d990b059e31c3e230a61&#45;&gt;dir_b37d33ceb7f5c107fb027d4db224bc89</title>
<path fill="none" stroke="#63b8ff" d="M195.91,-128.27C217.82,-118.9 257.26,-101.09 268,-90 271.36,-86.53 282.04,-63.07 289.7,-45.67"/>
<polygon fill="#63b8ff" stroke="#63b8ff" points="292.79,-47.33 293.58,-36.76 286.37,-44.53 292.79,-47.33"/>
<g id="a_edge2&#45;headlabel"><a xlink:href="dir_000041_000049.html" target="_top" xlink:title="2">
<text text-anchor="middle" x="294.56" y="-47.87" font-family="Helvetica,sans-Serif" font-size="10.00" fill="#63b8ff">2</text>
</a>
</g>
</g>
<!-- dir_aa60a9bac6d4384906cd4fc5199d2eb2 -->
<g id="node6" class="node">
<title>dir_aa60a9bac6d4384906cd4fc5199d2eb2</title>
<g id="a_node6"><a xlink:href="dir_aa60a9bac6d4384906cd4fc5199d2eb2.html" target="_top" xlink:title="filesystem">
<polygon fill="#a2b4d6" stroke="#404040" points="197,-90 137,-90 137,-71 197,-71 197,-90"/>
<text text-anchor="middle" x="167" y="-78" font-family="Helvetica,sans-Serif" font-size="10.00">filesystem</text>
</a>
</g>
</g>
<!-- dir_e05dbbda0be2d990b059e31c3e230a61&#45;&gt;dir_aa60a9bac6d4384906cd4fc5199d2eb2 -->
<g id="edge1" class="edge">
<title>dir_e05dbbda0be2d990b059e31c3e230a61&#45;&gt;dir_aa60a9bac6d4384906cd4fc5199d2eb2</title>
<path fill="none" stroke="#63b8ff" d="M178.69,-125.75C176.94,-119.11 174.46,-109.73 172.23,-101.31"/>
<polygon fill="#63b8ff" stroke="#63b8ff" points="175.69,-100.68 169.75,-91.91 168.92,-102.47 175.69,-100.68"/>
<g id="a_edge1&#45;headlabel"><a xlink:href="dir_000041_000045.html" target="_top" xlink:title="3">
<text text-anchor="middle" x="178.96" y="-99.47" font-family="Helvetica,sans-Serif" font-size="10.00" fill="#63b8ff">3</text>
</a>
</g>
</g>
<!-- dir_f97d90fbf1b0266e14d3201691535835 -->
<g id="node5" class="node">
<title>dir_f97d90fbf1b0266e14d3201691535835</title>
<g id="a_node5"><a xlink:href="dir_f97d90fbf1b0266e14d3201691535835.html" target="_top" xlink:title="fetch">
<polygon fill="#a2b4d6" stroke="#404040" points="365,-145 327,-145 327,-126 365,-126 365,-145"/>
<text text-anchor="middle" x="346" y="-133" font-family="Helvetica,sans-Serif" font-size="10.00">fetch</text>
</a>
</g>
</g>
<!-- dir_f97d90fbf1b0266e14d3201691535835&#45;&gt;dir_b37d33ceb7f5c107fb027d4db224bc89 -->
<g id="edge3" class="edge">
<title>dir_f97d90fbf1b0266e14d3201691535835&#45;&gt;dir_b37d33ceb7f5c107fb027d4db224bc89</title>
<path fill="none" stroke="#63b8ff" d="M342.07,-125.66C334.37,-108.34 317.13,-69.55 306.64,-45.95"/>
<polygon fill="#63b8ff" stroke="#63b8ff" points="309.86,-44.56 302.6,-36.84 303.46,-47.4 309.86,-44.56"/>
<g id="a_edge3&#45;headlabel"><a xlink:href="dir_000044_000049.html" target="_top" xlink:title="2">
<text text-anchor="middle" x="313.3" y="-42.81" font-family="Helvetica,sans-Serif" font-size="10.00" fill="#63b8ff">2</text>
</a>
</g>
</g>
<!-- dir_aa60a9bac6d4384906cd4fc5199d2eb2&#45;&gt;dir_b37d33ceb7f5c107fb027d4db224bc89 -->
<g id="edge4" class="edge">
<title>dir_aa60a9bac6d4384906cd4fc5199d2eb2&#45;&gt;dir_b37d33ceb7f5c107fb027d4db224bc89</title>
<path fill="none" stroke="#63b8ff" d="M188.57,-70.56C194.54,-68.1 201.02,-65.43 207,-63 226.14,-55.21 247.6,-46.6 264.86,-39.7"/>
<polygon fill="#63b8ff" stroke="#63b8ff" points="266.14,-42.96 274.13,-36 263.55,-36.46 266.14,-42.96"/>
<g id="a_edge4&#45;headlabel"><a xlink:href="dir_000045_000049.html" target="_top" xlink:title="9">
<text text-anchor="middle" x="265.26" y="-43.87" font-family="Helvetica,sans-Serif" font-size="10.00" fill="#63b8ff">9</text>
</a>
</g>
</g>
<!-- dir_355a103e52b5f1a18314c28a3604e5c6 -->
<g id="node7" class="node">
<title>dir_355a103e52b5f1a18314c28a3604e5c6</title>
<g id="a_node7"><a xlink:href="dir_355a103e52b5f1a18314c28a3604e5c6.html" target="_top" xlink:title="helpers">
<polygon fill="#a2b4d6" stroke="#404040" points="309,-145 261,-145 261,-126 309,-126 309,-145"/>
<text text-anchor="middle" x="285" y="-133" font-family="Helvetica,sans-Serif" font-size="10.00">helpers</text>
</a>
</g>
</g>
<!-- dir_d963fa8a251a8e8894f70a5672d5d417 -->
<g id="node8" class="node">
<title>dir_d963fa8a251a8e8894f70a5672d5d417</title>
<g id="a_node8"><a xlink:href="dir_d963fa8a251a8e8894f70a5672d5d417.html" target="_top" xlink:title="input">
<polygon fill="#a2b4d6" stroke="#404040" points="68,-90 30,-90 30,-71 68,-71 68,-90"/>
<text text-anchor="middle" x="49" y="-78" font-family="Helvetica,sans-Serif" font-size="10.00">input</text>
</a>
</g>
</g>
<!-- dir_4b4943ce134ee4bffd2de1033f02af8b -->
<g id="node9" class="node">
<title>dir_4b4943ce134ee4bffd2de1033f02af8b</title>
<g id="a_node9"><a xlink:href="dir_4b4943ce134ee4bffd2de1033f02af8b.html" target="_top" xlink:title="log">
<polygon fill="#a2b4d6" stroke="#404040" points="242.5,-145 213.5,-145 213.5,-126 242.5,-126 242.5,-145"/>
<text text-anchor="middle" x="228" y="-133" font-family="Helvetica,sans-Serif" font-size="10.00">log</text>
</a>
</g>
</g>
<!-- dir_4b4943ce134ee4bffd2de1033f02af8b&#45;&gt;dir_b37d33ceb7f5c107fb027d4db224bc89 -->
<g id="edge5" class="edge">
<title>dir_4b4943ce134ee4bffd2de1033f02af8b&#45;&gt;dir_b37d33ceb7f5c107fb027d4db224bc89</title>
<path fill="none" stroke="#63b8ff" d="M242.94,-126.26C255.54,-118.53 273.06,-105.81 283,-90 291.22,-76.92 294.94,-59.75 296.62,-46.56"/>
<polygon fill="#63b8ff" stroke="#63b8ff" points="300.08,-47.2 297.54,-36.91 293.11,-46.53 300.08,-47.2"/>
<g id="a_edge5&#45;headlabel"><a xlink:href="dir_000066_000049.html" target="_top" xlink:title="1">
<text text-anchor="middle" x="302.71" y="-47.04" font-family="Helvetica,sans-Serif" font-size="10.00" fill="#63b8ff">1</text>
</a>
</g>
</g>
<!-- dir_4b4943ce134ee4bffd2de1033f02af8b&#45;&gt;dir_d42c8599f48ee1f959d0497dc5b20271 -->
<g id="edge6" class="edge">
<title>dir_4b4943ce134ee4bffd2de1033f02af8b&#45;&gt;dir_d42c8599f48ee1f959d0497dc5b20271</title>
<path fill="none" stroke="#63b8ff" d="M229.49,-125.75C230.6,-119.19 232.17,-109.95 233.59,-101.6"/>
<polygon fill="#63b8ff" stroke="#63b8ff" points="237,-102.38 235.23,-91.93 230.1,-101.21 237,-102.38"/>
<g id="a_edge6&#45;headlabel"><a xlink:href="dir_000066_000037.html" target="_top" xlink:title="1">
<text text-anchor="middle" x="239.46" y="-102.41" font-family="Helvetica,sans-Serif" font-size="10.00" fill="#63b8ff">1</text>
</a>
</g>
</g>
<!-- dir_656b20b03853eaec2e17f4c87a147e28 -->
<g id="node10" class="node">
<title>dir_656b20b03853eaec2e17f4c87a147e28</title>
<g id="a_node10"><a xlink:href="dir_656b20b03853eaec2e17f4c87a147e28.html" target="_top" xlink:title="socket">
<polygon fill="#a2b4d6" stroke="#404040" points="429,-145 383,-145 383,-126 429,-126 429,-145"/>
<text text-anchor="middle" x="406" y="-133" font-family="Helvetica,sans-Serif" font-size="10.00">socket</text>
</a>
</g>
</g>
<!-- dir_656b20b03853eaec2e17f4c87a147e28&#45;&gt;dir_b37d33ceb7f5c107fb027d4db224bc89 -->
<g id="edge7" class="edge">
<title>dir_656b20b03853eaec2e17f4c87a147e28&#45;&gt;dir_b37d33ceb7f5c107fb027d4db224bc89</title>
<path fill="none" stroke="#63b8ff" d="M397.16,-125.66C379.2,-107.7 338.19,-66.69 314.92,-43.42"/>
<polygon fill="#63b8ff" stroke="#63b8ff" points="317.58,-41.13 308.03,-36.53 312.63,-46.08 317.58,-41.13"/>
<g id="a_edge7&#45;headlabel"><a xlink:href="dir_000133_000049.html" target="_top" xlink:title="2">
<text text-anchor="middle" x="321.06" y="-38.09" font-family="Helvetica,sans-Serif" font-size="10.00" fill="#63b8ff">2</text>
</a>
</g>
</g>
<!-- dir_26288a317a29b7ea150cd76b50dcd889 -->
<g id="node11" class="node">
<title>dir_26288a317a29b7ea150cd76b50dcd889</title>
<g id="a_node11"><a xlink:href="dir_26288a317a29b7ea150cd76b50dcd889.html" target="_top" xlink:title="threading">
<polygon fill="#a2b4d6" stroke="#404040" points="148,-145 92,-145 92,-126 148,-126 148,-145"/>
<text text-anchor="middle" x="120" y="-133" font-family="Helvetica,sans-Serif" font-size="10.00">threading</text>
</a>
</g>
</g>
<!-- dir_c07774da328221e205d46c63cd6888b9 -->
<g id="node12" class="node">
<title>dir_c07774da328221e205d46c63cd6888b9</title>
<g id="a_node12"><a xlink:href="dir_c07774da328221e205d46c63cd6888b9.html" target="_top" xlink:title="window">
<polygon fill="#a2b4d6" stroke="#404040" points="74,-145 24,-145 24,-126 74,-126 74,-145"/>
<text text-anchor="middle" x="49" y="-133" font-family="Helvetica,sans-Serif" font-size="10.00">window</text>
</a>
</g>
</g>
<!-- dir_c07774da328221e205d46c63cd6888b9&#45;&gt;dir_d963fa8a251a8e8894f70a5672d5d417 -->
<g id="edge8" class="edge">
<title>dir_c07774da328221e205d46c63cd6888b9&#45;&gt;dir_d963fa8a251a8e8894f70a5672d5d417</title>
<path fill="none" stroke="#63b8ff" d="M49,-125.75C49,-119.27 49,-110.16 49,-101.9"/>
<polygon fill="#63b8ff" stroke="#63b8ff" points="52.5,-101.96 49,-91.96 45.5,-101.96 52.5,-101.96"/>
<g id="a_edge8&#45;headlabel"><a xlink:href="dir_000174_000060.html" target="_top" xlink:title="2">
<text text-anchor="middle" x="55.34" y="-101.54" font-family="Helvetica,sans-Serif" font-size="10.00" fill="#63b8ff">2</text>
</a>
</g>
</g>
</g>
</svg>
        <g id="navigator" transform="translate(0 0)" fill="#404254">
                <rect fill="#f2f5e9" fill-opacity="0.5" stroke="#606060" stroke-width=".5" x="0" y="0" width="60" height="60"/>
                <use id="zoomplus" xlink:href="#zoomPlus" x="17" y="9" onmousedown="handleZoom(evt,'in')"/>
                <use id="zoomminus" xlink:href="#zoomMin" x="42" y="9" onmousedown="handleZoom(evt,'out')"/>
                <use id="reset" xlink:href="#resetDef" x="30" y="36" onmousedown="handleReset()"/>
                <g id="arrowUp" xlink:href="#dirArrow" transform="translate(30 24)" onmousedown="handlePan(0,-1)">
                  <use xlink:href="#rim" fill="#404040">
                        <set attributeName="fill" to="#808080" begin="arrowUp.mouseover" end="arrowUp.mouseout"/>
                  </use>
                  <path fill="none" stroke="white" stroke-width="1.5" d="M0,-3.0v7 M-2.5,-0.5L0,-3.0L2.5,-0.5"/>
                </g>
                <g id="arrowRight" xlink:href="#dirArrow" transform="rotate(90) translate(36 -43)" onmousedown="handlePan(1,0)">
                  <use xlink:href="#rim" fill="#404040">
                        <set attributeName="fill" to="#808080" begin="arrowRight.mouseover" end="arrowRight.mouseout"/>
                  </use>
                  <path fill="none" stroke="white" stroke-width="1.5" d="M0,-3.0v7 M-2.5,-0.5L0,-3.0L2.5,-0.5"/>
                </g>
                <g id="arrowDown" xlink:href="#dirArrow" transform="rotate(180) translate(-30 -48)" onmousedown="handlePan(0,1)">
                  <use xlink:href="#rim" fill="#404040">
                        <set attributeName="fill" to="#808080" begin="arrowDown.mouseover" end="arrowDown.mouseout"/>
                  </use>
                  <path fill="none" stroke="white" stroke-width="1.5" d="M0,-3.0v7 M-2.5,-0.5L0,-3.0L2.5,-0.5"/>
                </g>
                <g id="arrowLeft" xlink:href="#dirArrow" transform="rotate(270) translate(-36 17)" onmousedown="handlePan(-1,0)">
                  <use xlink:href="#rim" fill="#404040">
                        <set attributeName="fill" to="#808080" begin="arrowLeft.mouseover" end="arrowLeft.mouseout"/>
                  </use>
                  <path fill="none" stroke="white" stroke-width="1.5" d="M0,-3.0v7 M-2.5,-0.5L0,-3.0L2.5,-0.5"/>
                </g>
        </g>
        <svg viewBox="0 0 15 15" width="100%" height="30px" preserveAspectRatio="xMaxYMin meet">
         <g id="arrow_out" transform="scale(0.3 0.3)">
          <a xlink:href="dir_ce6405ba0afce575b27b3b998c1d24f9_dep_org.svg" target="_base">
           <rect id="button" ry="5" rx="5" y="6" x="6" height="38" width="38"
                fill="#f2f5e9" fill-opacity="0.5" stroke="#606060" stroke-width="1.0"/>
           <path id="arrow"
             d="M 11.500037,31.436501 C 11.940474,20.09759 22.043105,11.32322 32.158766,21.979434 L 37.068811,17.246167 C 37.068811,17.246167 37.088388,32 37.088388,32 L 22.160133,31.978069 C 22.160133,31.978069 26.997745,27.140456 26.997745,27.140456 C 18.528582,18.264221 13.291696,25.230495 11.500037,31.436501 z"
             style="fill:#404040;"/>
          </a>
         </g>
        </svg>
</svg>
