<?xml version="1.0" encoding="UTF-8" standalone="no"?>
<!DOCTYPE svg PUBLIC "-//W3C//DTD SVG 1.1//EN"
 "http://www.w3.org/Graphics/SVG/1.1/DTD/svg11.dtd">
<!-- Generated by graphviz version 7.0.5 (20221223.1930)
 -->
<!-- Title: src Pages: 1 -->
<svg width="213pt" height="224pt"
 viewBox="0.00 0.00 213.00 224.00" xmlns="http://www.w3.org/2000/svg" xmlns:xlink="http://www.w3.org/1999/xlink">
<g id="graph0" class="graph" transform="scale(1 1) rotate(0) translate(4 220)">
<title>src</title>
<g id="clust1" class="cluster">
<title>clusterdir_68267d1309a1af8e8297ef4c3efbcdba</title>
<g id="a_clust1"><a xlink:href="dir_68267d1309a1af8e8297ef4c3efbcdba.html" target="_top">
<polygon fill="#edf0f7" stroke="#404040" stroke-width="2" points="8,-8 8,-208 197,-208 197,-8 8,-8"/>
</a>
</g>
</g>
<!-- dir_68267d1309a1af8e8297ef4c3efbcdba -->
<g id="node1" class="node">
<title>dir_68267d1309a1af8e8297ef4c3efbcdba</title>
<text text-anchor="middle" x="174" y="-188" font-family="Helvetica,sans-Serif" font-size="10.00">src</text>
</g>
<!-- dir_b37d33ceb7f5c107fb027d4db224bc89 -->
<g id="node2" class="node">
<title>dir_b37d33ceb7f5c107fb027d4db224bc89</title>
<g id="a_node2"><a xlink:href="dir_b37d33ceb7f5c107fb027d4db224bc89.html" target="_top" xlink:title="Generic">
<polygon fill="#a2b4d6" stroke="#404040" points="103,-90 53,-90 53,-71 103,-71 103,-90"/>
<text text-anchor="middle" x="78" y="-78" font-family="Helvetica,sans-Serif" font-size="10.00">Generic</text>
</a>
</g>
</g>
<!-- dir_022f6552a590871b5e744fe7964d6696 -->
<g id="node5" class="node">
<title>dir_022f6552a590871b5e744fe7964d6696</title>
<g id="a_node5"><a xlink:href="dir_022f6552a590871b5e744fe7964d6696.html" target="_top" xlink:title="Meta">
<polygon fill="#a2b4d6" stroke="#404040" points="97,-35 59,-35 59,-16 97,-16 97,-35"/>
<text text-anchor="middle" x="78" y="-23" font-family="Helvetica,sans-Serif" font-size="10.00">Meta</text>
</a>
</g>
</g>
<!-- dir_b37d33ceb7f5c107fb027d4db224bc89&#45;&gt;dir_022f6552a590871b5e744fe7964d6696 -->
<g id="edge1" class="edge">
<title>dir_b37d33ceb7f5c107fb027d4db224bc89&#45;&gt;dir_022f6552a590871b5e744fe7964d6696</title>
<path fill="none" stroke="#63b8ff" d="M72.83,-70.75C71.42,-64.19 70.96,-54.95 71.43,-46.6"/>
<polygon fill="#63b8ff" stroke="#63b8ff" points="74.87,-47.3 72.61,-36.94 67.92,-46.45 74.87,-47.3"/>
<g id="a_edge1&#45;headlabel"><a xlink:href="dir_000050_000098.html" target="_top" xlink:title="1">
<text text-anchor="middle" x="77.44" y="-47.21" font-family="Helvetica,sans-Serif" font-size="10.00" fill="#63b8ff">1</text>
</a>
</g>
</g>
<!-- dir_ce6405ba0afce575b27b3b998c1d24f9 -->
<g id="node3" class="node">
<title>dir_ce6405ba0afce575b27b3b998c1d24f9</title>
<g id="a_node3"><a xlink:href="dir_ce6405ba0afce575b27b3b998c1d24f9.html" target="_top" xlink:title="Interfaces">
<polygon fill="#a2b4d6" stroke="#404040" points="96,-145 36,-145 36,-126 96,-126 96,-145"/>
<text text-anchor="middle" x="66" y="-133" font-family="Helvetica,sans-Serif" font-size="10.00">Interfaces</text>
</a>
</g>
</g>
<!-- dir_ce6405ba0afce575b27b3b998c1d24f9&#45;&gt;dir_b37d33ceb7f5c107fb027d4db224bc89 -->
<g id="edge2" class="edge">
<title>dir_ce6405ba0afce575b27b3b998c1d24f9&#45;&gt;dir_b37d33ceb7f5c107fb027d4db224bc89</title>
<path fill="none" stroke="#63b8ff" d="M67.98,-125.75C69.47,-119.19 71.56,-109.95 73.45,-101.6"/>
<polygon fill="#63b8ff" stroke="#63b8ff" points="76.85,-102.44 75.64,-91.92 70.02,-100.9 76.85,-102.44"/>
<g id="a_edge2&#45;headlabel"><a xlink:href="dir_000063_000050.html" target="_top" xlink:title="22">
<text text-anchor="middle" x="79.16" y="-102.6" font-family="Helvetica,sans-Serif" font-size="10.00" fill="#63b8ff">22</text>
</a>
</g>
</g>
<!-- dir_adf00ee8b354a2b801c83d87dd7d0417 -->
<g id="node4" class="node">
<title>dir_adf00ee8b354a2b801c83d87dd7d0417</title>
<g id="a_node4"><a xlink:href="dir_adf00ee8b354a2b801c83d87dd7d0417.html" target="_top" xlink:title="Madgine">
<polygon fill="#a2b4d6" stroke="#404040" points="140.5,-200 87.5,-200 87.5,-181 140.5,-181 140.5,-200"/>
<text text-anchor="middle" x="114" y="-188" font-family="Helvetica,sans-Serif" font-size="10.00">Madgine</text>
</a>
</g>
</g>
<!-- dir_adf00ee8b354a2b801c83d87dd7d0417&#45;&gt;dir_b37d33ceb7f5c107fb027d4db224bc89 -->
<g id="edge4" class="edge">
<title>dir_adf00ee8b354a2b801c83d87dd7d0417&#45;&gt;dir_b37d33ceb7f5c107fb027d4db224bc89</title>
<path fill="none" stroke="#63b8ff" d="M113.86,-180.61C113.41,-168.07 111.67,-144.66 105,-126 101.74,-116.87 96.47,-107.58 91.45,-99.87"/>
<polygon fill="#63b8ff" stroke="#63b8ff" points="94.39,-97.97 85.83,-91.73 88.64,-101.95 94.39,-97.97"/>
<g id="a_edge4&#45;headlabel"><a xlink:href="dir_000090_000050.html" target="_top" xlink:title="12">
<text text-anchor="middle" x="97.91" y="-95.57" font-family="Helvetica,sans-Serif" font-size="10.00" fill="#63b8ff">12</text>
</a>
</g>
</g>
<!-- dir_adf00ee8b354a2b801c83d87dd7d0417&#45;&gt;dir_ce6405ba0afce575b27b3b998c1d24f9 -->
<g id="edge5" class="edge">
<title>dir_adf00ee8b354a2b801c83d87dd7d0417&#45;&gt;dir_ce6405ba0afce575b27b3b998c1d24f9</title>
<path fill="none" stroke="#63b8ff" d="M106.07,-180.75C99.44,-173.43 89.78,-162.76 81.61,-153.74"/>
<polygon fill="#63b8ff" stroke="#63b8ff" points="84.42,-151.63 75.11,-146.56 79.23,-156.33 84.42,-151.63"/>
<g id="a_edge5&#45;headlabel"><a xlink:href="dir_000090_000063.html" target="_top" xlink:title="10">
<text text-anchor="middle" x="87.92" y="-148.76" font-family="Helvetica,sans-Serif" font-size="10.00" fill="#63b8ff">10</text>
</a>
</g>
</g>
<!-- dir_adf00ee8b354a2b801c83d87dd7d0417&#45;&gt;dir_022f6552a590871b5e744fe7964d6696 -->
<g id="edge3" class="edge">
<title>dir_adf00ee8b354a2b801c83d87dd7d0417&#45;&gt;dir_022f6552a590871b5e744fe7964d6696</title>
<path fill="none" stroke="#63b8ff" d="M115.7,-180.55C119.13,-160.33 125.52,-109.87 112,-71 108.5,-60.95 101.78,-51.35 95.23,-43.66"/>
<polygon fill="#63b8ff" stroke="#63b8ff" points="97.92,-41.43 88.57,-36.44 92.78,-46.17 97.92,-41.43"/>
<g id="a_edge3&#45;headlabel"><a xlink:href="dir_000090_000098.html" target="_top" xlink:title="23">
<text text-anchor="middle" x="101.42" y="-38.53" font-family="Helvetica,sans-Serif" font-size="10.00" fill="#63b8ff">23</text>
</a>
</g>
</g>
<!-- dir_022f6552a590871b5e744fe7964d6696&#45;&gt;dir_b37d33ceb7f5c107fb027d4db224bc89 -->
<g id="edge6" class="edge">
<title>dir_022f6552a590871b5e744fe7964d6696&#45;&gt;dir_b37d33ceb7f5c107fb027d4db224bc89</title>
<path fill="none" stroke="#63b8ff" d="M83.21,-35.44C84.58,-41.97 85.04,-51.1 84.57,-59.35"/>
<polygon fill="#63b8ff" stroke="#63b8ff" points="81.1,-58.89 83.35,-69.25 88.05,-59.75 81.1,-58.89"/>
<g id="a_edge6&#45;headlabel"><a xlink:href="dir_000098_000050.html" target="_top" xlink:title="77">
<text text-anchor="middle" x="78.54" y="-53.98" font-family="Helvetica,sans-Serif" font-size="10.00" fill="#63b8ff">77</text>
</a>
</g>
</g>
<!-- dir_eeb7fcc90d516a232deaaf4de23f9c95 -->
<g id="node6" class="node">
<title>dir_eeb7fcc90d516a232deaaf4de23f9c95</title>
<g id="a_node6"><a xlink:href="dir_eeb7fcc90d516a232deaaf4de23f9c95.html" target="_top" xlink:title="Modules">
<polygon fill="#a2b4d6" stroke="#404040" points="69.5,-200 16.5,-200 16.5,-181 69.5,-181 69.5,-200"/>
<text text-anchor="middle" x="43" y="-188" font-family="Helvetica,sans-Serif" font-size="10.00">Modules</text>
</a>
</g>
</g>
<!-- dir_eeb7fcc90d516a232deaaf4de23f9c95&#45;&gt;dir_b37d33ceb7f5c107fb027d4db224bc89 -->
<g id="edge7" class="edge">
<title>dir_eeb7fcc90d516a232deaaf4de23f9c95&#45;&gt;dir_b37d33ceb7f5c107fb027d4db224bc89</title>
<path fill="none" stroke="#63b8ff" d="M37.12,-180.54C29.63,-167.93 18.63,-144.42 27,-126 32.38,-114.16 42.64,-104.25 52.55,-96.8"/>
<polygon fill="#63b8ff" stroke="#63b8ff" points="54.29,-99.85 60.53,-91.3 50.31,-94.09 54.29,-99.85"/>
<g id="a_edge7&#45;headlabel"><a xlink:href="dir_000100_000050.html" target="_top" xlink:title="30">
<text text-anchor="middle" x="54.18" y="-100.87" font-family="Helvetica,sans-Serif" font-size="10.00" fill="#63b8ff">30</text>
</a>
</g>
</g>
<!-- dir_eeb7fcc90d516a232deaaf4de23f9c95&#45;&gt;dir_ce6405ba0afce575b27b3b998c1d24f9 -->
<g id="edge8" class="edge">
<title>dir_eeb7fcc90d516a232deaaf4de23f9c95&#45;&gt;dir_ce6405ba0afce575b27b3b998c1d24f9</title>
<path fill="none" stroke="#63b8ff" d="M46.8,-180.75C49.74,-173.96 53.94,-164.3 57.65,-155.73"/>
<polygon fill="#63b8ff" stroke="#63b8ff" points="60.75,-157.4 61.52,-146.83 54.33,-154.61 60.75,-157.4"/>
<g id="a_edge8&#45;headlabel"><a xlink:href="dir_000100_000063.html" target="_top" xlink:title="14">
<text text-anchor="middle" x="62.52" y="-157.94" font-family="Helvetica,sans-Serif" font-size="10.00" fill="#63b8ff">14</text>
</a>
</g>
</g>
</g>
</svg>
