<?xml version="1.0" encoding="UTF-8" standalone="no"?>
<!DOCTYPE svg PUBLIC "-//W3C//DTD SVG 1.1//EN"
 "http://www.w3.org/Graphics/SVG/1.1/DTD/svg11.dtd">
<!-- Generated by graphviz version 7.0.5 (20221223.1930)
 -->
<!-- Title: src/Modules/debug Pages: 1 -->
<svg width="379pt" height="141pt"
 viewBox="0.00 0.00 379.00 141.00" xmlns="http://www.w3.org/2000/svg" xmlns:xlink="http://www.w3.org/1999/xlink">
<g id="graph0" class="graph" transform="scale(1 1) rotate(0) translate(4 137)">
<title>src/Modules/debug</title>
<g id="clust1" class="cluster">
<title>clusterdir_eeb7fcc90d516a232deaaf4de23f9c95</title>
<g id="a_clust1"><a xlink:href="dir_eeb7fcc90d516a232deaaf4de23f9c95.html" target="_top" xlink:title="Modules">
<polygon fill="#edf0f7" stroke="#7f7f7f" stroke-dasharray="5,2" points="8,-8 8,-125 235,-125 235,-8 8,-8"/>
<text text-anchor="middle" x="121.5" y="-113" font-family="Helvetica,sans-Serif" font-size="10.00">Modules</text>
</a>
</g>
</g>
<g id="clust2" class="cluster">
<title>clusterdir_34a11c9de03c9a41f20ad862bfe31e8e</title>
<g id="a_clust2"><a xlink:href="dir_34a11c9de03c9a41f20ad862bfe31e8e.html" target="_top">
<polygon fill="#edf0f7" stroke="#404040" stroke-width="2" points="16,-63 16,-98 227,-98 227,-63 16,-63"/>
</a>
</g>
</g>
<!-- dir_6399664130b392e543fb604b65d1ca3b -->
<g id="node1" class="node">
<title>dir_6399664130b392e543fb604b65d1ca3b</title>
<g id="a_node1"><a xlink:href="dir_6399664130b392e543fb604b65d1ca3b.html" target="_top" xlink:title="threading">
<polygon fill="#a2b4d6" stroke="red" points="125,-35 69,-35 69,-16 125,-16 125,-35"/>
<text text-anchor="middle" x="97" y="-23" font-family="Helvetica,sans-Serif" font-size="10.00">threading</text>
</a>
</g>
</g>
<!-- dir_34a11c9de03c9a41f20ad862bfe31e8e -->
<g id="node2" class="node">
<title>dir_34a11c9de03c9a41f20ad862bfe31e8e</title>
<text text-anchor="middle" x="197" y="-78" font-family="Helvetica,sans-Serif" font-size="10.00">debug</text>
</g>
<!-- dir_d11f7850f312a40c316d309739750960 -->
<g id="node3" class="node">
<title>dir_d11f7850f312a40c316d309739750960</title>
<g id="a_node3"><a xlink:href="dir_d11f7850f312a40c316d309739750960.html" target="_top" xlink:title="profiler">
<polygon fill="#a2b4d6" stroke="#404040" points="157.5,-90 112.5,-90 112.5,-71 157.5,-71 157.5,-90"/>
<text text-anchor="middle" x="135" y="-78" font-family="Helvetica,sans-Serif" font-size="10.00">profiler</text>
</a>
</g>
</g>
<!-- dir_d11f7850f312a40c316d309739750960&#45;&gt;dir_6399664130b392e543fb604b65d1ca3b -->
<g id="edge1" class="edge">
<title>dir_d11f7850f312a40c316d309739750960&#45;&gt;dir_6399664130b392e543fb604b65d1ca3b</title>
<path fill="none" stroke="#63b8ff" d="M128.73,-70.75C123.64,-63.66 116.3,-53.42 109.97,-44.59"/>
<polygon fill="#63b8ff" stroke="#63b8ff" points="112.96,-42.76 104.29,-36.67 107.28,-46.84 112.96,-42.76"/>
<g id="a_edge1&#45;headlabel"><a xlink:href="dir_000110_000158.html" target="_top" xlink:title="5">
<text text-anchor="middle" x="116.48" y="-40.3" font-family="Helvetica,sans-Serif" font-size="10.00" fill="#63b8ff">5</text>
</a>
</g>
</g>
<!-- dir_b37d33ceb7f5c107fb027d4db224bc89 -->
<g id="node5" class="node">
<title>dir_b37d33ceb7f5c107fb027d4db224bc89</title>
<g id="a_node5"><a xlink:href="dir_b37d33ceb7f5c107fb027d4db224bc89.html" target="_top" xlink:title="Generic">
<polygon fill="#edf0f7" stroke="red" stroke-dasharray="5,2" points="371,-35 321,-35 321,-16 371,-16 371,-35"/>
<text text-anchor="middle" x="346" y="-23" font-family="Helvetica,sans-Serif" font-size="10.00">Generic</text>
</a>
</g>
</g>
<!-- dir_d11f7850f312a40c316d309739750960&#45;&gt;dir_b37d33ceb7f5c107fb027d4db224bc89 -->
<g id="edge2" class="edge">
<title>dir_d11f7850f312a40c316d309739750960&#45;&gt;dir_b37d33ceb7f5c107fb027d4db224bc89</title>
<path fill="none" stroke="#63b8ff" d="M150.23,-70.52C155.41,-67.78 161.33,-64.96 167,-63 225.75,-42.65 245.8,-48.46 309.69,-35.34"/>
<polygon fill="#63b8ff" stroke="#63b8ff" points="310.26,-38.8 319.3,-33.28 308.79,-31.95 310.26,-38.8"/>
<g id="a_edge2&#45;headlabel"><a xlink:href="dir_000110_000049.html" target="_top" xlink:title="1">
<text text-anchor="middle" x="308.82" y="-39.51" font-family="Helvetica,sans-Serif" font-size="10.00" fill="#63b8ff">1</text>
</a>
</g>
</g>
<!-- dir_ce6405ba0afce575b27b3b998c1d24f9 -->
<g id="node6" class="node">
<title>dir_ce6405ba0afce575b27b3b998c1d24f9</title>
<g id="a_node6"><a xlink:href="dir_ce6405ba0afce575b27b3b998c1d24f9.html" target="_top" xlink:title="Interfaces">
<polygon fill="#edf0f7" stroke="red" stroke-dasharray="5,2" points="303,-35 243,-35 243,-16 303,-16 303,-35"/>
<text text-anchor="middle" x="273" y="-23" font-family="Helvetica,sans-Serif" font-size="10.00">Interfaces</text>
</a>
</g>
</g>
<!-- dir_d11f7850f312a40c316d309739750960&#45;&gt;dir_ce6405ba0afce575b27b3b998c1d24f9 -->
<g id="edge3" class="edge">
<title>dir_d11f7850f312a40c316d309739750960&#45;&gt;dir_ce6405ba0afce575b27b3b998c1d24f9</title>
<path fill="none" stroke="#63b8ff" d="M151.06,-70.64C156.09,-68.03 161.71,-65.26 167,-63 188.19,-53.94 212.46,-45.46 232.42,-38.95"/>
<polygon fill="#63b8ff" stroke="#63b8ff" points="233.43,-42.3 241.88,-35.91 231.29,-35.64 233.43,-42.3"/>
<g id="a_edge3&#45;headlabel"><a xlink:href="dir_000110_000061.html" target="_top" xlink:title="1">
<text text-anchor="middle" x="232.32" y="-43.14" font-family="Helvetica,sans-Serif" font-size="10.00" fill="#63b8ff">1</text>
</a>
</g>
</g>
<!-- dir_f0f21fa76de62b922c31196df7de80bf -->
<g id="node4" class="node">
<title>dir_f0f21fa76de62b922c31196df7de80bf</title>
<g id="a_node4"><a xlink:href="dir_f0f21fa76de62b922c31196df7de80bf.html" target="_top" xlink:title="tasktracking">
<polygon fill="#a2b4d6" stroke="#404040" points="94,-90 24,-90 24,-71 94,-71 94,-90"/>
<text text-anchor="middle" x="59" y="-78" font-family="Helvetica,sans-Serif" font-size="10.00">tasktracking</text>
</a>
</g>
</g>
<!-- dir_f0f21fa76de62b922c31196df7de80bf&#45;&gt;dir_6399664130b392e543fb604b65d1ca3b -->
<g id="edge4" class="edge">
<title>dir_f0f21fa76de62b922c31196df7de80bf&#45;&gt;dir_6399664130b392e543fb604b65d1ca3b</title>
<path fill="none" stroke="#63b8ff" d="M65.27,-70.75C70.36,-63.66 77.7,-53.42 84.03,-44.59"/>
<polygon fill="#63b8ff" stroke="#63b8ff" points="86.72,-46.84 89.71,-36.67 81.04,-42.76 86.72,-46.84"/>
<g id="a_edge4&#45;headlabel"><a xlink:href="dir_000155_000158.html" target="_top" xlink:title="2">
<text text-anchor="middle" x="87.82" y="-47.68" font-family="Helvetica,sans-Serif" font-size="10.00" fill="#63b8ff">2</text>
</a>
</g>
</g>
<!-- dir_f0f21fa76de62b922c31196df7de80bf&#45;&gt;dir_ce6405ba0afce575b27b3b998c1d24f9 -->
<g id="edge5" class="edge">
<title>dir_f0f21fa76de62b922c31196df7de80bf&#45;&gt;dir_ce6405ba0afce575b27b3b998c1d24f9</title>
<path fill="none" stroke="#63b8ff" d="M81.22,-70.62C88.41,-67.94 96.48,-65.15 104,-63 159.36,-47.2 177.13,-48.43 231.6,-36.62"/>
<polygon fill="#63b8ff" stroke="#63b8ff" points="232.14,-40.08 241.14,-34.49 230.62,-33.25 232.14,-40.08"/>
<g id="a_edge5&#45;headlabel"><a xlink:href="dir_000155_000061.html" target="_top" xlink:title="1">
<text text-anchor="middle" x="230.73" y="-40.81" font-family="Helvetica,sans-Serif" font-size="10.00" fill="#63b8ff">1</text>
</a>
</g>
</g>
</g>
</svg>
