<?xml version="1.0" encoding="UTF-8" standalone="no"?>
<!DOCTYPE svg PUBLIC "-//W3C//DTD SVG 1.1//EN"
 "http://www.w3.org/Graphics/SVG/1.1/DTD/svg11.dtd">
<!-- Generated by graphviz version 7.0.5 (20221223.1930)
 -->
<!-- Title: plugins/audio/oboe/src Pages: 1 -->
<svg width="215pt" height="125pt"
 viewBox="0.00 0.00 214.50 125.00" xmlns="http://www.w3.org/2000/svg" xmlns:xlink="http://www.w3.org/1999/xlink">
<g id="graph0" class="graph" transform="scale(1 1) rotate(0) translate(4 121)">
<title>plugins/audio/oboe/src</title>
<g id="clust1" class="cluster">
<title>clusterdir_12abbead5da5138a2242ae5475aeed2d</title>
<g id="a_clust1"><a xlink:href="dir_12abbead5da5138a2242ae5475aeed2d.html" target="_top" xlink:title="oboe">
<polygon fill="#edf0f7" stroke="#7f7f7f" stroke-dasharray="5,2" points="64.5,-39 64.5,-109 198.5,-109 198.5,-39 64.5,-39"/>
<text text-anchor="middle" x="131.5" y="-97" font-family="Helvetica,sans-Serif" font-size="10.00">oboe</text>
</a>
</g>
</g>
<g id="clust2" class="cluster">
<title>clusterdir_009f5b7046562058db4b89bd946c2a37</title>
<g id="a_clust2"><a xlink:href="dir_009f5b7046562058db4b89bd946c2a37.html" target="_top">
<polygon fill="#edf0f7" stroke="#404040" stroke-width="2" points="72.5,-47 72.5,-82 190.5,-82 190.5,-47 72.5,-47"/>
</a>
</g>
</g>
<!-- dir_009f5b7046562058db4b89bd946c2a37 -->
<g id="node1" class="node">
<title>dir_009f5b7046562058db4b89bd946c2a37</title>
<text text-anchor="middle" x="167.5" y="-62" font-family="Helvetica,sans-Serif" font-size="10.00">src</text>
</g>
<!-- dir_9f28f2124df836b76d65a464e556ead2 -->
<g id="node2" class="node">
<title>dir_9f28f2124df836b76d65a464e556ead2</title>
<g id="a_node2"><a xlink:href="dir_9f28f2124df836b76d65a464e556ead2.html" target="_top" xlink:title="Madgine">
<polygon fill="#a2b4d6" stroke="#404040" points="134,-74 81,-74 81,-55 134,-55 134,-74"/>
<text text-anchor="middle" x="107.5" y="-62" font-family="Helvetica,sans-Serif" font-size="10.00">Madgine</text>
</a>
</g>
</g>
<!-- dir_0ec1dcb836b96d73dd74d5131edc07ee -->
<g id="node3" class="node">
<title>dir_0ec1dcb836b96d73dd74d5131edc07ee</title>
<g id="a_node3"><a xlink:href="dir_0ec1dcb836b96d73dd74d5131edc07ee.html" target="_top" xlink:title="api">
<polygon fill="#edf0f7" stroke="red" stroke-dasharray="5,2" points="29,-19 0,-19 0,0 29,0 29,-19"/>
<text text-anchor="middle" x="14.5" y="-7" font-family="Helvetica,sans-Serif" font-size="10.00">api</text>
</a>
</g>
</g>
<!-- dir_9f28f2124df836b76d65a464e556ead2&#45;&gt;dir_0ec1dcb836b96d73dd74d5131edc07ee -->
<g id="edge1" class="edge">
<title>dir_9f28f2124df836b76d65a464e556ead2&#45;&gt;dir_0ec1dcb836b96d73dd74d5131edc07ee</title>
<path fill="none" stroke="#63b8ff" d="M91.72,-54.51C77.3,-46.29 55.75,-34.01 39.07,-24.5"/>
<polygon fill="#63b8ff" stroke="#63b8ff" points="41.17,-21.67 30.74,-19.76 37.7,-27.75 41.17,-21.67"/>
<g id="a_edge1&#45;headlabel"><a xlink:href="dir_000069_000004.html" target="_top" xlink:title="1">
<text text-anchor="middle" x="44.38" y="-17.73" font-family="Helvetica,sans-Serif" font-size="10.00" fill="#63b8ff">1</text>
</a>
</g>
</g>
<!-- dir_18cb38c735f8a580e1e086510eb8c495 -->
<g id="node4" class="node">
<title>dir_18cb38c735f8a580e1e086510eb8c495</title>
<g id="a_node4"><a xlink:href="dir_18cb38c735f8a580e1e086510eb8c495.html" target="_top" xlink:title="resources">
<polygon fill="#edf0f7" stroke="red" stroke-dasharray="5,2" points="106,-19 47,-19 47,0 106,0 106,-19"/>
<text text-anchor="middle" x="76.5" y="-7" font-family="Helvetica,sans-Serif" font-size="10.00">resources</text>
</a>
</g>
</g>
<!-- dir_9f28f2124df836b76d65a464e556ead2&#45;&gt;dir_18cb38c735f8a580e1e086510eb8c495 -->
<g id="edge2" class="edge">
<title>dir_9f28f2124df836b76d65a464e556ead2&#45;&gt;dir_18cb38c735f8a580e1e086510eb8c495</title>
<path fill="none" stroke="#63b8ff" d="M102.38,-54.75C98.32,-47.81 92.51,-37.86 87.41,-29.16"/>
<polygon fill="#63b8ff" stroke="#63b8ff" points="90.56,-27.61 82.49,-20.75 84.52,-31.15 90.56,-27.61"/>
<g id="a_edge2&#45;headlabel"><a xlink:href="dir_000069_000119.html" target="_top" xlink:title="1">
<text text-anchor="middle" x="94.07" y="-25.48" font-family="Helvetica,sans-Serif" font-size="10.00" fill="#63b8ff">1</text>
</a>
</g>
</g>
<!-- dir_68267d1309a1af8e8297ef4c3efbcdba -->
<g id="node5" class="node">
<title>dir_68267d1309a1af8e8297ef4c3efbcdba</title>
<g id="a_node5"><a xlink:href="dir_68267d1309a1af8e8297ef4c3efbcdba.html" target="_top" xlink:title="src">
<polygon fill="#edf0f7" stroke="red" points="154.5,-19 124.5,-19 124.5,0 154.5,0 154.5,-19"/>
<text text-anchor="middle" x="139.5" y="-7" font-family="Helvetica,sans-Serif" font-size="10.00">src</text>
</a>
</g>
</g>
<!-- dir_9f28f2124df836b76d65a464e556ead2&#45;&gt;dir_68267d1309a1af8e8297ef4c3efbcdba -->
<g id="edge3" class="edge">
<title>dir_9f28f2124df836b76d65a464e556ead2&#45;&gt;dir_68267d1309a1af8e8297ef4c3efbcdba</title>
<path fill="none" stroke="#63b8ff" d="M112.78,-54.75C116.97,-47.81 122.98,-37.86 128.23,-29.16"/>
<polygon fill="#63b8ff" stroke="#63b8ff" points="131.15,-31.11 133.32,-20.74 125.15,-27.49 131.15,-31.11"/>
<g id="a_edge3&#45;headlabel"><a xlink:href="dir_000069_000153.html" target="_top" xlink:title="3">
<text text-anchor="middle" x="132.5" y="-31.86" font-family="Helvetica,sans-Serif" font-size="10.00" fill="#63b8ff">3</text>
</a>
</g>
</g>
<!-- dir_a43d145ffbe64deac948a04a80a43b61 -->
<g id="node6" class="node">
<title>dir_a43d145ffbe64deac948a04a80a43b61</title>
<g id="a_node6"><a xlink:href="dir_a43d145ffbe64deac948a04a80a43b61.html" target="_top" xlink:title="root">
<polygon fill="#edf0f7" stroke="red" stroke-dasharray="5,2" points="206,-19 173,-19 173,0 206,0 206,-19"/>
<text text-anchor="middle" x="189.5" y="-7" font-family="Helvetica,sans-Serif" font-size="10.00">root</text>
</a>
</g>
</g>
<!-- dir_9f28f2124df836b76d65a464e556ead2&#45;&gt;dir_a43d145ffbe64deac948a04a80a43b61 -->
<g id="edge4" class="edge">
<title>dir_9f28f2124df836b76d65a464e556ead2&#45;&gt;dir_a43d145ffbe64deac948a04a80a43b61</title>
<path fill="none" stroke="#63b8ff" d="M120.41,-54.52C127.23,-49.82 135.77,-44.02 143.5,-39 150.49,-34.46 158.15,-29.65 165.19,-25.29"/>
<polygon fill="#63b8ff" stroke="#63b8ff" points="166.92,-28.34 173.61,-20.12 163.26,-22.37 166.92,-28.34"/>
<g id="a_edge4&#45;headlabel"><a xlink:href="dir_000069_000121.html" target="_top" xlink:title="1">
<text text-anchor="middle" x="166.63" y="-29.35" font-family="Helvetica,sans-Serif" font-size="10.00" fill="#63b8ff">1</text>
</a>
</g>
</g>
</g>
</svg>
