<?xml version="1.0" encoding="UTF-8" standalone="no"?>
<!DOCTYPE svg PUBLIC "-//W3C//DTD SVG 1.1//EN"
 "http://www.w3.org/Graphics/SVG/1.1/DTD/svg11.dtd">
<!-- Generated by graphviz version 7.0.5 (20221223.1930)
 -->
<!-- Title: plugins/renderer/vulkan/src Pages: 1 -->
<svg width="220pt" height="125pt"
 viewBox="0.00 0.00 220.00 125.00" xmlns="http://www.w3.org/2000/svg" xmlns:xlink="http://www.w3.org/1999/xlink">
<g id="graph0" class="graph" transform="scale(1 1) rotate(0) translate(4 121)">
<title>plugins/renderer/vulkan/src</title>
<g id="clust1" class="cluster">
<title>clusterdir_c7918647fe53d1e1e2a918714036f1c2</title>
<g id="a_clust1"><a xlink:href="dir_c7918647fe53d1e1e2a918714036f1c2.html" target="_top" xlink:title="vulkan">
<polygon fill="#edf0f7" stroke="#7f7f7f" stroke-dasharray="5,2" points="23,-39 23,-109 204,-109 204,-39 23,-39"/>
<text text-anchor="middle" x="113.5" y="-97" font-family="Helvetica,sans-Serif" font-size="10.00">vulkan</text>
</a>
</g>
</g>
<g id="clust2" class="cluster">
<title>clusterdir_8bf3704d6b53ed77a5d7c3efe73a837f</title>
<g id="a_clust2"><a xlink:href="dir_8bf3704d6b53ed77a5d7c3efe73a837f.html" target="_top">
<polygon fill="#edf0f7" stroke="#404040" stroke-width="2" points="31,-47 31,-82 196,-82 196,-47 31,-47"/>
</a>
</g>
</g>
<!-- dir_8bf3704d6b53ed77a5d7c3efe73a837f -->
<g id="node1" class="node">
<title>dir_8bf3704d6b53ed77a5d7c3efe73a837f</title>
<text text-anchor="middle" x="173" y="-62" font-family="Helvetica,sans-Serif" font-size="10.00">src</text>
</g>
<!-- dir_24a2d1a4cf6901789049169062dbdfad -->
<g id="node2" class="node">
<title>dir_24a2d1a4cf6901789049169062dbdfad</title>
<g id="a_node2"><a xlink:href="dir_24a2d1a4cf6901789049169062dbdfad.html" target="_top" xlink:title="glad">
<polygon fill="#a2b4d6" stroke="#404040" points="139.5,-74 104.5,-74 104.5,-55 139.5,-55 139.5,-74"/>
<text text-anchor="middle" x="122" y="-62" font-family="Helvetica,sans-Serif" font-size="10.00">glad</text>
</a>
</g>
</g>
<!-- dir_2b4022808cfc01aba6fee35cd13fe1be -->
<g id="node3" class="node">
<title>dir_2b4022808cfc01aba6fee35cd13fe1be</title>
<g id="a_node3"><a xlink:href="dir_2b4022808cfc01aba6fee35cd13fe1be.html" target="_top" xlink:title="Vulkan">
<polygon fill="#a2b4d6" stroke="#404040" points="86.5,-74 39.5,-74 39.5,-55 86.5,-55 86.5,-74"/>
<text text-anchor="middle" x="63" y="-62" font-family="Helvetica,sans-Serif" font-size="10.00">Vulkan</text>
</a>
</g>
</g>
<!-- dir_68267d1309a1af8e8297ef4c3efbcdba -->
<g id="node4" class="node">
<title>dir_68267d1309a1af8e8297ef4c3efbcdba</title>
<g id="a_node4"><a xlink:href="dir_68267d1309a1af8e8297ef4c3efbcdba.html" target="_top" xlink:title="src">
<polygon fill="#edf0f7" stroke="red" points="30,-19 0,-19 0,0 30,0 30,-19"/>
<text text-anchor="middle" x="15" y="-7" font-family="Helvetica,sans-Serif" font-size="10.00">src</text>
</a>
</g>
</g>
<!-- dir_2b4022808cfc01aba6fee35cd13fe1be&#45;&gt;dir_68267d1309a1af8e8297ef4c3efbcdba -->
<g id="edge2" class="edge">
<title>dir_2b4022808cfc01aba6fee35cd13fe1be&#45;&gt;dir_68267d1309a1af8e8297ef4c3efbcdba</title>
<path fill="none" stroke="#63b8ff" d="M55.07,-54.75C48.44,-47.43 38.78,-36.76 30.61,-27.74"/>
<polygon fill="#63b8ff" stroke="#63b8ff" points="33.42,-25.63 24.11,-20.56 28.23,-30.33 33.42,-25.63"/>
<g id="a_edge2&#45;headlabel"><a xlink:href="dir_000169_000153.html" target="_top" xlink:title="51">
<text text-anchor="middle" x="36.92" y="-22.76" font-family="Helvetica,sans-Serif" font-size="10.00" fill="#63b8ff">51</text>
</a>
</g>
</g>
<!-- dir_aeed45be98285214c75ce59c2db68594 -->
<g id="node5" class="node">
<title>dir_aeed45be98285214c75ce59c2db68594</title>
<g id="a_node5"><a xlink:href="dir_aeed45be98285214c75ce59c2db68594.html" target="_top" xlink:title="api">
<polygon fill="#edf0f7" stroke="red" stroke-dasharray="5,2" points="77.5,-19 48.5,-19 48.5,0 77.5,0 77.5,-19"/>
<text text-anchor="middle" x="63" y="-7" font-family="Helvetica,sans-Serif" font-size="10.00">api</text>
</a>
</g>
</g>
<!-- dir_2b4022808cfc01aba6fee35cd13fe1be&#45;&gt;dir_aeed45be98285214c75ce59c2db68594 -->
<g id="edge3" class="edge">
<title>dir_2b4022808cfc01aba6fee35cd13fe1be&#45;&gt;dir_aeed45be98285214c75ce59c2db68594</title>
<path fill="none" stroke="#63b8ff" d="M63,-54.75C63,-48.27 63,-39.16 63,-30.9"/>
<polygon fill="#63b8ff" stroke="#63b8ff" points="66.5,-30.96 63,-20.96 59.5,-30.96 66.5,-30.96"/>
<g id="a_edge3&#45;headlabel"><a xlink:href="dir_000169_000008.html" target="_top" xlink:title="9">
<text text-anchor="middle" x="69.34" y="-30.54" font-family="Helvetica,sans-Serif" font-size="10.00" fill="#63b8ff">9</text>
</a>
</g>
</g>
<!-- dir_18cb38c735f8a580e1e086510eb8c495 -->
<g id="node6" class="node">
<title>dir_18cb38c735f8a580e1e086510eb8c495</title>
<g id="a_node6"><a xlink:href="dir_18cb38c735f8a580e1e086510eb8c495.html" target="_top" xlink:title="resources">
<polygon fill="#edf0f7" stroke="red" stroke-dasharray="5,2" points="154.5,-19 95.5,-19 95.5,0 154.5,0 154.5,-19"/>
<text text-anchor="middle" x="125" y="-7" font-family="Helvetica,sans-Serif" font-size="10.00">resources</text>
</a>
</g>
</g>
<!-- dir_2b4022808cfc01aba6fee35cd13fe1be&#45;&gt;dir_18cb38c735f8a580e1e086510eb8c495 -->
<g id="edge1" class="edge">
<title>dir_2b4022808cfc01aba6fee35cd13fe1be&#45;&gt;dir_18cb38c735f8a580e1e086510eb8c495</title>
<path fill="none" stroke="#63b8ff" d="M73.52,-54.51C82.39,-46.93 95.31,-35.88 105.99,-26.75"/>
<polygon fill="#63b8ff" stroke="#63b8ff" points="108.16,-29.5 113.49,-20.34 103.61,-24.18 108.16,-29.5"/>
<g id="a_edge1&#45;headlabel"><a xlink:href="dir_000169_000119.html" target="_top" xlink:title="6">
<text text-anchor="middle" x="108.42" y="-30.51" font-family="Helvetica,sans-Serif" font-size="10.00" fill="#63b8ff">6</text>
</a>
</g>
</g>
</g>
</svg>
