<?xml version="1.0" encoding="UTF-8" standalone="no"?>
<!DOCTYPE svg PUBLIC "-//W3C//DTD SVG 1.1//EN"
 "http://www.w3.org/Graphics/SVG/1.1/DTD/svg11.dtd">
<!-- Generated by graphviz version 7.0.5 (20221223.1930)
 -->
<!-- Title: plugins/misc/widgets/handler/Madgine Pages: 1 -->
<svg width="225pt" height="125pt"
 viewBox="0.00 0.00 225.00 125.00" xmlns="http://www.w3.org/2000/svg" xmlns:xlink="http://www.w3.org/1999/xlink">
<g id="graph0" class="graph" transform="scale(1 1) rotate(0) translate(4 121)">
<title>plugins/misc/widgets/handler/Madgine</title>
<g id="clust1" class="cluster">
<title>clusterdir_72b7052581dbfe38fdfec6fb1065a6bf</title>
<g id="a_clust1"><a xlink:href="dir_72b7052581dbfe38fdfec6fb1065a6bf.html" target="_top" xlink:title="handler">
<polygon fill="#edf0f7" stroke="#7f7f7f" stroke-dasharray="5,2" points="8,-39 8,-109 162,-109 162,-39 8,-39"/>
<text text-anchor="middle" x="85" y="-97" font-family="Helvetica,sans-Serif" font-size="10.00">handler</text>
</a>
</g>
</g>
<g id="clust2" class="cluster">
<title>clusterdir_8d86602ed5b728e7111849d9726427c5</title>
<g id="a_clust2"><a xlink:href="dir_8d86602ed5b728e7111849d9726427c5.html" target="_top">
<polygon fill="#edf0f7" stroke="#404040" stroke-width="2" points="16,-47 16,-82 154,-82 154,-47 16,-47"/>
</a>
</g>
</g>
<!-- dir_8d86602ed5b728e7111849d9726427c5 -->
<g id="node1" class="node">
<title>dir_8d86602ed5b728e7111849d9726427c5</title>
<text text-anchor="middle" x="51" y="-62" font-family="Helvetica,sans-Serif" font-size="10.00">Madgine</text>
</g>
<!-- dir_6c67fa29e594c54b78f7ee5438b72d27 -->
<g id="node3" class="node">
<title>dir_6c67fa29e594c54b78f7ee5438b72d27</title>
<g id="a_node3"><a xlink:href="dir_6c67fa29e594c54b78f7ee5438b72d27.html" target="_top" xlink:title="src">
<polygon fill="#edf0f7" stroke="red" stroke-dasharray="5,2" points="39,-19 9,-19 9,0 39,0 39,-19"/>
<text text-anchor="middle" x="24" y="-7" font-family="Helvetica,sans-Serif" font-size="10.00">src</text>
</a>
</g>
</g>
<!-- dir_8d86602ed5b728e7111849d9726427c5&#45;&gt;dir_6c67fa29e594c54b78f7ee5438b72d27 -->
<g id="edge1" class="edge">
<title>dir_8d86602ed5b728e7111849d9726427c5&#45;&gt;dir_6c67fa29e594c54b78f7ee5438b72d27</title>
<path fill="none" stroke="#63b8ff" d="M46.78,-55.22C43.28,-48.34 38.16,-38.29 33.66,-29.46"/>
<polygon fill="#63b8ff" stroke="#63b8ff" points="36.8,-27.92 29.15,-20.6 30.57,-31.1 36.8,-27.92"/>
<g id="a_edge1&#45;headlabel"><a xlink:href="dir_000078_000145.html" target="_top" xlink:title="4">
<text text-anchor="middle" x="40.28" y="-25.99" font-family="Helvetica,sans-Serif" font-size="10.00" fill="#63b8ff">4</text>
</a>
</g>
</g>
<!-- dir_730e86da1a00f4cd5a8ebc1b01c8a81f -->
<g id="node4" class="node">
<title>dir_730e86da1a00f4cd5a8ebc1b01c8a81f</title>
<g id="a_node4"><a xlink:href="dir_730e86da1a00f4cd5a8ebc1b01c8a81f.html" target="_top" xlink:title="behavior">
<polygon fill="#edf0f7" stroke="red" stroke-dasharray="5,2" points="110.5,-19 57.5,-19 57.5,0 110.5,0 110.5,-19"/>
<text text-anchor="middle" x="84" y="-7" font-family="Helvetica,sans-Serif" font-size="10.00">behavior</text>
</a>
</g>
</g>
<!-- dir_8d86602ed5b728e7111849d9726427c5&#45;&gt;dir_730e86da1a00f4cd5a8ebc1b01c8a81f -->
<g id="edge2" class="edge">
<title>dir_8d86602ed5b728e7111849d9726427c5&#45;&gt;dir_730e86da1a00f4cd5a8ebc1b01c8a81f</title>
<path fill="none" stroke="#63b8ff" d="M56.16,-55.22C60.53,-48.19 66.98,-37.84 72.56,-28.87"/>
<polygon fill="#63b8ff" stroke="#63b8ff" points="75.44,-30.88 77.75,-20.54 69.49,-27.18 75.44,-30.88"/>
<g id="a_edge2&#45;headlabel"><a xlink:href="dir_000078_000021.html" target="_top" xlink:title="4">
<text text-anchor="middle" x="76.75" y="-31.64" font-family="Helvetica,sans-Serif" font-size="10.00" fill="#63b8ff">4</text>
</a>
</g>
</g>
<!-- dir_672cbccbd2909a15079239a236995667 -->
<g id="node2" class="node">
<title>dir_672cbccbd2909a15079239a236995667</title>
<g id="a_node2"><a xlink:href="dir_672cbccbd2909a15079239a236995667.html" target="_top" xlink:title="widgets">
<polygon fill="#a2b4d6" stroke="#404040" points="146,-74 96,-74 96,-55 146,-55 146,-74"/>
<text text-anchor="middle" x="121" y="-62" font-family="Helvetica,sans-Serif" font-size="10.00">widgets</text>
</a>
</g>
</g>
<!-- dir_672cbccbd2909a15079239a236995667&#45;&gt;dir_6c67fa29e594c54b78f7ee5438b72d27 -->
<g id="edge5" class="edge">
<title>dir_672cbccbd2909a15079239a236995667&#45;&gt;dir_6c67fa29e594c54b78f7ee5438b72d27</title>
<path fill="none" stroke="#63b8ff" d="M109.36,-54.56C102.71,-49.66 94.11,-43.65 86,-39 74.52,-32.41 61.24,-26.15 49.93,-21.17"/>
<polygon fill="#63b8ff" stroke="#63b8ff" points="51.38,-17.99 40.81,-17.27 48.62,-24.42 51.38,-17.99"/>
<g id="a_edge5&#45;headlabel"><a xlink:href="dir_000171_000145.html" target="_top" xlink:title="3">
<text text-anchor="middle" x="54.41" y="-13.69" font-family="Helvetica,sans-Serif" font-size="10.00" fill="#63b8ff">3</text>
</a>
</g>
</g>
<!-- dir_672cbccbd2909a15079239a236995667&#45;&gt;dir_730e86da1a00f4cd5a8ebc1b01c8a81f -->
<g id="edge6" class="edge">
<title>dir_672cbccbd2909a15079239a236995667&#45;&gt;dir_730e86da1a00f4cd5a8ebc1b01c8a81f</title>
<path fill="none" stroke="#63b8ff" d="M114.89,-54.75C109.99,-47.73 102.95,-37.64 96.83,-28.87"/>
<polygon fill="#63b8ff" stroke="#63b8ff" points="99.7,-26.88 91.11,-20.68 93.96,-30.89 99.7,-26.88"/>
<g id="a_edge6&#45;headlabel"><a xlink:href="dir_000171_000021.html" target="_top" xlink:title="3">
<text text-anchor="middle" x="103.22" y="-24.46" font-family="Helvetica,sans-Serif" font-size="10.00" fill="#63b8ff">3</text>
</a>
</g>
</g>
<!-- dir_1da05fa7afbe4395eeb05c97a448f57a -->
<g id="node5" class="node">
<title>dir_1da05fa7afbe4395eeb05c97a448f57a</title>
<g id="a_node5"><a xlink:href="dir_1da05fa7afbe4395eeb05c97a448f57a.html" target="_top" xlink:title="client">
<polygon fill="#edf0f7" stroke="red" stroke-dasharray="5,2" points="169,-19 129,-19 129,0 169,0 169,-19"/>
<text text-anchor="middle" x="149" y="-7" font-family="Helvetica,sans-Serif" font-size="10.00">client</text>
</a>
</g>
</g>
<!-- dir_672cbccbd2909a15079239a236995667&#45;&gt;dir_1da05fa7afbe4395eeb05c97a448f57a -->
<g id="edge3" class="edge">
<title>dir_672cbccbd2909a15079239a236995667&#45;&gt;dir_1da05fa7afbe4395eeb05c97a448f57a</title>
<path fill="none" stroke="#63b8ff" d="M125.62,-54.75C129.25,-47.88 134.43,-38.08 138.99,-29.45"/>
<polygon fill="#63b8ff" stroke="#63b8ff" points="141.99,-31.26 143.57,-20.78 135.8,-27.99 141.99,-31.26"/>
<g id="a_edge3&#45;headlabel"><a xlink:href="dir_000171_000026.html" target="_top" xlink:title="1">
<text text-anchor="middle" x="143.53" y="-31.92" font-family="Helvetica,sans-Serif" font-size="10.00" fill="#63b8ff">1</text>
</a>
</g>
</g>
<!-- dir_68267d1309a1af8e8297ef4c3efbcdba -->
<g id="node6" class="node">
<title>dir_68267d1309a1af8e8297ef4c3efbcdba</title>
<g id="a_node6"><a xlink:href="dir_68267d1309a1af8e8297ef4c3efbcdba.html" target="_top" xlink:title="src">
<polygon fill="#edf0f7" stroke="red" points="217,-19 187,-19 187,0 217,0 217,-19"/>
<text text-anchor="middle" x="202" y="-7" font-family="Helvetica,sans-Serif" font-size="10.00">src</text>
</a>
</g>
</g>
<!-- dir_672cbccbd2909a15079239a236995667&#45;&gt;dir_68267d1309a1af8e8297ef4c3efbcdba -->
<g id="edge4" class="edge">
<title>dir_672cbccbd2909a15079239a236995667&#45;&gt;dir_68267d1309a1af8e8297ef4c3efbcdba</title>
<path fill="none" stroke="#63b8ff" d="M134.74,-54.51C146.8,-46.62 164.59,-34.98 178.84,-25.65"/>
<polygon fill="#63b8ff" stroke="#63b8ff" points="180.74,-28.59 187.2,-20.19 176.91,-22.73 180.74,-28.59"/>
<g id="a_edge4&#45;headlabel"><a xlink:href="dir_000171_000153.html" target="_top" xlink:title="3">
<text text-anchor="middle" x="180.56" y="-29.61" font-family="Helvetica,sans-Serif" font-size="10.00" fill="#63b8ff">3</text>
</a>
</g>
</g>
</g>
</svg>
