<?xml version="1.0" encoding="UTF-8" standalone="no"?>
<!DOCTYPE svg PUBLIC "-//W3C//DTD SVG 1.1//EN"
 "http://www.w3.org/Graphics/SVG/1.1/DTD/svg11.dtd">
<!-- Generated by graphviz version 7.0.5 (20221223.1930)
 -->
<!-- Title: plugins/renderer/directx12/src/DirectX12/util/directx12buffer.h Pages: 1 -->
<svg width="3967pt" height="236pt"
 viewBox="0.00 0.00 3967.00 236.00" xmlns="http://www.w3.org/2000/svg" xmlns:xlink="http://www.w3.org/1999/xlink">
<g id="graph0" class="graph" transform="scale(1 1) rotate(0) translate(4 232)">
<title>plugins/renderer/directx12/src/DirectX12/util/directx12buffer.h</title>
<!-- Node1 -->
<g id="node1" class="node">
<title>Node1</title>
<g id="a_node1"><a xlink:title=" ">
<polygon fill="#999999" stroke="#666666" points="1385.5,-228 1217.5,-228 1217.5,-198 1385.5,-198 1385.5,-228"/>
<text text-anchor="start" x="1225.5" y="-216" font-family="Helvetica,sans-Serif" font-size="10.00">plugins/renderer/directx12</text>
<text text-anchor="middle" x="1301.5" y="-205" font-family="Helvetica,sans-Serif" font-size="10.00">/src/DirectX12/util/directx12buffer.h</text>
</a>
</g>
</g>
<!-- Node2 -->
<g id="node2" class="node">
<title>Node2</title>
<g id="a_node2"><a xlink:href="directx12meshdata_8h.html" target="_top" xlink:title=" ">
<polygon fill="white" stroke="#666666" points="270,-162 99,-162 99,-132 270,-132 270,-162"/>
<text text-anchor="start" x="107" y="-150" font-family="Helvetica,sans-Serif" font-size="10.00">plugins/renderer/directx12</text>
<text text-anchor="middle" x="184.5" y="-139" font-family="Helvetica,sans-Serif" font-size="10.00">/src/DirectX12/directx12meshdata.h</text>
</a>
</g>
</g>
<!-- Node1&#45;&gt;Node2 -->
<g id="edge1" class="edge">
<title>Node1&#45;&gt;Node2</title>
<path fill="none" stroke="#63b8ff" d="M1205.87,-206.52C991.53,-194.24 475.43,-164.67 270.49,-152.93"/>
<polygon fill="#63b8ff" stroke="#63b8ff" points="1205.39,-210 1215.57,-207.08 1205.79,-203.01 1205.39,-210"/>
</g>
<!-- Node8 -->
<g id="node8" class="node">
<title>Node8</title>
<g id="a_node8"><a xlink:href="directx12rendercontext_8h.html" target="_top" xlink:title=" ">
<polygon fill="white" stroke="#666666" points="2138,-162 1951,-162 1951,-132 2138,-132 2138,-162"/>
<text text-anchor="start" x="1959" y="-150" font-family="Helvetica,sans-Serif" font-size="10.00">plugins/renderer/directx12</text>
<text text-anchor="middle" x="2044.5" y="-139" font-family="Helvetica,sans-Serif" font-size="10.00">/src/DirectX12/directx12rendercontext.h</text>
</a>
</g>
</g>
<!-- Node1&#45;&gt;Node8 -->
<g id="edge9" class="edge">
<title>Node1&#45;&gt;Node8</title>
<path fill="none" stroke="#63b8ff" d="M1396.99,-203.77C1540.09,-191.45 1808.51,-168.33 1950.65,-156.08"/>
<polygon fill="#63b8ff" stroke="#63b8ff" points="1396.82,-200.28 1387.16,-204.62 1397.42,-207.25 1396.82,-200.28"/>
</g>
<!-- Node15 -->
<g id="node15" class="node">
<title>Node15</title>
<g id="a_node15"><a xlink:href="directx12buffer_8cpp.html" target="_top" xlink:title=" ">
<polygon fill="white" stroke="#666666" points="3959,-96 3780,-96 3780,-66 3959,-66 3959,-96"/>
<text text-anchor="start" x="3788" y="-84" font-family="Helvetica,sans-Serif" font-size="10.00">plugins/renderer/directx12</text>
<text text-anchor="middle" x="3869.5" y="-73" font-family="Helvetica,sans-Serif" font-size="10.00">/src/DirectX12/util/directx12buffer.cpp</text>
</a>
</g>
</g>
<!-- Node1&#45;&gt;Node15 -->
<g id="edge29" class="edge">
<title>Node1&#45;&gt;Node15</title>
<path fill="none" stroke="#63b8ff" d="M1397.32,-210.72C1727.6,-205.62 2848.99,-182.61 3770.5,-96 3773.52,-95.72 3776.6,-95.4 3779.7,-95.07"/>
<polygon fill="#63b8ff" stroke="#63b8ff" points="1397.36,-207.22 1387.42,-210.87 1397.47,-214.22 1397.36,-207.22"/>
</g>
<!-- Node24 -->
<g id="node24" class="node">
<title>Node24</title>
<g id="a_node24"><a xlink:href="directx12pipelineinstance_8h.html" target="_top" xlink:title=" ">
<polygon fill="white" stroke="#666666" points="663.5,-162 449.5,-162 449.5,-132 663.5,-132 663.5,-162"/>
<text text-anchor="start" x="457.5" y="-150" font-family="Helvetica,sans-Serif" font-size="10.00">plugins/renderer/directx12</text>
<text text-anchor="middle" x="556.5" y="-139" font-family="Helvetica,sans-Serif" font-size="10.00">/src/DirectX12/util/directx12pipelineinstance.h</text>
</a>
</g>
</g>
<!-- Node1&#45;&gt;Node24 -->
<g id="edge30" class="edge">
<title>Node1&#45;&gt;Node24</title>
<path fill="none" stroke="#63b8ff" d="M1205.67,-203.77C1066.47,-191.81 809.14,-169.7 663.77,-157.22"/>
<polygon fill="#63b8ff" stroke="#63b8ff" points="1205.36,-207.25 1215.62,-204.62 1205.95,-200.28 1205.36,-207.25"/>
</g>
<!-- Node3 -->
<g id="node3" class="node">
<title>Node3</title>
<g id="a_node3"><a xlink:href="directx12meshloader_8cpp.html" target="_top" xlink:title=" ">
<polygon fill="white" stroke="#666666" points="189,-30 0,-30 0,0 189,0 189,-30"/>
<text text-anchor="start" x="8" y="-18" font-family="Helvetica,sans-Serif" font-size="10.00">plugins/renderer/directx12</text>
<text text-anchor="middle" x="94.5" y="-7" font-family="Helvetica,sans-Serif" font-size="10.00">/src/DirectX12/directx12meshloader.cpp</text>
</a>
</g>
</g>
<!-- Node2&#45;&gt;Node3 -->
<g id="edge2" class="edge">
<title>Node2&#45;&gt;Node3</title>
<path fill="none" stroke="#63b8ff" d="M91.42,-127.18C76.09,-119.93 62.1,-109.89 52.5,-96 37.61,-74.44 60.02,-46.97 77.4,-30.47"/>
<polygon fill="#63b8ff" stroke="#63b8ff" points="89.69,-130.25 100.26,-130.96 92.44,-123.81 89.69,-130.25"/>
</g>
<!-- Node4 -->
<g id="node4" class="node">
<title>Node4</title>
<g id="a_node4"><a xlink:href="directx12meshloader_8h.html" target="_top" xlink:title=" ">
<polygon fill="white" stroke="#666666" points="274,-96 95,-96 95,-66 274,-66 274,-96"/>
<text text-anchor="start" x="103" y="-84" font-family="Helvetica,sans-Serif" font-size="10.00">plugins/renderer/directx12</text>
<text text-anchor="middle" x="184.5" y="-73" font-family="Helvetica,sans-Serif" font-size="10.00">/src/DirectX12/directx12meshloader.h</text>
</a>
</g>
</g>
<!-- Node2&#45;&gt;Node4 -->
<g id="edge3" class="edge">
<title>Node2&#45;&gt;Node4</title>
<path fill="none" stroke="#63b8ff" d="M184.5,-120.39C184.5,-112.13 184.5,-103.28 184.5,-96.16"/>
<polygon fill="#63b8ff" stroke="#63b8ff" points="181,-120.28 184.5,-130.28 188,-120.28 181,-120.28"/>
</g>
<!-- Node6 -->
<g id="node6" class="node">
<title>Node6</title>
<g id="a_node6"><a xlink:href="directx12rendertarget_8cpp.html" target="_top" xlink:title=" ">
<polygon fill="white" stroke="#666666" points="398,-30 207,-30 207,0 398,0 398,-30"/>
<text text-anchor="start" x="215" y="-18" font-family="Helvetica,sans-Serif" font-size="10.00">plugins/renderer/directx12</text>
<text text-anchor="middle" x="302.5" y="-7" font-family="Helvetica,sans-Serif" font-size="10.00">/src/DirectX12/directx12rendertarget.cpp</text>
</a>
</g>
</g>
<!-- Node2&#45;&gt;Node6 -->
<g id="edge7" class="edge">
<title>Node2&#45;&gt;Node6</title>
<path fill="none" stroke="#63b8ff" d="M131.66,-127.23C98.69,-112.57 65.92,-90.6 85.5,-66 94.06,-55.24 160.11,-41 217.11,-30.47"/>
<polygon fill="#63b8ff" stroke="#63b8ff" points="129.88,-130.28 140.45,-130.95 132.6,-123.83 129.88,-130.28"/>
</g>
<!-- Node7 -->
<g id="node7" class="node">
<title>Node7</title>
<g id="a_node7"><a xlink:href="directx12pipelineinstance_8cpp.html" target="_top" xlink:title=" ">
<polygon fill="white" stroke="#666666" points="554.5,-96 330.5,-96 330.5,-66 554.5,-66 554.5,-96"/>
<text text-anchor="start" x="338.5" y="-84" font-family="Helvetica,sans-Serif" font-size="10.00">plugins/renderer/directx12</text>
<text text-anchor="middle" x="442.5" y="-73" font-family="Helvetica,sans-Serif" font-size="10.00">/src/DirectX12/util/directx12pipelineinstance.cpp</text>
</a>
</g>
</g>
<!-- Node2&#45;&gt;Node7 -->
<g id="edge8" class="edge">
<title>Node2&#45;&gt;Node7</title>
<path fill="none" stroke="#63b8ff" d="M253.69,-128.84C294.57,-118.7 345.74,-106 384.49,-96.39"/>
<polygon fill="#63b8ff" stroke="#63b8ff" points="253.05,-125.39 244.19,-131.19 254.74,-132.18 253.05,-125.39"/>
</g>
<!-- Node4&#45;&gt;Node3 -->
<g id="edge4" class="edge">
<title>Node4&#45;&gt;Node3</title>
<path fill="none" stroke="#63b8ff" d="M155.32,-59.25C142.06,-49.82 126.7,-38.9 114.73,-30.39"/>
<polygon fill="#63b8ff" stroke="#63b8ff" points="153.11,-61.98 163.29,-64.92 157.17,-56.27 153.11,-61.98"/>
</g>
<!-- Node5 -->
<g id="node5" class="node">
<title>Node5</title>
<g id="a_node5"><a xlink:href="directx12rendercontext_8cpp.html" target="_top" xlink:title=" ">
<polygon fill="white" stroke="#666666" points="1794,-30 1597,-30 1597,0 1794,0 1794,-30"/>
<text text-anchor="start" x="1605" y="-18" font-family="Helvetica,sans-Serif" font-size="10.00">plugins/renderer/directx12</text>
<text text-anchor="middle" x="1695.5" y="-7" font-family="Helvetica,sans-Serif" font-size="10.00">/src/DirectX12/directx12rendercontext.cpp</text>
</a>
</g>
</g>
<!-- Node4&#45;&gt;Node5 -->
<g id="edge5" class="edge">
<title>Node4&#45;&gt;Node5</title>
<path fill="none" stroke="#63b8ff" d="M285.44,-68.93C297.58,-67.82 309.81,-66.81 321.5,-66 798.65,-32.97 1370.63,-21.02 1596.66,-17.38"/>
<polygon fill="#63b8ff" stroke="#63b8ff" points="285.47,-65.41 275.84,-69.83 286.12,-72.38 285.47,-65.41"/>
</g>
<!-- Node4&#45;&gt;Node6 -->
<g id="edge6" class="edge">
<title>Node4&#45;&gt;Node6</title>
<path fill="none" stroke="#63b8ff" d="M221.04,-60.18C238.85,-50.52 259.88,-39.12 276.11,-30.31"/>
<polygon fill="#63b8ff" stroke="#63b8ff" points="219.43,-57.07 212.31,-64.92 222.77,-63.22 219.43,-57.07"/>
</g>
<!-- Node8&#45;&gt;Node3 -->
<g id="edge10" class="edge">
<title>Node8&#45;&gt;Node3</title>
<path fill="none" stroke="#63b8ff" d="M1939.65,-145.83C1660.83,-144.81 915.24,-138.13 812.5,-96 794.16,-88.48 797.76,-73.72 779.5,-66 660.14,-15.56 326.45,-42.73 197.5,-30 194.81,-29.73 192.07,-29.45 189.32,-29.15"/>
<polygon fill="#63b8ff" stroke="#63b8ff" points="1939.45,-149.33 1949.46,-145.87 1939.48,-142.33 1939.45,-149.33"/>
</g>
<!-- Node8&#45;&gt;Node5 -->
<g id="edge13" class="edge">
<title>Node8&#45;&gt;Node5</title>
<path fill="none" stroke="#63b8ff" d="M2149.62,-143.32C2364.01,-137.34 2833.62,-121.4 2857.5,-96 2866.63,-86.29 2866.72,-75.63 2857.5,-66 2820.99,-27.88 2068.71,-18.68 1794.44,-16.58"/>
<polygon fill="#63b8ff" stroke="#63b8ff" points="2149.77,-139.81 2139.88,-143.59 2149.97,-146.81 2149.77,-139.81"/>
</g>
<!-- Node8&#45;&gt;Node6 -->
<g id="edge14" class="edge">
<title>Node8&#45;&gt;Node6</title>
<path fill="none" stroke="#63b8ff" d="M1939.31,-144.94C1667.61,-141.72 956.51,-130.1 855.5,-96 833.42,-88.55 834.36,-74.07 812.5,-66 738.89,-38.84 524.63,-25.37 398.46,-19.62"/>
<polygon fill="#63b8ff" stroke="#63b8ff" points="1939.19,-148.44 1949.23,-145.05 1939.27,-141.44 1939.19,-148.44"/>
</g>
<!-- Node8&#45;&gt;Node7 -->
<g id="edge25" class="edge">
<title>Node8&#45;&gt;Node7</title>
<path fill="none" stroke="#63b8ff" d="M1939.52,-145.39C1696.91,-143.34 1078.69,-134.44 563.5,-96 560.65,-95.79 557.77,-95.56 554.86,-95.32"/>
<polygon fill="#63b8ff" stroke="#63b8ff" points="1939.25,-148.89 1949.28,-145.47 1939.3,-141.89 1939.25,-148.89"/>
</g>
<!-- Node9 -->
<g id="node9" class="node">
<title>Node9</title>
<g id="a_node9"><a xlink:href="directx12pipelineloader_8cpp.html" target="_top" xlink:title=" ">
<polygon fill="white" stroke="#666666" points="770.5,-96 572.5,-96 572.5,-66 770.5,-66 770.5,-96"/>
<text text-anchor="start" x="580.5" y="-84" font-family="Helvetica,sans-Serif" font-size="10.00">plugins/renderer/directx12</text>
<text text-anchor="middle" x="671.5" y="-73" font-family="Helvetica,sans-Serif" font-size="10.00">/src/DirectX12/directx12pipelineloader.cpp</text>
</a>
</g>
</g>
<!-- Node8&#45;&gt;Node9 -->
<g id="edge11" class="edge">
<title>Node8&#45;&gt;Node9</title>
<path fill="none" stroke="#63b8ff" d="M1939.35,-144.8C1722.88,-141.66 1211.88,-130.89 784.5,-96 780.07,-95.64 775.54,-95.23 770.97,-94.79"/>
<polygon fill="#63b8ff" stroke="#63b8ff" points="1939.12,-148.29 1949.17,-144.94 1939.22,-141.29 1939.12,-148.29"/>
</g>
<!-- Node10 -->
<g id="node10" class="node">
<title>Node10</title>
<g id="a_node10"><a xlink:href="directx12pixelshaderloader_8cpp.html" target="_top" xlink:title=" ">
<polygon fill="white" stroke="#666666" points="3118.5,-96 2904.5,-96 2904.5,-66 3118.5,-66 3118.5,-96"/>
<text text-anchor="start" x="2912.5" y="-84" font-family="Helvetica,sans-Serif" font-size="10.00">plugins/renderer/directx12</text>
<text text-anchor="middle" x="3011.5" y="-73" font-family="Helvetica,sans-Serif" font-size="10.00">/src/DirectX12/directx12pixelshaderloader.cpp</text>
</a>
</g>
</g>
<!-- Node8&#45;&gt;Node10 -->
<g id="edge12" class="edge">
<title>Node8&#45;&gt;Node10</title>
<path fill="none" stroke="#63b8ff" d="M2149.46,-141.69C2309.5,-134.7 2624.08,-119.27 2890.5,-96 2895.03,-95.6 2899.65,-95.18 2904.32,-94.72"/>
<polygon fill="#63b8ff" stroke="#63b8ff" points="2149.55,-138.19 2139.72,-142.12 2149.86,-145.18 2149.55,-138.19"/>
</g>
<!-- Node11 -->
<g id="node11" class="node">
<title>Node11</title>
<g id="a_node11"><a xlink:href="directx12rendertexture_8cpp.html" target="_top" xlink:title=" ">
<polygon fill="white" stroke="#666666" points="3332,-96 3137,-96 3137,-66 3332,-66 3332,-96"/>
<text text-anchor="start" x="3145" y="-84" font-family="Helvetica,sans-Serif" font-size="10.00">plugins/renderer/directx12</text>
<text text-anchor="middle" x="3234.5" y="-73" font-family="Helvetica,sans-Serif" font-size="10.00">/src/DirectX12/directx12rendertexture.cpp</text>
</a>
</g>
</g>
<!-- Node8&#45;&gt;Node11 -->
<g id="edge15" class="edge">
<title>Node8&#45;&gt;Node11</title>
<path fill="none" stroke="#63b8ff" d="M2149.78,-144.07C2343.58,-139.88 2769.72,-127.61 3127.5,-96 3130.49,-95.74 3133.52,-95.45 3136.57,-95.15"/>
<polygon fill="#63b8ff" stroke="#63b8ff" points="2149.91,-140.57 2139.99,-144.28 2150.06,-147.57 2149.91,-140.57"/>
</g>
<!-- Node12 -->
<g id="node12" class="node">
<title>Node12</title>
<g id="a_node12"><a xlink:href="directx12renderwindow_8cpp.html" target="_top" xlink:title=" ">
<polygon fill="white" stroke="#666666" points="3549,-96 3350,-96 3350,-66 3549,-66 3549,-96"/>
<text text-anchor="start" x="3358" y="-84" font-family="Helvetica,sans-Serif" font-size="10.00">plugins/renderer/directx12</text>
<text text-anchor="middle" x="3449.5" y="-73" font-family="Helvetica,sans-Serif" font-size="10.00">/src/DirectX12/directx12renderwindow.cpp</text>
</a>
</g>
</g>
<!-- Node8&#45;&gt;Node12 -->
<g id="edge16" class="edge">
<title>Node8&#45;&gt;Node12</title>
<path fill="none" stroke="#63b8ff" d="M2149.51,-145.17C2370.47,-142.7 2899.52,-133.09 3341.5,-96 3344.14,-95.78 3346.81,-95.54 3349.5,-95.29"/>
<polygon fill="#63b8ff" stroke="#63b8ff" points="2149.74,-141.66 2139.78,-145.27 2149.82,-148.66 2149.74,-141.66"/>
</g>
<!-- Node13 -->
<g id="node13" class="node">
<title>Node13</title>
<g id="a_node13"><a xlink:href="directx12textureloader_8cpp.html" target="_top" xlink:title=" ">
<polygon fill="white" stroke="#666666" points="3761.5,-96 3567.5,-96 3567.5,-66 3761.5,-66 3761.5,-96"/>
<text text-anchor="start" x="3575.5" y="-84" font-family="Helvetica,sans-Serif" font-size="10.00">plugins/renderer/directx12</text>
<text text-anchor="middle" x="3664.5" y="-73" font-family="Helvetica,sans-Serif" font-size="10.00">/src/DirectX12/directx12textureloader.cpp</text>
</a>
</g>
</g>
<!-- Node8&#45;&gt;Node13 -->
<g id="edge17" class="edge">
<title>Node8&#45;&gt;Node13</title>
<path fill="none" stroke="#63b8ff" d="M2149.59,-146.08C2396.1,-145.49 3030.55,-139.48 3558.5,-96 3561.37,-95.76 3564.28,-95.5 3567.21,-95.23"/>
<polygon fill="#63b8ff" stroke="#63b8ff" points="2149.66,-142.58 2139.66,-146.1 2149.67,-149.58 2149.66,-142.58"/>
</g>
<!-- Node14 -->
<g id="node14" class="node">
<title>Node14</title>
<g id="a_node14"><a xlink:href="directx12vertexshaderloader_8cpp.html" target="_top" xlink:title=" ">
<polygon fill="white" stroke="#666666" points="1086,-96 865,-96 865,-66 1086,-66 1086,-96"/>
<text text-anchor="start" x="873" y="-84" font-family="Helvetica,sans-Serif" font-size="10.00">plugins/renderer/directx12</text>
<text text-anchor="middle" x="975.5" y="-73" font-family="Helvetica,sans-Serif" font-size="10.00">/src/DirectX12/directx12vertexshaderloader.cpp</text>
</a>
</g>
</g>
<!-- Node8&#45;&gt;Node14 -->
<g id="edge18" class="edge">
<title>Node8&#45;&gt;Node14</title>
<path fill="none" stroke="#63b8ff" d="M1939.49,-142.65C1764.33,-136.57 1401.55,-121.89 1095.5,-96 1092.47,-95.74 1089.4,-95.47 1086.3,-95.19"/>
<polygon fill="#63b8ff" stroke="#63b8ff" points="1939.12,-146.14 1949.24,-142.98 1939.36,-139.14 1939.12,-146.14"/>
</g>
<!-- Node8&#45;&gt;Node15 -->
<g id="edge19" class="edge">
<title>Node8&#45;&gt;Node15</title>
<path fill="none" stroke="#63b8ff" d="M2149.67,-144.49C2473.56,-139.61 3453.16,-122.95 3770.5,-96 3773.53,-95.74 3776.6,-95.46 3779.71,-95.14"/>
<polygon fill="#63b8ff" stroke="#63b8ff" points="2149.89,-140.99 2139.94,-144.64 2149.99,-147.99 2149.89,-140.99"/>
</g>
<!-- Node16 -->
<g id="node16" class="node">
<title>Node16</title>
<g id="a_node16"><a xlink:href="directx12commandallocator_8cpp.html" target="_top" xlink:title=" ">
<polygon fill="white" stroke="#666666" points="1338.5,-96 1104.5,-96 1104.5,-66 1338.5,-66 1338.5,-96"/>
<text text-anchor="start" x="1112.5" y="-84" font-family="Helvetica,sans-Serif" font-size="10.00">plugins/renderer/directx12</text>
<text text-anchor="middle" x="1221.5" y="-73" font-family="Helvetica,sans-Serif" font-size="10.00">/src/DirectX12/util/directx12commandallocator.cpp</text>
</a>
</g>
</g>
<!-- Node8&#45;&gt;Node16 -->
<g id="edge20" class="edge">
<title>Node8&#45;&gt;Node16</title>
<path fill="none" stroke="#63b8ff" d="M1939.3,-139.74C1802.74,-131.31 1557.11,-115.16 1347.5,-96 1344.65,-95.74 1341.77,-95.47 1338.86,-95.19"/>
<polygon fill="#63b8ff" stroke="#63b8ff" points="1938.85,-143.22 1949.04,-140.34 1939.27,-136.23 1938.85,-143.22"/>
</g>
<!-- Node17 -->
<g id="node17" class="node">
<title>Node17</title>
<g id="a_node17"><a xlink:href="directx12descriptorheap_8cpp.html" target="_top" xlink:title=" ">
<polygon fill="white" stroke="#666666" points="1574.5,-96 1356.5,-96 1356.5,-66 1574.5,-66 1574.5,-96"/>
<text text-anchor="start" x="1364.5" y="-84" font-family="Helvetica,sans-Serif" font-size="10.00">plugins/renderer/directx12</text>
<text text-anchor="middle" x="1465.5" y="-73" font-family="Helvetica,sans-Serif" font-size="10.00">/src/DirectX12/util/directx12descriptorheap.cpp</text>
</a>
</g>
</g>
<!-- Node8&#45;&gt;Node17 -->
<g id="edge21" class="edge">
<title>Node8&#45;&gt;Node17</title>
<path fill="none" stroke="#63b8ff" d="M1939.43,-134.91C1845.97,-124.97 1705.59,-109.86 1583.5,-96 1580.63,-95.67 1577.72,-95.34 1574.79,-95.01"/>
<polygon fill="#63b8ff" stroke="#63b8ff" points="1939.06,-138.39 1949.37,-135.96 1939.8,-131.43 1939.06,-138.39"/>
</g>
<!-- Node18 -->
<g id="node18" class="node">
<title>Node18</title>
<g id="a_node18"><a xlink:href="directx12heapallocator_8cpp.html" target="_top" xlink:title=" ">
<polygon fill="white" stroke="#666666" points="1804.5,-96 1592.5,-96 1592.5,-66 1804.5,-66 1804.5,-96"/>
<text text-anchor="start" x="1600.5" y="-84" font-family="Helvetica,sans-Serif" font-size="10.00">plugins/renderer/directx12</text>
<text text-anchor="middle" x="1698.5" y="-73" font-family="Helvetica,sans-Serif" font-size="10.00">/src/DirectX12/util/directx12heapallocator.cpp</text>
</a>
</g>
</g>
<!-- Node8&#45;&gt;Node18 -->
<g id="edge22" class="edge">
<title>Node8&#45;&gt;Node18</title>
<path fill="none" stroke="#63b8ff" d="M1955.22,-129.49C1899.95,-119.26 1829.65,-106.26 1776.6,-96.45"/>
<polygon fill="#63b8ff" stroke="#63b8ff" points="1954.46,-132.9 1964.93,-131.28 1955.73,-126.02 1954.46,-132.9"/>
</g>
<!-- Node19 -->
<g id="node19" class="node">
<title>Node19</title>
<g id="a_node19"><a xlink:href="directx12persistentbuffer_8cpp.html" target="_top" xlink:title=" ">
<polygon fill="white" stroke="#666666" points="2044,-96 1823,-96 1823,-66 2044,-66 2044,-96"/>
<text text-anchor="start" x="1831" y="-84" font-family="Helvetica,sans-Serif" font-size="10.00">plugins/renderer/directx12</text>
<text text-anchor="middle" x="1933.5" y="-73" font-family="Helvetica,sans-Serif" font-size="10.00">/src/DirectX12/util/directx12persistentbuffer.cpp</text>
</a>
</g>
</g>
<!-- Node8&#45;&gt;Node19 -->
<g id="edge23" class="edge">
<title>Node8&#45;&gt;Node19</title>
<path fill="none" stroke="#63b8ff" d="M2009.66,-125.91C1993,-116.31 1973.45,-105.03 1958.33,-96.31"/>
<polygon fill="#63b8ff" stroke="#63b8ff" points="2007.87,-128.92 2018.28,-130.88 2011.36,-122.85 2007.87,-128.92"/>
</g>
<!-- Node20 -->
<g id="node20" class="node">
<title>Node20</title>
<g id="a_node20"><a xlink:href="directx12pipeline_8cpp.html" target="_top" xlink:title=" ">
<polygon fill="white" stroke="#666666" points="2250.5,-96 2062.5,-96 2062.5,-66 2250.5,-66 2250.5,-96"/>
<text text-anchor="start" x="2070.5" y="-84" font-family="Helvetica,sans-Serif" font-size="10.00">plugins/renderer/directx12</text>
<text text-anchor="middle" x="2156.5" y="-73" font-family="Helvetica,sans-Serif" font-size="10.00">/src/DirectX12/util/directx12pipeline.cpp</text>
</a>
</g>
</g>
<!-- Node8&#45;&gt;Node20 -->
<g id="edge24" class="edge">
<title>Node8&#45;&gt;Node20</title>
<path fill="none" stroke="#63b8ff" d="M2079.18,-126.18C2096.09,-116.52 2116.05,-105.12 2131.45,-96.31"/>
<polygon fill="#63b8ff" stroke="#63b8ff" points="2077.9,-122.89 2070.95,-130.89 2081.37,-128.96 2077.9,-122.89"/>
</g>
<!-- Node21 -->
<g id="node21" class="node">
<title>Node21</title>
<g id="a_node21"><a xlink:href="directx12queryheap_8cpp.html" target="_top" xlink:title=" ">
<polygon fill="white" stroke="#666666" points="2468,-96 2269,-96 2269,-66 2468,-66 2468,-96"/>
<text text-anchor="start" x="2277" y="-84" font-family="Helvetica,sans-Serif" font-size="10.00">plugins/renderer/directx12</text>
<text text-anchor="middle" x="2368.5" y="-73" font-family="Helvetica,sans-Serif" font-size="10.00">/src/DirectX12/util/directx12queryheap.cpp</text>
</a>
</g>
</g>
<!-- Node8&#45;&gt;Node21 -->
<g id="edge26" class="edge">
<title>Node8&#45;&gt;Node21</title>
<path fill="none" stroke="#63b8ff" d="M2128.75,-129.36C2180.41,-119.15 2245.9,-106.22 2295.37,-96.45"/>
<polygon fill="#63b8ff" stroke="#63b8ff" points="2128.23,-125.89 2119.1,-131.26 2129.59,-132.76 2128.23,-125.89"/>
</g>
<!-- Node22 -->
<g id="node22" class="node">
<title>Node22</title>
<g id="a_node22"><a xlink:href="directx12texture_8cpp.html" target="_top" xlink:title=" ">
<polygon fill="white" stroke="#666666" points="2670.5,-96 2486.5,-96 2486.5,-66 2670.5,-66 2670.5,-96"/>
<text text-anchor="start" x="2494.5" y="-84" font-family="Helvetica,sans-Serif" font-size="10.00">plugins/renderer/directx12</text>
<text text-anchor="middle" x="2578.5" y="-73" font-family="Helvetica,sans-Serif" font-size="10.00">/src/DirectX12/util/directx12texture.cpp</text>
</a>
</g>
</g>
<!-- Node8&#45;&gt;Node22 -->
<g id="edge27" class="edge">
<title>Node8&#45;&gt;Node22</title>
<path fill="none" stroke="#63b8ff" d="M2149.38,-134.49C2236.91,-124.73 2364.92,-110.11 2476.5,-96 2479.69,-95.6 2482.94,-95.18 2486.22,-94.76"/>
<polygon fill="#63b8ff" stroke="#63b8ff" points="2149.16,-130.99 2139.61,-135.58 2149.94,-137.95 2149.16,-130.99"/>
</g>
<!-- Node23 -->
<g id="node23" class="node">
<title>Node23</title>
<g id="a_node23"><a xlink:href="dx12dump_8cpp.html" target="_top" xlink:title=" ">
<polygon fill="white" stroke="#666666" points="2848.5,-96 2688.5,-96 2688.5,-66 2848.5,-66 2848.5,-96"/>
<text text-anchor="start" x="2696.5" y="-84" font-family="Helvetica,sans-Serif" font-size="10.00">plugins/renderer/directx12</text>
<text text-anchor="middle" x="2768.5" y="-73" font-family="Helvetica,sans-Serif" font-size="10.00">/src/DirectX12/util/dx12dump.cpp</text>
</a>
</g>
</g>
<!-- Node8&#45;&gt;Node23 -->
<g id="edge28" class="edge">
<title>Node8&#45;&gt;Node23</title>
<path fill="none" stroke="#63b8ff" d="M2149.49,-140.23C2275.61,-132.72 2493.47,-117.92 2679.5,-96 2682.3,-95.67 2685.14,-95.32 2688.01,-94.95"/>
<polygon fill="#63b8ff" stroke="#63b8ff" points="2149.61,-136.72 2139.84,-140.8 2150.03,-143.71 2149.61,-136.72"/>
</g>
<!-- Node24&#45;&gt;Node6 -->
<g id="edge32" class="edge">
<title>Node24&#45;&gt;Node6</title>
<path fill="none" stroke="#63b8ff" d="M438.03,-132.66C388.66,-124.75 338.8,-112.9 321.5,-96 303.83,-78.74 301.37,-48.28 301.63,-30.33"/>
<polygon fill="#63b8ff" stroke="#63b8ff" points="437.29,-136.09 447.71,-134.15 438.36,-129.17 437.29,-136.09"/>
</g>
<!-- Node24&#45;&gt;Node7 -->
<g id="edge33" class="edge">
<title>Node24&#45;&gt;Node7</title>
<path fill="none" stroke="#63b8ff" d="M521.2,-126.18C503.99,-116.52 483.68,-105.12 468,-96.31"/>
<polygon fill="#63b8ff" stroke="#63b8ff" points="519.16,-129.05 529.6,-130.9 522.59,-122.95 519.16,-129.05"/>
</g>
<!-- Node24&#45;&gt;Node9 -->
<g id="edge31" class="edge">
<title>Node24&#45;&gt;Node9</title>
<path fill="none" stroke="#63b8ff" d="M592.11,-126.18C609.47,-116.52 629.96,-105.12 645.78,-96.31"/>
<polygon fill="#63b8ff" stroke="#63b8ff" points="590.67,-122.98 583.63,-130.9 594.07,-129.1 590.67,-122.98"/>
</g>
</g>
</svg>
