<?xml version="1.0" encoding="UTF-8" standalone="no"?>
<!DOCTYPE svg PUBLIC "-//W3C//DTD SVG 1.1//EN"
 "http://www.w3.org/Graphics/SVG/1.1/DTD/svg11.dtd">
<!-- Generated by graphviz version 7.0.5 (20221223.1930)
 -->
<!-- Title: plugins/renderer/directx12/src/DirectX12/directx12rendercontext.h Pages: 1 -->
<svg width="4154pt" height="104pt"
 viewBox="0.00 0.00 4153.50 104.00" xmlns="http://www.w3.org/2000/svg" xmlns:xlink="http://www.w3.org/1999/xlink">
<g id="graph0" class="graph" transform="scale(1 1) rotate(0) translate(4 100)">
<title>plugins/renderer/directx12/src/DirectX12/directx12rendercontext.h</title>
<!-- Node1 -->
<g id="node1" class="node">
<title>Node1</title>
<g id="a_node1"><a xlink:title=" ">
<polygon fill="#999999" stroke="#666666" points="2145,-96 1958,-96 1958,-66 2145,-66 2145,-96"/>
<text text-anchor="start" x="1966" y="-84" font-family="Helvetica,sans-Serif" font-size="10.00">plugins/renderer/directx12</text>
<text text-anchor="middle" x="2051.5" y="-73" font-family="Helvetica,sans-Serif" font-size="10.00">/src/DirectX12/directx12rendercontext.h</text>
</a>
</g>
</g>
<!-- Node2 -->
<g id="node2" class="node">
<title>Node2</title>
<g id="a_node2"><a xlink:href="directx12meshloader_8cpp.html" target="_top" xlink:title=" ">
<polygon fill="white" stroke="#666666" points="189,-30 0,-30 0,0 189,0 189,-30"/>
<text text-anchor="start" x="8" y="-18" font-family="Helvetica,sans-Serif" font-size="10.00">plugins/renderer/directx12</text>
<text text-anchor="middle" x="94.5" y="-7" font-family="Helvetica,sans-Serif" font-size="10.00">/src/DirectX12/directx12meshloader.cpp</text>
</a>
</g>
</g>
<!-- Node1&#45;&gt;Node2 -->
<g id="edge1" class="edge">
<title>Node1&#45;&gt;Node2</title>
<path fill="none" stroke="#63b8ff" d="M1946.28,-78.64C1606.67,-74.02 541.84,-57.66 198.5,-30 195.5,-29.76 192.46,-29.49 189.39,-29.2"/>
<polygon fill="#63b8ff" stroke="#63b8ff" points="1946.01,-82.14 1956.06,-78.77 1946.1,-75.14 1946.01,-82.14"/>
</g>
<!-- Node3 -->
<g id="node3" class="node">
<title>Node3</title>
<g id="a_node3"><a xlink:href="directx12pipelineloader_8cpp.html" target="_top" xlink:title=" ">
<polygon fill="white" stroke="#666666" points="405.5,-30 207.5,-30 207.5,0 405.5,0 405.5,-30"/>
<text text-anchor="start" x="215.5" y="-18" font-family="Helvetica,sans-Serif" font-size="10.00">plugins/renderer/directx12</text>
<text text-anchor="middle" x="306.5" y="-7" font-family="Helvetica,sans-Serif" font-size="10.00">/src/DirectX12/directx12pipelineloader.cpp</text>
</a>
</g>
</g>
<!-- Node1&#45;&gt;Node3 -->
<g id="edge2" class="edge">
<title>Node1&#45;&gt;Node3</title>
<path fill="none" stroke="#63b8ff" d="M1946.35,-80.37C1686.16,-80.5 991.56,-76.1 414.5,-30 411.67,-29.77 408.81,-29.53 405.91,-29.26"/>
<polygon fill="#63b8ff" stroke="#63b8ff" points="1946.15,-83.87 1956.15,-80.36 1946.14,-76.87 1946.15,-83.87"/>
</g>
<!-- Node4 -->
<g id="node4" class="node">
<title>Node4</title>
<g id="a_node4"><a xlink:href="directx12pixelshaderloader_8cpp.html" target="_top" xlink:title=" ">
<polygon fill="white" stroke="#666666" points="637.5,-30 423.5,-30 423.5,0 637.5,0 637.5,-30"/>
<text text-anchor="start" x="431.5" y="-18" font-family="Helvetica,sans-Serif" font-size="10.00">plugins/renderer/directx12</text>
<text text-anchor="middle" x="530.5" y="-7" font-family="Helvetica,sans-Serif" font-size="10.00">/src/DirectX12/directx12pixelshaderloader.cpp</text>
</a>
</g>
</g>
<!-- Node1&#45;&gt;Node4 -->
<g id="edge3" class="edge">
<title>Node1&#45;&gt;Node4</title>
<path fill="none" stroke="#63b8ff" d="M1946.41,-79.29C1712.51,-77.05 1131.32,-67.82 646.5,-30 643.67,-29.78 640.8,-29.54 637.91,-29.29"/>
<polygon fill="#63b8ff" stroke="#63b8ff" points="1946.08,-82.79 1956.11,-79.38 1946.14,-75.79 1946.08,-82.79"/>
</g>
<!-- Node5 -->
<g id="node5" class="node">
<title>Node5</title>
<g id="a_node5"><a xlink:href="directx12rendercontext_8cpp.html" target="_top" xlink:title=" ">
<polygon fill="white" stroke="#666666" points="853,-30 656,-30 656,0 853,0 853,-30"/>
<text text-anchor="start" x="664" y="-18" font-family="Helvetica,sans-Serif" font-size="10.00">plugins/renderer/directx12</text>
<text text-anchor="middle" x="754.5" y="-7" font-family="Helvetica,sans-Serif" font-size="10.00">/src/DirectX12/directx12rendercontext.cpp</text>
</a>
</g>
</g>
<!-- Node1&#45;&gt;Node5 -->
<g id="edge4" class="edge">
<title>Node1&#45;&gt;Node5</title>
<path fill="none" stroke="#63b8ff" d="M1946.1,-78.69C1738.28,-75.41 1261.08,-64.47 861.5,-30 858.79,-29.77 856.05,-29.51 853.28,-29.25"/>
<polygon fill="#63b8ff" stroke="#63b8ff" points="1946.03,-82.19 1956.09,-78.84 1946.14,-75.19 1946.03,-82.19"/>
</g>
<!-- Node6 -->
<g id="node6" class="node">
<title>Node6</title>
<g id="a_node6"><a xlink:href="directx12rendertarget_8cpp.html" target="_top" xlink:title=" ">
<polygon fill="white" stroke="#666666" points="1062,-30 871,-30 871,0 1062,0 1062,-30"/>
<text text-anchor="start" x="879" y="-18" font-family="Helvetica,sans-Serif" font-size="10.00">plugins/renderer/directx12</text>
<text text-anchor="middle" x="966.5" y="-7" font-family="Helvetica,sans-Serif" font-size="10.00">/src/DirectX12/directx12rendertarget.cpp</text>
</a>
</g>
</g>
<!-- Node1&#45;&gt;Node6 -->
<g id="edge5" class="edge">
<title>Node1&#45;&gt;Node6</title>
<path fill="none" stroke="#63b8ff" d="M1946.35,-77.5C1766.56,-72.59 1388.64,-59.47 1070.5,-30 1067.78,-29.75 1065.02,-29.48 1062.24,-29.19"/>
<polygon fill="#63b8ff" stroke="#63b8ff" points="1946.04,-80.99 1956.13,-77.76 1946.23,-73.99 1946.04,-80.99"/>
</g>
<!-- Node7 -->
<g id="node7" class="node">
<title>Node7</title>
<g id="a_node7"><a xlink:href="directx12rendertexture_8cpp.html" target="_top" xlink:title=" ">
<polygon fill="white" stroke="#666666" points="1275,-30 1080,-30 1080,0 1275,0 1275,-30"/>
<text text-anchor="start" x="1088" y="-18" font-family="Helvetica,sans-Serif" font-size="10.00">plugins/renderer/directx12</text>
<text text-anchor="middle" x="1177.5" y="-7" font-family="Helvetica,sans-Serif" font-size="10.00">/src/DirectX12/directx12rendertexture.cpp</text>
</a>
</g>
</g>
<!-- Node1&#45;&gt;Node7 -->
<g id="edge6" class="edge">
<title>Node1&#45;&gt;Node7</title>
<path fill="none" stroke="#63b8ff" d="M1946.34,-75.36C1798.23,-68.33 1519.85,-53.28 1283.5,-30 1280.82,-29.74 1278.11,-29.46 1275.37,-29.17"/>
<polygon fill="#63b8ff" stroke="#63b8ff" points="1945.98,-78.85 1956.13,-75.83 1946.31,-71.86 1945.98,-78.85"/>
</g>
<!-- Node8 -->
<g id="node8" class="node">
<title>Node8</title>
<g id="a_node8"><a xlink:href="directx12renderwindow_8cpp.html" target="_top" xlink:title=" ">
<polygon fill="white" stroke="#666666" points="1492,-30 1293,-30 1293,0 1492,0 1492,-30"/>
<text text-anchor="start" x="1301" y="-18" font-family="Helvetica,sans-Serif" font-size="10.00">plugins/renderer/directx12</text>
<text text-anchor="middle" x="1392.5" y="-7" font-family="Helvetica,sans-Serif" font-size="10.00">/src/DirectX12/directx12renderwindow.cpp</text>
</a>
</g>
</g>
<!-- Node1&#45;&gt;Node8 -->
<g id="edge7" class="edge">
<title>Node1&#45;&gt;Node8</title>
<path fill="none" stroke="#63b8ff" d="M1946.81,-71.64C1836.07,-62.53 1656.3,-46.97 1501.5,-30 1498.47,-29.67 1495.38,-29.32 1492.27,-28.97"/>
<polygon fill="#63b8ff" stroke="#63b8ff" points="1946.21,-75.11 1956.46,-72.44 1946.78,-68.13 1946.21,-75.11"/>
</g>
<!-- Node9 -->
<g id="node9" class="node">
<title>Node9</title>
<g id="a_node9"><a xlink:href="directx12textureloader_8cpp.html" target="_top" xlink:title=" ">
<polygon fill="white" stroke="#666666" points="1704.5,-30 1510.5,-30 1510.5,0 1704.5,0 1704.5,-30"/>
<text text-anchor="start" x="1518.5" y="-18" font-family="Helvetica,sans-Serif" font-size="10.00">plugins/renderer/directx12</text>
<text text-anchor="middle" x="1607.5" y="-7" font-family="Helvetica,sans-Serif" font-size="10.00">/src/DirectX12/directx12textureloader.cpp</text>
</a>
</g>
</g>
<!-- Node1&#45;&gt;Node9 -->
<g id="edge8" class="edge">
<title>Node1&#45;&gt;Node9</title>
<path fill="none" stroke="#63b8ff" d="M1946.52,-64.87C1873.27,-54.31 1776.2,-40.32 1704.71,-30.01"/>
<polygon fill="#63b8ff" stroke="#63b8ff" points="1945.72,-68.29 1956.11,-66.25 1946.71,-61.36 1945.72,-68.29"/>
</g>
<!-- Node10 -->
<g id="node10" class="node">
<title>Node10</title>
<g id="a_node10"><a xlink:href="directx12vertexshaderloader_8cpp.html" target="_top" xlink:title=" ">
<polygon fill="white" stroke="#666666" points="1944,-30 1723,-30 1723,0 1944,0 1944,-30"/>
<text text-anchor="start" x="1731" y="-18" font-family="Helvetica,sans-Serif" font-size="10.00">plugins/renderer/directx12</text>
<text text-anchor="middle" x="1833.5" y="-7" font-family="Helvetica,sans-Serif" font-size="10.00">/src/DirectX12/directx12vertexshaderloader.cpp</text>
</a>
</g>
</g>
<!-- Node1&#45;&gt;Node10 -->
<g id="edge9" class="edge">
<title>Node1&#45;&gt;Node10</title>
<path fill="none" stroke="#63b8ff" d="M1991.49,-62.38C1957.21,-52.32 1914.77,-39.86 1882.52,-30.39"/>
<polygon fill="#63b8ff" stroke="#63b8ff" points="1990.27,-65.67 2000.85,-65.13 1992.24,-58.96 1990.27,-65.67"/>
</g>
<!-- Node11 -->
<g id="node11" class="node">
<title>Node11</title>
<g id="a_node11"><a xlink:href="directx12buffer_8cpp.html" target="_top" xlink:title=" ">
<polygon fill="white" stroke="#666666" points="2141,-30 1962,-30 1962,0 2141,0 2141,-30"/>
<text text-anchor="start" x="1970" y="-18" font-family="Helvetica,sans-Serif" font-size="10.00">plugins/renderer/directx12</text>
<text text-anchor="middle" x="2051.5" y="-7" font-family="Helvetica,sans-Serif" font-size="10.00">/src/DirectX12/util/directx12buffer.cpp</text>
</a>
</g>
</g>
<!-- Node1&#45;&gt;Node11 -->
<g id="edge10" class="edge">
<title>Node1&#45;&gt;Node11</title>
<path fill="none" stroke="#63b8ff" d="M2051.5,-54.39C2051.5,-46.13 2051.5,-37.28 2051.5,-30.16"/>
<polygon fill="#63b8ff" stroke="#63b8ff" points="2048,-54.28 2051.5,-64.28 2055,-54.28 2048,-54.28"/>
</g>
<!-- Node12 -->
<g id="node12" class="node">
<title>Node12</title>
<g id="a_node12"><a xlink:href="directx12commandallocator_8cpp.html" target="_top" xlink:title=" ">
<polygon fill="white" stroke="#666666" points="2393.5,-30 2159.5,-30 2159.5,0 2393.5,0 2393.5,-30"/>
<text text-anchor="start" x="2167.5" y="-18" font-family="Helvetica,sans-Serif" font-size="10.00">plugins/renderer/directx12</text>
<text text-anchor="middle" x="2276.5" y="-7" font-family="Helvetica,sans-Serif" font-size="10.00">/src/DirectX12/util/directx12commandallocator.cpp</text>
</a>
</g>
</g>
<!-- Node1&#45;&gt;Node12 -->
<g id="edge11" class="edge">
<title>Node1&#45;&gt;Node12</title>
<path fill="none" stroke="#63b8ff" d="M2112.98,-62.51C2148.44,-52.43 2192.47,-39.9 2225.91,-30.39"/>
<polygon fill="#63b8ff" stroke="#63b8ff" points="2112.39,-59.04 2103.73,-65.14 2114.31,-65.77 2112.39,-59.04"/>
</g>
<!-- Node13 -->
<g id="node13" class="node">
<title>Node13</title>
<g id="a_node13"><a xlink:href="directx12descriptorheap_8cpp.html" target="_top" xlink:title=" ">
<polygon fill="white" stroke="#666666" points="2629.5,-30 2411.5,-30 2411.5,0 2629.5,0 2629.5,-30"/>
<text text-anchor="start" x="2419.5" y="-18" font-family="Helvetica,sans-Serif" font-size="10.00">plugins/renderer/directx12</text>
<text text-anchor="middle" x="2520.5" y="-7" font-family="Helvetica,sans-Serif" font-size="10.00">/src/DirectX12/util/directx12descriptorheap.cpp</text>
</a>
</g>
</g>
<!-- Node1&#45;&gt;Node13 -->
<g id="edge12" class="edge">
<title>Node1&#45;&gt;Node13</title>
<path fill="none" stroke="#63b8ff" d="M2156.43,-65.68C2233.37,-55.18 2337.44,-40.98 2414.61,-30.45"/>
<polygon fill="#63b8ff" stroke="#63b8ff" points="2156.22,-62.18 2146.78,-67 2157.16,-69.11 2156.22,-62.18"/>
</g>
<!-- Node14 -->
<g id="node14" class="node">
<title>Node14</title>
<g id="a_node14"><a xlink:href="directx12heapallocator_8cpp.html" target="_top" xlink:title=" ">
<polygon fill="white" stroke="#666666" points="2859.5,-30 2647.5,-30 2647.5,0 2859.5,0 2859.5,-30"/>
<text text-anchor="start" x="2655.5" y="-18" font-family="Helvetica,sans-Serif" font-size="10.00">plugins/renderer/directx12</text>
<text text-anchor="middle" x="2753.5" y="-7" font-family="Helvetica,sans-Serif" font-size="10.00">/src/DirectX12/util/directx12heapallocator.cpp</text>
</a>
</g>
</g>
<!-- Node1&#45;&gt;Node14 -->
<g id="edge13" class="edge">
<title>Node1&#45;&gt;Node14</title>
<path fill="none" stroke="#63b8ff" d="M2156.51,-72.21C2274.04,-63.22 2470.09,-47.42 2638.5,-30 2641.3,-29.71 2644.14,-29.41 2647,-29.1"/>
<polygon fill="#63b8ff" stroke="#63b8ff" points="2156.6,-68.69 2146.89,-72.94 2157.13,-75.67 2156.6,-68.69"/>
</g>
<!-- Node15 -->
<g id="node15" class="node">
<title>Node15</title>
<g id="a_node15"><a xlink:href="directx12persistentbuffer_8cpp.html" target="_top" xlink:title=" ">
<polygon fill="white" stroke="#666666" points="3099,-30 2878,-30 2878,0 3099,0 3099,-30"/>
<text text-anchor="start" x="2886" y="-18" font-family="Helvetica,sans-Serif" font-size="10.00">plugins/renderer/directx12</text>
<text text-anchor="middle" x="2988.5" y="-7" font-family="Helvetica,sans-Serif" font-size="10.00">/src/DirectX12/util/directx12persistentbuffer.cpp</text>
</a>
</g>
</g>
<!-- Node1&#45;&gt;Node15 -->
<g id="edge14" class="edge">
<title>Node1&#45;&gt;Node15</title>
<path fill="none" stroke="#63b8ff" d="M2156.78,-75.41C2312.51,-68.2 2613.37,-52.67 2868.5,-30 2871.53,-29.73 2874.6,-29.45 2877.7,-29.15"/>
<polygon fill="#63b8ff" stroke="#63b8ff" points="2156.7,-71.91 2146.87,-75.87 2157.02,-78.9 2156.7,-71.91"/>
</g>
<!-- Node16 -->
<g id="node16" class="node">
<title>Node16</title>
<g id="a_node16"><a xlink:href="directx12pipeline_8cpp.html" target="_top" xlink:title=" ">
<polygon fill="white" stroke="#666666" points="3305.5,-30 3117.5,-30 3117.5,0 3305.5,0 3305.5,-30"/>
<text text-anchor="start" x="3125.5" y="-18" font-family="Helvetica,sans-Serif" font-size="10.00">plugins/renderer/directx12</text>
<text text-anchor="middle" x="3211.5" y="-7" font-family="Helvetica,sans-Serif" font-size="10.00">/src/DirectX12/util/directx12pipeline.cpp</text>
</a>
</g>
</g>
<!-- Node1&#45;&gt;Node16 -->
<g id="edge15" class="edge">
<title>Node1&#45;&gt;Node16</title>
<path fill="none" stroke="#63b8ff" d="M2156.75,-78.08C2347.05,-73.93 2760.91,-61.78 3108.5,-30 3111.38,-29.74 3114.29,-29.45 3117.24,-29.15"/>
<polygon fill="#63b8ff" stroke="#63b8ff" points="2156.8,-74.58 2146.88,-78.29 2156.95,-81.58 2156.8,-74.58"/>
</g>
<!-- Node17 -->
<g id="node17" class="node">
<title>Node17</title>
<g id="a_node17"><a xlink:href="directx12pipelineinstance_8cpp.html" target="_top" xlink:title=" ">
<polygon fill="white" stroke="#666666" points="3547.5,-30 3323.5,-30 3323.5,0 3547.5,0 3547.5,-30"/>
<text text-anchor="start" x="3331.5" y="-18" font-family="Helvetica,sans-Serif" font-size="10.00">plugins/renderer/directx12</text>
<text text-anchor="middle" x="3435.5" y="-7" font-family="Helvetica,sans-Serif" font-size="10.00">/src/DirectX12/util/directx12pipelineinstance.cpp</text>
</a>
</g>
</g>
<!-- Node1&#45;&gt;Node17 -->
<g id="edge16" class="edge">
<title>Node1&#45;&gt;Node17</title>
<path fill="none" stroke="#63b8ff" d="M2156.47,-78.53C2373.18,-74.89 2885.69,-63.25 3314.5,-30 3317.35,-29.78 3320.23,-29.54 3323.14,-29.29"/>
<polygon fill="#63b8ff" stroke="#63b8ff" points="2156.58,-75.02 2146.64,-78.69 2156.69,-82.02 2156.58,-75.02"/>
</g>
<!-- Node18 -->
<g id="node18" class="node">
<title>Node18</title>
<g id="a_node18"><a xlink:href="directx12queryheap_8cpp.html" target="_top" xlink:title=" ">
<polygon fill="white" stroke="#666666" points="3765,-30 3566,-30 3566,0 3765,0 3765,-30"/>
<text text-anchor="start" x="3574" y="-18" font-family="Helvetica,sans-Serif" font-size="10.00">plugins/renderer/directx12</text>
<text text-anchor="middle" x="3665.5" y="-7" font-family="Helvetica,sans-Serif" font-size="10.00">/src/DirectX12/util/directx12queryheap.cpp</text>
</a>
</g>
</g>
<!-- Node1&#45;&gt;Node18 -->
<g id="edge17" class="edge">
<title>Node1&#45;&gt;Node18</title>
<path fill="none" stroke="#63b8ff" d="M2156.86,-79.92C2402.52,-78.99 3032.26,-72.28 3556.5,-30 3559.54,-29.75 3562.63,-29.49 3565.75,-29.2"/>
<polygon fill="#63b8ff" stroke="#63b8ff" points="2156.95,-76.42 2146.97,-79.95 2156.98,-83.42 2156.95,-76.42"/>
</g>
<!-- Node19 -->
<g id="node19" class="node">
<title>Node19</title>
<g id="a_node19"><a xlink:href="directx12texture_8cpp.html" target="_top" xlink:title=" ">
<polygon fill="white" stroke="#666666" points="3967.5,-30 3783.5,-30 3783.5,0 3967.5,0 3967.5,-30"/>
<text text-anchor="start" x="3791.5" y="-18" font-family="Helvetica,sans-Serif" font-size="10.00">plugins/renderer/directx12</text>
<text text-anchor="middle" x="3875.5" y="-7" font-family="Helvetica,sans-Serif" font-size="10.00">/src/DirectX12/util/directx12texture.cpp</text>
</a>
</g>
</g>
<!-- Node1&#45;&gt;Node19 -->
<g id="edge18" class="edge">
<title>Node1&#45;&gt;Node19</title>
<path fill="none" stroke="#63b8ff" d="M2156.48,-78.45C2479.8,-73.45 3457.67,-56.48 3774.5,-30 3777.32,-29.76 3780.19,-29.5 3783.08,-29.22"/>
<polygon fill="#63b8ff" stroke="#63b8ff" points="2156.72,-74.95 2146.77,-78.6 2156.83,-81.95 2156.72,-74.95"/>
</g>
<!-- Node20 -->
<g id="node20" class="node">
<title>Node20</title>
<g id="a_node20"><a xlink:href="dx12dump_8cpp.html" target="_top" xlink:title=" ">
<polygon fill="white" stroke="#666666" points="4145.5,-30 3985.5,-30 3985.5,0 4145.5,0 4145.5,-30"/>
<text text-anchor="start" x="3993.5" y="-18" font-family="Helvetica,sans-Serif" font-size="10.00">plugins/renderer/directx12</text>
<text text-anchor="middle" x="4065.5" y="-7" font-family="Helvetica,sans-Serif" font-size="10.00">/src/DirectX12/util/dx12dump.cpp</text>
</a>
</g>
</g>
<!-- Node1&#45;&gt;Node20 -->
<g id="edge19" class="edge">
<title>Node1&#45;&gt;Node20</title>
<path fill="none" stroke="#63b8ff" d="M2156.64,-79.07C2504.86,-75.72 3618.72,-62.65 3976.5,-30 3979.3,-29.74 3982.15,-29.46 3985.03,-29.14"/>
<polygon fill="#63b8ff" stroke="#63b8ff" points="2156.8,-75.57 2146.83,-79.17 2156.86,-82.57 2156.8,-75.57"/>
</g>
</g>
</svg>
