<?xml version="1.0" encoding="UTF-8" standalone="no"?>
<!DOCTYPE svg PUBLIC "-//W3C//DTD SVG 1.1//EN"
 "http://www.w3.org/Graphics/SVG/1.1/DTD/svg11.dtd">
<!-- Generated by graphviz version 7.0.5 (20221223.1930)
 -->
<!-- Title: plugins/renderer/directx12/src/DirectX12/util/directx12commandlist.cpp Pages: 1 -->
<svg width="371pt" height="269pt"
 viewBox="0.00 0.00 371.00 269.00" xmlns="http://www.w3.org/2000/svg" xmlns:xlink="http://www.w3.org/1999/xlink">
<g id="graph0" class="graph" transform="scale(1 1) rotate(0) translate(4 265)">
<title>plugins/renderer/directx12/src/DirectX12/util/directx12commandlist.cpp</title>
<!-- Node1 -->
<g id="node1" class="node">
<title>Node1</title>
<g id="a_node1"><a xlink:title=" ">
<polygon fill="#999999" stroke="#666666" points="213,-261 3,-261 3,-231 213,-231 213,-261"/>
<text text-anchor="start" x="11" y="-249" font-family="Helvetica,sans-Serif" font-size="10.00">plugins/renderer/directx12</text>
<text text-anchor="middle" x="108" y="-238" font-family="Helvetica,sans-Serif" font-size="10.00">/src/DirectX12/util/directx12commandlist.cpp</text>
</a>
</g>
</g>
<!-- Node2 -->
<g id="node2" class="node">
<title>Node2</title>
<g id="a_node2"><a xlink:href="directx12lib_8h.html" target="_top" xlink:title=" ">
<polygon fill="white" stroke="#666666" points="80,-195 0,-195 0,-176 80,-176 80,-195"/>
<text text-anchor="middle" x="40" y="-183" font-family="Helvetica,sans-Serif" font-size="10.00">../directx12lib.h</text>
</a>
</g>
</g>
<!-- Node1&#45;&gt;Node2 -->
<g id="edge1" class="edge">
<title>Node1&#45;&gt;Node2</title>
<path fill="none" stroke="#63b8ff" d="M91.19,-230.54C81.31,-222.04 68.81,-211.29 58.63,-202.53"/>
<polygon fill="#63b8ff" stroke="#63b8ff" points="61.09,-200.03 51.23,-196.16 56.53,-205.34 61.09,-200.03"/>
</g>
<!-- Node3 -->
<g id="node3" class="node">
<title>Node3</title>
<g id="a_node3"><a xlink:href="directx12commandlist_8h.html" target="_top" xlink:title=" ">
<polygon fill="white" stroke="#666666" points="173.5,-134.5 54.5,-134.5 54.5,-115.5 173.5,-115.5 173.5,-134.5"/>
<text text-anchor="middle" x="114" y="-122.5" font-family="Helvetica,sans-Serif" font-size="10.00">directx12commandlist.h</text>
</a>
</g>
</g>
<!-- Node1&#45;&gt;Node3 -->
<g id="edge2" class="edge">
<title>Node1&#45;&gt;Node3</title>
<path fill="none" stroke="#63b8ff" d="M108.71,-230.88C109.77,-209.8 111.78,-170 112.99,-145.95"/>
<polygon fill="#63b8ff" stroke="#63b8ff" points="116.48,-146.39 113.48,-136.22 109.49,-146.03 116.48,-146.39"/>
</g>
<!-- Node7 -->
<g id="node7" class="node">
<title>Node7</title>
<g id="a_node7"><a xlink:href="directx12commandallocator_8h.html" target="_top" xlink:title=" ">
<polygon fill="white" stroke="#666666" points="279.5,-195 136.5,-195 136.5,-176 279.5,-176 279.5,-195"/>
<text text-anchor="middle" x="208" y="-183" font-family="Helvetica,sans-Serif" font-size="10.00">directx12commandallocator.h</text>
</a>
</g>
</g>
<!-- Node1&#45;&gt;Node7 -->
<g id="edge6" class="edge">
<title>Node1&#45;&gt;Node7</title>
<path fill="none" stroke="#63b8ff" d="M132.72,-230.54C148.04,-221.58 167.66,-210.1 183.02,-201.11"/>
<polygon fill="#63b8ff" stroke="#63b8ff" points="184.71,-204.18 191.57,-196.11 181.17,-198.14 184.71,-204.18"/>
</g>
<!-- Node4 -->
<g id="node4" class="node">
<title>Node4</title>
<g id="a_node4"><a xlink:href="any_8h.html" target="_top" xlink:title=" ">
<polygon fill="white" stroke="#666666" points="119,-74 43,-74 43,-55 119,-55 119,-74"/>
<text text-anchor="middle" x="81" y="-62" font-family="Helvetica,sans-Serif" font-size="10.00">Generic/any.h</text>
</a>
</g>
</g>
<!-- Node3&#45;&gt;Node4 -->
<g id="edge3" class="edge">
<title>Node3&#45;&gt;Node4</title>
<path fill="none" stroke="#63b8ff" d="M109.13,-115.37C104.5,-107.16 97.38,-94.54 91.47,-84.05"/>
<polygon fill="#63b8ff" stroke="#63b8ff" points="94.59,-82.48 86.63,-75.49 88.5,-85.91 94.59,-82.48"/>
</g>
<!-- Node6 -->
<g id="node6" class="node">
<title>Node6</title>
<g id="a_node6"><a xlink:href="future_8h.html" target="_top" xlink:title=" ">
<polygon fill="white" stroke="#666666" points="256.5,-74 137.5,-74 137.5,-55 256.5,-55 256.5,-74"/>
<text text-anchor="middle" x="197" y="-62" font-family="Helvetica,sans-Serif" font-size="10.00">Madgine/render/future.h</text>
</a>
</g>
</g>
<!-- Node3&#45;&gt;Node6 -->
<g id="edge5" class="edge">
<title>Node3&#45;&gt;Node6</title>
<path fill="none" stroke="#63b8ff" d="M126.61,-115.12C139.4,-106.1 159.48,-91.95 174.92,-81.06"/>
<polygon fill="#63b8ff" stroke="#63b8ff" points="176.88,-83.96 183.04,-75.34 172.85,-78.24 176.88,-83.96"/>
</g>
<!-- Node5 -->
<g id="node5" class="node">
<title>Node5</title>
<g id="a_node5"><a xlink:href="inheritable_8h.html" target="_top" xlink:title=" ">
<polygon fill="white" stroke="#666666" points="115,-19 47,-19 47,0 115,0 115,-19"/>
<text text-anchor="middle" x="81" y="-7" font-family="Helvetica,sans-Serif" font-size="10.00">inheritable.h</text>
</a>
</g>
</g>
<!-- Node4&#45;&gt;Node5 -->
<g id="edge4" class="edge">
<title>Node4&#45;&gt;Node5</title>
<path fill="none" stroke="#63b8ff" d="M81,-54.75C81,-48.27 81,-39.16 81,-30.9"/>
<polygon fill="#63b8ff" stroke="#63b8ff" points="84.5,-30.96 81,-20.96 77.5,-30.96 84.5,-30.96"/>
</g>
<!-- Node7&#45;&gt;Node3 -->
<g id="edge7" class="edge">
<title>Node7&#45;&gt;Node3</title>
<path fill="none" stroke="#63b8ff" d="M193.72,-175.62C178.95,-166.42 155.63,-151.91 138.01,-140.94"/>
<polygon fill="#63b8ff" stroke="#63b8ff" points="140.04,-138.08 129.7,-135.77 136.34,-144.02 140.04,-138.08"/>
</g>
<!-- Node7&#45;&gt;Node6 -->
<g id="edge8" class="edge">
<title>Node7&#45;&gt;Node6</title>
<path fill="none" stroke="#63b8ff" d="M207.17,-175.56C205.41,-156.51 201.26,-111.56 198.84,-85.37"/>
<polygon fill="#63b8ff" stroke="#63b8ff" points="202.35,-85.37 197.95,-75.73 195.38,-86.01 202.35,-85.37"/>
</g>
<!-- Node8 -->
<g id="node8" class="node">
<title>Node8</title>
<g id="a_node8"><a xlink:href="profilerthread_8h.html" target="_top" xlink:title=" ">
<polygon fill="white" stroke="#666666" points="363,-140 249,-140 249,-110 363,-110 363,-140"/>
<text text-anchor="start" x="257" y="-128" font-family="Helvetica,sans-Serif" font-size="10.00">Modules/debug/profiler</text>
<text text-anchor="middle" x="306" y="-117" font-family="Helvetica,sans-Serif" font-size="10.00">/profilerthread.h</text>
</a>
</g>
</g>
<!-- Node7&#45;&gt;Node8 -->
<g id="edge9" class="edge">
<title>Node7&#45;&gt;Node8</title>
<path fill="none" stroke="#63b8ff" d="M222.88,-175.62C235.95,-167.81 255.45,-156.17 272.28,-146.13"/>
<polygon fill="#63b8ff" stroke="#63b8ff" points="273.72,-149.35 280.51,-141.22 270.13,-143.34 273.72,-149.35"/>
</g>
<!-- Node9 -->
<g id="node9" class="node">
<title>Node9</title>
<g id="a_node9"><a xlink:href="processstats_8h.html" target="_top" xlink:title=" ">
<polygon fill="white" stroke="#666666" points="355,-74 275,-74 275,-55 355,-55 355,-74"/>
<text text-anchor="middle" x="315" y="-62" font-family="Helvetica,sans-Serif" font-size="10.00">processstats.h</text>
</a>
</g>
</g>
<!-- Node8&#45;&gt;Node9 -->
<g id="edge10" class="edge">
<title>Node8&#45;&gt;Node9</title>
<path fill="none" stroke="#63b8ff" d="M308.22,-109.54C309.35,-102.26 310.72,-93.31 311.94,-85.39"/>
<polygon fill="#63b8ff" stroke="#63b8ff" points="315.37,-86.09 313.44,-75.67 308.46,-85.02 315.37,-86.09"/>
</g>
<!-- Node10 -->
<g id="node10" class="node">
<title>Node10</title>
<g id="a_node10"><a xlink:href="history_8h.html" target="_top" xlink:title=" ">
<polygon fill="white" stroke="#666666" points="345,-19 285,-19 285,0 345,0 345,-19"/>
<text text-anchor="middle" x="315" y="-7" font-family="Helvetica,sans-Serif" font-size="10.00">../history.h</text>
</a>
</g>
</g>
<!-- Node9&#45;&gt;Node10 -->
<g id="edge11" class="edge">
<title>Node9&#45;&gt;Node10</title>
<path fill="none" stroke="#63b8ff" d="M315,-54.75C315,-48.27 315,-39.16 315,-30.9"/>
<polygon fill="#63b8ff" stroke="#63b8ff" points="318.5,-30.96 315,-20.96 311.5,-30.96 318.5,-30.96"/>
</g>
</g>
</svg>
