<?xml version="1.0" encoding="UTF-8" standalone="no"?>
<!DOCTYPE svg PUBLIC "-//W3C//DTD SVG 1.1//EN"
 "http://www.w3.org/Graphics/SVG/1.1/DTD/svg11.dtd">
<!-- Generated by graphviz version 7.0.5 (20221223.1930)
 -->
<!-- Title: plugins/renderer/directx12/src/DirectX12/directx12meshdata.h Pages: 1 -->
<svg width="684pt" height="170pt"
 viewBox="0.00 0.00 683.50 170.00" xmlns="http://www.w3.org/2000/svg" xmlns:xlink="http://www.w3.org/1999/xlink">
<g id="graph0" class="graph" transform="scale(1 1) rotate(0) translate(4 166)">
<title>plugins/renderer/directx12/src/DirectX12/directx12meshdata.h</title>
<!-- Node1 -->
<g id="node1" class="node">
<title>Node1</title>
<g id="a_node1"><a xlink:title=" ">
<polygon fill="#999999" stroke="#666666" points="450,-162 279,-162 279,-132 450,-132 450,-162"/>
<text text-anchor="start" x="287" y="-150" font-family="Helvetica,sans-Serif" font-size="10.00">plugins/renderer/directx12</text>
<text text-anchor="middle" x="364.5" y="-139" font-family="Helvetica,sans-Serif" font-size="10.00">/src/DirectX12/directx12meshdata.h</text>
</a>
</g>
</g>
<!-- Node2 -->
<g id="node2" class="node">
<title>Node2</title>
<g id="a_node2"><a xlink:href="directx12meshloader_8cpp.html" target="_top" xlink:title=" ">
<polygon fill="white" stroke="#666666" points="189,-30 0,-30 0,0 189,0 189,-30"/>
<text text-anchor="start" x="8" y="-18" font-family="Helvetica,sans-Serif" font-size="10.00">plugins/renderer/directx12</text>
<text text-anchor="middle" x="94.5" y="-7" font-family="Helvetica,sans-Serif" font-size="10.00">/src/DirectX12/directx12meshloader.cpp</text>
</a>
</g>
</g>
<!-- Node1&#45;&gt;Node2 -->
<g id="edge1" class="edge">
<title>Node1&#45;&gt;Node2</title>
<path fill="none" stroke="#63b8ff" d="M292.69,-128.44C264.99,-120.35 233.54,-109.51 206.5,-96 169.73,-77.63 131.81,-47.83 110.89,-30.25"/>
<polygon fill="#63b8ff" stroke="#63b8ff" points="291.46,-131.73 302.04,-131.1 293.38,-125 291.46,-131.73"/>
</g>
<!-- Node3 -->
<g id="node3" class="node">
<title>Node3</title>
<g id="a_node3"><a xlink:href="directx12meshloader_8h.html" target="_top" xlink:title=" ">
<polygon fill="white" stroke="#666666" points="395,-96 216,-96 216,-66 395,-66 395,-96"/>
<text text-anchor="start" x="224" y="-84" font-family="Helvetica,sans-Serif" font-size="10.00">plugins/renderer/directx12</text>
<text text-anchor="middle" x="305.5" y="-73" font-family="Helvetica,sans-Serif" font-size="10.00">/src/DirectX12/directx12meshloader.h</text>
</a>
</g>
</g>
<!-- Node1&#45;&gt;Node3 -->
<g id="edge2" class="edge">
<title>Node1&#45;&gt;Node3</title>
<path fill="none" stroke="#63b8ff" d="M343.78,-123.53C335.39,-114.43 325.96,-104.19 318.56,-96.16"/>
<polygon fill="#63b8ff" stroke="#63b8ff" points="341.03,-125.7 350.38,-130.68 346.18,-120.96 341.03,-125.7"/>
</g>
<!-- Node5 -->
<g id="node5" class="node">
<title>Node5</title>
<g id="a_node5"><a xlink:href="directx12rendertarget_8cpp.html" target="_top" xlink:title=" ">
<polygon fill="white" stroke="#666666" points="613,-30 422,-30 422,0 613,0 613,-30"/>
<text text-anchor="start" x="430" y="-18" font-family="Helvetica,sans-Serif" font-size="10.00">plugins/renderer/directx12</text>
<text text-anchor="middle" x="517.5" y="-7" font-family="Helvetica,sans-Serif" font-size="10.00">/src/DirectX12/directx12rendertarget.cpp</text>
</a>
</g>
</g>
<!-- Node1&#45;&gt;Node5 -->
<g id="edge6" class="edge">
<title>Node1&#45;&gt;Node5</title>
<path fill="none" stroke="#63b8ff" d="M384.18,-123.38C399.3,-106.63 421.15,-83.73 442.5,-66 458.51,-52.7 478.13,-39.73 493.29,-30.33"/>
<polygon fill="#63b8ff" stroke="#63b8ff" points="381.97,-120.6 377.93,-130.39 387.2,-125.25 381.97,-120.6"/>
</g>
<!-- Node6 -->
<g id="node6" class="node">
<title>Node6</title>
<g id="a_node6"><a xlink:href="directx12pipelineinstance_8cpp.html" target="_top" xlink:title=" ">
<polygon fill="white" stroke="#666666" points="675.5,-96 451.5,-96 451.5,-66 675.5,-66 675.5,-96"/>
<text text-anchor="start" x="459.5" y="-84" font-family="Helvetica,sans-Serif" font-size="10.00">plugins/renderer/directx12</text>
<text text-anchor="middle" x="563.5" y="-73" font-family="Helvetica,sans-Serif" font-size="10.00">/src/DirectX12/util/directx12pipelineinstance.cpp</text>
</a>
</g>
</g>
<!-- Node1&#45;&gt;Node6 -->
<g id="edge7" class="edge">
<title>Node1&#45;&gt;Node6</title>
<path fill="none" stroke="#63b8ff" d="M419.85,-128.2C451,-118.18 489.39,-105.83 518.65,-96.43"/>
<polygon fill="#63b8ff" stroke="#63b8ff" points="419.05,-124.78 410.6,-131.17 421.19,-131.44 419.05,-124.78"/>
</g>
<!-- Node3&#45;&gt;Node2 -->
<g id="edge3" class="edge">
<title>Node3&#45;&gt;Node2</title>
<path fill="none" stroke="#63b8ff" d="M246.98,-62.25C213.88,-52.21 173.03,-39.82 141.94,-30.39"/>
<polygon fill="#63b8ff" stroke="#63b8ff" points="245.85,-65.56 256.44,-65.12 247.88,-58.87 245.85,-65.56"/>
</g>
<!-- Node4 -->
<g id="node4" class="node">
<title>Node4</title>
<g id="a_node4"><a xlink:href="directx12rendercontext_8cpp.html" target="_top" xlink:title=" ">
<polygon fill="white" stroke="#666666" points="404,-30 207,-30 207,0 404,0 404,-30"/>
<text text-anchor="start" x="215" y="-18" font-family="Helvetica,sans-Serif" font-size="10.00">plugins/renderer/directx12</text>
<text text-anchor="middle" x="305.5" y="-7" font-family="Helvetica,sans-Serif" font-size="10.00">/src/DirectX12/directx12rendercontext.cpp</text>
</a>
</g>
</g>
<!-- Node3&#45;&gt;Node4 -->
<g id="edge4" class="edge">
<title>Node3&#45;&gt;Node4</title>
<path fill="none" stroke="#63b8ff" d="M305.5,-54.39C305.5,-46.13 305.5,-37.28 305.5,-30.16"/>
<polygon fill="#63b8ff" stroke="#63b8ff" points="302,-54.28 305.5,-64.28 309,-54.28 302,-54.28"/>
</g>
<!-- Node3&#45;&gt;Node5 -->
<g id="edge5" class="edge">
<title>Node3&#45;&gt;Node5</title>
<path fill="none" stroke="#63b8ff" d="M364.3,-62.25C397.55,-52.21 438.6,-39.82 469.83,-30.39"/>
<polygon fill="#63b8ff" stroke="#63b8ff" points="363.35,-58.88 354.79,-65.12 365.38,-65.58 363.35,-58.88"/>
</g>
</g>
</svg>
