<?xml version="1.0" encoding="UTF-8" standalone="no"?>
<!DOCTYPE svg PUBLIC "-//W3C//DTD SVG 1.1//EN"
 "http://www.w3.org/Graphics/SVG/1.1/DTD/svg11.dtd">
<!-- Generated by graphviz version 7.0.5 (20221223.1930)
 -->
<!-- Title: plugins/renderer/directx12/src/DirectX12/directx12pipelineloader.h Pages: 1 -->
<svg width="692pt" height="170pt"
 viewBox="0.00 0.00 692.00 170.00" xmlns="http://www.w3.org/2000/svg" xmlns:xlink="http://www.w3.org/1999/xlink">
<g id="graph0" class="graph" transform="scale(1 1) rotate(0) translate(4 166)">
<title>plugins/renderer/directx12/src/DirectX12/directx12pipelineloader.h</title>
<!-- Node1 -->
<g id="node1" class="node">
<title>Node1</title>
<g id="a_node1"><a xlink:title=" ">
<polygon fill="#999999" stroke="#666666" points="251,-162 63,-162 63,-132 251,-132 251,-162"/>
<text text-anchor="start" x="71" y="-150" font-family="Helvetica,sans-Serif" font-size="10.00">plugins/renderer/directx12</text>
<text text-anchor="middle" x="157" y="-139" font-family="Helvetica,sans-Serif" font-size="10.00">/src/DirectX12/directx12pipelineloader.h</text>
</a>
</g>
</g>
<!-- Node2 -->
<g id="node2" class="node">
<title>Node2</title>
<g id="a_node2"><a xlink:href="directx12pipelineloader_8cpp.html" target="_top" xlink:title=" ">
<polygon fill="white" stroke="#666666" points="198,-30 0,-30 0,0 198,0 198,-30"/>
<text text-anchor="start" x="8" y="-18" font-family="Helvetica,sans-Serif" font-size="10.00">plugins/renderer/directx12</text>
<text text-anchor="middle" x="99" y="-7" font-family="Helvetica,sans-Serif" font-size="10.00">/src/DirectX12/directx12pipelineloader.cpp</text>
</a>
</g>
</g>
<!-- Node1&#45;&gt;Node2 -->
<g id="edge1" class="edge">
<title>Node1&#45;&gt;Node2</title>
<path fill="none" stroke="#63b8ff" d="M85.78,-126.91C71.23,-119.63 57.72,-109.65 49,-96 34.36,-73.09 59.73,-46.25 79.38,-30.22"/>
<polygon fill="#63b8ff" stroke="#63b8ff" points="84.04,-129.96 94.59,-130.9 86.93,-123.58 84.04,-129.96"/>
</g>
<!-- Node3 -->
<g id="node3" class="node">
<title>Node3</title>
<g id="a_node3"><a xlink:href="directx12rendercontext_8cpp.html" target="_top" xlink:title=" ">
<polygon fill="white" stroke="#666666" points="255.5,-96 58.5,-96 58.5,-66 255.5,-66 255.5,-96"/>
<text text-anchor="start" x="66.5" y="-84" font-family="Helvetica,sans-Serif" font-size="10.00">plugins/renderer/directx12</text>
<text text-anchor="middle" x="157" y="-73" font-family="Helvetica,sans-Serif" font-size="10.00">/src/DirectX12/directx12rendercontext.cpp</text>
</a>
</g>
</g>
<!-- Node1&#45;&gt;Node3 -->
<g id="edge2" class="edge">
<title>Node1&#45;&gt;Node3</title>
<path fill="none" stroke="#63b8ff" d="M157,-120.39C157,-112.13 157,-103.28 157,-96.16"/>
<polygon fill="#63b8ff" stroke="#63b8ff" points="153.5,-120.28 157,-130.28 160.5,-120.28 153.5,-120.28"/>
</g>
<!-- Node4 -->
<g id="node4" class="node">
<title>Node4</title>
<g id="a_node4"><a xlink:href="directx12pipelineinstance_8h.html" target="_top" xlink:title=" ">
<polygon fill="white" stroke="#666666" points="488,-96 274,-96 274,-66 488,-66 488,-96"/>
<text text-anchor="start" x="282" y="-84" font-family="Helvetica,sans-Serif" font-size="10.00">plugins/renderer/directx12</text>
<text text-anchor="middle" x="381" y="-73" font-family="Helvetica,sans-Serif" font-size="10.00">/src/DirectX12/util/directx12pipelineinstance.h</text>
</a>
</g>
</g>
<!-- Node1&#45;&gt;Node4 -->
<g id="edge3" class="edge">
<title>Node1&#45;&gt;Node4</title>
<path fill="none" stroke="#63b8ff" d="M218.21,-128.51C253.51,-118.43 297.35,-105.9 330.63,-96.39"/>
<polygon fill="#63b8ff" stroke="#63b8ff" points="217.66,-125.03 209,-131.14 219.58,-131.76 217.66,-125.03"/>
</g>
<!-- Node4&#45;&gt;Node2 -->
<g id="edge4" class="edge">
<title>Node4&#45;&gt;Node2</title>
<path fill="none" stroke="#63b8ff" d="M306.23,-63.03C261.41,-52.86 205.04,-40.07 162.41,-30.39"/>
<polygon fill="#63b8ff" stroke="#63b8ff" points="305.36,-66.42 315.89,-65.22 306.91,-59.6 305.36,-66.42"/>
</g>
<!-- Node5 -->
<g id="node5" class="node">
<title>Node5</title>
<g id="a_node5"><a xlink:href="directx12rendertarget_8cpp.html" target="_top" xlink:title=" ">
<polygon fill="white" stroke="#666666" points="441.5,-30 250.5,-30 250.5,0 441.5,0 441.5,-30"/>
<text text-anchor="start" x="258.5" y="-18" font-family="Helvetica,sans-Serif" font-size="10.00">plugins/renderer/directx12</text>
<text text-anchor="middle" x="346" y="-7" font-family="Helvetica,sans-Serif" font-size="10.00">/src/DirectX12/directx12rendertarget.cpp</text>
</a>
</g>
</g>
<!-- Node4&#45;&gt;Node5 -->
<g id="edge5" class="edge">
<title>Node4&#45;&gt;Node5</title>
<path fill="none" stroke="#63b8ff" d="M367.78,-55.83C363.05,-47.17 357.87,-37.7 353.75,-30.16"/>
<polygon fill="#63b8ff" stroke="#63b8ff" points="364.64,-57.37 372.51,-64.47 370.78,-54.02 364.64,-57.37"/>
</g>
<!-- Node6 -->
<g id="node6" class="node">
<title>Node6</title>
<g id="a_node6"><a xlink:href="directx12pipelineinstance_8cpp.html" target="_top" xlink:title=" ">
<polygon fill="white" stroke="#666666" points="684,-30 460,-30 460,0 684,0 684,-30"/>
<text text-anchor="start" x="468" y="-18" font-family="Helvetica,sans-Serif" font-size="10.00">plugins/renderer/directx12</text>
<text text-anchor="middle" x="572" y="-7" font-family="Helvetica,sans-Serif" font-size="10.00">/src/DirectX12/util/directx12pipelineinstance.cpp</text>
</a>
</g>
</g>
<!-- Node4&#45;&gt;Node6 -->
<g id="edge6" class="edge">
<title>Node4&#45;&gt;Node6</title>
<path fill="none" stroke="#63b8ff" d="M434.52,-62.07C464.34,-52.07 500.99,-39.79 528.95,-30.43"/>
<polygon fill="#63b8ff" stroke="#63b8ff" points="433.67,-58.66 425.3,-65.16 435.89,-65.3 433.67,-58.66"/>
</g>
</g>
</svg>
