<?xml version="1.0" encoding="UTF-8" standalone="no"?>
<!DOCTYPE svg PUBLIC "-//W3C//DTD SVG 1.1//EN"
 "http://www.w3.org/Graphics/SVG/1.1/DTD/svg11.dtd">
<!-- Generated by graphviz version 7.0.5 (20221223.1930)
 -->
<!-- Title: plugins/renderer/directx12/src/DirectX12/directx12rendertexture.h Pages: 1 -->
<svg width="627pt" height="104pt"
 viewBox="0.00 0.00 627.00 104.00" xmlns="http://www.w3.org/2000/svg" xmlns:xlink="http://www.w3.org/1999/xlink">
<g id="graph0" class="graph" transform="scale(1 1) rotate(0) translate(4 100)">
<title>plugins/renderer/directx12/src/DirectX12/directx12rendertexture.h</title>
<!-- Node1 -->
<g id="node1" class="node">
<title>Node1</title>
<g id="a_node1"><a xlink:title=" ">
<polygon fill="#999999" stroke="#666666" points="403,-96 218,-96 218,-66 403,-66 403,-96"/>
<text text-anchor="start" x="226" y="-84" font-family="Helvetica,sans-Serif" font-size="10.00">plugins/renderer/directx12</text>
<text text-anchor="middle" x="310.5" y="-73" font-family="Helvetica,sans-Serif" font-size="10.00">/src/DirectX12/directx12rendertexture.h</text>
</a>
</g>
</g>
<!-- Node2 -->
<g id="node2" class="node">
<title>Node2</title>
<g id="a_node2"><a xlink:href="directx12rendercontext_8cpp.html" target="_top" xlink:title=" ">
<polygon fill="white" stroke="#666666" points="197,-30 0,-30 0,0 197,0 197,-30"/>
<text text-anchor="start" x="8" y="-18" font-family="Helvetica,sans-Serif" font-size="10.00">plugins/renderer/directx12</text>
<text text-anchor="middle" x="98.5" y="-7" font-family="Helvetica,sans-Serif" font-size="10.00">/src/DirectX12/directx12rendercontext.cpp</text>
</a>
</g>
</g>
<!-- Node1&#45;&gt;Node2 -->
<g id="edge1" class="edge">
<title>Node1&#45;&gt;Node2</title>
<path fill="none" stroke="#63b8ff" d="M251.7,-62.25C218.45,-52.21 177.4,-39.82 146.17,-30.39"/>
<polygon fill="#63b8ff" stroke="#63b8ff" points="250.62,-65.58 261.21,-65.12 252.65,-58.88 250.62,-65.58"/>
</g>
<!-- Node3 -->
<g id="node3" class="node">
<title>Node3</title>
<g id="a_node3"><a xlink:href="directx12rendertarget_8cpp.html" target="_top" xlink:title=" ">
<polygon fill="white" stroke="#666666" points="406,-30 215,-30 215,0 406,0 406,-30"/>
<text text-anchor="start" x="223" y="-18" font-family="Helvetica,sans-Serif" font-size="10.00">plugins/renderer/directx12</text>
<text text-anchor="middle" x="310.5" y="-7" font-family="Helvetica,sans-Serif" font-size="10.00">/src/DirectX12/directx12rendertarget.cpp</text>
</a>
</g>
</g>
<!-- Node1&#45;&gt;Node3 -->
<g id="edge2" class="edge">
<title>Node1&#45;&gt;Node3</title>
<path fill="none" stroke="#63b8ff" d="M310.5,-54.39C310.5,-46.13 310.5,-37.28 310.5,-30.16"/>
<polygon fill="#63b8ff" stroke="#63b8ff" points="307,-54.28 310.5,-64.28 314,-54.28 307,-54.28"/>
</g>
<!-- Node4 -->
<g id="node4" class="node">
<title>Node4</title>
<g id="a_node4"><a xlink:href="directx12rendertexture_8cpp.html" target="_top" xlink:title=" ">
<polygon fill="white" stroke="#666666" points="619,-30 424,-30 424,0 619,0 619,-30"/>
<text text-anchor="start" x="432" y="-18" font-family="Helvetica,sans-Serif" font-size="10.00">plugins/renderer/directx12</text>
<text text-anchor="middle" x="521.5" y="-7" font-family="Helvetica,sans-Serif" font-size="10.00">/src/DirectX12/directx12rendertexture.cpp</text>
</a>
</g>
</g>
<!-- Node1&#45;&gt;Node4 -->
<g id="edge3" class="edge">
<title>Node1&#45;&gt;Node4</title>
<path fill="none" stroke="#63b8ff" d="M369.02,-62.25C402.12,-52.21 442.97,-39.82 474.06,-30.39"/>
<polygon fill="#63b8ff" stroke="#63b8ff" points="368.12,-58.87 359.56,-65.12 370.15,-65.56 368.12,-58.87"/>
</g>
</g>
</svg>
