<?xml version="1.0" encoding="UTF-8" standalone="no"?>
<!DOCTYPE svg PUBLIC "-//W3C//DTD SVG 1.1//EN"
 "http://www.w3.org/Graphics/SVG/1.1/DTD/svg11.dtd">
<!-- Generated by graphviz version 7.0.5 (20221223.1930)
 -->
<!-- Title: plugins/renderer/directx12/src/DirectX12/util/directx12queryheap.h Pages: 1 -->
<!--zoomable 170 -->
<svg id="main" version="1.1" xmlns="http://www.w3.org/2000/svg" xmlns:xlink="http://www.w3.org/1999/xlink" xml:space="preserve" onload="init(evt)">
<style type="text/css"><![CDATA[
.edge:hover path { stroke: red; }
.edge:hover polygon { stroke: red; fill: red; }
]]></style>
<script type="text/javascript"><![CDATA[
var edges = document.getElementsByTagName('g');
if (edges && edges.length) {
  for (var i=0;i<edges.length;i++) {
    if (edges[i].id.substr(0,4)=='edge') {
      edges[i].setAttribute('class','edge');
    }
  }
}
]]></script>
        <defs>
                <circle id="rim" cx="0" cy="0" r="7"/>
                <circle id="rim2" cx="0" cy="0" r="3.5"/>
                <g id="zoomPlus">
                        <use xlink:href="#rim" fill="#404040">
                                <set attributeName="fill" to="#808080" begin="zoomplus.mouseover" end="zoomplus.mouseout"/>
                        </use>
                        <path d="M-4,0h8M0,-4v8" fill="none" stroke="white" stroke-width="1.5" pointer-events="none"/>
                </g>
                <g id="zoomMin">
                        <use xlink:href="#rim" fill="#404040">
                                <set attributeName="fill" to="#808080" begin="zoomminus.mouseover" end="zoomminus.mouseout"/>
                        </use>
                        <path d="M-4,0h8" fill="none" stroke="white" stroke-width="1.5" pointer-events="none"/>
                </g>
                <g id="dirArrow">
                        <path fill="none" stroke="white" stroke-width="1.5" d="M0,-3.0v7 M-2.5,-0.5L0,-3.0L2.5,-0.5"/>
                </g>
               <g id="resetDef">
                       <use xlink:href="#rim2" fill="#404040">
                               <set attributeName="fill" to="#808080" begin="reset.mouseover" end="reset.mouseout"/>
                       </use>
               </g>
        </defs>

<script type="text/javascript">
var viewWidth = 4153;
var viewHeight = 170;
var sectionId = 'dynsection-0';
</script>
<script xlink:href="svgpan.js"/>
<svg id="graph" class="graph">
<g id="viewport">
<title>plugins/renderer/directx12/src/DirectX12/util/directx12queryheap.h</title>
<!-- Node1 -->
<g id="node1" class="node">
<title>Node1</title>
<g id="a_node1"><a xlink:title=" ">
<polygon fill="#999999" stroke="#666666" points="2318.5,-162 2130.5,-162 2130.5,-132 2318.5,-132 2318.5,-162"/>
<text text-anchor="start" x="2138.5" y="-150" font-family="Helvetica,sans-Serif" font-size="10.00">plugins/renderer/directx12</text>
<text text-anchor="middle" x="2224.5" y="-139" font-family="Helvetica,sans-Serif" font-size="10.00">/src/DirectX12/util/directx12queryheap.h</text>
</a>
</g>
</g>
<!-- Node2 -->
<g id="node2" class="node">
<title>Node2</title>
<g id="a_node2"><a xlink:href="directx12rendercontext_8h.html" target="_top" xlink:title=" ">
<polygon fill="white" stroke="#666666" points="2257,-96 2070,-96 2070,-66 2257,-66 2257,-96"/>
<text text-anchor="start" x="2078" y="-84" font-family="Helvetica,sans-Serif" font-size="10.00">plugins/renderer/directx12</text>
<text text-anchor="middle" x="2163.5" y="-73" font-family="Helvetica,sans-Serif" font-size="10.00">/src/DirectX12/directx12rendercontext.h</text>
</a>
</g>
</g>
<!-- Node1&#45;&gt;Node2 -->
<g id="edge1" class="edge">
<title>Node1&#45;&gt;Node2</title>
<path fill="none" stroke="#63b8ff" d="M2203.08,-123.53C2194.41,-114.43 2184.65,-104.19 2177,-96.16"/>
<polygon fill="#63b8ff" stroke="#63b8ff" points="2200.48,-125.88 2209.92,-130.7 2205.55,-121.05 2200.48,-125.88"/>
</g>
<!-- Node19 -->
<g id="node19" class="node">
<title>Node19</title>
<g id="a_node19"><a xlink:href="directx12queryheap_8cpp.html" target="_top" xlink:title=" ">
<polygon fill="white" stroke="#666666" points="4145,-30 3946,-30 3946,0 4145,0 4145,-30"/>
<text text-anchor="start" x="3954" y="-18" font-family="Helvetica,sans-Serif" font-size="10.00">plugins/renderer/directx12</text>
<text text-anchor="middle" x="4045.5" y="-7" font-family="Helvetica,sans-Serif" font-size="10.00">/src/DirectX12/util/directx12queryheap.cpp</text>
</a>
</g>
</g>
<!-- Node1&#45;&gt;Node19 -->
<g id="edge21" class="edge">
<title>Node1&#45;&gt;Node19</title>
<path fill="none" stroke="#63b8ff" d="M2330.14,-141.06C2598.76,-128 3329.64,-89.48 3936.5,-30 3939.54,-29.7 3942.62,-29.39 3945.73,-29.06"/>
<polygon fill="#63b8ff" stroke="#63b8ff" points="2330.18,-137.55 2320.36,-141.53 2330.52,-144.54 2330.18,-137.55"/>
</g>
<!-- Node3 -->
<g id="node3" class="node">
<title>Node3</title>
<g id="a_node3"><a xlink:href="directx12meshloader_8cpp.html" target="_top" xlink:title=" ">
<polygon fill="white" stroke="#666666" points="189,-30 0,-30 0,0 189,0 189,-30"/>
<text text-anchor="start" x="8" y="-18" font-family="Helvetica,sans-Serif" font-size="10.00">plugins/renderer/directx12</text>
<text text-anchor="middle" x="94.5" y="-7" font-family="Helvetica,sans-Serif" font-size="10.00">/src/DirectX12/directx12meshloader.cpp</text>
</a>
</g>
</g>
<!-- Node2&#45;&gt;Node3 -->
<g id="edge2" class="edge">
<title>Node2&#45;&gt;Node3</title>
<path fill="none" stroke="#63b8ff" d="M2058.04,-78.83C1704.76,-74.66 564.69,-59.22 198.5,-30 195.5,-29.76 192.46,-29.49 189.39,-29.21"/>
<polygon fill="#63b8ff" stroke="#63b8ff" points="2057.96,-82.33 2068,-78.94 2058.05,-75.33 2057.96,-82.33"/>
</g>
<!-- Node4 -->
<g id="node4" class="node">
<title>Node4</title>
<g id="a_node4"><a xlink:href="directx12pipelineloader_8cpp.html" target="_top" xlink:title=" ">
<polygon fill="white" stroke="#666666" points="405.5,-30 207.5,-30 207.5,0 405.5,0 405.5,-30"/>
<text text-anchor="start" x="215.5" y="-18" font-family="Helvetica,sans-Serif" font-size="10.00">plugins/renderer/directx12</text>
<text text-anchor="middle" x="306.5" y="-7" font-family="Helvetica,sans-Serif" font-size="10.00">/src/DirectX12/directx12pipelineloader.cpp</text>
</a>
</g>
</g>
<!-- Node2&#45;&gt;Node4 -->
<g id="edge3" class="edge">
<title>Node2&#45;&gt;Node4</title>
<path fill="none" stroke="#63b8ff" d="M2058.52,-80.66C1786.49,-81.59 1036.58,-79.09 414.5,-30 411.67,-29.78 408.81,-29.53 405.91,-29.27"/>
<polygon fill="#63b8ff" stroke="#63b8ff" points="2058.44,-84.16 2068.43,-80.63 2058.42,-77.16 2058.44,-84.16"/>
</g>
<!-- Node5 -->
<g id="node5" class="node">
<title>Node5</title>
<g id="a_node5"><a xlink:href="directx12pixelshaderloader_8cpp.html" target="_top" xlink:title=" ">
<polygon fill="white" stroke="#666666" points="637.5,-30 423.5,-30 423.5,0 637.5,0 637.5,-30"/>
<text text-anchor="start" x="431.5" y="-18" font-family="Helvetica,sans-Serif" font-size="10.00">plugins/renderer/directx12</text>
<text text-anchor="middle" x="530.5" y="-7" font-family="Helvetica,sans-Serif" font-size="10.00">/src/DirectX12/directx12pixelshaderloader.cpp</text>
</a>
</g>
</g>
<!-- Node2&#45;&gt;Node5 -->
<g id="edge4" class="edge">
<title>Node2&#45;&gt;Node5</title>
<path fill="none" stroke="#63b8ff" d="M2058.23,-79.68C1811.31,-78.26 1175.73,-70.58 646.5,-30 643.67,-29.78 640.8,-29.55 637.91,-29.3"/>
<polygon fill="#63b8ff" stroke="#63b8ff" points="2058.16,-83.18 2068.18,-79.74 2058.2,-76.18 2058.16,-83.18"/>
</g>
<!-- Node6 -->
<g id="node6" class="node">
<title>Node6</title>
<g id="a_node6"><a xlink:href="directx12rendercontext_8cpp.html" target="_top" xlink:title=" ">
<polygon fill="white" stroke="#666666" points="853,-30 656,-30 656,0 853,0 853,-30"/>
<text text-anchor="start" x="664" y="-18" font-family="Helvetica,sans-Serif" font-size="10.00">plugins/renderer/directx12</text>
<text text-anchor="middle" x="754.5" y="-7" font-family="Helvetica,sans-Serif" font-size="10.00">/src/DirectX12/directx12rendercontext.cpp</text>
</a>
</g>
</g>
<!-- Node2&#45;&gt;Node6 -->
<g id="edge5" class="edge">
<title>Node2&#45;&gt;Node6</title>
<path fill="none" stroke="#63b8ff" d="M2058.5,-79.23C1836.93,-76.89 1305.44,-67.49 861.5,-30 858.79,-29.77 856.05,-29.52 853.28,-29.26"/>
<polygon fill="#63b8ff" stroke="#63b8ff" points="2058.22,-82.73 2068.26,-79.33 2058.3,-75.73 2058.22,-82.73"/>
</g>
<!-- Node7 -->
<g id="node7" class="node">
<title>Node7</title>
<g id="a_node7"><a xlink:href="directx12rendertarget_8cpp.html" target="_top" xlink:title=" ">
<polygon fill="white" stroke="#666666" points="1062,-30 871,-30 871,0 1062,0 1062,-30"/>
<text text-anchor="start" x="879" y="-18" font-family="Helvetica,sans-Serif" font-size="10.00">plugins/renderer/directx12</text>
<text text-anchor="middle" x="966.5" y="-7" font-family="Helvetica,sans-Serif" font-size="10.00">/src/DirectX12/directx12rendertarget.cpp</text>
</a>
</g>
</g>
<!-- Node2&#45;&gt;Node7 -->
<g id="edge6" class="edge">
<title>Node2&#45;&gt;Node7</title>
<path fill="none" stroke="#63b8ff" d="M2058.36,-78.27C1863.29,-74.37 1432.22,-62.56 1070.5,-30 1067.78,-29.76 1065.02,-29.49 1062.23,-29.21"/>
<polygon fill="#63b8ff" stroke="#63b8ff" points="2058.16,-81.77 2068.23,-78.46 2058.3,-74.77 2058.16,-81.77"/>
</g>
<!-- Node8 -->
<g id="node8" class="node">
<title>Node8</title>
<g id="a_node8"><a xlink:href="directx12rendertexture_8cpp.html" target="_top" xlink:title=" ">
<polygon fill="white" stroke="#666666" points="1275,-30 1080,-30 1080,0 1275,0 1275,-30"/>
<text text-anchor="start" x="1088" y="-18" font-family="Helvetica,sans-Serif" font-size="10.00">plugins/renderer/directx12</text>
<text text-anchor="middle" x="1177.5" y="-7" font-family="Helvetica,sans-Serif" font-size="10.00">/src/DirectX12/directx12rendertexture.cpp</text>
</a>
</g>
</g>
<!-- Node2&#45;&gt;Node8 -->
<g id="edge7" class="edge">
<title>Node2&#45;&gt;Node8</title>
<path fill="none" stroke="#63b8ff" d="M2058.43,-76.56C1893.22,-70.59 1562.74,-56.34 1283.5,-30 1280.82,-29.75 1278.1,-29.48 1275.36,-29.2"/>
<polygon fill="#63b8ff" stroke="#63b8ff" points="2057.92,-80.05 2068.04,-76.91 2058.18,-73.05 2057.92,-80.05"/>
</g>
<!-- Node9 -->
<g id="node9" class="node">
<title>Node9</title>
<g id="a_node9"><a xlink:href="directx12renderwindow_8cpp.html" target="_top" xlink:title=" ">
<polygon fill="white" stroke="#666666" points="1492,-30 1293,-30 1293,0 1492,0 1492,-30"/>
<text text-anchor="start" x="1301" y="-18" font-family="Helvetica,sans-Serif" font-size="10.00">plugins/renderer/directx12</text>
<text text-anchor="middle" x="1392.5" y="-7" font-family="Helvetica,sans-Serif" font-size="10.00">/src/DirectX12/directx12renderwindow.cpp</text>
</a>
</g>
</g>
<!-- Node2&#45;&gt;Node9 -->
<g id="edge8" class="edge">
<title>Node2&#45;&gt;Node9</title>
<path fill="none" stroke="#63b8ff" d="M2058.46,-73.77C1927.77,-65.63 1697.87,-50.01 1501.5,-30 1498.46,-29.69 1495.38,-29.36 1492.27,-29.03"/>
<polygon fill="#63b8ff" stroke="#63b8ff" points="2057.92,-77.24 2068.12,-74.37 2058.36,-70.26 2057.92,-77.24"/>
</g>
<!-- Node10 -->
<g id="node10" class="node">
<title>Node10</title>
<g id="a_node10"><a xlink:href="directx12textureloader_8cpp.html" target="_top" xlink:title=" ">
<polygon fill="white" stroke="#666666" points="1704.5,-30 1510.5,-30 1510.5,0 1704.5,0 1704.5,-30"/>
<text text-anchor="start" x="1518.5" y="-18" font-family="Helvetica,sans-Serif" font-size="10.00">plugins/renderer/directx12</text>
<text text-anchor="middle" x="1607.5" y="-7" font-family="Helvetica,sans-Serif" font-size="10.00">/src/DirectX12/directx12textureloader.cpp</text>
</a>
</g>
</g>
<!-- Node2&#45;&gt;Node10 -->
<g id="edge9" class="edge">
<title>Node2&#45;&gt;Node10</title>
<path fill="none" stroke="#63b8ff" d="M2058.74,-68.98C1967.5,-59.23 1831.67,-44.37 1713.5,-30 1710.64,-29.65 1707.74,-29.3 1704.82,-28.93"/>
<polygon fill="#63b8ff" stroke="#63b8ff" points="2058.1,-72.43 2068.42,-70.01 2058.85,-65.47 2058.1,-72.43"/>
</g>
<!-- Node11 -->
<g id="node11" class="node">
<title>Node11</title>
<g id="a_node11"><a xlink:href="directx12vertexshaderloader_8cpp.html" target="_top" xlink:title=" ">
<polygon fill="white" stroke="#666666" points="1944,-30 1723,-30 1723,0 1944,0 1944,-30"/>
<text text-anchor="start" x="1731" y="-18" font-family="Helvetica,sans-Serif" font-size="10.00">plugins/renderer/directx12</text>
<text text-anchor="middle" x="1833.5" y="-7" font-family="Helvetica,sans-Serif" font-size="10.00">/src/DirectX12/directx12vertexshaderloader.cpp</text>
</a>
</g>
</g>
<!-- Node2&#45;&gt;Node11 -->
<g id="edge10" class="edge">
<title>Node2&#45;&gt;Node11</title>
<path fill="none" stroke="#63b8ff" d="M2078.02,-63.42C2025.35,-53.21 1958.48,-40.24 1907.98,-30.45"/>
<polygon fill="#63b8ff" stroke="#63b8ff" points="2077.06,-66.8 2087.54,-65.27 2078.39,-59.93 2077.06,-66.8"/>
</g>
<!-- Node12 -->
<g id="node12" class="node">
<title>Node12</title>
<g id="a_node12"><a xlink:href="directx12buffer_8cpp.html" target="_top" xlink:title=" ">
<polygon fill="white" stroke="#666666" points="2141,-30 1962,-30 1962,0 2141,0 2141,-30"/>
<text text-anchor="start" x="1970" y="-18" font-family="Helvetica,sans-Serif" font-size="10.00">plugins/renderer/directx12</text>
<text text-anchor="middle" x="2051.5" y="-7" font-family="Helvetica,sans-Serif" font-size="10.00">/src/DirectX12/util/directx12buffer.cpp</text>
</a>
</g>
</g>
<!-- Node2&#45;&gt;Node12 -->
<g id="edge11" class="edge">
<title>Node2&#45;&gt;Node12</title>
<path fill="none" stroke="#63b8ff" d="M2128.82,-60.18C2111.91,-50.52 2091.95,-39.12 2076.55,-30.31"/>
<polygon fill="#63b8ff" stroke="#63b8ff" points="2126.63,-62.96 2137.05,-64.89 2130.1,-56.89 2126.63,-62.96"/>
</g>
<!-- Node13 -->
<g id="node13" class="node">
<title>Node13</title>
<g id="a_node13"><a xlink:href="directx12commandallocator_8cpp.html" target="_top" xlink:title=" ">
<polygon fill="white" stroke="#666666" points="2393.5,-30 2159.5,-30 2159.5,0 2393.5,0 2393.5,-30"/>
<text text-anchor="start" x="2167.5" y="-18" font-family="Helvetica,sans-Serif" font-size="10.00">plugins/renderer/directx12</text>
<text text-anchor="middle" x="2276.5" y="-7" font-family="Helvetica,sans-Serif" font-size="10.00">/src/DirectX12/util/directx12commandallocator.cpp</text>
</a>
</g>
</g>
<!-- Node2&#45;&gt;Node13 -->
<g id="edge12" class="edge">
<title>Node2&#45;&gt;Node13</title>
<path fill="none" stroke="#63b8ff" d="M2198.49,-60.18C2215.55,-50.52 2235.68,-39.12 2251.23,-30.31"/>
<polygon fill="#63b8ff" stroke="#63b8ff" points="2197.15,-56.92 2190.18,-64.89 2200.6,-63.01 2197.15,-56.92"/>
</g>
<!-- Node14 -->
<g id="node14" class="node">
<title>Node14</title>
<g id="a_node14"><a xlink:href="directx12descriptorheap_8cpp.html" target="_top" xlink:title=" ">
<polygon fill="white" stroke="#666666" points="2629.5,-30 2411.5,-30 2411.5,0 2629.5,0 2629.5,-30"/>
<text text-anchor="start" x="2419.5" y="-18" font-family="Helvetica,sans-Serif" font-size="10.00">plugins/renderer/directx12</text>
<text text-anchor="middle" x="2520.5" y="-7" font-family="Helvetica,sans-Serif" font-size="10.00">/src/DirectX12/util/directx12descriptorheap.cpp</text>
</a>
</g>
</g>
<!-- Node2&#45;&gt;Node14 -->
<g id="edge13" class="edge">
<title>Node2&#45;&gt;Node14</title>
<path fill="none" stroke="#63b8ff" d="M2255.26,-63.55C2312.35,-53.32 2385.07,-40.28 2439.92,-30.45"/>
<polygon fill="#63b8ff" stroke="#63b8ff" points="2254.78,-60.08 2245.55,-65.29 2256.01,-66.97 2254.78,-60.08"/>
</g>
<!-- Node15 -->
<g id="node15" class="node">
<title>Node15</title>
<g id="a_node15"><a xlink:href="directx12heapallocator_8cpp.html" target="_top" xlink:title=" ">
<polygon fill="white" stroke="#666666" points="2859.5,-30 2647.5,-30 2647.5,0 2859.5,0 2859.5,-30"/>
<text text-anchor="start" x="2655.5" y="-18" font-family="Helvetica,sans-Serif" font-size="10.00">plugins/renderer/directx12</text>
<text text-anchor="middle" x="2753.5" y="-7" font-family="Helvetica,sans-Serif" font-size="10.00">/src/DirectX12/util/directx12heapallocator.cpp</text>
</a>
</g>
</g>
<!-- Node2&#45;&gt;Node15 -->
<g id="edge14" class="edge">
<title>Node2&#45;&gt;Node15</title>
<path fill="none" stroke="#63b8ff" d="M2268.48,-69.44C2364.76,-59.65 2511.3,-44.44 2638.5,-30 2641.4,-29.67 2644.34,-29.33 2647.3,-28.99"/>
<polygon fill="#63b8ff" stroke="#63b8ff" points="2268.38,-65.94 2258.79,-70.43 2269.09,-72.9 2268.38,-65.94"/>
</g>
<!-- Node16 -->
<g id="node16" class="node">
<title>Node16</title>
<g id="a_node16"><a xlink:href="directx12persistentbuffer_8cpp.html" target="_top" xlink:title=" ">
<polygon fill="white" stroke="#666666" points="3099,-30 2878,-30 2878,0 3099,0 3099,-30"/>
<text text-anchor="start" x="2886" y="-18" font-family="Helvetica,sans-Serif" font-size="10.00">plugins/renderer/directx12</text>
<text text-anchor="middle" x="2988.5" y="-7" font-family="Helvetica,sans-Serif" font-size="10.00">/src/DirectX12/util/directx12persistentbuffer.cpp</text>
</a>
</g>
</g>
<!-- Node2&#45;&gt;Node16 -->
<g id="edge15" class="edge">
<title>Node2&#45;&gt;Node16</title>
<path fill="none" stroke="#63b8ff" d="M2268.77,-74.03C2406.68,-65.86 2655.95,-49.93 2868.5,-30 2871.53,-29.72 2874.6,-29.42 2877.7,-29.11"/>
<polygon fill="#63b8ff" stroke="#63b8ff" points="2268.69,-70.53 2258.92,-74.61 2269.11,-77.51 2268.69,-70.53"/>
</g>
<!-- Node17 -->
<g id="node17" class="node">
<title>Node17</title>
<g id="a_node17"><a xlink:href="directx12pipeline_8cpp.html" target="_top" xlink:title=" ">
<polygon fill="white" stroke="#666666" points="3305.5,-30 3117.5,-30 3117.5,0 3305.5,0 3305.5,-30"/>
<text text-anchor="start" x="3125.5" y="-18" font-family="Helvetica,sans-Serif" font-size="10.00">plugins/renderer/directx12</text>
<text text-anchor="middle" x="3211.5" y="-7" font-family="Helvetica,sans-Serif" font-size="10.00">/src/DirectX12/util/directx12pipeline.cpp</text>
</a>
</g>
</g>
<!-- Node2&#45;&gt;Node17 -->
<g id="edge16" class="edge">
<title>Node2&#45;&gt;Node17</title>
<path fill="none" stroke="#63b8ff" d="M2268.73,-77.26C2443.47,-72.07 2804.35,-58.67 3108.5,-30 3111.37,-29.73 3114.29,-29.44 3117.24,-29.13"/>
<polygon fill="#63b8ff" stroke="#63b8ff" points="2268.65,-73.76 2258.76,-77.55 2268.85,-80.75 2268.65,-73.76"/>
</g>
<!-- Node18 -->
<g id="node18" class="node">
<title>Node18</title>
<g id="a_node18"><a xlink:href="directx12pipelineinstance_8cpp.html" target="_top" xlink:title=" ">
<polygon fill="white" stroke="#666666" points="3547.5,-30 3323.5,-30 3323.5,0 3547.5,0 3547.5,-30"/>
<text text-anchor="start" x="3331.5" y="-18" font-family="Helvetica,sans-Serif" font-size="10.00">plugins/renderer/directx12</text>
<text text-anchor="middle" x="3435.5" y="-7" font-family="Helvetica,sans-Serif" font-size="10.00">/src/DirectX12/util/directx12pipelineinstance.cpp</text>
</a>
</g>
</g>
<!-- Node2&#45;&gt;Node18 -->
<g id="edge17" class="edge">
<title>Node2&#45;&gt;Node18</title>
<path fill="none" stroke="#63b8ff" d="M2268.47,-77.96C2471.01,-73.47 2929.73,-60.58 3314.5,-30 3317.35,-29.77 3320.23,-29.53 3323.13,-29.28"/>
<polygon fill="#63b8ff" stroke="#63b8ff" points="2268.69,-74.45 2258.77,-78.17 2268.85,-81.45 2268.69,-74.45"/>
</g>
<!-- Node2&#45;&gt;Node19 -->
<g id="edge18" class="edge">
<title>Node2&#45;&gt;Node19</title>
<path fill="none" stroke="#63b8ff" d="M2268.92,-78.41C2598.91,-73.2 3609.49,-55.55 3936.5,-30 3939.54,-29.76 3942.63,-29.5 3945.75,-29.22"/>
<polygon fill="#63b8ff" stroke="#63b8ff" points="2268.93,-74.91 2258.98,-78.56 2269.04,-81.91 2268.93,-74.91"/>
</g>
<!-- Node20 -->
<g id="node20" class="node">
<title>Node20</title>
<g id="a_node20"><a xlink:href="directx12texture_8cpp.html" target="_top" xlink:title=" ">
<polygon fill="white" stroke="#666666" points="3749.5,-30 3565.5,-30 3565.5,0 3749.5,0 3749.5,-30"/>
<text text-anchor="start" x="3573.5" y="-18" font-family="Helvetica,sans-Serif" font-size="10.00">plugins/renderer/directx12</text>
<text text-anchor="middle" x="3657.5" y="-7" font-family="Helvetica,sans-Serif" font-size="10.00">/src/DirectX12/util/directx12texture.cpp</text>
</a>
</g>
</g>
<!-- Node2&#45;&gt;Node20 -->
<g id="edge19" class="edge">
<title>Node2&#45;&gt;Node20</title>
<path fill="none" stroke="#63b8ff" d="M2268.95,-79.88C2501.74,-78.8 3077,-71.73 3556.5,-30 3559.32,-29.75 3562.19,-29.48 3565.07,-29.2"/>
<polygon fill="#63b8ff" stroke="#63b8ff" points="2268.95,-76.38 2258.97,-79.92 2268.98,-83.38 2268.95,-76.38"/>
</g>
<!-- Node21 -->
<g id="node21" class="node">
<title>Node21</title>
<g id="a_node21"><a xlink:href="dx12dump_8cpp.html" target="_top" xlink:title=" ">
<polygon fill="white" stroke="#666666" points="3927.5,-30 3767.5,-30 3767.5,0 3927.5,0 3927.5,-30"/>
<text text-anchor="start" x="3775.5" y="-18" font-family="Helvetica,sans-Serif" font-size="10.00">plugins/renderer/directx12</text>
<text text-anchor="middle" x="3847.5" y="-7" font-family="Helvetica,sans-Serif" font-size="10.00">/src/DirectX12/util/dx12dump.cpp</text>
</a>
</g>
</g>
<!-- Node2&#45;&gt;Node21 -->
<g id="edge20" class="edge">
<title>Node2&#45;&gt;Node21</title>
<path fill="none" stroke="#63b8ff" d="M2268.59,-78.42C2575.65,-73.52 3467.99,-57.3 3758.5,-30 3761.3,-29.74 3764.15,-29.44 3767.03,-29.12"/>
<polygon fill="#63b8ff" stroke="#63b8ff" points="2268.93,-74.91 2258.99,-78.57 2269.04,-81.91 2268.93,-74.91"/>
</g>
</g>
</svg>
        <g id="navigator" transform="translate(0 0)" fill="#404254">
                <rect fill="#f2f5e9" fill-opacity="0.5" stroke="#606060" stroke-width=".5" x="0" y="0" width="60" height="60"/>
                <use id="zoomplus" xlink:href="#zoomPlus" x="17" y="9" onmousedown="handleZoom(evt,'in')"/>
                <use id="zoomminus" xlink:href="#zoomMin" x="42" y="9" onmousedown="handleZoom(evt,'out')"/>
                <use id="reset" xlink:href="#resetDef" x="30" y="36" onmousedown="handleReset()"/>
                <g id="arrowUp" xlink:href="#dirArrow" transform="translate(30 24)" onmousedown="handlePan(0,-1)">
                  <use xlink:href="#rim" fill="#404040">
                        <set attributeName="fill" to="#808080" begin="arrowUp.mouseover" end="arrowUp.mouseout"/>
                  </use>
                  <path fill="none" stroke="white" stroke-width="1.5" d="M0,-3.0v7 M-2.5,-0.5L0,-3.0L2.5,-0.5"/>
                </g>
                <g id="arrowRight" xlink:href="#dirArrow" transform="rotate(90) translate(36 -43)" onmousedown="handlePan(1,0)">
                  <use xlink:href="#rim" fill="#404040">
                        <set attributeName="fill" to="#808080" begin="arrowRight.mouseover" end="arrowRight.mouseout"/>
                  </use>
                  <path fill="none" stroke="white" stroke-width="1.5" d="M0,-3.0v7 M-2.5,-0.5L0,-3.0L2.5,-0.5"/>
                </g>
                <g id="arrowDown" xlink:href="#dirArrow" transform="rotate(180) translate(-30 -48)" onmousedown="handlePan(0,1)">
                  <use xlink:href="#rim" fill="#404040">
                        <set attributeName="fill" to="#808080" begin="arrowDown.mouseover" end="arrowDown.mouseout"/>
                  </use>
                  <path fill="none" stroke="white" stroke-width="1.5" d="M0,-3.0v7 M-2.5,-0.5L0,-3.0L2.5,-0.5"/>
                </g>
                <g id="arrowLeft" xlink:href="#dirArrow" transform="rotate(270) translate(-36 17)" onmousedown="handlePan(-1,0)">
                  <use xlink:href="#rim" fill="#404040">
                        <set attributeName="fill" to="#808080" begin="arrowLeft.mouseover" end="arrowLeft.mouseout"/>
                  </use>
                  <path fill="none" stroke="white" stroke-width="1.5" d="M0,-3.0v7 M-2.5,-0.5L0,-3.0L2.5,-0.5"/>
                </g>
        </g>
        <svg viewBox="0 0 15 15" width="100%" height="30px" preserveAspectRatio="xMaxYMin meet">
         <g id="arrow_out" transform="scale(0.3 0.3)">
          <a xlink:href="directx12queryheap_8h__dep__incl_org.svg" target="_base">
           <rect id="button" ry="5" rx="5" y="6" x="6" height="38" width="38"
                fill="#f2f5e9" fill-opacity="0.5" stroke="#606060" stroke-width="1.0"/>
           <path id="arrow"
             d="M 11.500037,31.436501 C 11.940474,20.09759 22.043105,11.32322 32.158766,21.979434 L 37.068811,17.246167 C 37.068811,17.246167 37.088388,32 37.088388,32 L 22.160133,31.978069 C 22.160133,31.978069 26.997745,27.140456 26.997745,27.140456 C 18.528582,18.264221 13.291696,25.230495 11.500037,31.436501 z"
             style="fill:#404040;"/>
          </a>
         </g>
        </svg>
</svg>
