<?xml version="1.0" encoding="UTF-8" standalone="no"?>
<!DOCTYPE svg PUBLIC "-//W3C//DTD SVG 1.1//EN"
 "http://www.w3.org/Graphics/SVG/1.1/DTD/svg11.dtd">
<!-- Generated by graphviz version 7.0.5 (20221223.1930)
 -->
<!-- Title: plugins/renderer/directx12/src/DirectX12/directx12textureloader.h Pages: 1 -->
<svg width="799pt" height="236pt"
 viewBox="0.00 0.00 798.50 236.00" xmlns="http://www.w3.org/2000/svg" xmlns:xlink="http://www.w3.org/1999/xlink">
<g id="graph0" class="graph" transform="scale(1 1) rotate(0) translate(4 232)">
<title>plugins/renderer/directx12/src/DirectX12/directx12textureloader.h</title>
<!-- Node1 -->
<g id="node1" class="node">
<title>Node1</title>
<g id="a_node1"><a xlink:title=" ">
<polygon fill="#999999" stroke="#666666" points="660.5,-228 476.5,-228 476.5,-198 660.5,-198 660.5,-228"/>
<text text-anchor="start" x="484.5" y="-216" font-family="Helvetica,sans-Serif" font-size="10.00">plugins/renderer/directx12</text>
<text text-anchor="middle" x="568.5" y="-205" font-family="Helvetica,sans-Serif" font-size="10.00">/src/DirectX12/directx12textureloader.h</text>
</a>
</g>
</g>
<!-- Node2 -->
<g id="node2" class="node">
<title>Node2</title>
<g id="a_node2"><a xlink:href="directx12meshdata_8h.html" target="_top" xlink:title=" ">
<polygon fill="white" stroke="#666666" points="418,-162 247,-162 247,-132 418,-132 418,-162"/>
<text text-anchor="start" x="255" y="-150" font-family="Helvetica,sans-Serif" font-size="10.00">plugins/renderer/directx12</text>
<text text-anchor="middle" x="332.5" y="-139" font-family="Helvetica,sans-Serif" font-size="10.00">/src/DirectX12/directx12meshdata.h</text>
</a>
</g>
</g>
<!-- Node1&#45;&gt;Node2 -->
<g id="edge1" class="edge">
<title>Node1&#45;&gt;Node2</title>
<path fill="none" stroke="#63b8ff" d="M504.49,-194.64C467.22,-184.53 420.79,-171.94 385.56,-162.39"/>
<polygon fill="#63b8ff" stroke="#63b8ff" points="503.21,-197.92 513.78,-197.16 505.05,-191.17 503.21,-197.92"/>
</g>
<!-- Node5 -->
<g id="node5" class="node">
<title>Node5</title>
<g id="a_node5"><a xlink:href="directx12rendercontext_8cpp.html" target="_top" xlink:title=" ">
<polygon fill="white" stroke="#666666" points="661,-30 464,-30 464,0 661,0 661,-30"/>
<text text-anchor="start" x="472" y="-18" font-family="Helvetica,sans-Serif" font-size="10.00">plugins/renderer/directx12</text>
<text text-anchor="middle" x="562.5" y="-7" font-family="Helvetica,sans-Serif" font-size="10.00">/src/DirectX12/directx12rendercontext.cpp</text>
</a>
</g>
</g>
<!-- Node1&#45;&gt;Node5 -->
<g id="edge9" class="edge">
<title>Node1&#45;&gt;Node5</title>
<path fill="none" stroke="#63b8ff" d="M567.71,-186.22C566.43,-144.46 563.95,-63.37 562.94,-30.43"/>
<polygon fill="#63b8ff" stroke="#63b8ff" points="564.21,-186.19 568.01,-196.07 571.2,-185.97 564.21,-186.19"/>
</g>
<!-- Node8 -->
<g id="node8" class="node">
<title>Node8</title>
<g id="a_node8"><a xlink:href="directx12textureloader_8cpp.html" target="_top" xlink:title=" ">
<polygon fill="white" stroke="#666666" points="790.5,-162 596.5,-162 596.5,-132 790.5,-132 790.5,-162"/>
<text text-anchor="start" x="604.5" y="-150" font-family="Helvetica,sans-Serif" font-size="10.00">plugins/renderer/directx12</text>
<text text-anchor="middle" x="693.5" y="-139" font-family="Helvetica,sans-Serif" font-size="10.00">/src/DirectX12/directx12textureloader.cpp</text>
</a>
</g>
</g>
<!-- Node1&#45;&gt;Node8 -->
<g id="edge10" class="edge">
<title>Node1&#45;&gt;Node8</title>
<path fill="none" stroke="#63b8ff" d="M606.68,-192.45C625.66,-182.73 648.19,-171.2 665.54,-162.31"/>
<polygon fill="#63b8ff" stroke="#63b8ff" points="605.21,-189.27 597.9,-196.95 608.4,-195.51 605.21,-189.27"/>
</g>
<!-- Node3 -->
<g id="node3" class="node">
<title>Node3</title>
<g id="a_node3"><a xlink:href="directx12meshloader_8cpp.html" target="_top" xlink:title=" ">
<polygon fill="white" stroke="#666666" points="189,-30 0,-30 0,0 189,0 189,-30"/>
<text text-anchor="start" x="8" y="-18" font-family="Helvetica,sans-Serif" font-size="10.00">plugins/renderer/directx12</text>
<text text-anchor="middle" x="94.5" y="-7" font-family="Helvetica,sans-Serif" font-size="10.00">/src/DirectX12/directx12meshloader.cpp</text>
</a>
</g>
</g>
<!-- Node2&#45;&gt;Node3 -->
<g id="edge2" class="edge">
<title>Node2&#45;&gt;Node3</title>
<path fill="none" stroke="#63b8ff" d="M235.46,-140.08C170.17,-133.83 92.34,-121.21 71.5,-96 55.76,-76.95 71.31,-47.66 83.37,-30.3"/>
<polygon fill="#63b8ff" stroke="#63b8ff" points="234.87,-143.54 245.15,-140.96 235.5,-136.57 234.87,-143.54"/>
</g>
<!-- Node4 -->
<g id="node4" class="node">
<title>Node4</title>
<g id="a_node4"><a xlink:href="directx12meshloader_8h.html" target="_top" xlink:title=" ">
<polygon fill="white" stroke="#666666" points="540,-96 361,-96 361,-66 540,-66 540,-96"/>
<text text-anchor="start" x="369" y="-84" font-family="Helvetica,sans-Serif" font-size="10.00">plugins/renderer/directx12</text>
<text text-anchor="middle" x="450.5" y="-73" font-family="Helvetica,sans-Serif" font-size="10.00">/src/DirectX12/directx12meshloader.h</text>
</a>
</g>
</g>
<!-- Node2&#45;&gt;Node4 -->
<g id="edge3" class="edge">
<title>Node2&#45;&gt;Node4</title>
<path fill="none" stroke="#63b8ff" d="M369.04,-126.18C386.85,-116.52 407.88,-105.12 424.11,-96.31"/>
<polygon fill="#63b8ff" stroke="#63b8ff" points="367.43,-123.07 360.31,-130.92 370.77,-129.22 367.43,-123.07"/>
</g>
<!-- Node6 -->
<g id="node6" class="node">
<title>Node6</title>
<g id="a_node6"><a xlink:href="directx12rendertarget_8cpp.html" target="_top" xlink:title=" ">
<polygon fill="white" stroke="#666666" points="434,-30 243,-30 243,0 434,0 434,-30"/>
<text text-anchor="start" x="251" y="-18" font-family="Helvetica,sans-Serif" font-size="10.00">plugins/renderer/directx12</text>
<text text-anchor="middle" x="338.5" y="-7" font-family="Helvetica,sans-Serif" font-size="10.00">/src/DirectX12/directx12rendertarget.cpp</text>
</a>
</g>
</g>
<!-- Node2&#45;&gt;Node6 -->
<g id="edge7" class="edge">
<title>Node2&#45;&gt;Node6</title>
<path fill="none" stroke="#63b8ff" d="M333.68,-120.38C334.92,-93.49 336.83,-52.18 337.83,-30.47"/>
<polygon fill="#63b8ff" stroke="#63b8ff" points="330.2,-119.93 333.23,-130.08 337.19,-120.25 330.2,-119.93"/>
</g>
<!-- Node7 -->
<g id="node7" class="node">
<title>Node7</title>
<g id="a_node7"><a xlink:href="directx12pipelineinstance_8cpp.html" target="_top" xlink:title=" ">
<polygon fill="white" stroke="#666666" points="304.5,-96 80.5,-96 80.5,-66 304.5,-66 304.5,-96"/>
<text text-anchor="start" x="88.5" y="-84" font-family="Helvetica,sans-Serif" font-size="10.00">plugins/renderer/directx12</text>
<text text-anchor="middle" x="192.5" y="-73" font-family="Helvetica,sans-Serif" font-size="10.00">/src/DirectX12/util/directx12pipelineinstance.cpp</text>
</a>
</g>
</g>
<!-- Node2&#45;&gt;Node7 -->
<g id="edge8" class="edge">
<title>Node2&#45;&gt;Node7</title>
<path fill="none" stroke="#63b8ff" d="M290.62,-126.86C269.18,-117.05 243.52,-105.32 223.81,-96.31"/>
<polygon fill="#63b8ff" stroke="#63b8ff" points="289.15,-130.03 299.7,-131.01 292.07,-123.67 289.15,-130.03"/>
</g>
<!-- Node4&#45;&gt;Node3 -->
<g id="edge4" class="edge">
<title>Node4&#45;&gt;Node3</title>
<path fill="none" stroke="#63b8ff" d="M359,-63.55C302.07,-53.32 229.55,-40.28 174.85,-30.45"/>
<polygon fill="#63b8ff" stroke="#63b8ff" points="358.21,-66.96 368.67,-65.29 359.45,-60.08 358.21,-66.96"/>
</g>
<!-- Node4&#45;&gt;Node5 -->
<g id="edge5" class="edge">
<title>Node4&#45;&gt;Node5</title>
<path fill="none" stroke="#63b8ff" d="M485.18,-60.18C502.09,-50.52 522.05,-39.12 537.45,-30.31"/>
<polygon fill="#63b8ff" stroke="#63b8ff" points="483.9,-56.89 476.95,-64.89 487.37,-62.96 483.9,-56.89"/>
</g>
<!-- Node4&#45;&gt;Node6 -->
<g id="edge6" class="edge">
<title>Node4&#45;&gt;Node6</title>
<path fill="none" stroke="#63b8ff" d="M415.82,-60.18C398.91,-50.52 378.95,-39.12 363.55,-30.31"/>
<polygon fill="#63b8ff" stroke="#63b8ff" points="413.63,-62.96 424.05,-64.89 417.1,-56.89 413.63,-62.96"/>
</g>
</g>
</svg>
