<?xml version="1.0" encoding="UTF-8" standalone="no"?>
<!DOCTYPE svg PUBLIC "-//W3C//DTD SVG 1.1//EN"
 "http://www.w3.org/Graphics/SVG/1.1/DTD/svg11.dtd">
<!-- Generated by graphviz version 7.0.5 (20221223.1930)
 -->
<!-- Title: plugins/renderer/directx12/src/DirectX12/directx12rendertexture.h Pages: 1 -->
<svg width="1435pt" height="819pt"
 viewBox="0.00 0.00 1435.00 819.00" xmlns="http://www.w3.org/2000/svg" xmlns:xlink="http://www.w3.org/1999/xlink">
<g id="graph0" class="graph" transform="scale(1 1) rotate(0) translate(4 815)">
<title>plugins/renderer/directx12/src/DirectX12/directx12rendertexture.h</title>
<!-- Node1 -->
<g id="node1" class="node">
<title>Node1</title>
<g id="a_node1"><a xlink:title=" ">
<polygon fill="#999999" stroke="#666666" points="856.5,-811 671.5,-811 671.5,-781 856.5,-781 856.5,-811"/>
<text text-anchor="start" x="679.5" y="-799" font-family="Helvetica,sans-Serif" font-size="10.00">plugins/renderer/directx12</text>
<text text-anchor="middle" x="764" y="-788" font-family="Helvetica,sans-Serif" font-size="10.00">/src/DirectX12/directx12rendertexture.h</text>
</a>
</g>
</g>
<!-- Node2 -->
<g id="node2" class="node">
<title>Node2</title>
<g id="a_node2"><a xlink:href="directx12rendertarget_8h.html" target="_top" xlink:title=" ">
<polygon fill="white" stroke="#666666" points="778.5,-745 663.5,-745 663.5,-726 778.5,-726 778.5,-745"/>
<text text-anchor="middle" x="721" y="-733" font-family="Helvetica,sans-Serif" font-size="10.00">directx12rendertarget.h</text>
</a>
</g>
</g>
<!-- Node1&#45;&gt;Node2 -->
<g id="edge1" class="edge">
<title>Node1&#45;&gt;Node2</title>
<path fill="none" stroke="#63b8ff" d="M753.37,-780.54C747.57,-772.65 740.34,-762.81 734.18,-754.44"/>
<polygon fill="#63b8ff" stroke="#63b8ff" points="737.02,-752.38 728.27,-746.39 731.38,-756.53 737.02,-752.38"/>
</g>
<!-- Node53 -->
<g id="node53" class="node">
<title>Node53</title>
<g id="a_node53"><a xlink:href="directx12texture_8h.html" target="_top" xlink:title=" ">
<polygon fill="white" stroke="#666666" points="860,-690 752,-690 752,-671 860,-671 860,-690"/>
<text text-anchor="middle" x="806" y="-678" font-family="Helvetica,sans-Serif" font-size="10.00">util/directx12texture.h</text>
</a>
</g>
</g>
<!-- Node1&#45;&gt;Node53 -->
<g id="edge76" class="edge">
<title>Node1&#45;&gt;Node53</title>
<path fill="none" stroke="#63b8ff" d="M771.19,-780.79C776.02,-770.9 782.34,-757.34 787,-745 792.43,-730.63 797.36,-713.98 800.84,-701.33"/>
<polygon fill="#63b8ff" stroke="#63b8ff" points="804.21,-702.28 803.41,-691.72 797.44,-700.48 804.21,-702.28"/>
</g>
<!-- Node3 -->
<g id="node3" class="node">
<title>Node3</title>
<g id="a_node3"><a xlink:href="rendertarget_8h.html" target="_top" xlink:title=" ">
<polygon fill="white" stroke="#666666" points="611,-690 465,-690 465,-671 611,-671 611,-690"/>
<text text-anchor="middle" x="538" y="-678" font-family="Helvetica,sans-Serif" font-size="10.00">Madgine/render/rendertarget.h</text>
</a>
</g>
</g>
<!-- Node2&#45;&gt;Node3 -->
<g id="edge2" class="edge">
<title>Node2&#45;&gt;Node3</title>
<path fill="none" stroke="#63b8ff" d="M689.96,-725.51C659.63,-716.73 613.27,-703.3 579.73,-693.59"/>
<polygon fill="#63b8ff" stroke="#63b8ff" points="580.92,-690.29 570.34,-690.87 578.98,-697.01 580.92,-690.29"/>
</g>
<!-- Node50 -->
<g id="node50" class="node">
<title>Node50</title>
<g id="a_node50"><a xlink:href="directx12commandlist_8h.html" target="_top" xlink:title=" ">
<polygon fill="white" stroke="#666666" points="873,-635 739,-635 739,-616 873,-616 873,-635"/>
<text text-anchor="middle" x="806" y="-623" font-family="Helvetica,sans-Serif" font-size="10.00">util/directx12commandlist.h</text>
</a>
</g>
</g>
<!-- Node2&#45;&gt;Node50 -->
<g id="edge63" class="edge">
<title>Node2&#45;&gt;Node50</title>
<path fill="none" stroke="#63b8ff" d="M722.25,-725.9C724.5,-712.91 730.24,-687.97 743,-671 752.18,-658.79 765.68,-648.63 777.84,-641.11"/>
<polygon fill="#63b8ff" stroke="#63b8ff" points="779.41,-644.24 786.3,-636.19 775.9,-638.19 779.41,-644.24"/>
</g>
<!-- Node2&#45;&gt;Node53 -->
<g id="edge67" class="edge">
<title>Node2&#45;&gt;Node53</title>
<path fill="none" stroke="#63b8ff" d="M735.42,-725.51C748.2,-717.54 767.1,-705.75 782.13,-696.38"/>
<polygon fill="#63b8ff" stroke="#63b8ff" points="783.88,-699.42 790.51,-691.16 780.17,-693.48 783.88,-699.42"/>
</g>
<!-- Node4 -->
<g id="node4" class="node">
<title>Node4</title>
<g id="a_node4"><a xlink:href="resourceblock_8h.html" target="_top" xlink:title=" ">
<polygon fill="white" stroke="#666666" points="435.5,-580 280.5,-580 280.5,-561 435.5,-561 435.5,-580"/>
<text text-anchor="middle" x="358" y="-568" font-family="Helvetica,sans-Serif" font-size="10.00">Madgine/render/resourceblock.h</text>
</a>
</g>
</g>
<!-- Node3&#45;&gt;Node4 -->
<g id="edge3" class="edge">
<title>Node3&#45;&gt;Node4</title>
<path fill="none" stroke="#63b8ff" d="M464.51,-674.67C433.92,-669.08 400.21,-657.72 377,-635 365.42,-623.66 360.83,-605.57 359.04,-591.59"/>
<polygon fill="#63b8ff" stroke="#63b8ff" points="362.54,-591.4 358.2,-581.74 355.57,-592 362.54,-591.4"/>
</g>
<!-- Node7 -->
<g id="node7" class="node">
<title>Node7</title>
<g id="a_node7"><a xlink:href="texturedescriptor_8h.html" target="_top" xlink:title=" ">
<polygon fill="white" stroke="#666666" points="620,-580 454,-580 454,-561 620,-561 620,-580"/>
<text text-anchor="middle" x="537" y="-568" font-family="Helvetica,sans-Serif" font-size="10.00">Madgine/render/texturedescriptor.h</text>
</a>
</g>
</g>
<!-- Node3&#45;&gt;Node7 -->
<g id="edge6" class="edge">
<title>Node3&#45;&gt;Node7</title>
<path fill="none" stroke="#63b8ff" d="M537.92,-670.66C537.76,-653.57 537.41,-615.61 537.19,-591.92"/>
<polygon fill="#63b8ff" stroke="#63b8ff" points="540.69,-591.94 537.1,-581.97 533.69,-592.01 540.69,-591.94"/>
</g>
<!-- Node8 -->
<g id="node8" class="node">
<title>Node8</title>
<g id="a_node8"><a xlink:href="src_2_madgine_2render_2vertex_8h.html" target="_top" xlink:title=" ">
<polygon fill="white" stroke="#666666" points="234,-635 114,-635 114,-616 234,-616 234,-635"/>
<text text-anchor="middle" x="174" y="-623" font-family="Helvetica,sans-Serif" font-size="10.00">Madgine/render/vertex.h</text>
</a>
</g>
</g>
<!-- Node3&#45;&gt;Node8 -->
<g id="edge9" class="edge">
<title>Node3&#45;&gt;Node8</title>
<path fill="none" stroke="#63b8ff" d="M476.25,-670.51C412.4,-661.21 312.81,-646.71 245.56,-636.92"/>
<polygon fill="#63b8ff" stroke="#63b8ff" points="246.13,-633.47 235.73,-635.49 245.12,-640.39 246.13,-633.47"/>
</g>
<!-- Node18 -->
<g id="node18" class="node">
<title>Node18</title>
<g id="a_node18"><a xlink:href="renderer_2api_2src_2_madgine_2render_2renderdata_8h.html" target="_top" xlink:title=" ">
<polygon fill="white" stroke="#666666" points="721,-635 651,-635 651,-616 721,-616 721,-635"/>
<text text-anchor="middle" x="686" y="-623" font-family="Helvetica,sans-Serif" font-size="10.00">renderdata.h</text>
</a>
</g>
</g>
<!-- Node3&#45;&gt;Node18 -->
<g id="edge22" class="edge">
<title>Node3&#45;&gt;Node18</title>
<path fill="none" stroke="#63b8ff" d="M563.11,-670.51C587.17,-661.89 623.72,-648.8 650.71,-639.14"/>
<polygon fill="#63b8ff" stroke="#63b8ff" points="651.61,-642.53 659.84,-635.87 649.25,-635.94 651.61,-642.53"/>
</g>
<!-- Node5 -->
<g id="node5" class="node">
<title>Node5</title>
<g id="a_node5"><a xlink:href="src_2_madgine_2render_2ptr_8h.html" target="_top" xlink:title=" ">
<polygon fill="white" stroke="#666666" points="509.5,-519.5 474.5,-519.5 474.5,-500.5 509.5,-500.5 509.5,-519.5"/>
<text text-anchor="middle" x="492" y="-507.5" font-family="Helvetica,sans-Serif" font-size="10.00">ptr.h</text>
</a>
</g>
</g>
<!-- Node4&#45;&gt;Node5 -->
<g id="edge4" class="edge">
<title>Node4&#45;&gt;Node5</title>
<path fill="none" stroke="#63b8ff" d="M378.35,-560.62C401.06,-550.7 437.95,-534.6 463.51,-523.44"/>
<polygon fill="#63b8ff" stroke="#63b8ff" points="464.89,-526.66 472.65,-519.45 462.08,-520.24 464.89,-526.66"/>
</g>
<!-- Node6 -->
<g id="node6" class="node">
<title>Node6</title>
<g id="a_node6"><a xlink:href="opaqueptr_8h.html" target="_top" xlink:title=" ">
<polygon fill="white" stroke="#666666" points="433,-519.5 329,-519.5 329,-500.5 433,-500.5 433,-519.5"/>
<text text-anchor="middle" x="381" y="-507.5" font-family="Helvetica,sans-Serif" font-size="10.00">Generic/opaqueptr.h</text>
</a>
</g>
</g>
<!-- Node4&#45;&gt;Node6 -->
<g id="edge5" class="edge">
<title>Node4&#45;&gt;Node6</title>
<path fill="none" stroke="#63b8ff" d="M361.39,-560.87C364.55,-552.83 369.37,-540.57 373.44,-530.22"/>
<polygon fill="#63b8ff" stroke="#63b8ff" points="376.64,-531.66 377.04,-521.08 370.12,-529.1 376.64,-531.66"/>
</g>
<!-- Node7&#45;&gt;Node5 -->
<g id="edge7" class="edge">
<title>Node7&#45;&gt;Node5</title>
<path fill="none" stroke="#63b8ff" d="M530.36,-560.87C523.85,-552.4 513.72,-539.24 505.51,-528.57"/>
<polygon fill="#63b8ff" stroke="#63b8ff" points="508.46,-526.66 499.59,-520.87 502.91,-530.93 508.46,-526.66"/>
</g>
<!-- Node7&#45;&gt;Node6 -->
<g id="edge8" class="edge">
<title>Node7&#45;&gt;Node6</title>
<path fill="none" stroke="#63b8ff" d="M513.31,-560.62C487.31,-550.87 445.33,-535.12 415.64,-523.99"/>
<polygon fill="#63b8ff" stroke="#63b8ff" points="416.93,-520.73 406.33,-520.5 414.47,-527.29 416.93,-520.73"/>
</g>
<!-- Node9 -->
<g id="node9" class="node">
<title>Node9</title>
<g id="a_node9"><a xlink:href="compound_8h.html" target="_top" xlink:title=" ">
<polygon fill="white" stroke="#666666" points="106,-580 0,-580 0,-561 106,-561 106,-580"/>
<text text-anchor="middle" x="53" y="-568" font-family="Helvetica,sans-Serif" font-size="10.00">Generic/compound.h</text>
</a>
</g>
</g>
<!-- Node8&#45;&gt;Node9 -->
<g id="edge10" class="edge">
<title>Node8&#45;&gt;Node9</title>
<path fill="none" stroke="#63b8ff" d="M153.47,-615.51C134.32,-607.12 105.5,-594.5 83.63,-584.92"/>
<polygon fill="#63b8ff" stroke="#63b8ff" points="85.17,-581.77 74.61,-580.97 82.36,-588.18 85.17,-581.77"/>
</g>
<!-- Node10 -->
<g id="node10" class="node">
<title>Node10</title>
<g id="a_node10"><a xlink:href="color4_8h.html" target="_top" xlink:title=" ">
<polygon fill="white" stroke="#666666" points="224,-580 124,-580 124,-561 224,-561 224,-580"/>
<text text-anchor="middle" x="174" y="-568" font-family="Helvetica,sans-Serif" font-size="10.00">Meta/math/color4.h</text>
</a>
</g>
</g>
<!-- Node8&#45;&gt;Node10 -->
<g id="edge11" class="edge">
<title>Node8&#45;&gt;Node10</title>
<path fill="none" stroke="#63b8ff" d="M174,-615.75C174,-609.27 174,-600.16 174,-591.9"/>
<polygon fill="#63b8ff" stroke="#63b8ff" points="177.5,-591.96 174,-581.96 170.5,-591.96 177.5,-591.96"/>
</g>
<!-- Node11 -->
<g id="node11" class="node">
<title>Node11</title>
<g id="a_node11"><a xlink:href="color3_8h.html" target="_top" xlink:title=" ">
<polygon fill="white" stroke="#666666" points="136,-519.5 86,-519.5 86,-500.5 136,-500.5 136,-519.5"/>
<text text-anchor="middle" x="111" y="-507.5" font-family="Helvetica,sans-Serif" font-size="10.00">color3.h</text>
</a>
</g>
</g>
<!-- Node10&#45;&gt;Node11 -->
<g id="edge12" class="edge">
<title>Node10&#45;&gt;Node11</title>
<path fill="none" stroke="#63b8ff" d="M164.43,-560.62C155,-551.85 140.35,-538.25 128.77,-527.5"/>
<polygon fill="#63b8ff" stroke="#63b8ff" points="131.48,-525.24 121.77,-521 126.71,-530.37 131.48,-525.24"/>
</g>
<!-- Node17 -->
<g id="node17" class="node">
<title>Node17</title>
<g id="a_node17"><a xlink:href="vector4_8h.html" target="_top" xlink:title=" ">
<polygon fill="white" stroke="#666666" points="210,-519.5 154,-519.5 154,-500.5 210,-500.5 210,-519.5"/>
<text text-anchor="middle" x="182" y="-507.5" font-family="Helvetica,sans-Serif" font-size="10.00">vector4.h</text>
</a>
</g>
</g>
<!-- Node10&#45;&gt;Node17 -->
<g id="edge20" class="edge">
<title>Node10&#45;&gt;Node17</title>
<path fill="none" stroke="#63b8ff" d="M175.18,-560.87C176.26,-553 177.88,-541.1 179.28,-530.89"/>
<polygon fill="#63b8ff" stroke="#63b8ff" points="182.72,-531.55 180.61,-521.17 175.79,-530.6 182.72,-531.55"/>
</g>
<!-- Node12 -->
<g id="node12" class="node">
<title>Node12</title>
<g id="a_node12"><a xlink:href="vector3_8h.html" target="_top" xlink:title=" ">
<polygon fill="white" stroke="#666666" points="146,-459 90,-459 90,-440 146,-440 146,-459"/>
<text text-anchor="middle" x="118" y="-447" font-family="Helvetica,sans-Serif" font-size="10.00">vector3.h</text>
</a>
</g>
</g>
<!-- Node11&#45;&gt;Node12 -->
<g id="edge13" class="edge">
<title>Node11&#45;&gt;Node12</title>
<path fill="none" stroke="#63b8ff" d="M112.03,-500.37C112.97,-492.5 114.4,-480.6 115.62,-470.39"/>
<polygon fill="#63b8ff" stroke="#63b8ff" points="119.07,-471.02 116.78,-460.67 112.12,-470.18 119.07,-471.02"/>
</g>
<!-- Node13 -->
<g id="node13" class="node">
<title>Node13</title>
<g id="a_node13"><a xlink:href="common_8h.html" target="_top" xlink:title=" ">
<polygon fill="white" stroke="#666666" points="134,-349 72,-349 72,-330 134,-330 134,-349"/>
<text text-anchor="middle" x="103" y="-337" font-family="Helvetica,sans-Serif" font-size="10.00">common.h</text>
</a>
</g>
</g>
<!-- Node12&#45;&gt;Node13 -->
<g id="edge14" class="edge">
<title>Node12&#45;&gt;Node13</title>
<path fill="none" stroke="#63b8ff" d="M107.21,-439.55C98.26,-431.36 86.19,-418.36 81,-404 75.49,-388.74 82.45,-371.32 89.97,-358.59"/>
<polygon fill="#63b8ff" stroke="#63b8ff" points="92.77,-360.7 95.32,-350.42 86.92,-356.87 92.77,-360.7"/>
</g>
<!-- Node14 -->
<g id="node14" class="node">
<title>Node14</title>
<g id="a_node14"><a xlink:href="vector2_8h.html" target="_top" xlink:title=" ">
<polygon fill="white" stroke="#666666" points="146,-404 90,-404 90,-385 146,-385 146,-404"/>
<text text-anchor="middle" x="118" y="-392" font-family="Helvetica,sans-Serif" font-size="10.00">vector2.h</text>
</a>
</g>
</g>
<!-- Node12&#45;&gt;Node14 -->
<g id="edge15" class="edge">
<title>Node12&#45;&gt;Node14</title>
<path fill="none" stroke="#63b8ff" d="M118,-439.75C118,-433.27 118,-424.16 118,-415.9"/>
<polygon fill="#63b8ff" stroke="#63b8ff" points="121.5,-415.96 118,-405.96 114.5,-415.96 121.5,-415.96"/>
</g>
<!-- Node16 -->
<g id="node16" class="node">
<title>Node16</title>
<g id="a_node16"><a xlink:href="vector3i_8h.html" target="_top" xlink:title=" ">
<polygon fill="white" stroke="#666666" points="223.5,-404 164.5,-404 164.5,-385 223.5,-385 223.5,-404"/>
<text text-anchor="middle" x="194" y="-392" font-family="Helvetica,sans-Serif" font-size="10.00">vector3i.h</text>
</a>
</g>
</g>
<!-- Node12&#45;&gt;Node16 -->
<g id="edge18" class="edge">
<title>Node12&#45;&gt;Node16</title>
<path fill="none" stroke="#63b8ff" d="M130.89,-439.51C142.1,-431.7 158.57,-420.21 171.88,-410.93"/>
<polygon fill="#63b8ff" stroke="#63b8ff" points="173.86,-413.81 180.06,-405.22 169.85,-408.07 173.86,-413.81"/>
</g>
<!-- Node14&#45;&gt;Node13 -->
<g id="edge17" class="edge">
<title>Node14&#45;&gt;Node13</title>
<path fill="none" stroke="#63b8ff" d="M115.52,-384.75C113.65,-378.11 110.99,-368.73 108.61,-360.31"/>
<polygon fill="#63b8ff" stroke="#63b8ff" points="112.03,-359.57 105.94,-350.9 105.3,-361.47 112.03,-359.57"/>
</g>
<!-- Node15 -->
<g id="node15" class="node">
<title>Node15</title>
<g id="a_node15"><a xlink:href="vector2i_8h.html" target="_top" xlink:title=" ">
<polygon fill="white" stroke="#666666" points="238.5,-349 179.5,-349 179.5,-330 238.5,-330 238.5,-349"/>
<text text-anchor="middle" x="209" y="-337" font-family="Helvetica,sans-Serif" font-size="10.00">vector2i.h</text>
</a>
</g>
</g>
<!-- Node14&#45;&gt;Node15 -->
<g id="edge16" class="edge">
<title>Node14&#45;&gt;Node15</title>
<path fill="none" stroke="#63b8ff" d="M133.44,-384.51C147.25,-376.47 167.75,-364.53 183.91,-355.11"/>
<polygon fill="#63b8ff" stroke="#63b8ff" points="185.6,-358.18 192.48,-350.12 182.08,-352.13 185.6,-358.18"/>
</g>
<!-- Node16&#45;&gt;Node15 -->
<g id="edge19" class="edge">
<title>Node16&#45;&gt;Node15</title>
<path fill="none" stroke="#63b8ff" d="M196.48,-384.75C198.35,-378.11 201.01,-368.73 203.39,-360.31"/>
<polygon fill="#63b8ff" stroke="#63b8ff" points="206.7,-361.47 206.06,-350.9 199.97,-359.57 206.7,-361.47"/>
</g>
<!-- Node17&#45;&gt;Node12 -->
<g id="edge21" class="edge">
<title>Node17&#45;&gt;Node12</title>
<path fill="none" stroke="#63b8ff" d="M172.28,-500.12C162.69,-491.35 147.81,-477.75 136.06,-467"/>
<polygon fill="#63b8ff" stroke="#63b8ff" points="138.67,-464.65 128.93,-460.49 133.95,-469.82 138.67,-464.65"/>
</g>
<!-- Node19 -->
<g id="node19" class="node">
<title>Node19</title>
<g id="a_node19"><a xlink:href="future_8h.html" target="_top" xlink:title=" ">
<polygon fill="white" stroke="#666666" points="900.5,-580 781.5,-580 781.5,-561 900.5,-561 900.5,-580"/>
<text text-anchor="middle" x="841" y="-568" font-family="Helvetica,sans-Serif" font-size="10.00">Madgine/render/future.h</text>
</a>
</g>
</g>
<!-- Node18&#45;&gt;Node19 -->
<g id="edge23" class="edge">
<title>Node18&#45;&gt;Node19</title>
<path fill="none" stroke="#63b8ff" d="M712.29,-615.51C737.53,-606.88 775.89,-593.76 804.16,-584.1"/>
<polygon fill="#63b8ff" stroke="#63b8ff" points="805.07,-587.48 813.4,-580.94 802.81,-580.86 805.07,-587.48"/>
</g>
<!-- Node20 -->
<g id="node20" class="node">
<title>Node20</title>
<g id="a_node20"><a xlink:href="task_8h.html" target="_top" xlink:title=" ">
<polygon fill="white" stroke="#666666" points="763.5,-580 638.5,-580 638.5,-561 763.5,-561 763.5,-580"/>
<text text-anchor="middle" x="701" y="-568" font-family="Helvetica,sans-Serif" font-size="10.00">Modules/threading/task.h</text>
</a>
</g>
</g>
<!-- Node18&#45;&gt;Node20 -->
<g id="edge24" class="edge">
<title>Node18&#45;&gt;Node20</title>
<path fill="none" stroke="#63b8ff" d="M688.48,-615.75C690.35,-609.11 693.01,-599.73 695.39,-591.31"/>
<polygon fill="#63b8ff" stroke="#63b8ff" points="698.7,-592.47 698.06,-581.9 691.97,-590.57 698.7,-592.47"/>
</g>
<!-- Node21 -->
<g id="node21" class="node">
<title>Node21</title>
<g id="a_node21"><a xlink:href="src_2_generic_2coroutines_2handle_8h.html" target="_top" xlink:title=" ">
<polygon fill="white" stroke="#666666" points="750,-525 652,-525 652,-495 750,-495 750,-525"/>
<text text-anchor="start" x="660" y="-513" font-family="Helvetica,sans-Serif" font-size="10.00">Generic/coroutines</text>
<text text-anchor="middle" x="701" y="-502" font-family="Helvetica,sans-Serif" font-size="10.00">/handle.h</text>
</a>
</g>
</g>
<!-- Node20&#45;&gt;Node21 -->
<g id="edge25" class="edge">
<title>Node20&#45;&gt;Node21</title>
<path fill="none" stroke="#63b8ff" d="M701,-560.87C701,-554.4 701,-545.2 701,-536.45"/>
<polygon fill="#63b8ff" stroke="#63b8ff" points="704.5,-536.63 701,-526.63 697.5,-536.63 704.5,-536.63"/>
</g>
<!-- Node22 -->
<g id="node22" class="node">
<title>Node22</title>
<g id="a_node22"><a xlink:href="taskpromise_8h.html" target="_top" xlink:title=" ">
<polygon fill="white" stroke="#666666" points="1145.5,-519.5 1068.5,-519.5 1068.5,-500.5 1145.5,-500.5 1145.5,-519.5"/>
<text text-anchor="middle" x="1107" y="-507.5" font-family="Helvetica,sans-Serif" font-size="10.00">taskpromise.h</text>
</a>
</g>
</g>
<!-- Node20&#45;&gt;Node22 -->
<g id="edge26" class="edge">
<title>Node20&#45;&gt;Node22</title>
<path fill="none" stroke="#63b8ff" d="M763.1,-560.55C843.65,-548.95 982.59,-528.93 1056.82,-518.23"/>
<polygon fill="#63b8ff" stroke="#63b8ff" points="1057.26,-521.7 1066.66,-516.81 1056.26,-514.77 1057.26,-521.7"/>
</g>
<!-- Node23 -->
<g id="node23" class="node">
<title>Node23</title>
<g id="a_node23"><a xlink:href="taskfuture_8h.html" target="_top" xlink:title=" ">
<polygon fill="white" stroke="#666666" points="1157,-459 1089,-459 1089,-440 1157,-440 1157,-459"/>
<text text-anchor="middle" x="1123" y="-447" font-family="Helvetica,sans-Serif" font-size="10.00">taskfuture.h</text>
</a>
</g>
</g>
<!-- Node22&#45;&gt;Node23 -->
<g id="edge27" class="edge">
<title>Node22&#45;&gt;Node23</title>
<path fill="none" stroke="#63b8ff" d="M1109.36,-500.37C1111.54,-492.42 1114.84,-480.33 1117.65,-470.05"/>
<polygon fill="#63b8ff" stroke="#63b8ff" points="1120.97,-471.2 1120.23,-460.63 1114.22,-469.35 1120.97,-471.2"/>
</g>
<!-- Node24 -->
<g id="node24" class="node">
<title>Node24</title>
<g id="a_node24"><a xlink:href="taskhandle_8h.html" target="_top" xlink:title=" ">
<polygon fill="white" stroke="#666666" points="1112.5,-349 1041.5,-349 1041.5,-330 1112.5,-330 1112.5,-349"/>
<text text-anchor="middle" x="1077" y="-337" font-family="Helvetica,sans-Serif" font-size="10.00">taskhandle.h</text>
</a>
</g>
</g>
<!-- Node22&#45;&gt;Node24 -->
<g id="edge61" class="edge">
<title>Node22&#45;&gt;Node24</title>
<path fill="none" stroke="#63b8ff" d="M1100.66,-500.33C1094.07,-490.76 1084.16,-474.63 1080,-459 1071.06,-425.44 1072.61,-384.63 1074.69,-360.72"/>
<polygon fill="#63b8ff" stroke="#63b8ff" points="1078.17,-361.13 1075.7,-350.83 1071.21,-360.42 1078.17,-361.13"/>
</g>
<!-- Node34 -->
<g id="node34" class="node">
<title>Node34</title>
<g id="a_node34"><a xlink:href="execution_2concepts_8h.html" target="_top" xlink:title=" ">
<polygon fill="white" stroke="#666666" points="1113,-74 1049,-74 1049,-55 1113,-55 1113,-74"/>
<text text-anchor="middle" x="1081" y="-62" font-family="Helvetica,sans-Serif" font-size="10.00">concepts.h</text>
</a>
</g>
</g>
<!-- Node22&#45;&gt;Node34 -->
<g id="edge62" class="edge">
<title>Node22&#45;&gt;Node34</title>
<path fill="none" stroke="#63b8ff" d="M1145.92,-503.59C1231.2,-490.65 1427,-454.52 1427,-395.5 1427,-395.5 1427,-395.5 1427,-173.5 1427,-110.81 1217.44,-80.29 1124.5,-69.83"/>
<polygon fill="#63b8ff" stroke="#63b8ff" points="1125.07,-66.37 1114.74,-68.76 1124.3,-73.33 1125.07,-66.37"/>
</g>
<!-- Node23&#45;&gt;Node24 -->
<g id="edge28" class="edge">
<title>Node23&#45;&gt;Node24</title>
<path fill="none" stroke="#63b8ff" d="M1119.24,-439.66C1111.86,-422.34 1095.34,-383.55 1085.28,-359.95"/>
<polygon fill="#63b8ff" stroke="#63b8ff" points="1088.55,-358.68 1081.41,-350.85 1082.11,-361.42 1088.55,-358.68"/>
</g>
<!-- Node25 -->
<g id="node25" class="node">
<title>Node25</title>
<g id="a_node25"><a xlink:href="taskpromisesharedstate_8h.html" target="_top" xlink:title=" ">
<polygon fill="white" stroke="#666666" points="1255,-404 1127,-404 1127,-385 1255,-385 1255,-404"/>
<text text-anchor="middle" x="1191" y="-392" font-family="Helvetica,sans-Serif" font-size="10.00">taskpromisesharedstate.h</text>
</a>
</g>
</g>
<!-- Node23&#45;&gt;Node25 -->
<g id="edge29" class="edge">
<title>Node23&#45;&gt;Node25</title>
<path fill="none" stroke="#63b8ff" d="M1134.54,-439.51C1144.46,-431.77 1159.01,-420.43 1170.86,-411.2"/>
<polygon fill="#63b8ff" stroke="#63b8ff" points="1172.71,-414.2 1178.44,-405.29 1168.4,-408.68 1172.71,-414.2"/>
</g>
<!-- Node25&#45;&gt;Node24 -->
<g id="edge60" class="edge">
<title>Node25&#45;&gt;Node24</title>
<path fill="none" stroke="#63b8ff" d="M1171.66,-384.51C1153.78,-376.2 1126.96,-363.73 1106.43,-354.18"/>
<polygon fill="#63b8ff" stroke="#63b8ff" points="1107.97,-351.04 1097.43,-350 1105.02,-357.39 1107.97,-351.04"/>
</g>
<!-- Node26 -->
<g id="node26" class="node">
<title>Node26</title>
<g id="a_node26"><a xlink:href="flag_8h.html" target="_top" xlink:title=" ">
<polygon fill="white" stroke="#666666" points="1251,-349 1131,-349 1131,-330 1251,-330 1251,-349"/>
<text text-anchor="middle" x="1191" y="-337" font-family="Helvetica,sans-Serif" font-size="10.00">Generic/execution/flag.h</text>
</a>
</g>
</g>
<!-- Node25&#45;&gt;Node26 -->
<g id="edge30" class="edge">
<title>Node25&#45;&gt;Node26</title>
<path fill="none" stroke="#63b8ff" d="M1191,-384.75C1191,-378.27 1191,-369.16 1191,-360.9"/>
<polygon fill="#63b8ff" stroke="#63b8ff" points="1194.5,-360.96 1191,-350.96 1187.5,-360.96 1194.5,-360.96"/>
</g>
<!-- Node27 -->
<g id="node27" class="node">
<title>Node27</title>
<g id="a_node27"><a xlink:href="flagstub_8h.html" target="_top" xlink:title=" ">
<polygon fill="white" stroke="#666666" points="1077,-294 1019,-294 1019,-275 1077,-275 1077,-294"/>
<text text-anchor="middle" x="1048" y="-282" font-family="Helvetica,sans-Serif" font-size="10.00">flagstub.h</text>
</a>
</g>
</g>
<!-- Node26&#45;&gt;Node27 -->
<g id="edge31" class="edge">
<title>Node26&#45;&gt;Node27</title>
<path fill="none" stroke="#63b8ff" d="M1166.74,-329.51C1143.59,-320.93 1108.49,-307.92 1082.44,-298.27"/>
<polygon fill="#63b8ff" stroke="#63b8ff" points="1083.91,-295.08 1073.32,-294.88 1081.48,-301.64 1083.91,-295.08"/>
</g>
<!-- Node28 -->
<g id="node28" class="node">
<title>Node28</title>
<g id="a_node28"><a xlink:href="algorithm_8h.html" target="_top" xlink:title=" ">
<polygon fill="white" stroke="#666666" points="1032,-239 968,-239 968,-220 1032,-220 1032,-239"/>
<text text-anchor="middle" x="1000" y="-227" font-family="Helvetica,sans-Serif" font-size="10.00">algorithm.h</text>
</a>
</g>
</g>
<!-- Node27&#45;&gt;Node28 -->
<g id="edge32" class="edge">
<title>Node27&#45;&gt;Node28</title>
<path fill="none" stroke="#63b8ff" d="M1040.07,-274.75C1033.44,-267.43 1023.78,-256.76 1015.61,-247.74"/>
<polygon fill="#63b8ff" stroke="#63b8ff" points="1018.42,-245.63 1009.11,-240.56 1013.23,-250.33 1018.42,-245.63"/>
</g>
<!-- Node36 -->
<g id="node36" class="node">
<title>Node36</title>
<g id="a_node36"><a xlink:href="connection_8h.html" target="_top" xlink:title=" ">
<polygon fill="white" stroke="#666666" points="696.5,-239 625.5,-239 625.5,-220 696.5,-220 696.5,-239"/>
<text text-anchor="middle" x="661" y="-227" font-family="Helvetica,sans-Serif" font-size="10.00">connection.h</text>
</a>
</g>
</g>
<!-- Node27&#45;&gt;Node36 -->
<g id="edge40" class="edge">
<title>Node27&#45;&gt;Node36</title>
<path fill="none" stroke="#63b8ff" d="M1018.59,-279.47C952.02,-270.36 789.27,-248.07 708.32,-236.98"/>
<polygon fill="#63b8ff" stroke="#63b8ff" points="708.87,-233.52 698.49,-235.63 707.92,-240.46 708.87,-233.52"/>
</g>
<!-- Node41 -->
<g id="node41" class="node">
<title>Node41</title>
<g id="a_node41"><a xlink:href="virtualsender_8h.html" target="_top" xlink:title=" ">
<polygon fill="white" stroke="#666666" points="735,-184 655,-184 655,-165 735,-165 735,-184"/>
<text text-anchor="middle" x="695" y="-172" font-family="Helvetica,sans-Serif" font-size="10.00">virtualsender.h</text>
</a>
</g>
</g>
<!-- Node27&#45;&gt;Node41 -->
<g id="edge58" class="edge">
<title>Node27&#45;&gt;Node41</title>
<path fill="none" stroke="#63b8ff" d="M1018.81,-274.57C955.78,-255.29 806.84,-209.72 735.06,-187.75"/>
<polygon fill="#63b8ff" stroke="#63b8ff" points="736.26,-184.46 725.67,-184.88 734.21,-191.16 736.26,-184.46"/>
</g>
<!-- Node46 -->
<g id="node46" class="node">
<title>Node46</title>
<g id="a_node46"><a xlink:href="execution_8h.html" target="_top" xlink:title=" ">
<polygon fill="white" stroke="#666666" points="1252.5,-239 1187.5,-239 1187.5,-220 1252.5,-220 1252.5,-239"/>
<text text-anchor="middle" x="1220" y="-227" font-family="Helvetica,sans-Serif" font-size="10.00">execution.h</text>
</a>
</g>
</g>
<!-- Node27&#45;&gt;Node46 -->
<g id="edge53" class="edge">
<title>Node27&#45;&gt;Node46</title>
<path fill="none" stroke="#63b8ff" d="M1077.18,-274.51C1105.56,-265.76 1148.88,-252.42 1180.37,-242.71"/>
<polygon fill="#63b8ff" stroke="#63b8ff" points="1180.99,-246.18 1189.52,-239.89 1178.93,-239.49 1180.99,-246.18"/>
</g>
<!-- Node49 -->
<g id="node49" class="node">
<title>Node49</title>
<g id="a_node49"><a xlink:href="stack_8h.html" target="_top" xlink:title=" ">
<polygon fill="white" stroke="#666666" points="1141.5,-239 1050.5,-239 1050.5,-220 1141.5,-220 1141.5,-239"/>
<text text-anchor="middle" x="1096" y="-227" font-family="Helvetica,sans-Serif" font-size="10.00">container/stack.h</text>
</a>
</g>
</g>
<!-- Node27&#45;&gt;Node49 -->
<g id="edge59" class="edge">
<title>Node27&#45;&gt;Node49</title>
<path fill="none" stroke="#63b8ff" d="M1055.93,-274.75C1062.56,-267.43 1072.22,-256.76 1080.39,-247.74"/>
<polygon fill="#63b8ff" stroke="#63b8ff" points="1082.77,-250.33 1086.89,-240.56 1077.58,-245.63 1082.77,-250.33"/>
</g>
<!-- Node29 -->
<g id="node29" class="node">
<title>Node29</title>
<g id="a_node29"><a xlink:href="delayedconstruct_8h.html" target="_top" xlink:title=" ">
<polygon fill="white" stroke="#666666" points="1052.5,-184 947.5,-184 947.5,-165 1052.5,-165 1052.5,-184"/>
<text text-anchor="middle" x="1000" y="-172" font-family="Helvetica,sans-Serif" font-size="10.00">../delayedconstruct.h</text>
</a>
</g>
</g>
<!-- Node28&#45;&gt;Node29 -->
<g id="edge33" class="edge">
<title>Node28&#45;&gt;Node29</title>
<path fill="none" stroke="#63b8ff" d="M1000,-219.75C1000,-213.27 1000,-204.16 1000,-195.9"/>
<polygon fill="#63b8ff" stroke="#63b8ff" points="1003.5,-195.96 1000,-185.96 996.5,-195.96 1003.5,-195.96"/>
</g>
<!-- Node31 -->
<g id="node31" class="node">
<title>Node31</title>
<g id="a_node31"><a xlink:href="manuallifetime_8h.html" target="_top" xlink:title=" ">
<polygon fill="white" stroke="#666666" points="848.5,-184 753.5,-184 753.5,-165 848.5,-165 848.5,-184"/>
<text text-anchor="middle" x="801" y="-172" font-family="Helvetica,sans-Serif" font-size="10.00">../manuallifetime.h</text>
</a>
</g>
</g>
<!-- Node28&#45;&gt;Node31 -->
<g id="edge35" class="edge">
<title>Node28&#45;&gt;Node31</title>
<path fill="none" stroke="#63b8ff" d="M967.58,-219.87C934.45,-211.04 882.73,-197.27 845.71,-187.41"/>
<polygon fill="#63b8ff" stroke="#63b8ff" points="846.76,-184.07 836.2,-184.87 844.96,-190.83 846.76,-184.07"/>
</g>
<!-- Node32 -->
<g id="node32" class="node">
<title>Node32</title>
<g id="a_node32"><a xlink:href="pipable_8h.html" target="_top" xlink:title=" ">
<polygon fill="white" stroke="#666666" points="929,-184 867,-184 867,-165 929,-165 929,-184"/>
<text text-anchor="middle" x="898" y="-172" font-family="Helvetica,sans-Serif" font-size="10.00">../pipable.h</text>
</a>
</g>
</g>
<!-- Node28&#45;&gt;Node32 -->
<g id="edge36" class="edge">
<title>Node28&#45;&gt;Node32</title>
<path fill="none" stroke="#63b8ff" d="M982.7,-219.51C966.92,-211.31 943.36,-199.07 925.09,-189.58"/>
<polygon fill="#63b8ff" stroke="#63b8ff" points="926.88,-186.56 916.39,-185.06 923.65,-192.77 926.88,-186.56"/>
</g>
<!-- Node28&#45;&gt;Node34 -->
<g id="edge38" class="edge">
<title>Node28&#45;&gt;Node34</title>
<path fill="none" stroke="#63b8ff" d="M1019.75,-219.56C1033.86,-212.11 1052.04,-200.12 1062,-184 1080.84,-153.51 1082.94,-110.49 1082.29,-85.55"/>
<polygon fill="#63b8ff" stroke="#63b8ff" points="1085.8,-85.66 1081.84,-75.83 1078.81,-85.98 1085.8,-85.66"/>
</g>
<!-- Node35 -->
<g id="node35" class="node">
<title>Node35</title>
<g id="a_node35"><a xlink:href="storage_8h.html" target="_top" xlink:title=" ">
<polygon fill="white" stroke="#666666" points="1165,-184 1109,-184 1109,-165 1165,-165 1165,-184"/>
<text text-anchor="middle" x="1137" y="-172" font-family="Helvetica,sans-Serif" font-size="10.00">storage.h</text>
</a>
</g>
</g>
<!-- Node28&#45;&gt;Node35 -->
<g id="edge39" class="edge">
<title>Node28&#45;&gt;Node35</title>
<path fill="none" stroke="#63b8ff" d="M1023.24,-219.51C1045.32,-210.97 1078.75,-198.03 1103.67,-188.4"/>
<polygon fill="#63b8ff" stroke="#63b8ff" points="1104.63,-191.78 1112.69,-184.9 1102.1,-185.25 1104.63,-191.78"/>
</g>
<!-- Node30 -->
<g id="node30" class="node">
<title>Node30</title>
<g id="a_node30"><a xlink:href="closure_8h.html" target="_top" xlink:title=" ">
<polygon fill="white" stroke="#666666" points="1028,-129 972,-129 972,-110 1028,-110 1028,-129"/>
<text text-anchor="middle" x="1000" y="-117" font-family="Helvetica,sans-Serif" font-size="10.00">closure.h</text>
</a>
</g>
</g>
<!-- Node29&#45;&gt;Node30 -->
<g id="edge34" class="edge">
<title>Node29&#45;&gt;Node30</title>
<path fill="none" stroke="#63b8ff" d="M1000,-164.75C1000,-158.27 1000,-149.16 1000,-140.9"/>
<polygon fill="#63b8ff" stroke="#63b8ff" points="1003.5,-140.96 1000,-130.96 996.5,-140.96 1003.5,-140.96"/>
</g>
<!-- Node33 -->
<g id="node33" class="node">
<title>Node33</title>
<g id="a_node33"><a xlink:href="lift_8h.html" target="_top" xlink:title=" ">
<polygon fill="white" stroke="#666666" points="915.5,-129 880.5,-129 880.5,-110 915.5,-110 915.5,-129"/>
<text text-anchor="middle" x="898" y="-117" font-family="Helvetica,sans-Serif" font-size="10.00">lift.h</text>
</a>
</g>
</g>
<!-- Node32&#45;&gt;Node33 -->
<g id="edge37" class="edge">
<title>Node32&#45;&gt;Node33</title>
<path fill="none" stroke="#63b8ff" d="M898,-164.75C898,-158.27 898,-149.16 898,-140.9"/>
<polygon fill="#63b8ff" stroke="#63b8ff" points="901.5,-140.96 898,-130.96 894.5,-140.96 901.5,-140.96"/>
</g>
<!-- Node37 -->
<g id="node37" class="node">
<title>Node37</title>
<g id="a_node37"><a xlink:href="genericresult_8h.html" target="_top" xlink:title=" ">
<polygon fill="white" stroke="#666666" points="598.5,-184 511.5,-184 511.5,-165 598.5,-165 598.5,-184"/>
<text text-anchor="middle" x="555" y="-172" font-family="Helvetica,sans-Serif" font-size="10.00">../genericresult.h</text>
</a>
</g>
</g>
<!-- Node36&#45;&gt;Node37 -->
<g id="edge41" class="edge">
<title>Node36&#45;&gt;Node37</title>
<path fill="none" stroke="#63b8ff" d="M643.02,-219.51C626.55,-211.27 601.91,-198.96 582.89,-189.45"/>
<polygon fill="#63b8ff" stroke="#63b8ff" points="584.58,-186.38 574.07,-185.03 581.45,-192.64 584.58,-186.38"/>
</g>
<!-- Node36&#45;&gt;Node41 -->
<g id="edge45" class="edge">
<title>Node36&#45;&gt;Node41</title>
<path fill="none" stroke="#63b8ff" d="M666.61,-219.75C671.12,-212.73 677.59,-202.64 683.21,-193.87"/>
<polygon fill="#63b8ff" stroke="#63b8ff" points="685.99,-196.02 688.45,-185.72 680.1,-192.24 685.99,-196.02"/>
</g>
<!-- Node43 -->
<g id="node43" class="node">
<title>Node43</title>
<g id="a_node43"><a xlink:href="virtualstate_8h.html" target="_top" xlink:title=" ">
<polygon fill="white" stroke="#666666" points="731,-129 659,-129 659,-110 731,-110 731,-129"/>
<text text-anchor="middle" x="695" y="-117" font-family="Helvetica,sans-Serif" font-size="10.00">virtualstate.h</text>
</a>
</g>
</g>
<!-- Node36&#45;&gt;Node43 -->
<g id="edge52" class="edge">
<title>Node36&#45;&gt;Node43</title>
<path fill="none" stroke="#63b8ff" d="M655.4,-219.54C648.28,-206.94 637.84,-183.44 646,-165 651.16,-153.34 661.06,-143.42 670.62,-135.93"/>
<polygon fill="#63b8ff" stroke="#63b8ff" points="672.57,-138.84 678.64,-130.16 668.48,-133.16 672.57,-138.84"/>
</g>
<!-- Node38 -->
<g id="node38" class="node">
<title>Node38</title>
<g id="a_node38"><a xlink:href="enum_8h.html" target="_top" xlink:title=" ">
<polygon fill="white" stroke="#666666" points="579,-129 531,-129 531,-110 579,-110 579,-129"/>
<text text-anchor="middle" x="555" y="-117" font-family="Helvetica,sans-Serif" font-size="10.00">enum.h</text>
</a>
</g>
</g>
<!-- Node37&#45;&gt;Node38 -->
<g id="edge42" class="edge">
<title>Node37&#45;&gt;Node38</title>
<path fill="none" stroke="#63b8ff" d="M555,-164.75C555,-158.27 555,-149.16 555,-140.9"/>
<polygon fill="#63b8ff" stroke="#63b8ff" points="558.5,-140.96 555,-130.96 551.5,-140.96 558.5,-140.96"/>
</g>
<!-- Node39 -->
<g id="node39" class="node">
<title>Node39</title>
<g id="a_node39"><a xlink:href="array_8h.html" target="_top" xlink:title=" ">
<polygon fill="white" stroke="#666666" points="587,-74 523,-74 523,-55 587,-55 587,-74"/>
<text text-anchor="middle" x="555" y="-62" font-family="Helvetica,sans-Serif" font-size="10.00">bits/array.h</text>
</a>
</g>
</g>
<!-- Node38&#45;&gt;Node39 -->
<g id="edge43" class="edge">
<title>Node38&#45;&gt;Node39</title>
<path fill="none" stroke="#63b8ff" d="M555,-109.75C555,-103.27 555,-94.16 555,-85.9"/>
<polygon fill="#63b8ff" stroke="#63b8ff" points="558.5,-85.96 555,-75.96 551.5,-85.96 558.5,-85.96"/>
</g>
<!-- Node40 -->
<g id="node40" class="node">
<title>Node40</title>
<g id="a_node40"><a xlink:href="types_8h.html" target="_top" xlink:title=" ">
<polygon fill="white" stroke="#666666" points="578.5,-19 531.5,-19 531.5,0 578.5,0 578.5,-19"/>
<text text-anchor="middle" x="555" y="-7" font-family="Helvetica,sans-Serif" font-size="10.00">types.h</text>
</a>
</g>
</g>
<!-- Node39&#45;&gt;Node40 -->
<g id="edge44" class="edge">
<title>Node39&#45;&gt;Node40</title>
<path fill="none" stroke="#63b8ff" d="M555,-54.75C555,-48.27 555,-39.16 555,-30.9"/>
<polygon fill="#63b8ff" stroke="#63b8ff" points="558.5,-30.96 555,-20.96 551.5,-30.96 558.5,-30.96"/>
</g>
<!-- Node42 -->
<g id="node42" class="node">
<title>Node42</title>
<g id="a_node42"><a xlink:href="src_2_generic_2execution_2sender_8h.html" target="_top" xlink:title=" ">
<polygon fill="white" stroke="#666666" points="832.5,-129 779.5,-129 779.5,-110 832.5,-110 832.5,-129"/>
<text text-anchor="middle" x="806" y="-117" font-family="Helvetica,sans-Serif" font-size="10.00">sender.h</text>
</a>
</g>
</g>
<!-- Node41&#45;&gt;Node42 -->
<g id="edge46" class="edge">
<title>Node41&#45;&gt;Node42</title>
<path fill="none" stroke="#63b8ff" d="M713.83,-164.51C731.16,-156.24 757.11,-143.84 777.07,-134.31"/>
<polygon fill="#63b8ff" stroke="#63b8ff" points="778.57,-137.48 786.08,-130.01 775.55,-131.16 778.57,-137.48"/>
</g>
<!-- Node41&#45;&gt;Node43 -->
<g id="edge48" class="edge">
<title>Node41&#45;&gt;Node43</title>
<path fill="none" stroke="#63b8ff" d="M695,-164.75C695,-158.27 695,-149.16 695,-140.9"/>
<polygon fill="#63b8ff" stroke="#63b8ff" points="698.5,-140.96 695,-130.96 691.5,-140.96 698.5,-140.96"/>
</g>
<!-- Node42&#45;&gt;Node34 -->
<g id="edge47" class="edge">
<title>Node42&#45;&gt;Node34</title>
<path fill="none" stroke="#63b8ff" d="M832.87,-113.32C880.41,-104.16 979.75,-85.01 1037.27,-73.93"/>
<polygon fill="#63b8ff" stroke="#63b8ff" points="1037.89,-77.37 1047.05,-72.04 1036.57,-70.5 1037.89,-77.37"/>
</g>
<!-- Node43&#45;&gt;Node34 -->
<g id="edge49" class="edge">
<title>Node43&#45;&gt;Node34</title>
<path fill="none" stroke="#63b8ff" d="M731.31,-113.51C802.63,-103.72 960.7,-82.02 1037.47,-71.48"/>
<polygon fill="#63b8ff" stroke="#63b8ff" points="1037.7,-74.98 1047.13,-70.15 1036.75,-68.04 1037.7,-74.98"/>
</g>
<!-- Node44 -->
<g id="node44" class="node">
<title>Node44</title>
<g id="a_node44"><a xlink:href="virtual__invoke_8h.html" target="_top" xlink:title=" ">
<polygon fill="white" stroke="#666666" points="755.5,-74 634.5,-74 634.5,-55 755.5,-55 755.5,-74"/>
<text text-anchor="middle" x="695" y="-62" font-family="Helvetica,sans-Serif" font-size="10.00">Generic/virtual_invoke.h</text>
</a>
</g>
</g>
<!-- Node43&#45;&gt;Node44 -->
<g id="edge50" class="edge">
<title>Node43&#45;&gt;Node44</title>
<path fill="none" stroke="#63b8ff" d="M695,-109.75C695,-103.27 695,-94.16 695,-85.9"/>
<polygon fill="#63b8ff" stroke="#63b8ff" points="698.5,-85.96 695,-75.96 691.5,-85.96 698.5,-85.96"/>
</g>
<!-- Node45 -->
<g id="node45" class="node">
<title>Node45</title>
<g id="a_node45"><a xlink:href="callable__traits_8h.html" target="_top" xlink:title=" ">
<polygon fill="white" stroke="#666666" points="737,-19 653,-19 653,0 737,0 737,-19"/>
<text text-anchor="middle" x="695" y="-7" font-family="Helvetica,sans-Serif" font-size="10.00">callable_traits.h</text>
</a>
</g>
</g>
<!-- Node44&#45;&gt;Node45 -->
<g id="edge51" class="edge">
<title>Node44&#45;&gt;Node45</title>
<path fill="none" stroke="#63b8ff" d="M695,-54.75C695,-48.27 695,-39.16 695,-30.9"/>
<polygon fill="#63b8ff" stroke="#63b8ff" points="698.5,-30.96 695,-20.96 691.5,-30.96 698.5,-30.96"/>
</g>
<!-- Node46&#45;&gt;Node34 -->
<g id="edge56" class="edge">
<title>Node46&#45;&gt;Node34</title>
<path fill="none" stroke="#63b8ff" d="M1234.57,-219.59C1252.24,-207.61 1278.22,-185.45 1266,-165 1235.45,-113.88 1168.61,-87.5 1124.2,-75.09"/>
<polygon fill="#63b8ff" stroke="#63b8ff" points="1125.18,-71.72 1114.61,-72.54 1123.38,-78.49 1125.18,-71.72"/>
</g>
<!-- Node46&#45;&gt;Node35 -->
<g id="edge57" class="edge">
<title>Node46&#45;&gt;Node35</title>
<path fill="none" stroke="#63b8ff" d="M1205.92,-219.51C1193.44,-211.54 1174.98,-199.75 1160.31,-190.38"/>
<polygon fill="#63b8ff" stroke="#63b8ff" points="1162.46,-187.6 1152.15,-185.17 1158.69,-193.5 1162.46,-187.6"/>
</g>
<!-- Node47 -->
<g id="node47" class="node">
<title>Node47</title>
<g id="a_node47"><a xlink:href="makeowning_8h.html" target="_top" xlink:title=" ">
<polygon fill="white" stroke="#666666" points="1399,-184 1313,-184 1313,-165 1399,-165 1399,-184"/>
<text text-anchor="middle" x="1356" y="-172" font-family="Helvetica,sans-Serif" font-size="10.00">../makeowning.h</text>
</a>
</g>
</g>
<!-- Node46&#45;&gt;Node47 -->
<g id="edge54" class="edge">
<title>Node46&#45;&gt;Node47</title>
<path fill="none" stroke="#63b8ff" d="M1243.07,-219.51C1264.89,-211.01 1297.88,-198.15 1322.58,-188.53"/>
<polygon fill="#63b8ff" stroke="#63b8ff" points="1323.81,-191.8 1331.86,-184.91 1321.27,-185.28 1323.81,-191.8"/>
</g>
<!-- Node48 -->
<g id="node48" class="node">
<title>Node48</title>
<g id="a_node48"><a xlink:href="withresult_8h.html" target="_top" xlink:title=" ">
<polygon fill="white" stroke="#666666" points="1257,-184 1183,-184 1183,-165 1257,-165 1257,-184"/>
<text text-anchor="middle" x="1220" y="-172" font-family="Helvetica,sans-Serif" font-size="10.00">../withresult.h</text>
</a>
</g>
</g>
<!-- Node46&#45;&gt;Node48 -->
<g id="edge55" class="edge">
<title>Node46&#45;&gt;Node48</title>
<path fill="none" stroke="#63b8ff" d="M1220,-219.75C1220,-213.27 1220,-204.16 1220,-195.9"/>
<polygon fill="#63b8ff" stroke="#63b8ff" points="1223.5,-195.96 1220,-185.96 1216.5,-195.96 1223.5,-195.96"/>
</g>
<!-- Node50&#45;&gt;Node19 -->
<g id="edge66" class="edge">
<title>Node50&#45;&gt;Node19</title>
<path fill="none" stroke="#63b8ff" d="M811.78,-615.75C816.41,-608.73 823.07,-598.64 828.87,-589.87"/>
<polygon fill="#63b8ff" stroke="#63b8ff" points="831.67,-591.98 834.26,-581.71 825.83,-588.12 831.67,-591.98"/>
</g>
<!-- Node51 -->
<g id="node51" class="node">
<title>Node51</title>
<g id="a_node51"><a xlink:href="any_8h.html" target="_top" xlink:title=" ">
<polygon fill="white" stroke="#666666" points="995,-580 919,-580 919,-561 995,-561 995,-580"/>
<text text-anchor="middle" x="957" y="-568" font-family="Helvetica,sans-Serif" font-size="10.00">Generic/any.h</text>
</a>
</g>
</g>
<!-- Node50&#45;&gt;Node51 -->
<g id="edge64" class="edge">
<title>Node50&#45;&gt;Node51</title>
<path fill="none" stroke="#63b8ff" d="M831.62,-615.51C856.09,-606.92 893.24,-593.88 920.75,-584.22"/>
<polygon fill="#63b8ff" stroke="#63b8ff" points="921.81,-587.56 930.08,-580.95 919.49,-580.96 921.81,-587.56"/>
</g>
<!-- Node52 -->
<g id="node52" class="node">
<title>Node52</title>
<g id="a_node52"><a xlink:href="inheritable_8h.html" target="_top" xlink:title=" ">
<polygon fill="white" stroke="#666666" points="991,-519.5 923,-519.5 923,-500.5 991,-500.5 991,-519.5"/>
<text text-anchor="middle" x="957" y="-507.5" font-family="Helvetica,sans-Serif" font-size="10.00">inheritable.h</text>
</a>
</g>
</g>
<!-- Node51&#45;&gt;Node52 -->
<g id="edge65" class="edge">
<title>Node51&#45;&gt;Node52</title>
<path fill="none" stroke="#63b8ff" d="M957,-560.87C957,-553 957,-541.1 957,-530.89"/>
<polygon fill="#63b8ff" stroke="#63b8ff" points="960.5,-531.18 957,-521.18 953.5,-531.18 960.5,-531.18"/>
</g>
<!-- Node53&#45;&gt;Node7 -->
<g id="edge75" class="edge">
<title>Node53&#45;&gt;Node7</title>
<path fill="none" stroke="#63b8ff" d="M759.6,-670.54C726.11,-663.21 680.24,-651.37 642,-635 611.34,-621.88 578.91,-601.06 558.34,-586.86"/>
<polygon fill="#63b8ff" stroke="#63b8ff" points="560.44,-584.05 550.24,-581.17 556.41,-589.78 560.44,-584.05"/>
</g>
<!-- Node53&#45;&gt;Node15 -->
<g id="edge68" class="edge">
<title>Node53&#45;&gt;Node15</title>
<path fill="none" stroke="#63b8ff" d="M860.43,-673.47C911.65,-666.72 983.45,-654.16 1004,-635 1025.54,-614.91 1023,-600.96 1023,-571.5 1023,-571.5 1023,-571.5 1023,-448.5 1023,-369.67 415.31,-346.44 250.06,-341.57"/>
<polygon fill="#63b8ff" stroke="#63b8ff" points="250.55,-338.09 240.45,-341.3 250.34,-345.08 250.55,-338.09"/>
</g>
<!-- Node54 -->
<g id="node54" class="node">
<title>Node54</title>
<g id="a_node54"><a xlink:href="texture_8h.html" target="_top" xlink:title=" ">
<polygon fill="white" stroke="#666666" points="509.5,-635 386.5,-635 386.5,-616 509.5,-616 509.5,-635"/>
<text text-anchor="middle" x="448" y="-623" font-family="Helvetica,sans-Serif" font-size="10.00">Madgine/render/texture.h</text>
</a>
</g>
</g>
<!-- Node53&#45;&gt;Node54 -->
<g id="edge69" class="edge">
<title>Node53&#45;&gt;Node54</title>
<path fill="none" stroke="#63b8ff" d="M751.63,-671.45C689.65,-662.27 588.09,-647.24 519.69,-637.11"/>
<polygon fill="#63b8ff" stroke="#63b8ff" points="520.48,-633.69 510.08,-635.69 519.46,-640.62 520.48,-633.69"/>
</g>
<!-- Node55 -->
<g id="node55" class="node">
<title>Node55</title>
<g id="a_node55"><a xlink:href="bytebuffer_8h.html" target="_top" xlink:title=" ">
<polygon fill="white" stroke="#666666" points="994.5,-635 891.5,-635 891.5,-616 994.5,-616 994.5,-635"/>
<text text-anchor="middle" x="943" y="-623" font-family="Helvetica,sans-Serif" font-size="10.00">Generic/bytebuffer.h</text>
</a>
</g>
</g>
<!-- Node53&#45;&gt;Node55 -->
<g id="edge73" class="edge">
<title>Node53&#45;&gt;Node55</title>
<path fill="none" stroke="#63b8ff" d="M829.24,-670.51C851.32,-661.97 884.75,-649.03 909.67,-639.4"/>
<polygon fill="#63b8ff" stroke="#63b8ff" points="910.63,-642.78 918.69,-635.9 908.1,-636.25 910.63,-642.78"/>
</g>
<!-- Node54&#45;&gt;Node4 -->
<g id="edge71" class="edge">
<title>Node54&#45;&gt;Node4</title>
<path fill="none" stroke="#63b8ff" d="M432.73,-615.51C419.07,-607.47 398.8,-595.53 382.82,-586.11"/>
<polygon fill="#63b8ff" stroke="#63b8ff" points="384.74,-583.18 374.35,-581.13 381.19,-589.22 384.74,-583.18"/>
</g>
<!-- Node54&#45;&gt;Node7 -->
<g id="edge70" class="edge">
<title>Node54&#45;&gt;Node7</title>
<path fill="none" stroke="#63b8ff" d="M463.1,-615.51C476.6,-607.47 496.65,-595.53 512.46,-586.11"/>
<polygon fill="#63b8ff" stroke="#63b8ff" points="514.02,-589.26 520.82,-581.13 510.44,-583.24 514.02,-589.26"/>
</g>
<!-- Node54&#45;&gt;Node15 -->
<g id="edge72" class="edge">
<title>Node54&#45;&gt;Node15</title>
<path fill="none" stroke="#63b8ff" d="M386.29,-615.71C342.03,-608.2 287.42,-596.06 271,-580 248.26,-557.76 252,-542.81 252,-511 252,-511 252,-511 252,-448.5 252,-414.99 233.91,-379.51 221.19,-358.72"/>
<polygon fill="#63b8ff" stroke="#63b8ff" points="224.31,-357.09 215.98,-350.55 218.41,-360.86 224.31,-357.09"/>
</g>
<!-- Node55&#45;&gt;Node51 -->
<g id="edge74" class="edge">
<title>Node55&#45;&gt;Node51</title>
<path fill="none" stroke="#63b8ff" d="M945.31,-615.75C947.06,-609.11 949.54,-599.73 951.77,-591.31"/>
<polygon fill="#63b8ff" stroke="#63b8ff" points="955.08,-592.47 954.25,-581.91 948.31,-590.68 955.08,-592.47"/>
</g>
</g>
</svg>
