<?xml version="1.0" encoding="UTF-8" standalone="no"?>
<!DOCTYPE svg PUBLIC "-//W3C//DTD SVG 1.1//EN"
 "http://www.w3.org/Graphics/SVG/1.1/DTD/svg11.dtd">
<!-- Generated by graphviz version 7.0.5 (20221223.1930)
 -->
<!-- Title: src/Interfaces/dl/dlapi_win.cpp Pages: 1 -->
<svg width="366pt" height="313pt"
 viewBox="0.00 0.00 365.50 313.00" xmlns="http://www.w3.org/2000/svg" xmlns:xlink="http://www.w3.org/1999/xlink">
<g id="graph0" class="graph" transform="scale(1 1) rotate(0) translate(4 309)">
<title>src/Interfaces/dl/dlapi_win.cpp</title>
<!-- Node1 -->
<g id="node1" class="node">
<title>Node1</title>
<g id="a_node1"><a xlink:title=" ">
<polygon fill="#999999" stroke="#666666" points="264.5,-305 154.5,-305 154.5,-275 264.5,-275 264.5,-305"/>
<text text-anchor="start" x="162.5" y="-293" font-family="Helvetica,sans-Serif" font-size="10.00">src/Interfaces/dl/dlapi</text>
<text text-anchor="middle" x="209.5" y="-282" font-family="Helvetica,sans-Serif" font-size="10.00">_win.cpp</text>
</a>
</g>
</g>
<!-- Node2 -->
<g id="node2" class="node">
<title>Node2</title>
<g id="a_node2"><a xlink:href="interfaceslib_8h.html" target="_top" xlink:title=" ">
<polygon fill="white" stroke="#666666" points="133.5,-239 49.5,-239 49.5,-220 133.5,-220 133.5,-239"/>
<text text-anchor="middle" x="91.5" y="-227" font-family="Helvetica,sans-Serif" font-size="10.00">../interfaceslib.h</text>
</a>
</g>
</g>
<!-- Node1&#45;&gt;Node2 -->
<g id="edge1" class="edge">
<title>Node1&#45;&gt;Node2</title>
<path fill="none" stroke="#63b8ff" d="M180.33,-274.54C161.73,-265.32 137.77,-253.44 119.42,-244.34"/>
<polygon fill="#63b8ff" stroke="#63b8ff" points="121.21,-241.32 110.7,-240.02 118.1,-247.6 121.21,-241.32"/>
</g>
<!-- Node3 -->
<g id="node3" class="node">
<title>Node3</title>
<g id="a_node3"><a xlink:href="dlapi_8h.html" target="_top" xlink:title=" ">
<polygon fill="white" stroke="#666666" points="195.5,-239 151.5,-239 151.5,-220 195.5,-220 195.5,-239"/>
<text text-anchor="middle" x="173.5" y="-227" font-family="Helvetica,sans-Serif" font-size="10.00">dlapi.h</text>
</a>
</g>
</g>
<!-- Node1&#45;&gt;Node3 -->
<g id="edge2" class="edge">
<title>Node1&#45;&gt;Node3</title>
<path fill="none" stroke="#63b8ff" d="M200.6,-274.54C195.8,-266.74 189.82,-257.03 184.71,-248.71"/>
<polygon fill="#63b8ff" stroke="#63b8ff" points="187.85,-247.15 179.63,-240.46 181.89,-250.82 187.85,-247.15"/>
</g>
<!-- Node10 -->
<g id="node10" class="node">
<title>Node10</title>
<g id="a_node10"><a xlink:title=" ">
<polygon fill="#e0e0e0" stroke="#999999" points="277.5,-239 213.5,-239 213.5,-220 277.5,-220 277.5,-239"/>
<text text-anchor="middle" x="245.5" y="-227" font-family="Helvetica,sans-Serif" font-size="10.00">Windows.h</text>
</a>
</g>
</g>
<!-- Node1&#45;&gt;Node10 -->
<g id="edge9" class="edge">
<title>Node1&#45;&gt;Node10</title>
<path fill="none" stroke="#63b8ff" d="M218.4,-274.54C223.2,-266.74 229.18,-257.03 234.29,-248.71"/>
<polygon fill="#63b8ff" stroke="#63b8ff" points="237.11,-250.82 239.37,-240.46 231.15,-247.15 237.11,-250.82"/>
</g>
<!-- Node11 -->
<g id="node11" class="node">
<title>Node11</title>
<g id="a_node11"><a xlink:title=" ">
<polygon fill="#e0e0e0" stroke="#999999" points="357.5,-239 295.5,-239 295.5,-220 357.5,-220 357.5,-239"/>
<text text-anchor="middle" x="326.5" y="-227" font-family="Helvetica,sans-Serif" font-size="10.00">DbgHelp.h</text>
</a>
</g>
</g>
<!-- Node1&#45;&gt;Node11 -->
<g id="edge10" class="edge">
<title>Node1&#45;&gt;Node11</title>
<path fill="none" stroke="#63b8ff" d="M238.42,-274.54C256.78,-265.36 280.4,-253.55 298.56,-244.47"/>
<polygon fill="#63b8ff" stroke="#63b8ff" points="300.07,-247.63 307.45,-240.02 296.94,-241.36 300.07,-247.63"/>
</g>
<!-- Node4 -->
<g id="node4" class="node">
<title>Node4</title>
<g id="a_node4"><a xlink:href="path_8h.html" target="_top" xlink:title=" ">
<polygon fill="white" stroke="#666666" points="97,-184 0,-184 0,-165 97,-165 97,-184"/>
<text text-anchor="middle" x="48.5" y="-172" font-family="Helvetica,sans-Serif" font-size="10.00">../filesystem/path.h</text>
</a>
</g>
</g>
<!-- Node3&#45;&gt;Node4 -->
<g id="edge3" class="edge">
<title>Node3&#45;&gt;Node4</title>
<path fill="none" stroke="#63b8ff" d="M152.3,-219.51C132.42,-211.08 102.47,-198.38 79.84,-188.79"/>
<polygon fill="#63b8ff" stroke="#63b8ff" points="81.36,-185.63 70.78,-184.95 78.63,-192.07 81.36,-185.63"/>
</g>
<!-- Node5 -->
<g id="node5" class="node">
<title>Node5</title>
<g id="a_node5"><a xlink:href="genericresult_8h.html" target="_top" xlink:title=" ">
<polygon fill="white" stroke="#666666" points="231.5,-184 115.5,-184 115.5,-165 231.5,-165 231.5,-184"/>
<text text-anchor="middle" x="173.5" y="-172" font-family="Helvetica,sans-Serif" font-size="10.00">Generic/genericresult.h</text>
</a>
</g>
</g>
<!-- Node3&#45;&gt;Node5 -->
<g id="edge4" class="edge">
<title>Node3&#45;&gt;Node5</title>
<path fill="none" stroke="#63b8ff" d="M173.5,-219.75C173.5,-213.27 173.5,-204.16 173.5,-195.9"/>
<polygon fill="#63b8ff" stroke="#63b8ff" points="177,-195.96 173.5,-185.96 170,-195.96 177,-195.96"/>
</g>
<!-- Node9 -->
<g id="node9" class="node">
<title>Node9</title>
<g id="a_node9"><a xlink:href="functor_8h.html" target="_top" xlink:title=" ">
<polygon fill="white" stroke="#666666" points="341,-184 250,-184 250,-165 341,-165 341,-184"/>
<text text-anchor="middle" x="295.5" y="-172" font-family="Helvetica,sans-Serif" font-size="10.00">Generic/functor.h</text>
</a>
</g>
</g>
<!-- Node3&#45;&gt;Node9 -->
<g id="edge8" class="edge">
<title>Node3&#45;&gt;Node9</title>
<path fill="none" stroke="#63b8ff" d="M194.2,-219.51C213.5,-211.12 242.56,-198.5 264.61,-188.92"/>
<polygon fill="#63b8ff" stroke="#63b8ff" points="265.94,-192.16 273.72,-184.96 263.16,-185.74 265.94,-192.16"/>
</g>
<!-- Node6 -->
<g id="node6" class="node">
<title>Node6</title>
<g id="a_node6"><a xlink:href="enum_8h.html" target="_top" xlink:title=" ">
<polygon fill="white" stroke="#666666" points="197.5,-129 149.5,-129 149.5,-110 197.5,-110 197.5,-129"/>
<text text-anchor="middle" x="173.5" y="-117" font-family="Helvetica,sans-Serif" font-size="10.00">enum.h</text>
</a>
</g>
</g>
<!-- Node5&#45;&gt;Node6 -->
<g id="edge5" class="edge">
<title>Node5&#45;&gt;Node6</title>
<path fill="none" stroke="#63b8ff" d="M173.5,-164.75C173.5,-158.27 173.5,-149.16 173.5,-140.9"/>
<polygon fill="#63b8ff" stroke="#63b8ff" points="177,-140.96 173.5,-130.96 170,-140.96 177,-140.96"/>
</g>
<!-- Node7 -->
<g id="node7" class="node">
<title>Node7</title>
<g id="a_node7"><a xlink:href="array_8h.html" target="_top" xlink:title=" ">
<polygon fill="white" stroke="#666666" points="205.5,-74 141.5,-74 141.5,-55 205.5,-55 205.5,-74"/>
<text text-anchor="middle" x="173.5" y="-62" font-family="Helvetica,sans-Serif" font-size="10.00">bits/array.h</text>
</a>
</g>
</g>
<!-- Node6&#45;&gt;Node7 -->
<g id="edge6" class="edge">
<title>Node6&#45;&gt;Node7</title>
<path fill="none" stroke="#63b8ff" d="M173.5,-109.75C173.5,-103.27 173.5,-94.16 173.5,-85.9"/>
<polygon fill="#63b8ff" stroke="#63b8ff" points="177,-85.96 173.5,-75.96 170,-85.96 177,-85.96"/>
</g>
<!-- Node8 -->
<g id="node8" class="node">
<title>Node8</title>
<g id="a_node8"><a xlink:href="types_8h.html" target="_top" xlink:title=" ">
<polygon fill="white" stroke="#666666" points="197,-19 150,-19 150,0 197,0 197,-19"/>
<text text-anchor="middle" x="173.5" y="-7" font-family="Helvetica,sans-Serif" font-size="10.00">types.h</text>
</a>
</g>
</g>
<!-- Node7&#45;&gt;Node8 -->
<g id="edge7" class="edge">
<title>Node7&#45;&gt;Node8</title>
<path fill="none" stroke="#63b8ff" d="M173.5,-54.75C173.5,-48.27 173.5,-39.16 173.5,-30.9"/>
<polygon fill="#63b8ff" stroke="#63b8ff" points="177,-30.96 173.5,-20.96 170,-30.96 177,-30.96"/>
</g>
</g>
</svg>
