<?xml version="1.0" encoding="UTF-8" standalone="no"?>
<!DOCTYPE svg PUBLIC "-//W3C//DTD SVG 1.1//EN"
 "http://www.w3.org/Graphics/SVG/1.1/DTD/svg11.dtd">
<!-- Generated by graphviz version 7.0.5 (20221223.1930)
 -->
<!-- Title: plugins/misc/scene/src/Madgine/scene/entity/components/transform.h Pages: 1 -->
<!--zoomable 280 -->
<svg id="main" version="1.1" xmlns="http://www.w3.org/2000/svg" xmlns:xlink="http://www.w3.org/1999/xlink" xml:space="preserve" onload="init(evt)">
<style type="text/css"><![CDATA[
.edge:hover path { stroke: red; }
.edge:hover polygon { stroke: red; fill: red; }
]]></style>
<script type="text/javascript"><![CDATA[
var edges = document.getElementsByTagName('g');
if (edges && edges.length) {
  for (var i=0;i<edges.length;i++) {
    if (edges[i].id.substr(0,4)=='edge') {
      edges[i].setAttribute('class','edge');
    }
  }
}
]]></script>
        <defs>
                <circle id="rim" cx="0" cy="0" r="7"/>
                <circle id="rim2" cx="0" cy="0" r="3.5"/>
                <g id="zoomPlus">
                        <use xlink:href="#rim" fill="#404040">
                                <set attributeName="fill" to="#808080" begin="zoomplus.mouseover" end="zoomplus.mouseout"/>
                        </use>
                        <path d="M-4,0h8M0,-4v8" fill="none" stroke="white" stroke-width="1.5" pointer-events="none"/>
                </g>
                <g id="zoomMin">
                        <use xlink:href="#rim" fill="#404040">
                                <set attributeName="fill" to="#808080" begin="zoomminus.mouseover" end="zoomminus.mouseout"/>
                        </use>
                        <path d="M-4,0h8" fill="none" stroke="white" stroke-width="1.5" pointer-events="none"/>
                </g>
                <g id="dirArrow">
                        <path fill="none" stroke="white" stroke-width="1.5" d="M0,-3.0v7 M-2.5,-0.5L0,-3.0L2.5,-0.5"/>
                </g>
               <g id="resetDef">
                       <use xlink:href="#rim2" fill="#404040">
                               <set attributeName="fill" to="#808080" begin="reset.mouseover" end="reset.mouseout"/>
                       </use>
               </g>
        </defs>

<script type="text/javascript">
var viewWidth = 1608;
var viewHeight = 280;
var sectionId = 'dynsection-1';
</script>
<script xlink:href="svgpan.js"/>
<svg id="graph" class="graph">
<g id="viewport">
<title>plugins/misc/scene/src/Madgine/scene/entity/components/transform.h</title>
<!-- Node1 -->
<g id="node1" class="node">
<title>Node1</title>
<g id="a_node1"><a xlink:title=" ">
<polygon fill="#999999" stroke="#666666" points="866.5,-272 738.5,-272 738.5,-231 866.5,-231 866.5,-272"/>
<text text-anchor="start" x="746.5" y="-260" font-family="Helvetica,sans-Serif" font-size="10.00">plugins/misc/scene</text>
<text text-anchor="start" x="746.5" y="-249" font-family="Helvetica,sans-Serif" font-size="10.00">/src/Madgine/scene/entity</text>
<text text-anchor="middle" x="802.5" y="-238" font-family="Helvetica,sans-Serif" font-size="10.00">/components/transform.h</text>
</a>
</g>
</g>
<!-- Node2 -->
<g id="node2" class="node">
<title>Node2</title>
<g id="a_node2"><a xlink:href="litscenerenderdata_8cpp.html" target="_top" xlink:title=" ">
<polygon fill="white" stroke="#666666" points="125,-195 0,-195 0,-154 125,-154 125,-195"/>
<text text-anchor="start" x="8" y="-183" font-family="Helvetica,sans-Serif" font-size="10.00">plugins/misc/scene</text>
<text text-anchor="start" x="8" y="-172" font-family="Helvetica,sans-Serif" font-size="10.00">/renderer/Madgine/render</text>
<text text-anchor="middle" x="62.5" y="-161" font-family="Helvetica,sans-Serif" font-size="10.00">/litscenerenderdata.cpp</text>
</a>
</g>
</g>
<!-- Node1&#45;&gt;Node2 -->
<g id="edge1" class="edge">
<title>Node1&#45;&gt;Node2</title>
<path fill="none" stroke="#63b8ff" d="M727.2,-248.69C602.9,-244.72 347.35,-232.35 134.5,-195 131.44,-194.46 128.32,-193.86 125.18,-193.19"/>
<polygon fill="#63b8ff" stroke="#63b8ff" points="726.84,-252.18 736.94,-248.99 727.06,-245.19 726.84,-252.18"/>
</g>
<!-- Node3 -->
<g id="node3" class="node">
<title>Node3</title>
<g id="a_node3"><a xlink:href="pointshadowrenderpass_8cpp.html" target="_top" xlink:title=" ">
<polygon fill="white" stroke="#666666" points="283.5,-195 143.5,-195 143.5,-154 283.5,-154 283.5,-195"/>
<text text-anchor="start" x="151.5" y="-183" font-family="Helvetica,sans-Serif" font-size="10.00">plugins/misc/scene</text>
<text text-anchor="start" x="151.5" y="-172" font-family="Helvetica,sans-Serif" font-size="10.00">/renderer/Madgine/render</text>
<text text-anchor="middle" x="213.5" y="-161" font-family="Helvetica,sans-Serif" font-size="10.00">/pointshadowrenderpass.cpp</text>
</a>
</g>
</g>
<!-- Node1&#45;&gt;Node3 -->
<g id="edge2" class="edge">
<title>Node1&#45;&gt;Node3</title>
<path fill="none" stroke="#63b8ff" d="M726.92,-245.45C626.96,-238.04 445.56,-222.09 292.5,-195 289.58,-194.48 286.61,-193.92 283.61,-193.32"/>
<polygon fill="#63b8ff" stroke="#63b8ff" points="726.37,-248.92 736.59,-246.15 726.88,-241.93 726.37,-248.92"/>
</g>
<!-- Node4 -->
<g id="node4" class="node">
<title>Node4</title>
<g id="a_node4"><a xlink:href="scenerenderdata_8cpp.html" target="_top" xlink:title=" ">
<polygon fill="white" stroke="#666666" points="427,-195 302,-195 302,-154 427,-154 427,-195"/>
<text text-anchor="start" x="310" y="-183" font-family="Helvetica,sans-Serif" font-size="10.00">plugins/misc/scene</text>
<text text-anchor="start" x="310" y="-172" font-family="Helvetica,sans-Serif" font-size="10.00">/renderer/Madgine/render</text>
<text text-anchor="middle" x="364.5" y="-161" font-family="Helvetica,sans-Serif" font-size="10.00">/scenerenderdata.cpp</text>
</a>
</g>
</g>
<!-- Node1&#45;&gt;Node4 -->
<g id="edge3" class="edge">
<title>Node1&#45;&gt;Node4</title>
<path fill="none" stroke="#63b8ff" d="M726.98,-241.72C652.45,-232.44 535.48,-216.21 435.5,-195 432.75,-194.42 429.95,-193.79 427.12,-193.13"/>
<polygon fill="#63b8ff" stroke="#63b8ff" points="726.25,-245.16 736.61,-242.91 727.11,-238.21 726.25,-245.16"/>
</g>
<!-- Node5 -->
<g id="node5" class="node">
<title>Node5</title>
<g id="a_node5"><a xlink:href="scenerenderpass_8cpp.html" target="_top" xlink:title=" ">
<polygon fill="white" stroke="#666666" points="570,-195 445,-195 445,-154 570,-154 570,-195"/>
<text text-anchor="start" x="453" y="-183" font-family="Helvetica,sans-Serif" font-size="10.00">plugins/misc/scene</text>
<text text-anchor="start" x="453" y="-172" font-family="Helvetica,sans-Serif" font-size="10.00">/renderer/Madgine/render</text>
<text text-anchor="middle" x="507.5" y="-161" font-family="Helvetica,sans-Serif" font-size="10.00">/scenerenderpass.cpp</text>
</a>
</g>
</g>
<!-- Node1&#45;&gt;Node5 -->
<g id="edge4" class="edge">
<title>Node1&#45;&gt;Node5</title>
<path fill="none" stroke="#63b8ff" d="M727.11,-232.32C683.6,-221.71 627.89,-207.9 578.5,-195 575.78,-194.29 573,-193.56 570.2,-192.81"/>
<polygon fill="#63b8ff" stroke="#63b8ff" points="726.17,-235.69 736.71,-234.66 727.82,-228.89 726.17,-235.69"/>
</g>
<!-- Node6 -->
<g id="node6" class="node">
<title>Node6</title>
<g id="a_node6"><a xlink:href="shadowrenderpass_8cpp.html" target="_top" xlink:title=" ">
<polygon fill="white" stroke="#666666" points="713,-195 588,-195 588,-154 713,-154 713,-195"/>
<text text-anchor="start" x="596" y="-183" font-family="Helvetica,sans-Serif" font-size="10.00">plugins/misc/scene</text>
<text text-anchor="start" x="596" y="-172" font-family="Helvetica,sans-Serif" font-size="10.00">/renderer/Madgine/render</text>
<text text-anchor="middle" x="650.5" y="-161" font-family="Helvetica,sans-Serif" font-size="10.00">/shadowrenderpass.cpp</text>
</a>
</g>
</g>
<!-- Node1&#45;&gt;Node6 -->
<g id="edge5" class="edge">
<title>Node1&#45;&gt;Node6</title>
<path fill="none" stroke="#63b8ff" d="M752.07,-225.62C732.23,-215.83 709.77,-204.75 691.02,-195.49"/>
<polygon fill="#63b8ff" stroke="#63b8ff" points="750.29,-228.64 760.81,-229.93 753.39,-222.36 750.29,-228.64"/>
</g>
<!-- Node7 -->
<g id="node7" class="node">
<title>Node7</title>
<g id="a_node7"><a xlink:href="shadowscenerenderdata_8cpp.html" target="_top" xlink:title=" ">
<polygon fill="white" stroke="#666666" points="874,-195 731,-195 731,-154 874,-154 874,-195"/>
<text text-anchor="start" x="739" y="-183" font-family="Helvetica,sans-Serif" font-size="10.00">plugins/misc/scene</text>
<text text-anchor="start" x="739" y="-172" font-family="Helvetica,sans-Serif" font-size="10.00">/renderer/Madgine/render</text>
<text text-anchor="middle" x="802.5" y="-161" font-family="Helvetica,sans-Serif" font-size="10.00">/shadowscenerenderdata.cpp</text>
</a>
</g>
</g>
<!-- Node1&#45;&gt;Node7 -->
<g id="edge6" class="edge">
<title>Node1&#45;&gt;Node7</title>
<path fill="none" stroke="#63b8ff" d="M802.5,-219.36C802.5,-211.24 802.5,-202.7 802.5,-195.33"/>
<polygon fill="#63b8ff" stroke="#63b8ff" points="799,-219.28 802.5,-229.28 806,-219.28 799,-219.28"/>
</g>
<!-- Node8 -->
<g id="node8" class="node">
<title>Node8</title>
<g id="a_node8"><a xlink:href="sceneeditor_8cpp.html" target="_top" xlink:title=" ">
<polygon fill="white" stroke="#666666" points="1062.5,-195 892.5,-195 892.5,-154 1062.5,-154 1062.5,-195"/>
<text text-anchor="start" x="900.5" y="-183" font-family="Helvetica,sans-Serif" font-size="10.00">plugins/misc/scene</text>
<text text-anchor="start" x="900.5" y="-172" font-family="Helvetica,sans-Serif" font-size="10.00">/renderer_tools/Madgine</text>
<text text-anchor="middle" x="977.5" y="-161" font-family="Helvetica,sans-Serif" font-size="10.00">_Tools/sceneeditor/sceneeditor.cpp</text>
</a>
</g>
</g>
<!-- Node1&#45;&gt;Node8 -->
<g id="edge7" class="edge">
<title>Node1&#45;&gt;Node8</title>
<path fill="none" stroke="#63b8ff" d="M859.31,-226.15C882.45,-216.24 908.86,-204.92 930.85,-195.49"/>
<polygon fill="#63b8ff" stroke="#63b8ff" points="858.14,-222.85 850.33,-230 860.9,-229.28 858.14,-222.85"/>
</g>
<!-- Node9 -->
<g id="node9" class="node">
<title>Node9</title>
<g id="a_node9"><a xlink:href="sceneview_8cpp.html" target="_top" xlink:title=" ">
<polygon fill="white" stroke="#666666" points="1248,-195 1081,-195 1081,-154 1248,-154 1248,-195"/>
<text text-anchor="start" x="1089" y="-183" font-family="Helvetica,sans-Serif" font-size="10.00">plugins/misc/scene</text>
<text text-anchor="start" x="1089" y="-172" font-family="Helvetica,sans-Serif" font-size="10.00">/renderer_tools/Madgine</text>
<text text-anchor="middle" x="1164.5" y="-161" font-family="Helvetica,sans-Serif" font-size="10.00">_Tools/sceneeditor/sceneview.cpp</text>
</a>
</g>
</g>
<!-- Node1&#45;&gt;Node9 -->
<g id="edge8" class="edge">
<title>Node1&#45;&gt;Node9</title>
<path fill="none" stroke="#63b8ff" d="M878.11,-234.97C932.02,-223.88 1006.23,-208.58 1071.5,-195 1074.57,-194.36 1077.69,-193.71 1080.85,-193.05"/>
<polygon fill="#63b8ff" stroke="#63b8ff" points="877.49,-231.52 868.4,-236.96 878.9,-238.38 877.49,-231.52"/>
</g>
<!-- Node10 -->
<g id="node10" class="node">
<title>Node10</title>
<g id="a_node10"><a xlink:href="scenesenders_8h.html" target="_top" xlink:title=" ">
<polygon fill="white" stroke="#666666" points="1408.5,-195 1266.5,-195 1266.5,-154 1408.5,-154 1408.5,-195"/>
<text text-anchor="start" x="1274.5" y="-183" font-family="Helvetica,sans-Serif" font-size="10.00">plugins/misc/scene</text>
<text text-anchor="start" x="1274.5" y="-172" font-family="Helvetica,sans-Serif" font-size="10.00">/src/Madgine/scene/behavior</text>
<text text-anchor="middle" x="1337.5" y="-161" font-family="Helvetica,sans-Serif" font-size="10.00">/scenesenders.h</text>
</a>
</g>
</g>
<!-- Node1&#45;&gt;Node10 -->
<g id="edge9" class="edge">
<title>Node1&#45;&gt;Node10</title>
<path fill="none" stroke="#63b8ff" d="M877.99,-243.94C968.41,-235.47 1124.24,-218.92 1256.5,-195 1259.63,-194.43 1262.82,-193.82 1266.04,-193.17"/>
<polygon fill="#63b8ff" stroke="#63b8ff" points="877.9,-240.44 868.26,-244.84 878.54,-247.41 877.9,-240.44"/>
</g>
<!-- Node12 -->
<g id="node12" class="node">
<title>Node12</title>
<g id="a_node12"><a xlink:href="behavior_2transform_8h.html" target="_top" xlink:title=" ">
<polygon fill="white" stroke="#666666" points="1507.5,-118 1365.5,-118 1365.5,-77 1507.5,-77 1507.5,-118"/>
<text text-anchor="start" x="1373.5" y="-106" font-family="Helvetica,sans-Serif" font-size="10.00">plugins/misc/scene</text>
<text text-anchor="start" x="1373.5" y="-95" font-family="Helvetica,sans-Serif" font-size="10.00">/src/Madgine/scene/behavior</text>
<text text-anchor="middle" x="1436.5" y="-84" font-family="Helvetica,sans-Serif" font-size="10.00">/transform.h</text>
</a>
</g>
</g>
<!-- Node1&#45;&gt;Node12 -->
<g id="edge14" class="edge">
<title>Node1&#45;&gt;Node12</title>
<path fill="none" stroke="#63b8ff" d="M878.16,-248.68C1033.71,-244.21 1378.18,-230.41 1417.5,-195 1438.69,-175.92 1440.32,-140.66 1438.89,-118.46"/>
<polygon fill="#63b8ff" stroke="#63b8ff" points="878.26,-245.17 868.36,-248.95 878.45,-252.17 878.26,-245.17"/>
</g>
<!-- Node15 -->
<g id="node15" class="node">
<title>Node15</title>
<g id="a_node15"><a xlink:href="entity_2components_2transform_8cpp.html" target="_top" xlink:title=" ">
<polygon fill="white" stroke="#666666" points="1600,-195 1465,-195 1465,-154 1600,-154 1600,-195"/>
<text text-anchor="start" x="1473" y="-183" font-family="Helvetica,sans-Serif" font-size="10.00">plugins/misc/scene</text>
<text text-anchor="start" x="1473" y="-172" font-family="Helvetica,sans-Serif" font-size="10.00">/src/Madgine/scene/entity</text>
<text text-anchor="middle" x="1532.5" y="-161" font-family="Helvetica,sans-Serif" font-size="10.00">/components/transform.cpp</text>
</a>
</g>
</g>
<!-- Node1&#45;&gt;Node15 -->
<g id="edge15" class="edge">
<title>Node1&#45;&gt;Node15</title>
<path fill="none" stroke="#63b8ff" d="M878.16,-247.65C999.55,-242.27 1245.04,-228.04 1450.5,-195 1455.12,-194.26 1459.87,-193.39 1464.64,-192.45"/>
<polygon fill="#63b8ff" stroke="#63b8ff" points="878.16,-244.15 868.32,-248.08 878.46,-251.14 878.16,-244.15"/>
</g>
<!-- Node11 -->
<g id="node11" class="node">
<title>Node11</title>
<g id="a_node11"><a xlink:href="scenesenders_8cpp.html" target="_top" xlink:title=" ">
<polygon fill="white" stroke="#666666" points="1347.5,-118 1205.5,-118 1205.5,-77 1347.5,-77 1347.5,-118"/>
<text text-anchor="start" x="1213.5" y="-106" font-family="Helvetica,sans-Serif" font-size="10.00">plugins/misc/scene</text>
<text text-anchor="start" x="1213.5" y="-95" font-family="Helvetica,sans-Serif" font-size="10.00">/src/Madgine/scene/behavior</text>
<text text-anchor="middle" x="1276.5" y="-84" font-family="Helvetica,sans-Serif" font-size="10.00">/scenesenders.cpp</text>
</a>
</g>
</g>
<!-- Node10&#45;&gt;Node11 -->
<g id="edge10" class="edge">
<title>Node10&#45;&gt;Node11</title>
<path fill="none" stroke="#63b8ff" d="M1314.24,-144.9C1307.03,-136.04 1299.25,-126.47 1292.63,-118.33"/>
<polygon fill="#63b8ff" stroke="#63b8ff" points="1311.49,-147.07 1320.52,-152.62 1316.92,-142.65 1311.49,-147.07"/>
</g>
<!-- Node10&#45;&gt;Node12 -->
<g id="edge11" class="edge">
<title>Node10&#45;&gt;Node12</title>
<path fill="none" stroke="#63b8ff" d="M1372.86,-146.71C1385.13,-137.41 1398.68,-127.15 1410.11,-118.49"/>
<polygon fill="#63b8ff" stroke="#63b8ff" points="1370.83,-143.86 1364.98,-152.68 1375.06,-149.44 1370.83,-143.86"/>
</g>
<!-- Node13 -->
<g id="node13" class="node">
<title>Node13</title>
<g id="a_node13"><a xlink:href="animation_8cpp.html" target="_top" xlink:title=" ">
<polygon fill="white" stroke="#666666" points="1427.5,-41 1285.5,-41 1285.5,0 1427.5,0 1427.5,-41"/>
<text text-anchor="start" x="1293.5" y="-29" font-family="Helvetica,sans-Serif" font-size="10.00">plugins/misc/scene</text>
<text text-anchor="start" x="1293.5" y="-18" font-family="Helvetica,sans-Serif" font-size="10.00">/src/Madgine/scene/behavior</text>
<text text-anchor="middle" x="1356.5" y="-7" font-family="Helvetica,sans-Serif" font-size="10.00">/animation.cpp</text>
</a>
</g>
</g>
<!-- Node12&#45;&gt;Node13 -->
<g id="edge12" class="edge">
<title>Node12&#45;&gt;Node13</title>
<path fill="none" stroke="#63b8ff" d="M1407.18,-69.02C1397.4,-59.84 1386.7,-49.81 1377.66,-41.33"/>
<polygon fill="#63b8ff" stroke="#63b8ff" points="1404.69,-71.47 1414.38,-75.76 1409.48,-66.37 1404.69,-71.47"/>
</g>
<!-- Node14 -->
<g id="node14" class="node">
<title>Node14</title>
<g id="a_node14"><a xlink:href="behavior_2transform_8cpp.html" target="_top" xlink:title=" ">
<polygon fill="white" stroke="#666666" points="1587.5,-41 1445.5,-41 1445.5,0 1587.5,0 1587.5,-41"/>
<text text-anchor="start" x="1453.5" y="-29" font-family="Helvetica,sans-Serif" font-size="10.00">plugins/misc/scene</text>
<text text-anchor="start" x="1453.5" y="-18" font-family="Helvetica,sans-Serif" font-size="10.00">/src/Madgine/scene/behavior</text>
<text text-anchor="middle" x="1516.5" y="-7" font-family="Helvetica,sans-Serif" font-size="10.00">/transform.cpp</text>
</a>
</g>
</g>
<!-- Node12&#45;&gt;Node14 -->
<g id="edge13" class="edge">
<title>Node12&#45;&gt;Node14</title>
<path fill="none" stroke="#63b8ff" d="M1465.82,-69.02C1475.6,-59.84 1486.3,-49.81 1495.34,-41.33"/>
<polygon fill="#63b8ff" stroke="#63b8ff" points="1463.52,-66.37 1458.62,-75.76 1468.31,-71.47 1463.52,-66.37"/>
</g>
</g>
</svg>
        <g id="navigator" transform="translate(0 0)" fill="#404254">
                <rect fill="#f2f5e9" fill-opacity="0.5" stroke="#606060" stroke-width=".5" x="0" y="0" width="60" height="60"/>
                <use id="zoomplus" xlink:href="#zoomPlus" x="17" y="9" onmousedown="handleZoom(evt,'in')"/>
                <use id="zoomminus" xlink:href="#zoomMin" x="42" y="9" onmousedown="handleZoom(evt,'out')"/>
                <use id="reset" xlink:href="#resetDef" x="30" y="36" onmousedown="handleReset()"/>
                <g id="arrowUp" xlink:href="#dirArrow" transform="translate(30 24)" onmousedown="handlePan(0,-1)">
                  <use xlink:href="#rim" fill="#404040">
                        <set attributeName="fill" to="#808080" begin="arrowUp.mouseover" end="arrowUp.mouseout"/>
                  </use>
                  <path fill="none" stroke="white" stroke-width="1.5" d="M0,-3.0v7 M-2.5,-0.5L0,-3.0L2.5,-0.5"/>
                </g>
                <g id="arrowRight" xlink:href="#dirArrow" transform="rotate(90) translate(36 -43)" onmousedown="handlePan(1,0)">
                  <use xlink:href="#rim" fill="#404040">
                        <set attributeName="fill" to="#808080" begin="arrowRight.mouseover" end="arrowRight.mouseout"/>
                  </use>
                  <path fill="none" stroke="white" stroke-width="1.5" d="M0,-3.0v7 M-2.5,-0.5L0,-3.0L2.5,-0.5"/>
                </g>
                <g id="arrowDown" xlink:href="#dirArrow" transform="rotate(180) translate(-30 -48)" onmousedown="handlePan(0,1)">
                  <use xlink:href="#rim" fill="#404040">
                        <set attributeName="fill" to="#808080" begin="arrowDown.mouseover" end="arrowDown.mouseout"/>
                  </use>
                  <path fill="none" stroke="white" stroke-width="1.5" d="M0,-3.0v7 M-2.5,-0.5L0,-3.0L2.5,-0.5"/>
                </g>
                <g id="arrowLeft" xlink:href="#dirArrow" transform="rotate(270) translate(-36 17)" onmousedown="handlePan(-1,0)">
                  <use xlink:href="#rim" fill="#404040">
                        <set attributeName="fill" to="#808080" begin="arrowLeft.mouseover" end="arrowLeft.mouseout"/>
                  </use>
                  <path fill="none" stroke="white" stroke-width="1.5" d="M0,-3.0v7 M-2.5,-0.5L0,-3.0L2.5,-0.5"/>
                </g>
        </g>
        <svg viewBox="0 0 15 15" width="100%" height="30px" preserveAspectRatio="xMaxYMin meet">
         <g id="arrow_out" transform="scale(0.3 0.3)">
          <a xlink:href="entity_2components_2transform_8h__dep__incl_org.svg" target="_base">
           <rect id="button" ry="5" rx="5" y="6" x="6" height="38" width="38"
                fill="#f2f5e9" fill-opacity="0.5" stroke="#606060" stroke-width="1.0"/>
           <path id="arrow"
             d="M 11.500037,31.436501 C 11.940474,20.09759 22.043105,11.32322 32.158766,21.979434 L 37.068811,17.246167 C 37.068811,17.246167 37.088388,32 37.088388,32 L 22.160133,31.978069 C 22.160133,31.978069 26.997745,27.140456 26.997745,27.140456 C 18.528582,18.264221 13.291696,25.230495 11.500037,31.436501 z"
             style="fill:#404040;"/>
          </a>
         </g>
        </svg>
</svg>
