<?xml version="1.0" encoding="UTF-8" standalone="no"?>
<!DOCTYPE svg PUBLIC "-//W3C//DTD SVG 1.1//EN"
 "http://www.w3.org/Graphics/SVG/1.1/DTD/svg11.dtd">
<!-- Generated by graphviz version 7.0.5 (20221223.1930)
 -->
<!-- Title: plugins/misc/scene/src/Madgine/scene/entity/entitycomponentlistbase.h Pages: 1 -->
<!--zoomable 456 -->
<svg id="main" version="1.1" xmlns="http://www.w3.org/2000/svg" xmlns:xlink="http://www.w3.org/1999/xlink" xml:space="preserve" onload="init(evt)">
<style type="text/css"><![CDATA[
.edge:hover path { stroke: red; }
.edge:hover polygon { stroke: red; fill: red; }
]]></style>
<script type="text/javascript"><![CDATA[
var edges = document.getElementsByTagName('g');
if (edges && edges.length) {
  for (var i=0;i<edges.length;i++) {
    if (edges[i].id.substr(0,4)=='edge') {
      edges[i].setAttribute('class','edge');
    }
  }
}
]]></script>
        <defs>
                <circle id="rim" cx="0" cy="0" r="7"/>
                <circle id="rim2" cx="0" cy="0" r="3.5"/>
                <g id="zoomPlus">
                        <use xlink:href="#rim" fill="#404040">
                                <set attributeName="fill" to="#808080" begin="zoomplus.mouseover" end="zoomplus.mouseout"/>
                        </use>
                        <path d="M-4,0h8M0,-4v8" fill="none" stroke="white" stroke-width="1.5" pointer-events="none"/>
                </g>
                <g id="zoomMin">
                        <use xlink:href="#rim" fill="#404040">
                                <set attributeName="fill" to="#808080" begin="zoomminus.mouseover" end="zoomminus.mouseout"/>
                        </use>
                        <path d="M-4,0h8" fill="none" stroke="white" stroke-width="1.5" pointer-events="none"/>
                </g>
                <g id="dirArrow">
                        <path fill="none" stroke="white" stroke-width="1.5" d="M0,-3.0v7 M-2.5,-0.5L0,-3.0L2.5,-0.5"/>
                </g>
               <g id="resetDef">
                       <use xlink:href="#rim2" fill="#404040">
                               <set attributeName="fill" to="#808080" begin="reset.mouseover" end="reset.mouseout"/>
                       </use>
               </g>
        </defs>

<script type="text/javascript">
var viewWidth = 511;
var viewHeight = 456;
var sectionId = 'dynsection-0';
</script>
<script xlink:href="svgpan.js"/>
<svg id="graph" class="graph">
<g id="viewport">
<title>plugins/misc/scene/src/Madgine/scene/entity/entitycomponentlistbase.h</title>
<!-- Node1 -->
<g id="node1" class="node">
<title>Node1</title>
<g id="a_node1"><a xlink:title=" ">
<polygon fill="#999999" stroke="#666666" points="264.5,-448 132.5,-448 132.5,-407 264.5,-407 264.5,-448"/>
<text text-anchor="start" x="140.5" y="-436" font-family="Helvetica,sans-Serif" font-size="10.00">plugins/misc/scene</text>
<text text-anchor="start" x="140.5" y="-425" font-family="Helvetica,sans-Serif" font-size="10.00">/src/Madgine/scene/entity</text>
<text text-anchor="middle" x="198.5" y="-414" font-family="Helvetica,sans-Serif" font-size="10.00">/entitycomponentlistbase.h</text>
</a>
</g>
</g>
<!-- Node2 -->
<g id="node2" class="node">
<title>Node2</title>
<g id="a_node2"><a xlink:href="entitycomponenthandle_8h.html" target="_top" xlink:title=" ">
<polygon fill="white" stroke="#666666" points="260.5,-371 136.5,-371 136.5,-352 260.5,-352 260.5,-371"/>
<text text-anchor="middle" x="198.5" y="-359" font-family="Helvetica,sans-Serif" font-size="10.00">entitycomponenthandle.h</text>
</a>
</g>
</g>
<!-- Node1&#45;&gt;Node2 -->
<g id="edge1" class="edge">
<title>Node1&#45;&gt;Node2</title>
<path fill="none" stroke="#63b8ff" d="M198.5,-406.6C198.5,-398.98 198.5,-390.3 198.5,-382.66"/>
<polygon fill="#63b8ff" stroke="#63b8ff" points="202,-382.68 198.5,-372.68 195,-382.68 202,-382.68"/>
</g>
<!-- Node3 -->
<g id="node3" class="node">
<title>Node3</title>
<g id="a_node3"><a xlink:href="callerhierarchy_8h.html" target="_top" xlink:title=" ">
<polygon fill="white" stroke="#666666" points="123,-244.5 0,-244.5 0,-225.5 123,-225.5 123,-244.5"/>
<text text-anchor="middle" x="61.5" y="-232.5" font-family="Helvetica,sans-Serif" font-size="10.00">Generic/callerhierarchy.h</text>
</a>
</g>
</g>
<!-- Node2&#45;&gt;Node3 -->
<g id="edge2" class="edge">
<title>Node2&#45;&gt;Node3</title>
<path fill="none" stroke="#63b8ff" d="M188.65,-351.55C165.84,-330.82 109.12,-279.27 79.76,-252.59"/>
<polygon fill="#63b8ff" stroke="#63b8ff" points="82.14,-250.03 72.38,-245.89 77.43,-255.21 82.14,-250.03"/>
</g>
<!-- Node4 -->
<g id="node4" class="node">
<title>Node4</title>
<g id="a_node4"><a xlink:href="streamresult_8h.html" target="_top" xlink:title=" ">
<polygon fill="white" stroke="#666666" points="256,-250 141,-250 141,-220 256,-220 256,-250"/>
<text text-anchor="start" x="149" y="-238" font-family="Helvetica,sans-Serif" font-size="10.00">Meta/serialize/streams</text>
<text text-anchor="middle" x="198.5" y="-227" font-family="Helvetica,sans-Serif" font-size="10.00">/streamresult.h</text>
</a>
</g>
</g>
<!-- Node2&#45;&gt;Node4 -->
<g id="edge3" class="edge">
<title>Node2&#45;&gt;Node4</title>
<path fill="none" stroke="#63b8ff" d="M191.64,-351.56C185.52,-342.97 177,-329.37 173.5,-316 170.12,-303.1 170.44,-298.98 173.5,-286 175.58,-277.17 179.48,-268.12 183.59,-260.19"/>
<polygon fill="#63b8ff" stroke="#63b8ff" points="186.61,-261.95 188.43,-251.51 180.5,-258.54 186.61,-261.95"/>
</g>
<!-- Node9 -->
<g id="node9" class="node">
<title>Node9</title>
<g id="a_node9"><a xlink:href="component__index_8h.html" target="_top" xlink:title=" ">
<polygon fill="white" stroke="#666666" points="453,-316 320,-316 320,-286 453,-286 453,-316"/>
<text text-anchor="start" x="328" y="-304" font-family="Helvetica,sans-Serif" font-size="10.00">Modules/uniquecomponent</text>
<text text-anchor="middle" x="386.5" y="-293" font-family="Helvetica,sans-Serif" font-size="10.00">/component_index.h</text>
</a>
</g>
</g>
<!-- Node2&#45;&gt;Node9 -->
<g id="edge8" class="edge">
<title>Node2&#45;&gt;Node9</title>
<path fill="none" stroke="#63b8ff" d="M227.05,-351.62C254.12,-343.19 295.55,-330.3 329.4,-319.77"/>
<polygon fill="#63b8ff" stroke="#63b8ff" points="330.14,-323.2 338.65,-316.89 328.06,-316.52 330.14,-323.2"/>
</g>
<!-- Node10 -->
<g id="node10" class="node">
<title>Node10</title>
<g id="a_node10"><a xlink:href="serializableunitptr_8h.html" target="_top" xlink:title=" ">
<polygon fill="white" stroke="#666666" points="302,-316 183,-316 183,-286 302,-286 302,-316"/>
<text text-anchor="start" x="191" y="-304" font-family="Helvetica,sans-Serif" font-size="10.00">Meta/serialize/hierarchy</text>
<text text-anchor="middle" x="242.5" y="-293" font-family="Helvetica,sans-Serif" font-size="10.00">/serializableunitptr.h</text>
</a>
</g>
</g>
<!-- Node2&#45;&gt;Node10 -->
<g id="edge9" class="edge">
<title>Node2&#45;&gt;Node10</title>
<path fill="none" stroke="#63b8ff" d="M204.99,-351.87C210.3,-344.81 218.06,-334.5 225.14,-325.08"/>
<polygon fill="#63b8ff" stroke="#63b8ff" points="227.76,-327.42 230.97,-317.32 222.17,-323.21 227.76,-327.42"/>
</g>
<!-- Node5 -->
<g id="node5" class="node">
<title>Node5</title>
<g id="a_node5"><a xlink:href="streamstate_8h.html" target="_top" xlink:title=" ">
<polygon fill="white" stroke="#666666" points="236.5,-184 160.5,-184 160.5,-165 236.5,-165 236.5,-184"/>
<text text-anchor="middle" x="198.5" y="-172" font-family="Helvetica,sans-Serif" font-size="10.00">streamstate.h</text>
</a>
</g>
</g>
<!-- Node4&#45;&gt;Node5 -->
<g id="edge4" class="edge">
<title>Node4&#45;&gt;Node5</title>
<path fill="none" stroke="#63b8ff" d="M198.5,-219.54C198.5,-212.34 198.5,-203.53 198.5,-195.68"/>
<polygon fill="#63b8ff" stroke="#63b8ff" points="202,-195.69 198.5,-185.69 195,-195.69 202,-195.69"/>
</g>
<!-- Node6 -->
<g id="node6" class="node">
<title>Node6</title>
<g id="a_node6"><a xlink:href="enum_8h.html" target="_top" xlink:title=" ">
<polygon fill="white" stroke="#666666" points="241,-129 156,-129 156,-110 241,-110 241,-129"/>
<text text-anchor="middle" x="198.5" y="-117" font-family="Helvetica,sans-Serif" font-size="10.00">Generic/enum.h</text>
</a>
</g>
</g>
<!-- Node5&#45;&gt;Node6 -->
<g id="edge5" class="edge">
<title>Node5&#45;&gt;Node6</title>
<path fill="none" stroke="#63b8ff" d="M198.5,-164.75C198.5,-158.27 198.5,-149.16 198.5,-140.9"/>
<polygon fill="#63b8ff" stroke="#63b8ff" points="202,-140.96 198.5,-130.96 195,-140.96 202,-140.96"/>
</g>
<!-- Node7 -->
<g id="node7" class="node">
<title>Node7</title>
<g id="a_node7"><a xlink:href="array_8h.html" target="_top" xlink:title=" ">
<polygon fill="white" stroke="#666666" points="230.5,-74 166.5,-74 166.5,-55 230.5,-55 230.5,-74"/>
<text text-anchor="middle" x="198.5" y="-62" font-family="Helvetica,sans-Serif" font-size="10.00">bits/array.h</text>
</a>
</g>
</g>
<!-- Node6&#45;&gt;Node7 -->
<g id="edge6" class="edge">
<title>Node6&#45;&gt;Node7</title>
<path fill="none" stroke="#63b8ff" d="M198.5,-109.75C198.5,-103.27 198.5,-94.16 198.5,-85.9"/>
<polygon fill="#63b8ff" stroke="#63b8ff" points="202,-85.96 198.5,-75.96 195,-85.96 202,-85.96"/>
</g>
<!-- Node8 -->
<g id="node8" class="node">
<title>Node8</title>
<g id="a_node8"><a xlink:href="types_8h.html" target="_top" xlink:title=" ">
<polygon fill="white" stroke="#666666" points="222,-19 175,-19 175,0 222,0 222,-19"/>
<text text-anchor="middle" x="198.5" y="-7" font-family="Helvetica,sans-Serif" font-size="10.00">types.h</text>
</a>
</g>
</g>
<!-- Node7&#45;&gt;Node8 -->
<g id="edge7" class="edge">
<title>Node7&#45;&gt;Node8</title>
<path fill="none" stroke="#63b8ff" d="M198.5,-54.75C198.5,-48.27 198.5,-39.16 198.5,-30.9"/>
<polygon fill="#63b8ff" stroke="#63b8ff" points="202,-30.96 198.5,-20.96 195,-30.96 202,-30.96"/>
</g>
<!-- Node10&#45;&gt;Node3 -->
<g id="edge10" class="edge">
<title>Node10&#45;&gt;Node3</title>
<path fill="none" stroke="#63b8ff" d="M201.88,-285.64C170.5,-274.54 127.5,-259.34 97.38,-248.69"/>
<polygon fill="#63b8ff" stroke="#63b8ff" points="98.93,-245.52 88.34,-245.49 96.6,-252.12 98.93,-245.52"/>
</g>
<!-- Node10&#45;&gt;Node4 -->
<g id="edge12" class="edge">
<title>Node10&#45;&gt;Node4</title>
<path fill="none" stroke="#63b8ff" d="M232.73,-285.8C227.44,-278.09 220.75,-268.37 214.7,-259.56"/>
<polygon fill="#63b8ff" stroke="#63b8ff" points="217.64,-257.67 209.1,-251.41 211.88,-261.63 217.64,-257.67"/>
</g>
<!-- Node11 -->
<g id="node11" class="node">
<title>Node11</title>
<g id="a_node11"><a xlink:href="serializetable__forward_8h.html" target="_top" xlink:title=" ">
<polygon fill="white" stroke="#666666" points="392.5,-244.5 274.5,-244.5 274.5,-225.5 392.5,-225.5 392.5,-244.5"/>
<text text-anchor="middle" x="333.5" y="-232.5" font-family="Helvetica,sans-Serif" font-size="10.00">serializetable_forward.h</text>
</a>
</g>
</g>
<!-- Node10&#45;&gt;Node11 -->
<g id="edge11" class="edge">
<title>Node10&#45;&gt;Node11</title>
<path fill="none" stroke="#63b8ff" d="M262.7,-285.8C277.3,-275.53 297,-261.67 311.92,-251.18"/>
<polygon fill="#63b8ff" stroke="#63b8ff" points="313.52,-254.33 319.69,-245.72 309.49,-248.6 313.52,-254.33"/>
</g>
<!-- Node12 -->
<g id="node12" class="node">
<title>Node12</title>
<g id="a_node12"><a xlink:href="primitivetypes_8h.html" target="_top" xlink:title=" ">
<polygon fill="white" stroke="#666666" points="502.5,-244.5 410.5,-244.5 410.5,-225.5 502.5,-225.5 502.5,-244.5"/>
<text text-anchor="middle" x="456.5" y="-232.5" font-family="Helvetica,sans-Serif" font-size="10.00">../primitivetypes.h</text>
</a>
</g>
</g>
<!-- Node10&#45;&gt;Node12 -->
<g id="edge13" class="edge">
<title>Node10&#45;&gt;Node12</title>
<path fill="none" stroke="#63b8ff" d="M290.79,-285.56C328.39,-274.31 380,-258.88 415.58,-248.24"/>
<polygon fill="#63b8ff" stroke="#63b8ff" points="416.5,-251.62 425.08,-245.4 414.5,-244.91 416.5,-251.62"/>
</g>
</g>
</svg>
        <g id="navigator" transform="translate(0 0)" fill="#404254">
                <rect fill="#f2f5e9" fill-opacity="0.5" stroke="#606060" stroke-width=".5" x="0" y="0" width="60" height="60"/>
                <use id="zoomplus" xlink:href="#zoomPlus" x="17" y="9" onmousedown="handleZoom(evt,'in')"/>
                <use id="zoomminus" xlink:href="#zoomMin" x="42" y="9" onmousedown="handleZoom(evt,'out')"/>
                <use id="reset" xlink:href="#resetDef" x="30" y="36" onmousedown="handleReset()"/>
                <g id="arrowUp" xlink:href="#dirArrow" transform="translate(30 24)" onmousedown="handlePan(0,-1)">
                  <use xlink:href="#rim" fill="#404040">
                        <set attributeName="fill" to="#808080" begin="arrowUp.mouseover" end="arrowUp.mouseout"/>
                  </use>
                  <path fill="none" stroke="white" stroke-width="1.5" d="M0,-3.0v7 M-2.5,-0.5L0,-3.0L2.5,-0.5"/>
                </g>
                <g id="arrowRight" xlink:href="#dirArrow" transform="rotate(90) translate(36 -43)" onmousedown="handlePan(1,0)">
                  <use xlink:href="#rim" fill="#404040">
                        <set attributeName="fill" to="#808080" begin="arrowRight.mouseover" end="arrowRight.mouseout"/>
                  </use>
                  <path fill="none" stroke="white" stroke-width="1.5" d="M0,-3.0v7 M-2.5,-0.5L0,-3.0L2.5,-0.5"/>
                </g>
                <g id="arrowDown" xlink:href="#dirArrow" transform="rotate(180) translate(-30 -48)" onmousedown="handlePan(0,1)">
                  <use xlink:href="#rim" fill="#404040">
                        <set attributeName="fill" to="#808080" begin="arrowDown.mouseover" end="arrowDown.mouseout"/>
                  </use>
                  <path fill="none" stroke="white" stroke-width="1.5" d="M0,-3.0v7 M-2.5,-0.5L0,-3.0L2.5,-0.5"/>
                </g>
                <g id="arrowLeft" xlink:href="#dirArrow" transform="rotate(270) translate(-36 17)" onmousedown="handlePan(-1,0)">
                  <use xlink:href="#rim" fill="#404040">
                        <set attributeName="fill" to="#808080" begin="arrowLeft.mouseover" end="arrowLeft.mouseout"/>
                  </use>
                  <path fill="none" stroke="white" stroke-width="1.5" d="M0,-3.0v7 M-2.5,-0.5L0,-3.0L2.5,-0.5"/>
                </g>
        </g>
        <svg viewBox="0 0 15 15" width="100%" height="30px" preserveAspectRatio="xMaxYMin meet">
         <g id="arrow_out" transform="scale(0.3 0.3)">
          <a xlink:href="entitycomponentlistbase_8h__incl_org.svg" target="_base">
           <rect id="button" ry="5" rx="5" y="6" x="6" height="38" width="38"
                fill="#f2f5e9" fill-opacity="0.5" stroke="#606060" stroke-width="1.0"/>
           <path id="arrow"
             d="M 11.500037,31.436501 C 11.940474,20.09759 22.043105,11.32322 32.158766,21.979434 L 37.068811,17.246167 C 37.068811,17.246167 37.088388,32 37.088388,32 L 22.160133,31.978069 C 22.160133,31.978069 26.997745,27.140456 26.997745,27.140456 C 18.528582,18.264221 13.291696,25.230495 11.500037,31.436501 z"
             style="fill:#404040;"/>
          </a>
         </g>
        </svg>
</svg>
