<?xml version="1.0" encoding="UTF-8" standalone="no"?>
<!DOCTYPE svg PUBLIC "-//W3C//DTD SVG 1.1//EN"
 "http://www.w3.org/Graphics/SVG/1.1/DTD/svg11.dtd">
<!-- Generated by graphviz version 7.0.5 (20221223.1930)
 -->
<!-- Title: plugins/misc/scene/src/Madgine/scene/entity/entitycomponentcollector.h Pages: 1 -->
<svg width="146pt" height="225pt"
 viewBox="0.00 0.00 145.50 225.00" xmlns="http://www.w3.org/2000/svg" xmlns:xlink="http://www.w3.org/1999/xlink">
<g id="graph0" class="graph" transform="scale(1 1) rotate(0) translate(4 221)">
<title>plugins/misc/scene/src/Madgine/scene/entity/entitycomponentcollector.h</title>
<!-- Node1 -->
<g id="node1" class="node">
<title>Node1</title>
<g id="a_node1"><a xlink:title=" ">
<polygon fill="#999999" stroke="#666666" points="135,-217 0,-217 0,-176 135,-176 135,-217"/>
<text text-anchor="start" x="8" y="-205" font-family="Helvetica,sans-Serif" font-size="10.00">plugins/misc/scene</text>
<text text-anchor="start" x="8" y="-194" font-family="Helvetica,sans-Serif" font-size="10.00">/src/Madgine/scene/entity</text>
<text text-anchor="middle" x="67.5" y="-183" font-family="Helvetica,sans-Serif" font-size="10.00">/entitycomponentcollector.h</text>
</a>
</g>
</g>
<!-- Node2 -->
<g id="node2" class="node">
<title>Node2</title>
<g id="a_node2"><a xlink:href="uniquecomponentdefine_8h.html" target="_top" xlink:title=" ">
<polygon fill="white" stroke="#666666" points="134,-140 1,-140 1,-110 134,-110 134,-140"/>
<text text-anchor="start" x="9" y="-128" font-family="Helvetica,sans-Serif" font-size="10.00">Modules/uniquecomponent</text>
<text text-anchor="middle" x="67.5" y="-117" font-family="Helvetica,sans-Serif" font-size="10.00">/uniquecomponentdefine.h</text>
</a>
</g>
</g>
<!-- Node1&#45;&gt;Node2 -->
<g id="edge1" class="edge">
<title>Node1&#45;&gt;Node2</title>
<path fill="none" stroke="#63b8ff" d="M67.5,-175.77C67.5,-168.31 67.5,-159.7 67.5,-151.77"/>
<polygon fill="#63b8ff" stroke="#63b8ff" points="71,-151.99 67.5,-141.99 64,-151.99 71,-151.99"/>
</g>
<!-- Node3 -->
<g id="node3" class="node">
<title>Node3</title>
<g id="a_node3"><a xlink:href="replace_8h.html" target="_top" xlink:title=" ">
<polygon fill="white" stroke="#666666" points="113.5,-19 21.5,-19 21.5,0 113.5,0 113.5,-19"/>
<text text-anchor="middle" x="67.5" y="-7" font-family="Helvetica,sans-Serif" font-size="10.00">Generic/replace.h</text>
</a>
</g>
</g>
<!-- Node2&#45;&gt;Node3 -->
<g id="edge2" class="edge">
<title>Node2&#45;&gt;Node3</title>
<path fill="none" stroke="#63b8ff" d="M61.96,-109.52C57.29,-95.6 51.79,-73.95 54.5,-55 55.7,-46.63 58.1,-37.64 60.52,-29.95"/>
<polygon fill="#63b8ff" stroke="#63b8ff" points="63.78,-31.23 63.67,-20.64 57.15,-28.98 63.78,-31.23"/>
</g>
<!-- Node4 -->
<g id="node4" class="node">
<title>Node4</title>
<g id="a_node4"><a xlink:href="_modules_2uniquecomponent_2annotations_8h.html" target="_top" xlink:title=" ">
<polygon fill="white" stroke="#666666" points="137.5,-74 63.5,-74 63.5,-55 137.5,-55 137.5,-74"/>
<text text-anchor="middle" x="100.5" y="-62" font-family="Helvetica,sans-Serif" font-size="10.00">annotations.h</text>
</a>
</g>
</g>
<!-- Node2&#45;&gt;Node4 -->
<g id="edge3" class="edge">
<title>Node2&#45;&gt;Node4</title>
<path fill="none" stroke="#63b8ff" d="M75.66,-109.54C80.01,-101.82 85.41,-92.24 90.07,-83.99"/>
<polygon fill="#63b8ff" stroke="#63b8ff" points="93,-85.92 94.86,-75.49 86.9,-82.48 93,-85.92"/>
</g>
<!-- Node4&#45;&gt;Node3 -->
<g id="edge4" class="edge">
<title>Node4&#45;&gt;Node3</title>
<path fill="none" stroke="#63b8ff" d="M95.05,-54.75C90.73,-47.81 84.54,-37.86 79.12,-29.16"/>
<polygon fill="#63b8ff" stroke="#63b8ff" points="82.12,-27.37 73.87,-20.73 76.18,-31.07 82.12,-27.37"/>
</g>
</g>
</svg>
