<?xml version="1.0" encoding="UTF-8" standalone="no"?>
<!DOCTYPE svg PUBLIC "-//W3C//DTD SVG 1.1//EN"
 "http://www.w3.org/Graphics/SVG/1.1/DTD/svg11.dtd">
<!-- Generated by graphviz version 7.0.5 (20221223.1930)
 -->
<!-- Title: plugins/misc/scene/src/Madgine/scene/entity/entityptr.h Pages: 1 -->
<!--zoomable 423 -->
<svg id="main" version="1.1" xmlns="http://www.w3.org/2000/svg" xmlns:xlink="http://www.w3.org/1999/xlink" xml:space="preserve" onload="init(evt)">
<style type="text/css"><![CDATA[
.edge:hover path { stroke: red; }
.edge:hover polygon { stroke: red; fill: red; }
]]></style>
<script type="text/javascript"><![CDATA[
var edges = document.getElementsByTagName('g');
if (edges && edges.length) {
  for (var i=0;i<edges.length;i++) {
    if (edges[i].id.substr(0,4)=='edge') {
      edges[i].setAttribute('class','edge');
    }
  }
}
]]></script>
        <defs>
                <circle id="rim" cx="0" cy="0" r="7"/>
                <circle id="rim2" cx="0" cy="0" r="3.5"/>
                <g id="zoomPlus">
                        <use xlink:href="#rim" fill="#404040">
                                <set attributeName="fill" to="#808080" begin="zoomplus.mouseover" end="zoomplus.mouseout"/>
                        </use>
                        <path d="M-4,0h8M0,-4v8" fill="none" stroke="white" stroke-width="1.5" pointer-events="none"/>
                </g>
                <g id="zoomMin">
                        <use xlink:href="#rim" fill="#404040">
                                <set attributeName="fill" to="#808080" begin="zoomminus.mouseover" end="zoomminus.mouseout"/>
                        </use>
                        <path d="M-4,0h8" fill="none" stroke="white" stroke-width="1.5" pointer-events="none"/>
                </g>
                <g id="dirArrow">
                        <path fill="none" stroke="white" stroke-width="1.5" d="M0,-3.0v7 M-2.5,-0.5L0,-3.0L2.5,-0.5"/>
                </g>
               <g id="resetDef">
                       <use xlink:href="#rim2" fill="#404040">
                               <set attributeName="fill" to="#808080" begin="reset.mouseover" end="reset.mouseout"/>
                       </use>
               </g>
        </defs>

<script type="text/javascript">
var viewWidth = 3024;
var viewHeight = 423;
var sectionId = 'dynsection-1';
</script>
<script xlink:href="svgpan.js"/>
<svg id="graph" class="graph">
<g id="viewport">
<title>plugins/misc/scene/src/Madgine/scene/entity/entityptr.h</title>
<!-- Node1 -->
<g id="node1" class="node">
<title>Node1</title>
<g id="a_node1"><a xlink:title=" ">
<polygon fill="#999999" stroke="#666666" points="1460,-415 1332,-415 1332,-374 1460,-374 1460,-415"/>
<text text-anchor="start" x="1340" y="-403" font-family="Helvetica,sans-Serif" font-size="10.00">plugins/misc/scene</text>
<text text-anchor="start" x="1340" y="-392" font-family="Helvetica,sans-Serif" font-size="10.00">/src/Madgine/scene/entity</text>
<text text-anchor="middle" x="1396" y="-381" font-family="Helvetica,sans-Serif" font-size="10.00">/entityptr.h</text>
</a>
</g>
</g>
<!-- Node2 -->
<g id="node2" class="node">
<title>Node2</title>
<g id="a_node2"><a xlink:href="sceneeditor_8h.html" target="_top" xlink:title=" ">
<polygon fill="white" stroke="#666666" points="352,-272 192,-272 192,-231 352,-231 352,-272"/>
<text text-anchor="start" x="200" y="-260" font-family="Helvetica,sans-Serif" font-size="10.00">plugins/misc/scene</text>
<text text-anchor="start" x="200" y="-249" font-family="Helvetica,sans-Serif" font-size="10.00">/renderer_tools/Madgine</text>
<text text-anchor="middle" x="272" y="-238" font-family="Helvetica,sans-Serif" font-size="10.00">_Tools/sceneeditor/sceneeditor.h</text>
</a>
</g>
</g>
<!-- Node1&#45;&gt;Node2 -->
<g id="edge1" class="edge">
<title>Node1&#45;&gt;Node2</title>
<path fill="none" stroke="#63b8ff" d="M1320.39,-384.02C1117.25,-358.53 560.91,-288.74 352.37,-262.58"/>
<polygon fill="#63b8ff" stroke="#63b8ff" points="1319.67,-387.45 1330.03,-385.22 1320.54,-380.51 1319.67,-387.45"/>
</g>
<!-- Node5 -->
<g id="node5" class="node">
<title>Node5</title>
<g id="a_node5"><a xlink:href="entityptr_8cpp.html" target="_top" xlink:title=" ">
<polygon fill="white" stroke="#666666" points="1630,-272 1502,-272 1502,-231 1630,-231 1630,-272"/>
<text text-anchor="start" x="1510" y="-260" font-family="Helvetica,sans-Serif" font-size="10.00">plugins/misc/scene</text>
<text text-anchor="start" x="1510" y="-249" font-family="Helvetica,sans-Serif" font-size="10.00">/src/Madgine/scene/entity</text>
<text text-anchor="middle" x="1566" y="-238" font-family="Helvetica,sans-Serif" font-size="10.00">/entityptr.cpp</text>
</a>
</g>
</g>
<!-- Node1&#45;&gt;Node5 -->
<g id="edge4" class="edge">
<title>Node1&#45;&gt;Node5</title>
<path fill="none" stroke="#63b8ff" d="M1448.57,-368.24C1463.95,-359.68 1480.3,-349.38 1494,-338 1517.44,-318.53 1539.21,-290.79 1552.54,-272.24"/>
<polygon fill="#63b8ff" stroke="#63b8ff" points="1447.1,-365.05 1439.97,-372.88 1450.43,-371.21 1447.1,-365.05"/>
</g>
<!-- Node6 -->
<g id="node6" class="node">
<title>Node6</title>
<g id="a_node6"><a xlink:href="scenecontainer_8h.html" target="_top" xlink:title=" ">
<polygon fill="white" stroke="#666666" points="1485.5,-338 1306.5,-338 1306.5,-308 1485.5,-308 1485.5,-338"/>
<text text-anchor="start" x="1314.5" y="-326" font-family="Helvetica,sans-Serif" font-size="10.00">plugins/misc/scene</text>
<text text-anchor="middle" x="1396" y="-315" font-family="Helvetica,sans-Serif" font-size="10.00">/src/Madgine/scene/scenecontainer.h</text>
</a>
</g>
</g>
<!-- Node1&#45;&gt;Node6 -->
<g id="edge5" class="edge">
<title>Node1&#45;&gt;Node6</title>
<path fill="none" stroke="#63b8ff" d="M1396,-362.38C1396,-354.04 1396,-345.43 1396,-338.47"/>
<polygon fill="#63b8ff" stroke="#63b8ff" points="1392.5,-362.26 1396,-372.26 1399.5,-362.26 1392.5,-362.26"/>
</g>
<!-- Node3 -->
<g id="node3" class="node">
<title>Node3</title>
<g id="a_node3"><a xlink:href="sceneeditor_8cpp.html" target="_top" xlink:title=" ">
<polygon fill="white" stroke="#666666" points="170,-195 0,-195 0,-154 170,-154 170,-195"/>
<text text-anchor="start" x="8" y="-183" font-family="Helvetica,sans-Serif" font-size="10.00">plugins/misc/scene</text>
<text text-anchor="start" x="8" y="-172" font-family="Helvetica,sans-Serif" font-size="10.00">/renderer_tools/Madgine</text>
<text text-anchor="middle" x="85" y="-161" font-family="Helvetica,sans-Serif" font-size="10.00">_Tools/sceneeditor/sceneeditor.cpp</text>
</a>
</g>
</g>
<!-- Node2&#45;&gt;Node3 -->
<g id="edge2" class="edge">
<title>Node2&#45;&gt;Node3</title>
<path fill="none" stroke="#63b8ff" d="M211.96,-226.42C187.08,-216.44 158.55,-205 134.85,-195.49"/>
<polygon fill="#63b8ff" stroke="#63b8ff" points="210.39,-229.56 220.97,-230.03 213,-223.06 210.39,-229.56"/>
</g>
<!-- Node4 -->
<g id="node4" class="node">
<title>Node4</title>
<g id="a_node4"><a xlink:href="sceneview_8cpp.html" target="_top" xlink:title=" ">
<polygon fill="white" stroke="#666666" points="355.5,-195 188.5,-195 188.5,-154 355.5,-154 355.5,-195"/>
<text text-anchor="start" x="196.5" y="-183" font-family="Helvetica,sans-Serif" font-size="10.00">plugins/misc/scene</text>
<text text-anchor="start" x="196.5" y="-172" font-family="Helvetica,sans-Serif" font-size="10.00">/renderer_tools/Madgine</text>
<text text-anchor="middle" x="272" y="-161" font-family="Helvetica,sans-Serif" font-size="10.00">_Tools/sceneeditor/sceneview.cpp</text>
</a>
</g>
</g>
<!-- Node2&#45;&gt;Node4 -->
<g id="edge3" class="edge">
<title>Node2&#45;&gt;Node4</title>
<path fill="none" stroke="#63b8ff" d="M272,-219.36C272,-211.24 272,-202.7 272,-195.33"/>
<polygon fill="#63b8ff" stroke="#63b8ff" points="268.5,-219.28 272,-229.28 275.5,-219.28 268.5,-219.28"/>
</g>
<!-- Node6&#45;&gt;Node5 -->
<g id="edge6" class="edge">
<title>Node6&#45;&gt;Node5</title>
<path fill="none" stroke="#63b8ff" d="M1441.57,-303.37C1464.96,-293.81 1493.46,-282.15 1517.28,-272.42"/>
<polygon fill="#63b8ff" stroke="#63b8ff" points="1440.56,-300 1432.63,-307.03 1443.21,-306.48 1440.56,-300"/>
</g>
<!-- Node7 -->
<g id="node7" class="node">
<title>Node7</title>
<g id="a_node7"><a xlink:href="scenecontainer_8cpp.html" target="_top" xlink:title=" ">
<polygon fill="white" stroke="#666666" points="562.5,-189.5 373.5,-189.5 373.5,-159.5 562.5,-159.5 562.5,-189.5"/>
<text text-anchor="start" x="381.5" y="-177.5" font-family="Helvetica,sans-Serif" font-size="10.00">plugins/misc/scene</text>
<text text-anchor="middle" x="468" y="-166.5" font-family="Helvetica,sans-Serif" font-size="10.00">/src/Madgine/scene/scenecontainer.cpp</text>
</a>
</g>
</g>
<!-- Node6&#45;&gt;Node7 -->
<g id="edge7" class="edge">
<title>Node6&#45;&gt;Node7</title>
<path fill="none" stroke="#63b8ff" d="M1294.83,-307.49C1139.24,-284.92 831.95,-239.39 572,-195 562.76,-193.42 553.08,-191.7 543.5,-189.95"/>
<polygon fill="#63b8ff" stroke="#63b8ff" points="1294.33,-310.95 1304.73,-308.92 1295.33,-304.02 1294.33,-310.95"/>
</g>
<!-- Node8 -->
<g id="node8" class="node">
<title>Node8</title>
<g id="a_node8"><a xlink:href="scenemanager_8h.html" target="_top" xlink:title=" ">
<polygon fill="white" stroke="#666666" points="1484,-266.5 1308,-266.5 1308,-236.5 1484,-236.5 1484,-266.5"/>
<text text-anchor="start" x="1316" y="-254.5" font-family="Helvetica,sans-Serif" font-size="10.00">plugins/misc/scene</text>
<text text-anchor="middle" x="1396" y="-243.5" font-family="Helvetica,sans-Serif" font-size="10.00">/src/Madgine/scene/scenemanager.h</text>
</a>
</g>
</g>
<!-- Node6&#45;&gt;Node8 -->
<g id="edge8" class="edge">
<title>Node6&#45;&gt;Node8</title>
<path fill="none" stroke="#63b8ff" d="M1396,-296.26C1396,-286.33 1396,-275.36 1396,-266.88"/>
<polygon fill="#63b8ff" stroke="#63b8ff" points="1392.5,-296.09 1396,-306.09 1399.5,-296.09 1392.5,-296.09"/>
</g>
<!-- Node8&#45;&gt;Node3 -->
<g id="edge16" class="edge">
<title>Node8&#45;&gt;Node3</title>
<path fill="none" stroke="#63b8ff" d="M1296.27,-251.3C1087.88,-251.8 591.43,-246.85 179,-195 176.19,-194.65 173.34,-194.25 170.46,-193.83"/>
<polygon fill="#63b8ff" stroke="#63b8ff" points="1296.27,-254.8 1306.26,-251.27 1296.25,-247.8 1296.27,-254.8"/>
</g>
<!-- Node8&#45;&gt;Node4 -->
<g id="edge17" class="edge">
<title>Node8&#45;&gt;Node4</title>
<path fill="none" stroke="#63b8ff" d="M1296.26,-250.26C1111.53,-248.69 703.97,-239.9 364,-195 361.25,-194.64 358.46,-194.24 355.64,-193.8"/>
<polygon fill="#63b8ff" stroke="#63b8ff" points="1296.03,-253.76 1306.05,-250.34 1296.08,-246.76 1296.03,-253.76"/>
</g>
<!-- Node8&#45;&gt;Node7 -->
<g id="edge29" class="edge">
<title>Node8&#45;&gt;Node7</title>
<path fill="none" stroke="#63b8ff" d="M1296.19,-247.58C1140.84,-242.18 832.01,-228.02 572,-195 561.34,-193.65 550.12,-191.89 539.15,-189.99"/>
<polygon fill="#63b8ff" stroke="#63b8ff" points="1295.94,-251.07 1306.05,-247.92 1296.18,-244.08 1295.94,-251.07"/>
</g>
<!-- Node9 -->
<g id="node9" class="node">
<title>Node9</title>
<g id="a_node9"><a xlink:href="litscenerenderdata_8cpp.html" target="_top" xlink:title=" ">
<polygon fill="white" stroke="#666666" points="1743.5,-195 1618.5,-195 1618.5,-154 1743.5,-154 1743.5,-195"/>
<text text-anchor="start" x="1626.5" y="-183" font-family="Helvetica,sans-Serif" font-size="10.00">plugins/misc/scene</text>
<text text-anchor="start" x="1626.5" y="-172" font-family="Helvetica,sans-Serif" font-size="10.00">/renderer/Madgine/render</text>
<text text-anchor="middle" x="1681" y="-161" font-family="Helvetica,sans-Serif" font-size="10.00">/litscenerenderdata.cpp</text>
</a>
</g>
</g>
<!-- Node8&#45;&gt;Node9 -->
<g id="edge9" class="edge">
<title>Node8&#45;&gt;Node9</title>
<path fill="none" stroke="#63b8ff" d="M1463.02,-233.21C1504.99,-222.34 1560.18,-207.97 1609,-195 1612,-194.2 1615.08,-193.38 1618.18,-192.55"/>
<polygon fill="#63b8ff" stroke="#63b8ff" points="1462.37,-229.77 1453.56,-235.66 1464.12,-236.54 1462.37,-229.77"/>
</g>
<!-- Node10 -->
<g id="node10" class="node">
<title>Node10</title>
<g id="a_node10"><a xlink:href="pointshadowrenderpass_8cpp.html" target="_top" xlink:title=" ">
<polygon fill="white" stroke="#666666" points="1902,-195 1762,-195 1762,-154 1902,-154 1902,-195"/>
<text text-anchor="start" x="1770" y="-183" font-family="Helvetica,sans-Serif" font-size="10.00">plugins/misc/scene</text>
<text text-anchor="start" x="1770" y="-172" font-family="Helvetica,sans-Serif" font-size="10.00">/renderer/Madgine/render</text>
<text text-anchor="middle" x="1832" y="-161" font-family="Helvetica,sans-Serif" font-size="10.00">/pointshadowrenderpass.cpp</text>
</a>
</g>
</g>
<!-- Node8&#45;&gt;Node10 -->
<g id="edge10" class="edge">
<title>Node8&#45;&gt;Node10</title>
<path fill="none" stroke="#63b8ff" d="M1476.23,-233.98C1481.9,-232.93 1487.53,-231.93 1493,-231 1607.58,-211.54 1637.84,-216.79 1752,-195 1755.23,-194.38 1758.52,-193.72 1761.85,-193.02"/>
<polygon fill="#63b8ff" stroke="#63b8ff" points="1475.98,-230.47 1466.8,-235.76 1477.28,-237.34 1475.98,-230.47"/>
</g>
<!-- Node11 -->
<g id="node11" class="node">
<title>Node11</title>
<g id="a_node11"><a xlink:href="scenemainwindowcomponent_8cpp.html" target="_top" xlink:title=" ">
<polygon fill="white" stroke="#666666" points="2086,-195 1920,-195 1920,-154 2086,-154 2086,-195"/>
<text text-anchor="start" x="1928" y="-183" font-family="Helvetica,sans-Serif" font-size="10.00">plugins/misc/scene</text>
<text text-anchor="start" x="1928" y="-172" font-family="Helvetica,sans-Serif" font-size="10.00">/renderer/Madgine/render</text>
<text text-anchor="middle" x="2003" y="-161" font-family="Helvetica,sans-Serif" font-size="10.00">/scenemainwindowcomponent.cpp</text>
</a>
</g>
</g>
<!-- Node8&#45;&gt;Node11 -->
<g id="edge11" class="edge">
<title>Node8&#45;&gt;Node11</title>
<path fill="none" stroke="#63b8ff" d="M1473.78,-234.07C1480.27,-232.94 1486.74,-231.9 1493,-231 1677.58,-204.58 1726.56,-222.38 1911,-195 1913.91,-194.57 1916.86,-194.1 1919.84,-193.61"/>
<polygon fill="#63b8ff" stroke="#63b8ff" points="1473.59,-230.54 1464.37,-235.76 1474.83,-237.43 1473.59,-230.54"/>
</g>
<!-- Node12 -->
<g id="node12" class="node">
<title>Node12</title>
<g id="a_node12"><a xlink:href="scenerenderdata_8cpp.html" target="_top" xlink:title=" ">
<polygon fill="white" stroke="#666666" points="2229.5,-195 2104.5,-195 2104.5,-154 2229.5,-154 2229.5,-195"/>
<text text-anchor="start" x="2112.5" y="-183" font-family="Helvetica,sans-Serif" font-size="10.00">plugins/misc/scene</text>
<text text-anchor="start" x="2112.5" y="-172" font-family="Helvetica,sans-Serif" font-size="10.00">/renderer/Madgine/render</text>
<text text-anchor="middle" x="2167" y="-161" font-family="Helvetica,sans-Serif" font-size="10.00">/scenerenderdata.cpp</text>
</a>
</g>
</g>
<!-- Node8&#45;&gt;Node12 -->
<g id="edge12" class="edge">
<title>Node8&#45;&gt;Node12</title>
<path fill="none" stroke="#63b8ff" d="M1472.41,-234.11C1479.35,-232.93 1486.29,-231.87 1493,-231 1758.8,-196.5 1830.48,-238.26 2095,-195 2098.07,-194.5 2101.19,-193.92 2104.34,-193.28"/>
<polygon fill="#63b8ff" stroke="#63b8ff" points="1472.26,-230.58 1463.03,-235.78 1473.49,-237.48 1472.26,-230.58"/>
</g>
<!-- Node13 -->
<g id="node13" class="node">
<title>Node13</title>
<g id="a_node13"><a xlink:href="scenerenderpass_8cpp.html" target="_top" xlink:title=" ">
<polygon fill="white" stroke="#666666" points="2372.5,-195 2247.5,-195 2247.5,-154 2372.5,-154 2372.5,-195"/>
<text text-anchor="start" x="2255.5" y="-183" font-family="Helvetica,sans-Serif" font-size="10.00">plugins/misc/scene</text>
<text text-anchor="start" x="2255.5" y="-172" font-family="Helvetica,sans-Serif" font-size="10.00">/renderer/Madgine/render</text>
<text text-anchor="middle" x="2310" y="-161" font-family="Helvetica,sans-Serif" font-size="10.00">/scenerenderpass.cpp</text>
</a>
</g>
</g>
<!-- Node8&#45;&gt;Node13 -->
<g id="edge13" class="edge">
<title>Node8&#45;&gt;Node13</title>
<path fill="none" stroke="#63b8ff" d="M1472.31,-234.05C1479.28,-232.88 1486.26,-231.84 1493,-231 1821.98,-190.22 1910.55,-246.63 2238,-195 2241.07,-194.52 2244.2,-193.95 2247.34,-193.33"/>
<polygon fill="#63b8ff" stroke="#63b8ff" points="1471.73,-230.59 1462.49,-235.77 1472.95,-237.49 1471.73,-230.59"/>
</g>
<!-- Node14 -->
<g id="node14" class="node">
<title>Node14</title>
<g id="a_node14"><a xlink:href="shadowrenderpass_8cpp.html" target="_top" xlink:title=" ">
<polygon fill="white" stroke="#666666" points="2515.5,-195 2390.5,-195 2390.5,-154 2515.5,-154 2515.5,-195"/>
<text text-anchor="start" x="2398.5" y="-183" font-family="Helvetica,sans-Serif" font-size="10.00">plugins/misc/scene</text>
<text text-anchor="start" x="2398.5" y="-172" font-family="Helvetica,sans-Serif" font-size="10.00">/renderer/Madgine/render</text>
<text text-anchor="middle" x="2453" y="-161" font-family="Helvetica,sans-Serif" font-size="10.00">/shadowrenderpass.cpp</text>
</a>
</g>
</g>
<!-- Node8&#45;&gt;Node14 -->
<g id="edge14" class="edge">
<title>Node8&#45;&gt;Node14</title>
<path fill="none" stroke="#63b8ff" d="M1471.88,-234.06C1478.99,-232.88 1486.12,-231.83 1493,-231 1885.18,-183.93 1990.59,-255 2381,-195 2384.07,-194.53 2387.2,-193.97 2390.35,-193.35"/>
<polygon fill="#63b8ff" stroke="#63b8ff" points="1471.47,-230.58 1462.22,-235.75 1472.68,-237.47 1471.47,-230.58"/>
</g>
<!-- Node15 -->
<g id="node15" class="node">
<title>Node15</title>
<g id="a_node15"><a xlink:href="shadowscenerenderdata_8cpp.html" target="_top" xlink:title=" ">
<polygon fill="white" stroke="#666666" points="2676.5,-195 2533.5,-195 2533.5,-154 2676.5,-154 2676.5,-195"/>
<text text-anchor="start" x="2541.5" y="-183" font-family="Helvetica,sans-Serif" font-size="10.00">plugins/misc/scene</text>
<text text-anchor="start" x="2541.5" y="-172" font-family="Helvetica,sans-Serif" font-size="10.00">/renderer/Madgine/render</text>
<text text-anchor="middle" x="2605" y="-161" font-family="Helvetica,sans-Serif" font-size="10.00">/shadowscenerenderdata.cpp</text>
</a>
</g>
</g>
<!-- Node8&#45;&gt;Node15 -->
<g id="edge15" class="edge">
<title>Node8&#45;&gt;Node15</title>
<path fill="none" stroke="#63b8ff" d="M1471.7,-234.05C1478.87,-232.86 1486.06,-231.81 1493,-231 1948.39,-177.64 2069.71,-256.97 2524,-195 2527.01,-194.59 2530.07,-194.12 2533.15,-193.59"/>
<polygon fill="#63b8ff" stroke="#63b8ff" points="1471.2,-230.58 1461.95,-235.75 1472.41,-237.48 1471.2,-230.58"/>
</g>
<!-- Node16 -->
<g id="node16" class="node">
<title>Node16</title>
<g id="a_node16"><a xlink:href="scenesenders_8h.html" target="_top" xlink:title=" ">
<polygon fill="white" stroke="#666666" points="2837,-195 2695,-195 2695,-154 2837,-154 2837,-195"/>
<text text-anchor="start" x="2703" y="-183" font-family="Helvetica,sans-Serif" font-size="10.00">plugins/misc/scene</text>
<text text-anchor="start" x="2703" y="-172" font-family="Helvetica,sans-Serif" font-size="10.00">/src/Madgine/scene/behavior</text>
<text text-anchor="middle" x="2766" y="-161" font-family="Helvetica,sans-Serif" font-size="10.00">/scenesenders.h</text>
</a>
</g>
</g>
<!-- Node8&#45;&gt;Node16 -->
<g id="edge18" class="edge">
<title>Node8&#45;&gt;Node16</title>
<path fill="none" stroke="#63b8ff" d="M1471.52,-234.04C1478.75,-232.85 1486,-231.8 1493,-231 2019.56,-170.56 2159.68,-265.4 2685,-195 2688.15,-194.58 2691.36,-194.08 2694.6,-193.53"/>
<polygon fill="#63b8ff" stroke="#63b8ff" points="1470.94,-230.59 1461.69,-235.76 1472.14,-237.49 1470.94,-230.59"/>
</g>
<!-- Node18 -->
<g id="node18" class="node">
<title>Node18</title>
<g id="a_node18"><a xlink:href="behavior_2transform_8h.html" target="_top" xlink:title=" ">
<polygon fill="white" stroke="#666666" points="2936,-118 2794,-118 2794,-77 2936,-77 2936,-118"/>
<text text-anchor="start" x="2802" y="-106" font-family="Helvetica,sans-Serif" font-size="10.00">plugins/misc/scene</text>
<text text-anchor="start" x="2802" y="-95" font-family="Helvetica,sans-Serif" font-size="10.00">/src/Madgine/scene/behavior</text>
<text text-anchor="middle" x="2865" y="-84" font-family="Helvetica,sans-Serif" font-size="10.00">/transform.h</text>
</a>
</g>
</g>
<!-- Node8&#45;&gt;Node18 -->
<g id="edge23" class="edge">
<title>Node8&#45;&gt;Node18</title>
<path fill="none" stroke="#63b8ff" d="M1471.08,-234.09C1478.46,-232.87 1485.86,-231.81 1493,-231 1567.72,-222.56 2788.56,-243.53 2846,-195 2867.91,-176.49 2869.25,-140.71 2867.58,-118.31"/>
<polygon fill="#63b8ff" stroke="#63b8ff" points="1470.67,-230.6 1461.42,-235.77 1471.88,-237.5 1470.67,-230.6"/>
</g>
<!-- Node21 -->
<g id="node21" class="node">
<title>Node21</title>
<g id="a_node21"><a xlink:href="entity_8cpp.html" target="_top" xlink:title=" ">
<polygon fill="white" stroke="#666666" points="709,-195 581,-195 581,-154 709,-154 709,-195"/>
<text text-anchor="start" x="589" y="-183" font-family="Helvetica,sans-Serif" font-size="10.00">plugins/misc/scene</text>
<text text-anchor="start" x="589" y="-172" font-family="Helvetica,sans-Serif" font-size="10.00">/src/Madgine/scene/entity</text>
<text text-anchor="middle" x="645" y="-161" font-family="Helvetica,sans-Serif" font-size="10.00">/entity.cpp</text>
</a>
</g>
</g>
<!-- Node8&#45;&gt;Node21 -->
<g id="edge24" class="edge">
<title>Node8&#45;&gt;Node21</title>
<path fill="none" stroke="#63b8ff" d="M1296.27,-247.92C1163.43,-243.22 921.54,-230.22 718,-195 715.16,-194.51 712.26,-193.96 709.35,-193.36"/>
<polygon fill="#63b8ff" stroke="#63b8ff" points="1295.97,-251.42 1306.09,-248.26 1296.21,-244.42 1295.97,-251.42"/>
</g>
<!-- Node22 -->
<g id="node22" class="node">
<title>Node22</title>
<g id="a_node22"><a xlink:href="entitycomponentbase_8cpp.html" target="_top" xlink:title=" ">
<polygon fill="white" stroke="#666666" points="857,-195 727,-195 727,-154 857,-154 857,-195"/>
<text text-anchor="start" x="735" y="-183" font-family="Helvetica,sans-Serif" font-size="10.00">plugins/misc/scene</text>
<text text-anchor="start" x="735" y="-172" font-family="Helvetica,sans-Serif" font-size="10.00">/src/Madgine/scene/entity</text>
<text text-anchor="middle" x="792" y="-161" font-family="Helvetica,sans-Serif" font-size="10.00">/entitycomponentbase.cpp</text>
</a>
</g>
</g>
<!-- Node8&#45;&gt;Node22 -->
<g id="edge25" class="edge">
<title>Node8&#45;&gt;Node22</title>
<path fill="none" stroke="#63b8ff" d="M1296.3,-244.64C1189.29,-237.28 1014.61,-222.2 866,-195 863.12,-194.47 860.2,-193.89 857.25,-193.27"/>
<polygon fill="#63b8ff" stroke="#63b8ff" points="1296,-248.12 1306.22,-245.31 1296.48,-241.14 1296,-248.12"/>
</g>
<!-- Node23 -->
<g id="node23" class="node">
<title>Node23</title>
<g id="a_node23"><a xlink:href="entitycomponenthandle_8cpp.html" target="_top" xlink:title=" ">
<polygon fill="white" stroke="#666666" points="1012.5,-195 875.5,-195 875.5,-154 1012.5,-154 1012.5,-195"/>
<text text-anchor="start" x="883.5" y="-183" font-family="Helvetica,sans-Serif" font-size="10.00">plugins/misc/scene</text>
<text text-anchor="start" x="883.5" y="-172" font-family="Helvetica,sans-Serif" font-size="10.00">/src/Madgine/scene/entity</text>
<text text-anchor="middle" x="944" y="-161" font-family="Helvetica,sans-Serif" font-size="10.00">/entitycomponenthandle.cpp</text>
</a>
</g>
</g>
<!-- Node8&#45;&gt;Node23 -->
<g id="edge26" class="edge">
<title>Node8&#45;&gt;Node23</title>
<path fill="none" stroke="#63b8ff" d="M1296.15,-238.38C1220.55,-228.55 1114.32,-213.34 1022,-195 1018.99,-194.4 1015.92,-193.76 1012.82,-193.09"/>
<polygon fill="#63b8ff" stroke="#63b8ff" points="1295.68,-241.85 1306.05,-239.66 1296.58,-234.9 1295.68,-241.85"/>
</g>
<!-- Node24 -->
<g id="node24" class="node">
<title>Node24</title>
<g id="a_node24"><a xlink:href="entitycomponentptr_8cpp.html" target="_top" xlink:title=" ">
<polygon fill="white" stroke="#666666" points="1159,-195 1031,-195 1031,-154 1159,-154 1159,-195"/>
<text text-anchor="start" x="1039" y="-183" font-family="Helvetica,sans-Serif" font-size="10.00">plugins/misc/scene</text>
<text text-anchor="start" x="1039" y="-172" font-family="Helvetica,sans-Serif" font-size="10.00">/src/Madgine/scene/entity</text>
<text text-anchor="middle" x="1095" y="-161" font-family="Helvetica,sans-Serif" font-size="10.00">/entitycomponentptr.cpp</text>
</a>
</g>
</g>
<!-- Node8&#45;&gt;Node24 -->
<g id="edge27" class="edge">
<title>Node8&#45;&gt;Node24</title>
<path fill="none" stroke="#63b8ff" d="M1323.84,-233.37C1278.94,-222.6 1220.04,-208.28 1168,-195 1165.2,-194.29 1162.35,-193.55 1159.47,-192.8"/>
<polygon fill="#63b8ff" stroke="#63b8ff" points="1322.93,-236.75 1333.47,-235.67 1324.56,-229.94 1322.93,-236.75"/>
</g>
<!-- Node25 -->
<g id="node25" class="node">
<title>Node25</title>
<g id="a_node25"><a xlink:href="scenecomponentbase_8cpp.html" target="_top" xlink:title=" ">
<polygon fill="white" stroke="#666666" points="1395,-189.5 1177,-189.5 1177,-159.5 1395,-159.5 1395,-189.5"/>
<text text-anchor="start" x="1185" y="-177.5" font-family="Helvetica,sans-Serif" font-size="10.00">plugins/misc/scene</text>
<text text-anchor="middle" x="1286" y="-166.5" font-family="Helvetica,sans-Serif" font-size="10.00">/src/Madgine/scene/scenecomponentbase.cpp</text>
</a>
</g>
</g>
<!-- Node8&#45;&gt;Node25 -->
<g id="edge28" class="edge">
<title>Node8&#45;&gt;Node25</title>
<path fill="none" stroke="#63b8ff" d="M1365.31,-229.58C1346.78,-216.94 1323.64,-201.16 1307.14,-189.92"/>
<polygon fill="#63b8ff" stroke="#63b8ff" points="1363.31,-232.45 1373.54,-235.19 1367.25,-226.66 1363.31,-232.45"/>
</g>
<!-- Node26 -->
<g id="node26" class="node">
<title>Node26</title>
<g id="a_node26"><a xlink:href="scenemanager_8cpp.html" target="_top" xlink:title=" ">
<polygon fill="white" stroke="#666666" points="1600.5,-189.5 1413.5,-189.5 1413.5,-159.5 1600.5,-159.5 1600.5,-189.5"/>
<text text-anchor="start" x="1421.5" y="-177.5" font-family="Helvetica,sans-Serif" font-size="10.00">plugins/misc/scene</text>
<text text-anchor="middle" x="1507" y="-166.5" font-family="Helvetica,sans-Serif" font-size="10.00">/src/Madgine/scene/scenemanager.cpp</text>
</a>
</g>
</g>
<!-- Node8&#45;&gt;Node26 -->
<g id="edge30" class="edge">
<title>Node8&#45;&gt;Node26</title>
<path fill="none" stroke="#63b8ff" d="M1426.71,-229.75C1445.45,-217.09 1468.94,-201.21 1485.66,-189.92"/>
<polygon fill="#63b8ff" stroke="#63b8ff" points="1424.98,-226.69 1418.66,-235.19 1428.9,-232.49 1424.98,-226.69"/>
</g>
<!-- Node17 -->
<g id="node17" class="node">
<title>Node17</title>
<g id="a_node17"><a xlink:href="scenesenders_8cpp.html" target="_top" xlink:title=" ">
<polygon fill="white" stroke="#666666" points="2776,-118 2634,-118 2634,-77 2776,-77 2776,-118"/>
<text text-anchor="start" x="2642" y="-106" font-family="Helvetica,sans-Serif" font-size="10.00">plugins/misc/scene</text>
<text text-anchor="start" x="2642" y="-95" font-family="Helvetica,sans-Serif" font-size="10.00">/src/Madgine/scene/behavior</text>
<text text-anchor="middle" x="2705" y="-84" font-family="Helvetica,sans-Serif" font-size="10.00">/scenesenders.cpp</text>
</a>
</g>
</g>
<!-- Node16&#45;&gt;Node17 -->
<g id="edge19" class="edge">
<title>Node16&#45;&gt;Node17</title>
<path fill="none" stroke="#63b8ff" d="M2742.74,-144.9C2735.53,-136.04 2727.75,-126.47 2721.13,-118.33"/>
<polygon fill="#63b8ff" stroke="#63b8ff" points="2739.99,-147.07 2749.02,-152.62 2745.42,-142.65 2739.99,-147.07"/>
</g>
<!-- Node16&#45;&gt;Node18 -->
<g id="edge20" class="edge">
<title>Node16&#45;&gt;Node18</title>
<path fill="none" stroke="#63b8ff" d="M2801.36,-146.71C2813.63,-137.41 2827.18,-127.15 2838.61,-118.49"/>
<polygon fill="#63b8ff" stroke="#63b8ff" points="2799.33,-143.86 2793.48,-152.68 2803.56,-149.44 2799.33,-143.86"/>
</g>
<!-- Node19 -->
<g id="node19" class="node">
<title>Node19</title>
<g id="a_node19"><a xlink:href="animation_8cpp.html" target="_top" xlink:title=" ">
<polygon fill="white" stroke="#666666" points="2856,-41 2714,-41 2714,0 2856,0 2856,-41"/>
<text text-anchor="start" x="2722" y="-29" font-family="Helvetica,sans-Serif" font-size="10.00">plugins/misc/scene</text>
<text text-anchor="start" x="2722" y="-18" font-family="Helvetica,sans-Serif" font-size="10.00">/src/Madgine/scene/behavior</text>
<text text-anchor="middle" x="2785" y="-7" font-family="Helvetica,sans-Serif" font-size="10.00">/animation.cpp</text>
</a>
</g>
</g>
<!-- Node18&#45;&gt;Node19 -->
<g id="edge21" class="edge">
<title>Node18&#45;&gt;Node19</title>
<path fill="none" stroke="#63b8ff" d="M2835.68,-69.02C2825.9,-59.84 2815.2,-49.81 2806.16,-41.33"/>
<polygon fill="#63b8ff" stroke="#63b8ff" points="2833.19,-71.47 2842.88,-75.76 2837.98,-66.37 2833.19,-71.47"/>
</g>
<!-- Node20 -->
<g id="node20" class="node">
<title>Node20</title>
<g id="a_node20"><a xlink:href="behavior_2transform_8cpp.html" target="_top" xlink:title=" ">
<polygon fill="white" stroke="#666666" points="3016,-41 2874,-41 2874,0 3016,0 3016,-41"/>
<text text-anchor="start" x="2882" y="-29" font-family="Helvetica,sans-Serif" font-size="10.00">plugins/misc/scene</text>
<text text-anchor="start" x="2882" y="-18" font-family="Helvetica,sans-Serif" font-size="10.00">/src/Madgine/scene/behavior</text>
<text text-anchor="middle" x="2945" y="-7" font-family="Helvetica,sans-Serif" font-size="10.00">/transform.cpp</text>
</a>
</g>
</g>
<!-- Node18&#45;&gt;Node20 -->
<g id="edge22" class="edge">
<title>Node18&#45;&gt;Node20</title>
<path fill="none" stroke="#63b8ff" d="M2894.32,-69.02C2904.1,-59.84 2914.8,-49.81 2923.84,-41.33"/>
<polygon fill="#63b8ff" stroke="#63b8ff" points="2892.02,-66.37 2887.12,-75.76 2896.81,-71.47 2892.02,-66.37"/>
</g>
</g>
</svg>
        <g id="navigator" transform="translate(0 0)" fill="#404254">
                <rect fill="#f2f5e9" fill-opacity="0.5" stroke="#606060" stroke-width=".5" x="0" y="0" width="60" height="60"/>
                <use id="zoomplus" xlink:href="#zoomPlus" x="17" y="9" onmousedown="handleZoom(evt,'in')"/>
                <use id="zoomminus" xlink:href="#zoomMin" x="42" y="9" onmousedown="handleZoom(evt,'out')"/>
                <use id="reset" xlink:href="#resetDef" x="30" y="36" onmousedown="handleReset()"/>
                <g id="arrowUp" xlink:href="#dirArrow" transform="translate(30 24)" onmousedown="handlePan(0,-1)">
                  <use xlink:href="#rim" fill="#404040">
                        <set attributeName="fill" to="#808080" begin="arrowUp.mouseover" end="arrowUp.mouseout"/>
                  </use>
                  <path fill="none" stroke="white" stroke-width="1.5" d="M0,-3.0v7 M-2.5,-0.5L0,-3.0L2.5,-0.5"/>
                </g>
                <g id="arrowRight" xlink:href="#dirArrow" transform="rotate(90) translate(36 -43)" onmousedown="handlePan(1,0)">
                  <use xlink:href="#rim" fill="#404040">
                        <set attributeName="fill" to="#808080" begin="arrowRight.mouseover" end="arrowRight.mouseout"/>
                  </use>
                  <path fill="none" stroke="white" stroke-width="1.5" d="M0,-3.0v7 M-2.5,-0.5L0,-3.0L2.5,-0.5"/>
                </g>
                <g id="arrowDown" xlink:href="#dirArrow" transform="rotate(180) translate(-30 -48)" onmousedown="handlePan(0,1)">
                  <use xlink:href="#rim" fill="#404040">
                        <set attributeName="fill" to="#808080" begin="arrowDown.mouseover" end="arrowDown.mouseout"/>
                  </use>
                  <path fill="none" stroke="white" stroke-width="1.5" d="M0,-3.0v7 M-2.5,-0.5L0,-3.0L2.5,-0.5"/>
                </g>
                <g id="arrowLeft" xlink:href="#dirArrow" transform="rotate(270) translate(-36 17)" onmousedown="handlePan(-1,0)">
                  <use xlink:href="#rim" fill="#404040">
                        <set attributeName="fill" to="#808080" begin="arrowLeft.mouseover" end="arrowLeft.mouseout"/>
                  </use>
                  <path fill="none" stroke="white" stroke-width="1.5" d="M0,-3.0v7 M-2.5,-0.5L0,-3.0L2.5,-0.5"/>
                </g>
        </g>
        <svg viewBox="0 0 15 15" width="100%" height="30px" preserveAspectRatio="xMaxYMin meet">
         <g id="arrow_out" transform="scale(0.3 0.3)">
          <a xlink:href="entityptr_8h__dep__incl_org.svg" target="_base">
           <rect id="button" ry="5" rx="5" y="6" x="6" height="38" width="38"
                fill="#f2f5e9" fill-opacity="0.5" stroke="#606060" stroke-width="1.0"/>
           <path id="arrow"
             d="M 11.500037,31.436501 C 11.940474,20.09759 22.043105,11.32322 32.158766,21.979434 L 37.068811,17.246167 C 37.068811,17.246167 37.088388,32 37.088388,32 L 22.160133,31.978069 C 22.160133,31.978069 26.997745,27.140456 26.997745,27.140456 C 18.528582,18.264221 13.291696,25.230495 11.500037,31.436501 z"
             style="fill:#404040;"/>
          </a>
         </g>
        </svg>
</svg>
