<?xml version="1.0" encoding="UTF-8" standalone="no"?>
<!DOCTYPE svg PUBLIC "-//W3C//DTD SVG 1.1//EN"
 "http://www.w3.org/Graphics/SVG/1.1/DTD/svg11.dtd">
<!-- Generated by graphviz version 7.0.5 (20221223.1930)
 -->
<!-- Title: src/Interfaces/fetch/fetchapi.h Pages: 1 -->
<svg width="365pt" height="115pt"
 viewBox="0.00 0.00 365.00 115.00" xmlns="http://www.w3.org/2000/svg" xmlns:xlink="http://www.w3.org/1999/xlink">
<g id="graph0" class="graph" transform="scale(1 1) rotate(0) translate(4 111)">
<title>src/Interfaces/fetch/fetchapi.h</title>
<!-- Node1 -->
<g id="node1" class="node">
<title>Node1</title>
<g id="a_node1"><a xlink:title=" ">
<polygon fill="#999999" stroke="#666666" points="238,-107 137,-107 137,-77 238,-77 238,-107"/>
<text text-anchor="start" x="145" y="-95" font-family="Helvetica,sans-Serif" font-size="10.00">src/Interfaces/fetch</text>
<text text-anchor="middle" x="187.5" y="-84" font-family="Helvetica,sans-Serif" font-size="10.00">/fetchapi.h</text>
</a>
</g>
</g>
<!-- Node2 -->
<g id="node2" class="node">
<title>Node2</title>
<g id="a_node2"><a xlink:href="resourcebase_8cpp.html" target="_top" xlink:title=" ">
<polygon fill="white" stroke="#666666" points="119,-41 0,-41 0,0 119,0 119,-41"/>
<text text-anchor="start" x="8" y="-29" font-family="Helvetica,sans-Serif" font-size="10.00">plugins/resources/api</text>
<text text-anchor="start" x="8" y="-18" font-family="Helvetica,sans-Serif" font-size="10.00">/src/Madgine/resources</text>
<text text-anchor="middle" x="59.5" y="-7" font-family="Helvetica,sans-Serif" font-size="10.00">/resourcebase.cpp</text>
</a>
</g>
</g>
<!-- Node1&#45;&gt;Node2 -->
<g id="edge1" class="edge">
<title>Node1&#45;&gt;Node2</title>
<path fill="none" stroke="#63b8ff" d="M151.27,-71.33C134.03,-61.97 113.47,-50.8 96.18,-41.42"/>
<polygon fill="#63b8ff" stroke="#63b8ff" points="149.19,-74.18 159.65,-75.88 152.53,-68.03 149.19,-74.18"/>
</g>
<!-- Node3 -->
<g id="node3" class="node">
<title>Node3</title>
<g id="a_node3"><a xlink:href="fetchapi_8cpp.html" target="_top" xlink:title=" ">
<polygon fill="white" stroke="#666666" points="238,-35.5 137,-35.5 137,-5.5 238,-5.5 238,-35.5"/>
<text text-anchor="start" x="145" y="-23.5" font-family="Helvetica,sans-Serif" font-size="10.00">src/Interfaces/fetch</text>
<text text-anchor="middle" x="187.5" y="-12.5" font-family="Helvetica,sans-Serif" font-size="10.00">/fetchapi.cpp</text>
</a>
</g>
</g>
<!-- Node1&#45;&gt;Node3 -->
<g id="edge2" class="edge">
<title>Node1&#45;&gt;Node3</title>
<path fill="none" stroke="#63b8ff" d="M187.5,-65.26C187.5,-55.33 187.5,-44.36 187.5,-35.88"/>
<polygon fill="#63b8ff" stroke="#63b8ff" points="184,-65.09 187.5,-75.09 191,-65.09 184,-65.09"/>
</g>
<!-- Node4 -->
<g id="node4" class="node">
<title>Node4</title>
<g id="a_node4"><a xlink:href="fetchapi__curl_8cpp.html" target="_top" xlink:title=" ">
<polygon fill="white" stroke="#666666" points="357,-35.5 256,-35.5 256,-5.5 357,-5.5 357,-35.5"/>
<text text-anchor="start" x="264" y="-23.5" font-family="Helvetica,sans-Serif" font-size="10.00">src/Interfaces/fetch</text>
<text text-anchor="middle" x="306.5" y="-12.5" font-family="Helvetica,sans-Serif" font-size="10.00">/fetchapi_curl.cpp</text>
</a>
</g>
</g>
<!-- Node1&#45;&gt;Node4 -->
<g id="edge3" class="edge">
<title>Node1&#45;&gt;Node4</title>
<path fill="none" stroke="#63b8ff" d="M222.02,-70.84C241.18,-59.65 264.57,-45.99 281.87,-35.88"/>
<polygon fill="#63b8ff" stroke="#63b8ff" points="220.33,-67.77 213.46,-75.84 223.86,-73.82 220.33,-67.77"/>
</g>
</g>
</svg>
