<?xml version="1.0" encoding="UTF-8" standalone="no"?>
<!DOCTYPE svg PUBLIC "-//W3C//DTD SVG 1.1//EN"
 "http://www.w3.org/Graphics/SVG/1.1/DTD/svg11.dtd">
<!-- Generated by graphviz version 7.0.5 (20221223.1930)
 -->
<!-- Title: src/Interfaces/fetch/fetchapi.cpp Pages: 1 -->
<svg width="276pt" height="148pt"
 viewBox="0.00 0.00 275.50 148.00" xmlns="http://www.w3.org/2000/svg" xmlns:xlink="http://www.w3.org/1999/xlink">
<g id="graph0" class="graph" transform="scale(1 1) rotate(0) translate(4 144)">
<title>src/Interfaces/fetch/fetchapi.cpp</title>
<!-- Node1 -->
<g id="node1" class="node">
<title>Node1</title>
<g id="a_node1"><a xlink:title=" ">
<polygon fill="#999999" stroke="#666666" points="150,-140 49,-140 49,-110 150,-110 150,-140"/>
<text text-anchor="start" x="57" y="-128" font-family="Helvetica,sans-Serif" font-size="10.00">src/Interfaces/fetch</text>
<text text-anchor="middle" x="99.5" y="-117" font-family="Helvetica,sans-Serif" font-size="10.00">/fetchapi.cpp</text>
</a>
</g>
</g>
<!-- Node2 -->
<g id="node2" class="node">
<title>Node2</title>
<g id="a_node2"><a xlink:href="interfaceslib_8h.html" target="_top" xlink:title=" ">
<polygon fill="white" stroke="#666666" points="96.5,-74 12.5,-74 12.5,-55 96.5,-55 96.5,-74"/>
<text text-anchor="middle" x="54.5" y="-62" font-family="Helvetica,sans-Serif" font-size="10.00">../interfaceslib.h</text>
</a>
</g>
</g>
<!-- Node1&#45;&gt;Node2 -->
<g id="edge1" class="edge">
<title>Node1&#45;&gt;Node2</title>
<path fill="none" stroke="#63b8ff" d="M88.38,-109.54C82.24,-101.56 74.57,-91.59 68.09,-83.16"/>
<polygon fill="#63b8ff" stroke="#63b8ff" points="70.97,-81.17 62.1,-75.37 65.42,-85.44 70.97,-81.17"/>
</g>
<!-- Node3 -->
<g id="node3" class="node">
<title>Node3</title>
<g id="a_node3"><a xlink:href="fetchapi_8h.html" target="_top" xlink:title=" ">
<polygon fill="white" stroke="#666666" points="174,-74 115,-74 115,-55 174,-55 174,-74"/>
<text text-anchor="middle" x="144.5" y="-62" font-family="Helvetica,sans-Serif" font-size="10.00">fetchapi.h</text>
</a>
</g>
</g>
<!-- Node1&#45;&gt;Node3 -->
<g id="edge2" class="edge">
<title>Node1&#45;&gt;Node3</title>
<path fill="none" stroke="#63b8ff" d="M110.62,-109.54C116.76,-101.56 124.43,-91.59 130.91,-83.16"/>
<polygon fill="#63b8ff" stroke="#63b8ff" points="133.58,-85.44 136.9,-75.37 128.03,-81.17 133.58,-85.44"/>
</g>
<!-- Node4 -->
<g id="node4" class="node">
<title>Node4</title>
<g id="a_node4"><a xlink:href="execution_2concepts_8h.html" target="_top" xlink:title=" ">
<polygon fill="white" stroke="#666666" points="145,-19 0,-19 0,0 145,0 145,-19"/>
<text text-anchor="middle" x="72.5" y="-7" font-family="Helvetica,sans-Serif" font-size="10.00">Generic/execution/concepts.h</text>
</a>
</g>
</g>
<!-- Node3&#45;&gt;Node4 -->
<g id="edge3" class="edge">
<title>Node3&#45;&gt;Node4</title>
<path fill="none" stroke="#63b8ff" d="M132.29,-54.51C121.67,-46.7 106.06,-35.21 93.46,-25.93"/>
<polygon fill="#63b8ff" stroke="#63b8ff" points="95.88,-23.36 85.75,-20.26 91.73,-29 95.88,-23.36"/>
</g>
<!-- Node5 -->
<g id="node5" class="node">
<title>Node5</title>
<g id="a_node5"><a xlink:href="opaqueptr_8h.html" target="_top" xlink:title=" ">
<polygon fill="white" stroke="#666666" points="267.5,-19 163.5,-19 163.5,0 267.5,0 267.5,-19"/>
<text text-anchor="middle" x="215.5" y="-7" font-family="Helvetica,sans-Serif" font-size="10.00">Generic/opaqueptr.h</text>
</a>
</g>
</g>
<!-- Node3&#45;&gt;Node5 -->
<g id="edge4" class="edge">
<title>Node3&#45;&gt;Node5</title>
<path fill="none" stroke="#63b8ff" d="M156.54,-54.51C166.91,-46.77 182.1,-35.43 194.47,-26.2"/>
<polygon fill="#63b8ff" stroke="#63b8ff" points="196.5,-29.05 202.42,-20.26 192.31,-23.44 196.5,-29.05"/>
</g>
</g>
</svg>
