<?xml version="1.0" encoding="UTF-8" standalone="no"?>
<!DOCTYPE svg PUBLIC "-//W3C//DTD SVG 1.1//EN"
 "http://www.w3.org/Graphics/SVG/1.1/DTD/svg11.dtd">
<!-- Generated by graphviz version 7.0.5 (20221223.1930)
 -->
<!-- Title: src/Madgine/serialize/filesystem/filemanager.h Pages: 1 -->
<svg width="1064pt" height="115pt"
 viewBox="0.00 0.00 1063.50 115.00" xmlns="http://www.w3.org/2000/svg" xmlns:xlink="http://www.w3.org/1999/xlink">
<g id="graph0" class="graph" transform="scale(1 1) rotate(0) translate(4 111)">
<title>src/Madgine/serialize/filesystem/filemanager.h</title>
<!-- Node1 -->
<g id="node1" class="node">
<title>Node1</title>
<g id="a_node1"><a xlink:title=" ">
<polygon fill="#999999" stroke="#666666" points="606,-107 483,-107 483,-77 606,-77 606,-107"/>
<text text-anchor="start" x="491" y="-95" font-family="Helvetica,sans-Serif" font-size="10.00">src/Madgine/serialize</text>
<text text-anchor="middle" x="544.5" y="-84" font-family="Helvetica,sans-Serif" font-size="10.00">/filesystem/filemanager.h</text>
</a>
</g>
</g>
<!-- Node2 -->
<g id="node2" class="node">
<title>Node2</title>
<g id="a_node2"><a xlink:href="nodegraph_8cpp.html" target="_top" xlink:title=" ">
<polygon fill="white" stroke="#666666" points="187,-35.5 0,-35.5 0,-5.5 187,-5.5 187,-35.5"/>
<text text-anchor="start" x="8" y="-23.5" font-family="Helvetica,sans-Serif" font-size="10.00">plugins/behavior/nodegraph</text>
<text text-anchor="middle" x="93.5" y="-12.5" font-family="Helvetica,sans-Serif" font-size="10.00">/src/Madgine/nodegraph/nodegraph.cpp</text>
</a>
</g>
</g>
<!-- Node1&#45;&gt;Node2 -->
<g id="edge1" class="edge">
<title>Node1&#45;&gt;Node2</title>
<path fill="none" stroke="#63b8ff" d="M471.58,-81.56C400.87,-72.17 290.63,-56.9 195.5,-41 186.25,-39.45 176.55,-37.73 166.97,-35.97"/>
<polygon fill="#63b8ff" stroke="#63b8ff" points="470.71,-84.98 481.08,-82.82 471.63,-78.04 470.71,-84.98"/>
</g>
<!-- Node3 -->
<g id="node3" class="node">
<title>Node3</title>
<g id="a_node3"><a xlink:href="layoutloader_8cpp.html" target="_top" xlink:title=" ">
<polygon fill="white" stroke="#666666" points="314,-41 205,-41 205,0 314,0 314,-41"/>
<text text-anchor="start" x="213" y="-29" font-family="Helvetica,sans-Serif" font-size="10.00">plugins/client/api</text>
<text text-anchor="start" x="213" y="-18" font-family="Helvetica,sans-Serif" font-size="10.00">/src/Madgine/window</text>
<text text-anchor="middle" x="259.5" y="-7" font-family="Helvetica,sans-Serif" font-size="10.00">/layoutloader.cpp</text>
</a>
</g>
</g>
<!-- Node1&#45;&gt;Node3 -->
<g id="edge2" class="edge">
<title>Node1&#45;&gt;Node3</title>
<path fill="none" stroke="#63b8ff" d="M471.87,-76.15C428.34,-66.88 372.01,-54.22 322.5,-41 319.85,-40.29 317.13,-39.54 314.4,-38.77"/>
<polygon fill="#63b8ff" stroke="#63b8ff" points="470.95,-79.53 481.45,-78.18 472.4,-72.68 470.95,-79.53"/>
</g>
<!-- Node4 -->
<g id="node4" class="node">
<title>Node4</title>
<g id="a_node4"><a xlink:href="mainwindow_8cpp.html" target="_top" xlink:title=" ">
<polygon fill="white" stroke="#666666" points="441,-41 332,-41 332,0 441,0 441,-41"/>
<text text-anchor="start" x="340" y="-29" font-family="Helvetica,sans-Serif" font-size="10.00">plugins/client/api</text>
<text text-anchor="start" x="340" y="-18" font-family="Helvetica,sans-Serif" font-size="10.00">/src/Madgine/window</text>
<text text-anchor="middle" x="386.5" y="-7" font-family="Helvetica,sans-Serif" font-size="10.00">/mainwindow.cpp</text>
</a>
</g>
</g>
<!-- Node1&#45;&gt;Node4 -->
<g id="edge3" class="edge">
<title>Node1&#45;&gt;Node4</title>
<path fill="none" stroke="#63b8ff" d="M501.26,-71.98C479.69,-62.49 453.62,-51.02 431.78,-41.42"/>
<polygon fill="#63b8ff" stroke="#63b8ff" points="499.81,-75.17 510.38,-75.99 502.63,-68.76 499.81,-75.17"/>
</g>
<!-- Node5 -->
<g id="node5" class="node">
<title>Node5</title>
<g id="a_node5"><a xlink:href="sceneeditor_8cpp.html" target="_top" xlink:title=" ">
<polygon fill="white" stroke="#666666" points="629.5,-41 459.5,-41 459.5,0 629.5,0 629.5,-41"/>
<text text-anchor="start" x="467.5" y="-29" font-family="Helvetica,sans-Serif" font-size="10.00">plugins/misc/scene</text>
<text text-anchor="start" x="467.5" y="-18" font-family="Helvetica,sans-Serif" font-size="10.00">/renderer_tools/Madgine</text>
<text text-anchor="middle" x="544.5" y="-7" font-family="Helvetica,sans-Serif" font-size="10.00">_Tools/sceneeditor/sceneeditor.cpp</text>
</a>
</g>
</g>
<!-- Node1&#45;&gt;Node5 -->
<g id="edge4" class="edge">
<title>Node1&#45;&gt;Node5</title>
<path fill="none" stroke="#63b8ff" d="M544.5,-65.36C544.5,-57.45 544.5,-48.87 544.5,-41.42"/>
<polygon fill="#63b8ff" stroke="#63b8ff" points="541,-65.09 544.5,-75.09 548,-65.09 541,-65.09"/>
</g>
<!-- Node6 -->
<g id="node6" class="node">
<title>Node6</title>
<g id="a_node6"><a xlink:href="atlasloader_8cpp.html" target="_top" xlink:title=" ">
<polygon fill="white" stroke="#666666" points="757.5,-41 647.5,-41 647.5,0 757.5,0 757.5,-41"/>
<text text-anchor="start" x="655.5" y="-29" font-family="Helvetica,sans-Serif" font-size="10.00">plugins/misc/widgets</text>
<text text-anchor="start" x="655.5" y="-18" font-family="Helvetica,sans-Serif" font-size="10.00">/src/Madgine/widgets</text>
<text text-anchor="middle" x="702.5" y="-7" font-family="Helvetica,sans-Serif" font-size="10.00">/atlasloader.cpp</text>
</a>
</g>
</g>
<!-- Node1&#45;&gt;Node6 -->
<g id="edge5" class="edge">
<title>Node1&#45;&gt;Node6</title>
<path fill="none" stroke="#63b8ff" d="M587.74,-71.98C609.31,-62.49 635.38,-51.02 657.22,-41.42"/>
<polygon fill="#63b8ff" stroke="#63b8ff" points="586.37,-68.76 578.62,-75.99 589.19,-75.17 586.37,-68.76"/>
</g>
<!-- Node7 -->
<g id="node7" class="node">
<title>Node7</title>
<g id="a_node7"><a xlink:href="fontloader_8cpp.html" target="_top" xlink:title=" ">
<polygon fill="white" stroke="#666666" points="903.5,-41 775.5,-41 775.5,0 903.5,0 903.5,-41"/>
<text text-anchor="start" x="783.5" y="-29" font-family="Helvetica,sans-Serif" font-size="10.00">plugins/renderer/api</text>
<text text-anchor="start" x="783.5" y="-18" font-family="Helvetica,sans-Serif" font-size="10.00">/src/Madgine/render/fonts</text>
<text text-anchor="middle" x="839.5" y="-7" font-family="Helvetica,sans-Serif" font-size="10.00">/fontloader.cpp</text>
</a>
</g>
</g>
<!-- Node1&#45;&gt;Node7 -->
<g id="edge6" class="edge">
<title>Node1&#45;&gt;Node7</title>
<path fill="none" stroke="#63b8ff" d="M617.41,-75.34C660.81,-65.83 716.92,-53.2 766.5,-41 769.3,-40.31 772.16,-39.6 775.05,-38.86"/>
<polygon fill="#63b8ff" stroke="#63b8ff" points="616.88,-71.87 607.86,-77.43 618.37,-78.71 616.88,-71.87"/>
</g>
<!-- Node8 -->
<g id="node8" class="node">
<title>Node8</title>
<g id="a_node8"><a xlink:href="filemanager_8cpp.html" target="_top" xlink:title=" ">
<polygon fill="white" stroke="#666666" points="1055.5,-35.5 921.5,-35.5 921.5,-5.5 1055.5,-5.5 1055.5,-35.5"/>
<text text-anchor="start" x="929.5" y="-23.5" font-family="Helvetica,sans-Serif" font-size="10.00">src/Madgine/serialize</text>
<text text-anchor="middle" x="988.5" y="-12.5" font-family="Helvetica,sans-Serif" font-size="10.00">/filesystem/filemanager.cpp</text>
</a>
</g>
</g>
<!-- Node1&#45;&gt;Node8 -->
<g id="edge7" class="edge">
<title>Node1&#45;&gt;Node8</title>
<path fill="none" stroke="#63b8ff" d="M617.51,-83.61C692.06,-75.47 810.93,-60.86 912.5,-41 919.99,-39.54 927.83,-37.78 935.53,-35.93"/>
<polygon fill="#63b8ff" stroke="#63b8ff" points="617.46,-80.09 607.9,-84.65 618.21,-87.05 617.46,-80.09"/>
</g>
</g>
</svg>
