<?xml version="1.0" encoding="UTF-8" standalone="no"?>
<!DOCTYPE svg PUBLIC "-//W3C//DTD SVG 1.1//EN"
 "http://www.w3.org/Graphics/SVG/1.1/DTD/svg11.dtd">
<!-- Generated by graphviz version 7.0.5 (20221223.1930)
 -->
<!-- Title: src/Interfaces/filesystem/filequery.h Pages: 1 -->
<svg width="3062pt" height="181pt"
 viewBox="0.00 0.00 3061.50 181.00" xmlns="http://www.w3.org/2000/svg" xmlns:xlink="http://www.w3.org/1999/xlink">
<g id="graph0" class="graph" transform="scale(1 1) rotate(0) translate(4 177)">
<title>src/Interfaces/filesystem/filequery.h</title>
<!-- Node1 -->
<g id="node1" class="node">
<title>Node1</title>
<g id="a_node1"><a xlink:title=" ">
<polygon fill="#999999" stroke="#666666" points="525.5,-173 402.5,-173 402.5,-143 525.5,-143 525.5,-173"/>
<text text-anchor="start" x="410.5" y="-161" font-family="Helvetica,sans-Serif" font-size="10.00">src/Interfaces/filesystem</text>
<text text-anchor="middle" x="464" y="-150" font-family="Helvetica,sans-Serif" font-size="10.00">/filequery.h</text>
</a>
</g>
</g>
<!-- Node2 -->
<g id="node2" class="node">
<title>Node2</title>
<g id="a_node2"><a xlink:href="runtime_8h.html" target="_top" xlink:title=" ">
<polygon fill="white" stroke="#666666" points="309,-101.5 179,-101.5 179,-82.5 309,-82.5 309,-101.5"/>
<text text-anchor="middle" x="244" y="-89.5" font-family="Helvetica,sans-Serif" font-size="10.00">src/Interfaces/dl/runtime.h</text>
</a>
</g>
</g>
<!-- Node1&#45;&gt;Node2 -->
<g id="edge1" class="edge">
<title>Node1&#45;&gt;Node2</title>
<path fill="none" stroke="#63b8ff" d="M403.48,-139.39C361.75,-127.26 308.03,-111.63 274.81,-101.96"/>
<polygon fill="#63b8ff" stroke="#63b8ff" points="402.32,-142.7 412.9,-142.13 404.28,-135.98 402.32,-142.7"/>
</g>
<!-- Node6 -->
<g id="node6" class="node">
<title>Node6</title>
<g id="a_node6"><a xlink:href="filequery_8cpp.html" target="_top" xlink:title=" ">
<polygon fill="white" stroke="#666666" points="525.5,-35.5 402.5,-35.5 402.5,-5.5 525.5,-5.5 525.5,-35.5"/>
<text text-anchor="start" x="410.5" y="-23.5" font-family="Helvetica,sans-Serif" font-size="10.00">src/Interfaces/filesystem</text>
<text text-anchor="middle" x="464" y="-12.5" font-family="Helvetica,sans-Serif" font-size="10.00">/filequery.cpp</text>
</a>
</g>
</g>
<!-- Node1&#45;&gt;Node6 -->
<g id="edge5" class="edge">
<title>Node1&#45;&gt;Node6</title>
<path fill="none" stroke="#63b8ff" d="M464,-131.41C464,-103.17 464,-58.71 464,-35.96"/>
<polygon fill="#63b8ff" stroke="#63b8ff" points="460.5,-131.24 464,-141.24 467.5,-131.24 460.5,-131.24"/>
</g>
<!-- Node7 -->
<g id="node7" class="node">
<title>Node7</title>
<g id="a_node7"><a xlink:href="fsapi_8h.html" target="_top" xlink:title=" ">
<polygon fill="white" stroke="#666666" points="1438.5,-107 1315.5,-107 1315.5,-77 1438.5,-77 1438.5,-107"/>
<text text-anchor="start" x="1323.5" y="-95" font-family="Helvetica,sans-Serif" font-size="10.00">src/Interfaces/filesystem</text>
<text text-anchor="middle" x="1377" y="-84" font-family="Helvetica,sans-Serif" font-size="10.00">/fsapi.h</text>
</a>
</g>
</g>
<!-- Node1&#45;&gt;Node7 -->
<g id="edge6" class="edge">
<title>Node1&#45;&gt;Node7</title>
<path fill="none" stroke="#63b8ff" d="M537.06,-151.88C711.94,-139.62 1152.19,-108.76 1315.11,-97.34"/>
<polygon fill="#63b8ff" stroke="#63b8ff" points="536.92,-148.38 527.19,-152.57 537.41,-155.36 536.92,-148.38"/>
</g>
<!-- Node3 -->
<g id="node3" class="node">
<title>Node3</title>
<g id="a_node3"><a xlink:href="runtime_8cpp.html" target="_top" xlink:title=" ">
<polygon fill="white" stroke="#666666" points="384,-30 244,-30 244,-11 384,-11 384,-30"/>
<text text-anchor="middle" x="314" y="-18" font-family="Helvetica,sans-Serif" font-size="10.00">src/Interfaces/dl/runtime.cpp</text>
</a>
</g>
</g>
<!-- Node2&#45;&gt;Node3 -->
<g id="edge2" class="edge">
<title>Node2&#45;&gt;Node3</title>
<path fill="none" stroke="#63b8ff" d="M260.7,-74.42C274.59,-60.63 293.82,-41.53 304.99,-30.45"/>
<polygon fill="#63b8ff" stroke="#63b8ff" points="258.57,-71.6 253.94,-81.13 263.5,-76.57 258.57,-71.6"/>
</g>
<!-- Node4 -->
<g id="node4" class="node">
<title>Node4</title>
<g id="a_node4"><a xlink:href="pluginmanager_8cpp.html" target="_top" xlink:title=" ">
<polygon fill="white" stroke="#666666" points="226,-35.5 122,-35.5 122,-5.5 226,-5.5 226,-35.5"/>
<text text-anchor="start" x="130" y="-23.5" font-family="Helvetica,sans-Serif" font-size="10.00">src/Modules/plugins</text>
<text text-anchor="middle" x="174" y="-12.5" font-family="Helvetica,sans-Serif" font-size="10.00">/pluginmanager.cpp</text>
</a>
</g>
</g>
<!-- Node2&#45;&gt;Node4 -->
<g id="edge3" class="edge">
<title>Node2&#45;&gt;Node4</title>
<path fill="none" stroke="#63b8ff" d="M227.31,-74.43C215.45,-62.65 199.68,-47 188.38,-35.77"/>
<polygon fill="#63b8ff" stroke="#63b8ff" points="224.5,-76.57 234.06,-81.13 229.43,-71.6 224.5,-76.57"/>
</g>
<!-- Node5 -->
<g id="node5" class="node">
<title>Node5</title>
<g id="a_node5"><a xlink:href="pluginsection_8cpp.html" target="_top" xlink:title=" ">
<polygon fill="white" stroke="#666666" points="104,-35.5 0,-35.5 0,-5.5 104,-5.5 104,-35.5"/>
<text text-anchor="start" x="8" y="-23.5" font-family="Helvetica,sans-Serif" font-size="10.00">src/Modules/plugins</text>
<text text-anchor="middle" x="52" y="-12.5" font-family="Helvetica,sans-Serif" font-size="10.00">/pluginsection.cpp</text>
</a>
</g>
</g>
<!-- Node2&#45;&gt;Node5 -->
<g id="edge4" class="edge">
<title>Node2&#45;&gt;Node5</title>
<path fill="none" stroke="#63b8ff" d="M208.77,-78.25C175.75,-66.3 126.45,-48.45 91.98,-35.97"/>
<polygon fill="#63b8ff" stroke="#63b8ff" points="207.28,-81.43 217.87,-81.54 209.66,-74.85 207.28,-81.43"/>
</g>
<!-- Node7&#45;&gt;Node3 -->
<g id="edge17" class="edge">
<title>Node7&#45;&gt;Node3</title>
<path fill="none" stroke="#63b8ff" d="M1303.66,-89.09C1106.59,-83.68 568.67,-66.9 393,-41 376.79,-38.61 359.05,-34.38 344.49,-30.47"/>
<polygon fill="#63b8ff" stroke="#63b8ff" points="1303.42,-92.59 1313.51,-89.36 1303.61,-85.59 1303.42,-92.59"/>
</g>
<!-- Node7&#45;&gt;Node4 -->
<g id="edge24" class="edge">
<title>Node7&#45;&gt;Node4</title>
<path fill="none" stroke="#63b8ff" d="M1303.72,-90.33C1085.36,-87.93 441.45,-77.84 235,-41 228.1,-39.77 220.91,-37.96 213.98,-35.94"/>
<polygon fill="#63b8ff" stroke="#63b8ff" points="1303.48,-93.83 1313.51,-90.43 1303.55,-86.83 1303.48,-93.83"/>
</g>
<!-- Node7&#45;&gt;Node6 -->
<g id="edge19" class="edge">
<title>Node7&#45;&gt;Node6</title>
<path fill="none" stroke="#63b8ff" d="M1304.07,-91.86C1157.23,-92.45 815.87,-88.07 534,-41 526.41,-39.73 518.46,-37.96 510.76,-36"/>
<polygon fill="#63b8ff" stroke="#63b8ff" points="1303.65,-95.36 1313.64,-91.81 1303.62,-88.36 1303.65,-95.36"/>
</g>
<!-- Node8 -->
<g id="node8" class="node">
<title>Node8</title>
<g id="a_node8"><a xlink:href="nodegraph_8cpp.html" target="_top" xlink:title=" ">
<polygon fill="white" stroke="#666666" points="1167.5,-35.5 980.5,-35.5 980.5,-5.5 1167.5,-5.5 1167.5,-35.5"/>
<text text-anchor="start" x="988.5" y="-23.5" font-family="Helvetica,sans-Serif" font-size="10.00">plugins/behavior/nodegraph</text>
<text text-anchor="middle" x="1074" y="-12.5" font-family="Helvetica,sans-Serif" font-size="10.00">/src/Madgine/nodegraph/nodegraph.cpp</text>
</a>
</g>
</g>
<!-- Node7&#45;&gt;Node8 -->
<g id="edge7" class="edge">
<title>Node7&#45;&gt;Node8</title>
<path fill="none" stroke="#63b8ff" d="M1304.38,-74.34C1253.4,-62.65 1185.9,-47.17 1137.16,-35.99"/>
<polygon fill="#63b8ff" stroke="#63b8ff" points="1303.31,-77.69 1313.84,-76.51 1304.88,-70.87 1303.31,-77.69"/>
</g>
<!-- Node9 -->
<g id="node9" class="node">
<title>Node9</title>
<g id="a_node9"><a xlink:href="mainwindow_8cpp.html" target="_top" xlink:title=" ">
<polygon fill="white" stroke="#666666" points="1294.5,-41 1185.5,-41 1185.5,0 1294.5,0 1294.5,-41"/>
<text text-anchor="start" x="1193.5" y="-29" font-family="Helvetica,sans-Serif" font-size="10.00">plugins/client/api</text>
<text text-anchor="start" x="1193.5" y="-18" font-family="Helvetica,sans-Serif" font-size="10.00">/src/Madgine/window</text>
<text text-anchor="middle" x="1240" y="-7" font-family="Helvetica,sans-Serif" font-size="10.00">/mainwindow.cpp</text>
</a>
</g>
</g>
<!-- Node7&#45;&gt;Node9 -->
<g id="edge8" class="edge">
<title>Node7&#45;&gt;Node9</title>
<path fill="none" stroke="#63b8ff" d="M1338.48,-71.46C1319.98,-62.07 1297.85,-50.85 1279.26,-41.42"/>
<polygon fill="#63b8ff" stroke="#63b8ff" points="1336.76,-74.51 1347.26,-75.91 1339.93,-68.27 1336.76,-74.51"/>
</g>
<!-- Node10 -->
<g id="node10" class="node">
<title>Node10</title>
<g id="a_node10"><a xlink:href="fontloader_8cpp.html" target="_top" xlink:title=" ">
<polygon fill="white" stroke="#666666" points="1441,-41 1313,-41 1313,0 1441,0 1441,-41"/>
<text text-anchor="start" x="1321" y="-29" font-family="Helvetica,sans-Serif" font-size="10.00">plugins/renderer/api</text>
<text text-anchor="start" x="1321" y="-18" font-family="Helvetica,sans-Serif" font-size="10.00">/src/Madgine/render/fonts</text>
<text text-anchor="middle" x="1377" y="-7" font-family="Helvetica,sans-Serif" font-size="10.00">/fontloader.cpp</text>
</a>
</g>
</g>
<!-- Node7&#45;&gt;Node10 -->
<g id="edge9" class="edge">
<title>Node7&#45;&gt;Node10</title>
<path fill="none" stroke="#63b8ff" d="M1377,-65.36C1377,-57.45 1377,-48.87 1377,-41.42"/>
<polygon fill="#63b8ff" stroke="#63b8ff" points="1373.5,-65.09 1377,-75.09 1380.5,-65.09 1373.5,-65.09"/>
</g>
<!-- Node11 -->
<g id="node11" class="node">
<title>Node11</title>
<g id="a_node11"><a xlink:href="directx12pixelshaderloader_8cpp.html" target="_top" xlink:title=" ">
<polygon fill="white" stroke="#666666" points="1673,-35.5 1459,-35.5 1459,-5.5 1673,-5.5 1673,-35.5"/>
<text text-anchor="start" x="1467" y="-23.5" font-family="Helvetica,sans-Serif" font-size="10.00">plugins/renderer/directx12</text>
<text text-anchor="middle" x="1566" y="-12.5" font-family="Helvetica,sans-Serif" font-size="10.00">/src/DirectX12/directx12pixelshaderloader.cpp</text>
</a>
</g>
</g>
<!-- Node7&#45;&gt;Node11 -->
<g id="edge10" class="edge">
<title>Node7&#45;&gt;Node11</title>
<path fill="none" stroke="#63b8ff" d="M1426.84,-72.67C1458.12,-61.17 1497.89,-46.55 1526.89,-35.88"/>
<polygon fill="#63b8ff" stroke="#63b8ff" points="1425.76,-69.34 1417.58,-76.08 1428.17,-75.91 1425.76,-69.34"/>
</g>
<!-- Node12 -->
<g id="node12" class="node">
<title>Node12</title>
<g id="a_node12"><a xlink:href="directx12vertexshaderloader_8cpp.html" target="_top" xlink:title=" ">
<polygon fill="white" stroke="#666666" points="1912.5,-35.5 1691.5,-35.5 1691.5,-5.5 1912.5,-5.5 1912.5,-35.5"/>
<text text-anchor="start" x="1699.5" y="-23.5" font-family="Helvetica,sans-Serif" font-size="10.00">plugins/renderer/directx12</text>
<text text-anchor="middle" x="1802" y="-12.5" font-family="Helvetica,sans-Serif" font-size="10.00">/src/DirectX12/directx12vertexshaderloader.cpp</text>
</a>
</g>
</g>
<!-- Node7&#45;&gt;Node12 -->
<g id="edge11" class="edge">
<title>Node7&#45;&gt;Node12</title>
<path fill="none" stroke="#63b8ff" d="M1449.72,-79.11C1522.74,-67.17 1635.33,-48.76 1713.49,-35.97"/>
<polygon fill="#63b8ff" stroke="#63b8ff" points="1449.6,-75.58 1440.29,-80.65 1450.73,-82.49 1449.6,-75.58"/>
</g>
<!-- Node13 -->
<g id="node13" class="node">
<title>Node13</title>
<g id="a_node13"><a xlink:href="openglshaderloader_8cpp.html" target="_top" xlink:title=" ">
<polygon fill="white" stroke="#666666" points="2109,-35.5 1931,-35.5 1931,-5.5 2109,-5.5 2109,-35.5"/>
<text text-anchor="start" x="1939" y="-23.5" font-family="Helvetica,sans-Serif" font-size="10.00">plugins/renderer/opengl</text>
<text text-anchor="middle" x="2020" y="-12.5" font-family="Helvetica,sans-Serif" font-size="10.00">/src/OpenGL/openglshaderloader.cpp</text>
</a>
</g>
</g>
<!-- Node7&#45;&gt;Node13 -->
<g id="edge12" class="edge">
<title>Node7&#45;&gt;Node13</title>
<path fill="none" stroke="#63b8ff" d="M1450.35,-86.72C1555.28,-80.05 1754.1,-65.34 1922,-41 1931.79,-39.58 1942.07,-37.83 1952.15,-35.96"/>
<polygon fill="#63b8ff" stroke="#63b8ff" points="1450.23,-83.22 1440.47,-87.34 1450.67,-90.21 1450.23,-83.22"/>
</g>
<!-- Node14 -->
<g id="node14" class="node">
<title>Node14</title>
<g id="a_node14"><a xlink:href="vulkanshaderloader_8cpp.html" target="_top" xlink:title=" ">
<polygon fill="white" stroke="#666666" points="2298.5,-35.5 2127.5,-35.5 2127.5,-5.5 2298.5,-5.5 2298.5,-35.5"/>
<text text-anchor="start" x="2135.5" y="-23.5" font-family="Helvetica,sans-Serif" font-size="10.00">plugins/renderer/vulkan</text>
<text text-anchor="middle" x="2213" y="-12.5" font-family="Helvetica,sans-Serif" font-size="10.00">/src/Vulkan/vulkanshaderloader.cpp</text>
</a>
</g>
</g>
<!-- Node7&#45;&gt;Node14 -->
<g id="edge13" class="edge">
<title>Node7&#45;&gt;Node14</title>
<path fill="none" stroke="#63b8ff" d="M1450.01,-89.34C1583.28,-85.59 1874.67,-74.03 2118,-41 2127.84,-39.66 2138.2,-37.91 2148.3,-36"/>
<polygon fill="#63b8ff" stroke="#63b8ff" points="1450.18,-85.83 1440.28,-89.61 1450.37,-92.83 1450.18,-85.83"/>
</g>
<!-- Node15 -->
<g id="node15" class="node">
<title>Node15</title>
<g id="a_node15"><a xlink:href="resourcebase_8cpp.html" target="_top" xlink:title=" ">
<polygon fill="white" stroke="#666666" points="2435.5,-41 2316.5,-41 2316.5,0 2435.5,0 2435.5,-41"/>
<text text-anchor="start" x="2324.5" y="-29" font-family="Helvetica,sans-Serif" font-size="10.00">plugins/resources/api</text>
<text text-anchor="start" x="2324.5" y="-18" font-family="Helvetica,sans-Serif" font-size="10.00">/src/Madgine/resources</text>
<text text-anchor="middle" x="2376" y="-7" font-family="Helvetica,sans-Serif" font-size="10.00">/resourcebase.cpp</text>
</a>
</g>
</g>
<!-- Node7&#45;&gt;Node15 -->
<g id="edge14" class="edge">
<title>Node7&#45;&gt;Node15</title>
<path fill="none" stroke="#63b8ff" d="M1450.35,-89.2C1640.04,-84.19 2143.44,-68.65 2308,-41 2310.66,-40.55 2313.37,-40.04 2316.1,-39.47"/>
<polygon fill="#63b8ff" stroke="#63b8ff" points="1450.27,-85.7 1440.37,-89.46 1450.45,-92.7 1450.27,-85.7"/>
</g>
<!-- Node16 -->
<g id="node16" class="node">
<title>Node16</title>
<g id="a_node16"><a xlink:href="resourcemanager_8cpp.html" target="_top" xlink:title=" ">
<polygon fill="white" stroke="#666666" points="2572.5,-41 2453.5,-41 2453.5,0 2572.5,0 2572.5,-41"/>
<text text-anchor="start" x="2461.5" y="-29" font-family="Helvetica,sans-Serif" font-size="10.00">plugins/resources/api</text>
<text text-anchor="start" x="2461.5" y="-18" font-family="Helvetica,sans-Serif" font-size="10.00">/src/Madgine/resources</text>
<text text-anchor="middle" x="2513" y="-7" font-family="Helvetica,sans-Serif" font-size="10.00">/resourcemanager.cpp</text>
</a>
</g>
</g>
<!-- Node7&#45;&gt;Node16 -->
<g id="edge15" class="edge">
<title>Node7&#45;&gt;Node16</title>
<path fill="none" stroke="#63b8ff" d="M1450.07,-89.79C1658.44,-85.99 2252.88,-72.6 2445,-41 2447.67,-40.56 2450.38,-40.05 2453.1,-39.49"/>
<polygon fill="#63b8ff" stroke="#63b8ff" points="1450.12,-86.29 1440.19,-89.97 1450.25,-93.29 1450.12,-86.29"/>
</g>
<!-- Node17 -->
<g id="node17" class="node">
<title>Node17</title>
<g id="a_node17"><a xlink:href="meshloader_8cpp.html" target="_top" xlink:title=" ">
<polygon fill="white" stroke="#666666" points="2771.5,-35.5 2590.5,-35.5 2590.5,-5.5 2771.5,-5.5 2771.5,-35.5"/>
<text text-anchor="start" x="2598.5" y="-23.5" font-family="Helvetica,sans-Serif" font-size="10.00">plugins/resources/meshloader</text>
<text text-anchor="middle" x="2681" y="-12.5" font-family="Helvetica,sans-Serif" font-size="10.00">/Madgine/meshloader/meshloader.cpp</text>
</a>
</g>
</g>
<!-- Node7&#45;&gt;Node17 -->
<g id="edge16" class="edge">
<title>Node7&#45;&gt;Node17</title>
<path fill="none" stroke="#63b8ff" d="M1450.24,-89.43C1676.29,-84.36 2361.02,-67.19 2582,-41 2592.7,-39.73 2603.97,-37.95 2614.92,-35.97"/>
<polygon fill="#63b8ff" stroke="#63b8ff" points="1450.31,-85.93 1440.39,-89.65 1450.46,-92.93 1450.31,-85.93"/>
</g>
<!-- Node18 -->
<g id="node18" class="node">
<title>Node18</title>
<g id="a_node18"><a xlink:href="async__default_8cpp.html" target="_top" xlink:title=" ">
<polygon fill="white" stroke="#666666" points="2912.5,-35.5 2789.5,-35.5 2789.5,-5.5 2912.5,-5.5 2912.5,-35.5"/>
<text text-anchor="start" x="2797.5" y="-23.5" font-family="Helvetica,sans-Serif" font-size="10.00">src/Interfaces/filesystem</text>
<text text-anchor="middle" x="2851" y="-12.5" font-family="Helvetica,sans-Serif" font-size="10.00">/async_default.cpp</text>
</a>
</g>
</g>
<!-- Node7&#45;&gt;Node18 -->
<g id="edge18" class="edge">
<title>Node7&#45;&gt;Node18</title>
<path fill="none" stroke="#63b8ff" d="M1450.24,-90.67C1700.53,-89.19 2520.75,-81.3 2781,-41 2788.85,-39.78 2797.08,-37.99 2805.02,-35.96"/>
<polygon fill="#63b8ff" stroke="#63b8ff" points="1450.25,-87.17 1440.27,-90.73 1450.29,-94.17 1450.25,-87.17"/>
</g>
<!-- Node19 -->
<g id="node19" class="node">
<title>Node19</title>
<g id="a_node19"><a xlink:href="fsapi_8cpp.html" target="_top" xlink:title=" ">
<polygon fill="white" stroke="#666666" points="3053.5,-35.5 2930.5,-35.5 2930.5,-5.5 3053.5,-5.5 3053.5,-35.5"/>
<text text-anchor="start" x="2938.5" y="-23.5" font-family="Helvetica,sans-Serif" font-size="10.00">src/Interfaces/filesystem</text>
<text text-anchor="middle" x="2992" y="-12.5" font-family="Helvetica,sans-Serif" font-size="10.00">/fsapi.cpp</text>
</a>
</g>
</g>
<!-- Node7&#45;&gt;Node19 -->
<g id="edge20" class="edge">
<title>Node7&#45;&gt;Node19</title>
<path fill="none" stroke="#63b8ff" d="M1450.32,-90.95C1716.75,-90.4 2633,-85.27 2922,-41 2929.86,-39.8 2938.08,-38 2946.03,-35.99"/>
<polygon fill="#63b8ff" stroke="#63b8ff" points="1450.38,-87.45 1440.39,-90.97 1450.4,-94.45 1450.38,-87.45"/>
</g>
<!-- Node20 -->
<g id="node20" class="node">
<title>Node20</title>
<g id="a_node20"><a xlink:href="path_8cpp.html" target="_top" xlink:title=" ">
<polygon fill="white" stroke="#666666" points="666.5,-35.5 543.5,-35.5 543.5,-5.5 666.5,-5.5 666.5,-35.5"/>
<text text-anchor="start" x="551.5" y="-23.5" font-family="Helvetica,sans-Serif" font-size="10.00">src/Interfaces/filesystem</text>
<text text-anchor="middle" x="605" y="-12.5" font-family="Helvetica,sans-Serif" font-size="10.00">/path.cpp</text>
</a>
</g>
</g>
<!-- Node7&#45;&gt;Node20 -->
<g id="edge21" class="edge">
<title>Node7&#45;&gt;Node20</title>
<path fill="none" stroke="#63b8ff" d="M1303.89,-90.5C1175.78,-88.59 902.76,-79.84 676,-41 668.31,-39.68 660.26,-37.89 652.45,-35.91"/>
<polygon fill="#63b8ff" stroke="#63b8ff" points="1303.53,-94 1313.58,-90.64 1303.63,-87 1303.53,-94"/>
</g>
<!-- Node21 -->
<g id="node21" class="node">
<title>Node21</title>
<g id="a_node21"><a xlink:href="filemanager_8cpp.html" target="_top" xlink:title=" ">
<polygon fill="white" stroke="#666666" points="819,-35.5 685,-35.5 685,-5.5 819,-5.5 819,-35.5"/>
<text text-anchor="start" x="693" y="-23.5" font-family="Helvetica,sans-Serif" font-size="10.00">src/Madgine/serialize</text>
<text text-anchor="middle" x="752" y="-12.5" font-family="Helvetica,sans-Serif" font-size="10.00">/filesystem/filemanager.cpp</text>
</a>
</g>
</g>
<!-- Node7&#45;&gt;Node21 -->
<g id="edge22" class="edge">
<title>Node7&#45;&gt;Node21</title>
<path fill="none" stroke="#63b8ff" d="M1303.91,-87.98C1198.4,-82.81 997.59,-69.85 829,-41 820.98,-39.63 812.57,-37.85 804.37,-35.93"/>
<polygon fill="#63b8ff" stroke="#63b8ff" points="1303.7,-91.48 1313.85,-88.46 1304.03,-84.49 1303.7,-91.48"/>
</g>
<!-- Node22 -->
<g id="node22" class="node">
<title>Node22</title>
<g id="a_node22"><a xlink:href="inifile_8cpp.html" target="_top" xlink:title=" ">
<polygon fill="white" stroke="#666666" points="962.5,-30 837.5,-30 837.5,-11 962.5,-11 962.5,-30"/>
<text text-anchor="middle" x="900" y="-18" font-family="Helvetica,sans-Serif" font-size="10.00">src/Modules/ini/inifile.cpp</text>
</a>
</g>
</g>
<!-- Node7&#45;&gt;Node22 -->
<g id="edge23" class="edge">
<title>Node7&#45;&gt;Node22</title>
<path fill="none" stroke="#63b8ff" d="M1304.03,-85.13C1222.56,-77.85 1087.04,-63.56 972,-41 957.77,-38.21 942.21,-34.13 929.2,-30.42"/>
<polygon fill="#63b8ff" stroke="#63b8ff" points="1303.39,-88.58 1313.65,-85.98 1304,-81.61 1303.39,-88.58"/>
</g>
</g>
</svg>
