<?xml version="1.0" encoding="UTF-8" standalone="no"?>
<!DOCTYPE svg PUBLIC "-//W3C//DTD SVG 1.1//EN"
 "http://www.w3.org/Graphics/SVG/1.1/DTD/svg11.dtd">
<!-- Generated by graphviz version 7.0.5 (20221223.1930)
 -->
<!-- Title: src/Interfaces/filesystem/filewatcher.cpp Pages: 1 -->
<svg width="290pt" height="258pt"
 viewBox="0.00 0.00 290.00 258.00" xmlns="http://www.w3.org/2000/svg" xmlns:xlink="http://www.w3.org/1999/xlink">
<g id="graph0" class="graph" transform="scale(1 1) rotate(0) translate(4 254)">
<title>src/Interfaces/filesystem/filewatcher.cpp</title>
<!-- Node1 -->
<g id="node1" class="node">
<title>Node1</title>
<g id="a_node1"><a xlink:title=" ">
<polygon fill="#999999" stroke="#666666" points="151.5,-250 28.5,-250 28.5,-220 151.5,-220 151.5,-250"/>
<text text-anchor="start" x="36.5" y="-238" font-family="Helvetica,sans-Serif" font-size="10.00">src/Interfaces/filesystem</text>
<text text-anchor="middle" x="90" y="-227" font-family="Helvetica,sans-Serif" font-size="10.00">/filewatcher.cpp</text>
</a>
</g>
</g>
<!-- Node2 -->
<g id="node2" class="node">
<title>Node2</title>
<g id="a_node2"><a xlink:href="interfaceslib_8h.html" target="_top" xlink:title=" ">
<polygon fill="white" stroke="#666666" points="84,-184 0,-184 0,-165 84,-165 84,-184"/>
<text text-anchor="middle" x="42" y="-172" font-family="Helvetica,sans-Serif" font-size="10.00">../interfaceslib.h</text>
</a>
</g>
</g>
<!-- Node1&#45;&gt;Node2 -->
<g id="edge1" class="edge">
<title>Node1&#45;&gt;Node2</title>
<path fill="none" stroke="#63b8ff" d="M78.13,-219.54C71.52,-211.48 63.23,-201.38 56.27,-192.89"/>
<polygon fill="#63b8ff" stroke="#63b8ff" points="59.13,-190.86 50.08,-185.35 53.72,-195.3 59.13,-190.86"/>
</g>
<!-- Node3 -->
<g id="node3" class="node">
<title>Node3</title>
<g id="a_node3"><a xlink:href="filewatcher_8h.html" target="_top" xlink:title=" ">
<polygon fill="white" stroke="#666666" points="173.5,-184 102.5,-184 102.5,-165 173.5,-165 173.5,-184"/>
<text text-anchor="middle" x="138" y="-172" font-family="Helvetica,sans-Serif" font-size="10.00">filewatcher.h</text>
</a>
</g>
</g>
<!-- Node1&#45;&gt;Node3 -->
<g id="edge2" class="edge">
<title>Node1&#45;&gt;Node3</title>
<path fill="none" stroke="#63b8ff" d="M101.87,-219.54C108.48,-211.48 116.77,-201.38 123.73,-192.89"/>
<polygon fill="#63b8ff" stroke="#63b8ff" points="126.28,-195.3 129.92,-185.35 120.87,-190.86 126.28,-195.3"/>
</g>
<!-- Node4 -->
<g id="node4" class="node">
<title>Node4</title>
<g id="a_node4"><a xlink:href="enum_8h.html" target="_top" xlink:title=" ">
<polygon fill="white" stroke="#666666" points="98.5,-129 13.5,-129 13.5,-110 98.5,-110 98.5,-129"/>
<text text-anchor="middle" x="56" y="-117" font-family="Helvetica,sans-Serif" font-size="10.00">Generic/enum.h</text>
</a>
</g>
</g>
<!-- Node3&#45;&gt;Node4 -->
<g id="edge3" class="edge">
<title>Node3&#45;&gt;Node4</title>
<path fill="none" stroke="#63b8ff" d="M124.09,-164.51C111.76,-156.54 93.53,-144.75 79.03,-135.38"/>
<polygon fill="#63b8ff" stroke="#63b8ff" points="81.27,-132.67 70.98,-130.18 77.47,-138.55 81.27,-132.67"/>
</g>
<!-- Node7 -->
<g id="node7" class="node">
<title>Node7</title>
<g id="a_node7"><a xlink:href="path_8h.html" target="_top" xlink:title=" ">
<polygon fill="white" stroke="#666666" points="159.5,-129 116.5,-129 116.5,-110 159.5,-110 159.5,-129"/>
<text text-anchor="middle" x="138" y="-117" font-family="Helvetica,sans-Serif" font-size="10.00">path.h</text>
</a>
</g>
</g>
<!-- Node3&#45;&gt;Node7 -->
<g id="edge6" class="edge">
<title>Node3&#45;&gt;Node7</title>
<path fill="none" stroke="#63b8ff" d="M138,-164.75C138,-158.27 138,-149.16 138,-140.9"/>
<polygon fill="#63b8ff" stroke="#63b8ff" points="141.5,-140.96 138,-130.96 134.5,-140.96 141.5,-140.96"/>
</g>
<!-- Node8 -->
<g id="node8" class="node">
<title>Node8</title>
<g id="a_node8"><a xlink:href="opaqueptr_8h.html" target="_top" xlink:title=" ">
<polygon fill="white" stroke="#666666" points="282,-129 178,-129 178,-110 282,-110 282,-129"/>
<text text-anchor="middle" x="230" y="-117" font-family="Helvetica,sans-Serif" font-size="10.00">Generic/opaqueptr.h</text>
</a>
</g>
</g>
<!-- Node3&#45;&gt;Node8 -->
<g id="edge7" class="edge">
<title>Node3&#45;&gt;Node8</title>
<path fill="none" stroke="#63b8ff" d="M153.61,-164.51C167.7,-156.39 188.69,-144.3 205.1,-134.85"/>
<polygon fill="#63b8ff" stroke="#63b8ff" points="206.39,-138.14 213.31,-130.11 202.9,-132.07 206.39,-138.14"/>
</g>
<!-- Node5 -->
<g id="node5" class="node">
<title>Node5</title>
<g id="a_node5"><a xlink:href="array_8h.html" target="_top" xlink:title=" ">
<polygon fill="white" stroke="#666666" points="88,-74 24,-74 24,-55 88,-55 88,-74"/>
<text text-anchor="middle" x="56" y="-62" font-family="Helvetica,sans-Serif" font-size="10.00">bits/array.h</text>
</a>
</g>
</g>
<!-- Node4&#45;&gt;Node5 -->
<g id="edge4" class="edge">
<title>Node4&#45;&gt;Node5</title>
<path fill="none" stroke="#63b8ff" d="M56,-109.75C56,-103.27 56,-94.16 56,-85.9"/>
<polygon fill="#63b8ff" stroke="#63b8ff" points="59.5,-85.96 56,-75.96 52.5,-85.96 59.5,-85.96"/>
</g>
<!-- Node6 -->
<g id="node6" class="node">
<title>Node6</title>
<g id="a_node6"><a xlink:href="types_8h.html" target="_top" xlink:title=" ">
<polygon fill="white" stroke="#666666" points="79.5,-19 32.5,-19 32.5,0 79.5,0 79.5,-19"/>
<text text-anchor="middle" x="56" y="-7" font-family="Helvetica,sans-Serif" font-size="10.00">types.h</text>
</a>
</g>
</g>
<!-- Node5&#45;&gt;Node6 -->
<g id="edge5" class="edge">
<title>Node5&#45;&gt;Node6</title>
<path fill="none" stroke="#63b8ff" d="M56,-54.75C56,-48.27 56,-39.16 56,-30.9"/>
<polygon fill="#63b8ff" stroke="#63b8ff" points="59.5,-30.96 56,-20.96 52.5,-30.96 59.5,-30.96"/>
</g>
</g>
</svg>
