<?xml version="1.0" encoding="UTF-8" standalone="no"?>
<!DOCTYPE svg PUBLIC "-//W3C//DTD SVG 1.1//EN"
 "http://www.w3.org/Graphics/SVG/1.1/DTD/svg11.dtd">
<!-- Generated by graphviz version 7.0.5 (20221223.1930)
 -->
<!-- Title: src/Madgine/serialize/filesystem/filemanager.cpp Pages: 1 -->
<!--zoomable 566 -->
<svg id="main" version="1.1" xmlns="http://www.w3.org/2000/svg" xmlns:xlink="http://www.w3.org/1999/xlink" xml:space="preserve" onload="init(evt)">
<style type="text/css"><![CDATA[
.edge:hover path { stroke: red; }
.edge:hover polygon { stroke: red; fill: red; }
]]></style>
<script type="text/javascript"><![CDATA[
var edges = document.getElementsByTagName('g');
if (edges && edges.length) {
  for (var i=0;i<edges.length;i++) {
    if (edges[i].id.substr(0,4)=='edge') {
      edges[i].setAttribute('class','edge');
    }
  }
}
]]></script>
        <defs>
                <circle id="rim" cx="0" cy="0" r="7"/>
                <circle id="rim2" cx="0" cy="0" r="3.5"/>
                <g id="zoomPlus">
                        <use xlink:href="#rim" fill="#404040">
                                <set attributeName="fill" to="#808080" begin="zoomplus.mouseover" end="zoomplus.mouseout"/>
                        </use>
                        <path d="M-4,0h8M0,-4v8" fill="none" stroke="white" stroke-width="1.5" pointer-events="none"/>
                </g>
                <g id="zoomMin">
                        <use xlink:href="#rim" fill="#404040">
                                <set attributeName="fill" to="#808080" begin="zoomminus.mouseover" end="zoomminus.mouseout"/>
                        </use>
                        <path d="M-4,0h8" fill="none" stroke="white" stroke-width="1.5" pointer-events="none"/>
                </g>
                <g id="dirArrow">
                        <path fill="none" stroke="white" stroke-width="1.5" d="M0,-3.0v7 M-2.5,-0.5L0,-3.0L2.5,-0.5"/>
                </g>
               <g id="resetDef">
                       <use xlink:href="#rim2" fill="#404040">
                               <set attributeName="fill" to="#808080" begin="reset.mouseover" end="reset.mouseout"/>
                       </use>
               </g>
        </defs>

<script type="text/javascript">
var viewWidth = 983;
var viewHeight = 566;
var sectionId = 'dynsection-0';
</script>
<script xlink:href="svgpan.js"/>
<svg id="graph" class="graph">
<g id="viewport">
<title>src/Madgine/serialize/filesystem/filemanager.cpp</title>
<!-- Node1 -->
<g id="node1" class="node">
<title>Node1</title>
<g id="a_node1"><a xlink:title=" ">
<polygon fill="#999999" stroke="#666666" points="655.5,-558 521.5,-558 521.5,-528 655.5,-528 655.5,-558"/>
<text text-anchor="start" x="529.5" y="-546" font-family="Helvetica,sans-Serif" font-size="10.00">src/Madgine/serialize</text>
<text text-anchor="middle" x="588.5" y="-535" font-family="Helvetica,sans-Serif" font-size="10.00">/filesystem/filemanager.cpp</text>
</a>
</g>
</g>
<!-- Node2 -->
<g id="node2" class="node">
<title>Node2</title>
<g id="a_node2"><a xlink:href="filesystemlib_8h.html" target="_top" xlink:title=" ">
<polygon fill="white" stroke="#666666" points="220,-486.5 143,-486.5 143,-467.5 220,-467.5 220,-486.5"/>
<text text-anchor="middle" x="181.5" y="-474.5" font-family="Helvetica,sans-Serif" font-size="10.00">filesystemlib.h</text>
</a>
</g>
</g>
<!-- Node1&#45;&gt;Node2 -->
<g id="edge1" class="edge">
<title>Node1&#45;&gt;Node2</title>
<path fill="none" stroke="#63b8ff" d="M521.29,-531.43C439.75,-518.61 304.16,-497.29 231.36,-485.84"/>
<polygon fill="#63b8ff" stroke="#63b8ff" points="232.15,-482.42 221.72,-484.33 231.06,-489.34 232.15,-482.42"/>
</g>
<!-- Node7 -->
<g id="node7" class="node">
<title>Node7</title>
<g id="a_node7"><a xlink:href="filemanager_8h.html" target="_top" xlink:title=" ">
<polygon fill="white" stroke="#666666" points="437.5,-486.5 363.5,-486.5 363.5,-467.5 437.5,-467.5 437.5,-486.5"/>
<text text-anchor="middle" x="400.5" y="-474.5" font-family="Helvetica,sans-Serif" font-size="10.00">filemanager.h</text>
</a>
</g>
</g>
<!-- Node1&#45;&gt;Node7 -->
<g id="edge6" class="edge">
<title>Node1&#45;&gt;Node7</title>
<path fill="none" stroke="#63b8ff" d="M546.31,-527.64C513.72,-516.54 469.05,-501.34 437.77,-490.69"/>
<polygon fill="#63b8ff" stroke="#63b8ff" points="438.92,-487.38 428.33,-487.47 436.67,-494.01 438.92,-487.38"/>
</g>
<!-- Node9 -->
<g id="node9" class="node">
<title>Node9</title>
<g id="a_node9"><a xlink:href="path_8h.html" target="_top" xlink:title=" ">
<polygon fill="white" stroke="#666666" points="519,-360 412,-360 412,-330 519,-330 519,-360"/>
<text text-anchor="start" x="420" y="-348" font-family="Helvetica,sans-Serif" font-size="10.00">Interfaces/filesystem</text>
<text text-anchor="middle" x="465.5" y="-337" font-family="Helvetica,sans-Serif" font-size="10.00">/path.h</text>
</a>
</g>
</g>
<!-- Node1&#45;&gt;Node9 -->
<g id="edge9" class="edge">
<title>Node1&#45;&gt;Node9</title>
<path fill="none" stroke="#63b8ff" d="M534.14,-527.58C515.6,-519.97 496.53,-508.64 484.5,-492 458.85,-456.52 459.02,-403.17 461.94,-371.74"/>
<polygon fill="#63b8ff" stroke="#63b8ff" points="465.39,-372.3 463.02,-361.98 458.44,-371.53 465.39,-372.3"/>
</g>
<!-- Node10 -->
<g id="node10" class="node">
<title>Node10</title>
<g id="a_node10"><a xlink:href="fsapi_8h.html" target="_top" xlink:title=" ">
<polygon fill="white" stroke="#666666" points="601,-492 494,-492 494,-462 601,-462 601,-492"/>
<text text-anchor="start" x="502" y="-480" font-family="Helvetica,sans-Serif" font-size="10.00">Interfaces/filesystem</text>
<text text-anchor="middle" x="547.5" y="-469" font-family="Helvetica,sans-Serif" font-size="10.00">/fsapi.h</text>
</a>
</g>
</g>
<!-- Node1&#45;&gt;Node10 -->
<g id="edge10" class="edge">
<title>Node1&#45;&gt;Node10</title>
<path fill="none" stroke="#63b8ff" d="M579.4,-527.8C574.52,-520.17 568.37,-510.57 562.78,-501.84"/>
<polygon fill="#63b8ff" stroke="#63b8ff" points="565.73,-499.97 557.39,-493.44 559.84,-503.75 565.73,-499.97"/>
</g>
<!-- Node13 -->
<g id="node13" class="node">
<title>Node13</title>
<g id="a_node13"><a xlink:href="serializestream_8h.html" target="_top" xlink:title=" ">
<polygon fill="white" stroke="#666666" points="725,-360 610,-360 610,-330 725,-330 725,-360"/>
<text text-anchor="start" x="618" y="-348" font-family="Helvetica,sans-Serif" font-size="10.00">Meta/serialize/streams</text>
<text text-anchor="middle" x="667.5" y="-337" font-family="Helvetica,sans-Serif" font-size="10.00">/serializestream.h</text>
</a>
</g>
</g>
<!-- Node1&#45;&gt;Node13 -->
<g id="edge14" class="edge">
<title>Node1&#45;&gt;Node13</title>
<path fill="none" stroke="#63b8ff" d="M594.64,-527.59C598.87,-517.62 604.59,-504.03 609.5,-492 626.89,-449.43 646.54,-399.6 657.92,-370.54"/>
<polygon fill="#63b8ff" stroke="#63b8ff" points="661.06,-372.13 661.44,-361.54 654.54,-369.58 661.06,-372.13"/>
</g>
<!-- Node23 -->
<g id="node23" class="node">
<title>Node23</title>
<g id="a_node23"><a xlink:href="formatter_8h.html" target="_top" xlink:title=" ">
<polygon fill="white" stroke="#666666" points="773,-426 658,-426 658,-396 773,-396 773,-426"/>
<text text-anchor="start" x="666" y="-414" font-family="Helvetica,sans-Serif" font-size="10.00">Meta/serialize/streams</text>
<text text-anchor="middle" x="715.5" y="-403" font-family="Helvetica,sans-Serif" font-size="10.00">/formatter.h</text>
</a>
</g>
</g>
<!-- Node1&#45;&gt;Node23 -->
<g id="edge26" class="edge">
<title>Node1&#45;&gt;Node23</title>
<path fill="none" stroke="#63b8ff" d="M605.27,-527.54C616.37,-517.77 631.12,-504.44 643.5,-492 662.07,-473.34 682.01,-450.98 696.19,-434.65"/>
<polygon fill="#63b8ff" stroke="#63b8ff" points="698.55,-437.27 702.44,-427.41 693.25,-432.7 698.55,-437.27"/>
</g>
<!-- Node24 -->
<g id="node24" class="node">
<title>Node24</title>
<g id="a_node24"><a xlink:href="serializestreamdata_8h.html" target="_top" xlink:title=" ">
<polygon fill="white" stroke="#666666" points="975,-360 860,-360 860,-330 975,-330 975,-360"/>
<text text-anchor="start" x="868" y="-348" font-family="Helvetica,sans-Serif" font-size="10.00">Meta/serialize/streams</text>
<text text-anchor="middle" x="917.5" y="-337" font-family="Helvetica,sans-Serif" font-size="10.00">/serializestreamdata.h</text>
</a>
</g>
</g>
<!-- Node1&#45;&gt;Node24 -->
<g id="edge28" class="edge">
<title>Node1&#45;&gt;Node24</title>
<path fill="none" stroke="#63b8ff" d="M655.88,-535.02C719.76,-527.26 810.06,-513 838.5,-492 879.18,-461.96 901.2,-404.52 911.04,-371.34"/>
<polygon fill="#63b8ff" stroke="#63b8ff" points="914.39,-372.35 913.72,-361.77 907.65,-370.46 914.39,-372.35"/>
</g>
<!-- Node25 -->
<g id="node25" class="node">
<title>Node25</title>
<g id="a_node25"><a xlink:href="formattedserializestream_8h.html" target="_top" xlink:title=" ">
<polygon fill="white" stroke="#666666" points="829.5,-492 695.5,-492 695.5,-462 829.5,-462 829.5,-492"/>
<text text-anchor="start" x="703.5" y="-480" font-family="Helvetica,sans-Serif" font-size="10.00">Meta/serialize/streams</text>
<text text-anchor="middle" x="762.5" y="-469" font-family="Helvetica,sans-Serif" font-size="10.00">/formattedserializestream.h</text>
</a>
</g>
</g>
<!-- Node1&#45;&gt;Node25 -->
<g id="edge30" class="edge">
<title>Node1&#45;&gt;Node25</title>
<path fill="none" stroke="#63b8ff" d="M627.55,-527.64C652.65,-518.41 685.49,-506.33 712.49,-496.39"/>
<polygon fill="#63b8ff" stroke="#63b8ff" points="713.68,-499.68 721.86,-492.95 711.27,-493.12 713.68,-499.68"/>
</g>
<!-- Node3 -->
<g id="node3" class="node">
<title>Node3</title>
<g id="a_node3"><a xlink:href="metalib_8h.html" target="_top" xlink:title=" ">
<polygon fill="white" stroke="#666666" points="221.5,-420.5 141.5,-420.5 141.5,-401.5 221.5,-401.5 221.5,-420.5"/>
<text text-anchor="middle" x="181.5" y="-408.5" font-family="Helvetica,sans-Serif" font-size="10.00">Meta/metalib.h</text>
</a>
</g>
</g>
<!-- Node2&#45;&gt;Node3 -->
<g id="edge2" class="edge">
<title>Node2&#45;&gt;Node3</title>
<path fill="none" stroke="#63b8ff" d="M181.5,-467.1C181.5,-458.12 181.5,-443.95 181.5,-432.22"/>
<polygon fill="#63b8ff" stroke="#63b8ff" points="185,-432.34 181.5,-422.34 178,-432.34 185,-432.34"/>
</g>
<!-- Node6 -->
<g id="node6" class="node">
<title>Node6</title>
<g id="a_node6"><a xlink:href="interfaceslib_8h.html" target="_top" xlink:title=" ">
<polygon fill="white" stroke="#666666" points="123,-420.5 0,-420.5 0,-401.5 123,-401.5 123,-420.5"/>
<text text-anchor="middle" x="61.5" y="-408.5" font-family="Helvetica,sans-Serif" font-size="10.00">Interfaces/interfaceslib.h</text>
</a>
</g>
</g>
<!-- Node2&#45;&gt;Node6 -->
<g id="edge5" class="edge">
<title>Node2&#45;&gt;Node6</title>
<path fill="none" stroke="#63b8ff" d="M164.81,-467.1C144.93,-456.5 111.47,-438.65 88.02,-426.15"/>
<polygon fill="#63b8ff" stroke="#63b8ff" points="89.85,-423.15 79.38,-421.54 86.56,-429.33 89.85,-423.15"/>
</g>
<!-- Node4 -->
<g id="node4" class="node">
<title>Node4</title>
<g id="a_node4"><a xlink:href="genericlib_8h.html" target="_top" xlink:title=" ">
<polygon fill="white" stroke="#666666" points="285.5,-354.5 183.5,-354.5 183.5,-335.5 285.5,-335.5 285.5,-354.5"/>
<text text-anchor="middle" x="234.5" y="-342.5" font-family="Helvetica,sans-Serif" font-size="10.00">Generic/genericlib.h</text>
</a>
</g>
</g>
<!-- Node3&#45;&gt;Node4 -->
<g id="edge3" class="edge">
<title>Node3&#45;&gt;Node4</title>
<path fill="none" stroke="#63b8ff" d="M188.87,-401.1C196.86,-391.45 209.82,-375.81 219.89,-363.65"/>
<polygon fill="#63b8ff" stroke="#63b8ff" points="222.55,-365.92 226.23,-355.99 217.15,-361.46 222.55,-365.92"/>
</g>
<!-- Node5 -->
<g id="node5" class="node">
<title>Node5</title>
<g id="a_node5"><a xlink:title=" ">
<polygon fill="#e0e0e0" stroke="#999999" points="165,-354.5 94,-354.5 94,-335.5 165,-335.5 165,-354.5"/>
<text text-anchor="middle" x="129.5" y="-342.5" font-family="Helvetica,sans-Serif" font-size="10.00">metaconfig.h</text>
</a>
</g>
</g>
<!-- Node3&#45;&gt;Node5 -->
<g id="edge4" class="edge">
<title>Node3&#45;&gt;Node5</title>
<path fill="none" stroke="#63b8ff" d="M174.27,-401.1C166.43,-391.45 153.72,-375.81 143.84,-363.65"/>
<polygon fill="#63b8ff" stroke="#63b8ff" points="146.65,-361.55 137.62,-356 141.21,-365.97 146.65,-361.55"/>
</g>
<!-- Node8 -->
<g id="node8" class="node">
<title>Node8</title>
<g id="a_node8"><a xlink:href="serializemanager_8h.html" target="_top" xlink:title=" ">
<polygon fill="white" stroke="#666666" points="399.5,-420.5 239.5,-420.5 239.5,-401.5 399.5,-401.5 399.5,-420.5"/>
<text text-anchor="middle" x="319.5" y="-408.5" font-family="Helvetica,sans-Serif" font-size="10.00">Meta/serialize/serializemanager.h</text>
</a>
</g>
</g>
<!-- Node7&#45;&gt;Node8 -->
<g id="edge7" class="edge">
<title>Node7&#45;&gt;Node8</title>
<path fill="none" stroke="#63b8ff" d="M389.24,-467.1C376.42,-456.98 355.24,-440.24 339.58,-427.87"/>
<polygon fill="#63b8ff" stroke="#63b8ff" points="341.87,-425.22 331.85,-421.76 337.53,-430.71 341.87,-425.22"/>
</g>
<!-- Node7&#45;&gt;Node9 -->
<g id="edge8" class="edge">
<title>Node7&#45;&gt;Node9</title>
<path fill="none" stroke="#63b8ff" d="M404.97,-467.06C414.78,-447.43 438.53,-399.94 453.19,-370.62"/>
<polygon fill="#63b8ff" stroke="#63b8ff" points="456.3,-372.23 457.64,-361.72 450.04,-369.1 456.3,-372.23"/>
</g>
<!-- Node11 -->
<g id="node11" class="node">
<title>Node11</title>
<g id="a_node11"><a xlink:href="stream_8h.html" target="_top" xlink:title=" ">
<polygon fill="white" stroke="#666666" points="597,-294 506,-294 506,-275 597,-275 597,-294"/>
<text text-anchor="middle" x="551.5" y="-282" font-family="Helvetica,sans-Serif" font-size="10.00">Generic/stream.h</text>
</a>
</g>
</g>
<!-- Node10&#45;&gt;Node11 -->
<g id="edge11" class="edge">
<title>Node10&#45;&gt;Node11</title>
<path fill="none" stroke="#63b8ff" d="M552.6,-461.78C555.87,-451.89 559.81,-438.32 561.5,-426 567.36,-383.33 560.43,-332.88 555.53,-305.54"/>
<polygon fill="#63b8ff" stroke="#63b8ff" points="559,-305.08 553.69,-295.91 552.12,-306.38 559,-305.08"/>
</g>
<!-- Node12 -->
<g id="node12" class="node">
<title>Node12</title>
<g id="a_node12"><a xlink:href="filequery_8h.html" target="_top" xlink:title=" ">
<polygon fill="white" stroke="#666666" points="553,-420.5 494,-420.5 494,-401.5 553,-401.5 553,-420.5"/>
<text text-anchor="middle" x="523.5" y="-408.5" font-family="Helvetica,sans-Serif" font-size="10.00">filequery.h</text>
</a>
</g>
</g>
<!-- Node10&#45;&gt;Node12 -->
<g id="edge12" class="edge">
<title>Node10&#45;&gt;Node12</title>
<path fill="none" stroke="#63b8ff" d="M542.17,-461.8C538.84,-452.89 534.49,-441.3 530.83,-431.54"/>
<polygon fill="#63b8ff" stroke="#63b8ff" points="534.14,-430.4 527.35,-422.26 527.58,-432.85 534.14,-430.4"/>
</g>
<!-- Node12&#45;&gt;Node9 -->
<g id="edge13" class="edge">
<title>Node12&#45;&gt;Node9</title>
<path fill="none" stroke="#63b8ff" d="M515.44,-401.1C507.87,-392.75 496.24,-379.92 486.1,-368.73"/>
<polygon fill="#63b8ff" stroke="#63b8ff" points="488.72,-366.41 479.42,-361.35 483.54,-371.12 488.72,-366.41"/>
</g>
<!-- Node13&#45;&gt;Node11 -->
<g id="edge15" class="edge">
<title>Node13&#45;&gt;Node11</title>
<path fill="none" stroke="#63b8ff" d="M638.83,-329.54C620.63,-320.36 597.2,-308.55 579.2,-299.47"/>
<polygon fill="#63b8ff" stroke="#63b8ff" points="580.9,-296.41 570.39,-295.03 577.75,-302.66 580.9,-296.41"/>
</g>
<!-- Node14 -->
<g id="node14" class="node">
<title>Node14</title>
<g id="a_node14"><a xlink:href="streamresult_8h.html" target="_top" xlink:title=" ">
<polygon fill="white" stroke="#666666" points="578.5,-239 500.5,-239 500.5,-220 578.5,-220 578.5,-239"/>
<text text-anchor="middle" x="539.5" y="-227" font-family="Helvetica,sans-Serif" font-size="10.00">streamresult.h</text>
</a>
</g>
</g>
<!-- Node13&#45;&gt;Node14 -->
<g id="edge16" class="edge">
<title>Node13&#45;&gt;Node14</title>
<path fill="none" stroke="#63b8ff" d="M656.3,-329.58C644.54,-314.92 625.06,-292.02 605.5,-275 592.83,-263.98 577.32,-253.39 564.52,-245.31"/>
<polygon fill="#63b8ff" stroke="#63b8ff" points="566.58,-242.47 556.23,-240.21 562.9,-248.43 566.58,-242.47"/>
</g>
<!-- Node19 -->
<g id="node19" class="node">
<title>Node19</title>
<g id="a_node19"><a xlink:href="serializableunitptr_8h.html" target="_top" xlink:title=" ">
<polygon fill="white" stroke="#666666" points="803,-294 654,-294 654,-275 803,-275 803,-294"/>
<text text-anchor="middle" x="728.5" y="-282" font-family="Helvetica,sans-Serif" font-size="10.00">../hierarchy/serializableunitptr.h</text>
</a>
</g>
</g>
<!-- Node13&#45;&gt;Node19 -->
<g id="edge21" class="edge">
<title>Node13&#45;&gt;Node19</title>
<path fill="none" stroke="#63b8ff" d="M682.58,-329.54C691.26,-321.22 702.2,-310.72 711.22,-302.07"/>
<polygon fill="#63b8ff" stroke="#63b8ff" points="713.57,-304.67 718.36,-295.22 708.72,-299.62 713.57,-304.67"/>
</g>
<!-- Node15 -->
<g id="node15" class="node">
<title>Node15</title>
<g id="a_node15"><a xlink:href="streamstate_8h.html" target="_top" xlink:title=" ">
<polygon fill="white" stroke="#666666" points="577.5,-184 501.5,-184 501.5,-165 577.5,-165 577.5,-184"/>
<text text-anchor="middle" x="539.5" y="-172" font-family="Helvetica,sans-Serif" font-size="10.00">streamstate.h</text>
</a>
</g>
</g>
<!-- Node14&#45;&gt;Node15 -->
<g id="edge17" class="edge">
<title>Node14&#45;&gt;Node15</title>
<path fill="none" stroke="#63b8ff" d="M539.5,-219.75C539.5,-213.27 539.5,-204.16 539.5,-195.9"/>
<polygon fill="#63b8ff" stroke="#63b8ff" points="543,-195.96 539.5,-185.96 536,-195.96 543,-195.96"/>
</g>
<!-- Node16 -->
<g id="node16" class="node">
<title>Node16</title>
<g id="a_node16"><a xlink:href="enum_8h.html" target="_top" xlink:title=" ">
<polygon fill="white" stroke="#666666" points="582,-129 497,-129 497,-110 582,-110 582,-129"/>
<text text-anchor="middle" x="539.5" y="-117" font-family="Helvetica,sans-Serif" font-size="10.00">Generic/enum.h</text>
</a>
</g>
</g>
<!-- Node15&#45;&gt;Node16 -->
<g id="edge18" class="edge">
<title>Node15&#45;&gt;Node16</title>
<path fill="none" stroke="#63b8ff" d="M539.5,-164.75C539.5,-158.27 539.5,-149.16 539.5,-140.9"/>
<polygon fill="#63b8ff" stroke="#63b8ff" points="543,-140.96 539.5,-130.96 536,-140.96 543,-140.96"/>
</g>
<!-- Node17 -->
<g id="node17" class="node">
<title>Node17</title>
<g id="a_node17"><a xlink:href="array_8h.html" target="_top" xlink:title=" ">
<polygon fill="white" stroke="#666666" points="571.5,-74 507.5,-74 507.5,-55 571.5,-55 571.5,-74"/>
<text text-anchor="middle" x="539.5" y="-62" font-family="Helvetica,sans-Serif" font-size="10.00">bits/array.h</text>
</a>
</g>
</g>
<!-- Node16&#45;&gt;Node17 -->
<g id="edge19" class="edge">
<title>Node16&#45;&gt;Node17</title>
<path fill="none" stroke="#63b8ff" d="M539.5,-109.75C539.5,-103.27 539.5,-94.16 539.5,-85.9"/>
<polygon fill="#63b8ff" stroke="#63b8ff" points="543,-85.96 539.5,-75.96 536,-85.96 543,-85.96"/>
</g>
<!-- Node18 -->
<g id="node18" class="node">
<title>Node18</title>
<g id="a_node18"><a xlink:href="types_8h.html" target="_top" xlink:title=" ">
<polygon fill="white" stroke="#666666" points="563,-19 516,-19 516,0 563,0 563,-19"/>
<text text-anchor="middle" x="539.5" y="-7" font-family="Helvetica,sans-Serif" font-size="10.00">types.h</text>
</a>
</g>
</g>
<!-- Node17&#45;&gt;Node18 -->
<g id="edge20" class="edge">
<title>Node17&#45;&gt;Node18</title>
<path fill="none" stroke="#63b8ff" d="M539.5,-54.75C539.5,-48.27 539.5,-39.16 539.5,-30.9"/>
<polygon fill="#63b8ff" stroke="#63b8ff" points="543,-30.96 539.5,-20.96 536,-30.96 543,-30.96"/>
</g>
<!-- Node19&#45;&gt;Node14 -->
<g id="edge24" class="edge">
<title>Node19&#45;&gt;Node14</title>
<path fill="none" stroke="#63b8ff" d="M696.44,-274.51C664.98,-265.69 616.82,-252.18 582.15,-242.46"/>
<polygon fill="#63b8ff" stroke="#63b8ff" points="583.43,-239.19 572.86,-239.85 581.54,-245.93 583.43,-239.19"/>
</g>
<!-- Node20 -->
<g id="node20" class="node">
<title>Node20</title>
<g id="a_node20"><a xlink:href="callerhierarchy_8h.html" target="_top" xlink:title=" ">
<polygon fill="white" stroke="#666666" points="720,-239 597,-239 597,-220 720,-220 720,-239"/>
<text text-anchor="middle" x="658.5" y="-227" font-family="Helvetica,sans-Serif" font-size="10.00">Generic/callerhierarchy.h</text>
</a>
</g>
</g>
<!-- Node19&#45;&gt;Node20 -->
<g id="edge22" class="edge">
<title>Node19&#45;&gt;Node20</title>
<path fill="none" stroke="#63b8ff" d="M716.63,-274.51C706.41,-266.77 691.43,-255.43 679.24,-246.2"/>
<polygon fill="#63b8ff" stroke="#63b8ff" points="681.49,-243.52 671.41,-240.27 677.27,-249.1 681.49,-243.52"/>
</g>
<!-- Node21 -->
<g id="node21" class="node">
<title>Node21</title>
<g id="a_node21"><a xlink:href="serializetable__forward_8h.html" target="_top" xlink:title=" ">
<polygon fill="white" stroke="#666666" points="856.5,-239 738.5,-239 738.5,-220 856.5,-220 856.5,-239"/>
<text text-anchor="middle" x="797.5" y="-227" font-family="Helvetica,sans-Serif" font-size="10.00">serializetable_forward.h</text>
</a>
</g>
</g>
<!-- Node19&#45;&gt;Node21 -->
<g id="edge23" class="edge">
<title>Node19&#45;&gt;Node21</title>
<path fill="none" stroke="#63b8ff" d="M740.2,-274.51C750.28,-266.77 765.04,-255.43 777.06,-246.2"/>
<polygon fill="#63b8ff" stroke="#63b8ff" points="778.97,-249.15 784.77,-240.28 774.71,-243.6 778.97,-249.15"/>
</g>
<!-- Node22 -->
<g id="node22" class="node">
<title>Node22</title>
<g id="a_node22"><a xlink:href="primitivetypes_8h.html" target="_top" xlink:title=" ">
<polygon fill="white" stroke="#666666" points="966.5,-239 874.5,-239 874.5,-220 966.5,-220 966.5,-239"/>
<text text-anchor="middle" x="920.5" y="-227" font-family="Helvetica,sans-Serif" font-size="10.00">../primitivetypes.h</text>
</a>
</g>
</g>
<!-- Node19&#45;&gt;Node22 -->
<g id="edge25" class="edge">
<title>Node19&#45;&gt;Node22</title>
<path fill="none" stroke="#63b8ff" d="M761.07,-274.51C793.03,-265.69 841.95,-252.18 877.18,-242.46"/>
<polygon fill="#63b8ff" stroke="#63b8ff" points="877.92,-245.88 886.63,-239.85 876.06,-239.14 877.92,-245.88"/>
</g>
<!-- Node23&#45;&gt;Node13 -->
<g id="edge27" class="edge">
<title>Node23&#45;&gt;Node13</title>
<path fill="none" stroke="#63b8ff" d="M704.85,-395.8C699.01,-388.01 691.62,-378.16 684.96,-369.28"/>
<polygon fill="#63b8ff" stroke="#63b8ff" points="687.83,-367.27 679.03,-361.37 682.23,-371.47 687.83,-367.27"/>
</g>
<!-- Node24&#45;&gt;Node19 -->
<g id="edge29" class="edge">
<title>Node24&#45;&gt;Node19</title>
<path fill="none" stroke="#63b8ff" d="M870.78,-329.54C839.28,-319.79 798.16,-307.06 768.24,-297.8"/>
<polygon fill="#63b8ff" stroke="#63b8ff" points="769.39,-294.49 758.8,-294.88 767.32,-301.18 769.39,-294.49"/>
</g>
<!-- Node25&#45;&gt;Node22 -->
<g id="edge32" class="edge">
<title>Node25&#45;&gt;Node22</title>
<path fill="none" stroke="#63b8ff" d="M770.82,-461.73C786.25,-435.4 820.58,-377.52 851.5,-330 870.26,-301.17 893.22,-268.56 907.35,-248.77"/>
<polygon fill="#63b8ff" stroke="#63b8ff" points="910.18,-250.83 913.16,-240.66 904.49,-246.75 910.18,-250.83"/>
</g>
<!-- Node25&#45;&gt;Node23 -->
<g id="edge31" class="edge">
<title>Node25&#45;&gt;Node23</title>
<path fill="none" stroke="#63b8ff" d="M752.07,-461.8C746.35,-454.01 739.11,-444.16 732.59,-435.28"/>
<polygon fill="#63b8ff" stroke="#63b8ff" points="735.54,-433.37 726.8,-427.38 729.9,-437.52 735.54,-433.37"/>
</g>
</g>
</svg>
        <g id="navigator" transform="translate(0 0)" fill="#404254">
                <rect fill="#f2f5e9" fill-opacity="0.5" stroke="#606060" stroke-width=".5" x="0" y="0" width="60" height="60"/>
                <use id="zoomplus" xlink:href="#zoomPlus" x="17" y="9" onmousedown="handleZoom(evt,'in')"/>
                <use id="zoomminus" xlink:href="#zoomMin" x="42" y="9" onmousedown="handleZoom(evt,'out')"/>
                <use id="reset" xlink:href="#resetDef" x="30" y="36" onmousedown="handleReset()"/>
                <g id="arrowUp" xlink:href="#dirArrow" transform="translate(30 24)" onmousedown="handlePan(0,-1)">
                  <use xlink:href="#rim" fill="#404040">
                        <set attributeName="fill" to="#808080" begin="arrowUp.mouseover" end="arrowUp.mouseout"/>
                  </use>
                  <path fill="none" stroke="white" stroke-width="1.5" d="M0,-3.0v7 M-2.5,-0.5L0,-3.0L2.5,-0.5"/>
                </g>
                <g id="arrowRight" xlink:href="#dirArrow" transform="rotate(90) translate(36 -43)" onmousedown="handlePan(1,0)">
                  <use xlink:href="#rim" fill="#404040">
                        <set attributeName="fill" to="#808080" begin="arrowRight.mouseover" end="arrowRight.mouseout"/>
                  </use>
                  <path fill="none" stroke="white" stroke-width="1.5" d="M0,-3.0v7 M-2.5,-0.5L0,-3.0L2.5,-0.5"/>
                </g>
                <g id="arrowDown" xlink:href="#dirArrow" transform="rotate(180) translate(-30 -48)" onmousedown="handlePan(0,1)">
                  <use xlink:href="#rim" fill="#404040">
                        <set attributeName="fill" to="#808080" begin="arrowDown.mouseover" end="arrowDown.mouseout"/>
                  </use>
                  <path fill="none" stroke="white" stroke-width="1.5" d="M0,-3.0v7 M-2.5,-0.5L0,-3.0L2.5,-0.5"/>
                </g>
                <g id="arrowLeft" xlink:href="#dirArrow" transform="rotate(270) translate(-36 17)" onmousedown="handlePan(-1,0)">
                  <use xlink:href="#rim" fill="#404040">
                        <set attributeName="fill" to="#808080" begin="arrowLeft.mouseover" end="arrowLeft.mouseout"/>
                  </use>
                  <path fill="none" stroke="white" stroke-width="1.5" d="M0,-3.0v7 M-2.5,-0.5L0,-3.0L2.5,-0.5"/>
                </g>
        </g>
        <svg viewBox="0 0 15 15" width="100%" height="30px" preserveAspectRatio="xMaxYMin meet">
         <g id="arrow_out" transform="scale(0.3 0.3)">
          <a xlink:href="filemanager_8cpp__incl_org.svg" target="_base">
           <rect id="button" ry="5" rx="5" y="6" x="6" height="38" width="38"
                fill="#f2f5e9" fill-opacity="0.5" stroke="#606060" stroke-width="1.0"/>
           <path id="arrow"
             d="M 11.500037,31.436501 C 11.940474,20.09759 22.043105,11.32322 32.158766,21.979434 L 37.068811,17.246167 C 37.068811,17.246167 37.088388,32 37.088388,32 L 22.160133,31.978069 C 22.160133,31.978069 26.997745,27.140456 26.997745,27.140456 C 18.528582,18.264221 13.291696,25.230495 11.500037,31.436501 z"
             style="fill:#404040;"/>
          </a>
         </g>
        </svg>
</svg>
