<?xml version="1.0" encoding="UTF-8" standalone="no"?>
<!DOCTYPE svg PUBLIC "-//W3C//DTD SVG 1.1//EN"
 "http://www.w3.org/Graphics/SVG/1.1/DTD/svg11.dtd">
<!-- Generated by graphviz version 7.0.5 (20221223.1930)
 -->
<!-- Title: src/Madgine/serialize/filesystem/filesystemlib.h Pages: 1 -->
<svg width="685pt" height="192pt"
 viewBox="0.00 0.00 685.00 192.00" xmlns="http://www.w3.org/2000/svg" xmlns:xlink="http://www.w3.org/1999/xlink">
<g id="graph0" class="graph" transform="scale(1 1) rotate(0) translate(4 188)">
<title>src/Madgine/serialize/filesystem/filesystemlib.h</title>
<!-- Node1 -->
<g id="node1" class="node">
<title>Node1</title>
<g id="a_node1"><a xlink:title=" ">
<polygon fill="#999999" stroke="#666666" points="396,-184 269,-184 269,-154 396,-154 396,-184"/>
<text text-anchor="start" x="277" y="-172" font-family="Helvetica,sans-Serif" font-size="10.00">src/Madgine/serialize</text>
<text text-anchor="middle" x="332.5" y="-161" font-family="Helvetica,sans-Serif" font-size="10.00">/filesystem/filesystemlib.h</text>
</a>
</g>
</g>
<!-- Node2 -->
<g id="node2" class="node">
<title>Node2</title>
<g id="a_node2"><a xlink:href="nodegraph_8cpp.html" target="_top" xlink:title=" ">
<polygon fill="white" stroke="#666666" points="187,-112.5 0,-112.5 0,-82.5 187,-82.5 187,-112.5"/>
<text text-anchor="start" x="8" y="-100.5" font-family="Helvetica,sans-Serif" font-size="10.00">plugins/behavior/nodegraph</text>
<text text-anchor="middle" x="93.5" y="-89.5" font-family="Helvetica,sans-Serif" font-size="10.00">/src/Madgine/nodegraph/nodegraph.cpp</text>
</a>
</g>
</g>
<!-- Node1&#45;&gt;Node2 -->
<g id="edge1" class="edge">
<title>Node1&#45;&gt;Node2</title>
<path fill="none" stroke="#63b8ff" d="M271.79,-150.35C232,-138.77 180.62,-123.83 143.25,-112.97"/>
<polygon fill="#63b8ff" stroke="#63b8ff" points="270.66,-153.66 281.24,-153.09 272.61,-146.94 270.66,-153.66"/>
</g>
<!-- Node3 -->
<g id="node3" class="node">
<title>Node3</title>
<g id="a_node3"><a xlink:href="mainwindow_8cpp.html" target="_top" xlink:title=" ">
<polygon fill="white" stroke="#666666" points="314,-118 205,-118 205,-77 314,-77 314,-118"/>
<text text-anchor="start" x="213" y="-106" font-family="Helvetica,sans-Serif" font-size="10.00">plugins/client/api</text>
<text text-anchor="start" x="213" y="-95" font-family="Helvetica,sans-Serif" font-size="10.00">/src/Madgine/window</text>
<text text-anchor="middle" x="259.5" y="-84" font-family="Helvetica,sans-Serif" font-size="10.00">/mainwindow.cpp</text>
</a>
</g>
</g>
<!-- Node1&#45;&gt;Node3 -->
<g id="edge2" class="edge">
<title>Node1&#45;&gt;Node3</title>
<path fill="none" stroke="#63b8ff" d="M309.32,-145.93C300.05,-137.1 289.45,-127.01 280.42,-118.42"/>
<polygon fill="#63b8ff" stroke="#63b8ff" points="306.62,-148.2 316.28,-152.56 311.45,-143.13 306.62,-148.2"/>
</g>
<!-- Node4 -->
<g id="node4" class="node">
<title>Node4</title>
<g id="a_node4"><a xlink:href="scenerenderertoolslib_8h.html" target="_top" xlink:title=" ">
<polygon fill="white" stroke="#666666" points="481,-118 332,-118 332,-77 481,-77 481,-118"/>
<text text-anchor="start" x="340" y="-106" font-family="Helvetica,sans-Serif" font-size="10.00">plugins/misc/scene</text>
<text text-anchor="start" x="340" y="-95" font-family="Helvetica,sans-Serif" font-size="10.00">/renderer_tools/Madgine</text>
<text text-anchor="middle" x="406.5" y="-84" font-family="Helvetica,sans-Serif" font-size="10.00">_Tools/scenerenderertoolslib.h</text>
</a>
</g>
</g>
<!-- Node1&#45;&gt;Node4 -->
<g id="edge3" class="edge">
<title>Node1&#45;&gt;Node4</title>
<path fill="none" stroke="#63b8ff" d="M356,-145.93C365.4,-137.1 376.14,-127.01 385.29,-118.42"/>
<polygon fill="#63b8ff" stroke="#63b8ff" points="353.83,-143.17 348.94,-152.56 358.62,-148.27 353.83,-143.17"/>
</g>
<!-- Node8 -->
<g id="node8" class="node">
<title>Node8</title>
<g id="a_node8"><a xlink:href="filemanager_8cpp.html" target="_top" xlink:title=" ">
<polygon fill="white" stroke="#666666" points="633.5,-112.5 499.5,-112.5 499.5,-82.5 633.5,-82.5 633.5,-112.5"/>
<text text-anchor="start" x="507.5" y="-100.5" font-family="Helvetica,sans-Serif" font-size="10.00">src/Madgine/serialize</text>
<text text-anchor="middle" x="566.5" y="-89.5" font-family="Helvetica,sans-Serif" font-size="10.00">/filesystem/filemanager.cpp</text>
</a>
</g>
</g>
<!-- Node1&#45;&gt;Node8 -->
<g id="edge7" class="edge">
<title>Node1&#45;&gt;Node8</title>
<path fill="none" stroke="#63b8ff" d="M392.19,-150.27C431.11,-138.71 481.28,-123.81 517.79,-112.97"/>
<polygon fill="#63b8ff" stroke="#63b8ff" points="391.31,-146.88 382.72,-153.08 393.3,-153.59 391.31,-146.88"/>
</g>
<!-- Node5 -->
<g id="node5" class="node">
<title>Node5</title>
<g id="a_node5"><a xlink:href="gridpass_8cpp.html" target="_top" xlink:title=" ">
<polygon fill="white" stroke="#666666" points="303,-41 146,-41 146,0 303,0 303,-41"/>
<text text-anchor="start" x="154" y="-29" font-family="Helvetica,sans-Serif" font-size="10.00">plugins/misc/scene</text>
<text text-anchor="start" x="154" y="-18" font-family="Helvetica,sans-Serif" font-size="10.00">/renderer_tools/Madgine</text>
<text text-anchor="middle" x="224.5" y="-7" font-family="Helvetica,sans-Serif" font-size="10.00">_Tools/sceneeditor/gridpass.cpp</text>
</a>
</g>
</g>
<!-- Node4&#45;&gt;Node5 -->
<g id="edge4" class="edge">
<title>Node4&#45;&gt;Node5</title>
<path fill="none" stroke="#63b8ff" d="M347.74,-72.29C323.6,-62.34 295.98,-50.96 273.02,-41.49"/>
<polygon fill="#63b8ff" stroke="#63b8ff" points="346.23,-75.45 356.81,-76.02 348.89,-68.98 346.23,-75.45"/>
</g>
<!-- Node6 -->
<g id="node6" class="node">
<title>Node6</title>
<g id="a_node6"><a xlink:href="sceneeditor_8cpp.html" target="_top" xlink:title=" ">
<polygon fill="white" stroke="#666666" points="491.5,-41 321.5,-41 321.5,0 491.5,0 491.5,-41"/>
<text text-anchor="start" x="329.5" y="-29" font-family="Helvetica,sans-Serif" font-size="10.00">plugins/misc/scene</text>
<text text-anchor="start" x="329.5" y="-18" font-family="Helvetica,sans-Serif" font-size="10.00">/renderer_tools/Madgine</text>
<text text-anchor="middle" x="406.5" y="-7" font-family="Helvetica,sans-Serif" font-size="10.00">_Tools/sceneeditor/sceneeditor.cpp</text>
</a>
</g>
</g>
<!-- Node4&#45;&gt;Node6 -->
<g id="edge5" class="edge">
<title>Node4&#45;&gt;Node6</title>
<path fill="none" stroke="#63b8ff" d="M406.5,-65.36C406.5,-57.24 406.5,-48.7 406.5,-41.33"/>
<polygon fill="#63b8ff" stroke="#63b8ff" points="403,-65.28 406.5,-75.28 410,-65.28 403,-65.28"/>
</g>
<!-- Node7 -->
<g id="node7" class="node">
<title>Node7</title>
<g id="a_node7"><a xlink:href="sceneview_8cpp.html" target="_top" xlink:title=" ">
<polygon fill="white" stroke="#666666" points="677,-41 510,-41 510,0 677,0 677,-41"/>
<text text-anchor="start" x="518" y="-29" font-family="Helvetica,sans-Serif" font-size="10.00">plugins/misc/scene</text>
<text text-anchor="start" x="518" y="-18" font-family="Helvetica,sans-Serif" font-size="10.00">/renderer_tools/Madgine</text>
<text text-anchor="middle" x="593.5" y="-7" font-family="Helvetica,sans-Serif" font-size="10.00">_Tools/sceneeditor/sceneview.cpp</text>
</a>
</g>
</g>
<!-- Node4&#45;&gt;Node7 -->
<g id="edge6" class="edge">
<title>Node4&#45;&gt;Node7</title>
<path fill="none" stroke="#63b8ff" d="M466.54,-72.42C491.42,-62.44 519.95,-51 543.65,-41.49"/>
<polygon fill="#63b8ff" stroke="#63b8ff" points="465.5,-69.06 457.53,-76.03 468.11,-75.56 465.5,-69.06"/>
</g>
</g>
</svg>
