<?xml version="1.0" encoding="UTF-8" standalone="no"?>
<!DOCTYPE svg PUBLIC "-//W3C//DTD SVG 1.1//EN"
 "http://www.w3.org/Graphics/SVG/1.1/DTD/svg11.dtd">
<!-- Generated by graphviz version 7.0.5 (20221223.1930)
 -->
<!-- Title: src/Meta/serialize/streams/formattedserializestream.h Pages: 1 -->
<svg width="499pt" height="478pt"
 viewBox="0.00 0.00 498.50 478.00" xmlns="http://www.w3.org/2000/svg" xmlns:xlink="http://www.w3.org/1999/xlink">
<g id="graph0" class="graph" transform="scale(1 1) rotate(0) translate(4 474)">
<title>src/Meta/serialize/streams/formattedserializestream.h</title>
<!-- Node1 -->
<g id="node1" class="node">
<title>Node1</title>
<g id="a_node1"><a xlink:title=" ">
<polygon fill="#999999" stroke="#666666" points="439.5,-470 267.5,-470 267.5,-440 439.5,-440 439.5,-470"/>
<text text-anchor="start" x="275.5" y="-458" font-family="Helvetica,sans-Serif" font-size="10.00">src/Meta/serialize</text>
<text text-anchor="middle" x="353.5" y="-447" font-family="Helvetica,sans-Serif" font-size="10.00">/streams/formattedserializestream.h</text>
</a>
</g>
</g>
<!-- Node2 -->
<g id="node2" class="node">
<title>Node2</title>
<g id="a_node2"><a xlink:href="formatter_8h.html" target="_top" xlink:title=" ">
<polygon fill="white" stroke="#666666" points="355,-404 292,-404 292,-385 355,-385 355,-404"/>
<text text-anchor="middle" x="323.5" y="-392" font-family="Helvetica,sans-Serif" font-size="10.00">formatter.h</text>
</a>
</g>
</g>
<!-- Node1&#45;&gt;Node2 -->
<g id="edge1" class="edge">
<title>Node1&#45;&gt;Node2</title>
<path fill="none" stroke="#63b8ff" d="M346.08,-439.54C342.17,-431.91 337.32,-422.46 333.13,-414.27"/>
<polygon fill="#63b8ff" stroke="#63b8ff" points="336.32,-412.82 328.64,-405.52 330.09,-416.02 336.32,-412.82"/>
</g>
<!-- Node13 -->
<g id="node13" class="node">
<title>Node13</title>
<g id="a_node13"><a xlink:href="primitivetypes_8h.html" target="_top" xlink:title=" ">
<polygon fill="white" stroke="#666666" points="490.5,-239 398.5,-239 398.5,-220 490.5,-220 490.5,-239"/>
<text text-anchor="middle" x="444.5" y="-227" font-family="Helvetica,sans-Serif" font-size="10.00">../primitivetypes.h</text>
</a>
</g>
</g>
<!-- Node1&#45;&gt;Node13 -->
<g id="edge14" class="edge">
<title>Node1&#45;&gt;Node13</title>
<path fill="none" stroke="#63b8ff" d="M359.33,-439.68C375.11,-400.93 418.65,-293.98 436.6,-249.89"/>
<polygon fill="#63b8ff" stroke="#63b8ff" points="439.84,-251.21 440.37,-240.63 433.36,-248.58 439.84,-251.21"/>
</g>
<!-- Node3 -->
<g id="node3" class="node">
<title>Node3</title>
<g id="a_node3"><a xlink:href="serializestream_8h.html" target="_top" xlink:title=" ">
<polygon fill="white" stroke="#666666" points="216,-349 127,-349 127,-330 216,-330 216,-349"/>
<text text-anchor="middle" x="171.5" y="-337" font-family="Helvetica,sans-Serif" font-size="10.00">serializestream.h</text>
</a>
</g>
</g>
<!-- Node2&#45;&gt;Node3 -->
<g id="edge2" class="edge">
<title>Node2&#45;&gt;Node3</title>
<path fill="none" stroke="#63b8ff" d="M297.72,-384.51C273.07,-375.92 235.69,-362.88 207.99,-353.22"/>
<polygon fill="#63b8ff" stroke="#63b8ff" points="209.18,-349.93 198.59,-349.94 206.88,-356.54 209.18,-349.93"/>
</g>
<!-- Node4 -->
<g id="node4" class="node">
<title>Node4</title>
<g id="a_node4"><a xlink:href="stream_8h.html" target="_top" xlink:title=" ">
<polygon fill="white" stroke="#666666" points="91,-294 0,-294 0,-275 91,-275 91,-294"/>
<text text-anchor="middle" x="45.5" y="-282" font-family="Helvetica,sans-Serif" font-size="10.00">Generic/stream.h</text>
</a>
</g>
</g>
<!-- Node3&#45;&gt;Node4 -->
<g id="edge3" class="edge">
<title>Node3&#45;&gt;Node4</title>
<path fill="none" stroke="#63b8ff" d="M150.13,-329.51C130.09,-321.08 99.9,-308.38 77.09,-298.79"/>
<polygon fill="#63b8ff" stroke="#63b8ff" points="78.53,-295.6 67.95,-294.94 75.81,-302.05 78.53,-295.6"/>
</g>
<!-- Node5 -->
<g id="node5" class="node">
<title>Node5</title>
<g id="a_node5"><a xlink:href="streamresult_8h.html" target="_top" xlink:title=" ">
<polygon fill="white" stroke="#666666" points="102.5,-239 24.5,-239 24.5,-220 102.5,-220 102.5,-239"/>
<text text-anchor="middle" x="63.5" y="-227" font-family="Helvetica,sans-Serif" font-size="10.00">streamresult.h</text>
</a>
</g>
</g>
<!-- Node3&#45;&gt;Node5 -->
<g id="edge4" class="edge">
<title>Node3&#45;&gt;Node5</title>
<path fill="none" stroke="#63b8ff" d="M162.66,-329.66C144.7,-311.7 103.69,-270.69 80.42,-247.42"/>
<polygon fill="#63b8ff" stroke="#63b8ff" points="83.08,-245.13 73.53,-240.53 78.13,-250.08 83.08,-245.13"/>
</g>
<!-- Node10 -->
<g id="node10" class="node">
<title>Node10</title>
<g id="a_node10"><a xlink:href="serializableunitptr_8h.html" target="_top" xlink:title=" ">
<polygon fill="white" stroke="#666666" points="297,-294 148,-294 148,-275 297,-275 297,-294"/>
<text text-anchor="middle" x="222.5" y="-282" font-family="Helvetica,sans-Serif" font-size="10.00">../hierarchy/serializableunitptr.h</text>
</a>
</g>
</g>
<!-- Node3&#45;&gt;Node10 -->
<g id="edge9" class="edge">
<title>Node3&#45;&gt;Node10</title>
<path fill="none" stroke="#63b8ff" d="M179.92,-329.75C186.97,-322.43 197.23,-311.76 205.91,-302.74"/>
<polygon fill="#63b8ff" stroke="#63b8ff" points="208.43,-305.17 212.85,-295.53 203.39,-300.31 208.43,-305.17"/>
</g>
<!-- Node6 -->
<g id="node6" class="node">
<title>Node6</title>
<g id="a_node6"><a xlink:href="streamstate_8h.html" target="_top" xlink:title=" ">
<polygon fill="white" stroke="#666666" points="101.5,-184 25.5,-184 25.5,-165 101.5,-165 101.5,-184"/>
<text text-anchor="middle" x="63.5" y="-172" font-family="Helvetica,sans-Serif" font-size="10.00">streamstate.h</text>
</a>
</g>
</g>
<!-- Node5&#45;&gt;Node6 -->
<g id="edge5" class="edge">
<title>Node5&#45;&gt;Node6</title>
<path fill="none" stroke="#63b8ff" d="M63.5,-219.75C63.5,-213.27 63.5,-204.16 63.5,-195.9"/>
<polygon fill="#63b8ff" stroke="#63b8ff" points="67,-195.96 63.5,-185.96 60,-195.96 67,-195.96"/>
</g>
<!-- Node7 -->
<g id="node7" class="node">
<title>Node7</title>
<g id="a_node7"><a xlink:href="enum_8h.html" target="_top" xlink:title=" ">
<polygon fill="white" stroke="#666666" points="106,-129 21,-129 21,-110 106,-110 106,-129"/>
<text text-anchor="middle" x="63.5" y="-117" font-family="Helvetica,sans-Serif" font-size="10.00">Generic/enum.h</text>
</a>
</g>
</g>
<!-- Node6&#45;&gt;Node7 -->
<g id="edge6" class="edge">
<title>Node6&#45;&gt;Node7</title>
<path fill="none" stroke="#63b8ff" d="M63.5,-164.75C63.5,-158.27 63.5,-149.16 63.5,-140.9"/>
<polygon fill="#63b8ff" stroke="#63b8ff" points="67,-140.96 63.5,-130.96 60,-140.96 67,-140.96"/>
</g>
<!-- Node8 -->
<g id="node8" class="node">
<title>Node8</title>
<g id="a_node8"><a xlink:href="array_8h.html" target="_top" xlink:title=" ">
<polygon fill="white" stroke="#666666" points="95.5,-74 31.5,-74 31.5,-55 95.5,-55 95.5,-74"/>
<text text-anchor="middle" x="63.5" y="-62" font-family="Helvetica,sans-Serif" font-size="10.00">bits/array.h</text>
</a>
</g>
</g>
<!-- Node7&#45;&gt;Node8 -->
<g id="edge7" class="edge">
<title>Node7&#45;&gt;Node8</title>
<path fill="none" stroke="#63b8ff" d="M63.5,-109.75C63.5,-103.27 63.5,-94.16 63.5,-85.9"/>
<polygon fill="#63b8ff" stroke="#63b8ff" points="67,-85.96 63.5,-75.96 60,-85.96 67,-85.96"/>
</g>
<!-- Node9 -->
<g id="node9" class="node">
<title>Node9</title>
<g id="a_node9"><a xlink:href="types_8h.html" target="_top" xlink:title=" ">
<polygon fill="white" stroke="#666666" points="87,-19 40,-19 40,0 87,0 87,-19"/>
<text text-anchor="middle" x="63.5" y="-7" font-family="Helvetica,sans-Serif" font-size="10.00">types.h</text>
</a>
</g>
</g>
<!-- Node8&#45;&gt;Node9 -->
<g id="edge8" class="edge">
<title>Node8&#45;&gt;Node9</title>
<path fill="none" stroke="#63b8ff" d="M63.5,-54.75C63.5,-48.27 63.5,-39.16 63.5,-30.9"/>
<polygon fill="#63b8ff" stroke="#63b8ff" points="67,-30.96 63.5,-20.96 60,-30.96 67,-30.96"/>
</g>
<!-- Node10&#45;&gt;Node5 -->
<g id="edge12" class="edge">
<title>Node10&#45;&gt;Node5</title>
<path fill="none" stroke="#63b8ff" d="M195.53,-274.51C169.52,-265.84 129.95,-252.65 100.9,-242.97"/>
<polygon fill="#63b8ff" stroke="#63b8ff" points="102.37,-239.77 91.77,-239.92 100.15,-246.41 102.37,-239.77"/>
</g>
<!-- Node11 -->
<g id="node11" class="node">
<title>Node11</title>
<g id="a_node11"><a xlink:href="callerhierarchy_8h.html" target="_top" xlink:title=" ">
<polygon fill="white" stroke="#666666" points="244,-239 121,-239 121,-220 244,-220 244,-239"/>
<text text-anchor="middle" x="182.5" y="-227" font-family="Helvetica,sans-Serif" font-size="10.00">Generic/callerhierarchy.h</text>
</a>
</g>
</g>
<!-- Node10&#45;&gt;Node11 -->
<g id="edge10" class="edge">
<title>Node10&#45;&gt;Node11</title>
<path fill="none" stroke="#63b8ff" d="M215.89,-274.75C210.54,-267.66 202.82,-257.42 196.15,-248.59"/>
<polygon fill="#63b8ff" stroke="#63b8ff" points="198.98,-246.52 190.16,-240.65 193.39,-250.74 198.98,-246.52"/>
</g>
<!-- Node12 -->
<g id="node12" class="node">
<title>Node12</title>
<g id="a_node12"><a xlink:href="serializetable__forward_8h.html" target="_top" xlink:title=" ">
<polygon fill="white" stroke="#666666" points="380.5,-239 262.5,-239 262.5,-220 380.5,-220 380.5,-239"/>
<text text-anchor="middle" x="321.5" y="-227" font-family="Helvetica,sans-Serif" font-size="10.00">serializetable_forward.h</text>
</a>
</g>
</g>
<!-- Node10&#45;&gt;Node12 -->
<g id="edge11" class="edge">
<title>Node10&#45;&gt;Node12</title>
<path fill="none" stroke="#63b8ff" d="M239.29,-274.51C254.6,-266.31 277.47,-254.07 295.2,-244.58"/>
<polygon fill="#63b8ff" stroke="#63b8ff" points="296.46,-247.88 303.62,-240.07 293.15,-241.71 296.46,-247.88"/>
</g>
<!-- Node10&#45;&gt;Node13 -->
<g id="edge13" class="edge">
<title>Node10&#45;&gt;Node13</title>
<path fill="none" stroke="#63b8ff" d="M260.16,-274.51C297.59,-265.57 355.15,-251.83 395.98,-242.08"/>
<polygon fill="#63b8ff" stroke="#63b8ff" points="396.64,-245.52 405.55,-239.8 395.02,-238.72 396.64,-245.52"/>
</g>
</g>
</svg>
