<?xml version="1.0" encoding="UTF-8" standalone="no"?>
<!DOCTYPE svg PUBLIC "-//W3C//DTD SVG 1.1//EN"
 "http://www.w3.org/Graphics/SVG/1.1/DTD/svg11.dtd">
<!-- Generated by graphviz version 7.0.5 (20221223.1930)
 -->
<!-- Title: src/Meta/serialize/streams/formattedmessagestream.h Pages: 1 -->
<!--zoomable 533 -->
<svg id="main" version="1.1" xmlns="http://www.w3.org/2000/svg" xmlns:xlink="http://www.w3.org/1999/xlink" xml:space="preserve" onload="init(evt)">
<style type="text/css"><![CDATA[
.edge:hover path { stroke: red; }
.edge:hover polygon { stroke: red; fill: red; }
]]></style>
<script type="text/javascript"><![CDATA[
var edges = document.getElementsByTagName('g');
if (edges && edges.length) {
  for (var i=0;i<edges.length;i++) {
    if (edges[i].id.substr(0,4)=='edge') {
      edges[i].setAttribute('class','edge');
    }
  }
}
]]></script>
        <defs>
                <circle id="rim" cx="0" cy="0" r="7"/>
                <circle id="rim2" cx="0" cy="0" r="3.5"/>
                <g id="zoomPlus">
                        <use xlink:href="#rim" fill="#404040">
                                <set attributeName="fill" to="#808080" begin="zoomplus.mouseover" end="zoomplus.mouseout"/>
                        </use>
                        <path d="M-4,0h8M0,-4v8" fill="none" stroke="white" stroke-width="1.5" pointer-events="none"/>
                </g>
                <g id="zoomMin">
                        <use xlink:href="#rim" fill="#404040">
                                <set attributeName="fill" to="#808080" begin="zoomminus.mouseover" end="zoomminus.mouseout"/>
                        </use>
                        <path d="M-4,0h8" fill="none" stroke="white" stroke-width="1.5" pointer-events="none"/>
                </g>
                <g id="dirArrow">
                        <path fill="none" stroke="white" stroke-width="1.5" d="M0,-3.0v7 M-2.5,-0.5L0,-3.0L2.5,-0.5"/>
                </g>
               <g id="resetDef">
                       <use xlink:href="#rim2" fill="#404040">
                               <set attributeName="fill" to="#808080" begin="reset.mouseover" end="reset.mouseout"/>
                       </use>
               </g>
        </defs>

<script type="text/javascript">
var viewWidth = 923;
var viewHeight = 533;
var sectionId = 'dynsection-0';
</script>
<script xlink:href="svgpan.js"/>
<svg id="graph" class="graph">
<g id="viewport">
<title>src/Meta/serialize/streams/formattedmessagestream.h</title>
<!-- Node1 -->
<g id="node1" class="node">
<title>Node1</title>
<g id="a_node1"><a xlink:title=" ">
<polygon fill="#999999" stroke="#666666" points="543.5,-525 367.5,-525 367.5,-495 543.5,-495 543.5,-525"/>
<text text-anchor="start" x="375.5" y="-513" font-family="Helvetica,sans-Serif" font-size="10.00">src/Meta/serialize</text>
<text text-anchor="middle" x="455.5" y="-502" font-family="Helvetica,sans-Serif" font-size="10.00">/streams/formattedmessagestream.h</text>
</a>
</g>
</g>
<!-- Node2 -->
<g id="node2" class="node">
<title>Node2</title>
<g id="a_node2"><a xlink:href="formattedserializestream_8h.html" target="_top" xlink:title=" ">
<polygon fill="white" stroke="#666666" points="448,-459 317,-459 317,-440 448,-440 448,-459"/>
<text text-anchor="middle" x="382.5" y="-447" font-family="Helvetica,sans-Serif" font-size="10.00">formattedserializestream.h</text>
</a>
</g>
</g>
<!-- Node1&#45;&gt;Node2 -->
<g id="edge1" class="edge">
<title>Node1&#45;&gt;Node2</title>
<path fill="none" stroke="#63b8ff" d="M437.46,-494.54C426.74,-485.96 413.16,-475.07 402.17,-466.26"/>
<polygon fill="#63b8ff" stroke="#63b8ff" points="404.5,-463.64 394.51,-460.12 400.12,-469.11 404.5,-463.64"/>
</g>
<!-- Node15 -->
<g id="node15" class="node">
<title>Node15</title>
<g id="a_node15"><a xlink:href="pendingrequest_8h.html" target="_top" xlink:title=" ">
<polygon fill="white" stroke="#666666" points="628.5,-459 538.5,-459 538.5,-440 628.5,-440 628.5,-459"/>
<text text-anchor="middle" x="583.5" y="-447" font-family="Helvetica,sans-Serif" font-size="10.00">pendingrequest.h</text>
</a>
</g>
</g>
<!-- Node1&#45;&gt;Node15 -->
<g id="edge16" class="edge">
<title>Node1&#45;&gt;Node15</title>
<path fill="none" stroke="#63b8ff" d="M487.14,-494.54C507.5,-485.23 533.8,-473.22 553.77,-464.09"/>
<polygon fill="#63b8ff" stroke="#63b8ff" points="555.13,-467.32 562.77,-459.98 552.22,-460.95 555.13,-467.32"/>
</g>
<!-- Node3 -->
<g id="node3" class="node">
<title>Node3</title>
<g id="a_node3"><a xlink:href="formatter_8h.html" target="_top" xlink:title=" ">
<polygon fill="white" stroke="#666666" points="281,-404 218,-404 218,-385 281,-385 281,-404"/>
<text text-anchor="middle" x="249.5" y="-392" font-family="Helvetica,sans-Serif" font-size="10.00">formatter.h</text>
</a>
</g>
</g>
<!-- Node2&#45;&gt;Node3 -->
<g id="edge2" class="edge">
<title>Node2&#45;&gt;Node3</title>
<path fill="none" stroke="#63b8ff" d="M359.94,-439.51C338.6,-431.01 306.34,-418.15 282.19,-408.53"/>
<polygon fill="#63b8ff" stroke="#63b8ff" points="283.72,-405.37 273.13,-404.92 281.13,-411.87 283.72,-405.37"/>
</g>
<!-- Node14 -->
<g id="node14" class="node">
<title>Node14</title>
<g id="a_node14"><a xlink:href="primitivetypes_8h.html" target="_top" xlink:title=" ">
<polygon fill="white" stroke="#666666" points="503.5,-239 411.5,-239 411.5,-220 503.5,-220 503.5,-239"/>
<text text-anchor="middle" x="457.5" y="-227" font-family="Helvetica,sans-Serif" font-size="10.00">../primitivetypes.h</text>
</a>
</g>
</g>
<!-- Node2&#45;&gt;Node14 -->
<g id="edge15" class="edge">
<title>Node2&#45;&gt;Node14</title>
<path fill="none" stroke="#63b8ff" d="M385.35,-439.55C391.67,-419.75 407.43,-370.74 421.5,-330 431.13,-302.1 442.85,-270.03 450.25,-250.02"/>
<polygon fill="#63b8ff" stroke="#63b8ff" points="453.52,-251.27 453.71,-240.67 446.95,-248.83 453.52,-251.27"/>
</g>
<!-- Node4 -->
<g id="node4" class="node">
<title>Node4</title>
<g id="a_node4"><a xlink:href="serializestream_8h.html" target="_top" xlink:title=" ">
<polygon fill="white" stroke="#666666" points="216,-349 127,-349 127,-330 216,-330 216,-349"/>
<text text-anchor="middle" x="171.5" y="-337" font-family="Helvetica,sans-Serif" font-size="10.00">serializestream.h</text>
</a>
</g>
</g>
<!-- Node3&#45;&gt;Node4 -->
<g id="edge3" class="edge">
<title>Node3&#45;&gt;Node4</title>
<path fill="none" stroke="#63b8ff" d="M236.27,-384.51C224.66,-376.62 207.53,-364.98 193.8,-355.65"/>
<polygon fill="#63b8ff" stroke="#63b8ff" points="196.03,-352.93 185.79,-350.21 192.09,-358.72 196.03,-352.93"/>
</g>
<!-- Node5 -->
<g id="node5" class="node">
<title>Node5</title>
<g id="a_node5"><a xlink:href="stream_8h.html" target="_top" xlink:title=" ">
<polygon fill="white" stroke="#666666" points="91,-294 0,-294 0,-275 91,-275 91,-294"/>
<text text-anchor="middle" x="45.5" y="-282" font-family="Helvetica,sans-Serif" font-size="10.00">Generic/stream.h</text>
</a>
</g>
</g>
<!-- Node4&#45;&gt;Node5 -->
<g id="edge4" class="edge">
<title>Node4&#45;&gt;Node5</title>
<path fill="none" stroke="#63b8ff" d="M150.13,-329.51C130.09,-321.08 99.9,-308.38 77.09,-298.79"/>
<polygon fill="#63b8ff" stroke="#63b8ff" points="78.53,-295.6 67.95,-294.94 75.81,-302.05 78.53,-295.6"/>
</g>
<!-- Node6 -->
<g id="node6" class="node">
<title>Node6</title>
<g id="a_node6"><a xlink:href="streamresult_8h.html" target="_top" xlink:title=" ">
<polygon fill="white" stroke="#666666" points="115.5,-239 37.5,-239 37.5,-220 115.5,-220 115.5,-239"/>
<text text-anchor="middle" x="76.5" y="-227" font-family="Helvetica,sans-Serif" font-size="10.00">streamresult.h</text>
</a>
</g>
</g>
<!-- Node4&#45;&gt;Node6 -->
<g id="edge5" class="edge">
<title>Node4&#45;&gt;Node6</title>
<path fill="none" stroke="#63b8ff" d="M163.73,-329.66C148.07,-311.86 112.48,-271.41 91.93,-248.04"/>
<polygon fill="#63b8ff" stroke="#63b8ff" points="94.61,-245.79 85.38,-240.6 89.36,-250.42 94.61,-245.79"/>
</g>
<!-- Node11 -->
<g id="node11" class="node">
<title>Node11</title>
<g id="a_node11"><a xlink:href="serializableunitptr_8h.html" target="_top" xlink:title=" ">
<polygon fill="white" stroke="#666666" points="297,-294 148,-294 148,-275 297,-275 297,-294"/>
<text text-anchor="middle" x="222.5" y="-282" font-family="Helvetica,sans-Serif" font-size="10.00">../hierarchy/serializableunitptr.h</text>
</a>
</g>
</g>
<!-- Node4&#45;&gt;Node11 -->
<g id="edge10" class="edge">
<title>Node4&#45;&gt;Node11</title>
<path fill="none" stroke="#63b8ff" d="M179.92,-329.75C186.97,-322.43 197.23,-311.76 205.91,-302.74"/>
<polygon fill="#63b8ff" stroke="#63b8ff" points="208.43,-305.17 212.85,-295.53 203.39,-300.31 208.43,-305.17"/>
</g>
<!-- Node7 -->
<g id="node7" class="node">
<title>Node7</title>
<g id="a_node7"><a xlink:href="streamstate_8h.html" target="_top" xlink:title=" ">
<polygon fill="white" stroke="#666666" points="114.5,-184 38.5,-184 38.5,-165 114.5,-165 114.5,-184"/>
<text text-anchor="middle" x="76.5" y="-172" font-family="Helvetica,sans-Serif" font-size="10.00">streamstate.h</text>
</a>
</g>
</g>
<!-- Node6&#45;&gt;Node7 -->
<g id="edge6" class="edge">
<title>Node6&#45;&gt;Node7</title>
<path fill="none" stroke="#63b8ff" d="M76.5,-219.75C76.5,-213.27 76.5,-204.16 76.5,-195.9"/>
<polygon fill="#63b8ff" stroke="#63b8ff" points="80,-195.96 76.5,-185.96 73,-195.96 80,-195.96"/>
</g>
<!-- Node8 -->
<g id="node8" class="node">
<title>Node8</title>
<g id="a_node8"><a xlink:href="enum_8h.html" target="_top" xlink:title=" ">
<polygon fill="white" stroke="#666666" points="119,-129 34,-129 34,-110 119,-110 119,-129"/>
<text text-anchor="middle" x="76.5" y="-117" font-family="Helvetica,sans-Serif" font-size="10.00">Generic/enum.h</text>
</a>
</g>
</g>
<!-- Node7&#45;&gt;Node8 -->
<g id="edge7" class="edge">
<title>Node7&#45;&gt;Node8</title>
<path fill="none" stroke="#63b8ff" d="M76.5,-164.75C76.5,-158.27 76.5,-149.16 76.5,-140.9"/>
<polygon fill="#63b8ff" stroke="#63b8ff" points="80,-140.96 76.5,-130.96 73,-140.96 80,-140.96"/>
</g>
<!-- Node9 -->
<g id="node9" class="node">
<title>Node9</title>
<g id="a_node9"><a xlink:href="array_8h.html" target="_top" xlink:title=" ">
<polygon fill="white" stroke="#666666" points="108.5,-74 44.5,-74 44.5,-55 108.5,-55 108.5,-74"/>
<text text-anchor="middle" x="76.5" y="-62" font-family="Helvetica,sans-Serif" font-size="10.00">bits/array.h</text>
</a>
</g>
</g>
<!-- Node8&#45;&gt;Node9 -->
<g id="edge8" class="edge">
<title>Node8&#45;&gt;Node9</title>
<path fill="none" stroke="#63b8ff" d="M76.5,-109.75C76.5,-103.27 76.5,-94.16 76.5,-85.9"/>
<polygon fill="#63b8ff" stroke="#63b8ff" points="80,-85.96 76.5,-75.96 73,-85.96 80,-85.96"/>
</g>
<!-- Node10 -->
<g id="node10" class="node">
<title>Node10</title>
<g id="a_node10"><a xlink:href="types_8h.html" target="_top" xlink:title=" ">
<polygon fill="white" stroke="#666666" points="100,-19 53,-19 53,0 100,0 100,-19"/>
<text text-anchor="middle" x="76.5" y="-7" font-family="Helvetica,sans-Serif" font-size="10.00">types.h</text>
</a>
</g>
</g>
<!-- Node9&#45;&gt;Node10 -->
<g id="edge9" class="edge">
<title>Node9&#45;&gt;Node10</title>
<path fill="none" stroke="#63b8ff" d="M76.5,-54.75C76.5,-48.27 76.5,-39.16 76.5,-30.9"/>
<polygon fill="#63b8ff" stroke="#63b8ff" points="80,-30.96 76.5,-20.96 73,-30.96 80,-30.96"/>
</g>
<!-- Node11&#45;&gt;Node6 -->
<g id="edge13" class="edge">
<title>Node11&#45;&gt;Node6</title>
<path fill="none" stroke="#63b8ff" d="M197.73,-274.51C174.1,-265.93 138.26,-252.92 111.67,-243.27"/>
<polygon fill="#63b8ff" stroke="#63b8ff" points="112.92,-240 102.32,-239.87 110.53,-246.58 112.92,-240"/>
</g>
<!-- Node12 -->
<g id="node12" class="node">
<title>Node12</title>
<g id="a_node12"><a xlink:href="callerhierarchy_8h.html" target="_top" xlink:title=" ">
<polygon fill="white" stroke="#666666" points="257,-239 134,-239 134,-220 257,-220 257,-239"/>
<text text-anchor="middle" x="195.5" y="-227" font-family="Helvetica,sans-Serif" font-size="10.00">Generic/callerhierarchy.h</text>
</a>
</g>
</g>
<!-- Node11&#45;&gt;Node12 -->
<g id="edge11" class="edge">
<title>Node11&#45;&gt;Node12</title>
<path fill="none" stroke="#63b8ff" d="M218.04,-274.75C214.55,-267.88 209.55,-258.08 205.15,-249.45"/>
<polygon fill="#63b8ff" stroke="#63b8ff" points="208.4,-248.11 200.74,-240.79 202.16,-251.29 208.4,-248.11"/>
</g>
<!-- Node13 -->
<g id="node13" class="node">
<title>Node13</title>
<g id="a_node13"><a xlink:href="serializetable__forward_8h.html" target="_top" xlink:title=" ">
<polygon fill="white" stroke="#666666" points="393.5,-239 275.5,-239 275.5,-220 393.5,-220 393.5,-239"/>
<text text-anchor="middle" x="334.5" y="-227" font-family="Helvetica,sans-Serif" font-size="10.00">serializetable_forward.h</text>
</a>
</g>
</g>
<!-- Node11&#45;&gt;Node13 -->
<g id="edge12" class="edge">
<title>Node11&#45;&gt;Node13</title>
<path fill="none" stroke="#63b8ff" d="M241.5,-274.51C259.06,-266.2 285.42,-253.73 305.59,-244.18"/>
<polygon fill="#63b8ff" stroke="#63b8ff" points="306.87,-247.45 314.41,-240.01 303.88,-241.12 306.87,-247.45"/>
</g>
<!-- Node11&#45;&gt;Node14 -->
<g id="edge14" class="edge">
<title>Node11&#45;&gt;Node14</title>
<path fill="none" stroke="#63b8ff" d="M262.36,-274.51C302.15,-265.54 363.44,-251.71 406.7,-241.96"/>
<polygon fill="#63b8ff" stroke="#63b8ff" points="407.37,-245.39 416.36,-239.78 405.83,-238.57 407.37,-245.39"/>
</g>
<!-- Node16 -->
<g id="node16" class="node">
<title>Node16</title>
<g id="a_node16"><a xlink:href="src_2_generic_2execution_2sender_8h.html" target="_top" xlink:title=" ">
<polygon fill="white" stroke="#666666" points="564.5,-349 430.5,-349 430.5,-330 564.5,-330 564.5,-349"/>
<text text-anchor="middle" x="497.5" y="-337" font-family="Helvetica,sans-Serif" font-size="10.00">Generic/execution/sender.h</text>
</a>
</g>
</g>
<!-- Node15&#45;&gt;Node16 -->
<g id="edge17" class="edge">
<title>Node15&#45;&gt;Node16</title>
<path fill="none" stroke="#63b8ff" d="M538.12,-447.85C504.93,-444.68 461.94,-434.43 439.5,-404 426.25,-386.03 448.26,-367.39 468.87,-354.99"/>
<polygon fill="#63b8ff" stroke="#63b8ff" points="470.41,-358.14 477.39,-350.18 466.97,-352.05 470.41,-358.14"/>
</g>
<!-- Node18 -->
<g id="node18" class="node">
<title>Node18</title>
<g id="a_node18"><a xlink:href="virtualsender_8h.html" target="_top" xlink:title=" ">
<polygon fill="white" stroke="#666666" points="610,-404 449,-404 449,-385 610,-385 610,-404"/>
<text text-anchor="middle" x="529.5" y="-392" font-family="Helvetica,sans-Serif" font-size="10.00">Generic/execution/virtualsender.h</text>
</a>
</g>
</g>
<!-- Node15&#45;&gt;Node18 -->
<g id="edge19" class="edge">
<title>Node15&#45;&gt;Node18</title>
<path fill="none" stroke="#63b8ff" d="M574.58,-439.75C567.05,-432.35 556.03,-421.54 546.77,-412.45"/>
<polygon fill="#63b8ff" stroke="#63b8ff" points="549.28,-410.01 539.69,-405.5 544.38,-415 549.28,-410.01"/>
</g>
<!-- Node19 -->
<g id="node19" class="node">
<title>Node19</title>
<g id="a_node19"><a xlink:href="virtualstate_8h.html" target="_top" xlink:title=" ">
<polygon fill="white" stroke="#666666" points="654.5,-349 582.5,-349 582.5,-330 654.5,-330 654.5,-349"/>
<text text-anchor="middle" x="618.5" y="-337" font-family="Helvetica,sans-Serif" font-size="10.00">virtualstate.h</text>
</a>
</g>
</g>
<!-- Node15&#45;&gt;Node19 -->
<g id="edge25" class="edge">
<title>Node15&#45;&gt;Node19</title>
<path fill="none" stroke="#63b8ff" d="M593.66,-439.81C602.4,-431.6 614.4,-418.43 619.5,-404 624.41,-390.12 623.93,-373.45 622.34,-360.67"/>
<polygon fill="#63b8ff" stroke="#63b8ff" points="625.82,-360.26 620.78,-350.93 618.91,-361.36 625.82,-360.26"/>
</g>
<!-- Node22 -->
<g id="node22" class="node">
<title>Node22</title>
<g id="a_node22"><a xlink:href="forward__capture_8h.html" target="_top" xlink:title=" ">
<polygon fill="white" stroke="#666666" points="798,-404 667,-404 667,-385 798,-385 798,-404"/>
<text text-anchor="middle" x="732.5" y="-392" font-family="Helvetica,sans-Serif" font-size="10.00">Generic/forward_capture.h</text>
</a>
</g>
</g>
<!-- Node15&#45;&gt;Node22 -->
<g id="edge26" class="edge">
<title>Node15&#45;&gt;Node22</title>
<path fill="none" stroke="#63b8ff" d="M608.78,-439.51C633,-430.89 669.8,-417.8 696.97,-408.14"/>
<polygon fill="#63b8ff" stroke="#63b8ff" points="697.92,-411.51 706.17,-404.87 695.58,-404.92 697.92,-411.51"/>
</g>
<!-- Node23 -->
<g id="node23" class="node">
<title>Node23</title>
<g id="a_node23"><a xlink:href="nulledptr_8h.html" target="_top" xlink:title=" ">
<polygon fill="white" stroke="#666666" points="914.5,-404 816.5,-404 816.5,-385 914.5,-385 914.5,-404"/>
<text text-anchor="middle" x="865.5" y="-392" font-family="Helvetica,sans-Serif" font-size="10.00">Generic/nulledptr.h</text>
</a>
</g>
</g>
<!-- Node15&#45;&gt;Node23 -->
<g id="edge27" class="edge">
<title>Node15&#45;&gt;Node23</title>
<path fill="none" stroke="#63b8ff" d="M628.81,-439.98C677.11,-430.91 753.78,-416.5 806.7,-406.55"/>
<polygon fill="#63b8ff" stroke="#63b8ff" points="807.28,-410 816.46,-404.72 805.99,-403.12 807.28,-410"/>
</g>
<!-- Node17 -->
<g id="node17" class="node">
<title>Node17</title>
<g id="a_node17"><a xlink:href="execution_2concepts_8h.html" target="_top" xlink:title=" ">
<polygon fill="white" stroke="#666666" points="534.5,-294 470.5,-294 470.5,-275 534.5,-275 534.5,-294"/>
<text text-anchor="middle" x="502.5" y="-282" font-family="Helvetica,sans-Serif" font-size="10.00">concepts.h</text>
</a>
</g>
</g>
<!-- Node16&#45;&gt;Node17 -->
<g id="edge18" class="edge">
<title>Node16&#45;&gt;Node17</title>
<path fill="none" stroke="#63b8ff" d="M498.33,-329.75C498.94,-323.27 499.8,-314.16 500.58,-305.9"/>
<polygon fill="#63b8ff" stroke="#63b8ff" points="504.06,-306.23 501.51,-295.95 497.09,-305.58 504.06,-306.23"/>
</g>
<!-- Node18&#45;&gt;Node16 -->
<g id="edge20" class="edge">
<title>Node18&#45;&gt;Node16</title>
<path fill="none" stroke="#63b8ff" d="M524.22,-384.75C520.03,-377.81 514.02,-367.86 508.77,-359.16"/>
<polygon fill="#63b8ff" stroke="#63b8ff" points="511.85,-357.49 503.68,-350.74 505.85,-361.11 511.85,-357.49"/>
</g>
<!-- Node18&#45;&gt;Node19 -->
<g id="edge21" class="edge">
<title>Node18&#45;&gt;Node19</title>
<path fill="none" stroke="#63b8ff" d="M544.6,-384.51C558.1,-376.47 578.15,-364.53 593.96,-355.11"/>
<polygon fill="#63b8ff" stroke="#63b8ff" points="595.52,-358.26 602.32,-350.13 591.94,-352.24 595.52,-358.26"/>
</g>
<!-- Node19&#45;&gt;Node17 -->
<g id="edge22" class="edge">
<title>Node19&#45;&gt;Node17</title>
<path fill="none" stroke="#63b8ff" d="M598.82,-329.51C580.55,-321.16 553.09,-308.61 532.15,-299.05"/>
<polygon fill="#63b8ff" stroke="#63b8ff" points="533.81,-295.96 523.26,-294.99 530.9,-302.33 533.81,-295.96"/>
</g>
<!-- Node20 -->
<g id="node20" class="node">
<title>Node20</title>
<g id="a_node20"><a xlink:href="virtual__invoke_8h.html" target="_top" xlink:title=" ">
<polygon fill="white" stroke="#666666" points="679,-294 558,-294 558,-275 679,-275 679,-294"/>
<text text-anchor="middle" x="618.5" y="-282" font-family="Helvetica,sans-Serif" font-size="10.00">Generic/virtual_invoke.h</text>
</a>
</g>
</g>
<!-- Node19&#45;&gt;Node20 -->
<g id="edge23" class="edge">
<title>Node19&#45;&gt;Node20</title>
<path fill="none" stroke="#63b8ff" d="M618.5,-329.75C618.5,-323.27 618.5,-314.16 618.5,-305.9"/>
<polygon fill="#63b8ff" stroke="#63b8ff" points="622,-305.96 618.5,-295.96 615,-305.96 622,-305.96"/>
</g>
<!-- Node21 -->
<g id="node21" class="node">
<title>Node21</title>
<g id="a_node21"><a xlink:href="callable__traits_8h.html" target="_top" xlink:title=" ">
<polygon fill="white" stroke="#666666" points="660.5,-239 576.5,-239 576.5,-220 660.5,-220 660.5,-239"/>
<text text-anchor="middle" x="618.5" y="-227" font-family="Helvetica,sans-Serif" font-size="10.00">callable_traits.h</text>
</a>
</g>
</g>
<!-- Node20&#45;&gt;Node21 -->
<g id="edge24" class="edge">
<title>Node20&#45;&gt;Node21</title>
<path fill="none" stroke="#63b8ff" d="M618.5,-274.75C618.5,-268.27 618.5,-259.16 618.5,-250.9"/>
<polygon fill="#63b8ff" stroke="#63b8ff" points="622,-250.96 618.5,-240.96 615,-250.96 622,-250.96"/>
</g>
</g>
</svg>
        <g id="navigator" transform="translate(0 0)" fill="#404254">
                <rect fill="#f2f5e9" fill-opacity="0.5" stroke="#606060" stroke-width=".5" x="0" y="0" width="60" height="60"/>
                <use id="zoomplus" xlink:href="#zoomPlus" x="17" y="9" onmousedown="handleZoom(evt,'in')"/>
                <use id="zoomminus" xlink:href="#zoomMin" x="42" y="9" onmousedown="handleZoom(evt,'out')"/>
                <use id="reset" xlink:href="#resetDef" x="30" y="36" onmousedown="handleReset()"/>
                <g id="arrowUp" xlink:href="#dirArrow" transform="translate(30 24)" onmousedown="handlePan(0,-1)">
                  <use xlink:href="#rim" fill="#404040">
                        <set attributeName="fill" to="#808080" begin="arrowUp.mouseover" end="arrowUp.mouseout"/>
                  </use>
                  <path fill="none" stroke="white" stroke-width="1.5" d="M0,-3.0v7 M-2.5,-0.5L0,-3.0L2.5,-0.5"/>
                </g>
                <g id="arrowRight" xlink:href="#dirArrow" transform="rotate(90) translate(36 -43)" onmousedown="handlePan(1,0)">
                  <use xlink:href="#rim" fill="#404040">
                        <set attributeName="fill" to="#808080" begin="arrowRight.mouseover" end="arrowRight.mouseout"/>
                  </use>
                  <path fill="none" stroke="white" stroke-width="1.5" d="M0,-3.0v7 M-2.5,-0.5L0,-3.0L2.5,-0.5"/>
                </g>
                <g id="arrowDown" xlink:href="#dirArrow" transform="rotate(180) translate(-30 -48)" onmousedown="handlePan(0,1)">
                  <use xlink:href="#rim" fill="#404040">
                        <set attributeName="fill" to="#808080" begin="arrowDown.mouseover" end="arrowDown.mouseout"/>
                  </use>
                  <path fill="none" stroke="white" stroke-width="1.5" d="M0,-3.0v7 M-2.5,-0.5L0,-3.0L2.5,-0.5"/>
                </g>
                <g id="arrowLeft" xlink:href="#dirArrow" transform="rotate(270) translate(-36 17)" onmousedown="handlePan(-1,0)">
                  <use xlink:href="#rim" fill="#404040">
                        <set attributeName="fill" to="#808080" begin="arrowLeft.mouseover" end="arrowLeft.mouseout"/>
                  </use>
                  <path fill="none" stroke="white" stroke-width="1.5" d="M0,-3.0v7 M-2.5,-0.5L0,-3.0L2.5,-0.5"/>
                </g>
        </g>
        <svg viewBox="0 0 15 15" width="100%" height="30px" preserveAspectRatio="xMaxYMin meet">
         <g id="arrow_out" transform="scale(0.3 0.3)">
          <a xlink:href="formattedmessagestream_8h__incl_org.svg" target="_base">
           <rect id="button" ry="5" rx="5" y="6" x="6" height="38" width="38"
                fill="#f2f5e9" fill-opacity="0.5" stroke="#606060" stroke-width="1.0"/>
           <path id="arrow"
             d="M 11.500037,31.436501 C 11.940474,20.09759 22.043105,11.32322 32.158766,21.979434 L 37.068811,17.246167 C 37.068811,17.246167 37.088388,32 37.088388,32 L 22.160133,31.978069 C 22.160133,31.978069 26.997745,27.140456 26.997745,27.140456 C 18.528582,18.264221 13.291696,25.230495 11.500037,31.436501 z"
             style="fill:#404040;"/>
          </a>
         </g>
        </svg>
</svg>
