<?xml version="1.0" encoding="UTF-8" standalone="no"?>
<!DOCTYPE svg PUBLIC "-//W3C//DTD SVG 1.1//EN"
 "http://www.w3.org/Graphics/SVG/1.1/DTD/svg11.dtd">
<!-- Generated by graphviz version 7.0.5 (20221223.1930)
 -->
<!-- Title: src/Madgine/codegen/fromsender.h Pages: 1 -->
<svg width="1360pt" height="335pt"
 viewBox="0.00 0.00 1360.00 335.00" xmlns="http://www.w3.org/2000/svg" xmlns:xlink="http://www.w3.org/1999/xlink">
<g id="graph0" class="graph" transform="scale(1 1) rotate(0) translate(4 331)">
<title>src/Madgine/codegen/fromsender.h</title>
<!-- Node1 -->
<g id="node1" class="node">
<title>Node1</title>
<g id="a_node1"><a xlink:title=" ">
<polygon fill="#999999" stroke="#666666" points="859,-327 749,-327 749,-297 859,-297 859,-327"/>
<text text-anchor="start" x="757" y="-315" font-family="Helvetica,sans-Serif" font-size="10.00">src/Madgine/codegen</text>
<text text-anchor="middle" x="804" y="-304" font-family="Helvetica,sans-Serif" font-size="10.00">/fromsender.h</text>
</a>
</g>
</g>
<!-- Node2 -->
<g id="node2" class="node">
<title>Node2</title>
<g id="a_node2"><a xlink:href="nodeexecution_8h.html" target="_top" xlink:title=" ">
<polygon fill="white" stroke="#666666" points="786,-261 592,-261 592,-231 786,-231 786,-261"/>
<text text-anchor="start" x="600" y="-249" font-family="Helvetica,sans-Serif" font-size="10.00">plugins/behavior/nodegraph</text>
<text text-anchor="middle" x="689" y="-238" font-family="Helvetica,sans-Serif" font-size="10.00">/src/Madgine/nodegraph/nodeexecution.h</text>
</a>
</g>
</g>
<!-- Node1&#45;&gt;Node2 -->
<g id="edge1" class="edge">
<title>Node1&#45;&gt;Node2</title>
<path fill="none" stroke="#63b8ff" d="M768.39,-291.18C751.03,-281.52 730.54,-270.12 714.72,-261.31"/>
<polygon fill="#63b8ff" stroke="#63b8ff" points="766.43,-294.1 776.87,-295.9 769.83,-287.98 766.43,-294.1"/>
</g>
<!-- Node8 -->
<g id="node8" class="node">
<title>Node8</title>
<g id="a_node8"><a xlink:href="sendernode_8h.html" target="_top" xlink:title=" ">
<polygon fill="white" stroke="#666666" points="1100,-195 950,-195 950,-154 1100,-154 1100,-195"/>
<text text-anchor="start" x="958" y="-183" font-family="Helvetica,sans-Serif" font-size="10.00">plugins/behavior/nodegraph</text>
<text text-anchor="start" x="958" y="-172" font-family="Helvetica,sans-Serif" font-size="10.00">/src/Madgine/nodegraph/nodes</text>
<text text-anchor="middle" x="1025" y="-161" font-family="Helvetica,sans-Serif" font-size="10.00">/util/sendernode.h</text>
</a>
</g>
</g>
<!-- Node1&#45;&gt;Node8 -->
<g id="edge13" class="edge">
<title>Node1&#45;&gt;Node8</title>
<path fill="none" stroke="#63b8ff" d="M836.95,-290.8C878.86,-265.1 950.78,-221.01 992.48,-195.44"/>
<polygon fill="#63b8ff" stroke="#63b8ff" points="835.22,-287.75 828.52,-295.96 838.88,-293.72 835.22,-287.75"/>
</g>
<!-- Node3 -->
<g id="node3" class="node">
<title>Node3</title>
<g id="a_node3"><a xlink:href="nodeexecution_8cpp.html" target="_top" xlink:title=" ">
<polygon fill="white" stroke="#666666" points="204,-189.5 0,-189.5 0,-159.5 204,-159.5 204,-189.5"/>
<text text-anchor="start" x="8" y="-177.5" font-family="Helvetica,sans-Serif" font-size="10.00">plugins/behavior/nodegraph</text>
<text text-anchor="middle" x="102" y="-166.5" font-family="Helvetica,sans-Serif" font-size="10.00">/src/Madgine/nodegraph/nodeexecution.cpp</text>
</a>
</g>
</g>
<!-- Node2&#45;&gt;Node3 -->
<g id="edge2" class="edge">
<title>Node2&#45;&gt;Node3</title>
<path fill="none" stroke="#63b8ff" d="M580.42,-235.75C483.77,-227.01 338.66,-212.62 213,-195 202.44,-193.52 191.35,-191.79 180.42,-189.97"/>
<polygon fill="#63b8ff" stroke="#63b8ff" points="579.89,-239.22 590.16,-236.63 580.52,-232.25 579.89,-239.22"/>
</g>
<!-- Node4 -->
<g id="node4" class="node">
<title>Node4</title>
<g id="a_node4"><a xlink:href="nodeinterpreter_8cpp.html" target="_top" xlink:title=" ">
<polygon fill="white" stroke="#666666" points="428,-189.5 222,-189.5 222,-159.5 428,-159.5 428,-189.5"/>
<text text-anchor="start" x="230" y="-177.5" font-family="Helvetica,sans-Serif" font-size="10.00">plugins/behavior/nodegraph</text>
<text text-anchor="middle" x="325" y="-166.5" font-family="Helvetica,sans-Serif" font-size="10.00">/src/Madgine/nodegraph/nodeinterpreter.cpp</text>
</a>
</g>
</g>
<!-- Node2&#45;&gt;Node4 -->
<g id="edge3" class="edge">
<title>Node2&#45;&gt;Node4</title>
<path fill="none" stroke="#63b8ff" d="M601.93,-228.38C540.64,-216.67 459.39,-201.16 400.77,-189.97"/>
<polygon fill="#63b8ff" stroke="#63b8ff" points="601.17,-231.79 611.65,-230.23 602.48,-224.92 601.17,-231.79"/>
</g>
<!-- Node5 -->
<g id="node5" class="node">
<title>Node5</title>
<g id="a_node5"><a xlink:href="accessornode_8cpp.html" target="_top" xlink:title=" ">
<polygon fill="white" stroke="#666666" points="596,-195 446,-195 446,-154 596,-154 596,-195"/>
<text text-anchor="start" x="454" y="-183" font-family="Helvetica,sans-Serif" font-size="10.00">plugins/behavior/nodegraph</text>
<text text-anchor="start" x="454" y="-172" font-family="Helvetica,sans-Serif" font-size="10.00">/src/Madgine/nodegraph/nodes</text>
<text text-anchor="middle" x="521" y="-161" font-family="Helvetica,sans-Serif" font-size="10.00">/accessornode.cpp</text>
</a>
</g>
</g>
<!-- Node2&#45;&gt;Node5 -->
<g id="edge4" class="edge">
<title>Node2&#45;&gt;Node5</title>
<path fill="none" stroke="#63b8ff" d="M643.65,-226.24C620.6,-216.7 592.58,-205.11 569.14,-195.42"/>
<polygon fill="#63b8ff" stroke="#63b8ff" points="642.21,-229.43 652.79,-230.02 644.89,-222.96 642.21,-229.43"/>
</g>
<!-- Node6 -->
<g id="node6" class="node">
<title>Node6</title>
<g id="a_node6"><a xlink:href="functionnode_8cpp.html" target="_top" xlink:title=" ">
<polygon fill="white" stroke="#666666" points="764,-195 614,-195 614,-154 764,-154 764,-195"/>
<text text-anchor="start" x="622" y="-183" font-family="Helvetica,sans-Serif" font-size="10.00">plugins/behavior/nodegraph</text>
<text text-anchor="start" x="622" y="-172" font-family="Helvetica,sans-Serif" font-size="10.00">/src/Madgine/nodegraph/nodes</text>
<text text-anchor="middle" x="689" y="-161" font-family="Helvetica,sans-Serif" font-size="10.00">/functionnode.cpp</text>
</a>
</g>
</g>
<!-- Node2&#45;&gt;Node6 -->
<g id="edge5" class="edge">
<title>Node2&#45;&gt;Node6</title>
<path fill="none" stroke="#63b8ff" d="M689,-219.36C689,-211.45 689,-202.87 689,-195.42"/>
<polygon fill="#63b8ff" stroke="#63b8ff" points="685.5,-219.09 689,-229.09 692.5,-219.09 685.5,-219.09"/>
</g>
<!-- Node7 -->
<g id="node7" class="node">
<title>Node7</title>
<g id="a_node7"><a xlink:href="librarynode_8cpp.html" target="_top" xlink:title=" ">
<polygon fill="white" stroke="#666666" points="932,-195 782,-195 782,-154 932,-154 932,-195"/>
<text text-anchor="start" x="790" y="-183" font-family="Helvetica,sans-Serif" font-size="10.00">plugins/behavior/nodegraph</text>
<text text-anchor="start" x="790" y="-172" font-family="Helvetica,sans-Serif" font-size="10.00">/src/Madgine/nodegraph/nodes</text>
<text text-anchor="middle" x="857" y="-161" font-family="Helvetica,sans-Serif" font-size="10.00">/util/librarynode.cpp</text>
</a>
</g>
</g>
<!-- Node2&#45;&gt;Node7 -->
<g id="edge6" class="edge">
<title>Node2&#45;&gt;Node7</title>
<path fill="none" stroke="#63b8ff" d="M734.35,-226.24C757.4,-216.7 785.42,-205.11 808.86,-195.42"/>
<polygon fill="#63b8ff" stroke="#63b8ff" points="733.11,-222.96 725.21,-230.02 735.79,-229.43 733.11,-222.96"/>
</g>
<!-- Node2&#45;&gt;Node8 -->
<g id="edge7" class="edge">
<title>Node2&#45;&gt;Node8</title>
<path fill="none" stroke="#63b8ff" d="M776.33,-228.39C824.9,-218.97 886.39,-206.75 941,-195 943.93,-194.37 946.91,-193.72 949.92,-193.06"/>
<polygon fill="#63b8ff" stroke="#63b8ff" points="775.86,-224.92 766.71,-230.25 777.19,-231.79 775.86,-224.92"/>
</g>
<!-- Node9 -->
<g id="node9" class="node">
<title>Node9</title>
<g id="a_node9"><a xlink:href="nodebase_8cpp.html" target="_top" xlink:title=" ">
<polygon fill="white" stroke="#666666" points="848,-112.5 664,-112.5 664,-82.5 848,-82.5 848,-112.5"/>
<text text-anchor="start" x="672" y="-100.5" font-family="Helvetica,sans-Serif" font-size="10.00">plugins/behavior/nodegraph</text>
<text text-anchor="middle" x="756" y="-89.5" font-family="Helvetica,sans-Serif" font-size="10.00">/src/Madgine/nodegraph/nodebase.cpp</text>
</a>
</g>
</g>
<!-- Node8&#45;&gt;Node9 -->
<g id="edge8" class="edge">
<title>Node8&#45;&gt;Node9</title>
<path fill="none" stroke="#63b8ff" d="M942.64,-150.54C898.65,-138.27 845.86,-123.55 807.66,-112.9"/>
<polygon fill="#63b8ff" stroke="#63b8ff" points="941.59,-153.88 952.16,-153.19 943.47,-147.13 941.59,-153.88"/>
</g>
<!-- Node10 -->
<g id="node10" class="node">
<title>Node10</title>
<g id="a_node10"><a xlink:href="pumpnode_8cpp.html" target="_top" xlink:title=" ">
<polygon fill="white" stroke="#666666" points="1016,-118 866,-118 866,-77 1016,-77 1016,-118"/>
<text text-anchor="start" x="874" y="-106" font-family="Helvetica,sans-Serif" font-size="10.00">plugins/behavior/nodegraph</text>
<text text-anchor="start" x="874" y="-95" font-family="Helvetica,sans-Serif" font-size="10.00">/src/Madgine/nodegraph/nodes</text>
<text text-anchor="middle" x="941" y="-84" font-family="Helvetica,sans-Serif" font-size="10.00">/pumpnode.cpp</text>
</a>
</g>
</g>
<!-- Node8&#45;&gt;Node10 -->
<g id="edge9" class="edge">
<title>Node8&#45;&gt;Node10</title>
<path fill="none" stroke="#63b8ff" d="M994.53,-146.29C984.17,-137.05 972.8,-126.89 963.21,-118.33"/>
<polygon fill="#63b8ff" stroke="#63b8ff" points="992.01,-148.74 1001.8,-152.79 996.67,-143.52 992.01,-148.74"/>
</g>
<!-- Node11 -->
<g id="node11" class="node">
<title>Node11</title>
<g id="a_node11"><a xlink:href="testnode_8cpp.html" target="_top" xlink:title=" ">
<polygon fill="white" stroke="#666666" points="1184,-118 1034,-118 1034,-77 1184,-77 1184,-118"/>
<text text-anchor="start" x="1042" y="-106" font-family="Helvetica,sans-Serif" font-size="10.00">plugins/behavior/nodegraph</text>
<text text-anchor="start" x="1042" y="-95" font-family="Helvetica,sans-Serif" font-size="10.00">/src/Madgine/nodegraph/nodes</text>
<text text-anchor="middle" x="1109" y="-84" font-family="Helvetica,sans-Serif" font-size="10.00">/testnode.cpp</text>
</a>
</g>
</g>
<!-- Node8&#45;&gt;Node11 -->
<g id="edge10" class="edge">
<title>Node8&#45;&gt;Node11</title>
<path fill="none" stroke="#63b8ff" d="M1055.47,-146.29C1065.83,-137.05 1077.2,-126.89 1086.79,-118.33"/>
<polygon fill="#63b8ff" stroke="#63b8ff" points="1053.33,-143.52 1048.2,-152.79 1057.99,-148.74 1053.33,-143.52"/>
</g>
<!-- Node12 -->
<g id="node12" class="node">
<title>Node12</title>
<g id="a_node12"><a xlink:href="sendernode__impl_8h.html" target="_top" xlink:title=" ">
<polygon fill="white" stroke="#666666" points="1352,-118 1202,-118 1202,-77 1352,-77 1352,-118"/>
<text text-anchor="start" x="1210" y="-106" font-family="Helvetica,sans-Serif" font-size="10.00">plugins/behavior/nodegraph</text>
<text text-anchor="start" x="1210" y="-95" font-family="Helvetica,sans-Serif" font-size="10.00">/src/Madgine/nodegraph/nodes</text>
<text text-anchor="middle" x="1277" y="-84" font-family="Helvetica,sans-Serif" font-size="10.00">/util/sendernode_impl.h</text>
</a>
</g>
</g>
<!-- Node8&#45;&gt;Node12 -->
<g id="edge11" class="edge">
<title>Node8&#45;&gt;Node12</title>
<path fill="none" stroke="#63b8ff" d="M1102.78,-150.35C1137.03,-140.16 1176.88,-128.3 1209.82,-118.49"/>
<polygon fill="#63b8ff" stroke="#63b8ff" points="1101.91,-146.96 1093.32,-153.17 1103.9,-153.67 1101.91,-146.96"/>
</g>
<!-- Node13 -->
<g id="node13" class="node">
<title>Node13</title>
<g id="a_node13"><a xlink:href="sendernode_8cpp.html" target="_top" xlink:title=" ">
<polygon fill="white" stroke="#666666" points="1352,-41 1202,-41 1202,0 1352,0 1352,-41"/>
<text text-anchor="start" x="1210" y="-29" font-family="Helvetica,sans-Serif" font-size="10.00">plugins/behavior/nodegraph</text>
<text text-anchor="start" x="1210" y="-18" font-family="Helvetica,sans-Serif" font-size="10.00">/src/Madgine/nodegraph/nodes</text>
<text text-anchor="middle" x="1277" y="-7" font-family="Helvetica,sans-Serif" font-size="10.00">/util/sendernode.cpp</text>
</a>
</g>
</g>
<!-- Node12&#45;&gt;Node13 -->
<g id="edge12" class="edge">
<title>Node12&#45;&gt;Node13</title>
<path fill="none" stroke="#63b8ff" d="M1277,-65.36C1277,-57.24 1277,-48.7 1277,-41.33"/>
<polygon fill="#63b8ff" stroke="#63b8ff" points="1273.5,-65.28 1277,-75.28 1280.5,-65.28 1273.5,-65.28"/>
</g>
</g>
</svg>
