<?xml version="1.0" encoding="UTF-8" standalone="no"?>
<!DOCTYPE svg PUBLIC "-//W3C//DTD SVG 1.1//EN"
 "http://www.w3.org/Graphics/SVG/1.1/DTD/svg11.dtd">
<!-- Generated by graphviz version 7.0.5 (20221223.1930)
 -->
<!-- Title: src/Meta/math/frustum.h Pages: 1 -->
<svg width="198pt" height="302pt"
 viewBox="0.00 0.00 197.50 302.00" xmlns="http://www.w3.org/2000/svg" xmlns:xlink="http://www.w3.org/1999/xlink">
<g id="graph0" class="graph" transform="scale(1 1) rotate(0) translate(4 298)">
<title>src/Meta/math/frustum.h</title>
<!-- Node1 -->
<g id="node1" class="node">
<title>Node1</title>
<g id="a_node1"><a xlink:title=" ">
<polygon fill="#999999" stroke="#666666" points="189.5,-294 66.5,-294 66.5,-275 189.5,-275 189.5,-294"/>
<text text-anchor="middle" x="128" y="-282" font-family="Helvetica,sans-Serif" font-size="10.00">src/Meta/math/frustum.h</text>
</a>
</g>
</g>
<!-- Node2 -->
<g id="node2" class="node">
<title>Node2</title>
<g id="a_node2"><a xlink:href="quaternion_8h.html" target="_top" xlink:title=" ">
<polygon fill="white" stroke="#666666" points="131.5,-239 62.5,-239 62.5,-220 131.5,-220 131.5,-239"/>
<text text-anchor="middle" x="97" y="-227" font-family="Helvetica,sans-Serif" font-size="10.00">quaternion.h</text>
</a>
</g>
</g>
<!-- Node1&#45;&gt;Node2 -->
<g id="edge1" class="edge">
<title>Node1&#45;&gt;Node2</title>
<path fill="none" stroke="#63b8ff" d="M122.88,-274.75C118.82,-267.81 113.01,-257.86 107.91,-249.16"/>
<polygon fill="#63b8ff" stroke="#63b8ff" points="111.06,-247.61 102.99,-240.75 105.02,-251.15 111.06,-247.61"/>
</g>
<!-- Node4 -->
<g id="node4" class="node">
<title>Node4</title>
<g id="a_node4"><a xlink:href="vector3_8h.html" target="_top" xlink:title=" ">
<polygon fill="white" stroke="#666666" points="112,-129 56,-129 56,-110 112,-110 112,-129"/>
<text text-anchor="middle" x="84" y="-117" font-family="Helvetica,sans-Serif" font-size="10.00">vector3.h</text>
</a>
</g>
</g>
<!-- Node1&#45;&gt;Node4 -->
<g id="edge12" class="edge">
<title>Node1&#45;&gt;Node4</title>
<path fill="none" stroke="#63b8ff" d="M133.77,-274.58C146.28,-254 173.22,-202.11 153,-165 145.68,-151.57 132.37,-141.58 119.38,-134.5"/>
<polygon fill="#63b8ff" stroke="#63b8ff" points="121.03,-131.41 110.51,-130.12 117.92,-137.69 121.03,-131.41"/>
</g>
<!-- Node3 -->
<g id="node3" class="node">
<title>Node3</title>
<g id="a_node3"><a xlink:href="matrix3_8h.html" target="_top" xlink:title=" ">
<polygon fill="white" stroke="#666666" points="56,-184 0,-184 0,-165 56,-165 56,-184"/>
<text text-anchor="middle" x="28" y="-172" font-family="Helvetica,sans-Serif" font-size="10.00">matrix3.h</text>
</a>
</g>
</g>
<!-- Node2&#45;&gt;Node3 -->
<g id="edge2" class="edge">
<title>Node2&#45;&gt;Node3</title>
<path fill="none" stroke="#63b8ff" d="M85.3,-219.51C75.22,-211.77 60.46,-200.43 48.44,-191.2"/>
<polygon fill="#63b8ff" stroke="#63b8ff" points="50.79,-188.6 40.73,-185.28 46.53,-194.15 50.79,-188.6"/>
</g>
<!-- Node2&#45;&gt;Node4 -->
<g id="edge11" class="edge">
<title>Node2&#45;&gt;Node4</title>
<path fill="none" stroke="#63b8ff" d="M95.94,-219.66C93.87,-202.5 89.27,-164.26 86.42,-140.6"/>
<polygon fill="#63b8ff" stroke="#63b8ff" points="89.93,-140.47 85.26,-130.96 82.98,-141.31 89.93,-140.47"/>
</g>
<!-- Node9 -->
<g id="node9" class="node">
<title>Node9</title>
<g id="a_node9"><a xlink:href="pi_8h.html" target="_top" xlink:title=" ">
<polygon fill="white" stroke="#666666" points="144,-184 112,-184 112,-165 144,-165 144,-184"/>
<text text-anchor="middle" x="128" y="-172" font-family="Helvetica,sans-Serif" font-size="10.00">pi.h</text>
</a>
</g>
</g>
<!-- Node2&#45;&gt;Node9 -->
<g id="edge10" class="edge">
<title>Node2&#45;&gt;Node9</title>
<path fill="none" stroke="#63b8ff" d="M102.12,-219.75C106.18,-212.81 111.99,-202.86 117.09,-194.16"/>
<polygon fill="#63b8ff" stroke="#63b8ff" points="119.98,-196.15 122.01,-185.75 113.94,-192.61 119.98,-196.15"/>
</g>
<!-- Node3&#45;&gt;Node4 -->
<g id="edge3" class="edge">
<title>Node3&#45;&gt;Node4</title>
<path fill="none" stroke="#63b8ff" d="M37.5,-164.51C45.43,-157 56.95,-146.1 66.54,-137.03"/>
<polygon fill="#63b8ff" stroke="#63b8ff" points="68.68,-139.81 73.54,-130.4 63.87,-134.73 68.68,-139.81"/>
</g>
<!-- Node5 -->
<g id="node5" class="node">
<title>Node5</title>
<g id="a_node5"><a xlink:href="common_8h.html" target="_top" xlink:title=" ">
<polygon fill="white" stroke="#666666" points="85,-19 23,-19 23,0 85,0 85,-19"/>
<text text-anchor="middle" x="54" y="-7" font-family="Helvetica,sans-Serif" font-size="10.00">common.h</text>
</a>
</g>
</g>
<!-- Node4&#45;&gt;Node5 -->
<g id="edge4" class="edge">
<title>Node4&#45;&gt;Node5</title>
<path fill="none" stroke="#63b8ff" d="M73.21,-109.55C64.26,-101.36 52.19,-88.36 47,-74 41.91,-59.93 44.13,-43.06 47.37,-30.24"/>
<polygon fill="#63b8ff" stroke="#63b8ff" points="50.66,-31.46 50.15,-20.87 43.95,-29.46 50.66,-31.46"/>
</g>
<!-- Node6 -->
<g id="node6" class="node">
<title>Node6</title>
<g id="a_node6"><a xlink:href="vector2_8h.html" target="_top" xlink:title=" ">
<polygon fill="white" stroke="#666666" points="112,-74 56,-74 56,-55 112,-55 112,-74"/>
<text text-anchor="middle" x="84" y="-62" font-family="Helvetica,sans-Serif" font-size="10.00">vector2.h</text>
</a>
</g>
</g>
<!-- Node4&#45;&gt;Node6 -->
<g id="edge5" class="edge">
<title>Node4&#45;&gt;Node6</title>
<path fill="none" stroke="#63b8ff" d="M84,-109.75C84,-103.27 84,-94.16 84,-85.9"/>
<polygon fill="#63b8ff" stroke="#63b8ff" points="87.5,-85.96 84,-75.96 80.5,-85.96 87.5,-85.96"/>
</g>
<!-- Node8 -->
<g id="node8" class="node">
<title>Node8</title>
<g id="a_node8"><a xlink:href="vector3i_8h.html" target="_top" xlink:title=" ">
<polygon fill="white" stroke="#666666" points="189.5,-74 130.5,-74 130.5,-55 189.5,-55 189.5,-74"/>
<text text-anchor="middle" x="160" y="-62" font-family="Helvetica,sans-Serif" font-size="10.00">vector3i.h</text>
</a>
</g>
</g>
<!-- Node4&#45;&gt;Node8 -->
<g id="edge8" class="edge">
<title>Node4&#45;&gt;Node8</title>
<path fill="none" stroke="#63b8ff" d="M96.89,-109.51C108.1,-101.7 124.57,-90.21 137.88,-80.93"/>
<polygon fill="#63b8ff" stroke="#63b8ff" points="139.86,-83.81 146.06,-75.22 135.85,-78.07 139.86,-83.81"/>
</g>
<!-- Node6&#45;&gt;Node5 -->
<g id="edge7" class="edge">
<title>Node6&#45;&gt;Node5</title>
<path fill="none" stroke="#63b8ff" d="M79.05,-54.75C75.16,-47.88 69.61,-38.08 64.72,-29.45"/>
<polygon fill="#63b8ff" stroke="#63b8ff" points="67.78,-27.74 59.81,-20.76 61.69,-31.19 67.78,-27.74"/>
</g>
<!-- Node7 -->
<g id="node7" class="node">
<title>Node7</title>
<g id="a_node7"><a xlink:href="vector2i_8h.html" target="_top" xlink:title=" ">
<polygon fill="white" stroke="#666666" points="175.5,-19 116.5,-19 116.5,0 175.5,0 175.5,-19"/>
<text text-anchor="middle" x="146" y="-7" font-family="Helvetica,sans-Serif" font-size="10.00">vector2i.h</text>
</a>
</g>
</g>
<!-- Node6&#45;&gt;Node7 -->
<g id="edge6" class="edge">
<title>Node6&#45;&gt;Node7</title>
<path fill="none" stroke="#63b8ff" d="M94.52,-54.51C103.39,-46.93 116.31,-35.88 126.99,-26.75"/>
<polygon fill="#63b8ff" stroke="#63b8ff" points="129.16,-29.5 134.49,-20.34 124.61,-24.18 129.16,-29.5"/>
</g>
<!-- Node8&#45;&gt;Node7 -->
<g id="edge9" class="edge">
<title>Node8&#45;&gt;Node7</title>
<path fill="none" stroke="#63b8ff" d="M157.69,-54.75C155.94,-48.11 153.46,-38.73 151.23,-30.31"/>
<polygon fill="#63b8ff" stroke="#63b8ff" points="154.69,-29.68 148.75,-20.91 147.92,-31.47 154.69,-29.68"/>
</g>
</g>
</svg>
