<?xml version="1.0" encoding="UTF-8" standalone="no"?>
<!DOCTYPE svg PUBLIC "-//W3C//DTD SVG 1.1//EN"
 "http://www.w3.org/Graphics/SVG/1.1/DTD/svg11.dtd">
<!-- Generated by graphviz version 7.0.5 (20221223.1930)
 -->
<!-- Title: src/Meta/keyvalue/functiontable.cpp Pages: 1 -->
<!--zoomable 687 -->
<svg id="main" version="1.1" xmlns="http://www.w3.org/2000/svg" xmlns:xlink="http://www.w3.org/1999/xlink" xml:space="preserve" onload="init(evt)">
<style type="text/css"><![CDATA[
.edge:hover path { stroke: red; }
.edge:hover polygon { stroke: red; fill: red; }
]]></style>
<script type="text/javascript"><![CDATA[
var edges = document.getElementsByTagName('g');
if (edges && edges.length) {
  for (var i=0;i<edges.length;i++) {
    if (edges[i].id.substr(0,4)=='edge') {
      edges[i].setAttribute('class','edge');
    }
  }
}
]]></script>
        <defs>
                <circle id="rim" cx="0" cy="0" r="7"/>
                <circle id="rim2" cx="0" cy="0" r="3.5"/>
                <g id="zoomPlus">
                        <use xlink:href="#rim" fill="#404040">
                                <set attributeName="fill" to="#808080" begin="zoomplus.mouseover" end="zoomplus.mouseout"/>
                        </use>
                        <path d="M-4,0h8M0,-4v8" fill="none" stroke="white" stroke-width="1.5" pointer-events="none"/>
                </g>
                <g id="zoomMin">
                        <use xlink:href="#rim" fill="#404040">
                                <set attributeName="fill" to="#808080" begin="zoomminus.mouseover" end="zoomminus.mouseout"/>
                        </use>
                        <path d="M-4,0h8" fill="none" stroke="white" stroke-width="1.5" pointer-events="none"/>
                </g>
                <g id="dirArrow">
                        <path fill="none" stroke="white" stroke-width="1.5" d="M0,-3.0v7 M-2.5,-0.5L0,-3.0L2.5,-0.5"/>
                </g>
               <g id="resetDef">
                       <use xlink:href="#rim2" fill="#404040">
                               <set attributeName="fill" to="#808080" begin="reset.mouseover" end="reset.mouseout"/>
                       </use>
               </g>
        </defs>

<script type="text/javascript">
var viewWidth = 1460;
var viewHeight = 687;
var sectionId = 'dynsection-0';
</script>
<script xlink:href="svgpan.js"/>
<svg id="graph" class="graph">
<g id="viewport">
<title>src/Meta/keyvalue/functiontable.cpp</title>
<!-- Node1 -->
<g id="node1" class="node">
<title>Node1</title>
<g id="a_node1"><a xlink:title=" ">
<polygon fill="#999999" stroke="#666666" points="306.5,-679 133.5,-679 133.5,-660 306.5,-660 306.5,-679"/>
<text text-anchor="middle" x="220" y="-667" font-family="Helvetica,sans-Serif" font-size="10.00">src/Meta/keyvalue/functiontable.cpp</text>
</a>
</g>
</g>
<!-- Node2 -->
<g id="node2" class="node">
<title>Node2</title>
<g id="a_node2"><a xlink:href="metalib_8h.html" target="_top" xlink:title=" ">
<polygon fill="white" stroke="#666666" points="187.5,-624 124.5,-624 124.5,-605 187.5,-605 187.5,-624"/>
<text text-anchor="middle" x="156" y="-612" font-family="Helvetica,sans-Serif" font-size="10.00">../metalib.h</text>
</a>
</g>
</g>
<!-- Node1&#45;&gt;Node2 -->
<g id="edge1" class="edge">
<title>Node1&#45;&gt;Node2</title>
<path fill="none" stroke="#63b8ff" d="M209.14,-659.51C199.89,-651.85 186.38,-640.66 175.29,-631.47"/>
<polygon fill="#63b8ff" stroke="#63b8ff" points="177.8,-629.01 167.86,-625.32 173.33,-634.4 177.8,-629.01"/>
</g>
<!-- Node5 -->
<g id="node5" class="node">
<title>Node5</title>
<g id="a_node5"><a xlink:href="functiontable_8h.html" target="_top" xlink:title=" ">
<polygon fill="white" stroke="#666666" points="245,-514 165,-514 165,-495 245,-495 245,-514"/>
<text text-anchor="middle" x="205" y="-502" font-family="Helvetica,sans-Serif" font-size="10.00">functiontable.h</text>
</a>
</g>
</g>
<!-- Node1&#45;&gt;Node5 -->
<g id="edge4" class="edge">
<title>Node1&#45;&gt;Node5</title>
<path fill="none" stroke="#63b8ff" d="M219.19,-659.74C216.87,-634.53 210.14,-561.36 206.85,-525.62"/>
<polygon fill="#63b8ff" stroke="#63b8ff" points="210.35,-525.45 205.95,-515.81 203.38,-526.09 210.35,-525.45"/>
</g>
<!-- Node18 -->
<g id="node18" class="node">
<title>Node18</title>
<g id="a_node18"><a xlink:href="metatable__impl_8h.html" target="_top" xlink:title=" ">
<polygon fill="white" stroke="#666666" points="649,-624 559,-624 559,-605 649,-605 649,-624"/>
<text text-anchor="middle" x="604" y="-612" font-family="Helvetica,sans-Serif" font-size="10.00">metatable_impl.h</text>
</a>
</g>
</g>
<!-- Node1&#45;&gt;Node18 -->
<g id="edge19" class="edge">
<title>Node1&#45;&gt;Node18</title>
<path fill="none" stroke="#63b8ff" d="M285.14,-659.51C358.82,-649.34 477.61,-632.94 547.52,-623.3"/>
<polygon fill="#63b8ff" stroke="#63b8ff" points="547.79,-626.79 557.22,-621.96 546.84,-619.86 547.79,-626.79"/>
</g>
<!-- Node3 -->
<g id="node3" class="node">
<title>Node3</title>
<g id="a_node3"><a xlink:href="genericlib_8h.html" target="_top" xlink:title=" ">
<polygon fill="white" stroke="#666666" points="102,-569 0,-569 0,-550 102,-550 102,-569"/>
<text text-anchor="middle" x="51" y="-557" font-family="Helvetica,sans-Serif" font-size="10.00">Generic/genericlib.h</text>
</a>
</g>
</g>
<!-- Node2&#45;&gt;Node3 -->
<g id="edge2" class="edge">
<title>Node2&#45;&gt;Node3</title>
<path fill="none" stroke="#63b8ff" d="M138.19,-604.51C121.87,-596.27 97.47,-583.96 78.63,-574.45"/>
<polygon fill="#63b8ff" stroke="#63b8ff" points="80.4,-571.42 69.9,-570.04 77.25,-577.67 80.4,-571.42"/>
</g>
<!-- Node4 -->
<g id="node4" class="node">
<title>Node4</title>
<g id="a_node4"><a xlink:title=" ">
<polygon fill="#e0e0e0" stroke="#999999" points="191.5,-569 120.5,-569 120.5,-550 191.5,-550 191.5,-569"/>
<text text-anchor="middle" x="156" y="-557" font-family="Helvetica,sans-Serif" font-size="10.00">metaconfig.h</text>
</a>
</g>
</g>
<!-- Node2&#45;&gt;Node4 -->
<g id="edge3" class="edge">
<title>Node2&#45;&gt;Node4</title>
<path fill="none" stroke="#63b8ff" d="M156,-604.75C156,-598.27 156,-589.16 156,-580.9"/>
<polygon fill="#63b8ff" stroke="#63b8ff" points="159.5,-580.96 156,-570.96 152.5,-580.96 159.5,-580.96"/>
</g>
<!-- Node6 -->
<g id="node6" class="node">
<title>Node6</title>
<g id="a_node6"><a xlink:href="valuetype__desc_8h.html" target="_top" xlink:title=" ">
<polygon fill="white" stroke="#666666" points="431,-294 339,-294 339,-275 431,-275 431,-294"/>
<text text-anchor="middle" x="385" y="-282" font-family="Helvetica,sans-Serif" font-size="10.00">valuetype_desc.h</text>
</a>
</g>
</g>
<!-- Node5&#45;&gt;Node6 -->
<g id="edge5" class="edge">
<title>Node5&#45;&gt;Node6</title>
<path fill="none" stroke="#63b8ff" d="M204.55,-494.55C203.62,-466.36 204.67,-378.36 250,-330 270.01,-308.65 300.44,-297.53 327.35,-291.75"/>
<polygon fill="#63b8ff" stroke="#63b8ff" points="327.98,-295.19 337.14,-289.87 326.66,-288.32 327.98,-295.19"/>
</g>
<!-- Node7 -->
<g id="node7" class="node">
<title>Node7</title>
<g id="a_node7"><a xlink:href="valuetype__types_8h.html" target="_top" xlink:title=" ">
<polygon fill="white" stroke="#666666" points="355,-239 261,-239 261,-220 355,-220 355,-239"/>
<text text-anchor="middle" x="308" y="-227" font-family="Helvetica,sans-Serif" font-size="10.00">valuetype_types.h</text>
</a>
</g>
</g>
<!-- Node6&#45;&gt;Node7 -->
<g id="edge6" class="edge">
<title>Node6&#45;&gt;Node7</title>
<path fill="none" stroke="#63b8ff" d="M371.94,-274.51C360.48,-266.62 343.57,-254.98 330.02,-245.65"/>
<polygon fill="#63b8ff" stroke="#63b8ff" points="332.34,-243 322.12,-240.22 328.37,-248.77 332.34,-243"/>
</g>
<!-- Node8 -->
<g id="node8" class="node">
<title>Node8</title>
<g id="a_node8"><a xlink:href="valuetypedefinclude_8h.html" target="_top" xlink:title=" ">
<polygon fill="white" stroke="#666666" points="377.5,-184 268.5,-184 268.5,-165 377.5,-165 377.5,-184"/>
<text text-anchor="middle" x="323" y="-172" font-family="Helvetica,sans-Serif" font-size="10.00">valuetypedefinclude.h</text>
</a>
</g>
</g>
<!-- Node6&#45;&gt;Node8 -->
<g id="edge18" class="edge">
<title>Node6&#45;&gt;Node8</title>
<path fill="none" stroke="#63b8ff" d="M383.35,-274.8C380.68,-262.09 374.6,-238.01 364,-220 358.04,-209.87 349.46,-200.09 341.68,-192.3"/>
<polygon fill="#63b8ff" stroke="#63b8ff" points="344.18,-189.84 334.53,-185.47 339.34,-194.91 344.18,-189.84"/>
</g>
<!-- Node10 -->
<g id="node10" class="node">
<title>Node10</title>
<g id="a_node10"><a xlink:href="array_8h.html" target="_top" xlink:title=" ">
<polygon fill="white" stroke="#666666" points="538.5,-74 437.5,-74 437.5,-55 538.5,-55 538.5,-74"/>
<text text-anchor="middle" x="488" y="-62" font-family="Helvetica,sans-Serif" font-size="10.00">Generic/bits/array.h</text>
</a>
</g>
</g>
<!-- Node6&#45;&gt;Node10 -->
<g id="edge9" class="edge">
<title>Node6&#45;&gt;Node10</title>
<path fill="none" stroke="#63b8ff" d="M386.19,-274.52C390.08,-247.66 404.3,-166.31 440,-110 446.94,-99.06 457.21,-89.04 466.48,-81.29"/>
<polygon fill="#63b8ff" stroke="#63b8ff" points="468.4,-84.23 474.06,-75.28 464.05,-78.75 468.4,-84.23"/>
</g>
<!-- Node12 -->
<g id="node12" class="node">
<title>Node12</title>
<g id="a_node12"><a xlink:href="keyvalue_8h.html" target="_top" xlink:title=" ">
<polygon fill="white" stroke="#666666" points="586.5,-239 487.5,-239 487.5,-220 586.5,-220 586.5,-239"/>
<text text-anchor="middle" x="537" y="-227" font-family="Helvetica,sans-Serif" font-size="10.00">Generic/keyvalue.h</text>
</a>
</g>
</g>
<!-- Node6&#45;&gt;Node12 -->
<g id="edge11" class="edge">
<title>Node6&#45;&gt;Node12</title>
<path fill="none" stroke="#63b8ff" d="M410.78,-274.51C435.43,-265.92 472.81,-252.88 500.51,-243.22"/>
<polygon fill="#63b8ff" stroke="#63b8ff" points="501.62,-246.54 509.91,-239.94 499.32,-239.93 501.62,-246.54"/>
</g>
<!-- Node14 -->
<g id="node14" class="node">
<title>Node14</title>
<g id="a_node14"><a xlink:href="table__forward_8h.html" target="_top" xlink:title=" ">
<polygon fill="white" stroke="#666666" points="847.5,-239 764.5,-239 764.5,-220 847.5,-220 847.5,-239"/>
<text text-anchor="middle" x="806" y="-227" font-family="Helvetica,sans-Serif" font-size="10.00">table_forward.h</text>
</a>
</g>
</g>
<!-- Node6&#45;&gt;Node14 -->
<g id="edge13" class="edge">
<title>Node6&#45;&gt;Node14</title>
<path fill="none" stroke="#63b8ff" d="M431.26,-277.68C510.01,-267.76 669.64,-247.67 752.85,-237.19"/>
<polygon fill="#63b8ff" stroke="#63b8ff" points="753.08,-240.69 762.56,-235.97 752.2,-233.74 753.08,-240.69"/>
</g>
<!-- Node17 -->
<g id="node17" class="node">
<title>Node17</title>
<g id="a_node17"><a xlink:href="execution_2concepts_8h.html" target="_top" xlink:title=" ">
<polygon fill="white" stroke="#666666" points="1089.5,-239 944.5,-239 944.5,-220 1089.5,-220 1089.5,-239"/>
<text text-anchor="middle" x="1017" y="-227" font-family="Helvetica,sans-Serif" font-size="10.00">Generic/execution/concepts.h</text>
</a>
</g>
</g>
<!-- Node6&#45;&gt;Node17 -->
<g id="edge17" class="edge">
<title>Node6&#45;&gt;Node17</title>
<path fill="none" stroke="#63b8ff" d="M431.47,-279.6C537.46,-270.71 798.28,-248.84 933.17,-237.53"/>
<polygon fill="#63b8ff" stroke="#63b8ff" points="933.06,-241.05 942.73,-236.73 932.48,-234.08 933.06,-241.05"/>
</g>
<!-- Node7&#45;&gt;Node8 -->
<g id="edge7" class="edge">
<title>Node7&#45;&gt;Node8</title>
<path fill="none" stroke="#63b8ff" d="M310.48,-219.75C312.35,-213.11 315.01,-203.73 317.39,-195.31"/>
<polygon fill="#63b8ff" stroke="#63b8ff" points="320.7,-196.47 320.06,-185.9 313.97,-194.57 320.7,-196.47"/>
</g>
<!-- Node9 -->
<g id="node9" class="node">
<title>Node9</title>
<g id="a_node9"><a xlink:href="valuetypedef_8h.html" target="_top" xlink:title=" ">
<polygon fill="white" stroke="#666666" points="362.5,-129 283.5,-129 283.5,-110 362.5,-110 362.5,-129"/>
<text text-anchor="middle" x="323" y="-117" font-family="Helvetica,sans-Serif" font-size="10.00">valuetypedef.h</text>
</a>
</g>
</g>
<!-- Node8&#45;&gt;Node9 -->
<g id="edge8" class="edge">
<title>Node8&#45;&gt;Node9</title>
<path fill="none" stroke="#63b8ff" d="M323,-164.75C323,-158.27 323,-149.16 323,-140.9"/>
<polygon fill="#63b8ff" stroke="#63b8ff" points="326.5,-140.96 323,-130.96 319.5,-140.96 326.5,-140.96"/>
</g>
<!-- Node11 -->
<g id="node11" class="node">
<title>Node11</title>
<g id="a_node11"><a xlink:href="types_8h.html" target="_top" xlink:title=" ">
<polygon fill="white" stroke="#666666" points="511.5,-19 464.5,-19 464.5,0 511.5,0 511.5,-19"/>
<text text-anchor="middle" x="488" y="-7" font-family="Helvetica,sans-Serif" font-size="10.00">types.h</text>
</a>
</g>
</g>
<!-- Node10&#45;&gt;Node11 -->
<g id="edge10" class="edge">
<title>Node10&#45;&gt;Node11</title>
<path fill="none" stroke="#63b8ff" d="M488,-54.75C488,-48.27 488,-39.16 488,-30.9"/>
<polygon fill="#63b8ff" stroke="#63b8ff" points="491.5,-30.96 488,-20.96 484.5,-30.96 491.5,-30.96"/>
</g>
<!-- Node13 -->
<g id="node13" class="node">
<title>Node13</title>
<g id="a_node13"><a xlink:href="comparator__traits_8h.html" target="_top" xlink:title=" ">
<polygon fill="white" stroke="#666666" points="587,-184 487,-184 487,-165 587,-165 587,-184"/>
<text text-anchor="middle" x="537" y="-172" font-family="Helvetica,sans-Serif" font-size="10.00">comparator_traits.h</text>
</a>
</g>
</g>
<!-- Node12&#45;&gt;Node13 -->
<g id="edge12" class="edge">
<title>Node12&#45;&gt;Node13</title>
<path fill="none" stroke="#63b8ff" d="M537,-219.75C537,-213.27 537,-204.16 537,-195.9"/>
<polygon fill="#63b8ff" stroke="#63b8ff" points="540.5,-195.96 537,-185.96 533.5,-195.96 540.5,-195.96"/>
</g>
<!-- Node15 -->
<g id="node15" class="node">
<title>Node15</title>
<g id="a_node15"><a xlink:href="genericresult_8h.html" target="_top" xlink:title=" ">
<polygon fill="white" stroke="#666666" points="864,-184 748,-184 748,-165 864,-165 864,-184"/>
<text text-anchor="middle" x="806" y="-172" font-family="Helvetica,sans-Serif" font-size="10.00">Generic/genericresult.h</text>
</a>
</g>
</g>
<!-- Node14&#45;&gt;Node15 -->
<g id="edge14" class="edge">
<title>Node14&#45;&gt;Node15</title>
<path fill="none" stroke="#63b8ff" d="M806,-219.75C806,-213.27 806,-204.16 806,-195.9"/>
<polygon fill="#63b8ff" stroke="#63b8ff" points="809.5,-195.96 806,-185.96 802.5,-195.96 809.5,-195.96"/>
</g>
<!-- Node16 -->
<g id="node16" class="node">
<title>Node16</title>
<g id="a_node16"><a xlink:href="enum_8h.html" target="_top" xlink:title=" ">
<polygon fill="white" stroke="#666666" points="751,-129 703,-129 703,-110 751,-110 751,-129"/>
<text text-anchor="middle" x="727" y="-117" font-family="Helvetica,sans-Serif" font-size="10.00">enum.h</text>
</a>
</g>
</g>
<!-- Node15&#45;&gt;Node16 -->
<g id="edge15" class="edge">
<title>Node15&#45;&gt;Node16</title>
<path fill="none" stroke="#63b8ff" d="M792.6,-164.51C780.84,-156.62 763.49,-144.98 749.59,-135.65"/>
<polygon fill="#63b8ff" stroke="#63b8ff" points="751.71,-132.87 741.46,-130.2 747.81,-138.68 751.71,-132.87"/>
</g>
<!-- Node16&#45;&gt;Node10 -->
<g id="edge16" class="edge">
<title>Node16&#45;&gt;Node10</title>
<path fill="none" stroke="#63b8ff" d="M702.77,-113.13C664.7,-104.69 590.05,-88.13 539.58,-76.94"/>
<polygon fill="#63b8ff" stroke="#63b8ff" points="540.57,-73.57 530.05,-74.83 539.06,-80.41 540.57,-73.57"/>
</g>
<!-- Node19 -->
<g id="node19" class="node">
<title>Node19</title>
<g id="a_node19"><a xlink:href="fixed__string_8h.html" target="_top" xlink:title=" ">
<polygon fill="white" stroke="#666666" points="618,-569 508,-569 508,-550 618,-550 618,-569"/>
<text text-anchor="middle" x="563" y="-557" font-family="Helvetica,sans-Serif" font-size="10.00">Generic/fixed_string.h</text>
</a>
</g>
</g>
<!-- Node18&#45;&gt;Node19 -->
<g id="edge20" class="edge">
<title>Node18&#45;&gt;Node19</title>
<path fill="none" stroke="#63b8ff" d="M597.23,-604.75C591.68,-597.58 583.66,-587.2 576.77,-578.3"/>
<polygon fill="#63b8ff" stroke="#63b8ff" points="579.73,-576.41 570.84,-570.64 574.19,-580.69 579.73,-576.41"/>
</g>
<!-- Node20 -->
<g id="node20" class="node">
<title>Node20</title>
<g id="a_node20"><a xlink:href="linestruct_8h.html" target="_top" xlink:title=" ">
<polygon fill="white" stroke="#666666" points="764.5,-514 663.5,-514 663.5,-495 764.5,-495 764.5,-514"/>
<text text-anchor="middle" x="714" y="-502" font-family="Helvetica,sans-Serif" font-size="10.00">Generic/linestruct.h</text>
</a>
</g>
</g>
<!-- Node18&#45;&gt;Node20 -->
<g id="edge21" class="edge">
<title>Node18&#45;&gt;Node20</title>
<path fill="none" stroke="#63b8ff" d="M613,-604.66C631.29,-586.7 673.07,-545.69 696.76,-522.42"/>
<polygon fill="#63b8ff" stroke="#63b8ff" points="699.11,-525.02 703.79,-515.52 694.21,-520.03 699.11,-525.02"/>
</g>
<!-- Node21 -->
<g id="node21" class="node">
<title>Node21</title>
<g id="a_node21"><a xlink:href="accessor_8h.html" target="_top" xlink:title=" ">
<polygon fill="white" stroke="#666666" points="323,-349 259,-349 259,-330 323,-330 323,-349"/>
<text text-anchor="middle" x="291" y="-337" font-family="Helvetica,sans-Serif" font-size="10.00">accessor.h</text>
</a>
</g>
</g>
<!-- Node18&#45;&gt;Node21 -->
<g id="edge22" class="edge">
<title>Node18&#45;&gt;Node21</title>
<path fill="none" stroke="#63b8ff" d="M558.53,-612.26C510.95,-609.27 435.34,-599.58 378,-569 321.26,-538.74 303.52,-520.27 284,-459 273.39,-425.71 279.91,-384.54 285.51,-360.53"/>
<polygon fill="#63b8ff" stroke="#63b8ff" points="288.9,-361.41 287.97,-350.86 282.12,-359.69 288.9,-361.41"/>
</g>
<!-- Node22 -->
<g id="node22" class="node">
<title>Node22</title>
<g id="a_node22"><a xlink:href="boundapifunction_8h.html" target="_top" xlink:title=" ">
<polygon fill="white" stroke="#666666" points="970,-569 872,-569 872,-550 970,-550 970,-569"/>
<text text-anchor="middle" x="921" y="-557" font-family="Helvetica,sans-Serif" font-size="10.00">boundapifunction.h</text>
</a>
</g>
</g>
<!-- Node18&#45;&gt;Node22 -->
<g id="edge24" class="edge">
<title>Node18&#45;&gt;Node22</title>
<path fill="none" stroke="#63b8ff" d="M649.42,-605.91C704.94,-596.62 799.09,-580.88 860.66,-570.59"/>
<polygon fill="#63b8ff" stroke="#63b8ff" points="860.98,-574.08 870.26,-568.98 859.82,-567.18 860.98,-574.08"/>
</g>
<!-- Node25 -->
<g id="node25" class="node">
<title>Node25</title>
<g id="a_node25"><a xlink:href="metatable_8h.html" target="_top" xlink:title=" ">
<polygon fill="white" stroke="#666666" points="962.5,-294 895.5,-294 895.5,-275 962.5,-275 962.5,-294"/>
<text text-anchor="middle" x="929" y="-282" font-family="Helvetica,sans-Serif" font-size="10.00">metatable.h</text>
</a>
</g>
</g>
<!-- Node18&#45;&gt;Node25 -->
<g id="edge63" class="edge">
<title>Node18&#45;&gt;Node25</title>
<path fill="none" stroke="#63b8ff" d="M649.16,-613.56C774.59,-612.5 1118,-600.9 1118,-505.5 1118,-505.5 1118,-505.5 1118,-448.5 1118,-369.29 1021.62,-320.09 966.51,-298.43"/>
<polygon fill="#63b8ff" stroke="#63b8ff" points="968.08,-295.28 957.49,-295 965.6,-301.82 968.08,-295.28"/>
</g>
<!-- Node26 -->
<g id="node26" class="node">
<title>Node26</title>
<g id="a_node26"><a xlink:href="functiontable__impl_8h.html" target="_top" xlink:title=" ">
<polygon fill="white" stroke="#666666" points="489.5,-569 386.5,-569 386.5,-550 489.5,-550 489.5,-569"/>
<text text-anchor="middle" x="438" y="-557" font-family="Helvetica,sans-Serif" font-size="10.00">functiontable_impl.h</text>
</a>
</g>
</g>
<!-- Node18&#45;&gt;Node26 -->
<g id="edge30" class="edge">
<title>Node18&#45;&gt;Node26</title>
<path fill="none" stroke="#63b8ff" d="M575.84,-604.51C548.57,-595.8 507.01,-582.53 476.65,-572.84"/>
<polygon fill="#63b8ff" stroke="#63b8ff" points="478.05,-569.61 467.46,-569.91 475.92,-576.28 478.05,-569.61"/>
</g>
<!-- Node27 -->
<g id="node27" class="node">
<title>Node27</title>
<g id="a_node27"><a xlink:href="valuetype__forward_8h.html" target="_top" xlink:title=" ">
<polygon fill="white" stroke="#666666" points="645.5,-514 542.5,-514 542.5,-495 645.5,-495 645.5,-514"/>
<text text-anchor="middle" x="594" y="-502" font-family="Helvetica,sans-Serif" font-size="10.00">valuetype_forward.h</text>
</a>
</g>
</g>
<!-- Node18&#45;&gt;Node27 -->
<g id="edge64" class="edge">
<title>Node18&#45;&gt;Node27</title>
<path fill="none" stroke="#63b8ff" d="M611.23,-604.51C620.17,-592.26 633.47,-569.59 627,-550 623.7,-540 617.18,-530.42 610.81,-522.72"/>
<polygon fill="#63b8ff" stroke="#63b8ff" points="613.62,-520.61 604.34,-515.49 608.4,-525.28 613.62,-520.61"/>
</g>
<!-- Node21&#45;&gt;Node6 -->
<g id="edge23" class="edge">
<title>Node21&#45;&gt;Node6</title>
<path fill="none" stroke="#63b8ff" d="M306.95,-329.51C321.35,-321.39 342.79,-309.3 359.56,-299.85"/>
<polygon fill="#63b8ff" stroke="#63b8ff" points="360.98,-303.06 367.97,-295.1 357.54,-296.96 360.98,-303.06"/>
</g>
<!-- Node23 -->
<g id="node23" class="node">
<title>Node23</title>
<g id="a_node23"><a xlink:href="apifunction_8h.html" target="_top" xlink:title=" ">
<polygon fill="white" stroke="#666666" points="956.5,-514 885.5,-514 885.5,-495 956.5,-495 956.5,-514"/>
<text text-anchor="middle" x="921" y="-502" font-family="Helvetica,sans-Serif" font-size="10.00">apifunction.h</text>
</a>
</g>
</g>
<!-- Node22&#45;&gt;Node23 -->
<g id="edge25" class="edge">
<title>Node22&#45;&gt;Node23</title>
<path fill="none" stroke="#63b8ff" d="M921,-549.75C921,-543.27 921,-534.16 921,-525.9"/>
<polygon fill="#63b8ff" stroke="#63b8ff" points="924.5,-525.96 921,-515.96 917.5,-525.96 924.5,-525.96"/>
</g>
<!-- Node24 -->
<g id="node24" class="node">
<title>Node24</title>
<g id="a_node24"><a xlink:href="scopeptr_8h.html" target="_top" xlink:title=" ">
<polygon fill="white" stroke="#666666" points="960,-349 898,-349 898,-330 960,-330 960,-349"/>
<text text-anchor="middle" x="929" y="-337" font-family="Helvetica,sans-Serif" font-size="10.00">scopeptr.h</text>
</a>
</g>
</g>
<!-- Node22&#45;&gt;Node24 -->
<g id="edge26" class="edge">
<title>Node22&#45;&gt;Node24</title>
<path fill="none" stroke="#63b8ff" d="M933.42,-549.77C943.86,-541.72 958.27,-528.81 966,-514 988.95,-470.02 980.76,-453.43 985,-404 985.72,-395.59 988.67,-392.61 985,-385 979.05,-372.67 967.84,-362.71 957,-355.36"/>
<polygon fill="#63b8ff" stroke="#63b8ff" points="958.94,-352.45 948.6,-350.15 955.25,-358.39 958.94,-352.45"/>
</g>
<!-- Node24&#45;&gt;Node6 -->
<g id="edge29" class="edge">
<title>Node24&#45;&gt;Node6</title>
<path fill="none" stroke="#63b8ff" d="M897.8,-335.46C809.51,-326.86 556.92,-302.25 442.53,-291.11"/>
<polygon fill="#63b8ff" stroke="#63b8ff" points="443.05,-287.64 432.75,-290.15 442.37,-294.61 443.05,-287.64"/>
</g>
<!-- Node24&#45;&gt;Node25 -->
<g id="edge27" class="edge">
<title>Node24&#45;&gt;Node25</title>
<path fill="none" stroke="#63b8ff" d="M929,-329.75C929,-323.27 929,-314.16 929,-305.9"/>
<polygon fill="#63b8ff" stroke="#63b8ff" points="932.5,-305.96 929,-295.96 925.5,-305.96 932.5,-305.96"/>
</g>
<!-- Node25&#45;&gt;Node14 -->
<g id="edge28" class="edge">
<title>Node25&#45;&gt;Node14</title>
<path fill="none" stroke="#63b8ff" d="M908.13,-274.51C888.58,-266.08 859.1,-253.38 836.83,-243.79"/>
<polygon fill="#63b8ff" stroke="#63b8ff" points="838.52,-240.7 827.95,-239.96 835.75,-247.13 838.52,-240.7"/>
</g>
<!-- Node26&#45;&gt;Node5 -->
<g id="edge62" class="edge">
<title>Node26&#45;&gt;Node5</title>
<path fill="none" stroke="#63b8ff" d="M398.47,-549.51C359.02,-540.54 298.26,-526.71 255.37,-516.96"/>
<polygon fill="#63b8ff" stroke="#63b8ff" points="256.33,-513.59 245.81,-514.78 254.78,-520.41 256.33,-513.59"/>
</g>
<!-- Node26&#45;&gt;Node20 -->
<g id="edge31" class="edge">
<title>Node26&#45;&gt;Node20</title>
<path fill="none" stroke="#63b8ff" d="M484.82,-549.51C532.15,-540.42 605.37,-526.36 656.27,-516.59"/>
<polygon fill="#63b8ff" stroke="#63b8ff" points="656.77,-520.05 665.93,-514.73 655.45,-513.18 656.77,-520.05"/>
</g>
<!-- Node26&#45;&gt;Node27 -->
<g id="edge32" class="edge">
<title>Node26&#45;&gt;Node27</title>
<path fill="none" stroke="#63b8ff" d="M464.46,-549.51C489.86,-540.88 528.47,-527.76 556.92,-518.1"/>
<polygon fill="#63b8ff" stroke="#63b8ff" points="557.89,-521.46 566.23,-514.93 555.64,-514.84 557.89,-521.46"/>
</g>
<!-- Node46 -->
<g id="node46" class="node">
<title>Node46</title>
<g id="a_node46"><a xlink:href="argumentlist_8h.html" target="_top" xlink:title=" ">
<polygon fill="white" stroke="#666666" points="409.5,-514 332.5,-514 332.5,-495 409.5,-495 409.5,-514"/>
<text text-anchor="middle" x="371" y="-502" font-family="Helvetica,sans-Serif" font-size="10.00">argumentlist.h</text>
</a>
</g>
</g>
<!-- Node26&#45;&gt;Node46 -->
<g id="edge59" class="edge">
<title>Node26&#45;&gt;Node46</title>
<path fill="none" stroke="#63b8ff" d="M426.63,-549.51C416.95,-541.85 402.8,-530.66 391.19,-521.47"/>
<polygon fill="#63b8ff" stroke="#63b8ff" points="393.4,-518.76 383.38,-515.3 389.06,-524.25 393.4,-518.76"/>
</g>
<!-- Node47 -->
<g id="node47" class="node">
<title>Node47</title>
<g id="a_node47"><a xlink:href="functionargument_8h.html" target="_top" xlink:title=" ">
<polygon fill="white" stroke="#666666" points="392.5,-459 293.5,-459 293.5,-440 392.5,-440 392.5,-459"/>
<text text-anchor="middle" x="343" y="-447" font-family="Helvetica,sans-Serif" font-size="10.00">functionargument.h</text>
</a>
</g>
</g>
<!-- Node26&#45;&gt;Node47 -->
<g id="edge60" class="edge">
<title>Node26&#45;&gt;Node47</title>
<path fill="none" stroke="#63b8ff" d="M437.4,-549.78C436.08,-536.62 431.94,-511.47 419,-495 408.43,-481.55 392.59,-471.36 378.1,-464.15"/>
<polygon fill="#63b8ff" stroke="#63b8ff" points="379.8,-461.08 369.26,-460.05 376.86,-467.43 379.8,-461.08"/>
</g>
<!-- Node27&#45;&gt;Node6 -->
<g id="edge54" class="edge">
<title>Node27&#45;&gt;Node6</title>
<path fill="none" stroke="#63b8ff" d="M542.18,-499.81C510.43,-494.96 471.02,-483.93 445,-459 401.14,-416.97 389.33,-341.36 386.16,-305.46"/>
<polygon fill="#63b8ff" stroke="#63b8ff" points="389.66,-305.4 385.45,-295.68 382.68,-305.9 389.66,-305.4"/>
</g>
<!-- Node27&#45;&gt;Node12 -->
<g id="edge53" class="edge">
<title>Node27&#45;&gt;Node12</title>
<path fill="none" stroke="#63b8ff" d="M577.1,-494.72C549.31,-478.92 497,-442.88 497,-395.5 497,-395.5 497,-395.5 497,-338.5 497,-305.45 513.68,-270.05 525.49,-249.12"/>
<polygon fill="#63b8ff" stroke="#63b8ff" points="528.43,-251.03 530.5,-240.64 522.4,-247.47 528.43,-251.03"/>
</g>
<!-- Node27&#45;&gt;Node17 -->
<g id="edge58" class="edge">
<title>Node27&#45;&gt;Node17</title>
<path fill="none" stroke="#63b8ff" d="M645.91,-496.26C648.99,-495.83 652.03,-495.41 655,-495 771.43,-478.89 809.12,-505.67 917,-459 952.67,-443.57 965.13,-437.41 985,-404 1014.43,-354.51 1017.89,-284.15 1017.66,-250.25"/>
<polygon fill="#63b8ff" stroke="#63b8ff" points="1021.16,-250.61 1017.46,-240.68 1014.17,-250.75 1021.16,-250.61"/>
</g>
<!-- Node28 -->
<g id="node28" class="node">
<title>Node28</title>
<g id="a_node28"><a xlink:href="ownedscopeptr_8h.html" target="_top" xlink:title=" ">
<polygon fill="white" stroke="#666666" points="808,-459 718,-459 718,-440 808,-440 808,-459"/>
<text text-anchor="middle" x="763" y="-447" font-family="Helvetica,sans-Serif" font-size="10.00">ownedscopeptr.h</text>
</a>
</g>
</g>
<!-- Node27&#45;&gt;Node28 -->
<g id="edge33" class="edge">
<title>Node27&#45;&gt;Node28</title>
<path fill="none" stroke="#63b8ff" d="M622.67,-494.51C650.43,-485.8 692.75,-472.53 723.65,-462.84"/>
<polygon fill="#63b8ff" stroke="#63b8ff" points="724.53,-466.23 733.03,-459.9 722.44,-459.55 724.53,-466.23"/>
</g>
<!-- Node30 -->
<g id="node30" class="node">
<title>Node30</title>
<g id="a_node30"><a xlink:href="keyvaluesender_8h.html" target="_top" xlink:title=" ">
<polygon fill="white" stroke="#666666" points="1164,-349 1072,-349 1072,-330 1164,-330 1164,-349"/>
<text text-anchor="middle" x="1118" y="-337" font-family="Helvetica,sans-Serif" font-size="10.00">keyvaluesender.h</text>
</a>
</g>
</g>
<!-- Node27&#45;&gt;Node30 -->
<g id="edge36" class="edge">
<title>Node27&#45;&gt;Node30</title>
<path fill="none" stroke="#63b8ff" d="M645.9,-496.13C648.97,-495.73 652.03,-495.35 655,-495 735.49,-485.4 946.26,-496.75 1018,-459 1061.13,-436.31 1093.27,-386.44 1108.4,-359.19"/>
<polygon fill="#63b8ff" stroke="#63b8ff" points="1111.32,-361.14 1112.95,-350.68 1105.15,-357.84 1111.32,-361.14"/>
</g>
<!-- Node36 -->
<g id="node36" class="node">
<title>Node36</title>
<g id="a_node36"><a xlink:href="virtualrange_8h.html" target="_top" xlink:title=" ">
<polygon fill="white" stroke="#666666" points="700,-459 546,-459 546,-440 700,-440 700,-459"/>
<text text-anchor="middle" x="623" y="-447" font-family="Helvetica,sans-Serif" font-size="10.00">Generic/container/virtualrange.h</text>
</a>
</g>
</g>
<!-- Node27&#45;&gt;Node36 -->
<g id="edge45" class="edge">
<title>Node27&#45;&gt;Node36</title>
<path fill="none" stroke="#63b8ff" d="M598.79,-494.75C602.54,-487.88 607.91,-478.08 612.63,-469.45"/>
<polygon fill="#63b8ff" stroke="#63b8ff" points="615.65,-471.22 617.38,-460.77 609.51,-467.86 615.65,-471.22"/>
</g>
<!-- Node44 -->
<g id="node44" class="node">
<title>Node44</title>
<g id="a_node44"><a xlink:href="enumholder_8h.html" target="_top" xlink:title=" ">
<polygon fill="white" stroke="#666666" points="908,-459 826,-459 826,-440 908,-440 908,-459"/>
<text text-anchor="middle" x="867" y="-447" font-family="Helvetica,sans-Serif" font-size="10.00">../enumholder.h</text>
</a>
</g>
</g>
<!-- Node27&#45;&gt;Node44 -->
<g id="edge55" class="edge">
<title>Node27&#45;&gt;Node44</title>
<path fill="none" stroke="#63b8ff" d="M640.31,-494.51C688.68,-485.12 764.4,-470.42 814.84,-460.63"/>
<polygon fill="#63b8ff" stroke="#63b8ff" points="815.19,-464.12 824.34,-458.78 813.86,-457.25 815.19,-464.12"/>
</g>
<!-- Node45 -->
<g id="node45" class="node">
<title>Node45</title>
<g id="a_node45"><a xlink:href="flagsholder_8h.html" target="_top" xlink:title=" ">
<polygon fill="white" stroke="#666666" points="527,-129 449,-129 449,-110 527,-110 527,-129"/>
<text text-anchor="middle" x="488" y="-117" font-family="Helvetica,sans-Serif" font-size="10.00">../flagsholder.h</text>
</a>
</g>
</g>
<!-- Node27&#45;&gt;Node45 -->
<g id="edge56" class="edge">
<title>Node27&#45;&gt;Node45</title>
<path fill="none" stroke="#63b8ff" d="M564.37,-494.53C524.63,-480.45 459,-449.08 459,-395.5 459,-395.5 459,-395.5 459,-228.5 459,-196.54 470.99,-161.03 479.55,-139.75"/>
<polygon fill="#63b8ff" stroke="#63b8ff" points="482.73,-141.22 483.38,-130.64 476.28,-138.5 482.73,-141.22"/>
</g>
<!-- Node29 -->
<g id="node29" class="node">
<title>Node29</title>
<g id="a_node29"><a xlink:href="proxyscopebase_8h.html" target="_top" xlink:title=" ">
<polygon fill="white" stroke="#666666" points="976,-404 882,-404 882,-385 976,-385 976,-404"/>
<text text-anchor="middle" x="929" y="-392" font-family="Helvetica,sans-Serif" font-size="10.00">proxyscopebase.h</text>
</a>
</g>
</g>
<!-- Node28&#45;&gt;Node29 -->
<g id="edge34" class="edge">
<title>Node28&#45;&gt;Node29</title>
<path fill="none" stroke="#63b8ff" d="M791.16,-439.51C818.43,-430.8 859.99,-417.53 890.35,-407.84"/>
<polygon fill="#63b8ff" stroke="#63b8ff" points="891.08,-411.28 899.54,-404.91 888.95,-404.61 891.08,-411.28"/>
</g>
<!-- Node29&#45;&gt;Node24 -->
<g id="edge35" class="edge">
<title>Node29&#45;&gt;Node24</title>
<path fill="none" stroke="#63b8ff" d="M929,-384.75C929,-378.27 929,-369.16 929,-360.9"/>
<polygon fill="#63b8ff" stroke="#63b8ff" points="932.5,-360.96 929,-350.96 925.5,-360.96 932.5,-360.96"/>
</g>
<!-- Node30&#45;&gt;Node15 -->
<g id="edge44" class="edge">
<title>Node30&#45;&gt;Node15</title>
<path fill="none" stroke="#63b8ff" d="M1119.7,-329.52C1123.33,-307.41 1129.18,-249.93 1099,-220 1068.38,-189.63 952.21,-179.95 875.67,-176.89"/>
<polygon fill="#63b8ff" stroke="#63b8ff" points="875.85,-173.39 865.73,-176.52 875.59,-180.39 875.85,-173.39"/>
</g>
<!-- Node30&#45;&gt;Node17 -->
<g id="edge39" class="edge">
<title>Node30&#45;&gt;Node17</title>
<path fill="none" stroke="#63b8ff" d="M1109.73,-329.66C1093.01,-311.78 1054.92,-271.05 1033.11,-247.73"/>
<polygon fill="#63b8ff" stroke="#63b8ff" points="1035.8,-245.48 1026.41,-240.57 1030.69,-250.26 1035.8,-245.48"/>
</g>
<!-- Node31 -->
<g id="node31" class="node">
<title>Node31</title>
<g id="a_node31"><a xlink:href="delayedconstruct_8h.html" target="_top" xlink:title=" ">
<polygon fill="white" stroke="#666666" points="1452,-294 1318,-294 1318,-275 1452,-275 1452,-294"/>
<text text-anchor="middle" x="1385" y="-282" font-family="Helvetica,sans-Serif" font-size="10.00">Generic/delayedconstruct.h</text>
</a>
</g>
</g>
<!-- Node30&#45;&gt;Node31 -->
<g id="edge37" class="edge">
<title>Node30&#45;&gt;Node31</title>
<path fill="none" stroke="#63b8ff" d="M1163.29,-329.51C1208.98,-320.44 1279.62,-306.42 1328.84,-296.65"/>
<polygon fill="#63b8ff" stroke="#63b8ff" points="1329.32,-300.12 1338.45,-294.74 1327.96,-293.26 1329.32,-300.12"/>
</g>
<!-- Node33 -->
<g id="node33" class="node">
<title>Node33</title>
<g id="a_node33"><a xlink:href="virtualstate_8h.html" target="_top" xlink:title=" ">
<polygon fill="white" stroke="#666666" points="1299.5,-294 1146.5,-294 1146.5,-275 1299.5,-275 1299.5,-294"/>
<text text-anchor="middle" x="1223" y="-282" font-family="Helvetica,sans-Serif" font-size="10.00">Generic/execution/virtualstate.h</text>
</a>
</g>
</g>
<!-- Node30&#45;&gt;Node33 -->
<g id="edge40" class="edge">
<title>Node30&#45;&gt;Node33</title>
<path fill="none" stroke="#63b8ff" d="M1135.81,-329.51C1152.13,-321.27 1176.53,-308.96 1195.37,-299.45"/>
<polygon fill="#63b8ff" stroke="#63b8ff" points="1196.75,-302.67 1204.1,-295.04 1193.6,-296.42 1196.75,-302.67"/>
</g>
<!-- Node32 -->
<g id="node32" class="node">
<title>Node32</title>
<g id="a_node32"><a xlink:href="closure_8h.html" target="_top" xlink:title=" ">
<polygon fill="white" stroke="#666666" points="1413,-239 1357,-239 1357,-220 1413,-220 1413,-239"/>
<text text-anchor="middle" x="1385" y="-227" font-family="Helvetica,sans-Serif" font-size="10.00">closure.h</text>
</a>
</g>
</g>
<!-- Node31&#45;&gt;Node32 -->
<g id="edge38" class="edge">
<title>Node31&#45;&gt;Node32</title>
<path fill="none" stroke="#63b8ff" d="M1385,-274.75C1385,-268.27 1385,-259.16 1385,-250.9"/>
<polygon fill="#63b8ff" stroke="#63b8ff" points="1388.5,-250.96 1385,-240.96 1381.5,-250.96 1388.5,-250.96"/>
</g>
<!-- Node33&#45;&gt;Node17 -->
<g id="edge41" class="edge">
<title>Node33&#45;&gt;Node17</title>
<path fill="none" stroke="#63b8ff" d="M1188.05,-274.51C1153.47,-265.61 1100.37,-251.95 1062.51,-242.21"/>
<polygon fill="#63b8ff" stroke="#63b8ff" points="1063.79,-238.93 1053.24,-239.82 1062.05,-245.7 1063.79,-238.93"/>
</g>
<!-- Node34 -->
<g id="node34" class="node">
<title>Node34</title>
<g id="a_node34"><a xlink:href="virtual__invoke_8h.html" target="_top" xlink:title=" ">
<polygon fill="white" stroke="#666666" points="1283.5,-239 1162.5,-239 1162.5,-220 1283.5,-220 1283.5,-239"/>
<text text-anchor="middle" x="1223" y="-227" font-family="Helvetica,sans-Serif" font-size="10.00">Generic/virtual_invoke.h</text>
</a>
</g>
</g>
<!-- Node33&#45;&gt;Node34 -->
<g id="edge42" class="edge">
<title>Node33&#45;&gt;Node34</title>
<path fill="none" stroke="#63b8ff" d="M1223,-274.75C1223,-268.27 1223,-259.16 1223,-250.9"/>
<polygon fill="#63b8ff" stroke="#63b8ff" points="1226.5,-250.96 1223,-240.96 1219.5,-250.96 1226.5,-250.96"/>
</g>
<!-- Node35 -->
<g id="node35" class="node">
<title>Node35</title>
<g id="a_node35"><a xlink:href="callable__traits_8h.html" target="_top" xlink:title=" ">
<polygon fill="white" stroke="#666666" points="1265,-184 1181,-184 1181,-165 1265,-165 1265,-184"/>
<text text-anchor="middle" x="1223" y="-172" font-family="Helvetica,sans-Serif" font-size="10.00">callable_traits.h</text>
</a>
</g>
</g>
<!-- Node34&#45;&gt;Node35 -->
<g id="edge43" class="edge">
<title>Node34&#45;&gt;Node35</title>
<path fill="none" stroke="#63b8ff" d="M1223,-219.75C1223,-213.27 1223,-204.16 1223,-195.9"/>
<polygon fill="#63b8ff" stroke="#63b8ff" points="1226.5,-195.96 1223,-185.96 1219.5,-195.96 1226.5,-195.96"/>
</g>
<!-- Node37 -->
<g id="node37" class="node">
<title>Node37</title>
<g id="a_node37"><a xlink:href="proxy_8h.html" target="_top" xlink:title=" ">
<polygon fill="white" stroke="#666666" points="756,-404 702,-404 702,-385 756,-385 756,-404"/>
<text text-anchor="middle" x="729" y="-392" font-family="Helvetica,sans-Serif" font-size="10.00">../proxy.h</text>
</a>
</g>
</g>
<!-- Node36&#45;&gt;Node37 -->
<g id="edge46" class="edge">
<title>Node36&#45;&gt;Node37</title>
<path fill="none" stroke="#63b8ff" d="M640.98,-439.51C657.45,-431.27 682.09,-418.96 701.11,-409.45"/>
<polygon fill="#63b8ff" stroke="#63b8ff" points="702.55,-412.64 709.93,-405.03 699.42,-406.38 702.55,-412.64"/>
</g>
<!-- Node38 -->
<g id="node38" class="node">
<title>Node38</title>
<g id="a_node38"><a xlink:href="defaultassign_8h.html" target="_top" xlink:title=" ">
<polygon fill="white" stroke="#666666" points="863.5,-404 774.5,-404 774.5,-385 863.5,-385 863.5,-404"/>
<text text-anchor="middle" x="819" y="-392" font-family="Helvetica,sans-Serif" font-size="10.00">../defaultassign.h</text>
</a>
</g>
</g>
<!-- Node36&#45;&gt;Node38 -->
<g id="edge47" class="edge">
<title>Node36&#45;&gt;Node38</title>
<path fill="none" stroke="#63b8ff" d="M656.25,-439.51C689.01,-430.65 739.25,-417.07 775.24,-407.33"/>
<polygon fill="#63b8ff" stroke="#63b8ff" points="775.72,-410.83 784.45,-404.84 773.89,-404.07 775.72,-410.83"/>
</g>
<!-- Node39 -->
<g id="node39" class="node">
<title>Node39</title>
<g id="a_node39"><a xlink:href="heapobject_8h.html" target="_top" xlink:title=" ">
<polygon fill="white" stroke="#666666" points="683.5,-404 604.5,-404 604.5,-385 683.5,-385 683.5,-404"/>
<text text-anchor="middle" x="644" y="-392" font-family="Helvetica,sans-Serif" font-size="10.00">../heapobject.h</text>
</a>
</g>
</g>
<!-- Node36&#45;&gt;Node39 -->
<g id="edge48" class="edge">
<title>Node36&#45;&gt;Node39</title>
<path fill="none" stroke="#63b8ff" d="M626.47,-439.75C629.13,-433.04 632.9,-423.52 636.26,-415.02"/>
<polygon fill="#63b8ff" stroke="#63b8ff" points="639.47,-416.44 639.9,-405.85 632.96,-413.86 639.47,-416.44"/>
</g>
<!-- Node40 -->
<g id="node40" class="node">
<title>Node40</title>
<g id="a_node40"><a xlink:href="emplace_8h.html" target="_top" xlink:title=" ">
<polygon fill="white" stroke="#666666" points="586.5,-404 525.5,-404 525.5,-385 586.5,-385 586.5,-404"/>
<text text-anchor="middle" x="556" y="-392" font-family="Helvetica,sans-Serif" font-size="10.00">emplace.h</text>
</a>
</g>
</g>
<!-- Node36&#45;&gt;Node40 -->
<g id="edge49" class="edge">
<title>Node36&#45;&gt;Node40</title>
<path fill="none" stroke="#63b8ff" d="M611.63,-439.51C601.95,-431.85 587.8,-420.66 576.19,-411.47"/>
<polygon fill="#63b8ff" stroke="#63b8ff" points="578.4,-408.76 568.38,-405.3 574.06,-414.25 578.4,-408.76"/>
</g>
<!-- Node41 -->
<g id="node41" class="node">
<title>Node41</title>
<g id="a_node41"><a xlink:href="container__traits_8h.html" target="_top" xlink:title=" ">
<polygon fill="white" stroke="#666666" points="627.5,-349 536.5,-349 536.5,-330 627.5,-330 627.5,-349"/>
<text text-anchor="middle" x="582" y="-337" font-family="Helvetica,sans-Serif" font-size="10.00">container_traits.h</text>
</a>
</g>
</g>
<!-- Node40&#45;&gt;Node41 -->
<g id="edge50" class="edge">
<title>Node40&#45;&gt;Node41</title>
<path fill="none" stroke="#63b8ff" d="M560.29,-384.75C563.62,-377.96 568.36,-368.3 572.56,-359.73"/>
<polygon fill="#63b8ff" stroke="#63b8ff" points="575.68,-361.32 576.95,-350.8 569.4,-358.24 575.68,-361.32"/>
</g>
<!-- Node42 -->
<g id="node42" class="node">
<title>Node42</title>
<g id="a_node42"><a xlink:href="indextype_8h.html" target="_top" xlink:title=" ">
<polygon fill="white" stroke="#666666" points="729,-294 657,-294 657,-275 729,-275 729,-294"/>
<text text-anchor="middle" x="693" y="-282" font-family="Helvetica,sans-Serif" font-size="10.00">../indextype.h</text>
</a>
</g>
</g>
<!-- Node41&#45;&gt;Node42 -->
<g id="edge51" class="edge">
<title>Node41&#45;&gt;Node42</title>
<path fill="none" stroke="#63b8ff" d="M600.83,-329.51C618.16,-321.24 644.11,-308.84 664.07,-299.31"/>
<polygon fill="#63b8ff" stroke="#63b8ff" points="665.57,-302.48 673.08,-295.01 662.55,-296.16 665.57,-302.48"/>
</g>
<!-- Node43 -->
<g id="node43" class="node">
<title>Node43</title>
<g id="a_node43"><a xlink:href="underlying__container_8h.html" target="_top" xlink:title=" ">
<polygon fill="white" stroke="#666666" points="638.5,-294 525.5,-294 525.5,-275 638.5,-275 638.5,-294"/>
<text text-anchor="middle" x="582" y="-282" font-family="Helvetica,sans-Serif" font-size="10.00">underlying_container.h</text>
</a>
</g>
</g>
<!-- Node41&#45;&gt;Node43 -->
<g id="edge52" class="edge">
<title>Node41&#45;&gt;Node43</title>
<path fill="none" stroke="#63b8ff" d="M582,-329.75C582,-323.27 582,-314.16 582,-305.9"/>
<polygon fill="#63b8ff" stroke="#63b8ff" points="585.5,-305.96 582,-295.96 578.5,-305.96 585.5,-305.96"/>
</g>
<!-- Node45&#45;&gt;Node10 -->
<g id="edge57" class="edge">
<title>Node45&#45;&gt;Node10</title>
<path fill="none" stroke="#63b8ff" d="M488,-109.75C488,-103.27 488,-94.16 488,-85.9"/>
<polygon fill="#63b8ff" stroke="#63b8ff" points="491.5,-85.96 488,-75.96 484.5,-85.96 491.5,-85.96"/>
</g>
<!-- Node47&#45;&gt;Node6 -->
<g id="edge61" class="edge">
<title>Node47&#45;&gt;Node6</title>
<path fill="none" stroke="#63b8ff" d="M345.26,-439.74C351.78,-414.42 370.77,-340.72 379.94,-305.16"/>
<polygon fill="#63b8ff" stroke="#63b8ff" points="383.25,-306.33 382.35,-295.77 376.47,-304.58 383.25,-306.33"/>
</g>
</g>
</svg>
        <g id="navigator" transform="translate(0 0)" fill="#404254">
                <rect fill="#f2f5e9" fill-opacity="0.5" stroke="#606060" stroke-width=".5" x="0" y="0" width="60" height="60"/>
                <use id="zoomplus" xlink:href="#zoomPlus" x="17" y="9" onmousedown="handleZoom(evt,'in')"/>
                <use id="zoomminus" xlink:href="#zoomMin" x="42" y="9" onmousedown="handleZoom(evt,'out')"/>
                <use id="reset" xlink:href="#resetDef" x="30" y="36" onmousedown="handleReset()"/>
                <g id="arrowUp" xlink:href="#dirArrow" transform="translate(30 24)" onmousedown="handlePan(0,-1)">
                  <use xlink:href="#rim" fill="#404040">
                        <set attributeName="fill" to="#808080" begin="arrowUp.mouseover" end="arrowUp.mouseout"/>
                  </use>
                  <path fill="none" stroke="white" stroke-width="1.5" d="M0,-3.0v7 M-2.5,-0.5L0,-3.0L2.5,-0.5"/>
                </g>
                <g id="arrowRight" xlink:href="#dirArrow" transform="rotate(90) translate(36 -43)" onmousedown="handlePan(1,0)">
                  <use xlink:href="#rim" fill="#404040">
                        <set attributeName="fill" to="#808080" begin="arrowRight.mouseover" end="arrowRight.mouseout"/>
                  </use>
                  <path fill="none" stroke="white" stroke-width="1.5" d="M0,-3.0v7 M-2.5,-0.5L0,-3.0L2.5,-0.5"/>
                </g>
                <g id="arrowDown" xlink:href="#dirArrow" transform="rotate(180) translate(-30 -48)" onmousedown="handlePan(0,1)">
                  <use xlink:href="#rim" fill="#404040">
                        <set attributeName="fill" to="#808080" begin="arrowDown.mouseover" end="arrowDown.mouseout"/>
                  </use>
                  <path fill="none" stroke="white" stroke-width="1.5" d="M0,-3.0v7 M-2.5,-0.5L0,-3.0L2.5,-0.5"/>
                </g>
                <g id="arrowLeft" xlink:href="#dirArrow" transform="rotate(270) translate(-36 17)" onmousedown="handlePan(-1,0)">
                  <use xlink:href="#rim" fill="#404040">
                        <set attributeName="fill" to="#808080" begin="arrowLeft.mouseover" end="arrowLeft.mouseout"/>
                  </use>
                  <path fill="none" stroke="white" stroke-width="1.5" d="M0,-3.0v7 M-2.5,-0.5L0,-3.0L2.5,-0.5"/>
                </g>
        </g>
        <svg viewBox="0 0 15 15" width="100%" height="30px" preserveAspectRatio="xMaxYMin meet">
         <g id="arrow_out" transform="scale(0.3 0.3)">
          <a xlink:href="functiontable_8cpp__incl_org.svg" target="_base">
           <rect id="button" ry="5" rx="5" y="6" x="6" height="38" width="38"
                fill="#f2f5e9" fill-opacity="0.5" stroke="#606060" stroke-width="1.0"/>
           <path id="arrow"
             d="M 11.500037,31.436501 C 11.940474,20.09759 22.043105,11.32322 32.158766,21.979434 L 37.068811,17.246167 C 37.068811,17.246167 37.088388,32 37.088388,32 L 22.160133,31.978069 C 22.160133,31.978069 26.997745,27.140456 26.997745,27.140456 C 18.528582,18.264221 13.291696,25.230495 11.500037,31.436501 z"
             style="fill:#404040;"/>
          </a>
         </g>
        </svg>
</svg>
