<?xml version="1.0" encoding="UTF-8" standalone="no"?>
<!DOCTYPE svg PUBLIC "-//W3C//DTD SVG 1.1//EN"
 "http://www.w3.org/Graphics/SVG/1.1/DTD/svg11.dtd">
<!-- Generated by graphviz version 7.0.5 (20221223.1930)
 -->
<!-- Title: src/Meta/keyvalue/functiontable.h Pages: 1 -->
<svg width="560pt" height="357pt"
 viewBox="0.00 0.00 559.50 357.00" xmlns="http://www.w3.org/2000/svg" xmlns:xlink="http://www.w3.org/1999/xlink">
<g id="graph0" class="graph" transform="scale(1 1) rotate(0) translate(4 353)">
<title>src/Meta/keyvalue/functiontable.h</title>
<!-- Node1 -->
<g id="node1" class="node">
<title>Node1</title>
<g id="a_node1"><a xlink:title=" ">
<polygon fill="#999999" stroke="#666666" points="280,-349 118,-349 118,-330 280,-330 280,-349"/>
<text text-anchor="middle" x="199" y="-337" font-family="Helvetica,sans-Serif" font-size="10.00">src/Meta/keyvalue/functiontable.h</text>
</a>
</g>
</g>
<!-- Node2 -->
<g id="node2" class="node">
<title>Node2</title>
<g id="a_node2"><a xlink:href="valuetype__desc_8h.html" target="_top" xlink:title=" ">
<polygon fill="white" stroke="#666666" points="245,-294 153,-294 153,-275 245,-275 245,-294"/>
<text text-anchor="middle" x="199" y="-282" font-family="Helvetica,sans-Serif" font-size="10.00">valuetype_desc.h</text>
</a>
</g>
</g>
<!-- Node1&#45;&gt;Node2 -->
<g id="edge1" class="edge">
<title>Node1&#45;&gt;Node2</title>
<path fill="none" stroke="#63b8ff" d="M199,-329.75C199,-323.27 199,-314.16 199,-305.9"/>
<polygon fill="#63b8ff" stroke="#63b8ff" points="202.5,-305.96 199,-295.96 195.5,-305.96 202.5,-305.96"/>
</g>
<!-- Node3 -->
<g id="node3" class="node">
<title>Node3</title>
<g id="a_node3"><a xlink:href="valuetype__types_8h.html" target="_top" xlink:title=" ">
<polygon fill="white" stroke="#666666" points="94,-239 0,-239 0,-220 94,-220 94,-239"/>
<text text-anchor="middle" x="47" y="-227" font-family="Helvetica,sans-Serif" font-size="10.00">valuetype_types.h</text>
</a>
</g>
</g>
<!-- Node2&#45;&gt;Node3 -->
<g id="edge2" class="edge">
<title>Node2&#45;&gt;Node3</title>
<path fill="none" stroke="#63b8ff" d="M173.22,-274.51C148.57,-265.92 111.19,-252.88 83.49,-243.22"/>
<polygon fill="#63b8ff" stroke="#63b8ff" points="84.68,-239.93 74.09,-239.94 82.38,-246.54 84.68,-239.93"/>
</g>
<!-- Node4 -->
<g id="node4" class="node">
<title>Node4</title>
<g id="a_node4"><a xlink:href="valuetypedefinclude_8h.html" target="_top" xlink:title=" ">
<polygon fill="white" stroke="#666666" points="116.5,-184 7.5,-184 7.5,-165 116.5,-165 116.5,-184"/>
<text text-anchor="middle" x="62" y="-172" font-family="Helvetica,sans-Serif" font-size="10.00">valuetypedefinclude.h</text>
</a>
</g>
</g>
<!-- Node2&#45;&gt;Node4 -->
<g id="edge14" class="edge">
<title>Node2&#45;&gt;Node4</title>
<path fill="none" stroke="#63b8ff" d="M187.79,-274.66C164.71,-256.47 111.6,-214.6 82.31,-191.51"/>
<polygon fill="#63b8ff" stroke="#63b8ff" points="84.57,-188.84 74.55,-185.4 80.24,-194.34 84.57,-188.84"/>
</g>
<!-- Node6 -->
<g id="node6" class="node">
<title>Node6</title>
<g id="a_node6"><a xlink:href="array_8h.html" target="_top" xlink:title=" ">
<polygon fill="white" stroke="#666666" points="236.5,-74 135.5,-74 135.5,-55 236.5,-55 236.5,-74"/>
<text text-anchor="middle" x="186" y="-62" font-family="Helvetica,sans-Serif" font-size="10.00">Generic/bits/array.h</text>
</a>
</g>
</g>
<!-- Node2&#45;&gt;Node6 -->
<g id="edge5" class="edge">
<title>Node2&#45;&gt;Node6</title>
<path fill="none" stroke="#63b8ff" d="M193.68,-274.68C188.77,-265.97 181.81,-252.09 179,-239 167.28,-184.35 176.21,-117.86 182.02,-85.34"/>
<polygon fill="#63b8ff" stroke="#63b8ff" points="185.41,-86.26 183.84,-75.78 178.53,-84.96 185.41,-86.26"/>
</g>
<!-- Node8 -->
<g id="node8" class="node">
<title>Node8</title>
<g id="a_node8"><a xlink:href="keyvalue_8h.html" target="_top" xlink:title=" ">
<polygon fill="white" stroke="#666666" points="287.5,-239 188.5,-239 188.5,-220 287.5,-220 287.5,-239"/>
<text text-anchor="middle" x="238" y="-227" font-family="Helvetica,sans-Serif" font-size="10.00">Generic/keyvalue.h</text>
</a>
</g>
</g>
<!-- Node2&#45;&gt;Node8 -->
<g id="edge7" class="edge">
<title>Node2&#45;&gt;Node8</title>
<path fill="none" stroke="#63b8ff" d="M205.44,-274.75C210.66,-267.66 218.19,-257.42 224.69,-248.59"/>
<polygon fill="#63b8ff" stroke="#63b8ff" points="227.42,-250.79 230.52,-240.66 221.78,-246.64 227.42,-250.79"/>
</g>
<!-- Node10 -->
<g id="node10" class="node">
<title>Node10</title>
<g id="a_node10"><a xlink:href="table__forward_8h.html" target="_top" xlink:title=" ">
<polygon fill="white" stroke="#666666" points="388.5,-239 305.5,-239 305.5,-220 388.5,-220 388.5,-239"/>
<text text-anchor="middle" x="347" y="-227" font-family="Helvetica,sans-Serif" font-size="10.00">table_forward.h</text>
</a>
</g>
</g>
<!-- Node2&#45;&gt;Node10 -->
<g id="edge9" class="edge">
<title>Node2&#45;&gt;Node10</title>
<path fill="none" stroke="#63b8ff" d="M224.11,-274.51C248.17,-265.89 284.72,-252.8 311.71,-243.14"/>
<polygon fill="#63b8ff" stroke="#63b8ff" points="312.61,-246.53 320.84,-239.87 310.25,-239.94 312.61,-246.53"/>
</g>
<!-- Node13 -->
<g id="node13" class="node">
<title>Node13</title>
<g id="a_node13"><a xlink:href="execution_2concepts_8h.html" target="_top" xlink:title=" ">
<polygon fill="white" stroke="#666666" points="551.5,-239 406.5,-239 406.5,-220 551.5,-220 551.5,-239"/>
<text text-anchor="middle" x="479" y="-227" font-family="Helvetica,sans-Serif" font-size="10.00">Generic/execution/concepts.h</text>
</a>
</g>
</g>
<!-- Node2&#45;&gt;Node13 -->
<g id="edge13" class="edge">
<title>Node2&#45;&gt;Node13</title>
<path fill="none" stroke="#63b8ff" d="M245.24,-274.75C293.28,-265.65 368.59,-251.4 420.69,-241.54"/>
<polygon fill="#63b8ff" stroke="#63b8ff" points="421.1,-245.02 430.27,-239.72 419.8,-238.14 421.1,-245.02"/>
</g>
<!-- Node3&#45;&gt;Node4 -->
<g id="edge3" class="edge">
<title>Node3&#45;&gt;Node4</title>
<path fill="none" stroke="#63b8ff" d="M49.48,-219.75C51.35,-213.11 54.01,-203.73 56.39,-195.31"/>
<polygon fill="#63b8ff" stroke="#63b8ff" points="59.7,-196.47 59.06,-185.9 52.97,-194.57 59.7,-196.47"/>
</g>
<!-- Node5 -->
<g id="node5" class="node">
<title>Node5</title>
<g id="a_node5"><a xlink:href="valuetypedef_8h.html" target="_top" xlink:title=" ">
<polygon fill="white" stroke="#666666" points="101.5,-129 22.5,-129 22.5,-110 101.5,-110 101.5,-129"/>
<text text-anchor="middle" x="62" y="-117" font-family="Helvetica,sans-Serif" font-size="10.00">valuetypedef.h</text>
</a>
</g>
</g>
<!-- Node4&#45;&gt;Node5 -->
<g id="edge4" class="edge">
<title>Node4&#45;&gt;Node5</title>
<path fill="none" stroke="#63b8ff" d="M62,-164.75C62,-158.27 62,-149.16 62,-140.9"/>
<polygon fill="#63b8ff" stroke="#63b8ff" points="65.5,-140.96 62,-130.96 58.5,-140.96 65.5,-140.96"/>
</g>
<!-- Node7 -->
<g id="node7" class="node">
<title>Node7</title>
<g id="a_node7"><a xlink:href="types_8h.html" target="_top" xlink:title=" ">
<polygon fill="white" stroke="#666666" points="209.5,-19 162.5,-19 162.5,0 209.5,0 209.5,-19"/>
<text text-anchor="middle" x="186" y="-7" font-family="Helvetica,sans-Serif" font-size="10.00">types.h</text>
</a>
</g>
</g>
<!-- Node6&#45;&gt;Node7 -->
<g id="edge6" class="edge">
<title>Node6&#45;&gt;Node7</title>
<path fill="none" stroke="#63b8ff" d="M186,-54.75C186,-48.27 186,-39.16 186,-30.9"/>
<polygon fill="#63b8ff" stroke="#63b8ff" points="189.5,-30.96 186,-20.96 182.5,-30.96 189.5,-30.96"/>
</g>
<!-- Node9 -->
<g id="node9" class="node">
<title>Node9</title>
<g id="a_node9"><a xlink:href="comparator__traits_8h.html" target="_top" xlink:title=" ">
<polygon fill="white" stroke="#666666" points="288,-184 188,-184 188,-165 288,-165 288,-184"/>
<text text-anchor="middle" x="238" y="-172" font-family="Helvetica,sans-Serif" font-size="10.00">comparator_traits.h</text>
</a>
</g>
</g>
<!-- Node8&#45;&gt;Node9 -->
<g id="edge8" class="edge">
<title>Node8&#45;&gt;Node9</title>
<path fill="none" stroke="#63b8ff" d="M238,-219.75C238,-213.27 238,-204.16 238,-195.9"/>
<polygon fill="#63b8ff" stroke="#63b8ff" points="241.5,-195.96 238,-185.96 234.5,-195.96 241.5,-195.96"/>
</g>
<!-- Node11 -->
<g id="node11" class="node">
<title>Node11</title>
<g id="a_node11"><a xlink:href="genericresult_8h.html" target="_top" xlink:title=" ">
<polygon fill="white" stroke="#666666" points="422,-184 306,-184 306,-165 422,-165 422,-184"/>
<text text-anchor="middle" x="364" y="-172" font-family="Helvetica,sans-Serif" font-size="10.00">Generic/genericresult.h</text>
</a>
</g>
</g>
<!-- Node10&#45;&gt;Node11 -->
<g id="edge10" class="edge">
<title>Node10&#45;&gt;Node11</title>
<path fill="none" stroke="#63b8ff" d="M349.81,-219.75C351.94,-213.11 354.94,-203.73 357.64,-195.31"/>
<polygon fill="#63b8ff" stroke="#63b8ff" points="360.95,-196.47 360.67,-185.88 354.28,-194.34 360.95,-196.47"/>
</g>
<!-- Node12 -->
<g id="node12" class="node">
<title>Node12</title>
<g id="a_node12"><a xlink:href="enum_8h.html" target="_top" xlink:title=" ">
<polygon fill="white" stroke="#666666" points="312,-129 264,-129 264,-110 312,-110 312,-129"/>
<text text-anchor="middle" x="288" y="-117" font-family="Helvetica,sans-Serif" font-size="10.00">enum.h</text>
</a>
</g>
</g>
<!-- Node11&#45;&gt;Node12 -->
<g id="edge11" class="edge">
<title>Node11&#45;&gt;Node12</title>
<path fill="none" stroke="#63b8ff" d="M351.11,-164.51C339.9,-156.7 323.43,-145.21 310.12,-135.93"/>
<polygon fill="#63b8ff" stroke="#63b8ff" points="312.15,-133.07 301.94,-130.22 308.14,-138.81 312.15,-133.07"/>
</g>
<!-- Node12&#45;&gt;Node6 -->
<g id="edge12" class="edge">
<title>Node12&#45;&gt;Node6</title>
<path fill="none" stroke="#63b8ff" d="M270.7,-109.51C254.92,-101.31 231.36,-89.07 213.09,-79.58"/>
<polygon fill="#63b8ff" stroke="#63b8ff" points="214.88,-76.56 204.39,-75.06 211.65,-82.77 214.88,-76.56"/>
</g>
</g>
</svg>
