<?xml version="1.0" encoding="UTF-8" standalone="no"?>
<!DOCTYPE svg PUBLIC "-//W3C//DTD SVG 1.1//EN"
 "http://www.w3.org/Graphics/SVG/1.1/DTD/svg11.dtd">
<!-- Generated by graphviz version 7.0.5 (20221223.1930)
 -->
<!-- Title: src/Meta/math/geometry3.cpp Pages: 1 -->
<svg width="632pt" height="357pt"
 viewBox="0.00 0.00 631.61 357.00" xmlns="http://www.w3.org/2000/svg" xmlns:xlink="http://www.w3.org/1999/xlink">
<g id="graph0" class="graph" transform="scale(1 1) rotate(0) translate(4 353)">
<title>src/Meta/math/geometry3.cpp</title>
<!-- Node1 -->
<g id="node1" class="node">
<title>Node1</title>
<g id="a_node1"><a xlink:title=" ">
<polygon fill="#999999" stroke="#666666" points="504.5,-349 358.5,-349 358.5,-330 504.5,-330 504.5,-349"/>
<text text-anchor="middle" x="431.5" y="-337" font-family="Helvetica,sans-Serif" font-size="10.00">src/Meta/math/geometry3.cpp</text>
</a>
</g>
</g>
<!-- Node2 -->
<g id="node2" class="node">
<title>Node2</title>
<g id="a_node2"><a xlink:href="metalib_8h.html" target="_top" xlink:title=" ">
<polygon fill="white" stroke="#666666" points="172,-294 109,-294 109,-275 172,-275 172,-294"/>
<text text-anchor="middle" x="140.5" y="-282" font-family="Helvetica,sans-Serif" font-size="10.00">../metalib.h</text>
</a>
</g>
</g>
<!-- Node1&#45;&gt;Node2 -->
<g id="edge1" class="edge">
<title>Node1&#45;&gt;Node2</title>
<path fill="none" stroke="#63b8ff" d="M380.15,-329.56C332.32,-321.17 258.72,-308.1 183.53,-293.97"/>
<polygon fill="#63b8ff" stroke="#63b8ff" points="184.39,-290.57 173.91,-292.16 183.09,-297.45 184.39,-290.57"/>
</g>
<!-- Node5 -->
<g id="node5" class="node">
<title>Node5</title>
<g id="a_node5"><a xlink:href="geometry3_8h.html" target="_top" xlink:title=" ">
<polygon fill="white" stroke="#666666" points="262,-294 193,-294 193,-275 262,-275 262,-294"/>
<text text-anchor="middle" x="227.5" y="-282" font-family="Helvetica,sans-Serif" font-size="10.00">geometry3.h</text>
</a>
</g>
</g>
<!-- Node1&#45;&gt;Node5 -->
<g id="edge4" class="edge">
<title>Node1&#45;&gt;Node5</title>
<path fill="none" stroke="#63b8ff" d="M396.89,-329.51C362.79,-320.65 310.51,-307.07 273.05,-297.33"/>
<polygon fill="#63b8ff" stroke="#63b8ff" points="273.96,-293.95 263.4,-294.83 272.2,-300.73 273.96,-293.95"/>
</g>
<!-- Node7 -->
<g id="node7" class="node">
<title>Node7</title>
<g id="a_node7"><a xlink:href="boundingbox_8h.html" target="_top" xlink:title=" ">
<polygon fill="white" stroke="#666666" points="428.5,-294 350.5,-294 350.5,-275 428.5,-275 428.5,-294"/>
<text text-anchor="middle" x="389.5" y="-282" font-family="Helvetica,sans-Serif" font-size="10.00">boundingbox.h</text>
</a>
</g>
</g>
<!-- Node1&#45;&gt;Node7 -->
<g id="edge6" class="edge">
<title>Node1&#45;&gt;Node7</title>
<path fill="none" stroke="#63b8ff" d="M424.56,-329.75C418.88,-322.58 410.66,-312.2 403.61,-303.3"/>
<polygon fill="#63b8ff" stroke="#63b8ff" points="406.48,-301.29 397.53,-295.63 400.99,-305.64 406.48,-301.29"/>
</g>
<!-- Node10 -->
<g id="node10" class="node">
<title>Node10</title>
<g id="a_node10"><a xlink:href="vector3_8h.html" target="_top" xlink:title=" ">
<polygon fill="white" stroke="#666666" points="504.5,-129 448.5,-129 448.5,-110 504.5,-110 504.5,-129"/>
<text text-anchor="middle" x="476.5" y="-117" font-family="Helvetica,sans-Serif" font-size="10.00">vector3.h</text>
</a>
</g>
</g>
<!-- Node1&#45;&gt;Node10 -->
<g id="edge25" class="edge">
<title>Node1&#45;&gt;Node10</title>
<path fill="none" stroke="#63b8ff" d="M472.87,-329.51C496.83,-322.75 526.51,-311.57 548.5,-294 594.34,-257.37 604.56,-240.18 621.5,-184 635.28,-138.3 563.62,-125.38 516.11,-121.8"/>
<polygon fill="#63b8ff" stroke="#63b8ff" points="516.63,-118.33 506.43,-121.19 516.18,-125.31 516.63,-118.33"/>
</g>
<!-- Node11 -->
<g id="node11" class="node">
<title>Node11</title>
<g id="a_node11"><a xlink:href="common_8h.html" target="_top" xlink:title=" ">
<polygon fill="white" stroke="#666666" points="413.5,-19 351.5,-19 351.5,0 413.5,0 413.5,-19"/>
<text text-anchor="middle" x="382.5" y="-7" font-family="Helvetica,sans-Serif" font-size="10.00">common.h</text>
</a>
</g>
</g>
<!-- Node1&#45;&gt;Node11 -->
<g id="edge26" class="edge">
<title>Node1&#45;&gt;Node11</title>
<path fill="none" stroke="#63b8ff" d="M399.5,-329.59C357.9,-315.81 290.5,-285.08 290.5,-230.5 290.5,-230.5 290.5,-230.5 290.5,-118.5 290.5,-77.04 330.28,-43.41 357.52,-25.24"/>
<polygon fill="#63b8ff" stroke="#63b8ff" points="359.07,-28.4 365.62,-20.07 355.3,-22.5 359.07,-28.4"/>
</g>
<!-- Node16 -->
<g id="node16" class="node">
<title>Node16</title>
<g id="a_node16"><a xlink:href="plane_8h.html" target="_top" xlink:title=" ">
<polygon fill="white" stroke="#666666" points="552,-184 505,-184 505,-165 552,-165 552,-184"/>
<text text-anchor="middle" x="528.5" y="-172" font-family="Helvetica,sans-Serif" font-size="10.00">plane.h</text>
</a>
</g>
</g>
<!-- Node1&#45;&gt;Node16 -->
<g id="edge18" class="edge">
<title>Node1&#45;&gt;Node16</title>
<path fill="none" stroke="#63b8ff" d="M459.66,-329.52C476.79,-322.56 497.61,-311.18 509.5,-294 529.9,-264.53 531.47,-221.16 530.3,-195.88"/>
<polygon fill="#63b8ff" stroke="#63b8ff" points="533.79,-195.72 529.62,-185.98 526.81,-196.2 533.79,-195.72"/>
</g>
<!-- Node17 -->
<g id="node17" class="node">
<title>Node17</title>
<g id="a_node17"><a xlink:href="ray3_8h.html" target="_top" xlink:title=" ">
<polygon fill="white" stroke="#666666" points="612.5,-184 570.5,-184 570.5,-165 612.5,-165 612.5,-184"/>
<text text-anchor="middle" x="591.5" y="-172" font-family="Helvetica,sans-Serif" font-size="10.00">ray3.h</text>
</a>
</g>
</g>
<!-- Node1&#45;&gt;Node17 -->
<g id="edge20" class="edge">
<title>Node1&#45;&gt;Node17</title>
<path fill="none" stroke="#63b8ff" d="M463.01,-329.62C483.35,-322.61 509.3,-311.12 527.5,-294 557.35,-265.93 576.32,-220.76 585.32,-195.05"/>
<polygon fill="#63b8ff" stroke="#63b8ff" points="588.54,-196.48 588.37,-185.89 581.89,-194.27 588.54,-196.48"/>
</g>
<!-- Node18 -->
<g id="node18" class="node">
<title>Node18</title>
<g id="a_node18"><a xlink:href="sphere_8h.html" target="_top" xlink:title=" ">
<polygon fill="white" stroke="#666666" points="500,-294 447,-294 447,-275 500,-275 500,-294"/>
<text text-anchor="middle" x="473.5" y="-282" font-family="Helvetica,sans-Serif" font-size="10.00">sphere.h</text>
</a>
</g>
</g>
<!-- Node1&#45;&gt;Node18 -->
<g id="edge22" class="edge">
<title>Node1&#45;&gt;Node18</title>
<path fill="none" stroke="#63b8ff" d="M438.44,-329.75C444.12,-322.58 452.34,-312.2 459.39,-303.3"/>
<polygon fill="#63b8ff" stroke="#63b8ff" points="462.01,-305.64 465.47,-295.63 456.52,-301.29 462.01,-305.64"/>
</g>
<!-- Node3 -->
<g id="node3" class="node">
<title>Node3</title>
<g id="a_node3"><a xlink:href="genericlib_8h.html" target="_top" xlink:title=" ">
<polygon fill="white" stroke="#666666" points="191.5,-239 89.5,-239 89.5,-220 191.5,-220 191.5,-239"/>
<text text-anchor="middle" x="140.5" y="-227" font-family="Helvetica,sans-Serif" font-size="10.00">Generic/genericlib.h</text>
</a>
</g>
</g>
<!-- Node2&#45;&gt;Node3 -->
<g id="edge2" class="edge">
<title>Node2&#45;&gt;Node3</title>
<path fill="none" stroke="#63b8ff" d="M140.5,-274.75C140.5,-268.27 140.5,-259.16 140.5,-250.9"/>
<polygon fill="#63b8ff" stroke="#63b8ff" points="144,-250.96 140.5,-240.96 137,-250.96 144,-250.96"/>
</g>
<!-- Node4 -->
<g id="node4" class="node">
<title>Node4</title>
<g id="a_node4"><a xlink:title=" ">
<polygon fill="#e0e0e0" stroke="#999999" points="71,-239 0,-239 0,-220 71,-220 71,-239"/>
<text text-anchor="middle" x="35.5" y="-227" font-family="Helvetica,sans-Serif" font-size="10.00">metaconfig.h</text>
</a>
</g>
</g>
<!-- Node2&#45;&gt;Node4 -->
<g id="edge3" class="edge">
<title>Node2&#45;&gt;Node4</title>
<path fill="none" stroke="#63b8ff" d="M122.69,-274.51C106.37,-266.27 81.97,-253.96 63.13,-244.45"/>
<polygon fill="#63b8ff" stroke="#63b8ff" points="64.9,-241.42 54.4,-240.04 61.75,-247.67 64.9,-241.42"/>
</g>
<!-- Node6 -->
<g id="node6" class="node">
<title>Node6</title>
<g id="a_node6"><a xlink:href="upto_8h.html" target="_top" xlink:title=" ">
<polygon fill="white" stroke="#666666" points="253,-239 210,-239 210,-220 253,-220 253,-239"/>
<text text-anchor="middle" x="231.5" y="-227" font-family="Helvetica,sans-Serif" font-size="10.00">upto.h</text>
</a>
</g>
</g>
<!-- Node5&#45;&gt;Node6 -->
<g id="edge5" class="edge">
<title>Node5&#45;&gt;Node6</title>
<path fill="none" stroke="#63b8ff" d="M228.16,-274.75C228.65,-268.27 229.34,-259.16 229.96,-250.9"/>
<polygon fill="#63b8ff" stroke="#63b8ff" points="233.45,-251.19 230.71,-240.95 226.47,-250.66 233.45,-251.19"/>
</g>
<!-- Node8 -->
<g id="node8" class="node">
<title>Node8</title>
<g id="a_node8"><a xlink:href="matrix4_8h.html" target="_top" xlink:title=" ">
<polygon fill="white" stroke="#666666" points="433.5,-239 377.5,-239 377.5,-220 433.5,-220 433.5,-239"/>
<text text-anchor="middle" x="405.5" y="-227" font-family="Helvetica,sans-Serif" font-size="10.00">matrix4.h</text>
</a>
</g>
</g>
<!-- Node7&#45;&gt;Node8 -->
<g id="edge7" class="edge">
<title>Node7&#45;&gt;Node8</title>
<path fill="none" stroke="#63b8ff" d="M392.14,-274.75C394.14,-268.11 396.98,-258.73 399.52,-250.31"/>
<polygon fill="#63b8ff" stroke="#63b8ff" points="402.82,-251.48 402.36,-240.89 396.12,-249.45 402.82,-251.48"/>
</g>
<!-- Node9 -->
<g id="node9" class="node">
<title>Node9</title>
<g id="a_node9"><a xlink:href="matrix3_8h.html" target="_top" xlink:title=" ">
<polygon fill="white" stroke="#666666" points="448.5,-184 392.5,-184 392.5,-165 448.5,-165 448.5,-184"/>
<text text-anchor="middle" x="420.5" y="-172" font-family="Helvetica,sans-Serif" font-size="10.00">matrix3.h</text>
</a>
</g>
</g>
<!-- Node8&#45;&gt;Node9 -->
<g id="edge8" class="edge">
<title>Node8&#45;&gt;Node9</title>
<path fill="none" stroke="#63b8ff" d="M407.98,-219.75C409.85,-213.11 412.51,-203.73 414.89,-195.31"/>
<polygon fill="#63b8ff" stroke="#63b8ff" points="418.2,-196.47 417.56,-185.9 411.47,-194.57 418.2,-196.47"/>
</g>
<!-- Node15 -->
<g id="node15" class="node">
<title>Node15</title>
<g id="a_node15"><a xlink:href="vector4_8h.html" target="_top" xlink:title=" ">
<polygon fill="white" stroke="#666666" points="374.5,-184 318.5,-184 318.5,-165 374.5,-165 374.5,-184"/>
<text text-anchor="middle" x="346.5" y="-172" font-family="Helvetica,sans-Serif" font-size="10.00">vector4.h</text>
</a>
</g>
</g>
<!-- Node8&#45;&gt;Node15 -->
<g id="edge16" class="edge">
<title>Node8&#45;&gt;Node15</title>
<path fill="none" stroke="#63b8ff" d="M395.49,-219.51C387.13,-212 375,-201.1 364.9,-192.03"/>
<polygon fill="#63b8ff" stroke="#63b8ff" points="367.26,-189.45 357.49,-185.37 362.59,-194.66 367.26,-189.45"/>
</g>
<!-- Node9&#45;&gt;Node10 -->
<g id="edge9" class="edge">
<title>Node9&#45;&gt;Node10</title>
<path fill="none" stroke="#63b8ff" d="M430,-164.51C437.93,-157 449.45,-146.1 459.04,-137.03"/>
<polygon fill="#63b8ff" stroke="#63b8ff" points="461.18,-139.81 466.04,-130.4 456.37,-134.73 461.18,-139.81"/>
</g>
<!-- Node10&#45;&gt;Node11 -->
<g id="edge10" class="edge">
<title>Node10&#45;&gt;Node11</title>
<path fill="none" stroke="#63b8ff" d="M451.94,-109.5C435.45,-102.28 414.45,-90.59 401.5,-74 391.73,-61.49 386.97,-44.03 384.66,-30.58"/>
<polygon fill="#63b8ff" stroke="#63b8ff" points="388.14,-30.15 383.32,-20.71 381.2,-31.09 388.14,-30.15"/>
</g>
<!-- Node12 -->
<g id="node12" class="node">
<title>Node12</title>
<g id="a_node12"><a xlink:href="vector2_8h.html" target="_top" xlink:title=" ">
<polygon fill="white" stroke="#666666" points="466.5,-74 410.5,-74 410.5,-55 466.5,-55 466.5,-74"/>
<text text-anchor="middle" x="438.5" y="-62" font-family="Helvetica,sans-Serif" font-size="10.00">vector2.h</text>
</a>
</g>
</g>
<!-- Node10&#45;&gt;Node12 -->
<g id="edge11" class="edge">
<title>Node10&#45;&gt;Node12</title>
<path fill="none" stroke="#63b8ff" d="M470.23,-109.75C465.14,-102.66 457.8,-92.42 451.47,-83.59"/>
<polygon fill="#63b8ff" stroke="#63b8ff" points="454.46,-81.76 445.79,-75.67 448.78,-85.84 454.46,-81.76"/>
</g>
<!-- Node14 -->
<g id="node14" class="node">
<title>Node14</title>
<g id="a_node14"><a xlink:href="vector3i_8h.html" target="_top" xlink:title=" ">
<polygon fill="white" stroke="#666666" points="544,-74 485,-74 485,-55 544,-55 544,-74"/>
<text text-anchor="middle" x="514.5" y="-62" font-family="Helvetica,sans-Serif" font-size="10.00">vector3i.h</text>
</a>
</g>
</g>
<!-- Node10&#45;&gt;Node14 -->
<g id="edge14" class="edge">
<title>Node10&#45;&gt;Node14</title>
<path fill="none" stroke="#63b8ff" d="M482.77,-109.75C487.86,-102.66 495.2,-92.42 501.53,-83.59"/>
<polygon fill="#63b8ff" stroke="#63b8ff" points="504.22,-85.84 507.21,-75.67 498.54,-81.76 504.22,-85.84"/>
</g>
<!-- Node12&#45;&gt;Node11 -->
<g id="edge13" class="edge">
<title>Node12&#45;&gt;Node11</title>
<path fill="none" stroke="#63b8ff" d="M429,-54.51C421.07,-47 409.55,-36.1 399.96,-27.03"/>
<polygon fill="#63b8ff" stroke="#63b8ff" points="402.63,-24.73 392.96,-20.4 397.82,-29.81 402.63,-24.73"/>
</g>
<!-- Node13 -->
<g id="node13" class="node">
<title>Node13</title>
<g id="a_node13"><a xlink:href="vector2i_8h.html" target="_top" xlink:title=" ">
<polygon fill="white" stroke="#666666" points="517,-19 458,-19 458,0 517,0 517,-19"/>
<text text-anchor="middle" x="487.5" y="-7" font-family="Helvetica,sans-Serif" font-size="10.00">vector2i.h</text>
</a>
</g>
</g>
<!-- Node12&#45;&gt;Node13 -->
<g id="edge12" class="edge">
<title>Node12&#45;&gt;Node13</title>
<path fill="none" stroke="#63b8ff" d="M446.59,-54.75C453.36,-47.43 463.22,-36.76 471.56,-27.74"/>
<polygon fill="#63b8ff" stroke="#63b8ff" points="473.99,-30.27 478.21,-20.55 468.85,-25.52 473.99,-30.27"/>
</g>
<!-- Node14&#45;&gt;Node13 -->
<g id="edge15" class="edge">
<title>Node14&#45;&gt;Node13</title>
<path fill="none" stroke="#63b8ff" d="M510.04,-54.75C506.55,-47.88 501.55,-38.08 497.15,-29.45"/>
<polygon fill="#63b8ff" stroke="#63b8ff" points="500.4,-28.11 492.74,-20.79 494.16,-31.29 500.4,-28.11"/>
</g>
<!-- Node15&#45;&gt;Node10 -->
<g id="edge17" class="edge">
<title>Node15&#45;&gt;Node10</title>
<path fill="none" stroke="#63b8ff" d="M368.55,-164.51C389.31,-156.04 420.66,-143.27 444.23,-133.66"/>
<polygon fill="#63b8ff" stroke="#63b8ff" points="445.43,-136.95 453.37,-129.93 442.79,-130.46 445.43,-136.95"/>
</g>
<!-- Node16&#45;&gt;Node10 -->
<g id="edge19" class="edge">
<title>Node16&#45;&gt;Node10</title>
<path fill="none" stroke="#63b8ff" d="M519.91,-164.75C512.66,-157.35 502.05,-146.54 493.13,-137.45"/>
<polygon fill="#63b8ff" stroke="#63b8ff" points="495.84,-135.21 486.33,-130.52 490.84,-140.11 495.84,-135.21"/>
</g>
<!-- Node17&#45;&gt;Node10 -->
<g id="edge21" class="edge">
<title>Node17&#45;&gt;Node10</title>
<path fill="none" stroke="#63b8ff" d="M571.99,-164.51C553.87,-156.16 526.65,-143.61 505.9,-134.05"/>
<polygon fill="#63b8ff" stroke="#63b8ff" points="507.64,-131 497.09,-129.99 504.71,-137.36 507.64,-131"/>
</g>
<!-- Node18&#45;&gt;Node8 -->
<g id="edge24" class="edge">
<title>Node18&#45;&gt;Node8</title>
<path fill="none" stroke="#63b8ff" d="M461.96,-274.51C452.04,-266.77 437.49,-255.43 425.64,-246.2"/>
<polygon fill="#63b8ff" stroke="#63b8ff" points="428.1,-243.68 418.06,-240.29 423.79,-249.2 428.1,-243.68"/>
</g>
<!-- Node18&#45;&gt;Node10 -->
<g id="edge23" class="edge">
<title>Node18&#45;&gt;Node10</title>
<path fill="none" stroke="#63b8ff" d="M473.66,-274.74C474.13,-249.53 475.47,-176.36 476.13,-140.62"/>
<polygon fill="#63b8ff" stroke="#63b8ff" points="479.63,-140.88 476.31,-130.82 472.63,-140.75 479.63,-140.88"/>
</g>
</g>
</svg>
