<?xml version="1.0" encoding="UTF-8" standalone="no"?>
<!DOCTYPE svg PUBLIC "-//W3C//DTD SVG 1.1//EN"
 "http://www.w3.org/Graphics/SVG/1.1/DTD/svg11.dtd">
<!-- Generated by graphviz version 7.0.5 (20221223.1930)
 -->
<!-- Title: plugins/renderer/opengl/src/glad/glad.c Pages: 1 -->
<svg width="308pt" height="203pt"
 viewBox="0.00 0.00 308.00 203.00" xmlns="http://www.w3.org/2000/svg" xmlns:xlink="http://www.w3.org/1999/xlink">
<g id="graph0" class="graph" transform="scale(1 1) rotate(0) translate(4 199)">
<title>plugins/renderer/opengl/src/glad/glad.c</title>
<!-- Node1 -->
<g id="node1" class="node">
<title>Node1</title>
<g id="a_node1"><a xlink:title=" ">
<polygon fill="#999999" stroke="#666666" points="211,-195 94,-195 94,-165 211,-165 211,-195"/>
<text text-anchor="start" x="102" y="-183" font-family="Helvetica,sans-Serif" font-size="10.00">plugins/renderer/opengl</text>
<text text-anchor="middle" x="152.5" y="-172" font-family="Helvetica,sans-Serif" font-size="10.00">/src/glad/glad.c</text>
</a>
</g>
</g>
<!-- Node2 -->
<g id="node2" class="node">
<title>Node2</title>
<g id="a_node2"><a xlink:title=" ">
<polygon fill="#e0e0e0" stroke="#999999" points="45,-129 0,-129 0,-110 45,-110 45,-129"/>
<text text-anchor="middle" x="22.5" y="-117" font-family="Helvetica,sans-Serif" font-size="10.00">stdio.h</text>
</a>
</g>
</g>
<!-- Node1&#45;&gt;Node2 -->
<g id="edge1" class="edge">
<title>Node1&#45;&gt;Node2</title>
<path fill="none" stroke="#63b8ff" d="M120.37,-164.54C99.59,-155.19 72.73,-143.1 52.41,-133.96"/>
<polygon fill="#63b8ff" stroke="#63b8ff" points="54.09,-130.88 43.54,-129.97 51.22,-137.26 54.09,-130.88"/>
</g>
<!-- Node3 -->
<g id="node3" class="node">
<title>Node3</title>
<g id="a_node3"><a xlink:title=" ">
<polygon fill="#e0e0e0" stroke="#999999" points="110,-129 63,-129 63,-110 110,-110 110,-129"/>
<text text-anchor="middle" x="86.5" y="-117" font-family="Helvetica,sans-Serif" font-size="10.00">stdlib.h</text>
</a>
</g>
</g>
<!-- Node1&#45;&gt;Node3 -->
<g id="edge2" class="edge">
<title>Node1&#45;&gt;Node3</title>
<path fill="none" stroke="#63b8ff" d="M136.19,-164.54C126.7,-156.13 114.71,-145.51 104.89,-136.8"/>
<polygon fill="#63b8ff" stroke="#63b8ff" points="107.23,-134.19 97.42,-130.18 102.58,-139.43 107.23,-134.19"/>
</g>
<!-- Node4 -->
<g id="node4" class="node">
<title>Node4</title>
<g id="a_node4"><a xlink:title=" ">
<polygon fill="#e0e0e0" stroke="#999999" points="176.5,-129 128.5,-129 128.5,-110 176.5,-110 176.5,-129"/>
<text text-anchor="middle" x="152.5" y="-117" font-family="Helvetica,sans-Serif" font-size="10.00">string.h</text>
</a>
</g>
</g>
<!-- Node1&#45;&gt;Node4 -->
<g id="edge3" class="edge">
<title>Node1&#45;&gt;Node4</title>
<path fill="none" stroke="#63b8ff" d="M152.5,-164.54C152.5,-157.34 152.5,-148.53 152.5,-140.68"/>
<polygon fill="#63b8ff" stroke="#63b8ff" points="156,-140.69 152.5,-130.69 149,-140.69 156,-140.69"/>
</g>
<!-- Node5 -->
<g id="node5" class="node">
<title>Node5</title>
<g id="a_node5"><a xlink:href="glad_8h.html" target="_top" xlink:title=" ">
<polygon fill="white" stroke="#666666" points="236.5,-129 194.5,-129 194.5,-110 236.5,-110 236.5,-129"/>
<text text-anchor="middle" x="215.5" y="-117" font-family="Helvetica,sans-Serif" font-size="10.00">glad.h</text>
</a>
</g>
</g>
<!-- Node1&#45;&gt;Node5 -->
<g id="edge4" class="edge">
<title>Node1&#45;&gt;Node5</title>
<path fill="none" stroke="#63b8ff" d="M168.07,-164.54C177.13,-156.13 188.57,-145.51 197.95,-136.8"/>
<polygon fill="#63b8ff" stroke="#63b8ff" points="200.1,-139.57 205.05,-130.21 195.34,-134.44 200.1,-139.57"/>
</g>
<!-- Node8 -->
<g id="node8" class="node">
<title>Node8</title>
<g id="a_node8"><a xlink:title=" ">
<polygon fill="#e0e0e0" stroke="#999999" points="300,-129 255,-129 255,-110 300,-110 300,-129"/>
<text text-anchor="middle" x="277.5" y="-117" font-family="Helvetica,sans-Serif" font-size="10.00">dlfcn.h</text>
</a>
</g>
</g>
<!-- Node1&#45;&gt;Node8 -->
<g id="edge7" class="edge">
<title>Node1&#45;&gt;Node8</title>
<path fill="none" stroke="#63b8ff" d="M183.4,-164.54C203.19,-155.28 228.73,-143.33 248.2,-134.21"/>
<polygon fill="#63b8ff" stroke="#63b8ff" points="249.65,-137.4 257.23,-129.99 246.69,-131.06 249.65,-137.4"/>
</g>
<!-- Node6 -->
<g id="node6" class="node">
<title>Node6</title>
<g id="a_node6"><a xlink:href="khrplatform_8h.html" target="_top" xlink:title=" ">
<polygon fill="white" stroke="#666666" points="252,-74 179,-74 179,-55 252,-55 252,-74"/>
<text text-anchor="middle" x="215.5" y="-62" font-family="Helvetica,sans-Serif" font-size="10.00">khrplatform.h</text>
</a>
</g>
</g>
<!-- Node5&#45;&gt;Node6 -->
<g id="edge5" class="edge">
<title>Node5&#45;&gt;Node6</title>
<path fill="none" stroke="#63b8ff" d="M215.5,-109.75C215.5,-103.27 215.5,-94.16 215.5,-85.9"/>
<polygon fill="#63b8ff" stroke="#63b8ff" points="219,-85.96 215.5,-75.96 212,-85.96 219,-85.96"/>
</g>
<!-- Node7 -->
<g id="node7" class="node">
<title>Node7</title>
<g id="a_node7"><a xlink:title=" ">
<polygon fill="#e0e0e0" stroke="#999999" points="239.5,-19 191.5,-19 191.5,0 239.5,0 239.5,-19"/>
<text text-anchor="middle" x="215.5" y="-7" font-family="Helvetica,sans-Serif" font-size="10.00">stdint.h</text>
</a>
</g>
</g>
<!-- Node6&#45;&gt;Node7 -->
<g id="edge6" class="edge">
<title>Node6&#45;&gt;Node7</title>
<path fill="none" stroke="#63b8ff" d="M215.5,-54.75C215.5,-48.27 215.5,-39.16 215.5,-30.9"/>
<polygon fill="#63b8ff" stroke="#63b8ff" points="219,-30.96 215.5,-20.96 212,-30.96 219,-30.96"/>
</g>
</g>
</svg>
