<?xml version="1.0" encoding="UTF-8" standalone="no"?>
<!DOCTYPE svg PUBLIC "-//W3C//DTD SVG 1.1//EN"
 "http://www.w3.org/Graphics/SVG/1.1/DTD/svg11.dtd">
<!-- Generated by graphviz version 7.0.5 (20221223.1930)
 -->
<!-- Title: plugins/app/api/src/Madgine/app/globalapicollector.h Pages: 1 -->
<svg width="169pt" height="214pt"
 viewBox="0.00 0.00 169.00 214.00" xmlns="http://www.w3.org/2000/svg" xmlns:xlink="http://www.w3.org/1999/xlink">
<g id="graph0" class="graph" transform="scale(1 1) rotate(0) translate(4 210)">
<title>plugins/app/api/src/Madgine/app/globalapicollector.h</title>
<!-- Node1 -->
<g id="node1" class="node">
<title>Node1</title>
<g id="a_node1"><a xlink:title=" ">
<polygon fill="#999999" stroke="#666666" points="161,-206 0,-206 0,-176 161,-176 161,-206"/>
<text text-anchor="start" x="8" y="-194" font-family="Helvetica,sans-Serif" font-size="10.00">plugins/app/api/src</text>
<text text-anchor="middle" x="80.5" y="-183" font-family="Helvetica,sans-Serif" font-size="10.00">/Madgine/app/globalapicollector.h</text>
</a>
</g>
</g>
<!-- Node2 -->
<g id="node2" class="node">
<title>Node2</title>
<g id="a_node2"><a xlink:href="uniquecomponentdefine_8h.html" target="_top" xlink:title=" ">
<polygon fill="white" stroke="#666666" points="147,-140 14,-140 14,-110 147,-110 147,-140"/>
<text text-anchor="start" x="22" y="-128" font-family="Helvetica,sans-Serif" font-size="10.00">Modules/uniquecomponent</text>
<text text-anchor="middle" x="80.5" y="-117" font-family="Helvetica,sans-Serif" font-size="10.00">/uniquecomponentdefine.h</text>
</a>
</g>
</g>
<!-- Node1&#45;&gt;Node2 -->
<g id="edge1" class="edge">
<title>Node1&#45;&gt;Node2</title>
<path fill="none" stroke="#63b8ff" d="M80.5,-175.8C80.5,-168.67 80.5,-159.82 80.5,-151.56"/>
<polygon fill="#63b8ff" stroke="#63b8ff" points="84,-151.68 80.5,-141.68 77,-151.68 84,-151.68"/>
</g>
<!-- Node3 -->
<g id="node3" class="node">
<title>Node3</title>
<g id="a_node3"><a xlink:href="replace_8h.html" target="_top" xlink:title=" ">
<polygon fill="white" stroke="#666666" points="126.5,-19 34.5,-19 34.5,0 126.5,0 126.5,-19"/>
<text text-anchor="middle" x="80.5" y="-7" font-family="Helvetica,sans-Serif" font-size="10.00">Generic/replace.h</text>
</a>
</g>
</g>
<!-- Node2&#45;&gt;Node3 -->
<g id="edge2" class="edge">
<title>Node2&#45;&gt;Node3</title>
<path fill="none" stroke="#63b8ff" d="M74.96,-109.52C70.29,-95.6 64.79,-73.95 67.5,-55 68.7,-46.63 71.1,-37.64 73.52,-29.95"/>
<polygon fill="#63b8ff" stroke="#63b8ff" points="76.78,-31.23 76.67,-20.64 70.15,-28.98 76.78,-31.23"/>
</g>
<!-- Node4 -->
<g id="node4" class="node">
<title>Node4</title>
<g id="a_node4"><a xlink:href="_modules_2uniquecomponent_2annotations_8h.html" target="_top" xlink:title=" ">
<polygon fill="white" stroke="#666666" points="150.5,-74 76.5,-74 76.5,-55 150.5,-55 150.5,-74"/>
<text text-anchor="middle" x="113.5" y="-62" font-family="Helvetica,sans-Serif" font-size="10.00">annotations.h</text>
</a>
</g>
</g>
<!-- Node2&#45;&gt;Node4 -->
<g id="edge3" class="edge">
<title>Node2&#45;&gt;Node4</title>
<path fill="none" stroke="#63b8ff" d="M88.66,-109.54C93.01,-101.82 98.41,-92.24 103.07,-83.99"/>
<polygon fill="#63b8ff" stroke="#63b8ff" points="106,-85.92 107.86,-75.49 99.9,-82.48 106,-85.92"/>
</g>
<!-- Node4&#45;&gt;Node3 -->
<g id="edge4" class="edge">
<title>Node4&#45;&gt;Node3</title>
<path fill="none" stroke="#63b8ff" d="M108.05,-54.75C103.73,-47.81 97.54,-37.86 92.12,-29.16"/>
<polygon fill="#63b8ff" stroke="#63b8ff" points="95.12,-27.37 86.87,-20.73 89.18,-31.07 95.12,-27.37"/>
</g>
</g>
</svg>
