<?xml version="1.0" encoding="UTF-8" standalone="no"?>
<!DOCTYPE svg PUBLIC "-//W3C//DTD SVG 1.1//EN"
 "http://www.w3.org/Graphics/SVG/1.1/DTD/svg11.dtd">
<!-- Generated by graphviz version 7.0.5 (20221223.1930)
 -->
<!-- Title: plugins/resources/meshloader/Madgine/meshloader/gpumeshdata.h Pages: 1 -->
<svg width="525pt" height="423pt"
 viewBox="0.00 0.00 525.00 423.00" xmlns="http://www.w3.org/2000/svg" xmlns:xlink="http://www.w3.org/1999/xlink">
<g id="graph0" class="graph" transform="scale(1 1) rotate(0) translate(4 419)">
<title>plugins/resources/meshloader/Madgine/meshloader/gpumeshdata.h</title>
<!-- Node1 -->
<g id="node1" class="node">
<title>Node1</title>
<g id="a_node1"><a xlink:title=" ">
<polygon fill="#999999" stroke="#666666" points="309.5,-415 130.5,-415 130.5,-385 309.5,-385 309.5,-415"/>
<text text-anchor="start" x="138.5" y="-403" font-family="Helvetica,sans-Serif" font-size="10.00">plugins/resources/meshloader</text>
<text text-anchor="middle" x="220" y="-392" font-family="Helvetica,sans-Serif" font-size="10.00">/Madgine/meshloader/gpumeshdata.h</text>
</a>
</g>
</g>
<!-- Node2 -->
<g id="node2" class="node">
<title>Node2</title>
<g id="a_node2"><a xlink:href="boundingbox_8h.html" target="_top" xlink:title=" ">
<polygon fill="white" stroke="#666666" points="128,-349 0,-349 0,-330 128,-330 128,-349"/>
<text text-anchor="middle" x="64" y="-337" font-family="Helvetica,sans-Serif" font-size="10.00">Meta/math/boundingbox.h</text>
</a>
</g>
</g>
<!-- Node1&#45;&gt;Node2 -->
<g id="edge1" class="edge">
<title>Node1&#45;&gt;Node2</title>
<path fill="none" stroke="#63b8ff" d="M181.44,-384.54C155.93,-374.97 122.79,-362.55 98.22,-353.33"/>
<polygon fill="#63b8ff" stroke="#63b8ff" points="99.6,-350.11 89.01,-349.88 97.14,-356.67 99.6,-350.11"/>
</g>
<!-- Node11 -->
<g id="node11" class="node">
<title>Node11</title>
<g id="a_node11"><a xlink:href="vertexformat_8h.html" target="_top" xlink:title=" ">
<polygon fill="white" stroke="#666666" points="294,-349 146,-349 146,-330 294,-330 294,-349"/>
<text text-anchor="middle" x="220" y="-337" font-family="Helvetica,sans-Serif" font-size="10.00">Madgine/render/vertexformat.h</text>
</a>
</g>
</g>
<!-- Node1&#45;&gt;Node11 -->
<g id="edge13" class="edge">
<title>Node1&#45;&gt;Node11</title>
<path fill="none" stroke="#63b8ff" d="M220,-384.54C220,-377.34 220,-368.53 220,-360.68"/>
<polygon fill="#63b8ff" stroke="#63b8ff" points="223.5,-360.69 220,-350.69 216.5,-360.69 223.5,-360.69"/>
</g>
<!-- Node17 -->
<g id="node17" class="node">
<title>Node17</title>
<g id="a_node17"><a xlink:href="resourceblock_8h.html" target="_top" xlink:title=" ">
<polygon fill="white" stroke="#666666" points="467.5,-349 312.5,-349 312.5,-330 467.5,-330 467.5,-349"/>
<text text-anchor="middle" x="390" y="-337" font-family="Helvetica,sans-Serif" font-size="10.00">Madgine/render/resourceblock.h</text>
</a>
</g>
</g>
<!-- Node1&#45;&gt;Node17 -->
<g id="edge21" class="edge">
<title>Node1&#45;&gt;Node17</title>
<path fill="none" stroke="#63b8ff" d="M262.02,-384.54C289.98,-374.92 326.36,-362.4 353.19,-353.17"/>
<polygon fill="#63b8ff" stroke="#63b8ff" points="354.3,-356.49 362.61,-349.92 352.02,-349.87 354.3,-356.49"/>
</g>
<!-- Node3 -->
<g id="node3" class="node">
<title>Node3</title>
<g id="a_node3"><a xlink:href="matrix4_8h.html" target="_top" xlink:title=" ">
<polygon fill="white" stroke="#666666" points="92,-239 36,-239 36,-220 92,-220 92,-239"/>
<text text-anchor="middle" x="64" y="-227" font-family="Helvetica,sans-Serif" font-size="10.00">matrix4.h</text>
</a>
</g>
</g>
<!-- Node2&#45;&gt;Node3 -->
<g id="edge2" class="edge">
<title>Node2&#45;&gt;Node3</title>
<path fill="none" stroke="#63b8ff" d="M64,-329.66C64,-312.57 64,-274.61 64,-250.92"/>
<polygon fill="#63b8ff" stroke="#63b8ff" points="67.5,-250.97 64,-240.97 60.5,-250.97 67.5,-250.97"/>
</g>
<!-- Node4 -->
<g id="node4" class="node">
<title>Node4</title>
<g id="a_node4"><a xlink:href="matrix3_8h.html" target="_top" xlink:title=" ">
<polygon fill="white" stroke="#666666" points="129,-184 73,-184 73,-165 129,-165 129,-184"/>
<text text-anchor="middle" x="101" y="-172" font-family="Helvetica,sans-Serif" font-size="10.00">matrix3.h</text>
</a>
</g>
</g>
<!-- Node3&#45;&gt;Node4 -->
<g id="edge3" class="edge">
<title>Node3&#45;&gt;Node4</title>
<path fill="none" stroke="#63b8ff" d="M70.11,-219.75C75.01,-212.73 82.05,-202.64 88.17,-193.87"/>
<polygon fill="#63b8ff" stroke="#63b8ff" points="91.04,-195.89 93.89,-185.68 85.3,-191.88 91.04,-195.89"/>
</g>
<!-- Node10 -->
<g id="node10" class="node">
<title>Node10</title>
<g id="a_node10"><a xlink:href="vector4_8h.html" target="_top" xlink:title=" ">
<polygon fill="white" stroke="#666666" points="222,-184 166,-184 166,-165 222,-165 222,-184"/>
<text text-anchor="middle" x="194" y="-172" font-family="Helvetica,sans-Serif" font-size="10.00">vector4.h</text>
</a>
</g>
</g>
<!-- Node3&#45;&gt;Node10 -->
<g id="edge11" class="edge">
<title>Node3&#45;&gt;Node10</title>
<path fill="none" stroke="#63b8ff" d="M86.05,-219.51C106.81,-211.04 138.16,-198.27 161.73,-188.66"/>
<polygon fill="#63b8ff" stroke="#63b8ff" points="162.93,-191.95 170.87,-184.93 160.29,-185.46 162.93,-191.95"/>
</g>
<!-- Node5 -->
<g id="node5" class="node">
<title>Node5</title>
<g id="a_node5"><a xlink:href="vector3_8h.html" target="_top" xlink:title=" ">
<polygon fill="white" stroke="#666666" points="222,-129 166,-129 166,-110 222,-110 222,-129"/>
<text text-anchor="middle" x="194" y="-117" font-family="Helvetica,sans-Serif" font-size="10.00">vector3.h</text>
</a>
</g>
</g>
<!-- Node4&#45;&gt;Node5 -->
<g id="edge4" class="edge">
<title>Node4&#45;&gt;Node5</title>
<path fill="none" stroke="#63b8ff" d="M116.78,-164.51C131.02,-156.39 152.24,-144.3 168.83,-134.85"/>
<polygon fill="#63b8ff" stroke="#63b8ff" points="170.19,-138.1 177.14,-130.11 166.72,-132.02 170.19,-138.1"/>
</g>
<!-- Node6 -->
<g id="node6" class="node">
<title>Node6</title>
<g id="a_node6"><a xlink:href="common_8h.html" target="_top" xlink:title=" ">
<polygon fill="white" stroke="#666666" points="195,-19 133,-19 133,0 195,0 195,-19"/>
<text text-anchor="middle" x="164" y="-7" font-family="Helvetica,sans-Serif" font-size="10.00">common.h</text>
</a>
</g>
</g>
<!-- Node5&#45;&gt;Node6 -->
<g id="edge5" class="edge">
<title>Node5&#45;&gt;Node6</title>
<path fill="none" stroke="#63b8ff" d="M183.21,-109.55C174.26,-101.36 162.19,-88.36 157,-74 151.91,-59.93 154.13,-43.06 157.37,-30.24"/>
<polygon fill="#63b8ff" stroke="#63b8ff" points="160.66,-31.46 160.15,-20.87 153.95,-29.46 160.66,-31.46"/>
</g>
<!-- Node7 -->
<g id="node7" class="node">
<title>Node7</title>
<g id="a_node7"><a xlink:href="vector2_8h.html" target="_top" xlink:title=" ">
<polygon fill="white" stroke="#666666" points="222,-74 166,-74 166,-55 222,-55 222,-74"/>
<text text-anchor="middle" x="194" y="-62" font-family="Helvetica,sans-Serif" font-size="10.00">vector2.h</text>
</a>
</g>
</g>
<!-- Node5&#45;&gt;Node7 -->
<g id="edge6" class="edge">
<title>Node5&#45;&gt;Node7</title>
<path fill="none" stroke="#63b8ff" d="M194,-109.75C194,-103.27 194,-94.16 194,-85.9"/>
<polygon fill="#63b8ff" stroke="#63b8ff" points="197.5,-85.96 194,-75.96 190.5,-85.96 197.5,-85.96"/>
</g>
<!-- Node9 -->
<g id="node9" class="node">
<title>Node9</title>
<g id="a_node9"><a xlink:href="vector3i_8h.html" target="_top" xlink:title=" ">
<polygon fill="white" stroke="#666666" points="299.5,-74 240.5,-74 240.5,-55 299.5,-55 299.5,-74"/>
<text text-anchor="middle" x="270" y="-62" font-family="Helvetica,sans-Serif" font-size="10.00">vector3i.h</text>
</a>
</g>
</g>
<!-- Node5&#45;&gt;Node9 -->
<g id="edge9" class="edge">
<title>Node5&#45;&gt;Node9</title>
<path fill="none" stroke="#63b8ff" d="M206.89,-109.51C218.1,-101.7 234.57,-90.21 247.88,-80.93"/>
<polygon fill="#63b8ff" stroke="#63b8ff" points="249.86,-83.81 256.06,-75.22 245.85,-78.07 249.86,-83.81"/>
</g>
<!-- Node7&#45;&gt;Node6 -->
<g id="edge8" class="edge">
<title>Node7&#45;&gt;Node6</title>
<path fill="none" stroke="#63b8ff" d="M189.05,-54.75C185.16,-47.88 179.61,-38.08 174.72,-29.45"/>
<polygon fill="#63b8ff" stroke="#63b8ff" points="177.78,-27.74 169.81,-20.76 171.69,-31.19 177.78,-27.74"/>
</g>
<!-- Node8 -->
<g id="node8" class="node">
<title>Node8</title>
<g id="a_node8"><a xlink:href="vector2i_8h.html" target="_top" xlink:title=" ">
<polygon fill="white" stroke="#666666" points="285.5,-19 226.5,-19 226.5,0 285.5,0 285.5,-19"/>
<text text-anchor="middle" x="256" y="-7" font-family="Helvetica,sans-Serif" font-size="10.00">vector2i.h</text>
</a>
</g>
</g>
<!-- Node7&#45;&gt;Node8 -->
<g id="edge7" class="edge">
<title>Node7&#45;&gt;Node8</title>
<path fill="none" stroke="#63b8ff" d="M204.52,-54.51C213.39,-46.93 226.31,-35.88 236.99,-26.75"/>
<polygon fill="#63b8ff" stroke="#63b8ff" points="239.16,-29.5 244.49,-20.34 234.61,-24.18 239.16,-29.5"/>
</g>
<!-- Node9&#45;&gt;Node8 -->
<g id="edge10" class="edge">
<title>Node9&#45;&gt;Node8</title>
<path fill="none" stroke="#63b8ff" d="M267.69,-54.75C265.94,-48.11 263.46,-38.73 261.23,-30.31"/>
<polygon fill="#63b8ff" stroke="#63b8ff" points="264.69,-29.68 258.75,-20.91 257.92,-31.47 264.69,-29.68"/>
</g>
<!-- Node10&#45;&gt;Node5 -->
<g id="edge12" class="edge">
<title>Node10&#45;&gt;Node5</title>
<path fill="none" stroke="#63b8ff" d="M194,-164.75C194,-158.27 194,-149.16 194,-140.9"/>
<polygon fill="#63b8ff" stroke="#63b8ff" points="197.5,-140.96 194,-130.96 190.5,-140.96 197.5,-140.96"/>
</g>
<!-- Node12 -->
<g id="node12" class="node">
<title>Node12</title>
<g id="a_node12"><a xlink:href="src_2_madgine_2render_2vertex_8h.html" target="_top" xlink:title=" ">
<polygon fill="white" stroke="#666666" points="201,-294 151,-294 151,-275 201,-275 201,-294"/>
<text text-anchor="middle" x="176" y="-282" font-family="Helvetica,sans-Serif" font-size="10.00">vertex.h</text>
</a>
</g>
</g>
<!-- Node11&#45;&gt;Node12 -->
<g id="edge14" class="edge">
<title>Node11&#45;&gt;Node12</title>
<path fill="none" stroke="#63b8ff" d="M212.73,-329.75C206.72,-322.5 197.99,-311.98 190.54,-303.02"/>
<polygon fill="#63b8ff" stroke="#63b8ff" points="193.47,-301.07 184.39,-295.61 188.08,-305.54 193.47,-301.07"/>
</g>
<!-- Node16 -->
<g id="node16" class="node">
<title>Node16</title>
<g id="a_node16"><a xlink:href="offsetptr_8h.html" target="_top" xlink:title=" ">
<polygon fill="white" stroke="#666666" points="315,-294 219,-294 219,-275 315,-275 315,-294"/>
<text text-anchor="middle" x="267" y="-282" font-family="Helvetica,sans-Serif" font-size="10.00">Generic/offsetptr.h</text>
</a>
</g>
</g>
<!-- Node11&#45;&gt;Node16 -->
<g id="edge20" class="edge">
<title>Node11&#45;&gt;Node16</title>
<path fill="none" stroke="#63b8ff" d="M227.76,-329.75C234.19,-322.5 243.51,-311.98 251.46,-303.02"/>
<polygon fill="#63b8ff" stroke="#63b8ff" points="254.05,-305.38 258.07,-295.57 248.81,-300.73 254.05,-305.38"/>
</g>
<!-- Node13 -->
<g id="node13" class="node">
<title>Node13</title>
<g id="a_node13"><a xlink:href="compound_8h.html" target="_top" xlink:title=" ">
<polygon fill="white" stroke="#666666" points="216,-239 110,-239 110,-220 216,-220 216,-239"/>
<text text-anchor="middle" x="163" y="-227" font-family="Helvetica,sans-Serif" font-size="10.00">Generic/compound.h</text>
</a>
</g>
</g>
<!-- Node12&#45;&gt;Node13 -->
<g id="edge15" class="edge">
<title>Node12&#45;&gt;Node13</title>
<path fill="none" stroke="#63b8ff" d="M173.85,-274.75C172.24,-268.19 169.98,-258.95 167.93,-250.6"/>
<polygon fill="#63b8ff" stroke="#63b8ff" points="171.34,-249.79 165.55,-240.91 164.54,-251.46 171.34,-249.79"/>
</g>
<!-- Node14 -->
<g id="node14" class="node">
<title>Node14</title>
<g id="a_node14"><a xlink:href="color4_8h.html" target="_top" xlink:title=" ">
<polygon fill="white" stroke="#666666" points="334,-239 234,-239 234,-220 334,-220 334,-239"/>
<text text-anchor="middle" x="284" y="-227" font-family="Helvetica,sans-Serif" font-size="10.00">Meta/math/color4.h</text>
</a>
</g>
</g>
<!-- Node12&#45;&gt;Node14 -->
<g id="edge16" class="edge">
<title>Node12&#45;&gt;Node14</title>
<path fill="none" stroke="#63b8ff" d="M194.32,-274.51C211.18,-266.24 236.43,-253.84 255.85,-244.31"/>
<polygon fill="#63b8ff" stroke="#63b8ff" points="257.16,-247.57 264.59,-240.02 254.07,-241.29 257.16,-247.57"/>
</g>
<!-- Node14&#45;&gt;Node10 -->
<g id="edge19" class="edge">
<title>Node14&#45;&gt;Node10</title>
<path fill="none" stroke="#63b8ff" d="M268.73,-219.51C255.07,-211.47 234.8,-199.53 218.82,-190.11"/>
<polygon fill="#63b8ff" stroke="#63b8ff" points="220.74,-187.18 210.35,-185.13 217.19,-193.22 220.74,-187.18"/>
</g>
<!-- Node15 -->
<g id="node15" class="node">
<title>Node15</title>
<g id="a_node15"><a xlink:href="color3_8h.html" target="_top" xlink:title=" ">
<polygon fill="white" stroke="#666666" points="299,-184 249,-184 249,-165 299,-165 299,-184"/>
<text text-anchor="middle" x="274" y="-172" font-family="Helvetica,sans-Serif" font-size="10.00">color3.h</text>
</a>
</g>
</g>
<!-- Node14&#45;&gt;Node15 -->
<g id="edge17" class="edge">
<title>Node14&#45;&gt;Node15</title>
<path fill="none" stroke="#63b8ff" d="M282.35,-219.75C281.11,-213.19 279.37,-203.95 277.79,-195.6"/>
<polygon fill="#63b8ff" stroke="#63b8ff" points="281.26,-195.11 275.97,-185.93 274.38,-196.4 281.26,-195.11"/>
</g>
<!-- Node15&#45;&gt;Node5 -->
<g id="edge18" class="edge">
<title>Node15&#45;&gt;Node5</title>
<path fill="none" stroke="#63b8ff" d="M260.43,-164.51C248.52,-156.62 230.95,-144.98 216.87,-135.65"/>
<polygon fill="#63b8ff" stroke="#63b8ff" points="218.9,-132.8 208.63,-130.19 215.04,-138.63 218.9,-132.8"/>
</g>
<!-- Node18 -->
<g id="node18" class="node">
<title>Node18</title>
<g id="a_node18"><a xlink:href="src_2_madgine_2render_2ptr_8h.html" target="_top" xlink:title=" ">
<polygon fill="white" stroke="#666666" points="394.5,-294 359.5,-294 359.5,-275 394.5,-275 394.5,-294"/>
<text text-anchor="middle" x="377" y="-282" font-family="Helvetica,sans-Serif" font-size="10.00">ptr.h</text>
</a>
</g>
</g>
<!-- Node17&#45;&gt;Node18 -->
<g id="edge22" class="edge">
<title>Node17&#45;&gt;Node18</title>
<path fill="none" stroke="#63b8ff" d="M387.85,-329.75C386.24,-323.19 383.98,-313.95 381.93,-305.6"/>
<polygon fill="#63b8ff" stroke="#63b8ff" points="385.34,-304.79 379.55,-295.91 378.54,-306.46 385.34,-304.79"/>
</g>
<!-- Node19 -->
<g id="node19" class="node">
<title>Node19</title>
<g id="a_node19"><a xlink:href="opaqueptr_8h.html" target="_top" xlink:title=" ">
<polygon fill="white" stroke="#666666" points="517,-294 413,-294 413,-275 517,-275 517,-294"/>
<text text-anchor="middle" x="465" y="-282" font-family="Helvetica,sans-Serif" font-size="10.00">Generic/opaqueptr.h</text>
</a>
</g>
</g>
<!-- Node17&#45;&gt;Node19 -->
<g id="edge23" class="edge">
<title>Node17&#45;&gt;Node19</title>
<path fill="none" stroke="#63b8ff" d="M402.72,-329.51C413.78,-321.7 430.04,-310.21 443.17,-300.93"/>
<polygon fill="#63b8ff" stroke="#63b8ff" points="445.08,-303.86 451.23,-295.23 441.04,-298.14 445.08,-303.86"/>
</g>
</g>
</svg>
