<?xml version="1.0" encoding="UTF-8" standalone="no"?>
<!DOCTYPE svg PUBLIC "-//W3C//DTD SVG 1.1//EN"
 "http://www.w3.org/Graphics/SVG/1.1/DTD/svg11.dtd">
<!-- Generated by graphviz version 7.0.5 (20221223.1930)
 -->
<!-- Title: plugins/resources/meshloader/Madgine/meshloader/gpumeshloader.h Pages: 1 -->
<!--zoomable 346 -->
<svg id="main" version="1.1" xmlns="http://www.w3.org/2000/svg" xmlns:xlink="http://www.w3.org/1999/xlink" xml:space="preserve" onload="init(evt)">
<style type="text/css"><![CDATA[
.edge:hover path { stroke: red; }
.edge:hover polygon { stroke: red; fill: red; }
]]></style>
<script type="text/javascript"><![CDATA[
var edges = document.getElementsByTagName('g');
if (edges && edges.length) {
  for (var i=0;i<edges.length;i++) {
    if (edges[i].id.substr(0,4)=='edge') {
      edges[i].setAttribute('class','edge');
    }
  }
}
]]></script>
        <defs>
                <circle id="rim" cx="0" cy="0" r="7"/>
                <circle id="rim2" cx="0" cy="0" r="3.5"/>
                <g id="zoomPlus">
                        <use xlink:href="#rim" fill="#404040">
                                <set attributeName="fill" to="#808080" begin="zoomplus.mouseover" end="zoomplus.mouseout"/>
                        </use>
                        <path d="M-4,0h8M0,-4v8" fill="none" stroke="white" stroke-width="1.5" pointer-events="none"/>
                </g>
                <g id="zoomMin">
                        <use xlink:href="#rim" fill="#404040">
                                <set attributeName="fill" to="#808080" begin="zoomminus.mouseover" end="zoomminus.mouseout"/>
                        </use>
                        <path d="M-4,0h8" fill="none" stroke="white" stroke-width="1.5" pointer-events="none"/>
                </g>
                <g id="dirArrow">
                        <path fill="none" stroke="white" stroke-width="1.5" d="M0,-3.0v7 M-2.5,-0.5L0,-3.0L2.5,-0.5"/>
                </g>
               <g id="resetDef">
                       <use xlink:href="#rim2" fill="#404040">
                               <set attributeName="fill" to="#808080" begin="reset.mouseover" end="reset.mouseout"/>
                       </use>
               </g>
        </defs>

<script type="text/javascript">
var viewWidth = 1776;
var viewHeight = 346;
var sectionId = 'dynsection-1';
</script>
<script xlink:href="svgpan.js"/>
<svg id="graph" class="graph">
<g id="viewport">
<title>plugins/resources/meshloader/Madgine/meshloader/gpumeshloader.h</title>
<!-- Node1 -->
<g id="node1" class="node">
<title>Node1</title>
<g id="a_node1"><a xlink:title=" ">
<polygon fill="#999999" stroke="#666666" points="700.5,-338 514.5,-338 514.5,-308 700.5,-308 700.5,-338"/>
<text text-anchor="start" x="522.5" y="-326" font-family="Helvetica,sans-Serif" font-size="10.00">plugins/resources/meshloader</text>
<text text-anchor="middle" x="607.5" y="-315" font-family="Helvetica,sans-Serif" font-size="10.00">/Madgine/meshloader/gpumeshloader.h</text>
</a>
</g>
</g>
<!-- Node2 -->
<g id="node2" class="node">
<title>Node2</title>
<g id="a_node2"><a xlink:href="gridpass_8cpp.html" target="_top" xlink:title=" ">
<polygon fill="white" stroke="#666666" points="157,-195 0,-195 0,-154 157,-154 157,-195"/>
<text text-anchor="start" x="8" y="-183" font-family="Helvetica,sans-Serif" font-size="10.00">plugins/misc/scene</text>
<text text-anchor="start" x="8" y="-172" font-family="Helvetica,sans-Serif" font-size="10.00">/renderer_tools/Madgine</text>
<text text-anchor="middle" x="78.5" y="-161" font-family="Helvetica,sans-Serif" font-size="10.00">_Tools/sceneeditor/gridpass.cpp</text>
</a>
</g>
</g>
<!-- Node1&#45;&gt;Node2 -->
<g id="edge1" class="edge">
<title>Node1&#45;&gt;Node2</title>
<path fill="none" stroke="#63b8ff" d="M502.58,-318.09C392.51,-312.56 227.82,-299.84 171.5,-272 136.25,-254.58 107.01,-218.1 91.21,-195.32"/>
<polygon fill="#63b8ff" stroke="#63b8ff" points="502.38,-321.58 512.54,-318.57 502.72,-314.59 502.38,-321.58"/>
</g>
<!-- Node3 -->
<g id="node3" class="node">
<title>Node3</title>
<g id="a_node3"><a xlink:href="gridpass_8h.html" target="_top" xlink:title=" ">
<polygon fill="white" stroke="#666666" points="326.5,-272 180.5,-272 180.5,-231 326.5,-231 326.5,-272"/>
<text text-anchor="start" x="188.5" y="-260" font-family="Helvetica,sans-Serif" font-size="10.00">plugins/misc/scene</text>
<text text-anchor="start" x="188.5" y="-249" font-family="Helvetica,sans-Serif" font-size="10.00">/renderer_tools/Madgine</text>
<text text-anchor="middle" x="253.5" y="-238" font-family="Helvetica,sans-Serif" font-size="10.00">_Tools/sceneeditor/gridpass.h</text>
</a>
</g>
</g>
<!-- Node1&#45;&gt;Node3 -->
<g id="edge2" class="edge">
<title>Node1&#45;&gt;Node3</title>
<path fill="none" stroke="#63b8ff" d="M518.21,-305.42C467.51,-295.9 402.9,-283.56 345.5,-272 339.42,-270.78 333.11,-269.48 326.79,-268.17"/>
<polygon fill="#63b8ff" stroke="#63b8ff" points="517.5,-308.85 527.97,-307.26 518.79,-301.97 517.5,-308.85"/>
</g>
<!-- Node8 -->
<g id="node8" class="node">
<title>Node8</title>
<g id="a_node8"><a xlink:href="mesh_8h.html" target="_top" xlink:title=" ">
<polygon fill="white" stroke="#666666" points="673.5,-118 545.5,-118 545.5,-77 673.5,-77 673.5,-118"/>
<text text-anchor="start" x="553.5" y="-106" font-family="Helvetica,sans-Serif" font-size="10.00">plugins/misc/scene</text>
<text text-anchor="start" x="553.5" y="-95" font-family="Helvetica,sans-Serif" font-size="10.00">/src/Madgine/scene/entity</text>
<text text-anchor="middle" x="609.5" y="-84" font-family="Helvetica,sans-Serif" font-size="10.00">/components/mesh.h</text>
</a>
</g>
</g>
<!-- Node1&#45;&gt;Node8 -->
<g id="edge9" class="edge">
<title>Node1&#45;&gt;Node8</title>
<path fill="none" stroke="#63b8ff" d="M503.09,-311.91C450.54,-304.45 394.61,-292.01 378.5,-272 345.61,-231.15 346.04,-195.19 378.5,-154 398.93,-128.09 484.05,-112.88 545.03,-105.13"/>
<polygon fill="#63b8ff" stroke="#63b8ff" points="502.36,-315.34 512.74,-313.22 503.3,-308.41 502.36,-315.34"/>
</g>
<!-- Node15 -->
<g id="node15" class="node">
<title>Node15</title>
<g id="a_node15"><a xlink:href="widgetmanager_8cpp.html" target="_top" xlink:title=" ">
<polygon fill="white" stroke="#666666" points="497.5,-272 387.5,-272 387.5,-231 497.5,-231 497.5,-272"/>
<text text-anchor="start" x="395.5" y="-260" font-family="Helvetica,sans-Serif" font-size="10.00">plugins/misc/widgets</text>
<text text-anchor="start" x="395.5" y="-249" font-family="Helvetica,sans-Serif" font-size="10.00">/src/Madgine/widgets</text>
<text text-anchor="middle" x="442.5" y="-238" font-family="Helvetica,sans-Serif" font-size="10.00">/widgetmanager.cpp</text>
</a>
</g>
</g>
<!-- Node1&#45;&gt;Node15 -->
<g id="edge18" class="edge">
<title>Node1&#45;&gt;Node15</title>
<path fill="none" stroke="#63b8ff" d="M562.96,-303.24C540.32,-293.7 512.8,-282.11 489.78,-272.42"/>
<polygon fill="#63b8ff" stroke="#63b8ff" points="561.34,-306.36 571.92,-307.01 564.06,-299.9 561.34,-306.36"/>
</g>
<!-- Node16 -->
<g id="node16" class="node">
<title>Node16</title>
<g id="a_node16"><a xlink:href="pipelineloader_8cpp.html" target="_top" xlink:title=" ">
<polygon fill="white" stroke="#666666" points="699,-266.5 516,-266.5 516,-236.5 699,-236.5 699,-266.5"/>
<text text-anchor="start" x="524" y="-254.5" font-family="Helvetica,sans-Serif" font-size="10.00">plugins/renderer/api</text>
<text text-anchor="middle" x="607.5" y="-243.5" font-family="Helvetica,sans-Serif" font-size="10.00">/src/Madgine/render/pipelineloader.cpp</text>
</a>
</g>
</g>
<!-- Node1&#45;&gt;Node16 -->
<g id="edge19" class="edge">
<title>Node1&#45;&gt;Node16</title>
<path fill="none" stroke="#63b8ff" d="M607.5,-296.26C607.5,-286.33 607.5,-275.36 607.5,-266.88"/>
<polygon fill="#63b8ff" stroke="#63b8ff" points="604,-296.09 607.5,-306.09 611,-296.09 604,-296.09"/>
</g>
<!-- Node17 -->
<g id="node17" class="node">
<title>Node17</title>
<g id="a_node17"><a xlink:href="directx12meshloader_8h.html" target="_top" xlink:title=" ">
<polygon fill="white" stroke="#666666" points="896,-266.5 717,-266.5 717,-236.5 896,-236.5 896,-266.5"/>
<text text-anchor="start" x="725" y="-254.5" font-family="Helvetica,sans-Serif" font-size="10.00">plugins/renderer/directx12</text>
<text text-anchor="middle" x="806.5" y="-243.5" font-family="Helvetica,sans-Serif" font-size="10.00">/src/DirectX12/directx12meshloader.h</text>
</a>
</g>
</g>
<!-- Node1&#45;&gt;Node17 -->
<g id="edge20" class="edge">
<title>Node1&#45;&gt;Node17</title>
<path fill="none" stroke="#63b8ff" d="M659.55,-303.82C692.55,-292.3 734.65,-277.59 765.32,-266.88"/>
<polygon fill="#63b8ff" stroke="#63b8ff" points="658.45,-300.5 650.16,-307.1 660.76,-307.11 658.45,-300.5"/>
</g>
<!-- Node21 -->
<g id="node21" class="node">
<title>Node21</title>
<g id="a_node21"><a xlink:href="openglmeshloader_8h.html" target="_top" xlink:title=" ">
<polygon fill="white" stroke="#666666" points="1186.5,-266.5 1024.5,-266.5 1024.5,-236.5 1186.5,-236.5 1186.5,-266.5"/>
<text text-anchor="start" x="1032.5" y="-254.5" font-family="Helvetica,sans-Serif" font-size="10.00">plugins/renderer/opengl</text>
<text text-anchor="middle" x="1105.5" y="-243.5" font-family="Helvetica,sans-Serif" font-size="10.00">/src/OpenGL/openglmeshloader.h</text>
</a>
</g>
</g>
<!-- Node1&#45;&gt;Node21 -->
<g id="edge24" class="edge">
<title>Node1&#45;&gt;Node21</title>
<path fill="none" stroke="#63b8ff" d="M712,-307.42C804.93,-294.45 938.93,-275.75 1024.1,-263.86"/>
<polygon fill="#63b8ff" stroke="#63b8ff" points="711.8,-303.91 702.38,-308.76 712.76,-310.84 711.8,-303.91"/>
</g>
<!-- Node24 -->
<g id="node24" class="node">
<title>Node24</title>
<g id="a_node24"><a xlink:href="vulkanmeshloader_8h.html" target="_top" xlink:title=" ">
<polygon fill="white" stroke="#666666" points="1465,-266.5 1310,-266.5 1310,-236.5 1465,-236.5 1465,-266.5"/>
<text text-anchor="start" x="1318" y="-254.5" font-family="Helvetica,sans-Serif" font-size="10.00">plugins/renderer/vulkan</text>
<text text-anchor="middle" x="1387.5" y="-243.5" font-family="Helvetica,sans-Serif" font-size="10.00">/src/Vulkan/vulkanmeshloader.h</text>
</a>
</g>
</g>
<!-- Node1&#45;&gt;Node24 -->
<g id="edge27" class="edge">
<title>Node1&#45;&gt;Node24</title>
<path fill="none" stroke="#63b8ff" d="M712.11,-313.62C829.73,-304.09 1026.39,-287.78 1195.5,-272 1233.03,-268.5 1274.65,-264.31 1309.52,-260.71"/>
<polygon fill="#63b8ff" stroke="#63b8ff" points="712.17,-310.11 702.49,-314.4 712.74,-317.09 712.17,-310.11"/>
</g>
<!-- Node27 -->
<g id="node27" class="node">
<title>Node27</title>
<g id="a_node27"><a xlink:href="gpumeshloader_8cpp.html" target="_top" xlink:title=" ">
<polygon fill="white" stroke="#666666" points="1680,-266.5 1483,-266.5 1483,-236.5 1680,-236.5 1680,-266.5"/>
<text text-anchor="start" x="1491" y="-254.5" font-family="Helvetica,sans-Serif" font-size="10.00">plugins/resources/meshloader</text>
<text text-anchor="middle" x="1581.5" y="-243.5" font-family="Helvetica,sans-Serif" font-size="10.00">/Madgine/meshloader/gpumeshloader.cpp</text>
</a>
</g>
</g>
<!-- Node1&#45;&gt;Node27 -->
<g id="edge30" class="edge">
<title>Node1&#45;&gt;Node27</title>
<path fill="none" stroke="#63b8ff" d="M712.33,-320.1C875.71,-316.2 1200.75,-304.71 1474.5,-272 1485.66,-270.67 1497.41,-268.9 1508.87,-266.97"/>
<polygon fill="#63b8ff" stroke="#63b8ff" points="712.28,-316.6 702.36,-320.33 712.44,-323.6 712.28,-316.6"/>
</g>
<!-- Node3&#45;&gt;Node2 -->
<g id="edge3" class="edge">
<title>Node3&#45;&gt;Node2</title>
<path fill="none" stroke="#63b8ff" d="M196.69,-226.15C173.55,-216.24 147.14,-204.92 125.15,-195.49"/>
<polygon fill="#63b8ff" stroke="#63b8ff" points="195.1,-229.28 205.67,-230 197.86,-222.85 195.1,-229.28"/>
</g>
<!-- Node4 -->
<g id="node4" class="node">
<title>Node4</title>
<g id="a_node4"><a xlink:href="sceneview_8h.html" target="_top" xlink:title=" ">
<polygon fill="white" stroke="#666666" points="331.5,-195 175.5,-195 175.5,-154 331.5,-154 331.5,-195"/>
<text text-anchor="start" x="183.5" y="-183" font-family="Helvetica,sans-Serif" font-size="10.00">plugins/misc/scene</text>
<text text-anchor="start" x="183.5" y="-172" font-family="Helvetica,sans-Serif" font-size="10.00">/renderer_tools/Madgine</text>
<text text-anchor="middle" x="253.5" y="-161" font-family="Helvetica,sans-Serif" font-size="10.00">_Tools/sceneeditor/sceneview.h</text>
</a>
</g>
</g>
<!-- Node3&#45;&gt;Node4 -->
<g id="edge4" class="edge">
<title>Node3&#45;&gt;Node4</title>
<path fill="none" stroke="#63b8ff" d="M253.5,-219.36C253.5,-211.24 253.5,-202.7 253.5,-195.33"/>
<polygon fill="#63b8ff" stroke="#63b8ff" points="250,-219.28 253.5,-229.28 257,-219.28 250,-219.28"/>
</g>
<!-- Node5 -->
<g id="node5" class="node">
<title>Node5</title>
<g id="a_node5"><a xlink:href="sceneeditor_8h.html" target="_top" xlink:title=" ">
<polygon fill="white" stroke="#666666" points="333.5,-118 173.5,-118 173.5,-77 333.5,-77 333.5,-118"/>
<text text-anchor="start" x="181.5" y="-106" font-family="Helvetica,sans-Serif" font-size="10.00">plugins/misc/scene</text>
<text text-anchor="start" x="181.5" y="-95" font-family="Helvetica,sans-Serif" font-size="10.00">/renderer_tools/Madgine</text>
<text text-anchor="middle" x="253.5" y="-84" font-family="Helvetica,sans-Serif" font-size="10.00">_Tools/sceneeditor/sceneeditor.h</text>
</a>
</g>
</g>
<!-- Node4&#45;&gt;Node5 -->
<g id="edge5" class="edge">
<title>Node4&#45;&gt;Node5</title>
<path fill="none" stroke="#63b8ff" d="M253.5,-142.36C253.5,-134.24 253.5,-125.7 253.5,-118.33"/>
<polygon fill="#63b8ff" stroke="#63b8ff" points="250,-142.28 253.5,-152.28 257,-142.28 250,-142.28"/>
</g>
<!-- Node7 -->
<g id="node7" class="node">
<title>Node7</title>
<g id="a_node7"><a xlink:href="sceneview_8cpp.html" target="_top" xlink:title=" ">
<polygon fill="white" stroke="#666666" points="189,-41 22,-41 22,0 189,0 189,-41"/>
<text text-anchor="start" x="30" y="-29" font-family="Helvetica,sans-Serif" font-size="10.00">plugins/misc/scene</text>
<text text-anchor="start" x="30" y="-18" font-family="Helvetica,sans-Serif" font-size="10.00">/renderer_tools/Madgine</text>
<text text-anchor="middle" x="105.5" y="-7" font-family="Helvetica,sans-Serif" font-size="10.00">_Tools/sceneeditor/sceneview.cpp</text>
</a>
</g>
</g>
<!-- Node4&#45;&gt;Node7 -->
<g id="edge8" class="edge">
<title>Node4&#45;&gt;Node7</title>
<path fill="none" stroke="#63b8ff" d="M203.26,-147.79C189.73,-139.43 175.74,-129.34 164.5,-118 141.97,-95.27 124.21,-62.36 114.28,-41.45"/>
<polygon fill="#63b8ff" stroke="#63b8ff" points="201.3,-150.69 211.68,-152.79 204.87,-144.67 201.3,-150.69"/>
</g>
<!-- Node6 -->
<g id="node6" class="node">
<title>Node6</title>
<g id="a_node6"><a xlink:href="sceneeditor_8cpp.html" target="_top" xlink:title=" ">
<polygon fill="white" stroke="#666666" points="377.5,-41 207.5,-41 207.5,0 377.5,0 377.5,-41"/>
<text text-anchor="start" x="215.5" y="-29" font-family="Helvetica,sans-Serif" font-size="10.00">plugins/misc/scene</text>
<text text-anchor="start" x="215.5" y="-18" font-family="Helvetica,sans-Serif" font-size="10.00">/renderer_tools/Madgine</text>
<text text-anchor="middle" x="292.5" y="-7" font-family="Helvetica,sans-Serif" font-size="10.00">_Tools/sceneeditor/sceneeditor.cpp</text>
</a>
</g>
</g>
<!-- Node5&#45;&gt;Node6 -->
<g id="edge6" class="edge">
<title>Node5&#45;&gt;Node6</title>
<path fill="none" stroke="#63b8ff" d="M268.96,-66.78C273.4,-58.23 278.14,-49.12 282.19,-41.33"/>
<polygon fill="#63b8ff" stroke="#63b8ff" points="265.95,-64.96 264.45,-75.45 272.16,-68.19 265.95,-64.96"/>
</g>
<!-- Node5&#45;&gt;Node7 -->
<g id="edge7" class="edge">
<title>Node5&#45;&gt;Node7</title>
<path fill="none" stroke="#63b8ff" d="M204.13,-71.48C184.88,-61.73 163.13,-50.7 144.96,-41.49"/>
<polygon fill="#63b8ff" stroke="#63b8ff" points="202.38,-74.52 212.88,-75.91 205.54,-68.27 202.38,-74.52"/>
</g>
<!-- Node8&#45;&gt;Node6 -->
<g id="edge15" class="edge">
<title>Node8&#45;&gt;Node6</title>
<path fill="none" stroke="#63b8ff" d="M534.26,-78.7C487,-67.52 425.94,-53.07 377.01,-41.49"/>
<polygon fill="#63b8ff" stroke="#63b8ff" points="533.34,-82.08 543.88,-80.97 534.95,-75.27 533.34,-82.08"/>
</g>
<!-- Node8&#45;&gt;Node7 -->
<g id="edge16" class="edge">
<title>Node8&#45;&gt;Node7</title>
<path fill="none" stroke="#63b8ff" d="M533.91,-87.96C451.27,-78.23 315.07,-61.06 198.5,-41 195.49,-40.48 192.43,-39.94 189.35,-39.37"/>
<polygon fill="#63b8ff" stroke="#63b8ff" points="533.37,-91.42 543.71,-89.1 534.18,-84.47 533.37,-91.42"/>
</g>
<!-- Node9 -->
<g id="node9" class="node">
<title>Node9</title>
<g id="a_node9"><a xlink:href="litscenerenderdata_8cpp.html" target="_top" xlink:title=" ">
<polygon fill="white" stroke="#666666" points="521,-41 396,-41 396,0 521,0 521,-41"/>
<text text-anchor="start" x="404" y="-29" font-family="Helvetica,sans-Serif" font-size="10.00">plugins/misc/scene</text>
<text text-anchor="start" x="404" y="-18" font-family="Helvetica,sans-Serif" font-size="10.00">/renderer/Madgine/render</text>
<text text-anchor="middle" x="458.5" y="-7" font-family="Helvetica,sans-Serif" font-size="10.00">/litscenerenderdata.cpp</text>
</a>
</g>
</g>
<!-- Node8&#45;&gt;Node9 -->
<g id="edge10" class="edge">
<title>Node8&#45;&gt;Node9</title>
<path fill="none" stroke="#63b8ff" d="M559.13,-71.48C539.49,-61.73 517.3,-50.7 498.76,-41.49"/>
<polygon fill="#63b8ff" stroke="#63b8ff" points="557.56,-74.61 568.08,-75.92 560.68,-68.34 557.56,-74.61"/>
</g>
<!-- Node10 -->
<g id="node10" class="node">
<title>Node10</title>
<g id="a_node10"><a xlink:href="pointshadowrenderpass_8cpp.html" target="_top" xlink:title=" ">
<polygon fill="white" stroke="#666666" points="679.5,-41 539.5,-41 539.5,0 679.5,0 679.5,-41"/>
<text text-anchor="start" x="547.5" y="-29" font-family="Helvetica,sans-Serif" font-size="10.00">plugins/misc/scene</text>
<text text-anchor="start" x="547.5" y="-18" font-family="Helvetica,sans-Serif" font-size="10.00">/renderer/Madgine/render</text>
<text text-anchor="middle" x="609.5" y="-7" font-family="Helvetica,sans-Serif" font-size="10.00">/pointshadowrenderpass.cpp</text>
</a>
</g>
</g>
<!-- Node8&#45;&gt;Node10 -->
<g id="edge11" class="edge">
<title>Node8&#45;&gt;Node10</title>
<path fill="none" stroke="#63b8ff" d="M609.5,-65.36C609.5,-57.24 609.5,-48.7 609.5,-41.33"/>
<polygon fill="#63b8ff" stroke="#63b8ff" points="606,-65.28 609.5,-75.28 613,-65.28 606,-65.28"/>
</g>
<!-- Node11 -->
<g id="node11" class="node">
<title>Node11</title>
<g id="a_node11"><a xlink:href="scenerenderpass_8cpp.html" target="_top" xlink:title=" ">
<polygon fill="white" stroke="#666666" points="823,-41 698,-41 698,0 823,0 823,-41"/>
<text text-anchor="start" x="706" y="-29" font-family="Helvetica,sans-Serif" font-size="10.00">plugins/misc/scene</text>
<text text-anchor="start" x="706" y="-18" font-family="Helvetica,sans-Serif" font-size="10.00">/renderer/Madgine/render</text>
<text text-anchor="middle" x="760.5" y="-7" font-family="Helvetica,sans-Serif" font-size="10.00">/scenerenderpass.cpp</text>
</a>
</g>
</g>
<!-- Node8&#45;&gt;Node11 -->
<g id="edge12" class="edge">
<title>Node8&#45;&gt;Node11</title>
<path fill="none" stroke="#63b8ff" d="M659.87,-71.48C679.51,-61.73 701.7,-50.7 720.24,-41.49"/>
<polygon fill="#63b8ff" stroke="#63b8ff" points="658.32,-68.34 650.92,-75.92 661.44,-74.61 658.32,-68.34"/>
</g>
<!-- Node12 -->
<g id="node12" class="node">
<title>Node12</title>
<g id="a_node12"><a xlink:href="shadowrenderpass_8cpp.html" target="_top" xlink:title=" ">
<polygon fill="white" stroke="#666666" points="966,-41 841,-41 841,0 966,0 966,-41"/>
<text text-anchor="start" x="849" y="-29" font-family="Helvetica,sans-Serif" font-size="10.00">plugins/misc/scene</text>
<text text-anchor="start" x="849" y="-18" font-family="Helvetica,sans-Serif" font-size="10.00">/renderer/Madgine/render</text>
<text text-anchor="middle" x="903.5" y="-7" font-family="Helvetica,sans-Serif" font-size="10.00">/shadowrenderpass.cpp</text>
</a>
</g>
</g>
<!-- Node8&#45;&gt;Node12 -->
<g id="edge13" class="edge">
<title>Node8&#45;&gt;Node12</title>
<path fill="none" stroke="#63b8ff" d="M684.66,-78.1C727.7,-67.46 782.69,-53.71 831.5,-41 834.51,-40.22 837.58,-39.41 840.69,-38.59"/>
<polygon fill="#63b8ff" stroke="#63b8ff" points="684.04,-74.64 675.17,-80.44 685.72,-81.44 684.04,-74.64"/>
</g>
<!-- Node13 -->
<g id="node13" class="node">
<title>Node13</title>
<g id="a_node13"><a xlink:href="shadowscenerenderdata_8cpp.html" target="_top" xlink:title=" ">
<polygon fill="white" stroke="#666666" points="1127,-41 984,-41 984,0 1127,0 1127,-41"/>
<text text-anchor="start" x="992" y="-29" font-family="Helvetica,sans-Serif" font-size="10.00">plugins/misc/scene</text>
<text text-anchor="start" x="992" y="-18" font-family="Helvetica,sans-Serif" font-size="10.00">/renderer/Madgine/render</text>
<text text-anchor="middle" x="1055.5" y="-7" font-family="Helvetica,sans-Serif" font-size="10.00">/shadowscenerenderdata.cpp</text>
</a>
</g>
</g>
<!-- Node8&#45;&gt;Node13 -->
<g id="edge14" class="edge">
<title>Node8&#45;&gt;Node13</title>
<path fill="none" stroke="#63b8ff" d="M684.8,-86.96C758.83,-77.13 874.89,-60.53 974.5,-41 977.48,-40.42 980.52,-39.8 983.58,-39.15"/>
<polygon fill="#63b8ff" stroke="#63b8ff" points="684.7,-83.44 675.24,-88.22 685.62,-90.38 684.7,-83.44"/>
</g>
<!-- Node14 -->
<g id="node14" class="node">
<title>Node14</title>
<g id="a_node14"><a xlink:href="mesh_8cpp.html" target="_top" xlink:title=" ">
<polygon fill="white" stroke="#666666" points="1273.5,-41 1145.5,-41 1145.5,0 1273.5,0 1273.5,-41"/>
<text text-anchor="start" x="1153.5" y="-29" font-family="Helvetica,sans-Serif" font-size="10.00">plugins/misc/scene</text>
<text text-anchor="start" x="1153.5" y="-18" font-family="Helvetica,sans-Serif" font-size="10.00">/src/Madgine/scene/entity</text>
<text text-anchor="middle" x="1209.5" y="-7" font-family="Helvetica,sans-Serif" font-size="10.00">/components/mesh.cpp</text>
</a>
</g>
</g>
<!-- Node8&#45;&gt;Node14 -->
<g id="edge17" class="edge">
<title>Node8&#45;&gt;Node14</title>
<path fill="none" stroke="#63b8ff" d="M685.4,-92.14C788.12,-85.41 976.78,-70.11 1135.5,-41 1138.64,-40.42 1141.83,-39.79 1145.06,-39.1"/>
<polygon fill="#63b8ff" stroke="#63b8ff" points="685.18,-88.64 675.43,-92.78 685.63,-95.63 685.18,-88.64"/>
</g>
<!-- Node18 -->
<g id="node18" class="node">
<title>Node18</title>
<g id="a_node18"><a xlink:href="directx12meshloader_8cpp.html" target="_top" xlink:title=" ">
<polygon fill="white" stroke="#666666" points="577,-189.5 388,-189.5 388,-159.5 577,-159.5 577,-189.5"/>
<text text-anchor="start" x="396" y="-177.5" font-family="Helvetica,sans-Serif" font-size="10.00">plugins/renderer/directx12</text>
<text text-anchor="middle" x="482.5" y="-166.5" font-family="Helvetica,sans-Serif" font-size="10.00">/src/DirectX12/directx12meshloader.cpp</text>
</a>
</g>
</g>
<!-- Node17&#45;&gt;Node18 -->
<g id="edge21" class="edge">
<title>Node17&#45;&gt;Node18</title>
<path fill="none" stroke="#63b8ff" d="M732.98,-233.48C676.31,-220.36 598.78,-202.42 545.05,-189.98"/>
<polygon fill="#63b8ff" stroke="#63b8ff" points="732.02,-236.85 742.55,-235.7 733.6,-230.03 732.02,-236.85"/>
</g>
<!-- Node19 -->
<g id="node19" class="node">
<title>Node19</title>
<g id="a_node19"><a xlink:href="directx12rendercontext_8cpp.html" target="_top" xlink:title=" ">
<polygon fill="white" stroke="#666666" points="792,-189.5 595,-189.5 595,-159.5 792,-159.5 792,-189.5"/>
<text text-anchor="start" x="603" y="-177.5" font-family="Helvetica,sans-Serif" font-size="10.00">plugins/renderer/directx12</text>
<text text-anchor="middle" x="693.5" y="-166.5" font-family="Helvetica,sans-Serif" font-size="10.00">/src/DirectX12/directx12rendercontext.cpp</text>
</a>
</g>
</g>
<!-- Node17&#45;&gt;Node19 -->
<g id="edge22" class="edge">
<title>Node17&#45;&gt;Node19</title>
<path fill="none" stroke="#63b8ff" d="M775.24,-229.75C756.16,-217.09 732.24,-201.21 715.22,-189.92"/>
<polygon fill="#63b8ff" stroke="#63b8ff" points="773.18,-232.59 783.45,-235.2 777.06,-226.76 773.18,-232.59"/>
</g>
<!-- Node20 -->
<g id="node20" class="node">
<title>Node20</title>
<g id="a_node20"><a xlink:href="directx12rendertarget_8cpp.html" target="_top" xlink:title=" ">
<polygon fill="white" stroke="#666666" points="1001,-189.5 810,-189.5 810,-159.5 1001,-159.5 1001,-189.5"/>
<text text-anchor="start" x="818" y="-177.5" font-family="Helvetica,sans-Serif" font-size="10.00">plugins/renderer/directx12</text>
<text text-anchor="middle" x="905.5" y="-166.5" font-family="Helvetica,sans-Serif" font-size="10.00">/src/DirectX12/directx12rendertarget.cpp</text>
</a>
</g>
</g>
<!-- Node17&#45;&gt;Node20 -->
<g id="edge23" class="edge">
<title>Node17&#45;&gt;Node20</title>
<path fill="none" stroke="#63b8ff" d="M834.35,-229.4C850.99,-216.8 871.69,-201.11 886.47,-189.92"/>
<polygon fill="#63b8ff" stroke="#63b8ff" points="832.65,-226.3 826.79,-235.13 836.88,-231.88 832.65,-226.3"/>
</g>
<!-- Node22 -->
<g id="node22" class="node">
<title>Node22</title>
<g id="a_node22"><a xlink:href="openglmeshloader_8cpp.html" target="_top" xlink:title=" ">
<polygon fill="white" stroke="#666666" points="1192,-189.5 1019,-189.5 1019,-159.5 1192,-159.5 1192,-189.5"/>
<text text-anchor="start" x="1027" y="-177.5" font-family="Helvetica,sans-Serif" font-size="10.00">plugins/renderer/opengl</text>
<text text-anchor="middle" x="1105.5" y="-166.5" font-family="Helvetica,sans-Serif" font-size="10.00">/src/OpenGL/openglmeshloader.cpp</text>
</a>
</g>
</g>
<!-- Node21&#45;&gt;Node22 -->
<g id="edge25" class="edge">
<title>Node21&#45;&gt;Node22</title>
<path fill="none" stroke="#63b8ff" d="M1105.5,-224.73C1105.5,-213.08 1105.5,-199.76 1105.5,-189.92"/>
<polygon fill="#63b8ff" stroke="#63b8ff" points="1102,-224.53 1105.5,-234.53 1109,-224.53 1102,-224.53"/>
</g>
<!-- Node23 -->
<g id="node23" class="node">
<title>Node23</title>
<g id="a_node23"><a xlink:href="openglrendercontext_8cpp.html" target="_top" xlink:title=" ">
<polygon fill="white" stroke="#666666" points="1391,-189.5 1210,-189.5 1210,-159.5 1391,-159.5 1391,-189.5"/>
<text text-anchor="start" x="1218" y="-177.5" font-family="Helvetica,sans-Serif" font-size="10.00">plugins/renderer/opengl</text>
<text text-anchor="middle" x="1300.5" y="-166.5" font-family="Helvetica,sans-Serif" font-size="10.00">/src/OpenGL/openglrendercontext.cpp</text>
</a>
</g>
</g>
<!-- Node21&#45;&gt;Node23 -->
<g id="edge26" class="edge">
<title>Node21&#45;&gt;Node23</title>
<path fill="none" stroke="#63b8ff" d="M1153.65,-231.98C1187.41,-219 1231.89,-201.89 1263.02,-189.92"/>
<polygon fill="#63b8ff" stroke="#63b8ff" points="1152.59,-228.64 1144.51,-235.5 1155.1,-235.17 1152.59,-228.64"/>
</g>
<!-- Node25 -->
<g id="node25" class="node">
<title>Node25</title>
<g id="a_node25"><a xlink:href="vulkanmeshloader_8cpp.html" target="_top" xlink:title=" ">
<polygon fill="white" stroke="#666666" points="1575.5,-189.5 1409.5,-189.5 1409.5,-159.5 1575.5,-159.5 1575.5,-189.5"/>
<text text-anchor="start" x="1417.5" y="-177.5" font-family="Helvetica,sans-Serif" font-size="10.00">plugins/renderer/vulkan</text>
<text text-anchor="middle" x="1492.5" y="-166.5" font-family="Helvetica,sans-Serif" font-size="10.00">/src/Vulkan/vulkanmeshloader.cpp</text>
</a>
</g>
</g>
<!-- Node24&#45;&gt;Node25 -->
<g id="edge28" class="edge">
<title>Node24&#45;&gt;Node25</title>
<path fill="none" stroke="#63b8ff" d="M1417.04,-229.4C1434.69,-216.8 1456.65,-201.11 1472.32,-189.92"/>
<polygon fill="#63b8ff" stroke="#63b8ff" points="1415.08,-226.5 1408.98,-235.16 1419.15,-232.2 1415.08,-226.5"/>
</g>
<!-- Node26 -->
<g id="node26" class="node">
<title>Node26</title>
<g id="a_node26"><a xlink:href="vulkanrendercontext_8cpp.html" target="_top" xlink:title=" ">
<polygon fill="white" stroke="#666666" points="1767.5,-189.5 1593.5,-189.5 1593.5,-159.5 1767.5,-159.5 1767.5,-189.5"/>
<text text-anchor="start" x="1601.5" y="-177.5" font-family="Helvetica,sans-Serif" font-size="10.00">plugins/renderer/vulkan</text>
<text text-anchor="middle" x="1680.5" y="-166.5" font-family="Helvetica,sans-Serif" font-size="10.00">/src/Vulkan/vulkanrendercontext.cpp</text>
</a>
</g>
</g>
<!-- Node24&#45;&gt;Node26 -->
<g id="edge29" class="edge">
<title>Node24&#45;&gt;Node26</title>
<path fill="none" stroke="#63b8ff" d="M1454.94,-233.24C1506.11,-220.14 1575.65,-202.34 1623.93,-189.98"/>
<polygon fill="#63b8ff" stroke="#63b8ff" points="1454.28,-229.79 1445.46,-235.66 1456.02,-236.57 1454.28,-229.79"/>
</g>
</g>
</svg>
        <g id="navigator" transform="translate(0 0)" fill="#404254">
                <rect fill="#f2f5e9" fill-opacity="0.5" stroke="#606060" stroke-width=".5" x="0" y="0" width="60" height="60"/>
                <use id="zoomplus" xlink:href="#zoomPlus" x="17" y="9" onmousedown="handleZoom(evt,'in')"/>
                <use id="zoomminus" xlink:href="#zoomMin" x="42" y="9" onmousedown="handleZoom(evt,'out')"/>
                <use id="reset" xlink:href="#resetDef" x="30" y="36" onmousedown="handleReset()"/>
                <g id="arrowUp" xlink:href="#dirArrow" transform="translate(30 24)" onmousedown="handlePan(0,-1)">
                  <use xlink:href="#rim" fill="#404040">
                        <set attributeName="fill" to="#808080" begin="arrowUp.mouseover" end="arrowUp.mouseout"/>
                  </use>
                  <path fill="none" stroke="white" stroke-width="1.5" d="M0,-3.0v7 M-2.5,-0.5L0,-3.0L2.5,-0.5"/>
                </g>
                <g id="arrowRight" xlink:href="#dirArrow" transform="rotate(90) translate(36 -43)" onmousedown="handlePan(1,0)">
                  <use xlink:href="#rim" fill="#404040">
                        <set attributeName="fill" to="#808080" begin="arrowRight.mouseover" end="arrowRight.mouseout"/>
                  </use>
                  <path fill="none" stroke="white" stroke-width="1.5" d="M0,-3.0v7 M-2.5,-0.5L0,-3.0L2.5,-0.5"/>
                </g>
                <g id="arrowDown" xlink:href="#dirArrow" transform="rotate(180) translate(-30 -48)" onmousedown="handlePan(0,1)">
                  <use xlink:href="#rim" fill="#404040">
                        <set attributeName="fill" to="#808080" begin="arrowDown.mouseover" end="arrowDown.mouseout"/>
                  </use>
                  <path fill="none" stroke="white" stroke-width="1.5" d="M0,-3.0v7 M-2.5,-0.5L0,-3.0L2.5,-0.5"/>
                </g>
                <g id="arrowLeft" xlink:href="#dirArrow" transform="rotate(270) translate(-36 17)" onmousedown="handlePan(-1,0)">
                  <use xlink:href="#rim" fill="#404040">
                        <set attributeName="fill" to="#808080" begin="arrowLeft.mouseover" end="arrowLeft.mouseout"/>
                  </use>
                  <path fill="none" stroke="white" stroke-width="1.5" d="M0,-3.0v7 M-2.5,-0.5L0,-3.0L2.5,-0.5"/>
                </g>
        </g>
        <svg viewBox="0 0 15 15" width="100%" height="30px" preserveAspectRatio="xMaxYMin meet">
         <g id="arrow_out" transform="scale(0.3 0.3)">
          <a xlink:href="gpumeshloader_8h__dep__incl_org.svg" target="_base">
           <rect id="button" ry="5" rx="5" y="6" x="6" height="38" width="38"
                fill="#f2f5e9" fill-opacity="0.5" stroke="#606060" stroke-width="1.0"/>
           <path id="arrow"
             d="M 11.500037,31.436501 C 11.940474,20.09759 22.043105,11.32322 32.158766,21.979434 L 37.068811,17.246167 C 37.068811,17.246167 37.088388,32 37.088388,32 L 22.160133,31.978069 C 22.160133,31.978069 26.997745,27.140456 26.997745,27.140456 C 18.528582,18.264221 13.291696,25.230495 11.500037,31.436501 z"
             style="fill:#404040;"/>
          </a>
         </g>
        </svg>
</svg>
