<?xml version="1.0" encoding="UTF-8" standalone="no"?>
<!DOCTYPE svg PUBLIC "-//W3C//DTD SVG 1.1//EN"
 "http://www.w3.org/Graphics/SVG/1.1/DTD/svg11.dtd">
<!-- Generated by graphviz version 7.0.5 (20221223.1930)
 -->
<!-- Title: plugins/behavior/handler/src/Madgine/handlercollector.h Pages: 1 -->
<svg width="477pt" height="258pt"
 viewBox="0.00 0.00 477.48 258.00" xmlns="http://www.w3.org/2000/svg" xmlns:xlink="http://www.w3.org/1999/xlink">
<g id="graph0" class="graph" transform="scale(1 1) rotate(0) translate(4 254)">
<title>plugins/behavior/handler/src/Madgine/handlercollector.h</title>
<!-- Node1 -->
<g id="node1" class="node">
<title>Node1</title>
<g id="a_node1"><a xlink:title=" ">
<polygon fill="#999999" stroke="#666666" points="317.48,-250 165.48,-250 165.48,-220 317.48,-220 317.48,-250"/>
<text text-anchor="start" x="173.48" y="-238" font-family="Helvetica,sans-Serif" font-size="10.00">plugins/behavior/handler</text>
<text text-anchor="middle" x="241.48" y="-227" font-family="Helvetica,sans-Serif" font-size="10.00">/src/Madgine/handlercollector.h</text>
</a>
</g>
</g>
<!-- Node2 -->
<g id="node2" class="node">
<title>Node2</title>
<g id="a_node2"><a xlink:href="handler_8h.html" target="_top" xlink:title=" ">
<polygon fill="white" stroke="#666666" points="302.48,-184 180.48,-184 180.48,-154 302.48,-154 302.48,-184"/>
<text text-anchor="start" x="188.48" y="-172" font-family="Helvetica,sans-Serif" font-size="10.00">plugins/behavior/handler</text>
<text text-anchor="middle" x="241.48" y="-161" font-family="Helvetica,sans-Serif" font-size="10.00">/src/Madgine/handler.h</text>
</a>
</g>
</g>
<!-- Node1&#45;&gt;Node2 -->
<g id="edge1" class="edge">
<title>Node1&#45;&gt;Node2</title>
<path fill="none" stroke="#63b8ff" d="M241.48,-208.39C241.48,-200.13 241.48,-191.28 241.48,-184.16"/>
<polygon fill="#63b8ff" stroke="#63b8ff" points="237.98,-208.28 241.48,-218.28 244.98,-208.28 237.98,-208.28"/>
</g>
<!-- Node5 -->
<g id="node5" class="node">
<title>Node5</title>
<g id="a_node5"><a xlink:href="widgethandler_8h.html" target="_top" xlink:title=" ">
<polygon fill="white" stroke="#666666" points="469.48,-118 341.48,-118 341.48,-77 469.48,-77 469.48,-118"/>
<text text-anchor="start" x="349.48" y="-106" font-family="Helvetica,sans-Serif" font-size="10.00">plugins/misc/widgets</text>
<text text-anchor="start" x="349.48" y="-95" font-family="Helvetica,sans-Serif" font-size="10.00">/handler/Madgine/widgets</text>
<text text-anchor="middle" x="405.48" y="-84" font-family="Helvetica,sans-Serif" font-size="10.00">/widgethandler.h</text>
</a>
</g>
</g>
<!-- Node1&#45;&gt;Node5 -->
<g id="edge10" class="edge">
<title>Node1&#45;&gt;Node5</title>
<path fill="none" stroke="#63b8ff" d="M272.55,-212.99C284.9,-204.33 299.1,-193.99 311.48,-184 337.91,-162.66 366.56,-136.05 385.19,-118.24"/>
<polygon fill="#63b8ff" stroke="#63b8ff" points="270.57,-210.1 264.34,-218.67 274.55,-215.85 270.57,-210.1"/>
</g>
<!-- Node7 -->
<g id="node7" class="node">
<title>Node7</title>
<g id="a_node7"><a xlink:href="handlermanager_8h.html" target="_top" xlink:title=" ">
<polygon fill="white" stroke="#666666" points="159.48,-184 7.48,-184 7.48,-154 159.48,-154 159.48,-184"/>
<text text-anchor="start" x="15.48" y="-172" font-family="Helvetica,sans-Serif" font-size="10.00">plugins/behavior/handler</text>
<text text-anchor="middle" x="83.48" y="-161" font-family="Helvetica,sans-Serif" font-size="10.00">/src/Madgine/handlermanager.h</text>
</a>
</g>
</g>
<!-- Node1&#45;&gt;Node7 -->
<g id="edge6" class="edge">
<title>Node1&#45;&gt;Node7</title>
<path fill="none" stroke="#63b8ff" d="M195.58,-215.41C171.21,-205.54 141.71,-193.59 119.09,-184.43"/>
<polygon fill="#63b8ff" stroke="#63b8ff" points="194.04,-218.56 204.62,-219.07 196.66,-212.07 194.04,-218.56"/>
</g>
<!-- Node3 -->
<g id="node3" class="node">
<title>Node3</title>
<g id="a_node3"><a xlink:href="handler_8cpp.html" target="_top" xlink:title=" ">
<polygon fill="white" stroke="#666666" points="141.98,-112.5 16.98,-112.5 16.98,-82.5 141.98,-82.5 141.98,-112.5"/>
<text text-anchor="start" x="24.98" y="-100.5" font-family="Helvetica,sans-Serif" font-size="10.00">plugins/behavior/handler</text>
<text text-anchor="middle" x="79.48" y="-89.5" font-family="Helvetica,sans-Serif" font-size="10.00">/src/Madgine/handler.cpp</text>
</a>
</g>
</g>
<!-- Node2&#45;&gt;Node3 -->
<g id="edge2" class="edge">
<title>Node2&#45;&gt;Node3</title>
<path fill="none" stroke="#63b8ff" d="M197.35,-149.07C170.76,-137.66 137.43,-123.36 113,-112.88"/>
<polygon fill="#63b8ff" stroke="#63b8ff" points="195.95,-152.28 206.52,-153 198.71,-145.84 195.95,-152.28"/>
</g>
<!-- Node4 -->
<g id="node4" class="node">
<title>Node4</title>
<g id="a_node4"><a xlink:href="handlermanager_8cpp.html" target="_top" xlink:title=" ">
<polygon fill="white" stroke="#666666" points="322.98,-112.5 159.98,-112.5 159.98,-82.5 322.98,-82.5 322.98,-112.5"/>
<text text-anchor="start" x="167.98" y="-100.5" font-family="Helvetica,sans-Serif" font-size="10.00">plugins/behavior/handler</text>
<text text-anchor="middle" x="241.48" y="-89.5" font-family="Helvetica,sans-Serif" font-size="10.00">/src/Madgine/handlermanager.cpp</text>
</a>
</g>
</g>
<!-- Node2&#45;&gt;Node4 -->
<g id="edge3" class="edge">
<title>Node2&#45;&gt;Node4</title>
<path fill="none" stroke="#63b8ff" d="M241.48,-142.26C241.48,-132.33 241.48,-121.36 241.48,-112.88"/>
<polygon fill="#63b8ff" stroke="#63b8ff" points="237.98,-142.09 241.48,-152.09 244.98,-142.09 237.98,-142.09"/>
</g>
<!-- Node2&#45;&gt;Node5 -->
<g id="edge4" class="edge">
<title>Node2&#45;&gt;Node5</title>
<path fill="none" stroke="#63b8ff" d="M286.06,-149.11C308.5,-139.6 335.71,-128.07 358.48,-118.42"/>
<polygon fill="#63b8ff" stroke="#63b8ff" points="284.7,-145.88 276.85,-153.01 287.43,-152.33 284.7,-145.88"/>
</g>
<!-- Node6 -->
<g id="node6" class="node">
<title>Node6</title>
<g id="a_node6"><a xlink:href="widgethandler_8cpp.html" target="_top" xlink:title=" ">
<polygon fill="white" stroke="#666666" points="260.48,-41 132.48,-41 132.48,0 260.48,0 260.48,-41"/>
<text text-anchor="start" x="140.48" y="-29" font-family="Helvetica,sans-Serif" font-size="10.00">plugins/misc/widgets</text>
<text text-anchor="start" x="140.48" y="-18" font-family="Helvetica,sans-Serif" font-size="10.00">/handler/Madgine/widgets</text>
<text text-anchor="middle" x="196.48" y="-7" font-family="Helvetica,sans-Serif" font-size="10.00">/widgethandler.cpp</text>
</a>
</g>
</g>
<!-- Node5&#45;&gt;Node6 -->
<g id="edge5" class="edge">
<title>Node5&#45;&gt;Node6</title>
<path fill="none" stroke="#63b8ff" d="M339.49,-72.82C311.42,-62.75 279.04,-51.13 252.2,-41.49"/>
<polygon fill="#63b8ff" stroke="#63b8ff" points="338,-76 348.6,-76.09 340.37,-69.42 338,-76"/>
</g>
<!-- Node7&#45;&gt;Node3 -->
<g id="edge7" class="edge">
<title>Node7&#45;&gt;Node3</title>
<path fill="none" stroke="#63b8ff" d="M82,-142.26C81.43,-132.33 80.8,-121.36 80.31,-112.88"/>
<polygon fill="#63b8ff" stroke="#63b8ff" points="78.5,-142.31 82.56,-152.09 85.48,-141.9 78.5,-142.31"/>
</g>
<!-- Node7&#45;&gt;Node4 -->
<g id="edge8" class="edge">
<title>Node7&#45;&gt;Node4</title>
<path fill="none" stroke="#63b8ff" d="M126.52,-149.07C152.46,-137.66 184.96,-123.36 208.78,-112.88"/>
<polygon fill="#63b8ff" stroke="#63b8ff" points="125.35,-145.76 117.6,-152.99 128.17,-152.17 125.35,-145.76"/>
</g>
<!-- Node7&#45;&gt;Node6 -->
<g id="edge9" class="edge">
<title>Node7&#45;&gt;Node6</title>
<path fill="none" stroke="#63b8ff" d="M37.55,-147.97C25.61,-140.4 14.22,-130.51 7.48,-118 -1.17,-101.96 -3.44,-91.59 7.48,-77 22.65,-56.74 83.44,-41.36 132.05,-31.98"/>
<polygon fill="#63b8ff" stroke="#63b8ff" points="35.44,-150.79 45.85,-152.78 38.96,-144.74 35.44,-150.79"/>
</g>
</g>
</svg>
