<?xml version="1.0" encoding="UTF-8" standalone="no"?>
<!DOCTYPE svg PUBLIC "-//W3C//DTD SVG 1.1//EN"
 "http://www.w3.org/Graphics/SVG/1.1/DTD/svg11.dtd">
<!-- Generated by graphviz version 7.0.5 (20221223.1930)
 -->
<!-- Title: plugins/behavior/handler/src/Madgine/handlermanager.h Pages: 1 -->
<svg width="461pt" height="115pt"
 viewBox="0.00 0.00 460.50 115.00" xmlns="http://www.w3.org/2000/svg" xmlns:xlink="http://www.w3.org/1999/xlink">
<g id="graph0" class="graph" transform="scale(1 1) rotate(0) translate(4 111)">
<title>plugins/behavior/handler/src/Madgine/handlermanager.h</title>
<!-- Node1 -->
<g id="node1" class="node">
<title>Node1</title>
<g id="a_node1"><a xlink:title=" ">
<polygon fill="#999999" stroke="#666666" points="300.5,-107 148.5,-107 148.5,-77 300.5,-77 300.5,-107"/>
<text text-anchor="start" x="156.5" y="-95" font-family="Helvetica,sans-Serif" font-size="10.00">plugins/behavior/handler</text>
<text text-anchor="middle" x="224.5" y="-84" font-family="Helvetica,sans-Serif" font-size="10.00">/src/Madgine/handlermanager.h</text>
</a>
</g>
</g>
<!-- Node2 -->
<g id="node2" class="node">
<title>Node2</title>
<g id="a_node2"><a xlink:href="handler_8cpp.html" target="_top" xlink:title=" ">
<polygon fill="white" stroke="#666666" points="125,-35.5 0,-35.5 0,-5.5 125,-5.5 125,-35.5"/>
<text text-anchor="start" x="8" y="-23.5" font-family="Helvetica,sans-Serif" font-size="10.00">plugins/behavior/handler</text>
<text text-anchor="middle" x="62.5" y="-12.5" font-family="Helvetica,sans-Serif" font-size="10.00">/src/Madgine/handler.cpp</text>
</a>
</g>
</g>
<!-- Node1&#45;&gt;Node2 -->
<g id="edge1" class="edge">
<title>Node1&#45;&gt;Node2</title>
<path fill="none" stroke="#63b8ff" d="M180.37,-72.07C153.78,-60.66 120.45,-46.36 96.02,-35.88"/>
<polygon fill="#63b8ff" stroke="#63b8ff" points="178.97,-75.28 189.54,-76 181.73,-68.84 178.97,-75.28"/>
</g>
<!-- Node3 -->
<g id="node3" class="node">
<title>Node3</title>
<g id="a_node3"><a xlink:href="handlermanager_8cpp.html" target="_top" xlink:title=" ">
<polygon fill="white" stroke="#666666" points="306,-35.5 143,-35.5 143,-5.5 306,-5.5 306,-35.5"/>
<text text-anchor="start" x="151" y="-23.5" font-family="Helvetica,sans-Serif" font-size="10.00">plugins/behavior/handler</text>
<text text-anchor="middle" x="224.5" y="-12.5" font-family="Helvetica,sans-Serif" font-size="10.00">/src/Madgine/handlermanager.cpp</text>
</a>
</g>
</g>
<!-- Node1&#45;&gt;Node3 -->
<g id="edge2" class="edge">
<title>Node1&#45;&gt;Node3</title>
<path fill="none" stroke="#63b8ff" d="M224.5,-65.26C224.5,-55.33 224.5,-44.36 224.5,-35.88"/>
<polygon fill="#63b8ff" stroke="#63b8ff" points="221,-65.09 224.5,-75.09 228,-65.09 221,-65.09"/>
</g>
<!-- Node4 -->
<g id="node4" class="node">
<title>Node4</title>
<g id="a_node4"><a xlink:href="widgethandler_8cpp.html" target="_top" xlink:title=" ">
<polygon fill="white" stroke="#666666" points="452.5,-41 324.5,-41 324.5,0 452.5,0 452.5,-41"/>
<text text-anchor="start" x="332.5" y="-29" font-family="Helvetica,sans-Serif" font-size="10.00">plugins/misc/widgets</text>
<text text-anchor="start" x="332.5" y="-18" font-family="Helvetica,sans-Serif" font-size="10.00">/handler/Madgine/widgets</text>
<text text-anchor="middle" x="388.5" y="-7" font-family="Helvetica,sans-Serif" font-size="10.00">/widgethandler.cpp</text>
</a>
</g>
</g>
<!-- Node1&#45;&gt;Node4 -->
<g id="edge3" class="edge">
<title>Node1&#45;&gt;Node4</title>
<path fill="none" stroke="#63b8ff" d="M269.08,-72.11C291.52,-62.6 318.73,-51.07 341.5,-41.42"/>
<polygon fill="#63b8ff" stroke="#63b8ff" points="267.72,-68.88 259.87,-76.01 270.45,-75.33 267.72,-68.88"/>
</g>
</g>
</svg>
