<?xml version="1.0" encoding="UTF-8" standalone="no"?>
<!DOCTYPE svg PUBLIC "-//W3C//DTD SVG 1.1//EN"
 "http://www.w3.org/Graphics/SVG/1.1/DTD/svg11.dtd">
<!-- Generated by graphviz version 7.0.5 (20221223.1930)
 -->
<!-- Title: src/Modules/debug/history.h Pages: 1 -->
<svg width="4154pt" height="357pt"
 viewBox="0.00 0.00 4153.50 357.00" xmlns="http://www.w3.org/2000/svg" xmlns:xlink="http://www.w3.org/1999/xlink">
<g id="graph0" class="graph" transform="scale(1 1) rotate(0) translate(4 353)">
<title>src/Modules/debug/history.h</title>
<!-- Node1 -->
<g id="node1" class="node">
<title>Node1</title>
<g id="a_node1"><a xlink:title=" ">
<polygon fill="#999999" stroke="#666666" points="2526.5,-349 2388.5,-349 2388.5,-330 2526.5,-330 2526.5,-349"/>
<text text-anchor="middle" x="2457.5" y="-337" font-family="Helvetica,sans-Serif" font-size="10.00">src/Modules/debug/history.h</text>
</a>
</g>
</g>
<!-- Node2 -->
<g id="node2" class="node">
<title>Node2</title>
<g id="a_node2"><a xlink:href="processstats_8h.html" target="_top" xlink:title=" ">
<polygon fill="white" stroke="#666666" points="2523,-294 2392,-294 2392,-264 2523,-264 2523,-294"/>
<text text-anchor="start" x="2400" y="-282" font-family="Helvetica,sans-Serif" font-size="10.00">src/Modules/debug/profiler</text>
<text text-anchor="middle" x="2457.5" y="-271" font-family="Helvetica,sans-Serif" font-size="10.00">/processstats.h</text>
</a>
</g>
</g>
<!-- Node1&#45;&gt;Node2 -->
<g id="edge1" class="edge">
<title>Node1&#45;&gt;Node2</title>
<path fill="none" stroke="#63b8ff" d="M2457.5,-318.51C2457.5,-310.49 2457.5,-301.43 2457.5,-294.11"/>
<polygon fill="#63b8ff" stroke="#63b8ff" points="2454,-318.35 2457.5,-328.35 2461,-318.35 2454,-318.35"/>
</g>
<!-- Node3 -->
<g id="node3" class="node">
<title>Node3</title>
<g id="a_node3"><a xlink:href="processstats_8cpp.html" target="_top" xlink:title=" ">
<polygon fill="white" stroke="#666666" points="2374,-228 2243,-228 2243,-198 2374,-198 2374,-228"/>
<text text-anchor="start" x="2251" y="-216" font-family="Helvetica,sans-Serif" font-size="10.00">src/Modules/debug/profiler</text>
<text text-anchor="middle" x="2308.5" y="-205" font-family="Helvetica,sans-Serif" font-size="10.00">/processstats.cpp</text>
</a>
</g>
</g>
<!-- Node2&#45;&gt;Node3 -->
<g id="edge2" class="edge">
<title>Node2&#45;&gt;Node3</title>
<path fill="none" stroke="#63b8ff" d="M2413.59,-259.14C2390.73,-249.32 2363.22,-237.51 2342.08,-228.43"/>
<polygon fill="#63b8ff" stroke="#63b8ff" points="2412.1,-262.31 2422.67,-263.04 2414.86,-255.88 2412.1,-262.31"/>
</g>
<!-- Node4 -->
<g id="node4" class="node">
<title>Node4</title>
<g id="a_node4"><a xlink:href="profilerthread_8h.html" target="_top" xlink:title=" ">
<polygon fill="white" stroke="#666666" points="2523,-228 2392,-228 2392,-198 2523,-198 2523,-228"/>
<text text-anchor="start" x="2400" y="-216" font-family="Helvetica,sans-Serif" font-size="10.00">src/Modules/debug/profiler</text>
<text text-anchor="middle" x="2457.5" y="-205" font-family="Helvetica,sans-Serif" font-size="10.00">/profilerthread.h</text>
</a>
</g>
</g>
<!-- Node2&#45;&gt;Node4 -->
<g id="edge3" class="edge">
<title>Node2&#45;&gt;Node4</title>
<path fill="none" stroke="#63b8ff" d="M2457.5,-252.39C2457.5,-244.13 2457.5,-235.28 2457.5,-228.16"/>
<polygon fill="#63b8ff" stroke="#63b8ff" points="2454,-252.28 2457.5,-262.28 2461,-252.28 2454,-252.28"/>
</g>
<!-- Node30 -->
<g id="node30" class="node">
<title>Node30</title>
<g id="a_node30"><a xlink:href="staticprocess_8h.html" target="_top" xlink:title=" ">
<polygon fill="white" stroke="#666666" points="2672,-228 2541,-228 2541,-198 2672,-198 2672,-228"/>
<text text-anchor="start" x="2549" y="-216" font-family="Helvetica,sans-Serif" font-size="10.00">src/Modules/debug/profiler</text>
<text text-anchor="middle" x="2606.5" y="-205" font-family="Helvetica,sans-Serif" font-size="10.00">/staticprocess.h</text>
</a>
</g>
</g>
<!-- Node2&#45;&gt;Node30 -->
<g id="edge31" class="edge">
<title>Node2&#45;&gt;Node30</title>
<path fill="none" stroke="#63b8ff" d="M2501.41,-259.14C2524.27,-249.32 2551.78,-237.51 2572.92,-228.43"/>
<polygon fill="#63b8ff" stroke="#63b8ff" points="2500.14,-255.88 2492.33,-263.04 2502.9,-262.31 2500.14,-255.88"/>
</g>
<!-- Node5 -->
<g id="node5" class="node">
<title>Node5</title>
<g id="a_node5"><a xlink:href="directx12commandallocator_8h.html" target="_top" xlink:title=" ">
<polygon fill="white" stroke="#666666" points="2224.5,-162 2000.5,-162 2000.5,-132 2224.5,-132 2224.5,-162"/>
<text text-anchor="start" x="2008.5" y="-150" font-family="Helvetica,sans-Serif" font-size="10.00">plugins/renderer/directx12</text>
<text text-anchor="middle" x="2112.5" y="-139" font-family="Helvetica,sans-Serif" font-size="10.00">/src/DirectX12/util/directx12commandallocator.h</text>
</a>
</g>
</g>
<!-- Node4&#45;&gt;Node5 -->
<g id="edge4" class="edge">
<title>Node4&#45;&gt;Node5</title>
<path fill="none" stroke="#63b8ff" d="M2380.43,-197.62C2310.55,-184.63 2241.94,-171.93 2190.78,-162.47"/>
<polygon fill="#63b8ff" stroke="#63b8ff" points="2379.69,-201.04 2390.16,-199.43 2380.97,-194.16 2379.69,-201.04"/>
</g>
<!-- Node27 -->
<g id="node27" class="node">
<title>Node27</title>
<g id="a_node27"><a xlink:href="profiler_8cpp.html" target="_top" xlink:title=" ">
<polygon fill="white" stroke="#666666" points="2374,-162 2243,-162 2243,-132 2374,-132 2374,-162"/>
<text text-anchor="start" x="2251" y="-150" font-family="Helvetica,sans-Serif" font-size="10.00">src/Modules/debug/profiler</text>
<text text-anchor="middle" x="2308.5" y="-139" font-family="Helvetica,sans-Serif" font-size="10.00">/profiler.cpp</text>
</a>
</g>
</g>
<!-- Node4&#45;&gt;Node27 -->
<g id="edge28" class="edge">
<title>Node4&#45;&gt;Node27</title>
<path fill="none" stroke="#63b8ff" d="M2413.59,-193.14C2390.73,-183.32 2363.22,-171.51 2342.08,-162.43"/>
<polygon fill="#63b8ff" stroke="#63b8ff" points="2412.1,-196.31 2422.67,-197.04 2414.86,-189.88 2412.1,-196.31"/>
</g>
<!-- Node28 -->
<g id="node28" class="node">
<title>Node28</title>
<g id="a_node28"><a xlink:href="profilerthread_8cpp.html" target="_top" xlink:title=" ">
<polygon fill="white" stroke="#666666" points="2523,-162 2392,-162 2392,-132 2523,-132 2523,-162"/>
<text text-anchor="start" x="2400" y="-150" font-family="Helvetica,sans-Serif" font-size="10.00">src/Modules/debug/profiler</text>
<text text-anchor="middle" x="2457.5" y="-139" font-family="Helvetica,sans-Serif" font-size="10.00">/profilerthread.cpp</text>
</a>
</g>
</g>
<!-- Node4&#45;&gt;Node28 -->
<g id="edge29" class="edge">
<title>Node4&#45;&gt;Node28</title>
<path fill="none" stroke="#63b8ff" d="M2457.5,-186.39C2457.5,-178.13 2457.5,-169.28 2457.5,-162.16"/>
<polygon fill="#63b8ff" stroke="#63b8ff" points="2454,-186.28 2457.5,-196.28 2461,-186.28 2454,-186.28"/>
</g>
<!-- Node29 -->
<g id="node29" class="node">
<title>Node29</title>
<g id="a_node29"><a xlink:href="staticprocess_8cpp.html" target="_top" xlink:title=" ">
<polygon fill="white" stroke="#666666" points="2672,-162 2541,-162 2541,-132 2672,-132 2672,-162"/>
<text text-anchor="start" x="2549" y="-150" font-family="Helvetica,sans-Serif" font-size="10.00">src/Modules/debug/profiler</text>
<text text-anchor="middle" x="2606.5" y="-139" font-family="Helvetica,sans-Serif" font-size="10.00">/staticprocess.cpp</text>
</a>
</g>
</g>
<!-- Node4&#45;&gt;Node29 -->
<g id="edge30" class="edge">
<title>Node4&#45;&gt;Node29</title>
<path fill="none" stroke="#63b8ff" d="M2501.41,-193.14C2524.27,-183.32 2551.78,-171.51 2572.92,-162.43"/>
<polygon fill="#63b8ff" stroke="#63b8ff" points="2500.14,-189.88 2492.33,-197.04 2502.9,-196.31 2500.14,-189.88"/>
</g>
<!-- Node6 -->
<g id="node6" class="node">
<title>Node6</title>
<g id="a_node6"><a xlink:href="directx12rendercontext_8h.html" target="_top" xlink:title=" ">
<polygon fill="white" stroke="#666666" points="2145,-96 1958,-96 1958,-66 2145,-66 2145,-96"/>
<text text-anchor="start" x="1966" y="-84" font-family="Helvetica,sans-Serif" font-size="10.00">plugins/renderer/directx12</text>
<text text-anchor="middle" x="2051.5" y="-73" font-family="Helvetica,sans-Serif" font-size="10.00">/src/DirectX12/directx12rendercontext.h</text>
</a>
</g>
</g>
<!-- Node5&#45;&gt;Node6 -->
<g id="edge5" class="edge">
<title>Node5&#45;&gt;Node6</title>
<path fill="none" stroke="#63b8ff" d="M2091.08,-123.53C2082.41,-114.43 2072.65,-104.19 2065,-96.16"/>
<polygon fill="#63b8ff" stroke="#63b8ff" points="2088.48,-125.88 2097.92,-130.7 2093.55,-121.05 2088.48,-125.88"/>
</g>
<!-- Node13 -->
<g id="node13" class="node">
<title>Node13</title>
<g id="a_node13"><a xlink:href="directx12renderwindow_8cpp.html" target="_top" xlink:title=" ">
<polygon fill="white" stroke="#666666" points="199,-30 0,-30 0,0 199,0 199,-30"/>
<text text-anchor="start" x="8" y="-18" font-family="Helvetica,sans-Serif" font-size="10.00">plugins/renderer/directx12</text>
<text text-anchor="middle" x="99.5" y="-7" font-family="Helvetica,sans-Serif" font-size="10.00">/src/DirectX12/directx12renderwindow.cpp</text>
</a>
</g>
</g>
<!-- Node5&#45;&gt;Node13 -->
<g id="edge25" class="edge">
<title>Node5&#45;&gt;Node13</title>
<path fill="none" stroke="#63b8ff" d="M1988.63,-141.38C1684.69,-129.41 877.96,-93.79 207.5,-30 204.77,-29.74 202,-29.47 199.21,-29.18"/>
<polygon fill="#63b8ff" stroke="#63b8ff" points="1988.46,-144.88 1998.59,-141.77 1988.74,-137.88 1988.46,-144.88"/>
</g>
<!-- Node17 -->
<g id="node17" class="node">
<title>Node17</title>
<g id="a_node17"><a xlink:href="directx12commandallocator_8cpp.html" target="_top" xlink:title=" ">
<polygon fill="white" stroke="#666666" points="4145.5,-30 3911.5,-30 3911.5,0 4145.5,0 4145.5,-30"/>
<text text-anchor="start" x="3919.5" y="-18" font-family="Helvetica,sans-Serif" font-size="10.00">plugins/renderer/directx12</text>
<text text-anchor="middle" x="4028.5" y="-7" font-family="Helvetica,sans-Serif" font-size="10.00">/src/DirectX12/util/directx12commandallocator.cpp</text>
</a>
</g>
</g>
<!-- Node5&#45;&gt;Node17 -->
<g id="edge26" class="edge">
<title>Node5&#45;&gt;Node17</title>
<path fill="none" stroke="#63b8ff" d="M2131.98,-122.99C2150.67,-101.6 2178.11,-72.14 2192.5,-66 2279.9,-28.72 3807.68,-36.25 3902.5,-30 3905.36,-29.81 3908.25,-29.61 3911.16,-29.39"/>
<polygon fill="#63b8ff" stroke="#63b8ff" points="2129.44,-120.57 2125.56,-130.42 2134.74,-125.14 2129.44,-120.57"/>
</g>
<!-- Node26 -->
<g id="node26" class="node">
<title>Node26</title>
<g id="a_node26"><a xlink:href="directx12commandlist_8cpp.html" target="_top" xlink:title=" ">
<polygon fill="white" stroke="#666666" points="2411.5,-96 2201.5,-96 2201.5,-66 2411.5,-66 2411.5,-96"/>
<text text-anchor="start" x="2209.5" y="-84" font-family="Helvetica,sans-Serif" font-size="10.00">plugins/renderer/directx12</text>
<text text-anchor="middle" x="2306.5" y="-73" font-family="Helvetica,sans-Serif" font-size="10.00">/src/DirectX12/util/directx12commandlist.cpp</text>
</a>
</g>
</g>
<!-- Node5&#45;&gt;Node26 -->
<g id="edge27" class="edge">
<title>Node5&#45;&gt;Node26</title>
<path fill="none" stroke="#63b8ff" d="M2166.86,-128.07C2197.15,-118.07 2234.38,-105.79 2262.77,-96.43"/>
<polygon fill="#63b8ff" stroke="#63b8ff" points="2165.87,-124.71 2157.47,-131.16 2168.07,-131.35 2165.87,-124.71"/>
</g>
<!-- Node7 -->
<g id="node7" class="node">
<title>Node7</title>
<g id="a_node7"><a xlink:href="directx12meshloader_8cpp.html" target="_top" xlink:title=" ">
<polygon fill="white" stroke="#666666" points="406,-30 217,-30 217,0 406,0 406,-30"/>
<text text-anchor="start" x="225" y="-18" font-family="Helvetica,sans-Serif" font-size="10.00">plugins/renderer/directx12</text>
<text text-anchor="middle" x="311.5" y="-7" font-family="Helvetica,sans-Serif" font-size="10.00">/src/DirectX12/directx12meshloader.cpp</text>
</a>
</g>
</g>
<!-- Node6&#45;&gt;Node7 -->
<g id="edge6" class="edge">
<title>Node6&#45;&gt;Node7</title>
<path fill="none" stroke="#63b8ff" d="M1946.4,-80.54C1686.34,-81.07 992.09,-77.49 415.5,-30 412.5,-29.75 409.46,-29.48 406.39,-29.19"/>
<polygon fill="#63b8ff" stroke="#63b8ff" points="1946.2,-84.04 1956.19,-80.52 1946.18,-77.04 1946.2,-84.04"/>
</g>
<!-- Node8 -->
<g id="node8" class="node">
<title>Node8</title>
<g id="a_node8"><a xlink:href="directx12pipelineloader_8cpp.html" target="_top" xlink:title=" ">
<polygon fill="white" stroke="#666666" points="622.5,-30 424.5,-30 424.5,0 622.5,0 622.5,-30"/>
<text text-anchor="start" x="432.5" y="-18" font-family="Helvetica,sans-Serif" font-size="10.00">plugins/renderer/directx12</text>
<text text-anchor="middle" x="523.5" y="-7" font-family="Helvetica,sans-Serif" font-size="10.00">/src/DirectX12/directx12pipelineloader.cpp</text>
</a>
</g>
</g>
<!-- Node6&#45;&gt;Node8 -->
<g id="edge7" class="edge">
<title>Node6&#45;&gt;Node8</title>
<path fill="none" stroke="#63b8ff" d="M1946.58,-79.67C1710.99,-78.18 1122.23,-70.36 631.5,-30 628.67,-29.77 625.81,-29.51 622.92,-29.24"/>
<polygon fill="#63b8ff" stroke="#63b8ff" points="1946.33,-83.16 1956.35,-79.72 1946.37,-76.16 1946.33,-83.16"/>
</g>
<!-- Node9 -->
<g id="node9" class="node">
<title>Node9</title>
<g id="a_node9"><a xlink:href="directx12pixelshaderloader_8cpp.html" target="_top" xlink:title=" ">
<polygon fill="white" stroke="#666666" points="854.5,-30 640.5,-30 640.5,0 854.5,0 854.5,-30"/>
<text text-anchor="start" x="648.5" y="-18" font-family="Helvetica,sans-Serif" font-size="10.00">plugins/renderer/directx12</text>
<text text-anchor="middle" x="747.5" y="-7" font-family="Helvetica,sans-Serif" font-size="10.00">/src/DirectX12/directx12pixelshaderloader.cpp</text>
</a>
</g>
</g>
<!-- Node6&#45;&gt;Node9 -->
<g id="edge8" class="edge">
<title>Node6&#45;&gt;Node9</title>
<path fill="none" stroke="#63b8ff" d="M1946.31,-78.33C1738.88,-74.42 1262.58,-62.43 863.5,-30 860.67,-29.77 857.8,-29.52 854.91,-29.26"/>
<polygon fill="#63b8ff" stroke="#63b8ff" points="1946.21,-81.83 1956.27,-78.51 1946.34,-74.83 1946.21,-81.83"/>
</g>
<!-- Node10 -->
<g id="node10" class="node">
<title>Node10</title>
<g id="a_node10"><a xlink:href="directx12rendercontext_8cpp.html" target="_top" xlink:title=" ">
<polygon fill="white" stroke="#666666" points="1070,-30 873,-30 873,0 1070,0 1070,-30"/>
<text text-anchor="start" x="881" y="-18" font-family="Helvetica,sans-Serif" font-size="10.00">plugins/renderer/directx12</text>
<text text-anchor="middle" x="971.5" y="-7" font-family="Helvetica,sans-Serif" font-size="10.00">/src/DirectX12/directx12rendercontext.cpp</text>
</a>
</g>
</g>
<!-- Node6&#45;&gt;Node10 -->
<g id="edge9" class="edge">
<title>Node6&#45;&gt;Node10</title>
<path fill="none" stroke="#63b8ff" d="M1946.25,-77.31C1767.56,-72.13 1393.53,-58.66 1078.5,-30 1075.79,-29.75 1073.05,-29.49 1070.29,-29.21"/>
<polygon fill="#63b8ff" stroke="#63b8ff" points="1946.13,-80.81 1956.23,-77.59 1946.33,-73.81 1946.13,-80.81"/>
</g>
<!-- Node11 -->
<g id="node11" class="node">
<title>Node11</title>
<g id="a_node11"><a xlink:href="directx12rendertarget_8cpp.html" target="_top" xlink:title=" ">
<polygon fill="white" stroke="#666666" points="1279,-30 1088,-30 1088,0 1279,0 1279,-30"/>
<text text-anchor="start" x="1096" y="-18" font-family="Helvetica,sans-Serif" font-size="10.00">plugins/renderer/directx12</text>
<text text-anchor="middle" x="1183.5" y="-7" font-family="Helvetica,sans-Serif" font-size="10.00">/src/DirectX12/directx12rendertarget.cpp</text>
</a>
</g>
</g>
<!-- Node6&#45;&gt;Node11 -->
<g id="edge10" class="edge">
<title>Node6&#45;&gt;Node11</title>
<path fill="none" stroke="#63b8ff" d="M1946.27,-75.4C1798.77,-68.42 1522.27,-53.46 1287.5,-30 1284.78,-29.73 1282.02,-29.44 1279.24,-29.14"/>
<polygon fill="#63b8ff" stroke="#63b8ff" points="1945.87,-78.88 1956.02,-75.85 1946.2,-71.89 1945.87,-78.88"/>
</g>
<!-- Node12 -->
<g id="node12" class="node">
<title>Node12</title>
<g id="a_node12"><a xlink:href="directx12rendertexture_8cpp.html" target="_top" xlink:title=" ">
<polygon fill="white" stroke="#666666" points="1492,-30 1297,-30 1297,0 1492,0 1492,-30"/>
<text text-anchor="start" x="1305" y="-18" font-family="Helvetica,sans-Serif" font-size="10.00">plugins/renderer/directx12</text>
<text text-anchor="middle" x="1394.5" y="-7" font-family="Helvetica,sans-Serif" font-size="10.00">/src/DirectX12/directx12rendertexture.cpp</text>
</a>
</g>
</g>
<!-- Node6&#45;&gt;Node12 -->
<g id="edge11" class="edge">
<title>Node6&#45;&gt;Node12</title>
<path fill="none" stroke="#63b8ff" d="M1946.8,-71.72C1836.06,-62.67 1656.28,-47.15 1501.5,-30 1498.52,-29.67 1495.5,-29.33 1492.44,-28.97"/>
<polygon fill="#63b8ff" stroke="#63b8ff" points="1946.2,-75.18 1956.45,-72.5 1946.77,-68.2 1946.2,-75.18"/>
</g>
<!-- Node6&#45;&gt;Node13 -->
<g id="edge12" class="edge">
<title>Node6&#45;&gt;Node13</title>
<path fill="none" stroke="#63b8ff" d="M1946.25,-78.56C1607.71,-73.69 549.06,-56.7 207.5,-30 204.86,-29.79 202.19,-29.57 199.49,-29.33"/>
<polygon fill="#63b8ff" stroke="#63b8ff" points="1946.19,-82.06 1956.23,-78.7 1946.29,-75.06 1946.19,-82.06"/>
</g>
<!-- Node14 -->
<g id="node14" class="node">
<title>Node14</title>
<g id="a_node14"><a xlink:href="directx12textureloader_8cpp.html" target="_top" xlink:title=" ">
<polygon fill="white" stroke="#666666" points="1704.5,-30 1510.5,-30 1510.5,0 1704.5,0 1704.5,-30"/>
<text text-anchor="start" x="1518.5" y="-18" font-family="Helvetica,sans-Serif" font-size="10.00">plugins/renderer/directx12</text>
<text text-anchor="middle" x="1607.5" y="-7" font-family="Helvetica,sans-Serif" font-size="10.00">/src/DirectX12/directx12textureloader.cpp</text>
</a>
</g>
</g>
<!-- Node6&#45;&gt;Node14 -->
<g id="edge13" class="edge">
<title>Node6&#45;&gt;Node14</title>
<path fill="none" stroke="#63b8ff" d="M1946.52,-64.87C1873.27,-54.31 1776.2,-40.32 1704.71,-30.01"/>
<polygon fill="#63b8ff" stroke="#63b8ff" points="1945.72,-68.29 1956.11,-66.25 1946.71,-61.36 1945.72,-68.29"/>
</g>
<!-- Node15 -->
<g id="node15" class="node">
<title>Node15</title>
<g id="a_node15"><a xlink:href="directx12vertexshaderloader_8cpp.html" target="_top" xlink:title=" ">
<polygon fill="white" stroke="#666666" points="1944,-30 1723,-30 1723,0 1944,0 1944,-30"/>
<text text-anchor="start" x="1731" y="-18" font-family="Helvetica,sans-Serif" font-size="10.00">plugins/renderer/directx12</text>
<text text-anchor="middle" x="1833.5" y="-7" font-family="Helvetica,sans-Serif" font-size="10.00">/src/DirectX12/directx12vertexshaderloader.cpp</text>
</a>
</g>
</g>
<!-- Node6&#45;&gt;Node15 -->
<g id="edge14" class="edge">
<title>Node6&#45;&gt;Node15</title>
<path fill="none" stroke="#63b8ff" d="M1991.49,-62.38C1957.21,-52.32 1914.77,-39.86 1882.52,-30.39"/>
<polygon fill="#63b8ff" stroke="#63b8ff" points="1990.27,-65.67 2000.85,-65.13 1992.24,-58.96 1990.27,-65.67"/>
</g>
<!-- Node16 -->
<g id="node16" class="node">
<title>Node16</title>
<g id="a_node16"><a xlink:href="directx12buffer_8cpp.html" target="_top" xlink:title=" ">
<polygon fill="white" stroke="#666666" points="2141,-30 1962,-30 1962,0 2141,0 2141,-30"/>
<text text-anchor="start" x="1970" y="-18" font-family="Helvetica,sans-Serif" font-size="10.00">plugins/renderer/directx12</text>
<text text-anchor="middle" x="2051.5" y="-7" font-family="Helvetica,sans-Serif" font-size="10.00">/src/DirectX12/util/directx12buffer.cpp</text>
</a>
</g>
</g>
<!-- Node6&#45;&gt;Node16 -->
<g id="edge15" class="edge">
<title>Node6&#45;&gt;Node16</title>
<path fill="none" stroke="#63b8ff" d="M2051.5,-54.39C2051.5,-46.13 2051.5,-37.28 2051.5,-30.16"/>
<polygon fill="#63b8ff" stroke="#63b8ff" points="2048,-54.28 2051.5,-64.28 2055,-54.28 2048,-54.28"/>
</g>
<!-- Node6&#45;&gt;Node17 -->
<g id="edge16" class="edge">
<title>Node6&#45;&gt;Node17</title>
<path fill="none" stroke="#63b8ff" d="M2156.45,-66.24C2157.47,-66.15 2158.49,-66.08 2159.5,-66 2932.17,-8.11 3129.34,-80.83 3902.5,-30 3905.36,-29.81 3908.25,-29.61 3911.16,-29.39"/>
<polygon fill="#63b8ff" stroke="#63b8ff" points="2156.55,-62.71 2146.9,-67.08 2157.17,-69.69 2156.55,-62.71"/>
</g>
<!-- Node18 -->
<g id="node18" class="node">
<title>Node18</title>
<g id="a_node18"><a xlink:href="directx12descriptorheap_8cpp.html" target="_top" xlink:title=" ">
<polygon fill="white" stroke="#666666" points="2377.5,-30 2159.5,-30 2159.5,0 2377.5,0 2377.5,-30"/>
<text text-anchor="start" x="2167.5" y="-18" font-family="Helvetica,sans-Serif" font-size="10.00">plugins/renderer/directx12</text>
<text text-anchor="middle" x="2268.5" y="-7" font-family="Helvetica,sans-Serif" font-size="10.00">/src/DirectX12/util/directx12descriptorheap.cpp</text>
</a>
</g>
</g>
<!-- Node6&#45;&gt;Node18 -->
<g id="edge17" class="edge">
<title>Node6&#45;&gt;Node18</title>
<path fill="none" stroke="#63b8ff" d="M2111.24,-62.38C2145.36,-52.32 2187.6,-39.86 2219.71,-30.39"/>
<polygon fill="#63b8ff" stroke="#63b8ff" points="2110.52,-58.94 2101.92,-65.13 2112.5,-65.66 2110.52,-58.94"/>
</g>
<!-- Node19 -->
<g id="node19" class="node">
<title>Node19</title>
<g id="a_node19"><a xlink:href="directx12heapallocator_8cpp.html" target="_top" xlink:title=" ">
<polygon fill="white" stroke="#666666" points="2607.5,-30 2395.5,-30 2395.5,0 2607.5,0 2607.5,-30"/>
<text text-anchor="start" x="2403.5" y="-18" font-family="Helvetica,sans-Serif" font-size="10.00">plugins/renderer/directx12</text>
<text text-anchor="middle" x="2501.5" y="-7" font-family="Helvetica,sans-Serif" font-size="10.00">/src/DirectX12/util/directx12heapallocator.cpp</text>
</a>
</g>
</g>
<!-- Node6&#45;&gt;Node19 -->
<g id="edge18" class="edge">
<title>Node6&#45;&gt;Node19</title>
<path fill="none" stroke="#63b8ff" d="M2156.38,-65.08C2229.66,-54.66 2326.99,-40.82 2399.61,-30.49"/>
<polygon fill="#63b8ff" stroke="#63b8ff" points="2156.19,-61.58 2146.79,-66.45 2157.18,-68.51 2156.19,-61.58"/>
</g>
<!-- Node20 -->
<g id="node20" class="node">
<title>Node20</title>
<g id="a_node20"><a xlink:href="directx12persistentbuffer_8cpp.html" target="_top" xlink:title=" ">
<polygon fill="white" stroke="#666666" points="2847,-30 2626,-30 2626,0 2847,0 2847,-30"/>
<text text-anchor="start" x="2634" y="-18" font-family="Helvetica,sans-Serif" font-size="10.00">plugins/renderer/directx12</text>
<text text-anchor="middle" x="2736.5" y="-7" font-family="Helvetica,sans-Serif" font-size="10.00">/src/DirectX12/util/directx12persistentbuffer.cpp</text>
</a>
</g>
</g>
<!-- Node6&#45;&gt;Node20 -->
<g id="edge19" class="edge">
<title>Node6&#45;&gt;Node20</title>
<path fill="none" stroke="#63b8ff" d="M2156.46,-66.32C2157.48,-66.21 2158.49,-66.1 2159.5,-66 2362.14,-44.9 2413.72,-49.81 2616.5,-30 2619.53,-29.7 2622.6,-29.4 2625.69,-29.08"/>
<polygon fill="#63b8ff" stroke="#63b8ff" points="2156.48,-62.8 2146.92,-67.37 2157.25,-69.75 2156.48,-62.8"/>
</g>
<!-- Node21 -->
<g id="node21" class="node">
<title>Node21</title>
<g id="a_node21"><a xlink:href="directx12pipeline_8cpp.html" target="_top" xlink:title=" ">
<polygon fill="white" stroke="#666666" points="3053.5,-30 2865.5,-30 2865.5,0 3053.5,0 3053.5,-30"/>
<text text-anchor="start" x="2873.5" y="-18" font-family="Helvetica,sans-Serif" font-size="10.00">plugins/renderer/directx12</text>
<text text-anchor="middle" x="2959.5" y="-7" font-family="Helvetica,sans-Serif" font-size="10.00">/src/DirectX12/util/directx12pipeline.cpp</text>
</a>
</g>
</g>
<!-- Node6&#45;&gt;Node21 -->
<g id="edge20" class="edge">
<title>Node6&#45;&gt;Node21</title>
<path fill="none" stroke="#63b8ff" d="M2156.46,-66.28C2157.48,-66.18 2158.49,-66.09 2159.5,-66 2468.43,-38.04 2547.66,-58.91 2856.5,-30 2859.37,-29.73 2862.29,-29.44 2865.24,-29.13"/>
<polygon fill="#63b8ff" stroke="#63b8ff" points="2156.51,-62.76 2146.91,-67.23 2157.21,-69.72 2156.51,-62.76"/>
</g>
<!-- Node22 -->
<g id="node22" class="node">
<title>Node22</title>
<g id="a_node22"><a xlink:href="directx12pipelineinstance_8cpp.html" target="_top" xlink:title=" ">
<polygon fill="white" stroke="#666666" points="3295.5,-30 3071.5,-30 3071.5,0 3295.5,0 3295.5,-30"/>
<text text-anchor="start" x="3079.5" y="-18" font-family="Helvetica,sans-Serif" font-size="10.00">plugins/renderer/directx12</text>
<text text-anchor="middle" x="3183.5" y="-7" font-family="Helvetica,sans-Serif" font-size="10.00">/src/DirectX12/util/directx12pipelineinstance.cpp</text>
</a>
</g>
</g>
<!-- Node6&#45;&gt;Node22 -->
<g id="edge21" class="edge">
<title>Node6&#45;&gt;Node22</title>
<path fill="none" stroke="#63b8ff" d="M2156.46,-66.26C2157.48,-66.17 2158.49,-66.09 2159.5,-66 2559.72,-32.15 2662.05,-61.1 3062.5,-30 3065.35,-29.78 3068.23,-29.54 3071.14,-29.29"/>
<polygon fill="#63b8ff" stroke="#63b8ff" points="2156.53,-62.74 2146.9,-67.17 2157.19,-69.71 2156.53,-62.74"/>
</g>
<!-- Node23 -->
<g id="node23" class="node">
<title>Node23</title>
<g id="a_node23"><a xlink:href="directx12queryheap_8cpp.html" target="_top" xlink:title=" ">
<polygon fill="white" stroke="#666666" points="3513,-30 3314,-30 3314,0 3513,0 3513,-30"/>
<text text-anchor="start" x="3322" y="-18" font-family="Helvetica,sans-Serif" font-size="10.00">plugins/renderer/directx12</text>
<text text-anchor="middle" x="3413.5" y="-7" font-family="Helvetica,sans-Serif" font-size="10.00">/src/DirectX12/util/directx12queryheap.cpp</text>
</a>
</g>
</g>
<!-- Node6&#45;&gt;Node23 -->
<g id="edge22" class="edge">
<title>Node6&#45;&gt;Node23</title>
<path fill="none" stroke="#63b8ff" d="M2156.46,-66.25C2157.47,-66.17 2158.49,-66.08 2159.5,-66 2667.01,-25.23 2796.97,-70.48 3304.5,-30 3307.54,-29.76 3310.63,-29.49 3313.75,-29.2"/>
<polygon fill="#63b8ff" stroke="#63b8ff" points="2156.54,-62.73 2146.9,-67.13 2157.18,-69.7 2156.54,-62.73"/>
</g>
<!-- Node24 -->
<g id="node24" class="node">
<title>Node24</title>
<g id="a_node24"><a xlink:href="directx12texture_8cpp.html" target="_top" xlink:title=" ">
<polygon fill="white" stroke="#666666" points="3715.5,-30 3531.5,-30 3531.5,0 3715.5,0 3715.5,-30"/>
<text text-anchor="start" x="3539.5" y="-18" font-family="Helvetica,sans-Serif" font-size="10.00">plugins/renderer/directx12</text>
<text text-anchor="middle" x="3623.5" y="-7" font-family="Helvetica,sans-Serif" font-size="10.00">/src/DirectX12/util/directx12texture.cpp</text>
</a>
</g>
</g>
<!-- Node6&#45;&gt;Node24 -->
<g id="edge23" class="edge">
<title>Node6&#45;&gt;Node24</title>
<path fill="none" stroke="#63b8ff" d="M2156.45,-66.24C2157.47,-66.16 2158.49,-66.08 2159.5,-66 2763.66,-18.99 2918.55,-79.68 3522.5,-30 3525.32,-29.77 3528.19,-29.51 3531.08,-29.23"/>
<polygon fill="#63b8ff" stroke="#63b8ff" points="2156.54,-62.72 2146.9,-67.11 2157.17,-69.69 2156.54,-62.72"/>
</g>
<!-- Node25 -->
<g id="node25" class="node">
<title>Node25</title>
<g id="a_node25"><a xlink:href="dx12dump_8cpp.html" target="_top" xlink:title=" ">
<polygon fill="white" stroke="#666666" points="3893.5,-30 3733.5,-30 3733.5,0 3893.5,0 3893.5,-30"/>
<text text-anchor="start" x="3741.5" y="-18" font-family="Helvetica,sans-Serif" font-size="10.00">plugins/renderer/directx12</text>
<text text-anchor="middle" x="3813.5" y="-7" font-family="Helvetica,sans-Serif" font-size="10.00">/src/DirectX12/util/dx12dump.cpp</text>
</a>
</g>
</g>
<!-- Node6&#45;&gt;Node25 -->
<g id="edge24" class="edge">
<title>Node6&#45;&gt;Node25</title>
<path fill="none" stroke="#63b8ff" d="M2156.45,-66.24C2157.47,-66.16 2158.49,-66.08 2159.5,-66 2853.23,-13.21 3031.55,-92.19 3724.5,-30 3727.3,-29.75 3730.15,-29.46 3733.03,-29.15"/>
<polygon fill="#63b8ff" stroke="#63b8ff" points="2156.55,-62.72 2146.9,-67.09 2157.17,-69.69 2156.55,-62.72"/>
</g>
<!-- Node30&#45;&gt;Node29 -->
<g id="edge32" class="edge">
<title>Node30&#45;&gt;Node29</title>
<path fill="none" stroke="#63b8ff" d="M2606.5,-186.39C2606.5,-178.13 2606.5,-169.28 2606.5,-162.16"/>
<polygon fill="#63b8ff" stroke="#63b8ff" points="2603,-186.28 2606.5,-196.28 2610,-186.28 2603,-186.28"/>
</g>
</g>
</svg>
