<?xml version="1.0" encoding="UTF-8" standalone="no"?>
<!DOCTYPE svg PUBLIC "-//W3C//DTD SVG 1.1//EN"
 "http://www.w3.org/Graphics/SVG/1.1/DTD/svg11.dtd">
<!-- Generated by graphviz version 7.0.5 (20221223.1930)
 -->
<!-- Title: plugins/resources/imageloader/Madgine/imageloaderforward.h Pages: 1 -->
<svg width="400pt" height="170pt"
 viewBox="0.00 0.00 400.00 170.00" xmlns="http://www.w3.org/2000/svg" xmlns:xlink="http://www.w3.org/1999/xlink">
<g id="graph0" class="graph" transform="scale(1 1) rotate(0) translate(4 166)">
<title>plugins/resources/imageloader/Madgine/imageloaderforward.h</title>
<!-- Node1 -->
<g id="node1" class="node">
<title>Node1</title>
<g id="a_node1"><a xlink:title=" ">
<polygon fill="#999999" stroke="#666666" points="272.5,-162 120.5,-162 120.5,-132 272.5,-132 272.5,-162"/>
<text text-anchor="start" x="128.5" y="-150" font-family="Helvetica,sans-Serif" font-size="10.00">plugins/resources/imageloader</text>
<text text-anchor="middle" x="196.5" y="-139" font-family="Helvetica,sans-Serif" font-size="10.00">/Madgine/imageloaderforward.h</text>
</a>
</g>
</g>
<!-- Node2 -->
<g id="node2" class="node">
<title>Node2</title>
<g id="a_node2"><a xlink:href="imageloaderlib_8h.html" target="_top" xlink:title=" ">
<polygon fill="white" stroke="#666666" points="271,-96 122,-96 122,-66 271,-66 271,-96"/>
<text text-anchor="start" x="130" y="-84" font-family="Helvetica,sans-Serif" font-size="10.00">plugins/resources/imageloader</text>
<text text-anchor="middle" x="196.5" y="-73" font-family="Helvetica,sans-Serif" font-size="10.00">/Madgine/imageloaderlib.h</text>
</a>
</g>
</g>
<!-- Node1&#45;&gt;Node2 -->
<g id="edge1" class="edge">
<title>Node1&#45;&gt;Node2</title>
<path fill="none" stroke="#63b8ff" d="M196.5,-120.39C196.5,-112.13 196.5,-103.28 196.5,-96.16"/>
<polygon fill="#63b8ff" stroke="#63b8ff" points="193,-120.28 196.5,-130.28 200,-120.28 193,-120.28"/>
</g>
<!-- Node3 -->
<g id="node3" class="node">
<title>Node3</title>
<g id="a_node3"><a xlink:href="directx12meshloader_8cpp.html" target="_top" xlink:title=" ">
<polygon fill="white" stroke="#666666" points="189,-30 0,-30 0,0 189,0 189,-30"/>
<text text-anchor="start" x="8" y="-18" font-family="Helvetica,sans-Serif" font-size="10.00">plugins/renderer/directx12</text>
<text text-anchor="middle" x="94.5" y="-7" font-family="Helvetica,sans-Serif" font-size="10.00">/src/DirectX12/directx12meshloader.cpp</text>
</a>
</g>
</g>
<!-- Node2&#45;&gt;Node3 -->
<g id="edge2" class="edge">
<title>Node2&#45;&gt;Node3</title>
<path fill="none" stroke="#63b8ff" d="M164.05,-59.64C148.84,-50.09 131.08,-38.95 117.31,-30.31"/>
<polygon fill="#63b8ff" stroke="#63b8ff" points="162,-62.48 172.33,-64.83 165.72,-56.55 162,-62.48"/>
</g>
<!-- Node4 -->
<g id="node4" class="node">
<title>Node4</title>
<g id="a_node4"><a xlink:href="imageloader_8cpp.html" target="_top" xlink:title=" ">
<polygon fill="white" stroke="#666666" points="392,-30 207,-30 207,0 392,0 392,-30"/>
<text text-anchor="start" x="215" y="-18" font-family="Helvetica,sans-Serif" font-size="10.00">plugins/resources/imageloader</text>
<text text-anchor="middle" x="299.5" y="-7" font-family="Helvetica,sans-Serif" font-size="10.00">/Madgine/imageloader/imageloader.cpp</text>
</a>
</g>
</g>
<!-- Node2&#45;&gt;Node4 -->
<g id="edge3" class="edge">
<title>Node2&#45;&gt;Node4</title>
<path fill="none" stroke="#63b8ff" d="M229.27,-59.64C244.63,-50.09 262.56,-38.95 276.46,-30.31"/>
<polygon fill="#63b8ff" stroke="#63b8ff" points="227.55,-56.59 220.9,-64.84 231.24,-62.53 227.55,-56.59"/>
</g>
</g>
</svg>
