<?xml version="1.0" encoding="UTF-8" standalone="no"?>
<!DOCTYPE svg PUBLIC "-//W3C//DTD SVG 1.1//EN"
 "http://www.w3.org/Graphics/SVG/1.1/DTD/svg11.dtd">
<!-- Generated by graphviz version 7.0.5 (20221223.1930)
 -->
<!-- Title: plugins/resources/imageloader/Madgine/imageloader/imagedata.h Pages: 1 -->
<svg width="238pt" height="203pt"
 viewBox="0.00 0.00 237.50 203.00" xmlns="http://www.w3.org/2000/svg" xmlns:xlink="http://www.w3.org/1999/xlink">
<g id="graph0" class="graph" transform="scale(1 1) rotate(0) translate(4 199)">
<title>plugins/resources/imageloader/Madgine/imageloader/imagedata.h</title>
<!-- Node1 -->
<g id="node1" class="node">
<title>Node1</title>
<g id="a_node1"><a xlink:title=" ">
<polygon fill="#999999" stroke="#666666" points="199.5,-195 32.5,-195 32.5,-165 199.5,-165 199.5,-195"/>
<text text-anchor="start" x="40.5" y="-183" font-family="Helvetica,sans-Serif" font-size="10.00">plugins/resources/imageloader</text>
<text text-anchor="middle" x="116" y="-172" font-family="Helvetica,sans-Serif" font-size="10.00">/Madgine/imageloader/imagedata.h</text>
</a>
</g>
</g>
<!-- Node2 -->
<g id="node2" class="node">
<title>Node2</title>
<g id="a_node2"><a xlink:href="vector2i_8h.html" target="_top" xlink:title=" ">
<polygon fill="white" stroke="#666666" points="108,-129 0,-129 0,-110 108,-110 108,-129"/>
<text text-anchor="middle" x="54" y="-117" font-family="Helvetica,sans-Serif" font-size="10.00">Meta/math/vector2i.h</text>
</a>
</g>
</g>
<!-- Node1&#45;&gt;Node2 -->
<g id="edge1" class="edge">
<title>Node1&#45;&gt;Node2</title>
<path fill="none" stroke="#63b8ff" d="M100.67,-164.54C91.85,-156.22 80.73,-145.72 71.56,-137.07"/>
<polygon fill="#63b8ff" stroke="#63b8ff" points="73.97,-134.53 64.3,-130.21 69.17,-139.62 73.97,-134.53"/>
</g>
<!-- Node3 -->
<g id="node3" class="node">
<title>Node3</title>
<g id="a_node3"><a xlink:href="bytebuffer_8h.html" target="_top" xlink:title=" ">
<polygon fill="white" stroke="#666666" points="229.5,-129 126.5,-129 126.5,-110 229.5,-110 229.5,-129"/>
<text text-anchor="middle" x="178" y="-117" font-family="Helvetica,sans-Serif" font-size="10.00">Generic/bytebuffer.h</text>
</a>
</g>
</g>
<!-- Node1&#45;&gt;Node3 -->
<g id="edge2" class="edge">
<title>Node1&#45;&gt;Node3</title>
<path fill="none" stroke="#63b8ff" d="M131.33,-164.54C140.15,-156.22 151.27,-145.72 160.44,-137.07"/>
<polygon fill="#63b8ff" stroke="#63b8ff" points="162.83,-139.62 167.7,-130.21 158.03,-134.53 162.83,-139.62"/>
</g>
<!-- Node4 -->
<g id="node4" class="node">
<title>Node4</title>
<g id="a_node4"><a xlink:href="any_8h.html" target="_top" xlink:title=" ">
<polygon fill="white" stroke="#666666" points="197.5,-74 158.5,-74 158.5,-55 197.5,-55 197.5,-74"/>
<text text-anchor="middle" x="178" y="-62" font-family="Helvetica,sans-Serif" font-size="10.00">any.h</text>
</a>
</g>
</g>
<!-- Node3&#45;&gt;Node4 -->
<g id="edge3" class="edge">
<title>Node3&#45;&gt;Node4</title>
<path fill="none" stroke="#63b8ff" d="M178,-109.75C178,-103.27 178,-94.16 178,-85.9"/>
<polygon fill="#63b8ff" stroke="#63b8ff" points="181.5,-85.96 178,-75.96 174.5,-85.96 181.5,-85.96"/>
</g>
<!-- Node5 -->
<g id="node5" class="node">
<title>Node5</title>
<g id="a_node5"><a xlink:href="inheritable_8h.html" target="_top" xlink:title=" ">
<polygon fill="white" stroke="#666666" points="212,-19 144,-19 144,0 212,0 212,-19"/>
<text text-anchor="middle" x="178" y="-7" font-family="Helvetica,sans-Serif" font-size="10.00">inheritable.h</text>
</a>
</g>
</g>
<!-- Node4&#45;&gt;Node5 -->
<g id="edge4" class="edge">
<title>Node4&#45;&gt;Node5</title>
<path fill="none" stroke="#63b8ff" d="M178,-54.75C178,-48.27 178,-39.16 178,-30.9"/>
<polygon fill="#63b8ff" stroke="#63b8ff" points="181.5,-30.96 178,-20.96 174.5,-30.96 181.5,-30.96"/>
</g>
</g>
</svg>
