<?xml version="1.0" encoding="UTF-8" standalone="no"?>
<!DOCTYPE svg PUBLIC "-//W3C//DTD SVG 1.1//EN"
 "http://www.w3.org/Graphics/SVG/1.1/DTD/svg11.dtd">
<!-- Generated by graphviz version 7.0.5 (20221223.1930)
 -->
<!-- Title: plugins/resources/imageloader/Madgine/imageloaderlib.h Pages: 1 -->
<svg width="252pt" height="93pt"
 viewBox="0.00 0.00 251.50 93.00" xmlns="http://www.w3.org/2000/svg" xmlns:xlink="http://www.w3.org/1999/xlink">
<g id="graph0" class="graph" transform="scale(1 1) rotate(0) translate(4 89)">
<title>plugins/resources/imageloader/Madgine/imageloaderlib.h</title>
<!-- Node1 -->
<g id="node1" class="node">
<title>Node1</title>
<g id="a_node1"><a xlink:title=" ">
<polygon fill="#999999" stroke="#666666" points="197.5,-85 48.5,-85 48.5,-55 197.5,-55 197.5,-85"/>
<text text-anchor="start" x="56.5" y="-73" font-family="Helvetica,sans-Serif" font-size="10.00">plugins/resources/imageloader</text>
<text text-anchor="middle" x="123" y="-62" font-family="Helvetica,sans-Serif" font-size="10.00">/Madgine/imageloaderlib.h</text>
</a>
</g>
</g>
<!-- Node2 -->
<g id="node2" class="node">
<title>Node2</title>
<g id="a_node2"><a xlink:href="resourceslib_8h.html" target="_top" xlink:title=" ">
<polygon fill="white" stroke="#666666" points="116,-19 0,-19 0,0 116,0 116,-19"/>
<text text-anchor="middle" x="58" y="-7" font-family="Helvetica,sans-Serif" font-size="10.00">Madgine/resourceslib.h</text>
</a>
</g>
</g>
<!-- Node1&#45;&gt;Node2 -->
<g id="edge1" class="edge">
<title>Node1&#45;&gt;Node2</title>
<path fill="none" stroke="#63b8ff" d="M106.93,-54.54C97.59,-46.13 85.78,-35.51 76.11,-26.8"/>
<polygon fill="#63b8ff" stroke="#63b8ff" points="78.54,-24.28 68.76,-20.19 73.86,-29.48 78.54,-24.28"/>
</g>
<!-- Node3 -->
<g id="node3" class="node">
<title>Node3</title>
<g id="a_node3"><a xlink:href="imageloaderforward_8h.html" target="_top" xlink:title=" ">
<polygon fill="white" stroke="#666666" points="243.5,-19 134.5,-19 134.5,0 243.5,0 243.5,-19"/>
<text text-anchor="middle" x="189" y="-7" font-family="Helvetica,sans-Serif" font-size="10.00">imageloaderforward.h</text>
</a>
</g>
</g>
<!-- Node1&#45;&gt;Node3 -->
<g id="edge2" class="edge">
<title>Node1&#45;&gt;Node3</title>
<path fill="none" stroke="#63b8ff" d="M139.31,-54.54C148.8,-46.13 160.79,-35.51 170.61,-26.8"/>
<polygon fill="#63b8ff" stroke="#63b8ff" points="172.92,-29.43 178.08,-20.18 168.27,-24.19 172.92,-29.43"/>
</g>
</g>
</svg>
