<?xml version="1.0" encoding="UTF-8" standalone="no"?>
<!DOCTYPE svg PUBLIC "-//W3C//DTD SVG 1.1//EN"
 "http://www.w3.org/Graphics/SVG/1.1/DTD/svg11.dtd">
<!-- Generated by graphviz version 7.0.5 (20221223.1930)
 -->
<!-- Title: Graphical Class Hierarchy Pages: 1 -->
<svg width="363pt" height="76pt"
 viewBox="0.00 0.00 363.00 75.50" xmlns="http://www.w3.org/2000/svg" xmlns:xlink="http://www.w3.org/1999/xlink">
<g id="graph0" class="graph" transform="scale(1 1) rotate(0) translate(4 71.5)">
<title>Graphical Class Hierarchy</title>
<!-- Node0 -->
<g id="node1" class="node">
<title>Node0</title>
<g id="a_node1"><a xlink:title=" ">
<polygon fill="#e0e0e0" stroke="#999999" points="161,-40 0,-40 0,-21 161,-21 161,-40"/>
<text text-anchor="middle" x="80.5" y="-28" font-family="Helvetica,sans-Serif" font-size="10.00">Window::MainWindowComponent</text>
</a>
</g>
</g>
<!-- Node1 -->
<g id="node2" class="node">
<title>Node1</title>
<g id="a_node2"><a xlink:href="struct_engine_1_1_render_1_1_scene_main_window_component.html" target="_top" xlink:title=" ">
<polygon fill="white" stroke="#666666" points="343,-67.5 209,-67.5 209,-37.5 343,-37.5 343,-67.5"/>
<text text-anchor="start" x="217" y="-55.5" font-family="Helvetica,sans-Serif" font-size="10.00">Engine::Render::SceneMain</text>
<text text-anchor="middle" x="276" y="-44.5" font-family="Helvetica,sans-Serif" font-size="10.00">WindowComponent</text>
</a>
</g>
</g>
<!-- Node0&#45;&gt;Node1 -->
<g id="edge1" class="edge">
<title>Node0&#45;&gt;Node1</title>
<path fill="none" stroke="#63b8ff" d="M172.45,-40.84C184.64,-42.23 196.94,-43.63 208.6,-44.95"/>
<polygon fill="#63b8ff" stroke="#63b8ff" points="173.16,-37.4 162.82,-39.75 172.37,-44.35 173.16,-37.4"/>
</g>
<!-- Node2 -->
<g id="node3" class="node">
<title>Node2</title>
<g id="a_node3"><a xlink:href="struct_engine_1_1_widgets_1_1_widget_manager.html" target="_top" xlink:title=" ">
<polygon fill="white" stroke="#666666" points="355,-19 197,-19 197,0 355,0 355,-19"/>
<text text-anchor="middle" x="276" y="-7" font-family="Helvetica,sans-Serif" font-size="10.00">Engine::Widgets::WidgetManager</text>
</a>
</g>
</g>
<!-- Node0&#45;&gt;Node2 -->
<g id="edge2" class="edge">
<title>Node0&#45;&gt;Node2</title>
<path fill="none" stroke="#63b8ff" d="M172.61,-20.61C180.63,-19.74 188.7,-18.87 196.61,-18.01"/>
<polygon fill="#63b8ff" stroke="#63b8ff" points="172.39,-17.12 162.83,-21.67 173.15,-24.07 172.39,-17.12"/>
</g>
</g>
</svg>
