<?xml version="1.0" encoding="UTF-8" standalone="no"?>
<!DOCTYPE svg PUBLIC "-//W3C//DTD SVG 1.1//EN"
 "http://www.w3.org/Graphics/SVG/1.1/DTD/svg11.dtd">
<!-- Generated by graphviz version 7.0.5 (20221223.1930)
 -->
<!-- Title: Graphical Class Hierarchy Pages: 1 -->
<svg width="309pt" height="323pt"
 viewBox="0.00 0.00 309.00 323.00" xmlns="http://www.w3.org/2000/svg" xmlns:xlink="http://www.w3.org/1999/xlink">
<g id="graph0" class="graph" transform="scale(1 1) rotate(0) translate(4 319)">
<title>Graphical Class Hierarchy</title>
<!-- Node0 -->
<g id="node1" class="node">
<title>Node0</title>
<g id="a_node1"><a xlink:href="struct_code_gen_1_1_full_statement.html" target="_top" xlink:title=" ">
<polygon fill="white" stroke="#666666" points="122,-167 0,-167 0,-148 122,-148 122,-167"/>
<text text-anchor="middle" x="61" y="-155" font-family="Helvetica,sans-Serif" font-size="10.00">CodeGen::FullStatement</text>
</a>
</g>
</g>
<!-- Node1 -->
<g id="node2" class="node">
<title>Node1</title>
<g id="a_node2"><a xlink:href="struct_code_gen_1_1_assignment.html" target="_top" xlink:title=" ">
<polygon fill="white" stroke="#666666" points="286,-315 173,-315 173,-296 286,-296 286,-315"/>
<text text-anchor="middle" x="229.5" y="-303" font-family="Helvetica,sans-Serif" font-size="10.00">CodeGen::Assignment</text>
</a>
</g>
</g>
<!-- Node0&#45;&gt;Node1 -->
<g id="edge1" class="edge">
<title>Node0&#45;&gt;Node1</title>
<path fill="none" stroke="#63b8ff" d="M71.26,-177.57C85.63,-206.43 116.08,-259.29 158,-287.5 162.82,-290.74 168.19,-293.4 173.74,-295.58"/>
<polygon fill="#63b8ff" stroke="#63b8ff" points="74.54,-176.32 67.05,-168.82 68.23,-179.35 74.54,-176.32"/>
</g>
<!-- Node2 -->
<g id="node3" class="node">
<title>Node2</title>
<g id="a_node3"><a xlink:href="struct_code_gen_1_1_constructor.html" target="_top" xlink:title=" ">
<polygon fill="white" stroke="#666666" points="285.5,-278 173.5,-278 173.5,-259 285.5,-259 285.5,-278"/>
<text text-anchor="middle" x="229.5" y="-266" font-family="Helvetica,sans-Serif" font-size="10.00">CodeGen::Constructor</text>
</a>
</g>
</g>
<!-- Node0&#45;&gt;Node2 -->
<g id="edge2" class="edge">
<title>Node0&#45;&gt;Node2</title>
<path fill="none" stroke="#63b8ff" d="M76.33,-176.37C93.45,-197.58 124.08,-231.54 158,-250.5 163.73,-253.71 170.05,-256.35 176.47,-258.53"/>
<polygon fill="#63b8ff" stroke="#63b8ff" points="79.12,-174.25 70.19,-168.55 73.61,-178.57 79.12,-174.25"/>
</g>
<!-- Node3 -->
<g id="node4" class="node">
<title>Node3</title>
<g id="a_node4"><a xlink:href="struct_code_gen_1_1_custom_code_block.html" target="_top" xlink:title=" ">
<polygon fill="white" stroke="#666666" points="301,-241 158,-241 158,-222 301,-222 301,-241"/>
<text text-anchor="middle" x="229.5" y="-229" font-family="Helvetica,sans-Serif" font-size="10.00">CodeGen::CustomCodeBlock</text>
</a>
</g>
</g>
<!-- Node0&#45;&gt;Node3 -->
<g id="edge3" class="edge">
<title>Node0&#45;&gt;Node3</title>
<path fill="none" stroke="#63b8ff" d="M85.52,-173.72C104.39,-186.11 131.94,-202.82 158,-213.5 165.6,-216.61 173.88,-219.31 182.01,-221.59"/>
<polygon fill="#63b8ff" stroke="#63b8ff" points="87.51,-170.84 77.25,-168.19 83.61,-176.66 87.51,-170.84"/>
</g>
<!-- Node4 -->
<g id="node5" class="node">
<title>Node4</title>
<g id="a_node5"><a xlink:href="struct_code_gen_1_1_for_each.html" target="_top" xlink:title=" ">
<polygon fill="white" stroke="#666666" points="278.5,-204 180.5,-204 180.5,-185 278.5,-185 278.5,-204"/>
<text text-anchor="middle" x="229.5" y="-192" font-family="Helvetica,sans-Serif" font-size="10.00">CodeGen::ForEach</text>
</a>
</g>
</g>
<!-- Node0&#45;&gt;Node4 -->
<g id="edge4" class="edge">
<title>Node0&#45;&gt;Node4</title>
<path fill="none" stroke="#63b8ff" d="M117.58,-169.85C139.1,-174.63 163.4,-180.03 183.76,-184.56"/>
<polygon fill="#63b8ff" stroke="#63b8ff" points="118.62,-166.5 108.1,-167.74 117.1,-173.33 118.62,-166.5"/>
</g>
<!-- Node5 -->
<g id="node6" class="node">
<title>Node5</title>
<g id="a_node6"><a xlink:href="struct_code_gen_1_1_function.html" target="_top" xlink:title=" ">
<polygon fill="white" stroke="#666666" points="279,-167 180,-167 180,-148 279,-148 279,-167"/>
<text text-anchor="middle" x="229.5" y="-155" font-family="Helvetica,sans-Serif" font-size="10.00">CodeGen::Function</text>
</a>
</g>
</g>
<!-- Node0&#45;&gt;Node5 -->
<g id="edge5" class="edge">
<title>Node0&#45;&gt;Node5</title>
<path fill="none" stroke="#63b8ff" d="M133.36,-157.5C148.98,-157.5 165.18,-157.5 179.68,-157.5"/>
<polygon fill="#63b8ff" stroke="#63b8ff" points="133.62,-154 123.62,-157.5 133.62,-161 133.62,-154"/>
</g>
<!-- Node6 -->
<g id="node7" class="node">
<title>Node6</title>
<g id="a_node7"><a xlink:href="struct_code_gen_1_1_namespace.html" target="_top" xlink:title=" ">
<polygon fill="white" stroke="#666666" points="286.5,-130 172.5,-130 172.5,-111 286.5,-111 286.5,-130"/>
<text text-anchor="middle" x="229.5" y="-118" font-family="Helvetica,sans-Serif" font-size="10.00">CodeGen::Namespace</text>
</a>
</g>
</g>
<!-- Node0&#45;&gt;Node6 -->
<g id="edge6" class="edge">
<title>Node0&#45;&gt;Node6</title>
<path fill="none" stroke="#63b8ff" d="M117.58,-145.15C139.1,-140.37 163.4,-134.97 183.76,-130.44"/>
<polygon fill="#63b8ff" stroke="#63b8ff" points="117.1,-141.67 108.1,-147.26 118.62,-148.5 117.1,-141.67"/>
</g>
<!-- Node7 -->
<g id="node8" class="node">
<title>Node7</title>
<g id="a_node8"><a xlink:href="struct_code_gen_1_1_return.html" target="_top" xlink:title=" ">
<polygon fill="white" stroke="#666666" points="274.5,-93 184.5,-93 184.5,-74 274.5,-74 274.5,-93"/>
<text text-anchor="middle" x="229.5" y="-81" font-family="Helvetica,sans-Serif" font-size="10.00">CodeGen::Return</text>
</a>
</g>
</g>
<!-- Node0&#45;&gt;Node7 -->
<g id="edge7" class="edge">
<title>Node0&#45;&gt;Node7</title>
<path fill="none" stroke="#63b8ff" d="M85.93,-141.48C104.83,-129.39 132.24,-113.14 158,-102.5 166.44,-99.02 175.7,-95.99 184.67,-93.44"/>
<polygon fill="#63b8ff" stroke="#63b8ff" points="84.11,-138.48 77.63,-146.87 87.92,-144.35 84.11,-138.48"/>
</g>
<!-- Node8 -->
<g id="node9" class="node">
<title>Node8</title>
<g id="a_node9"><a xlink:href="struct_code_gen_1_1_struct.html" target="_top" xlink:title=" ">
<polygon fill="white" stroke="#666666" points="273.5,-56 185.5,-56 185.5,-37 273.5,-37 273.5,-56"/>
<text text-anchor="middle" x="229.5" y="-44" font-family="Helvetica,sans-Serif" font-size="10.00">CodeGen::Struct</text>
</a>
</g>
</g>
<!-- Node0&#45;&gt;Node8 -->
<g id="edge8" class="edge">
<title>Node0&#45;&gt;Node8</title>
<path fill="none" stroke="#63b8ff" d="M76.69,-138.6C93.94,-117.67 124.5,-84.4 158,-65.5 166.28,-60.83 175.76,-57.26 185.03,-54.56"/>
<polygon fill="#63b8ff" stroke="#63b8ff" points="74.01,-136.34 70.48,-146.32 79.47,-140.72 74.01,-136.34"/>
</g>
<!-- Node9 -->
<g id="node10" class="node">
<title>Node9</title>
<g id="a_node10"><a xlink:href="struct_code_gen_1_1_variable_definition.html" target="_top" xlink:title=" ">
<polygon fill="white" stroke="#666666" points="298,-19 161,-19 161,0 298,0 298,-19"/>
<text text-anchor="middle" x="229.5" y="-7" font-family="Helvetica,sans-Serif" font-size="10.00">CodeGen::VariableDefinition</text>
</a>
</g>
</g>
<!-- Node0&#45;&gt;Node9 -->
<g id="edge9" class="edge">
<title>Node0&#45;&gt;Node9</title>
<path fill="none" stroke="#63b8ff" d="M71.35,-137.66C85.83,-109.11 116.42,-56.77 158,-28.5 163.45,-24.79 169.6,-21.81 175.93,-19.41"/>
<polygon fill="#63b8ff" stroke="#63b8ff" points="68.37,-135.78 67.11,-146.3 74.66,-138.86 68.37,-135.78"/>
</g>
</g>
</svg>
