<?xml version="1.0" encoding="UTF-8" standalone="no"?>
<!DOCTYPE svg PUBLIC "-//W3C//DTD SVG 1.1//EN"
 "http://www.w3.org/Graphics/SVG/1.1/DTD/svg11.dtd">
<!-- Generated by graphviz version 7.0.5 (20221223.1930)
 -->
<!-- Title: Graphical Class Hierarchy Pages: 1 -->
<svg width="525pt" height="86pt"
 viewBox="0.00 0.00 525.00 86.00" xmlns="http://www.w3.org/2000/svg" xmlns:xlink="http://www.w3.org/1999/xlink">
<g id="graph0" class="graph" transform="scale(1 1) rotate(0) translate(4 82)">
<title>Graphical Class Hierarchy</title>
<!-- Node0 -->
<g id="node1" class="node">
<title>Node0</title>
<g id="a_node1"><a xlink:href="struct_engine_1_1_parameter_tuple_base.html" target="_top" xlink:title=" ">
<polygon fill="white" stroke="#666666" points="142,-48.5 0,-48.5 0,-29.5 142,-29.5 142,-48.5"/>
<text text-anchor="middle" x="71" y="-36.5" font-family="Helvetica,sans-Serif" font-size="10.00">Engine::ParameterTupleBase</text>
</a>
</g>
</g>
<!-- Node1 -->
<g id="node2" class="node">
<title>Node1</title>
<g id="a_node2"><a xlink:href="struct_engine_1_1_parameter_tuple_instance.html" target="_top" xlink:title=" ">
<polygon fill="white" stroke="#666666" points="335,-78 178,-78 178,-48 335,-48 335,-78"/>
<text text-anchor="start" x="186" y="-66" font-family="Helvetica,sans-Serif" font-size="10.00">Engine::ParameterTupleInstance</text>
<text text-anchor="middle" x="256.5" y="-55" font-family="Helvetica,sans-Serif" font-size="10.00">&lt; Ty... &gt;</text>
</a>
</g>
</g>
<!-- Node0&#45;&gt;Node1 -->
<g id="edge1" class="edge">
<title>Node0&#45;&gt;Node1</title>
<path fill="none" stroke="#63b8ff" d="M153.61,-49.67C161.6,-50.72 169.68,-51.78 177.63,-52.82"/>
<polygon fill="#63b8ff" stroke="#63b8ff" points="154.29,-46.23 143.92,-48.41 153.38,-53.17 154.29,-46.23"/>
</g>
<!-- Node3 -->
<g id="node4" class="node">
<title>Node3</title>
<g id="a_node4"><a xlink:href="struct_engine_1_1_parameter_tuple_instance.html" target="_top" xlink:title=" ">
<polygon fill="white" stroke="#666666" points="335,-30 178,-30 178,0 335,0 335,-30"/>
<text text-anchor="start" x="186" y="-18" font-family="Helvetica,sans-Serif" font-size="10.00">Engine::ParameterTupleInstance</text>
<text text-anchor="middle" x="256.5" y="-7" font-family="Helvetica,sans-Serif" font-size="10.00">&lt; Ty &gt;</text>
</a>
</g>
</g>
<!-- Node0&#45;&gt;Node3 -->
<g id="edge3" class="edge">
<title>Node0&#45;&gt;Node3</title>
<path fill="none" stroke="#63b8ff" d="M153.61,-28.33C161.6,-27.28 169.68,-26.22 177.63,-25.18"/>
<polygon fill="#63b8ff" stroke="#63b8ff" points="153.38,-24.83 143.92,-29.59 154.29,-31.77 153.38,-24.83"/>
</g>
<!-- Node2 -->
<g id="node3" class="node">
<title>Node2</title>
<g id="a_node3"><a xlink:href="struct_engine_1_1_typed_parameter_tuple_instance.html" target="_top" xlink:title=" ">
<polygon fill="white" stroke="#666666" points="517,-78 371,-78 371,-48 517,-48 517,-78"/>
<text text-anchor="start" x="379" y="-66" font-family="Helvetica,sans-Serif" font-size="10.00">Engine::TypedParameterTuple</text>
<text text-anchor="middle" x="444" y="-55" font-family="Helvetica,sans-Serif" font-size="10.00">Instance&lt; Names, Ty &gt;</text>
</a>
</g>
</g>
<!-- Node1&#45;&gt;Node2 -->
<g id="edge2" class="edge">
<title>Node1&#45;&gt;Node2</title>
<path fill="none" stroke="#63b8ff" d="M346.68,-63C354.72,-63 362.79,-63 370.66,-63"/>
<polygon fill="#63b8ff" stroke="#63b8ff" points="346.88,-59.5 336.88,-63 346.88,-66.5 346.88,-59.5"/>
</g>
</g>
</svg>
