<?xml version="1.0" encoding="UTF-8" standalone="no"?>
<!DOCTYPE svg PUBLIC "-//W3C//DTD SVG 1.1//EN"
 "http://www.w3.org/Graphics/SVG/1.1/DTD/svg11.dtd">
<!-- Generated by graphviz version 7.0.5 (20221223.1930)
 -->
<!-- Title: Graphical Class Hierarchy Pages: 1 -->
<svg width="262pt" height="264pt"
 viewBox="0.00 0.00 262.00 264.00" xmlns="http://www.w3.org/2000/svg" xmlns:xlink="http://www.w3.org/1999/xlink">
<g id="graph0" class="graph" transform="scale(1 1) rotate(0) translate(4 260)">
<title>Graphical Class Hierarchy</title>
<!-- Node0 -->
<g id="node1" class="node">
<title>Node0</title>
<g id="a_node1"><a xlink:href="class___representation.html" target="_top" xlink:title=" ">
<polygon fill="white" stroke="#666666" points="87,-226.5 0,-226.5 0,-207.5 87,-207.5 87,-226.5"/>
<text text-anchor="middle" x="43.5" y="-214.5" font-family="Helvetica,sans-Serif" font-size="10.00">_Representation</text>
</a>
</g>
</g>
<!-- Node1 -->
<g id="node2" class="node">
<title>Node1</title>
<g id="a_node2"><a xlink:href="struct_engine_1_1_base_enum.html" target="_top" xlink:title=" ">
<polygon fill="white" stroke="#666666" points="254,-208 123,-208 123,-178 254,-178 254,-208"/>
<text text-anchor="start" x="131" y="-196" font-family="Helvetica,sans-Serif" font-size="10.00">Engine::BaseEnum&lt; Base,</text>
<text text-anchor="middle" x="188.5" y="-185" font-family="Helvetica,sans-Serif" font-size="10.00"> _Representation &gt;</text>
</a>
</g>
</g>
<!-- Node0&#45;&gt;Node1 -->
<g id="edge1" class="edge">
<title>Node0&#45;&gt;Node1</title>
<path fill="none" stroke="#63b8ff" d="M98.65,-207.91C106.5,-206.6 114.64,-205.23 122.68,-203.88"/>
<polygon fill="#63b8ff" stroke="#63b8ff" points="98.18,-204.44 88.9,-209.55 99.34,-211.35 98.18,-204.44"/>
</g>
<!-- Node6 -->
<g id="node3" class="node">
<title>Node6</title>
<g id="a_node3"><a xlink:href="struct_engine_1_1_enum_type.html" target="_top" xlink:title=" ">
<polygon fill="white" stroke="#666666" points="240.5,-256 136.5,-256 136.5,-226 240.5,-226 240.5,-256"/>
<text text-anchor="start" x="144.5" y="-244" font-family="Helvetica,sans-Serif" font-size="10.00">Engine::EnumType&lt; </text>
<text text-anchor="middle" x="188.5" y="-233" font-family="Helvetica,sans-Serif" font-size="10.00">_Representation &gt;</text>
</a>
</g>
</g>
<!-- Node0&#45;&gt;Node6 -->
<g id="edge2" class="edge">
<title>Node0&#45;&gt;Node6</title>
<path fill="none" stroke="#63b8ff" d="M98.46,-226.06C110.78,-228.12 123.84,-230.32 136.05,-232.36"/>
<polygon fill="#63b8ff" stroke="#63b8ff" points="99.34,-222.65 88.9,-224.45 98.18,-229.56 99.34,-222.65"/>
</g>
<!-- Node2 -->
<g id="node4" class="node">
<title>Node2</title>
<g id="a_node4"><a xlink:title=" ">
<polygon fill="#e0e0e0" stroke="#999999" points="63,-111.5 24,-111.5 24,-92.5 63,-92.5 63,-111.5"/>
<text text-anchor="middle" x="43.5" y="-99.5" font-family="Helvetica,sans-Serif" font-size="10.00">Base</text>
</a>
</g>
</g>
<!-- Node2&#45;&gt;Node1 -->
<g id="edge3" class="edge">
<title>Node2&#45;&gt;Node1</title>
<path fill="none" stroke="#63b8ff" d="M61.67,-119.81C76.72,-134.59 99.76,-155.34 123,-169 128.36,-172.15 134.2,-175.01 140.11,-177.57"/>
<polygon fill="#63b8ff" stroke="#63b8ff" points="64.4,-117.58 54.86,-112.96 59.43,-122.52 64.4,-117.58"/>
</g>
<!-- Node3 -->
<g id="node5" class="node">
<title>Node3</title>
<g id="a_node5"><a xlink:href="struct_engine_1_1_execution_1_1_virtual_state_ex_3_01___rec_00_01_base_00_01type__pack_3_4_00_016dd5f344414e98904f6df7cfd629469e.html" target="_top" xlink:title=" ">
<polygon fill="white" stroke="#666666" points="251.5,-160 125.5,-160 125.5,-108 251.5,-108 251.5,-160"/>
<text text-anchor="start" x="133.5" y="-148" font-family="Helvetica,sans-Serif" font-size="10.00">Engine::Execution::</text>
<text text-anchor="start" x="133.5" y="-137" font-family="Helvetica,sans-Serif" font-size="10.00">VirtualStateEx&lt; _Rec,</text>
<text text-anchor="start" x="133.5" y="-126" font-family="Helvetica,sans-Serif" font-size="10.00"> Base, type_pack&lt;&gt;, type</text>
<text text-anchor="middle" x="188.5" y="-115" font-family="Helvetica,sans-Serif" font-size="10.00">_pack&lt; V... &gt; &gt;</text>
</a>
</g>
</g>
<!-- Node2&#45;&gt;Node3 -->
<g id="edge4" class="edge">
<title>Node2&#45;&gt;Node3</title>
<path fill="none" stroke="#63b8ff" d="M74.48,-108.71C89.26,-112.02 107.66,-116.13 125.29,-120.08"/>
<polygon fill="#63b8ff" stroke="#63b8ff" points="75.49,-105.35 64.97,-106.58 73.96,-112.18 75.49,-105.35"/>
</g>
<!-- Node4 -->
<g id="node6" class="node">
<title>Node4</title>
<g id="a_node6"><a xlink:href="struct_virtual_c_p_o_base_helper.html" target="_top" xlink:title=" ">
<polygon fill="white" stroke="#666666" points="248.5,-89.5 128.5,-89.5 128.5,-48.5 248.5,-48.5 248.5,-89.5"/>
<text text-anchor="start" x="136.5" y="-77.5" font-family="Helvetica,sans-Serif" font-size="10.00">VirtualCPOBaseHelper</text>
<text text-anchor="start" x="136.5" y="-66.5" font-family="Helvetica,sans-Serif" font-size="10.00">&lt; CPO_holder, Base, R,</text>
<text text-anchor="middle" x="188.5" y="-55.5" font-family="Helvetica,sans-Serif" font-size="10.00"> T, V &gt;</text>
</a>
</g>
</g>
<!-- Node2&#45;&gt;Node4 -->
<g id="edge5" class="edge">
<title>Node2&#45;&gt;Node4</title>
<path fill="none" stroke="#63b8ff" d="M74.53,-95.07C90.11,-91.47 109.7,-86.95 128.17,-82.69"/>
<polygon fill="#63b8ff" stroke="#63b8ff" points="73.92,-91.62 64.96,-97.28 75.5,-98.44 73.92,-91.62"/>
</g>
<!-- Node5 -->
<g id="node7" class="node">
<title>Node5</title>
<g id="a_node7"><a xlink:href="struct_virtual_c_p_o_impl_helper.html" target="_top" xlink:title=" ">
<polygon fill="white" stroke="#666666" points="247,-30 130,-30 130,0 247,0 247,-30"/>
<text text-anchor="start" x="138" y="-18" font-family="Helvetica,sans-Serif" font-size="10.00">VirtualCPOImplHelper</text>
<text text-anchor="middle" x="188.5" y="-7" font-family="Helvetica,sans-Serif" font-size="10.00">&lt; CPO, Base, R, T, V &gt;</text>
</a>
</g>
</g>
<!-- Node2&#45;&gt;Node5 -->
<g id="edge6" class="edge">
<title>Node2&#45;&gt;Node5</title>
<path fill="none" stroke="#63b8ff" d="M62.8,-84.47C77.97,-70.68 100.6,-51.72 123,-39 128.51,-35.87 134.5,-33.01 140.54,-30.44"/>
<polygon fill="#63b8ff" stroke="#63b8ff" points="60.44,-81.89 55.5,-91.26 65.2,-87.02 60.44,-81.89"/>
</g>
</g>
</svg>
