<?xml version="1.0" encoding="UTF-8" standalone="no"?>
<!DOCTYPE svg PUBLIC "-//W3C//DTD SVG 1.1//EN"
 "http://www.w3.org/Graphics/SVG/1.1/DTD/svg11.dtd">
<!-- Generated by graphviz version 7.0.5 (20221223.1930)
 -->
<!-- Title: Graphical Class Hierarchy Pages: 1 -->
<svg width="664pt" height="414pt"
 viewBox="0.00 0.00 664.00 413.50" xmlns="http://www.w3.org/2000/svg" xmlns:xlink="http://www.w3.org/1999/xlink">
<g id="graph0" class="graph" transform="scale(1 1) rotate(0) translate(4 409.5)">
<title>Graphical Class Hierarchy</title>
<!-- Node0 -->
<g id="node1" class="node">
<title>Node0</title>
<g id="a_node1"><a xlink:href="struct_engine_1_1_node_graph_1_1_node_interpreter_data.html" target="_top" xlink:title=" ">
<polygon fill="white" stroke="#666666" points="109,-364.5 5,-364.5 5,-334.5 109,-334.5 109,-364.5"/>
<text text-anchor="start" x="13" y="-352.5" font-family="Helvetica,sans-Serif" font-size="10.00">Engine::NodeGraph::</text>
<text text-anchor="middle" x="57" y="-341.5" font-family="Helvetica,sans-Serif" font-size="10.00">NodeInterpreterData</text>
</a>
</g>
</g>
<!-- Node1 -->
<g id="node2" class="node">
<title>Node1</title>
<g id="a_node2"><a xlink:href="struct_engine_1_1_node_graph_1_1_library_interpret_data.html" target="_top" xlink:title=" ">
<polygon fill="white" stroke="#666666" points="272,-335.5 168,-335.5 168,-305.5 272,-305.5 272,-335.5"/>
<text text-anchor="start" x="176" y="-323.5" font-family="Helvetica,sans-Serif" font-size="10.00">Engine::NodeGraph::</text>
<text text-anchor="middle" x="220" y="-312.5" font-family="Helvetica,sans-Serif" font-size="10.00">LibraryInterpretData</text>
</a>
</g>
</g>
<!-- Node0&#45;&gt;Node1 -->
<g id="edge1" class="edge">
<title>Node0&#45;&gt;Node1</title>
<path fill="none" stroke="#63b8ff" d="M120.51,-338.24C136.08,-335.44 152.59,-332.46 167.55,-329.77"/>
<polygon fill="#63b8ff" stroke="#63b8ff" points="120.09,-334.76 110.87,-339.98 121.34,-341.65 120.09,-334.76"/>
</g>
<!-- Node14 -->
<g id="node3" class="node">
<title>Node14</title>
<g id="a_node3"><a xlink:href="struct_engine_1_1_node_graph_1_1_sender_node_1_1_interpret_data.html" target="_top" xlink:title=" ">
<polygon fill="white" stroke="#666666" points="276.5,-405.5 163.5,-405.5 163.5,-353.5 276.5,-353.5 276.5,-405.5"/>
<text text-anchor="start" x="171.5" y="-393.5" font-family="Helvetica,sans-Serif" font-size="10.00">Engine::NodeGraph::</text>
<text text-anchor="start" x="171.5" y="-382.5" font-family="Helvetica,sans-Serif" font-size="10.00">SenderNode&lt; Config,</text>
<text text-anchor="start" x="171.5" y="-371.5" font-family="Helvetica,sans-Serif" font-size="10.00"> Algorithm, Arguments</text>
<text text-anchor="middle" x="220" y="-360.5" font-family="Helvetica,sans-Serif" font-size="10.00"> &gt;::InterpretData</text>
</a>
</g>
</g>
<!-- Node0&#45;&gt;Node14 -->
<g id="edge2" class="edge">
<title>Node0&#45;&gt;Node14</title>
<path fill="none" stroke="#63b8ff" d="M120.45,-361.14C134.5,-363.76 149.33,-366.52 163.09,-369.08"/>
<polygon fill="#63b8ff" stroke="#63b8ff" points="121.34,-357.74 110.87,-359.35 120.06,-364.62 121.34,-357.74"/>
</g>
<!-- Node2 -->
<g id="node4" class="node">
<title>Node2</title>
<g id="a_node4"><a xlink:title=" ">
<polygon fill="#e0e0e0" stroke="#999999" points="114,-186 0,-186 0,-167 114,-167 114,-186"/>
<text text-anchor="middle" x="57" y="-174" font-family="Helvetica,sans-Serif" font-size="10.00">Execution::VirtualState</text>
</a>
</g>
</g>
<!-- Node2&#45;&gt;Node1 -->
<g id="edge10" class="edge">
<title>Node2&#45;&gt;Node1</title>
<path fill="none" stroke="#63b8ff" d="M68.4,-196.46C83.15,-222.93 112.58,-269.46 150,-296.5 155.35,-300.36 161.37,-303.65 167.57,-306.43"/>
<polygon fill="#63b8ff" stroke="#63b8ff" points="71.55,-194.92 63.71,-187.79 65.39,-198.25 71.55,-194.92"/>
</g>
<!-- Node3 -->
<g id="node5" class="node">
<title>Node3</title>
<g id="a_node5"><a xlink:href="struct_engine_1_1_virtual_behavior_state.html" target="_top" xlink:title=" ">
<polygon fill="white" stroke="#666666" points="290,-287.5 150,-287.5 150,-257.5 290,-257.5 290,-287.5"/>
<text text-anchor="start" x="158" y="-275.5" font-family="Helvetica,sans-Serif" font-size="10.00">Engine::VirtualBehaviorState</text>
<text text-anchor="middle" x="220" y="-264.5" font-family="Helvetica,sans-Serif" font-size="10.00">&lt; Rec, PlaybackState &gt;</text>
</a>
</g>
</g>
<!-- Node2&#45;&gt;Node3 -->
<g id="edge3" class="edge">
<title>Node2&#45;&gt;Node3</title>
<path fill="none" stroke="#63b8ff" d="M76.49,-193.99C94.2,-209.98 122.25,-233.36 150,-248.5 155.79,-251.66 162.07,-254.52 168.41,-257.09"/>
<polygon fill="#63b8ff" stroke="#63b8ff" points="79.07,-191.61 69.34,-187.41 74.33,-196.76 79.07,-191.61"/>
</g>
<!-- Node5 -->
<g id="node7" class="node">
<title>Node5</title>
<g id="a_node7"><a xlink:href="struct_engine_1_1_virtual_behavior_state.html" target="_top" xlink:title=" ">
<polygon fill="white" stroke="#666666" points="290,-239.5 150,-239.5 150,-209.5 290,-209.5 290,-239.5"/>
<text text-anchor="start" x="158" y="-227.5" font-family="Helvetica,sans-Serif" font-size="10.00">Engine::VirtualBehaviorState</text>
<text text-anchor="middle" x="220" y="-216.5" font-family="Helvetica,sans-Serif" font-size="10.00">&lt; Rec, AnimationState &gt;</text>
</a>
</g>
</g>
<!-- Node2&#45;&gt;Node5 -->
<g id="edge5" class="edge">
<title>Node2&#45;&gt;Node5</title>
<path fill="none" stroke="#63b8ff" d="M102.12,-189.65C122.28,-195.66 146.29,-202.82 167.29,-209.08"/>
<polygon fill="#63b8ff" stroke="#63b8ff" points="103.39,-186.38 92.81,-186.88 101.39,-193.09 103.39,-186.38"/>
</g>
<!-- Node7 -->
<g id="node9" class="node">
<title>Node7</title>
<g id="a_node9"><a xlink:href="struct_engine_1_1_virtual_behavior_state.html" target="_top" xlink:title=" ">
<polygon fill="white" stroke="#666666" points="290,-191.5 150,-191.5 150,-161.5 290,-161.5 290,-191.5"/>
<text text-anchor="start" x="158" y="-179.5" font-family="Helvetica,sans-Serif" font-size="10.00">Engine::VirtualBehaviorState</text>
<text text-anchor="middle" x="220" y="-168.5" font-family="Helvetica,sans-Serif" font-size="10.00">&lt; Rec, TempWidgetState &gt;</text>
</a>
</g>
</g>
<!-- Node2&#45;&gt;Node7 -->
<g id="edge7" class="edge">
<title>Node2&#45;&gt;Node7</title>
<path fill="none" stroke="#63b8ff" d="M125.75,-176.5C133.67,-176.5 141.75,-176.5 149.69,-176.5"/>
<polygon fill="#63b8ff" stroke="#63b8ff" points="125.82,-173 115.82,-176.5 125.82,-180 125.82,-173"/>
</g>
<!-- Node9 -->
<g id="node11" class="node">
<title>Node9</title>
<g id="a_node11"><a xlink:href="struct_engine_1_1_key_value_sender_1_1state.html" target="_top" xlink:title=" ">
<polygon fill="white" stroke="#666666" points="281,-143.5 159,-143.5 159,-113.5 281,-113.5 281,-143.5"/>
<text text-anchor="start" x="167" y="-131.5" font-family="Helvetica,sans-Serif" font-size="10.00">Engine::KeyValueSender</text>
<text text-anchor="middle" x="220" y="-120.5" font-family="Helvetica,sans-Serif" font-size="10.00">::state&lt; Rec &gt;</text>
</a>
</g>
</g>
<!-- Node2&#45;&gt;Node9 -->
<g id="edge9" class="edge">
<title>Node2&#45;&gt;Node9</title>
<path fill="none" stroke="#63b8ff" d="M102.12,-163.35C122.28,-157.34 146.29,-150.18 167.29,-143.92"/>
<polygon fill="#63b8ff" stroke="#63b8ff" points="101.39,-159.91 92.81,-166.12 103.39,-166.62 101.39,-159.91"/>
</g>
<!-- Node10 -->
<g id="node12" class="node">
<title>Node10</title>
<g id="a_node12"><a xlink:href="struct_engine_1_1_node_graph_1_1_node_interpreter_state.html" target="_top" xlink:title=" ">
<polygon fill="white" stroke="#666666" points="273.5,-95 166.5,-95 166.5,-54 273.5,-54 273.5,-95"/>
<text text-anchor="start" x="174.5" y="-83" font-family="Helvetica,sans-Serif" font-size="10.00">Engine::NodeGraph::</text>
<text text-anchor="start" x="174.5" y="-72" font-family="Helvetica,sans-Serif" font-size="10.00">NodeInterpreterState</text>
<text text-anchor="middle" x="220" y="-61" font-family="Helvetica,sans-Serif" font-size="10.00">&lt; Rec &gt;</text>
</a>
</g>
</g>
<!-- Node2&#45;&gt;Node10 -->
<g id="edge11" class="edge">
<title>Node2&#45;&gt;Node10</title>
<path fill="none" stroke="#63b8ff" d="M77.05,-159.23C94.97,-143.58 122.99,-120.58 150,-104.5 155.39,-101.29 161.18,-98.23 167.04,-95.38"/>
<polygon fill="#63b8ff" stroke="#63b8ff" points="74.96,-156.41 69.8,-165.66 79.6,-161.64 74.96,-156.41"/>
</g>
<!-- Node11 -->
<g id="node13" class="node">
<title>Node11</title>
<g id="a_node13"><a xlink:href="struct_engine_1_1_virtual_behavior_state.html" target="_top" xlink:title=" ">
<polygon fill="white" stroke="#666666" points="290,-35.5 150,-35.5 150,-5.5 290,-5.5 290,-35.5"/>
<text text-anchor="start" x="158" y="-23.5" font-family="Helvetica,sans-Serif" font-size="10.00">Engine::VirtualBehaviorState</text>
<text text-anchor="middle" x="220" y="-12.5" font-family="Helvetica,sans-Serif" font-size="10.00">&lt; Rec, Base &gt;</text>
</a>
</g>
</g>
<!-- Node2&#45;&gt;Node11 -->
<g id="edge12" class="edge">
<title>Node2&#45;&gt;Node11</title>
<path fill="none" stroke="#63b8ff" d="M67.08,-156.2C80.95,-127.38 110.08,-74.75 150,-44.5 154.35,-41.21 159.18,-38.34 164.21,-35.86"/>
<polygon fill="#63b8ff" stroke="#63b8ff" points="63.91,-154.72 62.86,-165.26 70.25,-157.67 63.91,-154.72"/>
</g>
<!-- Node4 -->
<g id="node6" class="node">
<title>Node4</title>
<g id="a_node6"><a xlink:href="struct_engine_1_1_audio_1_1_playback_state_impl.html" target="_top" xlink:title=" ">
<polygon fill="white" stroke="#666666" points="470,-293.5 327,-293.5 327,-263.5 470,-263.5 470,-293.5"/>
<text text-anchor="start" x="335" y="-281.5" font-family="Helvetica,sans-Serif" font-size="10.00">Engine::Audio::PlaybackState</text>
<text text-anchor="middle" x="398.5" y="-270.5" font-family="Helvetica,sans-Serif" font-size="10.00">Impl&lt; Rec &gt;</text>
</a>
</g>
</g>
<!-- Node3&#45;&gt;Node4 -->
<g id="edge4" class="edge">
<title>Node3&#45;&gt;Node4</title>
<path fill="none" stroke="#63b8ff" d="M301.59,-275.24C309.97,-275.52 318.45,-275.81 326.71,-276.09"/>
<polygon fill="#63b8ff" stroke="#63b8ff" points="301.88,-271.75 291.76,-274.91 301.64,-278.74 301.88,-271.75"/>
</g>
<!-- Node6 -->
<g id="node8" class="node">
<title>Node6</title>
<g id="a_node8"><a xlink:href="struct_engine_1_1_scene_1_1_entity_1_1_animation_state_impl.html" target="_top" xlink:title=" ">
<polygon fill="white" stroke="#666666" points="452,-245 345,-245 345,-204 452,-204 452,-245"/>
<text text-anchor="start" x="353" y="-233" font-family="Helvetica,sans-Serif" font-size="10.00">Engine::Scene::Entity</text>
<text text-anchor="start" x="353" y="-222" font-family="Helvetica,sans-Serif" font-size="10.00">::AnimationStateImpl</text>
<text text-anchor="middle" x="398.5" y="-211" font-family="Helvetica,sans-Serif" font-size="10.00">&lt; Rec &gt;</text>
</a>
</g>
</g>
<!-- Node5&#45;&gt;Node6 -->
<g id="edge6" class="edge">
<title>Node5&#45;&gt;Node6</title>
<path fill="none" stroke="#63b8ff" d="M301.37,-224.5C316.01,-224.5 330.95,-224.5 344.55,-224.5"/>
<polygon fill="#63b8ff" stroke="#63b8ff" points="301.76,-221 291.76,-224.5 301.76,-228 301.76,-221"/>
</g>
<!-- Node8 -->
<g id="node10" class="node">
<title>Node8</title>
<g id="a_node10"><a xlink:href="struct_engine_1_1_widgets_1_1_temp_widget_state_impl.html" target="_top" xlink:title=" ">
<polygon fill="white" stroke="#666666" points="471,-185.5 326,-185.5 326,-155.5 471,-155.5 471,-185.5"/>
<text text-anchor="start" x="334" y="-173.5" font-family="Helvetica,sans-Serif" font-size="10.00">Engine::Widgets::TempWidget</text>
<text text-anchor="middle" x="398.5" y="-162.5" font-family="Helvetica,sans-Serif" font-size="10.00">StateImpl&lt; Rec &gt;</text>
</a>
</g>
</g>
<!-- Node7&#45;&gt;Node8 -->
<g id="edge8" class="edge">
<title>Node7&#45;&gt;Node8</title>
<path fill="none" stroke="#63b8ff" d="M301.5,-173.76C309.52,-173.49 317.62,-173.22 325.54,-172.95"/>
<polygon fill="#63b8ff" stroke="#63b8ff" points="301.64,-170.26 291.76,-174.09 301.88,-177.25 301.64,-170.26"/>
</g>
<!-- Node12 -->
<g id="node14" class="node">
<title>Node12</title>
<g id="a_node14"><a xlink:href="struct_engine_1_1_node_graph_1_1_node_state.html" target="_top" xlink:title=" ">
<polygon fill="white" stroke="#666666" points="465.5,-41 331.5,-41 331.5,0 465.5,0 465.5,-41"/>
<text text-anchor="start" x="339.5" y="-29" font-family="Helvetica,sans-Serif" font-size="10.00">Engine::NodeGraph::</text>
<text text-anchor="start" x="339.5" y="-18" font-family="Helvetica,sans-Serif" font-size="10.00">NodeState&lt; flowOutGroup,</text>
<text text-anchor="middle" x="398.5" y="-7" font-family="Helvetica,sans-Serif" font-size="10.00"> Rec &gt;</text>
</a>
</g>
</g>
<!-- Node11&#45;&gt;Node12 -->
<g id="edge13" class="edge">
<title>Node11&#45;&gt;Node12</title>
<path fill="none" stroke="#63b8ff" d="M301.69,-20.5C311.52,-20.5 321.46,-20.5 331.05,-20.5"/>
<polygon fill="#63b8ff" stroke="#63b8ff" points="301.76,-17 291.76,-20.5 301.76,-24 301.76,-17"/>
</g>
<!-- Node13 -->
<g id="node15" class="node">
<title>Node13</title>
<g id="a_node15"><a xlink:href="struct_engine_1_1_node_graph_1_1_node_algorithm_1_1receiver.html" target="_top" xlink:title=" ">
<polygon fill="white" stroke="#666666" points="656,-41 507,-41 507,0 656,0 656,-41"/>
<text text-anchor="start" x="515" y="-29" font-family="Helvetica,sans-Serif" font-size="10.00">Engine::NodeGraph::</text>
<text text-anchor="start" x="515" y="-18" font-family="Helvetica,sans-Serif" font-size="10.00">NodeAlgorithm&lt; flowOutGroup</text>
<text text-anchor="middle" x="581.5" y="-7" font-family="Helvetica,sans-Serif" font-size="10.00"> &gt;::receiver&lt; Rec &gt;</text>
</a>
</g>
</g>
<!-- Node12&#45;&gt;Node13 -->
<g id="edge14" class="edge">
<title>Node12&#45;&gt;Node13</title>
<path fill="none" stroke="#63b8ff" d="M477.26,-20.5C487.06,-20.5 497.07,-20.5 506.81,-20.5"/>
<polygon fill="#63b8ff" stroke="#63b8ff" points="477.38,-17 467.38,-20.5 477.38,-24 477.38,-17"/>
</g>
</g>
</svg>
