<?xml version="1.0" encoding="UTF-8" standalone="no"?>
<!DOCTYPE svg PUBLIC "-//W3C//DTD SVG 1.1//EN"
 "http://www.w3.org/Graphics/SVG/1.1/DTD/svg11.dtd">
<!-- Generated by graphviz version 7.0.5 (20221223.1930)
 -->
<!-- Title: Graphical Class Hierarchy Pages: 1 -->
<svg width="615pt" height="93pt"
 viewBox="0.00 0.00 615.00 93.00" xmlns="http://www.w3.org/2000/svg" xmlns:xlink="http://www.w3.org/1999/xlink">
<g id="graph0" class="graph" transform="scale(1 1) rotate(0) translate(4 89)">
<title>Graphical Class Hierarchy</title>
<!-- Node0 -->
<g id="node1" class="node">
<title>Node0</title>
<g id="a_node1"><a xlink:title=" ">
<polygon fill="#e0e0e0" stroke="#999999" points="228,-85 0,-85 0,0 228,0 228,-85"/>
<text text-anchor="start" x="8" y="-73" font-family="Helvetica,sans-Serif" font-size="10.00">ResourceLoaderComponent</text>
<text text-anchor="start" x="8" y="-62" font-family="Helvetica,sans-Serif" font-size="10.00">&lt; LayoutLoader, VirtualScope</text>
<text text-anchor="start" x="8" y="-51" font-family="Helvetica,sans-Serif" font-size="10.00">&lt; LayoutLoader, ResourceLoaderImpl</text>
<text text-anchor="start" x="8" y="-40" font-family="Helvetica,sans-Serif" font-size="10.00">&lt; LayoutLoader, LayoutDummy, ResourceLoader</text>
<text text-anchor="start" x="8" y="-29" font-family="Helvetica,sans-Serif" font-size="10.00">Interface&lt; LayoutLoader, LayoutDummy,</text>
<text text-anchor="start" x="8" y="-18" font-family="Helvetica,sans-Serif" font-size="10.00"> std::list&lt; Placeholder&lt; 0 &gt; &gt;, Threading</text>
<text text-anchor="middle" x="114" y="-7" font-family="Helvetica,sans-Serif" font-size="10.00">::GlobalStorage &gt; &gt; &gt; &gt;</text>
</a>
</g>
</g>
<!-- Node1 -->
<g id="node2" class="node">
<title>Node1</title>
<g id="a_node2"><a xlink:href="struct_engine_1_1_resources_1_1_resource_loader.html" target="_top" xlink:title=" ">
<polygon fill="white" stroke="#666666" points="422,-63 264,-63 264,-22 422,-22 422,-63"/>
<text text-anchor="start" x="272" y="-51" font-family="Helvetica,sans-Serif" font-size="10.00">Engine::Resources::</text>
<text text-anchor="start" x="272" y="-40" font-family="Helvetica,sans-Serif" font-size="10.00">ResourceLoader&lt; LayoutLoader,</text>
<text text-anchor="middle" x="343" y="-29" font-family="Helvetica,sans-Serif" font-size="10.00"> LayoutDummy &gt;</text>
</a>
</g>
</g>
<!-- Node0&#45;&gt;Node1 -->
<g id="edge1" class="edge">
<title>Node0&#45;&gt;Node1</title>
<path fill="none" stroke="#63b8ff" d="M239.88,-42.5C247.9,-42.5 255.85,-42.5 263.56,-42.5"/>
<polygon fill="#63b8ff" stroke="#63b8ff" points="240.01,-39 230.01,-42.5 240.01,-46 240.01,-39"/>
</g>
<!-- Node2 -->
<g id="node3" class="node">
<title>Node2</title>
<g id="a_node3"><a xlink:href="struct_engine_1_1_window_1_1_layout_loader.html" target="_top" xlink:title=" ">
<polygon fill="white" stroke="#666666" points="607,-52 458,-52 458,-33 607,-33 607,-52"/>
<text text-anchor="middle" x="532.5" y="-40" font-family="Helvetica,sans-Serif" font-size="10.00">Engine::Window::LayoutLoader</text>
</a>
</g>
</g>
<!-- Node1&#45;&gt;Node2 -->
<g id="edge2" class="edge">
<title>Node1&#45;&gt;Node2</title>
<path fill="none" stroke="#63b8ff" d="M433.69,-42.5C441.69,-42.5 449.73,-42.5 457.58,-42.5"/>
<polygon fill="#63b8ff" stroke="#63b8ff" points="433.94,-39 423.94,-42.5 433.94,-46 433.94,-39"/>
</g>
</g>
</svg>
