<?xml version="1.0" encoding="UTF-8" standalone="no"?>
<!DOCTYPE svg PUBLIC "-//W3C//DTD SVG 1.1//EN"
 "http://www.w3.org/Graphics/SVG/1.1/DTD/svg11.dtd">
<!-- Generated by graphviz version 7.0.5 (20221223.1930)
 -->
<!-- Title: Graphical Class Hierarchy Pages: 1 -->
<svg width="510pt" height="340pt"
 viewBox="0.00 0.00 510.00 340.00" xmlns="http://www.w3.org/2000/svg" xmlns:xlink="http://www.w3.org/1999/xlink">
<g id="graph0" class="graph" transform="scale(1 1) rotate(0) translate(4 336)">
<title>Graphical Class Hierarchy</title>
<!-- Node0 -->
<g id="node1" class="node">
<title>Node0</title>
<g id="a_node1"><a xlink:href="struct_engine_1_1_atomic_container_operation_base.html" target="_top" xlink:title=" ">
<polygon fill="white" stroke="#666666" points="164,-181 0,-181 0,-151 164,-151 164,-181"/>
<text text-anchor="start" x="8" y="-169" font-family="Helvetica,sans-Serif" font-size="10.00">Engine::AtomicContainerOperation</text>
<text text-anchor="middle" x="82" y="-158" font-family="Helvetica,sans-Serif" font-size="10.00">Base&lt; container &gt;</text>
</a>
</g>
</g>
<!-- Node1 -->
<g id="node2" class="node">
<title>Node1</title>
<g id="a_node2"><a xlink:href="struct_engine_1_1_serialize_1_1_serializable_container_impl_1_1_operation.html" target="_top" xlink:title=" ">
<polygon fill="white" stroke="#666666" points="326,-192 200,-192 200,-140 326,-140 326,-192"/>
<text text-anchor="start" x="208" y="-180" font-family="Helvetica,sans-Serif" font-size="10.00">Engine::Serialize::</text>
<text text-anchor="start" x="208" y="-169" font-family="Helvetica,sans-Serif" font-size="10.00">SerializableContainerImpl</text>
<text text-anchor="start" x="208" y="-158" font-family="Helvetica,sans-Serif" font-size="10.00">&lt; C, Observer, OffsetPtr</text>
<text text-anchor="middle" x="263" y="-147" font-family="Helvetica,sans-Serif" font-size="10.00"> &gt;::Operation</text>
</a>
</g>
</g>
<!-- Node0&#45;&gt;Node1 -->
<g id="edge1" class="edge">
<title>Node0&#45;&gt;Node1</title>
<path fill="none" stroke="#63b8ff" d="M175.77,-166C183.83,-166 191.86,-166 199.58,-166"/>
<polygon fill="#63b8ff" stroke="#63b8ff" points="175.9,-162.5 165.9,-166 175.9,-169.5 175.9,-162.5"/>
</g>
<!-- Node2 -->
<g id="node3" class="node">
<title>Node2</title>
<g id="a_node3"><a xlink:href="struct_engine_1_1_serialize_1_1_serializable_container_impl_1_1___insert_operation.html" target="_top" xlink:title=" ">
<polygon fill="white" stroke="#666666" points="495,-332 369,-332 369,-280 495,-280 495,-332"/>
<text text-anchor="start" x="377" y="-320" font-family="Helvetica,sans-Serif" font-size="10.00">Engine::Serialize::</text>
<text text-anchor="start" x="377" y="-309" font-family="Helvetica,sans-Serif" font-size="10.00">SerializableContainerImpl</text>
<text text-anchor="start" x="377" y="-298" font-family="Helvetica,sans-Serif" font-size="10.00">&lt; C, Observer, OffsetPtr</text>
<text text-anchor="middle" x="432" y="-287" font-family="Helvetica,sans-Serif" font-size="10.00"> &gt;::_InsertOperation</text>
</a>
</g>
</g>
<!-- Node1&#45;&gt;Node2 -->
<g id="edge2" class="edge">
<title>Node1&#45;&gt;Node2</title>
<path fill="none" stroke="#63b8ff" d="M291.17,-200.9C309.51,-222.9 335.2,-250.85 362,-271 365.97,-273.99 370.24,-276.84 374.63,-279.54"/>
<polygon fill="#63b8ff" stroke="#63b8ff" points="294.02,-198.86 284.98,-193.35 288.61,-203.3 294.02,-198.86"/>
</g>
<!-- Node3 -->
<g id="node4" class="node">
<title>Node3</title>
<g id="a_node4"><a xlink:href="struct_engine_1_1_serialize_1_1_serializable_container_impl_1_1___multi_insert_operation.html" target="_top" xlink:title=" ">
<polygon fill="white" stroke="#666666" points="495,-262 369,-262 369,-210 495,-210 495,-262"/>
<text text-anchor="start" x="377" y="-250" font-family="Helvetica,sans-Serif" font-size="10.00">Engine::Serialize::</text>
<text text-anchor="start" x="377" y="-239" font-family="Helvetica,sans-Serif" font-size="10.00">SerializableContainerImpl</text>
<text text-anchor="start" x="377" y="-228" font-family="Helvetica,sans-Serif" font-size="10.00">&lt; C, Observer, OffsetPtr</text>
<text text-anchor="middle" x="432" y="-217" font-family="Helvetica,sans-Serif" font-size="10.00"> &gt;::_MultiInsertOperation</text>
</a>
</g>
</g>
<!-- Node1&#45;&gt;Node3 -->
<g id="edge3" class="edge">
<title>Node1&#45;&gt;Node3</title>
<path fill="none" stroke="#63b8ff" d="M336.75,-196.49C347.42,-200.97 358.33,-205.54 368.76,-209.91"/>
<polygon fill="#63b8ff" stroke="#63b8ff" points="338.16,-193.29 327.58,-192.65 335.45,-199.74 338.16,-193.29"/>
</g>
<!-- Node4 -->
<g id="node5" class="node">
<title>Node4</title>
<g id="a_node5"><a xlink:href="struct_engine_1_1_serialize_1_1_serializable_container_impl_1_1___remove_operation.html" target="_top" xlink:title=" ">
<polygon fill="white" stroke="#666666" points="495,-192 369,-192 369,-140 495,-140 495,-192"/>
<text text-anchor="start" x="377" y="-180" font-family="Helvetica,sans-Serif" font-size="10.00">Engine::Serialize::</text>
<text text-anchor="start" x="377" y="-169" font-family="Helvetica,sans-Serif" font-size="10.00">SerializableContainerImpl</text>
<text text-anchor="start" x="377" y="-158" font-family="Helvetica,sans-Serif" font-size="10.00">&lt; C, Observer, OffsetPtr</text>
<text text-anchor="middle" x="432" y="-147" font-family="Helvetica,sans-Serif" font-size="10.00"> &gt;::_RemoveOperation</text>
</a>
</g>
</g>
<!-- Node1&#45;&gt;Node4 -->
<g id="edge4" class="edge">
<title>Node1&#45;&gt;Node4</title>
<path fill="none" stroke="#63b8ff" d="M337.42,-166C347.87,-166 358.55,-166 368.76,-166"/>
<polygon fill="#63b8ff" stroke="#63b8ff" points="337.7,-162.5 327.7,-166 337.7,-169.5 337.7,-162.5"/>
</g>
<!-- Node5 -->
<g id="node6" class="node">
<title>Node5</title>
<g id="a_node6"><a xlink:href="struct_engine_1_1_serialize_1_1_serializable_container_impl_1_1___remove_range_operation.html" target="_top" xlink:title=" ">
<polygon fill="white" stroke="#666666" points="502,-122 362,-122 362,-70 502,-70 502,-122"/>
<text text-anchor="start" x="370" y="-110" font-family="Helvetica,sans-Serif" font-size="10.00">Engine::Serialize::</text>
<text text-anchor="start" x="370" y="-99" font-family="Helvetica,sans-Serif" font-size="10.00">SerializableContainerImpl</text>
<text text-anchor="start" x="370" y="-88" font-family="Helvetica,sans-Serif" font-size="10.00">&lt; C, Observer, OffsetPtr</text>
<text text-anchor="middle" x="432" y="-77" font-family="Helvetica,sans-Serif" font-size="10.00"> &gt;::_RemoveRangeOperation</text>
</a>
</g>
</g>
<!-- Node1&#45;&gt;Node5 -->
<g id="edge5" class="edge">
<title>Node1&#45;&gt;Node5</title>
<path fill="none" stroke="#63b8ff" d="M336.54,-135.6C346.99,-131.21 357.68,-126.73 367.93,-122.44"/>
<polygon fill="#63b8ff" stroke="#63b8ff" points="335.45,-132.26 327.58,-139.35 338.16,-138.71 335.45,-132.26"/>
</g>
<!-- Node6 -->
<g id="node7" class="node">
<title>Node6</title>
<g id="a_node7"><a xlink:href="struct_engine_1_1_serialize_1_1_serializable_container_impl_1_1___reset_operation.html" target="_top" xlink:title=" ">
<polygon fill="white" stroke="#666666" points="495,-52 369,-52 369,0 495,0 495,-52"/>
<text text-anchor="start" x="377" y="-40" font-family="Helvetica,sans-Serif" font-size="10.00">Engine::Serialize::</text>
<text text-anchor="start" x="377" y="-29" font-family="Helvetica,sans-Serif" font-size="10.00">SerializableContainerImpl</text>
<text text-anchor="start" x="377" y="-18" font-family="Helvetica,sans-Serif" font-size="10.00">&lt; C, Observer, OffsetPtr</text>
<text text-anchor="middle" x="432" y="-7" font-family="Helvetica,sans-Serif" font-size="10.00"> &gt;::_ResetOperation</text>
</a>
</g>
</g>
<!-- Node1&#45;&gt;Node6 -->
<g id="edge6" class="edge">
<title>Node1&#45;&gt;Node6</title>
<path fill="none" stroke="#63b8ff" d="M291.17,-131.1C309.51,-109.1 335.2,-81.15 362,-61 365.97,-58.01 370.24,-55.16 374.63,-52.46"/>
<polygon fill="#63b8ff" stroke="#63b8ff" points="288.61,-128.7 284.98,-138.65 294.02,-133.14 288.61,-128.7"/>
</g>
</g>
</svg>
