<?xml version="1.0" encoding="UTF-8" standalone="no"?>
<!DOCTYPE svg PUBLIC "-//W3C//DTD SVG 1.1//EN"
 "http://www.w3.org/Graphics/SVG/1.1/DTD/svg11.dtd">
<!-- Generated by graphviz version 7.0.5 (20221223.1930)
 -->
<!-- Title: Graphical Class Hierarchy Pages: 1 -->
<svg width="582pt" height="93pt"
 viewBox="0.00 0.00 582.00 93.00" xmlns="http://www.w3.org/2000/svg" xmlns:xlink="http://www.w3.org/1999/xlink">
<g id="graph0" class="graph" transform="scale(1 1) rotate(0) translate(4 89)">
<title>Graphical Class Hierarchy</title>
<!-- Node0 -->
<g id="node1" class="node">
<title>Node0</title>
<g id="a_node1"><a xlink:title=" ">
<polygon fill="#e0e0e0" stroke="#999999" points="207,-85 0,-85 0,0 207,0 207,-85"/>
<text text-anchor="start" x="8" y="-73" font-family="Helvetica,sans-Serif" font-size="10.00">ResourceLoaderComponent</text>
<text text-anchor="start" x="8" y="-62" font-family="Helvetica,sans-Serif" font-size="10.00">&lt; AtlasLoader, VirtualScope</text>
<text text-anchor="start" x="8" y="-51" font-family="Helvetica,sans-Serif" font-size="10.00">&lt; AtlasLoader, ResourceLoaderImpl</text>
<text text-anchor="start" x="8" y="-40" font-family="Helvetica,sans-Serif" font-size="10.00">&lt; AtlasLoader, PreprocessedUIAtlas,</text>
<text text-anchor="start" x="8" y="-29" font-family="Helvetica,sans-Serif" font-size="10.00"> ResourceLoaderInterface&lt; AtlasLoader,</text>
<text text-anchor="start" x="8" y="-18" font-family="Helvetica,sans-Serif" font-size="10.00"> PreprocessedUIAtlas, std::list&lt; Placeholder</text>
<text text-anchor="middle" x="103.5" y="-7" font-family="Helvetica,sans-Serif" font-size="10.00">&lt; 0 &gt; &gt;, Threading::GlobalStorage &gt; &gt; &gt; &gt;</text>
</a>
</g>
</g>
<!-- Node1 -->
<g id="node2" class="node">
<title>Node1</title>
<g id="a_node2"><a xlink:href="struct_engine_1_1_resources_1_1_resource_loader.html" target="_top" xlink:title=" ">
<polygon fill="white" stroke="#666666" points="395,-63 243,-63 243,-22 395,-22 395,-63"/>
<text text-anchor="start" x="251" y="-51" font-family="Helvetica,sans-Serif" font-size="10.00">Engine::Resources::</text>
<text text-anchor="start" x="251" y="-40" font-family="Helvetica,sans-Serif" font-size="10.00">ResourceLoader&lt; AtlasLoader,</text>
<text text-anchor="middle" x="319" y="-29" font-family="Helvetica,sans-Serif" font-size="10.00"> PreprocessedUIAtlas &gt;</text>
</a>
</g>
</g>
<!-- Node0&#45;&gt;Node1 -->
<g id="edge1" class="edge">
<title>Node0&#45;&gt;Node1</title>
<path fill="none" stroke="#63b8ff" d="M218.87,-42.5C226.9,-42.5 234.88,-42.5 242.61,-42.5"/>
<polygon fill="#63b8ff" stroke="#63b8ff" points="219.01,-39 209.01,-42.5 219.01,-46 219.01,-39"/>
</g>
<!-- Node2 -->
<g id="node3" class="node">
<title>Node2</title>
<g id="a_node3"><a xlink:href="struct_engine_1_1_widgets_1_1_atlas_loader.html" target="_top" xlink:title=" ">
<polygon fill="white" stroke="#666666" points="574,-52 431,-52 431,-33 574,-33 574,-52"/>
<text text-anchor="middle" x="502.5" y="-40" font-family="Helvetica,sans-Serif" font-size="10.00">Engine::Widgets::AtlasLoader</text>
</a>
</g>
</g>
<!-- Node1&#45;&gt;Node2 -->
<g id="edge2" class="edge">
<title>Node1&#45;&gt;Node2</title>
<path fill="none" stroke="#63b8ff" d="M406.71,-42.5C414.75,-42.5 422.83,-42.5 430.7,-42.5"/>
<polygon fill="#63b8ff" stroke="#63b8ff" points="406.91,-39 396.91,-42.5 406.91,-46 406.91,-39"/>
</g>
</g>
</svg>
