<?xml version="1.0" encoding="UTF-8" standalone="no"?>
<!DOCTYPE svg PUBLIC "-//W3C//DTD SVG 1.1//EN"
 "http://www.w3.org/Graphics/SVG/1.1/DTD/svg11.dtd">
<!-- Generated by graphviz version 7.0.5 (20221223.1930)
 -->
<!-- Title: Graphical Class Hierarchy Pages: 1 -->
<svg width="277pt" height="290pt"
 viewBox="0.00 0.00 277.00 289.50" xmlns="http://www.w3.org/2000/svg" xmlns:xlink="http://www.w3.org/1999/xlink">
<g id="graph0" class="graph" transform="scale(1 1) rotate(0) translate(4 285.5)">
<title>Graphical Class Hierarchy</title>
<!-- Node0 -->
<g id="node1" class="node">
<title>Node0</title>
<g id="a_node1"><a xlink:title=" ">
<polygon fill="#e0e0e0" stroke="#999999" points="79,-156 0,-156 0,-137 79,-137 79,-156"/>
<text text-anchor="middle" x="39.5" y="-144" font-family="Helvetica,sans-Serif" font-size="10.00">std::false_type</text>
</a>
</g>
</g>
<!-- Node1 -->
<g id="node2" class="node">
<title>Node1</title>
<g id="a_node2"><a xlink:href="struct_engine_1_1_threading_1_1is__task.html" target="_top" xlink:title=" ">
<polygon fill="white" stroke="#666666" points="245.5,-281.5 138.5,-281.5 138.5,-251.5 245.5,-251.5 245.5,-281.5"/>
<text text-anchor="start" x="146.5" y="-269.5" font-family="Helvetica,sans-Serif" font-size="10.00">Engine::Threading::</text>
<text text-anchor="middle" x="192" y="-258.5" font-family="Helvetica,sans-Serif" font-size="10.00">is_task&lt; typename &gt;</text>
</a>
</g>
</g>
<!-- Node0&#45;&gt;Node1 -->
<g id="edge1" class="edge">
<title>Node0&#45;&gt;Node1</title>
<path fill="none" stroke="#63b8ff" d="M50.98,-166.31C63.45,-188.04 86.25,-222.48 115,-242.5 122.04,-247.4 130.13,-251.34 138.34,-254.49"/>
<polygon fill="#63b8ff" stroke="#63b8ff" points="54.05,-164.64 46.16,-157.57 47.93,-168.02 54.05,-164.64"/>
</g>
<!-- Node2 -->
<g id="node3" class="node">
<title>Node2</title>
<g id="a_node3"><a xlink:href="struct_engine_1_1is__instance.html" target="_top" xlink:title=" ">
<polygon fill="white" stroke="#666666" points="253,-233.5 131,-233.5 131,-203.5 253,-203.5 253,-233.5"/>
<text text-anchor="start" x="139" y="-221.5" font-family="Helvetica,sans-Serif" font-size="10.00">Engine::is_instance</text>
<text text-anchor="middle" x="192" y="-210.5" font-family="Helvetica,sans-Serif" font-size="10.00">&lt; typename, typename &gt;</text>
</a>
</g>
</g>
<!-- Node0&#45;&gt;Node2 -->
<g id="edge2" class="edge">
<title>Node0&#45;&gt;Node2</title>
<path fill="none" stroke="#63b8ff" d="M62.66,-163.01C77.02,-173.14 96.44,-185.78 115,-194.5 121.64,-197.62 128.78,-200.47 135.95,-203.04"/>
<polygon fill="#63b8ff" stroke="#63b8ff" points="64.99,-160.38 54.83,-157.37 60.9,-166.06 64.99,-160.38"/>
</g>
<!-- Node3 -->
<g id="node4" class="node">
<title>Node3</title>
<g id="a_node4"><a xlink:href="struct_engine_1_1is__instance__auto.html" target="_top" xlink:title=" ">
<polygon fill="white" stroke="#666666" points="265,-185.5 119,-185.5 119,-155.5 265,-155.5 265,-185.5"/>
<text text-anchor="start" x="127" y="-173.5" font-family="Helvetica,sans-Serif" font-size="10.00">Engine::is_instance</text>
<text text-anchor="middle" x="192" y="-162.5" font-family="Helvetica,sans-Serif" font-size="10.00">_auto&lt; typename, typename &gt;</text>
</a>
</g>
</g>
<!-- Node0&#45;&gt;Node3 -->
<g id="edge3" class="edge">
<title>Node0&#45;&gt;Node3</title>
<path fill="none" stroke="#63b8ff" d="M90.43,-154.46C99.53,-155.91 109.18,-157.45 118.77,-158.98"/>
<polygon fill="#63b8ff" stroke="#63b8ff" points="91.18,-151.04 80.75,-152.92 90.08,-157.95 91.18,-151.04"/>
</g>
<!-- Node4 -->
<g id="node5" class="node">
<title>Node4</title>
<g id="a_node5"><a xlink:href="struct_engine_1_1is__instance__auto1.html" target="_top" xlink:title=" ">
<polygon fill="white" stroke="#666666" points="268,-137.5 116,-137.5 116,-107.5 268,-107.5 268,-137.5"/>
<text text-anchor="start" x="124" y="-125.5" font-family="Helvetica,sans-Serif" font-size="10.00">Engine::is_instance</text>
<text text-anchor="middle" x="192" y="-114.5" font-family="Helvetica,sans-Serif" font-size="10.00">_auto1&lt; typename, typename &gt;</text>
</a>
</g>
</g>
<!-- Node0&#45;&gt;Node4 -->
<g id="edge4" class="edge">
<title>Node0&#45;&gt;Node4</title>
<path fill="none" stroke="#63b8ff" d="M90.36,-138.55C98.45,-137.26 106.99,-135.9 115.53,-134.54"/>
<polygon fill="#63b8ff" stroke="#63b8ff" points="90.08,-135.05 80.75,-140.08 91.18,-141.96 90.08,-135.05"/>
</g>
<!-- Node5 -->
<g id="node6" class="node">
<title>Node5</title>
<g id="a_node6"><a xlink:href="struct_engine_1_1is__instance__auto2.html" target="_top" xlink:title=" ">
<polygon fill="white" stroke="#666666" points="268,-89.5 116,-89.5 116,-59.5 268,-59.5 268,-89.5"/>
<text text-anchor="start" x="124" y="-77.5" font-family="Helvetica,sans-Serif" font-size="10.00">Engine::is_instance</text>
<text text-anchor="middle" x="192" y="-66.5" font-family="Helvetica,sans-Serif" font-size="10.00">_auto2&lt; typename, typename &gt;</text>
</a>
</g>
</g>
<!-- Node0&#45;&gt;Node5 -->
<g id="edge5" class="edge">
<title>Node0&#45;&gt;Node5</title>
<path fill="none" stroke="#63b8ff" d="M62.66,-129.99C77.02,-119.86 96.44,-107.22 115,-98.5 121.64,-95.38 128.78,-92.53 135.95,-89.96"/>
<polygon fill="#63b8ff" stroke="#63b8ff" points="60.9,-126.94 54.83,-135.63 64.99,-132.62 60.9,-126.94"/>
</g>
<!-- Node6 -->
<g id="node7" class="node">
<title>Node6</title>
<g id="a_node7"><a xlink:href="struct_engine_1_1type__pack_3_01_head_00_01_ty_8_8_8_01_4_1_1helpers_1_1is__or__contains.html" target="_top" xlink:title=" ">
<polygon fill="white" stroke="#666666" points="269,-41 115,-41 115,0 269,0 269,-41"/>
<text text-anchor="start" x="123" y="-29" font-family="Helvetica,sans-Serif" font-size="10.00">Engine::type_pack&lt;</text>
<text text-anchor="start" x="123" y="-18" font-family="Helvetica,sans-Serif" font-size="10.00"> Head, Ty... &gt;::helpers</text>
<text text-anchor="middle" x="192" y="-7" font-family="Helvetica,sans-Serif" font-size="10.00">::is_or_contains&lt; typename, T &gt;</text>
</a>
</g>
</g>
<!-- Node0&#45;&gt;Node6 -->
<g id="edge6" class="edge">
<title>Node0&#45;&gt;Node6</title>
<path fill="none" stroke="#63b8ff" d="M51.44,-126.73C64.2,-105.31 87.12,-71.41 115,-50.5 119.43,-47.18 124.27,-44.18 129.29,-41.47"/>
<polygon fill="#63b8ff" stroke="#63b8ff" points="48.44,-124.93 46.49,-135.34 54.51,-128.42 48.44,-124.93"/>
</g>
</g>
</svg>
