<?xml version="1.0" encoding="UTF-8" standalone="no"?>
<!DOCTYPE svg PUBLIC "-//W3C//DTD SVG 1.1//EN"
 "http://www.w3.org/Graphics/SVG/1.1/DTD/svg11.dtd">
<!-- Generated by graphviz version 7.0.5 (20221223.1930)
 -->
<!-- Title: Graphical Class Hierarchy Pages: 1 -->
<svg width="385pt" height="1355pt"
 viewBox="0.00 0.00 385.00 1354.50" xmlns="http://www.w3.org/2000/svg" xmlns:xlink="http://www.w3.org/1999/xlink">
<g id="graph0" class="graph" transform="scale(1 1) rotate(0) translate(4 1350.5)">
<title>Graphical Class Hierarchy</title>
<!-- Node0 -->
<g id="node1" class="node">
<title>Node0</title>
<g id="a_node1"><a xlink:title=" ">
<polygon fill="#e0e0e0" stroke="#999999" points="102,-600 0,-600 0,-581 102,-581 102,-600"/>
<text text-anchor="middle" x="51" y="-588" font-family="Helvetica,sans-Serif" font-size="10.00">std::unique_ptr&lt; T &gt;</text>
</a>
</g>
</g>
<!-- Node1 -->
<g id="node2" class="node">
<title>Node1</title>
<g id="a_node2"><a xlink:href="struct_engine_1_1_render_1_1_vulkan_ptr.html" target="_top" xlink:title=" ">
<polygon fill="white" stroke="#666666" points="336,-1346.5 179,-1346.5 179,-1316.5 336,-1316.5 336,-1346.5"/>
<text text-anchor="start" x="187" y="-1334.5" font-family="Helvetica,sans-Serif" font-size="10.00">Engine::Render::VulkanPtr</text>
<text text-anchor="middle" x="257.5" y="-1323.5" font-family="Helvetica,sans-Serif" font-size="10.00">&lt; VkInstance, destroyInstance &gt;</text>
</a>
</g>
</g>
<!-- Node0&#45;&gt;Node1 -->
<g id="edge1" class="edge">
<title>Node0&#45;&gt;Node1</title>
<path fill="none" stroke="#63b8ff" d="M53.09,-611.79C59.06,-725.17 89.45,-1254.87 138,-1307.5 148.68,-1319.07 163.27,-1325.92 178.56,-1329.83"/>
<polygon fill="#63b8ff" stroke="#63b8ff" points="56.58,-611.65 52.57,-601.85 49.59,-612.01 56.58,-611.65"/>
</g>
<!-- Node2 -->
<g id="node3" class="node">
<title>Node2</title>
<g id="a_node3"><a xlink:href="struct_engine_1_1_render_1_1_vulkan_ptr.html" target="_top" xlink:title=" ">
<polygon fill="white" stroke="#666666" points="350.5,-1298.5 164.5,-1298.5 164.5,-1268.5 350.5,-1268.5 350.5,-1298.5"/>
<text text-anchor="start" x="172.5" y="-1286.5" font-family="Helvetica,sans-Serif" font-size="10.00">Engine::Render::VulkanPtr</text>
<text text-anchor="middle" x="257.5" y="-1275.5" font-family="Helvetica,sans-Serif" font-size="10.00">&lt; VkDeviceMemory, &amp;vkFreeMemory &gt;</text>
</a>
</g>
</g>
<!-- Node0&#45;&gt;Node2 -->
<g id="edge2" class="edge">
<title>Node0&#45;&gt;Node2</title>
<path fill="none" stroke="#63b8ff" d="M51.56,-611.48C49.85,-714.14 47.73,-1162.49 138,-1259.5 145.29,-1267.34 154.38,-1273 164.26,-1277.05"/>
<polygon fill="#63b8ff" stroke="#63b8ff" points="55.05,-611.84 51.74,-601.77 48.05,-611.71 55.05,-611.84"/>
</g>
<!-- Node3 -->
<g id="node4" class="node">
<title>Node3</title>
<g id="a_node4"><a xlink:href="struct_engine_1_1_render_1_1_vulkan_ptr.html" target="_top" xlink:title=" ">
<polygon fill="white" stroke="#666666" points="333.5,-1250.5 181.5,-1250.5 181.5,-1220.5 333.5,-1220.5 333.5,-1250.5"/>
<text text-anchor="start" x="189.5" y="-1238.5" font-family="Helvetica,sans-Serif" font-size="10.00">Engine::Render::VulkanPtr</text>
<text text-anchor="middle" x="257.5" y="-1227.5" font-family="Helvetica,sans-Serif" font-size="10.00">&lt; VkBuffer, &amp;vkDestroyBuffer &gt;</text>
</a>
</g>
</g>
<!-- Node0&#45;&gt;Node3 -->
<g id="edge3" class="edge">
<title>Node0&#45;&gt;Node3</title>
<path fill="none" stroke="#63b8ff" d="M51.79,-611.82C51.26,-710.54 54.19,-1122.3 138,-1211.5 149.36,-1223.58 164.99,-1230.5 181.17,-1234.28"/>
<polygon fill="#63b8ff" stroke="#63b8ff" points="55.29,-612.01 51.86,-601.98 48.29,-611.96 55.29,-612.01"/>
</g>
<!-- Node4 -->
<g id="node5" class="node">
<title>Node4</title>
<g id="a_node5"><a xlink:href="struct_engine_1_1_render_1_1_vulkan_ptr.html" target="_top" xlink:title=" ">
<polygon fill="white" stroke="#666666" points="357.5,-1202.5 157.5,-1202.5 157.5,-1172.5 357.5,-1172.5 357.5,-1202.5"/>
<text text-anchor="start" x="165.5" y="-1190.5" font-family="Helvetica,sans-Serif" font-size="10.00">Engine::Render::VulkanPtr</text>
<text text-anchor="middle" x="257.5" y="-1179.5" font-family="Helvetica,sans-Serif" font-size="10.00">&lt; VkSemaphore, &amp;vkDestroySemaphore &gt;</text>
</a>
</g>
</g>
<!-- Node0&#45;&gt;Node4 -->
<g id="edge4" class="edge">
<title>Node0&#45;&gt;Node4</title>
<path fill="none" stroke="#63b8ff" d="M52.06,-611.62C52.77,-705.27 60.48,-1081.93 138,-1163.5 143.49,-1169.28 149.97,-1173.88 157.01,-1177.51"/>
<polygon fill="#63b8ff" stroke="#63b8ff" points="55.56,-611.63 52.01,-601.65 48.56,-611.67 55.56,-611.63"/>
</g>
<!-- Node5 -->
<g id="node6" class="node">
<title>Node5</title>
<g id="a_node6"><a xlink:href="struct_engine_1_1_render_1_1_vulkan_ptr.html" target="_top" xlink:title=" ">
<polygon fill="white" stroke="#666666" points="335.5,-1154 179.5,-1154 179.5,-1113 335.5,-1113 335.5,-1154"/>
<text text-anchor="start" x="187.5" y="-1142" font-family="Helvetica,sans-Serif" font-size="10.00">Engine::Render::VulkanPtr</text>
<text text-anchor="start" x="187.5" y="-1131" font-family="Helvetica,sans-Serif" font-size="10.00">&lt; VkDescriptorPool, &amp;vkDestroy</text>
<text text-anchor="middle" x="257.5" y="-1120" font-family="Helvetica,sans-Serif" font-size="10.00">DescriptorPool &gt;</text>
</a>
</g>
</g>
<!-- Node0&#45;&gt;Node5 -->
<g id="edge5" class="edge">
<title>Node0&#45;&gt;Node5</title>
<path fill="none" stroke="#63b8ff" d="M52.54,-611.57C55.2,-698.86 69.72,-1030.95 138,-1104.5 148.88,-1116.22 163.65,-1123.55 179.07,-1128.06"/>
<polygon fill="#63b8ff" stroke="#63b8ff" points="56.04,-611.74 52.26,-601.84 49.05,-611.94 56.04,-611.74"/>
</g>
<!-- Node6 -->
<g id="node7" class="node">
<title>Node6</title>
<g id="a_node7"><a xlink:href="struct_engine_1_1_render_1_1_vulkan_ptr.html" target="_top" xlink:title=" ">
<polygon fill="white" stroke="#666666" points="357.5,-1095 157.5,-1095 157.5,-1054 357.5,-1054 357.5,-1095"/>
<text text-anchor="start" x="165.5" y="-1083" font-family="Helvetica,sans-Serif" font-size="10.00">Engine::Render::VulkanPtr</text>
<text text-anchor="start" x="165.5" y="-1072" font-family="Helvetica,sans-Serif" font-size="10.00">&lt; VkCommandPool, &amp;vkDestroyCommand</text>
<text text-anchor="middle" x="257.5" y="-1061" font-family="Helvetica,sans-Serif" font-size="10.00">Pool &gt;</text>
</a>
</g>
</g>
<!-- Node0&#45;&gt;Node6 -->
<g id="edge6" class="edge">
<title>Node0&#45;&gt;Node6</title>
<path fill="none" stroke="#63b8ff" d="M53.04,-611.69C57.46,-692.69 77.29,-981.47 138,-1045.5 143.54,-1051.34 150.04,-1056.09 157.1,-1059.93"/>
<polygon fill="#63b8ff" stroke="#63b8ff" points="56.55,-611.67 52.53,-601.86 49.56,-612.03 56.55,-611.67"/>
</g>
<!-- Node7 -->
<g id="node8" class="node">
<title>Node7</title>
<g id="a_node8"><a xlink:href="struct_engine_1_1_render_1_1_vulkan_ptr.html" target="_top" xlink:title=" ">
<polygon fill="white" stroke="#666666" points="340.5,-1036 174.5,-1036 174.5,-995 340.5,-995 340.5,-1036"/>
<text text-anchor="start" x="182.5" y="-1024" font-family="Helvetica,sans-Serif" font-size="10.00">Engine::Render::VulkanPtr</text>
<text text-anchor="start" x="182.5" y="-1013" font-family="Helvetica,sans-Serif" font-size="10.00">&lt; VkDescriptorSetLayout,</text>
<text text-anchor="middle" x="257.5" y="-1002" font-family="Helvetica,sans-Serif" font-size="10.00"> &amp;vkDestroyDescriptorSetLayout &gt;</text>
</a>
</g>
</g>
<!-- Node0&#45;&gt;Node7 -->
<g id="edge7" class="edge">
<title>Node0&#45;&gt;Node7</title>
<path fill="none" stroke="#63b8ff" d="M53.68,-611.52C59.99,-685.42 84.75,-931.84 138,-986.5 147.9,-996.66 160.74,-1003.5 174.29,-1008.04"/>
<polygon fill="#63b8ff" stroke="#63b8ff" points="57.2,-611.68 52.89,-602 50.22,-612.26 57.2,-611.68"/>
</g>
<!-- Node8 -->
<g id="node9" class="node">
<title>Node8</title>
<g id="a_node9"><a xlink:href="struct_engine_1_1_render_1_1_vulkan_ptr.html" target="_top" xlink:title=" ">
<polygon fill="white" stroke="#666666" points="335.5,-977 179.5,-977 179.5,-936 335.5,-936 335.5,-977"/>
<text text-anchor="start" x="187.5" y="-965" font-family="Helvetica,sans-Serif" font-size="10.00">Engine::Render::VulkanPtr</text>
<text text-anchor="start" x="187.5" y="-954" font-family="Helvetica,sans-Serif" font-size="10.00">&lt; VkPipelineLayout, &amp;vkDestroy</text>
<text text-anchor="middle" x="257.5" y="-943" font-family="Helvetica,sans-Serif" font-size="10.00">PipelineLayout &gt;</text>
</a>
</g>
</g>
<!-- Node0&#45;&gt;Node8 -->
<g id="edge8" class="edge">
<title>Node0&#45;&gt;Node8</title>
<path fill="none" stroke="#63b8ff" d="M54.59,-611.66C63.13,-678.15 92.54,-881.15 138,-926.5 149.19,-937.66 163.91,-944.87 179.15,-949.48"/>
<polygon fill="#63b8ff" stroke="#63b8ff" points="58.06,-611.26 53.35,-601.77 51.12,-612.13 58.06,-611.26"/>
</g>
<!-- Node9 -->
<g id="node10" class="node">
<title>Node9</title>
<g id="a_node10"><a xlink:href="struct_engine_1_1_render_1_1_vulkan_ptr.html" target="_top" xlink:title=" ">
<polygon fill="white" stroke="#666666" points="344,-917.5 171,-917.5 171,-887.5 344,-887.5 344,-917.5"/>
<text text-anchor="start" x="179" y="-905.5" font-family="Helvetica,sans-Serif" font-size="10.00">Engine::Render::VulkanPtr</text>
<text text-anchor="middle" x="257.5" y="-894.5" font-family="Helvetica,sans-Serif" font-size="10.00">&lt; VkSampler, &amp;vkDestroySampler &gt;</text>
</a>
</g>
</g>
<!-- Node0&#45;&gt;Node9 -->
<g id="edge9" class="edge">
<title>Node0&#45;&gt;Node9</title>
<path fill="none" stroke="#63b8ff" d="M51.48,-611.58C51.38,-664.95 58.99,-806.32 138,-878.5 147.22,-886.92 158.56,-892.73 170.53,-896.68"/>
<polygon fill="#63b8ff" stroke="#63b8ff" points="54.97,-611.81 51.6,-601.77 47.97,-611.72 54.97,-611.81"/>
</g>
<!-- Node10 -->
<g id="node11" class="node">
<title>Node10</title>
<g id="a_node11"><a xlink:href="struct_engine_1_1_render_1_1_vulkan_ptr.html" target="_top" xlink:title=" ">
<polygon fill="white" stroke="#666666" points="345.5,-869 169.5,-869 169.5,-828 345.5,-828 345.5,-869"/>
<text text-anchor="start" x="177.5" y="-857" font-family="Helvetica,sans-Serif" font-size="10.00">Engine::Render::VulkanPtr</text>
<text text-anchor="start" x="177.5" y="-846" font-family="Helvetica,sans-Serif" font-size="10.00">&lt; VkRenderPass, &amp;vkDestroyRender</text>
<text text-anchor="middle" x="257.5" y="-835" font-family="Helvetica,sans-Serif" font-size="10.00">Pass &gt;</text>
</a>
</g>
</g>
<!-- Node0&#45;&gt;Node10 -->
<g id="edge10" class="edge">
<title>Node0&#45;&gt;Node10</title>
<path fill="none" stroke="#63b8ff" d="M53.59,-611.43C58.17,-656.38 75.4,-762.58 138,-818.5 146.94,-826.49 157.71,-832.41 169.06,-836.79"/>
<polygon fill="#63b8ff" stroke="#63b8ff" points="57.08,-611.18 52.71,-601.53 50.11,-611.8 57.08,-611.18"/>
</g>
<!-- Node11 -->
<g id="node12" class="node">
<title>Node11</title>
<g id="a_node12"><a xlink:href="struct_engine_1_1_render_1_1_vulkan_ptr.html" target="_top" xlink:title=" ">
<polygon fill="white" stroke="#666666" points="359.5,-809.5 155.5,-809.5 155.5,-779.5 359.5,-779.5 359.5,-809.5"/>
<text text-anchor="start" x="163.5" y="-797.5" font-family="Helvetica,sans-Serif" font-size="10.00">Engine::Render::VulkanPtr</text>
<text text-anchor="middle" x="257.5" y="-786.5" font-family="Helvetica,sans-Serif" font-size="10.00">&lt; VkFramebuffer, &amp;vkDestroyFramebuffer &gt;</text>
</a>
</g>
</g>
<!-- Node0&#45;&gt;Node11 -->
<g id="edge11" class="edge">
<title>Node0&#45;&gt;Node11</title>
<path fill="none" stroke="#63b8ff" d="M55.68,-611.33C63.56,-649.33 85.74,-729.74 138,-770.5 143.3,-774.63 149.12,-778.1 155.26,-781.02"/>
<polygon fill="#63b8ff" stroke="#63b8ff" points="59.15,-610.83 53.83,-601.68 52.28,-612.16 59.15,-610.83"/>
</g>
<!-- Node12 -->
<g id="node13" class="node">
<title>Node12</title>
<g id="a_node13"><a xlink:href="struct_engine_1_1_render_1_1_vulkan_ptr.html" target="_top" xlink:title=" ">
<polygon fill="white" stroke="#666666" points="362.5,-761.5 152.5,-761.5 152.5,-731.5 362.5,-731.5 362.5,-761.5"/>
<text text-anchor="start" x="160.5" y="-749.5" font-family="Helvetica,sans-Serif" font-size="10.00">Engine::Render::VulkanPtr</text>
<text text-anchor="middle" x="257.5" y="-738.5" font-family="Helvetica,sans-Serif" font-size="10.00">&lt; VkSurfaceKHR, &amp;vkDestroySurfaceKHR &gt;</text>
</a>
</g>
</g>
<!-- Node0&#45;&gt;Node12 -->
<g id="edge12" class="edge">
<title>Node0&#45;&gt;Node12</title>
<path fill="none" stroke="#63b8ff" d="M59.44,-611.09C71.25,-640.71 97.23,-694.81 138,-722.5 142.78,-725.74 147.89,-728.57 153.22,-731.02"/>
<polygon fill="#63b8ff" stroke="#63b8ff" points="62.72,-609.89 55.9,-601.79 56.18,-612.38 62.72,-609.89"/>
</g>
<!-- Node13 -->
<g id="node14" class="node">
<title>Node13</title>
<g id="a_node14"><a xlink:href="struct_engine_1_1_render_1_1_vulkan_ptr.html" target="_top" xlink:title=" ">
<polygon fill="white" stroke="#666666" points="377,-713.5 138,-713.5 138,-683.5 377,-683.5 377,-713.5"/>
<text text-anchor="start" x="146" y="-701.5" font-family="Helvetica,sans-Serif" font-size="10.00">Engine::Render::VulkanPtr</text>
<text text-anchor="middle" x="257.5" y="-690.5" font-family="Helvetica,sans-Serif" font-size="10.00">&lt; VkSwapchainKHR, &amp;vkDestroySwapchainKHR &gt;</text>
</a>
</g>
</g>
<!-- Node0&#45;&gt;Node13 -->
<g id="edge13" class="edge">
<title>Node0&#45;&gt;Node13</title>
<path fill="none" stroke="#63b8ff" d="M66,-609.53C81.4,-629.01 108,-658.62 138,-674.5 144.22,-677.79 150.83,-680.63 157.64,-683.08"/>
<polygon fill="#63b8ff" stroke="#63b8ff" points="68.78,-607.41 59.92,-601.59 63.22,-611.66 68.78,-607.41"/>
</g>
<!-- Node14 -->
<g id="node15" class="node">
<title>Node14</title>
<g id="a_node15"><a xlink:href="struct_engine_1_1_render_1_1_vulkan_ptr.html" target="_top" xlink:title=" ">
<polygon fill="white" stroke="#666666" points="341.5,-665 173.5,-665 173.5,-624 341.5,-624 341.5,-665"/>
<text text-anchor="start" x="181.5" y="-653" font-family="Helvetica,sans-Serif" font-size="10.00">Engine::Render::VulkanPtr</text>
<text text-anchor="start" x="181.5" y="-642" font-family="Helvetica,sans-Serif" font-size="10.00">&lt; VkImageView, &amp;vkDestroyImage</text>
<text text-anchor="middle" x="257.5" y="-631" font-family="Helvetica,sans-Serif" font-size="10.00">View &gt;</text>
</a>
</g>
</g>
<!-- Node0&#45;&gt;Node14 -->
<g id="edge14" class="edge">
<title>Node0&#45;&gt;Node14</title>
<path fill="none" stroke="#63b8ff" d="M97.74,-603.49C110.73,-607.11 124.91,-611.02 138,-614.5 149.38,-617.53 161.4,-620.65 173.24,-623.69"/>
<polygon fill="#63b8ff" stroke="#63b8ff" points="98.71,-600.12 88.14,-600.79 96.82,-606.86 98.71,-600.12"/>
</g>
<!-- Node15 -->
<g id="node16" class="node">
<title>Node15</title>
<g id="a_node16"><a xlink:href="struct_release_ptr.html" target="_top" xlink:title=" ">
<polygon fill="white" stroke="#666666" points="332,-605.5 183,-605.5 183,-575.5 332,-575.5 332,-605.5"/>
<text text-anchor="start" x="191" y="-593.5" font-family="Helvetica,sans-Serif" font-size="10.00">ReleasePtr&lt; ID3D12Command</text>
<text text-anchor="middle" x="257.5" y="-582.5" font-family="Helvetica,sans-Serif" font-size="10.00">Queue &gt;</text>
</a>
</g>
</g>
<!-- Node0&#45;&gt;Node15 -->
<g id="edge15" class="edge">
<title>Node0&#45;&gt;Node15</title>
<path fill="none" stroke="#63b8ff" d="M113.71,-590.5C135.47,-590.5 160.16,-590.5 182.81,-590.5"/>
<polygon fill="#63b8ff" stroke="#63b8ff" points="113.8,-587 103.8,-590.5 113.8,-594 113.8,-587"/>
</g>
<!-- Node16 -->
<g id="node17" class="node">
<title>Node16</title>
<g id="a_node17"><a xlink:href="struct_release_ptr.html" target="_top" xlink:title=" ">
<polygon fill="white" stroke="#666666" points="329.5,-557.5 185.5,-557.5 185.5,-527.5 329.5,-527.5 329.5,-557.5"/>
<text text-anchor="start" x="193.5" y="-545.5" font-family="Helvetica,sans-Serif" font-size="10.00">ReleasePtr&lt; ID3D12Graphics</text>
<text text-anchor="middle" x="257.5" y="-534.5" font-family="Helvetica,sans-Serif" font-size="10.00">CommandList &gt;</text>
</a>
</g>
</g>
<!-- Node0&#45;&gt;Node16 -->
<g id="edge16" class="edge">
<title>Node0&#45;&gt;Node16</title>
<path fill="none" stroke="#63b8ff" d="M96.2,-577.51C109.58,-573.75 124.34,-569.78 138,-566.5 153.2,-562.84 169.6,-559.28 185.19,-556.07"/>
<polygon fill="#63b8ff" stroke="#63b8ff" points="95.46,-574.08 86.8,-580.18 97.38,-580.81 95.46,-574.08"/>
</g>
<!-- Node17 -->
<g id="node18" class="node">
<title>Node17</title>
<g id="a_node18"><a xlink:href="struct_release_ptr.html" target="_top" xlink:title=" ">
<polygon fill="white" stroke="#666666" points="332,-509.5 183,-509.5 183,-479.5 332,-479.5 332,-509.5"/>
<text text-anchor="start" x="191" y="-497.5" font-family="Helvetica,sans-Serif" font-size="10.00">ReleasePtr&lt; ID3D12Command</text>
<text text-anchor="middle" x="257.5" y="-486.5" font-family="Helvetica,sans-Serif" font-size="10.00">Allocator &gt;</text>
</a>
</g>
</g>
<!-- Node0&#45;&gt;Node17 -->
<g id="edge17" class="edge">
<title>Node0&#45;&gt;Node17</title>
<path fill="none" stroke="#63b8ff" d="M68.56,-572.18C84.65,-555.55 110.61,-531.68 138,-518.5 151.81,-511.86 167.38,-507.05 182.58,-503.57"/>
<polygon fill="#63b8ff" stroke="#63b8ff" points="66.02,-569.77 61.72,-579.46 71.12,-574.57 66.02,-569.77"/>
</g>
<!-- Node18 -->
<g id="node19" class="node">
<title>Node18</title>
<g id="a_node19"><a xlink:href="struct_release_ptr.html" target="_top" xlink:title=" ">
<polygon fill="white" stroke="#666666" points="332,-461.5 183,-461.5 183,-431.5 332,-431.5 332,-461.5"/>
<text text-anchor="start" x="191" y="-449.5" font-family="Helvetica,sans-Serif" font-size="10.00">ReleasePtr&lt; ID3D12Descriptor</text>
<text text-anchor="middle" x="257.5" y="-438.5" font-family="Helvetica,sans-Serif" font-size="10.00">Heap &gt;</text>
</a>
</g>
</g>
<!-- Node0&#45;&gt;Node18 -->
<g id="edge18" class="edge">
<title>Node0&#45;&gt;Node18</title>
<path fill="none" stroke="#63b8ff" d="M60.5,-570.6C73.19,-543.42 99.78,-495.24 138,-470.5 151.3,-461.89 167.07,-456.27 182.68,-452.63"/>
<polygon fill="#63b8ff" stroke="#63b8ff" points="57.43,-568.9 56.53,-579.45 63.82,-571.76 57.43,-568.9"/>
</g>
<!-- Node19 -->
<g id="node20" class="node">
<title>Node19</title>
<g id="a_node20"><a xlink:href="struct_release_ptr.html" target="_top" xlink:title=" ">
<polygon fill="white" stroke="#666666" points="326,-413 189,-413 189,-394 326,-394 326,-413"/>
<text text-anchor="middle" x="257.5" y="-401" font-family="Helvetica,sans-Serif" font-size="10.00">ReleasePtr&lt; ID3D12Heap &gt;</text>
</a>
</g>
</g>
<!-- Node0&#45;&gt;Node19 -->
<g id="edge19" class="edge">
<title>Node0&#45;&gt;Node19</title>
<path fill="none" stroke="#63b8ff" d="M56.33,-569.33C64.96,-532.92 87.97,-458.85 138,-422.5 152.58,-411.91 170.84,-406.3 188.62,-403.53"/>
<polygon fill="#63b8ff" stroke="#63b8ff" points="52.92,-568.52 54.18,-579.04 59.76,-570.03 52.92,-568.52"/>
</g>
<!-- Node20 -->
<g id="node21" class="node">
<title>Node20</title>
<g id="a_node21"><a xlink:href="struct_release_ptr.html" target="_top" xlink:title=" ">
<polygon fill="white" stroke="#666666" points="335,-376 180,-376 180,-357 335,-357 335,-376"/>
<text text-anchor="middle" x="257.5" y="-364" font-family="Helvetica,sans-Serif" font-size="10.00">ReleasePtr&lt; ID3D12Resource &gt;</text>
</a>
</g>
</g>
<!-- Node0&#45;&gt;Node20 -->
<g id="edge20" class="edge">
<title>Node0&#45;&gt;Node20</title>
<path fill="none" stroke="#63b8ff" d="M54.18,-569.54C59.76,-527.34 78.61,-432.2 138,-385.5 149.96,-376.1 164.73,-370.51 179.74,-367.33"/>
<polygon fill="#63b8ff" stroke="#63b8ff" points="50.72,-568.98 53.02,-579.32 57.67,-569.8 50.72,-568.98"/>
</g>
<!-- Node21 -->
<g id="node22" class="node">
<title>Node21</title>
<g id="a_node22"><a xlink:href="struct_release_ptr.html" target="_top" xlink:title=" ">
<polygon fill="white" stroke="#666666" points="327.5,-338.5 187.5,-338.5 187.5,-308.5 327.5,-308.5 327.5,-338.5"/>
<text text-anchor="start" x="195.5" y="-326.5" font-family="Helvetica,sans-Serif" font-size="10.00">ReleasePtr&lt; ID3D12Pipeline</text>
<text text-anchor="middle" x="257.5" y="-315.5" font-family="Helvetica,sans-Serif" font-size="10.00">State &gt;</text>
</a>
</g>
</g>
<!-- Node0&#45;&gt;Node21 -->
<g id="edge21" class="edge">
<title>Node0&#45;&gt;Node21</title>
<path fill="none" stroke="#63b8ff" d="M52.9,-569.36C56.12,-522.06 70.83,-407.25 138,-348.5 151.61,-336.6 169.45,-329.87 187.14,-326.18"/>
<polygon fill="#63b8ff" stroke="#63b8ff" points="49.42,-568.88 52.36,-579.06 56.41,-569.27 49.42,-568.88"/>
</g>
<!-- Node22 -->
<g id="node23" class="node">
<title>Node22</title>
<g id="a_node23"><a xlink:href="struct_release_ptr.html" target="_top" xlink:title=" ">
<polygon fill="white" stroke="#666666" points="322.5,-290 192.5,-290 192.5,-271 322.5,-271 322.5,-290"/>
<text text-anchor="middle" x="257.5" y="-278" font-family="Helvetica,sans-Serif" font-size="10.00">ReleasePtr&lt; IDxcLibrary &gt;</text>
</a>
</g>
</g>
<!-- Node0&#45;&gt;Node22 -->
<g id="edge22" class="edge">
<title>Node0&#45;&gt;Node22</title>
<path fill="none" stroke="#63b8ff" d="M51.23,-569.36C50.51,-515.25 56.69,-370.99 138,-299.5 152.79,-286.5 172.8,-280.51 192.18,-278.12"/>
<polygon fill="#63b8ff" stroke="#63b8ff" points="47.72,-569.13 51.46,-579.04 54.72,-568.96 47.72,-569.13"/>
</g>
<!-- Node23 -->
<g id="node24" class="node">
<title>Node23</title>
<g id="a_node24"><a xlink:href="struct_release_ptr.html" target="_top" xlink:title=" ">
<polygon fill="white" stroke="#666666" points="329.5,-253 185.5,-253 185.5,-234 329.5,-234 329.5,-253"/>
<text text-anchor="middle" x="257.5" y="-241" font-family="Helvetica,sans-Serif" font-size="10.00">ReleasePtr&lt; IDxcCompiler3 &gt;</text>
</a>
</g>
</g>
<!-- Node0&#45;&gt;Node23 -->
<g id="edge23" class="edge">
<title>Node0&#45;&gt;Node23</title>
<path fill="none" stroke="#63b8ff" d="M54.56,-569.24C62.91,-503.37 91.6,-304.58 138,-262.5 150.89,-250.81 167.97,-244.73 185.15,-241.83"/>
<polygon fill="#63b8ff" stroke="#63b8ff" points="51.1,-568.7 53.34,-579.05 58.04,-569.56 51.1,-568.7"/>
</g>
<!-- Node24 -->
<g id="node25" class="node">
<title>Node24</title>
<g id="a_node25"><a xlink:href="struct_release_ptr.html" target="_top" xlink:title=" ">
<polygon fill="white" stroke="#666666" points="338.5,-216 176.5,-216 176.5,-197 338.5,-197 338.5,-216"/>
<text text-anchor="middle" x="257.5" y="-204" font-family="Helvetica,sans-Serif" font-size="10.00">ReleasePtr&lt; ID3D12QueryHeap &gt;</text>
</a>
</g>
</g>
<!-- Node0&#45;&gt;Node24 -->
<g id="edge24" class="edge">
<title>Node0&#45;&gt;Node24</title>
<path fill="none" stroke="#63b8ff" d="M53.96,-569.19C60.9,-498.45 86.73,-273.19 138,-225.5 148.53,-215.71 161.99,-209.82 176.04,-206.43"/>
<polygon fill="#63b8ff" stroke="#63b8ff" points="50.48,-568.73 53.02,-579.02 57.45,-569.39 50.48,-568.73"/>
</g>
<!-- Node25 -->
<g id="node26" class="node">
<title>Node25</title>
<g id="a_node26"><a xlink:href="struct_release_ptr.html" target="_top" xlink:title=" ">
<polygon fill="white" stroke="#666666" points="345,-179 170,-179 170,-160 345,-160 345,-179"/>
<text text-anchor="middle" x="257.5" y="-167" font-family="Helvetica,sans-Serif" font-size="10.00">ReleasePtr&lt; ID3D12RootSignature &gt;</text>
</a>
</g>
</g>
<!-- Node0&#45;&gt;Node25 -->
<g id="edge25" class="edge">
<title>Node0&#45;&gt;Node25</title>
<path fill="none" stroke="#63b8ff" d="M53.44,-569.5C59.01,-494.57 81.74,-241.92 138,-188.5 146.84,-180.11 157.83,-174.56 169.52,-170.99"/>
<polygon fill="#63b8ff" stroke="#63b8ff" points="49.97,-568.92 52.75,-579.14 56.95,-569.42 49.97,-568.92"/>
</g>
<!-- Node26 -->
<g id="node27" class="node">
<title>Node26</title>
<g id="a_node27"><a xlink:href="struct_release_ptr.html" target="_top" xlink:title=" ">
<polygon fill="white" stroke="#666666" points="330.5,-142 184.5,-142 184.5,-123 330.5,-123 330.5,-142"/>
<text text-anchor="middle" x="257.5" y="-130" font-family="Helvetica,sans-Serif" font-size="10.00">ReleasePtr&lt; IDXGIFactory4 &gt;</text>
</a>
</g>
</g>
<!-- Node0&#45;&gt;Node26 -->
<g id="edge26" class="edge">
<title>Node0&#45;&gt;Node26</title>
<path fill="none" stroke="#63b8ff" d="M53.05,-569.14C57.42,-489.39 76.89,-210.54 138,-151.5 150.36,-139.56 167.06,-133.34 184.02,-130.39"/>
<polygon fill="#63b8ff" stroke="#63b8ff" points="49.56,-568.86 52.53,-579.03 56.55,-569.23 49.56,-568.86"/>
</g>
<!-- Node27 -->
<g id="node28" class="node">
<title>Node27</title>
<g id="a_node28"><a xlink:href="struct_release_ptr.html" target="_top" xlink:title=" ">
<polygon fill="white" stroke="#666666" points="339,-105 176,-105 176,-86 339,-86 339,-105"/>
<text text-anchor="middle" x="257.5" y="-93" font-family="Helvetica,sans-Serif" font-size="10.00">ReleasePtr&lt; IDXGISwapChain3 &gt;</text>
</a>
</g>
</g>
<!-- Node0&#45;&gt;Node27 -->
<g id="edge27" class="edge">
<title>Node0&#45;&gt;Node27</title>
<path fill="none" stroke="#63b8ff" d="M52.69,-569.26C55.87,-485.46 71.91,-179.3 138,-114.5 148.27,-104.44 161.61,-98.42 175.62,-94.99"/>
<polygon fill="#63b8ff" stroke="#63b8ff" points="49.2,-568.9 52.35,-579.02 56.2,-569.15 49.2,-568.9"/>
</g>
<!-- Node28 -->
<g id="node29" class="node">
<title>Node28</title>
<g id="a_node29"><a xlink:href="struct_engine_1_1_render_1_1_vulkan_ptr.html" target="_top" xlink:title=" ">
<polygon fill="white" stroke="#666666" points="321.5,-67.5 193.5,-67.5 193.5,-37.5 321.5,-37.5 321.5,-67.5"/>
<text text-anchor="start" x="201.5" y="-55.5" font-family="Helvetica,sans-Serif" font-size="10.00">Engine::Render::VulkanPtr</text>
<text text-anchor="middle" x="257.5" y="-44.5" font-family="Helvetica,sans-Serif" font-size="10.00">&lt; T, D, f &gt;</text>
</a>
</g>
</g>
<!-- Node0&#45;&gt;Node28 -->
<g id="edge28" class="edge">
<title>Node0&#45;&gt;Node28</title>
<path fill="none" stroke="#63b8ff" d="M52.48,-569.41C54.92,-482.05 68.66,-149.8 138,-77.5 152.26,-62.63 172.97,-55.48 193.1,-52.32"/>
<polygon fill="#63b8ff" stroke="#63b8ff" points="48.99,-569.06 52.23,-579.15 55.99,-569.24 48.99,-569.06"/>
</g>
<!-- Node29 -->
<g id="node30" class="node">
<title>Node29</title>
<g id="a_node30"><a xlink:href="struct_release_ptr.html" target="_top" xlink:title=" ">
<polygon fill="white" stroke="#666666" points="301,-19 214,-19 214,0 301,0 301,-19"/>
<text text-anchor="middle" x="257.5" y="-7" font-family="Helvetica,sans-Serif" font-size="10.00">ReleasePtr&lt; T &gt;</text>
</a>
</g>
</g>
<!-- Node0&#45;&gt;Node29 -->
<g id="edge29" class="edge">
<title>Node0&#45;&gt;Node29</title>
<path fill="none" stroke="#63b8ff" d="M52.05,-569.11C52.73,-475.94 60.37,-106.69 138,-28.5 157.38,-8.98 188.28,-4.54 213.67,-4.82"/>
<polygon fill="#63b8ff" stroke="#63b8ff" points="48.55,-569.05 52,-579.06 55.55,-569.08 48.55,-569.05"/>
</g>
</g>
</svg>
