<?xml version="1.0" encoding="UTF-8" standalone="no"?>
<!DOCTYPE svg PUBLIC "-//W3C//DTD SVG 1.1//EN"
 "http://www.w3.org/Graphics/SVG/1.1/DTD/svg11.dtd">
<!-- Generated by graphviz version 7.0.5 (20221223.1930)
 -->
<!-- Title: Graphical Class Hierarchy Pages: 1 -->
<svg width="311pt" height="209pt"
 viewBox="0.00 0.00 311.00 209.00" xmlns="http://www.w3.org/2000/svg" xmlns:xlink="http://www.w3.org/1999/xlink">
<g id="graph0" class="graph" transform="scale(1 1) rotate(0) translate(4 205)">
<title>Graphical Class Hierarchy</title>
<!-- Node0 -->
<g id="node1" class="node">
<title>Node0</title>
<g id="a_node1"><a xlink:href="struct_engine_1_1_functor.html" target="_top" xlink:title=" ">
<polygon fill="white" stroke="#666666" points="115.5,-195.5 9.5,-195.5 9.5,-176.5 115.5,-176.5 115.5,-195.5"/>
<text text-anchor="middle" x="62.5" y="-183.5" font-family="Helvetica,sans-Serif" font-size="10.00">Engine::Functor&lt; F &gt;</text>
</a>
</g>
</g>
<!-- Node1 -->
<g id="node2" class="node">
<title>Node1</title>
<g id="a_node2"><a xlink:href="struct_engine_1_1_lambda_holder.html" target="_top" xlink:title=" ">
<polygon fill="white" stroke="#666666" points="289,-201 175,-201 175,-171 289,-171 289,-201"/>
<text text-anchor="start" x="183" y="-189" font-family="Helvetica,sans-Serif" font-size="10.00">Engine::LambdaHolder</text>
<text text-anchor="middle" x="232" y="-178" font-family="Helvetica,sans-Serif" font-size="10.00">&lt; Functor &gt;</text>
</a>
</g>
</g>
<!-- Node0&#45;&gt;Node1 -->
<g id="edge1" class="edge">
<title>Node0&#45;&gt;Node1</title>
<path fill="none" stroke="#63b8ff" d="M126.8,-186C142.51,-186 159.24,-186 174.59,-186"/>
<polygon fill="#63b8ff" stroke="#63b8ff" points="127.09,-182.5 117.09,-186 127.09,-189.5 127.09,-182.5"/>
</g>
<!-- Node2 -->
<g id="node3" class="node">
<title>Node2</title>
<g id="a_node3"><a xlink:href="struct_engine_1_1_proxy_scope_base.html" target="_top" xlink:title=" ">
<polygon fill="white" stroke="#666666" points="125,-155.5 0,-155.5 0,-136.5 125,-136.5 125,-155.5"/>
<text text-anchor="middle" x="62.5" y="-143.5" font-family="Helvetica,sans-Serif" font-size="10.00">Engine::ProxyScopeBase</text>
</a>
</g>
</g>
<!-- Node2&#45;&gt;Node1 -->
<g id="edge2" class="edge">
<title>Node2&#45;&gt;Node1</title>
<path fill="none" stroke="#63b8ff" d="M116.51,-158.66C134.99,-163.07 155.79,-168.04 174.55,-172.52"/>
<polygon fill="#63b8ff" stroke="#63b8ff" points="117.35,-155.26 106.81,-156.34 115.72,-162.07 117.35,-155.26"/>
</g>
<!-- Node3 -->
<g id="node4" class="node">
<title>Node3</title>
<g id="a_node4"><a xlink:href="struct_engine_1_1_scope_wrapper.html" target="_top" xlink:title=" ">
<polygon fill="white" stroke="#666666" points="300.5,-152.5 163.5,-152.5 163.5,-133.5 300.5,-133.5 300.5,-152.5"/>
<text text-anchor="middle" x="232" y="-140.5" font-family="Helvetica,sans-Serif" font-size="10.00">Engine::ScopeWrapper&lt; T &gt;</text>
</a>
</g>
</g>
<!-- Node2&#45;&gt;Node3 -->
<g id="edge3" class="edge">
<title>Node2&#45;&gt;Node3</title>
<path fill="none" stroke="#63b8ff" d="M136.79,-144.69C145.56,-144.53 154.48,-144.37 163.16,-144.22"/>
<polygon fill="#63b8ff" stroke="#63b8ff" points="136.84,-141.19 126.91,-144.86 136.97,-148.18 136.84,-141.19"/>
</g>
<!-- Node4 -->
<g id="node5" class="node">
<title>Node4</title>
<g id="a_node5"><a xlink:title=" ">
<polygon fill="#e0e0e0" stroke="#999999" points="77,-97.5 48,-97.5 48,-78.5 77,-78.5 77,-97.5"/>
<text text-anchor="middle" x="62.5" y="-85.5" font-family="Helvetica,sans-Serif" font-size="10.00">T</text>
</a>
</g>
</g>
<!-- Node4&#45;&gt;Node3 -->
<g id="edge6" class="edge">
<title>Node4&#45;&gt;Node3</title>
<path fill="none" stroke="#63b8ff" d="M87.63,-98.01C107.2,-105.93 135.61,-116.95 161,-125 170.09,-127.88 179.95,-130.64 189.33,-133.09"/>
<polygon fill="#63b8ff" stroke="#63b8ff" points="89.2,-94.87 78.62,-94.33 86.55,-101.35 89.2,-94.87"/>
</g>
<!-- Node5 -->
<g id="node6" class="node">
<title>Node5</title>
<g id="a_node6"><a xlink:href="struct_engine_1_1_key_value_global.html" target="_top" xlink:title=" ">
<polygon fill="white" stroke="#666666" points="303,-115.5 161,-115.5 161,-96.5 303,-96.5 303,-115.5"/>
<text text-anchor="middle" x="232" y="-103.5" font-family="Helvetica,sans-Serif" font-size="10.00">Engine::KeyValueGlobal&lt; T &gt;</text>
</a>
</g>
</g>
<!-- Node4&#45;&gt;Node5 -->
<g id="edge4" class="edge">
<title>Node4&#45;&gt;Node5</title>
<path fill="none" stroke="#63b8ff" d="M88.78,-90.72C107.9,-92.77 135.13,-95.7 160.65,-98.44"/>
<polygon fill="#63b8ff" stroke="#63b8ff" points="89.31,-87.25 79,-89.67 88.57,-94.21 89.31,-87.25"/>
</g>
<!-- Node6 -->
<g id="node7" class="node">
<title>Node6</title>
<g id="a_node7"><a xlink:href="struct_engine_1_1_key_value_work_group_local.html" target="_top" xlink:title=" ">
<polygon fill="white" stroke="#666666" points="302,-78 162,-78 162,-48 302,-48 302,-78"/>
<text text-anchor="start" x="170" y="-66" font-family="Helvetica,sans-Serif" font-size="10.00">Engine::KeyValueWorkGroup</text>
<text text-anchor="middle" x="232" y="-55" font-family="Helvetica,sans-Serif" font-size="10.00">Local&lt; T &gt;</text>
</a>
</g>
</g>
<!-- Node4&#45;&gt;Node6 -->
<g id="edge5" class="edge">
<title>Node4&#45;&gt;Node6</title>
<path fill="none" stroke="#63b8ff" d="M88.67,-84.24C108.09,-81.34 135.93,-77.19 161.84,-73.32"/>
<polygon fill="#63b8ff" stroke="#63b8ff" points="88.36,-80.75 78.99,-85.69 89.4,-87.67 88.36,-80.75"/>
</g>
<!-- Node7 -->
<g id="node8" class="node">
<title>Node7</title>
<g id="a_node8"><a xlink:href="struct_engine_1_1_serialize_1_1_no_parent.html" target="_top" xlink:title=" ">
<polygon fill="white" stroke="#666666" points="278,-30 186,-30 186,0 278,0 278,-30"/>
<text text-anchor="start" x="194" y="-18" font-family="Helvetica,sans-Serif" font-size="10.00">Engine::Serialize::</text>
<text text-anchor="middle" x="232" y="-7" font-family="Helvetica,sans-Serif" font-size="10.00">NoParent&lt; T &gt;</text>
</a>
</g>
</g>
<!-- Node4&#45;&gt;Node7 -->
<g id="edge7" class="edge">
<title>Node4&#45;&gt;Node7</title>
<path fill="none" stroke="#63b8ff" d="M87.52,-74.78C107,-64.34 135.33,-49.79 161,-39 168.93,-35.66 177.51,-32.43 185.85,-29.47"/>
<polygon fill="#63b8ff" stroke="#63b8ff" points="85.89,-71.69 78.76,-79.53 89.22,-77.84 85.89,-71.69"/>
</g>
</g>
</svg>
