<?xml version="1.0" encoding="UTF-8" standalone="no"?>
<!DOCTYPE svg PUBLIC "-//W3C//DTD SVG 1.1//EN"
 "http://www.w3.org/Graphics/SVG/1.1/DTD/svg11.dtd">
<!-- Generated by graphviz version 7.0.5 (20221223.1930)
 -->
<!-- Title: Graphical Class Hierarchy Pages: 1 -->
<svg width="263pt" height="108pt"
 viewBox="0.00 0.00 263.00 108.00" xmlns="http://www.w3.org/2000/svg" xmlns:xlink="http://www.w3.org/1999/xlink">
<g id="graph0" class="graph" transform="scale(1 1) rotate(0) translate(4 104)">
<title>Graphical Class Hierarchy</title>
<!-- Node0 -->
<g id="node1" class="node">
<title>Node0</title>
<g id="a_node1"><a xlink:title=" ">
<polygon fill="#e0e0e0" stroke="#999999" points="110,-64.5 0,-64.5 0,-34.5 110,-34.5 110,-64.5"/>
<text text-anchor="start" x="8" y="-52.5" font-family="Helvetica,sans-Serif" font-size="10.00">Tail::helpers::template</text>
<text text-anchor="middle" x="55" y="-41.5" font-family="Helvetica,sans-Serif" font-size="10.00"> recurse</text>
</a>
</g>
</g>
<!-- Node1 -->
<g id="node2" class="node">
<title>Node1</title>
<g id="a_node2"><a xlink:href="struct_engine_1_1auto__pack_3_01head_00_01tail_8_8_8_01_4_1_1helpers_1_1recurse.html" target="_top" xlink:title=" ">
<polygon fill="white" stroke="#666666" points="255,-100 146,-100 146,-59 255,-59 255,-100"/>
<text text-anchor="start" x="154" y="-88" font-family="Helvetica,sans-Serif" font-size="10.00">Engine::auto_pack&lt;</text>
<text text-anchor="start" x="154" y="-77" font-family="Helvetica,sans-Serif" font-size="10.00"> head, tail... &gt;::helpers</text>
<text text-anchor="middle" x="200.5" y="-66" font-family="Helvetica,sans-Serif" font-size="10.00">::recurse&lt; I &gt;</text>
</a>
</g>
</g>
<!-- Node0&#45;&gt;Node1 -->
<g id="edge1" class="edge">
<title>Node0&#45;&gt;Node1</title>
<path fill="none" stroke="#63b8ff" d="M121.26,-63.14C129.42,-64.85 137.69,-66.58 145.65,-68.24"/>
<polygon fill="#63b8ff" stroke="#63b8ff" points="122.24,-59.77 111.73,-61.15 120.8,-66.62 122.24,-59.77"/>
</g>
<!-- Node2 -->
<g id="node3" class="node">
<title>Node2</title>
<g id="a_node3"><a xlink:href="struct_engine_1_1type__pack_3_01_head_00_01_ty_8_8_8_01_4_1_1helpers_1_1recurse.html" target="_top" xlink:title=" ">
<polygon fill="white" stroke="#666666" points="255,-41 146,-41 146,0 255,0 255,-41"/>
<text text-anchor="start" x="154" y="-29" font-family="Helvetica,sans-Serif" font-size="10.00">Engine::type_pack&lt;</text>
<text text-anchor="start" x="154" y="-18" font-family="Helvetica,sans-Serif" font-size="10.00"> Head, Ty... &gt;::helpers</text>
<text text-anchor="middle" x="200.5" y="-7" font-family="Helvetica,sans-Serif" font-size="10.00">::recurse&lt; I &gt;</text>
</a>
</g>
</g>
<!-- Node0&#45;&gt;Node2 -->
<g id="edge2" class="edge">
<title>Node0&#45;&gt;Node2</title>
<path fill="none" stroke="#63b8ff" d="M121.26,-36.31C129.42,-34.66 137.69,-32.99 145.65,-31.38"/>
<polygon fill="#63b8ff" stroke="#63b8ff" points="120.84,-32.82 111.73,-38.24 122.23,-39.69 120.84,-32.82"/>
</g>
</g>
</svg>
