<?xml version="1.0" encoding="UTF-8" standalone="no"?>
<!DOCTYPE svg PUBLIC "-//W3C//DTD SVG 1.1//EN"
 "http://www.w3.org/Graphics/SVG/1.1/DTD/svg11.dtd">
<!-- Generated by graphviz version 7.0.5 (20221223.1930)
 -->
<!-- Title: Graphical Class Hierarchy Pages: 1 -->
<svg width="307pt" height="108pt"
 viewBox="0.00 0.00 307.00 108.00" xmlns="http://www.w3.org/2000/svg" xmlns:xlink="http://www.w3.org/1999/xlink">
<g id="graph0" class="graph" transform="scale(1 1) rotate(0) translate(4 104)">
<title>Graphical Class Hierarchy</title>
<!-- Node0 -->
<g id="node1" class="node">
<title>Node0</title>
<g id="a_node1"><a xlink:href="struct_code_gen_1_1codegen__base__state.html" target="_top" xlink:title=" ">
<polygon fill="white" stroke="#666666" points="125,-64.5 0,-64.5 0,-34.5 125,-34.5 125,-64.5"/>
<text text-anchor="start" x="8" y="-52.5" font-family="Helvetica,sans-Serif" font-size="10.00">CodeGen::codegen_base</text>
<text text-anchor="middle" x="62.5" y="-41.5" font-family="Helvetica,sans-Serif" font-size="10.00">_state&lt; Rec &gt;</text>
</a>
</g>
</g>
<!-- Node1 -->
<g id="node2" class="node">
<title>Node1</title>
<g id="a_node2"><a xlink:href="struct_code_gen_1_1codegen__connect__t_1_1codegen__let__value__t_1_1state.html" target="_top" xlink:title=" ">
<polygon fill="white" stroke="#666666" points="299,-100 161,-100 161,-59 299,-59 299,-100"/>
<text text-anchor="start" x="169" y="-88" font-family="Helvetica,sans-Serif" font-size="10.00">CodeGen::codegen_connect</text>
<text text-anchor="start" x="169" y="-77" font-family="Helvetica,sans-Serif" font-size="10.00">_t::codegen_let_value_t</text>
<text text-anchor="middle" x="230" y="-66" font-family="Helvetica,sans-Serif" font-size="10.00">::state&lt; Sender, F, Rec &gt;</text>
</a>
</g>
</g>
<!-- Node0&#45;&gt;Node1 -->
<g id="edge1" class="edge">
<title>Node0&#45;&gt;Node1</title>
<path fill="none" stroke="#63b8ff" d="M136.4,-62.72C144.46,-64.18 152.65,-65.66 160.65,-67.11"/>
<polygon fill="#63b8ff" stroke="#63b8ff" points="137.08,-59.28 126.62,-60.94 135.83,-66.17 137.08,-59.28"/>
</g>
<!-- Node2 -->
<g id="node3" class="node">
<title>Node2</title>
<g id="a_node3"><a xlink:href="struct_engine_1_1_node_graph_1_1_node_reader_1_1codegen__state.html" target="_top" xlink:title=" ">
<polygon fill="white" stroke="#666666" points="297,-41 163,-41 163,0 297,0 297,-41"/>
<text text-anchor="start" x="171" y="-29" font-family="Helvetica,sans-Serif" font-size="10.00">Engine::NodeGraph::</text>
<text text-anchor="start" x="171" y="-18" font-family="Helvetica,sans-Serif" font-size="10.00">NodeReader&lt; T &gt;::codegen</text>
<text text-anchor="middle" x="230" y="-7" font-family="Helvetica,sans-Serif" font-size="10.00">_state&lt; Rec &gt;</text>
</a>
</g>
</g>
<!-- Node0&#45;&gt;Node2 -->
<g id="edge2" class="edge">
<title>Node0&#45;&gt;Node2</title>
<path fill="none" stroke="#63b8ff" d="M136.45,-36.72C145.15,-35.19 154,-33.64 162.6,-32.13"/>
<polygon fill="#63b8ff" stroke="#63b8ff" points="135.86,-33.27 126.62,-38.44 137.07,-40.16 135.86,-33.27"/>
</g>
</g>
</svg>
