<?xml version="1.0" encoding="UTF-8" standalone="no"?>
<!DOCTYPE svg PUBLIC "-//W3C//DTD SVG 1.1//EN"
 "http://www.w3.org/Graphics/SVG/1.1/DTD/svg11.dtd">
<!-- Generated by graphviz version 7.0.5 (20221223.1930)
 -->
<!-- Title: Graphical Class Hierarchy Pages: 1 -->
<svg width="427pt" height="158pt"
 viewBox="0.00 0.00 427.00 158.00" xmlns="http://www.w3.org/2000/svg" xmlns:xlink="http://www.w3.org/1999/xlink">
<g id="graph0" class="graph" transform="scale(1 1) rotate(0) translate(4 154)">
<title>Graphical Class Hierarchy</title>
<!-- Node0 -->
<g id="node1" class="node">
<title>Node0</title>
<g id="a_node1"><a xlink:href="struct_engine_1_1_execution_1_1_connection_sender.html" target="_top" xlink:title=" ">
<polygon fill="white" stroke="#666666" points="149,-83.5 0,-83.5 0,-42.5 149,-42.5 149,-83.5"/>
<text text-anchor="start" x="8" y="-71.5" font-family="Helvetica,sans-Serif" font-size="10.00">Engine::Execution::</text>
<text text-anchor="start" x="8" y="-60.5" font-family="Helvetica,sans-Serif" font-size="10.00">ConnectionSender&lt; ValueStub</text>
<text text-anchor="middle" x="74.5" y="-49.5" font-family="Helvetica,sans-Serif" font-size="10.00">&lt; Ty... &gt;, Ty... &gt;</text>
</a>
</g>
</g>
<!-- Node1 -->
<g id="node2" class="node">
<title>Node1</title>
<g id="a_node2"><a xlink:href="struct_engine_1_1_execution_1_1_value_stub.html" target="_top" xlink:title=" ">
<polygon fill="white" stroke="#666666" points="286,-126 185,-126 185,-96 286,-96 286,-126"/>
<text text-anchor="start" x="193" y="-114" font-family="Helvetica,sans-Serif" font-size="10.00">Engine::Execution::</text>
<text text-anchor="middle" x="235.5" y="-103" font-family="Helvetica,sans-Serif" font-size="10.00">ValueStub&lt; _Ty... &gt;</text>
</a>
</g>
</g>
<!-- Node0&#45;&gt;Node1 -->
<g id="edge1" class="edge">
<title>Node0&#45;&gt;Node1</title>
<path fill="none" stroke="#63b8ff" d="M155.5,-87.15C165.41,-90.14 175.3,-93.13 184.57,-95.93"/>
<polygon fill="#63b8ff" stroke="#63b8ff" points="156.81,-83.89 146.23,-84.35 154.79,-90.59 156.81,-83.89"/>
</g>
<!-- Node4 -->
<g id="node5" class="node">
<title>Node4</title>
<g id="a_node5"><a xlink:href="struct_engine_1_1_execution_1_1_value_stub.html" target="_top" xlink:title=" ">
<polygon fill="white" stroke="#666666" points="284,-78 187,-78 187,-48 284,-48 284,-78"/>
<text text-anchor="start" x="195" y="-66" font-family="Helvetica,sans-Serif" font-size="10.00">Engine::Execution::</text>
<text text-anchor="middle" x="235.5" y="-55" font-family="Helvetica,sans-Serif" font-size="10.00">ValueStub&lt; Ty... &gt;</text>
</a>
</g>
</g>
<!-- Node0&#45;&gt;Node4 -->
<g id="edge4" class="edge">
<title>Node0&#45;&gt;Node4</title>
<path fill="none" stroke="#63b8ff" d="M160.7,-63C169.59,-63 178.39,-63 186.65,-63"/>
<polygon fill="#63b8ff" stroke="#63b8ff" points="160.93,-59.5 150.93,-63 160.93,-66.5 160.93,-59.5"/>
</g>
<!-- Node5 -->
<g id="node6" class="node">
<title>Node5</title>
<g id="a_node6"><a xlink:href="struct_engine_1_1_execution_1_1_value_stub.html" target="_top" xlink:title=" ">
<polygon fill="white" stroke="#666666" points="284,-30 187,-30 187,0 284,0 284,-30"/>
<text text-anchor="start" x="195" y="-18" font-family="Helvetica,sans-Serif" font-size="10.00">Engine::Execution::</text>
<text text-anchor="middle" x="235.5" y="-7" font-family="Helvetica,sans-Serif" font-size="10.00">ValueStub&lt; Ty &gt;</text>
</a>
</g>
</g>
<!-- Node0&#45;&gt;Node5 -->
<g id="edge5" class="edge">
<title>Node0&#45;&gt;Node5</title>
<path fill="none" stroke="#63b8ff" d="M155.5,-38.85C166.25,-35.6 176.99,-32.36 186.93,-29.36"/>
<polygon fill="#63b8ff" stroke="#63b8ff" points="154.79,-35.41 146.23,-41.65 156.81,-42.11 154.79,-35.41"/>
</g>
<!-- Node2 -->
<g id="node3" class="node">
<title>Node2</title>
<g id="a_node3"><a xlink:href="struct_engine_1_1_execution_1_1_value.html" target="_top" xlink:title=" ">
<polygon fill="white" stroke="#666666" points="419,-150 322,-150 322,-120 419,-120 419,-150"/>
<text text-anchor="start" x="330" y="-138" font-family="Helvetica,sans-Serif" font-size="10.00">Engine::Execution::</text>
<text text-anchor="middle" x="370.5" y="-127" font-family="Helvetica,sans-Serif" font-size="10.00">Value&lt; _Ty... &gt;</text>
</a>
</g>
</g>
<!-- Node1&#45;&gt;Node2 -->
<g id="edge2" class="edge">
<title>Node1&#45;&gt;Node2</title>
<path fill="none" stroke="#63b8ff" d="M297.62,-122.03C305.64,-123.48 313.76,-124.94 321.52,-126.34"/>
<polygon fill="#63b8ff" stroke="#63b8ff" points="298.35,-118.61 287.89,-120.27 297.11,-125.49 298.35,-118.61"/>
</g>
<!-- Node3 -->
<g id="node4" class="node">
<title>Node3</title>
<g id="a_node4"><a xlink:href="struct_engine_1_1_execution_1_1_value.html" target="_top" xlink:title=" ">
<polygon fill="white" stroke="#666666" points="419,-102 322,-102 322,-72 419,-72 419,-102"/>
<text text-anchor="start" x="330" y="-90" font-family="Helvetica,sans-Serif" font-size="10.00">Engine::Execution::</text>
<text text-anchor="middle" x="370.5" y="-79" font-family="Helvetica,sans-Serif" font-size="10.00">Value&lt; _Ty &gt;</text>
</a>
</g>
</g>
<!-- Node1&#45;&gt;Node3 -->
<g id="edge3" class="edge">
<title>Node1&#45;&gt;Node3</title>
<path fill="none" stroke="#63b8ff" d="M297.62,-99.97C305.64,-98.52 313.76,-97.06 321.52,-95.66"/>
<polygon fill="#63b8ff" stroke="#63b8ff" points="297.11,-96.51 287.89,-101.73 298.35,-103.39 297.11,-96.51"/>
</g>
</g>
</svg>
