<?xml version="1.0" encoding="UTF-8" standalone="no"?>
<!DOCTYPE svg PUBLIC "-//W3C//DTD SVG 1.1//EN"
 "http://www.w3.org/Graphics/SVG/1.1/DTD/svg11.dtd">
<!-- Generated by graphviz version 7.0.5 (20221223.1930)
 -->
<!-- Title: Graphical Class Hierarchy Pages: 1 -->
<svg width="687pt" height="726pt"
 viewBox="0.00 0.00 687.00 725.50" xmlns="http://www.w3.org/2000/svg" xmlns:xlink="http://www.w3.org/1999/xlink">
<g id="graph0" class="graph" transform="scale(1 1) rotate(0) translate(4 721.5)">
<title>Graphical Class Hierarchy</title>
<!-- Node0 -->
<g id="node1" class="node">
<title>Node0</title>
<g id="a_node1"><a xlink:title=" ">
<polygon fill="#e0e0e0" stroke="#999999" points="223,-234.5 194,-234.5 194,-215.5 223,-215.5 223,-234.5"/>
<text text-anchor="middle" x="208.5" y="-222.5" font-family="Helvetica,sans-Serif" font-size="10.00">C</text>
</a>
</g>
</g>
<!-- Node1 -->
<g id="node2" class="node">
<title>Node1</title>
<g id="a_node2"><a xlink:href="struct_engine_1_1_serialize_1_1_serializable_container_impl.html" target="_top" xlink:title=" ">
<polygon fill="white" stroke="#666666" points="509,-261 325,-261 325,-209 509,-209 509,-261"/>
<text text-anchor="start" x="333" y="-249" font-family="Helvetica,sans-Serif" font-size="10.00">Engine::Serialize::</text>
<text text-anchor="start" x="333" y="-238" font-family="Helvetica,sans-Serif" font-size="10.00">SerializableContainerImpl</text>
<text text-anchor="start" x="333" y="-227" font-family="Helvetica,sans-Serif" font-size="10.00">&lt; C, NoOpFunctor, TaggedPlaceholder</text>
<text text-anchor="middle" x="417" y="-216" font-family="Helvetica,sans-Serif" font-size="10.00">&lt; MemberOffsetPtrTag, 0 &gt; &gt;</text>
</a>
</g>
</g>
<!-- Node0&#45;&gt;Node1 -->
<g id="edge1" class="edge">
<title>Node0&#45;&gt;Node1</title>
<path fill="none" stroke="#63b8ff" d="M234.59,-226.22C257.18,-227.31 291.79,-228.99 324.75,-230.58"/>
<polygon fill="#63b8ff" stroke="#63b8ff" points="235.04,-222.73 224.88,-225.74 234.7,-229.72 235.04,-222.73"/>
</g>
<!-- Node6 -->
<g id="node3" class="node">
<title>Node6</title>
<g id="a_node3"><a xlink:href="struct_engine_1_1_generation_container_base.html" target="_top" xlink:title=" ">
<polygon fill="white" stroke="#666666" points="289,-717.5 128,-717.5 128,-698.5 289,-698.5 289,-717.5"/>
<text text-anchor="middle" x="208.5" y="-705.5" font-family="Helvetica,sans-Serif" font-size="10.00">Engine::GenerationContainerBase</text>
</a>
</g>
</g>
<!-- Node5 -->
<g id="node4" class="node">
<title>Node5</title>
<g id="a_node4"><a xlink:href="struct_engine_1_1_generation_container.html" target="_top" xlink:title=" ">
<polygon fill="white" stroke="#666666" points="498,-717.5 336,-717.5 336,-698.5 498,-698.5 498,-717.5"/>
<text text-anchor="middle" x="417" y="-705.5" font-family="Helvetica,sans-Serif" font-size="10.00">Engine::GenerationContainer&lt; C &gt;</text>
</a>
</g>
</g>
<!-- Node6&#45;&gt;Node5 -->
<g id="edge2" class="edge">
<title>Node6&#45;&gt;Node5</title>
<path fill="none" stroke="#63b8ff" d="M300.49,-708C312.22,-708 324.16,-708 335.69,-708"/>
<polygon fill="#63b8ff" stroke="#63b8ff" points="300.85,-704.5 290.85,-708 300.85,-711.5 300.85,-704.5"/>
</g>
<!-- Node2 -->
<g id="node5" class="node">
<title>Node2</title>
<g id="a_node5"><a xlink:href="struct_engine_1_1_no_op_functor.html" target="_top" xlink:title=" ">
<polygon fill="white" stroke="#666666" points="263,-320.5 154,-320.5 154,-301.5 263,-301.5 263,-320.5"/>
<text text-anchor="middle" x="208.5" y="-308.5" font-family="Helvetica,sans-Serif" font-size="10.00">Engine::NoOpFunctor</text>
</a>
</g>
</g>
<!-- Node2&#45;&gt;Node1 -->
<g id="edge3" class="edge">
<title>Node2&#45;&gt;Node1</title>
<path fill="none" stroke="#63b8ff" d="M272.49,-297.9C278.14,-296.14 283.72,-294.18 289,-292 306.33,-284.84 308.18,-278.29 325,-270 331.07,-267.01 337.47,-264.1 343.94,-261.31"/>
<polygon fill="#63b8ff" stroke="#63b8ff" points="271.66,-294.5 263.02,-300.63 273.6,-301.22 271.66,-294.5"/>
</g>
<!-- Node3 -->
<g id="node6" class="node">
<title>Node3</title>
<g id="a_node6"><a xlink:href="struct_engine_1_1_compact_container.html" target="_top" xlink:title=" ">
<polygon fill="white" stroke="#666666" points="482.5,-369 351.5,-369 351.5,-339 482.5,-339 482.5,-369"/>
<text text-anchor="start" x="359.5" y="-357" font-family="Helvetica,sans-Serif" font-size="10.00">Engine::CompactContainer</text>
<text text-anchor="middle" x="417" y="-346" font-family="Helvetica,sans-Serif" font-size="10.00">&lt; C, Observer &gt;</text>
</a>
</g>
</g>
<!-- Node2&#45;&gt;Node3 -->
<g id="edge4" class="edge">
<title>Node2&#45;&gt;Node3</title>
<path fill="none" stroke="#63b8ff" d="M268.53,-323.29C294.35,-328.67 324.71,-334.99 351.16,-340.5"/>
<polygon fill="#63b8ff" stroke="#63b8ff" points="269.38,-319.89 258.88,-321.28 267.95,-326.75 269.38,-319.89"/>
</g>
<!-- Node9 -->
<g id="node7" class="node">
<title>Node9</title>
<g id="a_node7"><a xlink:href="struct_engine_1_1_serialize_1_1_serializable_container_impl.html" target="_top" xlink:title=" ">
<polygon fill="white" stroke="#666666" points="481.5,-320.5 352.5,-320.5 352.5,-279.5 481.5,-279.5 481.5,-320.5"/>
<text text-anchor="start" x="360.5" y="-308.5" font-family="Helvetica,sans-Serif" font-size="10.00">Engine::Serialize::</text>
<text text-anchor="start" x="360.5" y="-297.5" font-family="Helvetica,sans-Serif" font-size="10.00">SerializableContainerImpl</text>
<text text-anchor="middle" x="417" y="-286.5" font-family="Helvetica,sans-Serif" font-size="10.00">&lt; C, Observer, OffsetPtr &gt;</text>
</a>
</g>
</g>
<!-- Node2&#45;&gt;Node9 -->
<g id="edge5" class="edge">
<title>Node2&#45;&gt;Node9</title>
<path fill="none" stroke="#63b8ff" d="M274.92,-307.52C299.56,-306.2 327.55,-304.71 352.06,-303.41"/>
<polygon fill="#63b8ff" stroke="#63b8ff" points="274.8,-304.02 265,-308.04 275.17,-311.01 274.8,-304.02"/>
</g>
<!-- Node12 -->
<g id="node9" class="node">
<title>Node12</title>
<g id="a_node9"><a xlink:href="struct_engine_1_1_serialize_1_1_synced.html" target="_top" xlink:title=" ">
<polygon fill="white" stroke="#666666" points="472.5,-190.5 361.5,-190.5 361.5,-149.5 472.5,-149.5 472.5,-190.5"/>
<text text-anchor="start" x="369.5" y="-178.5" font-family="Helvetica,sans-Serif" font-size="10.00">Engine::Serialize::</text>
<text text-anchor="start" x="369.5" y="-167.5" font-family="Helvetica,sans-Serif" font-size="10.00">Synced&lt; T, Observer,</text>
<text text-anchor="middle" x="417" y="-156.5" font-family="Helvetica,sans-Serif" font-size="10.00"> OffsetPtr &gt;</text>
</a>
</g>
</g>
<!-- Node2&#45;&gt;Node12 -->
<g id="edge7" class="edge">
<title>Node2&#45;&gt;Node12</title>
<path fill="none" stroke="#8b1a1a" d="M274.08,-301.47C279.48,-298.97 284.56,-295.86 289,-292 322.12,-263.17 293.12,-230.19 325,-200 335.03,-190.51 348.12,-184.02 361.23,-179.58"/>
<polygon fill="#8b1a1a" stroke="#8b1a1a" points="272.88,-298.18 264.79,-305.02 275.38,-304.72 272.88,-298.18"/>
</g>
<!-- Node10 -->
<g id="node8" class="node">
<title>Node10</title>
<g id="a_node8"><a xlink:href="struct_engine_1_1_serialize_1_1_syncable_container_impl.html" target="_top" xlink:title=" ">
<polygon fill="white" stroke="#666666" points="676.5,-231.5 547.5,-231.5 547.5,-190.5 676.5,-190.5 676.5,-231.5"/>
<text text-anchor="start" x="555.5" y="-219.5" font-family="Helvetica,sans-Serif" font-size="10.00">Engine::Serialize::</text>
<text text-anchor="start" x="555.5" y="-208.5" font-family="Helvetica,sans-Serif" font-size="10.00">SyncableContainerImpl</text>
<text text-anchor="middle" x="612" y="-197.5" font-family="Helvetica,sans-Serif" font-size="10.00">&lt; C, Observer, OffsetPtr &gt;</text>
</a>
</g>
</g>
<!-- Node9&#45;&gt;Node10 -->
<g id="edge6" class="edge">
<title>Node9&#45;&gt;Node10</title>
<path fill="none" stroke="#63b8ff" d="M492.18,-276.97C497.93,-274.75 503.59,-272.42 509,-270 533.27,-259.12 559.19,-244.08 578.83,-231.9"/>
<polygon fill="#63b8ff" stroke="#63b8ff" points="491.36,-273.54 483.21,-280.3 493.8,-280.1 491.36,-273.54"/>
</g>
<!-- Node8 -->
<g id="node10" class="node">
<title>Node8</title>
<g id="a_node10"><a xlink:href="class_observer.html" target="_top" xlink:title=" ">
<polygon fill="white" stroke="#666666" points="236.5,-411.5 180.5,-411.5 180.5,-392.5 236.5,-392.5 236.5,-411.5"/>
<text text-anchor="middle" x="208.5" y="-399.5" font-family="Helvetica,sans-Serif" font-size="10.00">Observer</text>
</a>
</g>
</g>
<!-- Node7 -->
<g id="node11" class="node">
<title>Node7</title>
<g id="a_node11"><a xlink:href="struct_engine_1_1_observable_container.html" target="_top" xlink:title=" ">
<polygon fill="white" stroke="#666666" points="487.5,-417 346.5,-417 346.5,-387 487.5,-387 487.5,-417"/>
<text text-anchor="start" x="354.5" y="-405" font-family="Helvetica,sans-Serif" font-size="10.00">Engine::ObservableContainer</text>
<text text-anchor="middle" x="417" y="-394" font-family="Helvetica,sans-Serif" font-size="10.00">&lt; C, Observer &gt;</text>
</a>
</g>
</g>
<!-- Node8&#45;&gt;Node7 -->
<g id="edge8" class="edge">
<title>Node8&#45;&gt;Node7</title>
<path fill="none" stroke="#63b8ff" d="M248.42,-402C275.93,-402 313.56,-402 346.2,-402"/>
<polygon fill="#63b8ff" stroke="#63b8ff" points="248.44,-398.5 238.44,-402 248.44,-405.5 248.44,-398.5"/>
</g>
<!-- Node14 -->
<g id="node12" class="node">
<title>Node14</title>
<g id="a_node12"><a xlink:href="struct_engine_1_1_serialize_1_1_serializable_base.html" target="_top" xlink:title=" ">
<polygon fill="white" stroke="#666666" points="92,-192 0,-192 0,-162 92,-162 92,-192"/>
<text text-anchor="start" x="8" y="-180" font-family="Helvetica,sans-Serif" font-size="10.00">Engine::Serialize::</text>
<text text-anchor="middle" x="46" y="-169" font-family="Helvetica,sans-Serif" font-size="10.00">SerializableBase</text>
</a>
</g>
</g>
<!-- Node15 -->
<g id="node13" class="node">
<title>Node15</title>
<g id="a_node13"><a xlink:href="struct_engine_1_1_serialize_1_1_serializable.html" target="_top" xlink:title=" ">
<polygon fill="white" stroke="#666666" points="287.5,-197.5 129.5,-197.5 129.5,-156.5 287.5,-156.5 287.5,-197.5"/>
<text text-anchor="start" x="137.5" y="-185.5" font-family="Helvetica,sans-Serif" font-size="10.00">Engine::Serialize::</text>
<text text-anchor="start" x="137.5" y="-174.5" font-family="Helvetica,sans-Serif" font-size="10.00">Serializable&lt; TaggedPlaceholder</text>
<text text-anchor="middle" x="208.5" y="-163.5" font-family="Helvetica,sans-Serif" font-size="10.00">&lt; MemberOffsetPtrTag, 0 &gt; &gt;</text>
</a>
</g>
</g>
<!-- Node14&#45;&gt;Node15 -->
<g id="edge9" class="edge">
<title>Node14&#45;&gt;Node15</title>
<path fill="none" stroke="#63b8ff" d="M103.6,-177C111.92,-177 120.61,-177 129.27,-177"/>
<polygon fill="#63b8ff" stroke="#63b8ff" points="103.65,-173.5 93.65,-177 103.65,-180.5 103.65,-173.5"/>
</g>
<!-- Node13 -->
<g id="node14" class="node">
<title>Node13</title>
<g id="a_node14"><a xlink:href="struct_engine_1_1_serialize_1_1_serializable.html" target="_top" xlink:title=" ">
<polygon fill="white" stroke="#666666" points="269.5,-283 147.5,-283 147.5,-253 269.5,-253 269.5,-283"/>
<text text-anchor="start" x="155.5" y="-271" font-family="Helvetica,sans-Serif" font-size="10.00">Engine::Serialize::</text>
<text text-anchor="middle" x="208.5" y="-260" font-family="Helvetica,sans-Serif" font-size="10.00">Serializable&lt; OffsetPtr &gt;</text>
</a>
</g>
</g>
<!-- Node14&#45;&gt;Node13 -->
<g id="edge10" class="edge">
<title>Node14&#45;&gt;Node13</title>
<path fill="none" stroke="#63b8ff" d="M70.45,-200.17C85.75,-214.21 106.77,-231.56 128,-243 134.75,-246.64 142.11,-249.84 149.55,-252.63"/>
<polygon fill="#63b8ff" stroke="#63b8ff" points="72.92,-197.69 63.24,-193.39 68.13,-202.79 72.92,-197.69"/>
</g>
<!-- Node16 -->
<g id="node15" class="node">
<title>Node16</title>
<g id="a_node15"><a xlink:href="struct_engine_1_1_serialize_1_1_serialized.html" target="_top" xlink:title=" ">
<polygon fill="white" stroke="#666666" points="254.5,-138 162.5,-138 162.5,-108 254.5,-108 254.5,-138"/>
<text text-anchor="start" x="170.5" y="-126" font-family="Helvetica,sans-Serif" font-size="10.00">Engine::Serialize::</text>
<text text-anchor="middle" x="208.5" y="-115" font-family="Helvetica,sans-Serif" font-size="10.00">Serialized&lt; T &gt;</text>
</a>
</g>
</g>
<!-- Node14&#45;&gt;Node16 -->
<g id="edge14" class="edge">
<title>Node14&#45;&gt;Node16</title>
<path fill="none" stroke="#63b8ff" d="M97.8,-157.64C107.78,-153.99 118.19,-150.3 128,-147 139.07,-143.28 151.09,-139.52 162.36,-136.1"/>
<polygon fill="#63b8ff" stroke="#63b8ff" points="96.79,-154.28 88.62,-161.03 99.22,-160.85 96.79,-154.28"/>
</g>
<!-- Node13&#45;&gt;Node1 -->
<g id="edge11" class="edge">
<title>Node13&#45;&gt;Node1</title>
<path fill="none" stroke="#63b8ff" d="M280.87,-256.6C294.95,-254.35 309.91,-251.95 324.54,-249.62"/>
<polygon fill="#63b8ff" stroke="#63b8ff" points="280.6,-253.09 271.28,-258.13 281.71,-260.01 280.6,-253.09"/>
</g>
<!-- Node13&#45;&gt;Node9 -->
<g id="edge12" class="edge">
<title>Node13&#45;&gt;Node9</title>
<path fill="none" stroke="#63b8ff" d="M280.92,-279.07C304.03,-282.65 329.5,-286.6 352.04,-290.09"/>
<polygon fill="#63b8ff" stroke="#63b8ff" points="281.7,-275.65 271.28,-277.57 280.63,-282.56 281.7,-275.65"/>
</g>
<!-- Node13&#45;&gt;Node12 -->
<g id="edge13" class="edge">
<title>Node13&#45;&gt;Node12</title>
<path fill="none" stroke="#63b8ff" d="M280.03,-248.32C283.14,-246.68 286.15,-244.91 289,-243 309.72,-229.15 304.37,-213.99 325,-200 335.88,-192.62 348.7,-186.94 361.25,-182.61"/>
<polygon fill="#63b8ff" stroke="#63b8ff" points="278.74,-245.05 271.19,-252.48 281.72,-251.39 278.74,-245.05"/>
</g>
<!-- Node17 -->
<g id="node16" class="node">
<title>Node17</title>
<g id="a_node16"><a xlink:href="struct_engine_1_1_serialize_1_1_syncable_base.html" target="_top" xlink:title=" ">
<polygon fill="white" stroke="#666666" points="92,-57 0,-57 0,-27 92,-27 92,-57"/>
<text text-anchor="start" x="8" y="-45" font-family="Helvetica,sans-Serif" font-size="10.00">Engine::Serialize::</text>
<text text-anchor="middle" x="46" y="-34" font-family="Helvetica,sans-Serif" font-size="10.00">SyncableBase</text>
</a>
</g>
</g>
<!-- Node18 -->
<g id="node17" class="node">
<title>Node18</title>
<g id="a_node17"><a xlink:href="struct_engine_1_1_serialize_1_1_syncable.html" target="_top" xlink:title=" ">
<polygon fill="white" stroke="#666666" points="282.5,-89.5 134.5,-89.5 134.5,-48.5 282.5,-48.5 282.5,-89.5"/>
<text text-anchor="start" x="142.5" y="-77.5" font-family="Helvetica,sans-Serif" font-size="10.00">Engine::Serialize::</text>
<text text-anchor="start" x="142.5" y="-66.5" font-family="Helvetica,sans-Serif" font-size="10.00">Syncable&lt; TaggedPlaceholder</text>
<text text-anchor="middle" x="208.5" y="-55.5" font-family="Helvetica,sans-Serif" font-size="10.00">&lt; MemberOffsetPtrTag, 0 &gt; &gt;</text>
</a>
</g>
</g>
<!-- Node17&#45;&gt;Node18 -->
<g id="edge15" class="edge">
<title>Node17&#45;&gt;Node18</title>
<path fill="none" stroke="#63b8ff" d="M103.17,-51.45C113.18,-53.13 123.75,-54.91 134.16,-56.66"/>
<polygon fill="#63b8ff" stroke="#63b8ff" points="104.07,-48.05 93.63,-49.84 102.91,-54.95 104.07,-48.05"/>
</g>
<!-- Node11 -->
<g id="node18" class="node">
<title>Node11</title>
<g id="a_node18"><a xlink:href="struct_engine_1_1_serialize_1_1_syncable.html" target="_top" xlink:title=" ">
<polygon fill="white" stroke="#666666" points="264.5,-30 152.5,-30 152.5,0 264.5,0 264.5,-30"/>
<text text-anchor="start" x="160.5" y="-18" font-family="Helvetica,sans-Serif" font-size="10.00">Engine::Serialize::</text>
<text text-anchor="middle" x="208.5" y="-7" font-family="Helvetica,sans-Serif" font-size="10.00">Syncable&lt; OffsetPtr &gt;</text>
</a>
</g>
</g>
<!-- Node17&#45;&gt;Node11 -->
<g id="edge16" class="edge">
<title>Node17&#45;&gt;Node11</title>
<path fill="none" stroke="#63b8ff" d="M103.38,-32.52C119.2,-29.85 136.38,-26.96 152.14,-24.31"/>
<polygon fill="#63b8ff" stroke="#63b8ff" points="102.91,-29.05 93.63,-34.16 104.07,-35.95 102.91,-29.05"/>
</g>
<!-- Node11&#45;&gt;Node10 -->
<g id="edge17" class="edge">
<title>Node11&#45;&gt;Node10</title>
<path fill="none" stroke="#63b8ff" d="M274.78,-33.91C279.62,-35.56 284.4,-37.26 289,-39 389.62,-77.08 415.59,-86.61 509,-140 535.41,-155.1 563.67,-175.1 583.73,-190.03"/>
<polygon fill="#63b8ff" stroke="#63b8ff" points="276.18,-30.69 265.58,-30.89 273.99,-37.34 276.18,-30.69"/>
</g>
<!-- Node11&#45;&gt;Node12 -->
<g id="edge18" class="edge">
<title>Node11&#45;&gt;Node12</title>
<path fill="none" stroke="#63b8ff" d="M274.98,-30.96C279.91,-33.3 284.65,-35.96 289,-39 310.85,-54.28 307.07,-67.26 325,-87 345.7,-109.79 371.91,-133.2 390.88,-149.33"/>
<polygon fill="#63b8ff" stroke="#63b8ff" points="276.62,-27.86 266.04,-27.22 273.91,-34.31 276.62,-27.86"/>
</g>
<!-- Node4 -->
<g id="node19" class="node">
<title>Node4</title>
<g id="a_node19"><a xlink:title=" ">
<polygon fill="#e0e0e0" stroke="#999999" points="223,-519.5 194,-519.5 194,-500.5 223,-500.5 223,-519.5"/>
<text text-anchor="middle" x="208.5" y="-507.5" font-family="Helvetica,sans-Serif" font-size="10.00">C</text>
</a>
</g>
</g>
<!-- Node4&#45;&gt;Node5 -->
<g id="edge20" class="edge">
<title>Node4&#45;&gt;Node5</title>
<path fill="none" stroke="darkgreen" d="M216.45,-530.48C230.49,-568.52 266.01,-649.84 325,-690 329.66,-693.17 334.75,-695.81 340.05,-698.01"/>
<polygon fill="darkgreen" stroke="darkgreen" points="219.8,-529.44 213.15,-521.19 213.2,-531.78 219.8,-529.44"/>
</g>
<!-- Node4&#45;&gt;Node3 -->
<g id="edge19" class="edge">
<title>Node4&#45;&gt;Node3</title>
<path fill="none" stroke="#63b8ff" d="M225.91,-491.59C242.04,-473.45 267.32,-444.91 289,-420 305.14,-401.45 304.17,-391.06 325,-378 333.03,-372.97 342.09,-368.98 351.31,-365.83"/>
<polygon fill="#63b8ff" stroke="#63b8ff" points="223.41,-489.13 219.38,-498.92 228.64,-493.78 223.41,-489.13"/>
</g>
<!-- Node4&#45;&gt;Node9 -->
<g id="edge22" class="edge">
<title>Node4&#45;&gt;Node9</title>
<path fill="none" stroke="#63b8ff" d="M228.18,-492.62C245.74,-475.5 271.81,-447.92 289,-420 311.59,-383.32 293.61,-359.5 325,-330 332.76,-322.71 342.32,-317.19 352.31,-313.01"/>
<polygon fill="#63b8ff" stroke="#63b8ff" points="226.22,-489.65 221.42,-499.1 231.06,-494.71 226.22,-489.65"/>
</g>
<!-- Node4&#45;&gt;Node7 -->
<g id="edge21" class="edge">
<title>Node4&#45;&gt;Node7</title>
<path fill="none" stroke="#63b8ff" d="M228.7,-492.53C250.52,-473.55 287.93,-443.6 325,-426 331.79,-422.78 339.08,-419.94 346.46,-417.45"/>
<polygon fill="#63b8ff" stroke="#63b8ff" points="226.38,-489.9 221.22,-499.15 231.03,-495.14 226.38,-489.9"/>
</g>
<!-- Node19 -->
<g id="node20" class="node">
<title>Node19</title>
<g id="a_node20"><a xlink:href="struct_engine_1_1_sorted_container_api.html" target="_top" xlink:title=" ">
<polygon fill="white" stroke="#666666" points="496,-562.5 338,-562.5 338,-543.5 496,-543.5 496,-562.5"/>
<text text-anchor="middle" x="417" y="-550.5" font-family="Helvetica,sans-Serif" font-size="10.00">Engine::SortedContainerApi&lt; C &gt;</text>
</a>
</g>
</g>
<!-- Node4&#45;&gt;Node19 -->
<g id="edge23" class="edge">
<title>Node4&#45;&gt;Node19</title>
<path fill="none" stroke="#63b8ff" d="M234.26,-515.16C267.25,-522.03 326.31,-534.32 368.14,-543.03"/>
<polygon fill="#63b8ff" stroke="#63b8ff" points="235.35,-511.81 224.85,-513.2 233.93,-518.66 235.35,-511.81"/>
</g>
<!-- Node22 -->
<g id="node23" class="node">
<title>Node22</title>
<g id="a_node23"><a xlink:href="struct_engine_1_1_unique_component_1_1_container.html" target="_top" xlink:title=" ">
<polygon fill="white" stroke="#666666" points="482.5,-525 351.5,-525 351.5,-495 482.5,-495 482.5,-525"/>
<text text-anchor="start" x="359.5" y="-513" font-family="Helvetica,sans-Serif" font-size="10.00">Engine::UniqueComponent</text>
<text text-anchor="middle" x="417" y="-502" font-family="Helvetica,sans-Serif" font-size="10.00">::Container&lt; C, Registry &gt;</text>
</a>
</g>
</g>
<!-- Node4&#45;&gt;Node22 -->
<g id="edge26" class="edge">
<title>Node4&#45;&gt;Node22</title>
<path fill="none" stroke="#63b8ff" d="M234.79,-510C263.59,-510 311.74,-510 351.18,-510"/>
<polygon fill="#63b8ff" stroke="#63b8ff" points="234.88,-506.5 224.88,-510 234.88,-513.5 234.88,-506.5"/>
</g>
<!-- Node23 -->
<g id="node24" class="node">
<title>Node23</title>
<g id="a_node24"><a xlink:href="struct_engine_1_1container__api__impl_3_01_c_00_01std_1_1deque_3_01_ty_8_8_8_01_4_01_4.html" target="_top" xlink:title=" ">
<polygon fill="white" stroke="#666666" points="471,-476.5 363,-476.5 363,-435.5 471,-435.5 471,-476.5"/>
<text text-anchor="start" x="371" y="-464.5" font-family="Helvetica,sans-Serif" font-size="10.00">Engine::container_api</text>
<text text-anchor="start" x="371" y="-453.5" font-family="Helvetica,sans-Serif" font-size="10.00">_impl&lt; C, std::deque</text>
<text text-anchor="middle" x="417" y="-442.5" font-family="Helvetica,sans-Serif" font-size="10.00">&lt; Ty... &gt; &gt;</text>
</a>
</g>
</g>
<!-- Node4&#45;&gt;Node23 -->
<g id="edge27" class="edge">
<title>Node4&#45;&gt;Node23</title>
<path fill="none" stroke="#63b8ff" d="M234.23,-503.53C265.83,-495.27 321.4,-480.74 362.8,-469.91"/>
<polygon fill="#63b8ff" stroke="#63b8ff" points="233.62,-500.07 224.83,-505.99 235.39,-506.85 233.62,-500.07"/>
</g>
<!-- Node24 -->
<g id="node25" class="node">
<title>Node24</title>
<g id="a_node25"><a xlink:href="struct_engine_1_1container__api__impl_3_01_c_00_01std_1_1list_3_01_ty_8_8_8_01_4_01_4.html" target="_top" xlink:title=" ">
<polygon fill="white" stroke="#666666" points="471,-680.5 363,-680.5 363,-639.5 471,-639.5 471,-680.5"/>
<text text-anchor="start" x="371" y="-668.5" font-family="Helvetica,sans-Serif" font-size="10.00">Engine::container_api</text>
<text text-anchor="start" x="371" y="-657.5" font-family="Helvetica,sans-Serif" font-size="10.00">_impl&lt; C, std::list&lt;</text>
<text text-anchor="middle" x="417" y="-646.5" font-family="Helvetica,sans-Serif" font-size="10.00"> Ty... &gt; &gt;</text>
</a>
</g>
</g>
<!-- Node4&#45;&gt;Node24 -->
<g id="edge28" class="edge">
<title>Node4&#45;&gt;Node24</title>
<path fill="none" stroke="#63b8ff" d="M222.82,-529.08C242.31,-555.63 281.08,-603.55 325,-631 336.39,-638.12 349.68,-643.64 362.53,-647.85"/>
<polygon fill="#63b8ff" stroke="#63b8ff" points="225.67,-527.04 216.99,-520.96 219.98,-531.12 225.67,-527.04"/>
</g>
<!-- Node25 -->
<g id="node26" class="node">
<title>Node25</title>
<g id="a_node26"><a xlink:href="struct_engine_1_1container__api__impl_3_01_c_00_01std_1_1vector_3_01_ty_8_8_8_01_4_01_4.html" target="_top" xlink:title=" ">
<polygon fill="white" stroke="#666666" points="471,-621.5 363,-621.5 363,-580.5 471,-580.5 471,-621.5"/>
<text text-anchor="start" x="371" y="-609.5" font-family="Helvetica,sans-Serif" font-size="10.00">Engine::container_api</text>
<text text-anchor="start" x="371" y="-598.5" font-family="Helvetica,sans-Serif" font-size="10.00">_impl&lt; C, std::vector</text>
<text text-anchor="middle" x="417" y="-587.5" font-family="Helvetica,sans-Serif" font-size="10.00">&lt; Ty... &gt; &gt;</text>
</a>
</g>
</g>
<!-- Node4&#45;&gt;Node25 -->
<g id="edge29" class="edge">
<title>Node4&#45;&gt;Node25</title>
<path fill="none" stroke="#63b8ff" d="M233.21,-524.03C256.17,-537.25 292.21,-557.05 325,-571 336.94,-576.08 350.05,-580.85 362.51,-585.02"/>
<polygon fill="#63b8ff" stroke="#63b8ff" points="235.06,-521.06 224.66,-519.06 231.54,-527.11 235.06,-521.06"/>
</g>
<!-- Node20 -->
<g id="node21" class="node">
<title>Node20</title>
<g id="a_node21"><a xlink:href="struct_engine_1_1container__api__impl_3_01_c_00_01std_1_1map_3_01_k_00_01_t_00_01_ty_8_8_8_01_4_01_4.html" target="_top" xlink:title=" ">
<polygon fill="white" stroke="#666666" points="669.5,-600.5 554.5,-600.5 554.5,-559.5 669.5,-559.5 669.5,-600.5"/>
<text text-anchor="start" x="562.5" y="-588.5" font-family="Helvetica,sans-Serif" font-size="10.00">Engine::container_api</text>
<text text-anchor="start" x="562.5" y="-577.5" font-family="Helvetica,sans-Serif" font-size="10.00">_impl&lt; C, std::map&lt; K,</text>
<text text-anchor="middle" x="612" y="-566.5" font-family="Helvetica,sans-Serif" font-size="10.00"> T, Ty... &gt; &gt;</text>
</a>
</g>
</g>
<!-- Node19&#45;&gt;Node20 -->
<g id="edge24" class="edge">
<title>Node19&#45;&gt;Node20</title>
<path fill="none" stroke="#63b8ff" d="M500.47,-564.54C518.56,-567.07 537.32,-569.69 554.13,-572.04"/>
<polygon fill="#63b8ff" stroke="#63b8ff" points="501.21,-561.11 490.82,-563.19 500.24,-568.04 501.21,-561.11"/>
</g>
<!-- Node21 -->
<g id="node22" class="node">
<title>Node21</title>
<g id="a_node22"><a xlink:href="struct_engine_1_1container__api__impl_3_01_c_00_01std_1_1set_3_01_ty_8_8_8_01_4_01_4.html" target="_top" xlink:title=" ">
<polygon fill="white" stroke="#666666" points="679,-541 545,-541 545,-511 679,-511 679,-541"/>
<text text-anchor="start" x="553" y="-529" font-family="Helvetica,sans-Serif" font-size="10.00">Engine::container_api</text>
<text text-anchor="middle" x="612" y="-518" font-family="Helvetica,sans-Serif" font-size="10.00">_impl&lt; C, std::set&lt; Ty... &gt; &gt;</text>
</a>
</g>
</g>
<!-- Node19&#45;&gt;Node21 -->
<g id="edge25" class="edge">
<title>Node19&#45;&gt;Node21</title>
<path fill="none" stroke="#63b8ff" d="M500.51,-541.46C515.29,-539.39 530.52,-537.26 544.77,-535.27"/>
<polygon fill="#63b8ff" stroke="#63b8ff" points="500.24,-537.96 490.82,-542.81 501.21,-544.89 500.24,-537.96"/>
</g>
</g>
</svg>
