<?xml version="1.0" encoding="UTF-8" standalone="no"?>
<!DOCTYPE svg PUBLIC "-//W3C//DTD SVG 1.1//EN"
 "http://www.w3.org/Graphics/SVG/1.1/DTD/svg11.dtd">
<!-- Generated by graphviz version 7.0.5 (20221223.1930)
 -->
<!-- Title: Graphical Class Hierarchy Pages: 1 -->
<svg width="321pt" height="113pt"
 viewBox="0.00 0.00 321.00 112.50" xmlns="http://www.w3.org/2000/svg" xmlns:xlink="http://www.w3.org/1999/xlink">
<g id="graph0" class="graph" transform="scale(1 1) rotate(0) translate(4 108.5)">
<title>Graphical Class Hierarchy</title>
<!-- Node0 -->
<g id="node1" class="node">
<title>Node0</title>
<g id="a_node1"><a xlink:href="struct_engine_1_1_render_1_1_pipeline.html" target="_top" xlink:title=" ">
<polygon fill="white" stroke="#666666" points="120,-56 0,-56 0,-37 120,-37 120,-56"/>
<text text-anchor="middle" x="60" y="-44" font-family="Helvetica,sans-Serif" font-size="10.00">Engine::Render::Pipeline</text>
</a>
</g>
</g>
<!-- Node1 -->
<g id="node2" class="node">
<title>Node1</title>
<g id="a_node2"><a xlink:href="struct_engine_1_1_render_1_1_direct_x12_pipeline.html" target="_top" xlink:title=" ">
<polygon fill="white" stroke="#666666" points="298.5,-104.5 170.5,-104.5 170.5,-74.5 298.5,-74.5 298.5,-104.5"/>
<text text-anchor="start" x="178.5" y="-92.5" font-family="Helvetica,sans-Serif" font-size="10.00">Engine::Render::DirectX12</text>
<text text-anchor="middle" x="234.5" y="-81.5" font-family="Helvetica,sans-Serif" font-size="10.00">Pipeline</text>
</a>
</g>
</g>
<!-- Node0&#45;&gt;Node1 -->
<g id="edge1" class="edge">
<title>Node0&#45;&gt;Node1</title>
<path fill="none" stroke="#63b8ff" d="M111.94,-59.2C130.59,-63.85 151.89,-69.16 171.41,-74.02"/>
<polygon fill="#63b8ff" stroke="#63b8ff" points="113.03,-55.86 102.48,-56.84 111.33,-62.65 113.03,-55.86"/>
</g>
<!-- Node2 -->
<g id="node3" class="node">
<title>Node2</title>
<g id="a_node3"><a xlink:href="struct_engine_1_1_render_1_1_open_g_l_pipeline.html" target="_top" xlink:title=" ">
<polygon fill="white" stroke="#666666" points="313,-56 156,-56 156,-37 313,-37 313,-56"/>
<text text-anchor="middle" x="234.5" y="-44" font-family="Helvetica,sans-Serif" font-size="10.00">Engine::Render::OpenGLPipeline</text>
</a>
</g>
</g>
<!-- Node0&#45;&gt;Node2 -->
<g id="edge2" class="edge">
<title>Node0&#45;&gt;Node2</title>
<path fill="none" stroke="#63b8ff" d="M131.78,-46.5C139.68,-46.5 147.76,-46.5 155.75,-46.5"/>
<polygon fill="#63b8ff" stroke="#63b8ff" points="131.88,-43 121.88,-46.5 131.88,-50 131.88,-43"/>
</g>
<!-- Node3 -->
<g id="node4" class="node">
<title>Node3</title>
<g id="a_node4"><a xlink:href="struct_engine_1_1_render_1_1_vulkan_pipeline.html" target="_top" xlink:title=" ">
<polygon fill="white" stroke="#666666" points="309.5,-19 159.5,-19 159.5,0 309.5,0 309.5,-19"/>
<text text-anchor="middle" x="234.5" y="-7" font-family="Helvetica,sans-Serif" font-size="10.00">Engine::Render::VulkanPipeline</text>
</a>
</g>
</g>
<!-- Node0&#45;&gt;Node3 -->
<g id="edge3" class="edge">
<title>Node0&#45;&gt;Node3</title>
<path fill="none" stroke="#63b8ff" d="M118.28,-34.21C140.65,-29.42 165.96,-23.99 187.15,-19.44"/>
<polygon fill="#63b8ff" stroke="#63b8ff" points="117.75,-30.75 108.71,-36.27 119.22,-37.59 117.75,-30.75"/>
</g>
</g>
</svg>
