<?xml version="1.0" encoding="UTF-8" standalone="no"?>
<!DOCTYPE svg PUBLIC "-//W3C//DTD SVG 1.1//EN"
 "http://www.w3.org/Graphics/SVG/1.1/DTD/svg11.dtd">
<!-- Generated by graphviz version 7.0.5 (20221223.1930)
 -->
<!-- Title: Graphical Class Hierarchy Pages: 1 -->
<svg width="253pt" height="230pt"
 viewBox="0.00 0.00 253.00 230.00" xmlns="http://www.w3.org/2000/svg" xmlns:xlink="http://www.w3.org/1999/xlink">
<g id="graph0" class="graph" transform="scale(1 1) rotate(0) translate(4 226)">
<title>Graphical Class Hierarchy</title>
<!-- Node0 -->
<g id="node1" class="node">
<title>Node0</title>
<g id="a_node1"><a xlink:href="struct_engine_1_1_serialize_1_1_formatter.html" target="_top" xlink:title=" ">
<polygon fill="white" stroke="#666666" points="92,-126 0,-126 0,-96 92,-96 92,-126"/>
<text text-anchor="start" x="8" y="-114" font-family="Helvetica,sans-Serif" font-size="10.00">Engine::Serialize::</text>
<text text-anchor="middle" x="46" y="-103" font-family="Helvetica,sans-Serif" font-size="10.00">Formatter</text>
</a>
</g>
</g>
<!-- Node1 -->
<g id="node2" class="node">
<title>Node1</title>
<g id="a_node2"><a xlink:href="struct_engine_1_1_serialize_1_1_ini_formatter.html" target="_top" xlink:title=" ">
<polygon fill="white" stroke="#666666" points="232.5,-222 140.5,-222 140.5,-192 232.5,-192 232.5,-222"/>
<text text-anchor="start" x="148.5" y="-210" font-family="Helvetica,sans-Serif" font-size="10.00">Engine::Serialize::</text>
<text text-anchor="middle" x="186.5" y="-199" font-family="Helvetica,sans-Serif" font-size="10.00">IniFormatter</text>
</a>
</g>
</g>
<!-- Node0&#45;&gt;Node1 -->
<g id="edge1" class="edge">
<title>Node0&#45;&gt;Node1</title>
<path fill="none" stroke="#63b8ff" d="M69.19,-134.42C84.61,-149.72 106.22,-169.32 128,-183 132.95,-186.11 138.36,-188.97 143.83,-191.56"/>
<polygon fill="#63b8ff" stroke="#63b8ff" points="71.88,-132.17 62.37,-127.51 66.9,-137.09 71.88,-132.17"/>
</g>
<!-- Node2 -->
<g id="node3" class="node">
<title>Node2</title>
<g id="a_node3"><a xlink:href="struct_engine_1_1_serialize_1_1_j_s_o_n_formatter.html" target="_top" xlink:title=" ">
<polygon fill="white" stroke="#666666" points="232.5,-174 140.5,-174 140.5,-144 232.5,-144 232.5,-174"/>
<text text-anchor="start" x="148.5" y="-162" font-family="Helvetica,sans-Serif" font-size="10.00">Engine::Serialize::</text>
<text text-anchor="middle" x="186.5" y="-151" font-family="Helvetica,sans-Serif" font-size="10.00">JSONFormatter</text>
</a>
</g>
</g>
<!-- Node0&#45;&gt;Node2 -->
<g id="edge2" class="edge">
<title>Node0&#45;&gt;Node2</title>
<path fill="none" stroke="#63b8ff" d="M102.21,-130.13C115.09,-134.6 128.65,-139.3 141,-143.58"/>
<polygon fill="#63b8ff" stroke="#63b8ff" points="103.61,-126.92 93.01,-126.95 101.32,-133.53 103.61,-126.92"/>
</g>
<!-- Node3 -->
<g id="node4" class="node">
<title>Node3</title>
<g id="a_node4"><a xlink:href="struct_engine_1_1_serialize_1_1_safe_binary_formatter.html" target="_top" xlink:title=" ">
<polygon fill="white" stroke="#666666" points="239.5,-126 133.5,-126 133.5,-96 239.5,-96 239.5,-126"/>
<text text-anchor="start" x="141.5" y="-114" font-family="Helvetica,sans-Serif" font-size="10.00">Engine::Serialize::</text>
<text text-anchor="middle" x="186.5" y="-103" font-family="Helvetica,sans-Serif" font-size="10.00">SafeBinaryFormatter</text>
</a>
</g>
</g>
<!-- Node0&#45;&gt;Node3 -->
<g id="edge3" class="edge">
<title>Node0&#45;&gt;Node3</title>
<path fill="none" stroke="#63b8ff" d="M103.66,-111C113.47,-111 123.63,-111 133.32,-111"/>
<polygon fill="#63b8ff" stroke="#63b8ff" points="103.86,-107.5 93.86,-111 103.86,-114.5 103.86,-107.5"/>
</g>
<!-- Node4 -->
<g id="node5" class="node">
<title>Node4</title>
<g id="a_node5"><a xlink:href="struct_engine_1_1_serialize_1_1_unsafe_binary_formatter.html" target="_top" xlink:title=" ">
<polygon fill="white" stroke="#666666" points="245,-78 128,-78 128,-48 245,-48 245,-78"/>
<text text-anchor="start" x="136" y="-66" font-family="Helvetica,sans-Serif" font-size="10.00">Engine::Serialize::</text>
<text text-anchor="middle" x="186.5" y="-55" font-family="Helvetica,sans-Serif" font-size="10.00">UnsafeBinaryFormatter</text>
</a>
</g>
</g>
<!-- Node0&#45;&gt;Node4 -->
<g id="edge4" class="edge">
<title>Node0&#45;&gt;Node4</title>
<path fill="none" stroke="#63b8ff" d="M102.21,-91.87C115.09,-87.4 128.65,-82.7 141,-78.42"/>
<polygon fill="#63b8ff" stroke="#63b8ff" points="101.32,-88.47 93.01,-95.05 103.61,-95.08 101.32,-88.47"/>
</g>
<!-- Node5 -->
<g id="node6" class="node">
<title>Node5</title>
<g id="a_node6"><a xlink:href="struct_engine_1_1_serialize_1_1_x_m_l_formatter.html" target="_top" xlink:title=" ">
<polygon fill="white" stroke="#666666" points="232.5,-30 140.5,-30 140.5,0 232.5,0 232.5,-30"/>
<text text-anchor="start" x="148.5" y="-18" font-family="Helvetica,sans-Serif" font-size="10.00">Engine::Serialize::</text>
<text text-anchor="middle" x="186.5" y="-7" font-family="Helvetica,sans-Serif" font-size="10.00">XMLFormatter</text>
</a>
</g>
</g>
<!-- Node0&#45;&gt;Node5 -->
<g id="edge5" class="edge">
<title>Node0&#45;&gt;Node5</title>
<path fill="none" stroke="#63b8ff" d="M69.19,-87.58C84.61,-72.28 106.22,-52.68 128,-39 132.95,-35.89 138.36,-33.03 143.83,-30.44"/>
<polygon fill="#63b8ff" stroke="#63b8ff" points="66.9,-84.91 62.37,-94.49 71.88,-89.83 66.9,-84.91"/>
</g>
</g>
</svg>
