<?xml version="1.0" encoding="UTF-8" standalone="no"?>
<!DOCTYPE svg PUBLIC "-//W3C//DTD SVG 1.1//EN"
 "http://www.w3.org/Graphics/SVG/1.1/DTD/svg11.dtd">
<!-- Generated by graphviz version 7.0.5 (20221223.1930)
 -->
<!-- Title: Graphical Class Hierarchy Pages: 1 -->
<svg width="458pt" height="845pt"
 viewBox="0.00 0.00 458.00 844.50" xmlns="http://www.w3.org/2000/svg" xmlns:xlink="http://www.w3.org/1999/xlink">
<g id="graph0" class="graph" transform="scale(1 1) rotate(0) translate(4 840.5)">
<title>Graphical Class Hierarchy</title>
<!-- Node0 -->
<g id="node1" class="node">
<title>Node0</title>
<g id="a_node1"><a xlink:href="struct_engine_1_1_execution_1_1base__state.html" target="_top" xlink:title=" ">
<polygon fill="white" stroke="#666666" points="267.5,-457 169.5,-457 169.5,-427 267.5,-427 267.5,-457"/>
<text text-anchor="start" x="177.5" y="-445" font-family="Helvetica,sans-Serif" font-size="10.00">Engine::Execution::</text>
<text text-anchor="middle" x="218.5" y="-434" font-family="Helvetica,sans-Serif" font-size="10.00">base_state&lt; Rec &gt;</text>
</a>
</g>
</g>
<!-- Node1 -->
<g id="node2" class="node">
<title>Node1</title>
<g id="a_node2"><a xlink:href="struct_engine_1_1_execution_1_1sequence__t_1_1state.html" target="_top" xlink:title=" ">
<polygon fill="white" stroke="#666666" points="444,-777.5 322,-777.5 322,-736.5 444,-736.5 444,-777.5"/>
<text text-anchor="start" x="330" y="-765.5" font-family="Helvetica,sans-Serif" font-size="10.00">Engine::Execution::</text>
<text text-anchor="start" x="330" y="-754.5" font-family="Helvetica,sans-Serif" font-size="10.00">sequence_t::state&lt; Rec,</text>
<text text-anchor="middle" x="383" y="-743.5" font-family="Helvetica,sans-Serif" font-size="10.00"> Sender... &gt;</text>
</a>
</g>
</g>
<!-- Node0&#45;&gt;Node1 -->
<g id="edge1" class="edge">
<title>Node0&#45;&gt;Node1</title>
<path fill="none" stroke="#63b8ff" d="M221.55,-468.59C227.11,-523.53 247.1,-650.82 316,-727 319.04,-730.36 322.53,-733.37 326.28,-736.06"/>
<polygon fill="#63b8ff" stroke="#63b8ff" points="225.06,-468.56 220.65,-458.92 218.09,-469.2 225.06,-468.56"/>
</g>
<!-- Node2 -->
<g id="node3" class="node">
<title>Node2</title>
<g id="a_node3"><a xlink:href="struct_engine_1_1_binding_1_1state.html" target="_top" xlink:title=" ">
<polygon fill="white" stroke="#666666" points="443,-718 323,-718 323,-688 443,-688 443,-718"/>
<text text-anchor="start" x="331" y="-706" font-family="Helvetica,sans-Serif" font-size="10.00">Engine::Binding&lt; Name,</text>
<text text-anchor="middle" x="383" y="-695" font-family="Helvetica,sans-Serif" font-size="10.00"> T &gt;::state&lt; Rec &gt;</text>
</a>
</g>
</g>
<!-- Node0&#45;&gt;Node2 -->
<g id="edge2" class="edge">
<title>Node0&#45;&gt;Node2</title>
<path fill="none" stroke="#63b8ff" d="M223.2,-468.78C231.27,-517.31 254.91,-620.18 316,-679 319.43,-682.3 323.34,-685.15 327.51,-687.61"/>
<polygon fill="#63b8ff" stroke="#63b8ff" points="226.66,-468.25 221.66,-458.91 219.74,-469.33 226.66,-468.25"/>
</g>
<!-- Node3 -->
<g id="node4" class="node">
<title>Node3</title>
<g id="a_node4"><a xlink:href="struct_engine_1_1_execution_1_1for__each__t_1_1state.html" target="_top" xlink:title=" ">
<polygon fill="white" stroke="#666666" points="441.5,-669.5 324.5,-669.5 324.5,-628.5 441.5,-628.5 441.5,-669.5"/>
<text text-anchor="start" x="332.5" y="-657.5" font-family="Helvetica,sans-Serif" font-size="10.00">Engine::Execution::</text>
<text text-anchor="start" x="332.5" y="-646.5" font-family="Helvetica,sans-Serif" font-size="10.00">for_each_t::state&lt; Rec,</text>
<text text-anchor="middle" x="383" y="-635.5" font-family="Helvetica,sans-Serif" font-size="10.00"> C, F &gt;</text>
</a>
</g>
</g>
<!-- Node0&#45;&gt;Node3 -->
<g id="edge3" class="edge">
<title>Node0&#45;&gt;Node3</title>
<path fill="none" stroke="#63b8ff" d="M227.58,-468.2C240.54,-506.29 269.36,-577.07 316,-620 319.22,-622.97 322.8,-625.66 326.57,-628.11"/>
<polygon fill="#63b8ff" stroke="#63b8ff" points="230.98,-467.34 224.54,-458.94 224.33,-469.53 230.98,-467.34"/>
</g>
<!-- Node4 -->
<g id="node5" class="node">
<title>Node4</title>
<g id="a_node5"><a xlink:href="struct_engine_1_1_execution_1_1just__error__t_1_1state.html" target="_top" xlink:title=" ">
<polygon fill="white" stroke="#666666" points="431.5,-610.5 334.5,-610.5 334.5,-569.5 431.5,-569.5 431.5,-610.5"/>
<text text-anchor="start" x="342.5" y="-598.5" font-family="Helvetica,sans-Serif" font-size="10.00">Engine::Execution::</text>
<text text-anchor="start" x="342.5" y="-587.5" font-family="Helvetica,sans-Serif" font-size="10.00">just_error_t::state</text>
<text text-anchor="middle" x="383" y="-576.5" font-family="Helvetica,sans-Serif" font-size="10.00">&lt; Rec, R &gt;</text>
</a>
</g>
</g>
<!-- Node0&#45;&gt;Node4 -->
<g id="edge4" class="edge">
<title>Node0&#45;&gt;Node4</title>
<path fill="none" stroke="#63b8ff" d="M234.71,-467.14C251.72,-493.49 281.46,-534.65 316,-561 321.57,-565.25 327.86,-569.03 334.3,-572.34"/>
<polygon fill="#63b8ff" stroke="#63b8ff" points="237.73,-465.37 229.43,-458.78 231.81,-469.1 237.73,-465.37"/>
</g>
<!-- Node5 -->
<g id="node6" class="node">
<title>Node5</title>
<g id="a_node6"><a xlink:href="struct_engine_1_1_execution_1_1just__t_1_1state.html" target="_top" xlink:title=" ">
<polygon fill="white" stroke="#666666" points="431.5,-551.5 334.5,-551.5 334.5,-510.5 431.5,-510.5 431.5,-551.5"/>
<text text-anchor="start" x="342.5" y="-539.5" font-family="Helvetica,sans-Serif" font-size="10.00">Engine::Execution::</text>
<text text-anchor="start" x="342.5" y="-528.5" font-family="Helvetica,sans-Serif" font-size="10.00">just_t::state&lt; Rec,</text>
<text text-anchor="middle" x="383" y="-517.5" font-family="Helvetica,sans-Serif" font-size="10.00"> Args &gt;</text>
</a>
</g>
</g>
<!-- Node0&#45;&gt;Node5 -->
<g id="edge5" class="edge">
<title>Node0&#45;&gt;Node5</title>
<path fill="none" stroke="#63b8ff" d="M251.74,-463.65C270.18,-475.62 293.96,-490.38 316,-502 321.76,-505.03 327.9,-508.03 334.03,-510.89"/>
<polygon fill="#63b8ff" stroke="#63b8ff" points="253.9,-460.88 243.62,-458.33 250.07,-466.74 253.9,-460.88"/>
</g>
<!-- Node6 -->
<g id="node7" class="node">
<title>Node6</title>
<g id="a_node7"><a xlink:href="struct_engine_1_1_execution_1_1read__var__t_1_1state.html" target="_top" xlink:title=" ">
<polygon fill="white" stroke="#666666" points="446,-492.5 320,-492.5 320,-451.5 446,-451.5 446,-492.5"/>
<text text-anchor="start" x="328" y="-480.5" font-family="Helvetica,sans-Serif" font-size="10.00">Engine::Execution::</text>
<text text-anchor="start" x="328" y="-469.5" font-family="Helvetica,sans-Serif" font-size="10.00">read_var_t::state&lt; Name,</text>
<text text-anchor="middle" x="383" y="-458.5" font-family="Helvetica,sans-Serif" font-size="10.00"> T, Rec &gt;</text>
</a>
</g>
</g>
<!-- Node0&#45;&gt;Node6 -->
<g id="edge6" class="edge">
<title>Node0&#45;&gt;Node6</title>
<path fill="none" stroke="#63b8ff" d="M278.77,-452.94C292.09,-455.4 306.26,-458.02 319.7,-460.5"/>
<polygon fill="#63b8ff" stroke="#63b8ff" points="279.77,-449.57 269.3,-451.19 278.5,-456.45 279.77,-449.57"/>
</g>
<!-- Node7 -->
<g id="node8" class="node">
<title>Node7</title>
<g id="a_node8"><a xlink:href="struct_engine_1_1_execution_1_1reduce__stream__t_1_1state.html" target="_top" xlink:title=" ">
<polygon fill="white" stroke="#666666" points="441,-433.5 325,-433.5 325,-392.5 441,-392.5 441,-433.5"/>
<text text-anchor="start" x="333" y="-421.5" font-family="Helvetica,sans-Serif" font-size="10.00">Engine::Execution::</text>
<text text-anchor="start" x="333" y="-410.5" font-family="Helvetica,sans-Serif" font-size="10.00">reduce_stream_t::state</text>
<text text-anchor="middle" x="383" y="-399.5" font-family="Helvetica,sans-Serif" font-size="10.00">&lt; Rec, Stream, T, F &gt;</text>
</a>
</g>
</g>
<!-- Node0&#45;&gt;Node7 -->
<g id="edge7" class="edge">
<title>Node0&#45;&gt;Node7</title>
<path fill="none" stroke="#63b8ff" d="M278.98,-431.38C293.91,-428.72 309.89,-425.87 324.7,-423.23"/>
<polygon fill="#63b8ff" stroke="#63b8ff" points="278.53,-427.91 269.31,-433.11 279.76,-434.8 278.53,-427.91"/>
</g>
<!-- Node8 -->
<g id="node9" class="node">
<title>Node8</title>
<g id="a_node9"><a xlink:href="struct_engine_1_1_execution_1_1sequence__t_1_1state.html" target="_top" xlink:title=" ">
<polygon fill="white" stroke="#666666" points="444,-374.5 322,-374.5 322,-333.5 444,-333.5 444,-374.5"/>
<text text-anchor="start" x="330" y="-362.5" font-family="Helvetica,sans-Serif" font-size="10.00">Engine::Execution::</text>
<text text-anchor="start" x="330" y="-351.5" font-family="Helvetica,sans-Serif" font-size="10.00">sequence_t::state&lt; Rec,</text>
<text text-anchor="middle" x="383" y="-340.5" font-family="Helvetica,sans-Serif" font-size="10.00"> Sender &gt;</text>
</a>
</g>
</g>
<!-- Node0&#45;&gt;Node8 -->
<g id="edge8" class="edge">
<title>Node0&#45;&gt;Node8</title>
<path fill="none" stroke="#63b8ff" d="M252.88,-420.64C271.22,-409.24 294.54,-395.28 316,-384 321.79,-380.96 327.96,-377.91 334.1,-374.99"/>
<polygon fill="#63b8ff" stroke="#63b8ff" points="251.15,-417.6 244.54,-425.88 254.87,-423.53 251.15,-417.6"/>
</g>
<!-- Node9 -->
<g id="node10" class="node">
<title>Node9</title>
<g id="a_node10"><a xlink:href="struct_engine_1_1_execution_1_1when__all__range__t_1_1state.html" target="_top" xlink:title=" ">
<polygon fill="white" stroke="#666666" points="442.5,-315.5 323.5,-315.5 323.5,-274.5 442.5,-274.5 442.5,-315.5"/>
<text text-anchor="start" x="331.5" y="-303.5" font-family="Helvetica,sans-Serif" font-size="10.00">Engine::Execution::</text>
<text text-anchor="start" x="331.5" y="-292.5" font-family="Helvetica,sans-Serif" font-size="10.00">when_all_range_t::state</text>
<text text-anchor="middle" x="383" y="-281.5" font-family="Helvetica,sans-Serif" font-size="10.00">&lt; Rec, Sender &gt;</text>
</a>
</g>
</g>
<!-- Node0&#45;&gt;Node9 -->
<g id="edge9" class="edge">
<title>Node0&#45;&gt;Node9</title>
<path fill="none" stroke="#63b8ff" d="M234.86,-417.38C252.01,-391.56 281.87,-351.16 316,-325 320.3,-321.71 325.01,-318.68 329.88,-315.91"/>
<polygon fill="#63b8ff" stroke="#63b8ff" points="232.07,-415.27 229.55,-425.56 237.94,-419.08 232.07,-415.27"/>
</g>
<!-- Node10 -->
<g id="node11" class="node">
<title>Node10</title>
<g id="a_node11"><a xlink:href="struct_engine_1_1_execution_1_1when__all__t_1_1state_3_01_rec_00_01std_1_1index__sequence_3_01_i5deeaae98a74e3d08cd766130b7ce970.html" target="_top" xlink:title=" ">
<polygon fill="white" stroke="#666666" points="442,-256 324,-256 324,-204 442,-204 442,-256"/>
<text text-anchor="start" x="332" y="-244" font-family="Helvetica,sans-Serif" font-size="10.00">Engine::Execution::</text>
<text text-anchor="start" x="332" y="-233" font-family="Helvetica,sans-Serif" font-size="10.00">when_all_t::state&lt; Rec,</text>
<text text-anchor="start" x="332" y="-222" font-family="Helvetica,sans-Serif" font-size="10.00"> std::index_sequence&lt;</text>
<text text-anchor="middle" x="383" y="-211" font-family="Helvetica,sans-Serif" font-size="10.00"> Is... &gt;, Sender... &gt;</text>
</a>
</g>
</g>
<!-- Node0&#45;&gt;Node10 -->
<g id="edge10" class="edge">
<title>Node0&#45;&gt;Node10</title>
<path fill="none" stroke="#63b8ff" d="M228.15,-416.6C241.82,-379.58 271.51,-310.39 316,-266 319.42,-262.59 323.23,-259.41 327.24,-256.47"/>
<polygon fill="#63b8ff" stroke="#63b8ff" points="225.01,-414.98 224.93,-425.57 231.6,-417.34 225.01,-414.98"/>
</g>
<!-- Node11 -->
<g id="node12" class="node">
<title>Node11</title>
<g id="a_node12"><a xlink:href="struct_engine_1_1_fetch_state.html" target="_top" xlink:title=" ">
<polygon fill="white" stroke="#666666" points="432,-186 334,-186 334,-156 432,-156 432,-186"/>
<text text-anchor="start" x="342" y="-174" font-family="Helvetica,sans-Serif" font-size="10.00">Engine::FetchState</text>
<text text-anchor="middle" x="383" y="-163" font-family="Helvetica,sans-Serif" font-size="10.00">&lt; Rec, T &gt;</text>
</a>
</g>
</g>
<!-- Node0&#45;&gt;Node11 -->
<g id="edge11" class="edge">
<title>Node0&#45;&gt;Node11</title>
<path fill="none" stroke="#63b8ff" d="M222.65,-415.47C229.95,-365.51 252.56,-256.96 316,-195 321.06,-190.06 327.21,-186.13 333.71,-183"/>
<polygon fill="#63b8ff" stroke="#63b8ff" points="219.22,-414.69 221.34,-425.07 226.16,-415.63 219.22,-414.69"/>
</g>
<!-- Node14 -->
<g id="node13" class="node">
<title>Node14</title>
<g id="a_node13"><a xlink:href="struct_engine_1_1_interval_clock_1_1state.html" target="_top" xlink:title=" ">
<polygon fill="white" stroke="#666666" points="436.5,-137.5 329.5,-137.5 329.5,-96.5 436.5,-96.5 436.5,-137.5"/>
<text text-anchor="start" x="337.5" y="-125.5" font-family="Helvetica,sans-Serif" font-size="10.00">Engine::IntervalClock</text>
<text text-anchor="start" x="337.5" y="-114.5" font-family="Helvetica,sans-Serif" font-size="10.00">&lt; Timepoint &gt;::state</text>
<text text-anchor="middle" x="383" y="-103.5" font-family="Helvetica,sans-Serif" font-size="10.00">&lt; Inner, Rec &gt;</text>
</a>
</g>
</g>
<!-- Node0&#45;&gt;Node14 -->
<g id="edge12" class="edge">
<title>Node0&#45;&gt;Node14</title>
<path fill="none" stroke="#63b8ff" d="M221.19,-415.3C226.11,-358.9 245,-226.32 316,-147 319.78,-142.78 324.27,-139.12 329.1,-135.94"/>
<polygon fill="#63b8ff" stroke="#63b8ff" points="217.7,-414.98 220.41,-425.22 224.68,-415.53 217.7,-414.98"/>
</g>
<!-- Node16 -->
<g id="node14" class="node">
<title>Node16</title>
<g id="a_node14"><a xlink:href="struct_engine_1_1_node_graph_1_1_node_reader_1_1state.html" target="_top" xlink:title=" ">
<polygon fill="white" stroke="#666666" points="442.5,-836.5 323.5,-836.5 323.5,-795.5 442.5,-795.5 442.5,-836.5"/>
<text text-anchor="start" x="331.5" y="-824.5" font-family="Helvetica,sans-Serif" font-size="10.00">Engine::NodeGraph::</text>
<text text-anchor="start" x="331.5" y="-813.5" font-family="Helvetica,sans-Serif" font-size="10.00">NodeReader&lt; T &gt;::state</text>
<text text-anchor="middle" x="383" y="-802.5" font-family="Helvetica,sans-Serif" font-size="10.00">&lt; Rec &gt;</text>
</a>
</g>
</g>
<!-- Node0&#45;&gt;Node16 -->
<g id="edge13" class="edge">
<title>Node0&#45;&gt;Node16</title>
<path fill="none" stroke="#63b8ff" d="M219.57,-468.44C221.12,-531.37 233.45,-691.88 316,-787 318.63,-790.02 321.63,-792.75 324.87,-795.19"/>
<polygon fill="#63b8ff" stroke="#63b8ff" points="223.07,-468.66 219.41,-458.72 216.07,-468.77 223.07,-468.66"/>
</g>
<!-- Node17 -->
<g id="node15" class="node">
<title>Node17</title>
<g id="a_node15"><a xlink:href="struct_engine_1_1_threading_1_1_data_mutex_1_1state.html" target="_top" xlink:title=" ">
<polygon fill="white" stroke="#666666" points="450,-78 316,-78 316,-48 450,-48 450,-78"/>
<text text-anchor="start" x="324" y="-66" font-family="Helvetica,sans-Serif" font-size="10.00">Engine::Threading::</text>
<text text-anchor="middle" x="383" y="-55" font-family="Helvetica,sans-Serif" font-size="10.00">DataMutex::state&lt; Rec, F &gt;</text>
</a>
</g>
</g>
<!-- Node0&#45;&gt;Node17 -->
<g id="edge14" class="edge">
<title>Node0&#45;&gt;Node17</title>
<path fill="none" stroke="#63b8ff" d="M226.04,-415.46C245.86,-335.31 304.64,-100.5 316,-88 319.38,-84.28 323.37,-81.11 327.68,-78.41"/>
<polygon fill="#63b8ff" stroke="#63b8ff" points="222.66,-414.51 223.66,-425.06 229.46,-416.19 222.66,-414.51"/>
</g>
<!-- Node13 -->
<g id="node16" class="node">
<title>Node13</title>
<g id="a_node16"><a xlink:href="struct_engine_1_1_fetch_state_base.html" target="_top" xlink:title=" ">
<polygon fill="white" stroke="#666666" points="121,-180.5 0,-180.5 0,-161.5 121,-161.5 121,-180.5"/>
<text text-anchor="middle" x="60.5" y="-168.5" font-family="Helvetica,sans-Serif" font-size="10.00">Engine::FetchStateBase</text>
</a>
</g>
</g>
<!-- Node12 -->
<g id="node17" class="node">
<title>Node12</title>
<g id="a_node17"><a xlink:href="struct_engine_1_1_fetch_impl.html" target="_top" xlink:title=" ">
<polygon fill="white" stroke="#666666" points="276.5,-180.5 160.5,-180.5 160.5,-161.5 276.5,-161.5 276.5,-180.5"/>
<text text-anchor="middle" x="218.5" y="-168.5" font-family="Helvetica,sans-Serif" font-size="10.00">Engine::FetchImpl&lt; T &gt;</text>
</a>
</g>
</g>
<!-- Node13&#45;&gt;Node12 -->
<g id="edge15" class="edge">
<title>Node13&#45;&gt;Node12</title>
<path fill="none" stroke="#63b8ff" d="M132.84,-171C141.97,-171 151.23,-171 160.1,-171"/>
<polygon fill="#63b8ff" stroke="#63b8ff" points="132.88,-167.5 122.88,-171 132.88,-174.5 132.88,-167.5"/>
</g>
<!-- Node12&#45;&gt;Node11 -->
<g id="edge16" class="edge">
<title>Node12&#45;&gt;Node11</title>
<path fill="none" stroke="#63b8ff" d="M288.28,-171C303.52,-171 319.34,-171 333.56,-171"/>
<polygon fill="#63b8ff" stroke="#63b8ff" points="288.3,-167.5 278.3,-171 288.3,-174.5 288.3,-167.5"/>
</g>
<!-- Node18 -->
<g id="node18" class="node">
<title>Node18</title>
<g id="a_node18"><a xlink:href="struct_engine_1_1_threading_1_1_data_mutex_1_1_lock_state.html" target="_top" xlink:title=" ">
<polygon fill="white" stroke="#666666" points="275,-54 162,-54 162,-24 275,-24 275,-54"/>
<text text-anchor="start" x="170" y="-42" font-family="Helvetica,sans-Serif" font-size="10.00">Engine::Threading::</text>
<text text-anchor="middle" x="218.5" y="-31" font-family="Helvetica,sans-Serif" font-size="10.00">DataMutex::LockState</text>
</a>
</g>
</g>
<!-- Node18&#45;&gt;Node17 -->
<g id="edge18" class="edge">
<title>Node18&#45;&gt;Node17</title>
<path fill="none" stroke="#63b8ff" d="M286.54,-48.9C296.14,-50.32 306.02,-51.78 315.61,-53.19"/>
<polygon fill="#63b8ff" stroke="#63b8ff" points="287.32,-45.48 276.92,-47.48 286.3,-52.4 287.32,-45.48"/>
</g>
<!-- Node19 -->
<g id="node19" class="node">
<title>Node19</title>
<g id="a_node19"><a xlink:href="struct_engine_1_1_threading_1_1_data_mutex_1_1_lock.html" target="_top" xlink:title=" ">
<polygon fill="white" stroke="#666666" points="432,-30 334,-30 334,0 432,0 432,-30"/>
<text text-anchor="start" x="342" y="-18" font-family="Helvetica,sans-Serif" font-size="10.00">Engine::Threading::</text>
<text text-anchor="middle" x="383" y="-7" font-family="Helvetica,sans-Serif" font-size="10.00">DataMutex::Lock</text>
</a>
</g>
</g>
<!-- Node18&#45;&gt;Node19 -->
<g id="edge17" class="edge">
<title>Node18&#45;&gt;Node19</title>
<path fill="none" stroke="#8b1a1a" d="M286.7,-29.07C302.42,-26.75 318.85,-24.33 333.56,-22.15"/>
<polygon fill="#8b1a1a" stroke="#8b1a1a" points="286.3,-25.6 276.92,-30.52 287.32,-32.52 286.3,-25.6"/>
</g>
<!-- Node15 -->
<g id="node20" class="node">
<title>Node15</title>
<g id="a_node20"><a xlink:href="struct_engine_1_1_interval_clock_1_1_wait_state.html" target="_top" xlink:title=" ">
<polygon fill="white" stroke="#666666" points="280,-132 157,-132 157,-102 280,-102 280,-132"/>
<text text-anchor="start" x="165" y="-120" font-family="Helvetica,sans-Serif" font-size="10.00">Engine::IntervalClock</text>
<text text-anchor="middle" x="218.5" y="-109" font-family="Helvetica,sans-Serif" font-size="10.00">&lt; Timepoint &gt;::WaitState</text>
</a>
</g>
</g>
<!-- Node15&#45;&gt;Node14 -->
<g id="edge19" class="edge">
<title>Node15&#45;&gt;Node14</title>
<path fill="none" stroke="#63b8ff" d="M291.89,-117C304.46,-117 317.3,-117 329.22,-117"/>
<polygon fill="#63b8ff" stroke="#63b8ff" points="291.98,-113.5 281.98,-117 291.98,-120.5 291.98,-113.5"/>
</g>
</g>
</svg>
