<?xml version="1.0" encoding="UTF-8" standalone="no"?>
<!DOCTYPE svg PUBLIC "-//W3C//DTD SVG 1.1//EN"
 "http://www.w3.org/Graphics/SVG/1.1/DTD/svg11.dtd">
<!-- Generated by graphviz version 7.0.5 (20221223.1930)
 -->
<!-- Title: Graphical Class Hierarchy Pages: 1 -->
<svg width="455pt" height="571pt"
 viewBox="0.00 0.00 455.00 571.00" xmlns="http://www.w3.org/2000/svg" xmlns:xlink="http://www.w3.org/1999/xlink">
<g id="graph0" class="graph" transform="scale(1 1) rotate(0) translate(4 567)">
<title>Graphical Class Hierarchy</title>
<!-- Node0 -->
<g id="node1" class="node">
<title>Node0</title>
<g id="a_node1"><a xlink:href="struct_engine_1_1_execution_1_1_c_p_u__context.html" target="_top" xlink:title=" ">
<polygon fill="white" stroke="#666666" points="97,-291 0,-291 0,-261 97,-261 97,-291"/>
<text text-anchor="start" x="8" y="-279" font-family="Helvetica,sans-Serif" font-size="10.00">Engine::Execution::</text>
<text text-anchor="middle" x="48.5" y="-268" font-family="Helvetica,sans-Serif" font-size="10.00">CPU_context</text>
</a>
</g>
</g>
<!-- Node1 -->
<g id="node2" class="node">
<title>Node1</title>
<g id="a_node2"><a xlink:href="struct_engine_1_1_execution_1_1execution__receiver.html" target="_top" xlink:title=" ">
<polygon fill="white" stroke="#666666" points="237,-296.5 133,-296.5 133,-255.5 237,-255.5 237,-296.5"/>
<text text-anchor="start" x="141" y="-284.5" font-family="Helvetica,sans-Serif" font-size="10.00">Engine::Execution::</text>
<text text-anchor="start" x="141" y="-273.5" font-family="Helvetica,sans-Serif" font-size="10.00">execution_receiver&lt;</text>
<text text-anchor="middle" x="185" y="-262.5" font-family="Helvetica,sans-Serif" font-size="10.00"> _Context &gt;</text>
</a>
</g>
</g>
<!-- Node0&#45;&gt;Node1 -->
<g id="edge1" class="edge">
<title>Node0&#45;&gt;Node1</title>
<path fill="none" stroke="#63b8ff" d="M108.81,-276C116.78,-276 124.89,-276 132.71,-276"/>
<polygon fill="#63b8ff" stroke="#63b8ff" points="108.81,-272.5 98.81,-276 108.81,-279.5 108.81,-272.5"/>
</g>
<!-- Node2 -->
<g id="node3" class="node">
<title>Node2</title>
<g id="a_node3"><a xlink:href="struct_engine_1_1_node_graph_1_1_node_receiver.html" target="_top" xlink:title=" ">
<polygon fill="white" stroke="#666666" points="447,-563 273,-563 273,-511 447,-511 447,-563"/>
<text text-anchor="start" x="281" y="-551" font-family="Helvetica,sans-Serif" font-size="10.00">Engine::NodeGraph::</text>
<text text-anchor="start" x="281" y="-540" font-family="Helvetica,sans-Serif" font-size="10.00">NodeReceiver&lt; Engine</text>
<text text-anchor="start" x="281" y="-529" font-family="Helvetica,sans-Serif" font-size="10.00">::NodeGraph::SenderNode</text>
<text text-anchor="middle" x="360" y="-518" font-family="Helvetica,sans-Serif" font-size="10.00">&lt; Config, Algorithm, Arguments... &gt; &gt;</text>
</a>
</g>
</g>
<!-- Node1&#45;&gt;Node2 -->
<g id="edge2" class="edge">
<title>Node1&#45;&gt;Node2</title>
<path fill="none" stroke="#63b8ff" d="M190.16,-307.99C198.03,-356.13 219.39,-447.36 273,-502 276.05,-505.11 279.41,-507.95 282.99,-510.54"/>
<polygon fill="#63b8ff" stroke="#63b8ff" points="193.64,-307.58 188.67,-298.22 186.72,-308.64 193.64,-307.58"/>
</g>
<!-- Node3 -->
<g id="node4" class="node">
<title>Node3</title>
<g id="a_node4"><a xlink:href="struct_engine_1_1_behavior_awaitable_receiver.html" target="_top" xlink:title=" ">
<polygon fill="white" stroke="#666666" points="425.5,-493 294.5,-493 294.5,-463 425.5,-463 425.5,-493"/>
<text text-anchor="start" x="302.5" y="-481" font-family="Helvetica,sans-Serif" font-size="10.00">Engine::BehaviorAwaitable</text>
<text text-anchor="middle" x="360" y="-470" font-family="Helvetica,sans-Serif" font-size="10.00">Receiver&lt; Sender &gt;</text>
</a>
</g>
</g>
<!-- Node1&#45;&gt;Node3 -->
<g id="edge3" class="edge">
<title>Node1&#45;&gt;Node3</title>
<path fill="none" stroke="#63b8ff" d="M193.01,-307.73C203.51,-347.72 227.16,-415.85 273,-454 279.2,-459.16 286.42,-463.21 294.01,-466.39"/>
<polygon fill="#63b8ff" stroke="#63b8ff" points="196.46,-307.09 190.65,-298.23 189.67,-308.78 196.46,-307.09"/>
</g>
<!-- Node4 -->
<g id="node5" class="node">
<title>Node4</title>
<g id="a_node5"><a xlink:href="struct_engine_1_1_execution_1_1detach__t_1_1receiver.html" target="_top" xlink:title=" ">
<polygon fill="white" stroke="#666666" points="408.5,-445 311.5,-445 311.5,-415 408.5,-415 408.5,-445"/>
<text text-anchor="start" x="319.5" y="-433" font-family="Helvetica,sans-Serif" font-size="10.00">Engine::Execution::</text>
<text text-anchor="middle" x="360" y="-422" font-family="Helvetica,sans-Serif" font-size="10.00">detach_t::receiver</text>
</a>
</g>
</g>
<!-- Node1&#45;&gt;Node4 -->
<g id="edge4" class="edge">
<title>Node1&#45;&gt;Node4</title>
<path fill="none" stroke="#63b8ff" d="M199.07,-307.21C213.08,-336.92 238.13,-380.75 273,-406 284.18,-414.09 297.97,-419.46 311.22,-423.01"/>
<polygon fill="#63b8ff" stroke="#63b8ff" points="202.36,-305.99 195.03,-298.33 195.98,-308.89 202.36,-305.99"/>
</g>
<!-- Node5 -->
<g id="node6" class="node">
<title>Node5</title>
<g id="a_node6"><a xlink:href="struct_engine_1_1_execution_1_1detach__with__receiver__t_1_1receiver.html" target="_top" xlink:title=" ">
<polygon fill="white" stroke="#666666" points="414.5,-397 305.5,-397 305.5,-345 414.5,-345 414.5,-397"/>
<text text-anchor="start" x="313.5" y="-385" font-family="Helvetica,sans-Serif" font-size="10.00">Engine::Execution::</text>
<text text-anchor="start" x="313.5" y="-374" font-family="Helvetica,sans-Serif" font-size="10.00">detach_with_receiver</text>
<text text-anchor="start" x="313.5" y="-363" font-family="Helvetica,sans-Serif" font-size="10.00">_t::receiver&lt; Sender,</text>
<text text-anchor="middle" x="360" y="-352" font-family="Helvetica,sans-Serif" font-size="10.00"> Rec &gt;</text>
</a>
</g>
</g>
<!-- Node1&#45;&gt;Node5 -->
<g id="edge5" class="edge">
<title>Node1&#45;&gt;Node5</title>
<path fill="none" stroke="#63b8ff" d="M221.92,-303.39C237.19,-314.33 255.49,-326.54 273,-336 283.21,-341.51 294.48,-346.7 305.41,-351.29"/>
<polygon fill="#63b8ff" stroke="#63b8ff" points="224.21,-300.72 214.07,-297.67 220.09,-306.38 224.21,-300.72"/>
</g>
<!-- Node6 -->
<g id="node7" class="node">
<title>Node6</title>
<g id="a_node7"><a xlink:href="struct_engine_1_1_execution_1_1sync__expect__t_1_1receiver.html" target="_top" xlink:title=" ">
<polygon fill="white" stroke="#666666" points="419,-326.5 301,-326.5 301,-285.5 419,-285.5 419,-326.5"/>
<text text-anchor="start" x="309" y="-314.5" font-family="Helvetica,sans-Serif" font-size="10.00">Engine::Execution::</text>
<text text-anchor="start" x="309" y="-303.5" font-family="Helvetica,sans-Serif" font-size="10.00">sync_expect_t::receiver</text>
<text text-anchor="middle" x="360" y="-292.5" font-family="Helvetica,sans-Serif" font-size="10.00">&lt; Sender &gt;</text>
</a>
</g>
</g>
<!-- Node1&#45;&gt;Node6 -->
<g id="edge6" class="edge">
<title>Node1&#45;&gt;Node6</title>
<path fill="none" stroke="#63b8ff" d="M248.43,-286.83C265.51,-289.79 283.95,-292.99 300.78,-295.9"/>
<polygon fill="#63b8ff" stroke="#63b8ff" points="249.38,-283.44 238.93,-285.18 248.18,-290.34 249.38,-283.44"/>
</g>
<!-- Node7 -->
<g id="node8" class="node">
<title>Node7</title>
<g id="a_node8"><a xlink:href="struct_engine_1_1_execution_1_1sync__wait__t_1_1receiver.html" target="_top" xlink:title=" ">
<polygon fill="white" stroke="#666666" points="413.5,-267.5 306.5,-267.5 306.5,-226.5 413.5,-226.5 413.5,-267.5"/>
<text text-anchor="start" x="314.5" y="-255.5" font-family="Helvetica,sans-Serif" font-size="10.00">Engine::Execution::</text>
<text text-anchor="start" x="314.5" y="-244.5" font-family="Helvetica,sans-Serif" font-size="10.00">sync_wait_t::receiver</text>
<text text-anchor="middle" x="360" y="-233.5" font-family="Helvetica,sans-Serif" font-size="10.00">&lt; Sender &gt;</text>
</a>
</g>
</g>
<!-- Node1&#45;&gt;Node7 -->
<g id="edge7" class="edge">
<title>Node1&#45;&gt;Node7</title>
<path fill="none" stroke="#63b8ff" d="M248.65,-265.5C267.54,-262.33 288.08,-258.89 306.26,-255.84"/>
<polygon fill="#63b8ff" stroke="#63b8ff" points="248.21,-262.02 238.93,-267.13 249.37,-268.93 248.21,-262.02"/>
</g>
<!-- Node8 -->
<g id="node9" class="node">
<title>Node8</title>
<g id="a_node9"><a xlink:href="struct_engine_1_1_node_graph_1_1_node_receiver.html" target="_top" xlink:title=" ">
<polygon fill="white" stroke="#666666" points="419,-208 301,-208 301,-178 419,-178 419,-208"/>
<text text-anchor="start" x="309" y="-196" font-family="Helvetica,sans-Serif" font-size="10.00">Engine::NodeGraph::</text>
<text text-anchor="middle" x="360" y="-185" font-family="Helvetica,sans-Serif" font-size="10.00">NodeReceiver&lt; Node &gt;</text>
</a>
</g>
</g>
<!-- Node1&#45;&gt;Node8 -->
<g id="edge8" class="edge">
<title>Node1&#45;&gt;Node8</title>
<path fill="none" stroke="#63b8ff" d="M221.59,-248.69C236.8,-237.99 255.14,-226.31 273,-218 281.74,-213.93 291.29,-210.37 300.75,-207.31"/>
<polygon fill="#63b8ff" stroke="#63b8ff" points="219.85,-245.63 213.78,-254.31 223.94,-251.31 219.85,-245.63"/>
</g>
<!-- Node9 -->
<g id="node10" class="node">
<title>Node9</title>
<g id="a_node10"><a xlink:href="struct_engine_1_1_node_graph_1_1_sender_node_1_1_dummy_receiver.html" target="_top" xlink:title=" ">
<polygon fill="white" stroke="#666666" points="416.5,-160 303.5,-160 303.5,-108 416.5,-108 416.5,-160"/>
<text text-anchor="start" x="311.5" y="-148" font-family="Helvetica,sans-Serif" font-size="10.00">Engine::NodeGraph::</text>
<text text-anchor="start" x="311.5" y="-137" font-family="Helvetica,sans-Serif" font-size="10.00">SenderNode&lt; Config,</text>
<text text-anchor="start" x="311.5" y="-126" font-family="Helvetica,sans-Serif" font-size="10.00"> Algorithm, Arguments</text>
<text text-anchor="middle" x="360" y="-115" font-family="Helvetica,sans-Serif" font-size="10.00"> &gt;::DummyReceiver</text>
</a>
</g>
</g>
<!-- Node1&#45;&gt;Node9 -->
<g id="edge9" class="edge">
<title>Node1&#45;&gt;Node9</title>
<path fill="none" stroke="#63b8ff" d="M204.5,-245.71C220.23,-222.11 244.71,-189.94 273,-169 282.07,-162.29 292.61,-156.63 303.14,-151.95"/>
<polygon fill="#63b8ff" stroke="#63b8ff" points="201.65,-243.68 199.14,-253.98 207.52,-247.5 201.65,-243.68"/>
</g>
<!-- Node10 -->
<g id="node11" class="node">
<title>Node10</title>
<g id="a_node11"><a xlink:href="struct_engine_1_1_threading_1_1_task_awaitable_receiver.html" target="_top" xlink:title=" ">
<polygon fill="white" stroke="#666666" points="419.5,-89.5 300.5,-89.5 300.5,-48.5 419.5,-48.5 419.5,-89.5"/>
<text text-anchor="start" x="308.5" y="-77.5" font-family="Helvetica,sans-Serif" font-size="10.00">Engine::Threading::</text>
<text text-anchor="start" x="308.5" y="-66.5" font-family="Helvetica,sans-Serif" font-size="10.00">TaskAwaitableReceiver</text>
<text text-anchor="middle" x="360" y="-55.5" font-family="Helvetica,sans-Serif" font-size="10.00">&lt; Sender &gt;</text>
</a>
</g>
</g>
<!-- Node1&#45;&gt;Node10 -->
<g id="edge10" class="edge">
<title>Node1&#45;&gt;Node10</title>
<path fill="none" stroke="#63b8ff" d="M193.69,-244.02C204.76,-204.61 228.88,-138.07 273,-99 280.81,-92.08 290.31,-86.74 300.11,-82.61"/>
<polygon fill="#63b8ff" stroke="#63b8ff" points="190.33,-243.06 191.12,-253.62 197.09,-244.87 190.33,-243.06"/>
</g>
<!-- Node11 -->
<g id="node12" class="node">
<title>Node11</title>
<g id="a_node12"><a xlink:href="struct_engine_1_1_threading_1_1_task_future_awaitable_receiver.html" target="_top" xlink:title=" ">
<polygon fill="white" stroke="#666666" points="445,-30 275,-30 275,0 445,0 445,-30"/>
<text text-anchor="start" x="283" y="-18" font-family="Helvetica,sans-Serif" font-size="10.00">Engine::Threading::</text>
<text text-anchor="middle" x="360" y="-7" font-family="Helvetica,sans-Serif" font-size="10.00">TaskFutureAwaitableReceiver&lt; T &gt;</text>
</a>
</g>
</g>
<!-- Node1&#45;&gt;Node11 -->
<g id="edge11" class="edge">
<title>Node1&#45;&gt;Node11</title>
<path fill="none" stroke="#63b8ff" d="M188.76,-244.07C194.85,-193.47 214,-94.99 273,-40 276.98,-36.29 281.48,-33.13 286.28,-30.43"/>
<polygon fill="#63b8ff" stroke="#63b8ff" points="185.31,-243.44 187.7,-253.76 192.26,-244.2 185.31,-243.44"/>
</g>
</g>
</svg>
