<?xml version="1.0" encoding="UTF-8" standalone="no"?>
<!DOCTYPE svg PUBLIC "-//W3C//DTD SVG 1.1//EN"
 "http://www.w3.org/Graphics/SVG/1.1/DTD/svg11.dtd">
<!-- Generated by graphviz version 7.0.5 (20221223.1930)
 -->
<!-- Title: Graphical Class Hierarchy Pages: 1 -->
<svg width="504pt" height="257pt"
 viewBox="0.00 0.00 504.00 256.50" xmlns="http://www.w3.org/2000/svg" xmlns:xlink="http://www.w3.org/1999/xlink">
<g id="graph0" class="graph" transform="scale(1 1) rotate(0) translate(4 252.5)">
<title>Graphical Class Hierarchy</title>
<!-- Node0 -->
<g id="node1" class="node">
<title>Node0</title>
<g id="a_node1"><a xlink:href="struct_engine_1_1_execution_1_1_virtual_receiver_base_ex.html" target="_top" xlink:title=" ">
<polygon fill="white" stroke="#666666" points="152,-177.5 0,-177.5 0,-92.5 152,-92.5 152,-177.5"/>
<text text-anchor="start" x="8" y="-165.5" font-family="Helvetica,sans-Serif" font-size="10.00">Engine::Execution::</text>
<text text-anchor="start" x="8" y="-154.5" font-family="Helvetica,sans-Serif" font-size="10.00">VirtualReceiverBaseEx</text>
<text text-anchor="start" x="8" y="-143.5" font-family="Helvetica,sans-Serif" font-size="10.00">&lt; type_pack&lt; BehaviorError</text>
<text text-anchor="start" x="8" y="-132.5" font-family="Helvetica,sans-Serif" font-size="10.00"> &gt;, type_pack&lt; ArgumentList</text>
<text text-anchor="start" x="8" y="-121.5" font-family="Helvetica,sans-Serif" font-size="10.00"> &gt;, Execution::get_stop_token,</text>
<text text-anchor="start" x="8" y="-110.5" font-family="Helvetica,sans-Serif" font-size="10.00"> Execution::get_debug_location,</text>
<text text-anchor="middle" x="76" y="-99.5" font-family="Helvetica,sans-Serif" font-size="10.00"> Log::get_log, get_binding_d &gt;</text>
</a>
</g>
</g>
<!-- Node1 -->
<g id="node2" class="node">
<title>Node1</title>
<g id="a_node2"><a xlink:href="struct_engine_1_1_behavior_receiver.html" target="_top" xlink:title=" ">
<polygon fill="white" stroke="#666666" points="315,-144.5 188,-144.5 188,-125.5 315,-125.5 315,-144.5"/>
<text text-anchor="middle" x="251.5" y="-132.5" font-family="Helvetica,sans-Serif" font-size="10.00">Engine::BehaviorReceiver</text>
</a>
</g>
</g>
<!-- Node0&#45;&gt;Node1 -->
<g id="edge1" class="edge">
<title>Node0&#45;&gt;Node1</title>
<path fill="none" stroke="#63b8ff" d="M163.74,-135C171.82,-135 179.9,-135 187.7,-135"/>
<polygon fill="#63b8ff" stroke="#63b8ff" points="163.86,-131.5 153.86,-135 163.86,-138.5 163.86,-131.5"/>
</g>
<!-- Node2 -->
<g id="node3" class="node">
<title>Node2</title>
<g id="a_node3"><a xlink:href="struct_engine_1_1_audio_1_1_playback_state.html" target="_top" xlink:title=" ">
<polygon fill="white" stroke="#666666" points="495,-248.5 352,-248.5 352,-229.5 495,-229.5 495,-248.5"/>
<text text-anchor="middle" x="423.5" y="-236.5" font-family="Helvetica,sans-Serif" font-size="10.00">Engine::Audio::PlaybackState</text>
</a>
</g>
</g>
<!-- Node1&#45;&gt;Node2 -->
<g id="edge2" class="edge">
<title>Node1&#45;&gt;Node2</title>
<path fill="none" stroke="#63b8ff" d="M268.45,-153.33C286.53,-172.97 317.84,-203.64 351,-221 357.12,-224.21 363.85,-226.86 370.64,-229.05"/>
<polygon fill="#63b8ff" stroke="#63b8ff" points="271.2,-151.15 261.91,-146.05 265.99,-155.83 271.2,-151.15"/>
</g>
<!-- Node3 -->
<g id="node4" class="node">
<title>Node3</title>
<g id="a_node4"><a xlink:href="struct_engine_1_1_behavior_1_1state.html" target="_top" xlink:title=" ">
<polygon fill="white" stroke="#666666" points="481,-211.5 366,-211.5 366,-192.5 481,-192.5 481,-211.5"/>
<text text-anchor="middle" x="423.5" y="-199.5" font-family="Helvetica,sans-Serif" font-size="10.00">Engine::Behavior::state</text>
</a>
</g>
</g>
<!-- Node1&#45;&gt;Node3 -->
<g id="edge3" class="edge">
<title>Node1&#45;&gt;Node3</title>
<path fill="none" stroke="#63b8ff" d="M280.15,-150.27C299.55,-160.53 326.33,-173.81 351,-183 360.15,-186.41 370.17,-189.47 379.73,-192.08"/>
<polygon fill="#63b8ff" stroke="#63b8ff" points="281.99,-147.28 271.53,-145.64 278.68,-153.45 281.99,-147.28"/>
</g>
<!-- Node4 -->
<g id="node5" class="node">
<title>Node4</title>
<g id="a_node5"><a xlink:href="struct_engine_1_1_node_graph_1_1_node_interpreter_state_base.html" target="_top" xlink:title=" ">
<polygon fill="white" stroke="#666666" points="488.5,-174 358.5,-174 358.5,-144 488.5,-144 488.5,-174"/>
<text text-anchor="start" x="366.5" y="-162" font-family="Helvetica,sans-Serif" font-size="10.00">Engine::NodeGraph::</text>
<text text-anchor="middle" x="423.5" y="-151" font-family="Helvetica,sans-Serif" font-size="10.00">NodeInterpreterStateBase</text>
</a>
</g>
</g>
<!-- Node1&#45;&gt;Node4 -->
<g id="edge4" class="edge">
<title>Node1&#45;&gt;Node4</title>
<path fill="none" stroke="#63b8ff" d="M326.63,-145.46C337.16,-146.95 347.91,-148.47 358.23,-149.93"/>
<polygon fill="#63b8ff" stroke="#63b8ff" points="327.21,-142.01 316.82,-144.08 326.23,-148.94 327.21,-142.01"/>
</g>
<!-- Node5 -->
<g id="node6" class="node">
<title>Node5</title>
<g id="a_node6"><a xlink:href="struct_engine_1_1_scene_1_1_entity_1_1_animation_state.html" target="_top" xlink:title=" ">
<polygon fill="white" stroke="#666666" points="477,-126 370,-126 370,-96 477,-96 477,-126"/>
<text text-anchor="start" x="378" y="-114" font-family="Helvetica,sans-Serif" font-size="10.00">Engine::Scene::Entity</text>
<text text-anchor="middle" x="423.5" y="-103" font-family="Helvetica,sans-Serif" font-size="10.00">::AnimationState</text>
</a>
</g>
</g>
<!-- Node1&#45;&gt;Node5 -->
<g id="edge5" class="edge">
<title>Node1&#45;&gt;Node5</title>
<path fill="none" stroke="#63b8ff" d="M326.36,-124.57C340.94,-122.51 355.98,-120.39 369.69,-118.45"/>
<polygon fill="#63b8ff" stroke="#63b8ff" points="326.23,-121.06 316.82,-125.92 327.21,-127.99 326.23,-121.06"/>
</g>
<!-- Node6 -->
<g id="node7" class="node">
<title>Node6</title>
<g id="a_node7"><a xlink:href="struct_engine_1_1_scripting_1_1_python3_1_1_execution_state.html" target="_top" xlink:title=" ">
<polygon fill="white" stroke="#666666" points="484.5,-78 362.5,-78 362.5,-48 484.5,-48 484.5,-78"/>
<text text-anchor="start" x="370.5" y="-66" font-family="Helvetica,sans-Serif" font-size="10.00">Engine::Scripting::</text>
<text text-anchor="middle" x="423.5" y="-55" font-family="Helvetica,sans-Serif" font-size="10.00">Python3::ExecutionState</text>
</a>
</g>
</g>
<!-- Node1&#45;&gt;Node6 -->
<g id="edge6" class="edge">
<title>Node1&#45;&gt;Node6</title>
<path fill="none" stroke="#63b8ff" d="M281.06,-119.86C300.49,-109.87 326.94,-96.85 351,-87 358.27,-84.02 366.06,-81.12 373.73,-78.43"/>
<polygon fill="#63b8ff" stroke="#63b8ff" points="279.66,-116.65 272.4,-124.36 282.88,-122.86 279.66,-116.65"/>
</g>
<!-- Node7 -->
<g id="node8" class="node">
<title>Node7</title>
<g id="a_node8"><a xlink:href="struct_engine_1_1_widgets_1_1_temp_widget_state.html" target="_top" xlink:title=" ">
<polygon fill="white" stroke="#666666" points="496,-30 351,-30 351,0 496,0 496,-30"/>
<text text-anchor="start" x="359" y="-18" font-family="Helvetica,sans-Serif" font-size="10.00">Engine::Widgets::TempWidget</text>
<text text-anchor="middle" x="423.5" y="-7" font-family="Helvetica,sans-Serif" font-size="10.00">State</text>
</a>
</g>
</g>
<!-- Node1&#45;&gt;Node7 -->
<g id="edge7" class="edge">
<title>Node1&#45;&gt;Node7</title>
<path fill="none" stroke="#63b8ff" d="M267.2,-116.27C284.95,-94.81 316.71,-59.94 351,-39 356.25,-35.79 361.99,-32.95 367.85,-30.46"/>
<polygon fill="#63b8ff" stroke="#63b8ff" points="264.59,-113.93 261.03,-123.91 270.04,-118.33 264.59,-113.93"/>
</g>
</g>
</svg>
