<?xml version="1.0" encoding="UTF-8" standalone="no"?>
<!DOCTYPE svg PUBLIC "-//W3C//DTD SVG 1.1//EN"
 "http://www.w3.org/Graphics/SVG/1.1/DTD/svg11.dtd">
<!-- Generated by graphviz version 7.0.5 (20221223.1930)
 -->
<!-- Title: Graphical Class Hierarchy Pages: 1 -->
<svg width="581pt" height="314pt"
 viewBox="0.00 0.00 581.00 314.00" xmlns="http://www.w3.org/2000/svg" xmlns:xlink="http://www.w3.org/1999/xlink">
<g id="graph0" class="graph" transform="scale(1 1) rotate(0) translate(4 310)">
<title>Graphical Class Hierarchy</title>
<!-- Node0 -->
<g id="node1" class="node">
<title>Node0</title>
<g id="a_node1"><a xlink:title=" ">
<polygon fill="#e0e0e0" stroke="#999999" points="89,-175 0,-175 0,-156 89,-156 89,-175"/>
<text text-anchor="middle" x="44.5" y="-163" font-family="Helvetica,sans-Serif" font-size="10.00">NodeComponent</text>
</a>
</g>
</g>
<!-- Node1 -->
<g id="node2" class="node">
<title>Node1</title>
<g id="a_node2"><a xlink:href="struct_engine_1_1_virtual_scope.html" target="_top" xlink:title=" ">
<polygon fill="white" stroke="#666666" points="275.5,-300 149.5,-300 149.5,-259 275.5,-259 275.5,-300"/>
<text text-anchor="start" x="157.5" y="-288" font-family="Helvetica,sans-Serif" font-size="10.00">Engine::VirtualScope</text>
<text text-anchor="start" x="157.5" y="-277" font-family="Helvetica,sans-Serif" font-size="10.00">&lt; T, NodeComponent&lt; T,</text>
<text text-anchor="middle" x="212.5" y="-266" font-family="Helvetica,sans-Serif" font-size="10.00"> NodeBase &gt; &gt;</text>
</a>
</g>
</g>
<!-- Node0&#45;&gt;Node1 -->
<g id="edge1" class="edge">
<title>Node0&#45;&gt;Node1</title>
<path fill="none" stroke="#63b8ff" d="M60.8,-183.36C75.83,-200.07 100.07,-224.87 125,-241.5 134.55,-247.87 145.35,-253.6 155.99,-258.56"/>
<polygon fill="#63b8ff" stroke="#63b8ff" points="63.69,-181.35 54.46,-176.15 58.44,-185.97 63.69,-181.35"/>
</g>
<!-- Node3 -->
<g id="node4" class="node">
<title>Node3</title>
<g id="a_node4"><a xlink:href="struct_engine_1_1_virtual_scope.html" target="_top" xlink:title=" ">
<polygon fill="white" stroke="#666666" points="300,-232 125,-232 125,-191 300,-191 300,-232"/>
<text text-anchor="start" x="133" y="-220" font-family="Helvetica,sans-Serif" font-size="10.00">Engine::VirtualScope</text>
<text text-anchor="start" x="133" y="-209" font-family="Helvetica,sans-Serif" font-size="10.00">&lt; PumpNode, NodeComponent</text>
<text text-anchor="middle" x="212.5" y="-198" font-family="Helvetica,sans-Serif" font-size="10.00">&lt; PumpNode, AutoMaskNode&lt;&gt; &gt; &gt;</text>
</a>
</g>
</g>
<!-- Node0&#45;&gt;Node3 -->
<g id="edge3" class="edge">
<title>Node0&#45;&gt;Node3</title>
<path fill="none" stroke="#63b8ff" d="M92.49,-178.52C106.05,-182.28 121.19,-186.47 136.01,-190.58"/>
<polygon fill="#63b8ff" stroke="#63b8ff" points="93.55,-175.18 82.98,-175.89 91.68,-181.93 93.55,-175.18"/>
</g>
<!-- Node5 -->
<g id="node6" class="node">
<title>Node5</title>
<g id="a_node6"><a xlink:href="struct_engine_1_1_virtual_scope.html" target="_top" xlink:title=" ">
<polygon fill="white" stroke="#666666" points="295,-164.5 130,-164.5 130,-90.5 295,-90.5 295,-164.5"/>
<text text-anchor="start" x="138" y="-152.5" font-family="Helvetica,sans-Serif" font-size="10.00">Engine::VirtualScope</text>
<text text-anchor="start" x="138" y="-141.5" font-family="Helvetica,sans-Serif" font-size="10.00">&lt; SenderNode&lt; Config,</text>
<text text-anchor="start" x="138" y="-130.5" font-family="Helvetica,sans-Serif" font-size="10.00"> Algorithm, Arguments...</text>
<text text-anchor="start" x="138" y="-119.5" font-family="Helvetica,sans-Serif" font-size="10.00"> &gt;, NodeComponent&lt; SenderNode</text>
<text text-anchor="start" x="138" y="-108.5" font-family="Helvetica,sans-Serif" font-size="10.00">&lt; Config, Algorithm, Arguments...</text>
<text text-anchor="middle" x="212.5" y="-97.5" font-family="Helvetica,sans-Serif" font-size="10.00"> &gt;, AutoMaskNode&lt;&gt; &gt; &gt;</text>
</a>
</g>
</g>
<!-- Node0&#45;&gt;Node5 -->
<g id="edge5" class="edge">
<title>Node0&#45;&gt;Node5</title>
<path fill="none" stroke="#63b8ff" d="M100.29,-152.96C109.71,-150.8 119.68,-148.52 129.63,-146.24"/>
<polygon fill="#63b8ff" stroke="#63b8ff" points="99.56,-149.53 90.59,-155.18 101.12,-156.36 99.56,-149.53"/>
</g>
<!-- Node7 -->
<g id="node8" class="node">
<title>Node7</title>
<g id="a_node8"><a xlink:href="struct_engine_1_1_virtual_scope.html" target="_top" xlink:title=" ">
<polygon fill="white" stroke="#666666" points="285.5,-64 139.5,-64 139.5,-23 285.5,-23 285.5,-64"/>
<text text-anchor="start" x="147.5" y="-52" font-family="Helvetica,sans-Serif" font-size="10.00">Engine::VirtualScope</text>
<text text-anchor="start" x="147.5" y="-41" font-family="Helvetica,sans-Serif" font-size="10.00">&lt; TestNode, NodeComponent</text>
<text text-anchor="middle" x="212.5" y="-30" font-family="Helvetica,sans-Serif" font-size="10.00">&lt; TestNode, NodeBase &gt; &gt;</text>
</a>
</g>
</g>
<!-- Node0&#45;&gt;Node7 -->
<g id="edge7" class="edge">
<title>Node0&#45;&gt;Node7</title>
<path fill="none" stroke="#63b8ff" d="M59.51,-146.8C74.18,-128.26 98.7,-100.02 125,-81.5 134.12,-75.08 144.5,-69.39 154.82,-64.49"/>
<polygon fill="#63b8ff" stroke="#63b8ff" points="56.88,-144.49 53.53,-154.54 62.42,-148.77 56.88,-144.49"/>
</g>
<!-- Node2 -->
<g id="node3" class="node">
<title>Node2</title>
<g id="a_node3"><a xlink:href="struct_engine_1_1_serialize_1_1_virtual_data.html" target="_top" xlink:title=" ">
<polygon fill="white" stroke="#666666" points="554,-306 355,-306 355,-265 554,-265 554,-306"/>
<text text-anchor="start" x="363" y="-294" font-family="Helvetica,sans-Serif" font-size="10.00">Engine::Serialize::</text>
<text text-anchor="start" x="363" y="-283" font-family="Helvetica,sans-Serif" font-size="10.00">VirtualData&lt; T, VirtualScope</text>
<text text-anchor="middle" x="454.5" y="-272" font-family="Helvetica,sans-Serif" font-size="10.00">&lt; T, NodeComponent&lt; T, NodeBase &gt; &gt; &gt;</text>
</a>
</g>
</g>
<!-- Node1&#45;&gt;Node2 -->
<g id="edge2" class="edge">
<title>Node1&#45;&gt;Node2</title>
<path fill="none" stroke="#63b8ff" d="M287.17,-281.34C308.48,-281.87 332.08,-282.46 354.65,-283.03"/>
<polygon fill="#63b8ff" stroke="#63b8ff" points="287.53,-277.85 277.44,-281.1 287.35,-284.85 287.53,-277.85"/>
</g>
<!-- Node4 -->
<g id="node5" class="node">
<title>Node4</title>
<g id="a_node5"><a xlink:href="struct_engine_1_1_serialize_1_1_virtual_data.html" target="_top" xlink:title=" ">
<polygon fill="white" stroke="#666666" points="530.5,-247 378.5,-247 378.5,-184 530.5,-184 530.5,-247"/>
<text text-anchor="start" x="386.5" y="-235" font-family="Helvetica,sans-Serif" font-size="10.00">Engine::Serialize::</text>
<text text-anchor="start" x="386.5" y="-224" font-family="Helvetica,sans-Serif" font-size="10.00">VirtualData&lt; PumpNode,</text>
<text text-anchor="start" x="386.5" y="-213" font-family="Helvetica,sans-Serif" font-size="10.00"> VirtualScope&lt; PumpNode,</text>
<text text-anchor="start" x="386.5" y="-202" font-family="Helvetica,sans-Serif" font-size="10.00"> NodeComponent&lt; PumpNode,</text>
<text text-anchor="middle" x="454.5" y="-191" font-family="Helvetica,sans-Serif" font-size="10.00"> AutoMaskNode&lt;&gt; &gt; &gt; &gt;</text>
</a>
</g>
</g>
<!-- Node3&#45;&gt;Node4 -->
<g id="edge4" class="edge">
<title>Node3&#45;&gt;Node4</title>
<path fill="none" stroke="#63b8ff" d="M311.96,-213.14C334.11,-213.51 357.28,-213.9 378.3,-214.25"/>
<polygon fill="#63b8ff" stroke="#63b8ff" points="312.06,-209.64 302,-212.97 311.94,-216.64 312.06,-209.64"/>
</g>
<!-- Node6 -->
<g id="node7" class="node">
<title>Node6</title>
<g id="a_node7"><a xlink:href="struct_engine_1_1_serialize_1_1_virtual_data.html" target="_top" xlink:title=" ">
<polygon fill="white" stroke="#666666" points="573,-166 336,-166 336,-81 573,-81 573,-166"/>
<text text-anchor="start" x="344" y="-154" font-family="Helvetica,sans-Serif" font-size="10.00">Engine::Serialize::</text>
<text text-anchor="start" x="344" y="-143" font-family="Helvetica,sans-Serif" font-size="10.00">VirtualData&lt; SenderNode</text>
<text text-anchor="start" x="344" y="-132" font-family="Helvetica,sans-Serif" font-size="10.00">&lt; Config, Algorithm, Arguments...</text>
<text text-anchor="start" x="344" y="-121" font-family="Helvetica,sans-Serif" font-size="10.00"> &gt;, VirtualScope&lt; SenderNode</text>
<text text-anchor="start" x="344" y="-110" font-family="Helvetica,sans-Serif" font-size="10.00">&lt; Config, Algorithm, Arguments...</text>
<text text-anchor="start" x="344" y="-99" font-family="Helvetica,sans-Serif" font-size="10.00"> &gt;, NodeComponent&lt; SenderNode&lt; Config,</text>
<text text-anchor="middle" x="454.5" y="-88" font-family="Helvetica,sans-Serif" font-size="10.00"> Algorithm, Arguments... &gt;, AutoMaskNode&lt;&gt; &gt; &gt; &gt;</text>
</a>
</g>
</g>
<!-- Node5&#45;&gt;Node6 -->
<g id="edge6" class="edge">
<title>Node5&#45;&gt;Node6</title>
<path fill="none" stroke="#63b8ff" d="M306.88,-125.94C316.38,-125.79 326.11,-125.62 335.83,-125.46"/>
<polygon fill="#63b8ff" stroke="#63b8ff" points="306.88,-122.44 296.94,-126.11 306.99,-129.44 306.88,-122.44"/>
</g>
<!-- Node8 -->
<g id="node9" class="node">
<title>Node8</title>
<g id="a_node9"><a xlink:href="struct_engine_1_1_serialize_1_1_virtual_data.html" target="_top" xlink:title=" ">
<polygon fill="white" stroke="#666666" points="527.5,-63 381.5,-63 381.5,0 527.5,0 527.5,-63"/>
<text text-anchor="start" x="389.5" y="-51" font-family="Helvetica,sans-Serif" font-size="10.00">Engine::Serialize::</text>
<text text-anchor="start" x="389.5" y="-40" font-family="Helvetica,sans-Serif" font-size="10.00">VirtualData&lt; TestNode,</text>
<text text-anchor="start" x="389.5" y="-29" font-family="Helvetica,sans-Serif" font-size="10.00"> VirtualScope&lt; TestNode,</text>
<text text-anchor="start" x="389.5" y="-18" font-family="Helvetica,sans-Serif" font-size="10.00"> NodeComponent&lt; TestNode,</text>
<text text-anchor="middle" x="454.5" y="-7" font-family="Helvetica,sans-Serif" font-size="10.00"> NodeBase &gt; &gt; &gt;</text>
</a>
</g>
</g>
<!-- Node7&#45;&gt;Node8 -->
<g id="edge8" class="edge">
<title>Node7&#45;&gt;Node8</title>
<path fill="none" stroke="#63b8ff" d="M297.01,-39.32C324.48,-37.95 354.76,-36.44 381.31,-35.11"/>
<polygon fill="#63b8ff" stroke="#63b8ff" points="297.16,-35.81 287.35,-39.81 297.51,-42.8 297.16,-35.81"/>
</g>
</g>
</svg>
