<?xml version="1.0" encoding="UTF-8" standalone="no"?>
<!DOCTYPE svg PUBLIC "-//W3C//DTD SVG 1.1//EN"
 "http://www.w3.org/Graphics/SVG/1.1/DTD/svg11.dtd">
<!-- Generated by graphviz version 7.0.5 (20221223.1930)
 -->
<!-- Title: Graphical Class Hierarchy Pages: 1 -->
<svg width="297pt" height="76pt"
 viewBox="0.00 0.00 297.00 75.50" xmlns="http://www.w3.org/2000/svg" xmlns:xlink="http://www.w3.org/1999/xlink">
<g id="graph0" class="graph" transform="scale(1 1) rotate(0) translate(4 71.5)">
<title>Graphical Class Hierarchy</title>
<!-- Node0 -->
<g id="node1" class="node">
<title>Node0</title>
<g id="a_node1"><a xlink:href="struct_engine_1_1_serialize_1_1_serialize_manager.html" target="_top" xlink:title=" ">
<polygon fill="white" stroke="#666666" points="92,-45.5 0,-45.5 0,-15.5 92,-15.5 92,-45.5"/>
<text text-anchor="start" x="8" y="-33.5" font-family="Helvetica,sans-Serif" font-size="10.00">Engine::Serialize::</text>
<text text-anchor="middle" x="46" y="-22.5" font-family="Helvetica,sans-Serif" font-size="10.00">SerializeManager</text>
</a>
</g>
</g>
<!-- Node1 -->
<g id="node2" class="node">
<title>Node1</title>
<g id="a_node2"><a xlink:href="struct_engine_1_1_filesystem_1_1_file_manager.html" target="_top" xlink:title=" ">
<polygon fill="white" stroke="#666666" points="257.5,-67.5 159.5,-67.5 159.5,-37.5 257.5,-37.5 257.5,-67.5"/>
<text text-anchor="start" x="167.5" y="-55.5" font-family="Helvetica,sans-Serif" font-size="10.00">Engine::Filesystem</text>
<text text-anchor="middle" x="208.5" y="-44.5" font-family="Helvetica,sans-Serif" font-size="10.00">::FileManager</text>
</a>
</g>
</g>
<!-- Node0&#45;&gt;Node1 -->
<g id="edge1" class="edge">
<title>Node0&#45;&gt;Node1</title>
<path fill="none" stroke="#63b8ff" d="M103.46,-38.24C121.61,-40.73 141.54,-43.46 159.06,-45.86"/>
<polygon fill="#63b8ff" stroke="#63b8ff" points="104.02,-34.78 93.63,-36.89 103.07,-41.72 104.02,-34.78"/>
</g>
<!-- Node2 -->
<g id="node3" class="node">
<title>Node2</title>
<g id="a_node3"><a xlink:href="struct_engine_1_1_memory_1_1_memory_manager.html" target="_top" xlink:title=" ">
<polygon fill="white" stroke="#666666" points="289,-19 128,-19 128,0 289,0 289,-19"/>
<text text-anchor="middle" x="208.5" y="-7" font-family="Helvetica,sans-Serif" font-size="10.00">Engine::Memory::MemoryManager</text>
</a>
</g>
</g>
<!-- Node0&#45;&gt;Node2 -->
<g id="edge2" class="edge">
<title>Node0&#45;&gt;Node2</title>
<path fill="none" stroke="#63b8ff" d="M103.27,-23.14C112.27,-21.96 121.72,-20.72 131.1,-19.5"/>
<polygon fill="#63b8ff" stroke="#63b8ff" points="103.1,-19.63 93.64,-24.4 104.01,-26.57 103.1,-19.63"/>
</g>
</g>
</svg>
