<?xml version="1.0" encoding="UTF-8" standalone="no"?>
<!DOCTYPE svg PUBLIC "-//W3C//DTD SVG 1.1//EN"
 "http://www.w3.org/Graphics/SVG/1.1/DTD/svg11.dtd">
<!-- Generated by graphviz version 7.0.5 (20221223.1930)
 -->
<!-- Title: Graphical Class Hierarchy Pages: 1 -->
<svg width="326pt" height="108pt"
 viewBox="0.00 0.00 326.00 108.00" xmlns="http://www.w3.org/2000/svg" xmlns:xlink="http://www.w3.org/1999/xlink">
<g id="graph0" class="graph" transform="scale(1 1) rotate(0) translate(4 104)">
<title>Graphical Class Hierarchy</title>
<!-- Node0 -->
<g id="node1" class="node">
<title>Node0</title>
<g id="a_node1"><a xlink:href="struct_engine_1_1_scene_1_1_entity_1_1_entity_component_ptr_base.html" target="_top" xlink:title=" ">
<polygon fill="white" stroke="#666666" points="152,-59 0,-59 0,-29 152,-29 152,-59"/>
<text text-anchor="start" x="8" y="-47" font-family="Helvetica,sans-Serif" font-size="10.00">Engine::Scene::Entity</text>
<text text-anchor="middle" x="76" y="-36" font-family="Helvetica,sans-Serif" font-size="10.00">::EntityComponentPtrBase&lt; T &gt;</text>
</a>
</g>
</g>
<!-- Node1 -->
<g id="node2" class="node">
<title>Node1</title>
<g id="a_node2"><a xlink:href="struct_engine_1_1_scene_1_1_entity_1_1_entity_component_ptr.html" target="_top" xlink:title=" ">
<polygon fill="white" stroke="#666666" points="310.5,-100 195.5,-100 195.5,-48 310.5,-48 310.5,-100"/>
<text text-anchor="start" x="203.5" y="-88" font-family="Helvetica,sans-Serif" font-size="10.00">Engine::Scene::Entity</text>
<text text-anchor="start" x="203.5" y="-77" font-family="Helvetica,sans-Serif" font-size="10.00">::EntityComponentPtr</text>
<text text-anchor="start" x="203.5" y="-66" font-family="Helvetica,sans-Serif" font-size="10.00">&lt; Engine::Scene::Entity</text>
<text text-anchor="middle" x="253" y="-55" font-family="Helvetica,sans-Serif" font-size="10.00">::Transform &gt;</text>
</a>
</g>
</g>
<!-- Node0&#45;&gt;Node1 -->
<g id="edge1" class="edge">
<title>Node0&#45;&gt;Node1</title>
<path fill="none" stroke="#63b8ff" d="M163.64,-58.85C174.37,-60.69 185.12,-62.53 195.24,-64.27"/>
<polygon fill="#63b8ff" stroke="#63b8ff" points="164.42,-55.44 153.98,-57.2 163.24,-62.34 164.42,-55.44"/>
</g>
<!-- Node2 -->
<g id="node3" class="node">
<title>Node2</title>
<g id="a_node3"><a xlink:href="struct_engine_1_1_scene_1_1_entity_1_1_entity_component_ptr.html" target="_top" xlink:title=" ">
<polygon fill="white" stroke="#666666" points="318,-30 188,-30 188,0 318,0 318,-30"/>
<text text-anchor="start" x="196" y="-18" font-family="Helvetica,sans-Serif" font-size="10.00">Engine::Scene::Entity</text>
<text text-anchor="middle" x="253" y="-7" font-family="Helvetica,sans-Serif" font-size="10.00">::EntityComponentPtr&lt; T &gt;</text>
</a>
</g>
</g>
<!-- Node0&#45;&gt;Node2 -->
<g id="edge2" class="edge">
<title>Node0&#45;&gt;Node2</title>
<path fill="none" stroke="#63b8ff" d="M163.84,-29.61C171.89,-28.28 179.95,-26.94 187.75,-25.65"/>
<polygon fill="#63b8ff" stroke="#63b8ff" points="163.27,-26.16 153.98,-31.24 164.42,-33.06 163.27,-26.16"/>
</g>
</g>
</svg>
