<?xml version="1.0" encoding="UTF-8" standalone="no"?>
<!DOCTYPE svg PUBLIC "-//W3C//DTD SVG 1.1//EN"
 "http://www.w3.org/Graphics/SVG/1.1/DTD/svg11.dtd">
<!-- Generated by graphviz version 7.0.5 (20221223.1930)
 -->
<!-- Title: Graphical Class Hierarchy Pages: 1 -->
<svg width="305pt" height="76pt"
 viewBox="0.00 0.00 305.00 75.50" xmlns="http://www.w3.org/2000/svg" xmlns:xlink="http://www.w3.org/1999/xlink">
<g id="graph0" class="graph" transform="scale(1 1) rotate(0) translate(4 71.5)">
<title>Graphical Class Hierarchy</title>
<!-- Node0 -->
<g id="node1" class="node">
<title>Node0</title>
<g id="a_node1"><a xlink:href="struct_engine_1_1_object_instance.html" target="_top" xlink:title=" ">
<polygon fill="white" stroke="#666666" points="116,-45.5 0,-45.5 0,-26.5 116,-26.5 116,-45.5"/>
<text text-anchor="middle" x="58" y="-33.5" font-family="Helvetica,sans-Serif" font-size="10.00">Engine::ObjectInstance</text>
</a>
</g>
</g>
<!-- Node1 -->
<g id="node2" class="node">
<title>Node1</title>
<g id="a_node2"><a xlink:href="struct_engine_1_1_native_object_instance.html" target="_top" xlink:title=" ">
<polygon fill="white" stroke="#666666" points="297,-67.5 152,-67.5 152,-48.5 297,-48.5 297,-67.5"/>
<text text-anchor="middle" x="224.5" y="-55.5" font-family="Helvetica,sans-Serif" font-size="10.00">Engine::NativeObjectInstance</text>
</a>
</g>
</g>
<!-- Node0&#45;&gt;Node1 -->
<g id="edge1" class="edge">
<title>Node0&#45;&gt;Node1</title>
<path fill="none" stroke="#63b8ff" d="M127.32,-45.14C135.39,-46.22 143.64,-47.32 151.75,-48.4"/>
<polygon fill="#63b8ff" stroke="#63b8ff" points="127.95,-41.69 117.57,-43.83 127.02,-48.63 127.95,-41.69"/>
</g>
<!-- Node2 -->
<g id="node3" class="node">
<title>Node2</title>
<g id="a_node3"><a xlink:href="struct_engine_1_1_scripting_1_1_python3_1_1_py_object_instance.html" target="_top" xlink:title=" ">
<polygon fill="white" stroke="#666666" points="291.5,-30 157.5,-30 157.5,0 291.5,0 291.5,-30"/>
<text text-anchor="start" x="165.5" y="-18" font-family="Helvetica,sans-Serif" font-size="10.00">Engine::Scripting::</text>
<text text-anchor="middle" x="224.5" y="-7" font-family="Helvetica,sans-Serif" font-size="10.00">Python3::PyObjectInstance</text>
</a>
</g>
</g>
<!-- Node0&#45;&gt;Node2 -->
<g id="edge2" class="edge">
<title>Node0&#45;&gt;Node2</title>
<path fill="none" stroke="#63b8ff" d="M127.46,-27.26C137.3,-26 147.41,-24.71 157.21,-23.46"/>
<polygon fill="#63b8ff" stroke="#63b8ff" points="127.05,-23.78 117.57,-28.52 127.94,-30.73 127.05,-23.78"/>
</g>
</g>
</svg>
