<?xml version="1.0" encoding="UTF-8" standalone="no"?>
<!DOCTYPE svg PUBLIC "-//W3C//DTD SVG 1.1//EN"
 "http://www.w3.org/Graphics/SVG/1.1/DTD/svg11.dtd">
<!-- Generated by graphviz version 7.0.5 (20221223.1930)
 -->
<!-- Title: Graphical Class Hierarchy Pages: 1 -->
<svg width="478pt" height="1163pt"
 viewBox="0.00 0.00 478.00 1162.50" xmlns="http://www.w3.org/2000/svg" xmlns:xlink="http://www.w3.org/1999/xlink">
<g id="graph0" class="graph" transform="scale(1 1) rotate(0) translate(4 1158.5)">
<title>Graphical Class Hierarchy</title>
<!-- Node0 -->
<g id="node1" class="node">
<title>Node0</title>
<g id="a_node1"><a xlink:href="struct_engine_1_1_execution_1_1base__sender.html" target="_top" xlink:title=" ">
<polygon fill="white" stroke="#666666" points="97,-351 0,-351 0,-321 97,-321 97,-351"/>
<text text-anchor="start" x="8" y="-339" font-family="Helvetica,sans-Serif" font-size="10.00">Engine::Execution::</text>
<text text-anchor="middle" x="48.5" y="-328" font-family="Helvetica,sans-Serif" font-size="10.00">base_sender</text>
</a>
</g>
</g>
<!-- Node1 -->
<g id="node2" class="node">
<title>Node1</title>
<g id="a_node2"><a xlink:href="struct_engine_1_1_execution_1_1algorithm__sender.html" target="_top" xlink:title=" ">
<polygon fill="white" stroke="#666666" points="272.5,-1063 143.5,-1063 143.5,-1033 272.5,-1033 272.5,-1063"/>
<text text-anchor="start" x="151.5" y="-1051" font-family="Helvetica,sans-Serif" font-size="10.00">Engine::Execution::</text>
<text text-anchor="middle" x="208" y="-1040" font-family="Helvetica,sans-Serif" font-size="10.00">algorithm_sender&lt; Inner &gt;</text>
</a>
</g>
</g>
<!-- Node0&#45;&gt;Node1 -->
<g id="edge1" class="edge">
<title>Node0&#45;&gt;Node1</title>
<path fill="none" stroke="#63b8ff" d="M55.28,-362.14C80.88,-477.84 183.57,-942.08 203.6,-1032.64"/>
<polygon fill="#63b8ff" stroke="#63b8ff" points="58.77,-361.69 53.19,-352.68 51.93,-363.2 58.77,-361.69"/>
</g>
<!-- Node5 -->
<g id="node6" class="node">
<title>Node5</title>
<g id="a_node6"><a xlink:href="struct_engine_1_1_audio_1_1_playback_sender.html" target="_top" xlink:title=" ">
<polygon fill="white" stroke="#666666" points="283,-641.5 133,-641.5 133,-622.5 283,-622.5 283,-641.5"/>
<text text-anchor="middle" x="208" y="-629.5" font-family="Helvetica,sans-Serif" font-size="10.00">Engine::Audio::PlaybackSender</text>
</a>
</g>
</g>
<!-- Node0&#45;&gt;Node5 -->
<g id="edge5" class="edge">
<title>Node0&#45;&gt;Node5</title>
<path fill="none" stroke="#63b8ff" d="M49.39,-362.71C50.68,-417.8 61.71,-544.61 133,-613 136.83,-616.67 141.27,-619.66 146.03,-622.09"/>
<polygon fill="#63b8ff" stroke="#63b8ff" points="52.89,-362.67 49.26,-352.72 45.89,-362.76 52.89,-362.67"/>
</g>
<!-- Node6 -->
<g id="node7" class="node">
<title>Node6</title>
<g id="a_node7"><a xlink:href="struct_engine_1_1_execution_1_1algorithm__sender.html" target="_top" xlink:title=" ">
<polygon fill="white" stroke="#666666" points="277,-604 139,-604 139,-574 277,-574 277,-604"/>
<text text-anchor="start" x="147" y="-592" font-family="Helvetica,sans-Serif" font-size="10.00">Engine::Execution::</text>
<text text-anchor="middle" x="208" y="-581" font-family="Helvetica,sans-Serif" font-size="10.00">algorithm_sender&lt; Sender &gt;</text>
</a>
</g>
</g>
<!-- Node0&#45;&gt;Node6 -->
<g id="edge6" class="edge">
<title>Node0&#45;&gt;Node6</title>
<path fill="none" stroke="#63b8ff" d="M51.75,-362.67C57.16,-410.05 75.13,-509.17 133,-565 136.4,-568.28 140.26,-571.11 144.38,-573.56"/>
<polygon fill="#63b8ff" stroke="#63b8ff" points="55.24,-362.37 50.73,-352.78 48.27,-363.08 55.24,-362.37"/>
</g>
<!-- Node24 -->
<g id="node25" class="node">
<title>Node24</title>
<g id="a_node25"><a xlink:href="struct_engine_1_1_execution_1_1for__each__t_1_1sender.html" target="_top" xlink:title=" ">
<polygon fill="white" stroke="#666666" points="259,-555.5 157,-555.5 157,-514.5 259,-514.5 259,-555.5"/>
<text text-anchor="start" x="165" y="-543.5" font-family="Helvetica,sans-Serif" font-size="10.00">Engine::Execution::</text>
<text text-anchor="start" x="165" y="-532.5" font-family="Helvetica,sans-Serif" font-size="10.00">for_each_t::sender&lt;</text>
<text text-anchor="middle" x="208" y="-521.5" font-family="Helvetica,sans-Serif" font-size="10.00"> C, F &gt;</text>
</a>
</g>
</g>
<!-- Node0&#45;&gt;Node24 -->
<g id="edge24" class="edge">
<title>Node0&#45;&gt;Node24</title>
<path fill="none" stroke="#63b8ff" d="M55.92,-362.28C66.21,-399.16 89.77,-466.22 133,-506 139.8,-512.26 148.11,-517.23 156.68,-521.16"/>
<polygon fill="#63b8ff" stroke="#63b8ff" points="59.38,-361.66 53.43,-352.9 52.61,-363.46 59.38,-361.66"/>
</g>
<!-- Node25 -->
<g id="node26" class="node">
<title>Node25</title>
<g id="a_node26"><a xlink:href="struct_engine_1_1_execution_1_1reduce__stream__t_1_1sender.html" target="_top" xlink:title=" ">
<polygon fill="white" stroke="#666666" points="269.5,-496.5 146.5,-496.5 146.5,-455.5 269.5,-455.5 269.5,-496.5"/>
<text text-anchor="start" x="154.5" y="-484.5" font-family="Helvetica,sans-Serif" font-size="10.00">Engine::Execution::</text>
<text text-anchor="start" x="154.5" y="-473.5" font-family="Helvetica,sans-Serif" font-size="10.00">reduce_stream_t::sender</text>
<text text-anchor="middle" x="208" y="-462.5" font-family="Helvetica,sans-Serif" font-size="10.00">&lt; Stream, T, F &gt;</text>
</a>
</g>
</g>
<!-- Node0&#45;&gt;Node25 -->
<g id="edge25" class="edge">
<title>Node0&#45;&gt;Node25</title>
<path fill="none" stroke="#63b8ff" d="M62.92,-361.22C77.3,-386.08 102.25,-423.64 133,-447 137.07,-450.09 141.5,-452.89 146.12,-455.42"/>
<polygon fill="#63b8ff" stroke="#63b8ff" points="66.11,-359.74 58.17,-352.74 60.01,-363.17 66.11,-359.74"/>
</g>
<!-- Node26 -->
<g id="node27" class="node">
<title>Node26</title>
<g id="a_node27"><a xlink:href="struct_engine_1_1_execution_1_1sequence__t_1_1sender.html" target="_top" xlink:title=" ">
<polygon fill="white" stroke="#666666" points="261.5,-437.5 154.5,-437.5 154.5,-396.5 261.5,-396.5 261.5,-437.5"/>
<text text-anchor="start" x="162.5" y="-425.5" font-family="Helvetica,sans-Serif" font-size="10.00">Engine::Execution::</text>
<text text-anchor="start" x="162.5" y="-414.5" font-family="Helvetica,sans-Serif" font-size="10.00">sequence_t::sender&lt;</text>
<text text-anchor="middle" x="208" y="-403.5" font-family="Helvetica,sans-Serif" font-size="10.00"> Sender &gt;</text>
</a>
</g>
</g>
<!-- Node0&#45;&gt;Node26 -->
<g id="edge26" class="edge">
<title>Node0&#45;&gt;Node26</title>
<path fill="none" stroke="#63b8ff" d="M81.77,-357.41C96.98,-367.06 115.58,-378.22 133,-387 139.81,-390.43 147.11,-393.77 154.37,-396.9"/>
<polygon fill="#63b8ff" stroke="#63b8ff" points="83.89,-354.61 73.59,-352.15 80.11,-360.5 83.89,-354.61"/>
</g>
<!-- Node27 -->
<g id="node28" class="node">
<title>Node27</title>
<g id="a_node28"><a xlink:href="struct_engine_1_1_execution_1_1when__all__range__t_1_1sender.html" target="_top" xlink:title=" ">
<polygon fill="white" stroke="#666666" points="282.5,-378 133.5,-378 133.5,-348 282.5,-348 282.5,-378"/>
<text text-anchor="start" x="141.5" y="-366" font-family="Helvetica,sans-Serif" font-size="10.00">Engine::Execution::</text>
<text text-anchor="middle" x="208" y="-355" font-family="Helvetica,sans-Serif" font-size="10.00">when_all_range_t::sender&lt; R &gt;</text>
</a>
</g>
</g>
<!-- Node0&#45;&gt;Node27 -->
<g id="edge27" class="edge">
<title>Node0&#45;&gt;Node27</title>
<path fill="none" stroke="#63b8ff" d="M108.33,-346.09C116.39,-347.47 124.74,-348.9 133.02,-350.32"/>
<polygon fill="#63b8ff" stroke="#63b8ff" points="109.12,-342.67 98.67,-344.43 107.94,-349.57 109.12,-342.67"/>
</g>
<!-- Node28 -->
<g id="node29" class="node">
<title>Node28</title>
<g id="a_node29"><a xlink:href="struct_engine_1_1_execution_1_1when__all__t_1_1sender.html" target="_top" xlink:title=" ">
<polygon fill="white" stroke="#666666" points="259.5,-329.5 156.5,-329.5 156.5,-288.5 259.5,-288.5 259.5,-329.5"/>
<text text-anchor="start" x="164.5" y="-317.5" font-family="Helvetica,sans-Serif" font-size="10.00">Engine::Execution::</text>
<text text-anchor="start" x="164.5" y="-306.5" font-family="Helvetica,sans-Serif" font-size="10.00">when_all_t::sender&lt;</text>
<text text-anchor="middle" x="208" y="-295.5" font-family="Helvetica,sans-Serif" font-size="10.00"> Sender &gt;</text>
</a>
</g>
</g>
<!-- Node0&#45;&gt;Node28 -->
<g id="edge28" class="edge">
<title>Node0&#45;&gt;Node28</title>
<path fill="none" stroke="#63b8ff" d="M108.39,-325.9C124.11,-323.21 140.95,-320.32 156.2,-317.71"/>
<polygon fill="#63b8ff" stroke="#63b8ff" points="107.94,-322.43 98.67,-327.57 109.12,-329.33 107.94,-322.43"/>
</g>
<!-- Node29 -->
<g id="node30" class="node">
<title>Node29</title>
<g id="a_node30"><a xlink:href="struct_engine_1_1_fetch_sender.html" target="_top" xlink:title=" ">
<polygon fill="white" stroke="#666666" points="272,-270.5 144,-270.5 144,-251.5 272,-251.5 272,-270.5"/>
<text text-anchor="middle" x="208" y="-258.5" font-family="Helvetica,sans-Serif" font-size="10.00">Engine::FetchSender&lt; T &gt;</text>
</a>
</g>
</g>
<!-- Node0&#45;&gt;Node29 -->
<g id="edge29" class="edge">
<title>Node0&#45;&gt;Node29</title>
<path fill="none" stroke="#63b8ff" d="M77.37,-313.8C92.97,-302.31 113.21,-288.86 133,-280 140.99,-276.42 149.78,-273.43 158.42,-270.95"/>
<polygon fill="#63b8ff" stroke="#63b8ff" points="75.38,-310.92 69.51,-319.74 79.6,-316.51 75.38,-310.92"/>
</g>
<!-- Node30 -->
<g id="node31" class="node">
<title>Node30</title>
<g id="a_node31"><a xlink:href="struct_engine_1_1_node_graph_1_1_node_algorithm_1_1sender.html" target="_top" xlink:title=" ">
<polygon fill="white" stroke="#666666" points="282.5,-233.5 133.5,-233.5 133.5,-192.5 282.5,-192.5 282.5,-233.5"/>
<text text-anchor="start" x="141.5" y="-221.5" font-family="Helvetica,sans-Serif" font-size="10.00">Engine::NodeGraph::</text>
<text text-anchor="start" x="141.5" y="-210.5" font-family="Helvetica,sans-Serif" font-size="10.00">NodeAlgorithm&lt; flowOutGroup</text>
<text text-anchor="middle" x="208" y="-199.5" font-family="Helvetica,sans-Serif" font-size="10.00"> &gt;::sender&lt; Inner &gt;</text>
</a>
</g>
</g>
<!-- Node0&#45;&gt;Node30 -->
<g id="edge30" class="edge">
<title>Node0&#45;&gt;Node30</title>
<path fill="none" stroke="#63b8ff" d="M66.56,-311.43C81.93,-290.83 106.17,-261.84 133,-243 137.77,-239.65 142.96,-236.6 148.31,-233.83"/>
<polygon fill="#63b8ff" stroke="#63b8ff" points="63.9,-309.14 60.85,-319.29 69.56,-313.26 63.9,-309.14"/>
</g>
<!-- Node31 -->
<g id="node32" class="node">
<title>Node31</title>
<g id="a_node32"><a xlink:href="struct_engine_1_1_node_graph_1_1_node_interpreter_sender.html" target="_top" xlink:title=" ">
<polygon fill="white" stroke="#666666" points="265.5,-174 150.5,-174 150.5,-144 265.5,-144 265.5,-174"/>
<text text-anchor="start" x="158.5" y="-162" font-family="Helvetica,sans-Serif" font-size="10.00">Engine::NodeGraph::</text>
<text text-anchor="middle" x="208" y="-151" font-family="Helvetica,sans-Serif" font-size="10.00">NodeInterpreterSender</text>
</a>
</g>
</g>
<!-- Node0&#45;&gt;Node31 -->
<g id="edge31" class="edge">
<title>Node0&#45;&gt;Node31</title>
<path fill="none" stroke="#63b8ff" d="M57.27,-309.81C68.57,-276.06 92.73,-217.72 133,-184 138.09,-179.73 143.95,-176.19 150.09,-173.24"/>
<polygon fill="#63b8ff" stroke="#63b8ff" points="53.97,-308.61 54.26,-319.2 60.64,-310.75 53.97,-308.61"/>
</g>
<!-- Node32 -->
<g id="node33" class="node">
<title>Node32</title>
<g id="a_node33"><a xlink:href="struct_engine_1_1_scene_1_1_entity_1_1_animation_sender.html" target="_top" xlink:title=" ">
<polygon fill="white" stroke="#666666" points="261.5,-126 154.5,-126 154.5,-96 261.5,-96 261.5,-126"/>
<text text-anchor="start" x="162.5" y="-114" font-family="Helvetica,sans-Serif" font-size="10.00">Engine::Scene::Entity</text>
<text text-anchor="middle" x="208" y="-103" font-family="Helvetica,sans-Serif" font-size="10.00">::AnimationSender</text>
</a>
</g>
</g>
<!-- Node0&#45;&gt;Node32 -->
<g id="edge32" class="edge">
<title>Node0&#45;&gt;Node32</title>
<path fill="none" stroke="#63b8ff" d="M53.28,-309.56C60.76,-266.82 81.46,-182.57 133,-135 139.05,-129.41 146.42,-125.12 154.14,-121.84"/>
<polygon fill="#63b8ff" stroke="#63b8ff" points="49.86,-308.76 51.71,-319.19 56.77,-309.89 49.86,-308.76"/>
</g>
<!-- Node33 -->
<g id="node34" class="node">
<title>Node33</title>
<g id="a_node34"><a xlink:href="struct_engine_1_1_scripting_1_1_python3_1_1_execution_sender.html" target="_top" xlink:title=" ">
<polygon fill="white" stroke="#666666" points="272.5,-78 143.5,-78 143.5,-48 272.5,-48 272.5,-78"/>
<text text-anchor="start" x="151.5" y="-66" font-family="Helvetica,sans-Serif" font-size="10.00">Engine::Scripting::</text>
<text text-anchor="middle" x="208" y="-55" font-family="Helvetica,sans-Serif" font-size="10.00">Python3::ExecutionSender</text>
</a>
</g>
</g>
<!-- Node0&#45;&gt;Node33 -->
<g id="edge33" class="edge">
<title>Node0&#45;&gt;Node33</title>
<path fill="none" stroke="#63b8ff" d="M50.82,-309.49C54.75,-259.09 70.44,-148.94 133,-87 136.36,-83.67 140.18,-80.81 144.28,-78.34"/>
<polygon fill="#63b8ff" stroke="#63b8ff" points="47.34,-308.96 50.16,-319.17 54.33,-309.43 47.34,-308.96"/>
</g>
<!-- Node34 -->
<g id="node35" class="node">
<title>Node34</title>
<g id="a_node35"><a xlink:href="struct_engine_1_1_widgets_1_1_temp_widget_sender.html" target="_top" xlink:title=" ">
<polygon fill="white" stroke="#666666" points="280.5,-30 135.5,-30 135.5,0 280.5,0 280.5,-30"/>
<text text-anchor="start" x="143.5" y="-18" font-family="Helvetica,sans-Serif" font-size="10.00">Engine::Widgets::TempWidget</text>
<text text-anchor="middle" x="208" y="-7" font-family="Helvetica,sans-Serif" font-size="10.00">Sender</text>
</a>
</g>
</g>
<!-- Node0&#45;&gt;Node34 -->
<g id="edge34" class="edge">
<title>Node0&#45;&gt;Node34</title>
<path fill="none" stroke="#63b8ff" d="M49.09,-309.33C49.71,-251.92 59.34,-115.63 133,-39 136.18,-35.69 139.82,-32.83 143.75,-30.37"/>
<polygon fill="#63b8ff" stroke="#63b8ff" points="45.6,-309.12 49.09,-319.12 52.6,-309.13 45.6,-309.12"/>
</g>
<!-- Node2 -->
<g id="node3" class="node">
<title>Node2</title>
<g id="a_node3"><a xlink:href="struct_engine_1_1_execution_1_1stop__when__t_1_1sender.html" target="_top" xlink:title=" ">
<polygon fill="white" stroke="#666666" points="447.5,-1154.5 341.5,-1154.5 341.5,-1113.5 447.5,-1113.5 447.5,-1154.5"/>
<text text-anchor="start" x="349.5" y="-1142.5" font-family="Helvetica,sans-Serif" font-size="10.00">Engine::Execution::</text>
<text text-anchor="start" x="349.5" y="-1131.5" font-family="Helvetica,sans-Serif" font-size="10.00">stop_when_t::sender</text>
<text text-anchor="middle" x="394.5" y="-1120.5" font-family="Helvetica,sans-Serif" font-size="10.00">&lt; Inner, Trigger &gt;</text>
</a>
</g>
</g>
<!-- Node1&#45;&gt;Node2 -->
<g id="edge2" class="edge">
<title>Node1&#45;&gt;Node2</title>
<path fill="none" stroke="#63b8ff" d="M246.74,-1068.83C267.75,-1080.1 294.52,-1093.93 319,-1105 326.08,-1108.2 333.63,-1111.39 341.1,-1114.42"/>
<polygon fill="#63b8ff" stroke="#63b8ff" points="248.42,-1065.76 237.96,-1064.08 245.09,-1071.91 248.42,-1065.76"/>
</g>
<!-- Node3 -->
<g id="node4" class="node">
<title>Node3</title>
<g id="a_node4"><a xlink:href="struct_engine_1_1_interval_clock_1_1sender.html" target="_top" xlink:title=" ">
<polygon fill="white" stroke="#666666" points="449.5,-1095.5 339.5,-1095.5 339.5,-1054.5 449.5,-1054.5 449.5,-1095.5"/>
<text text-anchor="start" x="347.5" y="-1083.5" font-family="Helvetica,sans-Serif" font-size="10.00">Engine::IntervalClock</text>
<text text-anchor="start" x="347.5" y="-1072.5" font-family="Helvetica,sans-Serif" font-size="10.00">&lt; Timepoint &gt;::sender</text>
<text text-anchor="middle" x="394.5" y="-1061.5" font-family="Helvetica,sans-Serif" font-size="10.00">&lt; Inner &gt;</text>
</a>
</g>
</g>
<!-- Node1&#45;&gt;Node3 -->
<g id="edge3" class="edge">
<title>Node1&#45;&gt;Node3</title>
<path fill="none" stroke="#63b8ff" d="M284.1,-1058.99C302.57,-1061.69 321.99,-1064.54 339.26,-1067.06"/>
<polygon fill="#63b8ff" stroke="#63b8ff" points="284.65,-1055.53 274.25,-1057.55 283.64,-1062.46 284.65,-1055.53"/>
</g>
<!-- Node4 -->
<g id="node5" class="node">
<title>Node4</title>
<g id="a_node5"><a xlink:href="struct_engine_1_1with__binding__t_1_1sender.html" target="_top" xlink:title=" ">
<polygon fill="white" stroke="#666666" points="470,-1036 319,-1036 319,-1006 470,-1006 470,-1036"/>
<text text-anchor="start" x="327" y="-1024" font-family="Helvetica,sans-Serif" font-size="10.00">Engine::with_binding</text>
<text text-anchor="middle" x="394.5" y="-1013" font-family="Helvetica,sans-Serif" font-size="10.00">_t&lt; Name &gt;::sender&lt; Inner, F &gt;</text>
</a>
</g>
</g>
<!-- Node1&#45;&gt;Node4 -->
<g id="edge4" class="edge">
<title>Node1&#45;&gt;Node4</title>
<path fill="none" stroke="#63b8ff" d="M284.02,-1037.02C295.44,-1035.35 307.22,-1033.63 318.64,-1031.96"/>
<polygon fill="#63b8ff" stroke="#63b8ff" points="283.64,-1033.54 274.25,-1038.45 284.65,-1040.47 283.64,-1033.54"/>
</g>
<!-- Node7 -->
<g id="node8" class="node">
<title>Node7</title>
<g id="a_node8"><a xlink:href="struct_engine_1_1_debug_1_1debug__channel__t_1_1sender.html" target="_top" xlink:title=" ">
<polygon fill="white" stroke="#666666" points="467,-988 322,-988 322,-958 467,-958 467,-988"/>
<text text-anchor="start" x="330" y="-976" font-family="Helvetica,sans-Serif" font-size="10.00">Engine::Debug::debug</text>
<text text-anchor="middle" x="394.5" y="-965" font-family="Helvetica,sans-Serif" font-size="10.00">_channel_t::sender&lt; Sender &gt;</text>
</a>
</g>
</g>
<!-- Node6&#45;&gt;Node7 -->
<g id="edge7" class="edge">
<title>Node6&#45;&gt;Node7</title>
<path fill="none" stroke="#63b8ff" d="M281.27,-611.97C281.87,-612.63 282.44,-613.31 283,-614 376.7,-730.81 224.48,-832.85 319,-949 321.66,-952.27 324.77,-955.1 328.17,-957.54"/>
<polygon fill="#63b8ff" stroke="#63b8ff" points="283.58,-609.35 273.73,-605.44 279,-614.63 283.58,-609.35"/>
</g>
<!-- Node8 -->
<g id="node9" class="node">
<title>Node8</title>
<g id="a_node9"><a xlink:href="struct_engine_1_1_execution_1_1_variable__t_1_1sender.html" target="_top" xlink:title=" ">
<polygon fill="white" stroke="#666666" points="445,-939.5 344,-939.5 344,-898.5 445,-898.5 445,-939.5"/>
<text text-anchor="start" x="352" y="-927.5" font-family="Helvetica,sans-Serif" font-size="10.00">Engine::Execution::</text>
<text text-anchor="start" x="352" y="-916.5" font-family="Helvetica,sans-Serif" font-size="10.00">Variable_t::sender&lt;</text>
<text text-anchor="middle" x="394.5" y="-905.5" font-family="Helvetica,sans-Serif" font-size="10.00"> Name, Sender, T &gt;</text>
</a>
</g>
</g>
<!-- Node6&#45;&gt;Node8 -->
<g id="edge8" class="edge">
<title>Node6&#45;&gt;Node8</title>
<path fill="none" stroke="#63b8ff" d="M280.88,-611.6C281.62,-612.38 282.32,-613.17 283,-614 361.23,-709.26 243.51,-791.55 319,-889 325.32,-897.16 334.21,-903.1 343.66,-907.44"/>
<polygon fill="#63b8ff" stroke="#63b8ff" points="283.23,-609.01 273.32,-605.27 278.74,-614.37 283.23,-609.01"/>
</g>
<!-- Node9 -->
<g id="node10" class="node">
<title>Node9</title>
<g id="a_node10"><a xlink:href="struct_engine_1_1_execution_1_1after__t_1_1sender.html" target="_top" xlink:title=" ">
<polygon fill="white" stroke="#666666" points="463,-880 326,-880 326,-850 463,-850 463,-880"/>
<text text-anchor="start" x="334" y="-868" font-family="Helvetica,sans-Serif" font-size="10.00">Engine::Execution::</text>
<text text-anchor="middle" x="394.5" y="-857" font-family="Helvetica,sans-Serif" font-size="10.00">after_t::sender&lt; Sender, T &gt;</text>
</a>
</g>
</g>
<!-- Node6&#45;&gt;Node9 -->
<g id="edge9" class="edge">
<title>Node6&#45;&gt;Node9</title>
<path fill="none" stroke="#63b8ff" d="M280.85,-611.63C281.59,-612.39 282.31,-613.18 283,-614 348.9,-692.05 252.55,-763.41 319,-841 321.83,-844.3 325.11,-847.15 328.7,-849.62"/>
<polygon fill="#63b8ff" stroke="#63b8ff" points="283.16,-609 273.21,-605.35 278.72,-614.41 283.16,-609"/>
</g>
<!-- Node10 -->
<g id="node11" class="node">
<title>Node10</title>
<g id="a_node11"><a xlink:href="struct_engine_1_1_execution_1_1assign__t_1_1sender.html" target="_top" xlink:title=" ">
<polygon fill="white" stroke="#666666" points="467.5,-832 321.5,-832 321.5,-802 467.5,-802 467.5,-832"/>
<text text-anchor="start" x="329.5" y="-820" font-family="Helvetica,sans-Serif" font-size="10.00">Engine::Execution::</text>
<text text-anchor="middle" x="394.5" y="-809" font-family="Helvetica,sans-Serif" font-size="10.00">assign_t::sender&lt; Sender, T &gt;</text>
</a>
</g>
</g>
<!-- Node6&#45;&gt;Node10 -->
<g id="edge10" class="edge">
<title>Node6&#45;&gt;Node10</title>
<path fill="none" stroke="#63b8ff" d="M280.41,-611.28C281.31,-612.15 282.17,-613.06 283,-614 336.61,-674.92 264.96,-732.47 319,-793 321.99,-796.35 325.44,-799.23 329.19,-801.71"/>
<polygon fill="#63b8ff" stroke="#63b8ff" points="282.75,-608.67 272.72,-605.25 278.43,-614.18 282.75,-608.67"/>
</g>
<!-- Node11 -->
<g id="node12" class="node">
<title>Node11</title>
<g id="a_node12"><a xlink:href="struct_engine_1_1_execution_1_1finally__t_1_1sender.html" target="_top" xlink:title=" ">
<polygon fill="white" stroke="#666666" points="465,-784 324,-784 324,-754 465,-754 465,-784"/>
<text text-anchor="start" x="332" y="-772" font-family="Helvetica,sans-Serif" font-size="10.00">Engine::Execution::</text>
<text text-anchor="middle" x="394.5" y="-761" font-family="Helvetica,sans-Serif" font-size="10.00">finally_t::sender&lt; Sender, F &gt;</text>
</a>
</g>
</g>
<!-- Node6&#45;&gt;Node11 -->
<g id="edge11" class="edge">
<title>Node6&#45;&gt;Node11</title>
<path fill="none" stroke="#63b8ff" d="M279.88,-610.97C280.96,-611.94 282.01,-612.95 283,-614 324.45,-657.91 277.24,-701.39 319,-745 322.2,-748.34 325.86,-751.21 329.8,-753.69"/>
<polygon fill="#63b8ff" stroke="#63b8ff" points="282.25,-608.36 272.12,-605.26 278.1,-614 282.25,-608.36"/>
</g>
<!-- Node12 -->
<g id="node13" class="node">
<title>Node12</title>
<g id="a_node13"><a xlink:href="struct_engine_1_1_execution_1_1let__value__t_1_1sender.html" target="_top" xlink:title=" ">
<polygon fill="white" stroke="#666666" points="443.5,-735.5 345.5,-735.5 345.5,-694.5 443.5,-694.5 443.5,-735.5"/>
<text text-anchor="start" x="353.5" y="-723.5" font-family="Helvetica,sans-Serif" font-size="10.00">Engine::Execution::</text>
<text text-anchor="start" x="353.5" y="-712.5" font-family="Helvetica,sans-Serif" font-size="10.00">let_value_t::sender</text>
<text text-anchor="middle" x="394.5" y="-701.5" font-family="Helvetica,sans-Serif" font-size="10.00">&lt; Sender, F &gt;</text>
</a>
</g>
</g>
<!-- Node6&#45;&gt;Node12 -->
<g id="edge12" class="edge">
<title>Node6&#45;&gt;Node12</title>
<path fill="none" stroke="#63b8ff" d="M278.37,-610.35C279.97,-611.5 281.52,-612.72 283,-614 309.75,-637.16 292.92,-661.09 319,-685 326.5,-691.88 335.78,-697.28 345.22,-701.47"/>
<polygon fill="#63b8ff" stroke="#63b8ff" points="280.3,-607.42 269.94,-605.18 276.64,-613.39 280.3,-607.42"/>
</g>
<!-- Node13 -->
<g id="node14" class="node">
<title>Node13</title>
<g id="a_node14"><a xlink:href="struct_engine_1_1_execution_1_1on_error__t_1_1sender.html" target="_top" xlink:title=" ">
<polygon fill="white" stroke="#666666" points="468.5,-676 320.5,-676 320.5,-646 468.5,-646 468.5,-676"/>
<text text-anchor="start" x="328.5" y="-664" font-family="Helvetica,sans-Serif" font-size="10.00">Engine::Execution::</text>
<text text-anchor="middle" x="394.5" y="-653" font-family="Helvetica,sans-Serif" font-size="10.00">onError_t::sender&lt; Sender, T &gt;</text>
</a>
</g>
</g>
<!-- Node6&#45;&gt;Node13 -->
<g id="edge13" class="edge">
<title>Node6&#45;&gt;Node13</title>
<path fill="none" stroke="#63b8ff" d="M270.73,-608.57C274.93,-610.3 279.05,-612.11 283,-614 300.12,-622.21 301.82,-628.91 319,-637 325.64,-640.13 332.79,-643 339.95,-645.59"/>
<polygon fill="#63b8ff" stroke="#63b8ff" points="272.2,-605.39 261.61,-605.03 269.67,-611.92 272.2,-605.39"/>
</g>
<!-- Node14 -->
<g id="node15" class="node">
<title>Node14</title>
<g id="a_node15"><a xlink:href="struct_engine_1_1_execution_1_1repeat__t_1_1sender.html" target="_top" xlink:title=" ">
<polygon fill="white" stroke="#666666" points="461,-628 328,-628 328,-598 461,-598 461,-628"/>
<text text-anchor="start" x="336" y="-616" font-family="Helvetica,sans-Serif" font-size="10.00">Engine::Execution::</text>
<text text-anchor="middle" x="394.5" y="-605" font-family="Helvetica,sans-Serif" font-size="10.00">repeat_t::sender&lt; Sender &gt;</text>
</a>
</g>
</g>
<!-- Node6&#45;&gt;Node14 -->
<g id="edge14" class="edge">
<title>Node6&#45;&gt;Node14</title>
<path fill="none" stroke="#63b8ff" d="M288.73,-599.37C301.71,-601.06 315.03,-602.79 327.62,-604.43"/>
<polygon fill="#63b8ff" stroke="#63b8ff" points="289.31,-595.92 278.94,-598.1 288.4,-602.86 289.31,-595.92"/>
</g>
<!-- Node15 -->
<g id="node16" class="node">
<title>Node15</title>
<g id="a_node16"><a xlink:href="struct_engine_1_1_execution_1_1then__t_1_1sender.html" target="_top" xlink:title=" ">
<polygon fill="white" stroke="#666666" points="462.5,-580 326.5,-580 326.5,-550 462.5,-550 462.5,-580"/>
<text text-anchor="start" x="334.5" y="-568" font-family="Helvetica,sans-Serif" font-size="10.00">Engine::Execution::</text>
<text text-anchor="middle" x="394.5" y="-557" font-family="Helvetica,sans-Serif" font-size="10.00">then_t::sender&lt; Sender, T &gt;</text>
</a>
</g>
</g>
<!-- Node6&#45;&gt;Node15 -->
<g id="edge15" class="edge">
<title>Node6&#45;&gt;Node15</title>
<path fill="none" stroke="#63b8ff" d="M288.76,-578.63C301.2,-577.01 313.96,-575.35 326.09,-573.77"/>
<polygon fill="#63b8ff" stroke="#63b8ff" points="288.4,-575.14 278.94,-579.9 289.31,-582.08 288.4,-575.14"/>
</g>
<!-- Node16 -->
<g id="node17" class="node">
<title>Node16</title>
<g id="a_node17"><a xlink:href="struct_engine_1_1_execution_1_1to__result__t_1_1sender.html" target="_top" xlink:title=" ">
<polygon fill="white" stroke="#666666" points="454,-531.5 335,-531.5 335,-490.5 454,-490.5 454,-531.5"/>
<text text-anchor="start" x="343" y="-519.5" font-family="Helvetica,sans-Serif" font-size="10.00">Engine::Execution::</text>
<text text-anchor="start" x="343" y="-508.5" font-family="Helvetica,sans-Serif" font-size="10.00">to_result_t&lt; R &gt;::sender</text>
<text text-anchor="middle" x="394.5" y="-497.5" font-family="Helvetica,sans-Serif" font-size="10.00">&lt; Sender &gt;</text>
</a>
</g>
</g>
<!-- Node6&#45;&gt;Node16 -->
<g id="edge16" class="edge">
<title>Node6&#45;&gt;Node16</title>
<path fill="none" stroke="#63b8ff" d="M273.34,-569.34C276.64,-567.96 279.88,-566.51 283,-565 300.31,-556.62 301.99,-549.97 319,-541 325.04,-537.81 331.5,-534.75 338,-531.87"/>
<polygon fill="#63b8ff" stroke="#63b8ff" points="272.08,-566.08 264.05,-572.99 274.64,-572.59 272.08,-566.08"/>
</g>
<!-- Node17 -->
<g id="node18" class="node">
<title>Node17</title>
<g id="a_node18"><a xlink:href="struct_engine_1_1_execution_1_1tracked__t_1_1sender.html" target="_top" xlink:title=" ">
<polygon fill="white" stroke="#666666" points="463.5,-472 325.5,-472 325.5,-442 463.5,-442 463.5,-472"/>
<text text-anchor="start" x="333.5" y="-460" font-family="Helvetica,sans-Serif" font-size="10.00">Engine::Execution::</text>
<text text-anchor="middle" x="394.5" y="-449" font-family="Helvetica,sans-Serif" font-size="10.00">tracked_t::sender&lt; Sender &gt;</text>
</a>
</g>
</g>
<!-- Node6&#45;&gt;Node17 -->
<g id="edge17" class="edge">
<title>Node6&#45;&gt;Node17</title>
<path fill="none" stroke="#63b8ff" d="M280.58,-567.08C281.4,-566.41 282.21,-565.72 283,-565 312.76,-537.96 289.38,-509.19 319,-482 323.02,-478.31 327.6,-475.16 332.47,-472.48"/>
<polygon fill="#63b8ff" stroke="#63b8ff" points="278.62,-564.18 272.3,-572.69 282.54,-569.98 278.62,-564.18"/>
</g>
<!-- Node18 -->
<g id="node19" class="node">
<title>Node18</title>
<g id="a_node19"><a xlink:href="struct_engine_1_1_execution_1_1with__debug__location__t_1_1sender.html" target="_top" xlink:title=" ">
<polygon fill="white" stroke="#666666" points="451,-424 338,-424 338,-372 451,-372 451,-424"/>
<text text-anchor="start" x="346" y="-412" font-family="Helvetica,sans-Serif" font-size="10.00">Engine::Execution::</text>
<text text-anchor="start" x="346" y="-401" font-family="Helvetica,sans-Serif" font-size="10.00">with_debug_location</text>
<text text-anchor="start" x="346" y="-390" font-family="Helvetica,sans-Serif" font-size="10.00">_t&lt; Location &gt;::sender</text>
<text text-anchor="middle" x="394.5" y="-379" font-family="Helvetica,sans-Serif" font-size="10.00">&lt; Sender, Args &gt;</text>
</a>
</g>
</g>
<!-- Node6&#45;&gt;Node18 -->
<g id="edge18" class="edge">
<title>Node6&#45;&gt;Node18</title>
<path fill="none" stroke="#63b8ff" d="M281.17,-566.82C281.8,-566.23 282.41,-565.62 283,-565 324.97,-521 279.88,-479.55 319,-433 324.15,-426.87 330.61,-421.75 337.56,-417.49"/>
<polygon fill="#63b8ff" stroke="#63b8ff" points="279.28,-563.86 273.48,-572.73 283.54,-569.41 279.28,-563.86"/>
</g>
<!-- Node19 -->
<g id="node20" class="node">
<title>Node19</title>
<g id="a_node20"><a xlink:href="struct_engine_1_1_execution_1_1with__query__value__t_1_1sender.html" target="_top" xlink:title=" ">
<polygon fill="white" stroke="#666666" points="460,-353.5 329,-353.5 329,-312.5 460,-312.5 460,-353.5"/>
<text text-anchor="start" x="337" y="-341.5" font-family="Helvetica,sans-Serif" font-size="10.00">Engine::Execution::</text>
<text text-anchor="start" x="337" y="-330.5" font-family="Helvetica,sans-Serif" font-size="10.00">with_query_value_t::</text>
<text text-anchor="middle" x="394.5" y="-319.5" font-family="Helvetica,sans-Serif" font-size="10.00">sender&lt; Sender, CPO, T &gt;</text>
</a>
</g>
</g>
<!-- Node6&#45;&gt;Node19 -->
<g id="edge19" class="edge">
<title>Node6&#45;&gt;Node19</title>
<path fill="none" stroke="#63b8ff" d="M281.91,-566.2C282.28,-565.81 282.65,-565.41 283,-565 342.91,-496.25 261.5,-433.78 319,-363 321.81,-359.54 325.09,-356.47 328.66,-353.76"/>
<polygon fill="#63b8ff" stroke="#63b8ff" points="279.81,-563.4 274.45,-572.54 284.34,-568.73 279.81,-563.4"/>
</g>
<!-- Node20 -->
<g id="node21" class="node">
<title>Node20</title>
<g id="a_node21"><a xlink:href="struct_engine_1_1_execution_1_1write__var__t_1_1sender.html" target="_top" xlink:title=" ">
<polygon fill="white" stroke="#666666" points="443.5,-294.5 345.5,-294.5 345.5,-253.5 443.5,-253.5 443.5,-294.5"/>
<text text-anchor="start" x="353.5" y="-282.5" font-family="Helvetica,sans-Serif" font-size="10.00">Engine::Execution::</text>
<text text-anchor="start" x="353.5" y="-271.5" font-family="Helvetica,sans-Serif" font-size="10.00">write_var_t::sender</text>
<text text-anchor="middle" x="394.5" y="-260.5" font-family="Helvetica,sans-Serif" font-size="10.00">&lt; Name, Sender &gt;</text>
</a>
</g>
</g>
<!-- Node6&#45;&gt;Node20 -->
<g id="edge20" class="edge">
<title>Node6&#45;&gt;Node20</title>
<path fill="none" stroke="#63b8ff" d="M281.94,-566.22C282.3,-565.82 282.65,-565.41 283,-565 358.18,-475.22 246.97,-396.33 319,-304 325.69,-295.43 335.22,-289.29 345.24,-284.91"/>
<polygon fill="#63b8ff" stroke="#63b8ff" points="279.81,-563.43 274.59,-572.65 284.42,-568.7 279.81,-563.43"/>
</g>
<!-- Node21 -->
<g id="node22" class="node">
<title>Node21</title>
<g id="a_node22"><a xlink:href="struct_engine_1_1_log_1_1log__result__t_1_1sender.html" target="_top" xlink:title=" ">
<polygon fill="white" stroke="#666666" points="451,-235 338,-235 338,-205 451,-205 451,-235"/>
<text text-anchor="start" x="346" y="-223" font-family="Helvetica,sans-Serif" font-size="10.00">Engine::Log::log_result</text>
<text text-anchor="middle" x="394.5" y="-212" font-family="Helvetica,sans-Serif" font-size="10.00">_t::sender&lt; Sender &gt;</text>
</a>
</g>
</g>
<!-- Node6&#45;&gt;Node21 -->
<g id="edge21" class="edge">
<title>Node6&#45;&gt;Node21</title>
<path fill="none" stroke="#63b8ff" d="M281.95,-566.23C282.31,-565.83 282.66,-565.42 283,-565 373.5,-454.13 229.06,-356.33 319,-245 323.97,-238.84 330.52,-234.2 337.66,-230.69"/>
<polygon fill="#63b8ff" stroke="#63b8ff" points="279.82,-563.45 274.67,-572.71 284.47,-568.68 279.82,-563.45"/>
</g>
<!-- Node22 -->
<g id="node23" class="node">
<title>Node22</title>
<g id="a_node23"><a xlink:href="struct_engine_1_1_node_graph_1_1_node_receiver_wrapper_1_1sender.html" target="_top" xlink:title=" ">
<polygon fill="white" stroke="#666666" points="463,-186.5 326,-186.5 326,-145.5 463,-145.5 463,-186.5"/>
<text text-anchor="start" x="334" y="-174.5" font-family="Helvetica,sans-Serif" font-size="10.00">Engine::NodeGraph::</text>
<text text-anchor="start" x="334" y="-163.5" font-family="Helvetica,sans-Serif" font-size="10.00">NodeReceiverWrapper</text>
<text text-anchor="middle" x="394.5" y="-152.5" font-family="Helvetica,sans-Serif" font-size="10.00">&lt; Node &gt;::sender&lt; Sender &gt;</text>
</a>
</g>
</g>
<!-- Node6&#45;&gt;Node22 -->
<g id="edge22" class="edge">
<title>Node6&#45;&gt;Node22</title>
<path fill="none" stroke="#63b8ff" d="M282.25,-565.91C282.5,-565.61 282.75,-565.31 283,-565 386.25,-436.58 220.25,-327.91 319,-196 321.59,-192.54 324.65,-189.48 328.02,-186.77"/>
<polygon fill="#63b8ff" stroke="#63b8ff" points="280.05,-563.17 275.04,-572.51 284.78,-568.33 280.05,-563.17"/>
</g>
<!-- Node23 -->
<g id="node24" class="node">
<title>Node23</title>
<g id="a_node24"><a xlink:href="struct_engine_1_1_resources_1_1with__handle__t_1_1sender.html" target="_top" xlink:title=" ">
<polygon fill="white" stroke="#666666" points="449.5,-127.5 339.5,-127.5 339.5,-86.5 449.5,-86.5 449.5,-127.5"/>
<text text-anchor="start" x="347.5" y="-115.5" font-family="Helvetica,sans-Serif" font-size="10.00">Engine::Resources::</text>
<text text-anchor="start" x="347.5" y="-104.5" font-family="Helvetica,sans-Serif" font-size="10.00">with_handle_t::sender</text>
<text text-anchor="middle" x="394.5" y="-93.5" font-family="Helvetica,sans-Serif" font-size="10.00">&lt; Sender, Handle &gt;</text>
</a>
</g>
</g>
<!-- Node6&#45;&gt;Node23 -->
<g id="edge23" class="edge">
<title>Node6&#45;&gt;Node23</title>
<path fill="none" stroke="#63b8ff" d="M282.26,-565.91C282.51,-565.61 282.76,-565.31 283,-565 342.44,-490.04 261.74,-212.64 319,-136 324.23,-129 331.4,-123.68 339.24,-119.65"/>
<polygon fill="#63b8ff" stroke="#63b8ff" points="280.05,-563.18 275.09,-572.54 284.81,-568.32 280.05,-563.18"/>
</g>
</g>
</svg>
