<?xml version="1.0" encoding="UTF-8" standalone="no"?>
<!DOCTYPE svg PUBLIC "-//W3C//DTD SVG 1.1//EN"
 "http://www.w3.org/Graphics/SVG/1.1/DTD/svg11.dtd">
<!-- Generated by graphviz version 7.0.5 (20221223.1930)
 -->
<!-- Title: Graphical Class Hierarchy Pages: 1 -->
<svg width="279pt" height="258pt"
 viewBox="0.00 0.00 279.00 258.00" xmlns="http://www.w3.org/2000/svg" xmlns:xlink="http://www.w3.org/1999/xlink">
<g id="graph0" class="graph" transform="scale(1 1) rotate(0) translate(4 254)">
<title>Graphical Class Hierarchy</title>
<!-- Node0 -->
<g id="node1" class="node">
<title>Node0</title>
<g id="a_node1"><a xlink:title=" ">
<polygon fill="#e0e0e0" stroke="#999999" points="56,-131.5 0,-131.5 0,-112.5 56,-112.5 56,-131.5"/>
<text text-anchor="middle" x="28" y="-119.5" font-family="Helvetica,sans-Serif" font-size="10.00">Base::Ptr</text>
</a>
</g>
</g>
<!-- Node1 -->
<g id="node2" class="node">
<title>Node1</title>
<g id="a_node2"><a xlink:href="struct_engine_1_1_render_1_1_direct_x12_pixel_shader_loader_1_1_ptr.html" target="_top" xlink:title=" ">
<polygon fill="white" stroke="#666666" points="245.5,-250 117.5,-250 117.5,-220 245.5,-220 245.5,-250"/>
<text text-anchor="start" x="125.5" y="-238" font-family="Helvetica,sans-Serif" font-size="10.00">Engine::Render::DirectX12</text>
<text text-anchor="middle" x="181.5" y="-227" font-family="Helvetica,sans-Serif" font-size="10.00">PixelShaderLoader::Ptr</text>
</a>
</g>
</g>
<!-- Node0&#45;&gt;Node1 -->
<g id="edge1" class="edge">
<title>Node0&#45;&gt;Node1</title>
<path fill="none" stroke="#63b8ff" d="M38.06,-142.05C48.29,-162.43 66.85,-193.43 92,-211 99.57,-216.29 108.25,-220.41 117.15,-223.63"/>
<polygon fill="#63b8ff" stroke="#63b8ff" points="41.24,-140.6 33.78,-133.08 34.93,-143.61 41.24,-140.6"/>
</g>
<!-- Node2 -->
<g id="node3" class="node">
<title>Node2</title>
<g id="a_node3"><a xlink:href="struct_engine_1_1_render_1_1_direct_x12_vertex_shader_loader_1_1_ptr.html" target="_top" xlink:title=" ">
<polygon fill="white" stroke="#666666" points="245.5,-202 117.5,-202 117.5,-172 245.5,-172 245.5,-202"/>
<text text-anchor="start" x="125.5" y="-190" font-family="Helvetica,sans-Serif" font-size="10.00">Engine::Render::DirectX12</text>
<text text-anchor="middle" x="181.5" y="-179" font-family="Helvetica,sans-Serif" font-size="10.00">VertexShaderLoader::Ptr</text>
</a>
</g>
</g>
<!-- Node0&#45;&gt;Node2 -->
<g id="edge2" class="edge">
<title>Node0&#45;&gt;Node2</title>
<path fill="none" stroke="#63b8ff" d="M50.36,-138.3C62.13,-146.65 77.3,-156.42 92,-163 99.99,-166.58 108.63,-169.73 117.28,-172.46"/>
<polygon fill="#63b8ff" stroke="#63b8ff" points="52.72,-135.69 42.58,-132.61 48.58,-141.34 52.72,-135.69"/>
</g>
<!-- Node3 -->
<g id="node4" class="node">
<title>Node3</title>
<g id="a_node4"><a xlink:href="struct_engine_1_1_render_1_1_g_p_u_mesh_loader_1_1_ptr.html" target="_top" xlink:title=" ">
<polygon fill="white" stroke="#666666" points="271,-153.5 92,-153.5 92,-134.5 271,-134.5 271,-153.5"/>
<text text-anchor="middle" x="181.5" y="-141.5" font-family="Helvetica,sans-Serif" font-size="10.00">Engine::Render::GPUMeshLoader::Ptr</text>
</a>
</g>
</g>
<!-- Node0&#45;&gt;Node3 -->
<g id="edge3" class="edge">
<title>Node0&#45;&gt;Node3</title>
<path fill="none" stroke="#63b8ff" d="M67.64,-127.61C81.06,-129.56 96.55,-131.81 111.66,-134"/>
<polygon fill="#63b8ff" stroke="#63b8ff" points="68.33,-124.18 57.93,-126.2 67.33,-131.1 68.33,-124.18"/>
</g>
<!-- Node4 -->
<g id="node5" class="node">
<title>Node4</title>
<g id="a_node5"><a xlink:href="struct_engine_1_1_render_1_1_open_g_l_shader_loader_1_1_ptr.html" target="_top" xlink:title=" ">
<polygon fill="white" stroke="#666666" points="258,-116 105,-116 105,-86 258,-86 258,-116"/>
<text text-anchor="start" x="113" y="-104" font-family="Helvetica,sans-Serif" font-size="10.00">Engine::Render::OpenGLShader</text>
<text text-anchor="middle" x="181.5" y="-93" font-family="Helvetica,sans-Serif" font-size="10.00">Loader::Ptr</text>
</a>
</g>
</g>
<!-- Node0&#45;&gt;Node4 -->
<g id="edge4" class="edge">
<title>Node0&#45;&gt;Node4</title>
<path fill="none" stroke="#63b8ff" d="M67.64,-116.64C78.96,-115.07 91.76,-113.3 104.56,-111.53"/>
<polygon fill="#63b8ff" stroke="#63b8ff" points="67.36,-113.15 57.93,-117.99 68.32,-120.08 67.36,-113.15"/>
</g>
<!-- Node5 -->
<g id="node6" class="node">
<title>Node5</title>
<g id="a_node6"><a xlink:href="struct_engine_1_1_render_1_1_texture_loader_1_1_ptr.html" target="_top" xlink:title=" ">
<polygon fill="white" stroke="#666666" points="264,-67.5 99,-67.5 99,-48.5 264,-48.5 264,-67.5"/>
<text text-anchor="middle" x="181.5" y="-55.5" font-family="Helvetica,sans-Serif" font-size="10.00">Engine::Render::TextureLoader::Ptr</text>
</a>
</g>
</g>
<!-- Node0&#45;&gt;Node5 -->
<g id="edge5" class="edge">
<title>Node0&#45;&gt;Node5</title>
<path fill="none" stroke="#63b8ff" d="M48.31,-105.03C60.17,-95.45 76.09,-84.03 92,-77 100.34,-73.32 109.44,-70.33 118.53,-67.91"/>
<polygon fill="#63b8ff" stroke="#63b8ff" points="46.33,-102.12 40.91,-111.22 50.82,-107.48 46.33,-102.12"/>
</g>
<!-- Node6 -->
<g id="node7" class="node">
<title>Node6</title>
<g id="a_node7"><a xlink:href="struct_engine_1_1_render_1_1_vulkan_shader_loader_1_1_ptr.html" target="_top" xlink:title=" ">
<polygon fill="white" stroke="#666666" points="254.5,-30 108.5,-30 108.5,0 254.5,0 254.5,-30"/>
<text text-anchor="start" x="116.5" y="-18" font-family="Helvetica,sans-Serif" font-size="10.00">Engine::Render::VulkanShader</text>
<text text-anchor="middle" x="181.5" y="-7" font-family="Helvetica,sans-Serif" font-size="10.00">Loader::Ptr</text>
</a>
</g>
</g>
<!-- Node0&#45;&gt;Node6 -->
<g id="edge6" class="edge">
<title>Node0&#45;&gt;Node6</title>
<path fill="none" stroke="#63b8ff" d="M39.31,-102.14C50.03,-83.41 68.52,-55.91 92,-40 97.55,-36.24 103.66,-33.04 110,-30.32"/>
<polygon fill="#63b8ff" stroke="#63b8ff" points="36.37,-100.22 34.64,-110.67 42.51,-103.58 36.37,-100.22"/>
</g>
</g>
</svg>
