<?xml version="1.0" encoding="UTF-8" standalone="no"?>
<!DOCTYPE svg PUBLIC "-//W3C//DTD SVG 1.1//EN"
 "http://www.w3.org/Graphics/SVG/1.1/DTD/svg11.dtd">
<!-- Generated by graphviz version 7.0.5 (20221223.1930)
 -->
<!-- Title: Graphical Class Hierarchy Pages: 1 -->
<svg width="291pt" height="732pt"
 viewBox="0.00 0.00 291.00 731.50" xmlns="http://www.w3.org/2000/svg" xmlns:xlink="http://www.w3.org/1999/xlink">
<g id="graph0" class="graph" transform="scale(1 1) rotate(0) translate(4 727.5)">
<title>Graphical Class Hierarchy</title>
<!-- Node0 -->
<g id="node1" class="node">
<title>Node0</title>
<g id="a_node1"><a xlink:href="struct_engine_1_1_execution_1_1_virtual_receiver_base_ex.html" target="_top" xlink:title=" ">
<polygon fill="white" stroke="#666666" points="116,-355 0,-355 0,-314 116,-314 116,-355"/>
<text text-anchor="start" x="8" y="-343" font-family="Helvetica,sans-Serif" font-size="10.00">Engine::Execution::</text>
<text text-anchor="start" x="8" y="-332" font-family="Helvetica,sans-Serif" font-size="10.00">VirtualReceiverBaseEx</text>
<text text-anchor="middle" x="58" y="-321" font-family="Helvetica,sans-Serif" font-size="10.00">&lt; R, VPack, cpo &gt;</text>
</a>
</g>
</g>
<!-- Node1 -->
<g id="node2" class="node">
<title>Node1</title>
<g id="a_node2"><a xlink:href="struct_engine_1_1_execution_1_1_connection.html" target="_top" xlink:title=" ">
<polygon fill="white" stroke="#666666" points="271.5,-723.5 163.5,-723.5 163.5,-671.5 271.5,-671.5 271.5,-723.5"/>
<text text-anchor="start" x="171.5" y="-711.5" font-family="Helvetica,sans-Serif" font-size="10.00">Engine::Execution::</text>
<text text-anchor="start" x="171.5" y="-700.5" font-family="Helvetica,sans-Serif" font-size="10.00">Connection&lt; Engine::</text>
<text text-anchor="start" x="171.5" y="-689.5" font-family="Helvetica,sans-Serif" font-size="10.00">Execution::FlagStub&lt;</text>
<text text-anchor="middle" x="217.5" y="-678.5" font-family="Helvetica,sans-Serif" font-size="10.00"> Ty... &gt;, Ty... &gt;</text>
</a>
</g>
</g>
<!-- Node0&#45;&gt;Node1 -->
<g id="edge1" class="edge">
<title>Node0&#45;&gt;Node1</title>
<path fill="none" stroke="#63b8ff" d="M60.07,-366.66C63.76,-430.03 80.08,-572.63 152,-662.5 155.18,-666.48 158.95,-670.07 163.03,-673.29"/>
<polygon fill="#63b8ff" stroke="#63b8ff" points="63.58,-366.76 59.58,-356.95 56.59,-367.11 63.58,-366.76"/>
</g>
<!-- Node2 -->
<g id="node3" class="node">
<title>Node2</title>
<g id="a_node3"><a xlink:href="struct_engine_1_1_execution_1_1_connection.html" target="_top" xlink:title=" ">
<polygon fill="white" stroke="#666666" points="272.5,-653.5 162.5,-653.5 162.5,-601.5 272.5,-601.5 272.5,-653.5"/>
<text text-anchor="start" x="170.5" y="-641.5" font-family="Helvetica,sans-Serif" font-size="10.00">Engine::Execution::</text>
<text text-anchor="start" x="170.5" y="-630.5" font-family="Helvetica,sans-Serif" font-size="10.00">Connection&lt; Engine::</text>
<text text-anchor="start" x="170.5" y="-619.5" font-family="Helvetica,sans-Serif" font-size="10.00">Execution::SignalStub</text>
<text text-anchor="middle" x="217.5" y="-608.5" font-family="Helvetica,sans-Serif" font-size="10.00">&lt; Ty... &gt;, Ty... &gt;</text>
</a>
</g>
</g>
<!-- Node0&#45;&gt;Node2 -->
<g id="edge2" class="edge">
<title>Node0&#45;&gt;Node2</title>
<path fill="none" stroke="#63b8ff" d="M63.11,-366.75C71.34,-419.56 94.28,-525.32 152,-592.5 154.99,-595.98 158.41,-599.17 162.09,-602.09"/>
<polygon fill="#63b8ff" stroke="#63b8ff" points="66.58,-366.29 61.67,-356.91 59.66,-367.31 66.58,-366.29"/>
</g>
<!-- Node3 -->
<g id="node4" class="node">
<title>Node3</title>
<g id="a_node4"><a xlink:href="struct_engine_1_1_execution_1_1_connection.html" target="_top" xlink:title=" ">
<polygon fill="white" stroke="#666666" points="271.5,-583.5 163.5,-583.5 163.5,-531.5 271.5,-531.5 271.5,-583.5"/>
<text text-anchor="start" x="171.5" y="-571.5" font-family="Helvetica,sans-Serif" font-size="10.00">Engine::Execution::</text>
<text text-anchor="start" x="171.5" y="-560.5" font-family="Helvetica,sans-Serif" font-size="10.00">Connection&lt; Engine::</text>
<text text-anchor="start" x="171.5" y="-549.5" font-family="Helvetica,sans-Serif" font-size="10.00">Execution::ValueStub</text>
<text text-anchor="middle" x="217.5" y="-538.5" font-family="Helvetica,sans-Serif" font-size="10.00">&lt; Ty... &gt;, Ty... &gt;</text>
</a>
</g>
</g>
<!-- Node0&#45;&gt;Node3 -->
<g id="edge3" class="edge">
<title>Node0&#45;&gt;Node3</title>
<path fill="none" stroke="#63b8ff" d="M68.04,-366.13C80.96,-406.61 108.11,-476.92 152,-522.5 155.36,-525.99 159.14,-529.21 163.15,-532.17"/>
<polygon fill="#63b8ff" stroke="#63b8ff" points="71.44,-365.28 65.15,-356.76 64.75,-367.34 71.44,-365.28"/>
</g>
<!-- Node4 -->
<g id="node5" class="node">
<title>Node4</title>
<g id="a_node5"><a xlink:href="struct_engine_1_1_execution_1_1_connection.html" target="_top" xlink:title=" ">
<polygon fill="white" stroke="#666666" points="280,-513.5 155,-513.5 155,-483.5 280,-483.5 280,-513.5"/>
<text text-anchor="start" x="163" y="-501.5" font-family="Helvetica,sans-Serif" font-size="10.00">Engine::Execution::</text>
<text text-anchor="middle" x="217.5" y="-490.5" font-family="Helvetica,sans-Serif" font-size="10.00">Connection&lt; Stub, Ty... &gt;</text>
</a>
</g>
</g>
<!-- Node0&#45;&gt;Node4 -->
<g id="edge4" class="edge">
<title>Node0&#45;&gt;Node4</title>
<path fill="none" stroke="#63b8ff" d="M72.45,-365.44C87.59,-396.92 114.98,-445.15 152,-474.5 156.12,-477.77 160.73,-480.62 165.54,-483.1"/>
<polygon fill="#63b8ff" stroke="#63b8ff" points="75.65,-364.02 68.25,-356.43 69.3,-366.97 75.65,-364.02"/>
</g>
<!-- Node5 -->
<g id="node6" class="node">
<title>Node5</title>
<g id="a_node6"><a xlink:href="struct_engine_1_1_execution_1_1_connection.html" target="_top" xlink:title=" ">
<polygon fill="white" stroke="#666666" points="271.5,-465.5 163.5,-465.5 163.5,-413.5 271.5,-413.5 271.5,-465.5"/>
<text text-anchor="start" x="171.5" y="-453.5" font-family="Helvetica,sans-Serif" font-size="10.00">Engine::Execution::</text>
<text text-anchor="start" x="171.5" y="-442.5" font-family="Helvetica,sans-Serif" font-size="10.00">Connection&lt; Engine::</text>
<text text-anchor="start" x="171.5" y="-431.5" font-family="Helvetica,sans-Serif" font-size="10.00">Execution::FlagStub&lt;</text>
<text text-anchor="middle" x="217.5" y="-420.5" font-family="Helvetica,sans-Serif" font-size="10.00"> _Ty... &gt;, _Ty... &gt;</text>
</a>
</g>
</g>
<!-- Node0&#45;&gt;Node5 -->
<g id="edge5" class="edge">
<title>Node0&#45;&gt;Node5</title>
<path fill="none" stroke="#63b8ff" d="M93.29,-362.23C110.48,-375.63 131.88,-391.57 152,-404.5 156.5,-407.39 161.26,-410.28 166.08,-413.08"/>
<polygon fill="#63b8ff" stroke="#63b8ff" points="95.93,-359.85 85.9,-356.42 91.6,-365.35 95.93,-359.85"/>
</g>
<!-- Node6 -->
<g id="node7" class="node">
<title>Node6</title>
<g id="a_node7"><a xlink:href="struct_engine_1_1_execution_1_1_connection.html" target="_top" xlink:title=" ">
<polygon fill="white" stroke="#666666" points="271.5,-395.5 163.5,-395.5 163.5,-343.5 271.5,-343.5 271.5,-395.5"/>
<text text-anchor="start" x="171.5" y="-383.5" font-family="Helvetica,sans-Serif" font-size="10.00">Engine::Execution::</text>
<text text-anchor="start" x="171.5" y="-372.5" font-family="Helvetica,sans-Serif" font-size="10.00">Connection&lt; Engine::</text>
<text text-anchor="start" x="171.5" y="-361.5" font-family="Helvetica,sans-Serif" font-size="10.00">Execution::FlagStub&lt;</text>
<text text-anchor="middle" x="217.5" y="-350.5" font-family="Helvetica,sans-Serif" font-size="10.00"> _Ty... &gt;, Ty... &gt;</text>
</a>
</g>
</g>
<!-- Node0&#45;&gt;Node6 -->
<g id="edge6" class="edge">
<title>Node0&#45;&gt;Node6</title>
<path fill="none" stroke="#63b8ff" d="M127.23,-349.66C139.26,-352.33 151.62,-355.08 163.17,-357.65"/>
<polygon fill="#63b8ff" stroke="#63b8ff" points="128.31,-346.32 117.78,-347.56 126.79,-353.15 128.31,-346.32"/>
</g>
<!-- Node7 -->
<g id="node8" class="node">
<title>Node7</title>
<g id="a_node8"><a xlink:href="struct_engine_1_1_execution_1_1_connection.html" target="_top" xlink:title=" ">
<polygon fill="white" stroke="#666666" points="271.5,-325.5 163.5,-325.5 163.5,-273.5 271.5,-273.5 271.5,-325.5"/>
<text text-anchor="start" x="171.5" y="-313.5" font-family="Helvetica,sans-Serif" font-size="10.00">Engine::Execution::</text>
<text text-anchor="start" x="171.5" y="-302.5" font-family="Helvetica,sans-Serif" font-size="10.00">Connection&lt; Engine::</text>
<text text-anchor="start" x="171.5" y="-291.5" font-family="Helvetica,sans-Serif" font-size="10.00">Execution::ValueStub</text>
<text text-anchor="middle" x="217.5" y="-280.5" font-family="Helvetica,sans-Serif" font-size="10.00">&lt; _Ty... &gt;, _Ty... &gt;</text>
</a>
</g>
</g>
<!-- Node0&#45;&gt;Node7 -->
<g id="edge7" class="edge">
<title>Node0&#45;&gt;Node7</title>
<path fill="none" stroke="#63b8ff" d="M127.23,-319.34C139.26,-316.67 151.62,-313.92 163.17,-311.35"/>
<polygon fill="#63b8ff" stroke="#63b8ff" points="126.79,-315.85 117.78,-321.44 128.31,-322.68 126.79,-315.85"/>
</g>
<!-- Node8 -->
<g id="node9" class="node">
<title>Node8</title>
<g id="a_node9"><a xlink:href="struct_engine_1_1_execution_1_1_connection.html" target="_top" xlink:title=" ">
<polygon fill="white" stroke="#666666" points="271.5,-255.5 163.5,-255.5 163.5,-203.5 271.5,-203.5 271.5,-255.5"/>
<text text-anchor="start" x="171.5" y="-243.5" font-family="Helvetica,sans-Serif" font-size="10.00">Engine::Execution::</text>
<text text-anchor="start" x="171.5" y="-232.5" font-family="Helvetica,sans-Serif" font-size="10.00">Connection&lt; Engine::</text>
<text text-anchor="start" x="171.5" y="-221.5" font-family="Helvetica,sans-Serif" font-size="10.00">Execution::ValueStub</text>
<text text-anchor="middle" x="217.5" y="-210.5" font-family="Helvetica,sans-Serif" font-size="10.00">&lt; _Ty... &gt;, Ty... &gt;</text>
</a>
</g>
</g>
<!-- Node0&#45;&gt;Node8 -->
<g id="edge8" class="edge">
<title>Node0&#45;&gt;Node8</title>
<path fill="none" stroke="#63b8ff" d="M93.29,-306.77C110.48,-293.37 131.88,-277.43 152,-264.5 156.5,-261.61 161.26,-258.72 166.08,-255.92"/>
<polygon fill="#63b8ff" stroke="#63b8ff" points="91.6,-303.65 85.9,-312.58 95.93,-309.15 91.6,-303.65"/>
</g>
<!-- Node9 -->
<g id="node10" class="node">
<title>Node9</title>
<g id="a_node10"><a xlink:href="struct_engine_1_1_execution_1_1_connection.html" target="_top" xlink:title=" ">
<polygon fill="white" stroke="#666666" points="276.5,-185.5 158.5,-185.5 158.5,-155.5 276.5,-155.5 276.5,-185.5"/>
<text text-anchor="start" x="166.5" y="-173.5" font-family="Helvetica,sans-Serif" font-size="10.00">Engine::Execution::</text>
<text text-anchor="middle" x="217.5" y="-162.5" font-family="Helvetica,sans-Serif" font-size="10.00">Connection&lt; Stub, Ty &gt;</text>
</a>
</g>
</g>
<!-- Node0&#45;&gt;Node9 -->
<g id="edge9" class="edge">
<title>Node0&#45;&gt;Node9</title>
<path fill="none" stroke="#63b8ff" d="M72.45,-303.56C87.59,-272.08 114.98,-223.85 152,-194.5 156.12,-191.23 160.73,-188.38 165.54,-185.9"/>
<polygon fill="#63b8ff" stroke="#63b8ff" points="69.3,-302.03 68.25,-312.57 75.65,-304.98 69.3,-302.03"/>
</g>
<!-- Node10 -->
<g id="node11" class="node">
<title>Node10</title>
<g id="a_node11"><a xlink:href="struct_engine_1_1_filesystem_1_1_async_file_read_state.html" target="_top" xlink:title=" ">
<polygon fill="white" stroke="#666666" points="272.5,-137.5 162.5,-137.5 162.5,-107.5 272.5,-107.5 272.5,-137.5"/>
<text text-anchor="start" x="170.5" y="-125.5" font-family="Helvetica,sans-Serif" font-size="10.00">Engine::Filesystem</text>
<text text-anchor="middle" x="217.5" y="-114.5" font-family="Helvetica,sans-Serif" font-size="10.00">::AsyncFileReadState</text>
</a>
</g>
</g>
<!-- Node0&#45;&gt;Node10 -->
<g id="edge10" class="edge">
<title>Node0&#45;&gt;Node10</title>
<path fill="none" stroke="#63b8ff" d="M66.89,-302.53C78.69,-261.09 104.77,-189.1 152,-146.5 155.64,-143.22 159.76,-140.37 164.13,-137.91"/>
<polygon fill="#63b8ff" stroke="#63b8ff" points="63.53,-301.58 64.27,-312.14 70.28,-303.42 63.53,-301.58"/>
</g>
<!-- Node11 -->
<g id="node12" class="node">
<title>Node11</title>
<g id="a_node12"><a xlink:href="struct_engine_1_1_serialize_1_1_message_state.html" target="_top" xlink:title=" ">
<polygon fill="white" stroke="#666666" points="283,-89.5 152,-89.5 152,-59.5 283,-59.5 283,-89.5"/>
<text text-anchor="start" x="160" y="-77.5" font-family="Helvetica,sans-Serif" font-size="10.00">Engine::Serialize::</text>
<text text-anchor="middle" x="217.5" y="-66.5" font-family="Helvetica,sans-Serif" font-size="10.00">MessageState&lt; _Rec, V &gt;</text>
</a>
</g>
</g>
<!-- Node0&#45;&gt;Node11 -->
<g id="edge11" class="edge">
<title>Node0&#45;&gt;Node11</title>
<path fill="none" stroke="#63b8ff" d="M63.17,-302.65C71.36,-252.58 94.08,-155.32 152,-98.5 155.33,-95.24 159.14,-92.41 163.2,-89.96"/>
<polygon fill="#63b8ff" stroke="#63b8ff" points="59.76,-301.83 61.7,-312.24 66.68,-302.89 59.76,-301.83"/>
</g>
<!-- Node12 -->
<g id="node13" class="node">
<title>Node12</title>
<g id="a_node13"><a xlink:href="struct_engine_1_1_serialize_1_1_message_state_3_01___rec_00_01void_01_4.html" target="_top" xlink:title=" ">
<polygon fill="white" stroke="#666666" points="274,-41 161,-41 161,0 274,0 274,-41"/>
<text text-anchor="start" x="169" y="-29" font-family="Helvetica,sans-Serif" font-size="10.00">Engine::Serialize::</text>
<text text-anchor="start" x="169" y="-18" font-family="Helvetica,sans-Serif" font-size="10.00">MessageState&lt; _Rec,</text>
<text text-anchor="middle" x="217.5" y="-7" font-family="Helvetica,sans-Serif" font-size="10.00"> void &gt;</text>
</a>
</g>
</g>
<!-- Node0&#45;&gt;Node12 -->
<g id="edge12" class="edge">
<title>Node0&#45;&gt;Node12</title>
<path fill="none" stroke="#63b8ff" d="M61.31,-302.29C67.03,-244.93 86.57,-124.22 152,-50.5 155.03,-47.08 158.54,-44.03 162.31,-41.3"/>
<polygon fill="#63b8ff" stroke="#63b8ff" points="57.84,-301.75 60.42,-312.02 64.82,-302.38 57.84,-301.75"/>
</g>
</g>
</svg>
