<?xml version="1.0" encoding="UTF-8" standalone="no"?>
<!DOCTYPE svg PUBLIC "-//W3C//DTD SVG 1.1//EN"
 "http://www.w3.org/Graphics/SVG/1.1/DTD/svg11.dtd">
<!-- Generated by graphviz version 7.0.5 (20221223.1930)
 -->
<!-- Title: Graphical Class Hierarchy Pages: 1 -->
<svg width="271pt" height="182pt"
 viewBox="0.00 0.00 271.00 182.00" xmlns="http://www.w3.org/2000/svg" xmlns:xlink="http://www.w3.org/1999/xlink">
<g id="graph0" class="graph" transform="scale(1 1) rotate(0) translate(4 178)">
<title>Graphical Class Hierarchy</title>
<!-- Node0 -->
<g id="node1" class="node">
<title>Node0</title>
<g id="a_node1"><a xlink:title=" ">
<polygon fill="#e0e0e0" stroke="#999999" points="74,-96.5 0,-96.5 0,-77.5 74,-77.5 74,-96.5"/>
<text text-anchor="middle" x="37" y="-84.5" font-family="Helvetica,sans-Serif" font-size="10.00">Base::Handle</text>
</a>
</g>
</g>
<!-- Node1 -->
<g id="node2" class="node">
<title>Node1</title>
<g id="a_node2"><a xlink:href="struct_engine_1_1_node_graph_1_1_node_graph_loader_1_1_handle.html" target="_top" xlink:title=" ">
<polygon fill="white" stroke="#666666" points="252,-174 121,-174 121,-144 252,-144 252,-174"/>
<text text-anchor="start" x="129" y="-162" font-family="Helvetica,sans-Serif" font-size="10.00">Engine::NodeGraph::</text>
<text text-anchor="middle" x="186.5" y="-151" font-family="Helvetica,sans-Serif" font-size="10.00">NodeGraphLoader::Handle</text>
</a>
</g>
</g>
<!-- Node0&#45;&gt;Node1 -->
<g id="edge1" class="edge">
<title>Node0&#45;&gt;Node1</title>
<path fill="none" stroke="#63b8ff" d="M59.49,-103.65C73.32,-113.77 92.02,-126.36 110,-135 116.57,-138.16 123.66,-141.04 130.76,-143.62"/>
<polygon fill="#63b8ff" stroke="#63b8ff" points="61.67,-100.91 51.57,-97.72 57.47,-106.52 61.67,-100.91"/>
</g>
<!-- Node2 -->
<g id="node3" class="node">
<title>Node2</title>
<g id="a_node3"><a xlink:href="struct_engine_1_1_render_1_1_open_g_l_shader_loader_1_1_handle.html" target="_top" xlink:title=" ">
<polygon fill="white" stroke="#666666" points="263,-126 110,-126 110,-96 263,-96 263,-126"/>
<text text-anchor="start" x="118" y="-114" font-family="Helvetica,sans-Serif" font-size="10.00">Engine::Render::OpenGLShader</text>
<text text-anchor="middle" x="186.5" y="-103" font-family="Helvetica,sans-Serif" font-size="10.00">Loader::Handle</text>
</a>
</g>
</g>
<!-- Node0&#45;&gt;Node2 -->
<g id="edge2" class="edge">
<title>Node0&#45;&gt;Node2</title>
<path fill="none" stroke="#63b8ff" d="M85.73,-94.77C93.4,-96.01 101.51,-97.33 109.65,-98.66"/>
<polygon fill="#63b8ff" stroke="#63b8ff" points="86.39,-91.33 75.95,-93.18 85.26,-98.24 86.39,-91.33"/>
</g>
<!-- Node3 -->
<g id="node4" class="node">
<title>Node3</title>
<g id="a_node4"><a xlink:href="struct_engine_1_1_render_1_1_texture_loader_1_1_handle.html" target="_top" xlink:title=" ">
<polygon fill="white" stroke="#666666" points="260.5,-78 112.5,-78 112.5,-48 260.5,-48 260.5,-78"/>
<text text-anchor="start" x="120.5" y="-66" font-family="Helvetica,sans-Serif" font-size="10.00">Engine::Render::TextureLoader</text>
<text text-anchor="middle" x="186.5" y="-55" font-family="Helvetica,sans-Serif" font-size="10.00">::Handle</text>
</a>
</g>
</g>
<!-- Node0&#45;&gt;Node3 -->
<g id="edge3" class="edge">
<title>Node0&#45;&gt;Node3</title>
<path fill="none" stroke="#63b8ff" d="M85.69,-79.24C94.2,-77.86 103.25,-76.38 112.28,-74.91"/>
<polygon fill="#63b8ff" stroke="#63b8ff" points="85.26,-75.76 75.95,-80.82 86.39,-82.67 85.26,-75.76"/>
</g>
<!-- Node4 -->
<g id="node5" class="node">
<title>Node4</title>
<g id="a_node5"><a xlink:href="struct_engine_1_1_render_1_1_vulkan_shader_loader_1_1_handle.html" target="_top" xlink:title=" ">
<polygon fill="white" stroke="#666666" points="259.5,-30 113.5,-30 113.5,0 259.5,0 259.5,-30"/>
<text text-anchor="start" x="121.5" y="-18" font-family="Helvetica,sans-Serif" font-size="10.00">Engine::Render::VulkanShader</text>
<text text-anchor="middle" x="186.5" y="-7" font-family="Helvetica,sans-Serif" font-size="10.00">Loader::Handle</text>
</a>
</g>
</g>
<!-- Node0&#45;&gt;Node4 -->
<g id="edge4" class="edge">
<title>Node0&#45;&gt;Node4</title>
<path fill="none" stroke="#63b8ff" d="M59.49,-70.35C73.32,-60.23 92.02,-47.64 110,-39 116.57,-35.84 123.66,-32.96 130.76,-30.38"/>
<polygon fill="#63b8ff" stroke="#63b8ff" points="57.47,-67.48 51.57,-76.28 61.67,-73.09 57.47,-67.48"/>
</g>
</g>
</svg>
