<?xml version="1.0" encoding="UTF-8" standalone="no"?>
<!DOCTYPE svg PUBLIC "-//W3C//DTD SVG 1.1//EN"
 "http://www.w3.org/Graphics/SVG/1.1/DTD/svg11.dtd">
<!-- Generated by graphviz version 7.0.5 (20221223.1930)
 -->
<!-- Title: Graphical Class Hierarchy Pages: 1 -->
<svg width="330pt" height="86pt"
 viewBox="0.00 0.00 330.00 86.00" xmlns="http://www.w3.org/2000/svg" xmlns:xlink="http://www.w3.org/1999/xlink">
<g id="graph0" class="graph" transform="scale(1 1) rotate(0) translate(4 82)">
<title>Graphical Class Hierarchy</title>
<!-- Node0 -->
<g id="node1" class="node">
<title>Node0</title>
<g id="a_node1"><a xlink:href="struct_engine_1_1_unique_opaque_ptr.html" target="_top" xlink:title=" ">
<polygon fill="white" stroke="#666666" points="128,-48.5 0,-48.5 0,-29.5 128,-29.5 128,-48.5"/>
<text text-anchor="middle" x="64" y="-36.5" font-family="Helvetica,sans-Serif" font-size="10.00">Engine::UniqueOpaquePtr</text>
</a>
</g>
</g>
<!-- Node1 -->
<g id="node2" class="node">
<title>Node1</title>
<g id="a_node2"><a xlink:href="struct_engine_1_1_render_1_1_unique_resource_block.html" target="_top" xlink:title=" ">
<polygon fill="white" stroke="#666666" points="322,-78 164,-78 164,-48 322,-48 322,-78"/>
<text text-anchor="start" x="172" y="-66" font-family="Helvetica,sans-Serif" font-size="10.00">Engine::Render::UniqueResource</text>
<text text-anchor="middle" x="243" y="-55" font-family="Helvetica,sans-Serif" font-size="10.00">Block</text>
</a>
</g>
</g>
<!-- Node0&#45;&gt;Node1 -->
<g id="edge1" class="edge">
<title>Node0&#45;&gt;Node1</title>
<path fill="none" stroke="#63b8ff" d="M139.8,-49.14C147.67,-50.21 155.69,-51.3 163.6,-52.37"/>
<polygon fill="#63b8ff" stroke="#63b8ff" points="140.28,-45.68 129.9,-47.8 139.34,-52.61 140.28,-45.68"/>
</g>
<!-- Node2 -->
<g id="node3" class="node">
<title>Node2</title>
<g id="a_node3"><a xlink:href="struct_engine_1_1_render_1_1_unique_texture_handle.html" target="_top" xlink:title=" ">
<polygon fill="white" stroke="#666666" points="317.5,-30 168.5,-30 168.5,0 317.5,0 317.5,-30"/>
<text text-anchor="start" x="176.5" y="-18" font-family="Helvetica,sans-Serif" font-size="10.00">Engine::Render::UniqueTexture</text>
<text text-anchor="middle" x="243" y="-7" font-family="Helvetica,sans-Serif" font-size="10.00">Handle</text>
</a>
</g>
</g>
<!-- Node0&#45;&gt;Node2 -->
<g id="edge2" class="edge">
<title>Node0&#45;&gt;Node2</title>
<path fill="none" stroke="#63b8ff" d="M139.75,-28.86C149.16,-27.59 158.79,-26.28 168.19,-25.01"/>
<polygon fill="#63b8ff" stroke="#63b8ff" points="139.34,-25.39 129.9,-30.2 140.28,-32.32 139.34,-25.39"/>
</g>
</g>
</svg>
