<?xml version="1.0" encoding="UTF-8" standalone="no"?>
<!DOCTYPE svg PUBLIC "-//W3C//DTD SVG 1.1//EN"
 "http://www.w3.org/Graphics/SVG/1.1/DTD/svg11.dtd">
<!-- Generated by graphviz version 7.0.5 (20221223.1930)
 -->
<!-- Title: Graphical Class Hierarchy Pages: 1 -->
<svg width="560pt" height="677pt"
 viewBox="0.00 0.00 560.00 677.00" xmlns="http://www.w3.org/2000/svg" xmlns:xlink="http://www.w3.org/1999/xlink">
<g id="graph0" class="graph" transform="scale(1 1) rotate(0) translate(4 673)">
<title>Graphical Class Hierarchy</title>
<!-- Node0 -->
<g id="node1" class="node">
<title>Node0</title>
<g id="a_node1"><a xlink:title=" ">
<polygon fill="#e0e0e0" stroke="#999999" points="137,-349.5 0,-349.5 0,-330.5 137,-330.5 137,-349.5"/>
<text text-anchor="middle" x="68.5" y="-337.5" font-family="Helvetica,sans-Serif" font-size="10.00">ResourceLoaderComponent</text>
</a>
</g>
</g>
<!-- Node1 -->
<g id="node2" class="node">
<title>Node1</title>
<g id="a_node2"><a xlink:href="struct_engine_1_1_resources_1_1_resource_loader.html" target="_top" xlink:title=" ">
<polygon fill="white" stroke="#666666" points="357.5,-669 178.5,-669 178.5,-617 357.5,-617 357.5,-669"/>
<text text-anchor="start" x="186.5" y="-657" font-family="Helvetica,sans-Serif" font-size="10.00">Engine::Resources::</text>
<text text-anchor="start" x="186.5" y="-646" font-family="Helvetica,sans-Serif" font-size="10.00">ResourceLoader&lt; NodeGraphLoader,</text>
<text text-anchor="start" x="186.5" y="-635" font-family="Helvetica,sans-Serif" font-size="10.00"> NodeGraph, std::list&lt; Placeholder</text>
<text text-anchor="middle" x="268" y="-624" font-family="Helvetica,sans-Serif" font-size="10.00">&lt; 0 &gt; &gt; &gt;</text>
</a>
</g>
</g>
<!-- Node0&#45;&gt;Node1 -->
<g id="edge1" class="edge">
<title>Node0&#45;&gt;Node1</title>
<path fill="none" stroke="#63b8ff" d="M71.77,-361.01C78.24,-410.79 101.19,-537.06 173,-608 176.22,-611.18 179.76,-614.08 183.51,-616.72"/>
<polygon fill="#63b8ff" stroke="#63b8ff" points="75.28,-360.85 70.61,-351.34 68.32,-361.68 75.28,-360.85"/>
</g>
<!-- Node3 -->
<g id="node4" class="node">
<title>Node3</title>
<g id="a_node4"><a xlink:href="struct_engine_1_1_resources_1_1_resource_loader.html" target="_top" xlink:title=" ">
<polygon fill="white" stroke="#666666" points="354.5,-599 181.5,-599 181.5,-547 354.5,-547 354.5,-599"/>
<text text-anchor="start" x="189.5" y="-587" font-family="Helvetica,sans-Serif" font-size="10.00">Engine::Resources::</text>
<text text-anchor="start" x="189.5" y="-576" font-family="Helvetica,sans-Serif" font-size="10.00">ResourceLoader&lt; AnimationLoader,</text>
<text text-anchor="start" x="189.5" y="-565" font-family="Helvetica,sans-Serif" font-size="10.00"> AnimationList, std::list&lt;</text>
<text text-anchor="middle" x="268" y="-554" font-family="Helvetica,sans-Serif" font-size="10.00"> Placeholder&lt; 0 &gt; &gt; &gt;</text>
</a>
</g>
</g>
<!-- Node0&#45;&gt;Node3 -->
<g id="edge3" class="edge">
<title>Node0&#45;&gt;Node3</title>
<path fill="none" stroke="#63b8ff" d="M74.93,-360.75C86.38,-400.62 116.71,-488.35 173,-538 176.53,-541.11 180.35,-543.95 184.38,-546.55"/>
<polygon fill="#63b8ff" stroke="#63b8ff" points="78.34,-359.98 72.32,-351.27 71.59,-361.84 78.34,-359.98"/>
</g>
<!-- Node5 -->
<g id="node6" class="node">
<title>Node5</title>
<g id="a_node6"><a xlink:href="struct_engine_1_1_resources_1_1_resource_loader.html" target="_top" xlink:title=" ">
<polygon fill="white" stroke="#666666" points="363,-528.5 173,-528.5 173,-465.5 363,-465.5 363,-528.5"/>
<text text-anchor="start" x="181" y="-516.5" font-family="Helvetica,sans-Serif" font-size="10.00">Engine::Resources::</text>
<text text-anchor="start" x="181" y="-505.5" font-family="Helvetica,sans-Serif" font-size="10.00">ResourceLoader&lt; DirectX12Pixel</text>
<text text-anchor="start" x="181" y="-494.5" font-family="Helvetica,sans-Serif" font-size="10.00">ShaderLoader, ReleasePtr&lt;</text>
<text text-anchor="start" x="181" y="-483.5" font-family="Helvetica,sans-Serif" font-size="10.00"> IDxcBlob &gt;, std::list&lt; Placeholder</text>
<text text-anchor="middle" x="268" y="-472.5" font-family="Helvetica,sans-Serif" font-size="10.00">&lt; 0 &gt; &gt;, Threading::WorkGroupStorage &gt;</text>
</a>
</g>
</g>
<!-- Node0&#45;&gt;Node5 -->
<g id="edge5" class="edge">
<title>Node0&#45;&gt;Node5</title>
<path fill="none" stroke="#63b8ff" d="M82.23,-359.06C99.96,-384.37 134.32,-429.13 173,-457 177.03,-459.9 181.3,-462.65 185.71,-465.24"/>
<polygon fill="#63b8ff" stroke="#63b8ff" points="85.27,-357.31 76.73,-351.04 79.5,-361.27 85.27,-357.31"/>
</g>
<!-- Node7 -->
<g id="node8" class="node">
<title>Node7</title>
<g id="a_node8"><a xlink:href="struct_engine_1_1_resources_1_1_resource_loader.html" target="_top" xlink:title=" ">
<polygon fill="white" stroke="#666666" points="363,-447.5 173,-447.5 173,-384.5 363,-384.5 363,-447.5"/>
<text text-anchor="start" x="181" y="-435.5" font-family="Helvetica,sans-Serif" font-size="10.00">Engine::Resources::</text>
<text text-anchor="start" x="181" y="-424.5" font-family="Helvetica,sans-Serif" font-size="10.00">ResourceLoader&lt; DirectX12Vertex</text>
<text text-anchor="start" x="181" y="-413.5" font-family="Helvetica,sans-Serif" font-size="10.00">ShaderLoader, ReleasePtr&lt;</text>
<text text-anchor="start" x="181" y="-402.5" font-family="Helvetica,sans-Serif" font-size="10.00"> IDxcBlob &gt;, std::list&lt; Placeholder</text>
<text text-anchor="middle" x="268" y="-391.5" font-family="Helvetica,sans-Serif" font-size="10.00">&lt; 0 &gt; &gt;, Threading::WorkGroupStorage &gt;</text>
</a>
</g>
</g>
<!-- Node0&#45;&gt;Node7 -->
<g id="edge7" class="edge">
<title>Node0&#45;&gt;Node7</title>
<path fill="none" stroke="#63b8ff" d="M105.79,-353.97C127.71,-362.4 156.59,-373.51 183.85,-384"/>
<polygon fill="#63b8ff" stroke="#63b8ff" points="107.32,-350.8 96.73,-350.48 104.81,-357.34 107.32,-350.8"/>
</g>
<!-- Node9 -->
<g id="node10" class="node">
<title>Node9</title>
<g id="a_node10"><a xlink:href="struct_engine_1_1_resources_1_1_resource_loader.html" target="_top" xlink:title=" ">
<polygon fill="white" stroke="#666666" points="363,-366 173,-366 173,-314 363,-314 363,-366"/>
<text text-anchor="start" x="181" y="-354" font-family="Helvetica,sans-Serif" font-size="10.00">Engine::Resources::</text>
<text text-anchor="start" x="181" y="-343" font-family="Helvetica,sans-Serif" font-size="10.00">ResourceLoader&lt; FontLoader,</text>
<text text-anchor="start" x="181" y="-332" font-family="Helvetica,sans-Serif" font-size="10.00"> Font, std::list&lt; Placeholder</text>
<text text-anchor="middle" x="268" y="-321" font-family="Helvetica,sans-Serif" font-size="10.00">&lt; 0 &gt; &gt;, Threading::WorkGroupStorage &gt;</text>
</a>
</g>
</g>
<!-- Node0&#45;&gt;Node9 -->
<g id="edge9" class="edge">
<title>Node0&#45;&gt;Node9</title>
<path fill="none" stroke="#63b8ff" d="M148.84,-340C156.71,-340 164.74,-340 172.74,-340"/>
<polygon fill="#63b8ff" stroke="#63b8ff" points="148.98,-336.5 138.98,-340 148.98,-343.5 148.98,-336.5"/>
</g>
<!-- Node11 -->
<g id="node12" class="node">
<title>Node11</title>
<g id="a_node12"><a xlink:href="struct_engine_1_1_resources_1_1_resource_loader.html" target="_top" xlink:title=" ">
<polygon fill="white" stroke="#666666" points="350,-295.5 186,-295.5 186,-232.5 350,-232.5 350,-295.5"/>
<text text-anchor="start" x="194" y="-283.5" font-family="Helvetica,sans-Serif" font-size="10.00">Engine::Resources::</text>
<text text-anchor="start" x="194" y="-272.5" font-family="Helvetica,sans-Serif" font-size="10.00">ResourceLoader&lt; OpenGLShader</text>
<text text-anchor="start" x="194" y="-261.5" font-family="Helvetica,sans-Serif" font-size="10.00">Loader, OpenGLShader, std</text>
<text text-anchor="start" x="194" y="-250.5" font-family="Helvetica,sans-Serif" font-size="10.00">::list&lt; Placeholder&lt; 0 &gt; &gt;</text>
<text text-anchor="middle" x="268" y="-239.5" font-family="Helvetica,sans-Serif" font-size="10.00">, Threading::WorkGroupStorage &gt;</text>
</a>
</g>
</g>
<!-- Node0&#45;&gt;Node11 -->
<g id="edge11" class="edge">
<title>Node0&#45;&gt;Node11</title>
<path fill="none" stroke="#63b8ff" d="M106,-325.96C128.37,-317.35 157.93,-305.97 185.62,-295.32"/>
<polygon fill="#63b8ff" stroke="#63b8ff" points="104.81,-322.66 96.73,-329.52 107.32,-329.2 104.81,-322.66"/>
</g>
<!-- Node13 -->
<g id="node14" class="node">
<title>Node13</title>
<g id="a_node14"><a xlink:href="struct_engine_1_1_resources_1_1_resource_loader.html" target="_top" xlink:title=" ">
<polygon fill="white" stroke="#666666" points="351.5,-214 184.5,-214 184.5,-162 351.5,-162 351.5,-214"/>
<text text-anchor="start" x="192.5" y="-202" font-family="Helvetica,sans-Serif" font-size="10.00">Engine::Resources::</text>
<text text-anchor="start" x="192.5" y="-191" font-family="Helvetica,sans-Serif" font-size="10.00">ResourceLoader&lt; SkeletonLoader,</text>
<text text-anchor="start" x="192.5" y="-180" font-family="Helvetica,sans-Serif" font-size="10.00"> SkeletonDescriptor, std::</text>
<text text-anchor="middle" x="268" y="-169" font-family="Helvetica,sans-Serif" font-size="10.00">list&lt; Placeholder&lt; 0 &gt; &gt; &gt;</text>
</a>
</g>
</g>
<!-- Node0&#45;&gt;Node13 -->
<g id="edge13" class="edge">
<title>Node0&#45;&gt;Node13</title>
<path fill="none" stroke="#63b8ff" d="M82.12,-320.91C99.73,-295.58 133.95,-250.95 173,-224 178.03,-220.53 183.45,-217.33 189.05,-214.4"/>
<polygon fill="#63b8ff" stroke="#63b8ff" points="79.39,-318.69 76.66,-328.93 85.18,-322.62 79.39,-318.69"/>
</g>
<!-- Node15 -->
<g id="node16" class="node">
<title>Node15</title>
<g id="a_node16"><a xlink:href="struct_engine_1_1_resources_1_1_resource_loader.html" target="_top" xlink:title=" ">
<polygon fill="white" stroke="#666666" points="358,-144 178,-144 178,-70 358,-70 358,-144"/>
<text text-anchor="start" x="186" y="-132" font-family="Helvetica,sans-Serif" font-size="10.00">Engine::Resources::</text>
<text text-anchor="start" x="186" y="-121" font-family="Helvetica,sans-Serif" font-size="10.00">ResourceLoader&lt; VulkanShader</text>
<text text-anchor="start" x="186" y="-110" font-family="Helvetica,sans-Serif" font-size="10.00">Loader, VulkanPtr&lt; VkShaderModule,</text>
<text text-anchor="start" x="186" y="-99" font-family="Helvetica,sans-Serif" font-size="10.00"> &amp;vkDestroyShaderModule &gt;, std</text>
<text text-anchor="start" x="186" y="-88" font-family="Helvetica,sans-Serif" font-size="10.00">::list&lt; Placeholder&lt; 0 &gt; &gt;, Threading</text>
<text text-anchor="middle" x="268" y="-77" font-family="Helvetica,sans-Serif" font-size="10.00">::WorkGroupStorage &gt;</text>
</a>
</g>
</g>
<!-- Node0&#45;&gt;Node15 -->
<g id="edge15" class="edge">
<title>Node0&#45;&gt;Node15</title>
<path fill="none" stroke="#63b8ff" d="M76.13,-319.57C89.2,-282.14 121.56,-201.91 173,-153 176.16,-150 179.55,-147.15 183.11,-144.46"/>
<polygon fill="#63b8ff" stroke="#63b8ff" points="72.94,-318.1 73.05,-328.7 79.57,-320.34 72.94,-318.1"/>
</g>
<!-- Node17 -->
<g id="node18" class="node">
<title>Node17</title>
<g id="a_node18"><a xlink:href="struct_engine_1_1_resources_1_1_resource_loader.html" target="_top" xlink:title=" ">
<polygon fill="white" stroke="#666666" points="341.5,-52 194.5,-52 194.5,0 341.5,0 341.5,-52"/>
<text text-anchor="start" x="202.5" y="-40" font-family="Helvetica,sans-Serif" font-size="10.00">Engine::Resources::</text>
<text text-anchor="start" x="202.5" y="-29" font-family="Helvetica,sans-Serif" font-size="10.00">ResourceLoader&lt; Python3File</text>
<text text-anchor="start" x="202.5" y="-18" font-family="Helvetica,sans-Serif" font-size="10.00">Loader, PyModulePtr, std</text>
<text text-anchor="middle" x="268" y="-7" font-family="Helvetica,sans-Serif" font-size="10.00">::list&lt; Placeholder&lt; 0 &gt; &gt; &gt;</text>
</a>
</g>
</g>
<!-- Node0&#45;&gt;Node17 -->
<g id="edge17" class="edge">
<title>Node0&#45;&gt;Node17</title>
<path fill="none" stroke="#63b8ff" d="M71.42,-318.83C77.17,-267.52 98.79,-135.3 173,-61 179.15,-54.84 186.49,-49.75 194.31,-45.55"/>
<polygon fill="#63b8ff" stroke="#63b8ff" points="67.96,-318.23 70.43,-328.54 74.92,-318.94 67.96,-318.23"/>
</g>
<!-- Node2 -->
<g id="node3" class="node">
<title>Node2</title>
<g id="a_node3"><a xlink:href="struct_engine_1_1_node_graph_1_1_node_graph_loader.html" target="_top" xlink:title=" ">
<polygon fill="white" stroke="#666666" points="527.5,-658 423.5,-658 423.5,-628 527.5,-628 527.5,-658"/>
<text text-anchor="start" x="431.5" y="-646" font-family="Helvetica,sans-Serif" font-size="10.00">Engine::NodeGraph::</text>
<text text-anchor="middle" x="475.5" y="-635" font-family="Helvetica,sans-Serif" font-size="10.00">NodeGraphLoader</text>
</a>
</g>
</g>
<!-- Node1&#45;&gt;Node2 -->
<g id="edge2" class="edge">
<title>Node1&#45;&gt;Node2</title>
<path fill="none" stroke="#63b8ff" d="M369.2,-643C387.85,-643 406.61,-643 423.02,-643"/>
<polygon fill="#63b8ff" stroke="#63b8ff" points="369.45,-639.5 359.45,-643 369.45,-646.5 369.45,-639.5"/>
</g>
<!-- Node4 -->
<g id="node5" class="node">
<title>Node4</title>
<g id="a_node5"><a xlink:href="struct_engine_1_1_render_1_1_animation_loader.html" target="_top" xlink:title=" ">
<polygon fill="white" stroke="#666666" points="540,-588 411,-588 411,-558 540,-558 540,-588"/>
<text text-anchor="start" x="419" y="-576" font-family="Helvetica,sans-Serif" font-size="10.00">Engine::Render::Animation</text>
<text text-anchor="middle" x="475.5" y="-565" font-family="Helvetica,sans-Serif" font-size="10.00">Loader</text>
</a>
</g>
</g>
<!-- Node3&#45;&gt;Node4 -->
<g id="edge4" class="edge">
<title>Node3&#45;&gt;Node4</title>
<path fill="none" stroke="#63b8ff" d="M366.43,-573C381.49,-573 396.7,-573 410.77,-573"/>
<polygon fill="#63b8ff" stroke="#63b8ff" points="366.47,-569.5 356.47,-573 366.47,-576.5 366.47,-569.5"/>
</g>
<!-- Node6 -->
<g id="node7" class="node">
<title>Node6</title>
<g id="a_node7"><a xlink:href="struct_engine_1_1_render_1_1_direct_x12_pixel_shader_loader.html" target="_top" xlink:title=" ">
<polygon fill="white" stroke="#666666" points="539.5,-512 411.5,-512 411.5,-482 539.5,-482 539.5,-512"/>
<text text-anchor="start" x="419.5" y="-500" font-family="Helvetica,sans-Serif" font-size="10.00">Engine::Render::DirectX12</text>
<text text-anchor="middle" x="475.5" y="-489" font-family="Helvetica,sans-Serif" font-size="10.00">PixelShaderLoader</text>
</a>
</g>
</g>
<!-- Node5&#45;&gt;Node6 -->
<g id="edge6" class="edge">
<title>Node5&#45;&gt;Node6</title>
<path fill="none" stroke="#63b8ff" d="M374.78,-497C387.25,-497 399.67,-497 411.28,-497"/>
<polygon fill="#63b8ff" stroke="#63b8ff" points="374.84,-493.5 364.84,-497 374.84,-500.5 374.84,-493.5"/>
</g>
<!-- Node8 -->
<g id="node9" class="node">
<title>Node8</title>
<g id="a_node9"><a xlink:href="struct_engine_1_1_render_1_1_direct_x12_vertex_shader_loader.html" target="_top" xlink:title=" ">
<polygon fill="white" stroke="#666666" points="539.5,-431 411.5,-431 411.5,-401 539.5,-401 539.5,-431"/>
<text text-anchor="start" x="419.5" y="-419" font-family="Helvetica,sans-Serif" font-size="10.00">Engine::Render::DirectX12</text>
<text text-anchor="middle" x="475.5" y="-408" font-family="Helvetica,sans-Serif" font-size="10.00">VertexShaderLoader</text>
</a>
</g>
</g>
<!-- Node7&#45;&gt;Node8 -->
<g id="edge8" class="edge">
<title>Node7&#45;&gt;Node8</title>
<path fill="none" stroke="#63b8ff" d="M374.78,-416C387.25,-416 399.67,-416 411.28,-416"/>
<polygon fill="#63b8ff" stroke="#63b8ff" points="374.84,-412.5 364.84,-416 374.84,-419.5 374.84,-412.5"/>
</g>
<!-- Node10 -->
<g id="node11" class="node">
<title>Node10</title>
<g id="a_node11"><a xlink:href="struct_engine_1_1_render_1_1_font_loader.html" target="_top" xlink:title=" ">
<polygon fill="white" stroke="#666666" points="543,-349.5 408,-349.5 408,-330.5 543,-330.5 543,-349.5"/>
<text text-anchor="middle" x="475.5" y="-337.5" font-family="Helvetica,sans-Serif" font-size="10.00">Engine::Render::FontLoader</text>
</a>
</g>
</g>
<!-- Node9&#45;&gt;Node10 -->
<g id="edge10" class="edge">
<title>Node9&#45;&gt;Node10</title>
<path fill="none" stroke="#63b8ff" d="M374.59,-340C385.86,-340 397.08,-340 407.71,-340"/>
<polygon fill="#63b8ff" stroke="#63b8ff" points="374.84,-336.5 364.84,-340 374.84,-343.5 374.84,-336.5"/>
</g>
<!-- Node12 -->
<g id="node13" class="node">
<title>Node12</title>
<g id="a_node13"><a xlink:href="struct_engine_1_1_render_1_1_open_g_l_shader_loader.html" target="_top" xlink:title=" ">
<polygon fill="white" stroke="#666666" points="552,-279 399,-279 399,-249 552,-249 552,-279"/>
<text text-anchor="start" x="407" y="-267" font-family="Helvetica,sans-Serif" font-size="10.00">Engine::Render::OpenGLShader</text>
<text text-anchor="middle" x="475.5" y="-256" font-family="Helvetica,sans-Serif" font-size="10.00">Loader</text>
</a>
</g>
</g>
<!-- Node11&#45;&gt;Node12 -->
<g id="edge12" class="edge">
<title>Node11&#45;&gt;Node12</title>
<path fill="none" stroke="#63b8ff" d="M361.52,-264C373.91,-264 386.5,-264 398.55,-264"/>
<polygon fill="#63b8ff" stroke="#63b8ff" points="361.73,-260.5 351.73,-264 361.73,-267.5 361.73,-260.5"/>
</g>
<!-- Node14 -->
<g id="node15" class="node">
<title>Node14</title>
<g id="a_node15"><a xlink:href="struct_engine_1_1_render_1_1_skeleton_loader.html" target="_top" xlink:title=" ">
<polygon fill="white" stroke="#666666" points="537.5,-203 413.5,-203 413.5,-173 537.5,-173 537.5,-203"/>
<text text-anchor="start" x="421.5" y="-191" font-family="Helvetica,sans-Serif" font-size="10.00">Engine::Render::Skeleton</text>
<text text-anchor="middle" x="475.5" y="-180" font-family="Helvetica,sans-Serif" font-size="10.00">Loader</text>
</a>
</g>
</g>
<!-- Node13&#45;&gt;Node14 -->
<g id="edge14" class="edge">
<title>Node13&#45;&gt;Node14</title>
<path fill="none" stroke="#63b8ff" d="M363.07,-188C380.02,-188 397.28,-188 413.01,-188"/>
<polygon fill="#63b8ff" stroke="#63b8ff" points="363.51,-184.5 353.51,-188 363.51,-191.5 363.51,-184.5"/>
</g>
<!-- Node16 -->
<g id="node17" class="node">
<title>Node16</title>
<g id="a_node17"><a xlink:href="struct_engine_1_1_render_1_1_vulkan_shader_loader.html" target="_top" xlink:title=" ">
<polygon fill="white" stroke="#666666" points="548.5,-122 402.5,-122 402.5,-92 548.5,-92 548.5,-122"/>
<text text-anchor="start" x="410.5" y="-110" font-family="Helvetica,sans-Serif" font-size="10.00">Engine::Render::VulkanShader</text>
<text text-anchor="middle" x="475.5" y="-99" font-family="Helvetica,sans-Serif" font-size="10.00">Loader</text>
</a>
</g>
</g>
<!-- Node15&#45;&gt;Node16 -->
<g id="edge16" class="edge">
<title>Node15&#45;&gt;Node16</title>
<path fill="none" stroke="#63b8ff" d="M369.6,-107C380.54,-107 391.5,-107 402.01,-107"/>
<polygon fill="#63b8ff" stroke="#63b8ff" points="369.75,-103.5 359.75,-107 369.75,-110.5 369.75,-103.5"/>
</g>
<!-- Node18 -->
<g id="node19" class="node">
<title>Node18</title>
<g id="a_node19"><a xlink:href="struct_engine_1_1_scripting_1_1_python3_1_1_python3_file_loader.html" target="_top" xlink:title=" ">
<polygon fill="white" stroke="#666666" points="544,-41 407,-41 407,-11 544,-11 544,-41"/>
<text text-anchor="start" x="415" y="-29" font-family="Helvetica,sans-Serif" font-size="10.00">Engine::Scripting::</text>
<text text-anchor="middle" x="475.5" y="-18" font-family="Helvetica,sans-Serif" font-size="10.00">Python3::Python3FileLoader</text>
</a>
</g>
</g>
<!-- Node17&#45;&gt;Node18 -->
<g id="edge18" class="edge">
<title>Node17&#45;&gt;Node18</title>
<path fill="none" stroke="#63b8ff" d="M353.03,-26C370.88,-26 389.51,-26 406.67,-26"/>
<polygon fill="#63b8ff" stroke="#63b8ff" points="353.25,-22.5 343.25,-26 353.25,-29.5 353.25,-22.5"/>
</g>
</g>
</svg>
