<?xml version="1.0" encoding="UTF-8" standalone="no"?>
<!DOCTYPE svg PUBLIC "-//W3C//DTD SVG 1.1//EN"
 "http://www.w3.org/Graphics/SVG/1.1/DTD/svg11.dtd">
<!-- Generated by graphviz version 7.0.5 (20221223.1930)
 -->
<!-- Title: Graphical Class Hierarchy Pages: 1 -->
<svg width="229pt" height="101pt"
 viewBox="0.00 0.00 229.00 101.00" xmlns="http://www.w3.org/2000/svg" xmlns:xlink="http://www.w3.org/1999/xlink">
<g id="graph0" class="graph" transform="scale(1 1) rotate(0) translate(4 97)">
<title>Graphical Class Hierarchy</title>
<!-- Node0 -->
<g id="node1" class="node">
<title>Node0</title>
<g id="a_node1"><a xlink:href="struct_code_gen_1_1_file.html" target="_top" xlink:title=" ">
<polygon fill="white" stroke="#666666" points="77,-56 0,-56 0,-37 77,-37 77,-56"/>
<text text-anchor="middle" x="38.5" y="-44" font-family="Helvetica,sans-Serif" font-size="10.00">CodeGen::File</text>
</a>
</g>
</g>
<!-- Node1 -->
<g id="node2" class="node">
<title>Node1</title>
<g id="a_node2"><a xlink:href="struct_code_gen_1_1_c_make_file.html" target="_top" xlink:title=" ">
<polygon fill="white" stroke="#666666" points="221,-93 113,-93 113,-74 221,-74 221,-93"/>
<text text-anchor="middle" x="167" y="-81" font-family="Helvetica,sans-Serif" font-size="10.00">CodeGen::CMakeFile</text>
</a>
</g>
</g>
<!-- Node0&#45;&gt;Node1 -->
<g id="edge1" class="edge">
<title>Node0&#45;&gt;Node1</title>
<path fill="none" stroke="#63b8ff" d="M84.45,-59.65C100.1,-64.22 117.39,-69.28 132.01,-73.56"/>
<polygon fill="#63b8ff" stroke="#63b8ff" points="85.43,-56.29 74.85,-56.84 83.47,-63.01 85.43,-56.29"/>
</g>
<!-- Node2 -->
<g id="node3" class="node">
<title>Node2</title>
<g id="a_node3"><a xlink:href="struct_code_gen_1_1_cpp_file.html" target="_top" xlink:title=" ">
<polygon fill="white" stroke="#666666" points="214.5,-56 119.5,-56 119.5,-37 214.5,-37 214.5,-56"/>
<text text-anchor="middle" x="167" y="-44" font-family="Helvetica,sans-Serif" font-size="10.00">CodeGen::CppFile</text>
</a>
</g>
</g>
<!-- Node0&#45;&gt;Node2 -->
<g id="edge2" class="edge">
<title>Node0&#45;&gt;Node2</title>
<path fill="none" stroke="#63b8ff" d="M88.86,-46.5C98.81,-46.5 109.25,-46.5 119.12,-46.5"/>
<polygon fill="#63b8ff" stroke="#63b8ff" points="88.97,-43 78.97,-46.5 88.97,-50 88.97,-43"/>
</g>
<!-- Node3 -->
<g id="node4" class="node">
<title>Node3</title>
<g id="a_node4"><a xlink:href="struct_code_gen_1_1_shader_file.html" target="_top" xlink:title=" ">
<polygon fill="white" stroke="#666666" points="221,-19 113,-19 113,0 221,0 221,-19"/>
<text text-anchor="middle" x="167" y="-7" font-family="Helvetica,sans-Serif" font-size="10.00">CodeGen::ShaderFile</text>
</a>
</g>
</g>
<!-- Node0&#45;&gt;Node3 -->
<g id="edge3" class="edge">
<title>Node0&#45;&gt;Node3</title>
<path fill="none" stroke="#63b8ff" d="M84.45,-33.35C100.1,-28.78 117.39,-23.72 132.01,-19.44"/>
<polygon fill="#63b8ff" stroke="#63b8ff" points="83.47,-29.99 74.85,-36.16 85.43,-36.71 83.47,-29.99"/>
</g>
</g>
</svg>
