<?xml version="1.0" encoding="UTF-8" standalone="no"?>
<!DOCTYPE svg PUBLIC "-//W3C//DTD SVG 1.1//EN"
 "http://www.w3.org/Graphics/SVG/1.1/DTD/svg11.dtd">
<!-- Generated by graphviz version 7.0.5 (20221223.1930)
 -->
<!-- Title: Graphical Class Hierarchy Pages: 1 -->
<svg width="389pt" height="307pt"
 viewBox="0.00 0.00 389.00 307.00" xmlns="http://www.w3.org/2000/svg" xmlns:xlink="http://www.w3.org/1999/xlink">
<g id="graph0" class="graph" transform="scale(1 1) rotate(0) translate(4 303)">
<title>Graphical Class Hierarchy</title>
<!-- Node0 -->
<g id="node1" class="node">
<title>Node0</title>
<g id="a_node1"><a xlink:title=" ">
<polygon fill="#e0e0e0" stroke="#999999" points="74,-170.5 0,-170.5 0,-151.5 74,-151.5 74,-170.5"/>
<text text-anchor="middle" x="37" y="-158.5" font-family="Helvetica,sans-Serif" font-size="10.00">std::true_type</text>
</a>
</g>
</g>
<!-- Node1 -->
<g id="node2" class="node">
<title>Node1</title>
<g id="a_node2"><a xlink:href="struct_engine_1_1_threading_1_1is__task_3_01_task_3_01_t_00_01_i_01_4_01_4.html" target="_top" xlink:title=" ">
<polygon fill="white" stroke="#666666" points="231,-299 114,-299 114,-269 231,-269 231,-299"/>
<text text-anchor="start" x="122" y="-287" font-family="Helvetica,sans-Serif" font-size="10.00">Engine::Threading::</text>
<text text-anchor="middle" x="172.5" y="-276" font-family="Helvetica,sans-Serif" font-size="10.00">is_task&lt; Task&lt; T, I &gt; &gt;</text>
</a>
</g>
</g>
<!-- Node0&#45;&gt;Node1 -->
<g id="edge1" class="edge">
<title>Node0&#45;&gt;Node1</title>
<path fill="none" stroke="#63b8ff" d="M47.91,-180.79C59.87,-202.88 81.93,-238.35 110,-260 114.17,-263.22 118.83,-266.06 123.67,-268.55"/>
<polygon fill="#63b8ff" stroke="#63b8ff" points="51.16,-179.46 43.43,-172.21 44.95,-182.7 51.16,-179.46"/>
</g>
<!-- Node2 -->
<g id="node3" class="node">
<title>Node2</title>
<g id="a_node3"><a xlink:href="struct_engine_1_1is__instance_3_01_u_3_01_t_8_8_8_01_4_00_01_u_01_4.html" target="_top" xlink:title=" ">
<polygon fill="white" stroke="#666666" points="222.5,-251 122.5,-251 122.5,-221 222.5,-221 222.5,-251"/>
<text text-anchor="start" x="130.5" y="-239" font-family="Helvetica,sans-Serif" font-size="10.00">Engine::is_instance</text>
<text text-anchor="middle" x="172.5" y="-228" font-family="Helvetica,sans-Serif" font-size="10.00">&lt; U&lt; T... &gt;, U &gt;</text>
</a>
</g>
</g>
<!-- Node0&#45;&gt;Node2 -->
<g id="edge2" class="edge">
<title>Node0&#45;&gt;Node2</title>
<path fill="none" stroke="#63b8ff" d="M58.64,-177.67C72.57,-188.41 91.7,-202.14 110,-212 115.65,-215.04 121.77,-217.91 127.89,-220.52"/>
<polygon fill="#63b8ff" stroke="#63b8ff" points="61.11,-175.16 51.08,-171.74 56.78,-180.67 61.11,-175.16"/>
</g>
<!-- Node3 -->
<g id="node4" class="node">
<title>Node3</title>
<g id="a_node4"><a xlink:href="struct_engine_1_1is__instance__auto1_3_01_u_3_01_a_00_01_v_8_8_8_01_4_00_01_u_01_4.html" target="_top" xlink:title=" ">
<polygon fill="white" stroke="#666666" points="235,-203 110,-203 110,-173 235,-173 235,-203"/>
<text text-anchor="start" x="118" y="-191" font-family="Helvetica,sans-Serif" font-size="10.00">Engine::is_instance</text>
<text text-anchor="middle" x="172.5" y="-180" font-family="Helvetica,sans-Serif" font-size="10.00">_auto1&lt; U&lt; A, V... &gt;, U &gt;</text>
</a>
</g>
</g>
<!-- Node0&#45;&gt;Node3 -->
<g id="edge3" class="edge">
<title>Node0&#45;&gt;Node3</title>
<path fill="none" stroke="#63b8ff" d="M85.58,-170.62C93.38,-172.2 101.56,-173.86 109.65,-175.49"/>
<polygon fill="#63b8ff" stroke="#63b8ff" points="86.46,-167.23 75.96,-168.68 85.07,-174.09 86.46,-167.23"/>
</g>
<!-- Node4 -->
<g id="node5" class="node">
<title>Node4</title>
<g id="a_node5"><a xlink:href="struct_engine_1_1is__instance__auto2_3_01_u_3_01_a_00_01_b_00_01_v_8_8_8_01_4_00_01_u_01_4.html" target="_top" xlink:title=" ">
<polygon fill="white" stroke="#666666" points="226,-154.5 119,-154.5 119,-113.5 226,-113.5 226,-154.5"/>
<text text-anchor="start" x="127" y="-142.5" font-family="Helvetica,sans-Serif" font-size="10.00">Engine::is_instance</text>
<text text-anchor="start" x="127" y="-131.5" font-family="Helvetica,sans-Serif" font-size="10.00">_auto2&lt; U&lt; A, B, V...</text>
<text text-anchor="middle" x="172.5" y="-120.5" font-family="Helvetica,sans-Serif" font-size="10.00"> &gt;, U &gt;</text>
</a>
</g>
</g>
<!-- Node0&#45;&gt;Node4 -->
<g id="edge4" class="edge">
<title>Node0&#45;&gt;Node4</title>
<path fill="none" stroke="#63b8ff" d="M85.7,-151.35C96.35,-149.2 107.7,-146.9 118.55,-144.71"/>
<polygon fill="#63b8ff" stroke="#63b8ff" points="85.07,-147.91 75.96,-153.32 86.46,-154.77 85.07,-147.91"/>
</g>
<!-- Node5 -->
<g id="node6" class="node">
<title>Node5</title>
<g id="a_node6"><a xlink:href="struct_engine_1_1is__instance__auto_3_01_u_3_01_v_8_8_8_01_4_00_01_u_01_4.html" target="_top" xlink:title=" ">
<polygon fill="white" stroke="#666666" points="226,-95 119,-95 119,-65 226,-65 226,-95"/>
<text text-anchor="start" x="127" y="-83" font-family="Helvetica,sans-Serif" font-size="10.00">Engine::is_instance</text>
<text text-anchor="middle" x="172.5" y="-72" font-family="Helvetica,sans-Serif" font-size="10.00">_auto&lt; U&lt; V... &gt;, U &gt;</text>
</a>
</g>
</g>
<!-- Node0&#45;&gt;Node5 -->
<g id="edge5" class="edge">
<title>Node0&#45;&gt;Node5</title>
<path fill="none" stroke="#63b8ff" d="M57.2,-143.69C71.14,-131.74 90.83,-116.06 110,-105 115.99,-101.54 122.55,-98.33 129.08,-95.44"/>
<polygon fill="#63b8ff" stroke="#63b8ff" points="54.9,-141.05 49.69,-150.27 59.52,-146.31 54.9,-141.05"/>
</g>
<!-- Node6 -->
<g id="node7" class="node">
<title>Node6</title>
<g id="a_node7"><a xlink:href="struct_engine_1_1type__pack_3_01_head_00_01_ty_8_8_8_01_4_1_1helpers_1_1is__or__contains_3_01_t_00_01_t_01_4.html" target="_top" xlink:title=" ">
<polygon fill="white" stroke="#666666" points="231.5,-46.5 113.5,-46.5 113.5,-5.5 231.5,-5.5 231.5,-46.5"/>
<text text-anchor="start" x="121.5" y="-34.5" font-family="Helvetica,sans-Serif" font-size="10.00">Engine::type_pack&lt;</text>
<text text-anchor="start" x="121.5" y="-23.5" font-family="Helvetica,sans-Serif" font-size="10.00"> Head, Ty... &gt;::helpers</text>
<text text-anchor="middle" x="172.5" y="-12.5" font-family="Helvetica,sans-Serif" font-size="10.00">::is_or_contains&lt; T, T &gt;</text>
</a>
</g>
</g>
<!-- Node0&#45;&gt;Node6 -->
<g id="edge6" class="edge">
<title>Node0&#45;&gt;Node6</title>
<path fill="none" stroke="#63b8ff" d="M47.61,-141.09C59.55,-118.09 81.81,-80.32 110,-56 113.87,-52.66 118.17,-49.6 122.66,-46.82"/>
<polygon fill="#63b8ff" stroke="#63b8ff" points="44.64,-139.2 43.28,-149.71 50.9,-142.34 44.64,-139.2"/>
</g>
<!-- Node7 -->
<g id="node8" class="node">
<title>Node7</title>
<g id="a_node8"><a xlink:href="struct_engine_1_1type__pack_3_01_head_00_01_ty_8_8_8_01_4_1_1helpers_1_1is__or__contains_3_01typ0512f53fc15352f6bcdd4e237db439dc.html" target="_top" xlink:title=" ">
<polygon fill="white" stroke="#666666" points="381,-52 271,-52 271,0 381,0 381,-52"/>
<text text-anchor="start" x="279" y="-40" font-family="Helvetica,sans-Serif" font-size="10.00">Engine::type_pack&lt;</text>
<text text-anchor="start" x="279" y="-29" font-family="Helvetica,sans-Serif" font-size="10.00"> Head, Ty... &gt;::helpers</text>
<text text-anchor="start" x="279" y="-18" font-family="Helvetica,sans-Serif" font-size="10.00">::is_or_contains&lt; type</text>
<text text-anchor="middle" x="326" y="-7" font-family="Helvetica,sans-Serif" font-size="10.00">_pack&lt; Ty2... &gt;, T &gt;</text>
</a>
</g>
</g>
<!-- Node6&#45;&gt;Node7 -->
<g id="edge7" class="edge">
<title>Node6&#45;&gt;Node7</title>
<path fill="none" stroke="#63b8ff" d="M242.93,-26C252.26,-26 261.73,-26 270.75,-26"/>
<polygon fill="#63b8ff" stroke="#63b8ff" points="243.15,-22.5 233.15,-26 243.15,-29.5 243.15,-22.5"/>
</g>
</g>
</svg>
