<?xml version="1.0" encoding="UTF-8" standalone="no"?>
<!DOCTYPE svg PUBLIC "-//W3C//DTD SVG 1.1//EN"
 "http://www.w3.org/Graphics/SVG/1.1/DTD/svg11.dtd">
<!-- Generated by graphviz version 7.0.5 (20221223.1930)
 -->
<!-- Title: Graphical Class Hierarchy Pages: 1 -->
<svg width="241pt" height="230pt"
 viewBox="0.00 0.00 241.00 230.00" xmlns="http://www.w3.org/2000/svg" xmlns:xlink="http://www.w3.org/1999/xlink">
<g id="graph0" class="graph" transform="scale(1 1) rotate(0) translate(4 226)">
<title>Graphical Class Hierarchy</title>
<!-- Node0 -->
<g id="node1" class="node">
<title>Node0</title>
<g id="a_node1"><a xlink:href="class_entity_component.html" target="_top" xlink:title=" ">
<polygon fill="white" stroke="#666666" points="90,-120.5 0,-120.5 0,-101.5 90,-101.5 90,-120.5"/>
<text text-anchor="middle" x="45" y="-108.5" font-family="Helvetica,sans-Serif" font-size="10.00">EntityComponent</text>
</a>
</g>
</g>
<!-- Node1 -->
<g id="node2" class="node">
<title>Node1</title>
<g id="a_node2"><a xlink:href="struct_engine_1_1_scene_1_1_entity_1_1_material.html" target="_top" xlink:title=" ">
<polygon fill="white" stroke="#666666" points="233,-222 126,-222 126,-192 233,-192 233,-222"/>
<text text-anchor="start" x="134" y="-210" font-family="Helvetica,sans-Serif" font-size="10.00">Engine::Scene::Entity</text>
<text text-anchor="middle" x="179.5" y="-199" font-family="Helvetica,sans-Serif" font-size="10.00">::Material</text>
</a>
</g>
</g>
<!-- Node0&#45;&gt;Node1 -->
<g id="edge1" class="edge">
<title>Node0&#45;&gt;Node1</title>
<path fill="none" stroke="#63b8ff" d="M62.65,-128.8C78.02,-144.49 102.01,-167.26 126,-183 130.69,-186.08 135.84,-188.96 141.03,-191.58"/>
<polygon fill="#63b8ff" stroke="#63b8ff" points="65.56,-126.77 56.11,-121.98 60.51,-131.62 65.56,-126.77"/>
</g>
<!-- Node2 -->
<g id="node3" class="node">
<title>Node2</title>
<g id="a_node3"><a xlink:href="struct_engine_1_1_scene_1_1_entity_1_1_mesh.html" target="_top" xlink:title=" ">
<polygon fill="white" stroke="#666666" points="233,-174 126,-174 126,-144 233,-144 233,-174"/>
<text text-anchor="start" x="134" y="-162" font-family="Helvetica,sans-Serif" font-size="10.00">Engine::Scene::Entity</text>
<text text-anchor="middle" x="179.5" y="-151" font-family="Helvetica,sans-Serif" font-size="10.00">::Mesh</text>
</a>
</g>
</g>
<!-- Node0&#45;&gt;Node2 -->
<g id="edge2" class="edge">
<title>Node0&#45;&gt;Node2</title>
<path fill="none" stroke="#63b8ff" d="M84.16,-124.83C100.36,-130.69 119.3,-137.55 135.95,-143.58"/>
<polygon fill="#63b8ff" stroke="#63b8ff" points="85.47,-121.58 74.88,-121.46 83.09,-128.16 85.47,-121.58"/>
</g>
<!-- Node3 -->
<g id="node4" class="node">
<title>Node3</title>
<g id="a_node4"><a xlink:href="struct_engine_1_1_scene_1_1_entity_1_1_point_light.html" target="_top" xlink:title=" ">
<polygon fill="white" stroke="#666666" points="233,-126 126,-126 126,-96 233,-96 233,-126"/>
<text text-anchor="start" x="134" y="-114" font-family="Helvetica,sans-Serif" font-size="10.00">Engine::Scene::Entity</text>
<text text-anchor="middle" x="179.5" y="-103" font-family="Helvetica,sans-Serif" font-size="10.00">::PointLight</text>
</a>
</g>
</g>
<!-- Node0&#45;&gt;Node3 -->
<g id="edge3" class="edge">
<title>Node0&#45;&gt;Node3</title>
<path fill="none" stroke="#63b8ff" d="M101.84,-111C109.73,-111 117.81,-111 125.64,-111"/>
<polygon fill="#63b8ff" stroke="#63b8ff" points="102,-107.5 92,-111 102,-114.5 102,-107.5"/>
</g>
<!-- Node4 -->
<g id="node5" class="node">
<title>Node4</title>
<g id="a_node5"><a xlink:href="struct_engine_1_1_scene_1_1_entity_1_1_skeleton.html" target="_top" xlink:title=" ">
<polygon fill="white" stroke="#666666" points="233,-78 126,-78 126,-48 233,-48 233,-78"/>
<text text-anchor="start" x="134" y="-66" font-family="Helvetica,sans-Serif" font-size="10.00">Engine::Scene::Entity</text>
<text text-anchor="middle" x="179.5" y="-55" font-family="Helvetica,sans-Serif" font-size="10.00">::Skeleton</text>
</a>
</g>
</g>
<!-- Node0&#45;&gt;Node4 -->
<g id="edge4" class="edge">
<title>Node0&#45;&gt;Node4</title>
<path fill="none" stroke="#63b8ff" d="M84.16,-97.17C100.36,-91.31 119.3,-84.45 135.95,-78.42"/>
<polygon fill="#63b8ff" stroke="#63b8ff" points="83.09,-93.84 74.88,-100.54 85.47,-100.42 83.09,-93.84"/>
</g>
<!-- Node5 -->
<g id="node6" class="node">
<title>Node5</title>
<g id="a_node6"><a xlink:href="struct_engine_1_1_scene_1_1_entity_1_1_transform.html" target="_top" xlink:title=" ">
<polygon fill="white" stroke="#666666" points="233,-30 126,-30 126,0 233,0 233,-30"/>
<text text-anchor="start" x="134" y="-18" font-family="Helvetica,sans-Serif" font-size="10.00">Engine::Scene::Entity</text>
<text text-anchor="middle" x="179.5" y="-7" font-family="Helvetica,sans-Serif" font-size="10.00">::Transform</text>
</a>
</g>
</g>
<!-- Node0&#45;&gt;Node5 -->
<g id="edge5" class="edge">
<title>Node0&#45;&gt;Node5</title>
<path fill="none" stroke="#63b8ff" d="M62.65,-93.2C78.02,-77.51 102.01,-54.74 126,-39 130.69,-35.92 135.84,-33.04 141.03,-30.42"/>
<polygon fill="#63b8ff" stroke="#63b8ff" points="60.51,-90.38 56.11,-100.02 65.56,-95.23 60.51,-90.38"/>
</g>
</g>
</svg>
