<?xml version="1.0" encoding="UTF-8" standalone="no"?>
<!DOCTYPE svg PUBLIC "-//W3C//DTD SVG 1.1//EN"
 "http://www.w3.org/Graphics/SVG/1.1/DTD/svg11.dtd">
<!-- Generated by graphviz version 7.0.5 (20221223.1930)
 -->
<!-- Title: src/Meta/serialize/formatter/iniformatter.cpp Pages: 1 -->
<!--zoomable 533 -->
<svg id="main" version="1.1" xmlns="http://www.w3.org/2000/svg" xmlns:xlink="http://www.w3.org/1999/xlink" xml:space="preserve" onload="init(evt)">
<style type="text/css"><![CDATA[
.edge:hover path { stroke: red; }
.edge:hover polygon { stroke: red; fill: red; }
]]></style>
<script type="text/javascript"><![CDATA[
var edges = document.getElementsByTagName('g');
if (edges && edges.length) {
  for (var i=0;i<edges.length;i++) {
    if (edges[i].id.substr(0,4)=='edge') {
      edges[i].setAttribute('class','edge');
    }
  }
}
]]></script>
        <defs>
                <circle id="rim" cx="0" cy="0" r="7"/>
                <circle id="rim2" cx="0" cy="0" r="3.5"/>
                <g id="zoomPlus">
                        <use xlink:href="#rim" fill="#404040">
                                <set attributeName="fill" to="#808080" begin="zoomplus.mouseover" end="zoomplus.mouseout"/>
                        </use>
                        <path d="M-4,0h8M0,-4v8" fill="none" stroke="white" stroke-width="1.5" pointer-events="none"/>
                </g>
                <g id="zoomMin">
                        <use xlink:href="#rim" fill="#404040">
                                <set attributeName="fill" to="#808080" begin="zoomminus.mouseover" end="zoomminus.mouseout"/>
                        </use>
                        <path d="M-4,0h8" fill="none" stroke="white" stroke-width="1.5" pointer-events="none"/>
                </g>
                <g id="dirArrow">
                        <path fill="none" stroke="white" stroke-width="1.5" d="M0,-3.0v7 M-2.5,-0.5L0,-3.0L2.5,-0.5"/>
                </g>
               <g id="resetDef">
                       <use xlink:href="#rim2" fill="#404040">
                               <set attributeName="fill" to="#808080" begin="reset.mouseover" end="reset.mouseout"/>
                       </use>
               </g>
        </defs>

<script type="text/javascript">
var viewWidth = 516;
var viewHeight = 533;
var sectionId = 'dynsection-0';
</script>
<script xlink:href="svgpan.js"/>
<svg id="graph" class="graph">
<g id="viewport">
<title>src/Meta/serialize/formatter/iniformatter.cpp</title>
<!-- Node1 -->
<g id="node1" class="node">
<title>Node1</title>
<g id="a_node1"><a xlink:title=" ">
<polygon fill="#999999" stroke="#666666" points="328,-525 200,-525 200,-495 328,-495 328,-525"/>
<text text-anchor="start" x="208" y="-513" font-family="Helvetica,sans-Serif" font-size="10.00">src/Meta/serialize</text>
<text text-anchor="middle" x="264" y="-502" font-family="Helvetica,sans-Serif" font-size="10.00">/formatter/iniformatter.cpp</text>
</a>
</g>
</g>
<!-- Node2 -->
<g id="node2" class="node">
<title>Node2</title>
<g id="a_node2"><a xlink:href="metalib_8h.html" target="_top" xlink:title=" ">
<polygon fill="white" stroke="#666666" points="191.5,-459 120.5,-459 120.5,-440 191.5,-440 191.5,-459"/>
<text text-anchor="middle" x="156" y="-447" font-family="Helvetica,sans-Serif" font-size="10.00">../../metalib.h</text>
</a>
</g>
</g>
<!-- Node1&#45;&gt;Node2 -->
<g id="edge1" class="edge">
<title>Node1&#45;&gt;Node2</title>
<path fill="none" stroke="#63b8ff" d="M237.3,-494.54C220.44,-485.4 198.76,-473.66 182.02,-464.6"/>
<polygon fill="#63b8ff" stroke="#63b8ff" points="184.12,-461.75 173.66,-460.07 180.79,-467.91 184.12,-461.75"/>
</g>
<!-- Node5 -->
<g id="node5" class="node">
<title>Node5</title>
<g id="a_node5"><a xlink:href="iniformatter_8h.html" target="_top" xlink:title=" ">
<polygon fill="white" stroke="#666666" points="300.5,-459 227.5,-459 227.5,-440 300.5,-440 300.5,-459"/>
<text text-anchor="middle" x="264" y="-447" font-family="Helvetica,sans-Serif" font-size="10.00">iniformatter.h</text>
</a>
</g>
</g>
<!-- Node1&#45;&gt;Node5 -->
<g id="edge4" class="edge">
<title>Node1&#45;&gt;Node5</title>
<path fill="none" stroke="#63b8ff" d="M264,-494.54C264,-487.34 264,-478.53 264,-470.68"/>
<polygon fill="#63b8ff" stroke="#63b8ff" points="267.5,-470.69 264,-460.69 260.5,-470.69 267.5,-470.69"/>
</g>
<!-- Node17 -->
<g id="node17" class="node">
<title>Node17</title>
<g id="a_node17"><a xlink:href="primitivetypes_8h.html" target="_top" xlink:title=" ">
<polygon fill="white" stroke="#666666" points="508,-239 416,-239 416,-220 508,-220 508,-239"/>
<text text-anchor="middle" x="462" y="-227" font-family="Helvetica,sans-Serif" font-size="10.00">../primitivetypes.h</text>
</a>
</g>
</g>
<!-- Node1&#45;&gt;Node17 -->
<g id="edge18" class="edge">
<title>Node1&#45;&gt;Node17</title>
<path fill="none" stroke="#63b8ff" d="M317.93,-494.54C363.7,-478.61 422,-448.02 422,-395.5 422,-395.5 422,-395.5 422,-338.5 422,-305.45 438.68,-270.05 450.49,-249.12"/>
<polygon fill="#63b8ff" stroke="#63b8ff" points="453.43,-251.03 455.5,-240.64 447.4,-247.47 453.43,-251.03"/>
</g>
<!-- Node3 -->
<g id="node3" class="node">
<title>Node3</title>
<g id="a_node3"><a xlink:href="genericlib_8h.html" target="_top" xlink:title=" ">
<polygon fill="white" stroke="#666666" points="102,-404 0,-404 0,-385 102,-385 102,-404"/>
<text text-anchor="middle" x="51" y="-392" font-family="Helvetica,sans-Serif" font-size="10.00">Generic/genericlib.h</text>
</a>
</g>
</g>
<!-- Node2&#45;&gt;Node3 -->
<g id="edge2" class="edge">
<title>Node2&#45;&gt;Node3</title>
<path fill="none" stroke="#63b8ff" d="M138.19,-439.51C121.87,-431.27 97.47,-418.96 78.63,-409.45"/>
<polygon fill="#63b8ff" stroke="#63b8ff" points="80.4,-406.42 69.9,-405.04 77.25,-412.67 80.4,-406.42"/>
</g>
<!-- Node4 -->
<g id="node4" class="node">
<title>Node4</title>
<g id="a_node4"><a xlink:title=" ">
<polygon fill="#e0e0e0" stroke="#999999" points="191.5,-404 120.5,-404 120.5,-385 191.5,-385 191.5,-404"/>
<text text-anchor="middle" x="156" y="-392" font-family="Helvetica,sans-Serif" font-size="10.00">metaconfig.h</text>
</a>
</g>
</g>
<!-- Node2&#45;&gt;Node4 -->
<g id="edge3" class="edge">
<title>Node2&#45;&gt;Node4</title>
<path fill="none" stroke="#63b8ff" d="M156,-439.75C156,-433.27 156,-424.16 156,-415.9"/>
<polygon fill="#63b8ff" stroke="#63b8ff" points="159.5,-415.96 156,-405.96 152.5,-415.96 159.5,-415.96"/>
</g>
<!-- Node6 -->
<g id="node6" class="node">
<title>Node6</title>
<g id="a_node6"><a xlink:href="formatter_8h.html" target="_top" xlink:title=" ">
<polygon fill="white" stroke="#666666" points="318.5,-404 209.5,-404 209.5,-385 318.5,-385 318.5,-404"/>
<text text-anchor="middle" x="264" y="-392" font-family="Helvetica,sans-Serif" font-size="10.00">../streams/formatter.h</text>
</a>
</g>
</g>
<!-- Node5&#45;&gt;Node6 -->
<g id="edge5" class="edge">
<title>Node5&#45;&gt;Node6</title>
<path fill="none" stroke="#63b8ff" d="M264,-439.75C264,-433.27 264,-424.16 264,-415.9"/>
<polygon fill="#63b8ff" stroke="#63b8ff" points="267.5,-415.96 264,-405.96 260.5,-415.96 267.5,-415.96"/>
</g>
<!-- Node7 -->
<g id="node7" class="node">
<title>Node7</title>
<g id="a_node7"><a xlink:href="serializestream_8h.html" target="_top" xlink:title=" ">
<polygon fill="white" stroke="#666666" points="233.5,-349 144.5,-349 144.5,-330 233.5,-330 233.5,-349"/>
<text text-anchor="middle" x="189" y="-337" font-family="Helvetica,sans-Serif" font-size="10.00">serializestream.h</text>
</a>
</g>
</g>
<!-- Node6&#45;&gt;Node7 -->
<g id="edge6" class="edge">
<title>Node6&#45;&gt;Node7</title>
<path fill="none" stroke="#63b8ff" d="M251.28,-384.51C240.22,-376.7 223.96,-365.21 210.83,-355.93"/>
<polygon fill="#63b8ff" stroke="#63b8ff" points="212.96,-353.14 202.77,-350.23 208.92,-358.86 212.96,-353.14"/>
</g>
<!-- Node8 -->
<g id="node8" class="node">
<title>Node8</title>
<g id="a_node8"><a xlink:href="stream_8h.html" target="_top" xlink:title=" ">
<polygon fill="white" stroke="#666666" points="108.5,-294 17.5,-294 17.5,-275 108.5,-275 108.5,-294"/>
<text text-anchor="middle" x="63" y="-282" font-family="Helvetica,sans-Serif" font-size="10.00">Generic/stream.h</text>
</a>
</g>
</g>
<!-- Node7&#45;&gt;Node8 -->
<g id="edge7" class="edge">
<title>Node7&#45;&gt;Node8</title>
<path fill="none" stroke="#63b8ff" d="M167.63,-329.51C147.59,-321.08 117.4,-308.38 94.59,-298.79"/>
<polygon fill="#63b8ff" stroke="#63b8ff" points="96.03,-295.6 85.45,-294.94 93.31,-302.05 96.03,-295.6"/>
</g>
<!-- Node9 -->
<g id="node9" class="node">
<title>Node9</title>
<g id="a_node9"><a xlink:href="streamresult_8h.html" target="_top" xlink:title=" ">
<polygon fill="white" stroke="#666666" points="120,-239 42,-239 42,-220 120,-220 120,-239"/>
<text text-anchor="middle" x="81" y="-227" font-family="Helvetica,sans-Serif" font-size="10.00">streamresult.h</text>
</a>
</g>
</g>
<!-- Node7&#45;&gt;Node9 -->
<g id="edge8" class="edge">
<title>Node7&#45;&gt;Node9</title>
<path fill="none" stroke="#63b8ff" d="M180.16,-329.66C162.2,-311.7 121.19,-270.69 97.92,-247.42"/>
<polygon fill="#63b8ff" stroke="#63b8ff" points="100.58,-245.13 91.03,-240.53 95.63,-250.08 100.58,-245.13"/>
</g>
<!-- Node14 -->
<g id="node14" class="node">
<title>Node14</title>
<g id="a_node14"><a xlink:href="serializableunitptr_8h.html" target="_top" xlink:title=" ">
<polygon fill="white" stroke="#666666" points="314.5,-294 165.5,-294 165.5,-275 314.5,-275 314.5,-294"/>
<text text-anchor="middle" x="240" y="-282" font-family="Helvetica,sans-Serif" font-size="10.00">../hierarchy/serializableunitptr.h</text>
</a>
</g>
</g>
<!-- Node7&#45;&gt;Node14 -->
<g id="edge13" class="edge">
<title>Node7&#45;&gt;Node14</title>
<path fill="none" stroke="#63b8ff" d="M197.42,-329.75C204.47,-322.43 214.73,-311.76 223.41,-302.74"/>
<polygon fill="#63b8ff" stroke="#63b8ff" points="225.93,-305.17 230.35,-295.53 220.89,-300.31 225.93,-305.17"/>
</g>
<!-- Node10 -->
<g id="node10" class="node">
<title>Node10</title>
<g id="a_node10"><a xlink:href="streamstate_8h.html" target="_top" xlink:title=" ">
<polygon fill="white" stroke="#666666" points="119,-184 43,-184 43,-165 119,-165 119,-184"/>
<text text-anchor="middle" x="81" y="-172" font-family="Helvetica,sans-Serif" font-size="10.00">streamstate.h</text>
</a>
</g>
</g>
<!-- Node9&#45;&gt;Node10 -->
<g id="edge9" class="edge">
<title>Node9&#45;&gt;Node10</title>
<path fill="none" stroke="#63b8ff" d="M81,-219.75C81,-213.27 81,-204.16 81,-195.9"/>
<polygon fill="#63b8ff" stroke="#63b8ff" points="84.5,-195.96 81,-185.96 77.5,-195.96 84.5,-195.96"/>
</g>
<!-- Node11 -->
<g id="node11" class="node">
<title>Node11</title>
<g id="a_node11"><a xlink:href="enum_8h.html" target="_top" xlink:title=" ">
<polygon fill="white" stroke="#666666" points="123.5,-129 38.5,-129 38.5,-110 123.5,-110 123.5,-129"/>
<text text-anchor="middle" x="81" y="-117" font-family="Helvetica,sans-Serif" font-size="10.00">Generic/enum.h</text>
</a>
</g>
</g>
<!-- Node10&#45;&gt;Node11 -->
<g id="edge10" class="edge">
<title>Node10&#45;&gt;Node11</title>
<path fill="none" stroke="#63b8ff" d="M81,-164.75C81,-158.27 81,-149.16 81,-140.9"/>
<polygon fill="#63b8ff" stroke="#63b8ff" points="84.5,-140.96 81,-130.96 77.5,-140.96 84.5,-140.96"/>
</g>
<!-- Node12 -->
<g id="node12" class="node">
<title>Node12</title>
<g id="a_node12"><a xlink:href="array_8h.html" target="_top" xlink:title=" ">
<polygon fill="white" stroke="#666666" points="113,-74 49,-74 49,-55 113,-55 113,-74"/>
<text text-anchor="middle" x="81" y="-62" font-family="Helvetica,sans-Serif" font-size="10.00">bits/array.h</text>
</a>
</g>
</g>
<!-- Node11&#45;&gt;Node12 -->
<g id="edge11" class="edge">
<title>Node11&#45;&gt;Node12</title>
<path fill="none" stroke="#63b8ff" d="M81,-109.75C81,-103.27 81,-94.16 81,-85.9"/>
<polygon fill="#63b8ff" stroke="#63b8ff" points="84.5,-85.96 81,-75.96 77.5,-85.96 84.5,-85.96"/>
</g>
<!-- Node13 -->
<g id="node13" class="node">
<title>Node13</title>
<g id="a_node13"><a xlink:href="types_8h.html" target="_top" xlink:title=" ">
<polygon fill="white" stroke="#666666" points="104.5,-19 57.5,-19 57.5,0 104.5,0 104.5,-19"/>
<text text-anchor="middle" x="81" y="-7" font-family="Helvetica,sans-Serif" font-size="10.00">types.h</text>
</a>
</g>
</g>
<!-- Node12&#45;&gt;Node13 -->
<g id="edge12" class="edge">
<title>Node12&#45;&gt;Node13</title>
<path fill="none" stroke="#63b8ff" d="M81,-54.75C81,-48.27 81,-39.16 81,-30.9"/>
<polygon fill="#63b8ff" stroke="#63b8ff" points="84.5,-30.96 81,-20.96 77.5,-30.96 84.5,-30.96"/>
</g>
<!-- Node14&#45;&gt;Node9 -->
<g id="edge16" class="edge">
<title>Node14&#45;&gt;Node9</title>
<path fill="none" stroke="#63b8ff" d="M213.03,-274.51C187.02,-265.84 147.45,-252.65 118.4,-242.97"/>
<polygon fill="#63b8ff" stroke="#63b8ff" points="119.87,-239.77 109.27,-239.92 117.65,-246.41 119.87,-239.77"/>
</g>
<!-- Node15 -->
<g id="node15" class="node">
<title>Node15</title>
<g id="a_node15"><a xlink:href="callerhierarchy_8h.html" target="_top" xlink:title=" ">
<polygon fill="white" stroke="#666666" points="261.5,-239 138.5,-239 138.5,-220 261.5,-220 261.5,-239"/>
<text text-anchor="middle" x="200" y="-227" font-family="Helvetica,sans-Serif" font-size="10.00">Generic/callerhierarchy.h</text>
</a>
</g>
</g>
<!-- Node14&#45;&gt;Node15 -->
<g id="edge14" class="edge">
<title>Node14&#45;&gt;Node15</title>
<path fill="none" stroke="#63b8ff" d="M233.39,-274.75C228.04,-267.66 220.32,-257.42 213.65,-248.59"/>
<polygon fill="#63b8ff" stroke="#63b8ff" points="216.48,-246.52 207.66,-240.65 210.89,-250.74 216.48,-246.52"/>
</g>
<!-- Node16 -->
<g id="node16" class="node">
<title>Node16</title>
<g id="a_node16"><a xlink:href="serializetable__forward_8h.html" target="_top" xlink:title=" ">
<polygon fill="white" stroke="#666666" points="398,-239 280,-239 280,-220 398,-220 398,-239"/>
<text text-anchor="middle" x="339" y="-227" font-family="Helvetica,sans-Serif" font-size="10.00">serializetable_forward.h</text>
</a>
</g>
</g>
<!-- Node14&#45;&gt;Node16 -->
<g id="edge15" class="edge">
<title>Node14&#45;&gt;Node16</title>
<path fill="none" stroke="#63b8ff" d="M256.79,-274.51C272.1,-266.31 294.97,-254.07 312.7,-244.58"/>
<polygon fill="#63b8ff" stroke="#63b8ff" points="313.96,-247.88 321.12,-240.07 310.65,-241.71 313.96,-247.88"/>
</g>
<!-- Node14&#45;&gt;Node17 -->
<g id="edge17" class="edge">
<title>Node14&#45;&gt;Node17</title>
<path fill="none" stroke="#63b8ff" d="M277.66,-274.51C315.09,-265.57 372.65,-251.83 413.48,-242.08"/>
<polygon fill="#63b8ff" stroke="#63b8ff" points="414.14,-245.52 423.05,-239.8 412.52,-238.72 414.14,-245.52"/>
</g>
</g>
</svg>
        <g id="navigator" transform="translate(0 0)" fill="#404254">
                <rect fill="#f2f5e9" fill-opacity="0.5" stroke="#606060" stroke-width=".5" x="0" y="0" width="60" height="60"/>
                <use id="zoomplus" xlink:href="#zoomPlus" x="17" y="9" onmousedown="handleZoom(evt,'in')"/>
                <use id="zoomminus" xlink:href="#zoomMin" x="42" y="9" onmousedown="handleZoom(evt,'out')"/>
                <use id="reset" xlink:href="#resetDef" x="30" y="36" onmousedown="handleReset()"/>
                <g id="arrowUp" xlink:href="#dirArrow" transform="translate(30 24)" onmousedown="handlePan(0,-1)">
                  <use xlink:href="#rim" fill="#404040">
                        <set attributeName="fill" to="#808080" begin="arrowUp.mouseover" end="arrowUp.mouseout"/>
                  </use>
                  <path fill="none" stroke="white" stroke-width="1.5" d="M0,-3.0v7 M-2.5,-0.5L0,-3.0L2.5,-0.5"/>
                </g>
                <g id="arrowRight" xlink:href="#dirArrow" transform="rotate(90) translate(36 -43)" onmousedown="handlePan(1,0)">
                  <use xlink:href="#rim" fill="#404040">
                        <set attributeName="fill" to="#808080" begin="arrowRight.mouseover" end="arrowRight.mouseout"/>
                  </use>
                  <path fill="none" stroke="white" stroke-width="1.5" d="M0,-3.0v7 M-2.5,-0.5L0,-3.0L2.5,-0.5"/>
                </g>
                <g id="arrowDown" xlink:href="#dirArrow" transform="rotate(180) translate(-30 -48)" onmousedown="handlePan(0,1)">
                  <use xlink:href="#rim" fill="#404040">
                        <set attributeName="fill" to="#808080" begin="arrowDown.mouseover" end="arrowDown.mouseout"/>
                  </use>
                  <path fill="none" stroke="white" stroke-width="1.5" d="M0,-3.0v7 M-2.5,-0.5L0,-3.0L2.5,-0.5"/>
                </g>
                <g id="arrowLeft" xlink:href="#dirArrow" transform="rotate(270) translate(-36 17)" onmousedown="handlePan(-1,0)">
                  <use xlink:href="#rim" fill="#404040">
                        <set attributeName="fill" to="#808080" begin="arrowLeft.mouseover" end="arrowLeft.mouseout"/>
                  </use>
                  <path fill="none" stroke="white" stroke-width="1.5" d="M0,-3.0v7 M-2.5,-0.5L0,-3.0L2.5,-0.5"/>
                </g>
        </g>
        <svg viewBox="0 0 15 15" width="100%" height="30px" preserveAspectRatio="xMaxYMin meet">
         <g id="arrow_out" transform="scale(0.3 0.3)">
          <a xlink:href="iniformatter_8cpp__incl_org.svg" target="_base">
           <rect id="button" ry="5" rx="5" y="6" x="6" height="38" width="38"
                fill="#f2f5e9" fill-opacity="0.5" stroke="#606060" stroke-width="1.0"/>
           <path id="arrow"
             d="M 11.500037,31.436501 C 11.940474,20.09759 22.043105,11.32322 32.158766,21.979434 L 37.068811,17.246167 C 37.068811,17.246167 37.088388,32 37.088388,32 L 22.160133,31.978069 C 22.160133,31.978069 26.997745,27.140456 26.997745,27.140456 C 18.528582,18.264221 13.291696,25.230495 11.500037,31.436501 z"
             style="fill:#404040;"/>
          </a>
         </g>
        </svg>
</svg>
