<?xml version="1.0" encoding="UTF-8" standalone="no"?>
<!DOCTYPE svg PUBLIC "-//W3C//DTD SVG 1.1//EN"
 "http://www.w3.org/Graphics/SVG/1.1/DTD/svg11.dtd">
<!-- Generated by graphviz version 7.0.5 (20221223.1930)
 -->
<!-- Title: src/Meta/serialize/formatter/jsonformatter.h Pages: 1 -->
<svg width="256pt" height="104pt"
 viewBox="0.00 0.00 256.00 104.00" xmlns="http://www.w3.org/2000/svg" xmlns:xlink="http://www.w3.org/1999/xlink">
<g id="graph0" class="graph" transform="scale(1 1) rotate(0) translate(4 100)">
<title>src/Meta/serialize/formatter/jsonformatter.h</title>
<!-- Node1 -->
<g id="node1" class="node">
<title>Node1</title>
<g id="a_node1"><a xlink:title=" ">
<polygon fill="#999999" stroke="#666666" points="175.5,-96 49.5,-96 49.5,-66 175.5,-66 175.5,-96"/>
<text text-anchor="start" x="57.5" y="-84" font-family="Helvetica,sans-Serif" font-size="10.00">src/Meta/serialize</text>
<text text-anchor="middle" x="112.5" y="-73" font-family="Helvetica,sans-Serif" font-size="10.00">/formatter/jsonformatter.h</text>
</a>
</g>
</g>
<!-- Node2 -->
<g id="node2" class="node">
<title>Node2</title>
<g id="a_node2"><a xlink:href="formats_8cpp.html" target="_top" xlink:title=" ">
<polygon fill="white" stroke="#666666" points="93,-30 0,-30 0,0 93,0 93,-30"/>
<text text-anchor="start" x="8" y="-18" font-family="Helvetica,sans-Serif" font-size="10.00">src/Meta/serialize</text>
<text text-anchor="middle" x="46.5" y="-7" font-family="Helvetica,sans-Serif" font-size="10.00">/formats.cpp</text>
</a>
</g>
</g>
<!-- Node1&#45;&gt;Node2 -->
<g id="edge1" class="edge">
<title>Node1&#45;&gt;Node2</title>
<path fill="none" stroke="#63b8ff" d="M89.61,-57.81C80.16,-48.64 69.47,-38.28 61.11,-30.16"/>
<polygon fill="#63b8ff" stroke="#63b8ff" points="87.15,-60.29 96.77,-64.74 92.02,-55.27 87.15,-60.29"/>
</g>
<!-- Node3 -->
<g id="node3" class="node">
<title>Node3</title>
<g id="a_node3"><a xlink:href="jsonformatter_8cpp.html" target="_top" xlink:title=" ">
<polygon fill="white" stroke="#666666" points="248,-30 111,-30 111,0 248,0 248,-30"/>
<text text-anchor="start" x="119" y="-18" font-family="Helvetica,sans-Serif" font-size="10.00">src/Meta/serialize</text>
<text text-anchor="middle" x="179.5" y="-7" font-family="Helvetica,sans-Serif" font-size="10.00">/formatter/jsonformatter.cpp</text>
</a>
</g>
</g>
<!-- Node1&#45;&gt;Node3 -->
<g id="edge2" class="edge">
<title>Node1&#45;&gt;Node3</title>
<path fill="none" stroke="#63b8ff" d="M135.44,-58.09C145.11,-48.85 156.09,-38.36 164.67,-30.16"/>
<polygon fill="#63b8ff" stroke="#63b8ff" points="133.28,-55.31 128.46,-64.75 138.11,-60.37 133.28,-55.31"/>
</g>
</g>
</svg>
