<?xml version="1.0" encoding="UTF-8" standalone="no"?>
<!DOCTYPE svg PUBLIC "-//W3C//DTD SVG 1.1//EN"
 "http://www.w3.org/Graphics/SVG/1.1/DTD/svg11.dtd">
<!-- Generated by graphviz version 7.0.5 (20221223.1930)
 -->
<!-- Title: plugins/root/api/src/Madgine/root/keyvalueregistry.cpp Pages: 1 -->
<!--zoomable 478 -->
<svg id="main" version="1.1" xmlns="http://www.w3.org/2000/svg" xmlns:xlink="http://www.w3.org/1999/xlink" xml:space="preserve" onload="init(evt)">
<style type="text/css"><![CDATA[
.edge:hover path { stroke: red; }
.edge:hover polygon { stroke: red; fill: red; }
]]></style>
<script type="text/javascript"><![CDATA[
var edges = document.getElementsByTagName('g');
if (edges && edges.length) {
  for (var i=0;i<edges.length;i++) {
    if (edges[i].id.substr(0,4)=='edge') {
      edges[i].setAttribute('class','edge');
    }
  }
}
]]></script>
        <defs>
                <circle id="rim" cx="0" cy="0" r="7"/>
                <circle id="rim2" cx="0" cy="0" r="3.5"/>
                <g id="zoomPlus">
                        <use xlink:href="#rim" fill="#404040">
                                <set attributeName="fill" to="#808080" begin="zoomplus.mouseover" end="zoomplus.mouseout"/>
                        </use>
                        <path d="M-4,0h8M0,-4v8" fill="none" stroke="white" stroke-width="1.5" pointer-events="none"/>
                </g>
                <g id="zoomMin">
                        <use xlink:href="#rim" fill="#404040">
                                <set attributeName="fill" to="#808080" begin="zoomminus.mouseover" end="zoomminus.mouseout"/>
                        </use>
                        <path d="M-4,0h8" fill="none" stroke="white" stroke-width="1.5" pointer-events="none"/>
                </g>
                <g id="dirArrow">
                        <path fill="none" stroke="white" stroke-width="1.5" d="M0,-3.0v7 M-2.5,-0.5L0,-3.0L2.5,-0.5"/>
                </g>
               <g id="resetDef">
                       <use xlink:href="#rim2" fill="#404040">
                               <set attributeName="fill" to="#808080" begin="reset.mouseover" end="reset.mouseout"/>
                       </use>
               </g>
        </defs>

<script type="text/javascript">
var viewWidth = 700;
var viewHeight = 478;
var sectionId = 'dynsection-0';
</script>
<script xlink:href="svgpan.js"/>
<svg id="graph" class="graph">
<g id="viewport">
<title>plugins/root/api/src/Madgine/root/keyvalueregistry.cpp</title>
<!-- Node1 -->
<g id="node1" class="node">
<title>Node1</title>
<g id="a_node1"><a xlink:title=" ">
<polygon fill="#999999" stroke="#666666" points="478.5,-470 311.5,-470 311.5,-440 478.5,-440 478.5,-470"/>
<text text-anchor="start" x="319.5" y="-458" font-family="Helvetica,sans-Serif" font-size="10.00">plugins/root/api/src</text>
<text text-anchor="middle" x="395" y="-447" font-family="Helvetica,sans-Serif" font-size="10.00">/Madgine/root/keyvalueregistry.cpp</text>
</a>
</g>
</g>
<!-- Node2 -->
<g id="node2" class="node">
<title>Node2</title>
<g id="a_node2"><a xlink:href="rootlib_8h.html" target="_top" xlink:title=" ">
<polygon fill="white" stroke="#666666" points="252,-404 194,-404 194,-385 252,-385 252,-404"/>
<text text-anchor="middle" x="223" y="-392" font-family="Helvetica,sans-Serif" font-size="10.00">../rootlib.h</text>
</a>
</g>
</g>
<!-- Node1&#45;&gt;Node2 -->
<g id="edge1" class="edge">
<title>Node1&#45;&gt;Node2</title>
<path fill="none" stroke="#63b8ff" d="M352.48,-439.54C324.07,-429.87 287.06,-417.29 259.88,-408.04"/>
<polygon fill="#63b8ff" stroke="#63b8ff" points="261.29,-404.83 250.69,-404.92 259.04,-411.45 261.29,-404.83"/>
</g>
<!-- Node3 -->
<g id="node3" class="node">
<title>Node3</title>
<g id="a_node3"><a xlink:href="keyvalueregistry_8h.html" target="_top" xlink:title=" ">
<polygon fill="white" stroke="#666666" points="364,-404 270,-404 270,-385 364,-385 364,-404"/>
<text text-anchor="middle" x="317" y="-392" font-family="Helvetica,sans-Serif" font-size="10.00">keyvalueregistry.h</text>
</a>
</g>
</g>
<!-- Node1&#45;&gt;Node3 -->
<g id="edge2" class="edge">
<title>Node1&#45;&gt;Node3</title>
<path fill="none" stroke="#63b8ff" d="M375.72,-439.54C364.16,-430.87 349.46,-419.85 337.66,-411"/>
<polygon fill="#63b8ff" stroke="#63b8ff" points="339.88,-408.28 329.78,-405.08 335.68,-413.88 339.88,-408.28"/>
</g>
<!-- Node18 -->
<g id="node18" class="node">
<title>Node18</title>
<g id="a_node18"><a xlink:href="workgroupstorage_8h.html" target="_top" xlink:title=" ">
<polygon fill="white" stroke="#666666" points="566,-404 382,-404 382,-385 566,-385 566,-404"/>
<text text-anchor="middle" x="474" y="-392" font-family="Helvetica,sans-Serif" font-size="10.00">Modules/threading/workgroupstorage.h</text>
</a>
</g>
</g>
<!-- Node1&#45;&gt;Node18 -->
<g id="edge20" class="edge">
<title>Node1&#45;&gt;Node18</title>
<path fill="none" stroke="#63b8ff" d="M414.53,-439.54C426.24,-430.87 441.12,-419.85 453.07,-411"/>
<polygon fill="#63b8ff" stroke="#63b8ff" points="455.11,-413.84 461.07,-405.08 450.95,-408.21 455.11,-413.84"/>
</g>
<!-- Node22 -->
<g id="node22" class="node">
<title>Node22</title>
<g id="a_node22"><a xlink:href="projections_8h.html" target="_top" xlink:title=" ">
<polygon fill="white" stroke="#666666" points="692,-404 584,-404 584,-385 692,-385 692,-404"/>
<text text-anchor="middle" x="638" y="-392" font-family="Helvetica,sans-Serif" font-size="10.00">Generic/projections.h</text>
</a>
</g>
</g>
<!-- Node1&#45;&gt;Node22 -->
<g id="edge24" class="edge">
<title>Node1&#45;&gt;Node22</title>
<path fill="none" stroke="#63b8ff" d="M455.07,-439.54C496.64,-429.53 551.24,-416.39 589.93,-407.07"/>
<polygon fill="#63b8ff" stroke="#63b8ff" points="590.52,-410.53 599.43,-404.79 588.88,-403.72 590.52,-410.53"/>
</g>
<!-- Node4 -->
<g id="node4" class="node">
<title>Node4</title>
<g id="a_node4"><a xlink:href="scopeptr_8h.html" target="_top" xlink:title=" ">
<polygon fill="white" stroke="#666666" points="316,-349 188,-349 188,-330 316,-330 316,-349"/>
<text text-anchor="middle" x="252" y="-337" font-family="Helvetica,sans-Serif" font-size="10.00">Meta/keyvalue/scopeptr.h</text>
</a>
</g>
</g>
<!-- Node3&#45;&gt;Node4 -->
<g id="edge3" class="edge">
<title>Node3&#45;&gt;Node4</title>
<path fill="none" stroke="#63b8ff" d="M305.97,-384.51C296.58,-376.85 282.85,-365.66 271.59,-356.47"/>
<polygon fill="#63b8ff" stroke="#63b8ff" points="274,-353.92 264.04,-350.31 269.57,-359.35 274,-353.92"/>
</g>
<!-- Node5 -->
<g id="node5" class="node">
<title>Node5</title>
<g id="a_node5"><a xlink:href="metatable_8h.html" target="_top" xlink:title=" ">
<polygon fill="white" stroke="#666666" points="164.5,-294 97.5,-294 97.5,-275 164.5,-275 164.5,-294"/>
<text text-anchor="middle" x="131" y="-282" font-family="Helvetica,sans-Serif" font-size="10.00">metatable.h</text>
</a>
</g>
</g>
<!-- Node4&#45;&gt;Node5 -->
<g id="edge4" class="edge">
<title>Node4&#45;&gt;Node5</title>
<path fill="none" stroke="#63b8ff" d="M231.47,-329.51C212.32,-321.12 183.5,-308.5 161.63,-298.92"/>
<polygon fill="#63b8ff" stroke="#63b8ff" points="163.17,-295.77 152.61,-294.97 160.36,-302.18 163.17,-295.77"/>
</g>
<!-- Node11 -->
<g id="node11" class="node">
<title>Node11</title>
<g id="a_node11"><a xlink:href="valuetype__desc_8h.html" target="_top" xlink:title=" ">
<polygon fill="white" stroke="#666666" points="298,-294 206,-294 206,-275 298,-275 298,-294"/>
<text text-anchor="middle" x="252" y="-282" font-family="Helvetica,sans-Serif" font-size="10.00">valuetype_desc.h</text>
</a>
</g>
</g>
<!-- Node4&#45;&gt;Node11 -->
<g id="edge10" class="edge">
<title>Node4&#45;&gt;Node11</title>
<path fill="none" stroke="#63b8ff" d="M252,-329.75C252,-323.27 252,-314.16 252,-305.9"/>
<polygon fill="#63b8ff" stroke="#63b8ff" points="255.5,-305.96 252,-295.96 248.5,-305.96 255.5,-305.96"/>
</g>
<!-- Node6 -->
<g id="node6" class="node">
<title>Node6</title>
<g id="a_node6"><a xlink:href="table__forward_8h.html" target="_top" xlink:title=" ">
<polygon fill="white" stroke="#666666" points="115.5,-239 32.5,-239 32.5,-220 115.5,-220 115.5,-239"/>
<text text-anchor="middle" x="74" y="-227" font-family="Helvetica,sans-Serif" font-size="10.00">table_forward.h</text>
</a>
</g>
</g>
<!-- Node5&#45;&gt;Node6 -->
<g id="edge5" class="edge">
<title>Node5&#45;&gt;Node6</title>
<path fill="none" stroke="#63b8ff" d="M121.33,-274.51C113.26,-267 101.53,-256.1 91.78,-247.03"/>
<polygon fill="#63b8ff" stroke="#63b8ff" points="94.34,-244.63 84.63,-240.39 89.57,-249.76 94.34,-244.63"/>
</g>
<!-- Node7 -->
<g id="node7" class="node">
<title>Node7</title>
<g id="a_node7"><a xlink:href="genericresult_8h.html" target="_top" xlink:title=" ">
<polygon fill="white" stroke="#666666" points="116,-184 0,-184 0,-165 116,-165 116,-184"/>
<text text-anchor="middle" x="58" y="-172" font-family="Helvetica,sans-Serif" font-size="10.00">Generic/genericresult.h</text>
</a>
</g>
</g>
<!-- Node6&#45;&gt;Node7 -->
<g id="edge6" class="edge">
<title>Node6&#45;&gt;Node7</title>
<path fill="none" stroke="#63b8ff" d="M71.36,-219.75C69.36,-213.11 66.52,-203.73 63.98,-195.31"/>
<polygon fill="#63b8ff" stroke="#63b8ff" points="67.38,-194.45 61.14,-185.89 60.68,-196.48 67.38,-194.45"/>
</g>
<!-- Node8 -->
<g id="node8" class="node">
<title>Node8</title>
<g id="a_node8"><a xlink:href="enum_8h.html" target="_top" xlink:title=" ">
<polygon fill="white" stroke="#666666" points="99,-129 51,-129 51,-110 99,-110 99,-129"/>
<text text-anchor="middle" x="75" y="-117" font-family="Helvetica,sans-Serif" font-size="10.00">enum.h</text>
</a>
</g>
</g>
<!-- Node7&#45;&gt;Node8 -->
<g id="edge7" class="edge">
<title>Node7&#45;&gt;Node8</title>
<path fill="none" stroke="#63b8ff" d="M60.81,-164.75C62.94,-158.11 65.94,-148.73 68.64,-140.31"/>
<polygon fill="#63b8ff" stroke="#63b8ff" points="71.95,-141.47 71.67,-130.88 65.28,-139.34 71.95,-141.47"/>
</g>
<!-- Node9 -->
<g id="node9" class="node">
<title>Node9</title>
<g id="a_node9"><a xlink:href="array_8h.html" target="_top" xlink:title=" ">
<polygon fill="white" stroke="#666666" points="133,-74 69,-74 69,-55 133,-55 133,-74"/>
<text text-anchor="middle" x="101" y="-62" font-family="Helvetica,sans-Serif" font-size="10.00">bits/array.h</text>
</a>
</g>
</g>
<!-- Node8&#45;&gt;Node9 -->
<g id="edge8" class="edge">
<title>Node8&#45;&gt;Node9</title>
<path fill="none" stroke="#63b8ff" d="M79.29,-109.75C82.62,-102.96 87.36,-93.3 91.56,-84.73"/>
<polygon fill="#63b8ff" stroke="#63b8ff" points="94.68,-86.32 95.95,-75.8 88.4,-83.24 94.68,-86.32"/>
</g>
<!-- Node10 -->
<g id="node10" class="node">
<title>Node10</title>
<g id="a_node10"><a xlink:href="types_8h.html" target="_top" xlink:title=" ">
<polygon fill="white" stroke="#666666" points="124.5,-19 77.5,-19 77.5,0 124.5,0 124.5,-19"/>
<text text-anchor="middle" x="101" y="-7" font-family="Helvetica,sans-Serif" font-size="10.00">types.h</text>
</a>
</g>
</g>
<!-- Node9&#45;&gt;Node10 -->
<g id="edge9" class="edge">
<title>Node9&#45;&gt;Node10</title>
<path fill="none" stroke="#63b8ff" d="M101,-54.75C101,-48.27 101,-39.16 101,-30.9"/>
<polygon fill="#63b8ff" stroke="#63b8ff" points="104.5,-30.96 101,-20.96 97.5,-30.96 104.5,-30.96"/>
</g>
<!-- Node11&#45;&gt;Node6 -->
<g id="edge17" class="edge">
<title>Node11&#45;&gt;Node6</title>
<path fill="none" stroke="#63b8ff" d="M221.8,-274.51C192.44,-265.76 147.6,-252.42 115.02,-242.71"/>
<polygon fill="#63b8ff" stroke="#63b8ff" points="116.08,-239.38 105.5,-239.88 114.08,-246.09 116.08,-239.38"/>
</g>
<!-- Node11&#45;&gt;Node9 -->
<g id="edge14" class="edge">
<title>Node11&#45;&gt;Node9</title>
<path fill="none" stroke="#63b8ff" d="M221.09,-274.62C202.02,-267.7 178.35,-256.32 163,-239 142.09,-215.4 116.62,-125.26 106.01,-85.06"/>
<polygon fill="#63b8ff" stroke="#63b8ff" points="109.45,-84.37 103.54,-75.57 102.67,-86.13 109.45,-84.37"/>
</g>
<!-- Node12 -->
<g id="node12" class="node">
<title>Node12</title>
<g id="a_node12"><a xlink:href="valuetype__types_8h.html" target="_top" xlink:title=" ">
<polygon fill="white" stroke="#666666" points="266,-239 172,-239 172,-220 266,-220 266,-239"/>
<text text-anchor="middle" x="219" y="-227" font-family="Helvetica,sans-Serif" font-size="10.00">valuetype_types.h</text>
</a>
</g>
</g>
<!-- Node11&#45;&gt;Node12 -->
<g id="edge11" class="edge">
<title>Node11&#45;&gt;Node12</title>
<path fill="none" stroke="#63b8ff" d="M246.55,-274.75C242.23,-267.81 236.04,-257.86 230.62,-249.16"/>
<polygon fill="#63b8ff" stroke="#63b8ff" points="233.62,-247.37 225.37,-240.73 227.68,-251.07 233.62,-247.37"/>
</g>
<!-- Node13 -->
<g id="node13" class="node">
<title>Node13</title>
<g id="a_node13"><a xlink:href="valuetypedefinclude_8h.html" target="_top" xlink:title=" ">
<polygon fill="white" stroke="#666666" points="292.5,-184 183.5,-184 183.5,-165 292.5,-165 292.5,-184"/>
<text text-anchor="middle" x="238" y="-172" font-family="Helvetica,sans-Serif" font-size="10.00">valuetypedefinclude.h</text>
</a>
</g>
</g>
<!-- Node11&#45;&gt;Node13 -->
<g id="edge19" class="edge">
<title>Node11&#45;&gt;Node13</title>
<path fill="none" stroke="#63b8ff" d="M259.08,-274.87C268.2,-262.66 282.09,-239.63 275,-220 271.27,-209.68 263.98,-200.06 256.86,-192.43"/>
<polygon fill="#63b8ff" stroke="#63b8ff" points="259.44,-190.06 249.86,-185.52 254.52,-195.04 259.44,-190.06"/>
</g>
<!-- Node15 -->
<g id="node15" class="node">
<title>Node15</title>
<g id="a_node15"><a xlink:href="keyvalue_8h.html" target="_top" xlink:title=" ">
<polygon fill="white" stroke="#666666" points="421.5,-239 322.5,-239 322.5,-220 421.5,-220 421.5,-239"/>
<text text-anchor="middle" x="372" y="-227" font-family="Helvetica,sans-Serif" font-size="10.00">Generic/keyvalue.h</text>
</a>
</g>
</g>
<!-- Node11&#45;&gt;Node15 -->
<g id="edge15" class="edge">
<title>Node11&#45;&gt;Node15</title>
<path fill="none" stroke="#63b8ff" d="M272.36,-274.51C291.35,-266.12 319.93,-253.5 341.62,-243.92"/>
<polygon fill="#63b8ff" stroke="#63b8ff" points="342.83,-247.21 350.56,-239.97 340,-240.81 342.83,-247.21"/>
</g>
<!-- Node17 -->
<g id="node17" class="node">
<title>Node17</title>
<g id="a_node17"><a xlink:href="execution_2concepts_8h.html" target="_top" xlink:title=" ">
<polygon fill="white" stroke="#666666" points="584.5,-239 439.5,-239 439.5,-220 584.5,-220 584.5,-239"/>
<text text-anchor="middle" x="512" y="-227" font-family="Helvetica,sans-Serif" font-size="10.00">Generic/execution/concepts.h</text>
</a>
</g>
</g>
<!-- Node11&#45;&gt;Node17 -->
<g id="edge18" class="edge">
<title>Node11&#45;&gt;Node17</title>
<path fill="none" stroke="#63b8ff" d="M296.11,-274.51C340.5,-265.46 409.09,-251.48 457.01,-241.71"/>
<polygon fill="#63b8ff" stroke="#63b8ff" points="457.53,-245.18 466.63,-239.75 456.13,-238.32 457.53,-245.18"/>
</g>
<!-- Node12&#45;&gt;Node13 -->
<g id="edge12" class="edge">
<title>Node12&#45;&gt;Node13</title>
<path fill="none" stroke="#63b8ff" d="M222.14,-219.75C224.54,-213.04 227.96,-203.52 231,-195.02"/>
<polygon fill="#63b8ff" stroke="#63b8ff" points="234.2,-196.46 234.28,-185.87 227.61,-194.1 234.2,-196.46"/>
</g>
<!-- Node14 -->
<g id="node14" class="node">
<title>Node14</title>
<g id="a_node14"><a xlink:href="valuetypedef_8h.html" target="_top" xlink:title=" ">
<polygon fill="white" stroke="#666666" points="277.5,-129 198.5,-129 198.5,-110 277.5,-110 277.5,-129"/>
<text text-anchor="middle" x="238" y="-117" font-family="Helvetica,sans-Serif" font-size="10.00">valuetypedef.h</text>
</a>
</g>
</g>
<!-- Node13&#45;&gt;Node14 -->
<g id="edge13" class="edge">
<title>Node13&#45;&gt;Node14</title>
<path fill="none" stroke="#63b8ff" d="M238,-164.75C238,-158.27 238,-149.16 238,-140.9"/>
<polygon fill="#63b8ff" stroke="#63b8ff" points="241.5,-140.96 238,-130.96 234.5,-140.96 241.5,-140.96"/>
</g>
<!-- Node16 -->
<g id="node16" class="node">
<title>Node16</title>
<g id="a_node16"><a xlink:href="comparator__traits_8h.html" target="_top" xlink:title=" ">
<polygon fill="white" stroke="#666666" points="422,-184 322,-184 322,-165 422,-165 422,-184"/>
<text text-anchor="middle" x="372" y="-172" font-family="Helvetica,sans-Serif" font-size="10.00">comparator_traits.h</text>
</a>
</g>
</g>
<!-- Node15&#45;&gt;Node16 -->
<g id="edge16" class="edge">
<title>Node15&#45;&gt;Node16</title>
<path fill="none" stroke="#63b8ff" d="M372,-219.75C372,-213.27 372,-204.16 372,-195.9"/>
<polygon fill="#63b8ff" stroke="#63b8ff" points="375.5,-195.96 372,-185.96 368.5,-195.96 375.5,-195.96"/>
</g>
<!-- Node19 -->
<g id="node19" class="node">
<title>Node19</title>
<g id="a_node19"><a xlink:href="global_8h.html" target="_top" xlink:title=" ">
<polygon fill="white" stroke="#666666" points="515,-349 465,-349 465,-330 515,-330 515,-349"/>
<text text-anchor="middle" x="490" y="-337" font-family="Helvetica,sans-Serif" font-size="10.00">global.h</text>
</a>
</g>
</g>
<!-- Node18&#45;&gt;Node19 -->
<g id="edge21" class="edge">
<title>Node18&#45;&gt;Node19</title>
<path fill="none" stroke="#63b8ff" d="M476.64,-384.75C478.64,-378.11 481.48,-368.73 484.02,-360.31"/>
<polygon fill="#63b8ff" stroke="#63b8ff" points="487.32,-361.48 486.86,-350.89 480.62,-359.45 487.32,-361.48"/>
</g>
<!-- Node20 -->
<g id="node20" class="node">
<title>Node20</title>
<g id="a_node20"><a xlink:href="any_8h.html" target="_top" xlink:title=" ">
<polygon fill="white" stroke="#666666" points="658,-294 582,-294 582,-275 658,-275 658,-294"/>
<text text-anchor="middle" x="620" y="-282" font-family="Helvetica,sans-Serif" font-size="10.00">Generic/any.h</text>
</a>
</g>
</g>
<!-- Node19&#45;&gt;Node20 -->
<g id="edge22" class="edge">
<title>Node19&#45;&gt;Node20</title>
<path fill="none" stroke="#63b8ff" d="M512.05,-329.51C532.81,-321.04 564.16,-308.27 587.73,-298.66"/>
<polygon fill="#63b8ff" stroke="#63b8ff" points="588.93,-301.95 596.87,-294.93 586.29,-295.46 588.93,-301.95"/>
</g>
<!-- Node21 -->
<g id="node21" class="node">
<title>Node21</title>
<g id="a_node21"><a xlink:href="inheritable_8h.html" target="_top" xlink:title=" ">
<polygon fill="white" stroke="#666666" points="671,-239 603,-239 603,-220 671,-220 671,-239"/>
<text text-anchor="middle" x="637" y="-227" font-family="Helvetica,sans-Serif" font-size="10.00">inheritable.h</text>
</a>
</g>
</g>
<!-- Node20&#45;&gt;Node21 -->
<g id="edge23" class="edge">
<title>Node20&#45;&gt;Node21</title>
<path fill="none" stroke="#63b8ff" d="M622.81,-274.75C624.94,-268.11 627.94,-258.73 630.64,-250.31"/>
<polygon fill="#63b8ff" stroke="#63b8ff" points="633.95,-251.47 633.67,-240.88 627.28,-249.34 633.95,-251.47"/>
</g>
</g>
</svg>
        <g id="navigator" transform="translate(0 0)" fill="#404254">
                <rect fill="#f2f5e9" fill-opacity="0.5" stroke="#606060" stroke-width=".5" x="0" y="0" width="60" height="60"/>
                <use id="zoomplus" xlink:href="#zoomPlus" x="17" y="9" onmousedown="handleZoom(evt,'in')"/>
                <use id="zoomminus" xlink:href="#zoomMin" x="42" y="9" onmousedown="handleZoom(evt,'out')"/>
                <use id="reset" xlink:href="#resetDef" x="30" y="36" onmousedown="handleReset()"/>
                <g id="arrowUp" xlink:href="#dirArrow" transform="translate(30 24)" onmousedown="handlePan(0,-1)">
                  <use xlink:href="#rim" fill="#404040">
                        <set attributeName="fill" to="#808080" begin="arrowUp.mouseover" end="arrowUp.mouseout"/>
                  </use>
                  <path fill="none" stroke="white" stroke-width="1.5" d="M0,-3.0v7 M-2.5,-0.5L0,-3.0L2.5,-0.5"/>
                </g>
                <g id="arrowRight" xlink:href="#dirArrow" transform="rotate(90) translate(36 -43)" onmousedown="handlePan(1,0)">
                  <use xlink:href="#rim" fill="#404040">
                        <set attributeName="fill" to="#808080" begin="arrowRight.mouseover" end="arrowRight.mouseout"/>
                  </use>
                  <path fill="none" stroke="white" stroke-width="1.5" d="M0,-3.0v7 M-2.5,-0.5L0,-3.0L2.5,-0.5"/>
                </g>
                <g id="arrowDown" xlink:href="#dirArrow" transform="rotate(180) translate(-30 -48)" onmousedown="handlePan(0,1)">
                  <use xlink:href="#rim" fill="#404040">
                        <set attributeName="fill" to="#808080" begin="arrowDown.mouseover" end="arrowDown.mouseout"/>
                  </use>
                  <path fill="none" stroke="white" stroke-width="1.5" d="M0,-3.0v7 M-2.5,-0.5L0,-3.0L2.5,-0.5"/>
                </g>
                <g id="arrowLeft" xlink:href="#dirArrow" transform="rotate(270) translate(-36 17)" onmousedown="handlePan(-1,0)">
                  <use xlink:href="#rim" fill="#404040">
                        <set attributeName="fill" to="#808080" begin="arrowLeft.mouseover" end="arrowLeft.mouseout"/>
                  </use>
                  <path fill="none" stroke="white" stroke-width="1.5" d="M0,-3.0v7 M-2.5,-0.5L0,-3.0L2.5,-0.5"/>
                </g>
        </g>
        <svg viewBox="0 0 15 15" width="100%" height="30px" preserveAspectRatio="xMaxYMin meet">
         <g id="arrow_out" transform="scale(0.3 0.3)">
          <a xlink:href="keyvalueregistry_8cpp__incl_org.svg" target="_base">
           <rect id="button" ry="5" rx="5" y="6" x="6" height="38" width="38"
                fill="#f2f5e9" fill-opacity="0.5" stroke="#606060" stroke-width="1.0"/>
           <path id="arrow"
             d="M 11.500037,31.436501 C 11.940474,20.09759 22.043105,11.32322 32.158766,21.979434 L 37.068811,17.246167 C 37.068811,17.246167 37.088388,32 37.088388,32 L 22.160133,31.978069 C 22.160133,31.978069 26.997745,27.140456 26.997745,27.140456 C 18.528582,18.264221 13.291696,25.230495 11.500037,31.436501 z"
             style="fill:#404040;"/>
          </a>
         </g>
        </svg>
</svg>
