<?xml version="1.0" encoding="UTF-8" standalone="no"?>
<!DOCTYPE svg PUBLIC "-//W3C//DTD SVG 1.1//EN"
 "http://www.w3.org/Graphics/SVG/1.1/DTD/svg11.dtd">
<!-- Generated by graphviz version 7.0.5 (20221223.1930)
 -->
<!-- Title: src/Meta/keyvalue/lambda.h Pages: 1 -->
<svg width="1405pt" height="577pt"
 viewBox="0.00 0.00 1405.00 577.00" xmlns="http://www.w3.org/2000/svg" xmlns:xlink="http://www.w3.org/1999/xlink">
<g id="graph0" class="graph" transform="scale(1 1) rotate(0) translate(4 573)">
<title>src/Meta/keyvalue/lambda.h</title>
<!-- Node1 -->
<g id="node1" class="node">
<title>Node1</title>
<g id="a_node1"><a xlink:title=" ">
<polygon fill="#999999" stroke="#666666" points="682,-569 544,-569 544,-550 682,-550 682,-569"/>
<text text-anchor="middle" x="613" y="-557" font-family="Helvetica,sans-Serif" font-size="10.00">src/Meta/keyvalue/lambda.h</text>
</a>
</g>
</g>
<!-- Node2 -->
<g id="node2" class="node">
<title>Node2</title>
<g id="a_node2"><a xlink:href="metatable_8h.html" target="_top" xlink:title=" ">
<polygon fill="white" stroke="#666666" points="647.5,-294 580.5,-294 580.5,-275 647.5,-275 647.5,-294"/>
<text text-anchor="middle" x="614" y="-282" font-family="Helvetica,sans-Serif" font-size="10.00">metatable.h</text>
</a>
</g>
</g>
<!-- Node1&#45;&gt;Node2 -->
<g id="edge1" class="edge">
<title>Node1&#45;&gt;Node2</title>
<path fill="none" stroke="#63b8ff" d="M595.3,-549.56C566.82,-533.77 514,-498.06 514,-450.5 514,-450.5 514,-450.5 514,-393.5 514,-350.76 556.7,-317.76 586.29,-300.02"/>
<polygon fill="#63b8ff" stroke="#63b8ff" points="587.87,-303.15 594.81,-295.15 584.39,-297.08 587.87,-303.15"/>
</g>
<!-- Node8 -->
<g id="node8" class="node">
<title>Node8</title>
<g id="a_node8"><a xlink:href="valuetype__forward_8h.html" target="_top" xlink:title=" ">
<polygon fill="white" stroke="#666666" points="800.5,-514 697.5,-514 697.5,-495 800.5,-495 800.5,-514"/>
<text text-anchor="middle" x="749" y="-502" font-family="Helvetica,sans-Serif" font-size="10.00">valuetype_forward.h</text>
</a>
</g>
</g>
<!-- Node1&#45;&gt;Node8 -->
<g id="edge7" class="edge">
<title>Node1&#45;&gt;Node8</title>
<path fill="none" stroke="#63b8ff" d="M636.07,-549.51C657.89,-541.01 690.88,-528.15 715.58,-518.53"/>
<polygon fill="#63b8ff" stroke="#63b8ff" points="716.81,-521.8 724.86,-514.91 714.27,-515.28 716.81,-521.8"/>
</g>
<!-- Node3 -->
<g id="node3" class="node">
<title>Node3</title>
<g id="a_node3"><a xlink:href="table__forward_8h.html" target="_top" xlink:title=" ">
<polygon fill="white" stroke="#666666" points="608.5,-239 525.5,-239 525.5,-220 608.5,-220 608.5,-239"/>
<text text-anchor="middle" x="567" y="-227" font-family="Helvetica,sans-Serif" font-size="10.00">table_forward.h</text>
</a>
</g>
</g>
<!-- Node2&#45;&gt;Node3 -->
<g id="edge2" class="edge">
<title>Node2&#45;&gt;Node3</title>
<path fill="none" stroke="#63b8ff" d="M606.24,-274.75C599.81,-267.5 590.49,-256.98 582.54,-248.02"/>
<polygon fill="#63b8ff" stroke="#63b8ff" points="585.19,-245.73 575.93,-240.57 579.95,-250.38 585.19,-245.73"/>
</g>
<!-- Node4 -->
<g id="node4" class="node">
<title>Node4</title>
<g id="a_node4"><a xlink:href="genericresult_8h.html" target="_top" xlink:title=" ">
<polygon fill="white" stroke="#666666" points="609,-184 493,-184 493,-165 609,-165 609,-184"/>
<text text-anchor="middle" x="551" y="-172" font-family="Helvetica,sans-Serif" font-size="10.00">Generic/genericresult.h</text>
</a>
</g>
</g>
<!-- Node3&#45;&gt;Node4 -->
<g id="edge3" class="edge">
<title>Node3&#45;&gt;Node4</title>
<path fill="none" stroke="#63b8ff" d="M564.36,-219.75C562.36,-213.11 559.52,-203.73 556.98,-195.31"/>
<polygon fill="#63b8ff" stroke="#63b8ff" points="560.38,-194.45 554.14,-185.89 553.68,-196.48 560.38,-194.45"/>
</g>
<!-- Node5 -->
<g id="node5" class="node">
<title>Node5</title>
<g id="a_node5"><a xlink:href="enum_8h.html" target="_top" xlink:title=" ">
<polygon fill="white" stroke="#666666" points="592,-129 544,-129 544,-110 592,-110 592,-129"/>
<text text-anchor="middle" x="568" y="-117" font-family="Helvetica,sans-Serif" font-size="10.00">enum.h</text>
</a>
</g>
</g>
<!-- Node4&#45;&gt;Node5 -->
<g id="edge4" class="edge">
<title>Node4&#45;&gt;Node5</title>
<path fill="none" stroke="#63b8ff" d="M553.81,-164.75C555.94,-158.11 558.94,-148.73 561.64,-140.31"/>
<polygon fill="#63b8ff" stroke="#63b8ff" points="564.95,-141.47 564.67,-130.88 558.28,-139.34 564.95,-141.47"/>
</g>
<!-- Node6 -->
<g id="node6" class="node">
<title>Node6</title>
<g id="a_node6"><a xlink:href="array_8h.html" target="_top" xlink:title=" ">
<polygon fill="white" stroke="#666666" points="669,-74 605,-74 605,-55 669,-55 669,-74"/>
<text text-anchor="middle" x="637" y="-62" font-family="Helvetica,sans-Serif" font-size="10.00">bits/array.h</text>
</a>
</g>
</g>
<!-- Node5&#45;&gt;Node6 -->
<g id="edge5" class="edge">
<title>Node5&#45;&gt;Node6</title>
<path fill="none" stroke="#63b8ff" d="M579.7,-109.51C589.78,-101.77 604.54,-90.43 616.56,-81.2"/>
<polygon fill="#63b8ff" stroke="#63b8ff" points="618.47,-84.15 624.27,-75.28 614.21,-78.6 618.47,-84.15"/>
</g>
<!-- Node7 -->
<g id="node7" class="node">
<title>Node7</title>
<g id="a_node7"><a xlink:href="types_8h.html" target="_top" xlink:title=" ">
<polygon fill="white" stroke="#666666" points="660.5,-19 613.5,-19 613.5,0 660.5,0 660.5,-19"/>
<text text-anchor="middle" x="637" y="-7" font-family="Helvetica,sans-Serif" font-size="10.00">types.h</text>
</a>
</g>
</g>
<!-- Node6&#45;&gt;Node7 -->
<g id="edge6" class="edge">
<title>Node6&#45;&gt;Node7</title>
<path fill="none" stroke="#63b8ff" d="M637,-54.75C637,-48.27 637,-39.16 637,-30.9"/>
<polygon fill="#63b8ff" stroke="#63b8ff" points="640.5,-30.96 637,-20.96 633.5,-30.96 640.5,-30.96"/>
</g>
<!-- Node9 -->
<g id="node9" class="node">
<title>Node9</title>
<g id="a_node9"><a xlink:href="ownedscopeptr_8h.html" target="_top" xlink:title=" ">
<polygon fill="white" stroke="#666666" points="720,-459 630,-459 630,-440 720,-440 720,-459"/>
<text text-anchor="middle" x="675" y="-447" font-family="Helvetica,sans-Serif" font-size="10.00">ownedscopeptr.h</text>
</a>
</g>
</g>
<!-- Node8&#45;&gt;Node9 -->
<g id="edge8" class="edge">
<title>Node8&#45;&gt;Node9</title>
<path fill="none" stroke="#63b8ff" d="M736.45,-494.51C725.54,-486.7 709.5,-475.21 696.54,-465.93"/>
<polygon fill="#63b8ff" stroke="#63b8ff" points="698.77,-463.22 688.6,-460.24 694.69,-468.91 698.77,-463.22"/>
</g>
<!-- Node12 -->
<g id="node12" class="node">
<title>Node12</title>
<g id="a_node12"><a xlink:href="valuetype__desc_8h.html" target="_top" xlink:title=" ">
<polygon fill="white" stroke="#666666" points="758,-294 666,-294 666,-275 758,-275 758,-294"/>
<text text-anchor="middle" x="712" y="-282" font-family="Helvetica,sans-Serif" font-size="10.00">valuetype_desc.h</text>
</a>
</g>
</g>
<!-- Node8&#45;&gt;Node12 -->
<g id="edge40" class="edge">
<title>Node8&#45;&gt;Node12</title>
<path fill="none" stroke="#63b8ff" d="M747.63,-494.57C744.59,-474.81 736.97,-425.87 730,-385 725.28,-357.33 719.43,-325.41 715.71,-305.34"/>
<polygon fill="#63b8ff" stroke="#63b8ff" points="719.2,-304.95 713.93,-295.76 712.32,-306.23 719.2,-304.95"/>
</g>
<!-- Node16 -->
<g id="node16" class="node">
<title>Node16</title>
<g id="a_node16"><a xlink:href="keyvalue_8h.html" target="_top" xlink:title=" ">
<polygon fill="white" stroke="#666666" points="914.5,-239 815.5,-239 815.5,-220 914.5,-220 914.5,-239"/>
<text text-anchor="middle" x="865" y="-227" font-family="Helvetica,sans-Serif" font-size="10.00">Generic/keyvalue.h</text>
</a>
</g>
</g>
<!-- Node8&#45;&gt;Node16 -->
<g id="edge39" class="edge">
<title>Node8&#45;&gt;Node16</title>
<path fill="none" stroke="#63b8ff" d="M761.21,-494.62C782.69,-477.86 825,-439.29 825,-395.5 825,-395.5 825,-395.5 825,-338.5 825,-305.45 841.68,-270.05 853.49,-249.12"/>
<polygon fill="#63b8ff" stroke="#63b8ff" points="856.43,-251.03 858.5,-240.64 850.4,-247.47 856.43,-251.03"/>
</g>
<!-- Node18 -->
<g id="node18" class="node">
<title>Node18</title>
<g id="a_node18"><a xlink:href="execution_2concepts_8h.html" target="_top" xlink:title=" ">
<polygon fill="white" stroke="#666666" points="507.5,-239 362.5,-239 362.5,-220 507.5,-220 507.5,-239"/>
<text text-anchor="middle" x="435" y="-227" font-family="Helvetica,sans-Serif" font-size="10.00">Generic/execution/concepts.h</text>
</a>
</g>
</g>
<!-- Node8&#45;&gt;Node18 -->
<g id="edge44" class="edge">
<title>Node8&#45;&gt;Node18</title>
<path fill="none" stroke="#63b8ff" d="M697.24,-497.57C638.87,-487.68 552,-461.81 552,-395.5 552,-395.5 552,-395.5 552,-338.5 552,-292.66 502.9,-260.88 468.31,-244.19"/>
<polygon fill="#63b8ff" stroke="#63b8ff" points="470.04,-241.13 459.49,-240.13 467.11,-247.49 470.04,-241.13"/>
</g>
<!-- Node19 -->
<g id="node19" class="node">
<title>Node19</title>
<g id="a_node19"><a xlink:href="keyvaluesender_8h.html" target="_top" xlink:title=" ">
<polygon fill="white" stroke="#666666" points="380,-349 288,-349 288,-330 380,-330 380,-349"/>
<text text-anchor="middle" x="334" y="-337" font-family="Helvetica,sans-Serif" font-size="10.00">keyvaluesender.h</text>
</a>
</g>
</g>
<!-- Node8&#45;&gt;Node19 -->
<g id="edge22" class="edge">
<title>Node8&#45;&gt;Node19</title>
<path fill="none" stroke="#63b8ff" d="M697.39,-497.3C653.85,-490.97 590.42,-479.15 538,-459 466.71,-431.59 391.04,-381.24 355.2,-355.91"/>
<polygon fill="#63b8ff" stroke="#63b8ff" points="357.58,-353.31 347.41,-350.35 353.51,-359.01 357.58,-353.31"/>
</g>
<!-- Node25 -->
<g id="node25" class="node">
<title>Node25</title>
<g id="a_node25"><a xlink:href="virtualrange_8h.html" target="_top" xlink:title=" ">
<polygon fill="white" stroke="#666666" points="1225,-459 1071,-459 1071,-440 1225,-440 1225,-459"/>
<text text-anchor="middle" x="1148" y="-447" font-family="Helvetica,sans-Serif" font-size="10.00">Generic/container/virtualrange.h</text>
</a>
</g>
</g>
<!-- Node8&#45;&gt;Node25 -->
<g id="edge31" class="edge">
<title>Node8&#45;&gt;Node25</title>
<path fill="none" stroke="#63b8ff" d="M800.75,-496.63C869.02,-487.56 989.81,-471.51 1069.39,-460.94"/>
<polygon fill="#63b8ff" stroke="#63b8ff" points="1069.39,-464.47 1078.84,-459.69 1068.46,-457.53 1069.39,-464.47"/>
</g>
<!-- Node33 -->
<g id="node33" class="node">
<title>Node33</title>
<g id="a_node33"><a xlink:href="enumholder_8h.html" target="_top" xlink:title=" ">
<polygon fill="white" stroke="#666666" points="1053,-459 971,-459 971,-440 1053,-440 1053,-459"/>
<text text-anchor="middle" x="1012" y="-447" font-family="Helvetica,sans-Serif" font-size="10.00">../enumholder.h</text>
</a>
</g>
</g>
<!-- Node8&#45;&gt;Node33 -->
<g id="edge41" class="edge">
<title>Node8&#45;&gt;Node33</title>
<path fill="none" stroke="#63b8ff" d="M793.61,-494.51C839.47,-485.27 910.85,-470.88 959.42,-461.1"/>
<polygon fill="#63b8ff" stroke="#63b8ff" points="960.04,-464.54 969.16,-459.13 958.66,-457.68 960.04,-464.54"/>
</g>
<!-- Node34 -->
<g id="node34" class="node">
<title>Node34</title>
<g id="a_node34"><a xlink:href="flagsholder_8h.html" target="_top" xlink:title=" ">
<polygon fill="white" stroke="#666666" points="930,-129 852,-129 852,-110 930,-110 930,-129"/>
<text text-anchor="middle" x="891" y="-117" font-family="Helvetica,sans-Serif" font-size="10.00">../flagsholder.h</text>
</a>
</g>
</g>
<!-- Node8&#45;&gt;Node34 -->
<g id="edge42" class="edge">
<title>Node8&#45;&gt;Node34</title>
<path fill="none" stroke="#63b8ff" d="M800.99,-497.13C858.45,-486.85 943,-460.65 943,-395.5 943,-395.5 943,-395.5 943,-228.5 943,-199.04 937.19,-191.34 924,-165 919.27,-155.57 912.54,-146.05 906.39,-138.25"/>
<polygon fill="#63b8ff" stroke="#63b8ff" points="909.13,-136.07 900.06,-130.59 903.73,-140.53 909.13,-136.07"/>
</g>
<!-- Node10 -->
<g id="node10" class="node">
<title>Node10</title>
<g id="a_node10"><a xlink:href="proxyscopebase_8h.html" target="_top" xlink:title=" ">
<polygon fill="white" stroke="#666666" points="721,-404 627,-404 627,-385 721,-385 721,-404"/>
<text text-anchor="middle" x="674" y="-392" font-family="Helvetica,sans-Serif" font-size="10.00">proxyscopebase.h</text>
</a>
</g>
</g>
<!-- Node9&#45;&gt;Node10 -->
<g id="edge9" class="edge">
<title>Node9&#45;&gt;Node10</title>
<path fill="none" stroke="#63b8ff" d="M674.83,-439.75C674.71,-433.27 674.54,-424.16 674.38,-415.9"/>
<polygon fill="#63b8ff" stroke="#63b8ff" points="677.89,-415.89 674.2,-405.96 670.89,-416.02 677.89,-415.89"/>
</g>
<!-- Node11 -->
<g id="node11" class="node">
<title>Node11</title>
<g id="a_node11"><a xlink:href="scopeptr_8h.html" target="_top" xlink:title=" ">
<polygon fill="white" stroke="#666666" points="705,-349 643,-349 643,-330 705,-330 705,-349"/>
<text text-anchor="middle" x="674" y="-337" font-family="Helvetica,sans-Serif" font-size="10.00">scopeptr.h</text>
</a>
</g>
</g>
<!-- Node10&#45;&gt;Node11 -->
<g id="edge10" class="edge">
<title>Node10&#45;&gt;Node11</title>
<path fill="none" stroke="#63b8ff" d="M674,-384.75C674,-378.27 674,-369.16 674,-360.9"/>
<polygon fill="#63b8ff" stroke="#63b8ff" points="677.5,-360.96 674,-350.96 670.5,-360.96 677.5,-360.96"/>
</g>
<!-- Node11&#45;&gt;Node2 -->
<g id="edge11" class="edge">
<title>Node11&#45;&gt;Node2</title>
<path fill="none" stroke="#63b8ff" d="M663.82,-329.51C655.24,-321.93 642.73,-310.88 632.4,-301.75"/>
<polygon fill="#63b8ff" stroke="#63b8ff" points="634.97,-299.36 625.16,-295.36 630.34,-304.6 634.97,-299.36"/>
</g>
<!-- Node11&#45;&gt;Node12 -->
<g id="edge12" class="edge">
<title>Node11&#45;&gt;Node12</title>
<path fill="none" stroke="#63b8ff" d="M680.27,-329.75C685.36,-322.66 692.7,-312.42 699.03,-303.59"/>
<polygon fill="#63b8ff" stroke="#63b8ff" points="701.72,-305.84 704.71,-295.67 696.04,-301.76 701.72,-305.84"/>
</g>
<!-- Node12&#45;&gt;Node3 -->
<g id="edge19" class="edge">
<title>Node12&#45;&gt;Node3</title>
<path fill="none" stroke="#63b8ff" d="M687.4,-274.51C663.93,-265.93 628.33,-252.92 601.93,-243.27"/>
<polygon fill="#63b8ff" stroke="#63b8ff" points="603.25,-240.02 592.66,-239.88 600.85,-246.6 603.25,-240.02"/>
</g>
<!-- Node12&#45;&gt;Node6 -->
<g id="edge16" class="edge">
<title>Node12&#45;&gt;Node6</title>
<path fill="none" stroke="#63b8ff" d="M694.45,-274.55C681.51,-266.95 664.7,-254.77 656,-239 628.48,-189.13 631.13,-118.94 634.48,-85.17"/>
<polygon fill="#63b8ff" stroke="#63b8ff" points="637.92,-85.97 635.57,-75.63 630.96,-85.17 637.92,-85.97"/>
</g>
<!-- Node13 -->
<g id="node13" class="node">
<title>Node13</title>
<g id="a_node13"><a xlink:href="valuetype__types_8h.html" target="_top" xlink:title=" ">
<polygon fill="white" stroke="#666666" points="759,-239 665,-239 665,-220 759,-220 759,-239"/>
<text text-anchor="middle" x="712" y="-227" font-family="Helvetica,sans-Serif" font-size="10.00">valuetype_types.h</text>
</a>
</g>
</g>
<!-- Node12&#45;&gt;Node13 -->
<g id="edge13" class="edge">
<title>Node12&#45;&gt;Node13</title>
<path fill="none" stroke="#63b8ff" d="M712,-274.75C712,-268.27 712,-259.16 712,-250.9"/>
<polygon fill="#63b8ff" stroke="#63b8ff" points="715.5,-250.96 712,-240.96 708.5,-250.96 715.5,-250.96"/>
</g>
<!-- Node14 -->
<g id="node14" class="node">
<title>Node14</title>
<g id="a_node14"><a xlink:href="valuetypedefinclude_8h.html" target="_top" xlink:title=" ">
<polygon fill="white" stroke="#666666" points="785.5,-184 676.5,-184 676.5,-165 785.5,-165 785.5,-184"/>
<text text-anchor="middle" x="731" y="-172" font-family="Helvetica,sans-Serif" font-size="10.00">valuetypedefinclude.h</text>
</a>
</g>
</g>
<!-- Node12&#45;&gt;Node14 -->
<g id="edge21" class="edge">
<title>Node12&#45;&gt;Node14</title>
<path fill="none" stroke="#63b8ff" d="M730.31,-274.65C743.48,-267.17 760.23,-255.1 768,-239 775.93,-222.57 763.46,-204.68 750.9,-192.09"/>
<polygon fill="#63b8ff" stroke="#63b8ff" points="753.28,-189.53 743.55,-185.33 748.54,-194.68 753.28,-189.53"/>
</g>
<!-- Node12&#45;&gt;Node16 -->
<g id="edge17" class="edge">
<title>Node12&#45;&gt;Node16</title>
<path fill="none" stroke="#63b8ff" d="M737.95,-274.51C762.87,-265.88 800.73,-252.76 828.64,-243.1"/>
<polygon fill="#63b8ff" stroke="#63b8ff" points="829.44,-246.52 837.74,-239.94 827.15,-239.91 829.44,-246.52"/>
</g>
<!-- Node12&#45;&gt;Node18 -->
<g id="edge20" class="edge">
<title>Node12&#45;&gt;Node18</title>
<path fill="none" stroke="#63b8ff" d="M665.64,-274.63C618.24,-265.56 544.5,-251.45 493.21,-241.64"/>
<polygon fill="#63b8ff" stroke="#63b8ff" points="493.94,-238.21 483.46,-239.77 492.63,-245.09 493.94,-238.21"/>
</g>
<!-- Node13&#45;&gt;Node14 -->
<g id="edge14" class="edge">
<title>Node13&#45;&gt;Node14</title>
<path fill="none" stroke="#63b8ff" d="M715.14,-219.75C717.54,-213.04 720.96,-203.52 724,-195.02"/>
<polygon fill="#63b8ff" stroke="#63b8ff" points="727.2,-196.46 727.28,-185.87 720.61,-194.1 727.2,-196.46"/>
</g>
<!-- Node15 -->
<g id="node15" class="node">
<title>Node15</title>
<g id="a_node15"><a xlink:href="valuetypedef_8h.html" target="_top" xlink:title=" ">
<polygon fill="white" stroke="#666666" points="770.5,-129 691.5,-129 691.5,-110 770.5,-110 770.5,-129"/>
<text text-anchor="middle" x="731" y="-117" font-family="Helvetica,sans-Serif" font-size="10.00">valuetypedef.h</text>
</a>
</g>
</g>
<!-- Node14&#45;&gt;Node15 -->
<g id="edge15" class="edge">
<title>Node14&#45;&gt;Node15</title>
<path fill="none" stroke="#63b8ff" d="M731,-164.75C731,-158.27 731,-149.16 731,-140.9"/>
<polygon fill="#63b8ff" stroke="#63b8ff" points="734.5,-140.96 731,-130.96 727.5,-140.96 734.5,-140.96"/>
</g>
<!-- Node17 -->
<g id="node17" class="node">
<title>Node17</title>
<g id="a_node17"><a xlink:href="comparator__traits_8h.html" target="_top" xlink:title=" ">
<polygon fill="white" stroke="#666666" points="915,-184 815,-184 815,-165 915,-165 915,-184"/>
<text text-anchor="middle" x="865" y="-172" font-family="Helvetica,sans-Serif" font-size="10.00">comparator_traits.h</text>
</a>
</g>
</g>
<!-- Node16&#45;&gt;Node17 -->
<g id="edge18" class="edge">
<title>Node16&#45;&gt;Node17</title>
<path fill="none" stroke="#63b8ff" d="M865,-219.75C865,-213.27 865,-204.16 865,-195.9"/>
<polygon fill="#63b8ff" stroke="#63b8ff" points="868.5,-195.96 865,-185.96 861.5,-195.96 868.5,-195.96"/>
</g>
<!-- Node19&#45;&gt;Node4 -->
<g id="edge30" class="edge">
<title>Node19&#45;&gt;Node4</title>
<path fill="none" stroke="#63b8ff" d="M332.43,-329.65C329.11,-307.83 323.89,-250.97 353,-220 370.46,-201.42 431.46,-189.63 481.19,-182.88"/>
<polygon fill="#63b8ff" stroke="#63b8ff" points="481.62,-186.36 491.08,-181.59 480.71,-179.42 481.62,-186.36"/>
</g>
<!-- Node19&#45;&gt;Node18 -->
<g id="edge25" class="edge">
<title>Node19&#45;&gt;Node18</title>
<path fill="none" stroke="#63b8ff" d="M342.27,-329.66C358.99,-311.78 397.08,-271.05 418.89,-247.73"/>
<polygon fill="#63b8ff" stroke="#63b8ff" points="421.31,-250.26 425.59,-240.57 416.2,-245.48 421.31,-250.26"/>
</g>
<!-- Node20 -->
<g id="node20" class="node">
<title>Node20</title>
<g id="a_node20"><a xlink:href="delayedconstruct_8h.html" target="_top" xlink:title=" ">
<polygon fill="white" stroke="#666666" points="134,-294 0,-294 0,-275 134,-275 134,-294"/>
<text text-anchor="middle" x="67" y="-282" font-family="Helvetica,sans-Serif" font-size="10.00">Generic/delayedconstruct.h</text>
</a>
</g>
</g>
<!-- Node19&#45;&gt;Node20 -->
<g id="edge23" class="edge">
<title>Node19&#45;&gt;Node20</title>
<path fill="none" stroke="#63b8ff" d="M288.71,-329.51C243.02,-320.44 172.38,-306.42 123.16,-296.65"/>
<polygon fill="#63b8ff" stroke="#63b8ff" points="124.04,-293.26 113.55,-294.74 122.68,-300.12 124.04,-293.26"/>
</g>
<!-- Node22 -->
<g id="node22" class="node">
<title>Node22</title>
<g id="a_node22"><a xlink:href="virtualstate_8h.html" target="_top" xlink:title=" ">
<polygon fill="white" stroke="#666666" points="305.5,-294 152.5,-294 152.5,-275 305.5,-275 305.5,-294"/>
<text text-anchor="middle" x="229" y="-282" font-family="Helvetica,sans-Serif" font-size="10.00">Generic/execution/virtualstate.h</text>
</a>
</g>
</g>
<!-- Node19&#45;&gt;Node22 -->
<g id="edge26" class="edge">
<title>Node19&#45;&gt;Node22</title>
<path fill="none" stroke="#63b8ff" d="M316.19,-329.51C299.87,-321.27 275.47,-308.96 256.63,-299.45"/>
<polygon fill="#63b8ff" stroke="#63b8ff" points="258.4,-296.42 247.9,-295.04 255.25,-302.67 258.4,-296.42"/>
</g>
<!-- Node21 -->
<g id="node21" class="node">
<title>Node21</title>
<g id="a_node21"><a xlink:href="closure_8h.html" target="_top" xlink:title=" ">
<polygon fill="white" stroke="#666666" points="95,-239 39,-239 39,-220 95,-220 95,-239"/>
<text text-anchor="middle" x="67" y="-227" font-family="Helvetica,sans-Serif" font-size="10.00">closure.h</text>
</a>
</g>
</g>
<!-- Node20&#45;&gt;Node21 -->
<g id="edge24" class="edge">
<title>Node20&#45;&gt;Node21</title>
<path fill="none" stroke="#63b8ff" d="M67,-274.75C67,-268.27 67,-259.16 67,-250.9"/>
<polygon fill="#63b8ff" stroke="#63b8ff" points="70.5,-250.96 67,-240.96 63.5,-250.96 70.5,-250.96"/>
</g>
<!-- Node22&#45;&gt;Node18 -->
<g id="edge27" class="edge">
<title>Node22&#45;&gt;Node18</title>
<path fill="none" stroke="#63b8ff" d="M263.95,-274.51C298.53,-265.61 351.63,-251.95 389.49,-242.21"/>
<polygon fill="#63b8ff" stroke="#63b8ff" points="389.95,-245.7 398.76,-239.82 388.21,-238.93 389.95,-245.7"/>
</g>
<!-- Node23 -->
<g id="node23" class="node">
<title>Node23</title>
<g id="a_node23"><a xlink:href="virtual__invoke_8h.html" target="_top" xlink:title=" ">
<polygon fill="white" stroke="#666666" points="289.5,-239 168.5,-239 168.5,-220 289.5,-220 289.5,-239"/>
<text text-anchor="middle" x="229" y="-227" font-family="Helvetica,sans-Serif" font-size="10.00">Generic/virtual_invoke.h</text>
</a>
</g>
</g>
<!-- Node22&#45;&gt;Node23 -->
<g id="edge28" class="edge">
<title>Node22&#45;&gt;Node23</title>
<path fill="none" stroke="#63b8ff" d="M229,-274.75C229,-268.27 229,-259.16 229,-250.9"/>
<polygon fill="#63b8ff" stroke="#63b8ff" points="232.5,-250.96 229,-240.96 225.5,-250.96 232.5,-250.96"/>
</g>
<!-- Node24 -->
<g id="node24" class="node">
<title>Node24</title>
<g id="a_node24"><a xlink:href="callable__traits_8h.html" target="_top" xlink:title=" ">
<polygon fill="white" stroke="#666666" points="271,-184 187,-184 187,-165 271,-165 271,-184"/>
<text text-anchor="middle" x="229" y="-172" font-family="Helvetica,sans-Serif" font-size="10.00">callable_traits.h</text>
</a>
</g>
</g>
<!-- Node23&#45;&gt;Node24 -->
<g id="edge29" class="edge">
<title>Node23&#45;&gt;Node24</title>
<path fill="none" stroke="#63b8ff" d="M229,-219.75C229,-213.27 229,-204.16 229,-195.9"/>
<polygon fill="#63b8ff" stroke="#63b8ff" points="232.5,-195.96 229,-185.96 225.5,-195.96 232.5,-195.96"/>
</g>
<!-- Node26 -->
<g id="node26" class="node">
<title>Node26</title>
<g id="a_node26"><a xlink:href="proxy_8h.html" target="_top" xlink:title=" ">
<polygon fill="white" stroke="#666666" points="1149,-404 1095,-404 1095,-385 1149,-385 1149,-404"/>
<text text-anchor="middle" x="1122" y="-392" font-family="Helvetica,sans-Serif" font-size="10.00">../proxy.h</text>
</a>
</g>
</g>
<!-- Node25&#45;&gt;Node26 -->
<g id="edge32" class="edge">
<title>Node25&#45;&gt;Node26</title>
<path fill="none" stroke="#63b8ff" d="M1143.71,-439.75C1140.38,-432.96 1135.64,-423.3 1131.44,-414.73"/>
<polygon fill="#63b8ff" stroke="#63b8ff" points="1134.6,-413.24 1127.05,-405.8 1128.32,-416.32 1134.6,-413.24"/>
</g>
<!-- Node27 -->
<g id="node27" class="node">
<title>Node27</title>
<g id="a_node27"><a xlink:href="defaultassign_8h.html" target="_top" xlink:title=" ">
<polygon fill="white" stroke="#666666" points="1256.5,-404 1167.5,-404 1167.5,-385 1256.5,-385 1256.5,-404"/>
<text text-anchor="middle" x="1212" y="-392" font-family="Helvetica,sans-Serif" font-size="10.00">../defaultassign.h</text>
</a>
</g>
</g>
<!-- Node25&#45;&gt;Node27 -->
<g id="edge33" class="edge">
<title>Node25&#45;&gt;Node27</title>
<path fill="none" stroke="#63b8ff" d="M1158.86,-439.51C1168.11,-431.85 1181.62,-420.66 1192.71,-411.47"/>
<polygon fill="#63b8ff" stroke="#63b8ff" points="1194.67,-414.4 1200.14,-405.32 1190.2,-409.01 1194.67,-414.4"/>
</g>
<!-- Node28 -->
<g id="node28" class="node">
<title>Node28</title>
<g id="a_node28"><a xlink:href="heapobject_8h.html" target="_top" xlink:title=" ">
<polygon fill="white" stroke="#666666" points="1076.5,-404 997.5,-404 997.5,-385 1076.5,-385 1076.5,-404"/>
<text text-anchor="middle" x="1037" y="-392" font-family="Helvetica,sans-Serif" font-size="10.00">../heapobject.h</text>
</a>
</g>
</g>
<!-- Node25&#45;&gt;Node28 -->
<g id="edge34" class="edge">
<title>Node25&#45;&gt;Node28</title>
<path fill="none" stroke="#63b8ff" d="M1129.17,-439.51C1111.84,-431.24 1085.89,-418.84 1065.93,-409.31"/>
<polygon fill="#63b8ff" stroke="#63b8ff" points="1067.45,-406.16 1056.92,-405.01 1064.43,-412.48 1067.45,-406.16"/>
</g>
<!-- Node29 -->
<g id="node29" class="node">
<title>Node29</title>
<g id="a_node29"><a xlink:href="emplace_8h.html" target="_top" xlink:title=" ">
<polygon fill="white" stroke="#666666" points="1335.5,-404 1274.5,-404 1274.5,-385 1335.5,-385 1335.5,-404"/>
<text text-anchor="middle" x="1305" y="-392" font-family="Helvetica,sans-Serif" font-size="10.00">emplace.h</text>
</a>
</g>
</g>
<!-- Node25&#45;&gt;Node29 -->
<g id="edge35" class="edge">
<title>Node25&#45;&gt;Node29</title>
<path fill="none" stroke="#63b8ff" d="M1174.63,-439.51C1200.2,-430.88 1239.05,-417.76 1267.69,-408.1"/>
<polygon fill="#63b8ff" stroke="#63b8ff" points="1268.71,-411.45 1277.06,-404.93 1266.47,-404.81 1268.71,-411.45"/>
</g>
<!-- Node30 -->
<g id="node30" class="node">
<title>Node30</title>
<g id="a_node30"><a xlink:href="container__traits_8h.html" target="_top" xlink:title=" ">
<polygon fill="white" stroke="#666666" points="1350.5,-349 1259.5,-349 1259.5,-330 1350.5,-330 1350.5,-349"/>
<text text-anchor="middle" x="1305" y="-337" font-family="Helvetica,sans-Serif" font-size="10.00">container_traits.h</text>
</a>
</g>
</g>
<!-- Node29&#45;&gt;Node30 -->
<g id="edge36" class="edge">
<title>Node29&#45;&gt;Node30</title>
<path fill="none" stroke="#63b8ff" d="M1305,-384.75C1305,-378.27 1305,-369.16 1305,-360.9"/>
<polygon fill="#63b8ff" stroke="#63b8ff" points="1308.5,-360.96 1305,-350.96 1301.5,-360.96 1308.5,-360.96"/>
</g>
<!-- Node31 -->
<g id="node31" class="node">
<title>Node31</title>
<g id="a_node31"><a xlink:href="indextype_8h.html" target="_top" xlink:title=" ">
<polygon fill="white" stroke="#666666" points="1397,-294 1325,-294 1325,-275 1397,-275 1397,-294"/>
<text text-anchor="middle" x="1361" y="-282" font-family="Helvetica,sans-Serif" font-size="10.00">../indextype.h</text>
</a>
</g>
</g>
<!-- Node30&#45;&gt;Node31 -->
<g id="edge37" class="edge">
<title>Node30&#45;&gt;Node31</title>
<path fill="none" stroke="#63b8ff" d="M1314.5,-329.51C1322.43,-322 1333.95,-311.1 1343.54,-302.03"/>
<polygon fill="#63b8ff" stroke="#63b8ff" points="1345.68,-304.81 1350.54,-295.4 1340.87,-299.73 1345.68,-304.81"/>
</g>
<!-- Node32 -->
<g id="node32" class="node">
<title>Node32</title>
<g id="a_node32"><a xlink:href="underlying__container_8h.html" target="_top" xlink:title=" ">
<polygon fill="white" stroke="#666666" points="1306.5,-294 1193.5,-294 1193.5,-275 1306.5,-275 1306.5,-294"/>
<text text-anchor="middle" x="1250" y="-282" font-family="Helvetica,sans-Serif" font-size="10.00">underlying_container.h</text>
</a>
</g>
</g>
<!-- Node30&#45;&gt;Node32 -->
<g id="edge38" class="edge">
<title>Node30&#45;&gt;Node32</title>
<path fill="none" stroke="#63b8ff" d="M1295.92,-329.75C1288.16,-322.27 1276.79,-311.32 1267.3,-302.17"/>
<polygon fill="#63b8ff" stroke="#63b8ff" points="1270,-299.91 1260.37,-295.49 1265.14,-304.95 1270,-299.91"/>
</g>
<!-- Node34&#45;&gt;Node6 -->
<g id="edge43" class="edge">
<title>Node34&#45;&gt;Node6</title>
<path fill="none" stroke="#63b8ff" d="M851.59,-110.28C805.25,-100.61 728.57,-84.61 680.51,-74.58"/>
<polygon fill="#63b8ff" stroke="#63b8ff" points="681.23,-71.15 670.73,-72.54 679.8,-78.01 681.23,-71.15"/>
</g>
</g>
</svg>
