<?xml version="1.0" encoding="UTF-8" standalone="no"?>
<!DOCTYPE svg PUBLIC "-//W3C//DTD SVG 1.1//EN"
 "http://www.w3.org/Graphics/SVG/1.1/DTD/svg11.dtd">
<!-- Generated by graphviz version 7.0.5 (20221223.1930)
 -->
<!-- Title: src/Interfaces/log/log.h Pages: 1 -->
<svg width="720pt" height="258pt"
 viewBox="0.00 0.00 720.00 258.00" xmlns="http://www.w3.org/2000/svg" xmlns:xlink="http://www.w3.org/1999/xlink">
<g id="graph0" class="graph" transform="scale(1 1) rotate(0) translate(4 254)">
<title>src/Interfaces/log/log.h</title>
<!-- Node1 -->
<g id="node1" class="node">
<title>Node1</title>
<g id="a_node1"><a xlink:title=" ">
<polygon fill="#999999" stroke="#666666" points="335,-250 243,-250 243,-220 335,-220 335,-250"/>
<text text-anchor="start" x="251" y="-238" font-family="Helvetica,sans-Serif" font-size="10.00">src/Interfaces/log</text>
<text text-anchor="middle" x="289" y="-227" font-family="Helvetica,sans-Serif" font-size="10.00">/log.h</text>
</a>
</g>
</g>
<!-- Node2 -->
<g id="node2" class="node">
<title>Node2</title>
<g id="a_node2"><a xlink:href="python3streamredirect_8cpp.html" target="_top" xlink:title=" ">
<polygon fill="white" stroke="#666666" points="188,-184 0,-184 0,-154 188,-154 188,-184"/>
<text text-anchor="start" x="8" y="-172" font-family="Helvetica,sans-Serif" font-size="10.00">plugins/behavior/python3</text>
<text text-anchor="middle" x="94" y="-161" font-family="Helvetica,sans-Serif" font-size="10.00">/src/Python3/python3streamredirect.cpp</text>
</a>
</g>
</g>
<!-- Node1&#45;&gt;Node2 -->
<g id="edge1" class="edge">
<title>Node1&#45;&gt;Node2</title>
<path fill="none" stroke="#63b8ff" d="M234.36,-216.07C203.91,-206.07 166.49,-193.79 137.95,-184.43"/>
<polygon fill="#63b8ff" stroke="#63b8ff" points="233.21,-219.37 243.8,-219.17 235.39,-212.72 233.21,-219.37"/>
</g>
<!-- Node3 -->
<g id="node3" class="node">
<title>Node3</title>
<g id="a_node3"><a xlink:href="log_8cpp.html" target="_top" xlink:title=" ">
<polygon fill="white" stroke="#666666" points="298,-184 206,-184 206,-154 298,-154 298,-184"/>
<text text-anchor="start" x="214" y="-172" font-family="Helvetica,sans-Serif" font-size="10.00">src/Interfaces/log</text>
<text text-anchor="middle" x="252" y="-161" font-family="Helvetica,sans-Serif" font-size="10.00">/log.cpp</text>
</a>
</g>
</g>
<!-- Node1&#45;&gt;Node3 -->
<g id="edge2" class="edge">
<title>Node1&#45;&gt;Node3</title>
<path fill="none" stroke="#63b8ff" d="M275.19,-210.11C270.14,-201.38 264.59,-191.78 260.19,-184.16"/>
<polygon fill="#63b8ff" stroke="#63b8ff" points="272,-211.58 280.03,-218.49 278.06,-208.08 272,-211.58"/>
</g>
<!-- Node4 -->
<g id="node4" class="node">
<title>Node4</title>
<g id="a_node4"><a xlink:href="logmethods_8cpp.html" target="_top" xlink:title=" ">
<polygon fill="white" stroke="#666666" points="349,-112.5 257,-112.5 257,-82.5 349,-82.5 349,-112.5"/>
<text text-anchor="start" x="265" y="-100.5" font-family="Helvetica,sans-Serif" font-size="10.00">src/Interfaces/log</text>
<text text-anchor="middle" x="303" y="-89.5" font-family="Helvetica,sans-Serif" font-size="10.00">/logmethods.cpp</text>
</a>
</g>
</g>
<!-- Node1&#45;&gt;Node4 -->
<g id="edge3" class="edge">
<title>Node1&#45;&gt;Node4</title>
<path fill="none" stroke="#63b8ff" d="M299.73,-209.49C302.7,-201.51 305.51,-192.52 307,-184 311.32,-159.26 308.19,-129.92 305.57,-112.84"/>
<polygon fill="#63b8ff" stroke="#63b8ff" points="296.58,-207.93 296.11,-218.51 303.08,-210.53 296.58,-207.93"/>
</g>
<!-- Node5 -->
<g id="node5" class="node">
<title>Node5</title>
<g id="a_node5"><a xlink:href="standardlog_8h.html" target="_top" xlink:title=" ">
<polygon fill="white" stroke="#666666" points="470,-184 378,-184 378,-154 470,-154 470,-184"/>
<text text-anchor="start" x="386" y="-172" font-family="Helvetica,sans-Serif" font-size="10.00">src/Interfaces/log</text>
<text text-anchor="middle" x="424" y="-161" font-family="Helvetica,sans-Serif" font-size="10.00">/standardlog.h</text>
</a>
</g>
</g>
<!-- Node1&#45;&gt;Node5 -->
<g id="edge4" class="edge">
<title>Node1&#45;&gt;Node5</title>
<path fill="none" stroke="#63b8ff" d="M329.66,-214.72C350.28,-204.95 374.89,-193.28 393.8,-184.31"/>
<polygon fill="#63b8ff" stroke="#63b8ff" points="328.2,-211.54 320.66,-218.99 331.2,-217.87 328.2,-211.54"/>
</g>
<!-- Node5&#45;&gt;Node4 -->
<g id="edge8" class="edge">
<title>Node5&#45;&gt;Node4</title>
<path fill="none" stroke="#63b8ff" d="M389.17,-147.99C369.63,-136.77 345.72,-123.04 328.04,-112.88"/>
<polygon fill="#63b8ff" stroke="#63b8ff" points="387.2,-150.9 397.62,-152.85 390.69,-144.83 387.2,-150.9"/>
</g>
<!-- Node6 -->
<g id="node6" class="node">
<title>Node6</title>
<g id="a_node6"><a xlink:href="root_8cpp.html" target="_top" xlink:title=" ">
<polygon fill="white" stroke="#666666" points="480.5,-112.5 367.5,-112.5 367.5,-82.5 480.5,-82.5 480.5,-112.5"/>
<text text-anchor="start" x="375.5" y="-100.5" font-family="Helvetica,sans-Serif" font-size="10.00">plugins/root/api/src</text>
<text text-anchor="middle" x="424" y="-89.5" font-family="Helvetica,sans-Serif" font-size="10.00">/Madgine/root/root.cpp</text>
</a>
</g>
</g>
<!-- Node5&#45;&gt;Node6 -->
<g id="edge5" class="edge">
<title>Node5&#45;&gt;Node6</title>
<path fill="none" stroke="#63b8ff" d="M424,-142.26C424,-132.33 424,-121.36 424,-112.88"/>
<polygon fill="#63b8ff" stroke="#63b8ff" points="420.5,-142.09 424,-152.09 427.5,-142.09 420.5,-142.09"/>
</g>
<!-- Node7 -->
<g id="node7" class="node">
<title>Node7</title>
<g id="a_node7"><a xlink:href="serverlog_8h.html" target="_top" xlink:title=" ">
<polygon fill="white" stroke="#666666" points="601.5,-118 498.5,-118 498.5,-77 601.5,-77 601.5,-118"/>
<text text-anchor="start" x="506.5" y="-106" font-family="Helvetica,sans-Serif" font-size="10.00">plugins/server/api</text>
<text text-anchor="start" x="506.5" y="-95" font-family="Helvetica,sans-Serif" font-size="10.00">/src/Madgine/server</text>
<text text-anchor="middle" x="550" y="-84" font-family="Helvetica,sans-Serif" font-size="10.00">/serverlog.h</text>
</a>
</g>
</g>
<!-- Node5&#45;&gt;Node7 -->
<g id="edge6" class="edge">
<title>Node5&#45;&gt;Node7</title>
<path fill="none" stroke="#63b8ff" d="M460.14,-148.06C477.01,-138.76 497.03,-127.72 513.89,-118.42"/>
<polygon fill="#63b8ff" stroke="#63b8ff" points="458.5,-144.97 451.43,-152.87 461.88,-151.1 458.5,-144.97"/>
</g>
<!-- Node9 -->
<g id="node9" class="node">
<title>Node9</title>
<g id="a_node9"><a xlink:href="standardlog_8cpp.html" target="_top" xlink:title=" ">
<polygon fill="white" stroke="#666666" points="712,-112.5 620,-112.5 620,-82.5 712,-82.5 712,-112.5"/>
<text text-anchor="start" x="628" y="-100.5" font-family="Helvetica,sans-Serif" font-size="10.00">src/Interfaces/log</text>
<text text-anchor="middle" x="666" y="-89.5" font-family="Helvetica,sans-Serif" font-size="10.00">/standardlog.cpp</text>
</a>
</g>
</g>
<!-- Node5&#45;&gt;Node9 -->
<g id="edge9" class="edge">
<title>Node5&#45;&gt;Node9</title>
<path fill="none" stroke="#63b8ff" d="M481.52,-153.88C518.68,-144.45 567.95,-131.36 611,-118 616.03,-116.44 621.29,-114.71 626.47,-112.94"/>
<polygon fill="#63b8ff" stroke="#63b8ff" points="480.71,-150.47 471.87,-156.31 482.42,-157.26 480.71,-150.47"/>
</g>
<!-- Node8 -->
<g id="node8" class="node">
<title>Node8</title>
<g id="a_node8"><a xlink:href="serverlog_8cpp.html" target="_top" xlink:title=" ">
<polygon fill="white" stroke="#666666" points="601.5,-41 498.5,-41 498.5,0 601.5,0 601.5,-41"/>
<text text-anchor="start" x="506.5" y="-29" font-family="Helvetica,sans-Serif" font-size="10.00">plugins/server/api</text>
<text text-anchor="start" x="506.5" y="-18" font-family="Helvetica,sans-Serif" font-size="10.00">/src/Madgine/server</text>
<text text-anchor="middle" x="550" y="-7" font-family="Helvetica,sans-Serif" font-size="10.00">/serverlog.cpp</text>
</a>
</g>
</g>
<!-- Node7&#45;&gt;Node8 -->
<g id="edge7" class="edge">
<title>Node7&#45;&gt;Node8</title>
<path fill="none" stroke="#63b8ff" d="M550,-65.36C550,-57.24 550,-48.7 550,-41.33"/>
<polygon fill="#63b8ff" stroke="#63b8ff" points="546.5,-65.28 550,-75.28 553.5,-65.28 546.5,-65.28"/>
</g>
</g>
</svg>
