<?xml version="1.0" encoding="UTF-8" standalone="no"?>
<!DOCTYPE svg PUBLIC "-//W3C//DTD SVG 1.1//EN"
 "http://www.w3.org/Graphics/SVG/1.1/DTD/svg11.dtd">
<!-- Generated by graphviz version 7.0.5 (20221223.1930)
 -->
<!-- Title: src/Interfaces/log/logmethods.cpp Pages: 1 -->
<svg width="222pt" height="148pt"
 viewBox="0.00 0.00 222.00 148.00" xmlns="http://www.w3.org/2000/svg" xmlns:xlink="http://www.w3.org/1999/xlink">
<g id="graph0" class="graph" transform="scale(1 1) rotate(0) translate(4 144)">
<title>src/Interfaces/log/logmethods.cpp</title>
<!-- Node1 -->
<g id="node1" class="node">
<title>Node1</title>
<g id="a_node1"><a xlink:title=" ">
<polygon fill="#999999" stroke="#666666" points="158,-140 66,-140 66,-110 158,-110 158,-140"/>
<text text-anchor="start" x="74" y="-128" font-family="Helvetica,sans-Serif" font-size="10.00">src/Interfaces/log</text>
<text text-anchor="middle" x="112" y="-117" font-family="Helvetica,sans-Serif" font-size="10.00">/logmethods.cpp</text>
</a>
</g>
</g>
<!-- Node2 -->
<g id="node2" class="node">
<title>Node2</title>
<g id="a_node2"><a xlink:href="interfaceslib_8h.html" target="_top" xlink:title=" ">
<polygon fill="white" stroke="#666666" points="84,-74 0,-74 0,-55 84,-55 84,-74"/>
<text text-anchor="middle" x="42" y="-62" font-family="Helvetica,sans-Serif" font-size="10.00">../interfaceslib.h</text>
</a>
</g>
</g>
<!-- Node1&#45;&gt;Node2 -->
<g id="edge1" class="edge">
<title>Node1&#45;&gt;Node2</title>
<path fill="none" stroke="#63b8ff" d="M94.7,-109.54C84.53,-101.04 71.66,-90.29 61.18,-81.53"/>
<polygon fill="#63b8ff" stroke="#63b8ff" points="63.46,-78.87 53.54,-75.15 58.97,-84.24 63.46,-78.87"/>
</g>
<!-- Node3 -->
<g id="node3" class="node">
<title>Node3</title>
<g id="a_node3"><a xlink:href="log_8h.html" target="_top" xlink:title=" ">
<polygon fill="white" stroke="#666666" points="162.5,-19 125.5,-19 125.5,0 162.5,0 162.5,-19"/>
<text text-anchor="middle" x="144" y="-7" font-family="Helvetica,sans-Serif" font-size="10.00">log.h</text>
</a>
</g>
</g>
<!-- Node1&#45;&gt;Node3 -->
<g id="edge2" class="edge">
<title>Node1&#45;&gt;Node3</title>
<path fill="none" stroke="#63b8ff" d="M115.87,-109.71C119.66,-95.74 125.64,-73.89 131,-55 133.31,-46.87 135.91,-37.92 138.17,-30.2"/>
<polygon fill="#63b8ff" stroke="#63b8ff" points="141.47,-31.39 140.94,-20.81 134.76,-29.41 141.47,-31.39"/>
</g>
<!-- Node4 -->
<g id="node4" class="node">
<title>Node4</title>
<g id="a_node4"><a xlink:href="standardlog_8h.html" target="_top" xlink:title=" ">
<polygon fill="white" stroke="#666666" points="214,-74 140,-74 140,-55 214,-55 214,-74"/>
<text text-anchor="middle" x="177" y="-62" font-family="Helvetica,sans-Serif" font-size="10.00">standardlog.h</text>
</a>
</g>
</g>
<!-- Node1&#45;&gt;Node4 -->
<g id="edge3" class="edge">
<title>Node1&#45;&gt;Node4</title>
<path fill="none" stroke="#63b8ff" d="M128.07,-109.54C137.41,-101.13 149.22,-90.51 158.89,-81.8"/>
<polygon fill="#63b8ff" stroke="#63b8ff" points="161.14,-84.48 166.24,-75.19 156.46,-79.28 161.14,-84.48"/>
</g>
<!-- Node4&#45;&gt;Node3 -->
<g id="edge4" class="edge">
<title>Node4&#45;&gt;Node3</title>
<path fill="none" stroke="#63b8ff" d="M171.55,-54.75C167.23,-47.81 161.04,-37.86 155.62,-29.16"/>
<polygon fill="#63b8ff" stroke="#63b8ff" points="158.62,-27.37 150.37,-20.73 152.68,-31.07 158.62,-27.37"/>
</g>
</g>
</svg>
