<?xml version="1.0" encoding="UTF-8" standalone="no"?>
<!DOCTYPE svg PUBLIC "-//W3C//DTD SVG 1.1//EN"
 "http://www.w3.org/Graphics/SVG/1.1/DTD/svg11.dtd">
<!-- Generated by graphviz version 7.0.5 (20221223.1930)
 -->
<!-- Title: src/Interfaces/log/logmethods.h Pages: 1 -->
<svg width="100pt" height="258pt"
 viewBox="0.00 0.00 100.00 258.00" xmlns="http://www.w3.org/2000/svg" xmlns:xlink="http://www.w3.org/1999/xlink">
<g id="graph0" class="graph" transform="scale(1 1) rotate(0) translate(4 254)">
<title>src/Interfaces/log/logmethods.h</title>
<!-- Node1 -->
<g id="node1" class="node">
<title>Node1</title>
<g id="a_node1"><a xlink:title=" ">
<polygon fill="#999999" stroke="#666666" points="92,-250 0,-250 0,-220 92,-220 92,-250"/>
<text text-anchor="start" x="8" y="-238" font-family="Helvetica,sans-Serif" font-size="10.00">src/Interfaces/log</text>
<text text-anchor="middle" x="46" y="-227" font-family="Helvetica,sans-Serif" font-size="10.00">/logmethods.h</text>
</a>
</g>
</g>
<!-- Node2 -->
<g id="node2" class="node">
<title>Node2</title>
<g id="a_node2"><a xlink:href="messagetype_8h.html" target="_top" xlink:title=" ">
<polygon fill="white" stroke="#666666" points="87,-184 5,-184 5,-165 87,-165 87,-184"/>
<text text-anchor="middle" x="46" y="-172" font-family="Helvetica,sans-Serif" font-size="10.00">messagetype.h</text>
</a>
</g>
</g>
<!-- Node1&#45;&gt;Node2 -->
<g id="edge1" class="edge">
<title>Node1&#45;&gt;Node2</title>
<path fill="none" stroke="#63b8ff" d="M46,-219.54C46,-212.34 46,-203.53 46,-195.68"/>
<polygon fill="#63b8ff" stroke="#63b8ff" points="49.5,-195.69 46,-185.69 42.5,-195.69 49.5,-195.69"/>
</g>
<!-- Node3 -->
<g id="node3" class="node">
<title>Node3</title>
<g id="a_node3"><a xlink:href="enum_8h.html" target="_top" xlink:title=" ">
<polygon fill="white" stroke="#666666" points="88.5,-129 3.5,-129 3.5,-110 88.5,-110 88.5,-129"/>
<text text-anchor="middle" x="46" y="-117" font-family="Helvetica,sans-Serif" font-size="10.00">Generic/enum.h</text>
</a>
</g>
</g>
<!-- Node2&#45;&gt;Node3 -->
<g id="edge2" class="edge">
<title>Node2&#45;&gt;Node3</title>
<path fill="none" stroke="#63b8ff" d="M46,-164.75C46,-158.27 46,-149.16 46,-140.9"/>
<polygon fill="#63b8ff" stroke="#63b8ff" points="49.5,-140.96 46,-130.96 42.5,-140.96 49.5,-140.96"/>
</g>
<!-- Node4 -->
<g id="node4" class="node">
<title>Node4</title>
<g id="a_node4"><a xlink:href="array_8h.html" target="_top" xlink:title=" ">
<polygon fill="white" stroke="#666666" points="78,-74 14,-74 14,-55 78,-55 78,-74"/>
<text text-anchor="middle" x="46" y="-62" font-family="Helvetica,sans-Serif" font-size="10.00">bits/array.h</text>
</a>
</g>
</g>
<!-- Node3&#45;&gt;Node4 -->
<g id="edge3" class="edge">
<title>Node3&#45;&gt;Node4</title>
<path fill="none" stroke="#63b8ff" d="M46,-109.75C46,-103.27 46,-94.16 46,-85.9"/>
<polygon fill="#63b8ff" stroke="#63b8ff" points="49.5,-85.96 46,-75.96 42.5,-85.96 49.5,-85.96"/>
</g>
<!-- Node5 -->
<g id="node5" class="node">
<title>Node5</title>
<g id="a_node5"><a xlink:href="types_8h.html" target="_top" xlink:title=" ">
<polygon fill="white" stroke="#666666" points="69.5,-19 22.5,-19 22.5,0 69.5,0 69.5,-19"/>
<text text-anchor="middle" x="46" y="-7" font-family="Helvetica,sans-Serif" font-size="10.00">types.h</text>
</a>
</g>
</g>
<!-- Node4&#45;&gt;Node5 -->
<g id="edge4" class="edge">
<title>Node4&#45;&gt;Node5</title>
<path fill="none" stroke="#63b8ff" d="M46,-54.75C46,-48.27 46,-39.16 46,-30.9"/>
<polygon fill="#63b8ff" stroke="#63b8ff" points="49.5,-30.96 46,-20.96 42.5,-30.96 49.5,-30.96"/>
</g>
</g>
</svg>
