<?xml version="1.0" encoding="UTF-8" standalone="no"?>
<!DOCTYPE svg PUBLIC "-//W3C//DTD SVG 1.1//EN"
 "http://www.w3.org/Graphics/SVG/1.1/DTD/svg11.dtd">
<!-- Generated by graphviz version 7.0.5 (20221223.1930)
 -->
<!-- Title: plugins/client/api/src/Madgine/window/mainwindowcomponentcollector.h Pages: 1 -->
<!--zoomable 280 -->
<svg id="main" version="1.1" xmlns="http://www.w3.org/2000/svg" xmlns:xlink="http://www.w3.org/1999/xlink" xml:space="preserve" onload="init(evt)">
<style type="text/css"><![CDATA[
.edge:hover path { stroke: red; }
.edge:hover polygon { stroke: red; fill: red; }
]]></style>
<script type="text/javascript"><![CDATA[
var edges = document.getElementsByTagName('g');
if (edges && edges.length) {
  for (var i=0;i<edges.length;i++) {
    if (edges[i].id.substr(0,4)=='edge') {
      edges[i].setAttribute('class','edge');
    }
  }
}
]]></script>
        <defs>
                <circle id="rim" cx="0" cy="0" r="7"/>
                <circle id="rim2" cx="0" cy="0" r="3.5"/>
                <g id="zoomPlus">
                        <use xlink:href="#rim" fill="#404040">
                                <set attributeName="fill" to="#808080" begin="zoomplus.mouseover" end="zoomplus.mouseout"/>
                        </use>
                        <path d="M-4,0h8M0,-4v8" fill="none" stroke="white" stroke-width="1.5" pointer-events="none"/>
                </g>
                <g id="zoomMin">
                        <use xlink:href="#rim" fill="#404040">
                                <set attributeName="fill" to="#808080" begin="zoomminus.mouseover" end="zoomminus.mouseout"/>
                        </use>
                        <path d="M-4,0h8" fill="none" stroke="white" stroke-width="1.5" pointer-events="none"/>
                </g>
                <g id="dirArrow">
                        <path fill="none" stroke="white" stroke-width="1.5" d="M0,-3.0v7 M-2.5,-0.5L0,-3.0L2.5,-0.5"/>
                </g>
               <g id="resetDef">
                       <use xlink:href="#rim2" fill="#404040">
                               <set attributeName="fill" to="#808080" begin="reset.mouseover" end="reset.mouseout"/>
                       </use>
               </g>
        </defs>

<script type="text/javascript">
var viewWidth = 4358;
var viewHeight = 280;
var sectionId = 'dynsection-1';
</script>
<script xlink:href="svgpan.js"/>
<svg id="graph" class="graph">
<g id="viewport">
<title>plugins/client/api/src/Madgine/window/mainwindowcomponentcollector.h</title>
<!-- Node1 -->
<g id="node1" class="node">
<title>Node1</title>
<g id="a_node1"><a xlink:title=" ">
<polygon fill="#999999" stroke="#666666" points="2512.5,-272 2346.5,-272 2346.5,-231 2512.5,-231 2512.5,-272"/>
<text text-anchor="start" x="2354.5" y="-260" font-family="Helvetica,sans-Serif" font-size="10.00">plugins/client/api</text>
<text text-anchor="start" x="2354.5" y="-249" font-family="Helvetica,sans-Serif" font-size="10.00">/src/Madgine/window</text>
<text text-anchor="middle" x="2429.5" y="-238" font-family="Helvetica,sans-Serif" font-size="10.00">/mainwindowcomponentcollector.h</text>
</a>
</g>
</g>
<!-- Node2 -->
<g id="node2" class="node">
<title>Node2</title>
<g id="a_node2"><a xlink:href="mainwindow_8h.html" target="_top" xlink:title=" ">
<polygon fill="white" stroke="#666666" points="1273,-195 1164,-195 1164,-154 1273,-154 1273,-195"/>
<text text-anchor="start" x="1172" y="-183" font-family="Helvetica,sans-Serif" font-size="10.00">plugins/client/api</text>
<text text-anchor="start" x="1172" y="-172" font-family="Helvetica,sans-Serif" font-size="10.00">/src/Madgine/window</text>
<text text-anchor="middle" x="1218.5" y="-161" font-family="Helvetica,sans-Serif" font-size="10.00">/mainwindow.h</text>
</a>
</g>
</g>
<!-- Node1&#45;&gt;Node2 -->
<g id="edge1" class="edge">
<title>Node1&#45;&gt;Node2</title>
<path fill="none" stroke="#63b8ff" d="M2335.1,-244.65C2094.33,-229.74 1463.01,-190.64 1273.23,-178.89"/>
<polygon fill="#63b8ff" stroke="#63b8ff" points="2334.56,-248.13 2344.75,-245.25 2334.99,-241.14 2334.56,-248.13"/>
</g>
<!-- Node18 -->
<g id="node18" class="node">
<title>Node18</title>
<g id="a_node18"><a xlink:href="mainwindowcomponentcollector_8cpp.html" target="_top" xlink:title=" ">
<polygon fill="white" stroke="#666666" points="3319.5,-195 3143.5,-195 3143.5,-154 3319.5,-154 3319.5,-195"/>
<text text-anchor="start" x="3151.5" y="-183" font-family="Helvetica,sans-Serif" font-size="10.00">plugins/client/api</text>
<text text-anchor="start" x="3151.5" y="-172" font-family="Helvetica,sans-Serif" font-size="10.00">/src/Madgine/window</text>
<text text-anchor="middle" x="3231.5" y="-161" font-family="Helvetica,sans-Serif" font-size="10.00">/mainwindowcomponentcollector.cpp</text>
</a>
</g>
</g>
<!-- Node1&#45;&gt;Node18 -->
<g id="edge17" class="edge">
<title>Node1&#45;&gt;Node18</title>
<path fill="none" stroke="#63b8ff" d="M2524.02,-246.66C2659.67,-240.34 2917.17,-225.29 3134.5,-195 3137.31,-194.61 3140.16,-194.19 3143.03,-193.74"/>
<polygon fill="#63b8ff" stroke="#63b8ff" points="2524.22,-243.15 2514.39,-247.1 2524.54,-250.14 2524.22,-243.15"/>
</g>
<!-- Node19 -->
<g id="node19" class="node">
<title>Node19</title>
<g id="a_node19"><a xlink:href="scenemainwindowcomponent_8h.html" target="_top" xlink:title=" ">
<polygon fill="white" stroke="#666666" points="1791,-195 1636,-195 1636,-154 1791,-154 1791,-195"/>
<text text-anchor="start" x="1644" y="-183" font-family="Helvetica,sans-Serif" font-size="10.00">plugins/misc/scene</text>
<text text-anchor="start" x="1644" y="-172" font-family="Helvetica,sans-Serif" font-size="10.00">/renderer/Madgine/render</text>
<text text-anchor="middle" x="1713.5" y="-161" font-family="Helvetica,sans-Serif" font-size="10.00">/scenemainwindowcomponent.h</text>
</a>
</g>
</g>
<!-- Node1&#45;&gt;Node19 -->
<g id="edge18" class="edge">
<title>Node1&#45;&gt;Node19</title>
<path fill="none" stroke="#63b8ff" d="M2334.99,-240.6C2192.11,-225.63 1923.79,-197.53 1791.42,-183.66"/>
<polygon fill="#63b8ff" stroke="#63b8ff" points="2334.5,-244.07 2344.81,-241.63 2335.23,-237.11 2334.5,-244.07"/>
</g>
<!-- Node23 -->
<g id="node23" class="node">
<title>Node23</title>
<g id="a_node23"><a xlink:href="widgetmanager_8h.html" target="_top" xlink:title=" ">
<polygon fill="white" stroke="#666666" points="3125.5,-195 3015.5,-195 3015.5,-154 3125.5,-154 3125.5,-195"/>
<text text-anchor="start" x="3023.5" y="-183" font-family="Helvetica,sans-Serif" font-size="10.00">plugins/misc/widgets</text>
<text text-anchor="start" x="3023.5" y="-172" font-family="Helvetica,sans-Serif" font-size="10.00">/src/Madgine/widgets</text>
<text text-anchor="middle" x="3070.5" y="-161" font-family="Helvetica,sans-Serif" font-size="10.00">/widgetmanager.h</text>
</a>
</g>
</g>
<!-- Node1&#45;&gt;Node23 -->
<g id="edge26" class="edge">
<title>Node1&#45;&gt;Node23</title>
<path fill="none" stroke="#63b8ff" d="M2524.16,-239.42C2659.98,-223.53 2905.82,-194.77 3015.31,-181.96"/>
<polygon fill="#63b8ff" stroke="#63b8ff" points="2524,-235.92 2514.47,-240.56 2524.81,-242.87 2524,-235.92"/>
</g>
<!-- Node3 -->
<g id="node3" class="node">
<title>Node3</title>
<g id="a_node3"><a xlink:href="handler_8cpp.html" target="_top" xlink:title=" ">
<polygon fill="white" stroke="#666666" points="854,-112.5 729,-112.5 729,-82.5 854,-82.5 854,-112.5"/>
<text text-anchor="start" x="737" y="-100.5" font-family="Helvetica,sans-Serif" font-size="10.00">plugins/behavior/handler</text>
<text text-anchor="middle" x="791.5" y="-89.5" font-family="Helvetica,sans-Serif" font-size="10.00">/src/Madgine/handler.cpp</text>
</a>
</g>
</g>
<!-- Node2&#45;&gt;Node3 -->
<g id="edge2" class="edge">
<title>Node2&#45;&gt;Node3</title>
<path fill="none" stroke="#63b8ff" d="M1152.45,-165.48C1080.66,-156.24 962.79,-139.52 862.5,-118 855.63,-116.53 848.43,-114.78 841.36,-112.96"/>
<polygon fill="#63b8ff" stroke="#63b8ff" points="1151.7,-168.92 1162.06,-166.71 1152.58,-161.97 1151.7,-168.92"/>
</g>
<!-- Node4 -->
<g id="node4" class="node">
<title>Node4</title>
<g id="a_node4"><a xlink:href="handlermanager_8cpp.html" target="_top" xlink:title=" ">
<polygon fill="white" stroke="#666666" points="1035,-112.5 872,-112.5 872,-82.5 1035,-82.5 1035,-112.5"/>
<text text-anchor="start" x="880" y="-100.5" font-family="Helvetica,sans-Serif" font-size="10.00">plugins/behavior/handler</text>
<text text-anchor="middle" x="953.5" y="-89.5" font-family="Helvetica,sans-Serif" font-size="10.00">/src/Madgine/handlermanager.cpp</text>
</a>
</g>
</g>
<!-- Node2&#45;&gt;Node4 -->
<g id="edge3" class="edge">
<title>Node2&#45;&gt;Node4</title>
<path fill="none" stroke="#63b8ff" d="M1152.56,-154.84C1106.69,-141.86 1046.45,-124.81 1004.3,-112.88"/>
<polygon fill="#63b8ff" stroke="#63b8ff" points="1151.56,-158.19 1162.14,-157.55 1153.47,-151.46 1151.56,-158.19"/>
</g>
<!-- Node5 -->
<g id="node5" class="node">
<title>Node5</title>
<g id="a_node5"><a xlink:href="layoutloader_8cpp.html" target="_top" xlink:title=" ">
<polygon fill="white" stroke="#666666" points="109,-118 0,-118 0,-77 109,-77 109,-118"/>
<text text-anchor="start" x="8" y="-106" font-family="Helvetica,sans-Serif" font-size="10.00">plugins/client/api</text>
<text text-anchor="start" x="8" y="-95" font-family="Helvetica,sans-Serif" font-size="10.00">/src/Madgine/window</text>
<text text-anchor="middle" x="54.5" y="-84" font-family="Helvetica,sans-Serif" font-size="10.00">/layoutloader.cpp</text>
</a>
</g>
</g>
<!-- Node2&#45;&gt;Node5 -->
<g id="edge4" class="edge">
<title>Node2&#45;&gt;Node5</title>
<path fill="none" stroke="#63b8ff" d="M1152.3,-172.33C946.24,-168.34 318.07,-153.52 117.5,-118 114.79,-117.52 112.04,-116.96 109.28,-116.34"/>
<polygon fill="#63b8ff" stroke="#63b8ff" points="1151.95,-175.82 1162.02,-172.51 1152.09,-168.82 1151.95,-175.82"/>
</g>
<!-- Node6 -->
<g id="node6" class="node">
<title>Node6</title>
<g id="a_node6"><a xlink:href="mainwindow_8cpp.html" target="_top" xlink:title=" ">
<polygon fill="white" stroke="#666666" points="236,-118 127,-118 127,-77 236,-77 236,-118"/>
<text text-anchor="start" x="135" y="-106" font-family="Helvetica,sans-Serif" font-size="10.00">plugins/client/api</text>
<text text-anchor="start" x="135" y="-95" font-family="Helvetica,sans-Serif" font-size="10.00">/src/Madgine/window</text>
<text text-anchor="middle" x="181.5" y="-84" font-family="Helvetica,sans-Serif" font-size="10.00">/mainwindow.cpp</text>
</a>
</g>
</g>
<!-- Node2&#45;&gt;Node6 -->
<g id="edge5" class="edge">
<title>Node2&#45;&gt;Node6</title>
<path fill="none" stroke="#63b8ff" d="M1152.09,-171.78C962.36,-166.52 420.28,-149.15 245.5,-118 242.53,-117.47 239.5,-116.85 236.45,-116.15"/>
<polygon fill="#63b8ff" stroke="#63b8ff" points="1151.94,-175.27 1162.03,-172.05 1152.13,-168.28 1151.94,-175.27"/>
</g>
<!-- Node7 -->
<g id="node7" class="node">
<title>Node7</title>
<g id="a_node7"><a xlink:href="mainwindowcomponent_8cpp.html" target="_top" xlink:title=" ">
<polygon fill="white" stroke="#666666" points="394.5,-118 254.5,-118 254.5,-77 394.5,-77 394.5,-118"/>
<text text-anchor="start" x="262.5" y="-106" font-family="Helvetica,sans-Serif" font-size="10.00">plugins/client/api</text>
<text text-anchor="start" x="262.5" y="-95" font-family="Helvetica,sans-Serif" font-size="10.00">/src/Madgine/window</text>
<text text-anchor="middle" x="324.5" y="-84" font-family="Helvetica,sans-Serif" font-size="10.00">/mainwindowcomponent.cpp</text>
</a>
</g>
</g>
<!-- Node2&#45;&gt;Node7 -->
<g id="edge6" class="edge">
<title>Node2&#45;&gt;Node7</title>
<path fill="none" stroke="#63b8ff" d="M1152.49,-172.89C1013.24,-170.74 679.49,-161.12 403.5,-118 400.57,-117.54 397.59,-117.03 394.58,-116.47"/>
<polygon fill="#63b8ff" stroke="#63b8ff" points="1152.21,-176.38 1162.26,-173.03 1152.31,-169.38 1152.21,-176.38"/>
</g>
<!-- Node8 -->
<g id="node8" class="node">
<title>Node8</title>
<g id="a_node8"><a xlink:href="toolwindow_8cpp.html" target="_top" xlink:title=" ">
<polygon fill="white" stroke="#666666" points="522,-118 413,-118 413,-77 522,-77 522,-118"/>
<text text-anchor="start" x="421" y="-106" font-family="Helvetica,sans-Serif" font-size="10.00">plugins/client/api</text>
<text text-anchor="start" x="421" y="-95" font-family="Helvetica,sans-Serif" font-size="10.00">/src/Madgine/window</text>
<text text-anchor="middle" x="467.5" y="-84" font-family="Helvetica,sans-Serif" font-size="10.00">/toolwindow.cpp</text>
</a>
</g>
</g>
<!-- Node2&#45;&gt;Node8 -->
<g id="edge7" class="edge">
<title>Node2&#45;&gt;Node8</title>
<path fill="none" stroke="#63b8ff" d="M1152.18,-172.86C1028.87,-170.64 756.4,-160.83 531.5,-118 528.53,-117.44 525.51,-116.78 522.47,-116.07"/>
<polygon fill="#63b8ff" stroke="#63b8ff" points="1152.07,-176.36 1162.13,-173.03 1152.19,-169.36 1152.07,-176.36"/>
</g>
<!-- Node9 -->
<g id="node9" class="node">
<title>Node9</title>
<g id="a_node9"><a xlink:href="litscenerenderdata_8cpp.html" target="_top" xlink:title=" ">
<polygon fill="white" stroke="#666666" points="1363,-118 1238,-118 1238,-77 1363,-77 1363,-118"/>
<text text-anchor="start" x="1246" y="-106" font-family="Helvetica,sans-Serif" font-size="10.00">plugins/misc/scene</text>
<text text-anchor="start" x="1246" y="-95" font-family="Helvetica,sans-Serif" font-size="10.00">/renderer/Madgine/render</text>
<text text-anchor="middle" x="1300.5" y="-84" font-family="Helvetica,sans-Serif" font-size="10.00">/litscenerenderdata.cpp</text>
</a>
</g>
</g>
<!-- Node2&#45;&gt;Node9 -->
<g id="edge8" class="edge">
<title>Node2&#45;&gt;Node9</title>
<path fill="none" stroke="#63b8ff" d="M1248.24,-146.29C1258.35,-137.05 1269.46,-126.89 1278.81,-118.33"/>
<polygon fill="#63b8ff" stroke="#63b8ff" points="1246.18,-143.44 1241.16,-152.77 1250.9,-148.61 1246.18,-143.44"/>
</g>
<!-- Node10 -->
<g id="node10" class="node">
<title>Node10</title>
<g id="a_node10"><a xlink:href="scenemainwindowcomponent_8cpp.html" target="_top" xlink:title=" ">
<polygon fill="white" stroke="#666666" points="1547.5,-118 1381.5,-118 1381.5,-77 1547.5,-77 1547.5,-118"/>
<text text-anchor="start" x="1389.5" y="-106" font-family="Helvetica,sans-Serif" font-size="10.00">plugins/misc/scene</text>
<text text-anchor="start" x="1389.5" y="-95" font-family="Helvetica,sans-Serif" font-size="10.00">/renderer/Madgine/render</text>
<text text-anchor="middle" x="1464.5" y="-84" font-family="Helvetica,sans-Serif" font-size="10.00">/scenemainwindowcomponent.cpp</text>
</a>
</g>
</g>
<!-- Node2&#45;&gt;Node10 -->
<g id="edge9" class="edge">
<title>Node2&#45;&gt;Node10</title>
<path fill="none" stroke="#63b8ff" d="M1284.18,-153.48C1319.82,-142.61 1363.73,-129.22 1399.29,-118.38"/>
<polygon fill="#63b8ff" stroke="#63b8ff" points="1283.39,-150.06 1274.85,-156.32 1285.43,-156.75 1283.39,-150.06"/>
</g>
<!-- Node11 -->
<g id="node11" class="node">
<title>Node11</title>
<g id="a_node11"><a xlink:href="shadowscenerenderdata_8cpp.html" target="_top" xlink:title=" ">
<polygon fill="white" stroke="#666666" points="1709,-118 1566,-118 1566,-77 1709,-77 1709,-118"/>
<text text-anchor="start" x="1574" y="-106" font-family="Helvetica,sans-Serif" font-size="10.00">plugins/misc/scene</text>
<text text-anchor="start" x="1574" y="-95" font-family="Helvetica,sans-Serif" font-size="10.00">/renderer/Madgine/render</text>
<text text-anchor="middle" x="1637.5" y="-84" font-family="Helvetica,sans-Serif" font-size="10.00">/shadowscenerenderdata.cpp</text>
</a>
</g>
</g>
<!-- Node2&#45;&gt;Node11 -->
<g id="edge10" class="edge">
<title>Node2&#45;&gt;Node11</title>
<path fill="none" stroke="#63b8ff" d="M1284.48,-164.13C1352.79,-154.09 1462.5,-137.01 1556.5,-118 1559.48,-117.4 1562.51,-116.76 1565.57,-116.11"/>
<polygon fill="#63b8ff" stroke="#63b8ff" points="1284.35,-160.61 1274.96,-165.52 1285.36,-167.54 1284.35,-160.61"/>
</g>
<!-- Node12 -->
<g id="node12" class="node">
<title>Node12</title>
<g id="a_node12"><a xlink:href="sceneeditor_8cpp.html" target="_top" xlink:title=" ">
<polygon fill="white" stroke="#666666" points="710.5,-118 540.5,-118 540.5,-77 710.5,-77 710.5,-118"/>
<text text-anchor="start" x="548.5" y="-106" font-family="Helvetica,sans-Serif" font-size="10.00">plugins/misc/scene</text>
<text text-anchor="start" x="548.5" y="-95" font-family="Helvetica,sans-Serif" font-size="10.00">/renderer_tools/Madgine</text>
<text text-anchor="middle" x="625.5" y="-84" font-family="Helvetica,sans-Serif" font-size="10.00">_Tools/sceneeditor/sceneeditor.cpp</text>
</a>
</g>
</g>
<!-- Node2&#45;&gt;Node12 -->
<g id="edge11" class="edge">
<title>Node2&#45;&gt;Node12</title>
<path fill="none" stroke="#63b8ff" d="M1152.39,-168.14C1056.6,-159.91 873.78,-142.53 719.5,-118 716.7,-117.56 713.86,-117.08 710.99,-116.59"/>
<polygon fill="#63b8ff" stroke="#63b8ff" points="1151.87,-171.6 1162.13,-168.96 1152.46,-164.63 1151.87,-171.6"/>
</g>
<!-- Node13 -->
<g id="node13" class="node">
<title>Node13</title>
<g id="a_node13"><a xlink:href="sceneview_8cpp.html" target="_top" xlink:title=" ">
<polygon fill="white" stroke="#666666" points="1220,-118 1053,-118 1053,-77 1220,-77 1220,-118"/>
<text text-anchor="start" x="1061" y="-106" font-family="Helvetica,sans-Serif" font-size="10.00">plugins/misc/scene</text>
<text text-anchor="start" x="1061" y="-95" font-family="Helvetica,sans-Serif" font-size="10.00">/renderer_tools/Madgine</text>
<text text-anchor="middle" x="1136.5" y="-84" font-family="Helvetica,sans-Serif" font-size="10.00">_Tools/sceneeditor/sceneview.cpp</text>
</a>
</g>
</g>
<!-- Node2&#45;&gt;Node13 -->
<g id="edge12" class="edge">
<title>Node2&#45;&gt;Node13</title>
<path fill="none" stroke="#63b8ff" d="M1188.76,-146.29C1178.65,-137.05 1167.54,-126.89 1158.19,-118.33"/>
<polygon fill="#63b8ff" stroke="#63b8ff" points="1186.1,-148.61 1195.84,-152.77 1190.82,-143.44 1186.1,-148.61"/>
</g>
<!-- Node14 -->
<g id="node14" class="node">
<title>Node14</title>
<g id="a_node14"><a xlink:href="widgethandler_8cpp.html" target="_top" xlink:title=" ">
<polygon fill="white" stroke="#666666" points="2141.5,-118 2013.5,-118 2013.5,-77 2141.5,-77 2141.5,-118"/>
<text text-anchor="start" x="2021.5" y="-106" font-family="Helvetica,sans-Serif" font-size="10.00">plugins/misc/widgets</text>
<text text-anchor="start" x="2021.5" y="-95" font-family="Helvetica,sans-Serif" font-size="10.00">/handler/Madgine/widgets</text>
<text text-anchor="middle" x="2077.5" y="-84" font-family="Helvetica,sans-Serif" font-size="10.00">/widgethandler.cpp</text>
</a>
</g>
</g>
<!-- Node2&#45;&gt;Node14 -->
<g id="edge13" class="edge">
<title>Node2&#45;&gt;Node14</title>
<path fill="none" stroke="#63b8ff" d="M1284.75,-170.45C1448.06,-162.67 1866.65,-141.06 2004.5,-118 2007.35,-117.52 2010.24,-116.99 2013.16,-116.4"/>
<polygon fill="#63b8ff" stroke="#63b8ff" points="1284.78,-166.94 1274.95,-170.91 1285.11,-173.94 1284.78,-166.94"/>
</g>
<!-- Node15 -->
<g id="node15" class="node">
<title>Node15</title>
<g id="a_node15"><a xlink:href="atlasloader_8cpp.html" target="_top" xlink:title=" ">
<polygon fill="white" stroke="#666666" points="2269.5,-118 2159.5,-118 2159.5,-77 2269.5,-77 2269.5,-118"/>
<text text-anchor="start" x="2167.5" y="-106" font-family="Helvetica,sans-Serif" font-size="10.00">plugins/misc/widgets</text>
<text text-anchor="start" x="2167.5" y="-95" font-family="Helvetica,sans-Serif" font-size="10.00">/src/Madgine/widgets</text>
<text text-anchor="middle" x="2214.5" y="-84" font-family="Helvetica,sans-Serif" font-size="10.00">/atlasloader.cpp</text>
</a>
</g>
</g>
<!-- Node2&#45;&gt;Node15 -->
<g id="edge14" class="edge">
<title>Node2&#45;&gt;Node15</title>
<path fill="none" stroke="#63b8ff" d="M1284.75,-170.46C1483.48,-161.22 2066.03,-133.16 2150.5,-118 2153.36,-117.49 2156.27,-116.89 2159.19,-116.23"/>
<polygon fill="#63b8ff" stroke="#63b8ff" points="1284.68,-166.96 1274.85,-170.92 1285,-173.95 1284.68,-166.96"/>
</g>
<!-- Node16 -->
<g id="node16" class="node">
<title>Node16</title>
<g id="a_node16"><a xlink:href="tempwidget_8cpp.html" target="_top" xlink:title=" ">
<polygon fill="white" stroke="#666666" points="2415.5,-118 2287.5,-118 2287.5,-77 2415.5,-77 2415.5,-118"/>
<text text-anchor="start" x="2295.5" y="-106" font-family="Helvetica,sans-Serif" font-size="10.00">plugins/misc/widgets</text>
<text text-anchor="start" x="2295.5" y="-95" font-family="Helvetica,sans-Serif" font-size="10.00">/src/Madgine/widgets</text>
<text text-anchor="middle" x="2351.5" y="-84" font-family="Helvetica,sans-Serif" font-size="10.00">/behavior/tempwidget.cpp</text>
</a>
</g>
</g>
<!-- Node2&#45;&gt;Node16 -->
<g id="edge15" class="edge">
<title>Node2&#45;&gt;Node16</title>
<path fill="none" stroke="#63b8ff" d="M1284.71,-170.22C1512.87,-158.89 2253.87,-121.89 2278.5,-118 2281.35,-117.55 2284.25,-117.03 2287.17,-116.46"/>
<polygon fill="#63b8ff" stroke="#63b8ff" points="1284.6,-166.72 1274.79,-170.71 1284.95,-173.71 1284.6,-166.72"/>
</g>
<!-- Node17 -->
<g id="node17" class="node">
<title>Node17</title>
<g id="a_node17"><a xlink:href="widgetmanager_8cpp.html" target="_top" xlink:title=" ">
<polygon fill="white" stroke="#666666" points="2543.5,-118 2433.5,-118 2433.5,-77 2543.5,-77 2543.5,-118"/>
<text text-anchor="start" x="2441.5" y="-106" font-family="Helvetica,sans-Serif" font-size="10.00">plugins/misc/widgets</text>
<text text-anchor="start" x="2441.5" y="-95" font-family="Helvetica,sans-Serif" font-size="10.00">/src/Madgine/widgets</text>
<text text-anchor="middle" x="2488.5" y="-84" font-family="Helvetica,sans-Serif" font-size="10.00">/widgetmanager.cpp</text>
</a>
</g>
</g>
<!-- Node2&#45;&gt;Node17 -->
<g id="edge16" class="edge">
<title>Node2&#45;&gt;Node17</title>
<path fill="none" stroke="#63b8ff" d="M1284.9,-170.28C1365.81,-166.37 1506.69,-159.61 1627.5,-154 1981.7,-137.56 2075.05,-178.14 2424.5,-118 2427.36,-117.51 2430.27,-116.93 2433.2,-116.28"/>
<polygon fill="#63b8ff" stroke="#63b8ff" points="1284.74,-166.79 1274.92,-170.77 1285.08,-173.78 1284.74,-166.79"/>
</g>
<!-- Node19&#45;&gt;Node9 -->
<g id="edge19" class="edge">
<title>Node19&#45;&gt;Node9</title>
<path fill="none" stroke="#63b8ff" d="M1624.28,-161.55C1555.2,-151.68 1457.33,-136.34 1372.5,-118 1369.46,-117.34 1366.36,-116.64 1363.24,-115.9"/>
<polygon fill="#63b8ff" stroke="#63b8ff" points="1623.65,-164.99 1634.04,-162.93 1624.63,-158.06 1623.65,-164.99"/>
</g>
<!-- Node19&#45;&gt;Node10 -->
<g id="edge21" class="edge">
<title>Node19&#45;&gt;Node10</title>
<path fill="none" stroke="#63b8ff" d="M1636.65,-150.35C1602.8,-140.16 1563.43,-128.3 1530.88,-118.49"/>
<polygon fill="#63b8ff" stroke="#63b8ff" points="1635.39,-153.63 1645.98,-153.16 1637.41,-146.93 1635.39,-153.63"/>
</g>
<!-- Node19&#45;&gt;Node11 -->
<g id="edge24" class="edge">
<title>Node19&#45;&gt;Node11</title>
<path fill="none" stroke="#63b8ff" d="M1685.37,-145.74C1676.15,-136.64 1666.1,-126.72 1657.6,-118.33"/>
<polygon fill="#63b8ff" stroke="#63b8ff" points="1682.88,-148.2 1692.45,-152.73 1687.8,-143.22 1682.88,-148.2"/>
</g>
<!-- Node19&#45;&gt;Node13 -->
<g id="edge25" class="edge">
<title>Node19&#45;&gt;Node13</title>
<path fill="none" stroke="#63b8ff" d="M1624.39,-165.77C1527.03,-156.75 1366.63,-140.19 1229.5,-118 1226.49,-117.51 1223.42,-116.99 1220.33,-116.45"/>
<polygon fill="#63b8ff" stroke="#63b8ff" points="1623.87,-169.24 1634.15,-166.67 1624.51,-162.27 1623.87,-169.24"/>
</g>
<!-- Node20 -->
<g id="node20" class="node">
<title>Node20</title>
<g id="a_node20"><a xlink:href="pointshadowrenderpass_8cpp.html" target="_top" xlink:title=" ">
<polygon fill="white" stroke="#666666" points="2701.5,-118 2561.5,-118 2561.5,-77 2701.5,-77 2701.5,-118"/>
<text text-anchor="start" x="2569.5" y="-106" font-family="Helvetica,sans-Serif" font-size="10.00">plugins/misc/scene</text>
<text text-anchor="start" x="2569.5" y="-95" font-family="Helvetica,sans-Serif" font-size="10.00">/renderer/Madgine/render</text>
<text text-anchor="middle" x="2631.5" y="-84" font-family="Helvetica,sans-Serif" font-size="10.00">/pointshadowrenderpass.cpp</text>
</a>
</g>
</g>
<!-- Node19&#45;&gt;Node20 -->
<g id="edge20" class="edge">
<title>Node19&#45;&gt;Node20</title>
<path fill="none" stroke="#63b8ff" d="M1802.43,-172.74C1956.22,-170.29 2281.42,-160.09 2552.5,-118 2555.43,-117.54 2558.41,-117.03 2561.42,-116.48"/>
<polygon fill="#63b8ff" stroke="#63b8ff" points="1802.67,-169.24 1792.72,-172.89 1802.78,-176.24 1802.67,-169.24"/>
</g>
<!-- Node21 -->
<g id="node21" class="node">
<title>Node21</title>
<g id="a_node21"><a xlink:href="scenerenderpass_8cpp.html" target="_top" xlink:title=" ">
<polygon fill="white" stroke="#666666" points="1852,-118 1727,-118 1727,-77 1852,-77 1852,-118"/>
<text text-anchor="start" x="1735" y="-106" font-family="Helvetica,sans-Serif" font-size="10.00">plugins/misc/scene</text>
<text text-anchor="start" x="1735" y="-95" font-family="Helvetica,sans-Serif" font-size="10.00">/renderer/Madgine/render</text>
<text text-anchor="middle" x="1789.5" y="-84" font-family="Helvetica,sans-Serif" font-size="10.00">/scenerenderpass.cpp</text>
</a>
</g>
</g>
<!-- Node19&#45;&gt;Node21 -->
<g id="edge22" class="edge">
<title>Node19&#45;&gt;Node21</title>
<path fill="none" stroke="#63b8ff" d="M1741.63,-145.74C1750.85,-136.64 1760.9,-126.72 1769.4,-118.33"/>
<polygon fill="#63b8ff" stroke="#63b8ff" points="1739.2,-143.22 1734.55,-152.73 1744.12,-148.2 1739.2,-143.22"/>
</g>
<!-- Node22 -->
<g id="node22" class="node">
<title>Node22</title>
<g id="a_node22"><a xlink:href="shadowrenderpass_8cpp.html" target="_top" xlink:title=" ">
<polygon fill="white" stroke="#666666" points="1995,-118 1870,-118 1870,-77 1995,-77 1995,-118"/>
<text text-anchor="start" x="1878" y="-106" font-family="Helvetica,sans-Serif" font-size="10.00">plugins/misc/scene</text>
<text text-anchor="start" x="1878" y="-95" font-family="Helvetica,sans-Serif" font-size="10.00">/renderer/Madgine/render</text>
<text text-anchor="middle" x="1932.5" y="-84" font-family="Helvetica,sans-Serif" font-size="10.00">/shadowrenderpass.cpp</text>
</a>
</g>
</g>
<!-- Node19&#45;&gt;Node22 -->
<g id="edge23" class="edge">
<title>Node19&#45;&gt;Node22</title>
<path fill="none" stroke="#63b8ff" d="M1782.25,-149.95C1811.76,-139.85 1845.86,-128.17 1874.12,-118.49"/>
<polygon fill="#63b8ff" stroke="#63b8ff" points="1781.37,-146.56 1773.04,-153.11 1783.64,-153.18 1781.37,-146.56"/>
</g>
<!-- Node23&#45;&gt;Node14 -->
<g id="edge27" class="edge">
<title>Node23&#45;&gt;Node14</title>
<path fill="none" stroke="#63b8ff" d="M3003.69,-174.04C2851.32,-174.28 2466.85,-169.26 2150.5,-118 2147.65,-117.54 2144.75,-117.01 2141.83,-116.44"/>
<polygon fill="#63b8ff" stroke="#63b8ff" points="3003.61,-177.54 3013.6,-174.02 3003.59,-170.54 3003.61,-177.54"/>
</g>
<!-- Node23&#45;&gt;Node15 -->
<g id="edge28" class="edge">
<title>Node23&#45;&gt;Node15</title>
<path fill="none" stroke="#63b8ff" d="M3003.72,-173.88C2866.6,-173.55 2543.88,-167.07 2278.5,-118 2275.64,-117.47 2272.74,-116.86 2269.81,-116.19"/>
<polygon fill="#63b8ff" stroke="#63b8ff" points="3003.71,-177.38 3013.72,-173.89 3003.72,-170.38 3003.71,-177.38"/>
</g>
<!-- Node23&#45;&gt;Node16 -->
<g id="edge30" class="edge">
<title>Node23&#45;&gt;Node16</title>
<path fill="none" stroke="#63b8ff" d="M3003.9,-171.62C2886.19,-167.45 2634.01,-154.69 2424.5,-118 2421.66,-117.5 2418.76,-116.95 2415.85,-116.34"/>
<polygon fill="#63b8ff" stroke="#63b8ff" points="3003.58,-175.11 3013.69,-171.96 3003.82,-168.12 3003.58,-175.11"/>
</g>
<!-- Node23&#45;&gt;Node17 -->
<g id="edge44" class="edge">
<title>Node23&#45;&gt;Node17</title>
<path fill="none" stroke="#63b8ff" d="M3003.81,-170.39C2904.58,-164.85 2712.55,-150.65 2552.5,-118 2549.65,-117.42 2546.75,-116.77 2543.84,-116.06"/>
<polygon fill="#63b8ff" stroke="#63b8ff" points="3003.47,-173.88 3013.65,-170.92 3003.85,-166.89 3003.47,-173.88"/>
</g>
<!-- Node24 -->
<g id="node24" class="node">
<title>Node24</title>
<g id="a_node24"><a xlink:href="bar_8cpp.html" target="_top" xlink:title=" ">
<polygon fill="white" stroke="#666666" points="4201.5,-118 4091.5,-118 4091.5,-77 4201.5,-77 4201.5,-118"/>
<text text-anchor="start" x="4099.5" y="-106" font-family="Helvetica,sans-Serif" font-size="10.00">plugins/misc/widgets</text>
<text text-anchor="start" x="4099.5" y="-95" font-family="Helvetica,sans-Serif" font-size="10.00">/src/Madgine/widgets</text>
<text text-anchor="middle" x="4146.5" y="-84" font-family="Helvetica,sans-Serif" font-size="10.00">/bar.cpp</text>
</a>
</g>
</g>
<!-- Node23&#45;&gt;Node24 -->
<g id="edge29" class="edge">
<title>Node23&#45;&gt;Node24</title>
<path fill="none" stroke="#63b8ff" d="M3136.92,-153.85C3552.35,-85.79 3670.37,-187.41 4082.5,-118 4085.36,-117.52 4088.28,-116.94 4091.21,-116.3"/>
<polygon fill="#63b8ff" stroke="#63b8ff" points="3136.58,-150.36 3127.29,-155.45 3137.73,-157.26 3136.58,-150.36"/>
</g>
<!-- Node25 -->
<g id="node25" class="node">
<title>Node25</title>
<g id="a_node25"><a xlink:href="widgetsenders_8cpp.html" target="_top" xlink:title=" ">
<polygon fill="white" stroke="#666666" points="3576.5,-41 3436.5,-41 3436.5,0 3576.5,0 3576.5,-41"/>
<text text-anchor="start" x="3444.5" y="-29" font-family="Helvetica,sans-Serif" font-size="10.00">plugins/misc/widgets</text>
<text text-anchor="start" x="3444.5" y="-18" font-family="Helvetica,sans-Serif" font-size="10.00">/src/Madgine/widgets</text>
<text text-anchor="middle" x="3506.5" y="-7" font-family="Helvetica,sans-Serif" font-size="10.00">/behavior/widgetsenders.cpp</text>
</a>
</g>
</g>
<!-- Node23&#45;&gt;Node25 -->
<g id="edge31" class="edge">
<title>Node23&#45;&gt;Node25</title>
<path fill="none" stroke="#63b8ff" d="M3003.55,-173.78C2888.53,-172.14 2672.73,-158.52 2748.5,-77 2794.73,-27.26 3256.83,-21.63 3436.02,-21.33"/>
<polygon fill="#63b8ff" stroke="#63b8ff" points="3003.47,-177.28 3013.51,-173.89 3003.55,-170.28 3003.47,-177.28"/>
</g>
<!-- Node26 -->
<g id="node26" class="node">
<title>Node26</title>
<g id="a_node26"><a xlink:href="widgetsenders_8h.html" target="_top" xlink:title=" ">
<polygon fill="white" stroke="#666666" points="4349.5,-118 4219.5,-118 4219.5,-77 4349.5,-77 4349.5,-118"/>
<text text-anchor="start" x="4227.5" y="-106" font-family="Helvetica,sans-Serif" font-size="10.00">plugins/misc/widgets</text>
<text text-anchor="start" x="4227.5" y="-95" font-family="Helvetica,sans-Serif" font-size="10.00">/src/Madgine/widgets</text>
<text text-anchor="middle" x="4284.5" y="-84" font-family="Helvetica,sans-Serif" font-size="10.00">/behavior/widgetsenders.h</text>
</a>
</g>
</g>
<!-- Node23&#45;&gt;Node26 -->
<g id="edge32" class="edge">
<title>Node23&#45;&gt;Node26</title>
<path fill="none" stroke="#63b8ff" d="M3136.99,-153.84C3608.58,-77.33 3740.77,-186.86 4210.5,-118 4213.39,-117.58 4216.33,-117.08 4219.29,-116.53"/>
<polygon fill="#63b8ff" stroke="#63b8ff" points="3136.58,-150.36 3127.28,-155.44 3137.72,-157.27 3136.58,-150.36"/>
</g>
<!-- Node27 -->
<g id="node27" class="node">
<title>Node27</title>
<g id="a_node27"><a xlink:href="button_8cpp.html" target="_top" xlink:title=" ">
<polygon fill="white" stroke="#666666" points="2867.5,-118 2757.5,-118 2757.5,-77 2867.5,-77 2867.5,-118"/>
<text text-anchor="start" x="2765.5" y="-106" font-family="Helvetica,sans-Serif" font-size="10.00">plugins/misc/widgets</text>
<text text-anchor="start" x="2765.5" y="-95" font-family="Helvetica,sans-Serif" font-size="10.00">/src/Madgine/widgets</text>
<text text-anchor="middle" x="2812.5" y="-84" font-family="Helvetica,sans-Serif" font-size="10.00">/button.cpp</text>
</a>
</g>
</g>
<!-- Node23&#45;&gt;Node27 -->
<g id="edge34" class="edge">
<title>Node23&#45;&gt;Node27</title>
<path fill="none" stroke="#63b8ff" d="M3004.4,-154.69C2967.1,-144.03 2919.67,-130.39 2877.5,-118 2874.33,-117.07 2871.08,-116.11 2867.81,-115.14"/>
<polygon fill="#63b8ff" stroke="#63b8ff" points="3003.1,-157.96 3013.67,-157.34 3005.02,-151.23 3003.1,-157.96"/>
</g>
<!-- Node28 -->
<g id="node28" class="node">
<title>Node28</title>
<g id="a_node28"><a xlink:href="compoundwidget_8cpp.html" target="_top" xlink:title=" ">
<polygon fill="white" stroke="#666666" points="2997,-118 2886,-118 2886,-77 2997,-77 2997,-118"/>
<text text-anchor="start" x="2894" y="-106" font-family="Helvetica,sans-Serif" font-size="10.00">plugins/misc/widgets</text>
<text text-anchor="start" x="2894" y="-95" font-family="Helvetica,sans-Serif" font-size="10.00">/src/Madgine/widgets</text>
<text text-anchor="middle" x="2941.5" y="-84" font-family="Helvetica,sans-Serif" font-size="10.00">/compoundwidget.cpp</text>
</a>
</g>
</g>
<!-- Node23&#45;&gt;Node28 -->
<g id="edge35" class="edge">
<title>Node23&#45;&gt;Node28</title>
<path fill="none" stroke="#63b8ff" d="M3026.77,-148.08C3010.17,-138.42 2991.51,-127.58 2975.89,-118.49"/>
<polygon fill="#63b8ff" stroke="#63b8ff" points="3024.56,-150.84 3034.96,-152.84 3028.07,-144.79 3024.56,-150.84"/>
</g>
<!-- Node29 -->
<g id="node29" class="node">
<title>Node29</title>
<g id="a_node29"><a xlink:href="image_8cpp.html" target="_top" xlink:title=" ">
<polygon fill="white" stroke="#666666" points="3125.5,-118 3015.5,-118 3015.5,-77 3125.5,-77 3125.5,-118"/>
<text text-anchor="start" x="3023.5" y="-106" font-family="Helvetica,sans-Serif" font-size="10.00">plugins/misc/widgets</text>
<text text-anchor="start" x="3023.5" y="-95" font-family="Helvetica,sans-Serif" font-size="10.00">/src/Madgine/widgets</text>
<text text-anchor="middle" x="3070.5" y="-84" font-family="Helvetica,sans-Serif" font-size="10.00">/image.cpp</text>
</a>
</g>
</g>
<!-- Node23&#45;&gt;Node29 -->
<g id="edge36" class="edge">
<title>Node23&#45;&gt;Node29</title>
<path fill="none" stroke="#63b8ff" d="M3070.5,-142.36C3070.5,-134.24 3070.5,-125.7 3070.5,-118.33"/>
<polygon fill="#63b8ff" stroke="#63b8ff" points="3067,-142.28 3070.5,-152.28 3074,-142.28 3067,-142.28"/>
</g>
<!-- Node30 -->
<g id="node30" class="node">
<title>Node30</title>
<g id="a_node30"><a xlink:href="scenewindow_8cpp.html" target="_top" xlink:title=" ">
<polygon fill="white" stroke="#666666" points="3253.5,-118 3143.5,-118 3143.5,-77 3253.5,-77 3253.5,-118"/>
<text text-anchor="start" x="3151.5" y="-106" font-family="Helvetica,sans-Serif" font-size="10.00">plugins/misc/widgets</text>
<text text-anchor="start" x="3151.5" y="-95" font-family="Helvetica,sans-Serif" font-size="10.00">/src/Madgine/widgets</text>
<text text-anchor="middle" x="3198.5" y="-84" font-family="Helvetica,sans-Serif" font-size="10.00">/scenewindow.cpp</text>
</a>
</g>
</g>
<!-- Node23&#45;&gt;Node30 -->
<g id="edge37" class="edge">
<title>Node23&#45;&gt;Node30</title>
<path fill="none" stroke="#63b8ff" d="M3114.35,-147.8C3130.71,-138.22 3149.02,-127.49 3164.38,-118.49"/>
<polygon fill="#63b8ff" stroke="#63b8ff" points="3112.63,-144.76 3105.77,-152.83 3116.17,-150.8 3112.63,-144.76"/>
</g>
<!-- Node31 -->
<g id="node31" class="node">
<title>Node31</title>
<g id="a_node31"><a xlink:href="tabbar_8cpp.html" target="_top" xlink:title=" ">
<polygon fill="white" stroke="#666666" points="3381.5,-118 3271.5,-118 3271.5,-77 3381.5,-77 3381.5,-118"/>
<text text-anchor="start" x="3279.5" y="-106" font-family="Helvetica,sans-Serif" font-size="10.00">plugins/misc/widgets</text>
<text text-anchor="start" x="3279.5" y="-95" font-family="Helvetica,sans-Serif" font-size="10.00">/src/Madgine/widgets</text>
<text text-anchor="middle" x="3326.5" y="-84" font-family="Helvetica,sans-Serif" font-size="10.00">/tabbar.cpp</text>
</a>
</g>
</g>
<!-- Node23&#45;&gt;Node31 -->
<g id="edge38" class="edge">
<title>Node23&#45;&gt;Node31</title>
<path fill="none" stroke="#63b8ff" d="M3136.94,-153.32C3193.07,-137.01 3209.11,-133.64 3262.5,-118 3265.29,-117.18 3268.14,-116.34 3271.02,-115.48"/>
<polygon fill="#63b8ff" stroke="#63b8ff" points="3136.05,-149.93 3127.43,-156.09 3138.01,-156.65 3136.05,-149.93"/>
</g>
<!-- Node32 -->
<g id="node32" class="node">
<title>Node32</title>
<g id="a_node32"><a xlink:href="tablewidget_8cpp.html" target="_top" xlink:title=" ">
<polygon fill="white" stroke="#666666" points="3509.5,-118 3399.5,-118 3399.5,-77 3509.5,-77 3509.5,-118"/>
<text text-anchor="start" x="3407.5" y="-106" font-family="Helvetica,sans-Serif" font-size="10.00">plugins/misc/widgets</text>
<text text-anchor="start" x="3407.5" y="-95" font-family="Helvetica,sans-Serif" font-size="10.00">/src/Madgine/widgets</text>
<text text-anchor="middle" x="3454.5" y="-84" font-family="Helvetica,sans-Serif" font-size="10.00">/tablewidget.cpp</text>
</a>
</g>
</g>
<!-- Node23&#45;&gt;Node32 -->
<g id="edge39" class="edge">
<title>Node23&#45;&gt;Node32</title>
<path fill="none" stroke="#63b8ff" d="M3136.93,-153.65C3248.74,-130 3281.82,-142.04 3390.5,-118 3393.34,-117.37 3396.23,-116.68 3399.14,-115.95"/>
<polygon fill="#63b8ff" stroke="#63b8ff" points="3136.37,-150.19 3127.34,-155.73 3137.86,-157.03 3136.37,-150.19"/>
</g>
<!-- Node33 -->
<g id="node33" class="node">
<title>Node33</title>
<g id="a_node33"><a xlink:href="textbox_8cpp.html" target="_top" xlink:title=" ">
<polygon fill="white" stroke="#666666" points="3637.5,-118 3527.5,-118 3527.5,-77 3637.5,-77 3637.5,-118"/>
<text text-anchor="start" x="3535.5" y="-106" font-family="Helvetica,sans-Serif" font-size="10.00">plugins/misc/widgets</text>
<text text-anchor="start" x="3535.5" y="-95" font-family="Helvetica,sans-Serif" font-size="10.00">/src/Madgine/widgets</text>
<text text-anchor="middle" x="3582.5" y="-84" font-family="Helvetica,sans-Serif" font-size="10.00">/textbox.cpp</text>
</a>
</g>
</g>
<!-- Node23&#45;&gt;Node33 -->
<g id="edge40" class="edge">
<title>Node23&#45;&gt;Node33</title>
<path fill="none" stroke="#63b8ff" d="M3137.05,-153.72C3304.78,-122.12 3353.93,-150.44 3518.5,-118 3521.35,-117.44 3524.25,-116.8 3527.17,-116.11"/>
<polygon fill="#63b8ff" stroke="#63b8ff" points="3136.47,-150.27 3127.31,-155.61 3137.8,-157.14 3136.47,-150.27"/>
</g>
<!-- Node34 -->
<g id="node34" class="node">
<title>Node34</title>
<g id="a_node34"><a xlink:href="textedit_8cpp.html" target="_top" xlink:title=" ">
<polygon fill="white" stroke="#666666" points="3765.5,-118 3655.5,-118 3655.5,-77 3765.5,-77 3765.5,-118"/>
<text text-anchor="start" x="3663.5" y="-106" font-family="Helvetica,sans-Serif" font-size="10.00">plugins/misc/widgets</text>
<text text-anchor="start" x="3663.5" y="-95" font-family="Helvetica,sans-Serif" font-size="10.00">/src/Madgine/widgets</text>
<text text-anchor="middle" x="3710.5" y="-84" font-family="Helvetica,sans-Serif" font-size="10.00">/textedit.cpp</text>
</a>
</g>
</g>
<!-- Node23&#45;&gt;Node34 -->
<g id="edge41" class="edge">
<title>Node23&#45;&gt;Node34</title>
<path fill="none" stroke="#63b8ff" d="M3136.95,-153.79C3360.89,-113.99 3425.8,-158.84 3646.5,-118 3649.36,-117.47 3652.26,-116.86 3655.19,-116.19"/>
<polygon fill="#63b8ff" stroke="#63b8ff" points="3136.51,-150.31 3127.3,-155.54 3137.77,-157.2 3136.51,-150.31"/>
</g>
<!-- Node35 -->
<g id="node35" class="node">
<title>Node35</title>
<g id="a_node35"><a xlink:href="scalableimagerenderdata_8cpp.html" target="_top" xlink:title=" ">
<polygon fill="white" stroke="#666666" points="3945,-118 3784,-118 3784,-77 3945,-77 3945,-118"/>
<text text-anchor="start" x="3792" y="-106" font-family="Helvetica,sans-Serif" font-size="10.00">plugins/misc/widgets</text>
<text text-anchor="start" x="3792" y="-95" font-family="Helvetica,sans-Serif" font-size="10.00">/src/Madgine/widgets</text>
<text text-anchor="middle" x="3864.5" y="-84" font-family="Helvetica,sans-Serif" font-size="10.00">/util/scalableimagerenderdata.cpp</text>
</a>
</g>
</g>
<!-- Node23&#45;&gt;Node35 -->
<g id="edge42" class="edge">
<title>Node23&#45;&gt;Node35</title>
<path fill="none" stroke="#63b8ff" d="M3137.13,-153.77C3417.07,-105.48 3495.91,-155.78 3774.5,-118 3777.51,-117.59 3780.57,-117.14 3783.65,-116.64"/>
<polygon fill="#63b8ff" stroke="#63b8ff" points="3136.54,-150.33 3127.3,-155.5 3137.75,-157.22 3136.54,-150.33"/>
</g>
<!-- Node36 -->
<g id="node36" class="node">
<title>Node36</title>
<g id="a_node36"><a xlink:href="widget_8cpp.html" target="_top" xlink:title=" ">
<polygon fill="white" stroke="#666666" points="4073.5,-118 3963.5,-118 3963.5,-77 4073.5,-77 4073.5,-118"/>
<text text-anchor="start" x="3971.5" y="-106" font-family="Helvetica,sans-Serif" font-size="10.00">plugins/misc/widgets</text>
<text text-anchor="start" x="3971.5" y="-95" font-family="Helvetica,sans-Serif" font-size="10.00">/src/Madgine/widgets</text>
<text text-anchor="middle" x="4018.5" y="-84" font-family="Helvetica,sans-Serif" font-size="10.00">/widget.cpp</text>
</a>
</g>
</g>
<!-- Node23&#45;&gt;Node36 -->
<g id="edge43" class="edge">
<title>Node23&#45;&gt;Node36</title>
<path fill="none" stroke="#63b8ff" d="M3137.04,-153.82C3496.14,-94.12 3598.64,-179.02 3954.5,-118 3957.36,-117.51 3960.28,-116.93 3963.2,-116.28"/>
<polygon fill="#63b8ff" stroke="#63b8ff" points="3136.57,-150.35 3127.29,-155.47 3137.73,-157.25 3136.57,-150.35"/>
</g>
<!-- Node26&#45;&gt;Node25 -->
<g id="edge33" class="edge">
<title>Node26&#45;&gt;Node25</title>
<path fill="none" stroke="#63b8ff" d="M4208.07,-76.75C3972.24,-37.65 3702.3,-26.27 3576.96,-22.89"/>
<polygon fill="#63b8ff" stroke="#63b8ff" points="4207.33,-80.18 4217.78,-78.38 4208.49,-73.27 4207.33,-80.18"/>
</g>
</g>
</svg>
        <g id="navigator" transform="translate(0 0)" fill="#404254">
                <rect fill="#f2f5e9" fill-opacity="0.5" stroke="#606060" stroke-width=".5" x="0" y="0" width="60" height="60"/>
                <use id="zoomplus" xlink:href="#zoomPlus" x="17" y="9" onmousedown="handleZoom(evt,'in')"/>
                <use id="zoomminus" xlink:href="#zoomMin" x="42" y="9" onmousedown="handleZoom(evt,'out')"/>
                <use id="reset" xlink:href="#resetDef" x="30" y="36" onmousedown="handleReset()"/>
                <g id="arrowUp" xlink:href="#dirArrow" transform="translate(30 24)" onmousedown="handlePan(0,-1)">
                  <use xlink:href="#rim" fill="#404040">
                        <set attributeName="fill" to="#808080" begin="arrowUp.mouseover" end="arrowUp.mouseout"/>
                  </use>
                  <path fill="none" stroke="white" stroke-width="1.5" d="M0,-3.0v7 M-2.5,-0.5L0,-3.0L2.5,-0.5"/>
                </g>
                <g id="arrowRight" xlink:href="#dirArrow" transform="rotate(90) translate(36 -43)" onmousedown="handlePan(1,0)">
                  <use xlink:href="#rim" fill="#404040">
                        <set attributeName="fill" to="#808080" begin="arrowRight.mouseover" end="arrowRight.mouseout"/>
                  </use>
                  <path fill="none" stroke="white" stroke-width="1.5" d="M0,-3.0v7 M-2.5,-0.5L0,-3.0L2.5,-0.5"/>
                </g>
                <g id="arrowDown" xlink:href="#dirArrow" transform="rotate(180) translate(-30 -48)" onmousedown="handlePan(0,1)">
                  <use xlink:href="#rim" fill="#404040">
                        <set attributeName="fill" to="#808080" begin="arrowDown.mouseover" end="arrowDown.mouseout"/>
                  </use>
                  <path fill="none" stroke="white" stroke-width="1.5" d="M0,-3.0v7 M-2.5,-0.5L0,-3.0L2.5,-0.5"/>
                </g>
                <g id="arrowLeft" xlink:href="#dirArrow" transform="rotate(270) translate(-36 17)" onmousedown="handlePan(-1,0)">
                  <use xlink:href="#rim" fill="#404040">
                        <set attributeName="fill" to="#808080" begin="arrowLeft.mouseover" end="arrowLeft.mouseout"/>
                  </use>
                  <path fill="none" stroke="white" stroke-width="1.5" d="M0,-3.0v7 M-2.5,-0.5L0,-3.0L2.5,-0.5"/>
                </g>
        </g>
        <svg viewBox="0 0 15 15" width="100%" height="30px" preserveAspectRatio="xMaxYMin meet">
         <g id="arrow_out" transform="scale(0.3 0.3)">
          <a xlink:href="mainwindowcomponentcollector_8h__dep__incl_org.svg" target="_base">
           <rect id="button" ry="5" rx="5" y="6" x="6" height="38" width="38"
                fill="#f2f5e9" fill-opacity="0.5" stroke="#606060" stroke-width="1.0"/>
           <path id="arrow"
             d="M 11.500037,31.436501 C 11.940474,20.09759 22.043105,11.32322 32.158766,21.979434 L 37.068811,17.246167 C 37.068811,17.246167 37.088388,32 37.088388,32 L 22.160133,31.978069 C 22.160133,31.978069 26.997745,27.140456 26.997745,27.140456 C 18.528582,18.264221 13.291696,25.230495 11.500037,31.436501 z"
             style="fill:#404040;"/>
          </a>
         </g>
        </svg>
</svg>
