<?xml version="1.0" encoding="UTF-8" standalone="no"?>
<!DOCTYPE svg PUBLIC "-//W3C//DTD SVG 1.1//EN"
 "http://www.w3.org/Graphics/SVG/1.1/DTD/svg11.dtd">
<!-- Generated by graphviz version 7.0.5 (20221223.1930)
 -->
<!-- Title: plugins/misc/scene/src/Madgine/scene/entity/components/material.h Pages: 1 -->
<svg width="584pt" height="126pt"
 viewBox="0.00 0.00 583.50 126.00" xmlns="http://www.w3.org/2000/svg" xmlns:xlink="http://www.w3.org/1999/xlink">
<g id="graph0" class="graph" transform="scale(1 1) rotate(0) translate(4 122)">
<title>plugins/misc/scene/src/Madgine/scene/entity/components/material.h</title>
<!-- Node1 -->
<g id="node1" class="node">
<title>Node1</title>
<g id="a_node1"><a xlink:title=" ">
<polygon fill="#999999" stroke="#666666" points="345.5,-118 217.5,-118 217.5,-77 345.5,-77 345.5,-118"/>
<text text-anchor="start" x="225.5" y="-106" font-family="Helvetica,sans-Serif" font-size="10.00">plugins/misc/scene</text>
<text text-anchor="start" x="225.5" y="-95" font-family="Helvetica,sans-Serif" font-size="10.00">/src/Madgine/scene/entity</text>
<text text-anchor="middle" x="281.5" y="-84" font-family="Helvetica,sans-Serif" font-size="10.00">/components/material.h</text>
</a>
</g>
</g>
<!-- Node2 -->
<g id="node2" class="node">
<title>Node2</title>
<g id="a_node2"><a xlink:href="litscenerenderdata_8cpp.html" target="_top" xlink:title=" ">
<polygon fill="white" stroke="#666666" points="125,-41 0,-41 0,0 125,0 125,-41"/>
<text text-anchor="start" x="8" y="-29" font-family="Helvetica,sans-Serif" font-size="10.00">plugins/misc/scene</text>
<text text-anchor="start" x="8" y="-18" font-family="Helvetica,sans-Serif" font-size="10.00">/renderer/Madgine/render</text>
<text text-anchor="middle" x="62.5" y="-7" font-family="Helvetica,sans-Serif" font-size="10.00">/litscenerenderdata.cpp</text>
</a>
</g>
</g>
<!-- Node1&#45;&gt;Node2 -->
<g id="edge1" class="edge">
<title>Node1&#45;&gt;Node2</title>
<path fill="none" stroke="#63b8ff" d="M212.75,-72.95C183.24,-62.85 149.14,-51.17 120.88,-41.49"/>
<polygon fill="#63b8ff" stroke="#63b8ff" points="211.36,-76.18 221.96,-76.11 213.63,-69.56 211.36,-76.18"/>
</g>
<!-- Node3 -->
<g id="node3" class="node">
<title>Node3</title>
<g id="a_node3"><a xlink:href="scenerenderpass_8cpp.html" target="_top" xlink:title=" ">
<polygon fill="white" stroke="#666666" points="268,-41 143,-41 143,0 268,0 268,-41"/>
<text text-anchor="start" x="151" y="-29" font-family="Helvetica,sans-Serif" font-size="10.00">plugins/misc/scene</text>
<text text-anchor="start" x="151" y="-18" font-family="Helvetica,sans-Serif" font-size="10.00">/renderer/Madgine/render</text>
<text text-anchor="middle" x="205.5" y="-7" font-family="Helvetica,sans-Serif" font-size="10.00">/scenerenderpass.cpp</text>
</a>
</g>
</g>
<!-- Node1&#45;&gt;Node3 -->
<g id="edge2" class="edge">
<title>Node1&#45;&gt;Node3</title>
<path fill="none" stroke="#63b8ff" d="M253.37,-68.74C244.15,-59.64 234.1,-49.72 225.6,-41.33"/>
<polygon fill="#63b8ff" stroke="#63b8ff" points="250.88,-71.2 260.45,-75.73 255.8,-66.22 250.88,-71.2"/>
</g>
<!-- Node4 -->
<g id="node4" class="node">
<title>Node4</title>
<g id="a_node4"><a xlink:href="shadowscenerenderdata_8cpp.html" target="_top" xlink:title=" ">
<polygon fill="white" stroke="#666666" points="429,-41 286,-41 286,0 429,0 429,-41"/>
<text text-anchor="start" x="294" y="-29" font-family="Helvetica,sans-Serif" font-size="10.00">plugins/misc/scene</text>
<text text-anchor="start" x="294" y="-18" font-family="Helvetica,sans-Serif" font-size="10.00">/renderer/Madgine/render</text>
<text text-anchor="middle" x="357.5" y="-7" font-family="Helvetica,sans-Serif" font-size="10.00">/shadowscenerenderdata.cpp</text>
</a>
</g>
</g>
<!-- Node1&#45;&gt;Node4 -->
<g id="edge3" class="edge">
<title>Node1&#45;&gt;Node4</title>
<path fill="none" stroke="#63b8ff" d="M309.63,-68.74C318.85,-59.64 328.9,-49.72 337.4,-41.33"/>
<polygon fill="#63b8ff" stroke="#63b8ff" points="307.2,-66.22 302.55,-75.73 312.12,-71.2 307.2,-66.22"/>
</g>
<!-- Node5 -->
<g id="node5" class="node">
<title>Node5</title>
<g id="a_node5"><a xlink:href="material_8cpp.html" target="_top" xlink:title=" ">
<polygon fill="white" stroke="#666666" points="575.5,-41 447.5,-41 447.5,0 575.5,0 575.5,-41"/>
<text text-anchor="start" x="455.5" y="-29" font-family="Helvetica,sans-Serif" font-size="10.00">plugins/misc/scene</text>
<text text-anchor="start" x="455.5" y="-18" font-family="Helvetica,sans-Serif" font-size="10.00">/src/Madgine/scene/entity</text>
<text text-anchor="middle" x="511.5" y="-7" font-family="Helvetica,sans-Serif" font-size="10.00">/components/material.cpp</text>
</a>
</g>
</g>
<!-- Node1&#45;&gt;Node5 -->
<g id="edge4" class="edge">
<title>Node1&#45;&gt;Node5</title>
<path fill="none" stroke="#63b8ff" d="M353.3,-73.09C384.38,-62.95 420.38,-51.21 450.18,-41.49"/>
<polygon fill="#63b8ff" stroke="#63b8ff" points="352.39,-69.7 343.97,-76.13 354.56,-76.36 352.39,-69.7"/>
</g>
</g>
</svg>
