<?xml version="1.0" encoding="UTF-8" standalone="no"?>
<!DOCTYPE svg PUBLIC "-//W3C//DTD SVG 1.1//EN"
 "http://www.w3.org/Graphics/SVG/1.1/DTD/svg11.dtd">
<!-- Generated by graphviz version 7.0.5 (20221223.1930)
 -->
<!-- Title: src/Meta/math/matrix4.cpp Pages: 1 -->
<svg width="389pt" height="302pt"
 viewBox="0.00 0.00 388.50 302.00" xmlns="http://www.w3.org/2000/svg" xmlns:xlink="http://www.w3.org/1999/xlink">
<g id="graph0" class="graph" transform="scale(1 1) rotate(0) translate(4 298)">
<title>src/Meta/math/matrix4.cpp</title>
<!-- Node1 -->
<g id="node1" class="node">
<title>Node1</title>
<g id="a_node1"><a xlink:title=" ">
<polygon fill="#999999" stroke="#666666" points="263,-294 131,-294 131,-275 263,-275 263,-294"/>
<text text-anchor="middle" x="197" y="-282" font-family="Helvetica,sans-Serif" font-size="10.00">src/Meta/math/matrix4.cpp</text>
</a>
</g>
</g>
<!-- Node2 -->
<g id="node2" class="node">
<title>Node2</title>
<g id="a_node2"><a xlink:href="metalib_8h.html" target="_top" xlink:title=" ">
<polygon fill="white" stroke="#666666" points="187.5,-239 124.5,-239 124.5,-220 187.5,-220 187.5,-239"/>
<text text-anchor="middle" x="156" y="-227" font-family="Helvetica,sans-Serif" font-size="10.00">../metalib.h</text>
</a>
</g>
</g>
<!-- Node1&#45;&gt;Node2 -->
<g id="edge1" class="edge">
<title>Node1&#45;&gt;Node2</title>
<path fill="none" stroke="#63b8ff" d="M190.23,-274.75C184.68,-267.58 176.66,-257.2 169.77,-248.3"/>
<polygon fill="#63b8ff" stroke="#63b8ff" points="172.73,-246.41 163.84,-240.64 167.19,-250.69 172.73,-246.41"/>
</g>
<!-- Node5 -->
<g id="node5" class="node">
<title>Node5</title>
<g id="a_node5"><a xlink:href="matrix4_8h.html" target="_top" xlink:title=" ">
<polygon fill="white" stroke="#666666" points="266,-239 210,-239 210,-220 266,-220 266,-239"/>
<text text-anchor="middle" x="238" y="-227" font-family="Helvetica,sans-Serif" font-size="10.00">matrix4.h</text>
</a>
</g>
</g>
<!-- Node1&#45;&gt;Node5 -->
<g id="edge4" class="edge">
<title>Node1&#45;&gt;Node5</title>
<path fill="none" stroke="#63b8ff" d="M203.77,-274.75C209.32,-267.58 217.34,-257.2 224.23,-248.3"/>
<polygon fill="#63b8ff" stroke="#63b8ff" points="226.81,-250.69 230.16,-240.64 221.27,-246.41 226.81,-250.69"/>
</g>
<!-- Node3 -->
<g id="node3" class="node">
<title>Node3</title>
<g id="a_node3"><a xlink:href="genericlib_8h.html" target="_top" xlink:title=" ">
<polygon fill="white" stroke="#666666" points="102,-184 0,-184 0,-165 102,-165 102,-184"/>
<text text-anchor="middle" x="51" y="-172" font-family="Helvetica,sans-Serif" font-size="10.00">Generic/genericlib.h</text>
</a>
</g>
</g>
<!-- Node2&#45;&gt;Node3 -->
<g id="edge2" class="edge">
<title>Node2&#45;&gt;Node3</title>
<path fill="none" stroke="#63b8ff" d="M138.19,-219.51C121.87,-211.27 97.47,-198.96 78.63,-189.45"/>
<polygon fill="#63b8ff" stroke="#63b8ff" points="80.4,-186.42 69.9,-185.04 77.25,-192.67 80.4,-186.42"/>
</g>
<!-- Node4 -->
<g id="node4" class="node">
<title>Node4</title>
<g id="a_node4"><a xlink:title=" ">
<polygon fill="#e0e0e0" stroke="#999999" points="191.5,-184 120.5,-184 120.5,-165 191.5,-165 191.5,-184"/>
<text text-anchor="middle" x="156" y="-172" font-family="Helvetica,sans-Serif" font-size="10.00">metaconfig.h</text>
</a>
</g>
</g>
<!-- Node2&#45;&gt;Node4 -->
<g id="edge3" class="edge">
<title>Node2&#45;&gt;Node4</title>
<path fill="none" stroke="#63b8ff" d="M156,-219.75C156,-213.27 156,-204.16 156,-195.9"/>
<polygon fill="#63b8ff" stroke="#63b8ff" points="159.5,-195.96 156,-185.96 152.5,-195.96 159.5,-195.96"/>
</g>
<!-- Node6 -->
<g id="node6" class="node">
<title>Node6</title>
<g id="a_node6"><a xlink:href="matrix3_8h.html" target="_top" xlink:title=" ">
<polygon fill="white" stroke="#666666" points="266,-184 210,-184 210,-165 266,-165 266,-184"/>
<text text-anchor="middle" x="238" y="-172" font-family="Helvetica,sans-Serif" font-size="10.00">matrix3.h</text>
</a>
</g>
</g>
<!-- Node5&#45;&gt;Node6 -->
<g id="edge5" class="edge">
<title>Node5&#45;&gt;Node6</title>
<path fill="none" stroke="#63b8ff" d="M238,-219.75C238,-213.27 238,-204.16 238,-195.9"/>
<polygon fill="#63b8ff" stroke="#63b8ff" points="241.5,-195.96 238,-185.96 234.5,-195.96 241.5,-195.96"/>
</g>
<!-- Node12 -->
<g id="node12" class="node">
<title>Node12</title>
<g id="a_node12"><a xlink:href="vector4_8h.html" target="_top" xlink:title=" ">
<polygon fill="white" stroke="#666666" points="340,-184 284,-184 284,-165 340,-165 340,-184"/>
<text text-anchor="middle" x="312" y="-172" font-family="Helvetica,sans-Serif" font-size="10.00">vector4.h</text>
</a>
</g>
</g>
<!-- Node5&#45;&gt;Node12 -->
<g id="edge13" class="edge">
<title>Node5&#45;&gt;Node12</title>
<path fill="none" stroke="#63b8ff" d="M250.55,-219.51C261.46,-211.7 277.5,-200.21 290.46,-190.93"/>
<polygon fill="#63b8ff" stroke="#63b8ff" points="292.31,-193.91 298.4,-185.24 288.23,-188.22 292.31,-193.91"/>
</g>
<!-- Node7 -->
<g id="node7" class="node">
<title>Node7</title>
<g id="a_node7"><a xlink:href="vector3_8h.html" target="_top" xlink:title=" ">
<polygon fill="white" stroke="#666666" points="303,-129 247,-129 247,-110 303,-110 303,-129"/>
<text text-anchor="middle" x="275" y="-117" font-family="Helvetica,sans-Serif" font-size="10.00">vector3.h</text>
</a>
</g>
</g>
<!-- Node6&#45;&gt;Node7 -->
<g id="edge6" class="edge">
<title>Node6&#45;&gt;Node7</title>
<path fill="none" stroke="#63b8ff" d="M244.11,-164.75C249.01,-157.73 256.05,-147.64 262.17,-138.87"/>
<polygon fill="#63b8ff" stroke="#63b8ff" points="265.04,-140.89 267.89,-130.68 259.3,-136.88 265.04,-140.89"/>
</g>
<!-- Node8 -->
<g id="node8" class="node">
<title>Node8</title>
<g id="a_node8"><a xlink:href="common_8h.html" target="_top" xlink:title=" ">
<polygon fill="white" stroke="#666666" points="276,-19 214,-19 214,0 276,0 276,-19"/>
<text text-anchor="middle" x="245" y="-7" font-family="Helvetica,sans-Serif" font-size="10.00">common.h</text>
</a>
</g>
</g>
<!-- Node7&#45;&gt;Node8 -->
<g id="edge7" class="edge">
<title>Node7&#45;&gt;Node8</title>
<path fill="none" stroke="#63b8ff" d="M264.21,-109.55C255.26,-101.36 243.19,-88.36 238,-74 232.91,-59.93 235.13,-43.06 238.37,-30.24"/>
<polygon fill="#63b8ff" stroke="#63b8ff" points="241.66,-31.46 241.15,-20.87 234.95,-29.46 241.66,-31.46"/>
</g>
<!-- Node9 -->
<g id="node9" class="node">
<title>Node9</title>
<g id="a_node9"><a xlink:href="vector2_8h.html" target="_top" xlink:title=" ">
<polygon fill="white" stroke="#666666" points="303,-74 247,-74 247,-55 303,-55 303,-74"/>
<text text-anchor="middle" x="275" y="-62" font-family="Helvetica,sans-Serif" font-size="10.00">vector2.h</text>
</a>
</g>
</g>
<!-- Node7&#45;&gt;Node9 -->
<g id="edge8" class="edge">
<title>Node7&#45;&gt;Node9</title>
<path fill="none" stroke="#63b8ff" d="M275,-109.75C275,-103.27 275,-94.16 275,-85.9"/>
<polygon fill="#63b8ff" stroke="#63b8ff" points="278.5,-85.96 275,-75.96 271.5,-85.96 278.5,-85.96"/>
</g>
<!-- Node11 -->
<g id="node11" class="node">
<title>Node11</title>
<g id="a_node11"><a xlink:href="vector3i_8h.html" target="_top" xlink:title=" ">
<polygon fill="white" stroke="#666666" points="380.5,-74 321.5,-74 321.5,-55 380.5,-55 380.5,-74"/>
<text text-anchor="middle" x="351" y="-62" font-family="Helvetica,sans-Serif" font-size="10.00">vector3i.h</text>
</a>
</g>
</g>
<!-- Node7&#45;&gt;Node11 -->
<g id="edge11" class="edge">
<title>Node7&#45;&gt;Node11</title>
<path fill="none" stroke="#63b8ff" d="M287.89,-109.51C299.1,-101.7 315.57,-90.21 328.88,-80.93"/>
<polygon fill="#63b8ff" stroke="#63b8ff" points="330.86,-83.81 337.06,-75.22 326.85,-78.07 330.86,-83.81"/>
</g>
<!-- Node9&#45;&gt;Node8 -->
<g id="edge10" class="edge">
<title>Node9&#45;&gt;Node8</title>
<path fill="none" stroke="#63b8ff" d="M270.05,-54.75C266.16,-47.88 260.61,-38.08 255.72,-29.45"/>
<polygon fill="#63b8ff" stroke="#63b8ff" points="258.78,-27.74 250.81,-20.76 252.69,-31.19 258.78,-27.74"/>
</g>
<!-- Node10 -->
<g id="node10" class="node">
<title>Node10</title>
<g id="a_node10"><a xlink:href="vector2i_8h.html" target="_top" xlink:title=" ">
<polygon fill="white" stroke="#666666" points="366.5,-19 307.5,-19 307.5,0 366.5,0 366.5,-19"/>
<text text-anchor="middle" x="337" y="-7" font-family="Helvetica,sans-Serif" font-size="10.00">vector2i.h</text>
</a>
</g>
</g>
<!-- Node9&#45;&gt;Node10 -->
<g id="edge9" class="edge">
<title>Node9&#45;&gt;Node10</title>
<path fill="none" stroke="#63b8ff" d="M285.52,-54.51C294.39,-46.93 307.31,-35.88 317.99,-26.75"/>
<polygon fill="#63b8ff" stroke="#63b8ff" points="320.16,-29.5 325.49,-20.34 315.61,-24.18 320.16,-29.5"/>
</g>
<!-- Node11&#45;&gt;Node10 -->
<g id="edge12" class="edge">
<title>Node11&#45;&gt;Node10</title>
<path fill="none" stroke="#63b8ff" d="M348.69,-54.75C346.94,-48.11 344.46,-38.73 342.23,-30.31"/>
<polygon fill="#63b8ff" stroke="#63b8ff" points="345.69,-29.68 339.75,-20.91 338.92,-31.47 345.69,-29.68"/>
</g>
<!-- Node12&#45;&gt;Node7 -->
<g id="edge14" class="edge">
<title>Node12&#45;&gt;Node7</title>
<path fill="none" stroke="#63b8ff" d="M305.89,-164.75C300.99,-157.73 293.95,-147.64 287.83,-138.87"/>
<polygon fill="#63b8ff" stroke="#63b8ff" points="290.7,-136.88 282.11,-130.68 284.96,-140.89 290.7,-136.88"/>
</g>
</g>
</svg>
