<?xml version="1.0" encoding="UTF-8" standalone="no"?>
<!DOCTYPE svg PUBLIC "-//W3C//DTD SVG 1.1//EN"
 "http://www.w3.org/Graphics/SVG/1.1/DTD/svg11.dtd">
<!-- Generated by graphviz version 7.0.5 (20221223.1930)
 -->
<!-- Title: src/Meta/math/matrix4.h Pages: 1 -->
<svg width="179pt" height="247pt"
 viewBox="0.00 0.00 178.50 247.00" xmlns="http://www.w3.org/2000/svg" xmlns:xlink="http://www.w3.org/1999/xlink">
<g id="graph0" class="graph" transform="scale(1 1) rotate(0) translate(4 243)">
<title>src/Meta/math/matrix4.h</title>
<!-- Node1 -->
<g id="node1" class="node">
<title>Node1</title>
<g id="a_node1"><a xlink:title=" ">
<polygon fill="#999999" stroke="#666666" points="126,-239 4,-239 4,-220 126,-220 126,-239"/>
<text text-anchor="middle" x="65" y="-227" font-family="Helvetica,sans-Serif" font-size="10.00">src/Meta/math/matrix4.h</text>
</a>
</g>
</g>
<!-- Node2 -->
<g id="node2" class="node">
<title>Node2</title>
<g id="a_node2"><a xlink:href="matrix3_8h.html" target="_top" xlink:title=" ">
<polygon fill="white" stroke="#666666" points="56,-184 0,-184 0,-165 56,-165 56,-184"/>
<text text-anchor="middle" x="28" y="-172" font-family="Helvetica,sans-Serif" font-size="10.00">matrix3.h</text>
</a>
</g>
</g>
<!-- Node1&#45;&gt;Node2 -->
<g id="edge1" class="edge">
<title>Node1&#45;&gt;Node2</title>
<path fill="none" stroke="#63b8ff" d="M58.89,-219.75C53.99,-212.73 46.95,-202.64 40.83,-193.87"/>
<polygon fill="#63b8ff" stroke="#63b8ff" points="43.7,-191.88 35.11,-185.68 37.96,-195.89 43.7,-191.88"/>
</g>
<!-- Node8 -->
<g id="node8" class="node">
<title>Node8</title>
<g id="a_node8"><a xlink:href="vector4_8h.html" target="_top" xlink:title=" ">
<polygon fill="white" stroke="#666666" points="130,-184 74,-184 74,-165 130,-165 130,-184"/>
<text text-anchor="middle" x="102" y="-172" font-family="Helvetica,sans-Serif" font-size="10.00">vector4.h</text>
</a>
</g>
</g>
<!-- Node1&#45;&gt;Node8 -->
<g id="edge9" class="edge">
<title>Node1&#45;&gt;Node8</title>
<path fill="none" stroke="#63b8ff" d="M71.11,-219.75C76.01,-212.73 83.05,-202.64 89.17,-193.87"/>
<polygon fill="#63b8ff" stroke="#63b8ff" points="92.04,-195.89 94.89,-185.68 86.3,-191.88 92.04,-195.89"/>
</g>
<!-- Node3 -->
<g id="node3" class="node">
<title>Node3</title>
<g id="a_node3"><a xlink:href="vector3_8h.html" target="_top" xlink:title=" ">
<polygon fill="white" stroke="#666666" points="93,-129 37,-129 37,-110 93,-110 93,-129"/>
<text text-anchor="middle" x="65" y="-117" font-family="Helvetica,sans-Serif" font-size="10.00">vector3.h</text>
</a>
</g>
</g>
<!-- Node2&#45;&gt;Node3 -->
<g id="edge2" class="edge">
<title>Node2&#45;&gt;Node3</title>
<path fill="none" stroke="#63b8ff" d="M34.11,-164.75C39.01,-157.73 46.05,-147.64 52.17,-138.87"/>
<polygon fill="#63b8ff" stroke="#63b8ff" points="55.04,-140.89 57.89,-130.68 49.3,-136.88 55.04,-140.89"/>
</g>
<!-- Node4 -->
<g id="node4" class="node">
<title>Node4</title>
<g id="a_node4"><a xlink:href="common_8h.html" target="_top" xlink:title=" ">
<polygon fill="white" stroke="#666666" points="66,-19 4,-19 4,0 66,0 66,-19"/>
<text text-anchor="middle" x="35" y="-7" font-family="Helvetica,sans-Serif" font-size="10.00">common.h</text>
</a>
</g>
</g>
<!-- Node3&#45;&gt;Node4 -->
<g id="edge3" class="edge">
<title>Node3&#45;&gt;Node4</title>
<path fill="none" stroke="#63b8ff" d="M54.21,-109.55C45.26,-101.36 33.19,-88.36 28,-74 22.91,-59.93 25.13,-43.06 28.37,-30.24"/>
<polygon fill="#63b8ff" stroke="#63b8ff" points="31.66,-31.46 31.15,-20.87 24.95,-29.46 31.66,-31.46"/>
</g>
<!-- Node5 -->
<g id="node5" class="node">
<title>Node5</title>
<g id="a_node5"><a xlink:href="vector2_8h.html" target="_top" xlink:title=" ">
<polygon fill="white" stroke="#666666" points="93,-74 37,-74 37,-55 93,-55 93,-74"/>
<text text-anchor="middle" x="65" y="-62" font-family="Helvetica,sans-Serif" font-size="10.00">vector2.h</text>
</a>
</g>
</g>
<!-- Node3&#45;&gt;Node5 -->
<g id="edge4" class="edge">
<title>Node3&#45;&gt;Node5</title>
<path fill="none" stroke="#63b8ff" d="M65,-109.75C65,-103.27 65,-94.16 65,-85.9"/>
<polygon fill="#63b8ff" stroke="#63b8ff" points="68.5,-85.96 65,-75.96 61.5,-85.96 68.5,-85.96"/>
</g>
<!-- Node7 -->
<g id="node7" class="node">
<title>Node7</title>
<g id="a_node7"><a xlink:href="vector3i_8h.html" target="_top" xlink:title=" ">
<polygon fill="white" stroke="#666666" points="170.5,-74 111.5,-74 111.5,-55 170.5,-55 170.5,-74"/>
<text text-anchor="middle" x="141" y="-62" font-family="Helvetica,sans-Serif" font-size="10.00">vector3i.h</text>
</a>
</g>
</g>
<!-- Node3&#45;&gt;Node7 -->
<g id="edge7" class="edge">
<title>Node3&#45;&gt;Node7</title>
<path fill="none" stroke="#63b8ff" d="M77.89,-109.51C89.1,-101.7 105.57,-90.21 118.88,-80.93"/>
<polygon fill="#63b8ff" stroke="#63b8ff" points="120.86,-83.81 127.06,-75.22 116.85,-78.07 120.86,-83.81"/>
</g>
<!-- Node5&#45;&gt;Node4 -->
<g id="edge6" class="edge">
<title>Node5&#45;&gt;Node4</title>
<path fill="none" stroke="#63b8ff" d="M60.05,-54.75C56.16,-47.88 50.61,-38.08 45.72,-29.45"/>
<polygon fill="#63b8ff" stroke="#63b8ff" points="48.78,-27.74 40.81,-20.76 42.69,-31.19 48.78,-27.74"/>
</g>
<!-- Node6 -->
<g id="node6" class="node">
<title>Node6</title>
<g id="a_node6"><a xlink:href="vector2i_8h.html" target="_top" xlink:title=" ">
<polygon fill="white" stroke="#666666" points="156.5,-19 97.5,-19 97.5,0 156.5,0 156.5,-19"/>
<text text-anchor="middle" x="127" y="-7" font-family="Helvetica,sans-Serif" font-size="10.00">vector2i.h</text>
</a>
</g>
</g>
<!-- Node5&#45;&gt;Node6 -->
<g id="edge5" class="edge">
<title>Node5&#45;&gt;Node6</title>
<path fill="none" stroke="#63b8ff" d="M75.52,-54.51C84.39,-46.93 97.31,-35.88 107.99,-26.75"/>
<polygon fill="#63b8ff" stroke="#63b8ff" points="110.16,-29.5 115.49,-20.34 105.61,-24.18 110.16,-29.5"/>
</g>
<!-- Node7&#45;&gt;Node6 -->
<g id="edge8" class="edge">
<title>Node7&#45;&gt;Node6</title>
<path fill="none" stroke="#63b8ff" d="M138.69,-54.75C136.94,-48.11 134.46,-38.73 132.23,-30.31"/>
<polygon fill="#63b8ff" stroke="#63b8ff" points="135.69,-29.68 129.75,-20.91 128.92,-31.47 135.69,-29.68"/>
</g>
<!-- Node8&#45;&gt;Node3 -->
<g id="edge10" class="edge">
<title>Node8&#45;&gt;Node3</title>
<path fill="none" stroke="#63b8ff" d="M95.89,-164.75C90.99,-157.73 83.95,-147.64 77.83,-138.87"/>
<polygon fill="#63b8ff" stroke="#63b8ff" points="80.7,-136.88 72.11,-130.68 74.96,-140.89 80.7,-136.88"/>
</g>
</g>
</svg>
