<?xml version="1.0" encoding="UTF-8" standalone="no"?>
<!DOCTYPE svg PUBLIC "-//W3C//DTD SVG 1.1//EN"
 "http://www.w3.org/Graphics/SVG/1.1/DTD/svg11.dtd">
<!-- Generated by graphviz version 7.0.5 (20221223.1930)
 -->
<!-- Title: src/Madgine/serialize/memory/memorymanager.h Pages: 1 -->
<svg width="290pt" height="203pt"
 viewBox="0.00 0.00 289.50 203.00" xmlns="http://www.w3.org/2000/svg" xmlns:xlink="http://www.w3.org/1999/xlink">
<g id="graph0" class="graph" transform="scale(1 1) rotate(0) translate(4 199)">
<title>src/Madgine/serialize/memory/memorymanager.h</title>
<!-- Node1 -->
<g id="node1" class="node">
<title>Node1</title>
<g id="a_node1"><a xlink:title=" ">
<polygon fill="#999999" stroke="#666666" points="223.5,-195 86.5,-195 86.5,-165 223.5,-165 223.5,-195"/>
<text text-anchor="start" x="94.5" y="-183" font-family="Helvetica,sans-Serif" font-size="10.00">src/Madgine/serialize</text>
<text text-anchor="middle" x="155" y="-172" font-family="Helvetica,sans-Serif" font-size="10.00">/memory/memorymanager.h</text>
</a>
</g>
</g>
<!-- Node2 -->
<g id="node2" class="node">
<title>Node2</title>
<g id="a_node2"><a xlink:href="serializemanager_8h.html" target="_top" xlink:title=" ">
<polygon fill="white" stroke="#666666" points="160,-129 0,-129 0,-110 160,-110 160,-129"/>
<text text-anchor="middle" x="80" y="-117" font-family="Helvetica,sans-Serif" font-size="10.00">Meta/serialize/serializemanager.h</text>
</a>
</g>
</g>
<!-- Node1&#45;&gt;Node2 -->
<g id="edge1" class="edge">
<title>Node1&#45;&gt;Node2</title>
<path fill="none" stroke="#63b8ff" d="M136.46,-164.54C125.35,-155.87 111.21,-144.85 99.87,-136"/>
<polygon fill="#63b8ff" stroke="#63b8ff" points="102.35,-133.5 92.32,-130.11 98.05,-139.02 102.35,-133.5"/>
</g>
<!-- Node3 -->
<g id="node3" class="node">
<title>Node3</title>
<g id="a_node3"><a xlink:href="bytebuffer_8h.html" target="_top" xlink:title=" ">
<polygon fill="white" stroke="#666666" points="281.5,-129 178.5,-129 178.5,-110 281.5,-110 281.5,-129"/>
<text text-anchor="middle" x="230" y="-117" font-family="Helvetica,sans-Serif" font-size="10.00">Generic/bytebuffer.h</text>
</a>
</g>
</g>
<!-- Node1&#45;&gt;Node3 -->
<g id="edge2" class="edge">
<title>Node1&#45;&gt;Node3</title>
<path fill="none" stroke="#63b8ff" d="M173.54,-164.54C184.65,-155.87 198.79,-144.85 210.13,-136"/>
<polygon fill="#63b8ff" stroke="#63b8ff" points="211.95,-139.02 217.68,-130.11 207.65,-133.5 211.95,-139.02"/>
</g>
<!-- Node4 -->
<g id="node4" class="node">
<title>Node4</title>
<g id="a_node4"><a xlink:href="any_8h.html" target="_top" xlink:title=" ">
<polygon fill="white" stroke="#666666" points="249.5,-74 210.5,-74 210.5,-55 249.5,-55 249.5,-74"/>
<text text-anchor="middle" x="230" y="-62" font-family="Helvetica,sans-Serif" font-size="10.00">any.h</text>
</a>
</g>
</g>
<!-- Node3&#45;&gt;Node4 -->
<g id="edge3" class="edge">
<title>Node3&#45;&gt;Node4</title>
<path fill="none" stroke="#63b8ff" d="M230,-109.75C230,-103.27 230,-94.16 230,-85.9"/>
<polygon fill="#63b8ff" stroke="#63b8ff" points="233.5,-85.96 230,-75.96 226.5,-85.96 233.5,-85.96"/>
</g>
<!-- Node5 -->
<g id="node5" class="node">
<title>Node5</title>
<g id="a_node5"><a xlink:href="inheritable_8h.html" target="_top" xlink:title=" ">
<polygon fill="white" stroke="#666666" points="264,-19 196,-19 196,0 264,0 264,-19"/>
<text text-anchor="middle" x="230" y="-7" font-family="Helvetica,sans-Serif" font-size="10.00">inheritable.h</text>
</a>
</g>
</g>
<!-- Node4&#45;&gt;Node5 -->
<g id="edge4" class="edge">
<title>Node4&#45;&gt;Node5</title>
<path fill="none" stroke="#63b8ff" d="M230,-54.75C230,-48.27 230,-39.16 230,-30.9"/>
<polygon fill="#63b8ff" stroke="#63b8ff" points="233.5,-30.96 230,-20.96 226.5,-30.96 233.5,-30.96"/>
</g>
</g>
</svg>
