<?xml version="1.0" encoding="UTF-8" standalone="no"?>
<!DOCTYPE svg PUBLIC "-//W3C//DTD SVG 1.1//EN"
 "http://www.w3.org/Graphics/SVG/1.1/DTD/svg11.dtd">
<!-- Generated by graphviz version 7.0.5 (20221223.1930)
 -->
<!-- Title: plugins/resources/meshloader/Madgine/meshloader/meshdata.h Pages: 1 -->
<svg width="2234pt" height="412pt"
 viewBox="0.00 0.00 2234.00 412.00" xmlns="http://www.w3.org/2000/svg" xmlns:xlink="http://www.w3.org/1999/xlink">
<g id="graph0" class="graph" transform="scale(1 1) rotate(0) translate(4 408)">
<title>plugins/resources/meshloader/Madgine/meshloader/meshdata.h</title>
<!-- Node1 -->
<g id="node1" class="node">
<title>Node1</title>
<g id="a_node1"><a xlink:title=" ">
<polygon fill="#999999" stroke="#666666" points="1545,-404 1382,-404 1382,-374 1545,-374 1545,-404"/>
<text text-anchor="start" x="1390" y="-392" font-family="Helvetica,sans-Serif" font-size="10.00">plugins/resources/meshloader</text>
<text text-anchor="middle" x="1463.5" y="-381" font-family="Helvetica,sans-Serif" font-size="10.00">/Madgine/meshloader/meshdata.h</text>
</a>
</g>
</g>
<!-- Node2 -->
<g id="node2" class="node">
<title>Node2</title>
<g id="a_node2"><a xlink:href="directx12meshloader_8cpp.html" target="_top" xlink:title=" ">
<polygon fill="white" stroke="#666666" points="189,-189.5 0,-189.5 0,-159.5 189,-159.5 189,-189.5"/>
<text text-anchor="start" x="8" y="-177.5" font-family="Helvetica,sans-Serif" font-size="10.00">plugins/renderer/directx12</text>
<text text-anchor="middle" x="94.5" y="-166.5" font-family="Helvetica,sans-Serif" font-size="10.00">/src/DirectX12/directx12meshloader.cpp</text>
</a>
</g>
</g>
<!-- Node1&#45;&gt;Node2 -->
<g id="edge1" class="edge">
<title>Node1&#45;&gt;Node2</title>
<path fill="none" stroke="#63b8ff" d="M1370.33,-387.05C1162.09,-384.28 664.39,-374.01 500.5,-338 351.08,-305.17 185.35,-223.35 121.55,-189.99"/>
<polygon fill="#63b8ff" stroke="#63b8ff" points="1370.27,-390.55 1380.31,-387.18 1370.36,-383.55 1370.27,-390.55"/>
</g>
<!-- Node3 -->
<g id="node3" class="node">
<title>Node3</title>
<g id="a_node3"><a xlink:href="directx12rendertarget_8cpp.html" target="_top" xlink:title=" ">
<polygon fill="white" stroke="#666666" points="398,-189.5 207,-189.5 207,-159.5 398,-159.5 398,-189.5"/>
<text text-anchor="start" x="215" y="-177.5" font-family="Helvetica,sans-Serif" font-size="10.00">plugins/renderer/directx12</text>
<text text-anchor="middle" x="302.5" y="-166.5" font-family="Helvetica,sans-Serif" font-size="10.00">/src/DirectX12/directx12rendertarget.cpp</text>
</a>
</g>
</g>
<!-- Node1&#45;&gt;Node3 -->
<g id="edge2" class="edge">
<title>Node1&#45;&gt;Node3</title>
<path fill="none" stroke="#63b8ff" d="M1370.6,-386.17C1142.91,-380.39 563.24,-357.46 392.5,-272 355.01,-253.24 325.13,-211.99 311.14,-189.99"/>
<polygon fill="#63b8ff" stroke="#63b8ff" points="1370.23,-389.66 1380.31,-386.41 1370.4,-382.66 1370.23,-389.66"/>
</g>
<!-- Node4 -->
<g id="node4" class="node">
<title>Node4</title>
<g id="a_node4"><a xlink:href="openglmeshloader_8cpp.html" target="_top" xlink:title=" ">
<polygon fill="white" stroke="#666666" points="1939,-189.5 1766,-189.5 1766,-159.5 1939,-159.5 1939,-189.5"/>
<text text-anchor="start" x="1774" y="-177.5" font-family="Helvetica,sans-Serif" font-size="10.00">plugins/renderer/opengl</text>
<text text-anchor="middle" x="1852.5" y="-166.5" font-family="Helvetica,sans-Serif" font-size="10.00">/src/OpenGL/openglmeshloader.cpp</text>
</a>
</g>
</g>
<!-- Node1&#45;&gt;Node4 -->
<g id="edge3" class="edge">
<title>Node1&#45;&gt;Node4</title>
<path fill="none" stroke="#63b8ff" d="M1556.4,-382.53C1697.07,-372 1953.32,-343.31 2005.5,-272 2016.26,-257.29 2015.96,-245.92 2005.5,-231 1990.01,-208.9 1964.79,-195.57 1939.24,-187.54"/>
<polygon fill="#63b8ff" stroke="#63b8ff" points="1556.46,-379.01 1546.74,-383.23 1556.97,-386 1556.46,-379.01"/>
</g>
<!-- Node5 -->
<g id="node5" class="node">
<title>Node5</title>
<g id="a_node5"><a xlink:href="gpumeshloader_8h.html" target="_top" xlink:title=" ">
<polygon fill="white" stroke="#666666" points="1257.5,-338 1071.5,-338 1071.5,-308 1257.5,-308 1257.5,-338"/>
<text text-anchor="start" x="1079.5" y="-326" font-family="Helvetica,sans-Serif" font-size="10.00">plugins/resources/meshloader</text>
<text text-anchor="middle" x="1164.5" y="-315" font-family="Helvetica,sans-Serif" font-size="10.00">/Madgine/meshloader/gpumeshloader.h</text>
</a>
</g>
</g>
<!-- Node1&#45;&gt;Node5 -->
<g id="edge4" class="edge">
<title>Node1&#45;&gt;Node5</title>
<path fill="none" stroke="#63b8ff" d="M1384.85,-371.16C1337.32,-360.99 1277.36,-348.16 1231.99,-338.45"/>
<polygon fill="#63b8ff" stroke="#63b8ff" points="1384.03,-374.57 1394.55,-373.24 1385.5,-367.72 1384.03,-374.57"/>
</g>
<!-- Node29 -->
<g id="node29" class="node">
<title>Node29</title>
<g id="a_node29"><a xlink:href="meshdata_8cpp.html" target="_top" xlink:title=" ">
<polygon fill="white" stroke="#666666" points="2226,-338 2053,-338 2053,-308 2226,-308 2226,-338"/>
<text text-anchor="start" x="2061" y="-326" font-family="Helvetica,sans-Serif" font-size="10.00">plugins/resources/meshloader</text>
<text text-anchor="middle" x="2139.5" y="-315" font-family="Helvetica,sans-Serif" font-size="10.00">/Madgine/meshloader/meshdata.cpp</text>
</a>
</g>
</g>
<!-- Node1&#45;&gt;Node29 -->
<g id="edge35" class="edge">
<title>Node1&#45;&gt;Node29</title>
<path fill="none" stroke="#63b8ff" d="M1556.47,-381.38C1670.28,-372.94 1868.83,-357.12 2038.5,-338 2043.16,-337.47 2047.94,-336.91 2052.76,-336.31"/>
<polygon fill="#63b8ff" stroke="#63b8ff" points="1556.27,-377.89 1546.55,-382.11 1556.78,-384.87 1556.27,-377.89"/>
</g>
<!-- Node30 -->
<g id="node30" class="node">
<title>Node30</title>
<g id="a_node30"><a xlink:href="meshloader_8h.html" target="_top" xlink:title=" ">
<polygon fill="white" stroke="#666666" points="1788.5,-338 1618.5,-338 1618.5,-308 1788.5,-308 1788.5,-338"/>
<text text-anchor="start" x="1626.5" y="-326" font-family="Helvetica,sans-Serif" font-size="10.00">plugins/resources/meshloader</text>
<text text-anchor="middle" x="1703.5" y="-315" font-family="Helvetica,sans-Serif" font-size="10.00">/Madgine/meshloader/meshloader.h</text>
</a>
</g>
</g>
<!-- Node1&#45;&gt;Node30 -->
<g id="edge36" class="edge">
<title>Node1&#45;&gt;Node30</title>
<path fill="none" stroke="#63b8ff" d="M1528.59,-370.64C1566.5,-360.53 1613.72,-347.94 1649.54,-338.39"/>
<polygon fill="#63b8ff" stroke="#63b8ff" points="1527.88,-367.21 1519.12,-373.17 1529.69,-373.97 1527.88,-367.21"/>
</g>
<!-- Node6 -->
<g id="node6" class="node">
<title>Node6</title>
<g id="a_node6"><a xlink:href="gridpass_8cpp.html" target="_top" xlink:title=" ">
<polygon fill="white" stroke="#666666" points="1377,-195 1220,-195 1220,-154 1377,-154 1377,-195"/>
<text text-anchor="start" x="1228" y="-183" font-family="Helvetica,sans-Serif" font-size="10.00">plugins/misc/scene</text>
<text text-anchor="start" x="1228" y="-172" font-family="Helvetica,sans-Serif" font-size="10.00">/renderer_tools/Madgine</text>
<text text-anchor="middle" x="1298.5" y="-161" font-family="Helvetica,sans-Serif" font-size="10.00">_Tools/sceneeditor/gridpass.cpp</text>
</a>
</g>
</g>
<!-- Node5&#45;&gt;Node6 -->
<g id="edge5" class="edge">
<title>Node5&#45;&gt;Node6</title>
<path fill="none" stroke="#63b8ff" d="M1183.85,-298.87C1199.6,-280.26 1222.56,-253.57 1243.5,-231 1254.66,-218.97 1267.56,-205.91 1278.06,-195.48"/>
<polygon fill="#63b8ff" stroke="#63b8ff" points="1181.27,-296.5 1177.51,-306.4 1186.63,-301.01 1181.27,-296.5"/>
</g>
<!-- Node7 -->
<g id="node7" class="node">
<title>Node7</title>
<g id="a_node7"><a xlink:href="gridpass_8h.html" target="_top" xlink:title=" ">
<polygon fill="white" stroke="#666666" points="994.5,-272 848.5,-272 848.5,-231 994.5,-231 994.5,-272"/>
<text text-anchor="start" x="856.5" y="-260" font-family="Helvetica,sans-Serif" font-size="10.00">plugins/misc/scene</text>
<text text-anchor="start" x="856.5" y="-249" font-family="Helvetica,sans-Serif" font-size="10.00">/renderer_tools/Madgine</text>
<text text-anchor="middle" x="921.5" y="-238" font-family="Helvetica,sans-Serif" font-size="10.00">_Tools/sceneeditor/gridpass.h</text>
</a>
</g>
</g>
<!-- Node5&#45;&gt;Node7 -->
<g id="edge6" class="edge">
<title>Node5&#45;&gt;Node7</title>
<path fill="none" stroke="#63b8ff" d="M1103.09,-304.44C1068.94,-294.67 1026.33,-282.48 990.97,-272.37"/>
<polygon fill="#63b8ff" stroke="#63b8ff" points="1101.82,-307.71 1112.4,-307.1 1103.75,-300.98 1101.82,-307.71"/>
</g>
<!-- Node12 -->
<g id="node12" class="node">
<title>Node12</title>
<g id="a_node12"><a xlink:href="mesh_8h.html" target="_top" xlink:title=" ">
<polygon fill="white" stroke="#666666" points="705.5,-118 577.5,-118 577.5,-77 705.5,-77 705.5,-118"/>
<text text-anchor="start" x="585.5" y="-106" font-family="Helvetica,sans-Serif" font-size="10.00">plugins/misc/scene</text>
<text text-anchor="start" x="585.5" y="-95" font-family="Helvetica,sans-Serif" font-size="10.00">/src/Madgine/scene/entity</text>
<text text-anchor="middle" x="641.5" y="-84" font-family="Helvetica,sans-Serif" font-size="10.00">/components/mesh.h</text>
</a>
</g>
</g>
<!-- Node5&#45;&gt;Node12 -->
<g id="edge13" class="edge">
<title>Node5&#45;&gt;Node12</title>
<path fill="none" stroke="#63b8ff" d="M1059.82,-318.32C921.86,-312.44 693.29,-298.77 665.5,-272 623.56,-231.6 630.93,-154.56 637.32,-118.3"/>
<polygon fill="#63b8ff" stroke="#63b8ff" points="1059.58,-321.81 1069.72,-318.73 1059.88,-314.82 1059.58,-321.81"/>
</g>
<!-- Node19 -->
<g id="node19" class="node">
<title>Node19</title>
<g id="a_node19"><a xlink:href="widgetmanager_8cpp.html" target="_top" xlink:title=" ">
<polygon fill="white" stroke="#666666" points="1758.5,-272 1648.5,-272 1648.5,-231 1758.5,-231 1758.5,-272"/>
<text text-anchor="start" x="1656.5" y="-260" font-family="Helvetica,sans-Serif" font-size="10.00">plugins/misc/widgets</text>
<text text-anchor="start" x="1656.5" y="-249" font-family="Helvetica,sans-Serif" font-size="10.00">/src/Madgine/widgets</text>
<text text-anchor="middle" x="1703.5" y="-238" font-family="Helvetica,sans-Serif" font-size="10.00">/widgetmanager.cpp</text>
</a>
</g>
</g>
<!-- Node5&#45;&gt;Node19 -->
<g id="edge22" class="edge">
<title>Node5&#45;&gt;Node19</title>
<path fill="none" stroke="#63b8ff" d="M1268.95,-316.75C1365.77,-310.53 1513.45,-297.59 1639.5,-272 1642.35,-271.42 1645.25,-270.77 1648.16,-270.07"/>
<polygon fill="#63b8ff" stroke="#63b8ff" points="1268.96,-313.24 1259.2,-317.36 1269.4,-320.23 1268.96,-313.24"/>
</g>
<!-- Node20 -->
<g id="node20" class="node">
<title>Node20</title>
<g id="a_node20"><a xlink:href="pipelineloader_8cpp.html" target="_top" xlink:title=" ">
<polygon fill="white" stroke="#666666" points="1196,-266.5 1013,-266.5 1013,-236.5 1196,-236.5 1196,-266.5"/>
<text text-anchor="start" x="1021" y="-254.5" font-family="Helvetica,sans-Serif" font-size="10.00">plugins/renderer/api</text>
<text text-anchor="middle" x="1104.5" y="-243.5" font-family="Helvetica,sans-Serif" font-size="10.00">/src/Madgine/render/pipelineloader.cpp</text>
</a>
</g>
</g>
<!-- Node5&#45;&gt;Node20 -->
<g id="edge23" class="edge">
<title>Node5&#45;&gt;Node20</title>
<path fill="none" stroke="#63b8ff" d="M1144.79,-299.17C1135.6,-288.53 1124.96,-276.2 1116.92,-266.88"/>
<polygon fill="#63b8ff" stroke="#63b8ff" points="1141.89,-301.17 1151.08,-306.45 1147.19,-296.6 1141.89,-301.17"/>
</g>
<!-- Node21 -->
<g id="node21" class="node">
<title>Node21</title>
<g id="a_node21"><a xlink:href="directx12meshloader_8h.html" target="_top" xlink:title=" ">
<polygon fill="white" stroke="#666666" points="581,-266.5 402,-266.5 402,-236.5 581,-236.5 581,-266.5"/>
<text text-anchor="start" x="410" y="-254.5" font-family="Helvetica,sans-Serif" font-size="10.00">plugins/renderer/directx12</text>
<text text-anchor="middle" x="491.5" y="-243.5" font-family="Helvetica,sans-Serif" font-size="10.00">/src/DirectX12/directx12meshloader.h</text>
</a>
</g>
</g>
<!-- Node5&#45;&gt;Node21 -->
<g id="edge24" class="edge">
<title>Node5&#45;&gt;Node21</title>
<path fill="none" stroke="#63b8ff" d="M1059.97,-313.81C951.64,-304.96 777.48,-289.72 627.5,-272 612.58,-270.24 596.76,-268.16 581.4,-266.03"/>
<polygon fill="#63b8ff" stroke="#63b8ff" points="1059.46,-317.28 1069.71,-314.6 1060.03,-310.3 1059.46,-317.28"/>
</g>
<!-- Node23 -->
<g id="node23" class="node">
<title>Node23</title>
<g id="a_node23"><a xlink:href="openglmeshloader_8h.html" target="_top" xlink:title=" ">
<polygon fill="white" stroke="#666666" points="1414.5,-266.5 1252.5,-266.5 1252.5,-236.5 1414.5,-236.5 1414.5,-266.5"/>
<text text-anchor="start" x="1260.5" y="-254.5" font-family="Helvetica,sans-Serif" font-size="10.00">plugins/renderer/opengl</text>
<text text-anchor="middle" x="1333.5" y="-243.5" font-family="Helvetica,sans-Serif" font-size="10.00">/src/OpenGL/openglmeshloader.h</text>
</a>
</g>
</g>
<!-- Node5&#45;&gt;Node23 -->
<g id="edge28" class="edge">
<title>Node5&#45;&gt;Node23</title>
<path fill="none" stroke="#63b8ff" d="M1209.8,-303.37C1237.66,-291.91 1272.82,-277.45 1298.53,-266.88"/>
<polygon fill="#63b8ff" stroke="#63b8ff" points="1208.83,-299.98 1200.92,-307.02 1211.5,-306.46 1208.83,-299.98"/>
</g>
<!-- Node25 -->
<g id="node25" class="node">
<title>Node25</title>
<g id="a_node25"><a xlink:href="vulkanmeshloader_8h.html" target="_top" xlink:title=" ">
<polygon fill="white" stroke="#666666" points="830,-266.5 675,-266.5 675,-236.5 830,-236.5 830,-266.5"/>
<text text-anchor="start" x="683" y="-254.5" font-family="Helvetica,sans-Serif" font-size="10.00">plugins/renderer/vulkan</text>
<text text-anchor="middle" x="752.5" y="-243.5" font-family="Helvetica,sans-Serif" font-size="10.00">/src/Vulkan/vulkanmeshloader.h</text>
</a>
</g>
</g>
<!-- Node5&#45;&gt;Node25 -->
<g id="edge31" class="edge">
<title>Node5&#45;&gt;Node25</title>
<path fill="none" stroke="#63b8ff" d="M1059.77,-307.73C995.93,-298.57 912.79,-285.84 839.5,-272 831.44,-270.48 822.99,-268.75 814.65,-266.97"/>
<polygon fill="#63b8ff" stroke="#63b8ff" points="1059.16,-311.18 1069.55,-309.12 1060.15,-304.25 1059.16,-311.18"/>
</g>
<!-- Node28 -->
<g id="node28" class="node">
<title>Node28</title>
<g id="a_node28"><a xlink:href="gpumeshloader_8cpp.html" target="_top" xlink:title=" ">
<polygon fill="white" stroke="#666666" points="1630,-266.5 1433,-266.5 1433,-236.5 1630,-236.5 1630,-266.5"/>
<text text-anchor="start" x="1441" y="-254.5" font-family="Helvetica,sans-Serif" font-size="10.00">plugins/resources/meshloader</text>
<text text-anchor="middle" x="1531.5" y="-243.5" font-family="Helvetica,sans-Serif" font-size="10.00">/Madgine/meshloader/gpumeshloader.cpp</text>
</a>
</g>
</g>
<!-- Node5&#45;&gt;Node28 -->
<g id="edge34" class="edge">
<title>Node5&#45;&gt;Node28</title>
<path fill="none" stroke="#63b8ff" d="M1252.28,-305.38C1314.09,-293.67 1396,-278.16 1455.11,-266.97"/>
<polygon fill="#63b8ff" stroke="#63b8ff" points="1251.65,-301.93 1242.48,-307.23 1252.95,-308.81 1251.65,-301.93"/>
</g>
<!-- Node7&#45;&gt;Node6 -->
<g id="edge7" class="edge">
<title>Node7&#45;&gt;Node6</title>
<path fill="none" stroke="#63b8ff" d="M1005.96,-230.77C1097.46,-212.39 1122.8,-212.37 1210.5,-195 1213.57,-194.39 1216.7,-193.76 1219.85,-193.11"/>
<polygon fill="#63b8ff" stroke="#63b8ff" points="1005.36,-227.32 996.25,-232.74 1006.75,-234.18 1005.36,-227.32"/>
</g>
<!-- Node8 -->
<g id="node8" class="node">
<title>Node8</title>
<g id="a_node8"><a xlink:href="sceneview_8h.html" target="_top" xlink:title=" ">
<polygon fill="white" stroke="#666666" points="1201.5,-195 1045.5,-195 1045.5,-154 1201.5,-154 1201.5,-195"/>
<text text-anchor="start" x="1053.5" y="-183" font-family="Helvetica,sans-Serif" font-size="10.00">plugins/misc/scene</text>
<text text-anchor="start" x="1053.5" y="-172" font-family="Helvetica,sans-Serif" font-size="10.00">/renderer_tools/Madgine</text>
<text text-anchor="middle" x="1123.5" y="-161" font-family="Helvetica,sans-Serif" font-size="10.00">_Tools/sceneeditor/sceneview.h</text>
</a>
</g>
</g>
<!-- Node7&#45;&gt;Node8 -->
<g id="edge8" class="edge">
<title>Node7&#45;&gt;Node8</title>
<path fill="none" stroke="#63b8ff" d="M985.63,-226.69C1012.68,-216.65 1043.82,-205.09 1069.65,-195.49"/>
<polygon fill="#63b8ff" stroke="#63b8ff" points="984.68,-223.31 976.52,-230.07 987.11,-229.87 984.68,-223.31"/>
</g>
<!-- Node9 -->
<g id="node9" class="node">
<title>Node9</title>
<g id="a_node9"><a xlink:href="sceneeditor_8h.html" target="_top" xlink:title=" ">
<polygon fill="white" stroke="#666666" points="1156.5,-118 996.5,-118 996.5,-77 1156.5,-77 1156.5,-118"/>
<text text-anchor="start" x="1004.5" y="-106" font-family="Helvetica,sans-Serif" font-size="10.00">plugins/misc/scene</text>
<text text-anchor="start" x="1004.5" y="-95" font-family="Helvetica,sans-Serif" font-size="10.00">/renderer_tools/Madgine</text>
<text text-anchor="middle" x="1076.5" y="-84" font-family="Helvetica,sans-Serif" font-size="10.00">_Tools/sceneeditor/sceneeditor.h</text>
</a>
</g>
</g>
<!-- Node8&#45;&gt;Node9 -->
<g id="edge9" class="edge">
<title>Node8&#45;&gt;Node9</title>
<path fill="none" stroke="#63b8ff" d="M1105.05,-144.06C1099.64,-135.43 1093.86,-126.21 1088.93,-118.33"/>
<polygon fill="#63b8ff" stroke="#63b8ff" points="1102.07,-145.9 1110.35,-152.51 1108,-142.18 1102.07,-145.9"/>
</g>
<!-- Node11 -->
<g id="node11" class="node">
<title>Node11</title>
<g id="a_node11"><a xlink:href="sceneview_8cpp.html" target="_top" xlink:title=" ">
<polygon fill="white" stroke="#666666" points="1268,-41 1101,-41 1101,0 1268,0 1268,-41"/>
<text text-anchor="start" x="1109" y="-29" font-family="Helvetica,sans-Serif" font-size="10.00">plugins/misc/scene</text>
<text text-anchor="start" x="1109" y="-18" font-family="Helvetica,sans-Serif" font-size="10.00">/renderer_tools/Madgine</text>
<text text-anchor="middle" x="1184.5" y="-7" font-family="Helvetica,sans-Serif" font-size="10.00">_Tools/sceneeditor/sceneview.cpp</text>
</a>
</g>
</g>
<!-- Node8&#45;&gt;Node11 -->
<g id="edge12" class="edge">
<title>Node8&#45;&gt;Node11</title>
<path fill="none" stroke="#63b8ff" d="M1149.06,-144.84C1155.26,-136.64 1161.3,-127.37 1165.5,-118 1176.74,-92.91 1181.36,-61.21 1183.24,-41.14"/>
<polygon fill="#63b8ff" stroke="#63b8ff" points="1146.53,-142.41 1143.03,-152.41 1152,-146.77 1146.53,-142.41"/>
</g>
<!-- Node10 -->
<g id="node10" class="node">
<title>Node10</title>
<g id="a_node10"><a xlink:href="sceneeditor_8cpp.html" target="_top" xlink:title=" ">
<polygon fill="white" stroke="#666666" points="1082.5,-41 912.5,-41 912.5,0 1082.5,0 1082.5,-41"/>
<text text-anchor="start" x="920.5" y="-29" font-family="Helvetica,sans-Serif" font-size="10.00">plugins/misc/scene</text>
<text text-anchor="start" x="920.5" y="-18" font-family="Helvetica,sans-Serif" font-size="10.00">/renderer_tools/Madgine</text>
<text text-anchor="middle" x="997.5" y="-7" font-family="Helvetica,sans-Serif" font-size="10.00">_Tools/sceneeditor/sceneeditor.cpp</text>
</a>
</g>
</g>
<!-- Node9&#45;&gt;Node10 -->
<g id="edge10" class="edge">
<title>Node9&#45;&gt;Node10</title>
<path fill="none" stroke="#63b8ff" d="M1047.55,-69.02C1037.89,-59.84 1027.32,-49.81 1018.39,-41.33"/>
<polygon fill="#63b8ff" stroke="#63b8ff" points="1044.98,-71.41 1054.65,-75.75 1049.8,-66.33 1044.98,-71.41"/>
</g>
<!-- Node9&#45;&gt;Node11 -->
<g id="edge11" class="edge">
<title>Node9&#45;&gt;Node11</title>
<path fill="none" stroke="#63b8ff" d="M1114.28,-70.26C1127.88,-60.82 1143,-50.32 1155.71,-41.49"/>
<polygon fill="#63b8ff" stroke="#63b8ff" points="1112.62,-67.16 1106.4,-75.73 1116.61,-72.91 1112.62,-67.16"/>
</g>
<!-- Node12&#45;&gt;Node10 -->
<g id="edge19" class="edge">
<title>Node12&#45;&gt;Node10</title>
<path fill="none" stroke="#63b8ff" d="M717.1,-80.57C774.22,-68.54 852.66,-52.01 912.06,-39.5"/>
<polygon fill="#63b8ff" stroke="#63b8ff" points="716.51,-77.12 707.45,-82.61 717.96,-83.97 716.51,-77.12"/>
</g>
<!-- Node12&#45;&gt;Node11 -->
<g id="edge20" class="edge">
<title>Node12&#45;&gt;Node11</title>
<path fill="none" stroke="#63b8ff" d="M717.24,-89.12C806.9,-79.93 960.57,-62.76 1091.5,-41 1094.51,-40.5 1097.57,-39.97 1100.66,-39.42"/>
<polygon fill="#63b8ff" stroke="#63b8ff" points="716.93,-85.63 707.34,-90.13 717.64,-92.6 716.93,-85.63"/>
</g>
<!-- Node13 -->
<g id="node13" class="node">
<title>Node13</title>
<g id="a_node13"><a xlink:href="litscenerenderdata_8cpp.html" target="_top" xlink:title=" ">
<polygon fill="white" stroke="#666666" points="449,-41 324,-41 324,0 449,0 449,-41"/>
<text text-anchor="start" x="332" y="-29" font-family="Helvetica,sans-Serif" font-size="10.00">plugins/misc/scene</text>
<text text-anchor="start" x="332" y="-18" font-family="Helvetica,sans-Serif" font-size="10.00">/renderer/Madgine/render</text>
<text text-anchor="middle" x="386.5" y="-7" font-family="Helvetica,sans-Serif" font-size="10.00">/litscenerenderdata.cpp</text>
</a>
</g>
</g>
<!-- Node12&#45;&gt;Node13 -->
<g id="edge14" class="edge">
<title>Node12&#45;&gt;Node13</title>
<path fill="none" stroke="#63b8ff" d="M566.33,-74.39C529.02,-63.42 484.48,-50.32 449.06,-39.9"/>
<polygon fill="#63b8ff" stroke="#63b8ff" points="565.12,-77.68 575.7,-77.15 567.09,-70.97 565.12,-77.68"/>
</g>
<!-- Node14 -->
<g id="node14" class="node">
<title>Node14</title>
<g id="a_node14"><a xlink:href="pointshadowrenderpass_8cpp.html" target="_top" xlink:title=" ">
<polygon fill="white" stroke="#666666" points="607.5,-41 467.5,-41 467.5,0 607.5,0 607.5,-41"/>
<text text-anchor="start" x="475.5" y="-29" font-family="Helvetica,sans-Serif" font-size="10.00">plugins/misc/scene</text>
<text text-anchor="start" x="475.5" y="-18" font-family="Helvetica,sans-Serif" font-size="10.00">/renderer/Madgine/render</text>
<text text-anchor="middle" x="537.5" y="-7" font-family="Helvetica,sans-Serif" font-size="10.00">/pointshadowrenderpass.cpp</text>
</a>
</g>
</g>
<!-- Node12&#45;&gt;Node14 -->
<g id="edge15" class="edge">
<title>Node12&#45;&gt;Node14</title>
<path fill="none" stroke="#63b8ff" d="M604.74,-69.99C591.74,-60.61 577.35,-50.24 565.23,-41.49"/>
<polygon fill="#63b8ff" stroke="#63b8ff" points="602.52,-72.7 612.68,-75.71 606.61,-67.02 602.52,-72.7"/>
</g>
<!-- Node15 -->
<g id="node15" class="node">
<title>Node15</title>
<g id="a_node15"><a xlink:href="scenerenderpass_8cpp.html" target="_top" xlink:title=" ">
<polygon fill="white" stroke="#666666" points="751,-41 626,-41 626,0 751,0 751,-41"/>
<text text-anchor="start" x="634" y="-29" font-family="Helvetica,sans-Serif" font-size="10.00">plugins/misc/scene</text>
<text text-anchor="start" x="634" y="-18" font-family="Helvetica,sans-Serif" font-size="10.00">/renderer/Madgine/render</text>
<text text-anchor="middle" x="688.5" y="-7" font-family="Helvetica,sans-Serif" font-size="10.00">/scenerenderpass.cpp</text>
</a>
</g>
</g>
<!-- Node12&#45;&gt;Node15 -->
<g id="edge16" class="edge">
<title>Node12&#45;&gt;Node15</title>
<path fill="none" stroke="#63b8ff" d="M659.95,-67.06C665.36,-58.43 671.14,-49.21 676.07,-41.33"/>
<polygon fill="#63b8ff" stroke="#63b8ff" points="657,-65.18 654.65,-75.51 662.93,-68.9 657,-65.18"/>
</g>
<!-- Node16 -->
<g id="node16" class="node">
<title>Node16</title>
<g id="a_node16"><a xlink:href="shadowrenderpass_8cpp.html" target="_top" xlink:title=" ">
<polygon fill="white" stroke="#666666" points="894,-41 769,-41 769,0 894,0 894,-41"/>
<text text-anchor="start" x="777" y="-29" font-family="Helvetica,sans-Serif" font-size="10.00">plugins/misc/scene</text>
<text text-anchor="start" x="777" y="-18" font-family="Helvetica,sans-Serif" font-size="10.00">/renderer/Madgine/render</text>
<text text-anchor="middle" x="831.5" y="-7" font-family="Helvetica,sans-Serif" font-size="10.00">/shadowrenderpass.cpp</text>
</a>
</g>
</g>
<!-- Node12&#45;&gt;Node16 -->
<g id="edge17" class="edge">
<title>Node12&#45;&gt;Node16</title>
<path fill="none" stroke="#63b8ff" d="M702.5,-72.42C727.78,-62.44 756.77,-51 780.85,-41.49"/>
<polygon fill="#63b8ff" stroke="#63b8ff" points="701.34,-69.12 693.33,-76.04 703.91,-75.63 701.34,-69.12"/>
</g>
<!-- Node17 -->
<g id="node17" class="node">
<title>Node17</title>
<g id="a_node17"><a xlink:href="shadowscenerenderdata_8cpp.html" target="_top" xlink:title=" ">
<polygon fill="white" stroke="#666666" points="159,-41 16,-41 16,0 159,0 159,-41"/>
<text text-anchor="start" x="24" y="-29" font-family="Helvetica,sans-Serif" font-size="10.00">plugins/misc/scene</text>
<text text-anchor="start" x="24" y="-18" font-family="Helvetica,sans-Serif" font-size="10.00">/renderer/Madgine/render</text>
<text text-anchor="middle" x="87.5" y="-7" font-family="Helvetica,sans-Serif" font-size="10.00">/shadowscenerenderdata.cpp</text>
</a>
</g>
</g>
<!-- Node12&#45;&gt;Node17 -->
<g id="edge18" class="edge">
<title>Node12&#45;&gt;Node17</title>
<path fill="none" stroke="#63b8ff" d="M565.91,-90.44C472.19,-82.27 307.78,-65.84 168.5,-41 165.51,-40.47 162.46,-39.89 159.39,-39.28"/>
<polygon fill="#63b8ff" stroke="#63b8ff" points="565.49,-93.91 575.75,-91.28 566.09,-86.94 565.49,-93.91"/>
</g>
<!-- Node18 -->
<g id="node18" class="node">
<title>Node18</title>
<g id="a_node18"><a xlink:href="mesh_8cpp.html" target="_top" xlink:title=" ">
<polygon fill="white" stroke="#666666" points="305.5,-41 177.5,-41 177.5,0 305.5,0 305.5,-41"/>
<text text-anchor="start" x="185.5" y="-29" font-family="Helvetica,sans-Serif" font-size="10.00">plugins/misc/scene</text>
<text text-anchor="start" x="185.5" y="-18" font-family="Helvetica,sans-Serif" font-size="10.00">/src/Madgine/scene/entity</text>
<text text-anchor="middle" x="241.5" y="-7" font-family="Helvetica,sans-Serif" font-size="10.00">/components/mesh.cpp</text>
</a>
</g>
</g>
<!-- Node12&#45;&gt;Node18 -->
<g id="edge21" class="edge">
<title>Node12&#45;&gt;Node18</title>
<path fill="none" stroke="#63b8ff" d="M566.04,-85.73C499.52,-75.75 400.13,-59.66 314.5,-41 311.68,-40.39 308.81,-39.73 305.91,-39.05"/>
<polygon fill="#63b8ff" stroke="#63b8ff" points="565.35,-89.16 575.75,-87.18 566.38,-82.24 565.35,-89.16"/>
</g>
<!-- Node21&#45;&gt;Node2 -->
<g id="edge25" class="edge">
<title>Node21&#45;&gt;Node2</title>
<path fill="none" stroke="#63b8ff" d="M403.7,-233.94C345.26,-222.91 266.79,-208.1 197.5,-195 188.92,-193.38 179.93,-191.68 170.99,-189.99"/>
<polygon fill="#63b8ff" stroke="#63b8ff" points="402.78,-237.33 413.25,-235.74 404.07,-230.45 402.78,-237.33"/>
</g>
<!-- Node21&#45;&gt;Node3 -->
<g id="edge27" class="edge">
<title>Node21&#45;&gt;Node3</title>
<path fill="none" stroke="#63b8ff" d="M444.4,-231.81C411.74,-218.85 368.87,-201.84 338.83,-189.92"/>
<polygon fill="#63b8ff" stroke="#63b8ff" points="443.07,-235.05 453.65,-235.48 445.65,-228.54 443.07,-235.05"/>
</g>
<!-- Node22 -->
<g id="node22" class="node">
<title>Node22</title>
<g id="a_node22"><a xlink:href="directx12rendercontext_8cpp.html" target="_top" xlink:title=" ">
<polygon fill="white" stroke="#666666" points="613,-189.5 416,-189.5 416,-159.5 613,-159.5 613,-189.5"/>
<text text-anchor="start" x="424" y="-177.5" font-family="Helvetica,sans-Serif" font-size="10.00">plugins/renderer/directx12</text>
<text text-anchor="middle" x="514.5" y="-166.5" font-family="Helvetica,sans-Serif" font-size="10.00">/src/DirectX12/directx12rendercontext.cpp</text>
</a>
</g>
</g>
<!-- Node21&#45;&gt;Node22 -->
<g id="edge26" class="edge">
<title>Node21&#45;&gt;Node22</title>
<path fill="none" stroke="#63b8ff" d="M499.29,-225.1C502.89,-213.37 507.03,-199.87 510.08,-189.92"/>
<polygon fill="#63b8ff" stroke="#63b8ff" points="495.96,-224.01 496.38,-234.59 502.66,-226.06 495.96,-224.01"/>
</g>
<!-- Node23&#45;&gt;Node4 -->
<g id="edge29" class="edge">
<title>Node23&#45;&gt;Node4</title>
<path fill="none" stroke="#63b8ff" d="M1408.56,-233.91C1413.95,-232.88 1419.3,-231.89 1424.5,-231 1542.1,-210.81 1679.01,-194.26 1765.7,-184.64"/>
<polygon fill="#63b8ff" stroke="#63b8ff" points="1408.12,-230.43 1398.99,-235.8 1409.48,-237.3 1408.12,-230.43"/>
</g>
<!-- Node24 -->
<g id="node24" class="node">
<title>Node24</title>
<g id="a_node24"><a xlink:href="openglrendercontext_8cpp.html" target="_top" xlink:title=" ">
<polygon fill="white" stroke="#666666" points="1576,-189.5 1395,-189.5 1395,-159.5 1576,-159.5 1576,-189.5"/>
<text text-anchor="start" x="1403" y="-177.5" font-family="Helvetica,sans-Serif" font-size="10.00">plugins/renderer/opengl</text>
<text text-anchor="middle" x="1485.5" y="-166.5" font-family="Helvetica,sans-Serif" font-size="10.00">/src/OpenGL/openglrendercontext.cpp</text>
</a>
</g>
</g>
<!-- Node23&#45;&gt;Node24 -->
<g id="edge30" class="edge">
<title>Node23&#45;&gt;Node24</title>
<path fill="none" stroke="#63b8ff" d="M1373.1,-230.96C1399.14,-218.11 1432.65,-201.58 1456.28,-189.92"/>
<polygon fill="#63b8ff" stroke="#63b8ff" points="1371.58,-227.81 1364.16,-235.37 1374.68,-234.08 1371.58,-227.81"/>
</g>
<!-- Node26 -->
<g id="node26" class="node">
<title>Node26</title>
<g id="a_node26"><a xlink:href="vulkanmeshloader_8cpp.html" target="_top" xlink:title=" ">
<polygon fill="white" stroke="#666666" points="835.5,-189.5 669.5,-189.5 669.5,-159.5 835.5,-159.5 835.5,-189.5"/>
<text text-anchor="start" x="677.5" y="-177.5" font-family="Helvetica,sans-Serif" font-size="10.00">plugins/renderer/vulkan</text>
<text text-anchor="middle" x="752.5" y="-166.5" font-family="Helvetica,sans-Serif" font-size="10.00">/src/Vulkan/vulkanmeshloader.cpp</text>
</a>
</g>
</g>
<!-- Node25&#45;&gt;Node26 -->
<g id="edge32" class="edge">
<title>Node25&#45;&gt;Node26</title>
<path fill="none" stroke="#63b8ff" d="M752.5,-224.73C752.5,-213.08 752.5,-199.76 752.5,-189.92"/>
<polygon fill="#63b8ff" stroke="#63b8ff" points="749,-224.53 752.5,-234.53 756,-224.53 749,-224.53"/>
</g>
<!-- Node27 -->
<g id="node27" class="node">
<title>Node27</title>
<g id="a_node27"><a xlink:href="vulkanrendercontext_8cpp.html" target="_top" xlink:title=" ">
<polygon fill="white" stroke="#666666" points="1027.5,-189.5 853.5,-189.5 853.5,-159.5 1027.5,-159.5 1027.5,-189.5"/>
<text text-anchor="start" x="861.5" y="-177.5" font-family="Helvetica,sans-Serif" font-size="10.00">plugins/renderer/vulkan</text>
<text text-anchor="middle" x="940.5" y="-166.5" font-family="Helvetica,sans-Serif" font-size="10.00">/src/Vulkan/vulkanrendercontext.cpp</text>
</a>
</g>
</g>
<!-- Node25&#45;&gt;Node27 -->
<g id="edge33" class="edge">
<title>Node25&#45;&gt;Node27</title>
<path fill="none" stroke="#63b8ff" d="M799.35,-231.81C831.84,-218.85 874.49,-201.84 904.36,-189.92"/>
<polygon fill="#63b8ff" stroke="#63b8ff" points="798.15,-228.52 790.15,-235.48 800.74,-235.02 798.15,-228.52"/>
</g>
<!-- Node30&#45;&gt;Node6 -->
<g id="edge37" class="edge">
<title>Node30&#45;&gt;Node6</title>
<path fill="none" stroke="#63b8ff" d="M1741.68,-301.05C1751.98,-293.37 1761.82,-283.64 1767.5,-272 1775.49,-255.62 1779.76,-244.48 1767.5,-231 1738.88,-199.55 1428.5,-201.61 1386.5,-195 1383.41,-194.51 1380.26,-193.98 1377.09,-193.42"/>
<polygon fill="#63b8ff" stroke="#63b8ff" points="1739.74,-298.14 1733.46,-306.68 1743.69,-303.92 1739.74,-298.14"/>
</g>
<!-- Node30&#45;&gt;Node19 -->
<g id="edge38" class="edge">
<title>Node30&#45;&gt;Node19</title>
<path fill="none" stroke="#63b8ff" d="M1703.5,-296.36C1703.5,-288.45 1703.5,-279.87 1703.5,-272.42"/>
<polygon fill="#63b8ff" stroke="#63b8ff" points="1700,-296.09 1703.5,-306.09 1707,-296.09 1700,-296.09"/>
</g>
<!-- Node30&#45;&gt;Node28 -->
<g id="edge39" class="edge">
<title>Node30&#45;&gt;Node28</title>
<path fill="none" stroke="#63b8ff" d="M1657.39,-303.37C1629.04,-291.91 1593.26,-277.45 1567.09,-266.88"/>
<polygon fill="#63b8ff" stroke="#63b8ff" points="1655.88,-306.53 1666.46,-307.03 1658.5,-300.04 1655.88,-306.53"/>
</g>
<!-- Node31 -->
<g id="node31" class="node">
<title>Node31</title>
<g id="a_node31"><a xlink:href="meshloader_8cpp.html" target="_top" xlink:title=" ">
<polygon fill="white" stroke="#666666" points="1996,-266.5 1815,-266.5 1815,-236.5 1996,-236.5 1996,-266.5"/>
<text text-anchor="start" x="1823" y="-254.5" font-family="Helvetica,sans-Serif" font-size="10.00">plugins/resources/meshloader</text>
<text text-anchor="middle" x="1905.5" y="-243.5" font-family="Helvetica,sans-Serif" font-size="10.00">/Madgine/meshloader/meshloader.cpp</text>
</a>
</g>
</g>
<!-- Node30&#45;&gt;Node31 -->
<g id="edge40" class="edge">
<title>Node30&#45;&gt;Node31</title>
<path fill="none" stroke="#63b8ff" d="M1755.9,-303.97C1789.46,-292.42 1832.43,-277.64 1863.7,-266.88"/>
<polygon fill="#63b8ff" stroke="#63b8ff" points="1755.1,-300.54 1746.79,-307.11 1757.38,-307.16 1755.1,-300.54"/>
</g>
</g>
</svg>
