<?xml version="1.0" encoding="UTF-8" standalone="no"?>
<!DOCTYPE svg PUBLIC "-//W3C//DTD SVG 1.1//EN"
 "http://www.w3.org/Graphics/SVG/1.1/DTD/svg11.dtd">
<!-- Generated by graphviz version 7.0.5 (20221223.1930)
 -->
<!-- Title: plugins/resources/meshloader/Madgine/meshloader/meshloader.h Pages: 1 -->
<svg width="708pt" height="115pt"
 viewBox="0.00 0.00 708.00 115.00" xmlns="http://www.w3.org/2000/svg" xmlns:xlink="http://www.w3.org/1999/xlink">
<g id="graph0" class="graph" transform="scale(1 1) rotate(0) translate(4 111)">
<title>plugins/resources/meshloader/Madgine/meshloader/meshloader.h</title>
<!-- Node1 -->
<g id="node1" class="node">
<title>Node1</title>
<g id="a_node1"><a xlink:title=" ">
<polygon fill="#999999" stroke="#666666" points="401.5,-107 231.5,-107 231.5,-77 401.5,-77 401.5,-107"/>
<text text-anchor="start" x="239.5" y="-95" font-family="Helvetica,sans-Serif" font-size="10.00">plugins/resources/meshloader</text>
<text text-anchor="middle" x="316.5" y="-84" font-family="Helvetica,sans-Serif" font-size="10.00">/Madgine/meshloader/meshloader.h</text>
</a>
</g>
</g>
<!-- Node2 -->
<g id="node2" class="node">
<title>Node2</title>
<g id="a_node2"><a xlink:href="gridpass_8cpp.html" target="_top" xlink:title=" ">
<polygon fill="white" stroke="#666666" points="157,-41 0,-41 0,0 157,0 157,-41"/>
<text text-anchor="start" x="8" y="-29" font-family="Helvetica,sans-Serif" font-size="10.00">plugins/misc/scene</text>
<text text-anchor="start" x="8" y="-18" font-family="Helvetica,sans-Serif" font-size="10.00">/renderer_tools/Madgine</text>
<text text-anchor="middle" x="78.5" y="-7" font-family="Helvetica,sans-Serif" font-size="10.00">_Tools/sceneeditor/gridpass.cpp</text>
</a>
</g>
</g>
<!-- Node1&#45;&gt;Node2 -->
<g id="edge1" class="edge">
<title>Node1&#45;&gt;Node2</title>
<path fill="none" stroke="#63b8ff" d="M255.91,-73.31C222.54,-63.56 181.02,-51.44 146.54,-41.37"/>
<polygon fill="#63b8ff" stroke="#63b8ff" points="254.86,-76.65 265.44,-76.09 256.83,-69.93 254.86,-76.65"/>
</g>
<!-- Node3 -->
<g id="node3" class="node">
<title>Node3</title>
<g id="a_node3"><a xlink:href="widgetmanager_8cpp.html" target="_top" xlink:title=" ">
<polygon fill="white" stroke="#666666" points="285.5,-41 175.5,-41 175.5,0 285.5,0 285.5,-41"/>
<text text-anchor="start" x="183.5" y="-29" font-family="Helvetica,sans-Serif" font-size="10.00">plugins/misc/widgets</text>
<text text-anchor="start" x="183.5" y="-18" font-family="Helvetica,sans-Serif" font-size="10.00">/src/Madgine/widgets</text>
<text text-anchor="middle" x="230.5" y="-7" font-family="Helvetica,sans-Serif" font-size="10.00">/widgetmanager.cpp</text>
</a>
</g>
</g>
<!-- Node1&#45;&gt;Node3 -->
<g id="edge2" class="edge">
<title>Node1&#45;&gt;Node3</title>
<path fill="none" stroke="#63b8ff" d="M289.86,-69.47C278.78,-60.52 266,-50.19 255.14,-41.42"/>
<polygon fill="#63b8ff" stroke="#63b8ff" points="287.53,-72.08 297.5,-75.65 291.93,-66.64 287.53,-72.08"/>
</g>
<!-- Node4 -->
<g id="node4" class="node">
<title>Node4</title>
<g id="a_node4"><a xlink:href="gpumeshloader_8cpp.html" target="_top" xlink:title=" ">
<polygon fill="white" stroke="#666666" points="501,-35.5 304,-35.5 304,-5.5 501,-5.5 501,-35.5"/>
<text text-anchor="start" x="312" y="-23.5" font-family="Helvetica,sans-Serif" font-size="10.00">plugins/resources/meshloader</text>
<text text-anchor="middle" x="402.5" y="-12.5" font-family="Helvetica,sans-Serif" font-size="10.00">/Madgine/meshloader/gpumeshloader.cpp</text>
</a>
</g>
</g>
<!-- Node1&#45;&gt;Node4 -->
<g id="edge3" class="edge">
<title>Node1&#45;&gt;Node4</title>
<path fill="none" stroke="#63b8ff" d="M343.19,-69.43C356.69,-58.52 372.72,-45.57 384.7,-35.88"/>
<polygon fill="#63b8ff" stroke="#63b8ff" points="341.07,-66.64 335.5,-75.65 345.47,-72.08 341.07,-66.64"/>
</g>
<!-- Node5 -->
<g id="node5" class="node">
<title>Node5</title>
<g id="a_node5"><a xlink:href="meshloader_8cpp.html" target="_top" xlink:title=" ">
<polygon fill="white" stroke="#666666" points="700,-35.5 519,-35.5 519,-5.5 700,-5.5 700,-35.5"/>
<text text-anchor="start" x="527" y="-23.5" font-family="Helvetica,sans-Serif" font-size="10.00">plugins/resources/meshloader</text>
<text text-anchor="middle" x="609.5" y="-12.5" font-family="Helvetica,sans-Serif" font-size="10.00">/Madgine/meshloader/meshloader.cpp</text>
</a>
</g>
</g>
<!-- Node1&#45;&gt;Node5 -->
<g id="edge4" class="edge">
<title>Node1&#45;&gt;Node5</title>
<path fill="none" stroke="#63b8ff" d="M388.74,-73.86C437.82,-62.22 502.01,-47 548.51,-35.97"/>
<polygon fill="#63b8ff" stroke="#63b8ff" points="387.96,-70.45 379.04,-76.17 389.58,-77.26 387.96,-70.45"/>
</g>
</g>
</svg>
