<?xml version="1.0" encoding="UTF-8" standalone="no"?>
<!DOCTYPE svg PUBLIC "-//W3C//DTD SVG 1.1//EN"
 "http://www.w3.org/Graphics/SVG/1.1/DTD/svg11.dtd">
<!-- Generated by graphviz version 7.0.5 (20221223.1930)
 -->
<!-- Title: src/Modules/moduleslib.h Pages: 1 -->
<svg width="3334pt" height="93pt"
 viewBox="0.00 0.00 3334.00 93.00" xmlns="http://www.w3.org/2000/svg" xmlns:xlink="http://www.w3.org/1999/xlink">
<g id="graph0" class="graph" transform="scale(1 1) rotate(0) translate(4 89)">
<title>src/Modules/moduleslib.h</title>
<!-- Node1 -->
<g id="node1" class="node">
<title>Node1</title>
<g id="a_node1"><a xlink:title=" ">
<polygon fill="#999999" stroke="#666666" points="1748,-85 1621,-85 1621,-66 1748,-66 1748,-85"/>
<text text-anchor="middle" x="1684.5" y="-73" font-family="Helvetica,sans-Serif" font-size="10.00">src/Modules/moduleslib.h</text>
</a>
</g>
</g>
<!-- Node2 -->
<g id="node2" class="node">
<title>Node2</title>
<g id="a_node2"><a xlink:href="processstats_8cpp.html" target="_top" xlink:title=" ">
<polygon fill="white" stroke="#666666" points="131,-30 0,-30 0,0 131,0 131,-30"/>
<text text-anchor="start" x="8" y="-18" font-family="Helvetica,sans-Serif" font-size="10.00">src/Modules/debug/profiler</text>
<text text-anchor="middle" x="65.5" y="-7" font-family="Helvetica,sans-Serif" font-size="10.00">/processstats.cpp</text>
</a>
</g>
</g>
<!-- Node1&#45;&gt;Node2 -->
<g id="edge1" class="edge">
<title>Node1&#45;&gt;Node2</title>
<path fill="none" stroke="#63b8ff" d="M1609.41,-73.91C1340.97,-71.56 429.46,-61.4 139.5,-30 136.77,-29.7 133.99,-29.36 131.19,-28.99"/>
<polygon fill="#63b8ff" stroke="#63b8ff" points="1609.03,-77.41 1619.06,-73.99 1609.09,-70.41 1609.03,-77.41"/>
</g>
<!-- Node3 -->
<g id="node3" class="node">
<title>Node3</title>
<g id="a_node3"><a xlink:href="profiler_8cpp.html" target="_top" xlink:title=" ">
<polygon fill="white" stroke="#666666" points="280,-30 149,-30 149,0 280,0 280,-30"/>
<text text-anchor="start" x="157" y="-18" font-family="Helvetica,sans-Serif" font-size="10.00">src/Modules/debug/profiler</text>
<text text-anchor="middle" x="214.5" y="-7" font-family="Helvetica,sans-Serif" font-size="10.00">/profiler.cpp</text>
</a>
</g>
</g>
<!-- Node1&#45;&gt;Node3 -->
<g id="edge2" class="edge">
<title>Node1&#45;&gt;Node3</title>
<path fill="none" stroke="#63b8ff" d="M1609.59,-73.65C1358.52,-70.54 547.99,-58.51 288.5,-30 285.77,-29.7 282.99,-29.36 280.19,-28.97"/>
<polygon fill="#63b8ff" stroke="#63b8ff" points="1609.21,-77.14 1619.26,-73.76 1609.3,-70.14 1609.21,-77.14"/>
</g>
<!-- Node4 -->
<g id="node4" class="node">
<title>Node4</title>
<g id="a_node4"><a xlink:href="profilerthread_8cpp.html" target="_top" xlink:title=" ">
<polygon fill="white" stroke="#666666" points="429,-30 298,-30 298,0 429,0 429,-30"/>
<text text-anchor="start" x="306" y="-18" font-family="Helvetica,sans-Serif" font-size="10.00">src/Modules/debug/profiler</text>
<text text-anchor="middle" x="363.5" y="-7" font-family="Helvetica,sans-Serif" font-size="10.00">/profilerthread.cpp</text>
</a>
</g>
</g>
<!-- Node1&#45;&gt;Node4 -->
<g id="edge3" class="edge">
<title>Node1&#45;&gt;Node4</title>
<path fill="none" stroke="#63b8ff" d="M1609.47,-73.31C1376.34,-69.39 666.55,-55.6 437.5,-30 434.77,-29.69 431.99,-29.35 429.19,-28.96"/>
<polygon fill="#63b8ff" stroke="#63b8ff" points="1609.29,-76.81 1619.35,-73.48 1609.41,-69.81 1609.29,-76.81"/>
</g>
<!-- Node5 -->
<g id="node5" class="node">
<title>Node5</title>
<g id="a_node5"><a xlink:href="staticprocess_8cpp.html" target="_top" xlink:title=" ">
<polygon fill="white" stroke="#666666" points="578,-30 447,-30 447,0 578,0 578,-30"/>
<text text-anchor="start" x="455" y="-18" font-family="Helvetica,sans-Serif" font-size="10.00">src/Modules/debug/profiler</text>
<text text-anchor="middle" x="512.5" y="-7" font-family="Helvetica,sans-Serif" font-size="10.00">/staticprocess.cpp</text>
</a>
</g>
</g>
<!-- Node1&#45;&gt;Node5 -->
<g id="edge4" class="edge">
<title>Node1&#45;&gt;Node5</title>
<path fill="none" stroke="#63b8ff" d="M1609.18,-75.24C1430.84,-76.15 969.05,-73.7 586.5,-30 583.77,-29.69 580.99,-29.33 578.19,-28.95"/>
<polygon fill="#63b8ff" stroke="#63b8ff" points="1609.02,-78.74 1618.99,-75.18 1608.97,-71.74 1609.02,-78.74"/>
</g>
<!-- Node6 -->
<g id="node6" class="node">
<title>Node6</title>
<g id="a_node6"><a xlink:href="tasktracker_8cpp.html" target="_top" xlink:title=" ">
<polygon fill="white" stroke="#666666" points="751,-30 596,-30 596,0 751,0 751,-30"/>
<text text-anchor="start" x="604" y="-18" font-family="Helvetica,sans-Serif" font-size="10.00">src/Modules/debug/tasktracking</text>
<text text-anchor="middle" x="673.5" y="-7" font-family="Helvetica,sans-Serif" font-size="10.00">/tasktracker.cpp</text>
</a>
</g>
</g>
<!-- Node1&#45;&gt;Node6 -->
<g id="edge5" class="edge">
<title>Node1&#45;&gt;Node6</title>
<path fill="none" stroke="#63b8ff" d="M1609.23,-73.76C1451.32,-71.59 1074.02,-63.06 759.5,-30 756.79,-29.72 754.04,-29.4 751.26,-29.06"/>
<polygon fill="#63b8ff" stroke="#63b8ff" points="1609.11,-77.26 1619.15,-73.9 1609.2,-70.26 1609.11,-77.26"/>
</g>
<!-- Node7 -->
<g id="node7" class="node">
<title>Node7</title>
<g id="a_node7"><a xlink:href="inifile_8cpp.html" target="_top" xlink:title=" ">
<polygon fill="white" stroke="#666666" points="894,-24.5 769,-24.5 769,-5.5 894,-5.5 894,-24.5"/>
<text text-anchor="middle" x="831.5" y="-12.5" font-family="Helvetica,sans-Serif" font-size="10.00">src/Modules/ini/inifile.cpp</text>
</a>
</g>
</g>
<!-- Node1&#45;&gt;Node7 -->
<g id="edge6" class="edge">
<title>Node1&#45;&gt;Node7</title>
<path fill="none" stroke="#63b8ff" d="M1609.24,-73.66C1469.46,-71.34 1160.51,-62.62 902.5,-30 892.53,-28.74 881.86,-26.9 871.89,-24.97"/>
<polygon fill="#63b8ff" stroke="#63b8ff" points="1609.06,-77.16 1619.11,-73.82 1609.17,-70.16 1609.06,-77.16"/>
</g>
<!-- Node8 -->
<g id="node8" class="node">
<title>Node8</title>
<g id="a_node8"><a xlink:href="inisection_8cpp.html" target="_top" xlink:title=" ">
<polygon fill="white" stroke="#666666" points="1057,-24.5 912,-24.5 912,-5.5 1057,-5.5 1057,-24.5"/>
<text text-anchor="middle" x="984.5" y="-12.5" font-family="Helvetica,sans-Serif" font-size="10.00">src/Modules/ini/inisection.cpp</text>
</a>
</g>
</g>
<!-- Node1&#45;&gt;Node8 -->
<g id="edge7" class="edge">
<title>Node1&#45;&gt;Node8</title>
<path fill="none" stroke="#63b8ff" d="M1609.44,-71.45C1492.91,-66.19 1261.57,-53.62 1066.5,-30 1055.32,-28.65 1043.34,-26.82 1032.08,-24.93"/>
<polygon fill="#63b8ff" stroke="#63b8ff" points="1609.04,-74.94 1619.18,-71.89 1609.35,-67.94 1609.04,-74.94"/>
</g>
<!-- Node9 -->
<g id="node9" class="node">
<title>Node9</title>
<g id="a_node9"><a xlink:href="plugin_8cpp.html" target="_top" xlink:title=" ">
<polygon fill="white" stroke="#666666" points="1179.5,-30 1075.5,-30 1075.5,0 1179.5,0 1179.5,-30"/>
<text text-anchor="start" x="1083.5" y="-18" font-family="Helvetica,sans-Serif" font-size="10.00">src/Modules/plugins</text>
<text text-anchor="middle" x="1127.5" y="-7" font-family="Helvetica,sans-Serif" font-size="10.00">/plugin.cpp</text>
</a>
</g>
</g>
<!-- Node1&#45;&gt;Node9 -->
<g id="edge8" class="edge">
<title>Node1&#45;&gt;Node9</title>
<path fill="none" stroke="#63b8ff" d="M1609.53,-70.96C1512.06,-65.63 1336.75,-53.55 1188.5,-30 1185.71,-29.56 1182.86,-29.06 1179.98,-28.52"/>
<polygon fill="#63b8ff" stroke="#63b8ff" points="1609.05,-74.44 1619.23,-71.48 1609.43,-67.45 1609.05,-74.44"/>
</g>
<!-- Node10 -->
<g id="node10" class="node">
<title>Node10</title>
<g id="a_node10"><a xlink:href="pluginmanager_8cpp.html" target="_top" xlink:title=" ">
<polygon fill="white" stroke="#666666" points="1301.5,-30 1197.5,-30 1197.5,0 1301.5,0 1301.5,-30"/>
<text text-anchor="start" x="1205.5" y="-18" font-family="Helvetica,sans-Serif" font-size="10.00">src/Modules/plugins</text>
<text text-anchor="middle" x="1249.5" y="-7" font-family="Helvetica,sans-Serif" font-size="10.00">/pluginmanager.cpp</text>
</a>
</g>
</g>
<!-- Node1&#45;&gt;Node10 -->
<g id="edge9" class="edge">
<title>Node1&#45;&gt;Node10</title>
<path fill="none" stroke="#63b8ff" d="M1609.36,-67.95C1533.6,-60.78 1413.45,-47.89 1310.5,-30 1307.61,-29.5 1304.65,-28.95 1301.67,-28.36"/>
<polygon fill="#63b8ff" stroke="#63b8ff" points="1608.88,-71.42 1619.16,-68.86 1609.53,-64.45 1608.88,-71.42"/>
</g>
<!-- Node11 -->
<g id="node11" class="node">
<title>Node11</title>
<g id="a_node11"><a xlink:href="pluginsection_8cpp.html" target="_top" xlink:title=" ">
<polygon fill="white" stroke="#666666" points="1423.5,-30 1319.5,-30 1319.5,0 1423.5,0 1423.5,-30"/>
<text text-anchor="start" x="1327.5" y="-18" font-family="Helvetica,sans-Serif" font-size="10.00">src/Modules/plugins</text>
<text text-anchor="middle" x="1371.5" y="-7" font-family="Helvetica,sans-Serif" font-size="10.00">/pluginsection.cpp</text>
</a>
</g>
</g>
<!-- Node1&#45;&gt;Node11 -->
<g id="edge10" class="edge">
<title>Node1&#45;&gt;Node11</title>
<path fill="none" stroke="#63b8ff" d="M1618.11,-63.72C1567.2,-55.23 1495.24,-42.73 1432.5,-30 1429.62,-29.42 1426.68,-28.8 1423.71,-28.17"/>
<polygon fill="#63b8ff" stroke="#63b8ff" points="1617.36,-67.15 1627.8,-65.33 1618.51,-60.24 1617.36,-67.15"/>
</g>
<!-- Node12 -->
<g id="node12" class="node">
<title>Node12</title>
<g id="a_node12"><a xlink:href="awaitabletimepoint_8cpp.html" target="_top" xlink:title=" ">
<polygon fill="white" stroke="#666666" points="1609.5,-30 1441.5,-30 1441.5,0 1609.5,0 1609.5,-30"/>
<text text-anchor="start" x="1449.5" y="-18" font-family="Helvetica,sans-Serif" font-size="10.00">src/Modules/threading</text>
<text text-anchor="middle" x="1525.5" y="-7" font-family="Helvetica,sans-Serif" font-size="10.00">/awaitables/awaitabletimepoint.cpp</text>
</a>
</g>
</g>
<!-- Node1&#45;&gt;Node12 -->
<g id="edge11" class="edge">
<title>Node1&#45;&gt;Node12</title>
<path fill="none" stroke="#63b8ff" d="M1649.85,-61.75C1624.77,-52.52 1590.83,-40.04 1564.75,-30.44"/>
<polygon fill="#63b8ff" stroke="#63b8ff" points="1648.34,-64.92 1658.93,-65.09 1650.75,-58.35 1648.34,-64.92"/>
</g>
<!-- Node13 -->
<g id="node13" class="node">
<title>Node13</title>
<g id="a_node13"><a xlink:href="customclock_8cpp.html" target="_top" xlink:title=" ">
<polygon fill="white" stroke="#666666" points="1741,-30 1628,-30 1628,0 1741,0 1741,-30"/>
<text text-anchor="start" x="1636" y="-18" font-family="Helvetica,sans-Serif" font-size="10.00">src/Modules/threading</text>
<text text-anchor="middle" x="1684.5" y="-7" font-family="Helvetica,sans-Serif" font-size="10.00">/customclock.cpp</text>
</a>
</g>
</g>
<!-- Node1&#45;&gt;Node13 -->
<g id="edge12" class="edge">
<title>Node1&#45;&gt;Node13</title>
<path fill="none" stroke="#63b8ff" d="M1684.5,-54.51C1684.5,-46.49 1684.5,-37.43 1684.5,-30.11"/>
<polygon fill="#63b8ff" stroke="#63b8ff" points="1681,-54.35 1684.5,-64.35 1688,-54.35 1681,-54.35"/>
</g>
<!-- Node14 -->
<g id="node14" class="node">
<title>Node14</title>
<g id="a_node14"><a xlink:href="datamutex_8cpp.html" target="_top" xlink:title=" ">
<polygon fill="white" stroke="#666666" points="1872,-30 1759,-30 1759,0 1872,0 1872,-30"/>
<text text-anchor="start" x="1767" y="-18" font-family="Helvetica,sans-Serif" font-size="10.00">src/Modules/threading</text>
<text text-anchor="middle" x="1815.5" y="-7" font-family="Helvetica,sans-Serif" font-size="10.00">/datamutex.cpp</text>
</a>
</g>
</g>
<!-- Node1&#45;&gt;Node14 -->
<g id="edge13" class="edge">
<title>Node1&#45;&gt;Node14</title>
<path fill="none" stroke="#63b8ff" d="M1714.73,-61C1735.21,-51.85 1762.25,-39.78 1783.17,-30.44"/>
<polygon fill="#63b8ff" stroke="#63b8ff" points="1713.48,-57.72 1705.78,-65 1716.34,-64.12 1713.48,-57.72"/>
</g>
<!-- Node15 -->
<g id="node15" class="node">
<title>Node15</title>
<g id="a_node15"><a xlink:href="scheduler_8cpp.html" target="_top" xlink:title=" ">
<polygon fill="white" stroke="#666666" points="2003,-30 1890,-30 1890,0 2003,0 2003,-30"/>
<text text-anchor="start" x="1898" y="-18" font-family="Helvetica,sans-Serif" font-size="10.00">src/Modules/threading</text>
<text text-anchor="middle" x="1946.5" y="-7" font-family="Helvetica,sans-Serif" font-size="10.00">/scheduler.cpp</text>
</a>
</g>
</g>
<!-- Node1&#45;&gt;Node15 -->
<g id="edge14" class="edge">
<title>Node1&#45;&gt;Node15</title>
<path fill="none" stroke="#63b8ff" d="M1735.68,-63.07C1780.02,-53.17 1844.06,-38.87 1889.91,-28.64"/>
<polygon fill="#63b8ff" stroke="#63b8ff" points="1735.05,-59.63 1726.05,-65.22 1736.58,-66.46 1735.05,-59.63"/>
</g>
<!-- Node16 -->
<g id="node16" class="node">
<title>Node16</title>
<g id="a_node16"><a xlink:href="taskhandle_8cpp.html" target="_top" xlink:title=" ">
<polygon fill="white" stroke="#666666" points="2134,-30 2021,-30 2021,0 2134,0 2134,-30"/>
<text text-anchor="start" x="2029" y="-18" font-family="Helvetica,sans-Serif" font-size="10.00">src/Modules/threading</text>
<text text-anchor="middle" x="2077.5" y="-7" font-family="Helvetica,sans-Serif" font-size="10.00">/taskhandle.cpp</text>
</a>
</g>
</g>
<!-- Node1&#45;&gt;Node16 -->
<g id="edge15" class="edge">
<title>Node1&#45;&gt;Node16</title>
<path fill="none" stroke="#63b8ff" d="M1759.44,-66C1826.09,-58.05 1926.08,-45.14 2012.5,-30 2015.23,-29.52 2018.02,-29.01 2020.83,-28.48"/>
<polygon fill="#63b8ff" stroke="#63b8ff" points="1759.24,-62.5 1749.72,-67.16 1760.06,-69.46 1759.24,-62.5"/>
</g>
<!-- Node17 -->
<g id="node17" class="node">
<title>Node17</title>
<g id="a_node17"><a xlink:href="taskpromise_8cpp.html" target="_top" xlink:title=" ">
<polygon fill="white" stroke="#666666" points="2265,-30 2152,-30 2152,0 2265,0 2265,-30"/>
<text text-anchor="start" x="2160" y="-18" font-family="Helvetica,sans-Serif" font-size="10.00">src/Modules/threading</text>
<text text-anchor="middle" x="2208.5" y="-7" font-family="Helvetica,sans-Serif" font-size="10.00">/taskpromise.cpp</text>
</a>
</g>
</g>
<!-- Node1&#45;&gt;Node17 -->
<g id="edge16" class="edge">
<title>Node1&#45;&gt;Node17</title>
<path fill="none" stroke="#63b8ff" d="M1759.6,-69.89C1850.77,-63.68 2009.03,-50.93 2143.5,-30 2146.24,-29.57 2149.03,-29.1 2151.85,-28.6"/>
<polygon fill="#63b8ff" stroke="#63b8ff" points="1759.53,-66.39 1749.78,-70.55 1760,-73.37 1759.53,-66.39"/>
</g>
<!-- Node18 -->
<g id="node18" class="node">
<title>Node18</title>
<g id="a_node18"><a xlink:href="taskpromisesharedstate_8cpp.html" target="_top" xlink:title=" ">
<polygon fill="white" stroke="#666666" points="2425.5,-30 2283.5,-30 2283.5,0 2425.5,0 2425.5,-30"/>
<text text-anchor="start" x="2291.5" y="-18" font-family="Helvetica,sans-Serif" font-size="10.00">src/Modules/threading</text>
<text text-anchor="middle" x="2354.5" y="-7" font-family="Helvetica,sans-Serif" font-size="10.00">/taskpromisesharedstate.cpp</text>
</a>
</g>
</g>
<!-- Node1&#45;&gt;Node18 -->
<g id="edge17" class="edge">
<title>Node1&#45;&gt;Node18</title>
<path fill="none" stroke="#63b8ff" d="M1759.63,-71.19C1871.97,-65.72 2090.22,-53.02 2274.5,-30 2277.3,-29.65 2280.15,-29.27 2283.02,-28.87"/>
<polygon fill="#63b8ff" stroke="#63b8ff" points="1759.77,-67.68 1749.95,-71.66 1760.11,-74.68 1759.77,-67.68"/>
</g>
<!-- Node19 -->
<g id="node19" class="node">
<title>Node19</title>
<g id="a_node19"><a xlink:href="taskqueue_8cpp.html" target="_top" xlink:title=" ">
<polygon fill="white" stroke="#666666" points="2557,-30 2444,-30 2444,0 2557,0 2557,-30"/>
<text text-anchor="start" x="2452" y="-18" font-family="Helvetica,sans-Serif" font-size="10.00">src/Modules/threading</text>
<text text-anchor="middle" x="2500.5" y="-7" font-family="Helvetica,sans-Serif" font-size="10.00">/taskqueue.cpp</text>
</a>
</g>
</g>
<!-- Node1&#45;&gt;Node19 -->
<g id="edge18" class="edge">
<title>Node1&#45;&gt;Node19</title>
<path fill="none" stroke="#63b8ff" d="M1759.45,-73.76C1894.84,-71.6 2188.94,-63.14 2434.5,-30 2437.52,-29.59 2440.6,-29.12 2443.71,-28.61"/>
<polygon fill="#63b8ff" stroke="#63b8ff" points="1759.48,-70.26 1749.54,-73.91 1759.59,-77.26 1759.48,-70.26"/>
</g>
<!-- Node20 -->
<g id="node20" class="node">
<title>Node20</title>
<g id="a_node20"><a xlink:href="threadstorage_8cpp.html" target="_top" xlink:title=" ">
<polygon fill="white" stroke="#666666" points="2688,-30 2575,-30 2575,0 2688,0 2688,-30"/>
<text text-anchor="start" x="2583" y="-18" font-family="Helvetica,sans-Serif" font-size="10.00">src/Modules/threading</text>
<text text-anchor="middle" x="2631.5" y="-7" font-family="Helvetica,sans-Serif" font-size="10.00">/threadstorage.cpp</text>
</a>
</g>
</g>
<!-- Node1&#45;&gt;Node20 -->
<g id="edge19" class="edge">
<title>Node1&#45;&gt;Node20</title>
<path fill="none" stroke="#63b8ff" d="M1759.53,-74.79C1912.18,-74.49 2269.55,-69.21 2566.5,-30 2569.13,-29.65 2571.82,-29.25 2574.52,-28.82"/>
<polygon fill="#63b8ff" stroke="#63b8ff" points="1759.97,-71.29 1749.98,-74.8 1759.98,-78.29 1759.97,-71.29"/>
</g>
<!-- Node21 -->
<g id="node21" class="node">
<title>Node21</title>
<g id="a_node21"><a xlink:href="workgroup_8cpp.html" target="_top" xlink:title=" ">
<polygon fill="white" stroke="#666666" points="2819,-30 2706,-30 2706,0 2819,0 2819,-30"/>
<text text-anchor="start" x="2714" y="-18" font-family="Helvetica,sans-Serif" font-size="10.00">src/Modules/threading</text>
<text text-anchor="middle" x="2762.5" y="-7" font-family="Helvetica,sans-Serif" font-size="10.00">/workgroup.cpp</text>
</a>
</g>
</g>
<!-- Node1&#45;&gt;Node21 -->
<g id="edge20" class="edge">
<title>Node1&#45;&gt;Node21</title>
<path fill="none" stroke="#63b8ff" d="M1759.66,-72.84C1962.18,-68.1 2516.17,-53.34 2697.5,-30 2700.13,-29.66 2702.82,-29.27 2705.52,-28.84"/>
<polygon fill="#63b8ff" stroke="#63b8ff" points="1759.7,-69.34 1749.78,-73.07 1759.86,-76.34 1759.7,-69.34"/>
</g>
<!-- Node22 -->
<g id="node22" class="node">
<title>Node22</title>
<g id="a_node22"><a xlink:href="workgroupstorage_8cpp.html" target="_top" xlink:title=" ">
<polygon fill="white" stroke="#666666" points="2952,-30 2837,-30 2837,0 2952,0 2952,-30"/>
<text text-anchor="start" x="2845" y="-18" font-family="Helvetica,sans-Serif" font-size="10.00">src/Modules/threading</text>
<text text-anchor="middle" x="2894.5" y="-7" font-family="Helvetica,sans-Serif" font-size="10.00">/workgroupstorage.cpp</text>
</a>
</g>
</g>
<!-- Node1&#45;&gt;Node22 -->
<g id="edge21" class="edge">
<title>Node1&#45;&gt;Node22</title>
<path fill="none" stroke="#63b8ff" d="M1759.68,-73.25C1979.83,-69.31 2620.68,-55.89 2828.5,-30 2831.17,-29.67 2833.9,-29.28 2836.65,-28.85"/>
<polygon fill="#63b8ff" stroke="#63b8ff" points="1759.72,-69.75 1749.78,-73.42 1759.84,-76.74 1759.72,-69.75"/>
</g>
<!-- Node23 -->
<g id="node23" class="node">
<title>Node23</title>
<g id="a_node23"><a xlink:href="uniquecomponentcollectormanager_8cpp.html" target="_top" xlink:title=" ">
<polygon fill="white" stroke="#666666" points="3158.5,-30 2970.5,-30 2970.5,0 3158.5,0 3158.5,-30"/>
<text text-anchor="start" x="2978.5" y="-18" font-family="Helvetica,sans-Serif" font-size="10.00">src/Modules/uniquecomponent</text>
<text text-anchor="middle" x="3064.5" y="-7" font-family="Helvetica,sans-Serif" font-size="10.00">/uniquecomponentcollectormanager.cpp</text>
</a>
</g>
</g>
<!-- Node1&#45;&gt;Node23 -->
<g id="edge22" class="edge">
<title>Node1&#45;&gt;Node23</title>
<path fill="none" stroke="#63b8ff" d="M1759.8,-74.51C1957.29,-73.96 2506.39,-68.76 2961.5,-30 2964.38,-29.75 2967.3,-29.49 2970.24,-29.2"/>
<polygon fill="#63b8ff" stroke="#63b8ff" points="1759.92,-71.01 1749.93,-74.53 1759.94,-78.01 1759.92,-71.01"/>
</g>
<!-- Node24 -->
<g id="node24" class="node">
<title>Node24</title>
<g id="a_node24"><a xlink:href="uniquecomponentregistry_8cpp.html" target="_top" xlink:title=" ">
<polygon fill="white" stroke="#666666" points="3326,-30 3177,-30 3177,0 3326,0 3326,-30"/>
<text text-anchor="start" x="3185" y="-18" font-family="Helvetica,sans-Serif" font-size="10.00">src/Modules/uniquecomponent</text>
<text text-anchor="middle" x="3251.5" y="-7" font-family="Helvetica,sans-Serif" font-size="10.00">/uniquecomponentregistry.cpp</text>
</a>
</g>
</g>
<!-- Node1&#45;&gt;Node24 -->
<g id="edge23" class="edge">
<title>Node1&#45;&gt;Node24</title>
<path fill="none" stroke="#63b8ff" d="M1759.59,-73.59C2020.95,-70.21 2889.95,-57.17 3167.5,-30 3170.59,-29.7 3173.74,-29.35 3176.91,-28.97"/>
<polygon fill="#63b8ff" stroke="#63b8ff" points="1759.81,-70.09 1749.86,-73.71 1759.9,-77.09 1759.81,-70.09"/>
</g>
</g>
</svg>
