<?xml version="1.0" encoding="UTF-8" standalone="no"?>
<!DOCTYPE svg PUBLIC "-//W3C//DTD SVG 1.1//EN"
 "http://www.w3.org/Graphics/SVG/1.1/DTD/svg11.dtd">
<!-- Generated by graphviz version 7.0.5 (20221223.1930)
 -->
<!-- Title: plugins/behavior/nodegraph/src/Madgine/nodegraph/nodeinterpreter.h Pages: 1 -->
<!--zoomable 335 -->
<svg id="main" version="1.1" xmlns="http://www.w3.org/2000/svg" xmlns:xlink="http://www.w3.org/1999/xlink" xml:space="preserve" onload="init(evt)">
<style type="text/css"><![CDATA[
.edge:hover path { stroke: red; }
.edge:hover polygon { stroke: red; fill: red; }
]]></style>
<script type="text/javascript"><![CDATA[
var edges = document.getElementsByTagName('g');
if (edges && edges.length) {
  for (var i=0;i<edges.length;i++) {
    if (edges[i].id.substr(0,4)=='edge') {
      edges[i].setAttribute('class','edge');
    }
  }
}
]]></script>
        <defs>
                <circle id="rim" cx="0" cy="0" r="7"/>
                <circle id="rim2" cx="0" cy="0" r="3.5"/>
                <g id="zoomPlus">
                        <use xlink:href="#rim" fill="#404040">
                                <set attributeName="fill" to="#808080" begin="zoomplus.mouseover" end="zoomplus.mouseout"/>
                        </use>
                        <path d="M-4,0h8M0,-4v8" fill="none" stroke="white" stroke-width="1.5" pointer-events="none"/>
                </g>
                <g id="zoomMin">
                        <use xlink:href="#rim" fill="#404040">
                                <set attributeName="fill" to="#808080" begin="zoomminus.mouseover" end="zoomminus.mouseout"/>
                        </use>
                        <path d="M-4,0h8" fill="none" stroke="white" stroke-width="1.5" pointer-events="none"/>
                </g>
                <g id="dirArrow">
                        <path fill="none" stroke="white" stroke-width="1.5" d="M0,-3.0v7 M-2.5,-0.5L0,-3.0L2.5,-0.5"/>
                </g>
               <g id="resetDef">
                       <use xlink:href="#rim2" fill="#404040">
                               <set attributeName="fill" to="#808080" begin="reset.mouseover" end="reset.mouseout"/>
                       </use>
               </g>
        </defs>

<script type="text/javascript">
var viewWidth = 1621;
var viewHeight = 335;
var sectionId = 'dynsection-1';
</script>
<script xlink:href="svgpan.js"/>
<svg id="graph" class="graph">
<g id="viewport">
<title>plugins/behavior/nodegraph/src/Madgine/nodegraph/nodeinterpreter.h</title>
<!-- Node1 -->
<g id="node1" class="node">
<title>Node1</title>
<g id="a_node1"><a xlink:title=" ">
<polygon fill="#999999" stroke="#666666" points="955,-327 759,-327 759,-297 955,-297 955,-327"/>
<text text-anchor="start" x="767" y="-315" font-family="Helvetica,sans-Serif" font-size="10.00">plugins/behavior/nodegraph</text>
<text text-anchor="middle" x="857" y="-304" font-family="Helvetica,sans-Serif" font-size="10.00">/src/Madgine/nodegraph/nodeinterpreter.h</text>
</a>
</g>
</g>
<!-- Node2 -->
<g id="node2" class="node">
<title>Node2</title>
<g id="a_node2"><a xlink:href="nodeexecution_8cpp.html" target="_top" xlink:title=" ">
<polygon fill="white" stroke="#666666" points="204,-189.5 0,-189.5 0,-159.5 204,-159.5 204,-189.5"/>
<text text-anchor="start" x="8" y="-177.5" font-family="Helvetica,sans-Serif" font-size="10.00">plugins/behavior/nodegraph</text>
<text text-anchor="middle" x="102" y="-166.5" font-family="Helvetica,sans-Serif" font-size="10.00">/src/Madgine/nodegraph/nodeexecution.cpp</text>
</a>
</g>
</g>
<!-- Node1&#45;&gt;Node2 -->
<g id="edge1" class="edge">
<title>Node1&#45;&gt;Node2</title>
<path fill="none" stroke="#63b8ff" d="M747.42,-300.58C666.98,-292.13 555.25,-278.71 458,-261 348.88,-241.12 223.11,-208.62 154.09,-189.94"/>
<polygon fill="#63b8ff" stroke="#63b8ff" points="746.75,-304.03 757.06,-301.58 747.47,-297.07 746.75,-304.03"/>
</g>
<!-- Node3 -->
<g id="node3" class="node">
<title>Node3</title>
<g id="a_node3"><a xlink:href="nodeexecution_8h.html" target="_top" xlink:title=" ">
<polygon fill="white" stroke="#666666" points="786,-261 592,-261 592,-231 786,-231 786,-261"/>
<text text-anchor="start" x="600" y="-249" font-family="Helvetica,sans-Serif" font-size="10.00">plugins/behavior/nodegraph</text>
<text text-anchor="middle" x="689" y="-238" font-family="Helvetica,sans-Serif" font-size="10.00">/src/Madgine/nodegraph/nodeexecution.h</text>
</a>
</g>
</g>
<!-- Node1&#45;&gt;Node3 -->
<g id="edge2" class="edge">
<title>Node1&#45;&gt;Node3</title>
<path fill="none" stroke="#63b8ff" d="M808.54,-292.54C782.56,-282.64 751.03,-270.63 726.87,-261.43"/>
<polygon fill="#63b8ff" stroke="#63b8ff" points="807.29,-295.81 817.88,-296.1 809.78,-289.27 807.29,-295.81"/>
</g>
<!-- Node4 -->
<g id="node4" class="node">
<title>Node4</title>
<g id="a_node4"><a xlink:href="nodeinterpreter_8cpp.html" target="_top" xlink:title=" ">
<polygon fill="white" stroke="#666666" points="428,-189.5 222,-189.5 222,-159.5 428,-159.5 428,-189.5"/>
<text text-anchor="start" x="230" y="-177.5" font-family="Helvetica,sans-Serif" font-size="10.00">plugins/behavior/nodegraph</text>
<text text-anchor="middle" x="325" y="-166.5" font-family="Helvetica,sans-Serif" font-size="10.00">/src/Madgine/nodegraph/nodeinterpreter.cpp</text>
</a>
</g>
</g>
<!-- Node1&#45;&gt;Node4 -->
<g id="edge16" class="edge">
<title>Node1&#45;&gt;Node4</title>
<path fill="none" stroke="#63b8ff" d="M747.53,-298.75C688.17,-290.73 613.87,-278.45 549,-261 478.46,-242.02 399.36,-208.88 356.59,-189.92"/>
<polygon fill="#63b8ff" stroke="#63b8ff" points="746.95,-302.2 757.32,-300.05 747.87,-295.26 746.95,-302.2"/>
</g>
<!-- Node5 -->
<g id="node5" class="node">
<title>Node5</title>
<g id="a_node5"><a xlink:href="accessornode_8cpp.html" target="_top" xlink:title=" ">
<polygon fill="white" stroke="#666666" points="596,-195 446,-195 446,-154 596,-154 596,-195"/>
<text text-anchor="start" x="454" y="-183" font-family="Helvetica,sans-Serif" font-size="10.00">plugins/behavior/nodegraph</text>
<text text-anchor="start" x="454" y="-172" font-family="Helvetica,sans-Serif" font-size="10.00">/src/Madgine/nodegraph/nodes</text>
<text text-anchor="middle" x="521" y="-161" font-family="Helvetica,sans-Serif" font-size="10.00">/accessornode.cpp</text>
</a>
</g>
</g>
<!-- Node1&#45;&gt;Node5 -->
<g id="edge17" class="edge">
<title>Node1&#45;&gt;Node5</title>
<path fill="none" stroke="#63b8ff" d="M747.23,-299.38C683.38,-291.01 610.26,-278.17 583,-261 557.86,-245.17 539.71,-215.14 529.77,-195.22"/>
<polygon fill="#63b8ff" stroke="#63b8ff" points="746.75,-302.84 757.11,-300.64 747.64,-295.9 746.75,-302.84"/>
</g>
<!-- Node6 -->
<g id="node6" class="node">
<title>Node6</title>
<g id="a_node6"><a xlink:href="functionnode_8cpp.html" target="_top" xlink:title=" ">
<polygon fill="white" stroke="#666666" points="764,-195 614,-195 614,-154 764,-154 764,-195"/>
<text text-anchor="start" x="622" y="-183" font-family="Helvetica,sans-Serif" font-size="10.00">plugins/behavior/nodegraph</text>
<text text-anchor="start" x="622" y="-172" font-family="Helvetica,sans-Serif" font-size="10.00">/src/Madgine/nodegraph/nodes</text>
<text text-anchor="middle" x="689" y="-161" font-family="Helvetica,sans-Serif" font-size="10.00">/functionnode.cpp</text>
</a>
</g>
</g>
<!-- Node1&#45;&gt;Node6 -->
<g id="edge18" class="edge">
<title>Node1&#45;&gt;Node6</title>
<path fill="none" stroke="#63b8ff" d="M842.67,-287.41C831.34,-270.18 814.26,-247.12 795,-231 777.88,-216.67 756.44,-204.58 737.34,-195.39"/>
<polygon fill="#63b8ff" stroke="#63b8ff" points="839.51,-288.95 847.84,-295.5 845.41,-285.19 839.51,-288.95"/>
</g>
<!-- Node7 -->
<g id="node7" class="node">
<title>Node7</title>
<g id="a_node7"><a xlink:href="librarynode_8cpp.html" target="_top" xlink:title=" ">
<polygon fill="white" stroke="#666666" points="932,-195 782,-195 782,-154 932,-154 932,-195"/>
<text text-anchor="start" x="790" y="-183" font-family="Helvetica,sans-Serif" font-size="10.00">plugins/behavior/nodegraph</text>
<text text-anchor="start" x="790" y="-172" font-family="Helvetica,sans-Serif" font-size="10.00">/src/Madgine/nodegraph/nodes</text>
<text text-anchor="middle" x="857" y="-161" font-family="Helvetica,sans-Serif" font-size="10.00">/util/librarynode.cpp</text>
</a>
</g>
</g>
<!-- Node1&#45;&gt;Node7 -->
<g id="edge21" class="edge">
<title>Node1&#45;&gt;Node7</title>
<path fill="none" stroke="#63b8ff" d="M857,-285.48C857,-259.28 857,-219.06 857,-195.21"/>
<polygon fill="#63b8ff" stroke="#63b8ff" points="853.5,-285.24 857,-295.24 860.5,-285.24 853.5,-285.24"/>
</g>
<!-- Node8 -->
<g id="node8" class="node">
<title>Node8</title>
<g id="a_node8"><a xlink:href="sendernode_8h.html" target="_top" xlink:title=" ">
<polygon fill="white" stroke="#666666" points="1100,-195 950,-195 950,-154 1100,-154 1100,-195"/>
<text text-anchor="start" x="958" y="-183" font-family="Helvetica,sans-Serif" font-size="10.00">plugins/behavior/nodegraph</text>
<text text-anchor="start" x="958" y="-172" font-family="Helvetica,sans-Serif" font-size="10.00">/src/Madgine/nodegraph/nodes</text>
<text text-anchor="middle" x="1025" y="-161" font-family="Helvetica,sans-Serif" font-size="10.00">/util/sendernode.h</text>
</a>
</g>
</g>
<!-- Node1&#45;&gt;Node8 -->
<g id="edge22" class="edge">
<title>Node1&#45;&gt;Node8</title>
<path fill="none" stroke="#63b8ff" d="M883.48,-289.64C915.52,-263.8 969.05,-220.63 1000.28,-195.44"/>
<polygon fill="#63b8ff" stroke="#63b8ff" points="881.43,-286.8 875.84,-295.81 885.82,-292.25 881.43,-286.8"/>
</g>
<!-- Node10 -->
<g id="node10" class="node">
<title>Node10</title>
<g id="a_node10"><a xlink:href="pumpnode_8cpp.html" target="_top" xlink:title=" ">
<polygon fill="white" stroke="#666666" points="1151,-118 1001,-118 1001,-77 1151,-77 1151,-118"/>
<text text-anchor="start" x="1009" y="-106" font-family="Helvetica,sans-Serif" font-size="10.00">plugins/behavior/nodegraph</text>
<text text-anchor="start" x="1009" y="-95" font-family="Helvetica,sans-Serif" font-size="10.00">/src/Madgine/nodegraph/nodes</text>
<text text-anchor="middle" x="1076" y="-84" font-family="Helvetica,sans-Serif" font-size="10.00">/pumpnode.cpp</text>
</a>
</g>
</g>
<!-- Node1&#45;&gt;Node10 -->
<g id="edge19" class="edge">
<title>Node1&#45;&gt;Node10</title>
<path fill="none" stroke="#63b8ff" d="M952.42,-293.55C1008.36,-277.89 1074.6,-248.71 1109,-195 1124.47,-170.85 1107.15,-138.62 1092.34,-118.21"/>
<polygon fill="#63b8ff" stroke="#63b8ff" points="951.6,-290.14 942.85,-296.11 953.41,-296.91 951.6,-290.14"/>
</g>
<!-- Node11 -->
<g id="node11" class="node">
<title>Node11</title>
<g id="a_node11"><a xlink:href="testnode_8cpp.html" target="_top" xlink:title=" ">
<polygon fill="white" stroke="#666666" points="1319,-118 1169,-118 1169,-77 1319,-77 1319,-118"/>
<text text-anchor="start" x="1177" y="-106" font-family="Helvetica,sans-Serif" font-size="10.00">plugins/behavior/nodegraph</text>
<text text-anchor="start" x="1177" y="-95" font-family="Helvetica,sans-Serif" font-size="10.00">/src/Madgine/nodegraph/nodes</text>
<text text-anchor="middle" x="1244" y="-84" font-family="Helvetica,sans-Serif" font-size="10.00">/testnode.cpp</text>
</a>
</g>
</g>
<!-- Node1&#45;&gt;Node11 -->
<g id="edge20" class="edge">
<title>Node1&#45;&gt;Node11</title>
<path fill="none" stroke="#63b8ff" d="M966.49,-296.39C1000.67,-288.93 1037.61,-277.74 1069,-261 1138.14,-224.12 1200.58,-153.12 1228.52,-118.49"/>
<polygon fill="#63b8ff" stroke="#63b8ff" points="966.05,-292.9 956.98,-298.37 967.48,-299.75 966.05,-292.9"/>
</g>
<!-- Node14 -->
<g id="node14" class="node">
<title>Node14</title>
<g id="a_node14"><a xlink:href="nodegraph_8cpp.html" target="_top" xlink:title=" ">
<polygon fill="white" stroke="#666666" points="1381.5,-261 1194.5,-261 1194.5,-231 1381.5,-231 1381.5,-261"/>
<text text-anchor="start" x="1202.5" y="-249" font-family="Helvetica,sans-Serif" font-size="10.00">plugins/behavior/nodegraph</text>
<text text-anchor="middle" x="1288" y="-238" font-family="Helvetica,sans-Serif" font-size="10.00">/src/Madgine/nodegraph/nodegraph.cpp</text>
</a>
</g>
</g>
<!-- Node1&#45;&gt;Node14 -->
<g id="edge14" class="edge">
<title>Node1&#45;&gt;Node14</title>
<path fill="none" stroke="#63b8ff" d="M965.65,-294.87C1036.08,-284.41 1126.89,-270.92 1194.17,-260.93"/>
<polygon fill="#63b8ff" stroke="#63b8ff" points="965.41,-291.36 956.03,-296.3 966.43,-298.29 965.41,-291.36"/>
</g>
<!-- Node15 -->
<g id="node15" class="node">
<title>Node15</title>
<g id="a_node15"><a xlink:href="nodegraphloader_8cpp.html" target="_top" xlink:title=" ">
<polygon fill="white" stroke="#666666" points="1612.5,-261 1399.5,-261 1399.5,-231 1612.5,-231 1612.5,-261"/>
<text text-anchor="start" x="1407.5" y="-249" font-family="Helvetica,sans-Serif" font-size="10.00">plugins/behavior/nodegraph</text>
<text text-anchor="middle" x="1506" y="-238" font-family="Helvetica,sans-Serif" font-size="10.00">/src/Madgine/nodegraph/nodegraphloader.cpp</text>
</a>
</g>
</g>
<!-- Node1&#45;&gt;Node15 -->
<g id="edge15" class="edge">
<title>Node1&#45;&gt;Node15</title>
<path fill="none" stroke="#63b8ff" d="M966.24,-301.67C1074.24,-292.23 1244.14,-276.81 1391,-261 1393.7,-260.71 1396.43,-260.41 1399.19,-260.1"/>
<polygon fill="#63b8ff" stroke="#63b8ff" points="966.18,-298.16 956.52,-302.51 966.79,-305.13 966.18,-298.16"/>
</g>
<!-- Node3&#45;&gt;Node2 -->
<g id="edge3" class="edge">
<title>Node3&#45;&gt;Node2</title>
<path fill="none" stroke="#63b8ff" d="M580.42,-235.75C483.77,-227.01 338.66,-212.62 213,-195 202.44,-193.52 191.35,-191.79 180.42,-189.97"/>
<polygon fill="#63b8ff" stroke="#63b8ff" points="579.89,-239.22 590.16,-236.63 580.52,-232.25 579.89,-239.22"/>
</g>
<!-- Node3&#45;&gt;Node4 -->
<g id="edge4" class="edge">
<title>Node3&#45;&gt;Node4</title>
<path fill="none" stroke="#63b8ff" d="M601.93,-228.38C540.64,-216.67 459.39,-201.16 400.77,-189.97"/>
<polygon fill="#63b8ff" stroke="#63b8ff" points="601.17,-231.79 611.65,-230.23 602.48,-224.92 601.17,-231.79"/>
</g>
<!-- Node3&#45;&gt;Node5 -->
<g id="edge5" class="edge">
<title>Node3&#45;&gt;Node5</title>
<path fill="none" stroke="#63b8ff" d="M643.65,-226.24C620.6,-216.7 592.58,-205.11 569.14,-195.42"/>
<polygon fill="#63b8ff" stroke="#63b8ff" points="642.21,-229.43 652.79,-230.02 644.89,-222.96 642.21,-229.43"/>
</g>
<!-- Node3&#45;&gt;Node6 -->
<g id="edge6" class="edge">
<title>Node3&#45;&gt;Node6</title>
<path fill="none" stroke="#63b8ff" d="M689,-219.36C689,-211.45 689,-202.87 689,-195.42"/>
<polygon fill="#63b8ff" stroke="#63b8ff" points="685.5,-219.09 689,-229.09 692.5,-219.09 685.5,-219.09"/>
</g>
<!-- Node3&#45;&gt;Node7 -->
<g id="edge7" class="edge">
<title>Node3&#45;&gt;Node7</title>
<path fill="none" stroke="#63b8ff" d="M734.35,-226.24C757.4,-216.7 785.42,-205.11 808.86,-195.42"/>
<polygon fill="#63b8ff" stroke="#63b8ff" points="733.11,-222.96 725.21,-230.02 735.79,-229.43 733.11,-222.96"/>
</g>
<!-- Node3&#45;&gt;Node8 -->
<g id="edge8" class="edge">
<title>Node3&#45;&gt;Node8</title>
<path fill="none" stroke="#63b8ff" d="M776.33,-228.39C824.9,-218.97 886.39,-206.75 941,-195 943.93,-194.37 946.91,-193.72 949.92,-193.06"/>
<polygon fill="#63b8ff" stroke="#63b8ff" points="775.86,-224.92 766.71,-230.25 777.19,-231.79 775.86,-224.92"/>
</g>
<!-- Node9 -->
<g id="node9" class="node">
<title>Node9</title>
<g id="a_node9"><a xlink:href="nodebase_8cpp.html" target="_top" xlink:title=" ">
<polygon fill="white" stroke="#666666" points="815,-112.5 631,-112.5 631,-82.5 815,-82.5 815,-112.5"/>
<text text-anchor="start" x="639" y="-100.5" font-family="Helvetica,sans-Serif" font-size="10.00">plugins/behavior/nodegraph</text>
<text text-anchor="middle" x="723" y="-89.5" font-family="Helvetica,sans-Serif" font-size="10.00">/src/Madgine/nodegraph/nodebase.cpp</text>
</a>
</g>
</g>
<!-- Node8&#45;&gt;Node9 -->
<g id="edge9" class="edge">
<title>Node8&#45;&gt;Node9</title>
<path fill="none" stroke="#63b8ff" d="M938.68,-152.06C888.28,-139.55 826.02,-124.08 781.37,-113"/>
<polygon fill="#63b8ff" stroke="#63b8ff" points="937.55,-155.39 948.1,-154.4 939.24,-148.6 937.55,-155.39"/>
</g>
<!-- Node8&#45;&gt;Node10 -->
<g id="edge10" class="edge">
<title>Node8&#45;&gt;Node10</title>
<path fill="none" stroke="#63b8ff" d="M1044.83,-144.34C1050.75,-135.63 1057.1,-126.3 1062.51,-118.33"/>
<polygon fill="#63b8ff" stroke="#63b8ff" points="1041.98,-142.31 1039.25,-152.54 1047.77,-146.24 1041.98,-142.31"/>
</g>
<!-- Node8&#45;&gt;Node11 -->
<g id="edge11" class="edge">
<title>Node8&#45;&gt;Node11</title>
<path fill="none" stroke="#63b8ff" d="M1093.75,-149.95C1123.26,-139.85 1157.36,-128.17 1185.62,-118.49"/>
<polygon fill="#63b8ff" stroke="#63b8ff" points="1092.87,-146.56 1084.54,-153.11 1095.14,-153.18 1092.87,-146.56"/>
</g>
<!-- Node12 -->
<g id="node12" class="node">
<title>Node12</title>
<g id="a_node12"><a xlink:href="sendernode__impl_8h.html" target="_top" xlink:title=" ">
<polygon fill="white" stroke="#666666" points="983,-118 833,-118 833,-77 983,-77 983,-118"/>
<text text-anchor="start" x="841" y="-106" font-family="Helvetica,sans-Serif" font-size="10.00">plugins/behavior/nodegraph</text>
<text text-anchor="start" x="841" y="-95" font-family="Helvetica,sans-Serif" font-size="10.00">/src/Madgine/nodegraph/nodes</text>
<text text-anchor="middle" x="908" y="-84" font-family="Helvetica,sans-Serif" font-size="10.00">/util/sendernode_impl.h</text>
</a>
</g>
</g>
<!-- Node8&#45;&gt;Node12 -->
<g id="edge12" class="edge">
<title>Node8&#45;&gt;Node12</title>
<path fill="none" stroke="#63b8ff" d="M984.49,-147.53C969.65,-138.02 953.09,-127.41 939.19,-118.49"/>
<polygon fill="#63b8ff" stroke="#63b8ff" points="982.37,-150.33 992.68,-152.78 986.15,-144.44 982.37,-150.33"/>
</g>
<!-- Node13 -->
<g id="node13" class="node">
<title>Node13</title>
<g id="a_node13"><a xlink:href="sendernode_8cpp.html" target="_top" xlink:title=" ">
<polygon fill="white" stroke="#666666" points="983,-41 833,-41 833,0 983,0 983,-41"/>
<text text-anchor="start" x="841" y="-29" font-family="Helvetica,sans-Serif" font-size="10.00">plugins/behavior/nodegraph</text>
<text text-anchor="start" x="841" y="-18" font-family="Helvetica,sans-Serif" font-size="10.00">/src/Madgine/nodegraph/nodes</text>
<text text-anchor="middle" x="908" y="-7" font-family="Helvetica,sans-Serif" font-size="10.00">/util/sendernode.cpp</text>
</a>
</g>
</g>
<!-- Node12&#45;&gt;Node13 -->
<g id="edge13" class="edge">
<title>Node12&#45;&gt;Node13</title>
<path fill="none" stroke="#63b8ff" d="M908,-65.36C908,-57.24 908,-48.7 908,-41.33"/>
<polygon fill="#63b8ff" stroke="#63b8ff" points="904.5,-65.28 908,-75.28 911.5,-65.28 904.5,-65.28"/>
</g>
</g>
</svg>
        <g id="navigator" transform="translate(0 0)" fill="#404254">
                <rect fill="#f2f5e9" fill-opacity="0.5" stroke="#606060" stroke-width=".5" x="0" y="0" width="60" height="60"/>
                <use id="zoomplus" xlink:href="#zoomPlus" x="17" y="9" onmousedown="handleZoom(evt,'in')"/>
                <use id="zoomminus" xlink:href="#zoomMin" x="42" y="9" onmousedown="handleZoom(evt,'out')"/>
                <use id="reset" xlink:href="#resetDef" x="30" y="36" onmousedown="handleReset()"/>
                <g id="arrowUp" xlink:href="#dirArrow" transform="translate(30 24)" onmousedown="handlePan(0,-1)">
                  <use xlink:href="#rim" fill="#404040">
                        <set attributeName="fill" to="#808080" begin="arrowUp.mouseover" end="arrowUp.mouseout"/>
                  </use>
                  <path fill="none" stroke="white" stroke-width="1.5" d="M0,-3.0v7 M-2.5,-0.5L0,-3.0L2.5,-0.5"/>
                </g>
                <g id="arrowRight" xlink:href="#dirArrow" transform="rotate(90) translate(36 -43)" onmousedown="handlePan(1,0)">
                  <use xlink:href="#rim" fill="#404040">
                        <set attributeName="fill" to="#808080" begin="arrowRight.mouseover" end="arrowRight.mouseout"/>
                  </use>
                  <path fill="none" stroke="white" stroke-width="1.5" d="M0,-3.0v7 M-2.5,-0.5L0,-3.0L2.5,-0.5"/>
                </g>
                <g id="arrowDown" xlink:href="#dirArrow" transform="rotate(180) translate(-30 -48)" onmousedown="handlePan(0,1)">
                  <use xlink:href="#rim" fill="#404040">
                        <set attributeName="fill" to="#808080" begin="arrowDown.mouseover" end="arrowDown.mouseout"/>
                  </use>
                  <path fill="none" stroke="white" stroke-width="1.5" d="M0,-3.0v7 M-2.5,-0.5L0,-3.0L2.5,-0.5"/>
                </g>
                <g id="arrowLeft" xlink:href="#dirArrow" transform="rotate(270) translate(-36 17)" onmousedown="handlePan(-1,0)">
                  <use xlink:href="#rim" fill="#404040">
                        <set attributeName="fill" to="#808080" begin="arrowLeft.mouseover" end="arrowLeft.mouseout"/>
                  </use>
                  <path fill="none" stroke="white" stroke-width="1.5" d="M0,-3.0v7 M-2.5,-0.5L0,-3.0L2.5,-0.5"/>
                </g>
        </g>
        <svg viewBox="0 0 15 15" width="100%" height="30px" preserveAspectRatio="xMaxYMin meet">
         <g id="arrow_out" transform="scale(0.3 0.3)">
          <a xlink:href="nodeinterpreter_8h__dep__incl_org.svg" target="_base">
           <rect id="button" ry="5" rx="5" y="6" x="6" height="38" width="38"
                fill="#f2f5e9" fill-opacity="0.5" stroke="#606060" stroke-width="1.0"/>
           <path id="arrow"
             d="M 11.500037,31.436501 C 11.940474,20.09759 22.043105,11.32322 32.158766,21.979434 L 37.068811,17.246167 C 37.068811,17.246167 37.088388,32 37.088388,32 L 22.160133,31.978069 C 22.160133,31.978069 26.997745,27.140456 26.997745,27.140456 C 18.528582,18.264221 13.291696,25.230495 11.500037,31.436501 z"
             style="fill:#404040;"/>
          </a>
         </g>
        </svg>
</svg>
