<?xml version="1.0" encoding="UTF-8" standalone="no"?>
<!DOCTYPE svg PUBLIC "-//W3C//DTD SVG 1.1//EN"
 "http://www.w3.org/Graphics/SVG/1.1/DTD/svg11.dtd">
<!-- Generated by graphviz version 7.0.5 (20221223.1930)
 -->
<!-- Title: plugins/behavior/nodegraph/src/Madgine/nodegraph/nodegraph.h Pages: 1 -->
<svg width="1895pt" height="478pt"
 viewBox="0.00 0.00 1894.50 478.00" xmlns="http://www.w3.org/2000/svg" xmlns:xlink="http://www.w3.org/1999/xlink">
<g id="graph0" class="graph" transform="scale(1 1) rotate(0) translate(4 474)">
<title>plugins/behavior/nodegraph/src/Madgine/nodegraph/nodegraph.h</title>
<!-- Node1 -->
<g id="node1" class="node">
<title>Node1</title>
<g id="a_node1"><a xlink:title=" ">
<polygon fill="#999999" stroke="#666666" points="537.5,-470 361.5,-470 361.5,-440 537.5,-440 537.5,-470"/>
<text text-anchor="start" x="369.5" y="-458" font-family="Helvetica,sans-Serif" font-size="10.00">plugins/behavior/nodegraph</text>
<text text-anchor="middle" x="449.5" y="-447" font-family="Helvetica,sans-Serif" font-size="10.00">/src/Madgine/nodegraph/nodegraph.h</text>
</a>
</g>
</g>
<!-- Node2 -->
<g id="node2" class="node">
<title>Node2</title>
<g id="a_node2"><a xlink:href="codegenerator_8cpp.html" target="_top" xlink:title=" ">
<polygon fill="white" stroke="#666666" points="203,-404 0,-404 0,-374 203,-374 203,-404"/>
<text text-anchor="start" x="8" y="-392" font-family="Helvetica,sans-Serif" font-size="10.00">plugins/behavior/nodegraph</text>
<text text-anchor="middle" x="101.5" y="-381" font-family="Helvetica,sans-Serif" font-size="10.00">/src/Madgine/nodegraph/codegenerator.cpp</text>
</a>
</g>
</g>
<!-- Node1&#45;&gt;Node2 -->
<g id="edge1" class="edge">
<title>Node1&#45;&gt;Node2</title>
<path fill="none" stroke="#63b8ff" d="M359.7,-437.49C304.11,-427.26 233.41,-414.26 180.05,-404.45"/>
<polygon fill="#63b8ff" stroke="#63b8ff" points="359.01,-440.92 369.48,-439.28 360.28,-434.03 359.01,-440.92"/>
</g>
<!-- Node3 -->
<g id="node3" class="node">
<title>Node3</title>
<g id="a_node3"><a xlink:href="nodebase_8cpp.html" target="_top" xlink:title=" ">
<polygon fill="white" stroke="#666666" points="323.5,-112.5 139.5,-112.5 139.5,-82.5 323.5,-82.5 323.5,-112.5"/>
<text text-anchor="start" x="147.5" y="-100.5" font-family="Helvetica,sans-Serif" font-size="10.00">plugins/behavior/nodegraph</text>
<text text-anchor="middle" x="231.5" y="-89.5" font-family="Helvetica,sans-Serif" font-size="10.00">/src/Madgine/nodegraph/nodebase.cpp</text>
</a>
</g>
</g>
<!-- Node1&#45;&gt;Node3 -->
<g id="edge2" class="edge">
<title>Node1&#45;&gt;Node3</title>
<path fill="none" stroke="#63b8ff" d="M357.02,-436.47C297.61,-419.25 231.5,-386.12 231.5,-324 231.5,-324 231.5,-324 231.5,-250.5 231.5,-199.83 231.5,-139.67 231.5,-112.75"/>
<polygon fill="#63b8ff" stroke="#63b8ff" points="355.99,-439.82 366.56,-439.11 357.85,-433.07 355.99,-439.82"/>
</g>
<!-- Node4 -->
<g id="node4" class="node">
<title>Node4</title>
<g id="a_node4"><a xlink:href="nodegraph_8cpp.html" target="_top" xlink:title=" ">
<polygon fill="white" stroke="#666666" points="691,-266.5 504,-266.5 504,-236.5 691,-236.5 691,-266.5"/>
<text text-anchor="start" x="512" y="-254.5" font-family="Helvetica,sans-Serif" font-size="10.00">plugins/behavior/nodegraph</text>
<text text-anchor="middle" x="597.5" y="-243.5" font-family="Helvetica,sans-Serif" font-size="10.00">/src/Madgine/nodegraph/nodegraph.cpp</text>
</a>
</g>
</g>
<!-- Node1&#45;&gt;Node4 -->
<g id="edge3" class="edge">
<title>Node1&#45;&gt;Node4</title>
<path fill="none" stroke="#63b8ff" d="M468.44,-430.88C475.19,-422.49 482.78,-412.89 489.5,-404 526.89,-354.52 568.94,-294.04 587.63,-266.89"/>
<polygon fill="#63b8ff" stroke="#63b8ff" points="465.8,-428.58 462.22,-438.55 471.23,-432.98 465.8,-428.58"/>
</g>
<!-- Node5 -->
<g id="node5" class="node">
<title>Node5</title>
<g id="a_node5"><a xlink:href="nodegraphloader_8h.html" target="_top" xlink:title=" ">
<polygon fill="white" stroke="#666666" points="917,-404 714,-404 714,-374 917,-374 917,-404"/>
<text text-anchor="start" x="722" y="-392" font-family="Helvetica,sans-Serif" font-size="10.00">plugins/behavior/nodegraph</text>
<text text-anchor="middle" x="815.5" y="-381" font-family="Helvetica,sans-Serif" font-size="10.00">/src/Madgine/nodegraph/nodegraphloader.h</text>
</a>
</g>
</g>
<!-- Node1&#45;&gt;Node5 -->
<g id="edge4" class="edge">
<title>Node1&#45;&gt;Node5</title>
<path fill="none" stroke="#63b8ff" d="M543.21,-437.61C601.79,-427.37 676.54,-414.3 732.89,-404.45"/>
<polygon fill="#63b8ff" stroke="#63b8ff" points="542.83,-434.13 533.58,-439.3 544.04,-441.02 542.83,-434.13"/>
</g>
<!-- Node10 -->
<g id="node10" class="node">
<title>Node10</title>
<g id="a_node10"><a xlink:href="nodeinterpreter_8cpp.html" target="_top" xlink:title=" ">
<polygon fill="white" stroke="#666666" points="1886.5,-189.5 1680.5,-189.5 1680.5,-159.5 1886.5,-159.5 1886.5,-189.5"/>
<text text-anchor="start" x="1688.5" y="-177.5" font-family="Helvetica,sans-Serif" font-size="10.00">plugins/behavior/nodegraph</text>
<text text-anchor="middle" x="1783.5" y="-166.5" font-family="Helvetica,sans-Serif" font-size="10.00">/src/Madgine/nodegraph/nodeinterpreter.cpp</text>
</a>
</g>
</g>
<!-- Node1&#45;&gt;Node10 -->
<g id="edge29" class="edge">
<title>Node1&#45;&gt;Node10</title>
<path fill="none" stroke="#63b8ff" d="M549.02,-446.68C645.8,-438.83 796.78,-424.64 926.5,-404 1203.02,-360.01 1274.68,-353.67 1542.5,-272 1619.88,-248.4 1707.23,-210.45 1752.53,-189.88"/>
<polygon fill="#63b8ff" stroke="#63b8ff" points="548.98,-443.17 539.29,-447.46 549.54,-450.15 548.98,-443.17"/>
</g>
<!-- Node14 -->
<g id="node14" class="node">
<title>Node14</title>
<g id="a_node14"><a xlink:href="sendernode_8h.html" target="_top" xlink:title=" ">
<polygon fill="white" stroke="#666666" points="637.5,-195 487.5,-195 487.5,-154 637.5,-154 637.5,-195"/>
<text text-anchor="start" x="495.5" y="-183" font-family="Helvetica,sans-Serif" font-size="10.00">plugins/behavior/nodegraph</text>
<text text-anchor="start" x="495.5" y="-172" font-family="Helvetica,sans-Serif" font-size="10.00">/src/Madgine/nodegraph/nodes</text>
<text text-anchor="middle" x="562.5" y="-161" font-family="Helvetica,sans-Serif" font-size="10.00">/util/sendernode.h</text>
</a>
</g>
</g>
<!-- Node1&#45;&gt;Node14 -->
<g id="edge35" class="edge">
<title>Node1&#45;&gt;Node14</title>
<path fill="none" stroke="#63b8ff" d="M449.42,-428.25C450.39,-384.56 457.33,-294.51 495.5,-231 503.98,-216.89 517.39,-204.73 529.99,-195.43"/>
<polygon fill="#63b8ff" stroke="#63b8ff" points="445.92,-427.96 449.3,-438.01 452.92,-428.05 445.92,-427.96"/>
</g>
<!-- Node15 -->
<g id="node15" class="node">
<title>Node15</title>
<g id="a_node15"><a xlink:href="pumpnode_8cpp.html" target="_top" xlink:title=" ">
<polygon fill="white" stroke="#666666" points="491.5,-118 341.5,-118 341.5,-77 491.5,-77 491.5,-118"/>
<text text-anchor="start" x="349.5" y="-106" font-family="Helvetica,sans-Serif" font-size="10.00">plugins/behavior/nodegraph</text>
<text text-anchor="start" x="349.5" y="-95" font-family="Helvetica,sans-Serif" font-size="10.00">/src/Madgine/nodegraph/nodes</text>
<text text-anchor="middle" x="416.5" y="-84" font-family="Helvetica,sans-Serif" font-size="10.00">/pumpnode.cpp</text>
</a>
</g>
</g>
<!-- Node1&#45;&gt;Node15 -->
<g id="edge30" class="edge">
<title>Node1&#45;&gt;Node15</title>
<path fill="none" stroke="#63b8ff" d="M383.74,-435.8C332.33,-417.09 269.5,-382.3 269.5,-324 269.5,-324 269.5,-324 269.5,-250.5 269.5,-205.59 270.07,-187.92 299.5,-154 313.05,-138.38 331.98,-126.82 350.66,-118.41"/>
<polygon fill="#63b8ff" stroke="#63b8ff" points="382.49,-439.07 393.09,-439.05 384.79,-432.46 382.49,-439.07"/>
</g>
<!-- Node19 -->
<g id="node19" class="node">
<title>Node19</title>
<g id="a_node19"><a xlink:href="automasknode_8h.html" target="_top" xlink:title=" ">
<polygon fill="white" stroke="#666666" points="447.5,-272 297.5,-272 297.5,-231 447.5,-231 447.5,-272"/>
<text text-anchor="start" x="305.5" y="-260" font-family="Helvetica,sans-Serif" font-size="10.00">plugins/behavior/nodegraph</text>
<text text-anchor="start" x="305.5" y="-249" font-family="Helvetica,sans-Serif" font-size="10.00">/src/Madgine/nodegraph/nodes</text>
<text text-anchor="middle" x="372.5" y="-238" font-family="Helvetica,sans-Serif" font-size="10.00">/util/automasknode.h</text>
</a>
</g>
</g>
<!-- Node1&#45;&gt;Node19 -->
<g id="edge31" class="edge">
<title>Node1&#45;&gt;Node19</title>
<path fill="none" stroke="#63b8ff" d="M439.92,-428.94C424.43,-388.41 394.2,-309.28 380.09,-272.36"/>
<polygon fill="#63b8ff" stroke="#63b8ff" points="436.58,-430 443.42,-438.09 443.12,-427.5 436.58,-430"/>
</g>
<!-- Node6 -->
<g id="node6" class="node">
<title>Node6</title>
<g id="a_node6"><a xlink:href="nodegraphloader_8cpp.html" target="_top" xlink:title=" ">
<polygon fill="white" stroke="#666666" points="922,-266.5 709,-266.5 709,-236.5 922,-236.5 922,-266.5"/>
<text text-anchor="start" x="717" y="-254.5" font-family="Helvetica,sans-Serif" font-size="10.00">plugins/behavior/nodegraph</text>
<text text-anchor="middle" x="815.5" y="-243.5" font-family="Helvetica,sans-Serif" font-size="10.00">/src/Madgine/nodegraph/nodegraphloader.cpp</text>
</a>
</g>
</g>
<!-- Node5&#45;&gt;Node6 -->
<g id="edge5" class="edge">
<title>Node5&#45;&gt;Node6</title>
<path fill="none" stroke="#63b8ff" d="M815.5,-362.41C815.5,-334.17 815.5,-289.71 815.5,-266.96"/>
<polygon fill="#63b8ff" stroke="#63b8ff" points="812,-362.24 815.5,-372.24 819,-362.24 812,-362.24"/>
</g>
<!-- Node7 -->
<g id="node7" class="node">
<title>Node7</title>
<g id="a_node7"><a xlink:href="nodeinterpreter_8h.html" target="_top" xlink:title=" ">
<polygon fill="white" stroke="#666666" points="1143.5,-338 947.5,-338 947.5,-308 1143.5,-308 1143.5,-338"/>
<text text-anchor="start" x="955.5" y="-326" font-family="Helvetica,sans-Serif" font-size="10.00">plugins/behavior/nodegraph</text>
<text text-anchor="middle" x="1045.5" y="-315" font-family="Helvetica,sans-Serif" font-size="10.00">/src/Madgine/nodegraph/nodeinterpreter.h</text>
</a>
</g>
</g>
<!-- Node5&#45;&gt;Node7 -->
<g id="edge6" class="edge">
<title>Node5&#45;&gt;Node7</title>
<path fill="none" stroke="#63b8ff" d="M878.35,-370.51C914.59,-360.43 959.61,-347.9 993.79,-338.39"/>
<polygon fill="#63b8ff" stroke="#63b8ff" points="877.56,-367.1 868.86,-373.15 879.43,-373.84 877.56,-367.1"/>
</g>
<!-- Node7&#45;&gt;Node4 -->
<g id="edge20" class="edge">
<title>Node7&#45;&gt;Node4</title>
<path fill="none" stroke="#63b8ff" d="M936.03,-307.37C868.11,-297.98 779.1,-285.13 700.5,-272 691.26,-270.46 681.56,-268.74 671.97,-266.99"/>
<polygon fill="#63b8ff" stroke="#63b8ff" points="935.29,-310.8 945.68,-308.69 936.25,-303.86 935.29,-310.8"/>
</g>
<!-- Node7&#45;&gt;Node6 -->
<g id="edge21" class="edge">
<title>Node7&#45;&gt;Node6</title>
<path fill="none" stroke="#63b8ff" d="M986.59,-304.2C948.36,-292.65 899.19,-277.79 863.37,-266.97"/>
<polygon fill="#63b8ff" stroke="#63b8ff" points="985.53,-307.54 996.12,-307.08 987.56,-300.83 985.53,-307.54"/>
</g>
<!-- Node8 -->
<g id="node8" class="node">
<title>Node8</title>
<g id="a_node8"><a xlink:href="nodeexecution_8cpp.html" target="_top" xlink:title=" ">
<polygon fill="white" stroke="#666666" points="1158.5,-189.5 954.5,-189.5 954.5,-159.5 1158.5,-159.5 1158.5,-189.5"/>
<text text-anchor="start" x="962.5" y="-177.5" font-family="Helvetica,sans-Serif" font-size="10.00">plugins/behavior/nodegraph</text>
<text text-anchor="middle" x="1056.5" y="-166.5" font-family="Helvetica,sans-Serif" font-size="10.00">/src/Madgine/nodegraph/nodeexecution.cpp</text>
</a>
</g>
</g>
<!-- Node7&#45;&gt;Node8 -->
<g id="edge7" class="edge">
<title>Node7&#45;&gt;Node8</title>
<path fill="none" stroke="#63b8ff" d="M1047.41,-296.53C1049.74,-265.54 1053.58,-214.33 1055.44,-189.66"/>
<polygon fill="#63b8ff" stroke="#63b8ff" points="1043.95,-295.94 1046.69,-306.18 1050.93,-296.47 1043.95,-295.94"/>
</g>
<!-- Node9 -->
<g id="node9" class="node">
<title>Node9</title>
<g id="a_node9"><a xlink:href="nodeexecution_8h.html" target="_top" xlink:title=" ">
<polygon fill="white" stroke="#666666" points="1348.5,-266.5 1154.5,-266.5 1154.5,-236.5 1348.5,-236.5 1348.5,-266.5"/>
<text text-anchor="start" x="1162.5" y="-254.5" font-family="Helvetica,sans-Serif" font-size="10.00">plugins/behavior/nodegraph</text>
<text text-anchor="middle" x="1251.5" y="-243.5" font-family="Helvetica,sans-Serif" font-size="10.00">/src/Madgine/nodegraph/nodeexecution.h</text>
</a>
</g>
</g>
<!-- Node7&#45;&gt;Node9 -->
<g id="edge8" class="edge">
<title>Node7&#45;&gt;Node9</title>
<path fill="none" stroke="#63b8ff" d="M1099.15,-303.9C1133.26,-292.39 1176.82,-277.69 1208.62,-266.97"/>
<polygon fill="#63b8ff" stroke="#63b8ff" points="1098.22,-300.52 1089.87,-307.03 1100.46,-307.15 1098.22,-300.52"/>
</g>
<!-- Node7&#45;&gt;Node10 -->
<g id="edge22" class="edge">
<title>Node7&#45;&gt;Node10</title>
<path fill="none" stroke="#63b8ff" d="M1154.93,-313.25C1236.86,-305.54 1351.41,-292.34 1450.5,-272 1557.07,-250.12 1679.16,-211.03 1741.72,-189.94"/>
<polygon fill="#63b8ff" stroke="#63b8ff" points="1154.73,-309.75 1145.1,-314.16 1155.38,-316.72 1154.73,-309.75"/>
</g>
<!-- Node11 -->
<g id="node11" class="node">
<title>Node11</title>
<g id="a_node11"><a xlink:href="accessornode_8cpp.html" target="_top" xlink:title=" ">
<polygon fill="white" stroke="#666666" points="1326.5,-195 1176.5,-195 1176.5,-154 1326.5,-154 1326.5,-195"/>
<text text-anchor="start" x="1184.5" y="-183" font-family="Helvetica,sans-Serif" font-size="10.00">plugins/behavior/nodegraph</text>
<text text-anchor="start" x="1184.5" y="-172" font-family="Helvetica,sans-Serif" font-size="10.00">/src/Madgine/nodegraph/nodes</text>
<text text-anchor="middle" x="1251.5" y="-161" font-family="Helvetica,sans-Serif" font-size="10.00">/accessornode.cpp</text>
</a>
</g>
</g>
<!-- Node7&#45;&gt;Node11 -->
<g id="edge23" class="edge">
<title>Node7&#45;&gt;Node11</title>
<path fill="none" stroke="#63b8ff" d="M1066.96,-299.44C1086.32,-279.86 1116.18,-251.51 1145.5,-231 1164.82,-217.49 1187.85,-205.05 1207.49,-195.38"/>
<polygon fill="#63b8ff" stroke="#63b8ff" points="1064.63,-296.82 1060.15,-306.42 1069.63,-301.71 1064.63,-296.82"/>
</g>
<!-- Node12 -->
<g id="node12" class="node">
<title>Node12</title>
<g id="a_node12"><a xlink:href="functionnode_8cpp.html" target="_top" xlink:title=" ">
<polygon fill="white" stroke="#666666" points="1494.5,-195 1344.5,-195 1344.5,-154 1494.5,-154 1494.5,-195"/>
<text text-anchor="start" x="1352.5" y="-183" font-family="Helvetica,sans-Serif" font-size="10.00">plugins/behavior/nodegraph</text>
<text text-anchor="start" x="1352.5" y="-172" font-family="Helvetica,sans-Serif" font-size="10.00">/src/Madgine/nodegraph/nodes</text>
<text text-anchor="middle" x="1419.5" y="-161" font-family="Helvetica,sans-Serif" font-size="10.00">/functionnode.cpp</text>
</a>
</g>
</g>
<!-- Node7&#45;&gt;Node12 -->
<g id="edge24" class="edge">
<title>Node7&#45;&gt;Node12</title>
<path fill="none" stroke="#63b8ff" d="M1155.07,-313.92C1231.21,-306.55 1324.68,-293.47 1357.5,-272 1385.5,-253.69 1403.45,-217.85 1412.48,-195.38"/>
<polygon fill="#63b8ff" stroke="#63b8ff" points="1155.1,-310.4 1145.48,-314.82 1155.76,-317.37 1155.1,-310.4"/>
</g>
<!-- Node13 -->
<g id="node13" class="node">
<title>Node13</title>
<g id="a_node13"><a xlink:href="librarynode_8cpp.html" target="_top" xlink:title=" ">
<polygon fill="white" stroke="#666666" points="1662.5,-195 1512.5,-195 1512.5,-154 1662.5,-154 1662.5,-195"/>
<text text-anchor="start" x="1520.5" y="-183" font-family="Helvetica,sans-Serif" font-size="10.00">plugins/behavior/nodegraph</text>
<text text-anchor="start" x="1520.5" y="-172" font-family="Helvetica,sans-Serif" font-size="10.00">/src/Madgine/nodegraph/nodes</text>
<text text-anchor="middle" x="1587.5" y="-161" font-family="Helvetica,sans-Serif" font-size="10.00">/util/librarynode.cpp</text>
</a>
</g>
</g>
<!-- Node7&#45;&gt;Node13 -->
<g id="edge27" class="edge">
<title>Node7&#45;&gt;Node13</title>
<path fill="none" stroke="#63b8ff" d="M1154.9,-314.78C1223.46,-308.14 1313.01,-295.57 1389.5,-272 1450.71,-253.14 1516.59,-217.65 1554.82,-195.36"/>
<polygon fill="#63b8ff" stroke="#63b8ff" points="1154.78,-311.27 1145.16,-315.69 1155.44,-318.24 1154.78,-311.27"/>
</g>
<!-- Node7&#45;&gt;Node14 -->
<g id="edge28" class="edge">
<title>Node7&#45;&gt;Node14</title>
<path fill="none" stroke="#63b8ff" d="M1014.22,-301.45C1001.57,-292.77 987.03,-282.29 974.5,-272 954.09,-255.24 955.21,-242.61 931.5,-231 881.17,-206.35 730.35,-189.67 637.84,-181.45"/>
<polygon fill="#63b8ff" stroke="#63b8ff" points="1011.96,-304.14 1022.2,-306.86 1015.88,-298.35 1011.96,-304.14"/>
</g>
<!-- Node7&#45;&gt;Node15 -->
<g id="edge25" class="edge">
<title>Node7&#45;&gt;Node15</title>
<path fill="none" stroke="#63b8ff" d="M1025.71,-299.04C1002.63,-272.27 967.46,-231.58 966.5,-231 956.23,-224.76 640.09,-150.59 491.85,-116.03"/>
<polygon fill="#63b8ff" stroke="#63b8ff" points="1022.84,-301.07 1032.03,-306.36 1028.15,-296.5 1022.84,-301.07"/>
</g>
<!-- Node16 -->
<g id="node16" class="node">
<title>Node16</title>
<g id="a_node16"><a xlink:href="testnode_8cpp.html" target="_top" xlink:title=" ">
<polygon fill="white" stroke="#666666" points="914.5,-118 764.5,-118 764.5,-77 914.5,-77 914.5,-118"/>
<text text-anchor="start" x="772.5" y="-106" font-family="Helvetica,sans-Serif" font-size="10.00">plugins/behavior/nodegraph</text>
<text text-anchor="start" x="772.5" y="-95" font-family="Helvetica,sans-Serif" font-size="10.00">/src/Madgine/nodegraph/nodes</text>
<text text-anchor="middle" x="839.5" y="-84" font-family="Helvetica,sans-Serif" font-size="10.00">/testnode.cpp</text>
</a>
</g>
</g>
<!-- Node7&#45;&gt;Node16 -->
<g id="edge26" class="edge">
<title>Node7&#45;&gt;Node16</title>
<path fill="none" stroke="#63b8ff" d="M1037.93,-296.79C1031.09,-277.18 1019.46,-250.16 1002.5,-231 982.64,-208.56 969.13,-213.43 945.5,-195 924.68,-178.76 921.97,-171.84 902.5,-154 889.39,-141.98 874.47,-128.82 862.44,-118.32"/>
<polygon fill="#63b8ff" stroke="#63b8ff" points="1034.58,-297.8 1041.03,-306.2 1041.23,-295.61 1034.58,-297.8"/>
</g>
<!-- Node9&#45;&gt;Node8 -->
<g id="edge9" class="edge">
<title>Node9&#45;&gt;Node8</title>
<path fill="none" stroke="#63b8ff" d="M1203.35,-231.98C1169.59,-219 1125.11,-201.89 1093.98,-189.92"/>
<polygon fill="#63b8ff" stroke="#63b8ff" points="1201.9,-235.17 1212.49,-235.5 1204.41,-228.64 1201.9,-235.17"/>
</g>
<!-- Node9&#45;&gt;Node10 -->
<g id="edge10" class="edge">
<title>Node9&#45;&gt;Node10</title>
<path fill="none" stroke="#63b8ff" d="M1360.05,-237.4C1444.96,-226.85 1565.91,-211.16 1671.5,-195 1681.65,-193.45 1692.29,-191.72 1702.81,-189.96"/>
<polygon fill="#63b8ff" stroke="#63b8ff" points="1359.83,-233.9 1350.34,-238.6 1360.69,-240.84 1359.83,-233.9"/>
</g>
<!-- Node9&#45;&gt;Node11 -->
<g id="edge11" class="edge">
<title>Node9&#45;&gt;Node11</title>
<path fill="none" stroke="#63b8ff" d="M1251.5,-224.68C1251.5,-215.06 1251.5,-204.3 1251.5,-195.3"/>
<polygon fill="#63b8ff" stroke="#63b8ff" points="1248,-224.53 1251.5,-234.53 1255,-224.53 1248,-224.53"/>
</g>
<!-- Node9&#45;&gt;Node12 -->
<g id="edge12" class="edge">
<title>Node9&#45;&gt;Node12</title>
<path fill="none" stroke="#63b8ff" d="M1294.38,-231.36C1319.01,-220.36 1349.9,-206.57 1374.82,-195.44"/>
<polygon fill="#63b8ff" stroke="#63b8ff" points="1292.98,-228.15 1285.27,-235.42 1295.83,-234.54 1292.98,-228.15"/>
</g>
<!-- Node9&#45;&gt;Node13 -->
<g id="edge13" class="edge">
<title>Node9&#45;&gt;Node13</title>
<path fill="none" stroke="#63b8ff" d="M1329.15,-233.64C1379,-222.75 1445.11,-208.21 1503.5,-195 1506.42,-194.34 1509.4,-193.66 1512.4,-192.98"/>
<polygon fill="#63b8ff" stroke="#63b8ff" points="1328.64,-230.17 1319.61,-235.72 1330.13,-237.01 1328.64,-230.17"/>
</g>
<!-- Node9&#45;&gt;Node14 -->
<g id="edge14" class="edge">
<title>Node9&#45;&gt;Node14</title>
<path fill="none" stroke="#63b8ff" d="M1143.03,-238.69C1002.22,-223.36 760.07,-197.01 637.8,-183.7"/>
<polygon fill="#63b8ff" stroke="#63b8ff" points="1142.42,-242.15 1152.74,-239.75 1143.18,-235.19 1142.42,-242.15"/>
</g>
<!-- Node14&#45;&gt;Node3 -->
<g id="edge15" class="edge">
<title>Node14&#45;&gt;Node3</title>
<path fill="none" stroke="#63b8ff" d="M476.3,-153.97C419.7,-141.14 346.9,-124.65 295.44,-112.99"/>
<polygon fill="#63b8ff" stroke="#63b8ff" points="475.39,-157.35 485.91,-156.15 476.94,-150.52 475.39,-157.35"/>
</g>
<!-- Node14&#45;&gt;Node15 -->
<g id="edge16" class="edge">
<title>Node14&#45;&gt;Node15</title>
<path fill="none" stroke="#63b8ff" d="M513.53,-148.35C494.61,-138.63 473.27,-127.66 455.42,-118.49"/>
<polygon fill="#63b8ff" stroke="#63b8ff" points="511.92,-151.45 522.41,-152.91 515.12,-145.22 511.92,-151.45"/>
</g>
<!-- Node14&#45;&gt;Node16 -->
<g id="edge17" class="edge">
<title>Node14&#45;&gt;Node16</title>
<path fill="none" stroke="#63b8ff" d="M647.02,-150.62C684.88,-140.36 729.13,-128.38 765.65,-118.49"/>
<polygon fill="#63b8ff" stroke="#63b8ff" points="646.2,-147.21 637.46,-153.2 648.03,-153.97 646.2,-147.21"/>
</g>
<!-- Node17 -->
<g id="node17" class="node">
<title>Node17</title>
<g id="a_node17"><a xlink:href="sendernode__impl_8h.html" target="_top" xlink:title=" ">
<polygon fill="white" stroke="#666666" points="659.5,-118 509.5,-118 509.5,-77 659.5,-77 659.5,-118"/>
<text text-anchor="start" x="517.5" y="-106" font-family="Helvetica,sans-Serif" font-size="10.00">plugins/behavior/nodegraph</text>
<text text-anchor="start" x="517.5" y="-95" font-family="Helvetica,sans-Serif" font-size="10.00">/src/Madgine/nodegraph/nodes</text>
<text text-anchor="middle" x="584.5" y="-84" font-family="Helvetica,sans-Serif" font-size="10.00">/util/sendernode_impl.h</text>
</a>
</g>
</g>
<!-- Node14&#45;&gt;Node17 -->
<g id="edge18" class="edge">
<title>Node14&#45;&gt;Node17</title>
<path fill="none" stroke="#63b8ff" d="M571.47,-142.93C573.9,-134.63 576.47,-125.87 578.68,-118.33"/>
<polygon fill="#63b8ff" stroke="#63b8ff" points="568.16,-141.76 568.71,-152.34 574.88,-143.73 568.16,-141.76"/>
</g>
<!-- Node18 -->
<g id="node18" class="node">
<title>Node18</title>
<g id="a_node18"><a xlink:href="sendernode_8cpp.html" target="_top" xlink:title=" ">
<polygon fill="white" stroke="#666666" points="659.5,-41 509.5,-41 509.5,0 659.5,0 659.5,-41"/>
<text text-anchor="start" x="517.5" y="-29" font-family="Helvetica,sans-Serif" font-size="10.00">plugins/behavior/nodegraph</text>
<text text-anchor="start" x="517.5" y="-18" font-family="Helvetica,sans-Serif" font-size="10.00">/src/Madgine/nodegraph/nodes</text>
<text text-anchor="middle" x="584.5" y="-7" font-family="Helvetica,sans-Serif" font-size="10.00">/util/sendernode.cpp</text>
</a>
</g>
</g>
<!-- Node17&#45;&gt;Node18 -->
<g id="edge19" class="edge">
<title>Node17&#45;&gt;Node18</title>
<path fill="none" stroke="#63b8ff" d="M584.5,-65.36C584.5,-57.24 584.5,-48.7 584.5,-41.33"/>
<polygon fill="#63b8ff" stroke="#63b8ff" points="581,-65.28 584.5,-75.28 588,-65.28 581,-65.28"/>
</g>
<!-- Node19&#45;&gt;Node14 -->
<g id="edge34" class="edge">
<title>Node19&#45;&gt;Node14</title>
<path fill="none" stroke="#63b8ff" d="M433.5,-226.42C458.78,-216.44 487.77,-205 511.85,-195.49"/>
<polygon fill="#63b8ff" stroke="#63b8ff" points="432.34,-223.12 424.33,-230.04 434.91,-229.63 432.34,-223.12"/>
</g>
<!-- Node20 -->
<g id="node20" class="node">
<title>Node20</title>
<g id="a_node20"><a xlink:href="pumpnode_8h.html" target="_top" xlink:title=" ">
<polygon fill="white" stroke="#666666" points="458.5,-195 308.5,-195 308.5,-154 458.5,-154 458.5,-195"/>
<text text-anchor="start" x="316.5" y="-183" font-family="Helvetica,sans-Serif" font-size="10.00">plugins/behavior/nodegraph</text>
<text text-anchor="start" x="316.5" y="-172" font-family="Helvetica,sans-Serif" font-size="10.00">/src/Madgine/nodegraph/nodes</text>
<text text-anchor="middle" x="383.5" y="-161" font-family="Helvetica,sans-Serif" font-size="10.00">/pumpnode.h</text>
</a>
</g>
</g>
<!-- Node19&#45;&gt;Node20 -->
<g id="edge32" class="edge">
<title>Node19&#45;&gt;Node20</title>
<path fill="none" stroke="#63b8ff" d="M377.02,-219.65C378.23,-211.43 379.5,-202.78 380.59,-195.33"/>
<polygon fill="#63b8ff" stroke="#63b8ff" points="373.6,-218.9 375.61,-229.3 380.52,-219.91 373.6,-218.9"/>
</g>
<!-- Node20&#45;&gt;Node15 -->
<g id="edge33" class="edge">
<title>Node20&#45;&gt;Node15</title>
<path fill="none" stroke="#63b8ff" d="M396.7,-143.5C400.43,-135.03 404.38,-126.04 407.77,-118.33"/>
<polygon fill="#63b8ff" stroke="#63b8ff" points="393.6,-141.85 392.78,-152.41 400.01,-144.67 393.6,-141.85"/>
</g>
</g>
</svg>
