<?xml version="1.0" encoding="UTF-8" standalone="no"?>
<!DOCTYPE svg PUBLIC "-//W3C//DTD SVG 1.1//EN"
 "http://www.w3.org/Graphics/SVG/1.1/DTD/svg11.dtd">
<!-- Generated by graphviz version 7.0.5 (20221223.1930)
 -->
<!-- Title: plugins/behavior/nodegraph/src/Madgine/nodegraph/nodecollector.h Pages: 1 -->
<!--zoomable 269 -->
<svg id="main" version="1.1" xmlns="http://www.w3.org/2000/svg" xmlns:xlink="http://www.w3.org/1999/xlink" xml:space="preserve" onload="init(evt)">
<style type="text/css"><![CDATA[
.edge:hover path { stroke: red; }
.edge:hover polygon { stroke: red; fill: red; }
]]></style>
<script type="text/javascript"><![CDATA[
var edges = document.getElementsByTagName('g');
if (edges && edges.length) {
  for (var i=0;i<edges.length;i++) {
    if (edges[i].id.substr(0,4)=='edge') {
      edges[i].setAttribute('class','edge');
    }
  }
}
]]></script>
        <defs>
                <circle id="rim" cx="0" cy="0" r="7"/>
                <circle id="rim2" cx="0" cy="0" r="3.5"/>
                <g id="zoomPlus">
                        <use xlink:href="#rim" fill="#404040">
                                <set attributeName="fill" to="#808080" begin="zoomplus.mouseover" end="zoomplus.mouseout"/>
                        </use>
                        <path d="M-4,0h8M0,-4v8" fill="none" stroke="white" stroke-width="1.5" pointer-events="none"/>
                </g>
                <g id="zoomMin">
                        <use xlink:href="#rim" fill="#404040">
                                <set attributeName="fill" to="#808080" begin="zoomminus.mouseover" end="zoomminus.mouseout"/>
                        </use>
                        <path d="M-4,0h8" fill="none" stroke="white" stroke-width="1.5" pointer-events="none"/>
                </g>
                <g id="dirArrow">
                        <path fill="none" stroke="white" stroke-width="1.5" d="M0,-3.0v7 M-2.5,-0.5L0,-3.0L2.5,-0.5"/>
                </g>
               <g id="resetDef">
                       <use xlink:href="#rim2" fill="#404040">
                               <set attributeName="fill" to="#808080" begin="reset.mouseover" end="reset.mouseout"/>
                       </use>
               </g>
        </defs>

<script type="text/javascript">
var viewWidth = 1456;
var viewHeight = 269;
var sectionId = 'dynsection-1';
</script>
<script xlink:href="svgpan.js"/>
<svg id="graph" class="graph">
<g id="viewport">
<title>plugins/behavior/nodegraph/src/Madgine/nodegraph/nodecollector.h</title>
<!-- Node1 -->
<g id="node1" class="node">
<title>Node1</title>
<g id="a_node1"><a xlink:title=" ">
<polygon fill="#999999" stroke="#666666" points="677.5,-261 488.5,-261 488.5,-231 677.5,-231 677.5,-261"/>
<text text-anchor="start" x="496.5" y="-249" font-family="Helvetica,sans-Serif" font-size="10.00">plugins/behavior/nodegraph</text>
<text text-anchor="middle" x="583" y="-238" font-family="Helvetica,sans-Serif" font-size="10.00">/src/Madgine/nodegraph/nodecollector.h</text>
</a>
</g>
</g>
<!-- Node2 -->
<g id="node2" class="node">
<title>Node2</title>
<g id="a_node2"><a xlink:href="nodecollector_8cpp.html" target="_top" xlink:title=" ">
<polygon fill="white" stroke="#666666" points="200,-189.5 0,-189.5 0,-159.5 200,-159.5 200,-189.5"/>
<text text-anchor="start" x="8" y="-177.5" font-family="Helvetica,sans-Serif" font-size="10.00">plugins/behavior/nodegraph</text>
<text text-anchor="middle" x="100" y="-166.5" font-family="Helvetica,sans-Serif" font-size="10.00">/src/Madgine/nodegraph/nodecollector.cpp</text>
</a>
</g>
</g>
<!-- Node1&#45;&gt;Node2 -->
<g id="edge1" class="edge">
<title>Node1&#45;&gt;Node2</title>
<path fill="none" stroke="#63b8ff" d="M476.98,-232.09C402.01,-222.65 299.19,-209.09 209,-195 199.12,-193.46 188.76,-191.74 178.52,-189.97"/>
<polygon fill="#63b8ff" stroke="#63b8ff" points="476.44,-235.55 486.8,-233.32 477.31,-228.61 476.44,-235.55"/>
</g>
<!-- Node3 -->
<g id="node3" class="node">
<title>Node3</title>
<g id="a_node3"><a xlink:href="nodegraph_8cpp.html" target="_top" xlink:title=" ">
<polygon fill="white" stroke="#666666" points="405.5,-112.5 218.5,-112.5 218.5,-82.5 405.5,-82.5 405.5,-112.5"/>
<text text-anchor="start" x="226.5" y="-100.5" font-family="Helvetica,sans-Serif" font-size="10.00">plugins/behavior/nodegraph</text>
<text text-anchor="middle" x="312" y="-89.5" font-family="Helvetica,sans-Serif" font-size="10.00">/src/Madgine/nodegraph/nodegraph.cpp</text>
</a>
</g>
</g>
<!-- Node1&#45;&gt;Node3 -->
<g id="edge2" class="edge">
<title>Node1&#45;&gt;Node3</title>
<path fill="none" stroke="#63b8ff" d="M492.14,-227.47C466,-219.96 438.29,-209.48 415,-195 393.9,-181.88 394.92,-171.21 377,-154 361.69,-139.3 343.21,-123.71 329.87,-112.8"/>
<polygon fill="#63b8ff" stroke="#63b8ff" points="491.2,-230.84 501.77,-230.11 493.05,-224.09 491.2,-230.84"/>
</g>
<!-- Node4 -->
<g id="node4" class="node">
<title>Node4</title>
<g id="a_node4"><a xlink:href="accessornode_8h.html" target="_top" xlink:title=" ">
<polygon fill="white" stroke="#666666" points="368,-195 218,-195 218,-154 368,-154 368,-195"/>
<text text-anchor="start" x="226" y="-183" font-family="Helvetica,sans-Serif" font-size="10.00">plugins/behavior/nodegraph</text>
<text text-anchor="start" x="226" y="-172" font-family="Helvetica,sans-Serif" font-size="10.00">/src/Madgine/nodegraph/nodes</text>
<text text-anchor="middle" x="293" y="-161" font-family="Helvetica,sans-Serif" font-size="10.00">/accessornode.h</text>
</a>
</g>
</g>
<!-- Node1&#45;&gt;Node4 -->
<g id="edge3" class="edge">
<title>Node1&#45;&gt;Node4</title>
<path fill="none" stroke="#63b8ff" d="M511.49,-227.86C467.99,-217.44 412.51,-204.14 368.34,-193.55"/>
<polygon fill="#63b8ff" stroke="#63b8ff" points="510.55,-231.24 521.09,-230.16 512.18,-224.43 510.55,-231.24"/>
</g>
<!-- Node6 -->
<g id="node6" class="node">
<title>Node6</title>
<g id="a_node6"><a xlink:href="functionnode_8h.html" target="_top" xlink:title=" ">
<polygon fill="white" stroke="#666666" points="574,-195 424,-195 424,-154 574,-154 574,-195"/>
<text text-anchor="start" x="432" y="-183" font-family="Helvetica,sans-Serif" font-size="10.00">plugins/behavior/nodegraph</text>
<text text-anchor="start" x="432" y="-172" font-family="Helvetica,sans-Serif" font-size="10.00">/src/Madgine/nodegraph/nodes</text>
<text text-anchor="middle" x="499" y="-161" font-family="Helvetica,sans-Serif" font-size="10.00">/functionnode.h</text>
</a>
</g>
</g>
<!-- Node1&#45;&gt;Node6 -->
<g id="edge6" class="edge">
<title>Node1&#45;&gt;Node6</title>
<path fill="none" stroke="#63b8ff" d="M556.98,-223.47C546.16,-214.52 533.68,-204.19 523.07,-195.42"/>
<polygon fill="#63b8ff" stroke="#63b8ff" points="554.49,-225.96 564.43,-229.63 558.96,-220.56 554.49,-225.96"/>
</g>
<!-- Node8 -->
<g id="node8" class="node">
<title>Node8</title>
<g id="a_node8"><a xlink:href="pumpnode_8h.html" target="_top" xlink:title=" ">
<polygon fill="white" stroke="#666666" points="910,-195 760,-195 760,-154 910,-154 910,-195"/>
<text text-anchor="start" x="768" y="-183" font-family="Helvetica,sans-Serif" font-size="10.00">plugins/behavior/nodegraph</text>
<text text-anchor="start" x="768" y="-172" font-family="Helvetica,sans-Serif" font-size="10.00">/src/Madgine/nodegraph/nodes</text>
<text text-anchor="middle" x="835" y="-161" font-family="Helvetica,sans-Serif" font-size="10.00">/pumpnode.h</text>
</a>
</g>
</g>
<!-- Node1&#45;&gt;Node8 -->
<g id="edge9" class="edge">
<title>Node1&#45;&gt;Node8</title>
<path fill="none" stroke="#63b8ff" d="M646.23,-227.56C681.72,-217.77 726.13,-205.53 762.96,-195.37"/>
<polygon fill="#63b8ff" stroke="#63b8ff" points="645.69,-224.08 636.98,-230.11 647.55,-230.83 645.69,-224.08"/>
</g>
<!-- Node10 -->
<g id="node10" class="node">
<title>Node10</title>
<g id="a_node10"><a xlink:href="testnode_8h.html" target="_top" xlink:title=" ">
<polygon fill="white" stroke="#666666" points="1078,-195 928,-195 928,-154 1078,-154 1078,-195"/>
<text text-anchor="start" x="936" y="-183" font-family="Helvetica,sans-Serif" font-size="10.00">plugins/behavior/nodegraph</text>
<text text-anchor="start" x="936" y="-172" font-family="Helvetica,sans-Serif" font-size="10.00">/src/Madgine/nodegraph/nodes</text>
<text text-anchor="middle" x="1003" y="-161" font-family="Helvetica,sans-Serif" font-size="10.00">/testnode.h</text>
</a>
</g>
</g>
<!-- Node1&#45;&gt;Node10 -->
<g id="edge11" class="edge">
<title>Node1&#45;&gt;Node10</title>
<path fill="none" stroke="#63b8ff" d="M689.14,-231.43C755.44,-222.4 842.46,-209.55 919,-195 921.79,-194.47 924.64,-193.91 927.5,-193.33"/>
<polygon fill="#63b8ff" stroke="#63b8ff" points="688.78,-227.95 679.34,-232.75 689.72,-234.88 688.78,-227.95"/>
</g>
<!-- Node12 -->
<g id="node12" class="node">
<title>Node12</title>
<g id="a_node12"><a xlink:href="librarynode_8h.html" target="_top" xlink:title=" ">
<polygon fill="white" stroke="#666666" points="742,-195 592,-195 592,-154 742,-154 742,-195"/>
<text text-anchor="start" x="600" y="-183" font-family="Helvetica,sans-Serif" font-size="10.00">plugins/behavior/nodegraph</text>
<text text-anchor="start" x="600" y="-172" font-family="Helvetica,sans-Serif" font-size="10.00">/src/Madgine/nodegraph/nodes</text>
<text text-anchor="middle" x="667" y="-161" font-family="Helvetica,sans-Serif" font-size="10.00">/util/librarynode.h</text>
</a>
</g>
</g>
<!-- Node1&#45;&gt;Node12 -->
<g id="edge13" class="edge">
<title>Node1&#45;&gt;Node12</title>
<path fill="none" stroke="#63b8ff" d="M609.02,-223.47C619.84,-214.52 632.32,-204.19 642.93,-195.42"/>
<polygon fill="#63b8ff" stroke="#63b8ff" points="607.04,-220.56 601.57,-229.63 611.51,-225.96 607.04,-220.56"/>
</g>
<!-- Node14 -->
<g id="node14" class="node">
<title>Node14</title>
<g id="a_node14"><a xlink:href="sendernode_8h.html" target="_top" xlink:title=" ">
<polygon fill="white" stroke="#666666" points="1246,-195 1096,-195 1096,-154 1246,-154 1246,-195"/>
<text text-anchor="start" x="1104" y="-183" font-family="Helvetica,sans-Serif" font-size="10.00">plugins/behavior/nodegraph</text>
<text text-anchor="start" x="1104" y="-172" font-family="Helvetica,sans-Serif" font-size="10.00">/src/Madgine/nodegraph/nodes</text>
<text text-anchor="middle" x="1171" y="-161" font-family="Helvetica,sans-Serif" font-size="10.00">/util/sendernode.h</text>
</a>
</g>
</g>
<!-- Node1&#45;&gt;Node14 -->
<g id="edge16" class="edge">
<title>Node1&#45;&gt;Node14</title>
<path fill="none" stroke="#63b8ff" d="M689.03,-238.48C791.38,-231.25 950.49,-217.52 1087,-195 1089.81,-194.54 1092.66,-194.04 1095.54,-193.5"/>
<polygon fill="#63b8ff" stroke="#63b8ff" points="689,-234.97 679.27,-239.16 689.49,-241.96 689,-234.97"/>
</g>
<!-- Node4&#45;&gt;Node3 -->
<g id="edge4" class="edge">
<title>Node4&#45;&gt;Node3</title>
<path fill="none" stroke="#63b8ff" d="M300.74,-142.95C303.38,-132.54 306.2,-121.39 308.36,-112.86"/>
<polygon fill="#63b8ff" stroke="#63b8ff" points="297.43,-141.77 298.36,-152.33 304.21,-143.49 297.43,-141.77"/>
</g>
<!-- Node5 -->
<g id="node5" class="node">
<title>Node5</title>
<g id="a_node5"><a xlink:href="accessornode_8cpp.html" target="_top" xlink:title=" ">
<polygon fill="white" stroke="#666666" points="200,-118 50,-118 50,-77 200,-77 200,-118"/>
<text text-anchor="start" x="58" y="-106" font-family="Helvetica,sans-Serif" font-size="10.00">plugins/behavior/nodegraph</text>
<text text-anchor="start" x="58" y="-95" font-family="Helvetica,sans-Serif" font-size="10.00">/src/Madgine/nodegraph/nodes</text>
<text text-anchor="middle" x="125" y="-84" font-family="Helvetica,sans-Serif" font-size="10.00">/accessornode.cpp</text>
</a>
</g>
</g>
<!-- Node4&#45;&gt;Node5 -->
<g id="edge5" class="edge">
<title>Node4&#45;&gt;Node5</title>
<path fill="none" stroke="#63b8ff" d="M238.16,-149.02C216.02,-139.13 190.8,-127.87 169.79,-118.49"/>
<polygon fill="#63b8ff" stroke="#63b8ff" points="236.48,-152.1 247.04,-152.98 239.33,-145.71 236.48,-152.1"/>
</g>
<!-- Node6&#45;&gt;Node3 -->
<g id="edge7" class="edge">
<title>Node6&#45;&gt;Node3</title>
<path fill="none" stroke="#63b8ff" d="M439.01,-149.44C409,-137.4 373.68,-123.24 347.91,-112.9"/>
<polygon fill="#63b8ff" stroke="#63b8ff" points="437.39,-152.56 447.97,-153.03 440,-146.06 437.39,-152.56"/>
</g>
<!-- Node7 -->
<g id="node7" class="node">
<title>Node7</title>
<g id="a_node7"><a xlink:href="functionnode_8cpp.html" target="_top" xlink:title=" ">
<polygon fill="white" stroke="#666666" points="574,-118 424,-118 424,-77 574,-77 574,-118"/>
<text text-anchor="start" x="432" y="-106" font-family="Helvetica,sans-Serif" font-size="10.00">plugins/behavior/nodegraph</text>
<text text-anchor="start" x="432" y="-95" font-family="Helvetica,sans-Serif" font-size="10.00">/src/Madgine/nodegraph/nodes</text>
<text text-anchor="middle" x="499" y="-84" font-family="Helvetica,sans-Serif" font-size="10.00">/functionnode.cpp</text>
</a>
</g>
</g>
<!-- Node6&#45;&gt;Node7 -->
<g id="edge8" class="edge">
<title>Node6&#45;&gt;Node7</title>
<path fill="none" stroke="#63b8ff" d="M499,-142.36C499,-134.24 499,-125.7 499,-118.33"/>
<polygon fill="#63b8ff" stroke="#63b8ff" points="495.5,-142.28 499,-152.28 502.5,-142.28 495.5,-142.28"/>
</g>
<!-- Node9 -->
<g id="node9" class="node">
<title>Node9</title>
<g id="a_node9"><a xlink:href="pumpnode_8cpp.html" target="_top" xlink:title=" ">
<polygon fill="white" stroke="#666666" points="910,-118 760,-118 760,-77 910,-77 910,-118"/>
<text text-anchor="start" x="768" y="-106" font-family="Helvetica,sans-Serif" font-size="10.00">plugins/behavior/nodegraph</text>
<text text-anchor="start" x="768" y="-95" font-family="Helvetica,sans-Serif" font-size="10.00">/src/Madgine/nodegraph/nodes</text>
<text text-anchor="middle" x="835" y="-84" font-family="Helvetica,sans-Serif" font-size="10.00">/pumpnode.cpp</text>
</a>
</g>
</g>
<!-- Node8&#45;&gt;Node9 -->
<g id="edge10" class="edge">
<title>Node8&#45;&gt;Node9</title>
<path fill="none" stroke="#63b8ff" d="M835,-142.36C835,-134.24 835,-125.7 835,-118.33"/>
<polygon fill="#63b8ff" stroke="#63b8ff" points="831.5,-142.28 835,-152.28 838.5,-142.28 831.5,-142.28"/>
</g>
<!-- Node11 -->
<g id="node11" class="node">
<title>Node11</title>
<g id="a_node11"><a xlink:href="testnode_8cpp.html" target="_top" xlink:title=" ">
<polygon fill="white" stroke="#666666" points="1078,-118 928,-118 928,-77 1078,-77 1078,-118"/>
<text text-anchor="start" x="936" y="-106" font-family="Helvetica,sans-Serif" font-size="10.00">plugins/behavior/nodegraph</text>
<text text-anchor="start" x="936" y="-95" font-family="Helvetica,sans-Serif" font-size="10.00">/src/Madgine/nodegraph/nodes</text>
<text text-anchor="middle" x="1003" y="-84" font-family="Helvetica,sans-Serif" font-size="10.00">/testnode.cpp</text>
</a>
</g>
</g>
<!-- Node10&#45;&gt;Node11 -->
<g id="edge12" class="edge">
<title>Node10&#45;&gt;Node11</title>
<path fill="none" stroke="#63b8ff" d="M1003,-142.36C1003,-134.24 1003,-125.7 1003,-118.33"/>
<polygon fill="#63b8ff" stroke="#63b8ff" points="999.5,-142.28 1003,-152.28 1006.5,-142.28 999.5,-142.28"/>
</g>
<!-- Node12&#45;&gt;Node3 -->
<g id="edge14" class="edge">
<title>Node12&#45;&gt;Node3</title>
<path fill="none" stroke="#63b8ff" d="M580.81,-153.55C508.73,-137.89 437.08,-123.32 385.15,-112.94"/>
<polygon fill="#63b8ff" stroke="#63b8ff" points="579.92,-156.94 590.44,-155.65 581.41,-150.1 579.92,-156.94"/>
</g>
<!-- Node13 -->
<g id="node13" class="node">
<title>Node13</title>
<g id="a_node13"><a xlink:href="librarynode_8cpp.html" target="_top" xlink:title=" ">
<polygon fill="white" stroke="#666666" points="742,-118 592,-118 592,-77 742,-77 742,-118"/>
<text text-anchor="start" x="600" y="-106" font-family="Helvetica,sans-Serif" font-size="10.00">plugins/behavior/nodegraph</text>
<text text-anchor="start" x="600" y="-95" font-family="Helvetica,sans-Serif" font-size="10.00">/src/Madgine/nodegraph/nodes</text>
<text text-anchor="middle" x="667" y="-84" font-family="Helvetica,sans-Serif" font-size="10.00">/util/librarynode.cpp</text>
</a>
</g>
</g>
<!-- Node12&#45;&gt;Node13 -->
<g id="edge15" class="edge">
<title>Node12&#45;&gt;Node13</title>
<path fill="none" stroke="#63b8ff" d="M667,-142.36C667,-134.24 667,-125.7 667,-118.33"/>
<polygon fill="#63b8ff" stroke="#63b8ff" points="663.5,-142.28 667,-152.28 670.5,-142.28 663.5,-142.28"/>
</g>
<!-- Node14&#45;&gt;Node9 -->
<g id="edge18" class="edge">
<title>Node14&#45;&gt;Node9</title>
<path fill="none" stroke="#63b8ff" d="M1085.04,-153.58C1010.66,-137.09 990.18,-133.89 919,-118 916.08,-117.35 913.1,-116.68 910.09,-116"/>
<polygon fill="#63b8ff" stroke="#63b8ff" points="1083.91,-156.92 1094.43,-155.67 1085.43,-150.08 1083.91,-156.92"/>
</g>
<!-- Node14&#45;&gt;Node11 -->
<g id="edge19" class="edge">
<title>Node14&#45;&gt;Node11</title>
<path fill="none" stroke="#63b8ff" d="M1116.16,-149.02C1094.02,-139.13 1068.8,-127.87 1047.79,-118.49"/>
<polygon fill="#63b8ff" stroke="#63b8ff" points="1114.48,-152.1 1125.04,-152.98 1117.33,-145.71 1114.48,-152.1"/>
</g>
<!-- Node15 -->
<g id="node15" class="node">
<title>Node15</title>
<g id="a_node15"><a xlink:href="nodebase_8cpp.html" target="_top" xlink:title=" ">
<polygon fill="white" stroke="#666666" points="1280,-112.5 1096,-112.5 1096,-82.5 1280,-82.5 1280,-112.5"/>
<text text-anchor="start" x="1104" y="-100.5" font-family="Helvetica,sans-Serif" font-size="10.00">plugins/behavior/nodegraph</text>
<text text-anchor="middle" x="1188" y="-89.5" font-family="Helvetica,sans-Serif" font-size="10.00">/src/Madgine/nodegraph/nodebase.cpp</text>
</a>
</g>
</g>
<!-- Node14&#45;&gt;Node15 -->
<g id="edge17" class="edge">
<title>Node14&#45;&gt;Node15</title>
<path fill="none" stroke="#63b8ff" d="M1178,-142.62C1180.34,-132.3 1182.83,-121.3 1184.74,-112.86"/>
<polygon fill="#63b8ff" stroke="#63b8ff" points="1174.6,-141.79 1175.8,-152.32 1181.43,-143.34 1174.6,-141.79"/>
</g>
<!-- Node16 -->
<g id="node16" class="node">
<title>Node16</title>
<g id="a_node16"><a xlink:href="sendernode__impl_8h.html" target="_top" xlink:title=" ">
<polygon fill="white" stroke="#666666" points="1448,-118 1298,-118 1298,-77 1448,-77 1448,-118"/>
<text text-anchor="start" x="1306" y="-106" font-family="Helvetica,sans-Serif" font-size="10.00">plugins/behavior/nodegraph</text>
<text text-anchor="start" x="1306" y="-95" font-family="Helvetica,sans-Serif" font-size="10.00">/src/Madgine/nodegraph/nodes</text>
<text text-anchor="middle" x="1373" y="-84" font-family="Helvetica,sans-Serif" font-size="10.00">/util/sendernode_impl.h</text>
</a>
</g>
</g>
<!-- Node14&#45;&gt;Node16 -->
<g id="edge20" class="edge">
<title>Node14&#45;&gt;Node16</title>
<path fill="none" stroke="#63b8ff" d="M1235.13,-149.69C1262.18,-139.65 1293.32,-128.09 1319.15,-118.49"/>
<polygon fill="#63b8ff" stroke="#63b8ff" points="1234.18,-146.31 1226.02,-153.07 1236.61,-152.87 1234.18,-146.31"/>
</g>
<!-- Node17 -->
<g id="node17" class="node">
<title>Node17</title>
<g id="a_node17"><a xlink:href="sendernode_8cpp.html" target="_top" xlink:title=" ">
<polygon fill="white" stroke="#666666" points="1448,-41 1298,-41 1298,0 1448,0 1448,-41"/>
<text text-anchor="start" x="1306" y="-29" font-family="Helvetica,sans-Serif" font-size="10.00">plugins/behavior/nodegraph</text>
<text text-anchor="start" x="1306" y="-18" font-family="Helvetica,sans-Serif" font-size="10.00">/src/Madgine/nodegraph/nodes</text>
<text text-anchor="middle" x="1373" y="-7" font-family="Helvetica,sans-Serif" font-size="10.00">/util/sendernode.cpp</text>
</a>
</g>
</g>
<!-- Node16&#45;&gt;Node17 -->
<g id="edge21" class="edge">
<title>Node16&#45;&gt;Node17</title>
<path fill="none" stroke="#63b8ff" d="M1373,-65.36C1373,-57.24 1373,-48.7 1373,-41.33"/>
<polygon fill="#63b8ff" stroke="#63b8ff" points="1369.5,-65.28 1373,-75.28 1376.5,-65.28 1369.5,-65.28"/>
</g>
</g>
</svg>
        <g id="navigator" transform="translate(0 0)" fill="#404254">
                <rect fill="#f2f5e9" fill-opacity="0.5" stroke="#606060" stroke-width=".5" x="0" y="0" width="60" height="60"/>
                <use id="zoomplus" xlink:href="#zoomPlus" x="17" y="9" onmousedown="handleZoom(evt,'in')"/>
                <use id="zoomminus" xlink:href="#zoomMin" x="42" y="9" onmousedown="handleZoom(evt,'out')"/>
                <use id="reset" xlink:href="#resetDef" x="30" y="36" onmousedown="handleReset()"/>
                <g id="arrowUp" xlink:href="#dirArrow" transform="translate(30 24)" onmousedown="handlePan(0,-1)">
                  <use xlink:href="#rim" fill="#404040">
                        <set attributeName="fill" to="#808080" begin="arrowUp.mouseover" end="arrowUp.mouseout"/>
                  </use>
                  <path fill="none" stroke="white" stroke-width="1.5" d="M0,-3.0v7 M-2.5,-0.5L0,-3.0L2.5,-0.5"/>
                </g>
                <g id="arrowRight" xlink:href="#dirArrow" transform="rotate(90) translate(36 -43)" onmousedown="handlePan(1,0)">
                  <use xlink:href="#rim" fill="#404040">
                        <set attributeName="fill" to="#808080" begin="arrowRight.mouseover" end="arrowRight.mouseout"/>
                  </use>
                  <path fill="none" stroke="white" stroke-width="1.5" d="M0,-3.0v7 M-2.5,-0.5L0,-3.0L2.5,-0.5"/>
                </g>
                <g id="arrowDown" xlink:href="#dirArrow" transform="rotate(180) translate(-30 -48)" onmousedown="handlePan(0,1)">
                  <use xlink:href="#rim" fill="#404040">
                        <set attributeName="fill" to="#808080" begin="arrowDown.mouseover" end="arrowDown.mouseout"/>
                  </use>
                  <path fill="none" stroke="white" stroke-width="1.5" d="M0,-3.0v7 M-2.5,-0.5L0,-3.0L2.5,-0.5"/>
                </g>
                <g id="arrowLeft" xlink:href="#dirArrow" transform="rotate(270) translate(-36 17)" onmousedown="handlePan(-1,0)">
                  <use xlink:href="#rim" fill="#404040">
                        <set attributeName="fill" to="#808080" begin="arrowLeft.mouseover" end="arrowLeft.mouseout"/>
                  </use>
                  <path fill="none" stroke="white" stroke-width="1.5" d="M0,-3.0v7 M-2.5,-0.5L0,-3.0L2.5,-0.5"/>
                </g>
        </g>
        <svg viewBox="0 0 15 15" width="100%" height="30px" preserveAspectRatio="xMaxYMin meet">
         <g id="arrow_out" transform="scale(0.3 0.3)">
          <a xlink:href="nodecollector_8h__dep__incl_org.svg" target="_base">
           <rect id="button" ry="5" rx="5" y="6" x="6" height="38" width="38"
                fill="#f2f5e9" fill-opacity="0.5" stroke="#606060" stroke-width="1.0"/>
           <path id="arrow"
             d="M 11.500037,31.436501 C 11.940474,20.09759 22.043105,11.32322 32.158766,21.979434 L 37.068811,17.246167 C 37.068811,17.246167 37.088388,32 37.088388,32 L 22.160133,31.978069 C 22.160133,31.978069 26.997745,27.140456 26.997745,27.140456 C 18.528582,18.264221 13.291696,25.230495 11.500037,31.436501 z"
             style="fill:#404040;"/>
          </a>
         </g>
        </svg>
</svg>
