<?xml version="1.0" encoding="UTF-8" standalone="no"?>
<!DOCTYPE svg PUBLIC "-//W3C//DTD SVG 1.1//EN"
 "http://www.w3.org/Graphics/SVG/1.1/DTD/svg11.dtd">
<!-- Generated by graphviz version 7.0.5 (20221223.1930)
 -->
<!-- Title: plugins/behavior/nodegraph/src/Madgine/nodegraph/nodebase.h Pages: 1 -->
<!--zoomable 566 -->
<svg id="main" version="1.1" xmlns="http://www.w3.org/2000/svg" xmlns:xlink="http://www.w3.org/1999/xlink" xml:space="preserve" onload="init(evt)">
<style type="text/css"><![CDATA[
.edge:hover path { stroke: red; }
.edge:hover polygon { stroke: red; fill: red; }
]]></style>
<script type="text/javascript"><![CDATA[
var edges = document.getElementsByTagName('g');
if (edges && edges.length) {
  for (var i=0;i<edges.length;i++) {
    if (edges[i].id.substr(0,4)=='edge') {
      edges[i].setAttribute('class','edge');
    }
  }
}
]]></script>
        <defs>
                <circle id="rim" cx="0" cy="0" r="7"/>
                <circle id="rim2" cx="0" cy="0" r="3.5"/>
                <g id="zoomPlus">
                        <use xlink:href="#rim" fill="#404040">
                                <set attributeName="fill" to="#808080" begin="zoomplus.mouseover" end="zoomplus.mouseout"/>
                        </use>
                        <path d="M-4,0h8M0,-4v8" fill="none" stroke="white" stroke-width="1.5" pointer-events="none"/>
                </g>
                <g id="zoomMin">
                        <use xlink:href="#rim" fill="#404040">
                                <set attributeName="fill" to="#808080" begin="zoomminus.mouseover" end="zoomminus.mouseout"/>
                        </use>
                        <path d="M-4,0h8" fill="none" stroke="white" stroke-width="1.5" pointer-events="none"/>
                </g>
                <g id="dirArrow">
                        <path fill="none" stroke="white" stroke-width="1.5" d="M0,-3.0v7 M-2.5,-0.5L0,-3.0L2.5,-0.5"/>
                </g>
               <g id="resetDef">
                       <use xlink:href="#rim2" fill="#404040">
                               <set attributeName="fill" to="#808080" begin="reset.mouseover" end="reset.mouseout"/>
                       </use>
               </g>
        </defs>

<script type="text/javascript">
var viewWidth = 1719;
var viewHeight = 566;
var sectionId = 'dynsection-1';
</script>
<script xlink:href="svgpan.js"/>
<svg id="graph" class="graph">
<g id="viewport">
<title>plugins/behavior/nodegraph/src/Madgine/nodegraph/nodebase.h</title>
<!-- Node1 -->
<g id="node1" class="node">
<title>Node1</title>
<g id="a_node1"><a xlink:title=" ">
<polygon fill="#999999" stroke="#666666" points="1186.5,-558 1013.5,-558 1013.5,-528 1186.5,-528 1186.5,-558"/>
<text text-anchor="start" x="1021.5" y="-546" font-family="Helvetica,sans-Serif" font-size="10.00">plugins/behavior/nodegraph</text>
<text text-anchor="middle" x="1100" y="-535" font-family="Helvetica,sans-Serif" font-size="10.00">/src/Madgine/nodegraph/nodebase.h</text>
</a>
</g>
</g>
<!-- Node2 -->
<g id="node2" class="node">
<title>Node2</title>
<g id="a_node2"><a xlink:href="nodebase_8cpp.html" target="_top" xlink:title=" ">
<polygon fill="white" stroke="#666666" points="184,-112.5 0,-112.5 0,-82.5 184,-82.5 184,-112.5"/>
<text text-anchor="start" x="8" y="-100.5" font-family="Helvetica,sans-Serif" font-size="10.00">plugins/behavior/nodegraph</text>
<text text-anchor="middle" x="92" y="-89.5" font-family="Helvetica,sans-Serif" font-size="10.00">/src/Madgine/nodegraph/nodebase.cpp</text>
</a>
</g>
</g>
<!-- Node1&#45;&gt;Node2 -->
<g id="edge1" class="edge">
<title>Node1&#45;&gt;Node2</title>
<path fill="none" stroke="#63b8ff" d="M1002.02,-540.16C779.18,-535.48 247.79,-521.37 172,-492 108.83,-467.52 54,-463.25 54,-395.5 54,-395.5 54,-395.5 54,-245 54,-195.08 74.93,-138.56 85.73,-112.74"/>
<polygon fill="#63b8ff" stroke="#63b8ff" points="1001.78,-543.65 1011.85,-540.36 1001.92,-536.66 1001.78,-543.65"/>
</g>
<!-- Node3 -->
<g id="node3" class="node">
<title>Node3</title>
<g id="a_node3"><a xlink:href="nodeexecution_8cpp.html" target="_top" xlink:title=" ">
<polygon fill="white" stroke="#666666" points="1372,-189.5 1168,-189.5 1168,-159.5 1372,-159.5 1372,-189.5"/>
<text text-anchor="start" x="1176" y="-177.5" font-family="Helvetica,sans-Serif" font-size="10.00">plugins/behavior/nodegraph</text>
<text text-anchor="middle" x="1270" y="-166.5" font-family="Helvetica,sans-Serif" font-size="10.00">/src/Madgine/nodegraph/nodeexecution.cpp</text>
</a>
</g>
</g>
<!-- Node1&#45;&gt;Node3 -->
<g id="edge2" class="edge">
<title>Node1&#45;&gt;Node3</title>
<path fill="none" stroke="#63b8ff" d="M1197.77,-526.6C1227.53,-519.12 1259.38,-508.11 1286,-492 1365.65,-443.79 1387.53,-421.84 1428,-338 1448.8,-294.9 1468.1,-269.73 1440,-231 1427.83,-214.23 1382.12,-199.85 1341.17,-189.94"/>
<polygon fill="#63b8ff" stroke="#63b8ff" points="1197.3,-523.12 1188.39,-528.85 1198.93,-529.92 1197.3,-523.12"/>
</g>
<!-- Node4 -->
<g id="node4" class="node">
<title>Node4</title>
<g id="a_node4"><a xlink:href="nodeexecution_8h.html" target="_top" xlink:title=" ">
<polygon fill="white" stroke="#666666" points="1094,-261 900,-261 900,-231 1094,-231 1094,-261"/>
<text text-anchor="start" x="908" y="-249" font-family="Helvetica,sans-Serif" font-size="10.00">plugins/behavior/nodegraph</text>
<text text-anchor="middle" x="997" y="-238" font-family="Helvetica,sans-Serif" font-size="10.00">/src/Madgine/nodegraph/nodeexecution.h</text>
</a>
</g>
</g>
<!-- Node1&#45;&gt;Node4 -->
<g id="edge3" class="edge">
<title>Node1&#45;&gt;Node4</title>
<path fill="none" stroke="#63b8ff" d="M1088.41,-518C1070.65,-480.41 1036.59,-404.98 1016,-338 1007.84,-311.47 1002.07,-279.51 999.16,-261.39"/>
<polygon fill="#63b8ff" stroke="#63b8ff" points="1085.06,-519.1 1092.52,-526.62 1091.38,-516.09 1085.06,-519.1"/>
</g>
<!-- Node14 -->
<g id="node14" class="node">
<title>Node14</title>
<g id="a_node14"><a xlink:href="nodegraph_8cpp.html" target="_top" xlink:title=" ">
<polygon fill="white" stroke="#666666" points="1413.5,-261 1226.5,-261 1226.5,-231 1413.5,-231 1413.5,-261"/>
<text text-anchor="start" x="1234.5" y="-249" font-family="Helvetica,sans-Serif" font-size="10.00">plugins/behavior/nodegraph</text>
<text text-anchor="middle" x="1320" y="-238" font-family="Helvetica,sans-Serif" font-size="10.00">/src/Madgine/nodegraph/nodegraph.cpp</text>
</a>
</g>
</g>
<!-- Node1&#45;&gt;Node14 -->
<g id="edge15" class="edge">
<title>Node1&#45;&gt;Node14</title>
<path fill="none" stroke="#63b8ff" d="M1112.62,-517.78C1137.24,-471.84 1194.96,-370.07 1260,-297 1271.9,-283.63 1287.48,-270.75 1299.78,-261.42"/>
<polygon fill="#63b8ff" stroke="#63b8ff" points="1109.66,-515.9 1108.07,-526.38 1115.84,-519.18 1109.66,-515.9"/>
</g>
<!-- Node15 -->
<g id="node15" class="node">
<title>Node15</title>
<g id="a_node15"><a xlink:href="nodegraph_8h.html" target="_top" xlink:title=" ">
<polygon fill="white" stroke="#666666" points="500,-486.5 324,-486.5 324,-456.5 500,-456.5 500,-486.5"/>
<text text-anchor="start" x="332" y="-474.5" font-family="Helvetica,sans-Serif" font-size="10.00">plugins/behavior/nodegraph</text>
<text text-anchor="middle" x="412" y="-463.5" font-family="Helvetica,sans-Serif" font-size="10.00">/src/Madgine/nodegraph/nodegraph.h</text>
</a>
</g>
</g>
<!-- Node1&#45;&gt;Node15 -->
<g id="edge16" class="edge">
<title>Node1&#45;&gt;Node15</title>
<path fill="none" stroke="#63b8ff" d="M1002.16,-532.12C868.12,-518.58 629.36,-494.46 500.43,-481.43"/>
<polygon fill="#63b8ff" stroke="#63b8ff" points="1001.41,-535.56 1011.71,-533.08 1002.11,-528.59 1001.41,-535.56"/>
</g>
<!-- Node20 -->
<g id="node20" class="node">
<title>Node20</title>
<g id="a_node20"><a xlink:href="automasknode_8h.html" target="_top" xlink:title=" ">
<polygon fill="white" stroke="#666666" points="308,-415 158,-415 158,-374 308,-374 308,-415"/>
<text text-anchor="start" x="166" y="-403" font-family="Helvetica,sans-Serif" font-size="10.00">plugins/behavior/nodegraph</text>
<text text-anchor="start" x="166" y="-392" font-family="Helvetica,sans-Serif" font-size="10.00">/src/Madgine/nodegraph/nodes</text>
<text text-anchor="middle" x="233" y="-381" font-family="Helvetica,sans-Serif" font-size="10.00">/util/automasknode.h</text>
</a>
</g>
</g>
<!-- Node1&#45;&gt;Node20 -->
<g id="edge50" class="edge">
<title>Node1&#45;&gt;Node20</title>
<path fill="none" stroke="#63b8ff" d="M1001.73,-540.02C804.67,-535.42 374.91,-522.06 315,-492 281.59,-475.24 256.4,-438.18 243.23,-415.18"/>
<polygon fill="#63b8ff" stroke="#63b8ff" points="1001.63,-543.52 1011.71,-540.25 1001.79,-536.52 1001.63,-543.52"/>
</g>
<!-- Node21 -->
<g id="node21" class="node">
<title>Node21</title>
<g id="a_node21"><a xlink:href="pumpnode_8h.html" target="_top" xlink:title=" ">
<polygon fill="white" stroke="#666666" points="270,-338 120,-338 120,-297 270,-297 270,-338"/>
<text text-anchor="start" x="128" y="-326" font-family="Helvetica,sans-Serif" font-size="10.00">plugins/behavior/nodegraph</text>
<text text-anchor="start" x="128" y="-315" font-family="Helvetica,sans-Serif" font-size="10.00">/src/Madgine/nodegraph/nodes</text>
<text text-anchor="middle" x="195" y="-304" font-family="Helvetica,sans-Serif" font-size="10.00">/pumpnode.h</text>
</a>
</g>
</g>
<!-- Node1&#45;&gt;Node21 -->
<g id="edge47" class="edge">
<title>Node1&#45;&gt;Node21</title>
<path fill="none" stroke="#63b8ff" d="M1001.72,-542.54C811.07,-542.55 398.02,-537.14 264,-492 205.71,-472.37 177.97,-469.26 149,-415 140.42,-398.93 142.82,-391.14 149,-374 153.84,-360.58 163.49,-348.11 172.71,-338.4"/>
<polygon fill="#63b8ff" stroke="#63b8ff" points="1001.61,-546.04 1011.6,-542.54 1001.6,-539.04 1001.61,-546.04"/>
</g>
<!-- Node22 -->
<g id="node22" class="node">
<title>Node22</title>
<g id="a_node22"><a xlink:href="accessornode_8h.html" target="_top" xlink:title=" ">
<polygon fill="white" stroke="#666666" points="1625,-338 1475,-338 1475,-297 1625,-297 1625,-338"/>
<text text-anchor="start" x="1483" y="-326" font-family="Helvetica,sans-Serif" font-size="10.00">plugins/behavior/nodegraph</text>
<text text-anchor="start" x="1483" y="-315" font-family="Helvetica,sans-Serif" font-size="10.00">/src/Madgine/nodegraph/nodes</text>
<text text-anchor="middle" x="1550" y="-304" font-family="Helvetica,sans-Serif" font-size="10.00">/accessornode.h</text>
</a>
</g>
</g>
<!-- Node1&#45;&gt;Node22 -->
<g id="edge41" class="edge">
<title>Node1&#45;&gt;Node22</title>
<path fill="none" stroke="#63b8ff" d="M1197.93,-538.48C1290.08,-533.4 1419.89,-521.18 1461,-492 1514.14,-454.28 1537.69,-375.19 1546.1,-338.27"/>
<polygon fill="#63b8ff" stroke="#63b8ff" points="1197.92,-534.97 1188.11,-539 1198.29,-541.96 1197.92,-534.97"/>
</g>
<!-- Node23 -->
<g id="node23" class="node">
<title>Node23</title>
<g id="a_node23"><a xlink:href="functionnode_8h.html" target="_top" xlink:title=" ">
<polygon fill="white" stroke="#666666" points="1175,-338 1025,-338 1025,-297 1175,-297 1175,-338"/>
<text text-anchor="start" x="1033" y="-326" font-family="Helvetica,sans-Serif" font-size="10.00">plugins/behavior/nodegraph</text>
<text text-anchor="start" x="1033" y="-315" font-family="Helvetica,sans-Serif" font-size="10.00">/src/Madgine/nodegraph/nodes</text>
<text text-anchor="middle" x="1100" y="-304" font-family="Helvetica,sans-Serif" font-size="10.00">/functionnode.h</text>
</a>
</g>
</g>
<!-- Node1&#45;&gt;Node23 -->
<g id="edge44" class="edge">
<title>Node1&#45;&gt;Node23</title>
<path fill="none" stroke="#63b8ff" d="M1100,-516.3C1100,-471.21 1100,-378.81 1100,-338.28"/>
<polygon fill="#63b8ff" stroke="#63b8ff" points="1096.5,-516.17 1100,-526.17 1103.5,-516.17 1096.5,-516.17"/>
</g>
<!-- Node24 -->
<g id="node24" class="node">
<title>Node24</title>
<g id="a_node24"><a xlink:href="testnode_8h.html" target="_top" xlink:title=" ">
<polygon fill="white" stroke="#666666" points="1711,-492 1561,-492 1561,-451 1711,-451 1711,-492"/>
<text text-anchor="start" x="1569" y="-480" font-family="Helvetica,sans-Serif" font-size="10.00">plugins/behavior/nodegraph</text>
<text text-anchor="start" x="1569" y="-469" font-family="Helvetica,sans-Serif" font-size="10.00">/src/Madgine/nodegraph/nodes</text>
<text text-anchor="middle" x="1636" y="-458" font-family="Helvetica,sans-Serif" font-size="10.00">/testnode.h</text>
</a>
</g>
</g>
<!-- Node1&#45;&gt;Node24 -->
<g id="edge48" class="edge">
<title>Node1&#45;&gt;Node24</title>
<path fill="none" stroke="#63b8ff" d="M1198.16,-532.54C1285.68,-523.64 1417.18,-509.15 1531,-492 1540.63,-490.55 1550.72,-488.87 1560.68,-487.13"/>
<polygon fill="#63b8ff" stroke="#63b8ff" points="1198.01,-529.03 1188.42,-533.52 1198.72,-536 1198.01,-529.03"/>
</g>
<!-- Node25 -->
<g id="node25" class="node">
<title>Node25</title>
<g id="a_node25"><a xlink:href="librarynode_8h.html" target="_top" xlink:title=" ">
<polygon fill="white" stroke="#666666" points="1419,-338 1269,-338 1269,-297 1419,-297 1419,-338"/>
<text text-anchor="start" x="1277" y="-326" font-family="Helvetica,sans-Serif" font-size="10.00">plugins/behavior/nodegraph</text>
<text text-anchor="start" x="1277" y="-315" font-family="Helvetica,sans-Serif" font-size="10.00">/src/Madgine/nodegraph/nodes</text>
<text text-anchor="middle" x="1344" y="-304" font-family="Helvetica,sans-Serif" font-size="10.00">/util/librarynode.h</text>
</a>
</g>
</g>
<!-- Node1&#45;&gt;Node25 -->
<g id="edge51" class="edge">
<title>Node1&#45;&gt;Node25</title>
<path fill="none" stroke="#63b8ff" d="M1195.31,-524.13C1216.63,-516.8 1237.95,-506.49 1255,-492 1304.27,-450.13 1329.56,-374.16 1339.23,-338.28"/>
<polygon fill="#63b8ff" stroke="#63b8ff" points="1194.42,-520.74 1185.97,-527.13 1196.56,-527.4 1194.42,-520.74"/>
</g>
<!-- Node4&#45;&gt;Node3 -->
<g id="edge4" class="edge">
<title>Node4&#45;&gt;Node3</title>
<path fill="none" stroke="#63b8ff" d="M1064.89,-227.72C1110.54,-216.09 1170.03,-200.95 1213.18,-189.97"/>
<polygon fill="#63b8ff" stroke="#63b8ff" points="1064.19,-224.28 1055.36,-230.14 1065.92,-231.07 1064.19,-224.28"/>
</g>
<!-- Node5 -->
<g id="node5" class="node">
<title>Node5</title>
<g id="a_node5"><a xlink:href="nodeinterpreter_8cpp.html" target="_top" xlink:title=" ">
<polygon fill="white" stroke="#666666" points="776,-189.5 570,-189.5 570,-159.5 776,-159.5 776,-189.5"/>
<text text-anchor="start" x="578" y="-177.5" font-family="Helvetica,sans-Serif" font-size="10.00">plugins/behavior/nodegraph</text>
<text text-anchor="middle" x="673" y="-166.5" font-family="Helvetica,sans-Serif" font-size="10.00">/src/Madgine/nodegraph/nodeinterpreter.cpp</text>
</a>
</g>
</g>
<!-- Node4&#45;&gt;Node5 -->
<g id="edge5" class="edge">
<title>Node4&#45;&gt;Node5</title>
<path fill="none" stroke="#63b8ff" d="M918.48,-228.16C864.04,-216.48 792.3,-201.09 740.44,-189.97"/>
<polygon fill="#63b8ff" stroke="#63b8ff" points="917.48,-231.52 927.99,-230.2 918.95,-224.68 917.48,-231.52"/>
</g>
<!-- Node6 -->
<g id="node6" class="node">
<title>Node6</title>
<g id="a_node6"><a xlink:href="accessornode_8cpp.html" target="_top" xlink:title=" ">
<polygon fill="white" stroke="#666666" points="1540,-195 1390,-195 1390,-154 1540,-154 1540,-195"/>
<text text-anchor="start" x="1398" y="-183" font-family="Helvetica,sans-Serif" font-size="10.00">plugins/behavior/nodegraph</text>
<text text-anchor="start" x="1398" y="-172" font-family="Helvetica,sans-Serif" font-size="10.00">/src/Madgine/nodegraph/nodes</text>
<text text-anchor="middle" x="1465" y="-161" font-family="Helvetica,sans-Serif" font-size="10.00">/accessornode.cpp</text>
</a>
</g>
</g>
<!-- Node4&#45;&gt;Node6 -->
<g id="edge6" class="edge">
<title>Node4&#45;&gt;Node6</title>
<path fill="none" stroke="#63b8ff" d="M1105.64,-233.75C1182.78,-225.05 1288.62,-211.69 1381,-195 1383.8,-194.49 1386.65,-193.96 1389.52,-193.39"/>
<polygon fill="#63b8ff" stroke="#63b8ff" points="1105.52,-230.24 1095.97,-234.83 1106.3,-237.19 1105.52,-230.24"/>
</g>
<!-- Node7 -->
<g id="node7" class="node">
<title>Node7</title>
<g id="a_node7"><a xlink:href="functionnode_8cpp.html" target="_top" xlink:title=" ">
<polygon fill="white" stroke="#666666" points="982,-195 832,-195 832,-154 982,-154 982,-195"/>
<text text-anchor="start" x="840" y="-183" font-family="Helvetica,sans-Serif" font-size="10.00">plugins/behavior/nodegraph</text>
<text text-anchor="start" x="840" y="-172" font-family="Helvetica,sans-Serif" font-size="10.00">/src/Madgine/nodegraph/nodes</text>
<text text-anchor="middle" x="907" y="-161" font-family="Helvetica,sans-Serif" font-size="10.00">/functionnode.cpp</text>
</a>
</g>
</g>
<!-- Node4&#45;&gt;Node7 -->
<g id="edge7" class="edge">
<title>Node4&#45;&gt;Node7</title>
<path fill="none" stroke="#63b8ff" d="M969.46,-223.74C957.79,-214.72 944.27,-204.28 932.79,-195.42"/>
<polygon fill="#63b8ff" stroke="#63b8ff" points="967.1,-226.33 977.15,-229.67 971.38,-220.79 967.1,-226.33"/>
</g>
<!-- Node8 -->
<g id="node8" class="node">
<title>Node8</title>
<g id="a_node8"><a xlink:href="librarynode_8cpp.html" target="_top" xlink:title=" ">
<polygon fill="white" stroke="#666666" points="1150,-195 1000,-195 1000,-154 1150,-154 1150,-195"/>
<text text-anchor="start" x="1008" y="-183" font-family="Helvetica,sans-Serif" font-size="10.00">plugins/behavior/nodegraph</text>
<text text-anchor="start" x="1008" y="-172" font-family="Helvetica,sans-Serif" font-size="10.00">/src/Madgine/nodegraph/nodes</text>
<text text-anchor="middle" x="1075" y="-161" font-family="Helvetica,sans-Serif" font-size="10.00">/util/librarynode.cpp</text>
</a>
</g>
</g>
<!-- Node4&#45;&gt;Node8 -->
<g id="edge8" class="edge">
<title>Node4&#45;&gt;Node8</title>
<path fill="none" stroke="#63b8ff" d="M1021.47,-223.2C1031.44,-214.31 1042.9,-204.1 1052.65,-195.42"/>
<polygon fill="#63b8ff" stroke="#63b8ff" points="1019.43,-220.33 1014.29,-229.59 1024.09,-225.55 1019.43,-220.33"/>
</g>
<!-- Node9 -->
<g id="node9" class="node">
<title>Node9</title>
<g id="a_node9"><a xlink:href="sendernode_8h.html" target="_top" xlink:title=" ">
<polygon fill="white" stroke="#666666" points="552,-195 402,-195 402,-154 552,-154 552,-195"/>
<text text-anchor="start" x="410" y="-183" font-family="Helvetica,sans-Serif" font-size="10.00">plugins/behavior/nodegraph</text>
<text text-anchor="start" x="410" y="-172" font-family="Helvetica,sans-Serif" font-size="10.00">/src/Madgine/nodegraph/nodes</text>
<text text-anchor="middle" x="477" y="-161" font-family="Helvetica,sans-Serif" font-size="10.00">/util/sendernode.h</text>
</a>
</g>
</g>
<!-- Node4&#45;&gt;Node9 -->
<g id="edge9" class="edge">
<title>Node4&#45;&gt;Node9</title>
<path fill="none" stroke="#63b8ff" d="M888.17,-235.99C799.67,-227.83 671.76,-214.14 561,-195 558.2,-194.52 555.35,-194 552.47,-193.45"/>
<polygon fill="#63b8ff" stroke="#63b8ff" points="887.79,-239.47 898.07,-236.89 888.43,-232.5 887.79,-239.47"/>
</g>
<!-- Node9&#45;&gt;Node2 -->
<g id="edge10" class="edge">
<title>Node9&#45;&gt;Node2</title>
<path fill="none" stroke="#63b8ff" d="M390.83,-156.71C323.37,-143.57 230.52,-125.48 166.3,-112.97"/>
<polygon fill="#63b8ff" stroke="#63b8ff" points="389.88,-160.1 400.37,-158.57 391.22,-153.22 389.88,-160.1"/>
</g>
<!-- Node10 -->
<g id="node10" class="node">
<title>Node10</title>
<g id="a_node10"><a xlink:href="pumpnode_8cpp.html" target="_top" xlink:title=" ">
<polygon fill="white" stroke="#666666" points="411,-118 261,-118 261,-77 411,-77 411,-118"/>
<text text-anchor="start" x="269" y="-106" font-family="Helvetica,sans-Serif" font-size="10.00">plugins/behavior/nodegraph</text>
<text text-anchor="start" x="269" y="-95" font-family="Helvetica,sans-Serif" font-size="10.00">/src/Madgine/nodegraph/nodes</text>
<text text-anchor="middle" x="336" y="-84" font-family="Helvetica,sans-Serif" font-size="10.00">/pumpnode.cpp</text>
</a>
</g>
</g>
<!-- Node9&#45;&gt;Node10 -->
<g id="edge11" class="edge">
<title>Node9&#45;&gt;Node10</title>
<path fill="none" stroke="#63b8ff" d="M429.46,-148.21C411.25,-138.52 390.74,-127.62 373.59,-118.49"/>
<polygon fill="#63b8ff" stroke="#63b8ff" points="427.78,-151.28 438.25,-152.89 431.06,-145.1 427.78,-151.28"/>
</g>
<!-- Node11 -->
<g id="node11" class="node">
<title>Node11</title>
<g id="a_node11"><a xlink:href="testnode_8cpp.html" target="_top" xlink:title=" ">
<polygon fill="white" stroke="#666666" points="879,-118 729,-118 729,-77 879,-77 879,-118"/>
<text text-anchor="start" x="737" y="-106" font-family="Helvetica,sans-Serif" font-size="10.00">plugins/behavior/nodegraph</text>
<text text-anchor="start" x="737" y="-95" font-family="Helvetica,sans-Serif" font-size="10.00">/src/Madgine/nodegraph/nodes</text>
<text text-anchor="middle" x="804" y="-84" font-family="Helvetica,sans-Serif" font-size="10.00">/testnode.cpp</text>
</a>
</g>
</g>
<!-- Node9&#45;&gt;Node11 -->
<g id="edge12" class="edge">
<title>Node9&#45;&gt;Node11</title>
<path fill="none" stroke="#63b8ff" d="M563.15,-153.51C624.34,-139.43 683.44,-125.94 728.73,-115.62"/>
<polygon fill="#63b8ff" stroke="#63b8ff" points="562.54,-150.06 553.58,-155.71 564.11,-156.88 562.54,-150.06"/>
</g>
<!-- Node12 -->
<g id="node12" class="node">
<title>Node12</title>
<g id="a_node12"><a xlink:href="sendernode__impl_8h.html" target="_top" xlink:title=" ">
<polygon fill="white" stroke="#666666" points="579,-118 429,-118 429,-77 579,-77 579,-118"/>
<text text-anchor="start" x="437" y="-106" font-family="Helvetica,sans-Serif" font-size="10.00">plugins/behavior/nodegraph</text>
<text text-anchor="start" x="437" y="-95" font-family="Helvetica,sans-Serif" font-size="10.00">/src/Madgine/nodegraph/nodes</text>
<text text-anchor="middle" x="504" y="-84" font-family="Helvetica,sans-Serif" font-size="10.00">/util/sendernode_impl.h</text>
</a>
</g>
</g>
<!-- Node9&#45;&gt;Node12 -->
<g id="edge13" class="edge">
<title>Node9&#45;&gt;Node12</title>
<path fill="none" stroke="#63b8ff" d="M487.9,-143.21C490.92,-134.83 494.12,-125.95 496.86,-118.33"/>
<polygon fill="#63b8ff" stroke="#63b8ff" points="484.7,-141.78 484.61,-152.37 491.29,-144.15 484.7,-141.78"/>
</g>
<!-- Node13 -->
<g id="node13" class="node">
<title>Node13</title>
<g id="a_node13"><a xlink:href="sendernode_8cpp.html" target="_top" xlink:title=" ">
<polygon fill="white" stroke="#666666" points="579,-41 429,-41 429,0 579,0 579,-41"/>
<text text-anchor="start" x="437" y="-29" font-family="Helvetica,sans-Serif" font-size="10.00">plugins/behavior/nodegraph</text>
<text text-anchor="start" x="437" y="-18" font-family="Helvetica,sans-Serif" font-size="10.00">/src/Madgine/nodegraph/nodes</text>
<text text-anchor="middle" x="504" y="-7" font-family="Helvetica,sans-Serif" font-size="10.00">/util/sendernode.cpp</text>
</a>
</g>
</g>
<!-- Node12&#45;&gt;Node13 -->
<g id="edge14" class="edge">
<title>Node12&#45;&gt;Node13</title>
<path fill="none" stroke="#63b8ff" d="M504,-65.36C504,-57.24 504,-48.7 504,-41.33"/>
<polygon fill="#63b8ff" stroke="#63b8ff" points="500.5,-65.28 504,-75.28 507.5,-65.28 500.5,-65.28"/>
</g>
<!-- Node15&#45;&gt;Node2 -->
<g id="edge18" class="edge">
<title>Node15&#45;&gt;Node2</title>
<path fill="none" stroke="#63b8ff" d="M312.5,-457.96C249.5,-448.43 175.15,-433.77 149,-415 108.54,-385.95 92,-368.31 92,-318.5 92,-318.5 92,-318.5 92,-245 92,-196.42 92,-138.78 92,-112.64"/>
<polygon fill="#63b8ff" stroke="#63b8ff" points="311.82,-461.39 322.22,-459.4 312.84,-454.47 311.82,-461.39"/>
</g>
<!-- Node15&#45;&gt;Node5 -->
<g id="edge34" class="edge">
<title>Node15&#45;&gt;Node5</title>
<path fill="none" stroke="#63b8ff" d="M410.49,-444.8C407.81,-389.63 404.82,-262.37 432,-231 442.52,-218.85 523.2,-201.92 588.36,-189.97"/>
<polygon fill="#63b8ff" stroke="#63b8ff" points="406.98,-444.69 411,-454.49 413.97,-444.32 406.98,-444.69"/>
</g>
<!-- Node15&#45;&gt;Node9 -->
<g id="edge40" class="edge">
<title>Node15&#45;&gt;Node9</title>
<path fill="none" stroke="#63b8ff" d="M402.63,-445.59C387.14,-400.05 361.34,-301.55 398,-231 405.81,-215.98 419.75,-204.17 433.77,-195.38"/>
<polygon fill="#63b8ff" stroke="#63b8ff" points="399.25,-446.54 405.89,-454.8 405.85,-444.2 399.25,-446.54"/>
</g>
<!-- Node15&#45;&gt;Node10 -->
<g id="edge35" class="edge">
<title>Node15&#45;&gt;Node10</title>
<path fill="none" stroke="#63b8ff" d="M391.95,-447.45C369.44,-419.11 336,-368.6 336,-318.5 336,-318.5 336,-318.5 336,-245 336,-199.73 336,-146.59 336,-118.4"/>
<polygon fill="#63b8ff" stroke="#63b8ff" points="389.1,-449.49 398.15,-455 394.52,-445.05 389.1,-449.49"/>
</g>
<!-- Node15&#45;&gt;Node14 -->
<g id="edge19" class="edge">
<title>Node15&#45;&gt;Node14</title>
<path fill="none" stroke="#63b8ff" d="M511.85,-461.52C693.48,-443.86 1069.73,-400.8 1184,-338 1207.14,-325.28 1205.62,-312.5 1227,-297 1246.14,-283.12 1269.61,-270.53 1288.18,-261.46"/>
<polygon fill="#63b8ff" stroke="#63b8ff" points="511.56,-458.03 501.94,-462.48 512.23,-465 511.56,-458.03"/>
</g>
<!-- Node16 -->
<g id="node16" class="node">
<title>Node16</title>
<g id="a_node16"><a xlink:href="codegenerator_8cpp.html" target="_top" xlink:title=" ">
<polygon fill="white" stroke="#666666" points="643.5,-409.5 440.5,-409.5 440.5,-379.5 643.5,-379.5 643.5,-409.5"/>
<text text-anchor="start" x="448.5" y="-397.5" font-family="Helvetica,sans-Serif" font-size="10.00">plugins/behavior/nodegraph</text>
<text text-anchor="middle" x="542" y="-386.5" font-family="Helvetica,sans-Serif" font-size="10.00">/src/Madgine/nodegraph/codegenerator.cpp</text>
</a>
</g>
</g>
<!-- Node15&#45;&gt;Node16 -->
<g id="edge17" class="edge">
<title>Node15&#45;&gt;Node16</title>
<path fill="none" stroke="#63b8ff" d="M446.76,-450.44C468.91,-437.67 497.07,-421.42 517.01,-409.92"/>
<polygon fill="#63b8ff" stroke="#63b8ff" points="445.29,-447.25 438.38,-455.28 448.79,-453.32 445.29,-447.25"/>
</g>
<!-- Node17 -->
<g id="node17" class="node">
<title>Node17</title>
<g id="a_node17"><a xlink:href="nodegraphloader_8h.html" target="_top" xlink:title=" ">
<polygon fill="white" stroke="#666666" points="864.5,-409.5 661.5,-409.5 661.5,-379.5 864.5,-379.5 864.5,-409.5"/>
<text text-anchor="start" x="669.5" y="-397.5" font-family="Helvetica,sans-Serif" font-size="10.00">plugins/behavior/nodegraph</text>
<text text-anchor="middle" x="763" y="-386.5" font-family="Helvetica,sans-Serif" font-size="10.00">/src/Madgine/nodegraph/nodegraphloader.h</text>
</a>
</g>
</g>
<!-- Node15&#45;&gt;Node17 -->
<g id="edge20" class="edge">
<title>Node15&#45;&gt;Node17</title>
<path fill="none" stroke="#63b8ff" d="M490.87,-453.65C552.34,-440.51 636.79,-422.47 695.23,-409.98"/>
<polygon fill="#63b8ff" stroke="#63b8ff" points="490.2,-450.21 481.16,-455.72 491.67,-457.06 490.2,-450.21"/>
</g>
<!-- Node15&#45;&gt;Node20 -->
<g id="edge36" class="edge">
<title>Node15&#45;&gt;Node20</title>
<path fill="none" stroke="#63b8ff" d="M367.02,-451.65C340.67,-440.61 307.4,-426.67 280.6,-415.44"/>
<polygon fill="#63b8ff" stroke="#63b8ff" points="365.52,-454.82 376.09,-455.45 368.22,-448.36 365.52,-454.82"/>
</g>
<!-- Node18 -->
<g id="node18" class="node">
<title>Node18</title>
<g id="a_node18"><a xlink:href="nodegraphloader_8cpp.html" target="_top" xlink:title=" ">
<polygon fill="white" stroke="#666666" points="653.5,-261 440.5,-261 440.5,-231 653.5,-231 653.5,-261"/>
<text text-anchor="start" x="448.5" y="-249" font-family="Helvetica,sans-Serif" font-size="10.00">plugins/behavior/nodegraph</text>
<text text-anchor="middle" x="547" y="-238" font-family="Helvetica,sans-Serif" font-size="10.00">/src/Madgine/nodegraph/nodegraphloader.cpp</text>
</a>
</g>
</g>
<!-- Node17&#45;&gt;Node18 -->
<g id="edge21" class="edge">
<title>Node17&#45;&gt;Node18</title>
<path fill="none" stroke="#63b8ff" d="M732.48,-372.8C688.04,-342.66 606.64,-287.45 568.19,-261.37"/>
<polygon fill="#63b8ff" stroke="#63b8ff" points="730.4,-375.62 740.64,-378.34 734.33,-369.83 730.4,-375.62"/>
</g>
<!-- Node19 -->
<g id="node19" class="node">
<title>Node19</title>
<g id="a_node19"><a xlink:href="nodeinterpreter_8h.html" target="_top" xlink:title=" ">
<polygon fill="white" stroke="#666666" points="913,-332.5 717,-332.5 717,-302.5 913,-302.5 913,-332.5"/>
<text text-anchor="start" x="725" y="-320.5" font-family="Helvetica,sans-Serif" font-size="10.00">plugins/behavior/nodegraph</text>
<text text-anchor="middle" x="815" y="-309.5" font-family="Helvetica,sans-Serif" font-size="10.00">/src/Madgine/nodegraph/nodeinterpreter.h</text>
</a>
</g>
</g>
<!-- Node17&#45;&gt;Node19 -->
<g id="edge22" class="edge">
<title>Node17&#45;&gt;Node19</title>
<path fill="none" stroke="#63b8ff" d="M779.35,-369.91C787.77,-357.78 797.75,-343.38 805,-332.92"/>
<polygon fill="#63b8ff" stroke="#63b8ff" points="776.71,-367.58 773.89,-377.8 782.46,-371.57 776.71,-367.58"/>
</g>
<!-- Node19&#45;&gt;Node3 -->
<g id="edge23" class="edge">
<title>Node19&#45;&gt;Node3</title>
<path fill="none" stroke="#63b8ff" d="M924.55,-302.85C979.14,-294.18 1045.57,-280.78 1103,-261 1157.2,-242.33 1215.81,-208.92 1247.15,-189.86"/>
<polygon fill="#63b8ff" stroke="#63b8ff" points="924.29,-299.35 914.94,-304.34 925.36,-306.26 924.29,-299.35"/>
</g>
<!-- Node19&#45;&gt;Node4 -->
<g id="edge24" class="edge">
<title>Node19&#45;&gt;Node4</title>
<path fill="none" stroke="#63b8ff" d="M863.39,-298.02C893.45,-286.54 931.53,-272 959.34,-261.38"/>
<polygon fill="#63b8ff" stroke="#63b8ff" points="862.22,-294.72 854.12,-301.56 864.72,-301.26 862.22,-294.72"/>
</g>
<!-- Node19&#45;&gt;Node5 -->
<g id="edge27" class="edge">
<title>Node19&#45;&gt;Node5</title>
<path fill="none" stroke="#63b8ff" d="M794.39,-293.84C778.27,-276.35 755.14,-251.72 734,-231 719.28,-216.57 701.81,-200.81 689.36,-189.79"/>
<polygon fill="#63b8ff" stroke="#63b8ff" points="791.76,-296.15 801.1,-301.16 796.92,-291.42 791.76,-296.15"/>
</g>
<!-- Node19&#45;&gt;Node6 -->
<g id="edge28" class="edge">
<title>Node19&#45;&gt;Node6</title>
<path fill="none" stroke="#63b8ff" d="M924.51,-305.41C990.72,-296.97 1076.3,-282.98 1150,-261 1181.65,-251.56 1186.61,-241.28 1218,-231 1288.51,-207.91 1308.64,-211.39 1381,-195 1383.92,-194.34 1386.9,-193.66 1389.9,-192.98"/>
<polygon fill="#63b8ff" stroke="#63b8ff" points="924.21,-301.92 914.72,-306.63 925.08,-308.86 924.21,-301.92"/>
</g>
<!-- Node19&#45;&gt;Node7 -->
<g id="edge29" class="edge">
<title>Node19&#45;&gt;Node7</title>
<path fill="none" stroke="#63b8ff" d="M825.41,-291.72C833.29,-274.13 844.94,-250.31 858,-231 866.57,-218.33 877.76,-205.45 887.28,-195.29"/>
<polygon fill="#63b8ff" stroke="#63b8ff" points="822.21,-290.31 821.41,-300.88 828.62,-293.11 822.21,-290.31"/>
</g>
<!-- Node19&#45;&gt;Node8 -->
<g id="edge32" class="edge">
<title>Node19&#45;&gt;Node8</title>
<path fill="none" stroke="#63b8ff" d="M833.06,-293.47C850.94,-271.21 877.53,-239.61 891,-231 909.49,-219.19 957.53,-204.87 999.89,-193.73"/>
<polygon fill="#63b8ff" stroke="#63b8ff" points="830.43,-291.16 826.94,-301.16 835.91,-295.52 830.43,-291.16"/>
</g>
<!-- Node19&#45;&gt;Node9 -->
<g id="edge33" class="edge">
<title>Node19&#45;&gt;Node9</title>
<path fill="none" stroke="#63b8ff" d="M783.62,-295.72C768.46,-285.5 750.1,-272.85 734,-261 716.67,-248.24 715.3,-240.52 696,-231 682.85,-224.52 610.37,-206.68 552.34,-192.96"/>
<polygon fill="#63b8ff" stroke="#63b8ff" points="781.55,-298.55 791.81,-301.21 785.45,-292.73 781.55,-298.55"/>
</g>
<!-- Node19&#45;&gt;Node10 -->
<g id="edge30" class="edge">
<title>Node19&#45;&gt;Node10</title>
<path fill="none" stroke="#63b8ff" d="M765.92,-297.58C743.74,-288.04 717.69,-275.43 696,-261 679.5,-250.02 680.97,-239.36 663,-231 553.22,-179.96 493.94,-261.84 393,-195 365.75,-176.95 349.71,-141.03 341.91,-118.47"/>
<polygon fill="#63b8ff" stroke="#63b8ff" points="764.5,-300.78 775.07,-301.42 767.21,-294.32 764.5,-300.78"/>
</g>
<!-- Node19&#45;&gt;Node11 -->
<g id="edge31" class="edge">
<title>Node19&#45;&gt;Node11</title>
<path fill="none" stroke="#63b8ff" d="M813.7,-290.81C811.48,-246.82 807,-157.99 805,-118.36"/>
<polygon fill="#63b8ff" stroke="#63b8ff" points="810.2,-290.87 814.2,-300.68 817.19,-290.52 810.2,-290.87"/>
</g>
<!-- Node19&#45;&gt;Node14 -->
<g id="edge25" class="edge">
<title>Node19&#45;&gt;Node14</title>
<path fill="none" stroke="#63b8ff" d="M924.62,-301.41C1014.66,-289.02 1140.85,-271.66 1226.26,-259.9"/>
<polygon fill="#63b8ff" stroke="#63b8ff" points="924.2,-297.94 914.77,-302.77 925.15,-304.87 924.2,-297.94"/>
</g>
<!-- Node19&#45;&gt;Node18 -->
<g id="edge26" class="edge">
<title>Node19&#45;&gt;Node18</title>
<path fill="none" stroke="#63b8ff" d="M748.07,-299.14C703.29,-287.53 645.05,-272.43 602.78,-261.47"/>
<polygon fill="#63b8ff" stroke="#63b8ff" points="747.12,-302.51 757.68,-301.64 748.88,-295.74 747.12,-302.51"/>
</g>
<!-- Node20&#45;&gt;Node9 -->
<g id="edge39" class="edge">
<title>Node20&#45;&gt;Node9</title>
<path fill="none" stroke="#63b8ff" d="M256.99,-365.05C264.15,-356.42 271.96,-346.88 279,-338 316.04,-291.25 313.73,-268.64 360,-231 378.05,-216.32 400.63,-204.43 421.13,-195.49"/>
<polygon fill="#63b8ff" stroke="#63b8ff" points="254.51,-362.55 250.79,-372.47 259.89,-367.04 254.51,-362.55"/>
</g>
<!-- Node20&#45;&gt;Node21 -->
<g id="edge37" class="edge">
<title>Node20&#45;&gt;Node21</title>
<path fill="none" stroke="#63b8ff" d="M217.94,-363.78C213.61,-355.23 209,-346.12 205.05,-338.33"/>
<polygon fill="#63b8ff" stroke="#63b8ff" points="214.69,-365.11 222.33,-372.44 220.93,-361.94 214.69,-365.11"/>
</g>
<!-- Node21&#45;&gt;Node10 -->
<g id="edge38" class="edge">
<title>Node21&#45;&gt;Node10</title>
<path fill="none" stroke="#63b8ff" d="M213.9,-287.27C243.05,-242.2 298.21,-156.92 323.17,-118.34"/>
<polygon fill="#63b8ff" stroke="#63b8ff" points="211.08,-285.2 208.58,-295.5 216.95,-289 211.08,-285.2"/>
</g>
<!-- Node22&#45;&gt;Node6 -->
<g id="edge43" class="edge">
<title>Node22&#45;&gt;Node6</title>
<path fill="none" stroke="#63b8ff" d="M1532.27,-287.09C1515.67,-259.56 1491.34,-219.19 1476.94,-195.3"/>
<polygon fill="#63b8ff" stroke="#63b8ff" points="1529.06,-288.54 1537.22,-295.3 1535.06,-284.93 1529.06,-288.54"/>
</g>
<!-- Node22&#45;&gt;Node14 -->
<g id="edge42" class="edge">
<title>Node22&#45;&gt;Node14</title>
<path fill="none" stroke="#63b8ff" d="M1473.43,-293.36C1438.48,-282.8 1398.17,-270.62 1367.65,-261.4"/>
<polygon fill="#63b8ff" stroke="#63b8ff" points="1472.06,-296.6 1482.64,-296.15 1474.08,-289.9 1472.06,-296.6"/>
</g>
<!-- Node23&#45;&gt;Node7 -->
<g id="edge46" class="edge">
<title>Node23&#45;&gt;Node7</title>
<path fill="none" stroke="#63b8ff" d="M1109.96,-285.78C1113.7,-268.08 1114.61,-246.36 1103,-231 1099.11,-225.85 1035.9,-208.52 982.31,-194.58"/>
<polygon fill="#63b8ff" stroke="#63b8ff" points="1106.62,-284.71 1107.57,-295.27 1113.41,-286.42 1106.62,-284.71"/>
</g>
<!-- Node23&#45;&gt;Node14 -->
<g id="edge45" class="edge">
<title>Node23&#45;&gt;Node14</title>
<path fill="none" stroke="#63b8ff" d="M1173.67,-293.23C1207,-282.7 1245.35,-270.58 1274.42,-261.4"/>
<polygon fill="#63b8ff" stroke="#63b8ff" points="1172.97,-289.78 1164.49,-296.13 1175.08,-296.45 1172.97,-289.78"/>
</g>
<!-- Node24&#45;&gt;Node11 -->
<g id="edge49" class="edge">
<title>Node24&#45;&gt;Node11</title>
<path fill="none" stroke="#63b8ff" d="M1641.48,-439.7C1646.45,-409.07 1653,-360.7 1653,-318.5 1653,-318.5 1653,-318.5 1653,-245 1653,-183.58 1605.65,-177.72 1549,-154 1429.67,-104.03 1043.88,-98.24 879.41,-98.11"/>
<polygon fill="#63b8ff" stroke="#63b8ff" points="1638.06,-438.97 1639.86,-449.41 1644.96,-440.12 1638.06,-438.97"/>
</g>
<!-- Node25&#45;&gt;Node8 -->
<g id="edge53" class="edge">
<title>Node25&#45;&gt;Node8</title>
<path fill="none" stroke="#63b8ff" d="M1392.84,-290.67C1418.32,-273.88 1440.81,-251.41 1423,-231 1384.06,-186.39 1217.23,-205.71 1159,-195 1156.2,-194.49 1153.36,-193.94 1150.49,-193.37"/>
<polygon fill="#63b8ff" stroke="#63b8ff" points="1391.29,-287.51 1384.67,-295.78 1395,-293.44 1391.29,-287.51"/>
</g>
<!-- Node25&#45;&gt;Node14 -->
<g id="edge52" class="edge">
<title>Node25&#45;&gt;Node14</title>
<path fill="none" stroke="#63b8ff" d="M1333.45,-285.95C1330.51,-277.44 1327.45,-268.59 1325,-261.47"/>
<polygon fill="#63b8ff" stroke="#63b8ff" points="1330.12,-287.03 1336.69,-295.34 1336.74,-284.74 1330.12,-287.03"/>
</g>
</g>
</svg>
        <g id="navigator" transform="translate(0 0)" fill="#404254">
                <rect fill="#f2f5e9" fill-opacity="0.5" stroke="#606060" stroke-width=".5" x="0" y="0" width="60" height="60"/>
                <use id="zoomplus" xlink:href="#zoomPlus" x="17" y="9" onmousedown="handleZoom(evt,'in')"/>
                <use id="zoomminus" xlink:href="#zoomMin" x="42" y="9" onmousedown="handleZoom(evt,'out')"/>
                <use id="reset" xlink:href="#resetDef" x="30" y="36" onmousedown="handleReset()"/>
                <g id="arrowUp" xlink:href="#dirArrow" transform="translate(30 24)" onmousedown="handlePan(0,-1)">
                  <use xlink:href="#rim" fill="#404040">
                        <set attributeName="fill" to="#808080" begin="arrowUp.mouseover" end="arrowUp.mouseout"/>
                  </use>
                  <path fill="none" stroke="white" stroke-width="1.5" d="M0,-3.0v7 M-2.5,-0.5L0,-3.0L2.5,-0.5"/>
                </g>
                <g id="arrowRight" xlink:href="#dirArrow" transform="rotate(90) translate(36 -43)" onmousedown="handlePan(1,0)">
                  <use xlink:href="#rim" fill="#404040">
                        <set attributeName="fill" to="#808080" begin="arrowRight.mouseover" end="arrowRight.mouseout"/>
                  </use>
                  <path fill="none" stroke="white" stroke-width="1.5" d="M0,-3.0v7 M-2.5,-0.5L0,-3.0L2.5,-0.5"/>
                </g>
                <g id="arrowDown" xlink:href="#dirArrow" transform="rotate(180) translate(-30 -48)" onmousedown="handlePan(0,1)">
                  <use xlink:href="#rim" fill="#404040">
                        <set attributeName="fill" to="#808080" begin="arrowDown.mouseover" end="arrowDown.mouseout"/>
                  </use>
                  <path fill="none" stroke="white" stroke-width="1.5" d="M0,-3.0v7 M-2.5,-0.5L0,-3.0L2.5,-0.5"/>
                </g>
                <g id="arrowLeft" xlink:href="#dirArrow" transform="rotate(270) translate(-36 17)" onmousedown="handlePan(-1,0)">
                  <use xlink:href="#rim" fill="#404040">
                        <set attributeName="fill" to="#808080" begin="arrowLeft.mouseover" end="arrowLeft.mouseout"/>
                  </use>
                  <path fill="none" stroke="white" stroke-width="1.5" d="M0,-3.0v7 M-2.5,-0.5L0,-3.0L2.5,-0.5"/>
                </g>
        </g>
        <svg viewBox="0 0 15 15" width="100%" height="30px" preserveAspectRatio="xMaxYMin meet">
         <g id="arrow_out" transform="scale(0.3 0.3)">
          <a xlink:href="nodebase_8h__dep__incl_org.svg" target="_base">
           <rect id="button" ry="5" rx="5" y="6" x="6" height="38" width="38"
                fill="#f2f5e9" fill-opacity="0.5" stroke="#606060" stroke-width="1.0"/>
           <path id="arrow"
             d="M 11.500037,31.436501 C 11.940474,20.09759 22.043105,11.32322 32.158766,21.979434 L 37.068811,17.246167 C 37.068811,17.246167 37.088388,32 37.088388,32 L 22.160133,31.978069 C 22.160133,31.978069 26.997745,27.140456 26.997745,27.140456 C 18.528582,18.264221 13.291696,25.230495 11.500037,31.436501 z"
             style="fill:#404040;"/>
          </a>
         </g>
        </svg>
</svg>
