<?xml version="1.0" encoding="UTF-8" standalone="no"?>
<!DOCTYPE svg PUBLIC "-//W3C//DTD SVG 1.1//EN"
 "http://www.w3.org/Graphics/SVG/1.1/DTD/svg11.dtd">
<!-- Generated by graphviz version 7.0.5 (20221223.1930)
 -->
<!-- Title: src/Meta/keyvalue/objectinstance.h Pages: 1 -->
<svg width="725pt" height="93pt"
 viewBox="0.00 0.00 725.00 93.00" xmlns="http://www.w3.org/2000/svg" xmlns:xlink="http://www.w3.org/1999/xlink">
<g id="graph0" class="graph" transform="scale(1 1) rotate(0) translate(4 89)">
<title>src/Meta/keyvalue/objectinstance.h</title>
<!-- Node1 -->
<g id="node1" class="node">
<title>Node1</title>
<g id="a_node1"><a xlink:title=" ">
<polygon fill="#999999" stroke="#666666" points="441.5,-85 271.5,-85 271.5,-66 441.5,-66 441.5,-85"/>
<text text-anchor="middle" x="356.5" y="-73" font-family="Helvetica,sans-Serif" font-size="10.00">src/Meta/keyvalue/objectinstance.h</text>
</a>
</g>
</g>
<!-- Node2 -->
<g id="node2" class="node">
<title>Node2</title>
<g id="a_node2"><a xlink:href="pyobjectutil_8cpp.html" target="_top" xlink:title=" ">
<polygon fill="white" stroke="#666666" points="157,-30 0,-30 0,0 157,0 157,-30"/>
<text text-anchor="start" x="8" y="-18" font-family="Helvetica,sans-Serif" font-size="10.00">plugins/behavior/python3</text>
<text text-anchor="middle" x="78.5" y="-7" font-family="Helvetica,sans-Serif" font-size="10.00">/src/Python3/util/pyobjectutil.cpp</text>
</a>
</g>
</g>
<!-- Node1&#45;&gt;Node2 -->
<g id="edge1" class="edge">
<title>Node1&#45;&gt;Node2</title>
<path fill="none" stroke="#63b8ff" d="M302.85,-63.21C258.51,-53.88 195.28,-40.57 147.23,-30.46"/>
<polygon fill="#63b8ff" stroke="#63b8ff" points="301.99,-66.61 312.49,-65.24 303.43,-59.76 301.99,-66.61"/>
</g>
<!-- Node3 -->
<g id="node3" class="node">
<title>Node3</title>
<g id="a_node3"><a xlink:href="nativeobject_8cpp.html" target="_top" xlink:title=" ">
<polygon fill="white" stroke="#666666" points="345.5,-24.5 175.5,-24.5 175.5,-5.5 345.5,-5.5 345.5,-24.5"/>
<text text-anchor="middle" x="260.5" y="-12.5" font-family="Helvetica,sans-Serif" font-size="10.00">src/Meta/keyvalue/nativeobject.cpp</text>
</a>
</g>
</g>
<!-- Node1&#45;&gt;Node3 -->
<g id="edge2" class="edge">
<title>Node1&#45;&gt;Node3</title>
<path fill="none" stroke="#63b8ff" d="M332.14,-59.66C314.19,-48.72 290.35,-34.19 275.22,-24.97"/>
<polygon fill="#63b8ff" stroke="#63b8ff" points="330.27,-62.61 340.63,-64.83 333.91,-56.63 330.27,-62.61"/>
</g>
<!-- Node4 -->
<g id="node4" class="node">
<title>Node4</title>
<g id="a_node4"><a xlink:href="objectinstance_8cpp.html" target="_top" xlink:title=" ">
<polygon fill="white" stroke="#666666" points="543.5,-24.5 363.5,-24.5 363.5,-5.5 543.5,-5.5 543.5,-24.5"/>
<text text-anchor="middle" x="453.5" y="-12.5" font-family="Helvetica,sans-Serif" font-size="10.00">src/Meta/keyvalue/objectinstance.cpp</text>
</a>
</g>
</g>
<!-- Node1&#45;&gt;Node4 -->
<g id="edge3" class="edge">
<title>Node1&#45;&gt;Node4</title>
<path fill="none" stroke="#63b8ff" d="M380.86,-59.81C399.03,-48.85 423.26,-34.24 438.63,-24.97"/>
<polygon fill="#63b8ff" stroke="#63b8ff" points="379.28,-56.67 372.53,-64.83 382.9,-62.67 379.28,-56.67"/>
</g>
<!-- Node5 -->
<g id="node5" class="node">
<title>Node5</title>
<g id="a_node5"><a xlink:href="objectptr_8cpp.html" target="_top" xlink:title=" ">
<polygon fill="white" stroke="#666666" points="717,-24.5 562,-24.5 562,-5.5 717,-5.5 717,-24.5"/>
<text text-anchor="middle" x="639.5" y="-12.5" font-family="Helvetica,sans-Serif" font-size="10.00">src/Meta/keyvalue/objectptr.cpp</text>
</a>
</g>
</g>
<!-- Node1&#45;&gt;Node5 -->
<g id="edge4" class="edge">
<title>Node1&#45;&gt;Node5</title>
<path fill="none" stroke="#63b8ff" d="M410.86,-63.26C464.83,-52.11 546.49,-35.23 596.22,-24.95"/>
<polygon fill="#63b8ff" stroke="#63b8ff" points="410.36,-59.79 401.27,-65.25 411.77,-66.65 410.36,-59.79"/>
</g>
</g>
</svg>
