<?xml version="1.0" encoding="UTF-8" standalone="no"?>
<!DOCTYPE svg PUBLIC "-//W3C//DTD SVG 1.1//EN"
 "http://www.w3.org/Graphics/SVG/1.1/DTD/svg11.dtd">
<!-- Generated by graphviz version 7.0.5 (20221223.1930)
 -->
<!-- Title: plugins/renderer/opengl/src/OpenGL/util/openglheapallocator.h Pages: 1 -->
<svg width="1790pt" height="170pt"
 viewBox="0.00 0.00 1789.50 170.00" xmlns="http://www.w3.org/2000/svg" xmlns:xlink="http://www.w3.org/1999/xlink">
<g id="graph0" class="graph" transform="scale(1 1) rotate(0) translate(4 166)">
<title>plugins/renderer/opengl/src/OpenGL/util/openglheapallocator.h</title>
<!-- Node1 -->
<g id="node1" class="node">
<title>Node1</title>
<g id="a_node1"><a xlink:title=" ">
<polygon fill="#999999" stroke="#666666" points="1066,-162 881,-162 881,-132 1066,-132 1066,-162"/>
<text text-anchor="start" x="889" y="-150" font-family="Helvetica,sans-Serif" font-size="10.00">plugins/renderer/opengl</text>
<text text-anchor="middle" x="973.5" y="-139" font-family="Helvetica,sans-Serif" font-size="10.00">/src/OpenGL/util/openglheapallocator.h</text>
</a>
</g>
</g>
<!-- Node2 -->
<g id="node2" class="node">
<title>Node2</title>
<g id="a_node2"><a xlink:href="openglrendercontext_8h.html" target="_top" xlink:title=" ">
<polygon fill="white" stroke="#666666" points="958.5,-96 788.5,-96 788.5,-66 958.5,-66 958.5,-96"/>
<text text-anchor="start" x="796.5" y="-84" font-family="Helvetica,sans-Serif" font-size="10.00">plugins/renderer/opengl</text>
<text text-anchor="middle" x="873.5" y="-73" font-family="Helvetica,sans-Serif" font-size="10.00">/src/OpenGL/openglrendercontext.h</text>
</a>
</g>
</g>
<!-- Node1&#45;&gt;Node2 -->
<g id="edge1" class="edge">
<title>Node1&#45;&gt;Node2</title>
<path fill="none" stroke="#63b8ff" d="M941.93,-125.8C927.01,-116.24 909.53,-105.06 895.98,-96.39"/>
<polygon fill="#63b8ff" stroke="#63b8ff" points="939.72,-128.54 950.03,-130.98 943.5,-122.64 939.72,-128.54"/>
</g>
<!-- Node12 -->
<g id="node12" class="node">
<title>Node12</title>
<g id="a_node12"><a xlink:href="openglheapallocator_8cpp.html" target="_top" xlink:title=" ">
<polygon fill="white" stroke="#666666" points="1172.5,-96 976.5,-96 976.5,-66 1172.5,-66 1172.5,-96"/>
<text text-anchor="start" x="984.5" y="-84" font-family="Helvetica,sans-Serif" font-size="10.00">plugins/renderer/opengl</text>
<text text-anchor="middle" x="1074.5" y="-73" font-family="Helvetica,sans-Serif" font-size="10.00">/src/OpenGL/util/openglheapallocator.cpp</text>
</a>
</g>
</g>
<!-- Node1&#45;&gt;Node12 -->
<g id="edge11" class="edge">
<title>Node1&#45;&gt;Node12</title>
<path fill="none" stroke="#63b8ff" d="M1005.63,-125.64C1020.69,-116.09 1038.28,-104.95 1051.91,-96.31"/>
<polygon fill="#63b8ff" stroke="#63b8ff" points="1004.02,-122.52 997.44,-130.83 1007.77,-128.43 1004.02,-122.52"/>
</g>
<!-- Node3 -->
<g id="node3" class="node">
<title>Node3</title>
<g id="a_node3"><a xlink:href="openglmeshloader_8cpp.html" target="_top" xlink:title=" ">
<polygon fill="white" stroke="#666666" points="173,-30 0,-30 0,0 173,0 173,-30"/>
<text text-anchor="start" x="8" y="-18" font-family="Helvetica,sans-Serif" font-size="10.00">plugins/renderer/opengl</text>
<text text-anchor="middle" x="86.5" y="-7" font-family="Helvetica,sans-Serif" font-size="10.00">/src/OpenGL/openglmeshloader.cpp</text>
</a>
</g>
</g>
<!-- Node2&#45;&gt;Node3 -->
<g id="edge2" class="edge">
<title>Node2&#45;&gt;Node3</title>
<path fill="none" stroke="#63b8ff" d="M776.82,-75.22C643.02,-68.11 393.96,-53.04 182.5,-30 179.49,-29.67 176.42,-29.32 173.33,-28.95"/>
<polygon fill="#63b8ff" stroke="#63b8ff" points="776.53,-78.71 786.71,-75.75 776.9,-71.72 776.53,-78.71"/>
</g>
<!-- Node4 -->
<g id="node4" class="node">
<title>Node4</title>
<g id="a_node4"><a xlink:href="openglpipelineloader_8cpp.html" target="_top" xlink:title=" ">
<polygon fill="white" stroke="#666666" points="373.5,-30 191.5,-30 191.5,0 373.5,0 373.5,-30"/>
<text text-anchor="start" x="199.5" y="-18" font-family="Helvetica,sans-Serif" font-size="10.00">plugins/renderer/opengl</text>
<text text-anchor="middle" x="282.5" y="-7" font-family="Helvetica,sans-Serif" font-size="10.00">/src/OpenGL/openglpipelineloader.cpp</text>
</a>
</g>
</g>
<!-- Node2&#45;&gt;Node4 -->
<g id="edge3" class="edge">
<title>Node2&#45;&gt;Node4</title>
<path fill="none" stroke="#63b8ff" d="M777.05,-71.26C677.96,-62.02 519.29,-46.53 382.5,-30 379.63,-29.65 376.71,-29.29 373.77,-28.92"/>
<polygon fill="#63b8ff" stroke="#63b8ff" points="776.45,-74.72 786.73,-72.16 777.1,-67.75 776.45,-74.72"/>
</g>
<!-- Node5 -->
<g id="node5" class="node">
<title>Node5</title>
<g id="a_node5"><a xlink:href="openglrendercontext_8cpp.html" target="_top" xlink:title=" ">
<polygon fill="white" stroke="#666666" points="573,-30 392,-30 392,0 573,0 573,-30"/>
<text text-anchor="start" x="400" y="-18" font-family="Helvetica,sans-Serif" font-size="10.00">plugins/renderer/opengl</text>
<text text-anchor="middle" x="482.5" y="-7" font-family="Helvetica,sans-Serif" font-size="10.00">/src/OpenGL/openglrendercontext.cpp</text>
</a>
</g>
</g>
<!-- Node2&#45;&gt;Node5 -->
<g id="edge4" class="edge">
<title>Node2&#45;&gt;Node5</title>
<path fill="none" stroke="#63b8ff" d="M777.04,-64.21C714.03,-53.9 632.38,-40.53 571.03,-30.49"/>
<polygon fill="#63b8ff" stroke="#63b8ff" points="776.25,-67.63 786.68,-65.79 777.38,-60.72 776.25,-67.63"/>
</g>
<!-- Node6 -->
<g id="node6" class="node">
<title>Node6</title>
<g id="a_node6"><a xlink:href="openglrendertarget_8cpp.html" target="_top" xlink:title=" ">
<polygon fill="white" stroke="#666666" points="765.5,-30 591.5,-30 591.5,0 765.5,0 765.5,-30"/>
<text text-anchor="start" x="599.5" y="-18" font-family="Helvetica,sans-Serif" font-size="10.00">plugins/renderer/opengl</text>
<text text-anchor="middle" x="678.5" y="-7" font-family="Helvetica,sans-Serif" font-size="10.00">/src/OpenGL/openglrendertarget.cpp</text>
</a>
</g>
</g>
<!-- Node2&#45;&gt;Node6 -->
<g id="edge5" class="edge">
<title>Node2&#45;&gt;Node6</title>
<path fill="none" stroke="#63b8ff" d="M818.86,-62.07C788.41,-52.07 750.99,-39.79 722.45,-30.43"/>
<polygon fill="#63b8ff" stroke="#63b8ff" points="817.71,-65.37 828.3,-65.17 819.89,-58.72 817.71,-65.37"/>
</g>
<!-- Node7 -->
<g id="node7" class="node">
<title>Node7</title>
<g id="a_node7"><a xlink:href="openglrendertexture_8cpp.html" target="_top" xlink:title=" ">
<polygon fill="white" stroke="#666666" points="963,-30 784,-30 784,0 963,0 963,-30"/>
<text text-anchor="start" x="792" y="-18" font-family="Helvetica,sans-Serif" font-size="10.00">plugins/renderer/opengl</text>
<text text-anchor="middle" x="873.5" y="-7" font-family="Helvetica,sans-Serif" font-size="10.00">/src/OpenGL/openglrendertexture.cpp</text>
</a>
</g>
</g>
<!-- Node2&#45;&gt;Node7 -->
<g id="edge6" class="edge">
<title>Node2&#45;&gt;Node7</title>
<path fill="none" stroke="#63b8ff" d="M873.5,-54.39C873.5,-46.13 873.5,-37.28 873.5,-30.16"/>
<polygon fill="#63b8ff" stroke="#63b8ff" points="870,-54.28 873.5,-64.28 877,-54.28 870,-54.28"/>
</g>
<!-- Node8 -->
<g id="node8" class="node">
<title>Node8</title>
<g id="a_node8"><a xlink:href="openglrenderwindow_8cpp.html" target="_top" xlink:title=" ">
<polygon fill="white" stroke="#666666" points="1163.5,-30 981.5,-30 981.5,0 1163.5,0 1163.5,-30"/>
<text text-anchor="start" x="989.5" y="-18" font-family="Helvetica,sans-Serif" font-size="10.00">plugins/renderer/opengl</text>
<text text-anchor="middle" x="1072.5" y="-7" font-family="Helvetica,sans-Serif" font-size="10.00">/src/OpenGL/openglrenderwindow.cpp</text>
</a>
</g>
</g>
<!-- Node2&#45;&gt;Node8 -->
<g id="edge7" class="edge">
<title>Node2&#45;&gt;Node8</title>
<path fill="none" stroke="#63b8ff" d="M928.85,-62.2C960,-52.18 998.39,-39.83 1027.65,-30.43"/>
<polygon fill="#63b8ff" stroke="#63b8ff" points="928.05,-58.78 919.6,-65.17 930.19,-65.44 928.05,-58.78"/>
</g>
<!-- Node9 -->
<g id="node9" class="node">
<title>Node9</title>
<g id="a_node9"><a xlink:href="openglshaderloader_8cpp.html" target="_top" xlink:title=" ">
<polygon fill="white" stroke="#666666" points="1359.5,-30 1181.5,-30 1181.5,0 1359.5,0 1359.5,-30"/>
<text text-anchor="start" x="1189.5" y="-18" font-family="Helvetica,sans-Serif" font-size="10.00">plugins/renderer/opengl</text>
<text text-anchor="middle" x="1270.5" y="-7" font-family="Helvetica,sans-Serif" font-size="10.00">/src/OpenGL/openglshaderloader.cpp</text>
</a>
</g>
</g>
<!-- Node2&#45;&gt;Node9 -->
<g id="edge8" class="edge">
<title>Node2&#45;&gt;Node9</title>
<path fill="none" stroke="#63b8ff" d="M969.65,-64.5C1034.11,-54.11 1118.39,-40.52 1181.34,-30.37"/>
<polygon fill="#63b8ff" stroke="#63b8ff" points="969.48,-60.98 960.16,-66.03 970.59,-67.89 969.48,-60.98"/>
</g>
<!-- Node10 -->
<g id="node10" class="node">
<title>Node10</title>
<g id="a_node10"><a xlink:href="opengltextureloader_8cpp.html" target="_top" xlink:title=" ">
<polygon fill="white" stroke="#666666" points="1555.5,-30 1377.5,-30 1377.5,0 1555.5,0 1555.5,-30"/>
<text text-anchor="start" x="1385.5" y="-18" font-family="Helvetica,sans-Serif" font-size="10.00">plugins/renderer/opengl</text>
<text text-anchor="middle" x="1466.5" y="-7" font-family="Helvetica,sans-Serif" font-size="10.00">/src/OpenGL/opengltextureloader.cpp</text>
</a>
</g>
</g>
<!-- Node2&#45;&gt;Node10 -->
<g id="edge9" class="edge">
<title>Node2&#45;&gt;Node10</title>
<path fill="none" stroke="#63b8ff" d="M970.07,-65.74C1147.11,-45.04 1194.4,-50.24 1368.5,-30 1371.32,-29.67 1374.18,-29.33 1377.07,-28.97"/>
<polygon fill="#63b8ff" stroke="#63b8ff" points="969.8,-62.25 960.28,-66.9 970.62,-69.2 969.8,-62.25"/>
</g>
<!-- Node11 -->
<g id="node11" class="node">
<title>Node11</title>
<g id="a_node11"><a xlink:href="openglpipelineinstance_8cpp.html" target="_top" xlink:title=" ">
<polygon fill="white" stroke="#666666" points="1781.5,-30 1573.5,-30 1573.5,0 1781.5,0 1781.5,-30"/>
<text text-anchor="start" x="1581.5" y="-18" font-family="Helvetica,sans-Serif" font-size="10.00">plugins/renderer/opengl</text>
<text text-anchor="middle" x="1677.5" y="-7" font-family="Helvetica,sans-Serif" font-size="10.00">/src/OpenGL/util/openglpipelineinstance.cpp</text>
</a>
</g>
</g>
<!-- Node2&#45;&gt;Node11 -->
<g id="edge10" class="edge">
<title>Node2&#45;&gt;Node11</title>
<path fill="none" stroke="#63b8ff" d="M969.85,-65.82C1233.77,-38.82 1303.42,-54.02 1564.5,-30 1567.35,-29.74 1570.25,-29.46 1573.17,-29.17"/>
<polygon fill="#63b8ff" stroke="#63b8ff" points="969.86,-62.3 960.27,-66.81 970.58,-69.26 969.86,-62.3"/>
</g>
</g>
</svg>
