<?xml version="1.0" encoding="UTF-8" standalone="no"?>
<!DOCTYPE svg PUBLIC "-//W3C//DTD SVG 1.1//EN"
 "http://www.w3.org/Graphics/SVG/1.1/DTD/svg11.dtd">
<!-- Generated by graphviz version 7.0.5 (20221223.1930)
 -->
<!-- Title: plugins/renderer/opengl/src/OpenGL/util/openglheapallocator.cpp Pages: 1 -->
<svg width="330pt" height="148pt"
 viewBox="0.00 0.00 329.50 148.00" xmlns="http://www.w3.org/2000/svg" xmlns:xlink="http://www.w3.org/1999/xlink">
<g id="graph0" class="graph" transform="scale(1 1) rotate(0) translate(4 144)">
<title>plugins/renderer/opengl/src/OpenGL/util/openglheapallocator.cpp</title>
<!-- Node1 -->
<g id="node1" class="node">
<title>Node1</title>
<g id="a_node1"><a xlink:title=" ">
<polygon fill="#999999" stroke="#666666" points="241,-140 45,-140 45,-110 241,-110 241,-140"/>
<text text-anchor="start" x="53" y="-128" font-family="Helvetica,sans-Serif" font-size="10.00">plugins/renderer/opengl</text>
<text text-anchor="middle" x="143" y="-117" font-family="Helvetica,sans-Serif" font-size="10.00">/src/OpenGL/util/openglheapallocator.cpp</text>
</a>
</g>
</g>
<!-- Node2 -->
<g id="node2" class="node">
<title>Node2</title>
<g id="a_node2"><a xlink:href="opengllib_8h.html" target="_top" xlink:title=" ">
<polygon fill="white" stroke="#666666" points="70,-74 0,-74 0,-55 70,-55 70,-74"/>
<text text-anchor="middle" x="35" y="-62" font-family="Helvetica,sans-Serif" font-size="10.00">../opengllib.h</text>
</a>
</g>
</g>
<!-- Node1&#45;&gt;Node2 -->
<g id="edge1" class="edge">
<title>Node1&#45;&gt;Node2</title>
<path fill="none" stroke="#63b8ff" d="M116.3,-109.54C99.44,-100.4 77.76,-88.66 61.02,-79.6"/>
<polygon fill="#63b8ff" stroke="#63b8ff" points="63.12,-76.75 52.66,-75.07 59.79,-82.91 63.12,-76.75"/>
</g>
<!-- Node3 -->
<g id="node3" class="node">
<title>Node3</title>
<g id="a_node3"><a xlink:href="openglheapallocator_8h.html" target="_top" xlink:title=" ">
<polygon fill="white" stroke="#666666" points="198,-74 88,-74 88,-55 198,-55 198,-74"/>
<text text-anchor="middle" x="143" y="-62" font-family="Helvetica,sans-Serif" font-size="10.00">openglheapallocator.h</text>
</a>
</g>
</g>
<!-- Node1&#45;&gt;Node3 -->
<g id="edge2" class="edge">
<title>Node1&#45;&gt;Node3</title>
<path fill="none" stroke="#63b8ff" d="M143,-109.54C143,-102.34 143,-93.53 143,-85.68"/>
<polygon fill="#63b8ff" stroke="#63b8ff" points="146.5,-85.69 143,-75.69 139.5,-85.69 146.5,-85.69"/>
</g>
<!-- Node5 -->
<g id="node5" class="node">
<title>Node5</title>
<g id="a_node5"><a xlink:href="src_2_madgine_2render_2ptr_8h.html" target="_top" xlink:title=" ">
<polygon fill="white" stroke="#666666" points="321.5,-74 216.5,-74 216.5,-55 321.5,-55 321.5,-74"/>
<text text-anchor="middle" x="269" y="-62" font-family="Helvetica,sans-Serif" font-size="10.00">Madgine/render/ptr.h</text>
</a>
</g>
</g>
<!-- Node1&#45;&gt;Node5 -->
<g id="edge4" class="edge">
<title>Node1&#45;&gt;Node5</title>
<path fill="none" stroke="#63b8ff" d="M174.15,-109.54C194.19,-100.23 220.08,-88.22 239.74,-79.09"/>
<polygon fill="#63b8ff" stroke="#63b8ff" points="240.98,-82.37 248.57,-74.98 238.03,-76.02 240.98,-82.37"/>
</g>
<!-- Node4 -->
<g id="node4" class="node">
<title>Node4</title>
<g id="a_node4"><a xlink:href="allocator_2concepts_8h.html" target="_top" xlink:title=" ">
<polygon fill="white" stroke="#666666" points="213,-19 73,-19 73,0 213,0 213,-19"/>
<text text-anchor="middle" x="143" y="-7" font-family="Helvetica,sans-Serif" font-size="10.00">Generic/allocator/concepts.h</text>
</a>
</g>
</g>
<!-- Node3&#45;&gt;Node4 -->
<g id="edge3" class="edge">
<title>Node3&#45;&gt;Node4</title>
<path fill="none" stroke="#63b8ff" d="M143,-54.75C143,-48.27 143,-39.16 143,-30.9"/>
<polygon fill="#63b8ff" stroke="#63b8ff" points="146.5,-30.96 143,-20.96 139.5,-30.96 146.5,-30.96"/>
</g>
</g>
</svg>
