<?xml version="1.0" encoding="UTF-8" standalone="no"?>
<!DOCTYPE svg PUBLIC "-//W3C//DTD SVG 1.1//EN"
 "http://www.w3.org/Graphics/SVG/1.1/DTD/svg11.dtd">
<!-- Generated by graphviz version 7.0.5 (20221223.1930)
 -->
<!-- Title: plugins/renderer/opengl/src/OpenGL/openglshaderloader.h Pages: 1 -->
<svg width="516pt" height="302pt"
 viewBox="0.00 0.00 515.95 302.00" xmlns="http://www.w3.org/2000/svg" xmlns:xlink="http://www.w3.org/1999/xlink">
<g id="graph0" class="graph" transform="scale(1 1) rotate(0) translate(4 298)">
<title>plugins/renderer/opengl/src/OpenGL/openglshaderloader.h</title>
<!-- Node1 -->
<g id="node1" class="node">
<title>Node1</title>
<g id="a_node1"><a xlink:title=" ">
<polygon fill="#999999" stroke="#666666" points="215.95,-294 48.95,-294 48.95,-264 215.95,-264 215.95,-294"/>
<text text-anchor="start" x="56.95" y="-282" font-family="Helvetica,sans-Serif" font-size="10.00">plugins/renderer/opengl</text>
<text text-anchor="middle" x="132.45" y="-271" font-family="Helvetica,sans-Serif" font-size="10.00">/src/OpenGL/openglshaderloader.h</text>
</a>
</g>
</g>
<!-- Node2 -->
<g id="node2" class="node">
<title>Node2</title>
<g id="a_node2"><a xlink:href="openglpipelineloader_8cpp.html" target="_top" xlink:title=" ">
<polygon fill="white" stroke="#666666" points="281.45,-30 99.45,-30 99.45,0 281.45,0 281.45,-30"/>
<text text-anchor="start" x="107.45" y="-18" font-family="Helvetica,sans-Serif" font-size="10.00">plugins/renderer/opengl</text>
<text text-anchor="middle" x="190.45" y="-7" font-family="Helvetica,sans-Serif" font-size="10.00">/src/OpenGL/openglpipelineloader.cpp</text>
</a>
</g>
</g>
<!-- Node1&#45;&gt;Node2 -->
<g id="edge1" class="edge">
<title>Node1&#45;&gt;Node2</title>
<path fill="none" stroke="#63b8ff" d="M104.25,-256.47C55.68,-216.77 -34.09,-130.25 14.45,-66 25.94,-50.79 65.33,-38.86 103.94,-30.47"/>
<polygon fill="#63b8ff" stroke="#63b8ff" points="101.91,-259.07 111.9,-262.59 106.28,-253.61 101.91,-259.07"/>
</g>
<!-- Node3 -->
<g id="node3" class="node">
<title>Node3</title>
<g id="a_node3"><a xlink:href="openglrendercontext_8cpp.html" target="_top" xlink:title=" ">
<polygon fill="white" stroke="#666666" points="204.95,-96 23.95,-96 23.95,-66 204.95,-66 204.95,-96"/>
<text text-anchor="start" x="31.95" y="-84" font-family="Helvetica,sans-Serif" font-size="10.00">plugins/renderer/opengl</text>
<text text-anchor="middle" x="114.45" y="-73" font-family="Helvetica,sans-Serif" font-size="10.00">/src/OpenGL/openglrendercontext.cpp</text>
</a>
</g>
</g>
<!-- Node1&#45;&gt;Node3 -->
<g id="edge2" class="edge">
<title>Node1&#45;&gt;Node3</title>
<path fill="none" stroke="#63b8ff" d="M109.59,-255.25C103.08,-247.3 96.85,-237.88 93.45,-228 77.46,-181.5 97.27,-122.63 108.17,-96.09"/>
<polygon fill="#63b8ff" stroke="#63b8ff" points="106.94,-257.54 116.19,-262.71 112.18,-252.9 106.94,-257.54"/>
</g>
<!-- Node4 -->
<g id="node4" class="node">
<title>Node4</title>
<g id="a_node4"><a xlink:href="openglshaderloader_8cpp.html" target="_top" xlink:title=" ">
<polygon fill="white" stroke="#666666" points="280.45,-228 102.45,-228 102.45,-198 280.45,-198 280.45,-228"/>
<text text-anchor="start" x="110.45" y="-216" font-family="Helvetica,sans-Serif" font-size="10.00">plugins/renderer/opengl</text>
<text text-anchor="middle" x="191.45" y="-205" font-family="Helvetica,sans-Serif" font-size="10.00">/src/OpenGL/openglshaderloader.cpp</text>
</a>
</g>
</g>
<!-- Node1&#45;&gt;Node4 -->
<g id="edge3" class="edge">
<title>Node1&#45;&gt;Node4</title>
<path fill="none" stroke="#63b8ff" d="M153.17,-255.53C161.56,-246.43 170.99,-236.19 178.4,-228.16"/>
<polygon fill="#63b8ff" stroke="#63b8ff" points="150.78,-252.96 146.57,-262.68 155.92,-257.7 150.78,-252.96"/>
</g>
<!-- Node5 -->
<g id="node5" class="node">
<title>Node5</title>
<g id="a_node5"><a xlink:href="openglpipeline_8h.html" target="_top" xlink:title=" ">
<polygon fill="white" stroke="#666666" points="459.95,-228 298.95,-228 298.95,-198 459.95,-198 459.95,-228"/>
<text text-anchor="start" x="306.95" y="-216" font-family="Helvetica,sans-Serif" font-size="10.00">plugins/renderer/opengl</text>
<text text-anchor="middle" x="379.45" y="-205" font-family="Helvetica,sans-Serif" font-size="10.00">/src/OpenGL/util/openglpipeline.h</text>
</a>
</g>
</g>
<!-- Node1&#45;&gt;Node5 -->
<g id="edge4" class="edge">
<title>Node1&#45;&gt;Node5</title>
<path fill="none" stroke="#63b8ff" d="M199.19,-260.71C238.24,-250.59 286.97,-237.96 323.92,-228.39"/>
<polygon fill="#63b8ff" stroke="#63b8ff" points="198.46,-257.28 189.66,-263.18 200.22,-264.06 198.46,-257.28"/>
</g>
<!-- Node6 -->
<g id="node6" class="node">
<title>Node6</title>
<g id="a_node6"><a xlink:href="openglpipelineloader_8h.html" target="_top" xlink:title=" ">
<polygon fill="white" stroke="#666666" points="318.95,-162 147.95,-162 147.95,-132 318.95,-132 318.95,-162"/>
<text text-anchor="start" x="155.95" y="-150" font-family="Helvetica,sans-Serif" font-size="10.00">plugins/renderer/opengl</text>
<text text-anchor="middle" x="233.45" y="-139" font-family="Helvetica,sans-Serif" font-size="10.00">/src/OpenGL/openglpipelineloader.h</text>
</a>
</g>
</g>
<!-- Node5&#45;&gt;Node6 -->
<g id="edge5" class="edge">
<title>Node5&#45;&gt;Node6</title>
<path fill="none" stroke="#63b8ff" d="M336.43,-193.14C314.03,-183.32 287.07,-171.51 266.36,-162.43"/>
<polygon fill="#63b8ff" stroke="#63b8ff" points="334.74,-196.22 345.3,-197.03 337.55,-189.81 334.74,-196.22"/>
</g>
<!-- Node9 -->
<g id="node9" class="node">
<title>Node9</title>
<g id="a_node9"><a xlink:href="openglpipeline_8cpp.html" target="_top" xlink:title=" ">
<polygon fill="white" stroke="#666666" points="507.95,-162 336.95,-162 336.95,-132 507.95,-132 507.95,-162"/>
<text text-anchor="start" x="344.95" y="-150" font-family="Helvetica,sans-Serif" font-size="10.00">plugins/renderer/opengl</text>
<text text-anchor="middle" x="422.45" y="-139" font-family="Helvetica,sans-Serif" font-size="10.00">/src/OpenGL/util/openglpipeline.cpp</text>
</a>
</g>
</g>
<!-- Node5&#45;&gt;Node9 -->
<g id="edge11" class="edge">
<title>Node5&#45;&gt;Node9</title>
<path fill="none" stroke="#63b8ff" d="M395.31,-188.39C401.23,-179.59 407.76,-169.86 412.94,-162.16"/>
<polygon fill="#63b8ff" stroke="#63b8ff" points="392.51,-186.29 389.84,-196.54 398.32,-190.19 392.51,-186.29"/>
</g>
<!-- Node6&#45;&gt;Node2 -->
<g id="edge6" class="edge">
<title>Node6&#45;&gt;Node2</title>
<path fill="none" stroke="#63b8ff" d="M228.85,-120.48C225.62,-104.57 220.76,-83.8 214.45,-66 210.02,-53.47 203.39,-39.92 198.22,-30.09"/>
<polygon fill="#63b8ff" stroke="#63b8ff" points="225.37,-120.93 230.7,-130.09 232.24,-119.6 225.37,-120.93"/>
</g>
<!-- Node6&#45;&gt;Node3 -->
<g id="edge7" class="edge">
<title>Node6&#45;&gt;Node3</title>
<path fill="none" stroke="#63b8ff" d="M196.86,-126.32C178.84,-116.63 157.51,-105.16 141.07,-96.31"/>
<polygon fill="#63b8ff" stroke="#63b8ff" points="194.95,-129.27 205.41,-130.92 198.26,-123.1 194.95,-129.27"/>
</g>
<!-- Node7 -->
<g id="node7" class="node">
<title>Node7</title>
<g id="a_node7"><a xlink:href="openglpipelineinstance_8h.html" target="_top" xlink:title=" ">
<polygon fill="white" stroke="#666666" points="458.95,-96 261.95,-96 261.95,-66 458.95,-66 458.95,-96"/>
<text text-anchor="start" x="269.95" y="-84" font-family="Helvetica,sans-Serif" font-size="10.00">plugins/renderer/opengl</text>
<text text-anchor="middle" x="360.45" y="-73" font-family="Helvetica,sans-Serif" font-size="10.00">/src/OpenGL/util/openglpipelineinstance.h</text>
</a>
</g>
</g>
<!-- Node6&#45;&gt;Node7 -->
<g id="edge8" class="edge">
<title>Node6&#45;&gt;Node7</title>
<path fill="none" stroke="#63b8ff" d="M271.97,-126.59C291.32,-116.84 314.34,-105.24 332.05,-96.31"/>
<polygon fill="#63b8ff" stroke="#63b8ff" points="270.66,-123.33 263.31,-130.96 273.81,-129.58 270.66,-123.33"/>
</g>
<!-- Node7&#45;&gt;Node2 -->
<g id="edge9" class="edge">
<title>Node7&#45;&gt;Node2</title>
<path fill="none" stroke="#63b8ff" d="M311.77,-61.67C285.42,-51.75 253.33,-39.67 228.77,-30.43"/>
<polygon fill="#63b8ff" stroke="#63b8ff" points="310.29,-64.86 320.89,-65.1 312.76,-58.3 310.29,-64.86"/>
</g>
<!-- Node8 -->
<g id="node8" class="node">
<title>Node8</title>
<g id="a_node8"><a xlink:href="openglpipelineinstance_8cpp.html" target="_top" xlink:title=" ">
<polygon fill="white" stroke="#666666" points="507.45,-30 299.45,-30 299.45,0 507.45,0 507.45,-30"/>
<text text-anchor="start" x="307.45" y="-18" font-family="Helvetica,sans-Serif" font-size="10.00">plugins/renderer/opengl</text>
<text text-anchor="middle" x="403.45" y="-7" font-family="Helvetica,sans-Serif" font-size="10.00">/src/OpenGL/util/openglpipelineinstance.cpp</text>
</a>
</g>
</g>
<!-- Node7&#45;&gt;Node8 -->
<g id="edge10" class="edge">
<title>Node7&#45;&gt;Node8</title>
<path fill="none" stroke="#63b8ff" d="M376.31,-56.39C382.23,-47.59 388.76,-37.86 393.94,-30.16"/>
<polygon fill="#63b8ff" stroke="#63b8ff" points="373.51,-54.29 370.84,-64.54 379.32,-58.19 373.51,-54.29"/>
</g>
</g>
</svg>
