<?xml version="1.0" encoding="UTF-8" standalone="no"?>
<!DOCTYPE svg PUBLIC "-//W3C//DTD SVG 1.1//EN"
 "http://www.w3.org/Graphics/SVG/1.1/DTD/svg11.dtd">
<!-- Generated by graphviz version 7.0.5 (20221223.1930)
 -->
<!-- Title: plugins/renderer/opengl/src/OpenGL/util/openglbuffer.h Pages: 1 -->
<svg width="711pt" height="236pt"
 viewBox="0.00 0.00 710.50 236.00" xmlns="http://www.w3.org/2000/svg" xmlns:xlink="http://www.w3.org/1999/xlink">
<g id="graph0" class="graph" transform="scale(1 1) rotate(0) translate(4 232)">
<title>plugins/renderer/opengl/src/OpenGL/util/openglbuffer.h</title>
<!-- Node1 -->
<g id="node1" class="node">
<title>Node1</title>
<g id="a_node1"><a xlink:title=" ">
<polygon fill="#999999" stroke="#666666" points="448.5,-228 296.5,-228 296.5,-198 448.5,-198 448.5,-228"/>
<text text-anchor="start" x="304.5" y="-216" font-family="Helvetica,sans-Serif" font-size="10.00">plugins/renderer/opengl</text>
<text text-anchor="middle" x="372.5" y="-205" font-family="Helvetica,sans-Serif" font-size="10.00">/src/OpenGL/util/openglbuffer.h</text>
</a>
</g>
</g>
<!-- Node2 -->
<g id="node2" class="node">
<title>Node2</title>
<g id="a_node2"><a xlink:href="openglmeshdata_8h.html" target="_top" xlink:title=" ">
<polygon fill="white" stroke="#666666" points="273,-162 118,-162 118,-132 273,-132 273,-162"/>
<text text-anchor="start" x="126" y="-150" font-family="Helvetica,sans-Serif" font-size="10.00">plugins/renderer/opengl</text>
<text text-anchor="middle" x="195.5" y="-139" font-family="Helvetica,sans-Serif" font-size="10.00">/src/OpenGL/openglmeshdata.h</text>
</a>
</g>
</g>
<!-- Node1&#45;&gt;Node2 -->
<g id="edge1" class="edge">
<title>Node1&#45;&gt;Node2</title>
<path fill="none" stroke="#63b8ff" d="M322.18,-193.8C294.67,-183.86 261.08,-171.71 235.4,-162.43"/>
<polygon fill="#63b8ff" stroke="#63b8ff" points="320.76,-197.01 331.35,-197.12 323.14,-190.43 320.76,-197.01"/>
</g>
<!-- Node7 -->
<g id="node7" class="node">
<title>Node7</title>
<g id="a_node7"><a xlink:href="openglbuffer_8cpp.html" target="_top" xlink:title=" ">
<polygon fill="white" stroke="#666666" points="453.5,-162 291.5,-162 291.5,-132 453.5,-132 453.5,-162"/>
<text text-anchor="start" x="299.5" y="-150" font-family="Helvetica,sans-Serif" font-size="10.00">plugins/renderer/opengl</text>
<text text-anchor="middle" x="372.5" y="-139" font-family="Helvetica,sans-Serif" font-size="10.00">/src/OpenGL/util/openglbuffer.cpp</text>
</a>
</g>
</g>
<!-- Node1&#45;&gt;Node7 -->
<g id="edge7" class="edge">
<title>Node1&#45;&gt;Node7</title>
<path fill="none" stroke="#63b8ff" d="M372.5,-186.39C372.5,-178.13 372.5,-169.28 372.5,-162.16"/>
<polygon fill="#63b8ff" stroke="#63b8ff" points="369,-186.28 372.5,-196.28 376,-186.28 369,-186.28"/>
</g>
<!-- Node8 -->
<g id="node8" class="node">
<title>Node8</title>
<g id="a_node8"><a xlink:href="openglpipelineinstance_8h.html" target="_top" xlink:title=" ">
<polygon fill="white" stroke="#666666" points="669,-162 472,-162 472,-132 669,-132 669,-162"/>
<text text-anchor="start" x="480" y="-150" font-family="Helvetica,sans-Serif" font-size="10.00">plugins/renderer/opengl</text>
<text text-anchor="middle" x="570.5" y="-139" font-family="Helvetica,sans-Serif" font-size="10.00">/src/OpenGL/util/openglpipelineinstance.h</text>
</a>
</g>
</g>
<!-- Node1&#45;&gt;Node8 -->
<g id="edge8" class="edge">
<title>Node1&#45;&gt;Node8</title>
<path fill="none" stroke="#63b8ff" d="M427.57,-194.2C458.56,-184.18 496.76,-171.83 525.87,-162.43"/>
<polygon fill="#63b8ff" stroke="#63b8ff" points="426.81,-190.77 418.38,-197.17 428.97,-197.43 426.81,-190.77"/>
</g>
<!-- Node3 -->
<g id="node3" class="node">
<title>Node3</title>
<g id="a_node3"><a xlink:href="openglmeshloader_8cpp.html" target="_top" xlink:title=" ">
<polygon fill="white" stroke="#666666" points="173,-30 0,-30 0,0 173,0 173,-30"/>
<text text-anchor="start" x="8" y="-18" font-family="Helvetica,sans-Serif" font-size="10.00">plugins/renderer/opengl</text>
<text text-anchor="middle" x="86.5" y="-7" font-family="Helvetica,sans-Serif" font-size="10.00">/src/OpenGL/openglmeshloader.cpp</text>
</a>
</g>
</g>
<!-- Node2&#45;&gt;Node3 -->
<g id="edge2" class="edge">
<title>Node2&#45;&gt;Node3</title>
<path fill="none" stroke="#63b8ff" d="M143.74,-126.6C129.51,-119.01 115.32,-108.95 105.5,-96 90.84,-76.66 87.27,-47.73 86.53,-30.47"/>
<polygon fill="#63b8ff" stroke="#63b8ff" points="142.17,-129.73 152.69,-131.02 145.27,-123.45 142.17,-129.73"/>
</g>
<!-- Node4 -->
<g id="node4" class="node">
<title>Node4</title>
<g id="a_node4"><a xlink:href="openglmeshloader_8h.html" target="_top" xlink:title=" ">
<polygon fill="white" stroke="#666666" points="276.5,-96 114.5,-96 114.5,-66 276.5,-66 276.5,-96"/>
<text text-anchor="start" x="122.5" y="-84" font-family="Helvetica,sans-Serif" font-size="10.00">plugins/renderer/opengl</text>
<text text-anchor="middle" x="195.5" y="-73" font-family="Helvetica,sans-Serif" font-size="10.00">/src/OpenGL/openglmeshloader.h</text>
</a>
</g>
</g>
<!-- Node2&#45;&gt;Node4 -->
<g id="edge3" class="edge">
<title>Node2&#45;&gt;Node4</title>
<path fill="none" stroke="#63b8ff" d="M195.5,-120.39C195.5,-112.13 195.5,-103.28 195.5,-96.16"/>
<polygon fill="#63b8ff" stroke="#63b8ff" points="192,-120.28 195.5,-130.28 199,-120.28 192,-120.28"/>
</g>
<!-- Node6 -->
<g id="node6" class="node">
<title>Node6</title>
<g id="a_node6"><a xlink:href="openglpipelineinstance_8cpp.html" target="_top" xlink:title=" ">
<polygon fill="white" stroke="#666666" points="502.5,-96 294.5,-96 294.5,-66 502.5,-66 502.5,-96"/>
<text text-anchor="start" x="302.5" y="-84" font-family="Helvetica,sans-Serif" font-size="10.00">plugins/renderer/opengl</text>
<text text-anchor="middle" x="398.5" y="-73" font-family="Helvetica,sans-Serif" font-size="10.00">/src/OpenGL/util/openglpipelineinstance.cpp</text>
</a>
</g>
</g>
<!-- Node2&#45;&gt;Node6 -->
<g id="edge6" class="edge">
<title>Node2&#45;&gt;Node6</title>
<path fill="none" stroke="#63b8ff" d="M252.22,-128.12C283.99,-118.1 323.08,-105.78 352.86,-96.39"/>
<polygon fill="#63b8ff" stroke="#63b8ff" points="251.24,-124.76 242.75,-131.1 253.34,-131.43 251.24,-124.76"/>
</g>
<!-- Node4&#45;&gt;Node3 -->
<g id="edge4" class="edge">
<title>Node4&#45;&gt;Node3</title>
<path fill="none" stroke="#63b8ff" d="M161.29,-59.91C144.93,-50.31 125.73,-39.03 110.88,-30.31"/>
<polygon fill="#63b8ff" stroke="#63b8ff" points="159.34,-62.83 169.73,-64.87 162.88,-56.79 159.34,-62.83"/>
</g>
<!-- Node5 -->
<g id="node5" class="node">
<title>Node5</title>
<g id="a_node5"><a xlink:href="openglrendercontext_8cpp.html" target="_top" xlink:title=" ">
<polygon fill="white" stroke="#666666" points="372,-30 191,-30 191,0 372,0 372,-30"/>
<text text-anchor="start" x="199" y="-18" font-family="Helvetica,sans-Serif" font-size="10.00">plugins/renderer/opengl</text>
<text text-anchor="middle" x="281.5" y="-7" font-family="Helvetica,sans-Serif" font-size="10.00">/src/OpenGL/openglrendercontext.cpp</text>
</a>
</g>
</g>
<!-- Node4&#45;&gt;Node5 -->
<g id="edge5" class="edge">
<title>Node4&#45;&gt;Node5</title>
<path fill="none" stroke="#63b8ff" d="M223.75,-58.97C236.34,-49.61 250.85,-38.81 262.17,-30.39"/>
<polygon fill="#63b8ff" stroke="#63b8ff" points="221.73,-56.11 215.8,-64.89 225.91,-61.73 221.73,-56.11"/>
</g>
<!-- Node8&#45;&gt;Node6 -->
<g id="edge10" class="edge">
<title>Node8&#45;&gt;Node6</title>
<path fill="none" stroke="#63b8ff" d="M521.24,-127.67C494.58,-117.75 462.11,-105.67 437.27,-96.43"/>
<polygon fill="#63b8ff" stroke="#63b8ff" points="519.89,-130.9 530.48,-131.11 522.33,-124.34 519.89,-130.9"/>
</g>
<!-- Node9 -->
<g id="node9" class="node">
<title>Node9</title>
<g id="a_node9"><a xlink:href="openglpipelineloader_8cpp.html" target="_top" xlink:title=" ">
<polygon fill="white" stroke="#666666" points="702.5,-96 520.5,-96 520.5,-66 702.5,-66 702.5,-96"/>
<text text-anchor="start" x="528.5" y="-84" font-family="Helvetica,sans-Serif" font-size="10.00">plugins/renderer/opengl</text>
<text text-anchor="middle" x="611.5" y="-73" font-family="Helvetica,sans-Serif" font-size="10.00">/src/OpenGL/openglpipelineloader.cpp</text>
</a>
</g>
</g>
<!-- Node8&#45;&gt;Node9 -->
<g id="edge9" class="edge">
<title>Node8&#45;&gt;Node9</title>
<path fill="none" stroke="#63b8ff" d="M585.8,-122.11C591.4,-113.38 597.55,-103.78 602.43,-96.16"/>
<polygon fill="#63b8ff" stroke="#63b8ff" points="582.86,-120.21 580.42,-130.52 588.76,-123.99 582.86,-120.21"/>
</g>
</g>
</svg>
