<?xml version="1.0" encoding="UTF-8" standalone="no"?>
<!DOCTYPE svg PUBLIC "-//W3C//DTD SVG 1.1//EN"
 "http://www.w3.org/Graphics/SVG/1.1/DTD/svg11.dtd">
<!-- Generated by graphviz version 7.0.5 (20221223.1930)
 -->
<!-- Title: src/Madgine/cli/parameterbase.cpp Pages: 1 -->
<svg width="371pt" height="148pt"
 viewBox="0.00 0.00 371.00 148.00" xmlns="http://www.w3.org/2000/svg" xmlns:xlink="http://www.w3.org/1999/xlink">
<g id="graph0" class="graph" transform="scale(1 1) rotate(0) translate(4 144)">
<title>src/Madgine/cli/parameterbase.cpp</title>
<!-- Node1 -->
<g id="node1" class="node">
<title>Node1</title>
<g id="a_node1"><a xlink:title=" ">
<polygon fill="#999999" stroke="#666666" points="313.5,-140 145.5,-140 145.5,-121 313.5,-121 313.5,-140"/>
<text text-anchor="middle" x="229.5" y="-128" font-family="Helvetica,sans-Serif" font-size="10.00">src/Madgine/cli/parameterbase.cpp</text>
</a>
</g>
</g>
<!-- Node2 -->
<g id="node2" class="node">
<title>Node2</title>
<g id="a_node2"><a xlink:href="clilib_8h.html" target="_top" xlink:title=" ">
<polygon fill="white" stroke="#666666" points="166.5,-85 122.5,-85 122.5,-66 166.5,-66 166.5,-85"/>
<text text-anchor="middle" x="144.5" y="-73" font-family="Helvetica,sans-Serif" font-size="10.00">clilib.h</text>
</a>
</g>
</g>
<!-- Node1&#45;&gt;Node2 -->
<g id="edge1" class="edge">
<title>Node1&#45;&gt;Node2</title>
<path fill="none" stroke="#63b8ff" d="M215.08,-120.51C202.3,-112.54 183.4,-100.75 168.37,-91.38"/>
<polygon fill="#63b8ff" stroke="#63b8ff" points="170.33,-88.48 159.99,-86.16 166.62,-94.42 170.33,-88.48"/>
</g>
<!-- Node5 -->
<g id="node5" class="node">
<title>Node5</title>
<g id="a_node5"><a xlink:href="parameterbase_8h.html" target="_top" xlink:title=" ">
<polygon fill="white" stroke="#666666" points="274,-85 185,-85 185,-66 274,-66 274,-85"/>
<text text-anchor="middle" x="229.5" y="-73" font-family="Helvetica,sans-Serif" font-size="10.00">parameterbase.h</text>
</a>
</g>
</g>
<!-- Node1&#45;&gt;Node5 -->
<g id="edge4" class="edge">
<title>Node1&#45;&gt;Node5</title>
<path fill="none" stroke="#63b8ff" d="M229.5,-120.75C229.5,-114.27 229.5,-105.16 229.5,-96.9"/>
<polygon fill="#63b8ff" stroke="#63b8ff" points="233,-96.96 229.5,-86.96 226,-96.96 233,-96.96"/>
</g>
<!-- Node6 -->
<g id="node6" class="node">
<title>Node6</title>
<g id="a_node6"><a xlink:href="cli_8h.html" target="_top" xlink:title=" ">
<polygon fill="white" stroke="#666666" points="326.5,-85 292.5,-85 292.5,-66 326.5,-66 326.5,-85"/>
<text text-anchor="middle" x="309.5" y="-73" font-family="Helvetica,sans-Serif" font-size="10.00">cli.h</text>
</a>
</g>
</g>
<!-- Node1&#45;&gt;Node6 -->
<g id="edge5" class="edge">
<title>Node1&#45;&gt;Node6</title>
<path fill="none" stroke="#63b8ff" d="M243.07,-120.51C254.98,-112.62 272.55,-100.98 286.63,-91.65"/>
<polygon fill="#63b8ff" stroke="#63b8ff" points="288.46,-94.63 294.87,-86.19 284.6,-88.8 288.46,-94.63"/>
</g>
<!-- Node3 -->
<g id="node3" class="node">
<title>Node3</title>
<g id="a_node3"><a xlink:href="interfaceslib_8h.html" target="_top" xlink:title=" ">
<polygon fill="white" stroke="#666666" points="123,-24.5 0,-24.5 0,-5.5 123,-5.5 123,-24.5"/>
<text text-anchor="middle" x="61.5" y="-12.5" font-family="Helvetica,sans-Serif" font-size="10.00">Interfaces/interfaceslib.h</text>
</a>
</g>
</g>
<!-- Node2&#45;&gt;Node3 -->
<g id="edge2" class="edge">
<title>Node2&#45;&gt;Node3</title>
<path fill="none" stroke="#63b8ff" d="M131.89,-65.62C119.1,-56.6 99.02,-42.45 83.58,-31.56"/>
<polygon fill="#63b8ff" stroke="#63b8ff" points="85.65,-28.74 75.46,-25.84 81.62,-34.46 85.65,-28.74"/>
</g>
<!-- Node4 -->
<g id="node4" class="node">
<title>Node4</title>
<g id="a_node4"><a xlink:href="cliforward_8h.html" target="_top" xlink:title=" ">
<polygon fill="white" stroke="#666666" points="207.5,-24.5 141.5,-24.5 141.5,-5.5 207.5,-5.5 207.5,-24.5"/>
<text text-anchor="middle" x="174.5" y="-12.5" font-family="Helvetica,sans-Serif" font-size="10.00">cliforward.h</text>
</a>
</g>
</g>
<!-- Node2&#45;&gt;Node4 -->
<g id="edge3" class="edge">
<title>Node2&#45;&gt;Node4</title>
<path fill="none" stroke="#63b8ff" d="M148.93,-65.87C153.09,-57.75 159.47,-45.31 164.82,-34.89"/>
<polygon fill="#63b8ff" stroke="#63b8ff" points="167.92,-36.51 169.36,-26.01 161.69,-33.32 167.92,-36.51"/>
</g>
<!-- Node7 -->
<g id="node7" class="node">
<title>Node7</title>
<g id="a_node7"><a xlink:href="path_8h.html" target="_top" xlink:title=" ">
<polygon fill="white" stroke="#666666" points="363,-30 256,-30 256,0 363,0 363,-30"/>
<text text-anchor="start" x="264" y="-18" font-family="Helvetica,sans-Serif" font-size="10.00">Interfaces/filesystem</text>
<text text-anchor="middle" x="309.5" y="-7" font-family="Helvetica,sans-Serif" font-size="10.00">/path.h</text>
</a>
</g>
</g>
<!-- Node6&#45;&gt;Node7 -->
<g id="edge6" class="edge">
<title>Node6&#45;&gt;Node7</title>
<path fill="none" stroke="#63b8ff" d="M309.5,-65.87C309.5,-59.4 309.5,-50.2 309.5,-41.45"/>
<polygon fill="#63b8ff" stroke="#63b8ff" points="313,-41.63 309.5,-31.63 306,-41.63 313,-41.63"/>
</g>
</g>
</svg>
