<?xml version="1.0" encoding="UTF-8" standalone="no"?>
<!DOCTYPE svg PUBLIC "-//W3C//DTD SVG 1.1//EN"
 "http://www.w3.org/Graphics/SVG/1.1/DTD/svg11.dtd">
<!-- Generated by graphviz version 7.0.5 (20221223.1930)
 -->
<!-- Title: src/Interfaces/filesystem/path.cpp Pages: 1 -->
<svg width="317pt" height="203pt"
 viewBox="0.00 0.00 316.50 203.00" xmlns="http://www.w3.org/2000/svg" xmlns:xlink="http://www.w3.org/1999/xlink">
<g id="graph0" class="graph" transform="scale(1 1) rotate(0) translate(4 199)">
<title>src/Interfaces/filesystem/path.cpp</title>
<!-- Node1 -->
<g id="node1" class="node">
<title>Node1</title>
<g id="a_node1"><a xlink:title=" ">
<polygon fill="#999999" stroke="#666666" points="173.5,-195 50.5,-195 50.5,-165 173.5,-165 173.5,-195"/>
<text text-anchor="start" x="58.5" y="-183" font-family="Helvetica,sans-Serif" font-size="10.00">src/Interfaces/filesystem</text>
<text text-anchor="middle" x="112" y="-172" font-family="Helvetica,sans-Serif" font-size="10.00">/path.cpp</text>
</a>
</g>
</g>
<!-- Node2 -->
<g id="node2" class="node">
<title>Node2</title>
<g id="a_node2"><a xlink:href="interfaceslib_8h.html" target="_top" xlink:title=" ">
<polygon fill="white" stroke="#666666" points="84,-129 0,-129 0,-110 84,-110 84,-129"/>
<text text-anchor="middle" x="42" y="-117" font-family="Helvetica,sans-Serif" font-size="10.00">../interfaceslib.h</text>
</a>
</g>
</g>
<!-- Node1&#45;&gt;Node2 -->
<g id="edge1" class="edge">
<title>Node1&#45;&gt;Node2</title>
<path fill="none" stroke="#63b8ff" d="M94.7,-164.54C84.53,-156.04 71.66,-145.29 61.18,-136.53"/>
<polygon fill="#63b8ff" stroke="#63b8ff" points="63.46,-133.87 53.54,-130.15 58.97,-139.24 63.46,-133.87"/>
</g>
<!-- Node3 -->
<g id="node3" class="node">
<title>Node3</title>
<g id="a_node3"><a xlink:href="path_8h.html" target="_top" xlink:title=" ">
<polygon fill="white" stroke="#666666" points="216.5,-19 173.5,-19 173.5,0 216.5,0 216.5,-19"/>
<text text-anchor="middle" x="195" y="-7" font-family="Helvetica,sans-Serif" font-size="10.00">path.h</text>
</a>
</g>
</g>
<!-- Node1&#45;&gt;Node3 -->
<g id="edge2" class="edge">
<title>Node1&#45;&gt;Node3</title>
<path fill="none" stroke="#63b8ff" d="M110.89,-164.76C109.68,-140.35 110.3,-89.78 132,-55 139.92,-42.31 152.93,-32.22 165.07,-24.88"/>
<polygon fill="#63b8ff" stroke="#63b8ff" points="166.6,-28.03 173.62,-20.1 163.18,-21.92 166.6,-28.03"/>
</g>
<!-- Node4 -->
<g id="node4" class="node">
<title>Node4</title>
<g id="a_node4"><a xlink:href="fsapi_8h.html" target="_top" xlink:title=" ">
<polygon fill="white" stroke="#666666" points="208.5,-129 163.5,-129 163.5,-110 208.5,-110 208.5,-129"/>
<text text-anchor="middle" x="186" y="-117" font-family="Helvetica,sans-Serif" font-size="10.00">fsapi.h</text>
</a>
</g>
</g>
<!-- Node1&#45;&gt;Node4 -->
<g id="edge3" class="edge">
<title>Node1&#45;&gt;Node4</title>
<path fill="none" stroke="#63b8ff" d="M130.29,-164.54C141.15,-155.96 154.92,-145.07 166.06,-136.26"/>
<polygon fill="#63b8ff" stroke="#63b8ff" points="168.16,-139.06 173.84,-130.11 163.82,-133.57 168.16,-139.06"/>
</g>
<!-- Node5 -->
<g id="node5" class="node">
<title>Node5</title>
<g id="a_node5"><a xlink:href="stream_8h.html" target="_top" xlink:title=" ">
<polygon fill="white" stroke="#666666" points="231.5,-74 140.5,-74 140.5,-55 231.5,-55 231.5,-74"/>
<text text-anchor="middle" x="186" y="-62" font-family="Helvetica,sans-Serif" font-size="10.00">Generic/stream.h</text>
</a>
</g>
</g>
<!-- Node4&#45;&gt;Node5 -->
<g id="edge4" class="edge">
<title>Node4&#45;&gt;Node5</title>
<path fill="none" stroke="#63b8ff" d="M186,-109.75C186,-103.27 186,-94.16 186,-85.9"/>
<polygon fill="#63b8ff" stroke="#63b8ff" points="189.5,-85.96 186,-75.96 182.5,-85.96 189.5,-85.96"/>
</g>
<!-- Node6 -->
<g id="node6" class="node">
<title>Node6</title>
<g id="a_node6"><a xlink:href="filequery_8h.html" target="_top" xlink:title=" ">
<polygon fill="white" stroke="#666666" points="308.5,-74 249.5,-74 249.5,-55 308.5,-55 308.5,-74"/>
<text text-anchor="middle" x="279" y="-62" font-family="Helvetica,sans-Serif" font-size="10.00">filequery.h</text>
</a>
</g>
</g>
<!-- Node4&#45;&gt;Node6 -->
<g id="edge5" class="edge">
<title>Node4&#45;&gt;Node6</title>
<path fill="none" stroke="#63b8ff" d="M201.78,-109.51C216.02,-101.39 237.24,-89.3 253.83,-79.85"/>
<polygon fill="#63b8ff" stroke="#63b8ff" points="255.19,-83.1 262.14,-75.11 251.72,-77.02 255.19,-83.1"/>
</g>
<!-- Node6&#45;&gt;Node3 -->
<g id="edge6" class="edge">
<title>Node6&#45;&gt;Node3</title>
<path fill="none" stroke="#63b8ff" d="M264.75,-54.51C252.12,-46.54 233.44,-34.75 218.59,-25.38"/>
<polygon fill="#63b8ff" stroke="#63b8ff" points="220.64,-22.54 210.32,-20.17 216.91,-28.46 220.64,-22.54"/>
</g>
</g>
</svg>
