<?xml version="1.0" encoding="UTF-8" standalone="no"?>
<!DOCTYPE svg PUBLIC "-//W3C//DTD SVG 1.1//EN"
 "http://www.w3.org/Graphics/SVG/1.1/DTD/svg11.dtd">
<!-- Generated by graphviz version 7.0.5 (20221223.1930)
 -->
<!-- Title: src/Meta/serialize/streams/pendingrequest.h Pages: 1 -->
<svg width="521pt" height="258pt"
 viewBox="0.00 0.00 521.00 258.00" xmlns="http://www.w3.org/2000/svg" xmlns:xlink="http://www.w3.org/1999/xlink">
<g id="graph0" class="graph" transform="scale(1 1) rotate(0) translate(4 254)">
<title>src/Meta/serialize/streams/pendingrequest.h</title>
<!-- Node1 -->
<g id="node1" class="node">
<title>Node1</title>
<g id="a_node1"><a xlink:title=" ">
<polygon fill="#999999" stroke="#666666" points="302.5,-250 171.5,-250 171.5,-220 302.5,-220 302.5,-250"/>
<text text-anchor="start" x="179.5" y="-238" font-family="Helvetica,sans-Serif" font-size="10.00">src/Meta/serialize</text>
<text text-anchor="middle" x="237" y="-227" font-family="Helvetica,sans-Serif" font-size="10.00">/streams/pendingrequest.h</text>
</a>
</g>
</g>
<!-- Node2 -->
<g id="node2" class="node">
<title>Node2</title>
<g id="a_node2"><a xlink:href="src_2_generic_2execution_2sender_8h.html" target="_top" xlink:title=" ">
<polygon fill="white" stroke="#666666" points="134,-129 0,-129 0,-110 134,-110 134,-129"/>
<text text-anchor="middle" x="67" y="-117" font-family="Helvetica,sans-Serif" font-size="10.00">Generic/execution/sender.h</text>
</a>
</g>
</g>
<!-- Node1&#45;&gt;Node2 -->
<g id="edge1" class="edge">
<title>Node1&#45;&gt;Node2</title>
<path fill="none" stroke="#63b8ff" d="M171.09,-226.18C119.71,-218.57 54.4,-205.03 38,-184 27.1,-170.02 38.12,-151.29 49.57,-137.8"/>
<polygon fill="#63b8ff" stroke="#63b8ff" points="52.07,-140.25 56.28,-130.53 46.92,-135.51 52.07,-140.25"/>
</g>
<!-- Node4 -->
<g id="node4" class="node">
<title>Node4</title>
<g id="a_node4"><a xlink:href="virtualsender_8h.html" target="_top" xlink:title=" ">
<polygon fill="white" stroke="#666666" points="208.5,-184 47.5,-184 47.5,-165 208.5,-165 208.5,-184"/>
<text text-anchor="middle" x="128" y="-172" font-family="Helvetica,sans-Serif" font-size="10.00">Generic/execution/virtualsender.h</text>
</a>
</g>
</g>
<!-- Node1&#45;&gt;Node4 -->
<g id="edge3" class="edge">
<title>Node1&#45;&gt;Node4</title>
<path fill="none" stroke="#63b8ff" d="M210.06,-219.54C193.04,-210.4 171.15,-198.66 154.26,-189.6"/>
<polygon fill="#63b8ff" stroke="#63b8ff" points="156.28,-186.71 145.82,-185.06 152.97,-192.87 156.28,-186.71"/>
</g>
<!-- Node5 -->
<g id="node5" class="node">
<title>Node5</title>
<g id="a_node5"><a xlink:href="virtualstate_8h.html" target="_top" xlink:title=" ">
<polygon fill="white" stroke="#666666" points="224,-129 152,-129 152,-110 224,-110 224,-129"/>
<text text-anchor="middle" x="188" y="-117" font-family="Helvetica,sans-Serif" font-size="10.00">virtualstate.h</text>
</a>
</g>
</g>
<!-- Node1&#45;&gt;Node5 -->
<g id="edge9" class="edge">
<title>Node1&#45;&gt;Node5</title>
<path fill="none" stroke="#63b8ff" d="M234.44,-219.52C231.58,-205.22 226.25,-182.95 218,-165 213.72,-155.7 207.59,-146.19 201.99,-138.36"/>
<polygon fill="#63b8ff" stroke="#63b8ff" points="204.82,-136.31 196.03,-130.4 199.22,-140.5 204.82,-136.31"/>
</g>
<!-- Node8 -->
<g id="node8" class="node">
<title>Node8</title>
<g id="a_node8"><a xlink:href="forward__capture_8h.html" target="_top" xlink:title=" ">
<polygon fill="white" stroke="#666666" points="396.5,-184 265.5,-184 265.5,-165 396.5,-165 396.5,-184"/>
<text text-anchor="middle" x="331" y="-172" font-family="Helvetica,sans-Serif" font-size="10.00">Generic/forward_capture.h</text>
</a>
</g>
</g>
<!-- Node1&#45;&gt;Node8 -->
<g id="edge10" class="edge">
<title>Node1&#45;&gt;Node8</title>
<path fill="none" stroke="#63b8ff" d="M260.24,-219.54C274.5,-210.66 292.72,-199.32 307.1,-190.37"/>
<polygon fill="#63b8ff" stroke="#63b8ff" points="308.86,-193.4 315.5,-185.15 305.16,-187.46 308.86,-193.4"/>
</g>
<!-- Node9 -->
<g id="node9" class="node">
<title>Node9</title>
<g id="a_node9"><a xlink:href="nulledptr_8h.html" target="_top" xlink:title=" ">
<polygon fill="white" stroke="#666666" points="513,-184 415,-184 415,-165 513,-165 513,-184"/>
<text text-anchor="middle" x="464" y="-172" font-family="Helvetica,sans-Serif" font-size="10.00">Generic/nulledptr.h</text>
</a>
</g>
</g>
<!-- Node1&#45;&gt;Node9 -->
<g id="edge11" class="edge">
<title>Node1&#45;&gt;Node9</title>
<path fill="none" stroke="#63b8ff" d="M293.11,-219.54C331.78,-209.57 382.51,-196.5 418.63,-187.19"/>
<polygon fill="#63b8ff" stroke="#63b8ff" points="419.06,-190.69 427.87,-184.81 417.32,-183.92 419.06,-190.69"/>
</g>
<!-- Node3 -->
<g id="node3" class="node">
<title>Node3</title>
<g id="a_node3"><a xlink:href="execution_2concepts_8h.html" target="_top" xlink:title=" ">
<polygon fill="white" stroke="#666666" points="104,-74 40,-74 40,-55 104,-55 104,-74"/>
<text text-anchor="middle" x="72" y="-62" font-family="Helvetica,sans-Serif" font-size="10.00">concepts.h</text>
</a>
</g>
</g>
<!-- Node2&#45;&gt;Node3 -->
<g id="edge2" class="edge">
<title>Node2&#45;&gt;Node3</title>
<path fill="none" stroke="#63b8ff" d="M67.83,-109.75C68.44,-103.27 69.3,-94.16 70.08,-85.9"/>
<polygon fill="#63b8ff" stroke="#63b8ff" points="73.56,-86.23 71.01,-75.95 66.59,-85.58 73.56,-86.23"/>
</g>
<!-- Node4&#45;&gt;Node2 -->
<g id="edge4" class="edge">
<title>Node4&#45;&gt;Node2</title>
<path fill="none" stroke="#63b8ff" d="M117.65,-164.51C108.92,-156.93 96.21,-145.88 85.7,-136.75"/>
<polygon fill="#63b8ff" stroke="#63b8ff" points="88.18,-134.27 78.34,-130.35 83.59,-139.55 88.18,-134.27"/>
</g>
<!-- Node4&#45;&gt;Node5 -->
<g id="edge5" class="edge">
<title>Node4&#45;&gt;Node5</title>
<path fill="none" stroke="#63b8ff" d="M138.18,-164.51C146.76,-156.93 159.27,-145.88 169.6,-136.75"/>
<polygon fill="#63b8ff" stroke="#63b8ff" points="171.66,-139.6 176.84,-130.36 167.03,-134.36 171.66,-139.6"/>
</g>
<!-- Node5&#45;&gt;Node3 -->
<g id="edge6" class="edge">
<title>Node5&#45;&gt;Node3</title>
<path fill="none" stroke="#63b8ff" d="M168.32,-109.51C150.05,-101.16 122.59,-88.61 101.65,-79.05"/>
<polygon fill="#63b8ff" stroke="#63b8ff" points="103.31,-75.96 92.76,-74.99 100.4,-82.33 103.31,-75.96"/>
</g>
<!-- Node6 -->
<g id="node6" class="node">
<title>Node6</title>
<g id="a_node6"><a xlink:href="virtual__invoke_8h.html" target="_top" xlink:title=" ">
<polygon fill="white" stroke="#666666" points="248.5,-74 127.5,-74 127.5,-55 248.5,-55 248.5,-74"/>
<text text-anchor="middle" x="188" y="-62" font-family="Helvetica,sans-Serif" font-size="10.00">Generic/virtual_invoke.h</text>
</a>
</g>
</g>
<!-- Node5&#45;&gt;Node6 -->
<g id="edge7" class="edge">
<title>Node5&#45;&gt;Node6</title>
<path fill="none" stroke="#63b8ff" d="M188,-109.75C188,-103.27 188,-94.16 188,-85.9"/>
<polygon fill="#63b8ff" stroke="#63b8ff" points="191.5,-85.96 188,-75.96 184.5,-85.96 191.5,-85.96"/>
</g>
<!-- Node7 -->
<g id="node7" class="node">
<title>Node7</title>
<g id="a_node7"><a xlink:href="callable__traits_8h.html" target="_top" xlink:title=" ">
<polygon fill="white" stroke="#666666" points="230,-19 146,-19 146,0 230,0 230,-19"/>
<text text-anchor="middle" x="188" y="-7" font-family="Helvetica,sans-Serif" font-size="10.00">callable_traits.h</text>
</a>
</g>
</g>
<!-- Node6&#45;&gt;Node7 -->
<g id="edge8" class="edge">
<title>Node6&#45;&gt;Node7</title>
<path fill="none" stroke="#63b8ff" d="M188,-54.75C188,-48.27 188,-39.16 188,-30.9"/>
<polygon fill="#63b8ff" stroke="#63b8ff" points="191.5,-30.96 188,-20.96 184.5,-30.96 191.5,-30.96"/>
</g>
</g>
</svg>
