<?xml version="1.0" encoding="UTF-8" standalone="no"?>
<!DOCTYPE svg PUBLIC "-//W3C//DTD SVG 1.1//EN"
 "http://www.w3.org/Graphics/SVG/1.1/DTD/svg11.dtd">
<!-- Generated by graphviz version 7.0.5 (20221223.1930)
 -->
<!-- Title: plugins/behavior/nodegraph/src/Madgine/nodegraph/pins.h Pages: 1 -->
<svg width="1831pt" height="632pt"
 viewBox="0.00 0.00 1831.00 632.00" xmlns="http://www.w3.org/2000/svg" xmlns:xlink="http://www.w3.org/1999/xlink">
<g id="graph0" class="graph" transform="scale(1 1) rotate(0) translate(4 628)">
<title>plugins/behavior/nodegraph/src/Madgine/nodegraph/pins.h</title>
<!-- Node1 -->
<g id="node1" class="node">
<title>Node1</title>
<g id="a_node1"><a xlink:title=" ">
<polygon fill="#999999" stroke="#666666" points="1709.5,-624 1560.5,-624 1560.5,-594 1709.5,-594 1709.5,-624"/>
<text text-anchor="start" x="1568.5" y="-612" font-family="Helvetica,sans-Serif" font-size="10.00">plugins/behavior/nodegraph</text>
<text text-anchor="middle" x="1635" y="-601" font-family="Helvetica,sans-Serif" font-size="10.00">/src/Madgine/nodegraph/pins.h</text>
</a>
</g>
</g>
<!-- Node2 -->
<g id="node2" class="node">
<title>Node2</title>
<g id="a_node2"><a xlink:href="nodebase_8h.html" target="_top" xlink:title=" ">
<polygon fill="white" stroke="#666666" points="895.5,-558 722.5,-558 722.5,-528 895.5,-528 895.5,-558"/>
<text text-anchor="start" x="730.5" y="-546" font-family="Helvetica,sans-Serif" font-size="10.00">plugins/behavior/nodegraph</text>
<text text-anchor="middle" x="809" y="-535" font-family="Helvetica,sans-Serif" font-size="10.00">/src/Madgine/nodegraph/nodebase.h</text>
</a>
</g>
</g>
<!-- Node1&#45;&gt;Node2 -->
<g id="edge1" class="edge">
<title>Node1&#45;&gt;Node2</title>
<path fill="none" stroke="#63b8ff" d="M1549.16,-601.35C1390.92,-589.09 1054.9,-563.05 895.88,-550.73"/>
<polygon fill="#63b8ff" stroke="#63b8ff" points="1548.49,-604.81 1558.73,-602.09 1549.03,-597.83 1548.49,-604.81"/>
</g>
<!-- Node10 -->
<g id="node10" class="node">
<title>Node10</title>
<g id="a_node10"><a xlink:href="sendernode_8h.html" target="_top" xlink:title=" ">
<polygon fill="white" stroke="#666666" points="1390,-195 1240,-195 1240,-154 1390,-154 1390,-195"/>
<text text-anchor="start" x="1248" y="-183" font-family="Helvetica,sans-Serif" font-size="10.00">plugins/behavior/nodegraph</text>
<text text-anchor="start" x="1248" y="-172" font-family="Helvetica,sans-Serif" font-size="10.00">/src/Madgine/nodegraph/nodes</text>
<text text-anchor="middle" x="1315" y="-161" font-family="Helvetica,sans-Serif" font-size="10.00">/util/sendernode.h</text>
</a>
</g>
</g>
<!-- Node1&#45;&gt;Node10 -->
<g id="edge55" class="edge">
<title>Node1&#45;&gt;Node10</title>
<path fill="none" stroke="#63b8ff" d="M1633.61,-582.27C1629.25,-524.81 1611.47,-384.29 1540,-297 1498.73,-246.59 1430.84,-214.05 1380.41,-195.46"/>
<polygon fill="#63b8ff" stroke="#63b8ff" points="1630.1,-582.27 1634.27,-592.01 1637.08,-581.8 1630.1,-582.27"/>
</g>
<!-- Node27 -->
<g id="node27" class="node">
<title>Node27</title>
<g id="a_node27"><a xlink:href="pins_8cpp.html" target="_top" xlink:title=" ">
<polygon fill="white" stroke="#666666" points="1823,-558 1663,-558 1663,-528 1823,-528 1823,-558"/>
<text text-anchor="start" x="1671" y="-546" font-family="Helvetica,sans-Serif" font-size="10.00">plugins/behavior/nodegraph</text>
<text text-anchor="middle" x="1743" y="-535" font-family="Helvetica,sans-Serif" font-size="10.00">/src/Madgine/nodegraph/pins.cpp</text>
</a>
</g>
</g>
<!-- Node1&#45;&gt;Node27 -->
<g id="edge56" class="edge">
<title>Node1&#45;&gt;Node27</title>
<path fill="none" stroke="#63b8ff" d="M1668.9,-587.91C1685.11,-578.31 1704.13,-567.03 1718.84,-558.31"/>
<polygon fill="#63b8ff" stroke="#63b8ff" points="1667.36,-584.76 1660.54,-592.87 1670.93,-590.78 1667.36,-584.76"/>
</g>
<!-- Node3 -->
<g id="node3" class="node">
<title>Node3</title>
<g id="a_node3"><a xlink:href="nodebase_8cpp.html" target="_top" xlink:title=" ">
<polygon fill="white" stroke="#666666" points="1682,-112.5 1498,-112.5 1498,-82.5 1682,-82.5 1682,-112.5"/>
<text text-anchor="start" x="1506" y="-100.5" font-family="Helvetica,sans-Serif" font-size="10.00">plugins/behavior/nodegraph</text>
<text text-anchor="middle" x="1590" y="-89.5" font-family="Helvetica,sans-Serif" font-size="10.00">/src/Madgine/nodegraph/nodebase.cpp</text>
</a>
</g>
</g>
<!-- Node2&#45;&gt;Node3 -->
<g id="edge2" class="edge">
<title>Node2&#45;&gt;Node3</title>
<path fill="none" stroke="#63b8ff" d="M907.15,-538.78C1050.73,-533.21 1310.68,-519.61 1400,-492 1501.88,-460.51 1543.11,-436.49 1584,-338 1615.6,-261.89 1619.2,-235.51 1607,-154 1604.85,-139.65 1599.74,-123.88 1595.68,-112.83"/>
<polygon fill="#63b8ff" stroke="#63b8ff" points="907.11,-535.28 897.25,-539.16 907.38,-542.27 907.11,-535.28"/>
</g>
<!-- Node4 -->
<g id="node4" class="node">
<title>Node4</title>
<g id="a_node4"><a xlink:href="nodeexecution_8cpp.html" target="_top" xlink:title=" ">
<polygon fill="white" stroke="#666666" points="922,-189.5 718,-189.5 718,-159.5 922,-159.5 922,-189.5"/>
<text text-anchor="start" x="726" y="-177.5" font-family="Helvetica,sans-Serif" font-size="10.00">plugins/behavior/nodegraph</text>
<text text-anchor="middle" x="820" y="-166.5" font-family="Helvetica,sans-Serif" font-size="10.00">/src/Madgine/nodegraph/nodeexecution.cpp</text>
</a>
</g>
</g>
<!-- Node2&#45;&gt;Node4 -->
<g id="edge3" class="edge">
<title>Node2&#45;&gt;Node4</title>
<path fill="none" stroke="#63b8ff" d="M850.38,-522.32C893.24,-498.72 954,-454.8 954,-395.5 954,-395.5 954,-395.5 954,-316.5 954,-273.56 938.23,-262.45 909,-231 892.88,-213.66 870.19,-199.62 851.74,-190"/>
<polygon fill="#63b8ff" stroke="#63b8ff" points="848.98,-519.1 841.8,-526.89 852.27,-525.28 848.98,-519.1"/>
</g>
<!-- Node5 -->
<g id="node5" class="node">
<title>Node5</title>
<g id="a_node5"><a xlink:href="nodeexecution_8h.html" target="_top" xlink:title=" ">
<polygon fill="white" stroke="#666666" points="850,-261 656,-261 656,-231 850,-231 850,-261"/>
<text text-anchor="start" x="664" y="-249" font-family="Helvetica,sans-Serif" font-size="10.00">plugins/behavior/nodegraph</text>
<text text-anchor="middle" x="753" y="-238" font-family="Helvetica,sans-Serif" font-size="10.00">/src/Madgine/nodegraph/nodeexecution.h</text>
</a>
</g>
</g>
<!-- Node2&#45;&gt;Node5 -->
<g id="edge4" class="edge">
<title>Node2&#45;&gt;Node5</title>
<path fill="none" stroke="#63b8ff" d="M784.7,-519.64C761.18,-496.21 727.09,-457.01 713,-415 705.45,-392.49 719.29,-301.89 721,-297 725.56,-283.96 734.11,-270.88 741.23,-261.36"/>
<polygon fill="#63b8ff" stroke="#63b8ff" points="782.13,-522.03 791.74,-526.48 787,-517 782.13,-522.03"/>
</g>
<!-- Node15 -->
<g id="node15" class="node">
<title>Node15</title>
<g id="a_node15"><a xlink:href="nodegraph_8cpp.html" target="_top" xlink:title=" ">
<polygon fill="white" stroke="#666666" points="291.5,-261 104.5,-261 104.5,-231 291.5,-231 291.5,-261"/>
<text text-anchor="start" x="112.5" y="-249" font-family="Helvetica,sans-Serif" font-size="10.00">plugins/behavior/nodegraph</text>
<text text-anchor="middle" x="198" y="-238" font-family="Helvetica,sans-Serif" font-size="10.00">/src/Madgine/nodegraph/nodegraph.cpp</text>
</a>
</g>
</g>
<!-- Node2&#45;&gt;Node15 -->
<g id="edge16" class="edge">
<title>Node2&#45;&gt;Node15</title>
<path fill="none" stroke="#63b8ff" d="M712.32,-525.06C679.02,-517.33 642.05,-506.56 610,-492 500.67,-442.34 475.88,-419.83 388,-338 370.88,-322.06 374.3,-310.22 355,-297 330.81,-280.43 300.82,-269.11 273.56,-261.5"/>
<polygon fill="#63b8ff" stroke="#63b8ff" points="711.46,-528.46 721.99,-527.24 713,-521.63 711.46,-528.46"/>
</g>
<!-- Node16 -->
<g id="node16" class="node">
<title>Node16</title>
<g id="a_node16"><a xlink:href="nodegraph_8h.html" target="_top" xlink:title=" ">
<polygon fill="white" stroke="#666666" points="1235,-486.5 1059,-486.5 1059,-456.5 1235,-456.5 1235,-486.5"/>
<text text-anchor="start" x="1067" y="-474.5" font-family="Helvetica,sans-Serif" font-size="10.00">plugins/behavior/nodegraph</text>
<text text-anchor="middle" x="1147" y="-463.5" font-family="Helvetica,sans-Serif" font-size="10.00">/src/Madgine/nodegraph/nodegraph.h</text>
</a>
</g>
</g>
<!-- Node2&#45;&gt;Node16 -->
<g id="edge17" class="edge">
<title>Node2&#45;&gt;Node16</title>
<path fill="none" stroke="#63b8ff" d="M890.56,-525.23C947.39,-513.54 1022.44,-498.11 1076.65,-486.97"/>
<polygon fill="#63b8ff" stroke="#63b8ff" points="890.02,-521.77 880.93,-527.21 891.43,-528.62 890.02,-521.77"/>
</g>
<!-- Node21 -->
<g id="node21" class="node">
<title>Node21</title>
<g id="a_node21"><a xlink:href="automasknode_8h.html" target="_top" xlink:title=" ">
<polygon fill="white" stroke="#666666" points="1493,-415 1343,-415 1343,-374 1493,-374 1493,-415"/>
<text text-anchor="start" x="1351" y="-403" font-family="Helvetica,sans-Serif" font-size="10.00">plugins/behavior/nodegraph</text>
<text text-anchor="start" x="1351" y="-392" font-family="Helvetica,sans-Serif" font-size="10.00">/src/Madgine/nodegraph/nodes</text>
<text text-anchor="middle" x="1418" y="-381" font-family="Helvetica,sans-Serif" font-size="10.00">/util/automasknode.h</text>
</a>
</g>
</g>
<!-- Node2&#45;&gt;Node21 -->
<g id="edge51" class="edge">
<title>Node2&#45;&gt;Node21</title>
<path fill="none" stroke="#63b8ff" d="M906.94,-541.58C996.64,-538.68 1132.07,-527.91 1244,-492 1299.42,-474.22 1357.27,-438.04 1390.34,-415.38"/>
<polygon fill="#63b8ff" stroke="#63b8ff" points="907.1,-538.07 897.2,-541.86 907.3,-545.07 907.1,-538.07"/>
</g>
<!-- Node22 -->
<g id="node22" class="node">
<title>Node22</title>
<g id="a_node22"><a xlink:href="pumpnode_8h.html" target="_top" xlink:title=" ">
<polygon fill="white" stroke="#666666" points="1531,-338 1381,-338 1381,-297 1531,-297 1531,-338"/>
<text text-anchor="start" x="1389" y="-326" font-family="Helvetica,sans-Serif" font-size="10.00">plugins/behavior/nodegraph</text>
<text text-anchor="start" x="1389" y="-315" font-family="Helvetica,sans-Serif" font-size="10.00">/src/Madgine/nodegraph/nodes</text>
<text text-anchor="middle" x="1456" y="-304" font-family="Helvetica,sans-Serif" font-size="10.00">/pumpnode.h</text>
</a>
</g>
</g>
<!-- Node2&#45;&gt;Node22 -->
<g id="edge48" class="edge">
<title>Node2&#45;&gt;Node22</title>
<path fill="none" stroke="#63b8ff" d="M907.21,-539.79C1007.83,-535.74 1168.2,-524.28 1303,-492 1395.23,-469.92 1448.39,-493.23 1502,-415 1518.89,-390.35 1496.34,-358.54 1477.28,-338.32"/>
<polygon fill="#63b8ff" stroke="#63b8ff" points="907.21,-536.29 897.36,-540.17 907.48,-543.28 907.21,-536.29"/>
</g>
<!-- Node23 -->
<g id="node23" class="node">
<title>Node23</title>
<g id="a_node23"><a xlink:href="accessornode_8h.html" target="_top" xlink:title=" ">
<polygon fill="white" stroke="#666666" points="628,-338 478,-338 478,-297 628,-297 628,-338"/>
<text text-anchor="start" x="486" y="-326" font-family="Helvetica,sans-Serif" font-size="10.00">plugins/behavior/nodegraph</text>
<text text-anchor="start" x="486" y="-315" font-family="Helvetica,sans-Serif" font-size="10.00">/src/Madgine/nodegraph/nodes</text>
<text text-anchor="middle" x="553" y="-304" font-family="Helvetica,sans-Serif" font-size="10.00">/accessornode.h</text>
</a>
</g>
</g>
<!-- Node2&#45;&gt;Node23 -->
<g id="edge42" class="edge">
<title>Node2&#45;&gt;Node23</title>
<path fill="none" stroke="#63b8ff" d="M711.92,-524.17C689.94,-516.84 667.84,-506.51 650,-492 598.87,-450.41 570.04,-374.3 558.7,-338.33"/>
<polygon fill="#63b8ff" stroke="#63b8ff" points="710.65,-527.44 721.24,-527.08 712.74,-520.76 710.65,-527.44"/>
</g>
<!-- Node24 -->
<g id="node24" class="node">
<title>Node24</title>
<g id="a_node24"><a xlink:href="functionnode_8h.html" target="_top" xlink:title=" ">
<polygon fill="white" stroke="#666666" points="178,-338 28,-338 28,-297 178,-297 178,-338"/>
<text text-anchor="start" x="36" y="-326" font-family="Helvetica,sans-Serif" font-size="10.00">plugins/behavior/nodegraph</text>
<text text-anchor="start" x="36" y="-315" font-family="Helvetica,sans-Serif" font-size="10.00">/src/Madgine/nodegraph/nodes</text>
<text text-anchor="middle" x="103" y="-304" font-family="Helvetica,sans-Serif" font-size="10.00">/functionnode.h</text>
</a>
</g>
</g>
<!-- Node2&#45;&gt;Node24 -->
<g id="edge45" class="edge">
<title>Node2&#45;&gt;Node24</title>
<path fill="none" stroke="#63b8ff" d="M711.09,-536.58C598.85,-529.41 422.36,-514.93 360,-492 262.48,-456.14 165.93,-375.74 124.32,-338.34"/>
<polygon fill="#63b8ff" stroke="#63b8ff" points="710.7,-540.06 720.91,-537.2 711.14,-533.08 710.7,-540.06"/>
</g>
<!-- Node25 -->
<g id="node25" class="node">
<title>Node25</title>
<g id="a_node25"><a xlink:href="testnode_8h.html" target="_top" xlink:title=" ">
<polygon fill="white" stroke="#666666" points="191,-492 41,-492 41,-451 191,-451 191,-492"/>
<text text-anchor="start" x="49" y="-480" font-family="Helvetica,sans-Serif" font-size="10.00">plugins/behavior/nodegraph</text>
<text text-anchor="start" x="49" y="-469" font-family="Helvetica,sans-Serif" font-size="10.00">/src/Madgine/nodegraph/nodes</text>
<text text-anchor="middle" x="116" y="-458" font-family="Helvetica,sans-Serif" font-size="10.00">/testnode.h</text>
</a>
</g>
</g>
<!-- Node2&#45;&gt;Node25 -->
<g id="edge49" class="edge">
<title>Node2&#45;&gt;Node25</title>
<path fill="none" stroke="#63b8ff" d="M710.74,-537.89C590.83,-531.95 382.16,-518.62 205,-492 200.46,-491.32 195.81,-490.54 191.13,-489.7"/>
<polygon fill="#63b8ff" stroke="#63b8ff" points="710.39,-541.38 720.55,-538.37 710.73,-534.38 710.39,-541.38"/>
</g>
<!-- Node26 -->
<g id="node26" class="node">
<title>Node26</title>
<g id="a_node26"><a xlink:href="librarynode_8h.html" target="_top" xlink:title=" ">
<polygon fill="white" stroke="#666666" points="346,-338 196,-338 196,-297 346,-297 346,-338"/>
<text text-anchor="start" x="204" y="-326" font-family="Helvetica,sans-Serif" font-size="10.00">plugins/behavior/nodegraph</text>
<text text-anchor="start" x="204" y="-315" font-family="Helvetica,sans-Serif" font-size="10.00">/src/Madgine/nodegraph/nodes</text>
<text text-anchor="middle" x="271" y="-304" font-family="Helvetica,sans-Serif" font-size="10.00">/util/librarynode.h</text>
</a>
</g>
</g>
<!-- Node2&#45;&gt;Node26 -->
<g id="edge52" class="edge">
<title>Node2&#45;&gt;Node26</title>
<path fill="none" stroke="#63b8ff" d="M727.99,-524.95C691.51,-516.43 648.16,-505.13 610,-492 530.03,-464.49 511.29,-453.52 436,-415 388.44,-390.66 335.44,-358.77 302.65,-338.45"/>
<polygon fill="#63b8ff" stroke="#63b8ff" points="727.07,-528.33 737.6,-527.16 728.64,-521.51 727.07,-528.33"/>
</g>
<!-- Node5&#45;&gt;Node4 -->
<g id="edge5" class="edge">
<title>Node5&#45;&gt;Node4</title>
<path fill="none" stroke="#63b8ff" d="M774.71,-222.48C785.03,-211.78 797.07,-199.29 806.14,-189.88"/>
<polygon fill="#63b8ff" stroke="#63b8ff" points="772.35,-219.88 767.93,-229.51 777.39,-224.74 772.35,-219.88"/>
</g>
<!-- Node6 -->
<g id="node6" class="node">
<title>Node6</title>
<g id="a_node6"><a xlink:href="nodeinterpreter_8cpp.html" target="_top" xlink:title=" ">
<polygon fill="white" stroke="#666666" points="1184,-189.5 978,-189.5 978,-159.5 1184,-159.5 1184,-189.5"/>
<text text-anchor="start" x="986" y="-177.5" font-family="Helvetica,sans-Serif" font-size="10.00">plugins/behavior/nodegraph</text>
<text text-anchor="middle" x="1081" y="-166.5" font-family="Helvetica,sans-Serif" font-size="10.00">/src/Madgine/nodegraph/nodeinterpreter.cpp</text>
</a>
</g>
</g>
<!-- Node5&#45;&gt;Node6 -->
<g id="edge6" class="edge">
<title>Node5&#45;&gt;Node6</title>
<path fill="none" stroke="#63b8ff" d="M832.49,-228.16C887.6,-216.48 960.23,-201.09 1012.73,-189.97"/>
<polygon fill="#63b8ff" stroke="#63b8ff" points="831.9,-224.7 822.84,-230.2 833.35,-231.55 831.9,-224.7"/>
</g>
<!-- Node7 -->
<g id="node7" class="node">
<title>Node7</title>
<g id="a_node7"><a xlink:href="accessornode_8cpp.html" target="_top" xlink:title=" ">
<polygon fill="white" stroke="#666666" points="700,-195 550,-195 550,-154 700,-154 700,-195"/>
<text text-anchor="start" x="558" y="-183" font-family="Helvetica,sans-Serif" font-size="10.00">plugins/behavior/nodegraph</text>
<text text-anchor="start" x="558" y="-172" font-family="Helvetica,sans-Serif" font-size="10.00">/src/Madgine/nodegraph/nodes</text>
<text text-anchor="middle" x="625" y="-161" font-family="Helvetica,sans-Serif" font-size="10.00">/accessornode.cpp</text>
</a>
</g>
</g>
<!-- Node5&#45;&gt;Node7 -->
<g id="edge7" class="edge">
<title>Node5&#45;&gt;Node7</title>
<path fill="none" stroke="#63b8ff" d="M716.77,-225.33C699.53,-215.97 678.97,-204.8 661.68,-195.42"/>
<polygon fill="#63b8ff" stroke="#63b8ff" points="714.69,-228.18 725.15,-229.88 718.03,-222.03 714.69,-228.18"/>
</g>
<!-- Node8 -->
<g id="node8" class="node">
<title>Node8</title>
<g id="a_node8"><a xlink:href="functionnode_8cpp.html" target="_top" xlink:title=" ">
<polygon fill="white" stroke="#666666" points="364,-195 214,-195 214,-154 364,-154 364,-195"/>
<text text-anchor="start" x="222" y="-183" font-family="Helvetica,sans-Serif" font-size="10.00">plugins/behavior/nodegraph</text>
<text text-anchor="start" x="222" y="-172" font-family="Helvetica,sans-Serif" font-size="10.00">/src/Madgine/nodegraph/nodes</text>
<text text-anchor="middle" x="289" y="-161" font-family="Helvetica,sans-Serif" font-size="10.00">/functionnode.cpp</text>
</a>
</g>
</g>
<!-- Node5&#45;&gt;Node8 -->
<g id="edge8" class="edge">
<title>Node5&#45;&gt;Node8</title>
<path fill="none" stroke="#63b8ff" d="M644.72,-233.59C568.45,-224.86 464.11,-211.53 373,-195 370.2,-194.49 367.36,-193.95 364.48,-193.39"/>
<polygon fill="#63b8ff" stroke="#63b8ff" points="643.93,-237.02 654.26,-234.67 644.72,-230.07 643.93,-237.02"/>
</g>
<!-- Node9 -->
<g id="node9" class="node">
<title>Node9</title>
<g id="a_node9"><a xlink:href="librarynode_8cpp.html" target="_top" xlink:title=" ">
<polygon fill="white" stroke="#666666" points="532,-195 382,-195 382,-154 532,-154 532,-195"/>
<text text-anchor="start" x="390" y="-183" font-family="Helvetica,sans-Serif" font-size="10.00">plugins/behavior/nodegraph</text>
<text text-anchor="start" x="390" y="-172" font-family="Helvetica,sans-Serif" font-size="10.00">/src/Madgine/nodegraph/nodes</text>
<text text-anchor="middle" x="457" y="-161" font-family="Helvetica,sans-Serif" font-size="10.00">/util/librarynode.cpp</text>
</a>
</g>
</g>
<!-- Node5&#45;&gt;Node9 -->
<g id="edge9" class="edge">
<title>Node5&#45;&gt;Node9</title>
<path fill="none" stroke="#63b8ff" d="M680.17,-227.9C635.21,-217.34 577.66,-203.83 532.27,-193.17"/>
<polygon fill="#63b8ff" stroke="#63b8ff" points="679.3,-231.29 689.84,-230.17 680.9,-224.48 679.3,-231.29"/>
</g>
<!-- Node5&#45;&gt;Node10 -->
<g id="edge10" class="edge">
<title>Node5&#45;&gt;Node10</title>
<path fill="none" stroke="#63b8ff" d="M861.37,-234.07C950.53,-224.74 1080.14,-210.42 1193,-195 1208.09,-192.94 1224.19,-190.52 1239.59,-188.1"/>
<polygon fill="#63b8ff" stroke="#63b8ff" points="861.24,-230.56 851.66,-235.08 861.97,-237.53 861.24,-230.56"/>
</g>
<!-- Node10&#45;&gt;Node3 -->
<g id="edge11" class="edge">
<title>Node10&#45;&gt;Node3</title>
<path fill="none" stroke="#63b8ff" d="M1398.91,-150.61C1443.94,-138.33 1498.06,-123.58 1537.19,-112.9"/>
<polygon fill="#63b8ff" stroke="#63b8ff" points="1398.16,-147.19 1389.43,-153.2 1400,-153.95 1398.16,-147.19"/>
</g>
<!-- Node11 -->
<g id="node11" class="node">
<title>Node11</title>
<g id="a_node11"><a xlink:href="pumpnode_8cpp.html" target="_top" xlink:title=" ">
<polygon fill="white" stroke="#666666" points="1480,-118 1330,-118 1330,-77 1480,-77 1480,-118"/>
<text text-anchor="start" x="1338" y="-106" font-family="Helvetica,sans-Serif" font-size="10.00">plugins/behavior/nodegraph</text>
<text text-anchor="start" x="1338" y="-95" font-family="Helvetica,sans-Serif" font-size="10.00">/src/Madgine/nodegraph/nodes</text>
<text text-anchor="middle" x="1405" y="-84" font-family="Helvetica,sans-Serif" font-size="10.00">/pumpnode.cpp</text>
</a>
</g>
</g>
<!-- Node10&#45;&gt;Node11 -->
<g id="edge12" class="edge">
<title>Node10&#45;&gt;Node11</title>
<path fill="none" stroke="#63b8ff" d="M1347.31,-146.57C1358.5,-137.25 1370.82,-126.98 1381.2,-118.33"/>
<polygon fill="#63b8ff" stroke="#63b8ff" points="1345.25,-143.74 1339.81,-152.83 1349.73,-149.11 1345.25,-143.74"/>
</g>
<!-- Node12 -->
<g id="node12" class="node">
<title>Node12</title>
<g id="a_node12"><a xlink:href="testnode_8cpp.html" target="_top" xlink:title=" ">
<polygon fill="white" stroke="#666666" points="1025,-118 875,-118 875,-77 1025,-77 1025,-118"/>
<text text-anchor="start" x="883" y="-106" font-family="Helvetica,sans-Serif" font-size="10.00">plugins/behavior/nodegraph</text>
<text text-anchor="start" x="883" y="-95" font-family="Helvetica,sans-Serif" font-size="10.00">/src/Madgine/nodegraph/nodes</text>
<text text-anchor="middle" x="950" y="-84" font-family="Helvetica,sans-Serif" font-size="10.00">/testnode.cpp</text>
</a>
</g>
</g>
<!-- Node10&#45;&gt;Node12 -->
<g id="edge13" class="edge">
<title>Node10&#45;&gt;Node12</title>
<path fill="none" stroke="#63b8ff" d="M1228.92,-155.81C1167.11,-143.11 1084.62,-126.16 1025.4,-113.99"/>
<polygon fill="#63b8ff" stroke="#63b8ff" points="1227.83,-159.16 1238.33,-157.75 1229.24,-152.31 1227.83,-159.16"/>
</g>
<!-- Node13 -->
<g id="node13" class="node">
<title>Node13</title>
<g id="a_node13"><a xlink:href="sendernode__impl_8h.html" target="_top" xlink:title=" ">
<polygon fill="white" stroke="#666666" points="1312,-118 1162,-118 1162,-77 1312,-77 1312,-118"/>
<text text-anchor="start" x="1170" y="-106" font-family="Helvetica,sans-Serif" font-size="10.00">plugins/behavior/nodegraph</text>
<text text-anchor="start" x="1170" y="-95" font-family="Helvetica,sans-Serif" font-size="10.00">/src/Madgine/nodegraph/nodes</text>
<text text-anchor="middle" x="1237" y="-84" font-family="Helvetica,sans-Serif" font-size="10.00">/util/sendernode_impl.h</text>
</a>
</g>
</g>
<!-- Node10&#45;&gt;Node13 -->
<g id="edge14" class="edge">
<title>Node10&#45;&gt;Node13</title>
<path fill="none" stroke="#63b8ff" d="M1286.42,-146.02C1276.88,-136.84 1266.44,-126.81 1257.63,-118.33"/>
<polygon fill="#63b8ff" stroke="#63b8ff" points="1283.78,-148.34 1293.42,-152.75 1288.63,-143.29 1283.78,-148.34"/>
</g>
<!-- Node14 -->
<g id="node14" class="node">
<title>Node14</title>
<g id="a_node14"><a xlink:href="sendernode_8cpp.html" target="_top" xlink:title=" ">
<polygon fill="white" stroke="#666666" points="1312,-41 1162,-41 1162,0 1312,0 1312,-41"/>
<text text-anchor="start" x="1170" y="-29" font-family="Helvetica,sans-Serif" font-size="10.00">plugins/behavior/nodegraph</text>
<text text-anchor="start" x="1170" y="-18" font-family="Helvetica,sans-Serif" font-size="10.00">/src/Madgine/nodegraph/nodes</text>
<text text-anchor="middle" x="1237" y="-7" font-family="Helvetica,sans-Serif" font-size="10.00">/util/sendernode.cpp</text>
</a>
</g>
</g>
<!-- Node13&#45;&gt;Node14 -->
<g id="edge15" class="edge">
<title>Node13&#45;&gt;Node14</title>
<path fill="none" stroke="#63b8ff" d="M1237,-65.36C1237,-57.24 1237,-48.7 1237,-41.33"/>
<polygon fill="#63b8ff" stroke="#63b8ff" points="1233.5,-65.28 1237,-75.28 1240.5,-65.28 1233.5,-65.28"/>
</g>
<!-- Node16&#45;&gt;Node3 -->
<g id="edge19" class="edge">
<title>Node16&#45;&gt;Node3</title>
<path fill="none" stroke="#63b8ff" d="M1246.62,-465.09C1337.14,-458.39 1462.41,-444.09 1502,-415 1601.96,-341.55 1595.59,-164.45 1591.41,-112.84"/>
<polygon fill="#63b8ff" stroke="#63b8ff" points="1246.44,-461.6 1236.71,-465.8 1246.94,-468.58 1246.44,-461.6"/>
</g>
<!-- Node16&#45;&gt;Node6 -->
<g id="edge35" class="edge">
<title>Node16&#45;&gt;Node6</title>
<path fill="none" stroke="#63b8ff" d="M1080.29,-451.52C1062.89,-443.22 1046.18,-431.47 1036,-415 989.85,-340.32 1048.08,-229.36 1071.8,-189.99"/>
<polygon fill="#63b8ff" stroke="#63b8ff" points="1078.62,-454.61 1089.19,-455.42 1081.43,-448.2 1078.62,-454.61"/>
</g>
<!-- Node16&#45;&gt;Node10 -->
<g id="edge41" class="edge">
<title>Node16&#45;&gt;Node10</title>
<path fill="none" stroke="#63b8ff" d="M1206.91,-451.57C1225.35,-443.06 1244.16,-431.19 1257,-415 1284.38,-380.48 1305.25,-246.43 1312.36,-195.39"/>
<polygon fill="#63b8ff" stroke="#63b8ff" points="1205.63,-448.31 1197.83,-455.48 1208.4,-454.74 1205.63,-448.31"/>
</g>
<!-- Node16&#45;&gt;Node11 -->
<g id="edge36" class="edge">
<title>Node16&#45;&gt;Node11</title>
<path fill="none" stroke="#63b8ff" d="M1215.63,-452.31C1238.36,-443.78 1262.55,-431.7 1281,-415 1363.27,-340.55 1368.64,-301.72 1399,-195 1406.35,-169.17 1406.86,-137.93 1406.2,-118.14"/>
<polygon fill="#63b8ff" stroke="#63b8ff" points="1214.64,-448.95 1206.39,-455.6 1216.99,-455.55 1214.64,-448.95"/>
</g>
<!-- Node16&#45;&gt;Node15 -->
<g id="edge20" class="edge">
<title>Node16&#45;&gt;Node15</title>
<path fill="none" stroke="#63b8ff" d="M1047.13,-462.83C958.6,-454.82 826.18,-439.89 713,-415 601.94,-390.58 574.3,-380.93 469,-338 431.64,-322.77 425.72,-311.33 388,-297 348.78,-282.1 303.39,-269.98 266.8,-261.4"/>
<polygon fill="#63b8ff" stroke="#63b8ff" points="1046.73,-466.31 1057.01,-463.71 1047.36,-459.33 1046.73,-466.31"/>
</g>
<!-- Node17 -->
<g id="node17" class="node">
<title>Node17</title>
<g id="a_node17"><a xlink:href="codegenerator_8cpp.html" target="_top" xlink:title=" ">
<polygon fill="white" stroke="#666666" points="1248.5,-409.5 1045.5,-409.5 1045.5,-379.5 1248.5,-379.5 1248.5,-409.5"/>
<text text-anchor="start" x="1053.5" y="-397.5" font-family="Helvetica,sans-Serif" font-size="10.00">plugins/behavior/nodegraph</text>
<text text-anchor="middle" x="1147" y="-386.5" font-family="Helvetica,sans-Serif" font-size="10.00">/src/Madgine/nodegraph/codegenerator.cpp</text>
</a>
</g>
</g>
<!-- Node16&#45;&gt;Node17 -->
<g id="edge18" class="edge">
<title>Node16&#45;&gt;Node17</title>
<path fill="none" stroke="#63b8ff" d="M1147,-444.73C1147,-433.08 1147,-419.76 1147,-409.92"/>
<polygon fill="#63b8ff" stroke="#63b8ff" points="1143.5,-444.53 1147,-454.53 1150.5,-444.53 1143.5,-444.53"/>
</g>
<!-- Node18 -->
<g id="node18" class="node">
<title>Node18</title>
<g id="a_node18"><a xlink:href="nodegraphloader_8h.html" target="_top" xlink:title=" ">
<polygon fill="white" stroke="#666666" points="925.5,-409.5 722.5,-409.5 722.5,-379.5 925.5,-379.5 925.5,-409.5"/>
<text text-anchor="start" x="730.5" y="-397.5" font-family="Helvetica,sans-Serif" font-size="10.00">plugins/behavior/nodegraph</text>
<text text-anchor="middle" x="824" y="-386.5" font-family="Helvetica,sans-Serif" font-size="10.00">/src/Madgine/nodegraph/nodegraphloader.h</text>
</a>
</g>
</g>
<!-- Node16&#45;&gt;Node18 -->
<g id="edge21" class="edge">
<title>Node16&#45;&gt;Node18</title>
<path fill="none" stroke="#63b8ff" d="M1073.71,-453.48C1017.21,-440.36 939.92,-422.42 886.36,-409.98"/>
<polygon fill="#63b8ff" stroke="#63b8ff" points="1072.72,-456.84 1083.25,-455.7 1074.3,-450.03 1072.72,-456.84"/>
</g>
<!-- Node16&#45;&gt;Node21 -->
<g id="edge37" class="edge">
<title>Node16&#45;&gt;Node21</title>
<path fill="none" stroke="#63b8ff" d="M1210.1,-453.04C1250.73,-441.79 1303.65,-427.15 1345.93,-415.44"/>
<polygon fill="#63b8ff" stroke="#63b8ff" points="1209.41,-449.59 1200.71,-455.64 1211.28,-456.34 1209.41,-449.59"/>
</g>
<!-- Node19 -->
<g id="node19" class="node">
<title>Node19</title>
<g id="a_node19"><a xlink:href="nodegraphloader_8cpp.html" target="_top" xlink:title=" ">
<polygon fill="white" stroke="#666666" points="561.5,-261 348.5,-261 348.5,-231 561.5,-231 561.5,-261"/>
<text text-anchor="start" x="356.5" y="-249" font-family="Helvetica,sans-Serif" font-size="10.00">plugins/behavior/nodegraph</text>
<text text-anchor="middle" x="455" y="-238" font-family="Helvetica,sans-Serif" font-size="10.00">/src/Madgine/nodegraph/nodegraphloader.cpp</text>
</a>
</g>
</g>
<!-- Node18&#45;&gt;Node19 -->
<g id="edge22" class="edge">
<title>Node18&#45;&gt;Node19</title>
<path fill="none" stroke="#63b8ff" d="M786.59,-373.66C736.49,-347.18 652.13,-302.91 637,-297 599.3,-282.28 555.62,-270.13 520.5,-261.49"/>
<polygon fill="#63b8ff" stroke="#63b8ff" points="784.91,-376.73 795.38,-378.32 788.18,-370.55 784.91,-376.73"/>
</g>
<!-- Node20 -->
<g id="node20" class="node">
<title>Node20</title>
<g id="a_node20"><a xlink:href="nodeinterpreter_8h.html" target="_top" xlink:title=" ">
<polygon fill="white" stroke="#666666" points="926,-332.5 730,-332.5 730,-302.5 926,-302.5 926,-332.5"/>
<text text-anchor="start" x="738" y="-320.5" font-family="Helvetica,sans-Serif" font-size="10.00">plugins/behavior/nodegraph</text>
<text text-anchor="middle" x="828" y="-309.5" font-family="Helvetica,sans-Serif" font-size="10.00">/src/Madgine/nodegraph/nodeinterpreter.h</text>
</a>
</g>
</g>
<!-- Node18&#45;&gt;Node20 -->
<g id="edge23" class="edge">
<title>Node18&#45;&gt;Node20</title>
<path fill="none" stroke="#63b8ff" d="M825.37,-367.73C826,-356.08 826.71,-342.76 827.23,-332.92"/>
<polygon fill="#63b8ff" stroke="#63b8ff" points="821.89,-367.36 824.85,-377.53 828.88,-367.73 821.89,-367.36"/>
</g>
<!-- Node20&#45;&gt;Node4 -->
<g id="edge24" class="edge">
<title>Node20&#45;&gt;Node4</title>
<path fill="none" stroke="#63b8ff" d="M862.66,-295.38C874.22,-286.36 885.74,-274.72 892,-261 897.54,-248.87 897.88,-242.96 892,-231 883.15,-213.01 865.37,-199.21 849.68,-189.87"/>
<polygon fill="#63b8ff" stroke="#63b8ff" points="860.74,-292.44 854.71,-301.15 864.85,-298.11 860.74,-292.44"/>
</g>
<!-- Node20&#45;&gt;Node5 -->
<g id="edge25" class="edge">
<title>Node20&#45;&gt;Node5</title>
<path fill="none" stroke="#63b8ff" d="M804.05,-294.3C792.41,-283.52 778.77,-270.88 768.52,-261.38"/>
<polygon fill="#63b8ff" stroke="#63b8ff" points="801.64,-296.84 811.35,-301.07 806.39,-291.71 801.64,-296.84"/>
</g>
<!-- Node20&#45;&gt;Node6 -->
<g id="edge28" class="edge">
<title>Node20&#45;&gt;Node6</title>
<path fill="none" stroke="#63b8ff" d="M916.54,-299.15C946.52,-290.69 979.17,-278.44 1006,-261 1035.14,-242.06 1059.66,-208.75 1072.14,-189.78"/>
<polygon fill="#63b8ff" stroke="#63b8ff" points="915.83,-295.72 907.09,-301.71 917.66,-302.48 915.83,-295.72"/>
</g>
<!-- Node20&#45;&gt;Node7 -->
<g id="edge29" class="edge">
<title>Node20&#45;&gt;Node7</title>
<path fill="none" stroke="#63b8ff" d="M847.82,-293.22C860.98,-274.81 873.43,-249.25 859,-231 858.36,-230.19 768.53,-209.04 700.37,-193.09"/>
<polygon fill="#63b8ff" stroke="#63b8ff" points="845.22,-290.85 841.92,-300.92 850.78,-295.11 845.22,-290.85"/>
</g>
<!-- Node20&#45;&gt;Node8 -->
<g id="edge30" class="edge">
<title>Node20&#45;&gt;Node8</title>
<path fill="none" stroke="#63b8ff" d="M718.46,-300.32C680.76,-291.94 639.2,-279.46 604,-261 586.15,-251.64 588.13,-239.8 570,-231 489.93,-192.14 460.15,-213.07 373,-195 370.07,-194.39 367.08,-193.76 364.07,-193.11"/>
<polygon fill="#63b8ff" stroke="#63b8ff" points="717.51,-303.69 728.02,-302.36 718.98,-296.85 717.51,-303.69"/>
</g>
<!-- Node20&#45;&gt;Node9 -->
<g id="edge33" class="edge">
<title>Node20&#45;&gt;Node9</title>
<path fill="none" stroke="#63b8ff" d="M752.7,-299.06C719.4,-289.93 680.32,-277.23 647,-261 626.05,-250.79 624.61,-241.87 604,-231 577.45,-217.01 546.58,-204.79 520,-195.41"/>
<polygon fill="#63b8ff" stroke="#63b8ff" points="751.73,-302.42 762.3,-301.63 753.54,-295.66 751.73,-302.42"/>
</g>
<!-- Node20&#45;&gt;Node10 -->
<g id="edge34" class="edge">
<title>Node20&#45;&gt;Node10</title>
<path fill="none" stroke="#63b8ff" d="M895.88,-299.19C936.86,-288.56 990.06,-274.45 1037,-261 1111.39,-239.69 1196.34,-213.26 1252.55,-195.47"/>
<polygon fill="#63b8ff" stroke="#63b8ff" points="895.21,-295.75 886.4,-301.64 896.96,-302.52 895.21,-295.75"/>
</g>
<!-- Node20&#45;&gt;Node11 -->
<g id="edge31" class="edge">
<title>Node20&#45;&gt;Node11</title>
<path fill="none" stroke="#63b8ff" d="M902.86,-299.33C943.04,-289.44 993.17,-276.01 1037,-261 1108.22,-236.61 1131.37,-238.24 1193,-195 1213.34,-180.73 1210.03,-167.32 1231,-154 1247.99,-143.2 1290.95,-129.46 1329.93,-118.35"/>
<polygon fill="#63b8ff" stroke="#63b8ff" points="902.16,-295.9 893.27,-301.67 903.82,-302.7 902.16,-295.9"/>
</g>
<!-- Node20&#45;&gt;Node12 -->
<g id="edge32" class="edge">
<title>Node20&#45;&gt;Node12</title>
<path fill="none" stroke="#63b8ff" d="M868.13,-296.22C882.72,-287.16 898.25,-275.27 909,-261 941.66,-217.67 948.5,-151.23 949.8,-118.35"/>
<polygon fill="#63b8ff" stroke="#63b8ff" points="866.4,-293.18 859.56,-301.27 869.95,-299.21 866.4,-293.18"/>
</g>
<!-- Node20&#45;&gt;Node15 -->
<g id="edge26" class="edge">
<title>Node20&#45;&gt;Node15</title>
<path fill="none" stroke="#63b8ff" d="M718.48,-304.42C597.85,-291.11 405.9,-269.93 291.89,-257.36"/>
<polygon fill="#63b8ff" stroke="#63b8ff" points="717.73,-307.86 728.06,-305.47 718.5,-300.9 717.73,-307.86"/>
</g>
<!-- Node20&#45;&gt;Node19 -->
<g id="edge27" class="edge">
<title>Node20&#45;&gt;Node19</title>
<path fill="none" stroke="#63b8ff" d="M739.17,-299.95C676.31,-288.24 592.84,-272.68 532.64,-261.47"/>
<polygon fill="#63b8ff" stroke="#63b8ff" points="738.3,-303.35 748.77,-301.74 739.58,-296.47 738.3,-303.35"/>
</g>
<!-- Node21&#45;&gt;Node10 -->
<g id="edge40" class="edge">
<title>Node21&#45;&gt;Node10</title>
<path fill="none" stroke="#63b8ff" d="M1391.25,-365.16C1384.33,-356.85 1377.34,-347.44 1372,-338 1344.92,-290.12 1327.32,-227.12 1319.56,-195.47"/>
<polygon fill="#63b8ff" stroke="#63b8ff" points="1388.47,-367.29 1397.66,-372.57 1393.76,-362.71 1388.47,-367.29"/>
</g>
<!-- Node21&#45;&gt;Node22 -->
<g id="edge38" class="edge">
<title>Node21&#45;&gt;Node22</title>
<path fill="none" stroke="#63b8ff" d="M1433.06,-363.78C1437.39,-355.23 1442,-346.12 1445.95,-338.33"/>
<polygon fill="#63b8ff" stroke="#63b8ff" points="1430.07,-361.94 1428.67,-372.44 1436.31,-365.11 1430.07,-361.94"/>
</g>
<!-- Node22&#45;&gt;Node11 -->
<g id="edge39" class="edge">
<title>Node22&#45;&gt;Node11</title>
<path fill="none" stroke="#63b8ff" d="M1454.23,-285.32C1451.7,-252.14 1445.72,-198.41 1432,-154 1428.2,-141.72 1422.03,-128.75 1416.55,-118.45"/>
<polygon fill="#63b8ff" stroke="#63b8ff" points="1450.72,-285.32 1454.91,-295.05 1457.71,-284.83 1450.72,-285.32"/>
</g>
<!-- Node23&#45;&gt;Node7 -->
<g id="edge44" class="edge">
<title>Node23&#45;&gt;Node7</title>
<path fill="none" stroke="#63b8ff" d="M466.65,-296.65C409.07,-283.01 343.19,-266.41 339,-261 330.84,-250.45 330.44,-241.22 339,-231 368.28,-196.04 496.33,-204.16 541,-195 543.93,-194.4 546.92,-193.77 549.94,-193.13"/>
<polygon fill="#63b8ff" stroke="#63b8ff" points="465.65,-300.01 476.18,-298.9 467.25,-293.2 465.65,-300.01"/>
</g>
<!-- Node23&#45;&gt;Node15 -->
<g id="edge43" class="edge">
<title>Node23&#45;&gt;Node15</title>
<path fill="none" stroke="#63b8ff" d="M466.54,-297.52C465.69,-297.34 464.84,-297.17 464,-297 401.84,-284.35 331.27,-271.14 278.44,-261.47"/>
<polygon fill="#63b8ff" stroke="#63b8ff" points="465.79,-300.94 476.29,-299.54 467.21,-294.08 465.79,-300.94"/>
</g>
<!-- Node24&#45;&gt;Node8 -->
<g id="edge47" class="edge">
<title>Node24&#45;&gt;Node8</title>
<path fill="none" stroke="#63b8ff" d="M74.68,-288.6C60.26,-270.99 48.37,-248.36 62,-231 80.73,-207.15 155,-192.22 213.55,-183.94"/>
<polygon fill="#63b8ff" stroke="#63b8ff" points="71.64,-290.44 80.86,-295.66 76.91,-285.83 71.64,-290.44"/>
</g>
<!-- Node24&#45;&gt;Node15 -->
<g id="edge46" class="edge">
<title>Node24&#45;&gt;Node15</title>
<path fill="none" stroke="#63b8ff" d="M139.17,-290.04C152.46,-280.31 167.01,-269.67 178.32,-261.4"/>
<polygon fill="#63b8ff" stroke="#63b8ff" points="137.45,-286.96 131.44,-295.69 141.58,-292.61 137.45,-286.96"/>
</g>
<!-- Node25&#45;&gt;Node12 -->
<g id="edge50" class="edge">
<title>Node25&#45;&gt;Node12</title>
<path fill="none" stroke="#63b8ff" d="M77.95,-443.73C44.13,-416.49 0,-370.91 0,-318.5 0,-318.5 0,-318.5 0,-245 0,-145.32 108.32,-178.28 205,-154 330.24,-122.54 711.39,-106.44 874.57,-100.84"/>
<polygon fill="#63b8ff" stroke="#63b8ff" points="75.5,-446.26 85.54,-449.65 79.81,-440.74 75.5,-446.26"/>
</g>
<!-- Node26&#45;&gt;Node9 -->
<g id="edge54" class="edge">
<title>Node26&#45;&gt;Node9</title>
<path fill="none" stroke="#63b8ff" d="M185.12,-294.28C143.4,-282.62 100.95,-269.11 95,-261 87.12,-250.25 86.2,-241.02 95,-231 136.12,-184.21 311.7,-206.06 373,-195 375.8,-194.5 378.65,-193.96 381.52,-193.4"/>
<polygon fill="#63b8ff" stroke="#63b8ff" points="183.95,-297.58 194.52,-296.87 185.81,-290.83 183.95,-297.58"/>
</g>
<!-- Node26&#45;&gt;Node15 -->
<g id="edge53" class="edge">
<title>Node26&#45;&gt;Node15</title>
<path fill="none" stroke="#63b8ff" d="M242.21,-289.09C232.3,-279.65 221.6,-269.46 213.2,-261.47"/>
<polygon fill="#63b8ff" stroke="#63b8ff" points="239.52,-291.37 249.18,-295.73 244.35,-286.3 239.52,-291.37"/>
</g>
</g>
</svg>
