<?xml version="1.0" encoding="UTF-8" standalone="no"?>
<!DOCTYPE svg PUBLIC "-//W3C//DTD SVG 1.1//EN"
 "http://www.w3.org/Graphics/SVG/1.1/DTD/svg11.dtd">
<!-- Generated by graphviz version 7.0.5 (20221223.1930)
 -->
<!-- Title: src/Modules/plugins/pluginmanager.cpp Pages: 1 -->
<svg width="1405pt" height="731pt"
 viewBox="0.00 0.00 1404.50 731.00" xmlns="http://www.w3.org/2000/svg" xmlns:xlink="http://www.w3.org/1999/xlink">
<g id="graph0" class="graph" transform="scale(1 1) rotate(0) translate(4 727)">
<title>src/Modules/plugins/pluginmanager.cpp</title>
<!-- Node1 -->
<g id="node1" class="node">
<title>Node1</title>
<g id="a_node1"><a xlink:title=" ">
<polygon fill="#999999" stroke="#666666" points="894.5,-723 790.5,-723 790.5,-693 894.5,-693 894.5,-723"/>
<text text-anchor="start" x="798.5" y="-711" font-family="Helvetica,sans-Serif" font-size="10.00">src/Modules/plugins</text>
<text text-anchor="middle" x="842.5" y="-700" font-family="Helvetica,sans-Serif" font-size="10.00">/pluginmanager.cpp</text>
</a>
</g>
</g>
<!-- Node2 -->
<g id="node2" class="node">
<title>Node2</title>
<g id="a_node2"><a xlink:href="moduleslib_8h.html" target="_top" xlink:title=" ">
<polygon fill="white" stroke="#666666" points="223.5,-651.5 145.5,-651.5 145.5,-632.5 223.5,-632.5 223.5,-651.5"/>
<text text-anchor="middle" x="184.5" y="-639.5" font-family="Helvetica,sans-Serif" font-size="10.00">../moduleslib.h</text>
</a>
</g>
</g>
<!-- Node1&#45;&gt;Node2 -->
<g id="edge1" class="edge">
<title>Node1&#45;&gt;Node2</title>
<path fill="none" stroke="#63b8ff" d="M790.04,-701.9C666.16,-689.85 356.76,-659.76 234.93,-647.91"/>
<polygon fill="#63b8ff" stroke="#63b8ff" points="235.54,-644.45 225.25,-646.96 234.86,-651.42 235.54,-644.45"/>
</g>
<!-- Node5 -->
<g id="node5" class="node">
<title>Node5</title>
<g id="a_node5"><a xlink:href="pluginmanager_8h.html" target="_top" xlink:title=" ">
<polygon fill="white" stroke="#666666" points="958,-651.5 871,-651.5 871,-632.5 958,-632.5 958,-651.5"/>
<text text-anchor="middle" x="914.5" y="-639.5" font-family="Helvetica,sans-Serif" font-size="10.00">pluginmanager.h</text>
</a>
</g>
</g>
<!-- Node1&#45;&gt;Node5 -->
<g id="edge4" class="edge">
<title>Node1&#45;&gt;Node5</title>
<path fill="none" stroke="#63b8ff" d="M858.48,-692.8C869.59,-682.92 884.44,-669.72 896.06,-659.39"/>
<polygon fill="#63b8ff" stroke="#63b8ff" points="898.27,-662.11 903.42,-652.85 893.62,-656.88 898.27,-662.11"/>
</g>
<!-- Node6 -->
<g id="node6" class="node">
<title>Node6</title>
<g id="a_node6"><a xlink:href="inifile_8h.html" target="_top" xlink:title=" ">
<polygon fill="white" stroke="#666666" points="821.5,-585.5 755.5,-585.5 755.5,-566.5 821.5,-566.5 821.5,-585.5"/>
<text text-anchor="middle" x="788.5" y="-573.5" font-family="Helvetica,sans-Serif" font-size="10.00">../ini/inifile.h</text>
</a>
</g>
</g>
<!-- Node1&#45;&gt;Node6 -->
<g id="edge69" class="edge">
<title>Node1&#45;&gt;Node6</title>
<path fill="none" stroke="#63b8ff" d="M836.51,-692.59C826.75,-669.09 807.39,-622.49 796.48,-596.2"/>
<polygon fill="#63b8ff" stroke="#63b8ff" points="799.77,-595 792.7,-587.11 793.3,-597.68 799.77,-595"/>
</g>
<!-- Node8 -->
<g id="node8" class="node">
<title>Node8</title>
<g id="a_node8"><a xlink:href="inisection_8h.html" target="_top" xlink:title=" ">
<polygon fill="white" stroke="#666666" points="851,-519.5 786,-519.5 786,-500.5 851,-500.5 851,-519.5"/>
<text text-anchor="middle" x="818.5" y="-507.5" font-family="Helvetica,sans-Serif" font-size="10.00">inisection.h</text>
</a>
</g>
</g>
<!-- Node1&#45;&gt;Node8 -->
<g id="edge64" class="edge">
<title>Node1&#45;&gt;Node8</title>
<path fill="none" stroke="#63b8ff" d="M842.06,-692.82C841.08,-666.63 838.18,-608.97 830.5,-561 828.89,-550.94 826.33,-539.91 823.99,-530.78"/>
<polygon fill="#63b8ff" stroke="#63b8ff" points="827.4,-529.98 821.43,-521.23 820.64,-531.8 827.4,-529.98"/>
</g>
<!-- Node15 -->
<g id="node15" class="node">
<title>Node15</title>
<g id="a_node15"><a xlink:href="plugin_8h.html" target="_top" xlink:title=" ">
<polygon fill="white" stroke="#666666" points="466.5,-651.5 416.5,-651.5 416.5,-632.5 466.5,-632.5 466.5,-651.5"/>
<text text-anchor="middle" x="441.5" y="-639.5" font-family="Helvetica,sans-Serif" font-size="10.00">plugin.h</text>
</a>
</g>
</g>
<!-- Node1&#45;&gt;Node15 -->
<g id="edge14" class="edge">
<title>Node1&#45;&gt;Node15</title>
<path fill="none" stroke="#63b8ff" d="M790.07,-700.35C723.64,-691.66 605.71,-675.37 505.5,-657 496.53,-655.36 486.91,-653.37 477.91,-651.41"/>
<polygon fill="#63b8ff" stroke="#63b8ff" points="478.96,-648.06 468.43,-649.31 477.44,-654.9 478.96,-648.06"/>
</g>
<!-- Node48 -->
<g id="node48" class="node">
<title>Node48</title>
<g id="a_node48"><a xlink:href="runtime_8h.html" target="_top" xlink:title=" ">
<polygon fill="white" stroke="#666666" points="628,-651.5 515,-651.5 515,-632.5 628,-632.5 628,-651.5"/>
<text text-anchor="middle" x="571.5" y="-639.5" font-family="Helvetica,sans-Serif" font-size="10.00">Interfaces/dl/runtime.h</text>
</a>
</g>
</g>
<!-- Node1&#45;&gt;Node48 -->
<g id="edge59" class="edge">
<title>Node1&#45;&gt;Node48</title>
<path fill="none" stroke="#63b8ff" d="M790.25,-694.66C741.12,-683.06 668.16,-665.83 620.22,-654.51"/>
<polygon fill="#63b8ff" stroke="#63b8ff" points="621.21,-651.14 610.67,-652.25 619.6,-657.96 621.21,-651.14"/>
</g>
<!-- Node50 -->
<g id="node50" class="node">
<title>Node50</title>
<g id="a_node50"><a xlink:href="keyvalue_8h.html" target="_top" xlink:title=" ">
<polygon fill="white" stroke="#666666" points="1174,-651.5 1075,-651.5 1075,-632.5 1174,-632.5 1174,-651.5"/>
<text text-anchor="middle" x="1124.5" y="-639.5" font-family="Helvetica,sans-Serif" font-size="10.00">Generic/keyvalue.h</text>
</a>
</g>
</g>
<!-- Node1&#45;&gt;Node50 -->
<g id="edge62" class="edge">
<title>Node1&#45;&gt;Node50</title>
<path fill="none" stroke="#63b8ff" d="M894.81,-695.46C940.03,-685.45 1007.12,-670.47 1065.5,-657 1068.88,-656.22 1072.36,-655.41 1075.87,-654.59"/>
<polygon fill="#63b8ff" stroke="#63b8ff" points="1076.66,-658 1085.59,-652.3 1075.05,-651.19 1076.66,-658"/>
</g>
<!-- Node52 -->
<g id="node52" class="node">
<title>Node52</title>
<g id="a_node52"><a xlink:href="pluginsection_8h.html" target="_top" xlink:title=" ">
<polygon fill="white" stroke="#666666" points="1057,-651.5 976,-651.5 976,-632.5 1057,-632.5 1057,-651.5"/>
<text text-anchor="middle" x="1016.5" y="-639.5" font-family="Helvetica,sans-Serif" font-size="10.00">pluginsection.h</text>
</a>
</g>
</g>
<!-- Node1&#45;&gt;Node52 -->
<g id="edge65" class="edge">
<title>Node1&#45;&gt;Node52</title>
<path fill="none" stroke="#63b8ff" d="M881.55,-692.64C911.58,-681.59 952.69,-666.47 981.63,-655.83"/>
<polygon fill="#63b8ff" stroke="#63b8ff" points="982.47,-659.25 990.65,-652.51 980.06,-652.68 982.47,-659.25"/>
</g>
<!-- Node53 -->
<g id="node53" class="node">
<title>Node53</title>
<g id="a_node53"><a xlink:href="workgroup_8h.html" target="_top" xlink:title=" ">
<polygon fill="white" stroke="#666666" points="1311,-651.5 1192,-651.5 1192,-632.5 1311,-632.5 1311,-651.5"/>
<text text-anchor="middle" x="1251.5" y="-639.5" font-family="Helvetica,sans-Serif" font-size="10.00">../threading/workgroup.h</text>
</a>
</g>
</g>
<!-- Node1&#45;&gt;Node53 -->
<g id="edge70" class="edge">
<title>Node1&#45;&gt;Node53</title>
<path fill="none" stroke="#63b8ff" d="M894.93,-700.26C962.01,-691.43 1081.7,-674.93 1183.5,-657 1188.44,-656.13 1193.57,-655.17 1198.7,-654.18"/>
<polygon fill="#63b8ff" stroke="#63b8ff" points="1199.24,-657.64 1208.37,-652.26 1197.88,-650.77 1199.24,-657.64"/>
</g>
<!-- Node54 -->
<g id="node54" class="node">
<title>Node54</title>
<g id="a_node54"><a xlink:href="fsapi_8h.html" target="_top" xlink:title=" ">
<polygon fill="white" stroke="#666666" points="753,-657 646,-657 646,-627 753,-627 753,-657"/>
<text text-anchor="start" x="654" y="-645" font-family="Helvetica,sans-Serif" font-size="10.00">Interfaces/filesystem</text>
<text text-anchor="middle" x="699.5" y="-634" font-family="Helvetica,sans-Serif" font-size="10.00">/fsapi.h</text>
</a>
</g>
</g>
<!-- Node1&#45;&gt;Node54 -->
<g id="edge71" class="edge">
<title>Node1&#45;&gt;Node54</title>
<path fill="none" stroke="#63b8ff" d="M810.41,-692.64C790.17,-683.58 763.8,-671.78 741.86,-661.96"/>
<polygon fill="#63b8ff" stroke="#63b8ff" points="743.42,-658.82 732.87,-657.93 740.56,-665.21 743.42,-658.82"/>
</g>
<!-- Node56 -->
<g id="node56" class="node">
<title>Node56</title>
<g id="a_node56"><a xlink:href="binaryinfo_8h.html" target="_top" xlink:title=" ">
<polygon fill="white" stroke="#666666" points="1394,-651.5 1329,-651.5 1329,-632.5 1394,-632.5 1394,-651.5"/>
<text text-anchor="middle" x="1361.5" y="-639.5" font-family="Helvetica,sans-Serif" font-size="10.00">binaryinfo.h</text>
</a>
</g>
</g>
<!-- Node1&#45;&gt;Node56 -->
<g id="edge74" class="edge">
<title>Node1&#45;&gt;Node56</title>
<path fill="none" stroke="#63b8ff" d="M894.75,-705.37C983.3,-701.76 1168.12,-690.54 1320.5,-657 1322.8,-656.49 1325.14,-655.9 1327.49,-655.26"/>
<polygon fill="#63b8ff" stroke="#63b8ff" points="1328.37,-658.65 1336.9,-652.36 1326.31,-651.96 1328.37,-658.65"/>
</g>
<!-- Node3 -->
<g id="node3" class="node">
<title>Node3</title>
<g id="a_node3"><a xlink:href="interfaceslib_8h.html" target="_top" xlink:title=" ">
<polygon fill="white" stroke="#666666" points="123,-585.5 0,-585.5 0,-566.5 123,-566.5 123,-585.5"/>
<text text-anchor="middle" x="61.5" y="-573.5" font-family="Helvetica,sans-Serif" font-size="10.00">Interfaces/interfaceslib.h</text>
</a>
</g>
</g>
<!-- Node2&#45;&gt;Node3 -->
<g id="edge2" class="edge">
<title>Node2&#45;&gt;Node3</title>
<path fill="none" stroke="#63b8ff" d="M167.4,-632.1C146.93,-621.45 112.41,-603.49 88.36,-590.98"/>
<polygon fill="#63b8ff" stroke="#63b8ff" points="90.29,-588.03 79.8,-586.52 87.06,-594.24 90.29,-588.03"/>
</g>
<!-- Node4 -->
<g id="node4" class="node">
<title>Node4</title>
<g id="a_node4"><a xlink:title=" ">
<polygon fill="#e0e0e0" stroke="#999999" points="227.5,-585.5 141.5,-585.5 141.5,-566.5 227.5,-566.5 227.5,-585.5"/>
<text text-anchor="middle" x="184.5" y="-573.5" font-family="Helvetica,sans-Serif" font-size="10.00">modulesconfig.h</text>
</a>
</g>
</g>
<!-- Node2&#45;&gt;Node4 -->
<g id="edge3" class="edge">
<title>Node2&#45;&gt;Node4</title>
<path fill="none" stroke="#63b8ff" d="M184.5,-632.1C184.5,-623.12 184.5,-608.95 184.5,-597.22"/>
<polygon fill="#63b8ff" stroke="#63b8ff" points="188,-597.34 184.5,-587.34 181,-597.34 188,-597.34"/>
</g>
<!-- Node5&#45;&gt;Node6 -->
<g id="edge5" class="edge">
<title>Node5&#45;&gt;Node6</title>
<path fill="none" stroke="#63b8ff" d="M896.98,-632.1C876.01,-621.45 840.65,-603.49 816.02,-590.98"/>
<polygon fill="#63b8ff" stroke="#63b8ff" points="817.72,-587.92 807.22,-586.51 814.55,-594.16 817.72,-587.92"/>
</g>
<!-- Node9 -->
<g id="node9" class="node">
<title>Node9</title>
<g id="a_node9"><a xlink:href="mutable__set_8h.html" target="_top" xlink:title=" ">
<polygon fill="white" stroke="#666666" points="1151,-591 1020,-591 1020,-561 1151,-561 1151,-591"/>
<text text-anchor="start" x="1028" y="-579" font-family="Helvetica,sans-Serif" font-size="10.00">Generic/container/mutable</text>
<text text-anchor="middle" x="1085.5" y="-568" font-family="Helvetica,sans-Serif" font-size="10.00">_set.h</text>
</a>
</g>
</g>
<!-- Node5&#45;&gt;Node9 -->
<g id="edge8" class="edge">
<title>Node5&#45;&gt;Node9</title>
<path fill="none" stroke="#63b8ff" d="M938.28,-632.1C963.51,-622.66 1004.09,-607.47 1036.26,-595.43"/>
<polygon fill="#63b8ff" stroke="#63b8ff" points="1037.26,-598.79 1045.4,-592.01 1034.81,-592.24 1037.26,-598.79"/>
</g>
<!-- Node14 -->
<g id="node14" class="node">
<title>Node14</title>
<g id="a_node14"><a xlink:href="namecompare_8h.html" target="_top" xlink:title=" ">
<polygon fill="white" stroke="#666666" points="963.5,-585.5 877.5,-585.5 877.5,-566.5 963.5,-566.5 963.5,-585.5"/>
<text text-anchor="middle" x="920.5" y="-573.5" font-family="Helvetica,sans-Serif" font-size="10.00">namecompare.h</text>
</a>
</g>
</g>
<!-- Node5&#45;&gt;Node14 -->
<g id="edge13" class="edge">
<title>Node5&#45;&gt;Node14</title>
<path fill="none" stroke="#63b8ff" d="M915.33,-632.1C916.18,-623.12 917.51,-608.95 918.6,-597.22"/>
<polygon fill="#63b8ff" stroke="#63b8ff" points="922.08,-597.61 919.53,-587.33 915.11,-596.96 922.08,-597.61"/>
</g>
<!-- Node7 -->
<g id="node7" class="node">
<title>Node7</title>
<g id="a_node7"><a xlink:href="path_8h.html" target="_top" xlink:title=" ">
<polygon fill="white" stroke="#666666" points="679,-525 572,-525 572,-495 679,-495 679,-525"/>
<text text-anchor="start" x="580" y="-513" font-family="Helvetica,sans-Serif" font-size="10.00">Interfaces/filesystem</text>
<text text-anchor="middle" x="625.5" y="-502" font-family="Helvetica,sans-Serif" font-size="10.00">/path.h</text>
</a>
</g>
</g>
<!-- Node6&#45;&gt;Node7 -->
<g id="edge6" class="edge">
<title>Node6&#45;&gt;Node7</title>
<path fill="none" stroke="#63b8ff" d="M765.84,-566.1C741.89,-556.7 703.44,-541.6 672.83,-529.59"/>
<polygon fill="#63b8ff" stroke="#63b8ff" points="674.37,-526.43 663.78,-526.03 671.81,-532.94 674.37,-526.43"/>
</g>
<!-- Node6&#45;&gt;Node8 -->
<g id="edge7" class="edge">
<title>Node6&#45;&gt;Node8</title>
<path fill="none" stroke="#63b8ff" d="M792.67,-566.1C797.01,-556.84 803.95,-542.04 809.54,-530.11"/>
<polygon fill="#63b8ff" stroke="#63b8ff" points="812.65,-531.73 813.72,-521.19 806.31,-528.76 812.65,-531.73"/>
</g>
<!-- Node10 -->
<g id="node10" class="node">
<title>Node10</title>
<g id="a_node10"><a xlink:href="emplace_8h.html" target="_top" xlink:title=" ">
<polygon fill="white" stroke="#666666" points="1116,-519.5 1055,-519.5 1055,-500.5 1116,-500.5 1116,-519.5"/>
<text text-anchor="middle" x="1085.5" y="-507.5" font-family="Helvetica,sans-Serif" font-size="10.00">emplace.h</text>
</a>
</g>
</g>
<!-- Node9&#45;&gt;Node10 -->
<g id="edge9" class="edge">
<title>Node9&#45;&gt;Node10</title>
<path fill="none" stroke="#63b8ff" d="M1085.5,-560.8C1085.5,-552.09 1085.5,-540.81 1085.5,-531.18"/>
<polygon fill="#63b8ff" stroke="#63b8ff" points="1089,-531.36 1085.5,-521.36 1082,-531.36 1089,-531.36"/>
</g>
<!-- Node11 -->
<g id="node11" class="node">
<title>Node11</title>
<g id="a_node11"><a xlink:href="container__traits_8h.html" target="_top" xlink:title=" ">
<polygon fill="white" stroke="#666666" points="1131,-459 1040,-459 1040,-440 1131,-440 1131,-459"/>
<text text-anchor="middle" x="1085.5" y="-447" font-family="Helvetica,sans-Serif" font-size="10.00">container_traits.h</text>
</a>
</g>
</g>
<!-- Node10&#45;&gt;Node11 -->
<g id="edge10" class="edge">
<title>Node10&#45;&gt;Node11</title>
<path fill="none" stroke="#63b8ff" d="M1085.5,-500.37C1085.5,-492.5 1085.5,-480.6 1085.5,-470.39"/>
<polygon fill="#63b8ff" stroke="#63b8ff" points="1089,-470.68 1085.5,-460.68 1082,-470.68 1089,-470.68"/>
</g>
<!-- Node12 -->
<g id="node12" class="node">
<title>Node12</title>
<g id="a_node12"><a xlink:href="indextype_8h.html" target="_top" xlink:title=" ">
<polygon fill="white" stroke="#666666" points="1177.5,-404 1105.5,-404 1105.5,-385 1177.5,-385 1177.5,-404"/>
<text text-anchor="middle" x="1141.5" y="-392" font-family="Helvetica,sans-Serif" font-size="10.00">../indextype.h</text>
</a>
</g>
</g>
<!-- Node11&#45;&gt;Node12 -->
<g id="edge11" class="edge">
<title>Node11&#45;&gt;Node12</title>
<path fill="none" stroke="#63b8ff" d="M1095,-439.51C1102.93,-432 1114.45,-421.1 1124.04,-412.03"/>
<polygon fill="#63b8ff" stroke="#63b8ff" points="1126.18,-414.81 1131.04,-405.4 1121.37,-409.73 1126.18,-414.81"/>
</g>
<!-- Node13 -->
<g id="node13" class="node">
<title>Node13</title>
<g id="a_node13"><a xlink:href="underlying__container_8h.html" target="_top" xlink:title=" ">
<polygon fill="white" stroke="#666666" points="1087,-404 974,-404 974,-385 1087,-385 1087,-404"/>
<text text-anchor="middle" x="1030.5" y="-392" font-family="Helvetica,sans-Serif" font-size="10.00">underlying_container.h</text>
</a>
</g>
</g>
<!-- Node11&#45;&gt;Node13 -->
<g id="edge12" class="edge">
<title>Node11&#45;&gt;Node13</title>
<path fill="none" stroke="#63b8ff" d="M1076.42,-439.75C1068.66,-432.27 1057.29,-421.32 1047.8,-412.17"/>
<polygon fill="#63b8ff" stroke="#63b8ff" points="1050.5,-409.91 1040.87,-405.49 1045.64,-414.95 1050.5,-409.91"/>
</g>
<!-- Node15&#45;&gt;Node7 -->
<g id="edge15" class="edge">
<title>Node15&#45;&gt;Node7</title>
<path fill="none" stroke="#63b8ff" d="M446.53,-632.1C456.09,-615.91 478.36,-581.44 505.5,-561 523.15,-547.71 544.85,-537.27 564.92,-529.45"/>
<polygon fill="#63b8ff" stroke="#63b8ff" points="565.99,-532.78 574.14,-526.01 563.55,-526.23 565.99,-532.78"/>
</g>
<!-- Node16 -->
<g id="node16" class="node">
<title>Node16</title>
<g id="a_node16"><a xlink:href="task_8h.html" target="_top" xlink:title=" ">
<polygon fill="white" stroke="#666666" points="458,-585.5 365,-585.5 365,-566.5 458,-566.5 458,-585.5"/>
<text text-anchor="middle" x="411.5" y="-573.5" font-family="Helvetica,sans-Serif" font-size="10.00">../threading/task.h</text>
</a>
</g>
</g>
<!-- Node15&#45;&gt;Node16 -->
<g id="edge16" class="edge">
<title>Node15&#45;&gt;Node16</title>
<path fill="none" stroke="#63b8ff" d="M437.33,-632.1C432.99,-622.84 426.05,-608.04 420.46,-596.11"/>
<polygon fill="#63b8ff" stroke="#63b8ff" points="423.69,-594.76 416.28,-587.19 417.35,-597.73 423.69,-594.76"/>
</g>
<!-- Node46 -->
<g id="node46" class="node">
<title>Node46</title>
<g id="a_node46"><a xlink:href="dlapi_8h.html" target="_top" xlink:title=" ">
<polygon fill="white" stroke="#666666" points="347,-585.5 246,-585.5 246,-566.5 347,-566.5 347,-585.5"/>
<text text-anchor="middle" x="296.5" y="-573.5" font-family="Helvetica,sans-Serif" font-size="10.00">Interfaces/dl/dlapi.h</text>
</a>
</g>
</g>
<!-- Node15&#45;&gt;Node46 -->
<g id="edge55" class="edge">
<title>Node15&#45;&gt;Node46</title>
<path fill="none" stroke="#63b8ff" d="M421.34,-632.1C396.77,-621.26 355.04,-602.84 326.65,-590.31"/>
<polygon fill="#63b8ff" stroke="#63b8ff" points="328.44,-587.27 317.88,-586.43 325.61,-593.67 328.44,-587.27"/>
</g>
<!-- Node17 -->
<g id="node17" class="node">
<title>Node17</title>
<g id="a_node17"><a xlink:href="src_2_generic_2coroutines_2handle_8h.html" target="_top" xlink:title=" ">
<polygon fill="white" stroke="#666666" points="458.5,-525 360.5,-525 360.5,-495 458.5,-495 458.5,-525"/>
<text text-anchor="start" x="368.5" y="-513" font-family="Helvetica,sans-Serif" font-size="10.00">Generic/coroutines</text>
<text text-anchor="middle" x="409.5" y="-502" font-family="Helvetica,sans-Serif" font-size="10.00">/handle.h</text>
</a>
</g>
</g>
<!-- Node16&#45;&gt;Node17 -->
<g id="edge17" class="edge">
<title>Node16&#45;&gt;Node17</title>
<path fill="none" stroke="#63b8ff" d="M411.22,-566.1C410.98,-558.41 410.62,-546.92 410.29,-536.42"/>
<polygon fill="#63b8ff" stroke="#63b8ff" points="413.8,-536.63 409.99,-526.75 406.81,-536.85 413.8,-536.63"/>
</g>
<!-- Node18 -->
<g id="node18" class="node">
<title>Node18</title>
<g id="a_node18"><a xlink:href="taskpromise_8h.html" target="_top" xlink:title=" ">
<polygon fill="white" stroke="#666666" points="554,-519.5 477,-519.5 477,-500.5 554,-500.5 554,-519.5"/>
<text text-anchor="middle" x="515.5" y="-507.5" font-family="Helvetica,sans-Serif" font-size="10.00">taskpromise.h</text>
</a>
</g>
</g>
<!-- Node16&#45;&gt;Node18 -->
<g id="edge18" class="edge">
<title>Node16&#45;&gt;Node18</title>
<path fill="none" stroke="#63b8ff" d="M425.96,-566.1C442.88,-555.69 471.16,-538.29 491.41,-525.83"/>
<polygon fill="#63b8ff" stroke="#63b8ff" points="493.19,-528.84 499.87,-520.62 489.52,-522.88 493.19,-528.84"/>
</g>
<!-- Node19 -->
<g id="node19" class="node">
<title>Node19</title>
<g id="a_node19"><a xlink:href="taskfuture_8h.html" target="_top" xlink:title=" ">
<polygon fill="white" stroke="#666666" points="645.5,-459 577.5,-459 577.5,-440 645.5,-440 645.5,-459"/>
<text text-anchor="middle" x="611.5" y="-447" font-family="Helvetica,sans-Serif" font-size="10.00">taskfuture.h</text>
</a>
</g>
</g>
<!-- Node18&#45;&gt;Node19 -->
<g id="edge19" class="edge">
<title>Node18&#45;&gt;Node19</title>
<path fill="none" stroke="#63b8ff" d="M530.08,-500.12C545.16,-490.92 568.99,-476.41 586.98,-465.44"/>
<polygon fill="#63b8ff" stroke="#63b8ff" points="588.77,-468.45 595.49,-460.26 585.13,-462.47 588.77,-468.45"/>
</g>
<!-- Node20 -->
<g id="node20" class="node">
<title>Node20</title>
<g id="a_node20"><a xlink:href="taskhandle_8h.html" target="_top" xlink:title=" ">
<polygon fill="white" stroke="#666666" points="578,-349 507,-349 507,-330 578,-330 578,-349"/>
<text text-anchor="middle" x="542.5" y="-337" font-family="Helvetica,sans-Serif" font-size="10.00">taskhandle.h</text>
</a>
</g>
</g>
<!-- Node18&#45;&gt;Node20 -->
<g id="edge53" class="edge">
<title>Node18&#45;&gt;Node20</title>
<path fill="none" stroke="#63b8ff" d="M516.88,-500.41C521.01,-474.62 533.39,-397.32 539.3,-360.47"/>
<polygon fill="#63b8ff" stroke="#63b8ff" points="542.73,-361.19 540.85,-350.77 535.82,-360.09 542.73,-361.19"/>
</g>
<!-- Node30 -->
<g id="node30" class="node">
<title>Node30</title>
<g id="a_node30"><a xlink:href="execution_2concepts_8h.html" target="_top" xlink:title=" ">
<polygon fill="white" stroke="#666666" points="552.5,-74 488.5,-74 488.5,-55 552.5,-55 552.5,-74"/>
<text text-anchor="middle" x="520.5" y="-62" font-family="Helvetica,sans-Serif" font-size="10.00">concepts.h</text>
</a>
</g>
</g>
<!-- Node18&#45;&gt;Node30 -->
<g id="edge54" class="edge">
<title>Node18&#45;&gt;Node30</title>
<path fill="none" stroke="#63b8ff" d="M482.8,-500.05C438.94,-485.83 366.5,-453.55 366.5,-395.5 366.5,-395.5 366.5,-395.5 366.5,-173.5 366.5,-144.04 364.96,-131.12 385.5,-110 398.46,-96.67 442.94,-83.62 477.34,-75.13"/>
<polygon fill="#63b8ff" stroke="#63b8ff" points="477.73,-78.64 486.63,-72.89 476.09,-71.83 477.73,-78.64"/>
</g>
<!-- Node19&#45;&gt;Node20 -->
<g id="edge20" class="edge">
<title>Node19&#45;&gt;Node20</title>
<path fill="none" stroke="#63b8ff" d="M602.32,-439.57C593.85,-430.99 581.29,-417.4 572.5,-404 563.28,-389.95 555.3,-372.62 549.89,-359.62"/>
<polygon fill="#63b8ff" stroke="#63b8ff" points="553.21,-358.5 546.24,-350.52 546.71,-361.1 553.21,-358.5"/>
</g>
<!-- Node21 -->
<g id="node21" class="node">
<title>Node21</title>
<g id="a_node21"><a xlink:href="taskpromisesharedstate_8h.html" target="_top" xlink:title=" ">
<polygon fill="white" stroke="#666666" points="709.5,-404 581.5,-404 581.5,-385 709.5,-385 709.5,-404"/>
<text text-anchor="middle" x="645.5" y="-392" font-family="Helvetica,sans-Serif" font-size="10.00">taskpromisesharedstate.h</text>
</a>
</g>
</g>
<!-- Node19&#45;&gt;Node21 -->
<g id="edge21" class="edge">
<title>Node19&#45;&gt;Node21</title>
<path fill="none" stroke="#63b8ff" d="M617.11,-439.75C621.62,-432.73 628.09,-422.64 633.71,-413.87"/>
<polygon fill="#63b8ff" stroke="#63b8ff" points="636.49,-416.02 638.95,-405.72 630.6,-412.24 636.49,-416.02"/>
</g>
<!-- Node21&#45;&gt;Node20 -->
<g id="edge52" class="edge">
<title>Node21&#45;&gt;Node20</title>
<path fill="none" stroke="#63b8ff" d="M628.03,-384.51C612.1,-376.31 588.31,-364.07 569.86,-354.58"/>
<polygon fill="#63b8ff" stroke="#63b8ff" points="571.55,-351.51 561.06,-350.05 568.35,-357.74 571.55,-351.51"/>
</g>
<!-- Node22 -->
<g id="node22" class="node">
<title>Node22</title>
<g id="a_node22"><a xlink:href="flag_8h.html" target="_top" xlink:title=" ">
<polygon fill="white" stroke="#666666" points="716.5,-349 596.5,-349 596.5,-330 716.5,-330 716.5,-349"/>
<text text-anchor="middle" x="656.5" y="-337" font-family="Helvetica,sans-Serif" font-size="10.00">Generic/execution/flag.h</text>
</a>
</g>
</g>
<!-- Node21&#45;&gt;Node22 -->
<g id="edge22" class="edge">
<title>Node21&#45;&gt;Node22</title>
<path fill="none" stroke="#63b8ff" d="M647.32,-384.75C648.68,-378.19 650.6,-368.95 652.33,-360.6"/>
<polygon fill="#63b8ff" stroke="#63b8ff" points="655.73,-361.43 654.34,-350.92 648.88,-360 655.73,-361.43"/>
</g>
<!-- Node23 -->
<g id="node23" class="node">
<title>Node23</title>
<g id="a_node23"><a xlink:href="flagstub_8h.html" target="_top" xlink:title=" ">
<polygon fill="white" stroke="#666666" points="685.5,-294 627.5,-294 627.5,-275 685.5,-275 685.5,-294"/>
<text text-anchor="middle" x="656.5" y="-282" font-family="Helvetica,sans-Serif" font-size="10.00">flagstub.h</text>
</a>
</g>
</g>
<!-- Node22&#45;&gt;Node23 -->
<g id="edge23" class="edge">
<title>Node22&#45;&gt;Node23</title>
<path fill="none" stroke="#63b8ff" d="M656.5,-329.75C656.5,-323.27 656.5,-314.16 656.5,-305.9"/>
<polygon fill="#63b8ff" stroke="#63b8ff" points="660,-305.96 656.5,-295.96 653,-305.96 660,-305.96"/>
</g>
<!-- Node24 -->
<g id="node24" class="node">
<title>Node24</title>
<g id="a_node24"><a xlink:href="algorithm_8h.html" target="_top" xlink:title=" ">
<polygon fill="white" stroke="#666666" points="770.5,-239 706.5,-239 706.5,-220 770.5,-220 770.5,-239"/>
<text text-anchor="middle" x="738.5" y="-227" font-family="Helvetica,sans-Serif" font-size="10.00">algorithm.h</text>
</a>
</g>
</g>
<!-- Node23&#45;&gt;Node24 -->
<g id="edge24" class="edge">
<title>Node23&#45;&gt;Node24</title>
<path fill="none" stroke="#63b8ff" d="M670.41,-274.51C682.74,-266.54 700.97,-254.75 715.47,-245.38"/>
<polygon fill="#63b8ff" stroke="#63b8ff" points="717.03,-248.55 723.52,-240.18 713.23,-242.67 717.03,-248.55"/>
</g>
<!-- Node32 -->
<g id="node32" class="node">
<title>Node32</title>
<g id="a_node32"><a xlink:href="connection_8h.html" target="_top" xlink:title=" ">
<polygon fill="white" stroke="#666666" points="487,-239 416,-239 416,-220 487,-220 487,-239"/>
<text text-anchor="middle" x="451.5" y="-227" font-family="Helvetica,sans-Serif" font-size="10.00">connection.h</text>
</a>
</g>
</g>
<!-- Node23&#45;&gt;Node32 -->
<g id="edge32" class="edge">
<title>Node23&#45;&gt;Node32</title>
<path fill="none" stroke="#63b8ff" d="M627.13,-275.91C593.2,-267.13 536.96,-252.6 497.28,-242.34"/>
<polygon fill="#63b8ff" stroke="#63b8ff" points="498.33,-238.99 487.77,-239.88 496.58,-245.77 498.33,-238.99"/>
</g>
<!-- Node37 -->
<g id="node37" class="node">
<title>Node37</title>
<g id="a_node37"><a xlink:href="virtualsender_8h.html" target="_top" xlink:title=" ">
<polygon fill="white" stroke="#666666" points="512.5,-184 432.5,-184 432.5,-165 512.5,-165 512.5,-184"/>
<text text-anchor="middle" x="472.5" y="-172" font-family="Helvetica,sans-Serif" font-size="10.00">virtualsender.h</text>
</a>
</g>
</g>
<!-- Node23&#45;&gt;Node37 -->
<g id="edge50" class="edge">
<title>Node23&#45;&gt;Node37</title>
<path fill="none" stroke="#63b8ff" d="M656.28,-274.75C655.46,-261.09 651.84,-234.73 636.5,-220 628.19,-212.02 568.92,-197.2 524,-186.87"/>
<polygon fill="#63b8ff" stroke="#63b8ff" points="524.93,-183.49 514.41,-184.68 523.38,-190.31 524.93,-183.49"/>
</g>
<!-- Node42 -->
<g id="node42" class="node">
<title>Node42</title>
<g id="a_node42"><a xlink:href="execution_8h.html" target="_top" xlink:title=" ">
<polygon fill="white" stroke="#666666" points="1002,-239 937,-239 937,-220 1002,-220 1002,-239"/>
<text text-anchor="middle" x="969.5" y="-227" font-family="Helvetica,sans-Serif" font-size="10.00">execution.h</text>
</a>
</g>
</g>
<!-- Node23&#45;&gt;Node42 -->
<g id="edge45" class="edge">
<title>Node23&#45;&gt;Node42</title>
<path fill="none" stroke="#63b8ff" d="M685.95,-278.51C741.22,-269.15 860.76,-248.91 925.57,-237.94"/>
<polygon fill="#63b8ff" stroke="#63b8ff" points="925.86,-241.44 935.14,-236.32 924.69,-234.54 925.86,-241.44"/>
</g>
<!-- Node45 -->
<g id="node45" class="node">
<title>Node45</title>
<g id="a_node45"><a xlink:href="stack_8h.html" target="_top" xlink:title=" ">
<polygon fill="white" stroke="#666666" points="628,-239 537,-239 537,-220 628,-220 628,-239"/>
<text text-anchor="middle" x="582.5" y="-227" font-family="Helvetica,sans-Serif" font-size="10.00">container/stack.h</text>
</a>
</g>
</g>
<!-- Node23&#45;&gt;Node45 -->
<g id="edge51" class="edge">
<title>Node23&#45;&gt;Node45</title>
<path fill="none" stroke="#63b8ff" d="M643.95,-274.51C633.04,-266.7 617,-255.21 604.04,-245.93"/>
<polygon fill="#63b8ff" stroke="#63b8ff" points="606.27,-243.22 596.1,-240.24 602.19,-248.91 606.27,-243.22"/>
</g>
<!-- Node25 -->
<g id="node25" class="node">
<title>Node25</title>
<g id="a_node25"><a xlink:href="delayedconstruct_8h.html" target="_top" xlink:title=" ">
<polygon fill="white" stroke="#666666" points="716,-184 611,-184 611,-165 716,-165 716,-184"/>
<text text-anchor="middle" x="663.5" y="-172" font-family="Helvetica,sans-Serif" font-size="10.00">../delayedconstruct.h</text>
</a>
</g>
</g>
<!-- Node24&#45;&gt;Node25 -->
<g id="edge25" class="edge">
<title>Node24&#45;&gt;Node25</title>
<path fill="none" stroke="#63b8ff" d="M725.78,-219.51C714.72,-211.7 698.46,-200.21 685.33,-190.93"/>
<polygon fill="#63b8ff" stroke="#63b8ff" points="687.46,-188.14 677.27,-185.23 683.42,-193.86 687.46,-188.14"/>
</g>
<!-- Node27 -->
<g id="node27" class="node">
<title>Node27</title>
<g id="a_node27"><a xlink:href="manuallifetime_8h.html" target="_top" xlink:title=" ">
<polygon fill="white" stroke="#666666" points="829,-184 734,-184 734,-165 829,-165 829,-184"/>
<text text-anchor="middle" x="781.5" y="-172" font-family="Helvetica,sans-Serif" font-size="10.00">../manuallifetime.h</text>
</a>
</g>
</g>
<!-- Node24&#45;&gt;Node27 -->
<g id="edge27" class="edge">
<title>Node24&#45;&gt;Node27</title>
<path fill="none" stroke="#63b8ff" d="M745.6,-219.75C751.42,-212.58 759.83,-202.2 767.06,-193.3"/>
<polygon fill="#63b8ff" stroke="#63b8ff" points="769.71,-195.59 773.29,-185.62 764.27,-191.18 769.71,-195.59"/>
</g>
<!-- Node28 -->
<g id="node28" class="node">
<title>Node28</title>
<g id="a_node28"><a xlink:href="pipable_8h.html" target="_top" xlink:title=" ">
<polygon fill="white" stroke="#666666" points="592.5,-184 530.5,-184 530.5,-165 592.5,-165 592.5,-184"/>
<text text-anchor="middle" x="561.5" y="-172" font-family="Helvetica,sans-Serif" font-size="10.00">../pipable.h</text>
</a>
</g>
</g>
<!-- Node24&#45;&gt;Node28 -->
<g id="edge28" class="edge">
<title>Node24&#45;&gt;Node28</title>
<path fill="none" stroke="#63b8ff" d="M708.47,-219.51C679.27,-210.76 634.69,-197.42 602.29,-187.71"/>
<polygon fill="#63b8ff" stroke="#63b8ff" points="603.41,-184.4 592.83,-184.88 601.4,-191.1 603.41,-184.4"/>
</g>
<!-- Node24&#45;&gt;Node30 -->
<g id="edge30" class="edge">
<title>Node24&#45;&gt;Node30</title>
<path fill="none" stroke="#63b8ff" d="M770.78,-221.63C806.61,-212.43 857,-193.84 837.5,-165 806.44,-119.06 643.18,-85.99 563.85,-72.38"/>
<polygon fill="#63b8ff" stroke="#63b8ff" points="564.72,-68.98 554.28,-70.77 563.55,-75.88 564.72,-68.98"/>
</g>
<!-- Node31 -->
<g id="node31" class="node">
<title>Node31</title>
<g id="a_node31"><a xlink:href="storage_8h.html" target="_top" xlink:title=" ">
<polygon fill="white" stroke="#666666" points="941.5,-184 885.5,-184 885.5,-165 941.5,-165 941.5,-184"/>
<text text-anchor="middle" x="913.5" y="-172" font-family="Helvetica,sans-Serif" font-size="10.00">storage.h</text>
</a>
</g>
</g>
<!-- Node24&#45;&gt;Node31 -->
<g id="edge31" class="edge">
<title>Node24&#45;&gt;Node31</title>
<path fill="none" stroke="#63b8ff" d="M768.19,-219.51C797.41,-210.66 842.2,-197.09 874.33,-187.36"/>
<polygon fill="#63b8ff" stroke="#63b8ff" points="875.12,-190.78 883.67,-184.53 873.09,-184.08 875.12,-190.78"/>
</g>
<!-- Node26 -->
<g id="node26" class="node">
<title>Node26</title>
<g id="a_node26"><a xlink:href="closure_8h.html" target="_top" xlink:title=" ">
<polygon fill="white" stroke="#666666" points="691.5,-129 635.5,-129 635.5,-110 691.5,-110 691.5,-129"/>
<text text-anchor="middle" x="663.5" y="-117" font-family="Helvetica,sans-Serif" font-size="10.00">closure.h</text>
</a>
</g>
</g>
<!-- Node25&#45;&gt;Node26 -->
<g id="edge26" class="edge">
<title>Node25&#45;&gt;Node26</title>
<path fill="none" stroke="#63b8ff" d="M663.5,-164.75C663.5,-158.27 663.5,-149.16 663.5,-140.9"/>
<polygon fill="#63b8ff" stroke="#63b8ff" points="667,-140.96 663.5,-130.96 660,-140.96 667,-140.96"/>
</g>
<!-- Node29 -->
<g id="node29" class="node">
<title>Node29</title>
<g id="a_node29"><a xlink:href="lift_8h.html" target="_top" xlink:title=" ">
<polygon fill="white" stroke="#666666" points="591,-129 556,-129 556,-110 591,-110 591,-129"/>
<text text-anchor="middle" x="573.5" y="-117" font-family="Helvetica,sans-Serif" font-size="10.00">lift.h</text>
</a>
</g>
</g>
<!-- Node28&#45;&gt;Node29 -->
<g id="edge29" class="edge">
<title>Node28&#45;&gt;Node29</title>
<path fill="none" stroke="#63b8ff" d="M563.48,-164.75C564.97,-158.19 567.06,-148.95 568.95,-140.6"/>
<polygon fill="#63b8ff" stroke="#63b8ff" points="572.35,-141.44 571.14,-130.92 565.52,-139.9 572.35,-141.44"/>
</g>
<!-- Node33 -->
<g id="node33" class="node">
<title>Node33</title>
<g id="a_node33"><a xlink:href="genericresult_8h.html" target="_top" xlink:title=" ">
<polygon fill="white" stroke="#666666" points="330,-184 243,-184 243,-165 330,-165 330,-184"/>
<text text-anchor="middle" x="286.5" y="-172" font-family="Helvetica,sans-Serif" font-size="10.00">../genericresult.h</text>
</a>
</g>
</g>
<!-- Node32&#45;&gt;Node33 -->
<g id="edge33" class="edge">
<title>Node32&#45;&gt;Node33</title>
<path fill="none" stroke="#63b8ff" d="M423.51,-219.51C396.41,-210.8 355.09,-197.53 324.92,-187.84"/>
<polygon fill="#63b8ff" stroke="#63b8ff" points="326.38,-184.64 315.79,-184.91 324.24,-191.3 326.38,-184.64"/>
</g>
<!-- Node32&#45;&gt;Node37 -->
<g id="edge37" class="edge">
<title>Node32&#45;&gt;Node37</title>
<path fill="none" stroke="#63b8ff" d="M454.97,-219.75C457.63,-213.04 461.4,-203.52 464.76,-195.02"/>
<polygon fill="#63b8ff" stroke="#63b8ff" points="467.97,-196.44 468.4,-185.85 461.46,-193.86 467.97,-196.44"/>
</g>
<!-- Node39 -->
<g id="node39" class="node">
<title>Node39</title>
<g id="a_node39"><a xlink:href="virtualstate_8h.html" target="_top" xlink:title=" ">
<polygon fill="white" stroke="#666666" points="466.5,-129 394.5,-129 394.5,-110 466.5,-110 466.5,-129"/>
<text text-anchor="middle" x="430.5" y="-117" font-family="Helvetica,sans-Serif" font-size="10.00">virtualstate.h</text>
</a>
</g>
</g>
<!-- Node32&#45;&gt;Node39 -->
<g id="edge44" class="edge">
<title>Node32&#45;&gt;Node39</title>
<path fill="none" stroke="#63b8ff" d="M443.83,-219.7C436.98,-211.21 427.45,-197.68 423.5,-184 419.35,-169.63 421.52,-152.77 424.5,-140.04"/>
<polygon fill="#63b8ff" stroke="#63b8ff" points="427.77,-141.34 427.02,-130.77 421.02,-139.5 427.77,-141.34"/>
</g>
<!-- Node34 -->
<g id="node34" class="node">
<title>Node34</title>
<g id="a_node34"><a xlink:href="enum_8h.html" target="_top" xlink:title=" ">
<polygon fill="white" stroke="#666666" points="310.5,-129 262.5,-129 262.5,-110 310.5,-110 310.5,-129"/>
<text text-anchor="middle" x="286.5" y="-117" font-family="Helvetica,sans-Serif" font-size="10.00">enum.h</text>
</a>
</g>
</g>
<!-- Node33&#45;&gt;Node34 -->
<g id="edge34" class="edge">
<title>Node33&#45;&gt;Node34</title>
<path fill="none" stroke="#63b8ff" d="M286.5,-164.75C286.5,-158.27 286.5,-149.16 286.5,-140.9"/>
<polygon fill="#63b8ff" stroke="#63b8ff" points="290,-140.96 286.5,-130.96 283,-140.96 290,-140.96"/>
</g>
<!-- Node35 -->
<g id="node35" class="node">
<title>Node35</title>
<g id="a_node35"><a xlink:href="array_8h.html" target="_top" xlink:title=" ">
<polygon fill="white" stroke="#666666" points="318.5,-74 254.5,-74 254.5,-55 318.5,-55 318.5,-74"/>
<text text-anchor="middle" x="286.5" y="-62" font-family="Helvetica,sans-Serif" font-size="10.00">bits/array.h</text>
</a>
</g>
</g>
<!-- Node34&#45;&gt;Node35 -->
<g id="edge35" class="edge">
<title>Node34&#45;&gt;Node35</title>
<path fill="none" stroke="#63b8ff" d="M286.5,-109.75C286.5,-103.27 286.5,-94.16 286.5,-85.9"/>
<polygon fill="#63b8ff" stroke="#63b8ff" points="290,-85.96 286.5,-75.96 283,-85.96 290,-85.96"/>
</g>
<!-- Node36 -->
<g id="node36" class="node">
<title>Node36</title>
<g id="a_node36"><a xlink:href="types_8h.html" target="_top" xlink:title=" ">
<polygon fill="white" stroke="#666666" points="310,-19 263,-19 263,0 310,0 310,-19"/>
<text text-anchor="middle" x="286.5" y="-7" font-family="Helvetica,sans-Serif" font-size="10.00">types.h</text>
</a>
</g>
</g>
<!-- Node35&#45;&gt;Node36 -->
<g id="edge36" class="edge">
<title>Node35&#45;&gt;Node36</title>
<path fill="none" stroke="#63b8ff" d="M286.5,-54.75C286.5,-48.27 286.5,-39.16 286.5,-30.9"/>
<polygon fill="#63b8ff" stroke="#63b8ff" points="290,-30.96 286.5,-20.96 283,-30.96 290,-30.96"/>
</g>
<!-- Node38 -->
<g id="node38" class="node">
<title>Node38</title>
<g id="a_node38"><a xlink:href="src_2_generic_2execution_2sender_8h.html" target="_top" xlink:title=" ">
<polygon fill="white" stroke="#666666" points="538,-129 485,-129 485,-110 538,-110 538,-129"/>
<text text-anchor="middle" x="511.5" y="-117" font-family="Helvetica,sans-Serif" font-size="10.00">sender.h</text>
</a>
</g>
</g>
<!-- Node37&#45;&gt;Node38 -->
<g id="edge38" class="edge">
<title>Node37&#45;&gt;Node38</title>
<path fill="none" stroke="#63b8ff" d="M478.94,-164.75C484.16,-157.66 491.69,-147.42 498.19,-138.59"/>
<polygon fill="#63b8ff" stroke="#63b8ff" points="500.92,-140.79 504.02,-130.66 495.28,-136.64 500.92,-140.79"/>
</g>
<!-- Node37&#45;&gt;Node39 -->
<g id="edge40" class="edge">
<title>Node37&#45;&gt;Node39</title>
<path fill="none" stroke="#63b8ff" d="M465.56,-164.75C459.88,-157.58 451.66,-147.2 444.61,-138.3"/>
<polygon fill="#63b8ff" stroke="#63b8ff" points="447.48,-136.29 438.53,-130.63 441.99,-140.64 447.48,-136.29"/>
</g>
<!-- Node38&#45;&gt;Node30 -->
<g id="edge39" class="edge">
<title>Node38&#45;&gt;Node30</title>
<path fill="none" stroke="#63b8ff" d="M512.99,-109.75C514.1,-103.19 515.67,-93.95 517.09,-85.6"/>
<polygon fill="#63b8ff" stroke="#63b8ff" points="520.5,-86.38 518.73,-75.93 513.6,-85.21 520.5,-86.38"/>
</g>
<!-- Node39&#45;&gt;Node30 -->
<g id="edge41" class="edge">
<title>Node39&#45;&gt;Node30</title>
<path fill="none" stroke="#63b8ff" d="M445.77,-109.51C459.43,-101.47 479.7,-89.53 495.68,-80.11"/>
<polygon fill="#63b8ff" stroke="#63b8ff" points="497.31,-83.22 504.15,-75.13 493.76,-77.18 497.31,-83.22"/>
</g>
<!-- Node40 -->
<g id="node40" class="node">
<title>Node40</title>
<g id="a_node40"><a xlink:href="virtual__invoke_8h.html" target="_top" xlink:title=" ">
<polygon fill="white" stroke="#666666" points="470,-74 349,-74 349,-55 470,-55 470,-74"/>
<text text-anchor="middle" x="409.5" y="-62" font-family="Helvetica,sans-Serif" font-size="10.00">Generic/virtual_invoke.h</text>
</a>
</g>
</g>
<!-- Node39&#45;&gt;Node40 -->
<g id="edge42" class="edge">
<title>Node39&#45;&gt;Node40</title>
<path fill="none" stroke="#63b8ff" d="M427.03,-109.75C424.37,-103.04 420.6,-93.52 417.24,-85.02"/>
<polygon fill="#63b8ff" stroke="#63b8ff" points="420.54,-83.86 413.6,-75.85 414.03,-86.44 420.54,-83.86"/>
</g>
<!-- Node41 -->
<g id="node41" class="node">
<title>Node41</title>
<g id="a_node41"><a xlink:href="callable__traits_8h.html" target="_top" xlink:title=" ">
<polygon fill="white" stroke="#666666" points="451.5,-19 367.5,-19 367.5,0 451.5,0 451.5,-19"/>
<text text-anchor="middle" x="409.5" y="-7" font-family="Helvetica,sans-Serif" font-size="10.00">callable_traits.h</text>
</a>
</g>
</g>
<!-- Node40&#45;&gt;Node41 -->
<g id="edge43" class="edge">
<title>Node40&#45;&gt;Node41</title>
<path fill="none" stroke="#63b8ff" d="M409.5,-54.75C409.5,-48.27 409.5,-39.16 409.5,-30.9"/>
<polygon fill="#63b8ff" stroke="#63b8ff" points="413,-30.96 409.5,-20.96 406,-30.96 413,-30.96"/>
</g>
<!-- Node42&#45;&gt;Node30 -->
<g id="edge48" class="edge">
<title>Node42&#45;&gt;Node30</title>
<path fill="none" stroke="#63b8ff" d="M969.37,-219.83C968.7,-206.26 965.4,-180.04 950.5,-165 896.34,-110.35 662.51,-80.21 564.25,-69.76"/>
<polygon fill="#63b8ff" stroke="#63b8ff" points="564.77,-66.29 554.47,-68.74 564.05,-73.25 564.77,-66.29"/>
</g>
<!-- Node42&#45;&gt;Node31 -->
<g id="edge49" class="edge">
<title>Node42&#45;&gt;Node31</title>
<path fill="none" stroke="#63b8ff" d="M960,-219.51C952.07,-212 940.55,-201.1 930.96,-192.03"/>
<polygon fill="#63b8ff" stroke="#63b8ff" points="933.63,-189.73 923.96,-185.4 928.82,-194.81 933.63,-189.73"/>
</g>
<!-- Node43 -->
<g id="node43" class="node">
<title>Node43</title>
<g id="a_node43"><a xlink:href="makeowning_8h.html" target="_top" xlink:title=" ">
<polygon fill="white" stroke="#666666" points="1083.5,-184 997.5,-184 997.5,-165 1083.5,-165 1083.5,-184"/>
<text text-anchor="middle" x="1040.5" y="-172" font-family="Helvetica,sans-Serif" font-size="10.00">../makeowning.h</text>
</a>
</g>
</g>
<!-- Node42&#45;&gt;Node43 -->
<g id="edge46" class="edge">
<title>Node42&#45;&gt;Node43</title>
<path fill="none" stroke="#63b8ff" d="M981.54,-219.51C991.91,-211.77 1007.1,-200.43 1019.47,-191.2"/>
<polygon fill="#63b8ff" stroke="#63b8ff" points="1021.5,-194.05 1027.42,-185.26 1017.31,-188.44 1021.5,-194.05"/>
</g>
<!-- Node44 -->
<g id="node44" class="node">
<title>Node44</title>
<g id="a_node44"><a xlink:href="withresult_8h.html" target="_top" xlink:title=" ">
<polygon fill="white" stroke="#666666" points="1175.5,-184 1101.5,-184 1101.5,-165 1175.5,-165 1175.5,-184"/>
<text text-anchor="middle" x="1138.5" y="-172" font-family="Helvetica,sans-Serif" font-size="10.00">../withresult.h</text>
</a>
</g>
</g>
<!-- Node42&#45;&gt;Node44 -->
<g id="edge47" class="edge">
<title>Node42&#45;&gt;Node44</title>
<path fill="none" stroke="#63b8ff" d="M998.17,-219.51C1025.93,-210.8 1068.25,-197.53 1099.15,-187.84"/>
<polygon fill="#63b8ff" stroke="#63b8ff" points="1100.03,-191.23 1108.53,-184.9 1097.94,-184.55 1100.03,-191.23"/>
</g>
<!-- Node46&#45;&gt;Node7 -->
<g id="edge56" class="edge">
<title>Node46&#45;&gt;Node7</title>
<path fill="none" stroke="#63b8ff" d="M332.62,-566.06C340.16,-564.3 348.08,-562.53 355.5,-561 443.49,-542.93 468.98,-543.09 560.4,-525.35"/>
<polygon fill="#63b8ff" stroke="#63b8ff" points="560.95,-528.81 570.09,-523.45 559.61,-521.94 560.95,-528.81"/>
</g>
<!-- Node46&#45;&gt;Node33 -->
<g id="edge57" class="edge">
<title>Node46&#45;&gt;Node33</title>
<path fill="none" stroke="#63b8ff" d="M283.11,-566.31C270.49,-557.42 252.01,-542.47 241.5,-525 223.89,-495.71 222.5,-484.67 222.5,-450.5 222.5,-450.5 222.5,-450.5 222.5,-283.5 222.5,-247.02 249.86,-212.08 268.8,-192.26"/>
<polygon fill="#63b8ff" stroke="#63b8ff" points="271.12,-194.88 275.71,-185.33 266.17,-189.94 271.12,-194.88"/>
</g>
<!-- Node47 -->
<g id="node47" class="node">
<title>Node47</title>
<g id="a_node47"><a xlink:href="functor_8h.html" target="_top" xlink:title=" ">
<polygon fill="white" stroke="#666666" points="342,-519.5 251,-519.5 251,-500.5 342,-500.5 342,-519.5"/>
<text text-anchor="middle" x="296.5" y="-507.5" font-family="Helvetica,sans-Serif" font-size="10.00">Generic/functor.h</text>
</a>
</g>
</g>
<!-- Node46&#45;&gt;Node47 -->
<g id="edge58" class="edge">
<title>Node46&#45;&gt;Node47</title>
<path fill="none" stroke="#63b8ff" d="M296.5,-566.1C296.5,-557.12 296.5,-542.95 296.5,-531.22"/>
<polygon fill="#63b8ff" stroke="#63b8ff" points="300,-531.34 296.5,-521.34 293,-531.34 300,-531.34"/>
</g>
<!-- Node49 -->
<g id="node49" class="node">
<title>Node49</title>
<g id="a_node49"><a xlink:href="filequery_8h.html" target="_top" xlink:title=" ">
<polygon fill="white" stroke="#666666" points="628,-585.5 515,-585.5 515,-566.5 628,-566.5 628,-585.5"/>
<text text-anchor="middle" x="571.5" y="-573.5" font-family="Helvetica,sans-Serif" font-size="10.00">../filesystem/filequery.h</text>
</a>
</g>
</g>
<!-- Node48&#45;&gt;Node49 -->
<g id="edge60" class="edge">
<title>Node48&#45;&gt;Node49</title>
<path fill="none" stroke="#63b8ff" d="M571.5,-632.1C571.5,-623.12 571.5,-608.95 571.5,-597.22"/>
<polygon fill="#63b8ff" stroke="#63b8ff" points="575,-597.34 571.5,-587.34 568,-597.34 575,-597.34"/>
</g>
<!-- Node49&#45;&gt;Node7 -->
<g id="edge61" class="edge">
<title>Node49&#45;&gt;Node7</title>
<path fill="none" stroke="#63b8ff" d="M579.01,-566.1C586.05,-557.75 596.88,-544.92 606.32,-533.73"/>
<polygon fill="#63b8ff" stroke="#63b8ff" points="608.74,-536.29 612.51,-526.39 603.39,-531.78 608.74,-536.29"/>
</g>
<!-- Node51 -->
<g id="node51" class="node">
<title>Node51</title>
<g id="a_node51"><a xlink:href="comparator__traits_8h.html" target="_top" xlink:title=" ">
<polygon fill="white" stroke="#666666" points="1269.5,-585.5 1169.5,-585.5 1169.5,-566.5 1269.5,-566.5 1269.5,-585.5"/>
<text text-anchor="middle" x="1219.5" y="-573.5" font-family="Helvetica,sans-Serif" font-size="10.00">comparator_traits.h</text>
</a>
</g>
</g>
<!-- Node50&#45;&gt;Node51 -->
<g id="edge63" class="edge">
<title>Node50&#45;&gt;Node51</title>
<path fill="none" stroke="#63b8ff" d="M1137.71,-632.1C1153.02,-621.78 1178.52,-604.61 1196.98,-592.17"/>
<polygon fill="#63b8ff" stroke="#63b8ff" points="1198.81,-595.16 1205.15,-586.67 1194.9,-589.35 1198.81,-595.16"/>
</g>
<!-- Node52&#45;&gt;Node9 -->
<g id="edge67" class="edge">
<title>Node52&#45;&gt;Node9</title>
<path fill="none" stroke="#63b8ff" d="M1026.09,-632.1C1035.21,-623.64 1049.3,-610.58 1061.47,-599.29"/>
<polygon fill="#63b8ff" stroke="#63b8ff" points="1063.83,-601.87 1068.78,-592.51 1059.07,-596.74 1063.83,-601.87"/>
</g>
<!-- Node52&#45;&gt;Node14 -->
<g id="edge68" class="edge">
<title>Node52&#45;&gt;Node14</title>
<path fill="none" stroke="#63b8ff" d="M1003.15,-632.1C987.68,-621.78 961.91,-604.61 943.26,-592.17"/>
<polygon fill="#63b8ff" stroke="#63b8ff" points="945.26,-589.3 934.99,-586.66 941.37,-595.12 945.26,-589.3"/>
</g>
<!-- Node52&#45;&gt;Node19 -->
<g id="edge66" class="edge">
<title>Node52&#45;&gt;Node19</title>
<path fill="none" stroke="#63b8ff" d="M1013.43,-632.09C1007.58,-616.19 993.52,-582.57 972.5,-561 931.91,-519.35 914.07,-515.11 859.5,-495 791.53,-469.95 707.72,-458.69 657.01,-453.86"/>
<polygon fill="#63b8ff" stroke="#63b8ff" points="657.56,-450.39 647.29,-452.98 656.93,-457.37 657.56,-450.39"/>
</g>
<!-- Node54&#45;&gt;Node49 -->
<g id="edge73" class="edge">
<title>Node54&#45;&gt;Node49</title>
<path fill="none" stroke="#63b8ff" d="M670.77,-626.64C649.56,-616.03 620.82,-601.66 599.73,-591.11"/>
<polygon fill="#63b8ff" stroke="#63b8ff" points="601.33,-588 590.83,-586.66 598.2,-594.27 601.33,-588"/>
</g>
<!-- Node55 -->
<g id="node55" class="node">
<title>Node55</title>
<g id="a_node55"><a xlink:href="stream_8h.html" target="_top" xlink:title=" ">
<polygon fill="white" stroke="#666666" points="737,-585.5 646,-585.5 646,-566.5 737,-566.5 737,-585.5"/>
<text text-anchor="middle" x="691.5" y="-573.5" font-family="Helvetica,sans-Serif" font-size="10.00">Generic/stream.h</text>
</a>
</g>
</g>
<!-- Node54&#45;&gt;Node55 -->
<g id="edge72" class="edge">
<title>Node54&#45;&gt;Node55</title>
<path fill="none" stroke="#63b8ff" d="M697.72,-626.8C696.64,-618.09 695.23,-606.81 694.02,-597.18"/>
<polygon fill="#63b8ff" stroke="#63b8ff" points="697.51,-596.83 692.79,-587.35 690.56,-597.7 697.51,-596.83"/>
</g>
<!-- Node57 -->
<g id="node57" class="node">
<title>Node57</title>
<g id="a_node57"><a xlink:href="pluginlocal_8h.html" target="_top" xlink:title=" ">
<polygon fill="white" stroke="#666666" points="1396.5,-585.5 1326.5,-585.5 1326.5,-566.5 1396.5,-566.5 1396.5,-585.5"/>
<text text-anchor="middle" x="1361.5" y="-573.5" font-family="Helvetica,sans-Serif" font-size="10.00">pluginlocal.h</text>
</a>
</g>
</g>
<!-- Node56&#45;&gt;Node57 -->
<g id="edge75" class="edge">
<title>Node56&#45;&gt;Node57</title>
<path fill="none" stroke="#63b8ff" d="M1361.5,-632.1C1361.5,-623.12 1361.5,-608.95 1361.5,-597.22"/>
<polygon fill="#63b8ff" stroke="#63b8ff" points="1365,-597.34 1361.5,-587.34 1358,-597.34 1365,-597.34"/>
</g>
</g>
</svg>
