<?xml version="1.0" encoding="UTF-8" standalone="no"?>
<!DOCTYPE svg PUBLIC "-//W3C//DTD SVG 1.1//EN"
 "http://www.w3.org/Graphics/SVG/1.1/DTD/svg11.dtd">
<!-- Generated by graphviz version 7.0.5 (20221223.1930)
 -->
<!-- Title: src/Modules/plugins/pluginsection.h Pages: 1 -->
<!--zoomable 544 -->
<svg id="main" version="1.1" xmlns="http://www.w3.org/2000/svg" xmlns:xlink="http://www.w3.org/1999/xlink" xml:space="preserve" onload="init(evt)">
<style type="text/css"><![CDATA[
.edge:hover path { stroke: red; }
.edge:hover polygon { stroke: red; fill: red; }
]]></style>
<script type="text/javascript"><![CDATA[
var edges = document.getElementsByTagName('g');
if (edges && edges.length) {
  for (var i=0;i<edges.length;i++) {
    if (edges[i].id.substr(0,4)=='edge') {
      edges[i].setAttribute('class','edge');
    }
  }
}
]]></script>
        <defs>
                <circle id="rim" cx="0" cy="0" r="7"/>
                <circle id="rim2" cx="0" cy="0" r="3.5"/>
                <g id="zoomPlus">
                        <use xlink:href="#rim" fill="#404040">
                                <set attributeName="fill" to="#808080" begin="zoomplus.mouseover" end="zoomplus.mouseout"/>
                        </use>
                        <path d="M-4,0h8M0,-4v8" fill="none" stroke="white" stroke-width="1.5" pointer-events="none"/>
                </g>
                <g id="zoomMin">
                        <use xlink:href="#rim" fill="#404040">
                                <set attributeName="fill" to="#808080" begin="zoomminus.mouseover" end="zoomminus.mouseout"/>
                        </use>
                        <path d="M-4,0h8" fill="none" stroke="white" stroke-width="1.5" pointer-events="none"/>
                </g>
                <g id="dirArrow">
                        <path fill="none" stroke="white" stroke-width="1.5" d="M0,-3.0v7 M-2.5,-0.5L0,-3.0L2.5,-0.5"/>
                </g>
               <g id="resetDef">
                       <use xlink:href="#rim2" fill="#404040">
                               <set attributeName="fill" to="#808080" begin="reset.mouseover" end="reset.mouseout"/>
                       </use>
               </g>
        </defs>

<script type="text/javascript">
var viewWidth = 902;
var viewHeight = 544;
var sectionId = 'dynsection-0';
</script>
<script xlink:href="svgpan.js"/>
<svg id="graph" class="graph">
<g id="viewport">
<title>src/Modules/plugins/pluginsection.h</title>
<!-- Node1 -->
<g id="node1" class="node">
<title>Node1</title>
<g id="a_node1"><a xlink:title=" ">
<polygon fill="#999999" stroke="#666666" points="775.5,-536 671.5,-536 671.5,-506 775.5,-506 775.5,-536"/>
<text text-anchor="start" x="679.5" y="-524" font-family="Helvetica,sans-Serif" font-size="10.00">src/Modules/plugins</text>
<text text-anchor="middle" x="723.5" y="-513" font-family="Helvetica,sans-Serif" font-size="10.00">/pluginsection.h</text>
</a>
</g>
</g>
<!-- Node2 -->
<g id="node2" class="node">
<title>Node2</title>
<g id="a_node2"><a xlink:href="taskfuture_8h.html" target="_top" xlink:title=" ">
<polygon fill="white" stroke="#666666" points="639.5,-464.5 521.5,-464.5 521.5,-445.5 639.5,-445.5 639.5,-464.5"/>
<text text-anchor="middle" x="580.5" y="-452.5" font-family="Helvetica,sans-Serif" font-size="10.00">../threading/taskfuture.h</text>
</a>
</g>
</g>
<!-- Node1&#45;&gt;Node2 -->
<g id="edge1" class="edge">
<title>Node1&#45;&gt;Node2</title>
<path fill="none" stroke="#63b8ff" d="M691.41,-505.64C667.38,-494.88 634.72,-480.27 611.07,-469.68"/>
<polygon fill="#63b8ff" stroke="#63b8ff" points="612.52,-466.49 601.96,-465.6 609.66,-472.88 612.52,-466.49"/>
</g>
<!-- Node29 -->
<g id="node29" class="node">
<title>Node29</title>
<g id="a_node29"><a xlink:href="mutable__set_8h.html" target="_top" xlink:title=" ">
<polygon fill="white" stroke="#666666" points="789,-470 658,-470 658,-440 789,-440 789,-470"/>
<text text-anchor="start" x="666" y="-458" font-family="Helvetica,sans-Serif" font-size="10.00">Generic/container/mutable</text>
<text text-anchor="middle" x="723.5" y="-447" font-family="Helvetica,sans-Serif" font-size="10.00">_set.h</text>
</a>
</g>
</g>
<!-- Node1&#45;&gt;Node29 -->
<g id="edge35" class="edge">
<title>Node1&#45;&gt;Node29</title>
<path fill="none" stroke="#63b8ff" d="M723.5,-505.8C723.5,-498.67 723.5,-489.82 723.5,-481.56"/>
<polygon fill="#63b8ff" stroke="#63b8ff" points="727,-481.68 723.5,-471.68 720,-481.68 727,-481.68"/>
</g>
<!-- Node34 -->
<g id="node34" class="node">
<title>Node34</title>
<g id="a_node34"><a xlink:href="namecompare_8h.html" target="_top" xlink:title=" ">
<polygon fill="white" stroke="#666666" points="893.5,-464.5 807.5,-464.5 807.5,-445.5 893.5,-445.5 893.5,-464.5"/>
<text text-anchor="middle" x="850.5" y="-452.5" font-family="Helvetica,sans-Serif" font-size="10.00">namecompare.h</text>
</a>
</g>
</g>
<!-- Node1&#45;&gt;Node34 -->
<g id="edge40" class="edge">
<title>Node1&#45;&gt;Node34</title>
<path fill="none" stroke="#63b8ff" d="M752,-505.64C773.05,-495.03 801.56,-480.66 822.49,-470.11"/>
<polygon fill="#63b8ff" stroke="#63b8ff" points="823.96,-473.29 831.32,-465.67 820.81,-467.04 823.96,-473.29"/>
</g>
<!-- Node3 -->
<g id="node3" class="node">
<title>Node3</title>
<g id="a_node3"><a xlink:href="taskhandle_8h.html" target="_top" xlink:title=" ">
<polygon fill="white" stroke="#666666" points="659,-349 588,-349 588,-330 659,-330 659,-349"/>
<text text-anchor="middle" x="623.5" y="-337" font-family="Helvetica,sans-Serif" font-size="10.00">taskhandle.h</text>
</a>
</g>
</g>
<!-- Node2&#45;&gt;Node3 -->
<g id="edge2" class="edge">
<title>Node2&#45;&gt;Node3</title>
<path fill="none" stroke="#63b8ff" d="M585.17,-445.33C590.35,-435.51 598.73,-418.91 604.5,-404 610.04,-389.67 614.97,-373.02 618.42,-360.36"/>
<polygon fill="#63b8ff" stroke="#63b8ff" points="621.79,-361.3 620.96,-350.74 615.02,-359.51 621.79,-361.3"/>
</g>
<!-- Node4 -->
<g id="node4" class="node">
<title>Node4</title>
<g id="a_node4"><a xlink:href="taskpromisesharedstate_8h.html" target="_top" xlink:title=" ">
<polygon fill="white" stroke="#666666" points="595.5,-404 467.5,-404 467.5,-385 595.5,-385 595.5,-404"/>
<text text-anchor="middle" x="531.5" y="-392" font-family="Helvetica,sans-Serif" font-size="10.00">taskpromisesharedstate.h</text>
</a>
</g>
</g>
<!-- Node2&#45;&gt;Node4 -->
<g id="edge3" class="edge">
<title>Node2&#45;&gt;Node4</title>
<path fill="none" stroke="#63b8ff" d="M573.27,-445.37C566.1,-436.81 554.93,-423.47 545.94,-412.74"/>
<polygon fill="#63b8ff" stroke="#63b8ff" points="548.84,-410.75 539.73,-405.33 543.47,-415.24 548.84,-410.75"/>
</g>
<!-- Node4&#45;&gt;Node3 -->
<g id="edge34" class="edge">
<title>Node4&#45;&gt;Node3</title>
<path fill="none" stroke="#63b8ff" d="M547.11,-384.51C561.2,-376.39 582.19,-364.3 598.6,-354.85"/>
<polygon fill="#63b8ff" stroke="#63b8ff" points="599.89,-358.14 606.81,-350.11 596.4,-352.07 599.89,-358.14"/>
</g>
<!-- Node5 -->
<g id="node5" class="node">
<title>Node5</title>
<g id="a_node5"><a xlink:href="flag_8h.html" target="_top" xlink:title=" ">
<polygon fill="white" stroke="#666666" points="569.5,-349 449.5,-349 449.5,-330 569.5,-330 569.5,-349"/>
<text text-anchor="middle" x="509.5" y="-337" font-family="Helvetica,sans-Serif" font-size="10.00">Generic/execution/flag.h</text>
</a>
</g>
</g>
<!-- Node4&#45;&gt;Node5 -->
<g id="edge4" class="edge">
<title>Node4&#45;&gt;Node5</title>
<path fill="none" stroke="#63b8ff" d="M527.87,-384.75C525.08,-378.04 521.13,-368.52 517.6,-360.02"/>
<polygon fill="#63b8ff" stroke="#63b8ff" points="520.86,-358.73 513.79,-350.84 514.39,-361.42 520.86,-358.73"/>
</g>
<!-- Node6 -->
<g id="node6" class="node">
<title>Node6</title>
<g id="a_node6"><a xlink:href="flagstub_8h.html" target="_top" xlink:title=" ">
<polygon fill="white" stroke="#666666" points="538.5,-294 480.5,-294 480.5,-275 538.5,-275 538.5,-294"/>
<text text-anchor="middle" x="509.5" y="-282" font-family="Helvetica,sans-Serif" font-size="10.00">flagstub.h</text>
</a>
</g>
</g>
<!-- Node5&#45;&gt;Node6 -->
<g id="edge5" class="edge">
<title>Node5&#45;&gt;Node6</title>
<path fill="none" stroke="#63b8ff" d="M509.5,-329.75C509.5,-323.27 509.5,-314.16 509.5,-305.9"/>
<polygon fill="#63b8ff" stroke="#63b8ff" points="513,-305.96 509.5,-295.96 506,-305.96 513,-305.96"/>
</g>
<!-- Node7 -->
<g id="node7" class="node">
<title>Node7</title>
<g id="a_node7"><a xlink:href="algorithm_8h.html" target="_top" xlink:title=" ">
<polygon fill="white" stroke="#666666" points="541.5,-239 477.5,-239 477.5,-220 541.5,-220 541.5,-239"/>
<text text-anchor="middle" x="509.5" y="-227" font-family="Helvetica,sans-Serif" font-size="10.00">algorithm.h</text>
</a>
</g>
</g>
<!-- Node6&#45;&gt;Node7 -->
<g id="edge6" class="edge">
<title>Node6&#45;&gt;Node7</title>
<path fill="none" stroke="#63b8ff" d="M509.5,-274.75C509.5,-268.27 509.5,-259.16 509.5,-250.9"/>
<polygon fill="#63b8ff" stroke="#63b8ff" points="513,-250.96 509.5,-240.96 506,-250.96 513,-250.96"/>
</g>
<!-- Node15 -->
<g id="node15" class="node">
<title>Node15</title>
<g id="a_node15"><a xlink:href="connection_8h.html" target="_top" xlink:title=" ">
<polygon fill="white" stroke="#666666" points="185,-239 114,-239 114,-220 185,-220 185,-239"/>
<text text-anchor="middle" x="149.5" y="-227" font-family="Helvetica,sans-Serif" font-size="10.00">connection.h</text>
</a>
</g>
</g>
<!-- Node6&#45;&gt;Node15 -->
<g id="edge14" class="edge">
<title>Node6&#45;&gt;Node15</title>
<path fill="none" stroke="#63b8ff" d="M480.04,-279.16C417.67,-269.98 271.83,-248.51 196.46,-237.41"/>
<polygon fill="#63b8ff" stroke="#63b8ff" points="197.33,-234 186.93,-236.01 196.31,-240.93 197.33,-234"/>
</g>
<!-- Node20 -->
<g id="node20" class="node">
<title>Node20</title>
<g id="a_node20"><a xlink:href="virtualsender_8h.html" target="_top" xlink:title=" ">
<polygon fill="white" stroke="#666666" points="223.5,-184 143.5,-184 143.5,-165 223.5,-165 223.5,-184"/>
<text text-anchor="middle" x="183.5" y="-172" font-family="Helvetica,sans-Serif" font-size="10.00">virtualsender.h</text>
</a>
</g>
</g>
<!-- Node6&#45;&gt;Node20 -->
<g id="edge32" class="edge">
<title>Node6&#45;&gt;Node20</title>
<path fill="none" stroke="#63b8ff" d="M482.54,-274.57C424.57,-255.36 287.92,-210.09 221.31,-188.03"/>
<polygon fill="#63b8ff" stroke="#63b8ff" points="222.52,-184.74 211.92,-184.92 220.32,-191.38 222.52,-184.74"/>
</g>
<!-- Node25 -->
<g id="node25" class="node">
<title>Node25</title>
<g id="a_node25"><a xlink:href="execution_8h.html" target="_top" xlink:title=" ">
<polygon fill="white" stroke="#666666" points="685,-239 620,-239 620,-220 685,-220 685,-239"/>
<text text-anchor="middle" x="652.5" y="-227" font-family="Helvetica,sans-Serif" font-size="10.00">execution.h</text>
</a>
</g>
</g>
<!-- Node6&#45;&gt;Node25 -->
<g id="edge27" class="edge">
<title>Node6&#45;&gt;Node25</title>
<path fill="none" stroke="#63b8ff" d="M533.76,-274.51C556.91,-265.93 592.01,-252.92 618.06,-243.27"/>
<polygon fill="#63b8ff" stroke="#63b8ff" points="619.02,-246.64 627.18,-239.88 616.59,-240.08 619.02,-246.64"/>
</g>
<!-- Node28 -->
<g id="node28" class="node">
<title>Node28</title>
<g id="a_node28"><a xlink:href="stack_8h.html" target="_top" xlink:title=" ">
<polygon fill="white" stroke="#666666" points="794,-239 703,-239 703,-220 794,-220 794,-239"/>
<text text-anchor="middle" x="748.5" y="-227" font-family="Helvetica,sans-Serif" font-size="10.00">container/stack.h</text>
</a>
</g>
</g>
<!-- Node6&#45;&gt;Node28 -->
<g id="edge33" class="edge">
<title>Node6&#45;&gt;Node28</title>
<path fill="none" stroke="#63b8ff" d="M538.81,-277C578.16,-268.27 648.7,-252.63 697.01,-241.92"/>
<polygon fill="#63b8ff" stroke="#63b8ff" points="697.69,-245.35 706.7,-239.77 696.18,-238.52 697.69,-245.35"/>
</g>
<!-- Node8 -->
<g id="node8" class="node">
<title>Node8</title>
<g id="a_node8"><a xlink:href="delayedconstruct_8h.html" target="_top" xlink:title=" ">
<polygon fill="white" stroke="#666666" points="347,-184 242,-184 242,-165 347,-165 347,-184"/>
<text text-anchor="middle" x="294.5" y="-172" font-family="Helvetica,sans-Serif" font-size="10.00">../delayedconstruct.h</text>
</a>
</g>
</g>
<!-- Node7&#45;&gt;Node8 -->
<g id="edge7" class="edge">
<title>Node7&#45;&gt;Node8</title>
<path fill="none" stroke="#63b8ff" d="M477.31,-220.57C441.44,-211.72 383.09,-197.34 341.97,-187.2"/>
<polygon fill="#63b8ff" stroke="#63b8ff" points="342.88,-183.82 332.34,-184.83 341.21,-190.62 342.88,-183.82"/>
</g>
<!-- Node10 -->
<g id="node10" class="node">
<title>Node10</title>
<g id="a_node10"><a xlink:href="manuallifetime_8h.html" target="_top" xlink:title=" ">
<polygon fill="white" stroke="#666666" points="460,-184 365,-184 365,-165 460,-165 460,-184"/>
<text text-anchor="middle" x="412.5" y="-172" font-family="Helvetica,sans-Serif" font-size="10.00">../manuallifetime.h</text>
</a>
</g>
</g>
<!-- Node7&#45;&gt;Node10 -->
<g id="edge9" class="edge">
<title>Node7&#45;&gt;Node10</title>
<path fill="none" stroke="#63b8ff" d="M493.05,-219.51C478.18,-211.39 456.06,-199.3 438.75,-189.85"/>
<polygon fill="#63b8ff" stroke="#63b8ff" points="440.49,-186.81 430.04,-185.08 437.14,-192.95 440.49,-186.81"/>
</g>
<!-- Node11 -->
<g id="node11" class="node">
<title>Node11</title>
<g id="a_node11"><a xlink:href="pipable_8h.html" target="_top" xlink:title=" ">
<polygon fill="white" stroke="#666666" points="540.5,-184 478.5,-184 478.5,-165 540.5,-165 540.5,-184"/>
<text text-anchor="middle" x="509.5" y="-172" font-family="Helvetica,sans-Serif" font-size="10.00">../pipable.h</text>
</a>
</g>
</g>
<!-- Node7&#45;&gt;Node11 -->
<g id="edge10" class="edge">
<title>Node7&#45;&gt;Node11</title>
<path fill="none" stroke="#63b8ff" d="M509.5,-219.75C509.5,-213.27 509.5,-204.16 509.5,-195.9"/>
<polygon fill="#63b8ff" stroke="#63b8ff" points="513,-195.96 509.5,-185.96 506,-195.96 513,-195.96"/>
</g>
<!-- Node13 -->
<g id="node13" class="node">
<title>Node13</title>
<g id="a_node13"><a xlink:href="execution_2concepts_8h.html" target="_top" xlink:title=" ">
<polygon fill="white" stroke="#666666" points="455.5,-74 391.5,-74 391.5,-55 455.5,-55 455.5,-74"/>
<text text-anchor="middle" x="423.5" y="-62" font-family="Helvetica,sans-Serif" font-size="10.00">concepts.h</text>
</a>
</g>
</g>
<!-- Node7&#45;&gt;Node13 -->
<g id="edge12" class="edge">
<title>Node7&#45;&gt;Node13</title>
<path fill="none" stroke="#63b8ff" d="M521.14,-219.73C530.81,-211.67 543.85,-198.74 549.5,-184 557.82,-162.3 539.6,-114.67 535.5,-110 517.99,-90.08 490.36,-78.97 466.93,-72.84"/>
<polygon fill="#63b8ff" stroke="#63b8ff" points="467.83,-69.46 457.3,-70.56 466.22,-76.27 467.83,-69.46"/>
</g>
<!-- Node14 -->
<g id="node14" class="node">
<title>Node14</title>
<g id="a_node14"><a xlink:href="storage_8h.html" target="_top" xlink:title=" ">
<polygon fill="white" stroke="#666666" points="652.5,-184 596.5,-184 596.5,-165 652.5,-165 652.5,-184"/>
<text text-anchor="middle" x="624.5" y="-172" font-family="Helvetica,sans-Serif" font-size="10.00">storage.h</text>
</a>
</g>
</g>
<!-- Node7&#45;&gt;Node14 -->
<g id="edge13" class="edge">
<title>Node7&#45;&gt;Node14</title>
<path fill="none" stroke="#63b8ff" d="M529.01,-219.51C547.13,-211.16 574.35,-198.61 595.1,-189.05"/>
<polygon fill="#63b8ff" stroke="#63b8ff" points="596.29,-192.36 603.91,-184.99 593.36,-186 596.29,-192.36"/>
</g>
<!-- Node9 -->
<g id="node9" class="node">
<title>Node9</title>
<g id="a_node9"><a xlink:href="closure_8h.html" target="_top" xlink:title=" ">
<polygon fill="white" stroke="#666666" points="350.5,-129 294.5,-129 294.5,-110 350.5,-110 350.5,-129"/>
<text text-anchor="middle" x="322.5" y="-117" font-family="Helvetica,sans-Serif" font-size="10.00">closure.h</text>
</a>
</g>
</g>
<!-- Node8&#45;&gt;Node9 -->
<g id="edge8" class="edge">
<title>Node8&#45;&gt;Node9</title>
<path fill="none" stroke="#63b8ff" d="M299.12,-164.75C302.75,-157.88 307.93,-148.08 312.49,-139.45"/>
<polygon fill="#63b8ff" stroke="#63b8ff" points="315.49,-141.26 317.07,-130.78 309.3,-137.99 315.49,-141.26"/>
</g>
<!-- Node12 -->
<g id="node12" class="node">
<title>Node12</title>
<g id="a_node12"><a xlink:href="lift_8h.html" target="_top" xlink:title=" ">
<polygon fill="white" stroke="#666666" points="527,-129 492,-129 492,-110 527,-110 527,-129"/>
<text text-anchor="middle" x="509.5" y="-117" font-family="Helvetica,sans-Serif" font-size="10.00">lift.h</text>
</a>
</g>
</g>
<!-- Node11&#45;&gt;Node12 -->
<g id="edge11" class="edge">
<title>Node11&#45;&gt;Node12</title>
<path fill="none" stroke="#63b8ff" d="M509.5,-164.75C509.5,-158.27 509.5,-149.16 509.5,-140.9"/>
<polygon fill="#63b8ff" stroke="#63b8ff" points="513,-140.96 509.5,-130.96 506,-140.96 513,-140.96"/>
</g>
<!-- Node16 -->
<g id="node16" class="node">
<title>Node16</title>
<g id="a_node16"><a xlink:href="genericresult_8h.html" target="_top" xlink:title=" ">
<polygon fill="white" stroke="#666666" points="87,-184 0,-184 0,-165 87,-165 87,-184"/>
<text text-anchor="middle" x="43.5" y="-172" font-family="Helvetica,sans-Serif" font-size="10.00">../genericresult.h</text>
</a>
</g>
</g>
<!-- Node15&#45;&gt;Node16 -->
<g id="edge15" class="edge">
<title>Node15&#45;&gt;Node16</title>
<path fill="none" stroke="#63b8ff" d="M131.52,-219.51C115.05,-211.27 90.41,-198.96 71.39,-189.45"/>
<polygon fill="#63b8ff" stroke="#63b8ff" points="73.08,-186.38 62.57,-185.03 69.95,-192.64 73.08,-186.38"/>
</g>
<!-- Node15&#45;&gt;Node20 -->
<g id="edge19" class="edge">
<title>Node15&#45;&gt;Node20</title>
<path fill="none" stroke="#63b8ff" d="M155.11,-219.75C159.62,-212.73 166.09,-202.64 171.71,-193.87"/>
<polygon fill="#63b8ff" stroke="#63b8ff" points="174.49,-196.02 176.95,-185.72 168.6,-192.24 174.49,-196.02"/>
</g>
<!-- Node22 -->
<g id="node22" class="node">
<title>Node22</title>
<g id="a_node22"><a xlink:href="virtualstate_8h.html" target="_top" xlink:title=" ">
<polygon fill="white" stroke="#666666" points="204.5,-129 132.5,-129 132.5,-110 204.5,-110 204.5,-129"/>
<text text-anchor="middle" x="168.5" y="-117" font-family="Helvetica,sans-Serif" font-size="10.00">virtualstate.h</text>
</a>
</g>
</g>
<!-- Node15&#45;&gt;Node22 -->
<g id="edge26" class="edge">
<title>Node15&#45;&gt;Node22</title>
<path fill="none" stroke="#63b8ff" d="M144.37,-219.73C137.81,-207.34 128.04,-184.1 134.5,-165 137.91,-154.92 144.62,-145.32 151.19,-137.64"/>
<polygon fill="#63b8ff" stroke="#63b8ff" points="153.64,-140.14 157.87,-130.42 148.51,-135.38 153.64,-140.14"/>
</g>
<!-- Node17 -->
<g id="node17" class="node">
<title>Node17</title>
<g id="a_node17"><a xlink:href="enum_8h.html" target="_top" xlink:title=" ">
<polygon fill="white" stroke="#666666" points="67.5,-129 19.5,-129 19.5,-110 67.5,-110 67.5,-129"/>
<text text-anchor="middle" x="43.5" y="-117" font-family="Helvetica,sans-Serif" font-size="10.00">enum.h</text>
</a>
</g>
</g>
<!-- Node16&#45;&gt;Node17 -->
<g id="edge16" class="edge">
<title>Node16&#45;&gt;Node17</title>
<path fill="none" stroke="#63b8ff" d="M43.5,-164.75C43.5,-158.27 43.5,-149.16 43.5,-140.9"/>
<polygon fill="#63b8ff" stroke="#63b8ff" points="47,-140.96 43.5,-130.96 40,-140.96 47,-140.96"/>
</g>
<!-- Node18 -->
<g id="node18" class="node">
<title>Node18</title>
<g id="a_node18"><a xlink:href="array_8h.html" target="_top" xlink:title=" ">
<polygon fill="white" stroke="#666666" points="75.5,-74 11.5,-74 11.5,-55 75.5,-55 75.5,-74"/>
<text text-anchor="middle" x="43.5" y="-62" font-family="Helvetica,sans-Serif" font-size="10.00">bits/array.h</text>
</a>
</g>
</g>
<!-- Node17&#45;&gt;Node18 -->
<g id="edge17" class="edge">
<title>Node17&#45;&gt;Node18</title>
<path fill="none" stroke="#63b8ff" d="M43.5,-109.75C43.5,-103.27 43.5,-94.16 43.5,-85.9"/>
<polygon fill="#63b8ff" stroke="#63b8ff" points="47,-85.96 43.5,-75.96 40,-85.96 47,-85.96"/>
</g>
<!-- Node19 -->
<g id="node19" class="node">
<title>Node19</title>
<g id="a_node19"><a xlink:href="types_8h.html" target="_top" xlink:title=" ">
<polygon fill="white" stroke="#666666" points="67,-19 20,-19 20,0 67,0 67,-19"/>
<text text-anchor="middle" x="43.5" y="-7" font-family="Helvetica,sans-Serif" font-size="10.00">types.h</text>
</a>
</g>
</g>
<!-- Node18&#45;&gt;Node19 -->
<g id="edge18" class="edge">
<title>Node18&#45;&gt;Node19</title>
<path fill="none" stroke="#63b8ff" d="M43.5,-54.75C43.5,-48.27 43.5,-39.16 43.5,-30.9"/>
<polygon fill="#63b8ff" stroke="#63b8ff" points="47,-30.96 43.5,-20.96 40,-30.96 47,-30.96"/>
</g>
<!-- Node21 -->
<g id="node21" class="node">
<title>Node21</title>
<g id="a_node21"><a xlink:href="src_2_generic_2execution_2sender_8h.html" target="_top" xlink:title=" ">
<polygon fill="white" stroke="#666666" points="276,-129 223,-129 223,-110 276,-110 276,-129"/>
<text text-anchor="middle" x="249.5" y="-117" font-family="Helvetica,sans-Serif" font-size="10.00">sender.h</text>
</a>
</g>
</g>
<!-- Node20&#45;&gt;Node21 -->
<g id="edge20" class="edge">
<title>Node20&#45;&gt;Node21</title>
<path fill="none" stroke="#63b8ff" d="M194.7,-164.51C204.24,-156.85 218.17,-145.66 229.61,-136.47"/>
<polygon fill="#63b8ff" stroke="#63b8ff" points="231.68,-139.3 237.29,-130.31 227.3,-133.84 231.68,-139.3"/>
</g>
<!-- Node20&#45;&gt;Node22 -->
<g id="edge22" class="edge">
<title>Node20&#45;&gt;Node22</title>
<path fill="none" stroke="#63b8ff" d="M181.02,-164.75C179.15,-158.11 176.49,-148.73 174.11,-140.31"/>
<polygon fill="#63b8ff" stroke="#63b8ff" points="177.53,-139.57 171.44,-130.9 170.8,-141.47 177.53,-139.57"/>
</g>
<!-- Node21&#45;&gt;Node13 -->
<g id="edge21" class="edge">
<title>Node21&#45;&gt;Node13</title>
<path fill="none" stroke="#63b8ff" d="M276.31,-110.33C304.91,-101.62 350.55,-87.72 383.43,-77.71"/>
<polygon fill="#63b8ff" stroke="#63b8ff" points="384.05,-81.18 392.6,-74.91 382.01,-74.48 384.05,-81.18"/>
</g>
<!-- Node22&#45;&gt;Node13 -->
<g id="edge23" class="edge">
<title>Node22&#45;&gt;Node13</title>
<path fill="none" stroke="#63b8ff" d="M204.76,-110.96C250.97,-101.36 330.76,-84.78 380.13,-74.51"/>
<polygon fill="#63b8ff" stroke="#63b8ff" points="380.83,-77.94 389.91,-72.48 379.4,-71.09 380.83,-77.94"/>
</g>
<!-- Node23 -->
<g id="node23" class="node">
<title>Node23</title>
<g id="a_node23"><a xlink:href="virtual__invoke_8h.html" target="_top" xlink:title=" ">
<polygon fill="white" stroke="#666666" points="229,-74 108,-74 108,-55 229,-55 229,-74"/>
<text text-anchor="middle" x="168.5" y="-62" font-family="Helvetica,sans-Serif" font-size="10.00">Generic/virtual_invoke.h</text>
</a>
</g>
</g>
<!-- Node22&#45;&gt;Node23 -->
<g id="edge24" class="edge">
<title>Node22&#45;&gt;Node23</title>
<path fill="none" stroke="#63b8ff" d="M168.5,-109.75C168.5,-103.27 168.5,-94.16 168.5,-85.9"/>
<polygon fill="#63b8ff" stroke="#63b8ff" points="172,-85.96 168.5,-75.96 165,-85.96 172,-85.96"/>
</g>
<!-- Node24 -->
<g id="node24" class="node">
<title>Node24</title>
<g id="a_node24"><a xlink:href="callable__traits_8h.html" target="_top" xlink:title=" ">
<polygon fill="white" stroke="#666666" points="210.5,-19 126.5,-19 126.5,0 210.5,0 210.5,-19"/>
<text text-anchor="middle" x="168.5" y="-7" font-family="Helvetica,sans-Serif" font-size="10.00">callable_traits.h</text>
</a>
</g>
</g>
<!-- Node23&#45;&gt;Node24 -->
<g id="edge25" class="edge">
<title>Node23&#45;&gt;Node24</title>
<path fill="none" stroke="#63b8ff" d="M168.5,-54.75C168.5,-48.27 168.5,-39.16 168.5,-30.9"/>
<polygon fill="#63b8ff" stroke="#63b8ff" points="172,-30.96 168.5,-20.96 165,-30.96 172,-30.96"/>
</g>
<!-- Node25&#45;&gt;Node13 -->
<g id="edge30" class="edge">
<title>Node25&#45;&gt;Node13</title>
<path fill="none" stroke="#63b8ff" d="M657.18,-219.55C663.27,-206.54 671.97,-182.09 661.5,-165 620.34,-97.84 523.39,-76 466.75,-68.9"/>
<polygon fill="#63b8ff" stroke="#63b8ff" points="467.48,-65.46 457.15,-67.81 466.69,-72.42 467.48,-65.46"/>
</g>
<!-- Node25&#45;&gt;Node14 -->
<g id="edge31" class="edge">
<title>Node25&#45;&gt;Node14</title>
<path fill="none" stroke="#63b8ff" d="M647.88,-219.75C644.25,-212.88 639.07,-203.08 634.51,-194.45"/>
<polygon fill="#63b8ff" stroke="#63b8ff" points="637.7,-192.99 629.93,-185.78 631.51,-196.26 637.7,-192.99"/>
</g>
<!-- Node26 -->
<g id="node26" class="node">
<title>Node26</title>
<g id="a_node26"><a xlink:href="makeowning_8h.html" target="_top" xlink:title=" ">
<polygon fill="white" stroke="#666666" points="886.5,-184 800.5,-184 800.5,-165 886.5,-165 886.5,-184"/>
<text text-anchor="middle" x="843.5" y="-172" font-family="Helvetica,sans-Serif" font-size="10.00">../makeowning.h</text>
</a>
</g>
</g>
<!-- Node25&#45;&gt;Node26 -->
<g id="edge28" class="edge">
<title>Node25&#45;&gt;Node26</title>
<path fill="none" stroke="#63b8ff" d="M684.9,-219.51C716.69,-210.69 765.36,-197.18 800.4,-187.46"/>
<polygon fill="#63b8ff" stroke="#63b8ff" points="801.1,-190.9 809.8,-184.85 799.23,-184.15 801.1,-190.9"/>
</g>
<!-- Node27 -->
<g id="node27" class="node">
<title>Node27</title>
<g id="a_node27"><a xlink:href="withresult_8h.html" target="_top" xlink:title=" ">
<polygon fill="white" stroke="#666666" points="782.5,-184 708.5,-184 708.5,-165 782.5,-165 782.5,-184"/>
<text text-anchor="middle" x="745.5" y="-172" font-family="Helvetica,sans-Serif" font-size="10.00">../withresult.h</text>
</a>
</g>
</g>
<!-- Node25&#45;&gt;Node27 -->
<g id="edge29" class="edge">
<title>Node25&#45;&gt;Node27</title>
<path fill="none" stroke="#63b8ff" d="M668.28,-219.51C682.52,-211.39 703.74,-199.3 720.33,-189.85"/>
<polygon fill="#63b8ff" stroke="#63b8ff" points="721.69,-193.1 728.64,-185.11 718.22,-187.02 721.69,-193.1"/>
</g>
<!-- Node30 -->
<g id="node30" class="node">
<title>Node30</title>
<g id="a_node30"><a xlink:href="emplace_8h.html" target="_top" xlink:title=" ">
<polygon fill="white" stroke="#666666" points="754,-404 693,-404 693,-385 754,-385 754,-404"/>
<text text-anchor="middle" x="723.5" y="-392" font-family="Helvetica,sans-Serif" font-size="10.00">emplace.h</text>
</a>
</g>
</g>
<!-- Node29&#45;&gt;Node30 -->
<g id="edge36" class="edge">
<title>Node29&#45;&gt;Node30</title>
<path fill="none" stroke="#63b8ff" d="M723.5,-439.54C723.5,-432.34 723.5,-423.53 723.5,-415.68"/>
<polygon fill="#63b8ff" stroke="#63b8ff" points="727,-415.69 723.5,-405.69 720,-415.69 727,-415.69"/>
</g>
<!-- Node31 -->
<g id="node31" class="node">
<title>Node31</title>
<g id="a_node31"><a xlink:href="container__traits_8h.html" target="_top" xlink:title=" ">
<polygon fill="white" stroke="#666666" points="769,-349 678,-349 678,-330 769,-330 769,-349"/>
<text text-anchor="middle" x="723.5" y="-337" font-family="Helvetica,sans-Serif" font-size="10.00">container_traits.h</text>
</a>
</g>
</g>
<!-- Node30&#45;&gt;Node31 -->
<g id="edge37" class="edge">
<title>Node30&#45;&gt;Node31</title>
<path fill="none" stroke="#63b8ff" d="M723.5,-384.75C723.5,-378.27 723.5,-369.16 723.5,-360.9"/>
<polygon fill="#63b8ff" stroke="#63b8ff" points="727,-360.96 723.5,-350.96 720,-360.96 727,-360.96"/>
</g>
<!-- Node32 -->
<g id="node32" class="node">
<title>Node32</title>
<g id="a_node32"><a xlink:href="indextype_8h.html" target="_top" xlink:title=" ">
<polygon fill="white" stroke="#666666" points="815.5,-294 743.5,-294 743.5,-275 815.5,-275 815.5,-294"/>
<text text-anchor="middle" x="779.5" y="-282" font-family="Helvetica,sans-Serif" font-size="10.00">../indextype.h</text>
</a>
</g>
</g>
<!-- Node31&#45;&gt;Node32 -->
<g id="edge38" class="edge">
<title>Node31&#45;&gt;Node32</title>
<path fill="none" stroke="#63b8ff" d="M733,-329.51C740.93,-322 752.45,-311.1 762.04,-302.03"/>
<polygon fill="#63b8ff" stroke="#63b8ff" points="764.18,-304.81 769.04,-295.4 759.37,-299.73 764.18,-304.81"/>
</g>
<!-- Node33 -->
<g id="node33" class="node">
<title>Node33</title>
<g id="a_node33"><a xlink:href="underlying__container_8h.html" target="_top" xlink:title=" ">
<polygon fill="white" stroke="#666666" points="725,-294 612,-294 612,-275 725,-275 725,-294"/>
<text text-anchor="middle" x="668.5" y="-282" font-family="Helvetica,sans-Serif" font-size="10.00">underlying_container.h</text>
</a>
</g>
</g>
<!-- Node31&#45;&gt;Node33 -->
<g id="edge39" class="edge">
<title>Node31&#45;&gt;Node33</title>
<path fill="none" stroke="#63b8ff" d="M714.42,-329.75C706.66,-322.27 695.29,-311.32 685.8,-302.17"/>
<polygon fill="#63b8ff" stroke="#63b8ff" points="688.5,-299.91 678.87,-295.49 683.64,-304.95 688.5,-299.91"/>
</g>
</g>
</svg>
        <g id="navigator" transform="translate(0 0)" fill="#404254">
                <rect fill="#f2f5e9" fill-opacity="0.5" stroke="#606060" stroke-width=".5" x="0" y="0" width="60" height="60"/>
                <use id="zoomplus" xlink:href="#zoomPlus" x="17" y="9" onmousedown="handleZoom(evt,'in')"/>
                <use id="zoomminus" xlink:href="#zoomMin" x="42" y="9" onmousedown="handleZoom(evt,'out')"/>
                <use id="reset" xlink:href="#resetDef" x="30" y="36" onmousedown="handleReset()"/>
                <g id="arrowUp" xlink:href="#dirArrow" transform="translate(30 24)" onmousedown="handlePan(0,-1)">
                  <use xlink:href="#rim" fill="#404040">
                        <set attributeName="fill" to="#808080" begin="arrowUp.mouseover" end="arrowUp.mouseout"/>
                  </use>
                  <path fill="none" stroke="white" stroke-width="1.5" d="M0,-3.0v7 M-2.5,-0.5L0,-3.0L2.5,-0.5"/>
                </g>
                <g id="arrowRight" xlink:href="#dirArrow" transform="rotate(90) translate(36 -43)" onmousedown="handlePan(1,0)">
                  <use xlink:href="#rim" fill="#404040">
                        <set attributeName="fill" to="#808080" begin="arrowRight.mouseover" end="arrowRight.mouseout"/>
                  </use>
                  <path fill="none" stroke="white" stroke-width="1.5" d="M0,-3.0v7 M-2.5,-0.5L0,-3.0L2.5,-0.5"/>
                </g>
                <g id="arrowDown" xlink:href="#dirArrow" transform="rotate(180) translate(-30 -48)" onmousedown="handlePan(0,1)">
                  <use xlink:href="#rim" fill="#404040">
                        <set attributeName="fill" to="#808080" begin="arrowDown.mouseover" end="arrowDown.mouseout"/>
                  </use>
                  <path fill="none" stroke="white" stroke-width="1.5" d="M0,-3.0v7 M-2.5,-0.5L0,-3.0L2.5,-0.5"/>
                </g>
                <g id="arrowLeft" xlink:href="#dirArrow" transform="rotate(270) translate(-36 17)" onmousedown="handlePan(-1,0)">
                  <use xlink:href="#rim" fill="#404040">
                        <set attributeName="fill" to="#808080" begin="arrowLeft.mouseover" end="arrowLeft.mouseout"/>
                  </use>
                  <path fill="none" stroke="white" stroke-width="1.5" d="M0,-3.0v7 M-2.5,-0.5L0,-3.0L2.5,-0.5"/>
                </g>
        </g>
        <svg viewBox="0 0 15 15" width="100%" height="30px" preserveAspectRatio="xMaxYMin meet">
         <g id="arrow_out" transform="scale(0.3 0.3)">
          <a xlink:href="pluginsection_8h__incl_org.svg" target="_base">
           <rect id="button" ry="5" rx="5" y="6" x="6" height="38" width="38"
                fill="#f2f5e9" fill-opacity="0.5" stroke="#606060" stroke-width="1.0"/>
           <path id="arrow"
             d="M 11.500037,31.436501 C 11.940474,20.09759 22.043105,11.32322 32.158766,21.979434 L 37.068811,17.246167 C 37.068811,17.246167 37.088388,32 37.088388,32 L 22.160133,31.978069 C 22.160133,31.978069 26.997745,27.140456 26.997745,27.140456 C 18.528582,18.264221 13.291696,25.230495 11.500037,31.436501 z"
             style="fill:#404040;"/>
          </a>
         </g>
        </svg>
</svg>
