<?xml version="1.0" encoding="UTF-8" standalone="no"?>
<!DOCTYPE svg PUBLIC "-//W3C//DTD SVG 1.1//EN"
 "http://www.w3.org/Graphics/SVG/1.1/DTD/svg11.dtd">
<!-- Generated by graphviz version 7.0.5 (20221223.1930)
 -->
<!-- Title: src/Modules/plugins/plugin.cpp Pages: 1 -->
<svg width="1277pt" height="720pt"
 viewBox="0.00 0.00 1276.68 720.00" xmlns="http://www.w3.org/2000/svg" xmlns:xlink="http://www.w3.org/1999/xlink">
<g id="graph0" class="graph" transform="scale(1 1) rotate(0) translate(4 716)">
<title>src/Modules/plugins/plugin.cpp</title>
<!-- Node1 -->
<g id="node1" class="node">
<title>Node1</title>
<g id="a_node1"><a xlink:title=" ">
<polygon fill="#999999" stroke="#666666" points="551.5,-712 447.5,-712 447.5,-682 551.5,-682 551.5,-712"/>
<text text-anchor="start" x="455.5" y="-700" font-family="Helvetica,sans-Serif" font-size="10.00">src/Modules/plugins</text>
<text text-anchor="middle" x="499.5" y="-689" font-family="Helvetica,sans-Serif" font-size="10.00">/plugin.cpp</text>
</a>
</g>
</g>
<!-- Node2 -->
<g id="node2" class="node">
<title>Node2</title>
<g id="a_node2"><a xlink:href="moduleslib_8h.html" target="_top" xlink:title=" ">
<polygon fill="white" stroke="#666666" points="223.5,-646 145.5,-646 145.5,-627 223.5,-627 223.5,-646"/>
<text text-anchor="middle" x="184.5" y="-634" font-family="Helvetica,sans-Serif" font-size="10.00">../moduleslib.h</text>
</a>
</g>
</g>
<!-- Node1&#45;&gt;Node2 -->
<g id="edge1" class="edge">
<title>Node1&#45;&gt;Node2</title>
<path fill="none" stroke="#63b8ff" d="M447.13,-686.27C388.09,-675.31 292.77,-657.61 234.65,-646.81"/>
<polygon fill="#63b8ff" stroke="#63b8ff" points="235.5,-643.41 225.03,-645.03 234.23,-650.29 235.5,-643.41"/>
</g>
<!-- Node5 -->
<g id="node5" class="node">
<title>Node5</title>
<g id="a_node5"><a xlink:href="projections_8h.html" target="_top" xlink:title=" ">
<polygon fill="white" stroke="#666666" points="407.5,-646 299.5,-646 299.5,-627 407.5,-627 407.5,-646"/>
<text text-anchor="middle" x="353.5" y="-634" font-family="Helvetica,sans-Serif" font-size="10.00">Generic/projections.h</text>
</a>
</g>
</g>
<!-- Node1&#45;&gt;Node5 -->
<g id="edge4" class="edge">
<title>Node1&#45;&gt;Node5</title>
<path fill="none" stroke="#63b8ff" d="M463.41,-681.54C439.75,-672.06 409.08,-659.77 386.15,-650.58"/>
<polygon fill="#63b8ff" stroke="#63b8ff" points="387.57,-647.38 376.98,-646.91 384.96,-653.88 387.57,-647.38"/>
</g>
<!-- Node6 -->
<g id="node6" class="node">
<title>Node6</title>
<g id="a_node6"><a xlink:href="plugin_8h.html" target="_top" xlink:title=" ">
<polygon fill="white" stroke="#666666" points="475.5,-646 425.5,-646 425.5,-627 475.5,-627 475.5,-646"/>
<text text-anchor="middle" x="450.5" y="-634" font-family="Helvetica,sans-Serif" font-size="10.00">plugin.h</text>
</a>
</g>
</g>
<!-- Node1&#45;&gt;Node6 -->
<g id="edge5" class="edge">
<title>Node1&#45;&gt;Node6</title>
<path fill="none" stroke="#63b8ff" d="M487.39,-681.54C480.63,-673.48 472.18,-663.38 465.06,-654.89"/>
<polygon fill="#63b8ff" stroke="#63b8ff" points="467.84,-652.75 458.74,-647.34 462.48,-657.25 467.84,-652.75"/>
</g>
<!-- Node40 -->
<g id="node40" class="node">
<title>Node40</title>
<g id="a_node40"><a xlink:href="binaryinfo_8h.html" target="_top" xlink:title=" ">
<polygon fill="white" stroke="#666666" points="916,-646 851,-646 851,-627 916,-627 916,-646"/>
<text text-anchor="middle" x="883.5" y="-634" font-family="Helvetica,sans-Serif" font-size="10.00">binaryinfo.h</text>
</a>
</g>
</g>
<!-- Node1&#45;&gt;Node40 -->
<g id="edge50" class="edge">
<title>Node1&#45;&gt;Node40</title>
<path fill="none" stroke="#63b8ff" d="M551.69,-688.05C627.83,-676.45 768.06,-655.09 839.36,-644.22"/>
<polygon fill="#63b8ff" stroke="#63b8ff" points="839.75,-647.7 849.11,-642.74 838.7,-640.78 839.75,-647.7"/>
</g>
<!-- Node42 -->
<g id="node42" class="node">
<title>Node42</title>
<g id="a_node42"><a xlink:href="pluginmanager_8h.html" target="_top" xlink:title=" ">
<polygon fill="white" stroke="#666666" points="599,-646 512,-646 512,-627 599,-627 599,-646"/>
<text text-anchor="middle" x="555.5" y="-634" font-family="Helvetica,sans-Serif" font-size="10.00">pluginmanager.h</text>
</a>
</g>
</g>
<!-- Node1&#45;&gt;Node42 -->
<g id="edge52" class="edge">
<title>Node1&#45;&gt;Node42</title>
<path fill="none" stroke="#63b8ff" d="M513.34,-681.54C521.23,-673.3 531.14,-662.94 539.38,-654.34"/>
<polygon fill="#63b8ff" stroke="#63b8ff" points="541.76,-656.91 546.15,-647.27 536.71,-652.07 541.76,-656.91"/>
</g>
<!-- Node51 -->
<g id="node51" class="node">
<title>Node51</title>
<g id="a_node51"><a xlink:href="pluginsection_8h.html" target="_top" xlink:title=" ">
<polygon fill="white" stroke="#666666" points="748,-646 667,-646 667,-627 748,-627 748,-646"/>
<text text-anchor="middle" x="707.5" y="-634" font-family="Helvetica,sans-Serif" font-size="10.00">pluginsection.h</text>
</a>
</g>
</g>
<!-- Node1&#45;&gt;Node51 -->
<g id="edge62" class="edge">
<title>Node1&#45;&gt;Node51</title>
<path fill="none" stroke="#63b8ff" d="M550.92,-681.54C586.04,-671.66 632.03,-658.73 665.07,-649.43"/>
<polygon fill="#63b8ff" stroke="#63b8ff" points="665.61,-652.92 674.28,-646.84 663.71,-646.18 665.61,-652.92"/>
</g>
<!-- Node3 -->
<g id="node3" class="node">
<title>Node3</title>
<g id="a_node3"><a xlink:href="interfaceslib_8h.html" target="_top" xlink:title=" ">
<polygon fill="white" stroke="#666666" points="123,-585.5 0,-585.5 0,-566.5 123,-566.5 123,-585.5"/>
<text text-anchor="middle" x="61.5" y="-573.5" font-family="Helvetica,sans-Serif" font-size="10.00">Interfaces/interfaceslib.h</text>
</a>
</g>
</g>
<!-- Node2&#45;&gt;Node3 -->
<g id="edge2" class="edge">
<title>Node2&#45;&gt;Node3</title>
<path fill="none" stroke="#63b8ff" d="M165.82,-626.62C145.86,-617.12 113.96,-601.95 90.68,-590.88"/>
<polygon fill="#63b8ff" stroke="#63b8ff" points="92.26,-587.75 81.72,-586.62 89.25,-594.07 92.26,-587.75"/>
</g>
<!-- Node4 -->
<g id="node4" class="node">
<title>Node4</title>
<g id="a_node4"><a xlink:title=" ">
<polygon fill="#e0e0e0" stroke="#999999" points="227.5,-585.5 141.5,-585.5 141.5,-566.5 227.5,-566.5 227.5,-585.5"/>
<text text-anchor="middle" x="184.5" y="-573.5" font-family="Helvetica,sans-Serif" font-size="10.00">modulesconfig.h</text>
</a>
</g>
</g>
<!-- Node2&#45;&gt;Node4 -->
<g id="edge3" class="edge">
<title>Node2&#45;&gt;Node4</title>
<path fill="none" stroke="#63b8ff" d="M184.5,-626.87C184.5,-619 184.5,-607.1 184.5,-596.89"/>
<polygon fill="#63b8ff" stroke="#63b8ff" points="188,-597.18 184.5,-587.18 181,-597.18 188,-597.18"/>
</g>
<!-- Node7 -->
<g id="node7" class="node">
<title>Node7</title>
<g id="a_node7"><a xlink:href="path_8h.html" target="_top" xlink:title=" ">
<polygon fill="white" stroke="#666666" points="429,-525 322,-525 322,-495 429,-495 429,-525"/>
<text text-anchor="start" x="330" y="-513" font-family="Helvetica,sans-Serif" font-size="10.00">Interfaces/filesystem</text>
<text text-anchor="middle" x="375.5" y="-502" font-family="Helvetica,sans-Serif" font-size="10.00">/path.h</text>
</a>
</g>
</g>
<!-- Node6&#45;&gt;Node7 -->
<g id="edge6" class="edge">
<title>Node6&#45;&gt;Node7</title>
<path fill="none" stroke="#63b8ff" d="M434.01,-626.55C421.3,-618.79 404.29,-606.41 394.5,-591 384.09,-574.62 379.37,-553.06 377.25,-536.46"/>
<polygon fill="#63b8ff" stroke="#63b8ff" points="380.77,-536.48 376.26,-526.89 373.8,-537.2 380.77,-536.48"/>
</g>
<!-- Node8 -->
<g id="node8" class="node">
<title>Node8</title>
<g id="a_node8"><a xlink:href="task_8h.html" target="_top" xlink:title=" ">
<polygon fill="white" stroke="#666666" points="497,-585.5 404,-585.5 404,-566.5 497,-566.5 497,-585.5"/>
<text text-anchor="middle" x="450.5" y="-573.5" font-family="Helvetica,sans-Serif" font-size="10.00">../threading/task.h</text>
</a>
</g>
</g>
<!-- Node6&#45;&gt;Node8 -->
<g id="edge7" class="edge">
<title>Node6&#45;&gt;Node8</title>
<path fill="none" stroke="#63b8ff" d="M450.5,-626.87C450.5,-619 450.5,-607.1 450.5,-596.89"/>
<polygon fill="#63b8ff" stroke="#63b8ff" points="454,-597.18 450.5,-587.18 447,-597.18 454,-597.18"/>
</g>
<!-- Node38 -->
<g id="node38" class="node">
<title>Node38</title>
<g id="a_node38"><a xlink:href="dlapi_8h.html" target="_top" xlink:title=" ">
<polygon fill="white" stroke="#666666" points="347,-585.5 246,-585.5 246,-566.5 347,-566.5 347,-585.5"/>
<text text-anchor="middle" x="296.5" y="-573.5" font-family="Helvetica,sans-Serif" font-size="10.00">Interfaces/dl/dlapi.h</text>
</a>
</g>
</g>
<!-- Node6&#45;&gt;Node38 -->
<g id="edge46" class="edge">
<title>Node6&#45;&gt;Node38</title>
<path fill="none" stroke="#63b8ff" d="M427.11,-626.62C401.44,-616.87 360,-601.12 330.69,-589.99"/>
<polygon fill="#63b8ff" stroke="#63b8ff" points="332.12,-586.79 321.52,-586.51 329.63,-593.33 332.12,-586.79"/>
</g>
<!-- Node9 -->
<g id="node9" class="node">
<title>Node9</title>
<g id="a_node9"><a xlink:href="src_2_generic_2coroutines_2handle_8h.html" target="_top" xlink:title=" ">
<polygon fill="white" stroke="#666666" points="545.5,-525 447.5,-525 447.5,-495 545.5,-495 545.5,-525"/>
<text text-anchor="start" x="455.5" y="-513" font-family="Helvetica,sans-Serif" font-size="10.00">Generic/coroutines</text>
<text text-anchor="middle" x="496.5" y="-502" font-family="Helvetica,sans-Serif" font-size="10.00">/handle.h</text>
</a>
</g>
</g>
<!-- Node8&#45;&gt;Node9 -->
<g id="edge8" class="edge">
<title>Node8&#45;&gt;Node9</title>
<path fill="none" stroke="#63b8ff" d="M456.9,-566.1C462.78,-557.92 471.76,-545.42 479.68,-534.4"/>
<polygon fill="#63b8ff" stroke="#63b8ff" points="482.39,-536.63 485.39,-526.46 476.71,-532.54 482.39,-536.63"/>
</g>
<!-- Node10 -->
<g id="node10" class="node">
<title>Node10</title>
<g id="a_node10"><a xlink:href="taskpromise_8h.html" target="_top" xlink:title=" ">
<polygon fill="white" stroke="#666666" points="641,-519.5 564,-519.5 564,-500.5 641,-500.5 641,-519.5"/>
<text text-anchor="middle" x="602.5" y="-507.5" font-family="Helvetica,sans-Serif" font-size="10.00">taskpromise.h</text>
</a>
</g>
</g>
<!-- Node8&#45;&gt;Node10 -->
<g id="edge9" class="edge">
<title>Node8&#45;&gt;Node10</title>
<path fill="none" stroke="#63b8ff" d="M471.63,-566.1C497.5,-555.21 541.51,-536.68 571.28,-524.14"/>
<polygon fill="#63b8ff" stroke="#63b8ff" points="572.29,-527.52 580.15,-520.41 569.58,-521.07 572.29,-527.52"/>
</g>
<!-- Node11 -->
<g id="node11" class="node">
<title>Node11</title>
<g id="a_node11"><a xlink:href="taskfuture_8h.html" target="_top" xlink:title=" ">
<polygon fill="white" stroke="#666666" points="732.5,-459 664.5,-459 664.5,-440 732.5,-440 732.5,-459"/>
<text text-anchor="middle" x="698.5" y="-447" font-family="Helvetica,sans-Serif" font-size="10.00">taskfuture.h</text>
</a>
</g>
</g>
<!-- Node10&#45;&gt;Node11 -->
<g id="edge10" class="edge">
<title>Node10&#45;&gt;Node11</title>
<path fill="none" stroke="#63b8ff" d="M617.08,-500.12C632.16,-490.92 655.99,-476.41 673.98,-465.44"/>
<polygon fill="#63b8ff" stroke="#63b8ff" points="675.77,-468.45 682.49,-460.26 672.13,-462.47 675.77,-468.45"/>
</g>
<!-- Node12 -->
<g id="node12" class="node">
<title>Node12</title>
<g id="a_node12"><a xlink:href="taskhandle_8h.html" target="_top" xlink:title=" ">
<polygon fill="white" stroke="#666666" points="665,-349 594,-349 594,-330 665,-330 665,-349"/>
<text text-anchor="middle" x="629.5" y="-337" font-family="Helvetica,sans-Serif" font-size="10.00">taskhandle.h</text>
</a>
</g>
</g>
<!-- Node10&#45;&gt;Node12 -->
<g id="edge44" class="edge">
<title>Node10&#45;&gt;Node12</title>
<path fill="none" stroke="#63b8ff" d="M603.88,-500.41C608.01,-474.62 620.39,-397.32 626.3,-360.47"/>
<polygon fill="#63b8ff" stroke="#63b8ff" points="629.73,-361.19 627.85,-350.77 622.82,-360.09 629.73,-361.19"/>
</g>
<!-- Node22 -->
<g id="node22" class="node">
<title>Node22</title>
<g id="a_node22"><a xlink:href="execution_2concepts_8h.html" target="_top" xlink:title=" ">
<polygon fill="white" stroke="#666666" points="647.5,-74 583.5,-74 583.5,-55 647.5,-55 647.5,-74"/>
<text text-anchor="middle" x="615.5" y="-62" font-family="Helvetica,sans-Serif" font-size="10.00">concepts.h</text>
</a>
</g>
</g>
<!-- Node10&#45;&gt;Node22 -->
<g id="edge45" class="edge">
<title>Node10&#45;&gt;Node22</title>
<path fill="none" stroke="#63b8ff" d="M570.6,-500.04C527.37,-485.71 455.5,-453.21 455.5,-395.5 455.5,-395.5 455.5,-395.5 455.5,-173.5 455.5,-144.04 453.83,-130.99 474.5,-110 488.34,-95.96 536.33,-82.74 572.52,-74.42"/>
<polygon fill="#63b8ff" stroke="#63b8ff" points="572.85,-77.93 581.84,-72.33 571.31,-71.1 572.85,-77.93"/>
</g>
<!-- Node11&#45;&gt;Node12 -->
<g id="edge11" class="edge">
<title>Node11&#45;&gt;Node12</title>
<path fill="none" stroke="#63b8ff" d="M689.32,-439.57C680.85,-430.99 668.29,-417.4 659.5,-404 650.28,-389.95 642.3,-372.62 636.89,-359.62"/>
<polygon fill="#63b8ff" stroke="#63b8ff" points="640.21,-358.5 633.24,-350.52 633.71,-361.1 640.21,-358.5"/>
</g>
<!-- Node13 -->
<g id="node13" class="node">
<title>Node13</title>
<g id="a_node13"><a xlink:href="taskpromisesharedstate_8h.html" target="_top" xlink:title=" ">
<polygon fill="white" stroke="#666666" points="796.5,-404 668.5,-404 668.5,-385 796.5,-385 796.5,-404"/>
<text text-anchor="middle" x="732.5" y="-392" font-family="Helvetica,sans-Serif" font-size="10.00">taskpromisesharedstate.h</text>
</a>
</g>
</g>
<!-- Node11&#45;&gt;Node13 -->
<g id="edge12" class="edge">
<title>Node11&#45;&gt;Node13</title>
<path fill="none" stroke="#63b8ff" d="M704.11,-439.75C708.62,-432.73 715.09,-422.64 720.71,-413.87"/>
<polygon fill="#63b8ff" stroke="#63b8ff" points="723.49,-416.02 725.95,-405.72 717.6,-412.24 723.49,-416.02"/>
</g>
<!-- Node13&#45;&gt;Node12 -->
<g id="edge43" class="edge">
<title>Node13&#45;&gt;Node12</title>
<path fill="none" stroke="#63b8ff" d="M715.03,-384.51C699.1,-376.31 675.31,-364.07 656.86,-354.58"/>
<polygon fill="#63b8ff" stroke="#63b8ff" points="658.55,-351.51 648.06,-350.05 655.35,-357.74 658.55,-351.51"/>
</g>
<!-- Node14 -->
<g id="node14" class="node">
<title>Node14</title>
<g id="a_node14"><a xlink:href="flag_8h.html" target="_top" xlink:title=" ">
<polygon fill="white" stroke="#666666" points="803.5,-349 683.5,-349 683.5,-330 803.5,-330 803.5,-349"/>
<text text-anchor="middle" x="743.5" y="-337" font-family="Helvetica,sans-Serif" font-size="10.00">Generic/execution/flag.h</text>
</a>
</g>
</g>
<!-- Node13&#45;&gt;Node14 -->
<g id="edge13" class="edge">
<title>Node13&#45;&gt;Node14</title>
<path fill="none" stroke="#63b8ff" d="M734.32,-384.75C735.68,-378.19 737.6,-368.95 739.33,-360.6"/>
<polygon fill="#63b8ff" stroke="#63b8ff" points="742.73,-361.43 741.34,-350.92 735.88,-360 742.73,-361.43"/>
</g>
<!-- Node15 -->
<g id="node15" class="node">
<title>Node15</title>
<g id="a_node15"><a xlink:href="flagstub_8h.html" target="_top" xlink:title=" ">
<polygon fill="white" stroke="#666666" points="772.5,-294 714.5,-294 714.5,-275 772.5,-275 772.5,-294"/>
<text text-anchor="middle" x="743.5" y="-282" font-family="Helvetica,sans-Serif" font-size="10.00">flagstub.h</text>
</a>
</g>
</g>
<!-- Node14&#45;&gt;Node15 -->
<g id="edge14" class="edge">
<title>Node14&#45;&gt;Node15</title>
<path fill="none" stroke="#63b8ff" d="M743.5,-329.75C743.5,-323.27 743.5,-314.16 743.5,-305.9"/>
<polygon fill="#63b8ff" stroke="#63b8ff" points="747,-305.96 743.5,-295.96 740,-305.96 747,-305.96"/>
</g>
<!-- Node16 -->
<g id="node16" class="node">
<title>Node16</title>
<g id="a_node16"><a xlink:href="algorithm_8h.html" target="_top" xlink:title=" ">
<polygon fill="white" stroke="#666666" points="852.5,-239 788.5,-239 788.5,-220 852.5,-220 852.5,-239"/>
<text text-anchor="middle" x="820.5" y="-227" font-family="Helvetica,sans-Serif" font-size="10.00">algorithm.h</text>
</a>
</g>
</g>
<!-- Node15&#45;&gt;Node16 -->
<g id="edge15" class="edge">
<title>Node15&#45;&gt;Node16</title>
<path fill="none" stroke="#63b8ff" d="M756.56,-274.51C768.02,-266.62 784.93,-254.98 798.48,-245.65"/>
<polygon fill="#63b8ff" stroke="#63b8ff" points="800.13,-248.77 806.38,-240.22 796.16,-243 800.13,-248.77"/>
</g>
<!-- Node24 -->
<g id="node24" class="node">
<title>Node24</title>
<g id="a_node24"><a xlink:href="connection_8h.html" target="_top" xlink:title=" ">
<polygon fill="white" stroke="#666666" points="589,-239 518,-239 518,-220 589,-220 589,-239"/>
<text text-anchor="middle" x="553.5" y="-227" font-family="Helvetica,sans-Serif" font-size="10.00">connection.h</text>
</a>
</g>
</g>
<!-- Node15&#45;&gt;Node24 -->
<g id="edge23" class="edge">
<title>Node15&#45;&gt;Node24</title>
<path fill="none" stroke="#63b8ff" d="M714.23,-275.33C682.72,-266.55 632.29,-252.48 596.33,-242.45"/>
<polygon fill="#63b8ff" stroke="#63b8ff" points="597.7,-239.19 587.12,-239.88 595.82,-245.94 597.7,-239.19"/>
</g>
<!-- Node29 -->
<g id="node29" class="node">
<title>Node29</title>
<g id="a_node29"><a xlink:href="virtualsender_8h.html" target="_top" xlink:title=" ">
<polygon fill="white" stroke="#666666" points="627.5,-184 547.5,-184 547.5,-165 627.5,-165 627.5,-184"/>
<text text-anchor="middle" x="587.5" y="-172" font-family="Helvetica,sans-Serif" font-size="10.00">virtualsender.h</text>
</a>
</g>
</g>
<!-- Node15&#45;&gt;Node29 -->
<g id="edge41" class="edge">
<title>Node15&#45;&gt;Node29</title>
<path fill="none" stroke="#63b8ff" d="M743.19,-274.84C742.24,-261.31 738.45,-235.12 723.5,-220 711.34,-207.7 672.16,-195.61 638.96,-187.15"/>
<polygon fill="#63b8ff" stroke="#63b8ff" points="640,-183.8 629.45,-184.79 638.31,-190.59 640,-183.8"/>
</g>
<!-- Node34 -->
<g id="node34" class="node">
<title>Node34</title>
<g id="a_node34"><a xlink:href="execution_8h.html" target="_top" xlink:title=" ">
<polygon fill="white" stroke="#666666" points="1150,-239 1085,-239 1085,-220 1150,-220 1150,-239"/>
<text text-anchor="middle" x="1117.5" y="-227" font-family="Helvetica,sans-Serif" font-size="10.00">execution.h</text>
</a>
</g>
</g>
<!-- Node15&#45;&gt;Node34 -->
<g id="edge36" class="edge">
<title>Node15&#45;&gt;Node34</title>
<path fill="none" stroke="#63b8ff" d="M772.85,-279.34C838.2,-270.08 996.04,-247.71 1073.34,-236.76"/>
<polygon fill="#63b8ff" stroke="#63b8ff" points="1073.68,-240.25 1083.09,-235.38 1072.7,-233.31 1073.68,-240.25"/>
</g>
<!-- Node37 -->
<g id="node37" class="node">
<title>Node37</title>
<g id="a_node37"><a xlink:href="stack_8h.html" target="_top" xlink:title=" ">
<polygon fill="white" stroke="#666666" points="715,-239 624,-239 624,-220 715,-220 715,-239"/>
<text text-anchor="middle" x="669.5" y="-227" font-family="Helvetica,sans-Serif" font-size="10.00">container/stack.h</text>
</a>
</g>
</g>
<!-- Node15&#45;&gt;Node37 -->
<g id="edge42" class="edge">
<title>Node15&#45;&gt;Node37</title>
<path fill="none" stroke="#63b8ff" d="M730.95,-274.51C720.04,-266.7 704,-255.21 691.04,-245.93"/>
<polygon fill="#63b8ff" stroke="#63b8ff" points="693.27,-243.22 683.1,-240.24 689.19,-248.91 693.27,-243.22"/>
</g>
<!-- Node17 -->
<g id="node17" class="node">
<title>Node17</title>
<g id="a_node17"><a xlink:href="delayedconstruct_8h.html" target="_top" xlink:title=" ">
<polygon fill="white" stroke="#666666" points="789,-184 684,-184 684,-165 789,-165 789,-184"/>
<text text-anchor="middle" x="736.5" y="-172" font-family="Helvetica,sans-Serif" font-size="10.00">../delayedconstruct.h</text>
</a>
</g>
</g>
<!-- Node16&#45;&gt;Node17 -->
<g id="edge16" class="edge">
<title>Node16&#45;&gt;Node17</title>
<path fill="none" stroke="#63b8ff" d="M806.25,-219.51C793.62,-211.54 774.94,-199.75 760.09,-190.38"/>
<polygon fill="#63b8ff" stroke="#63b8ff" points="762.14,-187.54 751.82,-185.17 758.41,-193.46 762.14,-187.54"/>
</g>
<!-- Node19 -->
<g id="node19" class="node">
<title>Node19</title>
<g id="a_node19"><a xlink:href="manuallifetime_8h.html" target="_top" xlink:title=" ">
<polygon fill="white" stroke="#666666" points="902,-184 807,-184 807,-165 902,-165 902,-184"/>
<text text-anchor="middle" x="854.5" y="-172" font-family="Helvetica,sans-Serif" font-size="10.00">../manuallifetime.h</text>
</a>
</g>
</g>
<!-- Node16&#45;&gt;Node19 -->
<g id="edge18" class="edge">
<title>Node16&#45;&gt;Node19</title>
<path fill="none" stroke="#63b8ff" d="M826.11,-219.75C830.62,-212.73 837.09,-202.64 842.71,-193.87"/>
<polygon fill="#63b8ff" stroke="#63b8ff" points="845.49,-196.02 847.95,-185.72 839.6,-192.24 845.49,-196.02"/>
</g>
<!-- Node20 -->
<g id="node20" class="node">
<title>Node20</title>
<g id="a_node20"><a xlink:href="pipable_8h.html" target="_top" xlink:title=" ">
<polygon fill="white" stroke="#666666" points="982.5,-184 920.5,-184 920.5,-165 982.5,-165 982.5,-184"/>
<text text-anchor="middle" x="951.5" y="-172" font-family="Helvetica,sans-Serif" font-size="10.00">../pipable.h</text>
</a>
</g>
</g>
<!-- Node16&#45;&gt;Node20 -->
<g id="edge19" class="edge">
<title>Node16&#45;&gt;Node20</title>
<path fill="none" stroke="#63b8ff" d="M842.72,-219.51C863.64,-211.04 895.23,-198.27 918.98,-188.66"/>
<polygon fill="#63b8ff" stroke="#63b8ff" points="920.25,-191.92 928.2,-184.93 917.62,-185.43 920.25,-191.92"/>
</g>
<!-- Node16&#45;&gt;Node22 -->
<g id="edge21" class="edge">
<title>Node16&#45;&gt;Node22</title>
<path fill="none" stroke="#63b8ff" d="M788.26,-226.01C756.11,-221.99 706.96,-211.47 674.5,-184 666.26,-177.03 638.32,-116.44 624.05,-84.7"/>
<polygon fill="#63b8ff" stroke="#63b8ff" points="627.37,-83.55 620.09,-75.85 620.98,-86.41 627.37,-83.55"/>
</g>
<!-- Node23 -->
<g id="node23" class="node">
<title>Node23</title>
<g id="a_node23"><a xlink:href="storage_8h.html" target="_top" xlink:title=" ">
<polygon fill="white" stroke="#666666" points="1056.5,-184 1000.5,-184 1000.5,-165 1056.5,-165 1056.5,-184"/>
<text text-anchor="middle" x="1028.5" y="-172" font-family="Helvetica,sans-Serif" font-size="10.00">storage.h</text>
</a>
</g>
</g>
<!-- Node16&#45;&gt;Node23 -->
<g id="edge22" class="edge">
<title>Node16&#45;&gt;Node23</title>
<path fill="none" stroke="#63b8ff" d="M853,-220.22C889.81,-210.84 949.79,-195.56 989.2,-185.51"/>
<polygon fill="#63b8ff" stroke="#63b8ff" points="989.94,-188.94 998.77,-183.08 988.21,-182.15 989.94,-188.94"/>
</g>
<!-- Node18 -->
<g id="node18" class="node">
<title>Node18</title>
<g id="a_node18"><a xlink:href="closure_8h.html" target="_top" xlink:title=" ">
<polygon fill="white" stroke="#666666" points="764.5,-129 708.5,-129 708.5,-110 764.5,-110 764.5,-129"/>
<text text-anchor="middle" x="736.5" y="-117" font-family="Helvetica,sans-Serif" font-size="10.00">closure.h</text>
</a>
</g>
</g>
<!-- Node17&#45;&gt;Node18 -->
<g id="edge17" class="edge">
<title>Node17&#45;&gt;Node18</title>
<path fill="none" stroke="#63b8ff" d="M736.5,-164.75C736.5,-158.27 736.5,-149.16 736.5,-140.9"/>
<polygon fill="#63b8ff" stroke="#63b8ff" points="740,-140.96 736.5,-130.96 733,-140.96 740,-140.96"/>
</g>
<!-- Node21 -->
<g id="node21" class="node">
<title>Node21</title>
<g id="a_node21"><a xlink:href="lift_8h.html" target="_top" xlink:title=" ">
<polygon fill="white" stroke="#666666" points="969,-129 934,-129 934,-110 969,-110 969,-129"/>
<text text-anchor="middle" x="951.5" y="-117" font-family="Helvetica,sans-Serif" font-size="10.00">lift.h</text>
</a>
</g>
</g>
<!-- Node20&#45;&gt;Node21 -->
<g id="edge20" class="edge">
<title>Node20&#45;&gt;Node21</title>
<path fill="none" stroke="#63b8ff" d="M951.5,-164.75C951.5,-158.27 951.5,-149.16 951.5,-140.9"/>
<polygon fill="#63b8ff" stroke="#63b8ff" points="955,-140.96 951.5,-130.96 948,-140.96 955,-140.96"/>
</g>
<!-- Node25 -->
<g id="node25" class="node">
<title>Node25</title>
<g id="a_node25"><a xlink:href="genericresult_8h.html" target="_top" xlink:title=" ">
<polygon fill="white" stroke="#666666" points="340,-184 253,-184 253,-165 340,-165 340,-184"/>
<text text-anchor="middle" x="296.5" y="-172" font-family="Helvetica,sans-Serif" font-size="10.00">../genericresult.h</text>
</a>
</g>
</g>
<!-- Node24&#45;&gt;Node25 -->
<g id="edge24" class="edge">
<title>Node24&#45;&gt;Node25</title>
<path fill="none" stroke="#63b8ff" d="M517.77,-221.13C474.55,-212.22 401.37,-197.13 351.08,-186.76"/>
<polygon fill="#63b8ff" stroke="#63b8ff" points="352.07,-183.39 341.57,-184.79 350.66,-190.24 352.07,-183.39"/>
</g>
<!-- Node24&#45;&gt;Node29 -->
<g id="edge28" class="edge">
<title>Node24&#45;&gt;Node29</title>
<path fill="none" stroke="#63b8ff" d="M559.11,-219.75C563.62,-212.73 570.09,-202.64 575.71,-193.87"/>
<polygon fill="#63b8ff" stroke="#63b8ff" points="578.49,-196.02 580.95,-185.72 572.6,-192.24 578.49,-196.02"/>
</g>
<!-- Node31 -->
<g id="node31" class="node">
<title>Node31</title>
<g id="a_node31"><a xlink:href="virtualstate_8h.html" target="_top" xlink:title=" ">
<polygon fill="white" stroke="#666666" points="555.5,-129 483.5,-129 483.5,-110 555.5,-110 555.5,-129"/>
<text text-anchor="middle" x="519.5" y="-117" font-family="Helvetica,sans-Serif" font-size="10.00">virtualstate.h</text>
</a>
</g>
</g>
<!-- Node24&#45;&gt;Node31 -->
<g id="edge35" class="edge">
<title>Node24&#45;&gt;Node31</title>
<path fill="none" stroke="#63b8ff" d="M550.42,-219.66C547.32,-210.71 542.45,-196.43 538.5,-184 533.84,-169.36 528.88,-152.72 525.19,-140.15"/>
<polygon fill="#63b8ff" stroke="#63b8ff" points="528.57,-139.23 522.41,-130.61 521.85,-141.19 528.57,-139.23"/>
</g>
<!-- Node26 -->
<g id="node26" class="node">
<title>Node26</title>
<g id="a_node26"><a xlink:href="enum_8h.html" target="_top" xlink:title=" ">
<polygon fill="white" stroke="#666666" points="320.5,-129 272.5,-129 272.5,-110 320.5,-110 320.5,-129"/>
<text text-anchor="middle" x="296.5" y="-117" font-family="Helvetica,sans-Serif" font-size="10.00">enum.h</text>
</a>
</g>
</g>
<!-- Node25&#45;&gt;Node26 -->
<g id="edge25" class="edge">
<title>Node25&#45;&gt;Node26</title>
<path fill="none" stroke="#63b8ff" d="M296.5,-164.75C296.5,-158.27 296.5,-149.16 296.5,-140.9"/>
<polygon fill="#63b8ff" stroke="#63b8ff" points="300,-140.96 296.5,-130.96 293,-140.96 300,-140.96"/>
</g>
<!-- Node27 -->
<g id="node27" class="node">
<title>Node27</title>
<g id="a_node27"><a xlink:href="array_8h.html" target="_top" xlink:title=" ">
<polygon fill="white" stroke="#666666" points="328.5,-74 264.5,-74 264.5,-55 328.5,-55 328.5,-74"/>
<text text-anchor="middle" x="296.5" y="-62" font-family="Helvetica,sans-Serif" font-size="10.00">bits/array.h</text>
</a>
</g>
</g>
<!-- Node26&#45;&gt;Node27 -->
<g id="edge26" class="edge">
<title>Node26&#45;&gt;Node27</title>
<path fill="none" stroke="#63b8ff" d="M296.5,-109.75C296.5,-103.27 296.5,-94.16 296.5,-85.9"/>
<polygon fill="#63b8ff" stroke="#63b8ff" points="300,-85.96 296.5,-75.96 293,-85.96 300,-85.96"/>
</g>
<!-- Node28 -->
<g id="node28" class="node">
<title>Node28</title>
<g id="a_node28"><a xlink:href="types_8h.html" target="_top" xlink:title=" ">
<polygon fill="white" stroke="#666666" points="320,-19 273,-19 273,0 320,0 320,-19"/>
<text text-anchor="middle" x="296.5" y="-7" font-family="Helvetica,sans-Serif" font-size="10.00">types.h</text>
</a>
</g>
</g>
<!-- Node27&#45;&gt;Node28 -->
<g id="edge27" class="edge">
<title>Node27&#45;&gt;Node28</title>
<path fill="none" stroke="#63b8ff" d="M296.5,-54.75C296.5,-48.27 296.5,-39.16 296.5,-30.9"/>
<polygon fill="#63b8ff" stroke="#63b8ff" points="300,-30.96 296.5,-20.96 293,-30.96 300,-30.96"/>
</g>
<!-- Node30 -->
<g id="node30" class="node">
<title>Node30</title>
<g id="a_node30"><a xlink:href="src_2_generic_2execution_2sender_8h.html" target="_top" xlink:title=" ">
<polygon fill="white" stroke="#666666" points="627,-129 574,-129 574,-110 627,-110 627,-129"/>
<text text-anchor="middle" x="600.5" y="-117" font-family="Helvetica,sans-Serif" font-size="10.00">sender.h</text>
</a>
</g>
</g>
<!-- Node29&#45;&gt;Node30 -->
<g id="edge29" class="edge">
<title>Node29&#45;&gt;Node30</title>
<path fill="none" stroke="#63b8ff" d="M589.65,-164.75C591.26,-158.19 593.52,-148.95 595.57,-140.6"/>
<polygon fill="#63b8ff" stroke="#63b8ff" points="598.96,-141.46 597.95,-130.91 592.16,-139.79 598.96,-141.46"/>
</g>
<!-- Node29&#45;&gt;Node31 -->
<g id="edge31" class="edge">
<title>Node29&#45;&gt;Node31</title>
<path fill="none" stroke="#63b8ff" d="M575.96,-164.51C566.04,-156.77 551.49,-145.43 539.64,-136.2"/>
<polygon fill="#63b8ff" stroke="#63b8ff" points="542.1,-133.68 532.06,-130.29 537.79,-139.2 542.1,-133.68"/>
</g>
<!-- Node30&#45;&gt;Node22 -->
<g id="edge30" class="edge">
<title>Node30&#45;&gt;Node22</title>
<path fill="none" stroke="#63b8ff" d="M602.98,-109.75C604.85,-103.11 607.51,-93.73 609.89,-85.31"/>
<polygon fill="#63b8ff" stroke="#63b8ff" points="613.2,-86.47 612.56,-75.9 606.47,-84.57 613.2,-86.47"/>
</g>
<!-- Node31&#45;&gt;Node22 -->
<g id="edge32" class="edge">
<title>Node31&#45;&gt;Node22</title>
<path fill="none" stroke="#63b8ff" d="M535.79,-109.51C550.49,-101.39 572.39,-89.3 589.52,-79.85"/>
<polygon fill="#63b8ff" stroke="#63b8ff" points="591.07,-82.99 598.13,-75.09 587.68,-76.86 591.07,-82.99"/>
</g>
<!-- Node32 -->
<g id="node32" class="node">
<title>Node32</title>
<g id="a_node32"><a xlink:href="virtual__invoke_8h.html" target="_top" xlink:title=" ">
<polygon fill="white" stroke="#666666" points="565,-74 444,-74 444,-55 565,-55 565,-74"/>
<text text-anchor="middle" x="504.5" y="-62" font-family="Helvetica,sans-Serif" font-size="10.00">Generic/virtual_invoke.h</text>
</a>
</g>
</g>
<!-- Node31&#45;&gt;Node32 -->
<g id="edge33" class="edge">
<title>Node31&#45;&gt;Node32</title>
<path fill="none" stroke="#63b8ff" d="M517.02,-109.75C515.15,-103.11 512.49,-93.73 510.11,-85.31"/>
<polygon fill="#63b8ff" stroke="#63b8ff" points="513.53,-84.57 507.44,-75.9 506.8,-86.47 513.53,-84.57"/>
</g>
<!-- Node33 -->
<g id="node33" class="node">
<title>Node33</title>
<g id="a_node33"><a xlink:href="callable__traits_8h.html" target="_top" xlink:title=" ">
<polygon fill="white" stroke="#666666" points="546.5,-19 462.5,-19 462.5,0 546.5,0 546.5,-19"/>
<text text-anchor="middle" x="504.5" y="-7" font-family="Helvetica,sans-Serif" font-size="10.00">callable_traits.h</text>
</a>
</g>
</g>
<!-- Node32&#45;&gt;Node33 -->
<g id="edge34" class="edge">
<title>Node32&#45;&gt;Node33</title>
<path fill="none" stroke="#63b8ff" d="M504.5,-54.75C504.5,-48.27 504.5,-39.16 504.5,-30.9"/>
<polygon fill="#63b8ff" stroke="#63b8ff" points="508,-30.96 504.5,-20.96 501,-30.96 508,-30.96"/>
</g>
<!-- Node34&#45;&gt;Node22 -->
<g id="edge39" class="edge">
<title>Node34&#45;&gt;Node22</title>
<path fill="none" stroke="#63b8ff" d="M1150.33,-225.74C1202.18,-220.13 1294,-204.42 1261.5,-165 1184.95,-72.14 791.81,-64.85 659.22,-65.08"/>
<polygon fill="#63b8ff" stroke="#63b8ff" points="659.45,-61.58 649.46,-65.12 659.47,-68.58 659.45,-61.58"/>
</g>
<!-- Node34&#45;&gt;Node23 -->
<g id="edge40" class="edge">
<title>Node34&#45;&gt;Node23</title>
<path fill="none" stroke="#63b8ff" d="M1102.4,-219.51C1088.9,-211.47 1068.85,-199.53 1053.04,-190.11"/>
<polygon fill="#63b8ff" stroke="#63b8ff" points="1055.06,-187.24 1044.68,-185.13 1051.48,-193.26 1055.06,-187.24"/>
</g>
<!-- Node35 -->
<g id="node35" class="node">
<title>Node35</title>
<g id="a_node35"><a xlink:href="makeowning_8h.html" target="_top" xlink:title=" ">
<polygon fill="white" stroke="#666666" points="1160.5,-184 1074.5,-184 1074.5,-165 1160.5,-165 1160.5,-184"/>
<text text-anchor="middle" x="1117.5" y="-172" font-family="Helvetica,sans-Serif" font-size="10.00">../makeowning.h</text>
</a>
</g>
</g>
<!-- Node34&#45;&gt;Node35 -->
<g id="edge37" class="edge">
<title>Node34&#45;&gt;Node35</title>
<path fill="none" stroke="#63b8ff" d="M1117.5,-219.75C1117.5,-213.27 1117.5,-204.16 1117.5,-195.9"/>
<polygon fill="#63b8ff" stroke="#63b8ff" points="1121,-195.96 1117.5,-185.96 1114,-195.96 1121,-195.96"/>
</g>
<!-- Node36 -->
<g id="node36" class="node">
<title>Node36</title>
<g id="a_node36"><a xlink:href="withresult_8h.html" target="_top" xlink:title=" ">
<polygon fill="white" stroke="#666666" points="1252.5,-184 1178.5,-184 1178.5,-165 1252.5,-165 1252.5,-184"/>
<text text-anchor="middle" x="1215.5" y="-172" font-family="Helvetica,sans-Serif" font-size="10.00">../withresult.h</text>
</a>
</g>
</g>
<!-- Node34&#45;&gt;Node36 -->
<g id="edge38" class="edge">
<title>Node34&#45;&gt;Node36</title>
<path fill="none" stroke="#63b8ff" d="M1134.12,-219.51C1149.28,-211.31 1171.92,-199.07 1189.47,-189.58"/>
<polygon fill="#63b8ff" stroke="#63b8ff" points="1190.66,-192.91 1197.79,-185.08 1187.33,-186.76 1190.66,-192.91"/>
</g>
<!-- Node38&#45;&gt;Node7 -->
<g id="edge47" class="edge">
<title>Node38&#45;&gt;Node7</title>
<path fill="none" stroke="#63b8ff" d="M307.48,-566.1C318.13,-557.48 334.68,-544.07 348.79,-532.63"/>
<polygon fill="#63b8ff" stroke="#63b8ff" points="350.89,-535.44 356.45,-526.43 346.48,-530.01 350.89,-535.44"/>
</g>
<!-- Node38&#45;&gt;Node25 -->
<g id="edge48" class="edge">
<title>Node38&#45;&gt;Node25</title>
<path fill="none" stroke="#63b8ff" d="M266.7,-566.12C246.02,-558.46 219.42,-545.36 203.5,-525 182.45,-498.08 184.5,-484.67 184.5,-450.5 184.5,-450.5 184.5,-450.5 184.5,-283.5 184.5,-238.53 231.87,-206.37 264.99,-189.39"/>
<polygon fill="#63b8ff" stroke="#63b8ff" points="266.37,-192.61 273.81,-185.07 263.29,-186.32 266.37,-192.61"/>
</g>
<!-- Node39 -->
<g id="node39" class="node">
<title>Node39</title>
<g id="a_node39"><a xlink:href="functor_8h.html" target="_top" xlink:title=" ">
<polygon fill="white" stroke="#666666" points="304,-519.5 213,-519.5 213,-500.5 304,-500.5 304,-519.5"/>
<text text-anchor="middle" x="258.5" y="-507.5" font-family="Helvetica,sans-Serif" font-size="10.00">Generic/functor.h</text>
</a>
</g>
</g>
<!-- Node38&#45;&gt;Node39 -->
<g id="edge49" class="edge">
<title>Node38&#45;&gt;Node39</title>
<path fill="none" stroke="#63b8ff" d="M291.22,-566.1C285.6,-556.64 276.56,-541.42 269.41,-529.37"/>
<polygon fill="#63b8ff" stroke="#63b8ff" points="272.63,-527.94 264.51,-521.12 266.61,-531.51 272.63,-527.94"/>
</g>
<!-- Node41 -->
<g id="node41" class="node">
<title>Node41</title>
<g id="a_node41"><a xlink:href="pluginlocal_8h.html" target="_top" xlink:title=" ">
<polygon fill="white" stroke="#666666" points="961.5,-585.5 891.5,-585.5 891.5,-566.5 961.5,-566.5 961.5,-585.5"/>
<text text-anchor="middle" x="926.5" y="-573.5" font-family="Helvetica,sans-Serif" font-size="10.00">pluginlocal.h</text>
</a>
</g>
</g>
<!-- Node40&#45;&gt;Node41 -->
<g id="edge51" class="edge">
<title>Node40&#45;&gt;Node41</title>
<path fill="none" stroke="#63b8ff" d="M889.84,-626.87C896.01,-618.49 905.54,-605.51 913.35,-594.89"/>
<polygon fill="#63b8ff" stroke="#63b8ff" points="916.13,-597.02 919.23,-586.89 910.49,-592.87 916.13,-597.02"/>
</g>
<!-- Node43 -->
<g id="node43" class="node">
<title>Node43</title>
<g id="a_node43"><a xlink:href="inifile_8h.html" target="_top" xlink:title=" ">
<polygon fill="white" stroke="#666666" points="581.5,-585.5 515.5,-585.5 515.5,-566.5 581.5,-566.5 581.5,-585.5"/>
<text text-anchor="middle" x="548.5" y="-573.5" font-family="Helvetica,sans-Serif" font-size="10.00">../ini/inifile.h</text>
</a>
</g>
</g>
<!-- Node42&#45;&gt;Node43 -->
<g id="edge53" class="edge">
<title>Node42&#45;&gt;Node43</title>
<path fill="none" stroke="#63b8ff" d="M554.47,-626.87C553.53,-619 552.1,-607.1 550.88,-596.89"/>
<polygon fill="#63b8ff" stroke="#63b8ff" points="554.38,-596.68 549.72,-587.17 547.43,-597.52 554.38,-596.68"/>
</g>
<!-- Node45 -->
<g id="node45" class="node">
<title>Node45</title>
<g id="a_node45"><a xlink:href="mutable__set_8h.html" target="_top" xlink:title=" ">
<polygon fill="white" stroke="#666666" points="731,-591 600,-591 600,-561 731,-561 731,-591"/>
<text text-anchor="start" x="608" y="-579" font-family="Helvetica,sans-Serif" font-size="10.00">Generic/container/mutable</text>
<text text-anchor="middle" x="665.5" y="-568" font-family="Helvetica,sans-Serif" font-size="10.00">_set.h</text>
</a>
</g>
</g>
<!-- Node42&#45;&gt;Node45 -->
<g id="edge56" class="edge">
<title>Node42&#45;&gt;Node45</title>
<path fill="none" stroke="#63b8ff" d="M572.21,-626.62C587.08,-618.7 609.38,-606.85 628.44,-596.71"/>
<polygon fill="#63b8ff" stroke="#63b8ff" points="629.83,-599.94 637.01,-592.15 626.54,-593.76 629.83,-599.94"/>
</g>
<!-- Node50 -->
<g id="node50" class="node">
<title>Node50</title>
<g id="a_node50"><a xlink:href="namecompare_8h.html" target="_top" xlink:title=" ">
<polygon fill="white" stroke="#666666" points="835.5,-585.5 749.5,-585.5 749.5,-566.5 835.5,-566.5 835.5,-585.5"/>
<text text-anchor="middle" x="792.5" y="-573.5" font-family="Helvetica,sans-Serif" font-size="10.00">namecompare.h</text>
</a>
</g>
</g>
<!-- Node42&#45;&gt;Node50 -->
<g id="edge61" class="edge">
<title>Node42&#45;&gt;Node50</title>
<path fill="none" stroke="#63b8ff" d="M594.2,-626.51C631.68,-617.73 690.08,-603.85 740.5,-591 743.23,-590.3 746.05,-589.58 748.88,-588.84"/>
<polygon fill="#63b8ff" stroke="#63b8ff" points="749.57,-592.27 758.34,-586.33 747.78,-585.51 749.57,-592.27"/>
</g>
<!-- Node43&#45;&gt;Node7 -->
<g id="edge54" class="edge">
<title>Node43&#45;&gt;Node7</title>
<path fill="none" stroke="#63b8ff" d="M524.45,-566.1C498.92,-556.66 457.86,-541.47 425.31,-529.43"/>
<polygon fill="#63b8ff" stroke="#63b8ff" points="426.65,-526.19 416.05,-526 424.22,-532.76 426.65,-526.19"/>
</g>
<!-- Node44 -->
<g id="node44" class="node">
<title>Node44</title>
<g id="a_node44"><a xlink:href="inisection_8h.html" target="_top" xlink:title=" ">
<polygon fill="white" stroke="#666666" points="724,-519.5 659,-519.5 659,-500.5 724,-500.5 724,-519.5"/>
<text text-anchor="middle" x="691.5" y="-507.5" font-family="Helvetica,sans-Serif" font-size="10.00">inisection.h</text>
</a>
</g>
</g>
<!-- Node43&#45;&gt;Node44 -->
<g id="edge55" class="edge">
<title>Node43&#45;&gt;Node44</title>
<path fill="none" stroke="#63b8ff" d="M568.38,-566.1C592.5,-555.31 633.4,-537 661.39,-524.48"/>
<polygon fill="#63b8ff" stroke="#63b8ff" points="662.71,-527.72 670.4,-520.44 659.85,-521.33 662.71,-527.72"/>
</g>
<!-- Node46 -->
<g id="node46" class="node">
<title>Node46</title>
<g id="a_node46"><a xlink:href="emplace_8h.html" target="_top" xlink:title=" ">
<polygon fill="white" stroke="#666666" points="953,-519.5 892,-519.5 892,-500.5 953,-500.5 953,-519.5"/>
<text text-anchor="middle" x="922.5" y="-507.5" font-family="Helvetica,sans-Serif" font-size="10.00">emplace.h</text>
</a>
</g>
</g>
<!-- Node45&#45;&gt;Node46 -->
<g id="edge57" class="edge">
<title>Node45&#45;&gt;Node46</title>
<path fill="none" stroke="#63b8ff" d="M723.5,-560.56C771.23,-548.67 837.77,-532.1 880.49,-521.46"/>
<polygon fill="#63b8ff" stroke="#63b8ff" points="881.29,-524.87 890.14,-519.06 879.59,-518.08 881.29,-524.87"/>
</g>
<!-- Node47 -->
<g id="node47" class="node">
<title>Node47</title>
<g id="a_node47"><a xlink:href="container__traits_8h.html" target="_top" xlink:title=" ">
<polygon fill="white" stroke="#666666" points="968,-459 877,-459 877,-440 968,-440 968,-459"/>
<text text-anchor="middle" x="922.5" y="-447" font-family="Helvetica,sans-Serif" font-size="10.00">container_traits.h</text>
</a>
</g>
</g>
<!-- Node46&#45;&gt;Node47 -->
<g id="edge58" class="edge">
<title>Node46&#45;&gt;Node47</title>
<path fill="none" stroke="#63b8ff" d="M922.5,-500.37C922.5,-492.5 922.5,-480.6 922.5,-470.39"/>
<polygon fill="#63b8ff" stroke="#63b8ff" points="926,-470.68 922.5,-460.68 919,-470.68 926,-470.68"/>
</g>
<!-- Node48 -->
<g id="node48" class="node">
<title>Node48</title>
<g id="a_node48"><a xlink:href="indextype_8h.html" target="_top" xlink:title=" ">
<polygon fill="white" stroke="#666666" points="922.5,-404 850.5,-404 850.5,-385 922.5,-385 922.5,-404"/>
<text text-anchor="middle" x="886.5" y="-392" font-family="Helvetica,sans-Serif" font-size="10.00">../indextype.h</text>
</a>
</g>
</g>
<!-- Node47&#45;&gt;Node48 -->
<g id="edge59" class="edge">
<title>Node47&#45;&gt;Node48</title>
<path fill="none" stroke="#63b8ff" d="M916.56,-439.75C911.79,-432.73 904.94,-422.64 898.98,-413.87"/>
<polygon fill="#63b8ff" stroke="#63b8ff" points="901.94,-412 893.42,-405.69 896.15,-415.93 901.94,-412"/>
</g>
<!-- Node49 -->
<g id="node49" class="node">
<title>Node49</title>
<g id="a_node49"><a xlink:href="underlying__container_8h.html" target="_top" xlink:title=" ">
<polygon fill="white" stroke="#666666" points="1054,-404 941,-404 941,-385 1054,-385 1054,-404"/>
<text text-anchor="middle" x="997.5" y="-392" font-family="Helvetica,sans-Serif" font-size="10.00">underlying_container.h</text>
</a>
</g>
</g>
<!-- Node47&#45;&gt;Node49 -->
<g id="edge60" class="edge">
<title>Node47&#45;&gt;Node49</title>
<path fill="none" stroke="#63b8ff" d="M935.22,-439.51C946.28,-431.7 962.54,-420.21 975.67,-410.93"/>
<polygon fill="#63b8ff" stroke="#63b8ff" points="977.58,-413.86 983.73,-405.23 973.54,-408.14 977.58,-413.86"/>
</g>
<!-- Node51&#45;&gt;Node11 -->
<g id="edge63" class="edge">
<title>Node51&#45;&gt;Node11</title>
<path fill="none" stroke="#63b8ff" d="M748.46,-634.41C780.35,-631.14 822.74,-620.94 844.5,-591 852.34,-580.21 850.44,-572.94 844.5,-561 820.9,-513.54 766.1,-481.02 730.76,-464.12"/>
<polygon fill="#63b8ff" stroke="#63b8ff" points="732.39,-461.02 721.84,-460.01 729.46,-467.38 732.39,-461.02"/>
</g>
<!-- Node51&#45;&gt;Node45 -->
<g id="edge64" class="edge">
<title>Node51&#45;&gt;Node45</title>
<path fill="none" stroke="#63b8ff" d="M701.3,-626.87C696.29,-619.89 688.99,-609.71 682.28,-600.38"/>
<polygon fill="#63b8ff" stroke="#63b8ff" points="685.19,-598.43 676.52,-592.34 679.51,-602.51 685.19,-598.43"/>
</g>
<!-- Node51&#45;&gt;Node50 -->
<g id="edge65" class="edge">
<title>Node51&#45;&gt;Node50</title>
<path fill="none" stroke="#63b8ff" d="M720.41,-626.62C733.64,-617.51 754.47,-603.18 770.34,-592.25"/>
<polygon fill="#63b8ff" stroke="#63b8ff" points="771.97,-595.38 778.22,-586.83 768,-589.61 771.97,-595.38"/>
</g>
</g>
</svg>
