<?xml version="1.0" encoding="UTF-8" standalone="no"?>
<!DOCTYPE svg PUBLIC "-//W3C//DTD SVG 1.1//EN"
 "http://www.w3.org/Graphics/SVG/1.1/DTD/svg11.dtd">
<!-- Generated by graphviz version 7.0.5 (20221223.1930)
 -->
<!-- Title: src/Modules/plugins/pluginsection.h Pages: 1 -->
<svg width="700pt" height="115pt"
 viewBox="0.00 0.00 699.50 115.00" xmlns="http://www.w3.org/2000/svg" xmlns:xlink="http://www.w3.org/1999/xlink">
<g id="graph0" class="graph" transform="scale(1 1) rotate(0) translate(4 111)">
<title>src/Modules/plugins/pluginsection.h</title>
<!-- Node1 -->
<g id="node1" class="node">
<title>Node1</title>
<g id="a_node1"><a xlink:title=" ">
<polygon fill="#999999" stroke="#666666" points="363.5,-107 259.5,-107 259.5,-77 363.5,-77 363.5,-107"/>
<text text-anchor="start" x="267.5" y="-95" font-family="Helvetica,sans-Serif" font-size="10.00">src/Modules/plugins</text>
<text text-anchor="middle" x="311.5" y="-84" font-family="Helvetica,sans-Serif" font-size="10.00">/pluginsection.h</text>
</a>
</g>
</g>
<!-- Node2 -->
<g id="node2" class="node">
<title>Node2</title>
<g id="a_node2"><a xlink:href="resourcemanager_8cpp.html" target="_top" xlink:title=" ">
<polygon fill="white" stroke="#666666" points="119,-41 0,-41 0,0 119,0 119,-41"/>
<text text-anchor="start" x="8" y="-29" font-family="Helvetica,sans-Serif" font-size="10.00">plugins/resources/api</text>
<text text-anchor="start" x="8" y="-18" font-family="Helvetica,sans-Serif" font-size="10.00">/src/Madgine/resources</text>
<text text-anchor="middle" x="59.5" y="-7" font-family="Helvetica,sans-Serif" font-size="10.00">/resourcemanager.cpp</text>
</a>
</g>
</g>
<!-- Node1&#45;&gt;Node2 -->
<g id="edge1" class="edge">
<title>Node1&#45;&gt;Node2</title>
<path fill="none" stroke="#63b8ff" d="M247.92,-73.78C212.71,-64.2 168.16,-52.02 128.5,-41 125.5,-40.17 122.43,-39.31 119.33,-38.44"/>
<polygon fill="#63b8ff" stroke="#63b8ff" points="246.98,-77.15 257.55,-76.39 248.82,-70.39 246.98,-77.15"/>
</g>
<!-- Node3 -->
<g id="node3" class="node">
<title>Node3</title>
<g id="a_node3"><a xlink:href="plugin_8cpp.html" target="_top" xlink:title=" ">
<polygon fill="white" stroke="#666666" points="241.5,-35.5 137.5,-35.5 137.5,-5.5 241.5,-5.5 241.5,-35.5"/>
<text text-anchor="start" x="145.5" y="-23.5" font-family="Helvetica,sans-Serif" font-size="10.00">src/Modules/plugins</text>
<text text-anchor="middle" x="189.5" y="-12.5" font-family="Helvetica,sans-Serif" font-size="10.00">/plugin.cpp</text>
</a>
</g>
</g>
<!-- Node1&#45;&gt;Node3 -->
<g id="edge2" class="edge">
<title>Node1&#45;&gt;Node3</title>
<path fill="none" stroke="#63b8ff" d="M276.38,-70.99C256.68,-59.77 232.57,-46.04 214.75,-35.88"/>
<polygon fill="#63b8ff" stroke="#63b8ff" points="274.48,-73.94 284.91,-75.85 277.95,-67.86 274.48,-73.94"/>
</g>
<!-- Node4 -->
<g id="node4" class="node">
<title>Node4</title>
<g id="a_node4"><a xlink:href="pluginmanager_8cpp.html" target="_top" xlink:title=" ">
<polygon fill="white" stroke="#666666" points="363.5,-35.5 259.5,-35.5 259.5,-5.5 363.5,-5.5 363.5,-35.5"/>
<text text-anchor="start" x="267.5" y="-23.5" font-family="Helvetica,sans-Serif" font-size="10.00">src/Modules/plugins</text>
<text text-anchor="middle" x="311.5" y="-12.5" font-family="Helvetica,sans-Serif" font-size="10.00">/pluginmanager.cpp</text>
</a>
</g>
</g>
<!-- Node1&#45;&gt;Node4 -->
<g id="edge3" class="edge">
<title>Node1&#45;&gt;Node4</title>
<path fill="none" stroke="#63b8ff" d="M311.5,-65.26C311.5,-55.33 311.5,-44.36 311.5,-35.88"/>
<polygon fill="#63b8ff" stroke="#63b8ff" points="308,-65.09 311.5,-75.09 315,-65.09 308,-65.09"/>
</g>
<!-- Node5 -->
<g id="node5" class="node">
<title>Node5</title>
<g id="a_node5"><a xlink:href="pluginsection_8cpp.html" target="_top" xlink:title=" ">
<polygon fill="white" stroke="#666666" points="485.5,-35.5 381.5,-35.5 381.5,-5.5 485.5,-5.5 485.5,-35.5"/>
<text text-anchor="start" x="389.5" y="-23.5" font-family="Helvetica,sans-Serif" font-size="10.00">src/Modules/plugins</text>
<text text-anchor="middle" x="433.5" y="-12.5" font-family="Helvetica,sans-Serif" font-size="10.00">/pluginsection.cpp</text>
</a>
</g>
</g>
<!-- Node1&#45;&gt;Node5 -->
<g id="edge4" class="edge">
<title>Node1&#45;&gt;Node5</title>
<path fill="none" stroke="#63b8ff" d="M346.62,-70.99C366.32,-59.77 390.43,-46.04 408.25,-35.88"/>
<polygon fill="#63b8ff" stroke="#63b8ff" points="345.05,-67.86 338.09,-75.85 348.52,-73.94 345.05,-67.86"/>
</g>
<!-- Node6 -->
<g id="node6" class="node">
<title>Node6</title>
<g id="a_node6"><a xlink:href="uniquecomponentcollectormanager_8cpp.html" target="_top" xlink:title=" ">
<polygon fill="white" stroke="#666666" points="691.5,-35.5 503.5,-35.5 503.5,-5.5 691.5,-5.5 691.5,-35.5"/>
<text text-anchor="start" x="511.5" y="-23.5" font-family="Helvetica,sans-Serif" font-size="10.00">src/Modules/uniquecomponent</text>
<text text-anchor="middle" x="597.5" y="-12.5" font-family="Helvetica,sans-Serif" font-size="10.00">/uniquecomponentcollectormanager.cpp</text>
</a>
</g>
</g>
<!-- Node1&#45;&gt;Node6 -->
<g id="edge5" class="edge">
<title>Node1&#45;&gt;Node6</title>
<path fill="none" stroke="#63b8ff" d="M374.98,-75.57C423.64,-63.75 490.31,-47.55 537.96,-35.97"/>
<polygon fill="#63b8ff" stroke="#63b8ff" points="374.32,-72.13 365.43,-77.9 375.97,-78.93 374.32,-72.13"/>
</g>
</g>
</svg>
