<?xml version="1.0" encoding="UTF-8" standalone="no"?>
<!DOCTYPE svg PUBLIC "-//W3C//DTD SVG 1.1//EN"
 "http://www.w3.org/Graphics/SVG/1.1/DTD/svg11.dtd">
<!-- Generated by graphviz version 7.0.5 (20221223.1930)
 -->
<!-- Title: src/Modules/debug/profiler/profile.h Pages: 1 -->
<svg width="969pt" height="115pt"
 viewBox="0.00 0.00 968.50 115.00" xmlns="http://www.w3.org/2000/svg" xmlns:xlink="http://www.w3.org/1999/xlink">
<g id="graph0" class="graph" transform="scale(1 1) rotate(0) translate(4 111)">
<title>src/Modules/debug/profiler/profile.h</title>
<!-- Node1 -->
<g id="node1" class="node">
<title>Node1</title>
<g id="a_node1"><a xlink:title=" ">
<polygon fill="#999999" stroke="#666666" points="465,-107 334,-107 334,-77 465,-77 465,-107"/>
<text text-anchor="start" x="342" y="-95" font-family="Helvetica,sans-Serif" font-size="10.00">src/Modules/debug/profiler</text>
<text text-anchor="middle" x="399.5" y="-84" font-family="Helvetica,sans-Serif" font-size="10.00">/profile.h</text>
</a>
</g>
</g>
<!-- Node2 -->
<g id="node2" class="node">
<title>Node2</title>
<g id="a_node2"><a xlink:href="handlermanager_8cpp.html" target="_top" xlink:title=" ">
<polygon fill="white" stroke="#666666" points="163,-35.5 0,-35.5 0,-5.5 163,-5.5 163,-35.5"/>
<text text-anchor="start" x="8" y="-23.5" font-family="Helvetica,sans-Serif" font-size="10.00">plugins/behavior/handler</text>
<text text-anchor="middle" x="81.5" y="-12.5" font-family="Helvetica,sans-Serif" font-size="10.00">/src/Madgine/handlermanager.cpp</text>
</a>
</g>
</g>
<!-- Node1&#45;&gt;Node2 -->
<g id="edge1" class="edge">
<title>Node1&#45;&gt;Node2</title>
<path fill="none" stroke="#63b8ff" d="M322.47,-74.17C269,-62.48 198.49,-47.07 147.58,-35.94"/>
<polygon fill="#63b8ff" stroke="#63b8ff" points="321.61,-77.56 332.13,-76.28 323.11,-70.72 321.61,-77.56"/>
</g>
<!-- Node3 -->
<g id="node3" class="node">
<title>Node3</title>
<g id="a_node3"><a xlink:href="mainwindow_8cpp.html" target="_top" xlink:title=" ">
<polygon fill="white" stroke="#666666" points="290,-41 181,-41 181,0 290,0 290,-41"/>
<text text-anchor="start" x="189" y="-29" font-family="Helvetica,sans-Serif" font-size="10.00">plugins/client/api</text>
<text text-anchor="start" x="189" y="-18" font-family="Helvetica,sans-Serif" font-size="10.00">/src/Madgine/window</text>
<text text-anchor="middle" x="235.5" y="-7" font-family="Helvetica,sans-Serif" font-size="10.00">/mainwindow.cpp</text>
</a>
</g>
</g>
<!-- Node1&#45;&gt;Node3 -->
<g id="edge2" class="edge">
<title>Node1&#45;&gt;Node3</title>
<path fill="none" stroke="#63b8ff" d="M354.92,-72.11C332.48,-62.6 305.27,-51.07 282.5,-41.42"/>
<polygon fill="#63b8ff" stroke="#63b8ff" points="353.55,-75.33 364.13,-76.01 356.28,-68.88 353.55,-75.33"/>
</g>
<!-- Node4 -->
<g id="node4" class="node">
<title>Node4</title>
<g id="a_node4"><a xlink:href="rendercontext_8cpp.html" target="_top" xlink:title=" ">
<polygon fill="white" stroke="#666666" points="490.5,-35.5 308.5,-35.5 308.5,-5.5 490.5,-5.5 490.5,-35.5"/>
<text text-anchor="start" x="316.5" y="-23.5" font-family="Helvetica,sans-Serif" font-size="10.00">plugins/renderer/api</text>
<text text-anchor="middle" x="399.5" y="-12.5" font-family="Helvetica,sans-Serif" font-size="10.00">/src/Madgine/render/rendercontext.cpp</text>
</a>
</g>
</g>
<!-- Node1&#45;&gt;Node4 -->
<g id="edge3" class="edge">
<title>Node1&#45;&gt;Node4</title>
<path fill="none" stroke="#63b8ff" d="M399.5,-65.26C399.5,-55.33 399.5,-44.36 399.5,-35.88"/>
<polygon fill="#63b8ff" stroke="#63b8ff" points="396,-65.09 399.5,-75.09 403,-65.09 396,-65.09"/>
</g>
<!-- Node5 -->
<g id="node5" class="node">
<title>Node5</title>
<g id="a_node5"><a xlink:href="directx12renderwindow_8cpp.html" target="_top" xlink:title=" ">
<polygon fill="white" stroke="#666666" points="708,-35.5 509,-35.5 509,-5.5 708,-5.5 708,-35.5"/>
<text text-anchor="start" x="517" y="-23.5" font-family="Helvetica,sans-Serif" font-size="10.00">plugins/renderer/directx12</text>
<text text-anchor="middle" x="608.5" y="-12.5" font-family="Helvetica,sans-Serif" font-size="10.00">/src/DirectX12/directx12renderwindow.cpp</text>
</a>
</g>
</g>
<!-- Node1&#45;&gt;Node5 -->
<g id="edge4" class="edge">
<title>Node1&#45;&gt;Node5</title>
<path fill="none" stroke="#63b8ff" d="M453.93,-72.9C488.54,-61.39 532.73,-46.69 565,-35.97"/>
<polygon fill="#63b8ff" stroke="#63b8ff" points="452.88,-69.56 444.5,-76.04 455.09,-76.2 452.88,-69.56"/>
</g>
<!-- Node6 -->
<g id="node6" class="node">
<title>Node6</title>
<g id="a_node6"><a xlink:href="directx12commandallocator_8cpp.html" target="_top" xlink:title=" ">
<polygon fill="white" stroke="#666666" points="960.5,-35.5 726.5,-35.5 726.5,-5.5 960.5,-5.5 960.5,-35.5"/>
<text text-anchor="start" x="734.5" y="-23.5" font-family="Helvetica,sans-Serif" font-size="10.00">plugins/renderer/directx12</text>
<text text-anchor="middle" x="843.5" y="-12.5" font-family="Helvetica,sans-Serif" font-size="10.00">/src/DirectX12/util/directx12commandallocator.cpp</text>
</a>
</g>
</g>
<!-- Node1&#45;&gt;Node6 -->
<g id="edge5" class="edge">
<title>Node1&#45;&gt;Node6</title>
<path fill="none" stroke="#63b8ff" d="M476.46,-78.95C552.83,-67 669.94,-48.67 751.25,-35.94"/>
<polygon fill="#63b8ff" stroke="#63b8ff" points="476.33,-75.43 466.99,-80.44 477.41,-82.35 476.33,-75.43"/>
</g>
</g>
</svg>
