<?xml version="1.0" encoding="UTF-8" standalone="no"?>
<!DOCTYPE svg PUBLIC "-//W3C//DTD SVG 1.1//EN"
 "http://www.w3.org/Graphics/SVG/1.1/DTD/svg11.dtd">
<!-- Generated by graphviz version 7.0.5 (20221223.1930)
 -->
<!-- Title: src/Modules/debug/profiler/profiler.h Pages: 1 -->
<svg width="541pt" height="104pt"
 viewBox="0.00 0.00 540.50 104.00" xmlns="http://www.w3.org/2000/svg" xmlns:xlink="http://www.w3.org/1999/xlink">
<g id="graph0" class="graph" transform="scale(1 1) rotate(0) translate(4 100)">
<title>src/Modules/debug/profiler/profiler.h</title>
<!-- Node1 -->
<g id="node1" class="node">
<title>Node1</title>
<g id="a_node1"><a xlink:title=" ">
<polygon fill="#999999" stroke="#666666" points="383.5,-96 252.5,-96 252.5,-66 383.5,-66 383.5,-96"/>
<text text-anchor="start" x="260.5" y="-84" font-family="Helvetica,sans-Serif" font-size="10.00">src/Modules/debug/profiler</text>
<text text-anchor="middle" x="318" y="-73" font-family="Helvetica,sans-Serif" font-size="10.00">/profiler.h</text>
</a>
</g>
</g>
<!-- Node2 -->
<g id="node2" class="node">
<title>Node2</title>
<g id="a_node2"><a xlink:href="directx12commandallocator_8cpp.html" target="_top" xlink:title=" ">
<polygon fill="white" stroke="#666666" points="234,-30 0,-30 0,0 234,0 234,-30"/>
<text text-anchor="start" x="8" y="-18" font-family="Helvetica,sans-Serif" font-size="10.00">plugins/renderer/directx12</text>
<text text-anchor="middle" x="117" y="-7" font-family="Helvetica,sans-Serif" font-size="10.00">/src/DirectX12/util/directx12commandallocator.cpp</text>
</a>
</g>
</g>
<!-- Node1&#45;&gt;Node2 -->
<g id="edge1" class="edge">
<title>Node1&#45;&gt;Node2</title>
<path fill="none" stroke="#63b8ff" d="M261.84,-62.12C230.39,-52.1 191.68,-39.78 162.19,-30.39"/>
<polygon fill="#63b8ff" stroke="#63b8ff" points="260.61,-65.4 271.2,-65.1 262.73,-58.73 260.61,-65.4"/>
</g>
<!-- Node3 -->
<g id="node3" class="node">
<title>Node3</title>
<g id="a_node3"><a xlink:href="profiler_8cpp.html" target="_top" xlink:title=" ">
<polygon fill="white" stroke="#666666" points="383.5,-30 252.5,-30 252.5,0 383.5,0 383.5,-30"/>
<text text-anchor="start" x="260.5" y="-18" font-family="Helvetica,sans-Serif" font-size="10.00">src/Modules/debug/profiler</text>
<text text-anchor="middle" x="318" y="-7" font-family="Helvetica,sans-Serif" font-size="10.00">/profiler.cpp</text>
</a>
</g>
</g>
<!-- Node1&#45;&gt;Node3 -->
<g id="edge2" class="edge">
<title>Node1&#45;&gt;Node3</title>
<path fill="none" stroke="#63b8ff" d="M318,-54.39C318,-46.13 318,-37.28 318,-30.16"/>
<polygon fill="#63b8ff" stroke="#63b8ff" points="314.5,-54.28 318,-64.28 321.5,-54.28 314.5,-54.28"/>
</g>
<!-- Node4 -->
<g id="node4" class="node">
<title>Node4</title>
<g id="a_node4"><a xlink:href="profilerthread_8cpp.html" target="_top" xlink:title=" ">
<polygon fill="white" stroke="#666666" points="532.5,-30 401.5,-30 401.5,0 532.5,0 532.5,-30"/>
<text text-anchor="start" x="409.5" y="-18" font-family="Helvetica,sans-Serif" font-size="10.00">src/Modules/debug/profiler</text>
<text text-anchor="middle" x="467" y="-7" font-family="Helvetica,sans-Serif" font-size="10.00">/profilerthread.cpp</text>
</a>
</g>
</g>
<!-- Node1&#45;&gt;Node4 -->
<g id="edge3" class="edge">
<title>Node1&#45;&gt;Node4</title>
<path fill="none" stroke="#63b8ff" d="M361.91,-61.14C384.77,-51.32 412.28,-39.51 433.42,-30.43"/>
<polygon fill="#63b8ff" stroke="#63b8ff" points="360.64,-57.88 352.83,-65.04 363.4,-64.31 360.64,-57.88"/>
</g>
</g>
</svg>
