<?xml version="1.0" encoding="UTF-8" standalone="no"?>
<!DOCTYPE svg PUBLIC "-//W3C//DTD SVG 1.1//EN"
 "http://www.w3.org/Graphics/SVG/1.1/DTD/svg11.dtd">
<!-- Generated by graphviz version 7.0.5 (20221223.1930)
 -->
<!-- Title: plugins/behavior/python3/src/Python3/util/pydictptr.h Pages: 1 -->
<!--zoomable 236 -->
<svg id="main" version="1.1" xmlns="http://www.w3.org/2000/svg" xmlns:xlink="http://www.w3.org/1999/xlink" xml:space="preserve" onload="init(evt)">
<style type="text/css"><![CDATA[
.edge:hover path { stroke: red; }
.edge:hover polygon { stroke: red; fill: red; }
]]></style>
<script type="text/javascript"><![CDATA[
var edges = document.getElementsByTagName('g');
if (edges && edges.length) {
  for (var i=0;i<edges.length;i++) {
    if (edges[i].id.substr(0,4)=='edge') {
      edges[i].setAttribute('class','edge');
    }
  }
}
]]></script>
        <defs>
                <circle id="rim" cx="0" cy="0" r="7"/>
                <circle id="rim2" cx="0" cy="0" r="3.5"/>
                <g id="zoomPlus">
                        <use xlink:href="#rim" fill="#404040">
                                <set attributeName="fill" to="#808080" begin="zoomplus.mouseover" end="zoomplus.mouseout"/>
                        </use>
                        <path d="M-4,0h8M0,-4v8" fill="none" stroke="white" stroke-width="1.5" pointer-events="none"/>
                </g>
                <g id="zoomMin">
                        <use xlink:href="#rim" fill="#404040">
                                <set attributeName="fill" to="#808080" begin="zoomminus.mouseover" end="zoomminus.mouseout"/>
                        </use>
                        <path d="M-4,0h8" fill="none" stroke="white" stroke-width="1.5" pointer-events="none"/>
                </g>
                <g id="dirArrow">
                        <path fill="none" stroke="white" stroke-width="1.5" d="M0,-3.0v7 M-2.5,-0.5L0,-3.0L2.5,-0.5"/>
                </g>
               <g id="resetDef">
                       <use xlink:href="#rim2" fill="#404040">
                               <set attributeName="fill" to="#808080" begin="reset.mouseover" end="reset.mouseout"/>
                       </use>
               </g>
        </defs>

<script type="text/javascript">
var viewWidth = 1049;
var viewHeight = 236;
var sectionId = 'dynsection-1';
</script>
<script xlink:href="svgpan.js"/>
<svg id="graph" class="graph">
<g id="viewport">
<title>plugins/behavior/python3/src/Python3/util/pydictptr.h</title>
<!-- Node1 -->
<g id="node1" class="node">
<title>Node1</title>
<g id="a_node1"><a xlink:title=" ">
<polygon fill="#999999" stroke="#666666" points="691,-228 557,-228 557,-198 691,-198 691,-228"/>
<text text-anchor="start" x="565" y="-216" font-family="Helvetica,sans-Serif" font-size="10.00">plugins/behavior/python3</text>
<text text-anchor="middle" x="624" y="-205" font-family="Helvetica,sans-Serif" font-size="10.00">/src/Python3/util/pydictptr.h</text>
</a>
</g>
</g>
<!-- Node2 -->
<g id="node2" class="node">
<title>Node2</title>
<g id="a_node2"><a xlink:href="python3env_8cpp.html" target="_top" xlink:title=" ">
<polygon fill="white" stroke="#666666" points="142,-30 0,-30 0,0 142,0 142,-30"/>
<text text-anchor="start" x="8" y="-18" font-family="Helvetica,sans-Serif" font-size="10.00">plugins/behavior/python3</text>
<text text-anchor="middle" x="71" y="-7" font-family="Helvetica,sans-Serif" font-size="10.00">/src/Python3/python3env.cpp</text>
</a>
</g>
</g>
<!-- Node1&#45;&gt;Node2 -->
<g id="edge1" class="edge">
<title>Node1&#45;&gt;Node2</title>
<path fill="none" stroke="#63b8ff" d="M545.45,-209.54C435.78,-205.02 243.19,-192.85 181,-162 124.42,-133.93 89.34,-61.28 76.52,-30.32"/>
<polygon fill="#63b8ff" stroke="#63b8ff" points="545.13,-213.03 555.27,-209.93 545.41,-206.03 545.13,-213.03"/>
</g>
<!-- Node3 -->
<g id="node3" class="node">
<title>Node3</title>
<g id="a_node3"><a xlink:href="python3fileloader_8cpp.html" target="_top" xlink:title=" ">
<polygon fill="white" stroke="#666666" points="324,-30 160,-30 160,0 324,0 324,-30"/>
<text text-anchor="start" x="168" y="-18" font-family="Helvetica,sans-Serif" font-size="10.00">plugins/behavior/python3</text>
<text text-anchor="middle" x="242" y="-7" font-family="Helvetica,sans-Serif" font-size="10.00">/src/Python3/python3fileloader.cpp</text>
</a>
</g>
</g>
<!-- Node1&#45;&gt;Node3 -->
<g id="edge2" class="edge">
<title>Node1&#45;&gt;Node3</title>
<path fill="none" stroke="#63b8ff" d="M545.75,-205.3C419.37,-192.69 179.28,-160.65 128,-96 105.09,-67.11 149.93,-44.25 189.93,-30.49"/>
<polygon fill="#63b8ff" stroke="#63b8ff" points="545.07,-208.75 555.37,-206.25 545.75,-201.79 545.07,-208.75"/>
</g>
<!-- Node4 -->
<g id="node4" class="node">
<title>Node4</title>
<g id="a_node4"><a xlink:href="pydictptr_8cpp.html" target="_top" xlink:title=" ">
<polygon fill="white" stroke="#666666" points="835.5,-162 690.5,-162 690.5,-132 835.5,-132 835.5,-162"/>
<text text-anchor="start" x="698.5" y="-150" font-family="Helvetica,sans-Serif" font-size="10.00">plugins/behavior/python3</text>
<text text-anchor="middle" x="763" y="-139" font-family="Helvetica,sans-Serif" font-size="10.00">/src/Python3/util/pydictptr.cpp</text>
</a>
</g>
</g>
<!-- Node1&#45;&gt;Node4 -->
<g id="edge3" class="edge">
<title>Node1&#45;&gt;Node4</title>
<path fill="none" stroke="#63b8ff" d="M665.58,-192.86C686.87,-183.05 712.35,-171.32 731.91,-162.31"/>
<polygon fill="#63b8ff" stroke="#63b8ff" points="664.19,-189.64 656.57,-197 667.12,-196 664.19,-189.64"/>
</g>
<!-- Node5 -->
<g id="node5" class="node">
<title>Node5</title>
<g id="a_node5"><a xlink:href="pyexecution_8cpp.html" target="_top" xlink:title=" ">
<polygon fill="white" stroke="#666666" points="1012.5,-162 853.5,-162 853.5,-132 1012.5,-132 1012.5,-162"/>
<text text-anchor="start" x="861.5" y="-150" font-family="Helvetica,sans-Serif" font-size="10.00">plugins/behavior/python3</text>
<text text-anchor="middle" x="933" y="-139" font-family="Helvetica,sans-Serif" font-size="10.00">/src/Python3/util/pyexecution.cpp</text>
</a>
</g>
</g>
<!-- Node1&#45;&gt;Node5 -->
<g id="edge4" class="edge">
<title>Node1&#45;&gt;Node5</title>
<path fill="none" stroke="#63b8ff" d="M702.41,-195.76C751.89,-185.51 815.26,-172.39 863.04,-162.49"/>
<polygon fill="#63b8ff" stroke="#63b8ff" points="701.99,-192.27 692.91,-197.73 703.41,-199.13 701.99,-192.27"/>
</g>
<!-- Node6 -->
<g id="node6" class="node">
<title>Node6</title>
<g id="a_node6"><a xlink:href="pymoduleptr_8h.html" target="_top" xlink:title=" ">
<polygon fill="white" stroke="#666666" points="596,-162 446,-162 446,-132 596,-132 596,-162"/>
<text text-anchor="start" x="454" y="-150" font-family="Helvetica,sans-Serif" font-size="10.00">plugins/behavior/python3</text>
<text text-anchor="middle" x="521" y="-139" font-family="Helvetica,sans-Serif" font-size="10.00">/src/Python3/util/pymoduleptr.h</text>
</a>
</g>
</g>
<!-- Node1&#45;&gt;Node6 -->
<g id="edge5" class="edge">
<title>Node1&#45;&gt;Node6</title>
<path fill="none" stroke="#63b8ff" d="M591.23,-191.64C575.87,-182.09 557.94,-170.95 544.04,-162.31"/>
<polygon fill="#63b8ff" stroke="#63b8ff" points="589.26,-194.53 599.6,-196.84 592.95,-188.59 589.26,-194.53"/>
</g>
<!-- Node10 -->
<g id="node10" class="node">
<title>Node10</title>
<g id="a_node10"><a xlink:href="pyobjectptr_8cpp.html" target="_top" xlink:title=" ">
<polygon fill="white" stroke="#666666" points="865.5,-96 710.5,-96 710.5,-66 865.5,-66 865.5,-96"/>
<text text-anchor="start" x="718.5" y="-84" font-family="Helvetica,sans-Serif" font-size="10.00">plugins/behavior/python3</text>
<text text-anchor="middle" x="788" y="-73" font-family="Helvetica,sans-Serif" font-size="10.00">/src/Python3/util/pyobjectptr.cpp</text>
</a>
</g>
</g>
<!-- Node1&#45;&gt;Node10 -->
<g id="edge14" class="edge">
<title>Node1&#45;&gt;Node10</title>
<path fill="none" stroke="#63b8ff" d="M625.76,-186.33C628.23,-168.97 634.11,-146.62 648,-132 664.53,-114.6 687.53,-103.24 710.11,-95.83"/>
<polygon fill="#63b8ff" stroke="#63b8ff" points="622.29,-185.83 624.67,-196.15 629.25,-186.59 622.29,-185.83"/>
</g>
<!-- Node11 -->
<g id="node11" class="node">
<title>Node11</title>
<g id="a_node11"><a xlink:href="pyobjectutil_8cpp.html" target="_top" xlink:title=" ">
<polygon fill="white" stroke="#666666" points="1040.5,-96 883.5,-96 883.5,-66 1040.5,-66 1040.5,-96"/>
<text text-anchor="start" x="891.5" y="-84" font-family="Helvetica,sans-Serif" font-size="10.00">plugins/behavior/python3</text>
<text text-anchor="middle" x="962" y="-73" font-family="Helvetica,sans-Serif" font-size="10.00">/src/Python3/util/pyobjectutil.cpp</text>
</a>
</g>
</g>
<!-- Node1&#45;&gt;Node11 -->
<g id="edge15" class="edge">
<title>Node1&#45;&gt;Node11</title>
<path fill="none" stroke="#63b8ff" d="M635.42,-187.29C645.17,-169.05 660.96,-145.19 682,-132 686.32,-129.29 801.73,-109.24 883.02,-95.37"/>
<polygon fill="#63b8ff" stroke="#63b8ff" points="632.32,-185.66 630.94,-196.16 638.57,-188.81 632.32,-185.66"/>
</g>
<!-- Node6&#45;&gt;Node3 -->
<g id="edge7" class="edge">
<title>Node6&#45;&gt;Node3</title>
<path fill="none" stroke="#63b8ff" d="M434.73,-130.45C403.18,-122.72 367.91,-111.6 338,-96 329.15,-91.39 283.43,-52.08 258.41,-30.33"/>
<polygon fill="#63b8ff" stroke="#63b8ff" points="433.71,-133.8 444.25,-132.7 435.32,-126.99 433.71,-133.8"/>
</g>
<!-- Node7 -->
<g id="node7" class="node">
<title>Node7</title>
<g id="a_node7"><a xlink:href="python3debugger_8cpp.html" target="_top" xlink:title=" ">
<polygon fill="white" stroke="#666666" points="513,-96 347,-96 347,-66 513,-66 513,-96"/>
<text text-anchor="start" x="355" y="-84" font-family="Helvetica,sans-Serif" font-size="10.00">plugins/behavior/python3</text>
<text text-anchor="middle" x="430" y="-73" font-family="Helvetica,sans-Serif" font-size="10.00">/src/Python3/python3debugger.cpp</text>
</a>
</g>
</g>
<!-- Node6&#45;&gt;Node7 -->
<g id="edge6" class="edge">
<title>Node6&#45;&gt;Node7</title>
<path fill="none" stroke="#63b8ff" d="M491.5,-125.25C478.09,-115.82 462.55,-104.9 450.45,-96.39"/>
<polygon fill="#63b8ff" stroke="#63b8ff" points="489.37,-128.04 499.57,-130.93 493.4,-122.31 489.37,-128.04"/>
</g>
<!-- Node8 -->
<g id="node8" class="node">
<title>Node8</title>
<g id="a_node8"><a xlink:href="python3fileloader_8h.html" target="_top" xlink:title=" ">
<polygon fill="white" stroke="#666666" points="291,-96 137,-96 137,-66 291,-66 291,-96"/>
<text text-anchor="start" x="145" y="-84" font-family="Helvetica,sans-Serif" font-size="10.00">plugins/behavior/python3</text>
<text text-anchor="middle" x="214" y="-73" font-family="Helvetica,sans-Serif" font-size="10.00">/src/Python3/python3fileloader.h</text>
</a>
</g>
</g>
<!-- Node6&#45;&gt;Node8 -->
<g id="edge8" class="edge">
<title>Node6&#45;&gt;Node8</title>
<path fill="none" stroke="#63b8ff" d="M440.55,-129.23C391.7,-119.04 329.97,-106.18 283.29,-96.45"/>
<polygon fill="#63b8ff" stroke="#63b8ff" points="439.73,-132.63 450.24,-131.25 441.16,-125.78 439.73,-132.63"/>
</g>
<!-- Node9 -->
<g id="node9" class="node">
<title>Node9</title>
<g id="a_node9"><a xlink:href="pymoduleptr_8cpp.html" target="_top" xlink:title=" ">
<polygon fill="white" stroke="#666666" points="692.5,-96 531.5,-96 531.5,-66 692.5,-66 692.5,-96"/>
<text text-anchor="start" x="539.5" y="-84" font-family="Helvetica,sans-Serif" font-size="10.00">plugins/behavior/python3</text>
<text text-anchor="middle" x="612" y="-73" font-family="Helvetica,sans-Serif" font-size="10.00">/src/Python3/util/pymoduleptr.cpp</text>
</a>
</g>
</g>
<!-- Node6&#45;&gt;Node9 -->
<g id="edge11" class="edge">
<title>Node6&#45;&gt;Node9</title>
<path fill="none" stroke="#63b8ff" d="M550.5,-125.25C563.91,-115.82 579.45,-104.9 591.55,-96.39"/>
<polygon fill="#63b8ff" stroke="#63b8ff" points="548.6,-122.31 542.43,-130.93 552.63,-128.04 548.6,-122.31"/>
</g>
<!-- Node6&#45;&gt;Node10 -->
<g id="edge12" class="edge">
<title>Node6&#45;&gt;Node10</title>
<path fill="none" stroke="#63b8ff" d="M592.33,-128.9C634.68,-118.75 687.77,-106.02 727.97,-96.39"/>
<polygon fill="#63b8ff" stroke="#63b8ff" points="591.63,-125.47 582.72,-131.2 593.27,-132.28 591.63,-125.47"/>
</g>
<!-- Node6&#45;&gt;Node11 -->
<g id="edge13" class="edge">
<title>Node6&#45;&gt;Node11</title>
<path fill="none" stroke="#63b8ff" d="M607.55,-134.25C679.27,-124.4 783.83,-109.77 875,-96 877.72,-95.59 880.49,-95.17 883.29,-94.74"/>
<polygon fill="#63b8ff" stroke="#63b8ff" points="607.26,-130.76 597.83,-135.58 608.22,-137.69 607.26,-130.76"/>
</g>
<!-- Node8&#45;&gt;Node2 -->
<g id="edge9" class="edge">
<title>Node8&#45;&gt;Node2</title>
<path fill="none" stroke="#63b8ff" d="M171.53,-60.99C149.56,-51.16 123.2,-39.36 102.98,-30.31"/>
<polygon fill="#63b8ff" stroke="#63b8ff" points="169.97,-64.13 180.53,-65.02 172.83,-57.74 169.97,-64.13"/>
</g>
<!-- Node8&#45;&gt;Node3 -->
<g id="edge10" class="edge">
<title>Node8&#45;&gt;Node3</title>
<path fill="none" stroke="#63b8ff" d="M224.83,-55.25C228.55,-46.75 232.58,-37.53 235.8,-30.16"/>
<polygon fill="#63b8ff" stroke="#63b8ff" points="221.62,-53.85 220.82,-64.41 228.04,-56.65 221.62,-53.85"/>
</g>
</g>
</svg>
        <g id="navigator" transform="translate(0 0)" fill="#404254">
                <rect fill="#f2f5e9" fill-opacity="0.5" stroke="#606060" stroke-width=".5" x="0" y="0" width="60" height="60"/>
                <use id="zoomplus" xlink:href="#zoomPlus" x="17" y="9" onmousedown="handleZoom(evt,'in')"/>
                <use id="zoomminus" xlink:href="#zoomMin" x="42" y="9" onmousedown="handleZoom(evt,'out')"/>
                <use id="reset" xlink:href="#resetDef" x="30" y="36" onmousedown="handleReset()"/>
                <g id="arrowUp" xlink:href="#dirArrow" transform="translate(30 24)" onmousedown="handlePan(0,-1)">
                  <use xlink:href="#rim" fill="#404040">
                        <set attributeName="fill" to="#808080" begin="arrowUp.mouseover" end="arrowUp.mouseout"/>
                  </use>
                  <path fill="none" stroke="white" stroke-width="1.5" d="M0,-3.0v7 M-2.5,-0.5L0,-3.0L2.5,-0.5"/>
                </g>
                <g id="arrowRight" xlink:href="#dirArrow" transform="rotate(90) translate(36 -43)" onmousedown="handlePan(1,0)">
                  <use xlink:href="#rim" fill="#404040">
                        <set attributeName="fill" to="#808080" begin="arrowRight.mouseover" end="arrowRight.mouseout"/>
                  </use>
                  <path fill="none" stroke="white" stroke-width="1.5" d="M0,-3.0v7 M-2.5,-0.5L0,-3.0L2.5,-0.5"/>
                </g>
                <g id="arrowDown" xlink:href="#dirArrow" transform="rotate(180) translate(-30 -48)" onmousedown="handlePan(0,1)">
                  <use xlink:href="#rim" fill="#404040">
                        <set attributeName="fill" to="#808080" begin="arrowDown.mouseover" end="arrowDown.mouseout"/>
                  </use>
                  <path fill="none" stroke="white" stroke-width="1.5" d="M0,-3.0v7 M-2.5,-0.5L0,-3.0L2.5,-0.5"/>
                </g>
                <g id="arrowLeft" xlink:href="#dirArrow" transform="rotate(270) translate(-36 17)" onmousedown="handlePan(-1,0)">
                  <use xlink:href="#rim" fill="#404040">
                        <set attributeName="fill" to="#808080" begin="arrowLeft.mouseover" end="arrowLeft.mouseout"/>
                  </use>
                  <path fill="none" stroke="white" stroke-width="1.5" d="M0,-3.0v7 M-2.5,-0.5L0,-3.0L2.5,-0.5"/>
                </g>
        </g>
        <svg viewBox="0 0 15 15" width="100%" height="30px" preserveAspectRatio="xMaxYMin meet">
         <g id="arrow_out" transform="scale(0.3 0.3)">
          <a xlink:href="pydictptr_8h__dep__incl_org.svg" target="_base">
           <rect id="button" ry="5" rx="5" y="6" x="6" height="38" width="38"
                fill="#f2f5e9" fill-opacity="0.5" stroke="#606060" stroke-width="1.0"/>
           <path id="arrow"
             d="M 11.500037,31.436501 C 11.940474,20.09759 22.043105,11.32322 32.158766,21.979434 L 37.068811,17.246167 C 37.068811,17.246167 37.088388,32 37.088388,32 L 22.160133,31.978069 C 22.160133,31.978069 26.997745,27.140456 26.997745,27.140456 C 18.528582,18.264221 13.291696,25.230495 11.500037,31.436501 z"
             style="fill:#404040;"/>
          </a>
         </g>
        </svg>
</svg>
