<?xml version="1.0" encoding="UTF-8" standalone="no"?>
<!DOCTYPE svg PUBLIC "-//W3C//DTD SVG 1.1//EN"
 "http://www.w3.org/Graphics/SVG/1.1/DTD/svg11.dtd">
<!-- Generated by graphviz version 7.0.5 (20221223.1930)
 -->
<!-- Title: plugins/behavior/python3/src/Python3/util/pyenum.cpp Pages: 1 -->
<svg width="814pt" height="203pt"
 viewBox="0.00 0.00 813.50 203.00" xmlns="http://www.w3.org/2000/svg" xmlns:xlink="http://www.w3.org/1999/xlink">
<g id="graph0" class="graph" transform="scale(1 1) rotate(0) translate(4 199)">
<title>plugins/behavior/python3/src/Python3/util/pyenum.cpp</title>
<!-- Node1 -->
<g id="node1" class="node">
<title>Node1</title>
<g id="a_node1"><a xlink:title=" ">
<polygon fill="#999999" stroke="#666666" points="689,-195 547,-195 547,-165 689,-165 689,-195"/>
<text text-anchor="start" x="555" y="-183" font-family="Helvetica,sans-Serif" font-size="10.00">plugins/behavior/python3</text>
<text text-anchor="middle" x="618" y="-172" font-family="Helvetica,sans-Serif" font-size="10.00">/src/Python3/util/pyenum.cpp</text>
</a>
</g>
</g>
<!-- Node2 -->
<g id="node2" class="node">
<title>Node2</title>
<g id="a_node2"><a xlink:href="python3lib_8h.html" target="_top" xlink:title=" ">
<polygon fill="white" stroke="#666666" points="432.5,-129 357.5,-129 357.5,-110 432.5,-110 432.5,-129"/>
<text text-anchor="middle" x="395" y="-117" font-family="Helvetica,sans-Serif" font-size="10.00">../python3lib.h</text>
</a>
</g>
</g>
<!-- Node1&#45;&gt;Node2 -->
<g id="edge1" class="edge">
<title>Node1&#45;&gt;Node2</title>
<path fill="none" stroke="#63b8ff" d="M562.88,-164.54C525.05,-154.62 475.48,-141.61 440.03,-132.31"/>
<polygon fill="#63b8ff" stroke="#63b8ff" points="441.07,-128.97 430.51,-129.82 439.3,-135.74 441.07,-128.97"/>
</g>
<!-- Node11 -->
<g id="node11" class="node">
<title>Node11</title>
<g id="a_node11"><a xlink:href="pyenum_8h.html" target="_top" xlink:title=" ">
<polygon fill="white" stroke="#666666" points="647,-129 589,-129 589,-110 647,-110 647,-129"/>
<text text-anchor="middle" x="618" y="-117" font-family="Helvetica,sans-Serif" font-size="10.00">pyenum.h</text>
</a>
</g>
</g>
<!-- Node1&#45;&gt;Node11 -->
<g id="edge11" class="edge">
<title>Node1&#45;&gt;Node11</title>
<path fill="none" stroke="#63b8ff" d="M618,-164.54C618,-157.34 618,-148.53 618,-140.68"/>
<polygon fill="#63b8ff" stroke="#63b8ff" points="621.5,-140.69 618,-130.69 614.5,-140.69 621.5,-140.69"/>
</g>
<!-- Node13 -->
<g id="node13" class="node">
<title>Node13</title>
<g id="a_node13"><a xlink:href="pyobjectutil_8h.html" target="_top" xlink:title=" ">
<polygon fill="white" stroke="#666666" points="738.5,-129 665.5,-129 665.5,-110 738.5,-110 738.5,-129"/>
<text text-anchor="middle" x="702" y="-117" font-family="Helvetica,sans-Serif" font-size="10.00">pyobjectutil.h</text>
</a>
</g>
</g>
<!-- Node1&#45;&gt;Node13 -->
<g id="edge13" class="edge">
<title>Node1&#45;&gt;Node13</title>
<path fill="none" stroke="#63b8ff" d="M638.76,-164.54C651.34,-155.78 667.36,-144.63 680.13,-135.73"/>
<polygon fill="#63b8ff" stroke="#63b8ff" points="682.1,-138.63 688.3,-130.04 678.1,-132.88 682.1,-138.63"/>
</g>
<!-- Node3 -->
<g id="node3" class="node">
<title>Node3</title>
<g id="a_node3"><a xlink:href="resourceslib_8h.html" target="_top" xlink:title=" ">
<polygon fill="white" stroke="#666666" points="116,-74 0,-74 0,-55 116,-55 116,-74"/>
<text text-anchor="middle" x="58" y="-62" font-family="Helvetica,sans-Serif" font-size="10.00">Madgine/resourceslib.h</text>
</a>
</g>
</g>
<!-- Node2&#45;&gt;Node3 -->
<g id="edge2" class="edge">
<title>Node2&#45;&gt;Node3</title>
<path fill="none" stroke="#63b8ff" d="M357.32,-112.57C301.52,-103.8 196,-87.2 126.34,-76.25"/>
<polygon fill="#63b8ff" stroke="#63b8ff" points="126.97,-72.8 116.55,-74.71 125.88,-79.72 126.97,-72.8"/>
</g>
<!-- Node4 -->
<g id="node4" class="node">
<title>Node4</title>
<g id="a_node4"><a xlink:href="rootlib_8h.html" target="_top" xlink:title=" ">
<polygon fill="white" stroke="#666666" points="189,-19 99,-19 99,0 189,0 189,-19"/>
<text text-anchor="middle" x="144" y="-7" font-family="Helvetica,sans-Serif" font-size="10.00">Madgine/rootlib.h</text>
</a>
</g>
</g>
<!-- Node2&#45;&gt;Node4 -->
<g id="edge3" class="edge">
<title>Node2&#45;&gt;Node4</title>
<path fill="none" stroke="#63b8ff" d="M357.39,-115.96C299.18,-111.28 191.07,-99.36 163,-74 150.85,-63.02 146.34,-44.62 144.72,-30.45"/>
<polygon fill="#63b8ff" stroke="#63b8ff" points="148.24,-30.61 144.04,-20.88 141.26,-31.11 148.24,-30.61"/>
</g>
<!-- Node5 -->
<g id="node5" class="node">
<title>Node5</title>
<g id="a_node5"><a xlink:href="debuglib_8h.html" target="_top" xlink:title=" ">
<polygon fill="white" stroke="#666666" points="272,-74 172,-74 172,-55 272,-55 272,-74"/>
<text text-anchor="middle" x="222" y="-62" font-family="Helvetica,sans-Serif" font-size="10.00">Madgine/debuglib.h</text>
</a>
</g>
</g>
<!-- Node2&#45;&gt;Node5 -->
<g id="edge4" class="edge">
<title>Node2&#45;&gt;Node5</title>
<path fill="none" stroke="#63b8ff" d="M365.65,-109.51C337.11,-100.76 293.54,-87.42 261.86,-77.71"/>
<polygon fill="#63b8ff" stroke="#63b8ff" points="263.24,-74.47 252.65,-74.89 261.19,-81.17 263.24,-74.47"/>
</g>
<!-- Node7 -->
<g id="node7" class="node">
<title>Node7</title>
<g id="a_node7"><a xlink:href="behaviorlib_8h.html" target="_top" xlink:title=" ">
<polygon fill="white" stroke="#666666" points="400,-74 290,-74 290,-55 400,-55 400,-74"/>
<text text-anchor="middle" x="345" y="-62" font-family="Helvetica,sans-Serif" font-size="10.00">Madgine/behaviorlib.h</text>
</a>
</g>
</g>
<!-- Node2&#45;&gt;Node7 -->
<g id="edge7" class="edge">
<title>Node2&#45;&gt;Node7</title>
<path fill="none" stroke="#63b8ff" d="M386.74,-109.75C379.84,-102.43 369.78,-91.76 361.26,-82.74"/>
<polygon fill="#63b8ff" stroke="#63b8ff" points="363.88,-80.42 354.47,-75.54 358.79,-85.22 363.88,-80.42"/>
</g>
<!-- Node8 -->
<g id="node8" class="node">
<title>Node8</title>
<g id="a_node8"><a xlink:title=" ">
<polygon fill="#e0e0e0" stroke="#999999" points="472,-74 418,-74 418,-55 472,-55 472,-74"/>
<text text-anchor="middle" x="445" y="-62" font-family="Helvetica,sans-Serif" font-size="10.00">Python.h</text>
</a>
</g>
</g>
<!-- Node2&#45;&gt;Node8 -->
<g id="edge8" class="edge">
<title>Node2&#45;&gt;Node8</title>
<path fill="none" stroke="#63b8ff" d="M403.26,-109.75C410.16,-102.43 420.22,-91.76 428.74,-82.74"/>
<polygon fill="#63b8ff" stroke="#63b8ff" points="431.21,-85.22 435.53,-75.54 426.12,-80.42 431.21,-85.22"/>
</g>
<!-- Node9 -->
<g id="node9" class="node">
<title>Node9</title>
<g id="a_node9"><a xlink:href="python3compat_8h.html" target="_top" xlink:title=" ">
<polygon fill="white" stroke="#666666" points="580,-74 490,-74 490,-55 580,-55 580,-74"/>
<text text-anchor="middle" x="535" y="-62" font-family="Helvetica,sans-Serif" font-size="10.00">python3compat.h</text>
</a>
</g>
</g>
<!-- Node2&#45;&gt;Node9 -->
<g id="edge9" class="edge">
<title>Node2&#45;&gt;Node9</title>
<path fill="none" stroke="#63b8ff" d="M418.75,-109.51C441.31,-100.97 475.47,-88.03 500.94,-78.4"/>
<polygon fill="#63b8ff" stroke="#63b8ff" points="502.07,-81.71 510.19,-74.89 499.59,-75.16 502.07,-81.71"/>
</g>
<!-- Node10 -->
<g id="node10" class="node">
<title>Node10</title>
<g id="a_node10"><a xlink:href="python3forward_8h.html" target="_top" xlink:title=" ">
<polygon fill="white" stroke="#666666" points="688,-74 598,-74 598,-55 688,-55 688,-74"/>
<text text-anchor="middle" x="643" y="-62" font-family="Helvetica,sans-Serif" font-size="10.00">python3forward.h</text>
</a>
</g>
</g>
<!-- Node2&#45;&gt;Node10 -->
<g id="edge10" class="edge">
<title>Node2&#45;&gt;Node10</title>
<path fill="none" stroke="#63b8ff" d="M432.94,-110.39C474.8,-101.45 542.5,-86.98 589.69,-76.89"/>
<polygon fill="#63b8ff" stroke="#63b8ff" points="590.39,-80.32 599.44,-74.81 588.93,-73.48 590.39,-80.32"/>
</g>
<!-- Node5&#45;&gt;Node4 -->
<g id="edge5" class="edge">
<title>Node5&#45;&gt;Node4</title>
<path fill="none" stroke="#63b8ff" d="M208.77,-54.51C197.16,-46.62 180.03,-34.98 166.3,-25.65"/>
<polygon fill="#63b8ff" stroke="#63b8ff" points="168.53,-22.93 158.29,-20.21 164.59,-28.72 168.53,-22.93"/>
</g>
<!-- Node6 -->
<g id="node6" class="node">
<title>Node6</title>
<g id="a_node6"><a xlink:href="debugforward_8h.html" target="_top" xlink:title=" ">
<polygon fill="white" stroke="#666666" points="290.5,-19 207.5,-19 207.5,0 290.5,0 290.5,-19"/>
<text text-anchor="middle" x="249" y="-7" font-family="Helvetica,sans-Serif" font-size="10.00">debugforward.h</text>
</a>
</g>
</g>
<!-- Node5&#45;&gt;Node6 -->
<g id="edge6" class="edge">
<title>Node5&#45;&gt;Node6</title>
<path fill="none" stroke="#63b8ff" d="M226.46,-54.75C229.95,-47.88 234.95,-38.08 239.35,-29.45"/>
<polygon fill="#63b8ff" stroke="#63b8ff" points="242.34,-31.29 243.76,-20.79 236.1,-28.11 242.34,-31.29"/>
</g>
<!-- Node12 -->
<g id="node12" class="node">
<title>Node12</title>
<g id="a_node12"><a xlink:href="enumholder_8h.html" target="_top" xlink:title=" ">
<polygon fill="white" stroke="#666666" points="805.5,-74 706.5,-74 706.5,-55 805.5,-55 805.5,-74"/>
<text text-anchor="middle" x="756" y="-62" font-family="Helvetica,sans-Serif" font-size="10.00">Meta/enumholder.h</text>
</a>
</g>
</g>
<!-- Node11&#45;&gt;Node12 -->
<g id="edge12" class="edge">
<title>Node11&#45;&gt;Node12</title>
<path fill="none" stroke="#63b8ff" d="M641.41,-109.51C663.65,-100.97 697.33,-88.03 722.42,-78.4"/>
<polygon fill="#63b8ff" stroke="#63b8ff" points="723.44,-81.75 731.52,-74.9 720.93,-75.22 723.44,-81.75"/>
</g>
</g>
</svg>
