<?xml version="1.0" encoding="UTF-8" standalone="no"?>
<!DOCTYPE svg PUBLIC "-//W3C//DTD SVG 1.1//EN"
 "http://www.w3.org/Graphics/SVG/1.1/DTD/svg11.dtd">
<!-- Generated by graphviz version 7.0.5 (20221223.1930)
 -->
<!-- Title: plugins/behavior/python3/src/Python3/util/pyflags.h Pages: 1 -->
<svg width="136pt" height="203pt"
 viewBox="0.00 0.00 136.00 203.00" xmlns="http://www.w3.org/2000/svg" xmlns:xlink="http://www.w3.org/1999/xlink">
<g id="graph0" class="graph" transform="scale(1 1) rotate(0) translate(4 199)">
<title>plugins/behavior/python3/src/Python3/util/pyflags.h</title>
<!-- Node1 -->
<g id="node1" class="node">
<title>Node1</title>
<g id="a_node1"><a xlink:title=" ">
<polygon fill="#999999" stroke="#666666" points="128,-195 0,-195 0,-165 128,-165 128,-195"/>
<text text-anchor="start" x="8" y="-183" font-family="Helvetica,sans-Serif" font-size="10.00">plugins/behavior/python3</text>
<text text-anchor="middle" x="64" y="-172" font-family="Helvetica,sans-Serif" font-size="10.00">/src/Python3/util/pyflags.h</text>
</a>
</g>
</g>
<!-- Node2 -->
<g id="node2" class="node">
<title>Node2</title>
<g id="a_node2"><a xlink:href="flagsholder_8h.html" target="_top" xlink:title=" ">
<polygon fill="white" stroke="#666666" points="111.5,-129 16.5,-129 16.5,-110 111.5,-110 111.5,-129"/>
<text text-anchor="middle" x="64" y="-117" font-family="Helvetica,sans-Serif" font-size="10.00">Meta/flagsholder.h</text>
</a>
</g>
</g>
<!-- Node1&#45;&gt;Node2 -->
<g id="edge1" class="edge">
<title>Node1&#45;&gt;Node2</title>
<path fill="none" stroke="#63b8ff" d="M64,-164.54C64,-157.34 64,-148.53 64,-140.68"/>
<polygon fill="#63b8ff" stroke="#63b8ff" points="67.5,-140.69 64,-130.69 60.5,-140.69 67.5,-140.69"/>
</g>
<!-- Node3 -->
<g id="node3" class="node">
<title>Node3</title>
<g id="a_node3"><a xlink:href="array_8h.html" target="_top" xlink:title=" ">
<polygon fill="white" stroke="#666666" points="114.5,-74 13.5,-74 13.5,-55 114.5,-55 114.5,-74"/>
<text text-anchor="middle" x="64" y="-62" font-family="Helvetica,sans-Serif" font-size="10.00">Generic/bits/array.h</text>
</a>
</g>
</g>
<!-- Node2&#45;&gt;Node3 -->
<g id="edge2" class="edge">
<title>Node2&#45;&gt;Node3</title>
<path fill="none" stroke="#63b8ff" d="M64,-109.75C64,-103.27 64,-94.16 64,-85.9"/>
<polygon fill="#63b8ff" stroke="#63b8ff" points="67.5,-85.96 64,-75.96 60.5,-85.96 67.5,-85.96"/>
</g>
<!-- Node4 -->
<g id="node4" class="node">
<title>Node4</title>
<g id="a_node4"><a xlink:href="types_8h.html" target="_top" xlink:title=" ">
<polygon fill="white" stroke="#666666" points="87.5,-19 40.5,-19 40.5,0 87.5,0 87.5,-19"/>
<text text-anchor="middle" x="64" y="-7" font-family="Helvetica,sans-Serif" font-size="10.00">types.h</text>
</a>
</g>
</g>
<!-- Node3&#45;&gt;Node4 -->
<g id="edge3" class="edge">
<title>Node3&#45;&gt;Node4</title>
<path fill="none" stroke="#63b8ff" d="M64,-54.75C64,-48.27 64,-39.16 64,-30.9"/>
<polygon fill="#63b8ff" stroke="#63b8ff" points="67.5,-30.96 64,-20.96 60.5,-30.96 67.5,-30.96"/>
</g>
</g>
</svg>
