<?xml version="1.0" encoding="UTF-8" standalone="no"?>
<!DOCTYPE svg PUBLIC "-//W3C//DTD SVG 1.1//EN"
 "http://www.w3.org/Graphics/SVG/1.1/DTD/svg11.dtd">
<!-- Generated by graphviz version 7.0.5 (20221223.1930)
 -->
<!-- Title: plugins/behavior/python3/src/Python3/util/math/pymatrix3.cpp Pages: 1 -->
<!--zoomable 324 -->
<svg id="main" version="1.1" xmlns="http://www.w3.org/2000/svg" xmlns:xlink="http://www.w3.org/1999/xlink" xml:space="preserve" onload="init(evt)">
<style type="text/css"><![CDATA[
.edge:hover path { stroke: red; }
.edge:hover polygon { stroke: red; fill: red; }
]]></style>
<script type="text/javascript"><![CDATA[
var edges = document.getElementsByTagName('g');
if (edges && edges.length) {
  for (var i=0;i<edges.length;i++) {
    if (edges[i].id.substr(0,4)=='edge') {
      edges[i].setAttribute('class','edge');
    }
  }
}
]]></script>
        <defs>
                <circle id="rim" cx="0" cy="0" r="7"/>
                <circle id="rim2" cx="0" cy="0" r="3.5"/>
                <g id="zoomPlus">
                        <use xlink:href="#rim" fill="#404040">
                                <set attributeName="fill" to="#808080" begin="zoomplus.mouseover" end="zoomplus.mouseout"/>
                        </use>
                        <path d="M-4,0h8M0,-4v8" fill="none" stroke="white" stroke-width="1.5" pointer-events="none"/>
                </g>
                <g id="zoomMin">
                        <use xlink:href="#rim" fill="#404040">
                                <set attributeName="fill" to="#808080" begin="zoomminus.mouseover" end="zoomminus.mouseout"/>
                        </use>
                        <path d="M-4,0h8" fill="none" stroke="white" stroke-width="1.5" pointer-events="none"/>
                </g>
                <g id="dirArrow">
                        <path fill="none" stroke="white" stroke-width="1.5" d="M0,-3.0v7 M-2.5,-0.5L0,-3.0L2.5,-0.5"/>
                </g>
               <g id="resetDef">
                       <use xlink:href="#rim2" fill="#404040">
                               <set attributeName="fill" to="#808080" begin="reset.mouseover" end="reset.mouseout"/>
                       </use>
               </g>
        </defs>

<script type="text/javascript">
var viewWidth = 873;
var viewHeight = 324;
var sectionId = 'dynsection-0';
</script>
<script xlink:href="svgpan.js"/>
<svg id="graph" class="graph">
<g id="viewport">
<title>plugins/behavior/python3/src/Python3/util/math/pymatrix3.cpp</title>
<!-- Node1 -->
<g id="node1" class="node">
<title>Node1</title>
<g id="a_node1"><a xlink:title=" ">
<polygon fill="#999999" stroke="#666666" points="685,-316 561,-316 561,-275 685,-275 685,-316"/>
<text text-anchor="start" x="569" y="-304" font-family="Helvetica,sans-Serif" font-size="10.00">plugins/behavior/python3</text>
<text text-anchor="start" x="569" y="-293" font-family="Helvetica,sans-Serif" font-size="10.00">/src/Python3/util/math</text>
<text text-anchor="middle" x="623" y="-282" font-family="Helvetica,sans-Serif" font-size="10.00">/pymatrix3.cpp</text>
</a>
</g>
</g>
<!-- Node2 -->
<g id="node2" class="node">
<title>Node2</title>
<g id="a_node2"><a xlink:href="python3lib_8h.html" target="_top" xlink:title=" ">
<polygon fill="white" stroke="#666666" points="436.5,-239 353.5,-239 353.5,-220 436.5,-220 436.5,-239"/>
<text text-anchor="middle" x="395" y="-227" font-family="Helvetica,sans-Serif" font-size="10.00">../../python3lib.h</text>
</a>
</g>
</g>
<!-- Node1&#45;&gt;Node2 -->
<g id="edge1" class="edge">
<title>Node1&#45;&gt;Node2</title>
<path fill="none" stroke="#63b8ff" d="M560.7,-277.01C521.56,-266.02 472.1,-252.14 437.45,-242.41"/>
<polygon fill="#63b8ff" stroke="#63b8ff" points="438.78,-239.15 428.2,-239.82 436.89,-245.89 438.78,-239.15"/>
</g>
<!-- Node11 -->
<g id="node11" class="node">
<title>Node11</title>
<g id="a_node11"><a xlink:href="pymatrix3_8h.html" target="_top" xlink:title=" ">
<polygon fill="white" stroke="#666666" points="655.5,-239 590.5,-239 590.5,-220 655.5,-220 655.5,-239"/>
<text text-anchor="middle" x="623" y="-227" font-family="Helvetica,sans-Serif" font-size="10.00">pymatrix3.h</text>
</a>
</g>
</g>
<!-- Node1&#45;&gt;Node11 -->
<g id="edge11" class="edge">
<title>Node1&#45;&gt;Node11</title>
<path fill="none" stroke="#63b8ff" d="M623,-274.6C623,-266.98 623,-258.3 623,-250.66"/>
<polygon fill="#63b8ff" stroke="#63b8ff" points="626.5,-250.68 623,-240.68 619.5,-250.68 626.5,-250.68"/>
</g>
<!-- Node18 -->
<g id="node18" class="node">
<title>Node18</title>
<g id="a_node18"><a xlink:href="pyobjectutil_8h.html" target="_top" xlink:title=" ">
<polygon fill="white" stroke="#666666" points="754,-239 674,-239 674,-220 754,-220 754,-239"/>
<text text-anchor="middle" x="714" y="-227" font-family="Helvetica,sans-Serif" font-size="10.00">../pyobjectutil.h</text>
</a>
</g>
</g>
<!-- Node1&#45;&gt;Node18 -->
<g id="edge20" class="edge">
<title>Node1&#45;&gt;Node18</title>
<path fill="none" stroke="#63b8ff" d="M651.29,-274.6C664.63,-265.22 680.29,-254.21 692.61,-245.54"/>
<polygon fill="#63b8ff" stroke="#63b8ff" points="694.28,-248.65 700.44,-240.03 690.25,-242.92 694.28,-248.65"/>
</g>
<!-- Node3 -->
<g id="node3" class="node">
<title>Node3</title>
<g id="a_node3"><a xlink:href="resourceslib_8h.html" target="_top" xlink:title=" ">
<polygon fill="white" stroke="#666666" points="116,-184 0,-184 0,-165 116,-165 116,-184"/>
<text text-anchor="middle" x="58" y="-172" font-family="Helvetica,sans-Serif" font-size="10.00">Madgine/resourceslib.h</text>
</a>
</g>
</g>
<!-- Node2&#45;&gt;Node3 -->
<g id="edge2" class="edge">
<title>Node2&#45;&gt;Node3</title>
<path fill="none" stroke="#63b8ff" d="M353,-221.89C296.17,-212.96 194.11,-196.91 126.21,-186.23"/>
<polygon fill="#63b8ff" stroke="#63b8ff" points="127.11,-182.83 116.69,-184.73 126.03,-189.74 127.11,-182.83"/>
</g>
<!-- Node4 -->
<g id="node4" class="node">
<title>Node4</title>
<g id="a_node4"><a xlink:href="rootlib_8h.html" target="_top" xlink:title=" ">
<polygon fill="white" stroke="#666666" points="189,-129 99,-129 99,-110 189,-110 189,-129"/>
<text text-anchor="middle" x="144" y="-117" font-family="Helvetica,sans-Serif" font-size="10.00">Madgine/rootlib.h</text>
</a>
</g>
</g>
<!-- Node2&#45;&gt;Node4 -->
<g id="edge3" class="edge">
<title>Node2&#45;&gt;Node4</title>
<path fill="none" stroke="#63b8ff" d="M353.04,-225.61C293.96,-220.69 190.39,-208.75 163,-184 150.85,-173.02 146.34,-154.62 144.72,-140.45"/>
<polygon fill="#63b8ff" stroke="#63b8ff" points="148.24,-140.61 144.04,-130.88 141.26,-141.11 148.24,-140.61"/>
</g>
<!-- Node5 -->
<g id="node5" class="node">
<title>Node5</title>
<g id="a_node5"><a xlink:href="debuglib_8h.html" target="_top" xlink:title=" ">
<polygon fill="white" stroke="#666666" points="272,-184 172,-184 172,-165 272,-165 272,-184"/>
<text text-anchor="middle" x="222" y="-172" font-family="Helvetica,sans-Serif" font-size="10.00">Madgine/debuglib.h</text>
</a>
</g>
</g>
<!-- Node2&#45;&gt;Node5 -->
<g id="edge4" class="edge">
<title>Node2&#45;&gt;Node5</title>
<path fill="none" stroke="#63b8ff" d="M365.65,-219.51C337.11,-210.76 293.54,-197.42 261.86,-187.71"/>
<polygon fill="#63b8ff" stroke="#63b8ff" points="263.24,-184.47 252.65,-184.89 261.19,-191.17 263.24,-184.47"/>
</g>
<!-- Node7 -->
<g id="node7" class="node">
<title>Node7</title>
<g id="a_node7"><a xlink:href="behaviorlib_8h.html" target="_top" xlink:title=" ">
<polygon fill="white" stroke="#666666" points="400,-184 290,-184 290,-165 400,-165 400,-184"/>
<text text-anchor="middle" x="345" y="-172" font-family="Helvetica,sans-Serif" font-size="10.00">Madgine/behaviorlib.h</text>
</a>
</g>
</g>
<!-- Node2&#45;&gt;Node7 -->
<g id="edge7" class="edge">
<title>Node2&#45;&gt;Node7</title>
<path fill="none" stroke="#63b8ff" d="M386.74,-219.75C379.84,-212.43 369.78,-201.76 361.26,-192.74"/>
<polygon fill="#63b8ff" stroke="#63b8ff" points="363.88,-190.42 354.47,-185.54 358.79,-195.22 363.88,-190.42"/>
</g>
<!-- Node8 -->
<g id="node8" class="node">
<title>Node8</title>
<g id="a_node8"><a xlink:title=" ">
<polygon fill="#e0e0e0" stroke="#999999" points="472,-184 418,-184 418,-165 472,-165 472,-184"/>
<text text-anchor="middle" x="445" y="-172" font-family="Helvetica,sans-Serif" font-size="10.00">Python.h</text>
</a>
</g>
</g>
<!-- Node2&#45;&gt;Node8 -->
<g id="edge8" class="edge">
<title>Node2&#45;&gt;Node8</title>
<path fill="none" stroke="#63b8ff" d="M403.26,-219.75C410.16,-212.43 420.22,-201.76 428.74,-192.74"/>
<polygon fill="#63b8ff" stroke="#63b8ff" points="431.21,-195.22 435.53,-185.54 426.12,-190.42 431.21,-195.22"/>
</g>
<!-- Node9 -->
<g id="node9" class="node">
<title>Node9</title>
<g id="a_node9"><a xlink:href="python3compat_8h.html" target="_top" xlink:title=" ">
<polygon fill="white" stroke="#666666" points="580,-184 490,-184 490,-165 580,-165 580,-184"/>
<text text-anchor="middle" x="535" y="-172" font-family="Helvetica,sans-Serif" font-size="10.00">python3compat.h</text>
</a>
</g>
</g>
<!-- Node2&#45;&gt;Node9 -->
<g id="edge9" class="edge">
<title>Node2&#45;&gt;Node9</title>
<path fill="none" stroke="#63b8ff" d="M418.75,-219.51C441.31,-210.97 475.47,-198.03 500.94,-188.4"/>
<polygon fill="#63b8ff" stroke="#63b8ff" points="502.07,-191.71 510.19,-184.89 499.59,-185.16 502.07,-191.71"/>
</g>
<!-- Node10 -->
<g id="node10" class="node">
<title>Node10</title>
<g id="a_node10"><a xlink:href="python3forward_8h.html" target="_top" xlink:title=" ">
<polygon fill="white" stroke="#666666" points="688,-184 598,-184 598,-165 688,-165 688,-184"/>
<text text-anchor="middle" x="643" y="-172" font-family="Helvetica,sans-Serif" font-size="10.00">python3forward.h</text>
</a>
</g>
</g>
<!-- Node2&#45;&gt;Node10 -->
<g id="edge10" class="edge">
<title>Node2&#45;&gt;Node10</title>
<path fill="none" stroke="#63b8ff" d="M436.79,-219.57C478.91,-210.57 544.07,-196.64 589.85,-186.86"/>
<polygon fill="#63b8ff" stroke="#63b8ff" points="590.51,-190.3 599.56,-184.78 589.05,-183.45 590.51,-190.3"/>
</g>
<!-- Node5&#45;&gt;Node4 -->
<g id="edge5" class="edge">
<title>Node5&#45;&gt;Node4</title>
<path fill="none" stroke="#63b8ff" d="M208.77,-164.51C197.16,-156.62 180.03,-144.98 166.3,-135.65"/>
<polygon fill="#63b8ff" stroke="#63b8ff" points="168.53,-132.93 158.29,-130.21 164.59,-138.72 168.53,-132.93"/>
</g>
<!-- Node6 -->
<g id="node6" class="node">
<title>Node6</title>
<g id="a_node6"><a xlink:href="debugforward_8h.html" target="_top" xlink:title=" ">
<polygon fill="white" stroke="#666666" points="290.5,-129 207.5,-129 207.5,-110 290.5,-110 290.5,-129"/>
<text text-anchor="middle" x="249" y="-117" font-family="Helvetica,sans-Serif" font-size="10.00">debugforward.h</text>
</a>
</g>
</g>
<!-- Node5&#45;&gt;Node6 -->
<g id="edge6" class="edge">
<title>Node5&#45;&gt;Node6</title>
<path fill="none" stroke="#63b8ff" d="M226.46,-164.75C229.95,-157.88 234.95,-148.08 239.35,-139.45"/>
<polygon fill="#63b8ff" stroke="#63b8ff" points="242.34,-141.29 243.76,-130.79 236.1,-138.11 242.34,-141.29"/>
</g>
<!-- Node12 -->
<g id="node12" class="node">
<title>Node12</title>
<g id="a_node12"><a xlink:href="matrix3_8h.html" target="_top" xlink:title=" ">
<polygon fill="white" stroke="#666666" points="811.5,-184 706.5,-184 706.5,-165 811.5,-165 811.5,-184"/>
<text text-anchor="middle" x="759" y="-172" font-family="Helvetica,sans-Serif" font-size="10.00">Meta/math/matrix3.h</text>
</a>
</g>
</g>
<!-- Node11&#45;&gt;Node12 -->
<g id="edge12" class="edge">
<title>Node11&#45;&gt;Node12</title>
<path fill="none" stroke="#63b8ff" d="M646.07,-219.51C667.89,-211.01 700.88,-198.15 725.58,-188.53"/>
<polygon fill="#63b8ff" stroke="#63b8ff" points="726.81,-191.8 734.86,-184.91 724.27,-185.28 726.81,-191.8"/>
</g>
<!-- Node13 -->
<g id="node13" class="node">
<title>Node13</title>
<g id="a_node13"><a xlink:href="vector3_8h.html" target="_top" xlink:title=" ">
<polygon fill="white" stroke="#666666" points="787,-129 731,-129 731,-110 787,-110 787,-129"/>
<text text-anchor="middle" x="759" y="-117" font-family="Helvetica,sans-Serif" font-size="10.00">vector3.h</text>
</a>
</g>
</g>
<!-- Node12&#45;&gt;Node13 -->
<g id="edge13" class="edge">
<title>Node12&#45;&gt;Node13</title>
<path fill="none" stroke="#63b8ff" d="M759,-164.75C759,-158.27 759,-149.16 759,-140.9"/>
<polygon fill="#63b8ff" stroke="#63b8ff" points="762.5,-140.96 759,-130.96 755.5,-140.96 762.5,-140.96"/>
</g>
<!-- Node14 -->
<g id="node14" class="node">
<title>Node14</title>
<g id="a_node14"><a xlink:href="common_8h.html" target="_top" xlink:title=" ">
<polygon fill="white" stroke="#666666" points="760,-19 698,-19 698,0 760,0 760,-19"/>
<text text-anchor="middle" x="729" y="-7" font-family="Helvetica,sans-Serif" font-size="10.00">common.h</text>
</a>
</g>
</g>
<!-- Node13&#45;&gt;Node14 -->
<g id="edge14" class="edge">
<title>Node13&#45;&gt;Node14</title>
<path fill="none" stroke="#63b8ff" d="M748.21,-109.55C739.26,-101.36 727.19,-88.36 722,-74 716.91,-59.93 719.13,-43.06 722.37,-30.24"/>
<polygon fill="#63b8ff" stroke="#63b8ff" points="725.66,-31.46 725.15,-20.87 718.95,-29.46 725.66,-31.46"/>
</g>
<!-- Node15 -->
<g id="node15" class="node">
<title>Node15</title>
<g id="a_node15"><a xlink:href="vector2_8h.html" target="_top" xlink:title=" ">
<polygon fill="white" stroke="#666666" points="787,-74 731,-74 731,-55 787,-55 787,-74"/>
<text text-anchor="middle" x="759" y="-62" font-family="Helvetica,sans-Serif" font-size="10.00">vector2.h</text>
</a>
</g>
</g>
<!-- Node13&#45;&gt;Node15 -->
<g id="edge15" class="edge">
<title>Node13&#45;&gt;Node15</title>
<path fill="none" stroke="#63b8ff" d="M759,-109.75C759,-103.27 759,-94.16 759,-85.9"/>
<polygon fill="#63b8ff" stroke="#63b8ff" points="762.5,-85.96 759,-75.96 755.5,-85.96 762.5,-85.96"/>
</g>
<!-- Node17 -->
<g id="node17" class="node">
<title>Node17</title>
<g id="a_node17"><a xlink:href="vector3i_8h.html" target="_top" xlink:title=" ">
<polygon fill="white" stroke="#666666" points="864.5,-74 805.5,-74 805.5,-55 864.5,-55 864.5,-74"/>
<text text-anchor="middle" x="835" y="-62" font-family="Helvetica,sans-Serif" font-size="10.00">vector3i.h</text>
</a>
</g>
</g>
<!-- Node13&#45;&gt;Node17 -->
<g id="edge18" class="edge">
<title>Node13&#45;&gt;Node17</title>
<path fill="none" stroke="#63b8ff" d="M771.89,-109.51C783.1,-101.7 799.57,-90.21 812.88,-80.93"/>
<polygon fill="#63b8ff" stroke="#63b8ff" points="814.86,-83.81 821.06,-75.22 810.85,-78.07 814.86,-83.81"/>
</g>
<!-- Node15&#45;&gt;Node14 -->
<g id="edge17" class="edge">
<title>Node15&#45;&gt;Node14</title>
<path fill="none" stroke="#63b8ff" d="M754.05,-54.75C750.16,-47.88 744.61,-38.08 739.72,-29.45"/>
<polygon fill="#63b8ff" stroke="#63b8ff" points="742.78,-27.74 734.81,-20.76 736.69,-31.19 742.78,-27.74"/>
</g>
<!-- Node16 -->
<g id="node16" class="node">
<title>Node16</title>
<g id="a_node16"><a xlink:href="vector2i_8h.html" target="_top" xlink:title=" ">
<polygon fill="white" stroke="#666666" points="850.5,-19 791.5,-19 791.5,0 850.5,0 850.5,-19"/>
<text text-anchor="middle" x="821" y="-7" font-family="Helvetica,sans-Serif" font-size="10.00">vector2i.h</text>
</a>
</g>
</g>
<!-- Node15&#45;&gt;Node16 -->
<g id="edge16" class="edge">
<title>Node15&#45;&gt;Node16</title>
<path fill="none" stroke="#63b8ff" d="M769.52,-54.51C778.39,-46.93 791.31,-35.88 801.99,-26.75"/>
<polygon fill="#63b8ff" stroke="#63b8ff" points="804.16,-29.5 809.49,-20.34 799.61,-24.18 804.16,-29.5"/>
</g>
<!-- Node17&#45;&gt;Node16 -->
<g id="edge19" class="edge">
<title>Node17&#45;&gt;Node16</title>
<path fill="none" stroke="#63b8ff" d="M832.69,-54.75C830.94,-48.11 828.46,-38.73 826.23,-30.31"/>
<polygon fill="#63b8ff" stroke="#63b8ff" points="829.69,-29.68 823.75,-20.91 822.92,-31.47 829.69,-29.68"/>
</g>
</g>
</svg>
        <g id="navigator" transform="translate(0 0)" fill="#404254">
                <rect fill="#f2f5e9" fill-opacity="0.5" stroke="#606060" stroke-width=".5" x="0" y="0" width="60" height="60"/>
                <use id="zoomplus" xlink:href="#zoomPlus" x="17" y="9" onmousedown="handleZoom(evt,'in')"/>
                <use id="zoomminus" xlink:href="#zoomMin" x="42" y="9" onmousedown="handleZoom(evt,'out')"/>
                <use id="reset" xlink:href="#resetDef" x="30" y="36" onmousedown="handleReset()"/>
                <g id="arrowUp" xlink:href="#dirArrow" transform="translate(30 24)" onmousedown="handlePan(0,-1)">
                  <use xlink:href="#rim" fill="#404040">
                        <set attributeName="fill" to="#808080" begin="arrowUp.mouseover" end="arrowUp.mouseout"/>
                  </use>
                  <path fill="none" stroke="white" stroke-width="1.5" d="M0,-3.0v7 M-2.5,-0.5L0,-3.0L2.5,-0.5"/>
                </g>
                <g id="arrowRight" xlink:href="#dirArrow" transform="rotate(90) translate(36 -43)" onmousedown="handlePan(1,0)">
                  <use xlink:href="#rim" fill="#404040">
                        <set attributeName="fill" to="#808080" begin="arrowRight.mouseover" end="arrowRight.mouseout"/>
                  </use>
                  <path fill="none" stroke="white" stroke-width="1.5" d="M0,-3.0v7 M-2.5,-0.5L0,-3.0L2.5,-0.5"/>
                </g>
                <g id="arrowDown" xlink:href="#dirArrow" transform="rotate(180) translate(-30 -48)" onmousedown="handlePan(0,1)">
                  <use xlink:href="#rim" fill="#404040">
                        <set attributeName="fill" to="#808080" begin="arrowDown.mouseover" end="arrowDown.mouseout"/>
                  </use>
                  <path fill="none" stroke="white" stroke-width="1.5" d="M0,-3.0v7 M-2.5,-0.5L0,-3.0L2.5,-0.5"/>
                </g>
                <g id="arrowLeft" xlink:href="#dirArrow" transform="rotate(270) translate(-36 17)" onmousedown="handlePan(-1,0)">
                  <use xlink:href="#rim" fill="#404040">
                        <set attributeName="fill" to="#808080" begin="arrowLeft.mouseover" end="arrowLeft.mouseout"/>
                  </use>
                  <path fill="none" stroke="white" stroke-width="1.5" d="M0,-3.0v7 M-2.5,-0.5L0,-3.0L2.5,-0.5"/>
                </g>
        </g>
        <svg viewBox="0 0 15 15" width="100%" height="30px" preserveAspectRatio="xMaxYMin meet">
         <g id="arrow_out" transform="scale(0.3 0.3)">
          <a xlink:href="pymatrix3_8cpp__incl_org.svg" target="_base">
           <rect id="button" ry="5" rx="5" y="6" x="6" height="38" width="38"
                fill="#f2f5e9" fill-opacity="0.5" stroke="#606060" stroke-width="1.0"/>
           <path id="arrow"
             d="M 11.500037,31.436501 C 11.940474,20.09759 22.043105,11.32322 32.158766,21.979434 L 37.068811,17.246167 C 37.068811,17.246167 37.088388,32 37.088388,32 L 22.160133,31.978069 C 22.160133,31.978069 26.997745,27.140456 26.997745,27.140456 C 18.528582,18.264221 13.291696,25.230495 11.500037,31.436501 z"
             style="fill:#404040;"/>
          </a>
         </g>
        </svg>
</svg>
