<?xml version="1.0" encoding="UTF-8" standalone="no"?>
<!DOCTYPE svg PUBLIC "-//W3C//DTD SVG 1.1//EN"
 "http://www.w3.org/Graphics/SVG/1.1/DTD/svg11.dtd">
<!-- Generated by graphviz version 7.0.5 (20221223.1930)
 -->
<!-- Title: plugins/behavior/python3/src/Python3/util/pyobjectutil.h Pages: 1 -->
<!--zoomable 115 -->
<svg id="main" version="1.1" xmlns="http://www.w3.org/2000/svg" xmlns:xlink="http://www.w3.org/1999/xlink" xml:space="preserve" onload="init(evt)">
<style type="text/css"><![CDATA[
.edge:hover path { stroke: red; }
.edge:hover polygon { stroke: red; fill: red; }
]]></style>
<script type="text/javascript"><![CDATA[
var edges = document.getElementsByTagName('g');
if (edges && edges.length) {
  for (var i=0;i<edges.length;i++) {
    if (edges[i].id.substr(0,4)=='edge') {
      edges[i].setAttribute('class','edge');
    }
  }
}
]]></script>
        <defs>
                <circle id="rim" cx="0" cy="0" r="7"/>
                <circle id="rim2" cx="0" cy="0" r="3.5"/>
                <g id="zoomPlus">
                        <use xlink:href="#rim" fill="#404040">
                                <set attributeName="fill" to="#808080" begin="zoomplus.mouseover" end="zoomplus.mouseout"/>
                        </use>
                        <path d="M-4,0h8M0,-4v8" fill="none" stroke="white" stroke-width="1.5" pointer-events="none"/>
                </g>
                <g id="zoomMin">
                        <use xlink:href="#rim" fill="#404040">
                                <set attributeName="fill" to="#808080" begin="zoomminus.mouseover" end="zoomminus.mouseout"/>
                        </use>
                        <path d="M-4,0h8" fill="none" stroke="white" stroke-width="1.5" pointer-events="none"/>
                </g>
                <g id="dirArrow">
                        <path fill="none" stroke="white" stroke-width="1.5" d="M0,-3.0v7 M-2.5,-0.5L0,-3.0L2.5,-0.5"/>
                </g>
               <g id="resetDef">
                       <use xlink:href="#rim2" fill="#404040">
                               <set attributeName="fill" to="#808080" begin="reset.mouseover" end="reset.mouseout"/>
                       </use>
               </g>
        </defs>

<script type="text/javascript">
var viewWidth = 4093;
var viewHeight = 115;
var sectionId = 'dynsection-0';
</script>
<script xlink:href="svgpan.js"/>
<svg id="graph" class="graph">
<g id="viewport">
<title>plugins/behavior/python3/src/Python3/util/pyobjectutil.h</title>
<!-- Node1 -->
<g id="node1" class="node">
<title>Node1</title>
<g id="a_node1"><a xlink:title=" ">
<polygon fill="#999999" stroke="#666666" points="2028,-107 1882,-107 1882,-77 2028,-77 2028,-107"/>
<text text-anchor="start" x="1890" y="-95" font-family="Helvetica,sans-Serif" font-size="10.00">plugins/behavior/python3</text>
<text text-anchor="middle" x="1955" y="-84" font-family="Helvetica,sans-Serif" font-size="10.00">/src/Python3/util/pyobjectutil.h</text>
</a>
</g>
</g>
<!-- Node2 -->
<g id="node2" class="node">
<title>Node2</title>
<g id="a_node2"><a xlink:href="python3debugger_8cpp.html" target="_top" xlink:title=" ">
<polygon fill="white" stroke="#666666" points="166,-35.5 0,-35.5 0,-5.5 166,-5.5 166,-35.5"/>
<text text-anchor="start" x="8" y="-23.5" font-family="Helvetica,sans-Serif" font-size="10.00">plugins/behavior/python3</text>
<text text-anchor="middle" x="83" y="-12.5" font-family="Helvetica,sans-Serif" font-size="10.00">/src/Python3/python3debugger.cpp</text>
</a>
</g>
</g>
<!-- Node1&#45;&gt;Node2 -->
<g id="edge1" class="edge">
<title>Node1&#45;&gt;Node2</title>
<path fill="none" stroke="#63b8ff" d="M1870.36,-90.65C1563.42,-89.07 509.34,-80.8 175,-41 164.79,-39.78 154.03,-37.99 143.61,-35.97"/>
<polygon fill="#63b8ff" stroke="#63b8ff" points="1870.3,-94.15 1880.31,-90.7 1870.33,-87.15 1870.3,-94.15"/>
</g>
<!-- Node3 -->
<g id="node3" class="node">
<title>Node3</title>
<g id="a_node3"><a xlink:href="python3env_8cpp.html" target="_top" xlink:title=" ">
<polygon fill="white" stroke="#666666" points="326,-35.5 184,-35.5 184,-5.5 326,-5.5 326,-35.5"/>
<text text-anchor="start" x="192" y="-23.5" font-family="Helvetica,sans-Serif" font-size="10.00">plugins/behavior/python3</text>
<text text-anchor="middle" x="255" y="-12.5" font-family="Helvetica,sans-Serif" font-size="10.00">/src/Python3/python3env.cpp</text>
</a>
</g>
</g>
<!-- Node1&#45;&gt;Node3 -->
<g id="edge2" class="edge">
<title>Node1&#45;&gt;Node3</title>
<path fill="none" stroke="#63b8ff" d="M1870.72,-90.71C1582.31,-89.37 636.12,-81.89 335,-41 326.08,-39.79 316.7,-37.99 307.63,-35.97"/>
<polygon fill="#63b8ff" stroke="#63b8ff" points="1870.4,-94.21 1880.41,-90.76 1870.43,-87.21 1870.4,-94.21"/>
</g>
<!-- Node4 -->
<g id="node4" class="node">
<title>Node4</title>
<g id="a_node4"><a xlink:href="python3fileloader_8cpp.html" target="_top" xlink:title=" ">
<polygon fill="white" stroke="#666666" points="508,-35.5 344,-35.5 344,-5.5 508,-5.5 508,-35.5"/>
<text text-anchor="start" x="352" y="-23.5" font-family="Helvetica,sans-Serif" font-size="10.00">plugins/behavior/python3</text>
<text text-anchor="middle" x="426" y="-12.5" font-family="Helvetica,sans-Serif" font-size="10.00">/src/Python3/python3fileloader.cpp</text>
</a>
</g>
</g>
<!-- Node1&#45;&gt;Node4 -->
<g id="edge3" class="edge">
<title>Node1&#45;&gt;Node4</title>
<path fill="none" stroke="#63b8ff" d="M1870.44,-90.02C1603.59,-86.61 781.42,-73.67 517,-41 506.9,-39.75 496.26,-37.94 485.95,-35.91"/>
<polygon fill="#63b8ff" stroke="#63b8ff" points="1870.03,-93.51 1880.07,-90.14 1870.12,-86.51 1870.03,-93.51"/>
</g>
<!-- Node5 -->
<g id="node5" class="node">
<title>Node5</title>
<g id="a_node5"><a xlink:href="python3streamredirect_8cpp.html" target="_top" xlink:title=" ">
<polygon fill="white" stroke="#666666" points="714,-35.5 526,-35.5 526,-5.5 714,-5.5 714,-35.5"/>
<text text-anchor="start" x="534" y="-23.5" font-family="Helvetica,sans-Serif" font-size="10.00">plugins/behavior/python3</text>
<text text-anchor="middle" x="620" y="-12.5" font-family="Helvetica,sans-Serif" font-size="10.00">/src/Python3/python3streamredirect.cpp</text>
</a>
</g>
</g>
<!-- Node1&#45;&gt;Node5 -->
<g id="edge4" class="edge">
<title>Node1&#45;&gt;Node5</title>
<path fill="none" stroke="#63b8ff" d="M1870.52,-91.82C1670.45,-92.85 1152.26,-90.08 723,-41 711.88,-39.73 700.16,-37.94 688.77,-35.96"/>
<polygon fill="#63b8ff" stroke="#63b8ff" points="1870.32,-95.32 1880.3,-91.77 1870.28,-88.32 1870.32,-95.32"/>
</g>
<!-- Node6 -->
<g id="node6" class="node">
<title>Node6</title>
<g id="a_node6"><a xlink:href="pymatrix3_8cpp.html" target="_top" xlink:title=" ">
<polygon fill="white" stroke="#666666" points="856,-41 732,-41 732,0 856,0 856,-41"/>
<text text-anchor="start" x="740" y="-29" font-family="Helvetica,sans-Serif" font-size="10.00">plugins/behavior/python3</text>
<text text-anchor="start" x="740" y="-18" font-family="Helvetica,sans-Serif" font-size="10.00">/src/Python3/util/math</text>
<text text-anchor="middle" x="794" y="-7" font-family="Helvetica,sans-Serif" font-size="10.00">/pymatrix3.cpp</text>
</a>
</g>
</g>
<!-- Node1&#45;&gt;Node6 -->
<g id="edge5" class="edge">
<title>Node1&#45;&gt;Node6</title>
<path fill="none" stroke="#63b8ff" d="M1870.34,-89.55C1649.25,-85.36 1058.24,-71.58 865,-41 862.1,-40.54 859.14,-40.01 856.17,-39.41"/>
<polygon fill="#63b8ff" stroke="#63b8ff" points="1870.28,-93.05 1880.34,-89.73 1870.41,-86.05 1870.28,-93.05"/>
</g>
<!-- Node7 -->
<g id="node7" class="node">
<title>Node7</title>
<g id="a_node7"><a xlink:href="pymatrix4_8cpp.html" target="_top" xlink:title=" ">
<polygon fill="white" stroke="#666666" points="998,-41 874,-41 874,0 998,0 998,-41"/>
<text text-anchor="start" x="882" y="-29" font-family="Helvetica,sans-Serif" font-size="10.00">plugins/behavior/python3</text>
<text text-anchor="start" x="882" y="-18" font-family="Helvetica,sans-Serif" font-size="10.00">/src/Python3/util/math</text>
<text text-anchor="middle" x="936" y="-7" font-family="Helvetica,sans-Serif" font-size="10.00">/pymatrix4.cpp</text>
</a>
</g>
</g>
<!-- Node1&#45;&gt;Node7 -->
<g id="edge6" class="edge">
<title>Node1&#45;&gt;Node7</title>
<path fill="none" stroke="#63b8ff" d="M1870.24,-88.87C1669.96,-83.45 1171.89,-67.67 1007,-41 1004.1,-40.53 1001.14,-39.99 998.17,-39.39"/>
<polygon fill="#63b8ff" stroke="#63b8ff" points="1869.96,-92.36 1880.05,-89.13 1870.15,-85.36 1869.96,-92.36"/>
</g>
<!-- Node8 -->
<g id="node8" class="node">
<title>Node8</title>
<g id="a_node8"><a xlink:href="pyquaternion_8cpp.html" target="_top" xlink:title=" ">
<polygon fill="white" stroke="#666666" points="1140,-41 1016,-41 1016,0 1140,0 1140,-41"/>
<text text-anchor="start" x="1024" y="-29" font-family="Helvetica,sans-Serif" font-size="10.00">plugins/behavior/python3</text>
<text text-anchor="start" x="1024" y="-18" font-family="Helvetica,sans-Serif" font-size="10.00">/src/Python3/util/math</text>
<text text-anchor="middle" x="1078" y="-7" font-family="Helvetica,sans-Serif" font-size="10.00">/pyquaternion.cpp</text>
</a>
</g>
</g>
<!-- Node1&#45;&gt;Node8 -->
<g id="edge7" class="edge">
<title>Node1&#45;&gt;Node8</title>
<path fill="none" stroke="#63b8ff" d="M1870.45,-91.46C1722.95,-90.99 1409.47,-84.37 1149,-41 1146.1,-40.52 1143.15,-39.96 1140.18,-39.36"/>
<polygon fill="#63b8ff" stroke="#63b8ff" points="1870.11,-94.96 1880.12,-91.48 1870.13,-87.96 1870.11,-94.96"/>
</g>
<!-- Node9 -->
<g id="node9" class="node">
<title>Node9</title>
<g id="a_node9"><a xlink:href="pyvector2_8cpp.html" target="_top" xlink:title=" ">
<polygon fill="white" stroke="#666666" points="1282,-41 1158,-41 1158,0 1282,0 1282,-41"/>
<text text-anchor="start" x="1166" y="-29" font-family="Helvetica,sans-Serif" font-size="10.00">plugins/behavior/python3</text>
<text text-anchor="start" x="1166" y="-18" font-family="Helvetica,sans-Serif" font-size="10.00">/src/Python3/util/math</text>
<text text-anchor="middle" x="1220" y="-7" font-family="Helvetica,sans-Serif" font-size="10.00">/pyvector2.cpp</text>
</a>
</g>
</g>
<!-- Node1&#45;&gt;Node9 -->
<g id="edge8" class="edge">
<title>Node1&#45;&gt;Node9</title>
<path fill="none" stroke="#63b8ff" d="M1870.58,-89.84C1743.83,-86.93 1497.21,-76.74 1291,-41 1288.1,-40.5 1285.15,-39.93 1282.18,-39.31"/>
<polygon fill="#63b8ff" stroke="#63b8ff" points="1870.14,-93.33 1880.21,-90.05 1870.29,-86.33 1870.14,-93.33"/>
</g>
<!-- Node10 -->
<g id="node10" class="node">
<title>Node10</title>
<g id="a_node10"><a xlink:href="pyvector3_8cpp.html" target="_top" xlink:title=" ">
<polygon fill="white" stroke="#666666" points="1424,-41 1300,-41 1300,0 1424,0 1424,-41"/>
<text text-anchor="start" x="1308" y="-29" font-family="Helvetica,sans-Serif" font-size="10.00">plugins/behavior/python3</text>
<text text-anchor="start" x="1308" y="-18" font-family="Helvetica,sans-Serif" font-size="10.00">/src/Python3/util/math</text>
<text text-anchor="middle" x="1362" y="-7" font-family="Helvetica,sans-Serif" font-size="10.00">/pyvector3.cpp</text>
</a>
</g>
</g>
<!-- Node1&#45;&gt;Node10 -->
<g id="edge9" class="edge">
<title>Node1&#45;&gt;Node10</title>
<path fill="none" stroke="#63b8ff" d="M1870.49,-87.39C1766.74,-81.94 1585.76,-69.08 1433,-41 1430.11,-40.47 1427.16,-39.88 1424.2,-39.24"/>
<polygon fill="#63b8ff" stroke="#63b8ff" points="1870.15,-90.88 1880.32,-87.9 1870.51,-83.89 1870.15,-90.88"/>
</g>
<!-- Node11 -->
<g id="node11" class="node">
<title>Node11</title>
<g id="a_node11"><a xlink:href="pyvector4_8cpp.html" target="_top" xlink:title=" ">
<polygon fill="white" stroke="#666666" points="1566,-41 1442,-41 1442,0 1566,0 1566,-41"/>
<text text-anchor="start" x="1450" y="-29" font-family="Helvetica,sans-Serif" font-size="10.00">plugins/behavior/python3</text>
<text text-anchor="start" x="1450" y="-18" font-family="Helvetica,sans-Serif" font-size="10.00">/src/Python3/util/math</text>
<text text-anchor="middle" x="1504" y="-7" font-family="Helvetica,sans-Serif" font-size="10.00">/pyvector4.cpp</text>
</a>
</g>
</g>
<!-- Node1&#45;&gt;Node11 -->
<g id="edge10" class="edge">
<title>Node1&#45;&gt;Node11</title>
<path fill="none" stroke="#63b8ff" d="M1870.54,-83.24C1793.17,-75.35 1675.71,-61.35 1575,-41 1572.12,-40.42 1569.18,-39.78 1566.22,-39.11"/>
<polygon fill="#63b8ff" stroke="#63b8ff" points="1869.85,-86.69 1880.15,-84.21 1870.56,-79.73 1869.85,-86.69"/>
</g>
<!-- Node12 -->
<g id="node12" class="node">
<title>Node12</title>
<g id="a_node12"><a xlink:href="pyapifunction_8cpp.html" target="_top" xlink:title=" ">
<polygon fill="white" stroke="#666666" points="1749.5,-35.5 1584.5,-35.5 1584.5,-5.5 1749.5,-5.5 1749.5,-35.5"/>
<text text-anchor="start" x="1592.5" y="-23.5" font-family="Helvetica,sans-Serif" font-size="10.00">plugins/behavior/python3</text>
<text text-anchor="middle" x="1667" y="-12.5" font-family="Helvetica,sans-Serif" font-size="10.00">/src/Python3/util/pyapifunction.cpp</text>
</a>
</g>
</g>
<!-- Node1&#45;&gt;Node12 -->
<g id="edge11" class="edge">
<title>Node1&#45;&gt;Node12</title>
<path fill="none" stroke="#63b8ff" d="M1883.99,-73.86C1835.75,-62.22 1772.66,-47 1726.95,-35.97"/>
<polygon fill="#63b8ff" stroke="#63b8ff" points="1882.96,-77.22 1893.51,-76.16 1884.61,-70.41 1882.96,-77.22"/>
</g>
<!-- Node13 -->
<g id="node13" class="node">
<title>Node13</title>
<g id="a_node13"><a xlink:href="pyboundapifunction_8cpp.html" target="_top" xlink:title=" ">
<polygon fill="white" stroke="#666666" points="1958.5,-35.5 1767.5,-35.5 1767.5,-5.5 1958.5,-5.5 1958.5,-35.5"/>
<text text-anchor="start" x="1775.5" y="-23.5" font-family="Helvetica,sans-Serif" font-size="10.00">plugins/behavior/python3</text>
<text text-anchor="middle" x="1863" y="-12.5" font-family="Helvetica,sans-Serif" font-size="10.00">/src/Python3/util/pyboundapifunction.cpp</text>
</a>
</g>
</g>
<!-- Node1&#45;&gt;Node13 -->
<g id="edge12" class="edge">
<title>Node1&#45;&gt;Node13</title>
<path fill="none" stroke="#63b8ff" d="M1926.87,-69.75C1912.34,-58.77 1894.98,-45.66 1882.04,-35.88"/>
<polygon fill="#63b8ff" stroke="#63b8ff" points="1924.64,-72.45 1934.73,-75.69 1928.86,-66.87 1924.64,-72.45"/>
</g>
<!-- Node14 -->
<g id="node14" class="node">
<title>Node14</title>
<g id="a_node14"><a xlink:href="pyenum_8cpp.html" target="_top" xlink:title=" ">
<polygon fill="white" stroke="#666666" points="2119,-35.5 1977,-35.5 1977,-5.5 2119,-5.5 2119,-35.5"/>
<text text-anchor="start" x="1985" y="-23.5" font-family="Helvetica,sans-Serif" font-size="10.00">plugins/behavior/python3</text>
<text text-anchor="middle" x="2048" y="-12.5" font-family="Helvetica,sans-Serif" font-size="10.00">/src/Python3/util/pyenum.cpp</text>
</a>
</g>
</g>
<!-- Node1&#45;&gt;Node14 -->
<g id="edge13" class="edge">
<title>Node1&#45;&gt;Node14</title>
<path fill="none" stroke="#63b8ff" d="M1983.44,-69.75C1998.13,-58.77 2015.67,-45.66 2028.76,-35.88"/>
<polygon fill="#63b8ff" stroke="#63b8ff" points="1981.4,-66.9 1975.48,-75.69 1985.59,-72.51 1981.4,-66.9"/>
</g>
<!-- Node15 -->
<g id="node15" class="node">
<title>Node15</title>
<g id="a_node15"><a xlink:href="pyexecution_8cpp.html" target="_top" xlink:title=" ">
<polygon fill="white" stroke="#666666" points="2296.5,-35.5 2137.5,-35.5 2137.5,-5.5 2296.5,-5.5 2296.5,-35.5"/>
<text text-anchor="start" x="2145.5" y="-23.5" font-family="Helvetica,sans-Serif" font-size="10.00">plugins/behavior/python3</text>
<text text-anchor="middle" x="2217" y="-12.5" font-family="Helvetica,sans-Serif" font-size="10.00">/src/Python3/util/pyexecution.cpp</text>
</a>
</g>
</g>
<!-- Node1&#45;&gt;Node15 -->
<g id="edge14" class="edge">
<title>Node1&#45;&gt;Node15</title>
<path fill="none" stroke="#63b8ff" d="M2020.71,-73.57C2064.45,-61.97 2121.23,-46.9 2162.47,-35.97"/>
<polygon fill="#63b8ff" stroke="#63b8ff" points="2019.84,-70.18 2011.07,-76.13 2021.63,-76.95 2019.84,-70.18"/>
</g>
<!-- Node16 -->
<g id="node16" class="node">
<title>Node16</title>
<g id="a_node16"><a xlink:href="pyflags_8cpp.html" target="_top" xlink:title=" ">
<polygon fill="white" stroke="#666666" points="2453,-35.5 2315,-35.5 2315,-5.5 2453,-5.5 2453,-35.5"/>
<text text-anchor="start" x="2323" y="-23.5" font-family="Helvetica,sans-Serif" font-size="10.00">plugins/behavior/python3</text>
<text text-anchor="middle" x="2384" y="-12.5" font-family="Helvetica,sans-Serif" font-size="10.00">/src/Python3/util/pyflags.cpp</text>
</a>
</g>
</g>
<!-- Node1&#45;&gt;Node16 -->
<g id="edge15" class="edge">
<title>Node1&#45;&gt;Node16</title>
<path fill="none" stroke="#63b8ff" d="M2039.47,-81.46C2110.82,-72.8 2215.55,-58.7 2306,-41 2313.53,-39.53 2321.43,-37.78 2329.19,-35.96"/>
<polygon fill="#63b8ff" stroke="#63b8ff" points="2039.32,-77.95 2029.81,-82.62 2040.16,-84.9 2039.32,-77.95"/>
</g>
<!-- Node17 -->
<g id="node17" class="node">
<title>Node17</title>
<g id="a_node17"><a xlink:href="pyframeptr_8cpp.html" target="_top" xlink:title=" ">
<polygon fill="white" stroke="#666666" points="2625,-35.5 2471,-35.5 2471,-5.5 2625,-5.5 2625,-35.5"/>
<text text-anchor="start" x="2479" y="-23.5" font-family="Helvetica,sans-Serif" font-size="10.00">plugins/behavior/python3</text>
<text text-anchor="middle" x="2548" y="-12.5" font-family="Helvetica,sans-Serif" font-size="10.00">/src/Python3/util/pyframeptr.cpp</text>
</a>
</g>
</g>
<!-- Node1&#45;&gt;Node17 -->
<g id="edge16" class="edge">
<title>Node1&#45;&gt;Node17</title>
<path fill="none" stroke="#63b8ff" d="M2039.77,-85.88C2140.78,-79.04 2314.46,-64.91 2462,-41 2470.77,-39.58 2479.97,-37.8 2488.97,-35.9"/>
<polygon fill="#63b8ff" stroke="#63b8ff" points="2039.67,-82.38 2029.93,-86.54 2040.14,-89.37 2039.67,-82.38"/>
</g>
<!-- Node18 -->
<g id="node18" class="node">
<title>Node18</title>
<g id="a_node18"><a xlink:href="pyobjectptr_8cpp.html" target="_top" xlink:title=" ">
<polygon fill="white" stroke="#666666" points="2798.5,-35.5 2643.5,-35.5 2643.5,-5.5 2798.5,-5.5 2798.5,-35.5"/>
<text text-anchor="start" x="2651.5" y="-23.5" font-family="Helvetica,sans-Serif" font-size="10.00">plugins/behavior/python3</text>
<text text-anchor="middle" x="2721" y="-12.5" font-family="Helvetica,sans-Serif" font-size="10.00">/src/Python3/util/pyobjectptr.cpp</text>
</a>
</g>
</g>
<!-- Node1&#45;&gt;Node18 -->
<g id="edge17" class="edge">
<title>Node1&#45;&gt;Node18</title>
<path fill="none" stroke="#63b8ff" d="M2039.56,-88.76C2168.44,-84.46 2421.47,-72.47 2634,-41 2643.03,-39.66 2652.53,-37.91 2661.78,-35.99"/>
<polygon fill="#63b8ff" stroke="#63b8ff" points="2039.63,-85.26 2029.75,-89.08 2039.86,-92.26 2039.63,-85.26"/>
</g>
<!-- Node19 -->
<g id="node19" class="node">
<title>Node19</title>
<g id="a_node19"><a xlink:href="pyobjectutil_8cpp.html" target="_top" xlink:title=" ">
<polygon fill="white" stroke="#666666" points="2973.5,-35.5 2816.5,-35.5 2816.5,-5.5 2973.5,-5.5 2973.5,-35.5"/>
<text text-anchor="start" x="2824.5" y="-23.5" font-family="Helvetica,sans-Serif" font-size="10.00">plugins/behavior/python3</text>
<text text-anchor="middle" x="2895" y="-12.5" font-family="Helvetica,sans-Serif" font-size="10.00">/src/Python3/util/pyobjectutil.cpp</text>
</a>
</g>
</g>
<!-- Node1&#45;&gt;Node19 -->
<g id="edge18" class="edge">
<title>Node1&#45;&gt;Node19</title>
<path fill="none" stroke="#63b8ff" d="M2039.62,-90.57C2193.37,-88.77 2528.53,-80.25 2808,-41 2817.35,-39.69 2827.18,-37.89 2836.74,-35.92"/>
<polygon fill="#63b8ff" stroke="#63b8ff" points="2039.89,-87.06 2029.93,-90.67 2039.97,-94.06 2039.89,-87.06"/>
</g>
<!-- Node20 -->
<g id="node20" class="node">
<title>Node20</title>
<g id="a_node20"><a xlink:href="pyownedscopeptr_8cpp.html" target="_top" xlink:title=" ">
<polygon fill="white" stroke="#666666" points="3176,-35.5 2992,-35.5 2992,-5.5 3176,-5.5 3176,-35.5"/>
<text text-anchor="start" x="3000" y="-23.5" font-family="Helvetica,sans-Serif" font-size="10.00">plugins/behavior/python3</text>
<text text-anchor="middle" x="3084" y="-12.5" font-family="Helvetica,sans-Serif" font-size="10.00">/src/Python3/util/pyownedscopeptr.cpp</text>
</a>
</g>
</g>
<!-- Node1&#45;&gt;Node20 -->
<g id="edge19" class="edge">
<title>Node1&#45;&gt;Node20</title>
<path fill="none" stroke="#63b8ff" d="M2039.72,-90.94C2215.97,-89.93 2634.68,-82.88 2983,-41 2993.73,-39.71 3005.03,-37.94 3016.02,-35.99"/>
<polygon fill="#63b8ff" stroke="#63b8ff" points="2039.71,-87.44 2029.73,-90.99 2039.75,-94.44 2039.71,-87.44"/>
</g>
<!-- Node21 -->
<g id="node21" class="node">
<title>Node21</title>
<g id="a_node21"><a xlink:href="pyscopeiterator_8cpp.html" target="_top" xlink:title=" ">
<polygon fill="white" stroke="#666666" points="3368,-35.5 3194,-35.5 3194,-5.5 3368,-5.5 3368,-35.5"/>
<text text-anchor="start" x="3202" y="-23.5" font-family="Helvetica,sans-Serif" font-size="10.00">plugins/behavior/python3</text>
<text text-anchor="middle" x="3281" y="-12.5" font-family="Helvetica,sans-Serif" font-size="10.00">/src/Python3/util/pyscopeiterator.cpp</text>
</a>
</g>
</g>
<!-- Node1&#45;&gt;Node21 -->
<g id="edge20" class="edge">
<title>Node1&#45;&gt;Node21</title>
<path fill="none" stroke="#63b8ff" d="M2039.77,-89.32C2280.07,-84.27 2962.68,-67.92 3185,-41 3195.38,-39.74 3206.32,-37.96 3216.94,-35.99"/>
<polygon fill="#63b8ff" stroke="#63b8ff" points="2039.76,-85.82 2029.84,-89.53 2039.91,-92.82 2039.76,-85.82"/>
</g>
<!-- Node22 -->
<g id="node22" class="node">
<title>Node22</title>
<g id="a_node22"><a xlink:href="pyscopeptr_8cpp.html" target="_top" xlink:title=" ">
<polygon fill="white" stroke="#666666" points="3541.5,-35.5 3386.5,-35.5 3386.5,-5.5 3541.5,-5.5 3541.5,-35.5"/>
<text text-anchor="start" x="3394.5" y="-23.5" font-family="Helvetica,sans-Serif" font-size="10.00">plugins/behavior/python3</text>
<text text-anchor="middle" x="3464" y="-12.5" font-family="Helvetica,sans-Serif" font-size="10.00">/src/Python3/util/pyscopeptr.cpp</text>
</a>
</g>
</g>
<!-- Node1&#45;&gt;Node22 -->
<g id="edge21" class="edge">
<title>Node1&#45;&gt;Node22</title>
<path fill="none" stroke="#63b8ff" d="M2039.95,-90.08C2305.24,-86.88 3116.11,-74.53 3377,-41 3386.67,-39.76 3396.85,-37.94 3406.71,-35.92"/>
<polygon fill="#63b8ff" stroke="#63b8ff" points="2039.95,-86.58 2030,-90.2 2040.04,-93.58 2039.95,-86.58"/>
</g>
<!-- Node23 -->
<g id="node23" class="node">
<title>Node23</title>
<g id="a_node23"><a xlink:href="pysender_8cpp.html" target="_top" xlink:title=" ">
<polygon fill="white" stroke="#666666" points="3706.5,-35.5 3559.5,-35.5 3559.5,-5.5 3706.5,-5.5 3706.5,-35.5"/>
<text text-anchor="start" x="3567.5" y="-23.5" font-family="Helvetica,sans-Serif" font-size="10.00">plugins/behavior/python3</text>
<text text-anchor="middle" x="3633" y="-12.5" font-family="Helvetica,sans-Serif" font-size="10.00">/src/Python3/util/pysender.cpp</text>
</a>
</g>
</g>
<!-- Node1&#45;&gt;Node23 -->
<g id="edge22" class="edge">
<title>Node1&#45;&gt;Node23</title>
<path fill="none" stroke="#63b8ff" d="M2039.49,-90.61C2325.33,-88.92 3254.75,-80.45 3551,-41 3560.14,-39.78 3569.74,-37.98 3579.04,-35.96"/>
<polygon fill="#63b8ff" stroke="#63b8ff" points="2039.87,-87.1 2029.89,-90.66 2039.91,-94.1 2039.87,-87.1"/>
</g>
<!-- Node24 -->
<g id="node24" class="node">
<title>Node24</title>
<g id="a_node24"><a xlink:href="pyvirtualiterator_8cpp.html" target="_top" xlink:title=" ">
<polygon fill="white" stroke="#666666" points="3899,-35.5 3725,-35.5 3725,-5.5 3899,-5.5 3899,-35.5"/>
<text text-anchor="start" x="3733" y="-23.5" font-family="Helvetica,sans-Serif" font-size="10.00">plugins/behavior/python3</text>
<text text-anchor="middle" x="3812" y="-12.5" font-family="Helvetica,sans-Serif" font-size="10.00">/src/Python3/util/pyvirtualiterator.cpp</text>
</a>
</g>
</g>
<!-- Node1&#45;&gt;Node24 -->
<g id="edge23" class="edge">
<title>Node1&#45;&gt;Node24</title>
<path fill="none" stroke="#63b8ff" d="M2039.76,-90.53C2344.72,-88.52 3385.44,-78.98 3716,-41 3726.64,-39.78 3737.86,-37.98 3748.73,-35.95"/>
<polygon fill="#63b8ff" stroke="#63b8ff" points="2039.86,-87.02 2029.88,-90.59 2039.9,-94.02 2039.86,-87.02"/>
</g>
<!-- Node25 -->
<g id="node25" class="node">
<title>Node25</title>
<g id="a_node25"><a xlink:href="pyvirtualrange_8cpp.html" target="_top" xlink:title=" ">
<polygon fill="white" stroke="#666666" points="4085,-35.5 3917,-35.5 3917,-5.5 4085,-5.5 4085,-35.5"/>
<text text-anchor="start" x="3925" y="-23.5" font-family="Helvetica,sans-Serif" font-size="10.00">plugins/behavior/python3</text>
<text text-anchor="middle" x="4001" y="-12.5" font-family="Helvetica,sans-Serif" font-size="10.00">/src/Python3/util/pyvirtualrange.cpp</text>
</a>
</g>
</g>
<!-- Node1&#45;&gt;Node25 -->
<g id="edge24" class="edge">
<title>Node1&#45;&gt;Node25</title>
<path fill="none" stroke="#63b8ff" d="M2039.59,-90.87C2365.22,-90.07 3538.02,-84.16 3908,-41 3918.32,-39.8 3929.2,-38 3939.73,-35.98"/>
<polygon fill="#63b8ff" stroke="#63b8ff" points="2039.87,-87.37 2029.88,-90.9 2039.88,-94.37 2039.87,-87.37"/>
</g>
</g>
</svg>
        <g id="navigator" transform="translate(0 0)" fill="#404254">
                <rect fill="#f2f5e9" fill-opacity="0.5" stroke="#606060" stroke-width=".5" x="0" y="0" width="60" height="60"/>
                <use id="zoomplus" xlink:href="#zoomPlus" x="17" y="9" onmousedown="handleZoom(evt,'in')"/>
                <use id="zoomminus" xlink:href="#zoomMin" x="42" y="9" onmousedown="handleZoom(evt,'out')"/>
                <use id="reset" xlink:href="#resetDef" x="30" y="36" onmousedown="handleReset()"/>
                <g id="arrowUp" xlink:href="#dirArrow" transform="translate(30 24)" onmousedown="handlePan(0,-1)">
                  <use xlink:href="#rim" fill="#404040">
                        <set attributeName="fill" to="#808080" begin="arrowUp.mouseover" end="arrowUp.mouseout"/>
                  </use>
                  <path fill="none" stroke="white" stroke-width="1.5" d="M0,-3.0v7 M-2.5,-0.5L0,-3.0L2.5,-0.5"/>
                </g>
                <g id="arrowRight" xlink:href="#dirArrow" transform="rotate(90) translate(36 -43)" onmousedown="handlePan(1,0)">
                  <use xlink:href="#rim" fill="#404040">
                        <set attributeName="fill" to="#808080" begin="arrowRight.mouseover" end="arrowRight.mouseout"/>
                  </use>
                  <path fill="none" stroke="white" stroke-width="1.5" d="M0,-3.0v7 M-2.5,-0.5L0,-3.0L2.5,-0.5"/>
                </g>
                <g id="arrowDown" xlink:href="#dirArrow" transform="rotate(180) translate(-30 -48)" onmousedown="handlePan(0,1)">
                  <use xlink:href="#rim" fill="#404040">
                        <set attributeName="fill" to="#808080" begin="arrowDown.mouseover" end="arrowDown.mouseout"/>
                  </use>
                  <path fill="none" stroke="white" stroke-width="1.5" d="M0,-3.0v7 M-2.5,-0.5L0,-3.0L2.5,-0.5"/>
                </g>
                <g id="arrowLeft" xlink:href="#dirArrow" transform="rotate(270) translate(-36 17)" onmousedown="handlePan(-1,0)">
                  <use xlink:href="#rim" fill="#404040">
                        <set attributeName="fill" to="#808080" begin="arrowLeft.mouseover" end="arrowLeft.mouseout"/>
                  </use>
                  <path fill="none" stroke="white" stroke-width="1.5" d="M0,-3.0v7 M-2.5,-0.5L0,-3.0L2.5,-0.5"/>
                </g>
        </g>
        <svg viewBox="0 0 15 15" width="100%" height="30px" preserveAspectRatio="xMaxYMin meet">
         <g id="arrow_out" transform="scale(0.3 0.3)">
          <a xlink:href="pyobjectutil_8h__dep__incl_org.svg" target="_base">
           <rect id="button" ry="5" rx="5" y="6" x="6" height="38" width="38"
                fill="#f2f5e9" fill-opacity="0.5" stroke="#606060" stroke-width="1.0"/>
           <path id="arrow"
             d="M 11.500037,31.436501 C 11.940474,20.09759 22.043105,11.32322 32.158766,21.979434 L 37.068811,17.246167 C 37.068811,17.246167 37.088388,32 37.088388,32 L 22.160133,31.978069 C 22.160133,31.978069 26.997745,27.140456 26.997745,27.140456 C 18.528582,18.264221 13.291696,25.230495 11.500037,31.436501 z"
             style="fill:#404040;"/>
          </a>
         </g>
        </svg>
</svg>
