<?xml version="1.0" encoding="UTF-8" standalone="no"?>
<!DOCTYPE svg PUBLIC "-//W3C//DTD SVG 1.1//EN"
 "http://www.w3.org/Graphics/SVG/1.1/DTD/svg11.dtd">
<!-- Generated by graphviz version 7.0.5 (20221223.1930)
 -->
<!-- Title: plugins/behavior/python3/src/Python3/util/math/pyquaternion.h Pages: 1 -->
<svg width="175pt" height="324pt"
 viewBox="0.00 0.00 174.50 324.00" xmlns="http://www.w3.org/2000/svg" xmlns:xlink="http://www.w3.org/1999/xlink">
<g id="graph0" class="graph" transform="scale(1 1) rotate(0) translate(4 320)">
<title>plugins/behavior/python3/src/Python3/util/math/pyquaternion.h</title>
<!-- Node1 -->
<g id="node1" class="node">
<title>Node1</title>
<g id="a_node1"><a xlink:title=" ">
<polygon fill="#999999" stroke="#666666" points="151,-316 27,-316 27,-275 151,-275 151,-316"/>
<text text-anchor="start" x="35" y="-304" font-family="Helvetica,sans-Serif" font-size="10.00">plugins/behavior/python3</text>
<text text-anchor="start" x="35" y="-293" font-family="Helvetica,sans-Serif" font-size="10.00">/src/Python3/util/math</text>
<text text-anchor="middle" x="89" y="-282" font-family="Helvetica,sans-Serif" font-size="10.00">/pyquaternion.h</text>
</a>
</g>
</g>
<!-- Node2 -->
<g id="node2" class="node">
<title>Node2</title>
<g id="a_node2"><a xlink:href="quaternion_8h.html" target="_top" xlink:title=" ">
<polygon fill="white" stroke="#666666" points="148.5,-239 29.5,-239 29.5,-220 148.5,-220 148.5,-239"/>
<text text-anchor="middle" x="89" y="-227" font-family="Helvetica,sans-Serif" font-size="10.00">Meta/math/quaternion.h</text>
</a>
</g>
</g>
<!-- Node1&#45;&gt;Node2 -->
<g id="edge1" class="edge">
<title>Node1&#45;&gt;Node2</title>
<path fill="none" stroke="#63b8ff" d="M89,-274.6C89,-266.98 89,-258.3 89,-250.66"/>
<polygon fill="#63b8ff" stroke="#63b8ff" points="92.5,-250.68 89,-240.68 85.5,-250.68 92.5,-250.68"/>
</g>
<!-- Node3 -->
<g id="node3" class="node">
<title>Node3</title>
<g id="a_node3"><a xlink:href="matrix3_8h.html" target="_top" xlink:title=" ">
<polygon fill="white" stroke="#666666" points="61,-184 5,-184 5,-165 61,-165 61,-184"/>
<text text-anchor="middle" x="33" y="-172" font-family="Helvetica,sans-Serif" font-size="10.00">matrix3.h</text>
</a>
</g>
</g>
<!-- Node2&#45;&gt;Node3 -->
<g id="edge2" class="edge">
<title>Node2&#45;&gt;Node3</title>
<path fill="none" stroke="#63b8ff" d="M79.5,-219.51C71.57,-212 60.05,-201.1 50.46,-192.03"/>
<polygon fill="#63b8ff" stroke="#63b8ff" points="53.13,-189.73 43.46,-185.4 48.32,-194.81 53.13,-189.73"/>
</g>
<!-- Node4 -->
<g id="node4" class="node">
<title>Node4</title>
<g id="a_node4"><a xlink:href="vector3_8h.html" target="_top" xlink:title=" ">
<polygon fill="white" stroke="#666666" points="89,-129 33,-129 33,-110 89,-110 89,-129"/>
<text text-anchor="middle" x="61" y="-117" font-family="Helvetica,sans-Serif" font-size="10.00">vector3.h</text>
</a>
</g>
</g>
<!-- Node2&#45;&gt;Node4 -->
<g id="edge11" class="edge">
<title>Node2&#45;&gt;Node4</title>
<path fill="none" stroke="#63b8ff" d="M86.71,-219.66C82.26,-202.5 72.34,-164.26 66.21,-140.6"/>
<polygon fill="#63b8ff" stroke="#63b8ff" points="69.6,-139.73 63.7,-130.93 62.82,-141.48 69.6,-139.73"/>
</g>
<!-- Node9 -->
<g id="node9" class="node">
<title>Node9</title>
<g id="a_node9"><a xlink:href="pi_8h.html" target="_top" xlink:title=" ">
<polygon fill="white" stroke="#666666" points="149,-184 117,-184 117,-165 149,-165 149,-184"/>
<text text-anchor="middle" x="133" y="-172" font-family="Helvetica,sans-Serif" font-size="10.00">pi.h</text>
</a>
</g>
</g>
<!-- Node2&#45;&gt;Node9 -->
<g id="edge10" class="edge">
<title>Node2&#45;&gt;Node9</title>
<path fill="none" stroke="#63b8ff" d="M96.27,-219.75C102.28,-212.5 111.01,-201.98 118.46,-193.02"/>
<polygon fill="#63b8ff" stroke="#63b8ff" points="120.92,-195.54 124.61,-185.61 115.53,-191.07 120.92,-195.54"/>
</g>
<!-- Node3&#45;&gt;Node4 -->
<g id="edge3" class="edge">
<title>Node3&#45;&gt;Node4</title>
<path fill="none" stroke="#63b8ff" d="M37.62,-164.75C41.25,-157.88 46.43,-148.08 50.99,-139.45"/>
<polygon fill="#63b8ff" stroke="#63b8ff" points="53.99,-141.26 55.57,-130.78 47.8,-137.99 53.99,-141.26"/>
</g>
<!-- Node5 -->
<g id="node5" class="node">
<title>Node5</title>
<g id="a_node5"><a xlink:href="common_8h.html" target="_top" xlink:title=" ">
<polygon fill="white" stroke="#666666" points="62,-19 0,-19 0,0 62,0 62,-19"/>
<text text-anchor="middle" x="31" y="-7" font-family="Helvetica,sans-Serif" font-size="10.00">common.h</text>
</a>
</g>
</g>
<!-- Node4&#45;&gt;Node5 -->
<g id="edge4" class="edge">
<title>Node4&#45;&gt;Node5</title>
<path fill="none" stroke="#63b8ff" d="M50.21,-109.55C41.26,-101.36 29.19,-88.36 24,-74 18.91,-59.93 21.13,-43.06 24.37,-30.24"/>
<polygon fill="#63b8ff" stroke="#63b8ff" points="27.66,-31.46 27.15,-20.87 20.95,-29.46 27.66,-31.46"/>
</g>
<!-- Node6 -->
<g id="node6" class="node">
<title>Node6</title>
<g id="a_node6"><a xlink:href="vector2_8h.html" target="_top" xlink:title=" ">
<polygon fill="white" stroke="#666666" points="89,-74 33,-74 33,-55 89,-55 89,-74"/>
<text text-anchor="middle" x="61" y="-62" font-family="Helvetica,sans-Serif" font-size="10.00">vector2.h</text>
</a>
</g>
</g>
<!-- Node4&#45;&gt;Node6 -->
<g id="edge5" class="edge">
<title>Node4&#45;&gt;Node6</title>
<path fill="none" stroke="#63b8ff" d="M61,-109.75C61,-103.27 61,-94.16 61,-85.9"/>
<polygon fill="#63b8ff" stroke="#63b8ff" points="64.5,-85.96 61,-75.96 57.5,-85.96 64.5,-85.96"/>
</g>
<!-- Node8 -->
<g id="node8" class="node">
<title>Node8</title>
<g id="a_node8"><a xlink:href="vector3i_8h.html" target="_top" xlink:title=" ">
<polygon fill="white" stroke="#666666" points="166.5,-74 107.5,-74 107.5,-55 166.5,-55 166.5,-74"/>
<text text-anchor="middle" x="137" y="-62" font-family="Helvetica,sans-Serif" font-size="10.00">vector3i.h</text>
</a>
</g>
</g>
<!-- Node4&#45;&gt;Node8 -->
<g id="edge8" class="edge">
<title>Node4&#45;&gt;Node8</title>
<path fill="none" stroke="#63b8ff" d="M73.89,-109.51C85.1,-101.7 101.57,-90.21 114.88,-80.93"/>
<polygon fill="#63b8ff" stroke="#63b8ff" points="116.86,-83.81 123.06,-75.22 112.85,-78.07 116.86,-83.81"/>
</g>
<!-- Node6&#45;&gt;Node5 -->
<g id="edge7" class="edge">
<title>Node6&#45;&gt;Node5</title>
<path fill="none" stroke="#63b8ff" d="M56.05,-54.75C52.16,-47.88 46.61,-38.08 41.72,-29.45"/>
<polygon fill="#63b8ff" stroke="#63b8ff" points="44.78,-27.74 36.81,-20.76 38.69,-31.19 44.78,-27.74"/>
</g>
<!-- Node7 -->
<g id="node7" class="node">
<title>Node7</title>
<g id="a_node7"><a xlink:href="vector2i_8h.html" target="_top" xlink:title=" ">
<polygon fill="white" stroke="#666666" points="152.5,-19 93.5,-19 93.5,0 152.5,0 152.5,-19"/>
<text text-anchor="middle" x="123" y="-7" font-family="Helvetica,sans-Serif" font-size="10.00">vector2i.h</text>
</a>
</g>
</g>
<!-- Node6&#45;&gt;Node7 -->
<g id="edge6" class="edge">
<title>Node6&#45;&gt;Node7</title>
<path fill="none" stroke="#63b8ff" d="M71.52,-54.51C80.39,-46.93 93.31,-35.88 103.99,-26.75"/>
<polygon fill="#63b8ff" stroke="#63b8ff" points="106.16,-29.5 111.49,-20.34 101.61,-24.18 106.16,-29.5"/>
</g>
<!-- Node8&#45;&gt;Node7 -->
<g id="edge9" class="edge">
<title>Node8&#45;&gt;Node7</title>
<path fill="none" stroke="#63b8ff" d="M134.69,-54.75C132.94,-48.11 130.46,-38.73 128.23,-30.31"/>
<polygon fill="#63b8ff" stroke="#63b8ff" points="131.69,-29.68 125.75,-20.91 124.92,-31.47 131.69,-29.68"/>
</g>
</g>
</svg>
