<?xml version="1.0" encoding="UTF-8" standalone="no"?>
<!DOCTYPE svg PUBLIC "-//W3C//DTD SVG 1.1//EN"
 "http://www.w3.org/Graphics/SVG/1.1/DTD/svg11.dtd">
<!-- Generated by graphviz version 7.0.5 (20221223.1930)
 -->
<!-- Title: plugins/behavior/python3/src/Python3/util/pyscopeptr.h Pages: 1 -->
<svg width="499pt" height="104pt"
 viewBox="0.00 0.00 498.50 104.00" xmlns="http://www.w3.org/2000/svg" xmlns:xlink="http://www.w3.org/1999/xlink">
<g id="graph0" class="graph" transform="scale(1 1) rotate(0) translate(4 100)">
<title>plugins/behavior/python3/src/Python3/util/pyscopeptr.h</title>
<!-- Node1 -->
<g id="node1" class="node">
<title>Node1</title>
<g id="a_node1"><a xlink:title=" ">
<polygon fill="#999999" stroke="#666666" points="311.5,-96 166.5,-96 166.5,-66 311.5,-66 311.5,-96"/>
<text text-anchor="start" x="174.5" y="-84" font-family="Helvetica,sans-Serif" font-size="10.00">plugins/behavior/python3</text>
<text text-anchor="middle" x="239" y="-73" font-family="Helvetica,sans-Serif" font-size="10.00">/src/Python3/util/pyscopeptr.h</text>
</a>
</g>
</g>
<!-- Node2 -->
<g id="node2" class="node">
<title>Node2</title>
<g id="a_node2"><a xlink:href="python3env_8cpp.html" target="_top" xlink:title=" ">
<polygon fill="white" stroke="#666666" points="142,-30 0,-30 0,0 142,0 142,-30"/>
<text text-anchor="start" x="8" y="-18" font-family="Helvetica,sans-Serif" font-size="10.00">plugins/behavior/python3</text>
<text text-anchor="middle" x="71" y="-7" font-family="Helvetica,sans-Serif" font-size="10.00">/src/Python3/python3env.cpp</text>
</a>
</g>
</g>
<!-- Node1&#45;&gt;Node2 -->
<g id="edge1" class="edge">
<title>Node1&#45;&gt;Node2</title>
<path fill="none" stroke="#63b8ff" d="M190.54,-61.54C164.56,-51.64 133.03,-39.63 108.87,-30.43"/>
<polygon fill="#63b8ff" stroke="#63b8ff" points="189.29,-64.81 199.88,-65.1 191.78,-58.27 189.29,-64.81"/>
</g>
<!-- Node3 -->
<g id="node3" class="node">
<title>Node3</title>
<g id="a_node3"><a xlink:href="pyobjectutil_8cpp.html" target="_top" xlink:title=" ">
<polygon fill="white" stroke="#666666" points="317.5,-30 160.5,-30 160.5,0 317.5,0 317.5,-30"/>
<text text-anchor="start" x="168.5" y="-18" font-family="Helvetica,sans-Serif" font-size="10.00">plugins/behavior/python3</text>
<text text-anchor="middle" x="239" y="-7" font-family="Helvetica,sans-Serif" font-size="10.00">/src/Python3/util/pyobjectutil.cpp</text>
</a>
</g>
</g>
<!-- Node1&#45;&gt;Node3 -->
<g id="edge2" class="edge">
<title>Node1&#45;&gt;Node3</title>
<path fill="none" stroke="#63b8ff" d="M239,-54.39C239,-46.13 239,-37.28 239,-30.16"/>
<polygon fill="#63b8ff" stroke="#63b8ff" points="235.5,-54.28 239,-64.28 242.5,-54.28 235.5,-54.28"/>
</g>
<!-- Node4 -->
<g id="node4" class="node">
<title>Node4</title>
<g id="a_node4"><a xlink:href="pyscopeptr_8cpp.html" target="_top" xlink:title=" ">
<polygon fill="white" stroke="#666666" points="490.5,-30 335.5,-30 335.5,0 490.5,0 490.5,-30"/>
<text text-anchor="start" x="343.5" y="-18" font-family="Helvetica,sans-Serif" font-size="10.00">plugins/behavior/python3</text>
<text text-anchor="middle" x="413" y="-7" font-family="Helvetica,sans-Serif" font-size="10.00">/src/Python3/util/pyscopeptr.cpp</text>
</a>
</g>
</g>
<!-- Node1&#45;&gt;Node4 -->
<g id="edge3" class="edge">
<title>Node1&#45;&gt;Node4</title>
<path fill="none" stroke="#63b8ff" d="M288.83,-61.67C315.8,-51.75 348.65,-39.67 373.78,-30.43"/>
<polygon fill="#63b8ff" stroke="#63b8ff" points="287.65,-58.38 279.47,-65.11 290.06,-64.95 287.65,-58.38"/>
</g>
</g>
</svg>
