<?xml version="1.0" encoding="UTF-8" standalone="no"?>
<!DOCTYPE svg PUBLIC "-//W3C//DTD SVG 1.1//EN"
 "http://www.w3.org/Graphics/SVG/1.1/DTD/svg11.dtd">
<!-- Generated by graphviz version 7.0.5 (20221223.1930)
 -->
<!-- Title: plugins/behavior/python3/src/Python3/python3debugger.h Pages: 1 -->
<svg width="872pt" height="170pt"
 viewBox="0.00 0.00 871.50 170.00" xmlns="http://www.w3.org/2000/svg" xmlns:xlink="http://www.w3.org/1999/xlink">
<g id="graph0" class="graph" transform="scale(1 1) rotate(0) translate(4 166)">
<title>plugins/behavior/python3/src/Python3/python3debugger.h</title>
<!-- Node1 -->
<g id="node1" class="node">
<title>Node1</title>
<g id="a_node1"><a xlink:title=" ">
<polygon fill="#999999" stroke="#666666" points="639.5,-162 484.5,-162 484.5,-132 639.5,-132 639.5,-162"/>
<text text-anchor="start" x="492.5" y="-150" font-family="Helvetica,sans-Serif" font-size="10.00">plugins/behavior/python3</text>
<text text-anchor="middle" x="562" y="-139" font-family="Helvetica,sans-Serif" font-size="10.00">/src/Python3/python3debugger.h</text>
</a>
</g>
</g>
<!-- Node2 -->
<g id="node2" class="node">
<title>Node2</title>
<g id="a_node2"><a xlink:href="python3debugger_8cpp.html" target="_top" xlink:title=" ">
<polygon fill="white" stroke="#666666" points="431,-96 265,-96 265,-66 431,-66 431,-96"/>
<text text-anchor="start" x="273" y="-84" font-family="Helvetica,sans-Serif" font-size="10.00">plugins/behavior/python3</text>
<text text-anchor="middle" x="348" y="-73" font-family="Helvetica,sans-Serif" font-size="10.00">/src/Python3/python3debugger.cpp</text>
</a>
</g>
</g>
<!-- Node1&#45;&gt;Node2 -->
<g id="edge1" class="edge">
<title>Node1&#45;&gt;Node2</title>
<path fill="none" stroke="#63b8ff" d="M503.09,-128.38C469.44,-118.32 427.78,-105.86 396.12,-96.39"/>
<polygon fill="#63b8ff" stroke="#63b8ff" points="501.67,-131.61 512.26,-131.12 503.68,-124.91 501.67,-131.61"/>
</g>
<!-- Node3 -->
<g id="node3" class="node">
<title>Node3</title>
<g id="a_node3"><a xlink:href="python3env_8h.html" target="_top" xlink:title=" ">
<polygon fill="white" stroke="#666666" points="580.5,-96 449.5,-96 449.5,-66 580.5,-66 580.5,-96"/>
<text text-anchor="start" x="457.5" y="-84" font-family="Helvetica,sans-Serif" font-size="10.00">plugins/behavior/python3</text>
<text text-anchor="middle" x="515" y="-73" font-family="Helvetica,sans-Serif" font-size="10.00">/src/Python3/python3env.h</text>
</a>
</g>
</g>
<!-- Node1&#45;&gt;Node3 -->
<g id="edge2" class="edge">
<title>Node1&#45;&gt;Node3</title>
<path fill="none" stroke="#63b8ff" d="M544.87,-122.68C538.35,-113.79 531.12,-103.95 525.4,-96.16"/>
<polygon fill="#63b8ff" stroke="#63b8ff" points="541.93,-124.59 550.67,-130.58 547.58,-120.44 541.93,-124.59"/>
</g>
<!-- Node7 -->
<g id="node7" class="node">
<title>Node7</title>
<g id="a_node7"><a xlink:href="pyexecution_8cpp.html" target="_top" xlink:title=" ">
<polygon fill="white" stroke="#666666" points="863.5,-30 704.5,-30 704.5,0 863.5,0 863.5,-30"/>
<text text-anchor="start" x="712.5" y="-18" font-family="Helvetica,sans-Serif" font-size="10.00">plugins/behavior/python3</text>
<text text-anchor="middle" x="784" y="-7" font-family="Helvetica,sans-Serif" font-size="10.00">/src/Python3/util/pyexecution.cpp</text>
</a>
</g>
</g>
<!-- Node1&#45;&gt;Node7 -->
<g id="edge8" class="edge">
<title>Node1&#45;&gt;Node7</title>
<path fill="none" stroke="#63b8ff" d="M576.5,-122.31C588.54,-104.49 607.17,-80.71 629,-66 653.51,-49.49 683.83,-38.13 711.14,-30.46"/>
<polygon fill="#63b8ff" stroke="#63b8ff" points="573.71,-120.19 571.19,-130.48 579.58,-124 573.71,-120.19"/>
</g>
<!-- Node9 -->
<g id="node9" class="node">
<title>Node9</title>
<g id="a_node9"><a xlink:href="pyobjectptr_8cpp.html" target="_top" xlink:title=" ">
<polygon fill="white" stroke="#666666" points="792.5,-96 637.5,-96 637.5,-66 792.5,-66 792.5,-96"/>
<text text-anchor="start" x="645.5" y="-84" font-family="Helvetica,sans-Serif" font-size="10.00">plugins/behavior/python3</text>
<text text-anchor="middle" x="715" y="-73" font-family="Helvetica,sans-Serif" font-size="10.00">/src/Python3/util/pyobjectptr.cpp</text>
</a>
</g>
</g>
<!-- Node1&#45;&gt;Node9 -->
<g id="edge9" class="edge">
<title>Node1&#45;&gt;Node9</title>
<path fill="none" stroke="#63b8ff" d="M606.77,-127.27C630.3,-117.43 658.71,-105.55 680.51,-96.43"/>
<polygon fill="#63b8ff" stroke="#63b8ff" points="605.61,-123.97 597.73,-131.05 608.31,-130.42 605.61,-123.97"/>
</g>
<!-- Node4 -->
<g id="node4" class="node">
<title>Node4</title>
<g id="a_node4"><a xlink:href="python3env_8cpp.html" target="_top" xlink:title=" ">
<polygon fill="white" stroke="#666666" points="142,-30 0,-30 0,0 142,0 142,-30"/>
<text text-anchor="start" x="8" y="-18" font-family="Helvetica,sans-Serif" font-size="10.00">plugins/behavior/python3</text>
<text text-anchor="middle" x="71" y="-7" font-family="Helvetica,sans-Serif" font-size="10.00">/src/Python3/python3env.cpp</text>
</a>
</g>
</g>
<!-- Node3&#45;&gt;Node4 -->
<g id="edge3" class="edge">
<title>Node3&#45;&gt;Node4</title>
<path fill="none" stroke="#63b8ff" d="M438.17,-65.78C310.22,-46.27 275.51,-48.64 151,-30 148.07,-29.56 145.09,-29.1 142.07,-28.62"/>
<polygon fill="#63b8ff" stroke="#63b8ff" points="437.28,-69.19 447.69,-67.25 438.34,-62.27 437.28,-69.19"/>
</g>
<!-- Node5 -->
<g id="node5" class="node">
<title>Node5</title>
<g id="a_node5"><a xlink:href="python3fileloader_8cpp.html" target="_top" xlink:title=" ">
<polygon fill="white" stroke="#666666" points="324,-30 160,-30 160,0 324,0 324,-30"/>
<text text-anchor="start" x="168" y="-18" font-family="Helvetica,sans-Serif" font-size="10.00">plugins/behavior/python3</text>
<text text-anchor="middle" x="242" y="-7" font-family="Helvetica,sans-Serif" font-size="10.00">/src/Python3/python3fileloader.cpp</text>
</a>
</g>
</g>
<!-- Node3&#45;&gt;Node5 -->
<g id="edge4" class="edge">
<title>Node3&#45;&gt;Node5</title>
<path fill="none" stroke="#63b8ff" d="M442.34,-62.97C399,-52.81 344.57,-40.04 303.38,-30.39"/>
<polygon fill="#63b8ff" stroke="#63b8ff" points="441.38,-66.34 451.92,-65.21 442.98,-59.52 441.38,-66.34"/>
</g>
<!-- Node6 -->
<g id="node6" class="node">
<title>Node6</title>
<g id="a_node6"><a xlink:href="pyapifunction_8cpp.html" target="_top" xlink:title=" ">
<polygon fill="white" stroke="#666666" points="507.5,-30 342.5,-30 342.5,0 507.5,0 507.5,-30"/>
<text text-anchor="start" x="350.5" y="-18" font-family="Helvetica,sans-Serif" font-size="10.00">plugins/behavior/python3</text>
<text text-anchor="middle" x="425" y="-7" font-family="Helvetica,sans-Serif" font-size="10.00">/src/Python3/util/pyapifunction.cpp</text>
</a>
</g>
</g>
<!-- Node3&#45;&gt;Node6 -->
<g id="edge5" class="edge">
<title>Node3&#45;&gt;Node6</title>
<path fill="none" stroke="#63b8ff" d="M485.82,-59.25C472.56,-49.82 457.2,-38.9 445.23,-30.39"/>
<polygon fill="#63b8ff" stroke="#63b8ff" points="483.61,-61.98 493.79,-64.92 487.67,-56.27 483.61,-61.98"/>
</g>
<!-- Node3&#45;&gt;Node7 -->
<g id="edge6" class="edge">
<title>Node3&#45;&gt;Node7</title>
<path fill="none" stroke="#63b8ff" d="M586.87,-62.9C629.53,-52.75 683.02,-40.02 723.52,-30.39"/>
<polygon fill="#63b8ff" stroke="#63b8ff" points="586.1,-59.49 577.18,-65.21 587.72,-66.3 586.1,-59.49"/>
</g>
<!-- Node8 -->
<g id="node8" class="node">
<title>Node8</title>
<g id="a_node8"><a xlink:href="python3lock_8cpp.html" target="_top" xlink:title=" ">
<polygon fill="white" stroke="#666666" points="686,-30 526,-30 526,0 686,0 686,-30"/>
<text text-anchor="start" x="534" y="-18" font-family="Helvetica,sans-Serif" font-size="10.00">plugins/behavior/python3</text>
<text text-anchor="middle" x="606" y="-7" font-family="Helvetica,sans-Serif" font-size="10.00">/src/Python3/util/python3lock.cpp</text>
</a>
</g>
</g>
<!-- Node3&#45;&gt;Node8 -->
<g id="edge7" class="edge">
<title>Node3&#45;&gt;Node8</title>
<path fill="none" stroke="#63b8ff" d="M544.5,-59.25C557.91,-49.82 573.45,-38.9 585.55,-30.39"/>
<polygon fill="#63b8ff" stroke="#63b8ff" points="542.6,-56.31 536.43,-64.93 546.63,-62.04 542.6,-56.31"/>
</g>
</g>
</svg>
