<?xml version="1.0" encoding="UTF-8" standalone="no"?>
<!DOCTYPE svg PUBLIC "-//W3C//DTD SVG 1.1//EN"
 "http://www.w3.org/Graphics/SVG/1.1/DTD/svg11.dtd">
<!-- Generated by graphviz version 7.0.5 (20221223.1930)
 -->
<!-- Title: plugins/behavior/python3/src/Python3/python3streamredirect.cpp Pages: 1 -->
<svg width="1988pt" height="709pt"
 viewBox="0.00 0.00 1988.00 709.00" xmlns="http://www.w3.org/2000/svg" xmlns:xlink="http://www.w3.org/1999/xlink">
<g id="graph0" class="graph" transform="scale(1 1) rotate(0) translate(4 705)">
<title>plugins/behavior/python3/src/Python3/python3streamredirect.cpp</title>
<!-- Node1 -->
<g id="node1" class="node">
<title>Node1</title>
<g id="a_node1"><a xlink:title=" ">
<polygon fill="#999999" stroke="#666666" points="1787,-701 1599,-701 1599,-671 1787,-671 1787,-701"/>
<text text-anchor="start" x="1607" y="-689" font-family="Helvetica,sans-Serif" font-size="10.00">plugins/behavior/python3</text>
<text text-anchor="middle" x="1693" y="-678" font-family="Helvetica,sans-Serif" font-size="10.00">/src/Python3/python3streamredirect.cpp</text>
</a>
</g>
</g>
<!-- Node2 -->
<g id="node2" class="node">
<title>Node2</title>
<g id="a_node2"><a xlink:href="python3lib_8h.html" target="_top" xlink:title=" ">
<polygon fill="white" stroke="#666666" points="448,-629.5 380,-629.5 380,-610.5 448,-610.5 448,-629.5"/>
<text text-anchor="middle" x="414" y="-617.5" font-family="Helvetica,sans-Serif" font-size="10.00">python3lib.h</text>
</a>
</g>
</g>
<!-- Node1&#45;&gt;Node2 -->
<g id="edge1" class="edge">
<title>Node1&#45;&gt;Node2</title>
<path fill="none" stroke="#63b8ff" d="M1598.69,-680.28C1343.31,-667.5 645.1,-632.56 459.7,-623.29"/>
<polygon fill="#63b8ff" stroke="#63b8ff" points="459.92,-619.79 449.75,-622.79 459.57,-626.78 459.92,-619.79"/>
</g>
<!-- Node11 -->
<g id="node11" class="node">
<title>Node11</title>
<g id="a_node11"><a xlink:href="python3streamredirect_8h.html" target="_top" xlink:title=" ">
<polygon fill="white" stroke="#666666" points="1956,-349 1836,-349 1836,-330 1956,-330 1956,-349"/>
<text text-anchor="middle" x="1896" y="-337" font-family="Helvetica,sans-Serif" font-size="10.00">python3streamredirect.h</text>
</a>
</g>
</g>
<!-- Node1&#45;&gt;Node11 -->
<g id="edge11" class="edge">
<title>Node1&#45;&gt;Node11</title>
<path fill="none" stroke="#63b8ff" d="M1693,-670.81C1693,-647.7 1693,-600.49 1693,-560.5 1693,-560.5 1693,-560.5 1693,-448.5 1693,-387.18 1766.08,-360.57 1824.54,-349.08"/>
<polygon fill="#63b8ff" stroke="#63b8ff" points="1824.95,-352.57 1834.15,-347.32 1823.69,-345.68 1824.95,-352.57"/>
</g>
<!-- Node13 -->
<g id="node13" class="node">
<title>Node13</title>
<g id="a_node13"><a xlink:href="metatable__impl_8h.html" target="_top" xlink:title=" ">
<polygon fill="white" stroke="#666666" points="1500.5,-635 1375.5,-635 1375.5,-605 1500.5,-605 1500.5,-635"/>
<text text-anchor="start" x="1383.5" y="-623" font-family="Helvetica,sans-Serif" font-size="10.00">Meta/keyvalue/metatable</text>
<text text-anchor="middle" x="1438" y="-612" font-family="Helvetica,sans-Serif" font-size="10.00">_impl.h</text>
</a>
</g>
</g>
<!-- Node1&#45;&gt;Node13 -->
<g id="edge13" class="edge">
<title>Node1&#45;&gt;Node13</title>
<path fill="none" stroke="#63b8ff" d="M1635.46,-670.56C1597.19,-660.95 1546.74,-648.29 1506.42,-638.17"/>
<polygon fill="#63b8ff" stroke="#63b8ff" points="1507.35,-634.8 1496.8,-635.76 1505.65,-641.59 1507.35,-634.8"/>
</g>
<!-- Node55 -->
<g id="node55" class="node">
<title>Node55</title>
<g id="a_node55"><a xlink:href="pyobjectutil_8h.html" target="_top" xlink:title=" ">
<polygon fill="white" stroke="#666666" points="1810.5,-629.5 1721.5,-629.5 1721.5,-610.5 1810.5,-610.5 1810.5,-629.5"/>
<text text-anchor="middle" x="1766" y="-617.5" font-family="Helvetica,sans-Serif" font-size="10.00">util/pyobjectutil.h</text>
</a>
</g>
</g>
<!-- Node1&#45;&gt;Node55 -->
<g id="edge73" class="edge">
<title>Node1&#45;&gt;Node55</title>
<path fill="none" stroke="#63b8ff" d="M1709.2,-670.8C1720.47,-660.92 1735.52,-647.72 1747.3,-637.39"/>
<polygon fill="#63b8ff" stroke="#63b8ff" points="1749.56,-640.07 1754.77,-630.84 1744.95,-634.8 1749.56,-640.07"/>
</g>
<!-- Node56 -->
<g id="node56" class="node">
<title>Node56</title>
<g id="a_node56"><a xlink:href="log_8h.html" target="_top" xlink:title=" ">
<polygon fill="white" stroke="#666666" points="1927.5,-629.5 1828.5,-629.5 1828.5,-610.5 1927.5,-610.5 1927.5,-629.5"/>
<text text-anchor="middle" x="1878" y="-617.5" font-family="Helvetica,sans-Serif" font-size="10.00">Interfaces/log/log.h</text>
</a>
</g>
</g>
<!-- Node1&#45;&gt;Node56 -->
<g id="edge74" class="edge">
<title>Node1&#45;&gt;Node56</title>
<path fill="none" stroke="#63b8ff" d="M1734.52,-670.64C1766.59,-659.54 1810.55,-644.34 1841.33,-633.69"/>
<polygon fill="#63b8ff" stroke="#63b8ff" points="1842.29,-637.06 1850.59,-630.48 1840,-630.44 1842.29,-637.06"/>
</g>
<!-- Node3 -->
<g id="node3" class="node">
<title>Node3</title>
<g id="a_node3"><a xlink:href="resourceslib_8h.html" target="_top" xlink:title=" ">
<polygon fill="white" stroke="#666666" points="532,-569 416,-569 416,-550 532,-550 532,-569"/>
<text text-anchor="middle" x="474" y="-557" font-family="Helvetica,sans-Serif" font-size="10.00">Madgine/resourceslib.h</text>
</a>
</g>
</g>
<!-- Node2&#45;&gt;Node3 -->
<g id="edge2" class="edge">
<title>Node2&#45;&gt;Node3</title>
<path fill="none" stroke="#63b8ff" d="M423.11,-610.12C432.01,-601.44 445.78,-588.02 456.75,-577.32"/>
<polygon fill="#63b8ff" stroke="#63b8ff" points="459,-580.01 463.72,-570.53 454.11,-575 459,-580.01"/>
</g>
<!-- Node4 -->
<g id="node4" class="node">
<title>Node4</title>
<g id="a_node4"><a xlink:href="rootlib_8h.html" target="_top" xlink:title=" ">
<polygon fill="white" stroke="#666666" points="591,-514 501,-514 501,-495 591,-495 591,-514"/>
<text text-anchor="middle" x="546" y="-502" font-family="Helvetica,sans-Serif" font-size="10.00">Madgine/rootlib.h</text>
</a>
</g>
</g>
<!-- Node2&#45;&gt;Node4 -->
<g id="edge3" class="edge">
<title>Node2&#45;&gt;Node4</title>
<path fill="none" stroke="#63b8ff" d="M448.37,-615.43C478.01,-610.39 519.36,-598.24 541,-569 550.17,-556.61 550.84,-538.9 549.54,-525.32"/>
<polygon fill="#63b8ff" stroke="#63b8ff" points="553.06,-525.21 548.2,-515.79 546.13,-526.18 553.06,-525.21"/>
</g>
<!-- Node5 -->
<g id="node5" class="node">
<title>Node5</title>
<g id="a_node5"><a xlink:href="debuglib_8h.html" target="_top" xlink:title=" ">
<polygon fill="white" stroke="#666666" points="688,-569 588,-569 588,-550 688,-550 688,-569"/>
<text text-anchor="middle" x="638" y="-557" font-family="Helvetica,sans-Serif" font-size="10.00">Madgine/debuglib.h</text>
</a>
</g>
</g>
<!-- Node2&#45;&gt;Node5 -->
<g id="edge4" class="edge">
<title>Node2&#45;&gt;Node5</title>
<path fill="none" stroke="#63b8ff" d="M448.02,-610.12C486.67,-600.02 549.91,-583.51 592.71,-572.33"/>
<polygon fill="#63b8ff" stroke="#63b8ff" points="593.4,-575.76 602.19,-569.85 591.63,-568.99 593.4,-575.76"/>
</g>
<!-- Node7 -->
<g id="node7" class="node">
<title>Node7</title>
<g id="a_node7"><a xlink:href="behaviorlib_8h.html" target="_top" xlink:title=" ">
<polygon fill="white" stroke="#666666" points="110,-569 0,-569 0,-550 110,-550 110,-569"/>
<text text-anchor="middle" x="55" y="-557" font-family="Helvetica,sans-Serif" font-size="10.00">Madgine/behaviorlib.h</text>
</a>
</g>
</g>
<!-- Node2&#45;&gt;Node7 -->
<g id="edge7" class="edge">
<title>Node2&#45;&gt;Node7</title>
<path fill="none" stroke="#63b8ff" d="M379.58,-613.39C320.11,-603.7 197.2,-583.67 120.86,-571.23"/>
<polygon fill="#63b8ff" stroke="#63b8ff" points="121.88,-567.85 111.44,-569.7 120.75,-574.76 121.88,-567.85"/>
</g>
<!-- Node8 -->
<g id="node8" class="node">
<title>Node8</title>
<g id="a_node8"><a xlink:title=" ">
<polygon fill="#e0e0e0" stroke="#999999" points="182,-569 128,-569 128,-550 182,-550 182,-569"/>
<text text-anchor="middle" x="155" y="-557" font-family="Helvetica,sans-Serif" font-size="10.00">Python.h</text>
</a>
</g>
</g>
<!-- Node2&#45;&gt;Node8 -->
<g id="edge8" class="edge">
<title>Node2&#45;&gt;Node8</title>
<path fill="none" stroke="#63b8ff" d="M379.59,-611.41C337.9,-602.19 265.24,-586.03 193.2,-569.49"/>
<polygon fill="#63b8ff" stroke="#63b8ff" points="194.12,-566.11 183.59,-567.28 192.56,-572.93 194.12,-566.11"/>
</g>
<!-- Node9 -->
<g id="node9" class="node">
<title>Node9</title>
<g id="a_node9"><a xlink:href="python3compat_8h.html" target="_top" xlink:title=" ">
<polygon fill="white" stroke="#666666" points="290,-569 200,-569 200,-550 290,-550 290,-569"/>
<text text-anchor="middle" x="245" y="-557" font-family="Helvetica,sans-Serif" font-size="10.00">python3compat.h</text>
</a>
</g>
</g>
<!-- Node2&#45;&gt;Node9 -->
<g id="edge9" class="edge">
<title>Node2&#45;&gt;Node9</title>
<path fill="none" stroke="#63b8ff" d="M388.33,-610.12C359.92,-600.28 313.88,-584.34 281.67,-573.19"/>
<polygon fill="#63b8ff" stroke="#63b8ff" points="282.93,-569.93 272.34,-569.96 280.64,-576.54 282.93,-569.93"/>
</g>
<!-- Node10 -->
<g id="node10" class="node">
<title>Node10</title>
<g id="a_node10"><a xlink:href="python3forward_8h.html" target="_top" xlink:title=" ">
<polygon fill="white" stroke="#666666" points="398,-569 308,-569 308,-550 398,-550 398,-569"/>
<text text-anchor="middle" x="353" y="-557" font-family="Helvetica,sans-Serif" font-size="10.00">python3forward.h</text>
</a>
</g>
</g>
<!-- Node2&#45;&gt;Node10 -->
<g id="edge10" class="edge">
<title>Node2&#45;&gt;Node10</title>
<path fill="none" stroke="#63b8ff" d="M404.74,-610.12C395.69,-601.44 381.69,-588.02 370.54,-577.32"/>
<polygon fill="#63b8ff" stroke="#63b8ff" points="373.08,-574.91 363.44,-570.52 368.24,-579.96 373.08,-574.91"/>
</g>
<!-- Node5&#45;&gt;Node4 -->
<g id="edge5" class="edge">
<title>Node5&#45;&gt;Node4</title>
<path fill="none" stroke="#63b8ff" d="M622.39,-549.51C608.3,-541.39 587.31,-529.3 570.9,-519.85"/>
<polygon fill="#63b8ff" stroke="#63b8ff" points="573.1,-517.07 562.69,-515.11 569.61,-523.14 573.1,-517.07"/>
</g>
<!-- Node6 -->
<g id="node6" class="node">
<title>Node6</title>
<g id="a_node6"><a xlink:href="debugforward_8h.html" target="_top" xlink:title=" ">
<polygon fill="white" stroke="#666666" points="692.5,-514 609.5,-514 609.5,-495 692.5,-495 692.5,-514"/>
<text text-anchor="middle" x="651" y="-502" font-family="Helvetica,sans-Serif" font-size="10.00">debugforward.h</text>
</a>
</g>
</g>
<!-- Node5&#45;&gt;Node6 -->
<g id="edge6" class="edge">
<title>Node5&#45;&gt;Node6</title>
<path fill="none" stroke="#63b8ff" d="M640.15,-549.75C641.76,-543.19 644.02,-533.95 646.07,-525.6"/>
<polygon fill="#63b8ff" stroke="#63b8ff" points="649.46,-526.46 648.45,-515.91 642.66,-524.79 649.46,-526.46"/>
</g>
<!-- Node12 -->
<g id="node12" class="node">
<title>Node12</title>
<g id="a_node12"><a xlink:href="closure_8h.html" target="_top" xlink:title=" ">
<polygon fill="white" stroke="#666666" points="1980,-239 1888,-239 1888,-220 1980,-220 1980,-239"/>
<text text-anchor="middle" x="1934" y="-227" font-family="Helvetica,sans-Serif" font-size="10.00">Generic/closure.h</text>
</a>
</g>
</g>
<!-- Node11&#45;&gt;Node12 -->
<g id="edge12" class="edge">
<title>Node11&#45;&gt;Node12</title>
<path fill="none" stroke="#63b8ff" d="M1920.11,-329.52C1935.41,-322.42 1953.96,-310.86 1963,-294 1971.2,-278.7 1961.15,-260.64 1950.7,-247.7"/>
<polygon fill="#63b8ff" stroke="#63b8ff" points="1953.52,-245.61 1944.28,-240.43 1948.27,-250.24 1953.52,-245.61"/>
</g>
<!-- Node14 -->
<g id="node14" class="node">
<title>Node14</title>
<g id="a_node14"><a xlink:href="fixed__string_8h.html" target="_top" xlink:title=" ">
<polygon fill="white" stroke="#666666" points="1451,-569 1341,-569 1341,-550 1451,-550 1451,-569"/>
<text text-anchor="middle" x="1396" y="-557" font-family="Helvetica,sans-Serif" font-size="10.00">Generic/fixed_string.h</text>
</a>
</g>
</g>
<!-- Node13&#45;&gt;Node14 -->
<g id="edge14" class="edge">
<title>Node13&#45;&gt;Node14</title>
<path fill="none" stroke="#63b8ff" d="M1427.62,-604.54C1421.95,-596.65 1414.89,-586.81 1408.88,-578.44"/>
<polygon fill="#63b8ff" stroke="#63b8ff" points="1411.79,-576.49 1403.11,-570.4 1406.1,-580.57 1411.79,-576.49"/>
</g>
<!-- Node15 -->
<g id="node15" class="node">
<title>Node15</title>
<g id="a_node15"><a xlink:href="linestruct_8h.html" target="_top" xlink:title=" ">
<polygon fill="white" stroke="#666666" points="811.5,-514 710.5,-514 710.5,-495 811.5,-495 811.5,-514"/>
<text text-anchor="middle" x="761" y="-502" font-family="Helvetica,sans-Serif" font-size="10.00">Generic/linestruct.h</text>
</a>
</g>
</g>
<!-- Node13&#45;&gt;Node15 -->
<g id="edge15" class="edge">
<title>Node13&#45;&gt;Node15</title>
<path fill="none" stroke="#63b8ff" d="M1375.47,-616.54C1249.91,-611.08 971.34,-596.24 880,-569 843.8,-558.21 805.98,-535.81 782.95,-520.71"/>
<polygon fill="#63b8ff" stroke="#63b8ff" points="784.98,-517.86 774.72,-515.2 781.08,-523.67 784.98,-517.86"/>
</g>
<!-- Node16 -->
<g id="node16" class="node">
<title>Node16</title>
<g id="a_node16"><a xlink:href="accessor_8h.html" target="_top" xlink:title=" ">
<polygon fill="white" stroke="#666666" points="1513,-459 1449,-459 1449,-440 1513,-440 1513,-459"/>
<text text-anchor="middle" x="1481" y="-447" font-family="Helvetica,sans-Serif" font-size="10.00">accessor.h</text>
</a>
</g>
</g>
<!-- Node13&#45;&gt;Node16 -->
<g id="edge16" class="edge">
<title>Node13&#45;&gt;Node16</title>
<path fill="none" stroke="#63b8ff" d="M1445.29,-604.91C1450.1,-595.07 1456.2,-581.52 1460,-569 1470.25,-535.26 1476.11,-494.51 1478.92,-470.66"/>
<polygon fill="#63b8ff" stroke="#63b8ff" points="1482.39,-471.12 1480,-460.8 1475.43,-470.35 1482.39,-471.12"/>
</g>
<!-- Node29 -->
<g id="node29" class="node">
<title>Node29</title>
<g id="a_node29"><a xlink:href="boundapifunction_8h.html" target="_top" xlink:title=" ">
<polygon fill="white" stroke="#666666" points="1605,-569 1507,-569 1507,-550 1605,-550 1605,-569"/>
<text text-anchor="middle" x="1556" y="-557" font-family="Helvetica,sans-Serif" font-size="10.00">boundapifunction.h</text>
</a>
</g>
</g>
<!-- Node13&#45;&gt;Node29 -->
<g id="edge31" class="edge">
<title>Node13&#45;&gt;Node29</title>
<path fill="none" stroke="#63b8ff" d="M1467.17,-604.54C1485.77,-595.32 1509.73,-583.44 1528.08,-574.34"/>
<polygon fill="#63b8ff" stroke="#63b8ff" points="1529.4,-577.6 1536.8,-570.02 1526.29,-571.32 1529.4,-577.6"/>
</g>
<!-- Node32 -->
<g id="node32" class="node">
<title>Node32</title>
<g id="a_node32"><a xlink:href="metatable_8h.html" target="_top" xlink:title=" ">
<polygon fill="white" stroke="#666666" points="1480.5,-294 1413.5,-294 1413.5,-275 1480.5,-275 1480.5,-294"/>
<text text-anchor="middle" x="1447" y="-282" font-family="Helvetica,sans-Serif" font-size="10.00">metatable.h</text>
</a>
</g>
</g>
<!-- Node13&#45;&gt;Node32 -->
<g id="edge71" class="edge">
<title>Node13&#45;&gt;Node32</title>
<path fill="none" stroke="#63b8ff" d="M1500.77,-612.76C1564.85,-602.52 1655,-575.65 1655,-505.5 1655,-505.5 1655,-505.5 1655,-448.5 1655,-365.57 1551.31,-318.49 1490.35,-297.98"/>
<polygon fill="#63b8ff" stroke="#63b8ff" points="1491.53,-294.68 1480.94,-294.92 1489.37,-301.34 1491.53,-294.68"/>
</g>
<!-- Node33 -->
<g id="node33" class="node">
<title>Node33</title>
<g id="a_node33"><a xlink:href="functiontable__impl_8h.html" target="_top" xlink:title=" ">
<polygon fill="white" stroke="#666666" points="992.5,-569 889.5,-569 889.5,-550 992.5,-550 992.5,-569"/>
<text text-anchor="middle" x="941" y="-557" font-family="Helvetica,sans-Serif" font-size="10.00">functiontable_impl.h</text>
</a>
</g>
</g>
<!-- Node13&#45;&gt;Node33 -->
<g id="edge37" class="edge">
<title>Node13&#45;&gt;Node33</title>
<path fill="none" stroke="#63b8ff" d="M1375.05,-611.59C1279.67,-600.36 1099.56,-579.16 1004.09,-567.93"/>
<polygon fill="#63b8ff" stroke="#63b8ff" points="1004.73,-564.48 994.39,-566.78 1003.91,-571.43 1004.73,-564.48"/>
</g>
<!-- Node34 -->
<g id="node34" class="node">
<title>Node34</title>
<g id="a_node34"><a xlink:href="valuetype__forward_8h.html" target="_top" xlink:title=" ">
<polygon fill="white" stroke="#666666" points="1329.5,-514 1226.5,-514 1226.5,-495 1329.5,-495 1329.5,-514"/>
<text text-anchor="middle" x="1278" y="-502" font-family="Helvetica,sans-Serif" font-size="10.00">valuetype_forward.h</text>
</a>
</g>
</g>
<!-- Node13&#45;&gt;Node34 -->
<g id="edge72" class="edge">
<title>Node13&#45;&gt;Node34</title>
<path fill="none" stroke="#63b8ff" d="M1397.22,-604.54C1376.5,-596.05 1351.63,-584.03 1332,-569 1315.34,-556.24 1300.22,-537.56 1290.25,-523.76"/>
<polygon fill="#63b8ff" stroke="#63b8ff" points="1293.14,-521.78 1284.55,-515.58 1287.39,-525.78 1293.14,-521.78"/>
</g>
<!-- Node17 -->
<g id="node17" class="node">
<title>Node17</title>
<g id="a_node17"><a xlink:href="valuetype__desc_8h.html" target="_top" xlink:title=" ">
<polygon fill="white" stroke="#666666" points="1395,-294 1303,-294 1303,-275 1395,-275 1395,-294"/>
<text text-anchor="middle" x="1349" y="-282" font-family="Helvetica,sans-Serif" font-size="10.00">valuetype_desc.h</text>
</a>
</g>
</g>
<!-- Node16&#45;&gt;Node17 -->
<g id="edge17" class="edge">
<title>Node16&#45;&gt;Node17</title>
<path fill="none" stroke="#63b8ff" d="M1459.28,-439.54C1443.18,-432 1421.59,-419.91 1407,-404 1392.78,-388.5 1369.1,-334.23 1356.86,-304.81"/>
<polygon fill="#63b8ff" stroke="#63b8ff" points="1360.13,-303.55 1353.09,-295.63 1353.66,-306.21 1360.13,-303.55"/>
</g>
<!-- Node18 -->
<g id="node18" class="node">
<title>Node18</title>
<g id="a_node18"><a xlink:href="valuetype__types_8h.html" target="_top" xlink:title=" ">
<polygon fill="white" stroke="#666666" points="1321,-239 1227,-239 1227,-220 1321,-220 1321,-239"/>
<text text-anchor="middle" x="1274" y="-227" font-family="Helvetica,sans-Serif" font-size="10.00">valuetype_types.h</text>
</a>
</g>
</g>
<!-- Node17&#45;&gt;Node18 -->
<g id="edge18" class="edge">
<title>Node17&#45;&gt;Node18</title>
<path fill="none" stroke="#63b8ff" d="M1336.28,-274.51C1325.22,-266.7 1308.96,-255.21 1295.83,-245.93"/>
<polygon fill="#63b8ff" stroke="#63b8ff" points="1297.96,-243.14 1287.77,-240.23 1293.92,-248.86 1297.96,-243.14"/>
</g>
<!-- Node19 -->
<g id="node19" class="node">
<title>Node19</title>
<g id="a_node19"><a xlink:href="valuetypedefinclude_8h.html" target="_top" xlink:title=" ">
<polygon fill="white" stroke="#666666" points="1287.5,-184 1178.5,-184 1178.5,-165 1287.5,-165 1287.5,-184"/>
<text text-anchor="middle" x="1233" y="-172" font-family="Helvetica,sans-Serif" font-size="10.00">valuetypedefinclude.h</text>
</a>
</g>
</g>
<!-- Node17&#45;&gt;Node19 -->
<g id="edge30" class="edge">
<title>Node17&#45;&gt;Node19</title>
<path fill="none" stroke="#63b8ff" d="M1302.82,-280.93C1273.33,-276.61 1237.16,-265.75 1218,-239 1208.53,-225.78 1214.4,-207.41 1221.39,-193.82"/>
<polygon fill="#63b8ff" stroke="#63b8ff" points="1224.25,-195.87 1226.2,-185.46 1218.18,-192.38 1224.25,-195.87"/>
</g>
<!-- Node21 -->
<g id="node21" class="node">
<title>Node21</title>
<g id="a_node21"><a xlink:href="array_8h.html" target="_top" xlink:title=" ">
<polygon fill="white" stroke="#666666" points="1399.5,-74 1298.5,-74 1298.5,-55 1399.5,-55 1399.5,-74"/>
<text text-anchor="middle" x="1349" y="-62" font-family="Helvetica,sans-Serif" font-size="10.00">Generic/bits/array.h</text>
</a>
</g>
</g>
<!-- Node17&#45;&gt;Node21 -->
<g id="edge21" class="edge">
<title>Node17&#45;&gt;Node21</title>
<path fill="none" stroke="#63b8ff" d="M1349,-274.68C1349,-242.57 1349,-131.33 1349,-85.49"/>
<polygon fill="#63b8ff" stroke="#63b8ff" points="1352.5,-85.7 1349,-75.7 1345.5,-85.7 1352.5,-85.7"/>
</g>
<!-- Node23 -->
<g id="node23" class="node">
<title>Node23</title>
<g id="a_node23"><a xlink:href="keyvalue_8h.html" target="_top" xlink:title=" ">
<polygon fill="white" stroke="#666666" points="1087.5,-239 988.5,-239 988.5,-220 1087.5,-220 1087.5,-239"/>
<text text-anchor="middle" x="1038" y="-227" font-family="Helvetica,sans-Serif" font-size="10.00">Generic/keyvalue.h</text>
</a>
</g>
</g>
<!-- Node17&#45;&gt;Node23 -->
<g id="edge23" class="edge">
<title>Node17&#45;&gt;Node23</title>
<path fill="none" stroke="#63b8ff" d="M1302.78,-275.62C1248.65,-266.4 1158.8,-251.09 1099,-240.9"/>
<polygon fill="#63b8ff" stroke="#63b8ff" points="1099.77,-237.48 1089.32,-239.25 1098.59,-244.38 1099.77,-237.48"/>
</g>
<!-- Node25 -->
<g id="node25" class="node">
<title>Node25</title>
<g id="a_node25"><a xlink:href="table__forward_8h.html" target="_top" xlink:title=" ">
<polygon fill="white" stroke="#666666" points="1460.5,-239 1377.5,-239 1377.5,-220 1460.5,-220 1460.5,-239"/>
<text text-anchor="middle" x="1419" y="-227" font-family="Helvetica,sans-Serif" font-size="10.00">table_forward.h</text>
</a>
</g>
</g>
<!-- Node17&#45;&gt;Node25 -->
<g id="edge25" class="edge">
<title>Node17&#45;&gt;Node25</title>
<path fill="none" stroke="#63b8ff" d="M1360.87,-274.51C1371.09,-266.77 1386.07,-255.43 1398.26,-246.2"/>
<polygon fill="#63b8ff" stroke="#63b8ff" points="1400.23,-249.1 1406.09,-240.27 1396.01,-243.52 1400.23,-249.1"/>
</g>
<!-- Node28 -->
<g id="node28" class="node">
<title>Node28</title>
<g id="a_node28"><a xlink:href="execution_2concepts_8h.html" target="_top" xlink:title=" ">
<polygon fill="white" stroke="#666666" points="1623.5,-239 1478.5,-239 1478.5,-220 1623.5,-220 1623.5,-239"/>
<text text-anchor="middle" x="1551" y="-227" font-family="Helvetica,sans-Serif" font-size="10.00">Generic/execution/concepts.h</text>
</a>
</g>
</g>
<!-- Node17&#45;&gt;Node28 -->
<g id="edge29" class="edge">
<title>Node17&#45;&gt;Node28</title>
<path fill="none" stroke="#63b8ff" d="M1383.27,-274.51C1417.03,-265.65 1468.81,-252.07 1505.9,-242.33"/>
<polygon fill="#63b8ff" stroke="#63b8ff" points="1506.65,-245.75 1515.44,-239.83 1504.88,-238.98 1506.65,-245.75"/>
</g>
<!-- Node18&#45;&gt;Node19 -->
<g id="edge19" class="edge">
<title>Node18&#45;&gt;Node19</title>
<path fill="none" stroke="#63b8ff" d="M1267.23,-219.75C1261.68,-212.58 1253.66,-202.2 1246.77,-193.3"/>
<polygon fill="#63b8ff" stroke="#63b8ff" points="1249.73,-191.41 1240.84,-185.64 1244.19,-195.69 1249.73,-191.41"/>
</g>
<!-- Node20 -->
<g id="node20" class="node">
<title>Node20</title>
<g id="a_node20"><a xlink:href="valuetypedef_8h.html" target="_top" xlink:title=" ">
<polygon fill="white" stroke="#666666" points="1272.5,-129 1193.5,-129 1193.5,-110 1272.5,-110 1272.5,-129"/>
<text text-anchor="middle" x="1233" y="-117" font-family="Helvetica,sans-Serif" font-size="10.00">valuetypedef.h</text>
</a>
</g>
</g>
<!-- Node19&#45;&gt;Node20 -->
<g id="edge20" class="edge">
<title>Node19&#45;&gt;Node20</title>
<path fill="none" stroke="#63b8ff" d="M1233,-164.75C1233,-158.27 1233,-149.16 1233,-140.9"/>
<polygon fill="#63b8ff" stroke="#63b8ff" points="1236.5,-140.96 1233,-130.96 1229.5,-140.96 1236.5,-140.96"/>
</g>
<!-- Node22 -->
<g id="node22" class="node">
<title>Node22</title>
<g id="a_node22"><a xlink:href="types_8h.html" target="_top" xlink:title=" ">
<polygon fill="white" stroke="#666666" points="1372.5,-19 1325.5,-19 1325.5,0 1372.5,0 1372.5,-19"/>
<text text-anchor="middle" x="1349" y="-7" font-family="Helvetica,sans-Serif" font-size="10.00">types.h</text>
</a>
</g>
</g>
<!-- Node21&#45;&gt;Node22 -->
<g id="edge22" class="edge">
<title>Node21&#45;&gt;Node22</title>
<path fill="none" stroke="#63b8ff" d="M1349,-54.75C1349,-48.27 1349,-39.16 1349,-30.9"/>
<polygon fill="#63b8ff" stroke="#63b8ff" points="1352.5,-30.96 1349,-20.96 1345.5,-30.96 1352.5,-30.96"/>
</g>
<!-- Node24 -->
<g id="node24" class="node">
<title>Node24</title>
<g id="a_node24"><a xlink:href="comparator__traits_8h.html" target="_top" xlink:title=" ">
<polygon fill="white" stroke="#666666" points="1088,-184 988,-184 988,-165 1088,-165 1088,-184"/>
<text text-anchor="middle" x="1038" y="-172" font-family="Helvetica,sans-Serif" font-size="10.00">comparator_traits.h</text>
</a>
</g>
</g>
<!-- Node23&#45;&gt;Node24 -->
<g id="edge24" class="edge">
<title>Node23&#45;&gt;Node24</title>
<path fill="none" stroke="#63b8ff" d="M1038,-219.75C1038,-213.27 1038,-204.16 1038,-195.9"/>
<polygon fill="#63b8ff" stroke="#63b8ff" points="1041.5,-195.96 1038,-185.96 1034.5,-195.96 1041.5,-195.96"/>
</g>
<!-- Node26 -->
<g id="node26" class="node">
<title>Node26</title>
<g id="a_node26"><a xlink:href="genericresult_8h.html" target="_top" xlink:title=" ">
<polygon fill="white" stroke="#666666" points="1493,-184 1377,-184 1377,-165 1493,-165 1493,-184"/>
<text text-anchor="middle" x="1435" y="-172" font-family="Helvetica,sans-Serif" font-size="10.00">Generic/genericresult.h</text>
</a>
</g>
</g>
<!-- Node25&#45;&gt;Node26 -->
<g id="edge26" class="edge">
<title>Node25&#45;&gt;Node26</title>
<path fill="none" stroke="#63b8ff" d="M1421.64,-219.75C1423.64,-213.11 1426.48,-203.73 1429.02,-195.31"/>
<polygon fill="#63b8ff" stroke="#63b8ff" points="1432.32,-196.48 1431.86,-185.89 1425.62,-194.45 1432.32,-196.48"/>
</g>
<!-- Node27 -->
<g id="node27" class="node">
<title>Node27</title>
<g id="a_node27"><a xlink:href="enum_8h.html" target="_top" xlink:title=" ">
<polygon fill="white" stroke="#666666" points="1442,-129 1394,-129 1394,-110 1442,-110 1442,-129"/>
<text text-anchor="middle" x="1418" y="-117" font-family="Helvetica,sans-Serif" font-size="10.00">enum.h</text>
</a>
</g>
</g>
<!-- Node26&#45;&gt;Node27 -->
<g id="edge27" class="edge">
<title>Node26&#45;&gt;Node27</title>
<path fill="none" stroke="#63b8ff" d="M1432.19,-164.75C1430.06,-158.11 1427.06,-148.73 1424.36,-140.31"/>
<polygon fill="#63b8ff" stroke="#63b8ff" points="1427.72,-139.34 1421.33,-130.88 1421.05,-141.47 1427.72,-139.34"/>
</g>
<!-- Node27&#45;&gt;Node21 -->
<g id="edge28" class="edge">
<title>Node27&#45;&gt;Node21</title>
<path fill="none" stroke="#63b8ff" d="M1406.3,-109.51C1396.22,-101.77 1381.46,-90.43 1369.44,-81.2"/>
<polygon fill="#63b8ff" stroke="#63b8ff" points="1371.79,-78.6 1361.73,-75.28 1367.53,-84.15 1371.79,-78.6"/>
</g>
<!-- Node30 -->
<g id="node30" class="node">
<title>Node30</title>
<g id="a_node30"><a xlink:href="apifunction_8h.html" target="_top" xlink:title=" ">
<polygon fill="white" stroke="#666666" points="1588.5,-514 1517.5,-514 1517.5,-495 1588.5,-495 1588.5,-514"/>
<text text-anchor="middle" x="1553" y="-502" font-family="Helvetica,sans-Serif" font-size="10.00">apifunction.h</text>
</a>
</g>
</g>
<!-- Node29&#45;&gt;Node30 -->
<g id="edge32" class="edge">
<title>Node29&#45;&gt;Node30</title>
<path fill="none" stroke="#63b8ff" d="M1555.5,-549.75C1555.14,-543.27 1554.62,-534.16 1554.15,-525.9"/>
<polygon fill="#63b8ff" stroke="#63b8ff" points="1557.65,-525.74 1553.59,-515.95 1550.66,-526.13 1557.65,-525.74"/>
</g>
<!-- Node31 -->
<g id="node31" class="node">
<title>Node31</title>
<g id="a_node31"><a xlink:href="scopeptr_8h.html" target="_top" xlink:title=" ">
<polygon fill="white" stroke="#666666" points="1478,-349 1416,-349 1416,-330 1478,-330 1478,-349"/>
<text text-anchor="middle" x="1447" y="-337" font-family="Helvetica,sans-Serif" font-size="10.00">scopeptr.h</text>
</a>
</g>
</g>
<!-- Node29&#45;&gt;Node31 -->
<g id="edge33" class="edge">
<title>Node29&#45;&gt;Node31</title>
<path fill="none" stroke="#63b8ff" d="M1568.61,-549.55C1578.71,-541.54 1592.12,-528.81 1598,-514 1601.12,-506.15 1600.59,-503.04 1598,-495 1579.56,-437.7 1563.01,-426.06 1519,-385 1506.24,-373.1 1489.83,-362.66 1475.9,-354.9"/>
<polygon fill="#63b8ff" stroke="#63b8ff" points="1477.63,-351.85 1467.16,-350.21 1474.32,-358.02 1477.63,-351.85"/>
</g>
<!-- Node31&#45;&gt;Node17 -->
<g id="edge36" class="edge">
<title>Node31&#45;&gt;Node17</title>
<path fill="none" stroke="#63b8ff" d="M1430.38,-329.51C1415.22,-321.31 1392.58,-309.07 1375.03,-299.58"/>
<polygon fill="#63b8ff" stroke="#63b8ff" points="1377.17,-296.76 1366.71,-295.08 1373.84,-302.91 1377.17,-296.76"/>
</g>
<!-- Node31&#45;&gt;Node32 -->
<g id="edge34" class="edge">
<title>Node31&#45;&gt;Node32</title>
<path fill="none" stroke="#63b8ff" d="M1447,-329.75C1447,-323.27 1447,-314.16 1447,-305.9"/>
<polygon fill="#63b8ff" stroke="#63b8ff" points="1450.5,-305.96 1447,-295.96 1443.5,-305.96 1450.5,-305.96"/>
</g>
<!-- Node32&#45;&gt;Node25 -->
<g id="edge35" class="edge">
<title>Node32&#45;&gt;Node25</title>
<path fill="none" stroke="#63b8ff" d="M1442.38,-274.75C1438.75,-267.88 1433.57,-258.08 1429.01,-249.45"/>
<polygon fill="#63b8ff" stroke="#63b8ff" points="1432.2,-247.99 1424.43,-240.78 1426.01,-251.26 1432.2,-247.99"/>
</g>
<!-- Node33&#45;&gt;Node15 -->
<g id="edge38" class="edge">
<title>Node33&#45;&gt;Node15</title>
<path fill="none" stroke="#63b8ff" d="M910.47,-549.51C880.64,-540.73 835.04,-527.3 802.05,-517.59"/>
<polygon fill="#63b8ff" stroke="#63b8ff" points="803.42,-514.34 792.84,-514.87 801.44,-521.06 803.42,-514.34"/>
</g>
<!-- Node33&#45;&gt;Node34 -->
<g id="edge39" class="edge">
<title>Node33&#45;&gt;Node34</title>
<path fill="none" stroke="#63b8ff" d="M992.92,-550.33C1052.66,-540.94 1150.75,-525.51 1214.86,-515.43"/>
<polygon fill="#63b8ff" stroke="#63b8ff" points="1215.19,-518.92 1224.53,-513.91 1214.11,-512.01 1215.19,-518.92"/>
</g>
<!-- Node52 -->
<g id="node52" class="node">
<title>Node52</title>
<g id="a_node52"><a xlink:href="argumentlist_8h.html" target="_top" xlink:title=" ">
<polygon fill="white" stroke="#666666" points="945.5,-514 868.5,-514 868.5,-495 945.5,-495 945.5,-514"/>
<text text-anchor="middle" x="907" y="-502" font-family="Helvetica,sans-Serif" font-size="10.00">argumentlist.h</text>
</a>
</g>
</g>
<!-- Node33&#45;&gt;Node52 -->
<g id="edge66" class="edge">
<title>Node33&#45;&gt;Node52</title>
<path fill="none" stroke="#63b8ff" d="M935.39,-549.75C930.88,-542.73 924.41,-532.64 918.79,-523.87"/>
<polygon fill="#63b8ff" stroke="#63b8ff" points="921.9,-522.24 913.55,-515.72 916.01,-526.02 921.9,-522.24"/>
</g>
<!-- Node53 -->
<g id="node53" class="node">
<title>Node53</title>
<g id="a_node53"><a xlink:href="functionargument_8h.html" target="_top" xlink:title=" ">
<polygon fill="white" stroke="#666666" points="889.5,-459 790.5,-459 790.5,-440 889.5,-440 889.5,-459"/>
<text text-anchor="middle" x="840" y="-447" font-family="Helvetica,sans-Serif" font-size="10.00">functionargument.h</text>
</a>
</g>
</g>
<!-- Node33&#45;&gt;Node53 -->
<g id="edge67" class="edge">
<title>Node33&#45;&gt;Node53</title>
<path fill="none" stroke="#63b8ff" d="M912.99,-549.6C895.16,-542.59 872.89,-531.1 859,-514 848.89,-501.55 844.16,-483.84 841.94,-470.29"/>
<polygon fill="#63b8ff" stroke="#63b8ff" points="845.47,-470.25 840.73,-460.78 838.52,-471.14 845.47,-470.25"/>
</g>
<!-- Node54 -->
<g id="node54" class="node">
<title>Node54</title>
<g id="a_node54"><a xlink:href="functiontable_8h.html" target="_top" xlink:title=" ">
<polygon fill="white" stroke="#666666" points="1267,-349 1187,-349 1187,-330 1267,-330 1267,-349"/>
<text text-anchor="middle" x="1227" y="-337" font-family="Helvetica,sans-Serif" font-size="10.00">functiontable.h</text>
</a>
</g>
</g>
<!-- Node33&#45;&gt;Node54 -->
<g id="edge69" class="edge">
<title>Node33&#45;&gt;Node54</title>
<path fill="none" stroke="#63b8ff" d="M943.91,-549.72C946.79,-540.8 951.15,-526.56 954,-514 966.84,-457.35 934.2,-426.35 975,-385 988.93,-370.88 1106.03,-354.81 1175.6,-346.38"/>
<polygon fill="#63b8ff" stroke="#63b8ff" points="1175.73,-349.89 1185.24,-345.22 1174.9,-342.94 1175.73,-349.89"/>
</g>
<!-- Node34&#45;&gt;Node17 -->
<g id="edge61" class="edge">
<title>Node34&#45;&gt;Node17</title>
<path fill="none" stroke="#63b8ff" d="M1284.06,-494.64C1295.28,-477.8 1319.18,-439.67 1331,-404 1342.05,-370.67 1346.35,-329.79 1348,-305.8"/>
<polygon fill="#63b8ff" stroke="#63b8ff" points="1351.49,-306.06 1348.58,-295.87 1344.51,-305.65 1351.49,-306.06"/>
</g>
<!-- Node34&#45;&gt;Node23 -->
<g id="edge60" class="edge">
<title>Node34&#45;&gt;Node23</title>
<path fill="none" stroke="#63b8ff" d="M1226.25,-498.68C1161.81,-491.97 1056.05,-478.4 1022,-459 948.66,-417.22 936.18,-349.95 975,-275 981.74,-261.99 994.22,-251.98 1006.3,-244.77"/>
<polygon fill="#63b8ff" stroke="#63b8ff" points="1007.78,-247.95 1014.9,-240.1 1004.44,-241.8 1007.78,-247.95"/>
</g>
<!-- Node34&#45;&gt;Node28 -->
<g id="edge65" class="edge">
<title>Node34&#45;&gt;Node28</title>
<path fill="none" stroke="#63b8ff" d="M1329.96,-501.05C1393.66,-496.89 1496.35,-486.08 1522,-459 1576.81,-401.13 1563.85,-294.85 1555.43,-250.63"/>
<polygon fill="#63b8ff" stroke="#63b8ff" points="1558.87,-250.03 1553.44,-240.94 1552.02,-251.44 1558.87,-250.03"/>
</g>
<!-- Node35 -->
<g id="node35" class="node">
<title>Node35</title>
<g id="a_node35"><a xlink:href="ownedscopeptr_8h.html" target="_top" xlink:title=" ">
<polygon fill="white" stroke="#666666" points="1431,-459 1341,-459 1341,-440 1431,-440 1431,-459"/>
<text text-anchor="middle" x="1386" y="-447" font-family="Helvetica,sans-Serif" font-size="10.00">ownedscopeptr.h</text>
</a>
</g>
</g>
<!-- Node34&#45;&gt;Node35 -->
<g id="edge40" class="edge">
<title>Node34&#45;&gt;Node35</title>
<path fill="none" stroke="#63b8ff" d="M1296.32,-494.51C1313.18,-486.24 1338.43,-473.84 1357.85,-464.31"/>
<polygon fill="#63b8ff" stroke="#63b8ff" points="1359.16,-467.57 1366.59,-460.02 1356.07,-461.29 1359.16,-467.57"/>
</g>
<!-- Node37 -->
<g id="node37" class="node">
<title>Node37</title>
<g id="a_node37"><a xlink:href="keyvaluesender_8h.html" target="_top" xlink:title=" ">
<polygon fill="white" stroke="#666666" points="1733,-349 1641,-349 1641,-330 1733,-330 1733,-349"/>
<text text-anchor="middle" x="1687" y="-337" font-family="Helvetica,sans-Serif" font-size="10.00">keyvaluesender.h</text>
</a>
</g>
</g>
<!-- Node34&#45;&gt;Node37 -->
<g id="edge43" class="edge">
<title>Node34&#45;&gt;Node37</title>
<path fill="none" stroke="#63b8ff" d="M1329.84,-503.78C1387.51,-502.18 1482.15,-493.78 1555,-459 1605.74,-434.77 1651.25,-384.83 1673.18,-358.17"/>
<polygon fill="#63b8ff" stroke="#63b8ff" points="1675.67,-360.66 1679.21,-350.68 1670.21,-356.27 1675.67,-360.66"/>
</g>
<!-- Node42 -->
<g id="node42" class="node">
<title>Node42</title>
<g id="a_node42"><a xlink:href="virtualrange_8h.html" target="_top" xlink:title=" ">
<polygon fill="white" stroke="#666666" points="1185,-459 1031,-459 1031,-440 1185,-440 1185,-459"/>
<text text-anchor="middle" x="1108" y="-447" font-family="Helvetica,sans-Serif" font-size="10.00">Generic/container/virtualrange.h</text>
</a>
</g>
</g>
<!-- Node34&#45;&gt;Node42 -->
<g id="edge52" class="edge">
<title>Node34&#45;&gt;Node42</title>
<path fill="none" stroke="#63b8ff" d="M1249.16,-494.51C1221.24,-485.8 1178.67,-472.53 1147.58,-462.84"/>
<polygon fill="#63b8ff" stroke="#63b8ff" points="1148.73,-459.53 1138.14,-459.9 1146.65,-466.21 1148.73,-459.53"/>
</g>
<!-- Node50 -->
<g id="node50" class="node">
<title>Node50</title>
<g id="a_node50"><a xlink:href="enumholder_8h.html" target="_top" xlink:title=" ">
<polygon fill="white" stroke="#666666" points="1285,-459 1203,-459 1203,-440 1285,-440 1285,-459"/>
<text text-anchor="middle" x="1244" y="-447" font-family="Helvetica,sans-Serif" font-size="10.00">../enumholder.h</text>
</a>
</g>
</g>
<!-- Node34&#45;&gt;Node50 -->
<g id="edge62" class="edge">
<title>Node34&#45;&gt;Node50</title>
<path fill="none" stroke="#63b8ff" d="M1272.39,-494.75C1267.88,-487.73 1261.41,-477.64 1255.79,-468.87"/>
<polygon fill="#63b8ff" stroke="#63b8ff" points="1258.9,-467.24 1250.55,-460.72 1253.01,-471.02 1258.9,-467.24"/>
</g>
<!-- Node51 -->
<g id="node51" class="node">
<title>Node51</title>
<g id="a_node51"><a xlink:href="flagsholder_8h.html" target="_top" xlink:title=" ">
<polygon fill="white" stroke="#666666" points="1028,-129 950,-129 950,-110 1028,-110 1028,-129"/>
<text text-anchor="middle" x="989" y="-117" font-family="Helvetica,sans-Serif" font-size="10.00">../flagsholder.h</text>
</a>
</g>
</g>
<!-- Node34&#45;&gt;Node51 -->
<g id="edge63" class="edge">
<title>Node34&#45;&gt;Node51</title>
<path fill="none" stroke="#63b8ff" d="M1226.22,-503.27C1167.19,-501.28 1068.91,-492.56 992,-459 914.13,-425.02 842,-425.46 842,-340.5 842,-340.5 842,-340.5 842,-228.5 842,-177.52 900.13,-147.95 943.28,-133.02"/>
<polygon fill="#63b8ff" stroke="#63b8ff" points="944.31,-136.37 952.72,-129.92 942.13,-129.71 944.31,-136.37"/>
</g>
<!-- Node36 -->
<g id="node36" class="node">
<title>Node36</title>
<g id="a_node36"><a xlink:href="proxyscopebase_8h.html" target="_top" xlink:title=" ">
<polygon fill="white" stroke="#666666" points="1510,-404 1416,-404 1416,-385 1510,-385 1510,-404"/>
<text text-anchor="middle" x="1463" y="-392" font-family="Helvetica,sans-Serif" font-size="10.00">proxyscopebase.h</text>
</a>
</g>
</g>
<!-- Node35&#45;&gt;Node36 -->
<g id="edge41" class="edge">
<title>Node35&#45;&gt;Node36</title>
<path fill="none" stroke="#63b8ff" d="M1399.06,-439.51C1410.52,-431.62 1427.43,-419.98 1440.98,-410.65"/>
<polygon fill="#63b8ff" stroke="#63b8ff" points="1442.63,-413.77 1448.88,-405.22 1438.66,-408 1442.63,-413.77"/>
</g>
<!-- Node36&#45;&gt;Node31 -->
<g id="edge42" class="edge">
<title>Node36&#45;&gt;Node31</title>
<path fill="none" stroke="#63b8ff" d="M1460.36,-384.75C1458.36,-378.11 1455.52,-368.73 1452.98,-360.31"/>
<polygon fill="#63b8ff" stroke="#63b8ff" points="1456.38,-359.45 1450.14,-350.89 1449.68,-361.48 1456.38,-359.45"/>
</g>
<!-- Node37&#45;&gt;Node26 -->
<g id="edge51" class="edge">
<title>Node37&#45;&gt;Node26</title>
<path fill="none" stroke="#63b8ff" d="M1722.93,-329.57C1741.32,-322.98 1762.08,-311.95 1773,-294 1781,-280.85 1793.68,-244.28 1772,-220 1754.5,-200.4 1598.29,-186.54 1504.81,-179.91"/>
<polygon fill="#63b8ff" stroke="#63b8ff" points="1505.18,-176.43 1494.96,-179.23 1504.69,-183.41 1505.18,-176.43"/>
</g>
<!-- Node37&#45;&gt;Node28 -->
<g id="edge46" class="edge">
<title>Node37&#45;&gt;Node28</title>
<path fill="none" stroke="#63b8ff" d="M1664.18,-329.63C1646.13,-321.92 1620.91,-309.55 1602,-294 1586.16,-280.97 1571.9,-262.33 1562.51,-248.61"/>
<polygon fill="#63b8ff" stroke="#63b8ff" points="1565.6,-246.93 1557.17,-240.52 1559.76,-250.79 1565.6,-246.93"/>
</g>
<!-- Node38 -->
<g id="node38" class="node">
<title>Node38</title>
<g id="a_node38"><a xlink:href="delayedconstruct_8h.html" target="_top" xlink:title=" ">
<polygon fill="white" stroke="#666666" points="1954,-294 1820,-294 1820,-275 1954,-275 1954,-294"/>
<text text-anchor="middle" x="1887" y="-282" font-family="Helvetica,sans-Serif" font-size="10.00">Generic/delayedconstruct.h</text>
</a>
</g>
</g>
<!-- Node37&#45;&gt;Node38 -->
<g id="edge44" class="edge">
<title>Node37&#45;&gt;Node38</title>
<path fill="none" stroke="#63b8ff" d="M1720.93,-329.51C1754.36,-320.65 1805.62,-307.07 1842.35,-297.33"/>
<polygon fill="#63b8ff" stroke="#63b8ff" points="1843.01,-300.78 1851.78,-294.83 1841.21,-294.01 1843.01,-300.78"/>
</g>
<!-- Node39 -->
<g id="node39" class="node">
<title>Node39</title>
<g id="a_node39"><a xlink:href="virtualstate_8h.html" target="_top" xlink:title=" ">
<polygon fill="white" stroke="#666666" points="1763.5,-294 1610.5,-294 1610.5,-275 1763.5,-275 1763.5,-294"/>
<text text-anchor="middle" x="1687" y="-282" font-family="Helvetica,sans-Serif" font-size="10.00">Generic/execution/virtualstate.h</text>
</a>
</g>
</g>
<!-- Node37&#45;&gt;Node39 -->
<g id="edge47" class="edge">
<title>Node37&#45;&gt;Node39</title>
<path fill="none" stroke="#63b8ff" d="M1687,-329.75C1687,-323.27 1687,-314.16 1687,-305.9"/>
<polygon fill="#63b8ff" stroke="#63b8ff" points="1690.5,-305.96 1687,-295.96 1683.5,-305.96 1690.5,-305.96"/>
</g>
<!-- Node38&#45;&gt;Node12 -->
<g id="edge45" class="edge">
<title>Node38&#45;&gt;Node12</title>
<path fill="none" stroke="#63b8ff" d="M1894.76,-274.75C1901.19,-267.5 1910.51,-256.98 1918.46,-248.02"/>
<polygon fill="#63b8ff" stroke="#63b8ff" points="1921.05,-250.38 1925.07,-240.57 1915.81,-245.73 1921.05,-250.38"/>
</g>
<!-- Node39&#45;&gt;Node28 -->
<g id="edge48" class="edge">
<title>Node39&#45;&gt;Node28</title>
<path fill="none" stroke="#63b8ff" d="M1663.93,-274.51C1642.11,-266.01 1609.12,-253.15 1584.42,-243.53"/>
<polygon fill="#63b8ff" stroke="#63b8ff" points="1585.73,-240.28 1575.14,-239.91 1583.19,-246.8 1585.73,-240.28"/>
</g>
<!-- Node40 -->
<g id="node40" class="node">
<title>Node40</title>
<g id="a_node40"><a xlink:href="virtual__invoke_8h.html" target="_top" xlink:title=" ">
<polygon fill="white" stroke="#666666" points="1762.5,-239 1641.5,-239 1641.5,-220 1762.5,-220 1762.5,-239"/>
<text text-anchor="middle" x="1702" y="-227" font-family="Helvetica,sans-Serif" font-size="10.00">Generic/virtual_invoke.h</text>
</a>
</g>
</g>
<!-- Node39&#45;&gt;Node40 -->
<g id="edge49" class="edge">
<title>Node39&#45;&gt;Node40</title>
<path fill="none" stroke="#63b8ff" d="M1689.48,-274.75C1691.35,-268.11 1694.01,-258.73 1696.39,-250.31"/>
<polygon fill="#63b8ff" stroke="#63b8ff" points="1699.7,-251.47 1699.06,-240.9 1692.97,-249.57 1699.7,-251.47"/>
</g>
<!-- Node41 -->
<g id="node41" class="node">
<title>Node41</title>
<g id="a_node41"><a xlink:href="callable__traits_8h.html" target="_top" xlink:title=" ">
<polygon fill="white" stroke="#666666" points="1744,-184 1660,-184 1660,-165 1744,-165 1744,-184"/>
<text text-anchor="middle" x="1702" y="-172" font-family="Helvetica,sans-Serif" font-size="10.00">callable_traits.h</text>
</a>
</g>
</g>
<!-- Node40&#45;&gt;Node41 -->
<g id="edge50" class="edge">
<title>Node40&#45;&gt;Node41</title>
<path fill="none" stroke="#63b8ff" d="M1702,-219.75C1702,-213.27 1702,-204.16 1702,-195.9"/>
<polygon fill="#63b8ff" stroke="#63b8ff" points="1705.5,-195.96 1702,-185.96 1698.5,-195.96 1705.5,-195.96"/>
</g>
<!-- Node43 -->
<g id="node43" class="node">
<title>Node43</title>
<g id="a_node43"><a xlink:href="proxy_8h.html" target="_top" xlink:title=" ">
<polygon fill="white" stroke="#666666" points="1322,-404 1268,-404 1268,-385 1322,-385 1322,-404"/>
<text text-anchor="middle" x="1295" y="-392" font-family="Helvetica,sans-Serif" font-size="10.00">../proxy.h</text>
</a>
</g>
</g>
<!-- Node42&#45;&gt;Node43 -->
<g id="edge53" class="edge">
<title>Node42&#45;&gt;Node43</title>
<path fill="none" stroke="#63b8ff" d="M1139.72,-439.51C1172.02,-430.36 1222.12,-416.16 1256.63,-406.37"/>
<polygon fill="#63b8ff" stroke="#63b8ff" points="1257.57,-409.75 1266.24,-403.65 1255.66,-403.01 1257.57,-409.75"/>
</g>
<!-- Node44 -->
<g id="node44" class="node">
<title>Node44</title>
<g id="a_node44"><a xlink:href="defaultassign_8h.html" target="_top" xlink:title=" ">
<polygon fill="white" stroke="#666666" points="1152.5,-404 1063.5,-404 1063.5,-385 1152.5,-385 1152.5,-404"/>
<text text-anchor="middle" x="1108" y="-392" font-family="Helvetica,sans-Serif" font-size="10.00">../defaultassign.h</text>
</a>
</g>
</g>
<!-- Node42&#45;&gt;Node44 -->
<g id="edge54" class="edge">
<title>Node42&#45;&gt;Node44</title>
<path fill="none" stroke="#63b8ff" d="M1108,-439.75C1108,-433.27 1108,-424.16 1108,-415.9"/>
<polygon fill="#63b8ff" stroke="#63b8ff" points="1111.5,-415.96 1108,-405.96 1104.5,-415.96 1111.5,-415.96"/>
</g>
<!-- Node45 -->
<g id="node45" class="node">
<title>Node45</title>
<g id="a_node45"><a xlink:href="heapobject_8h.html" target="_top" xlink:title=" ">
<polygon fill="white" stroke="#666666" points="1249.5,-404 1170.5,-404 1170.5,-385 1249.5,-385 1249.5,-404"/>
<text text-anchor="middle" x="1210" y="-392" font-family="Helvetica,sans-Serif" font-size="10.00">../heapobject.h</text>
</a>
</g>
</g>
<!-- Node42&#45;&gt;Node45 -->
<g id="edge55" class="edge">
<title>Node42&#45;&gt;Node45</title>
<path fill="none" stroke="#63b8ff" d="M1125.3,-439.51C1141.08,-431.31 1164.64,-419.07 1182.91,-409.58"/>
<polygon fill="#63b8ff" stroke="#63b8ff" points="1184.35,-412.77 1191.61,-405.06 1181.12,-406.56 1184.35,-412.77"/>
</g>
<!-- Node46 -->
<g id="node46" class="node">
<title>Node46</title>
<g id="a_node46"><a xlink:href="emplace_8h.html" target="_top" xlink:title=" ">
<polygon fill="white" stroke="#666666" points="1045.5,-404 984.5,-404 984.5,-385 1045.5,-385 1045.5,-404"/>
<text text-anchor="middle" x="1015" y="-392" font-family="Helvetica,sans-Serif" font-size="10.00">emplace.h</text>
</a>
</g>
</g>
<!-- Node42&#45;&gt;Node46 -->
<g id="edge56" class="edge">
<title>Node42&#45;&gt;Node46</title>
<path fill="none" stroke="#63b8ff" d="M1092.22,-439.51C1077.98,-431.39 1056.76,-419.3 1040.17,-409.85"/>
<polygon fill="#63b8ff" stroke="#63b8ff" points="1042.28,-407.02 1031.86,-405.11 1038.81,-413.1 1042.28,-407.02"/>
</g>
<!-- Node47 -->
<g id="node47" class="node">
<title>Node47</title>
<g id="a_node47"><a xlink:href="container__traits_8h.html" target="_top" xlink:title=" ">
<polygon fill="white" stroke="#666666" points="1075.5,-349 984.5,-349 984.5,-330 1075.5,-330 1075.5,-349"/>
<text text-anchor="middle" x="1030" y="-337" font-family="Helvetica,sans-Serif" font-size="10.00">container_traits.h</text>
</a>
</g>
</g>
<!-- Node46&#45;&gt;Node47 -->
<g id="edge57" class="edge">
<title>Node46&#45;&gt;Node47</title>
<path fill="none" stroke="#63b8ff" d="M1017.48,-384.75C1019.35,-378.11 1022.01,-368.73 1024.39,-360.31"/>
<polygon fill="#63b8ff" stroke="#63b8ff" points="1027.7,-361.47 1027.06,-350.9 1020.97,-359.57 1027.7,-361.47"/>
</g>
<!-- Node48 -->
<g id="node48" class="node">
<title>Node48</title>
<g id="a_node48"><a xlink:href="indextype_8h.html" target="_top" xlink:title=" ">
<polygon fill="white" stroke="#666666" points="1188,-294 1116,-294 1116,-275 1188,-275 1188,-294"/>
<text text-anchor="middle" x="1152" y="-282" font-family="Helvetica,sans-Serif" font-size="10.00">../indextype.h</text>
</a>
</g>
</g>
<!-- Node47&#45;&gt;Node48 -->
<g id="edge58" class="edge">
<title>Node47&#45;&gt;Node48</title>
<path fill="none" stroke="#63b8ff" d="M1050.7,-329.51C1070,-321.12 1099.06,-308.5 1121.11,-298.92"/>
<polygon fill="#63b8ff" stroke="#63b8ff" points="1122.44,-302.16 1130.22,-294.96 1119.66,-295.74 1122.44,-302.16"/>
</g>
<!-- Node49 -->
<g id="node49" class="node">
<title>Node49</title>
<g id="a_node49"><a xlink:href="underlying__container_8h.html" target="_top" xlink:title=" ">
<polygon fill="white" stroke="#666666" points="1097.5,-294 984.5,-294 984.5,-275 1097.5,-275 1097.5,-294"/>
<text text-anchor="middle" x="1041" y="-282" font-family="Helvetica,sans-Serif" font-size="10.00">underlying_container.h</text>
</a>
</g>
</g>
<!-- Node47&#45;&gt;Node49 -->
<g id="edge59" class="edge">
<title>Node47&#45;&gt;Node49</title>
<path fill="none" stroke="#63b8ff" d="M1031.82,-329.75C1033.18,-323.19 1035.1,-313.95 1036.83,-305.6"/>
<polygon fill="#63b8ff" stroke="#63b8ff" points="1040.23,-306.43 1038.84,-295.92 1033.38,-305 1040.23,-306.43"/>
</g>
<!-- Node51&#45;&gt;Node21 -->
<g id="edge64" class="edge">
<title>Node51&#45;&gt;Node21</title>
<path fill="none" stroke="#63b8ff" d="M1028.21,-112.73C1090.53,-103.55 1212.69,-85.57 1286.97,-74.63"/>
<polygon fill="#63b8ff" stroke="#63b8ff" points="1287.13,-78.15 1296.52,-73.23 1286.11,-71.22 1287.13,-78.15"/>
</g>
<!-- Node53&#45;&gt;Node17 -->
<g id="edge68" class="edge">
<title>Node53&#45;&gt;Node17</title>
<path fill="none" stroke="#63b8ff" d="M845.98,-439.92C856.16,-426.01 878.3,-398.69 904,-385 976.01,-346.64 1004.32,-366.51 1084,-349 1160.84,-332.12 1249.68,-310.37 1302.5,-297.21"/>
<polygon fill="#63b8ff" stroke="#63b8ff" points="1303.2,-300.64 1312.05,-294.82 1301.5,-293.85 1303.2,-300.64"/>
</g>
<!-- Node54&#45;&gt;Node17 -->
<g id="edge70" class="edge">
<title>Node54&#45;&gt;Node17</title>
<path fill="none" stroke="#63b8ff" d="M1247.7,-329.51C1267,-321.12 1296.06,-308.5 1318.11,-298.92"/>
<polygon fill="#63b8ff" stroke="#63b8ff" points="1319.44,-302.16 1327.22,-294.96 1316.66,-295.74 1319.44,-302.16"/>
</g>
</g>
</svg>
