<?xml version="1.0" encoding="UTF-8" standalone="no"?>
<!DOCTYPE svg PUBLIC "-//W3C//DTD SVG 1.1//EN"
 "http://www.w3.org/Graphics/SVG/1.1/DTD/svg11.dtd">
<!-- Generated by graphviz version 7.0.5 (20221223.1930)
 -->
<!-- Title: plugins/behavior/python3/src/Python3/python3lib.h Pages: 1 -->
<svg width="696pt" height="148pt"
 viewBox="0.00 0.00 696.00 148.00" xmlns="http://www.w3.org/2000/svg" xmlns:xlink="http://www.w3.org/1999/xlink">
<g id="graph0" class="graph" transform="scale(1 1) rotate(0) translate(4 144)">
<title>plugins/behavior/python3/src/Python3/python3lib.h</title>
<!-- Node1 -->
<g id="node1" class="node">
<title>Node1</title>
<g id="a_node1"><a xlink:title=" ">
<polygon fill="#999999" stroke="#666666" points="407.5,-140 282.5,-140 282.5,-110 407.5,-110 407.5,-140"/>
<text text-anchor="start" x="290.5" y="-128" font-family="Helvetica,sans-Serif" font-size="10.00">plugins/behavior/python3</text>
<text text-anchor="middle" x="345" y="-117" font-family="Helvetica,sans-Serif" font-size="10.00">/src/Python3/python3lib.h</text>
</a>
</g>
</g>
<!-- Node2 -->
<g id="node2" class="node">
<title>Node2</title>
<g id="a_node2"><a xlink:href="resourceslib_8h.html" target="_top" xlink:title=" ">
<polygon fill="white" stroke="#666666" points="116,-74 0,-74 0,-55 116,-55 116,-74"/>
<text text-anchor="middle" x="58" y="-62" font-family="Helvetica,sans-Serif" font-size="10.00">Madgine/resourceslib.h</text>
</a>
</g>
</g>
<!-- Node1&#45;&gt;Node2 -->
<g id="edge1" class="edge">
<title>Node1&#45;&gt;Node2</title>
<path fill="none" stroke="#63b8ff" d="M282.02,-111.16C231.61,-100.89 161.59,-86.62 113.32,-76.78"/>
<polygon fill="#63b8ff" stroke="#63b8ff" points="114.13,-73.37 103.64,-74.8 112.74,-80.23 114.13,-73.37"/>
</g>
<!-- Node3 -->
<g id="node3" class="node">
<title>Node3</title>
<g id="a_node3"><a xlink:href="rootlib_8h.html" target="_top" xlink:title=" ">
<polygon fill="white" stroke="#666666" points="189,-19 99,-19 99,0 189,0 189,-19"/>
<text text-anchor="middle" x="144" y="-7" font-family="Helvetica,sans-Serif" font-size="10.00">Madgine/rootlib.h</text>
</a>
</g>
</g>
<!-- Node1&#45;&gt;Node3 -->
<g id="edge2" class="edge">
<title>Node1&#45;&gt;Node3</title>
<path fill="none" stroke="#63b8ff" d="M282.22,-121.72C243.15,-117.05 194.51,-104.81 163,-74 151.41,-62.67 146.82,-44.58 145.04,-30.6"/>
<polygon fill="#63b8ff" stroke="#63b8ff" points="148.53,-30.41 144.2,-20.74 141.56,-31 148.53,-30.41"/>
</g>
<!-- Node4 -->
<g id="node4" class="node">
<title>Node4</title>
<g id="a_node4"><a xlink:href="debuglib_8h.html" target="_top" xlink:title=" ">
<polygon fill="white" stroke="#666666" points="272,-74 172,-74 172,-55 272,-55 272,-74"/>
<text text-anchor="middle" x="222" y="-62" font-family="Helvetica,sans-Serif" font-size="10.00">Madgine/debuglib.h</text>
</a>
</g>
</g>
<!-- Node1&#45;&gt;Node4 -->
<g id="edge3" class="edge">
<title>Node1&#45;&gt;Node4</title>
<path fill="none" stroke="#63b8ff" d="M314.6,-109.54C295.12,-100.28 269.99,-88.33 250.83,-79.21"/>
<polygon fill="#63b8ff" stroke="#63b8ff" points="252.5,-76.13 241.97,-75 249.49,-82.45 252.5,-76.13"/>
</g>
<!-- Node6 -->
<g id="node6" class="node">
<title>Node6</title>
<g id="a_node6"><a xlink:href="behaviorlib_8h.html" target="_top" xlink:title=" ">
<polygon fill="white" stroke="#666666" points="400,-74 290,-74 290,-55 400,-55 400,-74"/>
<text text-anchor="middle" x="345" y="-62" font-family="Helvetica,sans-Serif" font-size="10.00">Madgine/behaviorlib.h</text>
</a>
</g>
</g>
<!-- Node1&#45;&gt;Node6 -->
<g id="edge6" class="edge">
<title>Node1&#45;&gt;Node6</title>
<path fill="none" stroke="#63b8ff" d="M345,-109.54C345,-102.34 345,-93.53 345,-85.68"/>
<polygon fill="#63b8ff" stroke="#63b8ff" points="348.5,-85.69 345,-75.69 341.5,-85.69 348.5,-85.69"/>
</g>
<!-- Node7 -->
<g id="node7" class="node">
<title>Node7</title>
<g id="a_node7"><a xlink:title=" ">
<polygon fill="#e0e0e0" stroke="#999999" points="472,-74 418,-74 418,-55 472,-55 472,-74"/>
<text text-anchor="middle" x="445" y="-62" font-family="Helvetica,sans-Serif" font-size="10.00">Python.h</text>
</a>
</g>
</g>
<!-- Node1&#45;&gt;Node7 -->
<g id="edge7" class="edge">
<title>Node1&#45;&gt;Node7</title>
<path fill="none" stroke="#63b8ff" d="M369.72,-109.54C385.04,-100.58 404.66,-89.1 420.02,-80.11"/>
<polygon fill="#63b8ff" stroke="#63b8ff" points="421.71,-83.18 428.57,-75.11 418.17,-77.14 421.71,-83.18"/>
</g>
<!-- Node8 -->
<g id="node8" class="node">
<title>Node8</title>
<g id="a_node8"><a xlink:href="python3compat_8h.html" target="_top" xlink:title=" ">
<polygon fill="white" stroke="#666666" points="580,-74 490,-74 490,-55 580,-55 580,-74"/>
<text text-anchor="middle" x="535" y="-62" font-family="Helvetica,sans-Serif" font-size="10.00">python3compat.h</text>
</a>
</g>
</g>
<!-- Node1&#45;&gt;Node8 -->
<g id="edge8" class="edge">
<title>Node1&#45;&gt;Node8</title>
<path fill="none" stroke="#63b8ff" d="M391.97,-109.54C423.64,-99.79 464.97,-87.06 495.05,-77.8"/>
<polygon fill="#63b8ff" stroke="#63b8ff" points="496.02,-81.17 504.54,-74.88 493.96,-74.48 496.02,-81.17"/>
</g>
<!-- Node9 -->
<g id="node9" class="node">
<title>Node9</title>
<g id="a_node9"><a xlink:href="python3forward_8h.html" target="_top" xlink:title=" ">
<polygon fill="white" stroke="#666666" points="688,-74 598,-74 598,-55 688,-55 688,-74"/>
<text text-anchor="middle" x="643" y="-62" font-family="Helvetica,sans-Serif" font-size="10.00">python3forward.h</text>
</a>
</g>
</g>
<!-- Node1&#45;&gt;Node9 -->
<g id="edge9" class="edge">
<title>Node1&#45;&gt;Node9</title>
<path fill="none" stroke="#63b8ff" d="M407.83,-111.67C460.7,-101.29 535.61,-86.58 586.58,-76.57"/>
<polygon fill="#63b8ff" stroke="#63b8ff" points="587.09,-80.04 596.23,-74.68 585.75,-73.17 587.09,-80.04"/>
</g>
<!-- Node4&#45;&gt;Node3 -->
<g id="edge4" class="edge">
<title>Node4&#45;&gt;Node3</title>
<path fill="none" stroke="#63b8ff" d="M208.77,-54.51C197.16,-46.62 180.03,-34.98 166.3,-25.65"/>
<polygon fill="#63b8ff" stroke="#63b8ff" points="168.53,-22.93 158.29,-20.21 164.59,-28.72 168.53,-22.93"/>
</g>
<!-- Node5 -->
<g id="node5" class="node">
<title>Node5</title>
<g id="a_node5"><a xlink:href="debugforward_8h.html" target="_top" xlink:title=" ">
<polygon fill="white" stroke="#666666" points="290.5,-19 207.5,-19 207.5,0 290.5,0 290.5,-19"/>
<text text-anchor="middle" x="249" y="-7" font-family="Helvetica,sans-Serif" font-size="10.00">debugforward.h</text>
</a>
</g>
</g>
<!-- Node4&#45;&gt;Node5 -->
<g id="edge5" class="edge">
<title>Node4&#45;&gt;Node5</title>
<path fill="none" stroke="#63b8ff" d="M226.46,-54.75C229.95,-47.88 234.95,-38.08 239.35,-29.45"/>
<polygon fill="#63b8ff" stroke="#63b8ff" points="242.34,-31.29 243.76,-20.79 236.1,-28.11 242.34,-31.29"/>
</g>
</g>
</svg>
