<?xml version="1.0" encoding="UTF-8" standalone="no"?>
<!DOCTYPE svg PUBLIC "-//W3C//DTD SVG 1.1//EN"
 "http://www.w3.org/Graphics/SVG/1.1/DTD/svg11.dtd">
<!-- Generated by graphviz version 7.0.5 (20221223.1930)
 -->
<!-- Title: plugins/behavior/python3/src/Python3/python3fileloader.h Pages: 1 -->
<svg width="332pt" height="104pt"
 viewBox="0.00 0.00 332.00 104.00" xmlns="http://www.w3.org/2000/svg" xmlns:xlink="http://www.w3.org/1999/xlink">
<g id="graph0" class="graph" transform="scale(1 1) rotate(0) translate(4 100)">
<title>plugins/behavior/python3/src/Python3/python3fileloader.h</title>
<!-- Node1 -->
<g id="node1" class="node">
<title>Node1</title>
<g id="a_node1"><a xlink:title=" ">
<polygon fill="#999999" stroke="#666666" points="233,-96 79,-96 79,-66 233,-66 233,-96"/>
<text text-anchor="start" x="87" y="-84" font-family="Helvetica,sans-Serif" font-size="10.00">plugins/behavior/python3</text>
<text text-anchor="middle" x="156" y="-73" font-family="Helvetica,sans-Serif" font-size="10.00">/src/Python3/python3fileloader.h</text>
</a>
</g>
</g>
<!-- Node2 -->
<g id="node2" class="node">
<title>Node2</title>
<g id="a_node2"><a xlink:href="python3env_8cpp.html" target="_top" xlink:title=" ">
<polygon fill="white" stroke="#666666" points="142,-30 0,-30 0,0 142,0 142,-30"/>
<text text-anchor="start" x="8" y="-18" font-family="Helvetica,sans-Serif" font-size="10.00">plugins/behavior/python3</text>
<text text-anchor="middle" x="71" y="-7" font-family="Helvetica,sans-Serif" font-size="10.00">/src/Python3/python3env.cpp</text>
</a>
</g>
</g>
<!-- Node1&#45;&gt;Node2 -->
<g id="edge1" class="edge">
<title>Node1&#45;&gt;Node2</title>
<path fill="none" stroke="#63b8ff" d="M128.08,-58.97C115.63,-49.61 101.3,-38.81 90.11,-30.39"/>
<polygon fill="#63b8ff" stroke="#63b8ff" points="125.83,-61.67 135.93,-64.89 130.04,-56.07 125.83,-61.67"/>
</g>
<!-- Node3 -->
<g id="node3" class="node">
<title>Node3</title>
<g id="a_node3"><a xlink:href="python3fileloader_8cpp.html" target="_top" xlink:title=" ">
<polygon fill="white" stroke="#666666" points="324,-30 160,-30 160,0 324,0 324,-30"/>
<text text-anchor="start" x="168" y="-18" font-family="Helvetica,sans-Serif" font-size="10.00">plugins/behavior/python3</text>
<text text-anchor="middle" x="242" y="-7" font-family="Helvetica,sans-Serif" font-size="10.00">/src/Python3/python3fileloader.cpp</text>
</a>
</g>
</g>
<!-- Node1&#45;&gt;Node3 -->
<g id="edge2" class="edge">
<title>Node1&#45;&gt;Node3</title>
<path fill="none" stroke="#63b8ff" d="M184.25,-58.97C196.84,-49.61 211.35,-38.81 222.67,-30.39"/>
<polygon fill="#63b8ff" stroke="#63b8ff" points="182.23,-56.11 176.3,-64.89 186.41,-61.73 182.23,-56.11"/>
</g>
</g>
</svg>
