<?xml version="1.0" encoding="UTF-8" standalone="no"?>
<!DOCTYPE svg PUBLIC "-//W3C//DTD SVG 1.1//EN"
 "http://www.w3.org/Graphics/SVG/1.1/DTD/svg11.dtd">
<!-- Generated by graphviz version 7.0.5 (20221223.1930)
 -->
<!-- Title: plugins/behavior/python3/src/Python3/util/math/pyvector3.cpp Pages: 1 -->
<!--zoomable 269 -->
<svg id="main" version="1.1" xmlns="http://www.w3.org/2000/svg" xmlns:xlink="http://www.w3.org/1999/xlink" xml:space="preserve" onload="init(evt)">
<style type="text/css"><![CDATA[
.edge:hover path { stroke: red; }
.edge:hover polygon { stroke: red; fill: red; }
]]></style>
<script type="text/javascript"><![CDATA[
var edges = document.getElementsByTagName('g');
if (edges && edges.length) {
  for (var i=0;i<edges.length;i++) {
    if (edges[i].id.substr(0,4)=='edge') {
      edges[i].setAttribute('class','edge');
    }
  }
}
]]></script>
        <defs>
                <circle id="rim" cx="0" cy="0" r="7"/>
                <circle id="rim2" cx="0" cy="0" r="3.5"/>
                <g id="zoomPlus">
                        <use xlink:href="#rim" fill="#404040">
                                <set attributeName="fill" to="#808080" begin="zoomplus.mouseover" end="zoomplus.mouseout"/>
                        </use>
                        <path d="M-4,0h8M0,-4v8" fill="none" stroke="white" stroke-width="1.5" pointer-events="none"/>
                </g>
                <g id="zoomMin">
                        <use xlink:href="#rim" fill="#404040">
                                <set attributeName="fill" to="#808080" begin="zoomminus.mouseover" end="zoomminus.mouseout"/>
                        </use>
                        <path d="M-4,0h8" fill="none" stroke="white" stroke-width="1.5" pointer-events="none"/>
                </g>
                <g id="dirArrow">
                        <path fill="none" stroke="white" stroke-width="1.5" d="M0,-3.0v7 M-2.5,-0.5L0,-3.0L2.5,-0.5"/>
                </g>
               <g id="resetDef">
                       <use xlink:href="#rim2" fill="#404040">
                               <set attributeName="fill" to="#808080" begin="reset.mouseover" end="reset.mouseout"/>
                       </use>
               </g>
        </defs>

<script type="text/javascript">
var viewWidth = 873;
var viewHeight = 269;
var sectionId = 'dynsection-0';
</script>
<script xlink:href="svgpan.js"/>
<svg id="graph" class="graph">
<g id="viewport">
<title>plugins/behavior/python3/src/Python3/util/math/pyvector3.cpp</title>
<!-- Node1 -->
<g id="node1" class="node">
<title>Node1</title>
<g id="a_node1"><a xlink:title=" ">
<polygon fill="#999999" stroke="#666666" points="685,-261 561,-261 561,-220 685,-220 685,-261"/>
<text text-anchor="start" x="569" y="-249" font-family="Helvetica,sans-Serif" font-size="10.00">plugins/behavior/python3</text>
<text text-anchor="start" x="569" y="-238" font-family="Helvetica,sans-Serif" font-size="10.00">/src/Python3/util/math</text>
<text text-anchor="middle" x="623" y="-227" font-family="Helvetica,sans-Serif" font-size="10.00">/pyvector3.cpp</text>
</a>
</g>
</g>
<!-- Node2 -->
<g id="node2" class="node">
<title>Node2</title>
<g id="a_node2"><a xlink:href="python3lib_8h.html" target="_top" xlink:title=" ">
<polygon fill="white" stroke="#666666" points="436.5,-184 353.5,-184 353.5,-165 436.5,-165 436.5,-184"/>
<text text-anchor="middle" x="395" y="-172" font-family="Helvetica,sans-Serif" font-size="10.00">../../python3lib.h</text>
</a>
</g>
</g>
<!-- Node1&#45;&gt;Node2 -->
<g id="edge1" class="edge">
<title>Node1&#45;&gt;Node2</title>
<path fill="none" stroke="#63b8ff" d="M560.7,-222.01C521.56,-211.02 472.1,-197.14 437.45,-187.41"/>
<polygon fill="#63b8ff" stroke="#63b8ff" points="438.78,-184.15 428.2,-184.82 436.89,-190.89 438.78,-184.15"/>
</g>
<!-- Node11 -->
<g id="node11" class="node">
<title>Node11</title>
<g id="a_node11"><a xlink:href="pyvector3_8h.html" target="_top" xlink:title=" ">
<polygon fill="white" stroke="#666666" points="656,-184 590,-184 590,-165 656,-165 656,-184"/>
<text text-anchor="middle" x="623" y="-172" font-family="Helvetica,sans-Serif" font-size="10.00">pyvector3.h</text>
</a>
</g>
</g>
<!-- Node1&#45;&gt;Node11 -->
<g id="edge11" class="edge">
<title>Node1&#45;&gt;Node11</title>
<path fill="none" stroke="#63b8ff" d="M623,-219.6C623,-211.98 623,-203.3 623,-195.66"/>
<polygon fill="#63b8ff" stroke="#63b8ff" points="626.5,-195.68 623,-185.68 619.5,-195.68 626.5,-195.68"/>
</g>
<!-- Node17 -->
<g id="node17" class="node">
<title>Node17</title>
<g id="a_node17"><a xlink:href="pyobjectutil_8h.html" target="_top" xlink:title=" ">
<polygon fill="white" stroke="#666666" points="754,-184 674,-184 674,-165 754,-165 754,-184"/>
<text text-anchor="middle" x="714" y="-172" font-family="Helvetica,sans-Serif" font-size="10.00">../pyobjectutil.h</text>
</a>
</g>
</g>
<!-- Node1&#45;&gt;Node17 -->
<g id="edge19" class="edge">
<title>Node1&#45;&gt;Node17</title>
<path fill="none" stroke="#63b8ff" d="M651.29,-219.6C664.63,-210.22 680.29,-199.21 692.61,-190.54"/>
<polygon fill="#63b8ff" stroke="#63b8ff" points="694.28,-193.65 700.44,-185.03 690.25,-187.92 694.28,-193.65"/>
</g>
<!-- Node3 -->
<g id="node3" class="node">
<title>Node3</title>
<g id="a_node3"><a xlink:href="resourceslib_8h.html" target="_top" xlink:title=" ">
<polygon fill="white" stroke="#666666" points="116,-129 0,-129 0,-110 116,-110 116,-129"/>
<text text-anchor="middle" x="58" y="-117" font-family="Helvetica,sans-Serif" font-size="10.00">Madgine/resourceslib.h</text>
</a>
</g>
</g>
<!-- Node2&#45;&gt;Node3 -->
<g id="edge2" class="edge">
<title>Node2&#45;&gt;Node3</title>
<path fill="none" stroke="#63b8ff" d="M353,-166.89C296.17,-157.96 194.11,-141.91 126.21,-131.23"/>
<polygon fill="#63b8ff" stroke="#63b8ff" points="127.11,-127.83 116.69,-129.73 126.03,-134.74 127.11,-127.83"/>
</g>
<!-- Node4 -->
<g id="node4" class="node">
<title>Node4</title>
<g id="a_node4"><a xlink:href="rootlib_8h.html" target="_top" xlink:title=" ">
<polygon fill="white" stroke="#666666" points="189,-74 99,-74 99,-55 189,-55 189,-74"/>
<text text-anchor="middle" x="144" y="-62" font-family="Helvetica,sans-Serif" font-size="10.00">Madgine/rootlib.h</text>
</a>
</g>
</g>
<!-- Node2&#45;&gt;Node4 -->
<g id="edge3" class="edge">
<title>Node2&#45;&gt;Node4</title>
<path fill="none" stroke="#63b8ff" d="M353.04,-170.61C293.96,-165.69 190.39,-153.75 163,-129 150.85,-118.02 146.34,-99.62 144.72,-85.45"/>
<polygon fill="#63b8ff" stroke="#63b8ff" points="148.24,-85.61 144.04,-75.88 141.26,-86.11 148.24,-85.61"/>
</g>
<!-- Node5 -->
<g id="node5" class="node">
<title>Node5</title>
<g id="a_node5"><a xlink:href="debuglib_8h.html" target="_top" xlink:title=" ">
<polygon fill="white" stroke="#666666" points="272,-129 172,-129 172,-110 272,-110 272,-129"/>
<text text-anchor="middle" x="222" y="-117" font-family="Helvetica,sans-Serif" font-size="10.00">Madgine/debuglib.h</text>
</a>
</g>
</g>
<!-- Node2&#45;&gt;Node5 -->
<g id="edge4" class="edge">
<title>Node2&#45;&gt;Node5</title>
<path fill="none" stroke="#63b8ff" d="M365.65,-164.51C337.11,-155.76 293.54,-142.42 261.86,-132.71"/>
<polygon fill="#63b8ff" stroke="#63b8ff" points="263.24,-129.47 252.65,-129.89 261.19,-136.17 263.24,-129.47"/>
</g>
<!-- Node7 -->
<g id="node7" class="node">
<title>Node7</title>
<g id="a_node7"><a xlink:href="behaviorlib_8h.html" target="_top" xlink:title=" ">
<polygon fill="white" stroke="#666666" points="400,-129 290,-129 290,-110 400,-110 400,-129"/>
<text text-anchor="middle" x="345" y="-117" font-family="Helvetica,sans-Serif" font-size="10.00">Madgine/behaviorlib.h</text>
</a>
</g>
</g>
<!-- Node2&#45;&gt;Node7 -->
<g id="edge7" class="edge">
<title>Node2&#45;&gt;Node7</title>
<path fill="none" stroke="#63b8ff" d="M386.74,-164.75C379.84,-157.43 369.78,-146.76 361.26,-137.74"/>
<polygon fill="#63b8ff" stroke="#63b8ff" points="363.88,-135.42 354.47,-130.54 358.79,-140.22 363.88,-135.42"/>
</g>
<!-- Node8 -->
<g id="node8" class="node">
<title>Node8</title>
<g id="a_node8"><a xlink:title=" ">
<polygon fill="#e0e0e0" stroke="#999999" points="472,-129 418,-129 418,-110 472,-110 472,-129"/>
<text text-anchor="middle" x="445" y="-117" font-family="Helvetica,sans-Serif" font-size="10.00">Python.h</text>
</a>
</g>
</g>
<!-- Node2&#45;&gt;Node8 -->
<g id="edge8" class="edge">
<title>Node2&#45;&gt;Node8</title>
<path fill="none" stroke="#63b8ff" d="M403.26,-164.75C410.16,-157.43 420.22,-146.76 428.74,-137.74"/>
<polygon fill="#63b8ff" stroke="#63b8ff" points="431.21,-140.22 435.53,-130.54 426.12,-135.42 431.21,-140.22"/>
</g>
<!-- Node9 -->
<g id="node9" class="node">
<title>Node9</title>
<g id="a_node9"><a xlink:href="python3compat_8h.html" target="_top" xlink:title=" ">
<polygon fill="white" stroke="#666666" points="580,-129 490,-129 490,-110 580,-110 580,-129"/>
<text text-anchor="middle" x="535" y="-117" font-family="Helvetica,sans-Serif" font-size="10.00">python3compat.h</text>
</a>
</g>
</g>
<!-- Node2&#45;&gt;Node9 -->
<g id="edge9" class="edge">
<title>Node2&#45;&gt;Node9</title>
<path fill="none" stroke="#63b8ff" d="M418.75,-164.51C441.31,-155.97 475.47,-143.03 500.94,-133.4"/>
<polygon fill="#63b8ff" stroke="#63b8ff" points="502.07,-136.71 510.19,-129.89 499.59,-130.16 502.07,-136.71"/>
</g>
<!-- Node10 -->
<g id="node10" class="node">
<title>Node10</title>
<g id="a_node10"><a xlink:href="python3forward_8h.html" target="_top" xlink:title=" ">
<polygon fill="white" stroke="#666666" points="688,-129 598,-129 598,-110 688,-110 688,-129"/>
<text text-anchor="middle" x="643" y="-117" font-family="Helvetica,sans-Serif" font-size="10.00">python3forward.h</text>
</a>
</g>
</g>
<!-- Node2&#45;&gt;Node10 -->
<g id="edge10" class="edge">
<title>Node2&#45;&gt;Node10</title>
<path fill="none" stroke="#63b8ff" d="M436.79,-164.57C478.91,-155.57 544.07,-141.64 589.85,-131.86"/>
<polygon fill="#63b8ff" stroke="#63b8ff" points="590.51,-135.3 599.56,-129.78 589.05,-128.45 590.51,-135.3"/>
</g>
<!-- Node5&#45;&gt;Node4 -->
<g id="edge5" class="edge">
<title>Node5&#45;&gt;Node4</title>
<path fill="none" stroke="#63b8ff" d="M208.77,-109.51C197.16,-101.62 180.03,-89.98 166.3,-80.65"/>
<polygon fill="#63b8ff" stroke="#63b8ff" points="168.53,-77.93 158.29,-75.21 164.59,-83.72 168.53,-77.93"/>
</g>
<!-- Node6 -->
<g id="node6" class="node">
<title>Node6</title>
<g id="a_node6"><a xlink:href="debugforward_8h.html" target="_top" xlink:title=" ">
<polygon fill="white" stroke="#666666" points="290.5,-74 207.5,-74 207.5,-55 290.5,-55 290.5,-74"/>
<text text-anchor="middle" x="249" y="-62" font-family="Helvetica,sans-Serif" font-size="10.00">debugforward.h</text>
</a>
</g>
</g>
<!-- Node5&#45;&gt;Node6 -->
<g id="edge6" class="edge">
<title>Node5&#45;&gt;Node6</title>
<path fill="none" stroke="#63b8ff" d="M226.46,-109.75C229.95,-102.88 234.95,-93.08 239.35,-84.45"/>
<polygon fill="#63b8ff" stroke="#63b8ff" points="242.34,-86.29 243.76,-75.79 236.1,-83.11 242.34,-86.29"/>
</g>
<!-- Node12 -->
<g id="node12" class="node">
<title>Node12</title>
<g id="a_node12"><a xlink:href="vector3_8h.html" target="_top" xlink:title=" ">
<polygon fill="white" stroke="#666666" points="812,-129 706,-129 706,-110 812,-110 812,-129"/>
<text text-anchor="middle" x="759" y="-117" font-family="Helvetica,sans-Serif" font-size="10.00">Meta/math/vector3.h</text>
</a>
</g>
</g>
<!-- Node11&#45;&gt;Node12 -->
<g id="edge12" class="edge">
<title>Node11&#45;&gt;Node12</title>
<path fill="none" stroke="#63b8ff" d="M646.07,-164.51C667.89,-156.01 700.88,-143.15 725.58,-133.53"/>
<polygon fill="#63b8ff" stroke="#63b8ff" points="726.81,-136.8 734.86,-129.91 724.27,-130.28 726.81,-136.8"/>
</g>
<!-- Node13 -->
<g id="node13" class="node">
<title>Node13</title>
<g id="a_node13"><a xlink:href="common_8h.html" target="_top" xlink:title=" ">
<polygon fill="white" stroke="#666666" points="760,-19 698,-19 698,0 760,0 760,-19"/>
<text text-anchor="middle" x="729" y="-7" font-family="Helvetica,sans-Serif" font-size="10.00">common.h</text>
</a>
</g>
</g>
<!-- Node12&#45;&gt;Node13 -->
<g id="edge13" class="edge">
<title>Node12&#45;&gt;Node13</title>
<path fill="none" stroke="#63b8ff" d="M748.21,-109.55C739.26,-101.36 727.19,-88.36 722,-74 716.91,-59.93 719.13,-43.06 722.37,-30.24"/>
<polygon fill="#63b8ff" stroke="#63b8ff" points="725.66,-31.46 725.15,-20.87 718.95,-29.46 725.66,-31.46"/>
</g>
<!-- Node14 -->
<g id="node14" class="node">
<title>Node14</title>
<g id="a_node14"><a xlink:href="vector2_8h.html" target="_top" xlink:title=" ">
<polygon fill="white" stroke="#666666" points="787,-74 731,-74 731,-55 787,-55 787,-74"/>
<text text-anchor="middle" x="759" y="-62" font-family="Helvetica,sans-Serif" font-size="10.00">vector2.h</text>
</a>
</g>
</g>
<!-- Node12&#45;&gt;Node14 -->
<g id="edge14" class="edge">
<title>Node12&#45;&gt;Node14</title>
<path fill="none" stroke="#63b8ff" d="M759,-109.75C759,-103.27 759,-94.16 759,-85.9"/>
<polygon fill="#63b8ff" stroke="#63b8ff" points="762.5,-85.96 759,-75.96 755.5,-85.96 762.5,-85.96"/>
</g>
<!-- Node16 -->
<g id="node16" class="node">
<title>Node16</title>
<g id="a_node16"><a xlink:href="vector3i_8h.html" target="_top" xlink:title=" ">
<polygon fill="white" stroke="#666666" points="864.5,-74 805.5,-74 805.5,-55 864.5,-55 864.5,-74"/>
<text text-anchor="middle" x="835" y="-62" font-family="Helvetica,sans-Serif" font-size="10.00">vector3i.h</text>
</a>
</g>
</g>
<!-- Node12&#45;&gt;Node16 -->
<g id="edge17" class="edge">
<title>Node12&#45;&gt;Node16</title>
<path fill="none" stroke="#63b8ff" d="M771.89,-109.51C783.1,-101.7 799.57,-90.21 812.88,-80.93"/>
<polygon fill="#63b8ff" stroke="#63b8ff" points="814.86,-83.81 821.06,-75.22 810.85,-78.07 814.86,-83.81"/>
</g>
<!-- Node14&#45;&gt;Node13 -->
<g id="edge16" class="edge">
<title>Node14&#45;&gt;Node13</title>
<path fill="none" stroke="#63b8ff" d="M754.05,-54.75C750.16,-47.88 744.61,-38.08 739.72,-29.45"/>
<polygon fill="#63b8ff" stroke="#63b8ff" points="742.78,-27.74 734.81,-20.76 736.69,-31.19 742.78,-27.74"/>
</g>
<!-- Node15 -->
<g id="node15" class="node">
<title>Node15</title>
<g id="a_node15"><a xlink:href="vector2i_8h.html" target="_top" xlink:title=" ">
<polygon fill="white" stroke="#666666" points="850.5,-19 791.5,-19 791.5,0 850.5,0 850.5,-19"/>
<text text-anchor="middle" x="821" y="-7" font-family="Helvetica,sans-Serif" font-size="10.00">vector2i.h</text>
</a>
</g>
</g>
<!-- Node14&#45;&gt;Node15 -->
<g id="edge15" class="edge">
<title>Node14&#45;&gt;Node15</title>
<path fill="none" stroke="#63b8ff" d="M769.52,-54.51C778.39,-46.93 791.31,-35.88 801.99,-26.75"/>
<polygon fill="#63b8ff" stroke="#63b8ff" points="804.16,-29.5 809.49,-20.34 799.61,-24.18 804.16,-29.5"/>
</g>
<!-- Node16&#45;&gt;Node15 -->
<g id="edge18" class="edge">
<title>Node16&#45;&gt;Node15</title>
<path fill="none" stroke="#63b8ff" d="M832.69,-54.75C830.94,-48.11 828.46,-38.73 826.23,-30.31"/>
<polygon fill="#63b8ff" stroke="#63b8ff" points="829.69,-29.68 823.75,-20.91 822.92,-31.47 829.69,-29.68"/>
</g>
</g>
</svg>
        <g id="navigator" transform="translate(0 0)" fill="#404254">
                <rect fill="#f2f5e9" fill-opacity="0.5" stroke="#606060" stroke-width=".5" x="0" y="0" width="60" height="60"/>
                <use id="zoomplus" xlink:href="#zoomPlus" x="17" y="9" onmousedown="handleZoom(evt,'in')"/>
                <use id="zoomminus" xlink:href="#zoomMin" x="42" y="9" onmousedown="handleZoom(evt,'out')"/>
                <use id="reset" xlink:href="#resetDef" x="30" y="36" onmousedown="handleReset()"/>
                <g id="arrowUp" xlink:href="#dirArrow" transform="translate(30 24)" onmousedown="handlePan(0,-1)">
                  <use xlink:href="#rim" fill="#404040">
                        <set attributeName="fill" to="#808080" begin="arrowUp.mouseover" end="arrowUp.mouseout"/>
                  </use>
                  <path fill="none" stroke="white" stroke-width="1.5" d="M0,-3.0v7 M-2.5,-0.5L0,-3.0L2.5,-0.5"/>
                </g>
                <g id="arrowRight" xlink:href="#dirArrow" transform="rotate(90) translate(36 -43)" onmousedown="handlePan(1,0)">
                  <use xlink:href="#rim" fill="#404040">
                        <set attributeName="fill" to="#808080" begin="arrowRight.mouseover" end="arrowRight.mouseout"/>
                  </use>
                  <path fill="none" stroke="white" stroke-width="1.5" d="M0,-3.0v7 M-2.5,-0.5L0,-3.0L2.5,-0.5"/>
                </g>
                <g id="arrowDown" xlink:href="#dirArrow" transform="rotate(180) translate(-30 -48)" onmousedown="handlePan(0,1)">
                  <use xlink:href="#rim" fill="#404040">
                        <set attributeName="fill" to="#808080" begin="arrowDown.mouseover" end="arrowDown.mouseout"/>
                  </use>
                  <path fill="none" stroke="white" stroke-width="1.5" d="M0,-3.0v7 M-2.5,-0.5L0,-3.0L2.5,-0.5"/>
                </g>
                <g id="arrowLeft" xlink:href="#dirArrow" transform="rotate(270) translate(-36 17)" onmousedown="handlePan(-1,0)">
                  <use xlink:href="#rim" fill="#404040">
                        <set attributeName="fill" to="#808080" begin="arrowLeft.mouseover" end="arrowLeft.mouseout"/>
                  </use>
                  <path fill="none" stroke="white" stroke-width="1.5" d="M0,-3.0v7 M-2.5,-0.5L0,-3.0L2.5,-0.5"/>
                </g>
        </g>
        <svg viewBox="0 0 15 15" width="100%" height="30px" preserveAspectRatio="xMaxYMin meet">
         <g id="arrow_out" transform="scale(0.3 0.3)">
          <a xlink:href="pyvector3_8cpp__incl_org.svg" target="_base">
           <rect id="button" ry="5" rx="5" y="6" x="6" height="38" width="38"
                fill="#f2f5e9" fill-opacity="0.5" stroke="#606060" stroke-width="1.0"/>
           <path id="arrow"
             d="M 11.500037,31.436501 C 11.940474,20.09759 22.043105,11.32322 32.158766,21.979434 L 37.068811,17.246167 C 37.068811,17.246167 37.088388,32 37.088388,32 L 22.160133,31.978069 C 22.160133,31.978069 26.997745,27.140456 26.997745,27.140456 C 18.528582,18.264221 13.291696,25.230495 11.500037,31.436501 z"
             style="fill:#404040;"/>
          </a>
         </g>
        </svg>
</svg>
