<?xml version="1.0" encoding="UTF-8" standalone="no"?>
<!DOCTYPE svg PUBLIC "-//W3C//DTD SVG 1.1//EN"
 "http://www.w3.org/Graphics/SVG/1.1/DTD/svg11.dtd">
<!-- Generated by graphviz version 7.0.5 (20221223.1930)
 -->
<!-- Title: src/Meta/math/quaternion.cpp Pages: 1 -->
<svg width="380pt" height="302pt"
 viewBox="0.00 0.00 379.50 302.00" xmlns="http://www.w3.org/2000/svg" xmlns:xlink="http://www.w3.org/1999/xlink">
<g id="graph0" class="graph" transform="scale(1 1) rotate(0) translate(4 298)">
<title>src/Meta/math/quaternion.cpp</title>
<!-- Node1 -->
<g id="node1" class="node">
<title>Node1</title>
<g id="a_node1"><a xlink:title=" ">
<polygon fill="#999999" stroke="#666666" points="271,-294 125,-294 125,-275 271,-275 271,-294"/>
<text text-anchor="middle" x="198" y="-282" font-family="Helvetica,sans-Serif" font-size="10.00">src/Meta/math/quaternion.cpp</text>
</a>
</g>
</g>
<!-- Node2 -->
<g id="node2" class="node">
<title>Node2</title>
<g id="a_node2"><a xlink:href="metalib_8h.html" target="_top" xlink:title=" ">
<polygon fill="white" stroke="#666666" points="187.5,-239 124.5,-239 124.5,-220 187.5,-220 187.5,-239"/>
<text text-anchor="middle" x="156" y="-227" font-family="Helvetica,sans-Serif" font-size="10.00">../metalib.h</text>
</a>
</g>
</g>
<!-- Node1&#45;&gt;Node2 -->
<g id="edge1" class="edge">
<title>Node1&#45;&gt;Node2</title>
<path fill="none" stroke="#63b8ff" d="M191.06,-274.75C185.38,-267.58 177.16,-257.2 170.11,-248.3"/>
<polygon fill="#63b8ff" stroke="#63b8ff" points="172.98,-246.29 164.03,-240.63 167.49,-250.64 172.98,-246.29"/>
</g>
<!-- Node5 -->
<g id="node5" class="node">
<title>Node5</title>
<g id="a_node5"><a xlink:href="quaternion_8h.html" target="_top" xlink:title=" ">
<polygon fill="white" stroke="#666666" points="301.5,-239 232.5,-239 232.5,-220 301.5,-220 301.5,-239"/>
<text text-anchor="middle" x="267" y="-227" font-family="Helvetica,sans-Serif" font-size="10.00">quaternion.h</text>
</a>
</g>
</g>
<!-- Node1&#45;&gt;Node5 -->
<g id="edge4" class="edge">
<title>Node1&#45;&gt;Node5</title>
<path fill="none" stroke="#63b8ff" d="M209.7,-274.51C219.78,-266.77 234.54,-255.43 246.56,-246.2"/>
<polygon fill="#63b8ff" stroke="#63b8ff" points="248.47,-249.15 254.27,-240.28 244.21,-243.6 248.47,-249.15"/>
</g>
<!-- Node3 -->
<g id="node3" class="node">
<title>Node3</title>
<g id="a_node3"><a xlink:href="genericlib_8h.html" target="_top" xlink:title=" ">
<polygon fill="white" stroke="#666666" points="102,-184 0,-184 0,-165 102,-165 102,-184"/>
<text text-anchor="middle" x="51" y="-172" font-family="Helvetica,sans-Serif" font-size="10.00">Generic/genericlib.h</text>
</a>
</g>
</g>
<!-- Node2&#45;&gt;Node3 -->
<g id="edge2" class="edge">
<title>Node2&#45;&gt;Node3</title>
<path fill="none" stroke="#63b8ff" d="M138.19,-219.51C121.87,-211.27 97.47,-198.96 78.63,-189.45"/>
<polygon fill="#63b8ff" stroke="#63b8ff" points="80.4,-186.42 69.9,-185.04 77.25,-192.67 80.4,-186.42"/>
</g>
<!-- Node4 -->
<g id="node4" class="node">
<title>Node4</title>
<g id="a_node4"><a xlink:title=" ">
<polygon fill="#e0e0e0" stroke="#999999" points="191.5,-184 120.5,-184 120.5,-165 191.5,-165 191.5,-184"/>
<text text-anchor="middle" x="156" y="-172" font-family="Helvetica,sans-Serif" font-size="10.00">metaconfig.h</text>
</a>
</g>
</g>
<!-- Node2&#45;&gt;Node4 -->
<g id="edge3" class="edge">
<title>Node2&#45;&gt;Node4</title>
<path fill="none" stroke="#63b8ff" d="M156,-219.75C156,-213.27 156,-204.16 156,-195.9"/>
<polygon fill="#63b8ff" stroke="#63b8ff" points="159.5,-195.96 156,-185.96 152.5,-195.96 159.5,-195.96"/>
</g>
<!-- Node6 -->
<g id="node6" class="node">
<title>Node6</title>
<g id="a_node6"><a xlink:href="matrix3_8h.html" target="_top" xlink:title=" ">
<polygon fill="white" stroke="#666666" points="266,-184 210,-184 210,-165 266,-165 266,-184"/>
<text text-anchor="middle" x="238" y="-172" font-family="Helvetica,sans-Serif" font-size="10.00">matrix3.h</text>
</a>
</g>
</g>
<!-- Node5&#45;&gt;Node6 -->
<g id="edge5" class="edge">
<title>Node5&#45;&gt;Node6</title>
<path fill="none" stroke="#63b8ff" d="M262.21,-219.75C258.46,-212.88 253.09,-203.08 248.37,-194.45"/>
<polygon fill="#63b8ff" stroke="#63b8ff" points="251.49,-192.86 243.62,-185.77 245.35,-196.22 251.49,-192.86"/>
</g>
<!-- Node7 -->
<g id="node7" class="node">
<title>Node7</title>
<g id="a_node7"><a xlink:href="vector3_8h.html" target="_top" xlink:title=" ">
<polygon fill="white" stroke="#666666" points="294,-129 238,-129 238,-110 294,-110 294,-129"/>
<text text-anchor="middle" x="266" y="-117" font-family="Helvetica,sans-Serif" font-size="10.00">vector3.h</text>
</a>
</g>
</g>
<!-- Node5&#45;&gt;Node7 -->
<g id="edge14" class="edge">
<title>Node5&#45;&gt;Node7</title>
<path fill="none" stroke="#63b8ff" d="M269.32,-219.89C272.33,-207.69 276.97,-184.68 275,-165 274.19,-156.86 272.55,-148.01 270.9,-140.36"/>
<polygon fill="#63b8ff" stroke="#63b8ff" points="274.34,-139.7 268.66,-130.76 267.52,-141.29 274.34,-139.7"/>
</g>
<!-- Node12 -->
<g id="node12" class="node">
<title>Node12</title>
<g id="a_node12"><a xlink:href="pi_8h.html" target="_top" xlink:title=" ">
<polygon fill="white" stroke="#666666" points="354,-184 322,-184 322,-165 354,-165 354,-184"/>
<text text-anchor="middle" x="338" y="-172" font-family="Helvetica,sans-Serif" font-size="10.00">pi.h</text>
</a>
</g>
</g>
<!-- Node5&#45;&gt;Node12 -->
<g id="edge13" class="edge">
<title>Node5&#45;&gt;Node12</title>
<path fill="none" stroke="#63b8ff" d="M279.04,-219.51C289.41,-211.77 304.6,-200.43 316.97,-191.2"/>
<polygon fill="#63b8ff" stroke="#63b8ff" points="319,-194.05 324.92,-185.26 314.81,-188.44 319,-194.05"/>
</g>
<!-- Node6&#45;&gt;Node7 -->
<g id="edge6" class="edge">
<title>Node6&#45;&gt;Node7</title>
<path fill="none" stroke="#63b8ff" d="M242.62,-164.75C246.25,-157.88 251.43,-148.08 255.99,-139.45"/>
<polygon fill="#63b8ff" stroke="#63b8ff" points="258.99,-141.26 260.57,-130.78 252.8,-137.99 258.99,-141.26"/>
</g>
<!-- Node8 -->
<g id="node8" class="node">
<title>Node8</title>
<g id="a_node8"><a xlink:href="common_8h.html" target="_top" xlink:title=" ">
<polygon fill="white" stroke="#666666" points="267,-19 205,-19 205,0 267,0 267,-19"/>
<text text-anchor="middle" x="236" y="-7" font-family="Helvetica,sans-Serif" font-size="10.00">common.h</text>
</a>
</g>
</g>
<!-- Node7&#45;&gt;Node8 -->
<g id="edge7" class="edge">
<title>Node7&#45;&gt;Node8</title>
<path fill="none" stroke="#63b8ff" d="M255.21,-109.55C246.26,-101.36 234.19,-88.36 229,-74 223.91,-59.93 226.13,-43.06 229.37,-30.24"/>
<polygon fill="#63b8ff" stroke="#63b8ff" points="232.66,-31.46 232.15,-20.87 225.95,-29.46 232.66,-31.46"/>
</g>
<!-- Node9 -->
<g id="node9" class="node">
<title>Node9</title>
<g id="a_node9"><a xlink:href="vector2_8h.html" target="_top" xlink:title=" ">
<polygon fill="white" stroke="#666666" points="294,-74 238,-74 238,-55 294,-55 294,-74"/>
<text text-anchor="middle" x="266" y="-62" font-family="Helvetica,sans-Serif" font-size="10.00">vector2.h</text>
</a>
</g>
</g>
<!-- Node7&#45;&gt;Node9 -->
<g id="edge8" class="edge">
<title>Node7&#45;&gt;Node9</title>
<path fill="none" stroke="#63b8ff" d="M266,-109.75C266,-103.27 266,-94.16 266,-85.9"/>
<polygon fill="#63b8ff" stroke="#63b8ff" points="269.5,-85.96 266,-75.96 262.5,-85.96 269.5,-85.96"/>
</g>
<!-- Node11 -->
<g id="node11" class="node">
<title>Node11</title>
<g id="a_node11"><a xlink:href="vector3i_8h.html" target="_top" xlink:title=" ">
<polygon fill="white" stroke="#666666" points="371.5,-74 312.5,-74 312.5,-55 371.5,-55 371.5,-74"/>
<text text-anchor="middle" x="342" y="-62" font-family="Helvetica,sans-Serif" font-size="10.00">vector3i.h</text>
</a>
</g>
</g>
<!-- Node7&#45;&gt;Node11 -->
<g id="edge11" class="edge">
<title>Node7&#45;&gt;Node11</title>
<path fill="none" stroke="#63b8ff" d="M278.89,-109.51C290.1,-101.7 306.57,-90.21 319.88,-80.93"/>
<polygon fill="#63b8ff" stroke="#63b8ff" points="321.86,-83.81 328.06,-75.22 317.85,-78.07 321.86,-83.81"/>
</g>
<!-- Node9&#45;&gt;Node8 -->
<g id="edge10" class="edge">
<title>Node9&#45;&gt;Node8</title>
<path fill="none" stroke="#63b8ff" d="M261.05,-54.75C257.16,-47.88 251.61,-38.08 246.72,-29.45"/>
<polygon fill="#63b8ff" stroke="#63b8ff" points="249.78,-27.74 241.81,-20.76 243.69,-31.19 249.78,-27.74"/>
</g>
<!-- Node10 -->
<g id="node10" class="node">
<title>Node10</title>
<g id="a_node10"><a xlink:href="vector2i_8h.html" target="_top" xlink:title=" ">
<polygon fill="white" stroke="#666666" points="357.5,-19 298.5,-19 298.5,0 357.5,0 357.5,-19"/>
<text text-anchor="middle" x="328" y="-7" font-family="Helvetica,sans-Serif" font-size="10.00">vector2i.h</text>
</a>
</g>
</g>
<!-- Node9&#45;&gt;Node10 -->
<g id="edge9" class="edge">
<title>Node9&#45;&gt;Node10</title>
<path fill="none" stroke="#63b8ff" d="M276.52,-54.51C285.39,-46.93 298.31,-35.88 308.99,-26.75"/>
<polygon fill="#63b8ff" stroke="#63b8ff" points="311.16,-29.5 316.49,-20.34 306.61,-24.18 311.16,-29.5"/>
</g>
<!-- Node11&#45;&gt;Node10 -->
<g id="edge12" class="edge">
<title>Node11&#45;&gt;Node10</title>
<path fill="none" stroke="#63b8ff" d="M339.69,-54.75C337.94,-48.11 335.46,-38.73 333.23,-30.31"/>
<polygon fill="#63b8ff" stroke="#63b8ff" points="336.69,-29.68 330.75,-20.91 329.92,-31.47 336.69,-29.68"/>
</g>
</g>
</svg>
