<?xml version="1.0" encoding="UTF-8" standalone="no"?>
<!DOCTYPE svg PUBLIC "-//W3C//DTD SVG 1.1//EN"
 "http://www.w3.org/Graphics/SVG/1.1/DTD/svg11.dtd">
<!-- Generated by graphviz version 7.0.5 (20221223.1930)
 -->
<!-- Title: src/Meta/math/rect2.h Pages: 1 -->
<svg width="157pt" height="247pt"
 viewBox="0.00 0.00 156.50 247.00" xmlns="http://www.w3.org/2000/svg" xmlns:xlink="http://www.w3.org/1999/xlink">
<g id="graph0" class="graph" transform="scale(1 1) rotate(0) translate(4 243)">
<title>src/Meta/math/rect2.h</title>
<!-- Node1 -->
<g id="node1" class="node">
<title>Node1</title>
<g id="a_node1"><a xlink:title=" ">
<polygon fill="#999999" stroke="#666666" points="148.5,-239 36.5,-239 36.5,-220 148.5,-220 148.5,-239"/>
<text text-anchor="middle" x="92.5" y="-227" font-family="Helvetica,sans-Serif" font-size="10.00">src/Meta/math/rect2.h</text>
</a>
</g>
</g>
<!-- Node2 -->
<g id="node2" class="node">
<title>Node2</title>
<g id="a_node2"><a xlink:href="line2_8h.html" target="_top" xlink:title=" ">
<polygon fill="white" stroke="#666666" points="89.5,-184 45.5,-184 45.5,-165 89.5,-165 89.5,-184"/>
<text text-anchor="middle" x="67.5" y="-172" font-family="Helvetica,sans-Serif" font-size="10.00">line2.h</text>
</a>
</g>
</g>
<!-- Node1&#45;&gt;Node2 -->
<g id="edge1" class="edge">
<title>Node1&#45;&gt;Node2</title>
<path fill="none" stroke="#63b8ff" d="M88.37,-219.75C85.17,-212.96 80.61,-203.3 76.57,-194.73"/>
<polygon fill="#63b8ff" stroke="#63b8ff" points="79.8,-193.36 72.36,-185.81 73.46,-196.35 79.8,-193.36"/>
</g>
<!-- Node3 -->
<g id="node3" class="node">
<title>Node3</title>
<g id="a_node3"><a xlink:href="vector2_8h.html" target="_top" xlink:title=" ">
<polygon fill="white" stroke="#666666" points="96.5,-74 40.5,-74 40.5,-55 96.5,-55 96.5,-74"/>
<text text-anchor="middle" x="68.5" y="-62" font-family="Helvetica,sans-Serif" font-size="10.00">vector2.h</text>
</a>
</g>
</g>
<!-- Node1&#45;&gt;Node3 -->
<g id="edge7" class="edge">
<title>Node1&#45;&gt;Node3</title>
<path fill="none" stroke="#63b8ff" d="M94.96,-219.63C100.11,-199.56 110.54,-149.4 98.5,-110 95.51,-100.23 89.58,-90.66 83.77,-82.91"/>
<polygon fill="#63b8ff" stroke="#63b8ff" points="86.68,-80.95 77.66,-75.38 81.24,-85.35 86.68,-80.95"/>
</g>
<!-- Node2&#45;&gt;Node3 -->
<g id="edge2" class="edge">
<title>Node2&#45;&gt;Node3</title>
<path fill="none" stroke="#63b8ff" d="M58.95,-164.75C48.31,-152.76 32.27,-130.4 38.5,-110 41.49,-100.23 47.42,-90.66 53.23,-82.91"/>
<polygon fill="#63b8ff" stroke="#63b8ff" points="55.76,-85.35 59.34,-75.38 50.32,-80.95 55.76,-85.35"/>
</g>
<!-- Node6 -->
<g id="node6" class="node">
<title>Node6</title>
<g id="a_node6"><a xlink:href="ray2_8h.html" target="_top" xlink:title=" ">
<polygon fill="white" stroke="#666666" points="89.5,-129 47.5,-129 47.5,-110 89.5,-110 89.5,-129"/>
<text text-anchor="middle" x="68.5" y="-117" font-family="Helvetica,sans-Serif" font-size="10.00">ray2.h</text>
</a>
</g>
</g>
<!-- Node2&#45;&gt;Node6 -->
<g id="edge5" class="edge">
<title>Node2&#45;&gt;Node6</title>
<path fill="none" stroke="#63b8ff" d="M67.67,-164.75C67.79,-158.27 67.96,-149.16 68.12,-140.9"/>
<polygon fill="#63b8ff" stroke="#63b8ff" points="71.61,-141.02 68.3,-130.96 64.61,-140.89 71.61,-141.02"/>
</g>
<!-- Node4 -->
<g id="node4" class="node">
<title>Node4</title>
<g id="a_node4"><a xlink:href="vector2i_8h.html" target="_top" xlink:title=" ">
<polygon fill="white" stroke="#666666" points="59,-19 0,-19 0,0 59,0 59,-19"/>
<text text-anchor="middle" x="29.5" y="-7" font-family="Helvetica,sans-Serif" font-size="10.00">vector2i.h</text>
</a>
</g>
</g>
<!-- Node3&#45;&gt;Node4 -->
<g id="edge3" class="edge">
<title>Node3&#45;&gt;Node4</title>
<path fill="none" stroke="#63b8ff" d="M62.06,-54.75C56.84,-47.66 49.31,-37.42 42.81,-28.59"/>
<polygon fill="#63b8ff" stroke="#63b8ff" points="45.72,-26.64 36.98,-20.66 40.08,-30.79 45.72,-26.64"/>
</g>
<!-- Node5 -->
<g id="node5" class="node">
<title>Node5</title>
<g id="a_node5"><a xlink:href="common_8h.html" target="_top" xlink:title=" ">
<polygon fill="white" stroke="#666666" points="139.5,-19 77.5,-19 77.5,0 139.5,0 139.5,-19"/>
<text text-anchor="middle" x="108.5" y="-7" font-family="Helvetica,sans-Serif" font-size="10.00">common.h</text>
</a>
</g>
</g>
<!-- Node3&#45;&gt;Node5 -->
<g id="edge4" class="edge">
<title>Node3&#45;&gt;Node5</title>
<path fill="none" stroke="#63b8ff" d="M75.11,-54.75C80.46,-47.66 88.18,-37.42 94.85,-28.59"/>
<polygon fill="#63b8ff" stroke="#63b8ff" points="97.61,-30.74 100.84,-20.65 92.02,-26.52 97.61,-30.74"/>
</g>
<!-- Node6&#45;&gt;Node3 -->
<g id="edge6" class="edge">
<title>Node6&#45;&gt;Node3</title>
<path fill="none" stroke="#63b8ff" d="M68.5,-109.75C68.5,-103.27 68.5,-94.16 68.5,-85.9"/>
<polygon fill="#63b8ff" stroke="#63b8ff" points="72,-85.96 68.5,-75.96 65,-85.96 72,-85.96"/>
</g>
</g>
</svg>
