<?xml version="1.0" encoding="UTF-8" standalone="no"?>
<!DOCTYPE svg PUBLIC "-//W3C//DTD SVG 1.1//EN"
 "http://www.w3.org/Graphics/SVG/1.1/DTD/svg11.dtd">
<!-- Generated by graphviz version 7.0.5 (20221223.1930)
 -->
<!-- Title: plugins/renderer/api/src/Madgine/render/rendertarget.h Pages: 1 -->
<!--zoomable 247 -->
<svg id="main" version="1.1" xmlns="http://www.w3.org/2000/svg" xmlns:xlink="http://www.w3.org/1999/xlink" xml:space="preserve" onload="init(evt)">
<style type="text/css"><![CDATA[
.edge:hover path { stroke: red; }
.edge:hover polygon { stroke: red; fill: red; }
]]></style>
<script type="text/javascript"><![CDATA[
var edges = document.getElementsByTagName('g');
if (edges && edges.length) {
  for (var i=0;i<edges.length;i++) {
    if (edges[i].id.substr(0,4)=='edge') {
      edges[i].setAttribute('class','edge');
    }
  }
}
]]></script>
        <defs>
                <circle id="rim" cx="0" cy="0" r="7"/>
                <circle id="rim2" cx="0" cy="0" r="3.5"/>
                <g id="zoomPlus">
                        <use xlink:href="#rim" fill="#404040">
                                <set attributeName="fill" to="#808080" begin="zoomplus.mouseover" end="zoomplus.mouseout"/>
                        </use>
                        <path d="M-4,0h8M0,-4v8" fill="none" stroke="white" stroke-width="1.5" pointer-events="none"/>
                </g>
                <g id="zoomMin">
                        <use xlink:href="#rim" fill="#404040">
                                <set attributeName="fill" to="#808080" begin="zoomminus.mouseover" end="zoomminus.mouseout"/>
                        </use>
                        <path d="M-4,0h8" fill="none" stroke="white" stroke-width="1.5" pointer-events="none"/>
                </g>
                <g id="dirArrow">
                        <path fill="none" stroke="white" stroke-width="1.5" d="M0,-3.0v7 M-2.5,-0.5L0,-3.0L2.5,-0.5"/>
                </g>
               <g id="resetDef">
                       <use xlink:href="#rim2" fill="#404040">
                               <set attributeName="fill" to="#808080" begin="reset.mouseover" end="reset.mouseout"/>
                       </use>
               </g>
        </defs>

<script type="text/javascript">
var viewWidth = 4671;
var viewHeight = 247;
var sectionId = 'dynsection-1';
</script>
<script xlink:href="svgpan.js"/>
<svg id="graph" class="graph">
<g id="viewport">
<title>plugins/renderer/api/src/Madgine/render/rendertarget.h</title>
<!-- Node1 -->
<g id="node1" class="node">
<title>Node1</title>
<g id="a_node1"><a xlink:title=" ">
<polygon fill="#999999" stroke="#666666" points="1461,-239 1296,-239 1296,-209 1461,-209 1461,-239"/>
<text text-anchor="start" x="1304" y="-227" font-family="Helvetica,sans-Serif" font-size="10.00">plugins/renderer/api</text>
<text text-anchor="middle" x="1378.5" y="-216" font-family="Helvetica,sans-Serif" font-size="10.00">/src/Madgine/render/rendertarget.h</text>
</a>
</g>
</g>
<!-- Node2 -->
<g id="node2" class="node">
<title>Node2</title>
<g id="a_node2"><a xlink:href="mainwindow_8cpp.html" target="_top" xlink:title=" ">
<polygon fill="white" stroke="#666666" points="109,-173 0,-173 0,-132 109,-132 109,-173"/>
<text text-anchor="start" x="8" y="-161" font-family="Helvetica,sans-Serif" font-size="10.00">plugins/client/api</text>
<text text-anchor="start" x="8" y="-150" font-family="Helvetica,sans-Serif" font-size="10.00">/src/Madgine/window</text>
<text text-anchor="middle" x="54.5" y="-139" font-family="Helvetica,sans-Serif" font-size="10.00">/mainwindow.cpp</text>
</a>
</g>
</g>
<!-- Node1&#45;&gt;Node2 -->
<g id="edge1" class="edge">
<title>Node1&#45;&gt;Node2</title>
<path fill="none" stroke="#63b8ff" d="M1284.3,-222.38C1031.55,-220.22 342.51,-210.92 118.5,-173 115.52,-172.5 112.49,-171.89 109.44,-171.22"/>
<polygon fill="#63b8ff" stroke="#63b8ff" points="1284.09,-225.88 1294.12,-222.46 1284.15,-218.88 1284.09,-225.88"/>
</g>
<!-- Node3 -->
<g id="node3" class="node">
<title>Node3</title>
<g id="a_node3"><a xlink:href="mainwindowcomponent_8cpp.html" target="_top" xlink:title=" ">
<polygon fill="white" stroke="#666666" points="267.5,-173 127.5,-173 127.5,-132 267.5,-132 267.5,-173"/>
<text text-anchor="start" x="135.5" y="-161" font-family="Helvetica,sans-Serif" font-size="10.00">plugins/client/api</text>
<text text-anchor="start" x="135.5" y="-150" font-family="Helvetica,sans-Serif" font-size="10.00">/src/Madgine/window</text>
<text text-anchor="middle" x="197.5" y="-139" font-family="Helvetica,sans-Serif" font-size="10.00">/mainwindowcomponent.cpp</text>
</a>
</g>
</g>
<!-- Node1&#45;&gt;Node3 -->
<g id="edge2" class="edge">
<title>Node1&#45;&gt;Node3</title>
<path fill="none" stroke="#63b8ff" d="M1284.27,-221.11C1054.43,-216.1 469.77,-200.96 276.5,-173 273.7,-172.6 270.86,-172.14 268,-171.63"/>
<polygon fill="#63b8ff" stroke="#63b8ff" points="1284.02,-224.6 1294.09,-221.32 1284.17,-217.6 1284.02,-224.6"/>
</g>
<!-- Node4 -->
<g id="node4" class="node">
<title>Node4</title>
<g id="a_node4"><a xlink:href="toolwindow_8cpp.html" target="_top" xlink:title=" ">
<polygon fill="white" stroke="#666666" points="395,-173 286,-173 286,-132 395,-132 395,-173"/>
<text text-anchor="start" x="294" y="-161" font-family="Helvetica,sans-Serif" font-size="10.00">plugins/client/api</text>
<text text-anchor="start" x="294" y="-150" font-family="Helvetica,sans-Serif" font-size="10.00">/src/Madgine/window</text>
<text text-anchor="middle" x="340.5" y="-139" font-family="Helvetica,sans-Serif" font-size="10.00">/toolwindow.cpp</text>
</a>
</g>
</g>
<!-- Node1&#45;&gt;Node4 -->
<g id="edge3" class="edge">
<title>Node1&#45;&gt;Node4</title>
<path fill="none" stroke="#63b8ff" d="M1284.39,-221.1C1074.14,-216.37 571.64,-202.3 404.5,-173 401.53,-172.48 398.49,-171.86 395.45,-171.17"/>
<polygon fill="#63b8ff" stroke="#63b8ff" points="1284.11,-224.59 1294.18,-221.31 1284.26,-217.59 1284.11,-224.59"/>
</g>
<!-- Node5 -->
<g id="node5" class="node">
<title>Node5</title>
<g id="a_node5"><a xlink:href="pointshadowrenderpass_8cpp.html" target="_top" xlink:title=" ">
<polygon fill="white" stroke="#666666" points="553.5,-173 413.5,-173 413.5,-132 553.5,-132 553.5,-173"/>
<text text-anchor="start" x="421.5" y="-161" font-family="Helvetica,sans-Serif" font-size="10.00">plugins/misc/scene</text>
<text text-anchor="start" x="421.5" y="-150" font-family="Helvetica,sans-Serif" font-size="10.00">/renderer/Madgine/render</text>
<text text-anchor="middle" x="483.5" y="-139" font-family="Helvetica,sans-Serif" font-size="10.00">/pointshadowrenderpass.cpp</text>
</a>
</g>
</g>
<!-- Node1&#45;&gt;Node5 -->
<g id="edge4" class="edge">
<title>Node1&#45;&gt;Node5</title>
<path fill="none" stroke="#63b8ff" d="M1284.6,-222.74C1132.19,-221.1 821.89,-212.63 562.5,-173 559.57,-172.55 556.58,-172.05 553.58,-171.5"/>
<polygon fill="#63b8ff" stroke="#63b8ff" points="1284.19,-226.24 1294.23,-222.84 1284.26,-219.24 1284.19,-226.24"/>
</g>
<!-- Node6 -->
<g id="node6" class="node">
<title>Node6</title>
<g id="a_node6"><a xlink:href="scenemainwindowcomponent_8cpp.html" target="_top" xlink:title=" ">
<polygon fill="white" stroke="#666666" points="737.5,-173 571.5,-173 571.5,-132 737.5,-132 737.5,-173"/>
<text text-anchor="start" x="579.5" y="-161" font-family="Helvetica,sans-Serif" font-size="10.00">plugins/misc/scene</text>
<text text-anchor="start" x="579.5" y="-150" font-family="Helvetica,sans-Serif" font-size="10.00">/renderer/Madgine/render</text>
<text text-anchor="middle" x="654.5" y="-139" font-family="Helvetica,sans-Serif" font-size="10.00">/scenemainwindowcomponent.cpp</text>
</a>
</g>
</g>
<!-- Node1&#45;&gt;Node6 -->
<g id="edge5" class="edge">
<title>Node1&#45;&gt;Node6</title>
<path fill="none" stroke="#63b8ff" d="M1284.25,-219.37C1160.37,-213.72 936.24,-200.49 746.5,-173 743.59,-172.58 740.64,-172.12 737.66,-171.63"/>
<polygon fill="#63b8ff" stroke="#63b8ff" points="1283.89,-222.86 1294.04,-219.81 1284.21,-215.86 1283.89,-222.86"/>
</g>
<!-- Node7 -->
<g id="node7" class="node">
<title>Node7</title>
<g id="a_node7"><a xlink:href="scenerenderpass_8cpp.html" target="_top" xlink:title=" ">
<polygon fill="white" stroke="#666666" points="881,-173 756,-173 756,-132 881,-132 881,-173"/>
<text text-anchor="start" x="764" y="-161" font-family="Helvetica,sans-Serif" font-size="10.00">plugins/misc/scene</text>
<text text-anchor="start" x="764" y="-150" font-family="Helvetica,sans-Serif" font-size="10.00">/renderer/Madgine/render</text>
<text text-anchor="middle" x="818.5" y="-139" font-family="Helvetica,sans-Serif" font-size="10.00">/scenerenderpass.cpp</text>
</a>
</g>
</g>
<!-- Node1&#45;&gt;Node7 -->
<g id="edge6" class="edge">
<title>Node1&#45;&gt;Node7</title>
<path fill="none" stroke="#63b8ff" d="M1284.24,-218.02C1185.28,-211.71 1025.46,-198.44 889.5,-173 886.86,-172.51 884.18,-171.96 881.47,-171.38"/>
<polygon fill="#63b8ff" stroke="#63b8ff" points="1284,-221.51 1294.2,-218.64 1284.43,-214.53 1284,-221.51"/>
</g>
<!-- Node8 -->
<g id="node8" class="node">
<title>Node8</title>
<g id="a_node8"><a xlink:href="shadowrenderpass_8cpp.html" target="_top" xlink:title=" ">
<polygon fill="white" stroke="#666666" points="1024,-173 899,-173 899,-132 1024,-132 1024,-173"/>
<text text-anchor="start" x="907" y="-161" font-family="Helvetica,sans-Serif" font-size="10.00">plugins/misc/scene</text>
<text text-anchor="start" x="907" y="-150" font-family="Helvetica,sans-Serif" font-size="10.00">/renderer/Madgine/render</text>
<text text-anchor="middle" x="961.5" y="-139" font-family="Helvetica,sans-Serif" font-size="10.00">/shadowrenderpass.cpp</text>
</a>
</g>
</g>
<!-- Node1&#45;&gt;Node8 -->
<g id="edge7" class="edge">
<title>Node1&#45;&gt;Node8</title>
<path fill="none" stroke="#63b8ff" d="M1284.09,-212.58C1214.22,-204.08 1116.92,-190.62 1032.5,-173 1029.75,-172.43 1026.94,-171.81 1024.12,-171.15"/>
<polygon fill="#63b8ff" stroke="#63b8ff" points="1283.65,-216.05 1294,-213.77 1284.49,-209.1 1283.65,-216.05"/>
</g>
<!-- Node9 -->
<g id="node9" class="node">
<title>Node9</title>
<g id="a_node9"><a xlink:href="gridpass_8cpp.html" target="_top" xlink:title=" ">
<polygon fill="white" stroke="#666666" points="1199,-173 1042,-173 1042,-132 1199,-132 1199,-173"/>
<text text-anchor="start" x="1050" y="-161" font-family="Helvetica,sans-Serif" font-size="10.00">plugins/misc/scene</text>
<text text-anchor="start" x="1050" y="-150" font-family="Helvetica,sans-Serif" font-size="10.00">/renderer_tools/Madgine</text>
<text text-anchor="middle" x="1120.5" y="-139" font-family="Helvetica,sans-Serif" font-size="10.00">_Tools/sceneeditor/gridpass.cpp</text>
</a>
</g>
</g>
<!-- Node1&#45;&gt;Node9 -->
<g id="edge8" class="edge">
<title>Node1&#45;&gt;Node9</title>
<path fill="none" stroke="#63b8ff" d="M1313.77,-205.56C1277.43,-195.77 1231.96,-183.53 1194.26,-173.37"/>
<polygon fill="#63b8ff" stroke="#63b8ff" points="1312.7,-208.9 1323.27,-208.12 1314.52,-202.14 1312.7,-208.9"/>
</g>
<!-- Node10 -->
<g id="node10" class="node">
<title>Node10</title>
<g id="a_node10"><a xlink:href="sceneview_8cpp.html" target="_top" xlink:title=" ">
<polygon fill="white" stroke="#666666" points="1384,-173 1217,-173 1217,-132 1384,-132 1384,-173"/>
<text text-anchor="start" x="1225" y="-161" font-family="Helvetica,sans-Serif" font-size="10.00">plugins/misc/scene</text>
<text text-anchor="start" x="1225" y="-150" font-family="Helvetica,sans-Serif" font-size="10.00">/renderer_tools/Madgine</text>
<text text-anchor="middle" x="1300.5" y="-139" font-family="Helvetica,sans-Serif" font-size="10.00">_Tools/sceneeditor/sceneview.cpp</text>
</a>
</g>
</g>
<!-- Node1&#45;&gt;Node10 -->
<g id="edge9" class="edge">
<title>Node1&#45;&gt;Node10</title>
<path fill="none" stroke="#63b8ff" d="M1354.03,-201.2C1344.06,-192.31 1332.6,-182.1 1322.85,-173.42"/>
<polygon fill="#63b8ff" stroke="#63b8ff" points="1351.41,-203.55 1361.21,-207.59 1356.07,-198.33 1351.41,-203.55"/>
</g>
<!-- Node11 -->
<g id="node11" class="node">
<title>Node11</title>
<g id="a_node11"><a xlink:href="scenewindow_8cpp.html" target="_top" xlink:title=" ">
<polygon fill="white" stroke="#666666" points="1512.5,-173 1402.5,-173 1402.5,-132 1512.5,-132 1512.5,-173"/>
<text text-anchor="start" x="1410.5" y="-161" font-family="Helvetica,sans-Serif" font-size="10.00">plugins/misc/widgets</text>
<text text-anchor="start" x="1410.5" y="-150" font-family="Helvetica,sans-Serif" font-size="10.00">/src/Madgine/widgets</text>
<text text-anchor="middle" x="1457.5" y="-139" font-family="Helvetica,sans-Serif" font-size="10.00">/scenewindow.cpp</text>
</a>
</g>
</g>
<!-- Node1&#45;&gt;Node11 -->
<g id="edge10" class="edge">
<title>Node1&#45;&gt;Node11</title>
<path fill="none" stroke="#63b8ff" d="M1403.28,-201.2C1413.39,-192.31 1424.99,-182.1 1434.86,-173.42"/>
<polygon fill="#63b8ff" stroke="#63b8ff" points="1401.2,-198.37 1396.01,-207.6 1405.83,-203.62 1401.2,-198.37"/>
</g>
<!-- Node12 -->
<g id="node12" class="node">
<title>Node12</title>
<g id="a_node12"><a xlink:href="widgetmanager_8cpp.html" target="_top" xlink:title=" ">
<polygon fill="white" stroke="#666666" points="1640.5,-173 1530.5,-173 1530.5,-132 1640.5,-132 1640.5,-173"/>
<text text-anchor="start" x="1538.5" y="-161" font-family="Helvetica,sans-Serif" font-size="10.00">plugins/misc/widgets</text>
<text text-anchor="start" x="1538.5" y="-150" font-family="Helvetica,sans-Serif" font-size="10.00">/src/Madgine/widgets</text>
<text text-anchor="middle" x="1585.5" y="-139" font-family="Helvetica,sans-Serif" font-size="10.00">/widgetmanager.cpp</text>
</a>
</g>
</g>
<!-- Node1&#45;&gt;Node12 -->
<g id="edge11" class="edge">
<title>Node1&#45;&gt;Node12</title>
<path fill="none" stroke="#63b8ff" d="M1432.37,-204.91C1462.46,-194.81 1499.88,-182.25 1530.2,-172.07"/>
<polygon fill="#63b8ff" stroke="#63b8ff" points="1431.44,-201.53 1423.08,-208.03 1433.67,-208.17 1431.44,-201.53"/>
</g>
<!-- Node13 -->
<g id="node13" class="node">
<title>Node13</title>
<g id="a_node13"><a xlink:href="bloompass_8cpp.html" target="_top" xlink:title=" ">
<polygon fill="white" stroke="#666666" points="1796,-173 1659,-173 1659,-132 1796,-132 1796,-173"/>
<text text-anchor="start" x="1667" y="-161" font-family="Helvetica,sans-Serif" font-size="10.00">plugins/renderer/api</text>
<text text-anchor="start" x="1667" y="-150" font-family="Helvetica,sans-Serif" font-size="10.00">/src/Madgine/render/passes</text>
<text text-anchor="middle" x="1727.5" y="-139" font-family="Helvetica,sans-Serif" font-size="10.00">/bloompass.cpp</text>
</a>
</g>
</g>
<!-- Node1&#45;&gt;Node13 -->
<g id="edge12" class="edge">
<title>Node1&#45;&gt;Node13</title>
<path fill="none" stroke="#63b8ff" d="M1472.76,-207.1C1525,-197.92 1591.02,-185.69 1649.5,-173 1652.5,-172.35 1655.56,-171.67 1658.65,-170.96"/>
<polygon fill="#63b8ff" stroke="#63b8ff" points="1472.23,-203.64 1462.98,-208.81 1473.44,-210.54 1472.23,-203.64"/>
</g>
<!-- Node14 -->
<g id="node14" class="node">
<title>Node14</title>
<g id="a_node14"><a xlink:href="blurpass_8cpp.html" target="_top" xlink:title=" ">
<polygon fill="white" stroke="#666666" points="1951,-173 1814,-173 1814,-132 1951,-132 1951,-173"/>
<text text-anchor="start" x="1822" y="-161" font-family="Helvetica,sans-Serif" font-size="10.00">plugins/renderer/api</text>
<text text-anchor="start" x="1822" y="-150" font-family="Helvetica,sans-Serif" font-size="10.00">/src/Madgine/render/passes</text>
<text text-anchor="middle" x="1882.5" y="-139" font-family="Helvetica,sans-Serif" font-size="10.00">/blurpass.cpp</text>
</a>
</g>
</g>
<!-- Node1&#45;&gt;Node14 -->
<g id="edge13" class="edge">
<title>Node1&#45;&gt;Node14</title>
<path fill="none" stroke="#63b8ff" d="M1472.82,-215.42C1559.49,-207.64 1691.28,-193.71 1804.5,-173 1807.52,-172.45 1810.6,-171.85 1813.7,-171.21"/>
<polygon fill="#63b8ff" stroke="#63b8ff" points="1472.59,-211.93 1462.94,-216.3 1473.21,-218.9 1472.59,-211.93"/>
</g>
<!-- Node15 -->
<g id="node15" class="node">
<title>Node15</title>
<g id="a_node15"><a xlink:href="rendercontext_8cpp.html" target="_top" xlink:title=" ">
<polygon fill="white" stroke="#666666" points="2151.5,-167.5 1969.5,-167.5 1969.5,-137.5 2151.5,-137.5 2151.5,-167.5"/>
<text text-anchor="start" x="1977.5" y="-155.5" font-family="Helvetica,sans-Serif" font-size="10.00">plugins/renderer/api</text>
<text text-anchor="middle" x="2060.5" y="-144.5" font-family="Helvetica,sans-Serif" font-size="10.00">/src/Madgine/render/rendercontext.cpp</text>
</a>
</g>
</g>
<!-- Node1&#45;&gt;Node15 -->
<g id="edge14" class="edge">
<title>Node1&#45;&gt;Node15</title>
<path fill="none" stroke="#63b8ff" d="M1472.28,-217.96C1587.42,-211.08 1788.46,-196.8 1959.5,-173 1969.58,-171.6 1980.18,-169.85 1990.57,-167.99"/>
<polygon fill="#63b8ff" stroke="#63b8ff" points="1472.36,-214.45 1462.58,-218.54 1472.77,-221.44 1472.36,-214.45"/>
</g>
<!-- Node16 -->
<g id="node16" class="node">
<title>Node16</title>
<g id="a_node16"><a xlink:href="rendertarget_8cpp.html" target="_top" xlink:title=" ">
<polygon fill="white" stroke="#666666" points="2345.5,-167.5 2169.5,-167.5 2169.5,-137.5 2345.5,-137.5 2345.5,-167.5"/>
<text text-anchor="start" x="2177.5" y="-155.5" font-family="Helvetica,sans-Serif" font-size="10.00">plugins/renderer/api</text>
<text text-anchor="middle" x="2257.5" y="-144.5" font-family="Helvetica,sans-Serif" font-size="10.00">/src/Madgine/render/rendertarget.cpp</text>
</a>
</g>
</g>
<!-- Node1&#45;&gt;Node16 -->
<g id="edge15" class="edge">
<title>Node1&#45;&gt;Node16</title>
<path fill="none" stroke="#63b8ff" d="M1472.54,-221.07C1619.8,-217.13 1913.54,-205.57 2160.5,-173 2170.63,-171.66 2181.3,-169.9 2191.69,-167.97"/>
<polygon fill="#63b8ff" stroke="#63b8ff" points="1472.75,-217.56 1462.84,-221.32 1472.93,-224.56 1472.75,-217.56"/>
</g>
<!-- Node17 -->
<g id="node17" class="node">
<title>Node17</title>
<g id="a_node17"><a xlink:href="directx12rendertarget_8h.html" target="_top" xlink:title=" ">
<polygon fill="white" stroke="#666666" points="2543.5,-167.5 2363.5,-167.5 2363.5,-137.5 2543.5,-137.5 2543.5,-167.5"/>
<text text-anchor="start" x="2371.5" y="-155.5" font-family="Helvetica,sans-Serif" font-size="10.00">plugins/renderer/directx12</text>
<text text-anchor="middle" x="2453.5" y="-144.5" font-family="Helvetica,sans-Serif" font-size="10.00">/src/DirectX12/directx12rendertarget.h</text>
</a>
</g>
</g>
<!-- Node1&#45;&gt;Node17 -->
<g id="edge16" class="edge">
<title>Node1&#45;&gt;Node17</title>
<path fill="none" stroke="#63b8ff" d="M1472.88,-222.65C1647.55,-221 2032.74,-212.72 2354.5,-173 2365.02,-171.7 2376.09,-169.93 2386.88,-167.98"/>
<polygon fill="#63b8ff" stroke="#63b8ff" points="1472.91,-219.15 1462.95,-222.74 1472.98,-226.15 1472.91,-219.15"/>
</g>
<!-- Node26 -->
<g id="node26" class="node">
<title>Node26</title>
<g id="a_node26"><a xlink:href="openglrendertarget_8h.html" target="_top" xlink:title=" ">
<polygon fill="white" stroke="#666666" points="3165.5,-167.5 3001.5,-167.5 3001.5,-137.5 3165.5,-137.5 3165.5,-167.5"/>
<text text-anchor="start" x="3009.5" y="-155.5" font-family="Helvetica,sans-Serif" font-size="10.00">plugins/renderer/opengl</text>
<text text-anchor="middle" x="3083.5" y="-144.5" font-family="Helvetica,sans-Serif" font-size="10.00">/src/OpenGL/openglrendertarget.h</text>
</a>
</g>
</g>
<!-- Node1&#45;&gt;Node26 -->
<g id="edge27" class="edge">
<title>Node1&#45;&gt;Node26</title>
<path fill="none" stroke="#63b8ff" d="M1472.65,-219.16C1774.74,-206.85 2716.51,-168.46 3001.18,-156.86"/>
<polygon fill="#63b8ff" stroke="#63b8ff" points="1472.67,-215.66 1462.82,-219.56 1472.96,-222.65 1472.67,-215.66"/>
</g>
<!-- Node34 -->
<g id="node34" class="node">
<title>Node34</title>
<g id="a_node34"><a xlink:href="vulkanrendertarget_8h.html" target="_top" xlink:title=" ">
<polygon fill="white" stroke="#666666" points="4087,-167.5 3930,-167.5 3930,-137.5 4087,-137.5 4087,-167.5"/>
<text text-anchor="start" x="3938" y="-155.5" font-family="Helvetica,sans-Serif" font-size="10.00">plugins/renderer/vulkan</text>
<text text-anchor="middle" x="4008.5" y="-144.5" font-family="Helvetica,sans-Serif" font-size="10.00">/src/Vulkan/vulkanrendertarget.h</text>
</a>
</g>
</g>
<!-- Node1&#45;&gt;Node34 -->
<g id="edge36" class="edge">
<title>Node1&#45;&gt;Node34</title>
<path fill="none" stroke="#63b8ff" d="M1472.5,-220.52C1886.91,-209.56 3547.03,-165.69 3929.59,-155.59"/>
<polygon fill="#63b8ff" stroke="#63b8ff" points="1472.61,-217.01 1462.7,-220.77 1472.79,-224.01 1472.61,-217.01"/>
</g>
<!-- Node18 -->
<g id="node18" class="node">
<title>Node18</title>
<g id="a_node18"><a xlink:href="directx12rendertarget_8cpp.html" target="_top" xlink:title=" ">
<polygon fill="white" stroke="#666666" points="1921,-30 1730,-30 1730,0 1921,0 1921,-30"/>
<text text-anchor="start" x="1738" y="-18" font-family="Helvetica,sans-Serif" font-size="10.00">plugins/renderer/directx12</text>
<text text-anchor="middle" x="1825.5" y="-7" font-family="Helvetica,sans-Serif" font-size="10.00">/src/DirectX12/directx12rendertarget.cpp</text>
</a>
</g>
</g>
<!-- Node17&#45;&gt;Node18 -->
<g id="edge17" class="edge">
<title>Node17&#45;&gt;Node18</title>
<path fill="none" stroke="#63b8ff" d="M2374.11,-135.08C2367.49,-133.95 2360.89,-132.9 2354.5,-132 2169.86,-105.94 2111.33,-160.85 1936.5,-96 1897.3,-81.46 1859.54,-49.1 1839.76,-30.29"/>
<polygon fill="#63b8ff" stroke="#63b8ff" points="2373.28,-138.49 2383.74,-136.78 2374.5,-131.59 2373.28,-138.49"/>
</g>
<!-- Node19 -->
<g id="node19" class="node">
<title>Node19</title>
<g id="a_node19"><a xlink:href="directx12rendertexture_8h.html" target="_top" xlink:title=" ">
<polygon fill="white" stroke="#666666" points="2131,-96 1946,-96 1946,-66 2131,-66 2131,-96"/>
<text text-anchor="start" x="1954" y="-84" font-family="Helvetica,sans-Serif" font-size="10.00">plugins/renderer/directx12</text>
<text text-anchor="middle" x="2038.5" y="-73" font-family="Helvetica,sans-Serif" font-size="10.00">/src/DirectX12/directx12rendertexture.h</text>
</a>
</g>
</g>
<!-- Node17&#45;&gt;Node19 -->
<g id="edge18" class="edge">
<title>Node17&#45;&gt;Node19</title>
<path fill="none" stroke="#63b8ff" d="M2370.51,-134.92C2365.1,-133.91 2359.72,-132.93 2354.5,-132 2279.58,-118.7 2194.34,-105.31 2131.3,-95.75"/>
<polygon fill="#63b8ff" stroke="#63b8ff" points="2369.68,-138.32 2380.16,-136.74 2370.98,-131.44 2369.68,-138.32"/>
</g>
<!-- Node22 -->
<g id="node22" class="node">
<title>Node22</title>
<g id="a_node22"><a xlink:href="directx12renderwindow_8h.html" target="_top" xlink:title=" ">
<polygon fill="white" stroke="#666666" points="2341.5,-96 2153.5,-96 2153.5,-66 2341.5,-66 2341.5,-96"/>
<text text-anchor="start" x="2161.5" y="-84" font-family="Helvetica,sans-Serif" font-size="10.00">plugins/renderer/directx12</text>
<text text-anchor="middle" x="2247.5" y="-73" font-family="Helvetica,sans-Serif" font-size="10.00">/src/DirectX12/directx12renderwindow.h</text>
</a>
</g>
</g>
<!-- Node17&#45;&gt;Node22 -->
<g id="edge22" class="edge">
<title>Node17&#45;&gt;Node22</title>
<path fill="none" stroke="#63b8ff" d="M2399.85,-133.4C2365.74,-121.89 2322.18,-107.19 2290.38,-96.47"/>
<polygon fill="#63b8ff" stroke="#63b8ff" points="2398.54,-136.65 2409.13,-136.53 2400.78,-130.02 2398.54,-136.65"/>
</g>
<!-- Node24 -->
<g id="node24" class="node">
<title>Node24</title>
<g id="a_node24"><a xlink:href="directx12pipeline_8cpp.html" target="_top" xlink:title=" ">
<polygon fill="white" stroke="#666666" points="2547.5,-96 2359.5,-96 2359.5,-66 2547.5,-66 2547.5,-96"/>
<text text-anchor="start" x="2367.5" y="-84" font-family="Helvetica,sans-Serif" font-size="10.00">plugins/renderer/directx12</text>
<text text-anchor="middle" x="2453.5" y="-73" font-family="Helvetica,sans-Serif" font-size="10.00">/src/DirectX12/util/directx12pipeline.cpp</text>
</a>
</g>
</g>
<!-- Node17&#45;&gt;Node24 -->
<g id="edge25" class="edge">
<title>Node17&#45;&gt;Node24</title>
<path fill="none" stroke="#63b8ff" d="M2453.5,-125.76C2453.5,-115.83 2453.5,-104.86 2453.5,-96.38"/>
<polygon fill="#63b8ff" stroke="#63b8ff" points="2450,-125.59 2453.5,-135.59 2457,-125.59 2450,-125.59"/>
</g>
<!-- Node25 -->
<g id="node25" class="node">
<title>Node25</title>
<g id="a_node25"><a xlink:href="directx12pipelineinstance_8cpp.html" target="_top" xlink:title=" ">
<polygon fill="white" stroke="#666666" points="2789.5,-96 2565.5,-96 2565.5,-66 2789.5,-66 2789.5,-96"/>
<text text-anchor="start" x="2573.5" y="-84" font-family="Helvetica,sans-Serif" font-size="10.00">plugins/renderer/directx12</text>
<text text-anchor="middle" x="2677.5" y="-73" font-family="Helvetica,sans-Serif" font-size="10.00">/src/DirectX12/util/directx12pipelineinstance.cpp</text>
</a>
</g>
</g>
<!-- Node17&#45;&gt;Node25 -->
<g id="edge26" class="edge">
<title>Node17&#45;&gt;Node25</title>
<path fill="none" stroke="#63b8ff" d="M2510.88,-133.7C2548.1,-122.15 2596,-107.29 2630.88,-96.47"/>
<polygon fill="#63b8ff" stroke="#63b8ff" points="2510.14,-130.26 2501.63,-136.57 2512.22,-136.95 2510.14,-130.26"/>
</g>
<!-- Node19&#45;&gt;Node18 -->
<g id="edge20" class="edge">
<title>Node19&#45;&gt;Node18</title>
<path fill="none" stroke="#63b8ff" d="M1979.43,-62.25C1946.01,-52.21 1904.77,-39.82 1873.39,-30.39"/>
<polygon fill="#63b8ff" stroke="#63b8ff" points="1978.4,-65.6 1988.98,-65.12 1980.41,-58.89 1978.4,-65.6"/>
</g>
<!-- Node20 -->
<g id="node20" class="node">
<title>Node20</title>
<g id="a_node20"><a xlink:href="directx12rendercontext_8cpp.html" target="_top" xlink:title=" ">
<polygon fill="white" stroke="#666666" points="2349,-30 2152,-30 2152,0 2349,0 2349,-30"/>
<text text-anchor="start" x="2160" y="-18" font-family="Helvetica,sans-Serif" font-size="10.00">plugins/renderer/directx12</text>
<text text-anchor="middle" x="2250.5" y="-7" font-family="Helvetica,sans-Serif" font-size="10.00">/src/DirectX12/directx12rendercontext.cpp</text>
</a>
</g>
</g>
<!-- Node19&#45;&gt;Node20 -->
<g id="edge19" class="edge">
<title>Node19&#45;&gt;Node20</title>
<path fill="none" stroke="#63b8ff" d="M2097.3,-62.25C2130.55,-52.21 2171.6,-39.82 2202.83,-30.39"/>
<polygon fill="#63b8ff" stroke="#63b8ff" points="2096.35,-58.88 2087.79,-65.12 2098.38,-65.58 2096.35,-58.88"/>
</g>
<!-- Node21 -->
<g id="node21" class="node">
<title>Node21</title>
<g id="a_node21"><a xlink:href="directx12rendertexture_8cpp.html" target="_top" xlink:title=" ">
<polygon fill="white" stroke="#666666" points="2134,-30 1939,-30 1939,0 2134,0 2134,-30"/>
<text text-anchor="start" x="1947" y="-18" font-family="Helvetica,sans-Serif" font-size="10.00">plugins/renderer/directx12</text>
<text text-anchor="middle" x="2036.5" y="-7" font-family="Helvetica,sans-Serif" font-size="10.00">/src/DirectX12/directx12rendertexture.cpp</text>
</a>
</g>
</g>
<!-- Node19&#45;&gt;Node21 -->
<g id="edge21" class="edge">
<title>Node19&#45;&gt;Node21</title>
<path fill="none" stroke="#63b8ff" d="M2037.7,-54.39C2037.44,-46.13 2037.17,-37.28 2036.94,-30.16"/>
<polygon fill="#63b8ff" stroke="#63b8ff" points="2034.2,-54.4 2038.01,-64.28 2041.19,-54.18 2034.2,-54.4"/>
</g>
<!-- Node22&#45;&gt;Node20 -->
<g id="edge23" class="edge">
<title>Node22&#45;&gt;Node20</title>
<path fill="none" stroke="#63b8ff" d="M2248.7,-54.39C2249.09,-46.13 2249.5,-37.28 2249.84,-30.16"/>
<polygon fill="#63b8ff" stroke="#63b8ff" points="2245.21,-54.13 2248.24,-64.28 2252.2,-54.46 2245.21,-54.13"/>
</g>
<!-- Node23 -->
<g id="node23" class="node">
<title>Node23</title>
<g id="a_node23"><a xlink:href="directx12renderwindow_8cpp.html" target="_top" xlink:title=" ">
<polygon fill="white" stroke="#666666" points="2566,-30 2367,-30 2367,0 2566,0 2566,-30"/>
<text text-anchor="start" x="2375" y="-18" font-family="Helvetica,sans-Serif" font-size="10.00">plugins/renderer/directx12</text>
<text text-anchor="middle" x="2466.5" y="-7" font-family="Helvetica,sans-Serif" font-size="10.00">/src/DirectX12/directx12renderwindow.cpp</text>
</a>
</g>
</g>
<!-- Node22&#45;&gt;Node23 -->
<g id="edge24" class="edge">
<title>Node22&#45;&gt;Node23</title>
<path fill="none" stroke="#63b8ff" d="M2307.79,-62.38C2342.22,-52.32 2384.85,-39.86 2417.26,-30.39"/>
<polygon fill="#63b8ff" stroke="#63b8ff" points="2306.99,-58.97 2298.37,-65.13 2308.95,-65.69 2306.99,-58.97"/>
</g>
<!-- Node27 -->
<g id="node27" class="node">
<title>Node27</title>
<g id="a_node27"><a xlink:href="openglrendertarget_8cpp.html" target="_top" xlink:title=" ">
<polygon fill="white" stroke="#666666" points="2981.5,-96 2807.5,-96 2807.5,-66 2981.5,-66 2981.5,-96"/>
<text text-anchor="start" x="2815.5" y="-84" font-family="Helvetica,sans-Serif" font-size="10.00">plugins/renderer/opengl</text>
<text text-anchor="middle" x="2894.5" y="-73" font-family="Helvetica,sans-Serif" font-size="10.00">/src/OpenGL/openglrendertarget.cpp</text>
</a>
</g>
</g>
<!-- Node26&#45;&gt;Node27 -->
<g id="edge28" class="edge">
<title>Node26&#45;&gt;Node27</title>
<path fill="none" stroke="#63b8ff" d="M3033.66,-133.17C3002.38,-121.67 2962.61,-107.05 2933.61,-96.38"/>
<polygon fill="#63b8ff" stroke="#63b8ff" points="3032.33,-136.41 3042.92,-136.58 3034.74,-129.84 3032.33,-136.41"/>
</g>
<!-- Node28 -->
<g id="node28" class="node">
<title>Node28</title>
<g id="a_node28"><a xlink:href="openglrendertexture_8h.html" target="_top" xlink:title=" ">
<polygon fill="white" stroke="#666666" points="3167.5,-96 2999.5,-96 2999.5,-66 3167.5,-66 3167.5,-96"/>
<text text-anchor="start" x="3007.5" y="-84" font-family="Helvetica,sans-Serif" font-size="10.00">plugins/renderer/opengl</text>
<text text-anchor="middle" x="3083.5" y="-73" font-family="Helvetica,sans-Serif" font-size="10.00">/src/OpenGL/openglrendertexture.h</text>
</a>
</g>
</g>
<!-- Node26&#45;&gt;Node28 -->
<g id="edge29" class="edge">
<title>Node26&#45;&gt;Node28</title>
<path fill="none" stroke="#63b8ff" d="M3083.5,-125.76C3083.5,-115.83 3083.5,-104.86 3083.5,-96.38"/>
<polygon fill="#63b8ff" stroke="#63b8ff" points="3080,-125.59 3083.5,-135.59 3087,-125.59 3080,-125.59"/>
</g>
<!-- Node31 -->
<g id="node31" class="node">
<title>Node31</title>
<g id="a_node31"><a xlink:href="openglrenderwindow_8h.html" target="_top" xlink:title=" ">
<polygon fill="white" stroke="#666666" points="3357.5,-96 3185.5,-96 3185.5,-66 3357.5,-66 3357.5,-96"/>
<text text-anchor="start" x="3193.5" y="-84" font-family="Helvetica,sans-Serif" font-size="10.00">plugins/renderer/opengl</text>
<text text-anchor="middle" x="3271.5" y="-73" font-family="Helvetica,sans-Serif" font-size="10.00">/src/OpenGL/openglrenderwindow.h</text>
</a>
</g>
</g>
<!-- Node26&#45;&gt;Node31 -->
<g id="edge32" class="edge">
<title>Node26&#45;&gt;Node31</title>
<path fill="none" stroke="#63b8ff" d="M3133.08,-133.17C3164.19,-121.67 3203.75,-107.05 3232.6,-96.38"/>
<polygon fill="#63b8ff" stroke="#63b8ff" points="3132.04,-129.82 3123.87,-136.57 3134.47,-136.39 3132.04,-129.82"/>
</g>
<!-- Node33 -->
<g id="node33" class="node">
<title>Node33</title>
<g id="a_node33"><a xlink:href="openglpipelineinstance_8cpp.html" target="_top" xlink:title=" ">
<polygon fill="white" stroke="#666666" points="3583.5,-96 3375.5,-96 3375.5,-66 3583.5,-66 3583.5,-96"/>
<text text-anchor="start" x="3383.5" y="-84" font-family="Helvetica,sans-Serif" font-size="10.00">plugins/renderer/opengl</text>
<text text-anchor="middle" x="3479.5" y="-73" font-family="Helvetica,sans-Serif" font-size="10.00">/src/OpenGL/util/openglpipelineinstance.cpp</text>
</a>
</g>
</g>
<!-- Node26&#45;&gt;Node33 -->
<g id="edge35" class="edge">
<title>Node26&#45;&gt;Node33</title>
<path fill="none" stroke="#63b8ff" d="M3176.51,-135.18C3243.44,-123.43 3332.88,-107.73 3397.21,-96.44"/>
<polygon fill="#63b8ff" stroke="#63b8ff" points="3176.29,-131.66 3167.04,-136.84 3177.5,-138.56 3176.29,-131.66"/>
</g>
<!-- Node29 -->
<g id="node29" class="node">
<title>Node29</title>
<g id="a_node29"><a xlink:href="openglrendercontext_8cpp.html" target="_top" xlink:title=" ">
<polygon fill="white" stroke="#666666" points="3268,-30 3087,-30 3087,0 3268,0 3268,-30"/>
<text text-anchor="start" x="3095" y="-18" font-family="Helvetica,sans-Serif" font-size="10.00">plugins/renderer/opengl</text>
<text text-anchor="middle" x="3177.5" y="-7" font-family="Helvetica,sans-Serif" font-size="10.00">/src/OpenGL/openglrendercontext.cpp</text>
</a>
</g>
</g>
<!-- Node28&#45;&gt;Node29 -->
<g id="edge30" class="edge">
<title>Node28&#45;&gt;Node29</title>
<path fill="none" stroke="#63b8ff" d="M3113.57,-59.52C3127.52,-50.03 3143.75,-38.98 3156.37,-30.39"/>
<polygon fill="#63b8ff" stroke="#63b8ff" points="3111.91,-56.42 3105.61,-64.94 3115.85,-62.21 3111.91,-56.42"/>
</g>
<!-- Node30 -->
<g id="node30" class="node">
<title>Node30</title>
<g id="a_node30"><a xlink:href="openglrendertexture_8cpp.html" target="_top" xlink:title=" ">
<polygon fill="white" stroke="#666666" points="3069,-30 2890,-30 2890,0 3069,0 3069,-30"/>
<text text-anchor="start" x="2898" y="-18" font-family="Helvetica,sans-Serif" font-size="10.00">plugins/renderer/opengl</text>
<text text-anchor="middle" x="2979.5" y="-7" font-family="Helvetica,sans-Serif" font-size="10.00">/src/OpenGL/openglrendertexture.cpp</text>
</a>
</g>
</g>
<!-- Node28&#45;&gt;Node30 -->
<g id="edge31" class="edge">
<title>Node28&#45;&gt;Node30</title>
<path fill="none" stroke="#63b8ff" d="M3050.41,-59.64C3034.9,-50.09 3016.8,-38.95 3002.76,-30.31"/>
<polygon fill="#63b8ff" stroke="#63b8ff" points="3048.52,-62.58 3058.87,-64.84 3052.19,-56.62 3048.52,-62.58"/>
</g>
<!-- Node31&#45;&gt;Node29 -->
<g id="edge33" class="edge">
<title>Node31&#45;&gt;Node29</title>
<path fill="none" stroke="#63b8ff" d="M3241.43,-59.52C3227.48,-50.03 3211.25,-38.98 3198.63,-30.39"/>
<polygon fill="#63b8ff" stroke="#63b8ff" points="3239.15,-62.21 3249.39,-64.94 3243.09,-56.42 3239.15,-62.21"/>
</g>
<!-- Node32 -->
<g id="node32" class="node">
<title>Node32</title>
<g id="a_node32"><a xlink:href="openglrenderwindow_8cpp.html" target="_top" xlink:title=" ">
<polygon fill="white" stroke="#666666" points="3468.5,-30 3286.5,-30 3286.5,0 3468.5,0 3468.5,-30"/>
<text text-anchor="start" x="3294.5" y="-18" font-family="Helvetica,sans-Serif" font-size="10.00">plugins/renderer/opengl</text>
<text text-anchor="middle" x="3377.5" y="-7" font-family="Helvetica,sans-Serif" font-size="10.00">/src/OpenGL/openglrenderwindow.cpp</text>
</a>
</g>
</g>
<!-- Node31&#45;&gt;Node32 -->
<g id="edge34" class="edge">
<title>Node31&#45;&gt;Node32</title>
<path fill="none" stroke="#63b8ff" d="M3304.77,-59.91C3320.68,-50.31 3339.35,-39.03 3353.79,-30.31"/>
<polygon fill="#63b8ff" stroke="#63b8ff" points="3303.34,-56.69 3296.58,-64.85 3306.95,-62.68 3303.34,-56.69"/>
</g>
<!-- Node35 -->
<g id="node35" class="node">
<title>Node35</title>
<g id="a_node35"><a xlink:href="vulkancommandlist_8cpp.html" target="_top" xlink:title=" ">
<polygon fill="white" stroke="#666666" points="3789,-96 3602,-96 3602,-66 3789,-66 3789,-96"/>
<text text-anchor="start" x="3610" y="-84" font-family="Helvetica,sans-Serif" font-size="10.00">plugins/renderer/vulkan</text>
<text text-anchor="middle" x="3695.5" y="-73" font-family="Helvetica,sans-Serif" font-size="10.00">/src/Vulkan/util/vulkancommandlist.cpp</text>
</a>
</g>
</g>
<!-- Node34&#45;&gt;Node35 -->
<g id="edge37" class="edge">
<title>Node34&#45;&gt;Node35</title>
<path fill="none" stroke="#63b8ff" d="M3932.32,-134.58C3879.77,-122.92 3810.64,-107.57 3760.65,-96.47"/>
<polygon fill="#63b8ff" stroke="#63b8ff" points="3931.27,-137.94 3941.79,-136.69 3932.78,-131.1 3931.27,-137.94"/>
</g>
<!-- Node36 -->
<g id="node36" class="node">
<title>Node36</title>
<g id="a_node36"><a xlink:href="vulkanpipelineinstance_8cpp.html" target="_top" xlink:title=" ">
<polygon fill="white" stroke="#666666" points="4008,-96 3807,-96 3807,-66 4008,-66 4008,-96"/>
<text text-anchor="start" x="3815" y="-84" font-family="Helvetica,sans-Serif" font-size="10.00">plugins/renderer/vulkan</text>
<text text-anchor="middle" x="3907.5" y="-73" font-family="Helvetica,sans-Serif" font-size="10.00">/src/Vulkan/util/vulkanpipelineinstance.cpp</text>
</a>
</g>
</g>
<!-- Node34&#45;&gt;Node36 -->
<g id="edge38" class="edge">
<title>Node34&#45;&gt;Node36</title>
<path fill="none" stroke="#63b8ff" d="M3978.52,-130.87C3962.39,-119.77 3942.88,-106.35 3928.4,-96.38"/>
<polygon fill="#63b8ff" stroke="#63b8ff" points="3976.1,-133.46 3986.33,-136.24 3980.07,-127.69 3976.1,-133.46"/>
</g>
<!-- Node37 -->
<g id="node37" class="node">
<title>Node37</title>
<g id="a_node37"><a xlink:href="vulkanrendertarget_8cpp.html" target="_top" xlink:title=" ">
<polygon fill="white" stroke="#666666" points="4193,-96 4026,-96 4026,-66 4193,-66 4193,-96"/>
<text text-anchor="start" x="4034" y="-84" font-family="Helvetica,sans-Serif" font-size="10.00">plugins/renderer/vulkan</text>
<text text-anchor="middle" x="4109.5" y="-73" font-family="Helvetica,sans-Serif" font-size="10.00">/src/Vulkan/vulkanrendertarget.cpp</text>
</a>
</g>
</g>
<!-- Node34&#45;&gt;Node37 -->
<g id="edge39" class="edge">
<title>Node34&#45;&gt;Node37</title>
<path fill="none" stroke="#63b8ff" d="M4038.48,-130.87C4054.61,-119.77 4074.12,-106.35 4088.6,-96.38"/>
<polygon fill="#63b8ff" stroke="#63b8ff" points="4036.93,-127.69 4030.67,-136.24 4040.9,-133.46 4036.93,-127.69"/>
</g>
<!-- Node38 -->
<g id="node38" class="node">
<title>Node38</title>
<g id="a_node38"><a xlink:href="vulkanrendertexture_8h.html" target="_top" xlink:title=" ">
<polygon fill="white" stroke="#666666" points="4372,-96 4211,-96 4211,-66 4372,-66 4372,-96"/>
<text text-anchor="start" x="4219" y="-84" font-family="Helvetica,sans-Serif" font-size="10.00">plugins/renderer/vulkan</text>
<text text-anchor="middle" x="4291.5" y="-73" font-family="Helvetica,sans-Serif" font-size="10.00">/src/Vulkan/vulkanrendertexture.h</text>
</a>
</g>
</g>
<!-- Node34&#45;&gt;Node38 -->
<g id="edge40" class="edge">
<title>Node34&#45;&gt;Node38</title>
<path fill="none" stroke="#63b8ff" d="M4078.58,-134.29C4125.94,-122.66 4187.77,-107.47 4232.59,-96.47"/>
<polygon fill="#63b8ff" stroke="#63b8ff" points="4077.83,-130.87 4068.95,-136.65 4079.5,-137.67 4077.83,-130.87"/>
</g>
<!-- Node41 -->
<g id="node41" class="node">
<title>Node41</title>
<g id="a_node41"><a xlink:href="vulkanrenderwindow_8h.html" target="_top" xlink:title=" ">
<polygon fill="white" stroke="#666666" points="4555,-96 4390,-96 4390,-66 4555,-66 4555,-96"/>
<text text-anchor="start" x="4398" y="-84" font-family="Helvetica,sans-Serif" font-size="10.00">plugins/renderer/vulkan</text>
<text text-anchor="middle" x="4472.5" y="-73" font-family="Helvetica,sans-Serif" font-size="10.00">/src/Vulkan/vulkanrenderwindow.h</text>
</a>
</g>
</g>
<!-- Node34&#45;&gt;Node41 -->
<g id="edge43" class="edge">
<title>Node34&#45;&gt;Node41</title>
<path fill="none" stroke="#63b8ff" d="M4098.82,-138.19C4174.37,-127.02 4284.99,-110.6 4381.5,-96 4384.19,-95.59 4386.92,-95.18 4389.68,-94.76"/>
<polygon fill="#63b8ff" stroke="#63b8ff" points="4098.35,-134.72 4088.96,-139.64 4099.37,-141.65 4098.35,-134.72"/>
</g>
<!-- Node39 -->
<g id="node39" class="node">
<title>Node39</title>
<g id="a_node39"><a xlink:href="vulkanrendercontext_8cpp.html" target="_top" xlink:title=" ">
<polygon fill="white" stroke="#666666" points="4468.5,-30 4294.5,-30 4294.5,0 4468.5,0 4468.5,-30"/>
<text text-anchor="start" x="4302.5" y="-18" font-family="Helvetica,sans-Serif" font-size="10.00">plugins/renderer/vulkan</text>
<text text-anchor="middle" x="4381.5" y="-7" font-family="Helvetica,sans-Serif" font-size="10.00">/src/Vulkan/vulkanrendercontext.cpp</text>
</a>
</g>
</g>
<!-- Node38&#45;&gt;Node39 -->
<g id="edge41" class="edge">
<title>Node38&#45;&gt;Node39</title>
<path fill="none" stroke="#63b8ff" d="M4320.68,-59.25C4333.94,-49.82 4349.3,-38.9 4361.27,-30.39"/>
<polygon fill="#63b8ff" stroke="#63b8ff" points="4318.83,-56.27 4312.71,-64.92 4322.89,-61.98 4318.83,-56.27"/>
</g>
<!-- Node40 -->
<g id="node40" class="node">
<title>Node40</title>
<g id="a_node40"><a xlink:href="vulkanrendertexture_8cpp.html" target="_top" xlink:title=" ">
<polygon fill="white" stroke="#666666" points="4276.5,-30 4104.5,-30 4104.5,0 4276.5,0 4276.5,-30"/>
<text text-anchor="start" x="4112.5" y="-18" font-family="Helvetica,sans-Serif" font-size="10.00">plugins/renderer/vulkan</text>
<text text-anchor="middle" x="4190.5" y="-7" font-family="Helvetica,sans-Serif" font-size="10.00">/src/Vulkan/vulkanrendertexture.cpp</text>
</a>
</g>
</g>
<!-- Node38&#45;&gt;Node40 -->
<g id="edge42" class="edge">
<title>Node38&#45;&gt;Node40</title>
<path fill="none" stroke="#63b8ff" d="M4259.37,-59.64C4244.31,-50.09 4226.72,-38.95 4213.09,-30.31"/>
<polygon fill="#63b8ff" stroke="#63b8ff" points="4257.23,-62.43 4267.56,-64.83 4260.98,-56.52 4257.23,-62.43"/>
</g>
<!-- Node41&#45;&gt;Node39 -->
<g id="edge44" class="edge">
<title>Node41&#45;&gt;Node39</title>
<path fill="none" stroke="#63b8ff" d="M4443,-59.25C4429.59,-49.82 4414.05,-38.9 4401.95,-30.39"/>
<polygon fill="#63b8ff" stroke="#63b8ff" points="4440.87,-62.04 4451.07,-64.93 4444.9,-56.31 4440.87,-62.04"/>
</g>
<!-- Node42 -->
<g id="node42" class="node">
<title>Node42</title>
<g id="a_node42"><a xlink:href="vulkanrenderwindow_8cpp.html" target="_top" xlink:title=" ">
<polygon fill="white" stroke="#666666" points="4662.5,-30 4486.5,-30 4486.5,0 4662.5,0 4662.5,-30"/>
<text text-anchor="start" x="4494.5" y="-18" font-family="Helvetica,sans-Serif" font-size="10.00">plugins/renderer/vulkan</text>
<text text-anchor="middle" x="4574.5" y="-7" font-family="Helvetica,sans-Serif" font-size="10.00">/src/Vulkan/vulkanrenderwindow.cpp</text>
</a>
</g>
</g>
<!-- Node41&#45;&gt;Node42 -->
<g id="edge45" class="edge">
<title>Node41&#45;&gt;Node42</title>
<path fill="none" stroke="#63b8ff" d="M4504.95,-59.64C4520.16,-50.09 4537.92,-38.95 4551.69,-30.31"/>
<polygon fill="#63b8ff" stroke="#63b8ff" points="4503.28,-56.55 4496.67,-64.83 4507,-62.48 4503.28,-56.55"/>
</g>
</g>
</svg>
        <g id="navigator" transform="translate(0 0)" fill="#404254">
                <rect fill="#f2f5e9" fill-opacity="0.5" stroke="#606060" stroke-width=".5" x="0" y="0" width="60" height="60"/>
                <use id="zoomplus" xlink:href="#zoomPlus" x="17" y="9" onmousedown="handleZoom(evt,'in')"/>
                <use id="zoomminus" xlink:href="#zoomMin" x="42" y="9" onmousedown="handleZoom(evt,'out')"/>
                <use id="reset" xlink:href="#resetDef" x="30" y="36" onmousedown="handleReset()"/>
                <g id="arrowUp" xlink:href="#dirArrow" transform="translate(30 24)" onmousedown="handlePan(0,-1)">
                  <use xlink:href="#rim" fill="#404040">
                        <set attributeName="fill" to="#808080" begin="arrowUp.mouseover" end="arrowUp.mouseout"/>
                  </use>
                  <path fill="none" stroke="white" stroke-width="1.5" d="M0,-3.0v7 M-2.5,-0.5L0,-3.0L2.5,-0.5"/>
                </g>
                <g id="arrowRight" xlink:href="#dirArrow" transform="rotate(90) translate(36 -43)" onmousedown="handlePan(1,0)">
                  <use xlink:href="#rim" fill="#404040">
                        <set attributeName="fill" to="#808080" begin="arrowRight.mouseover" end="arrowRight.mouseout"/>
                  </use>
                  <path fill="none" stroke="white" stroke-width="1.5" d="M0,-3.0v7 M-2.5,-0.5L0,-3.0L2.5,-0.5"/>
                </g>
                <g id="arrowDown" xlink:href="#dirArrow" transform="rotate(180) translate(-30 -48)" onmousedown="handlePan(0,1)">
                  <use xlink:href="#rim" fill="#404040">
                        <set attributeName="fill" to="#808080" begin="arrowDown.mouseover" end="arrowDown.mouseout"/>
                  </use>
                  <path fill="none" stroke="white" stroke-width="1.5" d="M0,-3.0v7 M-2.5,-0.5L0,-3.0L2.5,-0.5"/>
                </g>
                <g id="arrowLeft" xlink:href="#dirArrow" transform="rotate(270) translate(-36 17)" onmousedown="handlePan(-1,0)">
                  <use xlink:href="#rim" fill="#404040">
                        <set attributeName="fill" to="#808080" begin="arrowLeft.mouseover" end="arrowLeft.mouseout"/>
                  </use>
                  <path fill="none" stroke="white" stroke-width="1.5" d="M0,-3.0v7 M-2.5,-0.5L0,-3.0L2.5,-0.5"/>
                </g>
        </g>
        <svg viewBox="0 0 15 15" width="100%" height="30px" preserveAspectRatio="xMaxYMin meet">
         <g id="arrow_out" transform="scale(0.3 0.3)">
          <a xlink:href="rendertarget_8h__dep__incl_org.svg" target="_base">
           <rect id="button" ry="5" rx="5" y="6" x="6" height="38" width="38"
                fill="#f2f5e9" fill-opacity="0.5" stroke="#606060" stroke-width="1.0"/>
           <path id="arrow"
             d="M 11.500037,31.436501 C 11.940474,20.09759 22.043105,11.32322 32.158766,21.979434 L 37.068811,17.246167 C 37.068811,17.246167 37.088388,32 37.088388,32 L 22.160133,31.978069 C 22.160133,31.978069 26.997745,27.140456 26.997745,27.140456 C 18.528582,18.264221 13.291696,25.230495 11.500037,31.436501 z"
             style="fill:#404040;"/>
          </a>
         </g>
        </svg>
</svg>
