<?xml version="1.0" encoding="UTF-8" standalone="no"?>
<!DOCTYPE svg PUBLIC "-//W3C//DTD SVG 1.1//EN"
 "http://www.w3.org/Graphics/SVG/1.1/DTD/svg11.dtd">
<!-- Generated by graphviz version 7.0.5 (20221223.1930)
 -->
<!-- Title: plugins/renderer/api/src/Madgine/renderlib.h Pages: 1 -->
<svg width="2176pt" height="115pt"
 viewBox="0.00 0.00 2175.50 115.00" xmlns="http://www.w3.org/2000/svg" xmlns:xlink="http://www.w3.org/1999/xlink">
<g id="graph0" class="graph" transform="scale(1 1) rotate(0) translate(4 111)">
<title>plugins/renderer/api/src/Madgine/renderlib.h</title>
<!-- Node1 -->
<g id="node1" class="node">
<title>Node1</title>
<g id="a_node1"><a xlink:title=" ">
<polygon fill="#999999" stroke="#666666" points="1028,-107 908,-107 908,-77 1028,-77 1028,-107"/>
<text text-anchor="start" x="916" y="-95" font-family="Helvetica,sans-Serif" font-size="10.00">plugins/renderer/api</text>
<text text-anchor="middle" x="968" y="-84" font-family="Helvetica,sans-Serif" font-size="10.00">/src/Madgine/renderlib.h</text>
</a>
</g>
</g>
<!-- Node2 -->
<g id="node2" class="node">
<title>Node2</title>
<g id="a_node2"><a xlink:href="camera_8cpp.html" target="_top" xlink:title=" ">
<polygon fill="white" stroke="#666666" points="156,-35.5 0,-35.5 0,-5.5 156,-5.5 156,-35.5"/>
<text text-anchor="start" x="8" y="-23.5" font-family="Helvetica,sans-Serif" font-size="10.00">plugins/renderer/api</text>
<text text-anchor="middle" x="78" y="-12.5" font-family="Helvetica,sans-Serif" font-size="10.00">/src/Madgine/render/camera.cpp</text>
</a>
</g>
</g>
<!-- Node1&#45;&gt;Node2 -->
<g id="edge1" class="edge">
<title>Node1&#45;&gt;Node2</title>
<path fill="none" stroke="#63b8ff" d="M896.29,-90.33C755.43,-88.19 433,-79.13 165,-41 155.81,-39.69 146.14,-37.93 136.73,-35.99"/>
<polygon fill="#63b8ff" stroke="#63b8ff" points="896.17,-93.83 906.22,-90.48 896.27,-86.83 896.17,-93.83"/>
</g>
<!-- Node3 -->
<g id="node3" class="node">
<title>Node3</title>
<g id="a_node3"><a xlink:href="fontloader_8cpp.html" target="_top" xlink:title=" ">
<polygon fill="white" stroke="#666666" points="302,-41 174,-41 174,0 302,0 302,-41"/>
<text text-anchor="start" x="182" y="-29" font-family="Helvetica,sans-Serif" font-size="10.00">plugins/renderer/api</text>
<text text-anchor="start" x="182" y="-18" font-family="Helvetica,sans-Serif" font-size="10.00">/src/Madgine/render/fonts</text>
<text text-anchor="middle" x="238" y="-7" font-family="Helvetica,sans-Serif" font-size="10.00">/fontloader.cpp</text>
</a>
</g>
</g>
<!-- Node1&#45;&gt;Node3 -->
<g id="edge2" class="edge">
<title>Node1&#45;&gt;Node3</title>
<path fill="none" stroke="#63b8ff" d="M896.44,-89.88C775.16,-87.01 521.85,-76.87 311,-41 308.15,-40.52 305.26,-39.97 302.34,-39.38"/>
<polygon fill="#63b8ff" stroke="#63b8ff" points="896.17,-93.37 906.25,-90.1 896.33,-86.37 896.17,-93.37"/>
</g>
<!-- Node4 -->
<g id="node4" class="node">
<title>Node4</title>
<g id="a_node4"><a xlink:href="glyph_8cpp.html" target="_top" xlink:title=" ">
<polygon fill="white" stroke="#666666" points="448,-41 320,-41 320,0 448,0 448,-41"/>
<text text-anchor="start" x="328" y="-29" font-family="Helvetica,sans-Serif" font-size="10.00">plugins/renderer/api</text>
<text text-anchor="start" x="328" y="-18" font-family="Helvetica,sans-Serif" font-size="10.00">/src/Madgine/render/fonts</text>
<text text-anchor="middle" x="384" y="-7" font-family="Helvetica,sans-Serif" font-size="10.00">/glyph.cpp</text>
</a>
</g>
</g>
<!-- Node1&#45;&gt;Node4 -->
<g id="edge3" class="edge">
<title>Node1&#45;&gt;Node4</title>
<path fill="none" stroke="#63b8ff" d="M896.39,-87.69C797.08,-82.27 612.24,-69.13 457,-41 454.16,-40.49 451.27,-39.92 448.36,-39.3"/>
<polygon fill="#63b8ff" stroke="#63b8ff" points="896.09,-91.18 906.26,-88.22 896.46,-84.19 896.09,-91.18"/>
</g>
<!-- Node5 -->
<g id="node5" class="node">
<title>Node5</title>
<g id="a_node5"><a xlink:href="bloompass_8cpp.html" target="_top" xlink:title=" ">
<polygon fill="white" stroke="#666666" points="603.5,-41 466.5,-41 466.5,0 603.5,0 603.5,-41"/>
<text text-anchor="start" x="474.5" y="-29" font-family="Helvetica,sans-Serif" font-size="10.00">plugins/renderer/api</text>
<text text-anchor="start" x="474.5" y="-18" font-family="Helvetica,sans-Serif" font-size="10.00">/src/Madgine/render/passes</text>
<text text-anchor="middle" x="535" y="-7" font-family="Helvetica,sans-Serif" font-size="10.00">/bloompass.cpp</text>
</a>
</g>
</g>
<!-- Node1&#45;&gt;Node5 -->
<g id="edge4" class="edge">
<title>Node1&#45;&gt;Node5</title>
<path fill="none" stroke="#63b8ff" d="M896.3,-83.25C824.13,-74.9 709.81,-60.19 612,-41 609.29,-40.47 606.54,-39.9 603.76,-39.31"/>
<polygon fill="#63b8ff" stroke="#63b8ff" points="895.68,-86.7 906.01,-84.36 896.47,-79.74 895.68,-86.7"/>
</g>
<!-- Node6 -->
<g id="node6" class="node">
<title>Node6</title>
<g id="a_node6"><a xlink:href="blurpass_8cpp.html" target="_top" xlink:title=" ">
<polygon fill="white" stroke="#666666" points="758.5,-41 621.5,-41 621.5,0 758.5,0 758.5,-41"/>
<text text-anchor="start" x="629.5" y="-29" font-family="Helvetica,sans-Serif" font-size="10.00">plugins/renderer/api</text>
<text text-anchor="start" x="629.5" y="-18" font-family="Helvetica,sans-Serif" font-size="10.00">/src/Madgine/render/passes</text>
<text text-anchor="middle" x="690" y="-7" font-family="Helvetica,sans-Serif" font-size="10.00">/blurpass.cpp</text>
</a>
</g>
</g>
<!-- Node1&#45;&gt;Node6 -->
<g id="edge5" class="edge">
<title>Node1&#45;&gt;Node6</title>
<path fill="none" stroke="#63b8ff" d="M898.35,-73.75C859.66,-64.15 810.65,-51.96 767,-41 764.32,-40.33 761.6,-39.64 758.84,-38.95"/>
<polygon fill="#63b8ff" stroke="#63b8ff" points="897.48,-77.14 908.03,-76.15 899.16,-70.35 897.48,-77.14"/>
</g>
<!-- Node7 -->
<g id="node7" class="node">
<title>Node7</title>
<g id="a_node7"><a xlink:href="pipelineloader_8cpp.html" target="_top" xlink:title=" ">
<polygon fill="white" stroke="#666666" points="959.5,-35.5 776.5,-35.5 776.5,-5.5 959.5,-5.5 959.5,-35.5"/>
<text text-anchor="start" x="784.5" y="-23.5" font-family="Helvetica,sans-Serif" font-size="10.00">plugins/renderer/api</text>
<text text-anchor="middle" x="868" y="-12.5" font-family="Helvetica,sans-Serif" font-size="10.00">/src/Madgine/render/pipelineloader.cpp</text>
</a>
</g>
</g>
<!-- Node1&#45;&gt;Node7 -->
<g id="edge6" class="edge">
<title>Node1&#45;&gt;Node7</title>
<path fill="none" stroke="#63b8ff" d="M937.87,-70.06C921.99,-59.02 902.9,-45.76 888.69,-35.88"/>
<polygon fill="#63b8ff" stroke="#63b8ff" points="935.83,-72.9 946.04,-75.74 939.82,-67.15 935.83,-72.9"/>
</g>
<!-- Node8 -->
<g id="node8" class="node">
<title>Node8</title>
<g id="a_node8"><a xlink:href="rendercontext_8cpp.html" target="_top" xlink:title=" ">
<polygon fill="white" stroke="#666666" points="1160,-35.5 978,-35.5 978,-5.5 1160,-5.5 1160,-35.5"/>
<text text-anchor="start" x="986" y="-23.5" font-family="Helvetica,sans-Serif" font-size="10.00">plugins/renderer/api</text>
<text text-anchor="middle" x="1069" y="-12.5" font-family="Helvetica,sans-Serif" font-size="10.00">/src/Madgine/render/rendercontext.cpp</text>
</a>
</g>
</g>
<!-- Node1&#45;&gt;Node8 -->
<g id="edge7" class="edge">
<title>Node1&#45;&gt;Node8</title>
<path fill="none" stroke="#63b8ff" d="M997.98,-70.37C1014.11,-59.27 1033.62,-45.85 1048.1,-35.88"/>
<polygon fill="#63b8ff" stroke="#63b8ff" points="996.43,-67.19 990.17,-75.74 1000.4,-72.96 996.43,-67.19"/>
</g>
<!-- Node9 -->
<g id="node9" class="node">
<title>Node9</title>
<g id="a_node9"><a xlink:href="rendercontextcollector_8cpp.html" target="_top" xlink:title=" ">
<polygon fill="white" stroke="#666666" points="1397.5,-35.5 1178.5,-35.5 1178.5,-5.5 1397.5,-5.5 1397.5,-35.5"/>
<text text-anchor="start" x="1186.5" y="-23.5" font-family="Helvetica,sans-Serif" font-size="10.00">plugins/renderer/api</text>
<text text-anchor="middle" x="1288" y="-12.5" font-family="Helvetica,sans-Serif" font-size="10.00">/src/Madgine/render/rendercontextcollector.cpp</text>
</a>
</g>
</g>
<!-- Node1&#45;&gt;Node9 -->
<g id="edge8" class="edge">
<title>Node1&#45;&gt;Node9</title>
<path fill="none" stroke="#63b8ff" d="M1039.15,-75.55C1093.6,-63.72 1168.17,-47.53 1221.45,-35.95"/>
<polygon fill="#63b8ff" stroke="#63b8ff" points="1038.7,-72.06 1029.67,-77.61 1040.18,-78.9 1038.7,-72.06"/>
</g>
<!-- Node10 -->
<g id="node10" class="node">
<title>Node10</title>
<g id="a_node10"><a xlink:href="renderer_2api_2src_2_madgine_2render_2renderdata_8cpp.html" target="_top" xlink:title=" ">
<polygon fill="white" stroke="#666666" points="1586,-35.5 1416,-35.5 1416,-5.5 1586,-5.5 1586,-35.5"/>
<text text-anchor="start" x="1424" y="-23.5" font-family="Helvetica,sans-Serif" font-size="10.00">plugins/renderer/api</text>
<text text-anchor="middle" x="1501" y="-12.5" font-family="Helvetica,sans-Serif" font-size="10.00">/src/Madgine/render/renderdata.cpp</text>
</a>
</g>
</g>
<!-- Node1&#45;&gt;Node10 -->
<g id="edge9" class="edge">
<title>Node1&#45;&gt;Node10</title>
<path fill="none" stroke="#63b8ff" d="M1039.58,-84.87C1126.7,-76.94 1278.16,-61.66 1407,-41 1416.13,-39.54 1425.72,-37.79 1435.15,-35.95"/>
<polygon fill="#63b8ff" stroke="#63b8ff" points="1039.39,-81.37 1029.75,-85.76 1040.02,-88.34 1039.39,-81.37"/>
</g>
<!-- Node11 -->
<g id="node11" class="node">
<title>Node11</title>
<g id="a_node11"><a xlink:href="renderpass_8cpp.html" target="_top" xlink:title=" ">
<polygon fill="white" stroke="#666666" points="1776,-35.5 1604,-35.5 1604,-5.5 1776,-5.5 1776,-35.5"/>
<text text-anchor="start" x="1612" y="-23.5" font-family="Helvetica,sans-Serif" font-size="10.00">plugins/renderer/api</text>
<text text-anchor="middle" x="1690" y="-12.5" font-family="Helvetica,sans-Serif" font-size="10.00">/src/Madgine/render/renderpass.cpp</text>
</a>
</g>
</g>
<!-- Node1&#45;&gt;Node11 -->
<g id="edge10" class="edge">
<title>Node1&#45;&gt;Node11</title>
<path fill="none" stroke="#63b8ff" d="M1039.61,-88.15C1156.39,-82.87 1394.89,-69.41 1595,-41 1604.67,-39.63 1614.83,-37.88 1624.77,-35.99"/>
<polygon fill="#63b8ff" stroke="#63b8ff" points="1039.71,-84.65 1029.87,-88.59 1040.02,-91.64 1039.71,-84.65"/>
</g>
<!-- Node12 -->
<g id="node12" class="node">
<title>Node12</title>
<g id="a_node12"><a xlink:href="rendertarget_8cpp.html" target="_top" xlink:title=" ">
<polygon fill="white" stroke="#666666" points="1970,-35.5 1794,-35.5 1794,-5.5 1970,-5.5 1970,-35.5"/>
<text text-anchor="start" x="1802" y="-23.5" font-family="Helvetica,sans-Serif" font-size="10.00">plugins/renderer/api</text>
<text text-anchor="middle" x="1882" y="-12.5" font-family="Helvetica,sans-Serif" font-size="10.00">/src/Madgine/render/rendertarget.cpp</text>
</a>
</g>
</g>
<!-- Node1&#45;&gt;Node12 -->
<g id="edge11" class="edge">
<title>Node1&#45;&gt;Node12</title>
<path fill="none" stroke="#63b8ff" d="M1039.65,-89.92C1182.18,-87.03 1511.12,-76.74 1785,-41 1795.13,-39.68 1805.8,-37.92 1816.2,-35.99"/>
<polygon fill="#63b8ff" stroke="#63b8ff" points="1039.93,-86.41 1030,-90.1 1040.07,-93.41 1039.93,-86.41"/>
</g>
<!-- Node13 -->
<g id="node13" class="node">
<title>Node13</title>
<g id="a_node13"><a xlink:href="textureloader_8cpp.html" target="_top" xlink:title=" ">
<polygon fill="white" stroke="#666666" points="2167.5,-35.5 1988.5,-35.5 1988.5,-5.5 2167.5,-5.5 2167.5,-35.5"/>
<text text-anchor="start" x="1996.5" y="-23.5" font-family="Helvetica,sans-Serif" font-size="10.00">plugins/renderer/api</text>
<text text-anchor="middle" x="2078" y="-12.5" font-family="Helvetica,sans-Serif" font-size="10.00">/src/Madgine/render/textureloader.cpp</text>
</a>
</g>
</g>
<!-- Node1&#45;&gt;Node13 -->
<g id="edge12" class="edge">
<title>Node1&#45;&gt;Node13</title>
<path fill="none" stroke="#63b8ff" d="M1039.88,-91.02C1205.92,-90.27 1628.73,-83.93 1979,-41 1989.52,-39.71 2000.6,-37.94 2011.38,-35.99"/>
<polygon fill="#63b8ff" stroke="#63b8ff" points="1039.87,-87.52 1029.88,-91.05 1039.9,-94.52 1039.87,-87.52"/>
</g>
</g>
</svg>
