<?xml version="1.0" encoding="UTF-8" standalone="no"?>
<!DOCTYPE svg PUBLIC "-//W3C//DTD SVG 1.1//EN"
 "http://www.w3.org/Graphics/SVG/1.1/DTD/svg11.dtd">
<!-- Generated by graphviz version 7.0.5 (20221223.1930)
 -->
<!-- Title: plugins/resources/api/src/Madgine/resources/resourceloadercollector.cpp Pages: 1 -->
<svg width="404pt" height="291pt"
 viewBox="0.00 0.00 403.50 291.00" xmlns="http://www.w3.org/2000/svg" xmlns:xlink="http://www.w3.org/1999/xlink">
<g id="graph0" class="graph" transform="scale(1 1) rotate(0) translate(4 287)">
<title>plugins/resources/api/src/Madgine/resources/resourceloadercollector.cpp</title>
<!-- Node1 -->
<g id="node1" class="node">
<title>Node1</title>
<g id="a_node1"><a xlink:title=" ">
<polygon fill="#999999" stroke="#666666" points="234,-283 96,-283 96,-242 234,-242 234,-283"/>
<text text-anchor="start" x="104" y="-271" font-family="Helvetica,sans-Serif" font-size="10.00">plugins/resources/api</text>
<text text-anchor="start" x="104" y="-260" font-family="Helvetica,sans-Serif" font-size="10.00">/src/Madgine/resources</text>
<text text-anchor="middle" x="165" y="-249" font-family="Helvetica,sans-Serif" font-size="10.00">/resourceloadercollector.cpp</text>
</a>
</g>
</g>
<!-- Node2 -->
<g id="node2" class="node">
<title>Node2</title>
<g id="a_node2"><a xlink:href="resourceslib_8h.html" target="_top" xlink:title=" ">
<polygon fill="white" stroke="#666666" points="84,-200.5 0,-200.5 0,-181.5 84,-181.5 84,-200.5"/>
<text text-anchor="middle" x="42" y="-188.5" font-family="Helvetica,sans-Serif" font-size="10.00">../resourceslib.h</text>
</a>
</g>
</g>
<!-- Node1&#45;&gt;Node2 -->
<g id="edge1" class="edge">
<title>Node1&#45;&gt;Node2</title>
<path fill="none" stroke="#63b8ff" d="M129.75,-241.58C109.93,-230.38 85.63,-216.65 67.63,-206.48"/>
<polygon fill="#63b8ff" stroke="#63b8ff" points="69.59,-203.57 59.16,-201.7 66.15,-209.67 69.59,-203.57"/>
</g>
<!-- Node3 -->
<g id="node3" class="node">
<title>Node3</title>
<g id="a_node3"><a xlink:href="resourceloadercollector_8h.html" target="_top" xlink:title=" ">
<polygon fill="white" stroke="#666666" points="227.5,-200.5 102.5,-200.5 102.5,-181.5 227.5,-181.5 227.5,-200.5"/>
<text text-anchor="middle" x="165" y="-188.5" font-family="Helvetica,sans-Serif" font-size="10.00">resourceloadercollector.h</text>
</a>
</g>
</g>
<!-- Node1&#45;&gt;Node3 -->
<g id="edge2" class="edge">
<title>Node1&#45;&gt;Node3</title>
<path fill="none" stroke="#63b8ff" d="M165,-241.77C165,-232.5 165,-221.46 165,-212.14"/>
<polygon fill="#63b8ff" stroke="#63b8ff" points="168.5,-212.33 165,-202.33 161.5,-212.33 168.5,-212.33"/>
</g>
<!-- Node7 -->
<g id="node7" class="node">
<title>Node7</title>
<g id="a_node7"><a xlink:href="uniquecomponentregistry_8h.html" target="_top" xlink:title=" ">
<polygon fill="white" stroke="#666666" points="380.5,-206 245.5,-206 245.5,-176 380.5,-176 380.5,-206"/>
<text text-anchor="start" x="253.5" y="-194" font-family="Helvetica,sans-Serif" font-size="10.00">Modules/uniquecomponent</text>
<text text-anchor="middle" x="313" y="-183" font-family="Helvetica,sans-Serif" font-size="10.00">/uniquecomponentregistry.h</text>
</a>
</g>
</g>
<!-- Node1&#45;&gt;Node7 -->
<g id="edge7" class="edge">
<title>Node1&#45;&gt;Node7</title>
<path fill="none" stroke="#63b8ff" d="M207.41,-241.58C227.68,-232.06 251.85,-220.71 271.95,-211.28"/>
<polygon fill="#63b8ff" stroke="#63b8ff" points="273.41,-214.46 280.97,-207.04 270.43,-208.12 273.41,-214.46"/>
</g>
<!-- Node4 -->
<g id="node4" class="node">
<title>Node4</title>
<g id="a_node4"><a xlink:href="uniquecomponentdefine_8h.html" target="_top" xlink:title=" ">
<polygon fill="white" stroke="#666666" points="231.5,-140 98.5,-140 98.5,-110 231.5,-110 231.5,-140"/>
<text text-anchor="start" x="106.5" y="-128" font-family="Helvetica,sans-Serif" font-size="10.00">Modules/uniquecomponent</text>
<text text-anchor="middle" x="165" y="-117" font-family="Helvetica,sans-Serif" font-size="10.00">/uniquecomponentdefine.h</text>
</a>
</g>
</g>
<!-- Node3&#45;&gt;Node4 -->
<g id="edge3" class="edge">
<title>Node3&#45;&gt;Node4</title>
<path fill="none" stroke="#63b8ff" d="M165,-181.1C165,-173.41 165,-161.92 165,-151.42"/>
<polygon fill="#63b8ff" stroke="#63b8ff" points="168.5,-151.75 165,-141.75 161.5,-151.75 168.5,-151.75"/>
</g>
<!-- Node5 -->
<g id="node5" class="node">
<title>Node5</title>
<g id="a_node5"><a xlink:href="replace_8h.html" target="_top" xlink:title=" ">
<polygon fill="white" stroke="#666666" points="243,-19 151,-19 151,0 243,0 243,-19"/>
<text text-anchor="middle" x="197" y="-7" font-family="Helvetica,sans-Serif" font-size="10.00">Generic/replace.h</text>
</a>
</g>
</g>
<!-- Node4&#45;&gt;Node5 -->
<g id="edge4" class="edge">
<title>Node4&#45;&gt;Node5</title>
<path fill="none" stroke="#63b8ff" d="M168.87,-109.71C172.66,-95.74 178.64,-73.89 184,-55 186.31,-46.87 188.91,-37.92 191.17,-30.2"/>
<polygon fill="#63b8ff" stroke="#63b8ff" points="194.47,-31.39 193.94,-20.81 187.76,-29.41 194.47,-31.39"/>
</g>
<!-- Node6 -->
<g id="node6" class="node">
<title>Node6</title>
<g id="a_node6"><a xlink:href="_modules_2uniquecomponent_2annotations_8h.html" target="_top" xlink:title=" ">
<polygon fill="white" stroke="#666666" points="267,-74 193,-74 193,-55 267,-55 267,-74"/>
<text text-anchor="middle" x="230" y="-62" font-family="Helvetica,sans-Serif" font-size="10.00">annotations.h</text>
</a>
</g>
</g>
<!-- Node4&#45;&gt;Node6 -->
<g id="edge5" class="edge">
<title>Node4&#45;&gt;Node6</title>
<path fill="none" stroke="#63b8ff" d="M181.07,-109.54C190.41,-101.13 202.22,-90.51 211.89,-81.8"/>
<polygon fill="#63b8ff" stroke="#63b8ff" points="214.14,-84.48 219.24,-75.19 209.46,-79.28 214.14,-84.48"/>
</g>
<!-- Node6&#45;&gt;Node5 -->
<g id="edge6" class="edge">
<title>Node6&#45;&gt;Node5</title>
<path fill="none" stroke="#63b8ff" d="M224.55,-54.75C220.23,-47.81 214.04,-37.86 208.62,-29.16"/>
<polygon fill="#63b8ff" stroke="#63b8ff" points="211.62,-27.37 203.37,-20.73 205.68,-31.07 211.62,-27.37"/>
</g>
<!-- Node7&#45;&gt;Node6 -->
<g id="edge10" class="edge">
<title>Node7&#45;&gt;Node6</title>
<path fill="none" stroke="#63b8ff" d="M303.12,-175.6C296.3,-165.63 287.05,-152.04 279,-140 266.13,-120.76 251.58,-98.59 241.7,-83.46"/>
<polygon fill="#63b8ff" stroke="#63b8ff" points="244.91,-81.98 236.52,-75.51 239.05,-85.8 244.91,-81.98"/>
</g>
<!-- Node8 -->
<g id="node8" class="node">
<title>Node8</title>
<g id="a_node8"><a xlink:href="binaryinfo_8h.html" target="_top" xlink:title=" ">
<polygon fill="white" stroke="#666666" points="395.5,-134.5 288.5,-134.5 288.5,-115.5 395.5,-115.5 395.5,-134.5"/>
<text text-anchor="middle" x="342" y="-122.5" font-family="Helvetica,sans-Serif" font-size="10.00">../plugins/binaryinfo.h</text>
</a>
</g>
</g>
<!-- Node7&#45;&gt;Node8 -->
<g id="edge8" class="edge">
<title>Node7&#45;&gt;Node8</title>
<path fill="none" stroke="#63b8ff" d="M319.44,-175.8C323.51,-166.8 328.84,-155.04 333.29,-145.22"/>
<polygon fill="#63b8ff" stroke="#63b8ff" points="336.43,-146.78 337.37,-136.22 330.05,-143.89 336.43,-146.78"/>
</g>
<!-- Node9 -->
<g id="node9" class="node">
<title>Node9</title>
<g id="a_node9"><a xlink:href="pluginlocal_8h.html" target="_top" xlink:title=" ">
<polygon fill="white" stroke="#666666" points="377,-74 307,-74 307,-55 377,-55 377,-74"/>
<text text-anchor="middle" x="342" y="-62" font-family="Helvetica,sans-Serif" font-size="10.00">pluginlocal.h</text>
</a>
</g>
</g>
<!-- Node8&#45;&gt;Node9 -->
<g id="edge9" class="edge">
<title>Node8&#45;&gt;Node9</title>
<path fill="none" stroke="#63b8ff" d="M342,-115.37C342,-107.5 342,-95.6 342,-85.39"/>
<polygon fill="#63b8ff" stroke="#63b8ff" points="345.5,-85.68 342,-75.68 338.5,-85.68 345.5,-85.68"/>
</g>
</g>
</svg>
