<?xml version="1.0" encoding="UTF-8" standalone="no"?>
<!DOCTYPE svg PUBLIC "-//W3C//DTD SVG 1.1//EN"
 "http://www.w3.org/Graphics/SVG/1.1/DTD/svg11.dtd">
<!-- Generated by graphviz version 7.0.5 (20221223.1930)
 -->
<!-- Title: plugins/resources/api/src/Madgine/resources/resourceloadercollector.h Pages: 1 -->
<svg width="145pt" height="225pt"
 viewBox="0.00 0.00 144.50 225.00" xmlns="http://www.w3.org/2000/svg" xmlns:xlink="http://www.w3.org/1999/xlink">
<g id="graph0" class="graph" transform="scale(1 1) rotate(0) translate(4 221)">
<title>plugins/resources/api/src/Madgine/resources/resourceloadercollector.h</title>
<!-- Node1 -->
<g id="node1" class="node">
<title>Node1</title>
<g id="a_node1"><a xlink:title=" ">
<polygon fill="#999999" stroke="#666666" points="130.5,-217 2.5,-217 2.5,-176 130.5,-176 130.5,-217"/>
<text text-anchor="start" x="10.5" y="-205" font-family="Helvetica,sans-Serif" font-size="10.00">plugins/resources/api</text>
<text text-anchor="start" x="10.5" y="-194" font-family="Helvetica,sans-Serif" font-size="10.00">/src/Madgine/resources</text>
<text text-anchor="middle" x="66.5" y="-183" font-family="Helvetica,sans-Serif" font-size="10.00">/resourceloadercollector.h</text>
</a>
</g>
</g>
<!-- Node2 -->
<g id="node2" class="node">
<title>Node2</title>
<g id="a_node2"><a xlink:href="uniquecomponentdefine_8h.html" target="_top" xlink:title=" ">
<polygon fill="white" stroke="#666666" points="133,-140 0,-140 0,-110 133,-110 133,-140"/>
<text text-anchor="start" x="8" y="-128" font-family="Helvetica,sans-Serif" font-size="10.00">Modules/uniquecomponent</text>
<text text-anchor="middle" x="66.5" y="-117" font-family="Helvetica,sans-Serif" font-size="10.00">/uniquecomponentdefine.h</text>
</a>
</g>
</g>
<!-- Node1&#45;&gt;Node2 -->
<g id="edge1" class="edge">
<title>Node1&#45;&gt;Node2</title>
<path fill="none" stroke="#63b8ff" d="M66.5,-175.77C66.5,-168.31 66.5,-159.7 66.5,-151.77"/>
<polygon fill="#63b8ff" stroke="#63b8ff" points="70,-151.99 66.5,-141.99 63,-151.99 70,-151.99"/>
</g>
<!-- Node3 -->
<g id="node3" class="node">
<title>Node3</title>
<g id="a_node3"><a xlink:href="replace_8h.html" target="_top" xlink:title=" ">
<polygon fill="white" stroke="#666666" points="112.5,-19 20.5,-19 20.5,0 112.5,0 112.5,-19"/>
<text text-anchor="middle" x="66.5" y="-7" font-family="Helvetica,sans-Serif" font-size="10.00">Generic/replace.h</text>
</a>
</g>
</g>
<!-- Node2&#45;&gt;Node3 -->
<g id="edge2" class="edge">
<title>Node2&#45;&gt;Node3</title>
<path fill="none" stroke="#63b8ff" d="M60.96,-109.52C56.29,-95.6 50.79,-73.95 53.5,-55 54.7,-46.63 57.1,-37.64 59.52,-29.95"/>
<polygon fill="#63b8ff" stroke="#63b8ff" points="62.78,-31.23 62.67,-20.64 56.15,-28.98 62.78,-31.23"/>
</g>
<!-- Node4 -->
<g id="node4" class="node">
<title>Node4</title>
<g id="a_node4"><a xlink:href="_modules_2uniquecomponent_2annotations_8h.html" target="_top" xlink:title=" ">
<polygon fill="white" stroke="#666666" points="136.5,-74 62.5,-74 62.5,-55 136.5,-55 136.5,-74"/>
<text text-anchor="middle" x="99.5" y="-62" font-family="Helvetica,sans-Serif" font-size="10.00">annotations.h</text>
</a>
</g>
</g>
<!-- Node2&#45;&gt;Node4 -->
<g id="edge3" class="edge">
<title>Node2&#45;&gt;Node4</title>
<path fill="none" stroke="#63b8ff" d="M74.66,-109.54C79.01,-101.82 84.41,-92.24 89.07,-83.99"/>
<polygon fill="#63b8ff" stroke="#63b8ff" points="92,-85.92 93.86,-75.49 85.9,-82.48 92,-85.92"/>
</g>
<!-- Node4&#45;&gt;Node3 -->
<g id="edge4" class="edge">
<title>Node4&#45;&gt;Node3</title>
<path fill="none" stroke="#63b8ff" d="M94.05,-54.75C89.73,-47.81 83.54,-37.86 78.12,-29.16"/>
<polygon fill="#63b8ff" stroke="#63b8ff" points="81.12,-27.37 72.87,-20.73 75.18,-31.07 81.12,-27.37"/>
</g>
</g>
</svg>
