<?xml version="1.0" encoding="UTF-8" standalone="no"?>
<!DOCTYPE svg PUBLIC "-//W3C//DTD SVG 1.1//EN"
 "http://www.w3.org/Graphics/SVG/1.1/DTD/svg11.dtd">
<!-- Generated by graphviz version 7.0.5 (20221223.1930)
 -->
<!-- Title: plugins/root/api/src/Madgine/root/root.h Pages: 1 -->
<!--zoomable 555 -->
<svg id="main" version="1.1" xmlns="http://www.w3.org/2000/svg" xmlns:xlink="http://www.w3.org/1999/xlink" xml:space="preserve" onload="init(evt)">
<style type="text/css"><![CDATA[
.edge:hover path { stroke: red; }
.edge:hover polygon { stroke: red; fill: red; }
]]></style>
<script type="text/javascript"><![CDATA[
var edges = document.getElementsByTagName('g');
if (edges && edges.length) {
  for (var i=0;i<edges.length;i++) {
    if (edges[i].id.substr(0,4)=='edge') {
      edges[i].setAttribute('class','edge');
    }
  }
}
]]></script>
        <defs>
                <circle id="rim" cx="0" cy="0" r="7"/>
                <circle id="rim2" cx="0" cy="0" r="3.5"/>
                <g id="zoomPlus">
                        <use xlink:href="#rim" fill="#404040">
                                <set attributeName="fill" to="#808080" begin="zoomplus.mouseover" end="zoomplus.mouseout"/>
                        </use>
                        <path d="M-4,0h8M0,-4v8" fill="none" stroke="white" stroke-width="1.5" pointer-events="none"/>
                </g>
                <g id="zoomMin">
                        <use xlink:href="#rim" fill="#404040">
                                <set attributeName="fill" to="#808080" begin="zoomminus.mouseover" end="zoomminus.mouseout"/>
                        </use>
                        <path d="M-4,0h8" fill="none" stroke="white" stroke-width="1.5" pointer-events="none"/>
                </g>
                <g id="dirArrow">
                        <path fill="none" stroke="white" stroke-width="1.5" d="M0,-3.0v7 M-2.5,-0.5L0,-3.0L2.5,-0.5"/>
                </g>
               <g id="resetDef">
                       <use xlink:href="#rim2" fill="#404040">
                               <set attributeName="fill" to="#808080" begin="reset.mouseover" end="reset.mouseout"/>
                       </use>
               </g>
        </defs>

<script type="text/javascript">
var viewWidth = 1144;
var viewHeight = 555;
var sectionId = 'dynsection-1';
</script>
<script xlink:href="svgpan.js"/>
<svg id="graph" class="graph">
<g id="viewport">
<title>plugins/root/api/src/Madgine/root/root.h</title>
<!-- Node1 -->
<g id="node1" class="node">
<title>Node1</title>
<g id="a_node1"><a xlink:title=" ">
<polygon fill="#999999" stroke="#666666" points="466.5,-547 363.5,-547 363.5,-517 466.5,-517 466.5,-547"/>
<text text-anchor="start" x="371.5" y="-535" font-family="Helvetica,sans-Serif" font-size="10.00">plugins/root/api/src</text>
<text text-anchor="middle" x="415" y="-524" font-family="Helvetica,sans-Serif" font-size="10.00">/Madgine/root/root.h</text>
</a>
</g>
</g>
<!-- Node2 -->
<g id="node2" class="node">
<title>Node2</title>
<g id="a_node2"><a xlink:href="audioapi_8cpp.html" target="_top" xlink:title=" ">
<polygon fill="white" stroke="#666666" points="187,-475.5 47,-475.5 47,-445.5 187,-445.5 187,-475.5"/>
<text text-anchor="start" x="55" y="-463.5" font-family="Helvetica,sans-Serif" font-size="10.00">plugins/audio/api/src</text>
<text text-anchor="middle" x="117" y="-452.5" font-family="Helvetica,sans-Serif" font-size="10.00">/Madgine/audio/audioapi.cpp</text>
</a>
</g>
</g>
<!-- Node1&#45;&gt;Node2 -->
<g id="edge1" class="edge">
<title>Node1&#45;&gt;Node2</title>
<path fill="none" stroke="#63b8ff" d="M351.91,-516.29C301.01,-504.41 229.79,-487.8 179.14,-475.99"/>
<polygon fill="#63b8ff" stroke="#63b8ff" points="351.08,-519.69 361.62,-518.55 352.67,-512.87 351.08,-519.69"/>
</g>
<!-- Node3 -->
<g id="node3" class="node">
<title>Node3</title>
<g id="a_node3"><a xlink:href="oboeapi_8cpp.html" target="_top" xlink:title=" ">
<polygon fill="white" stroke="#666666" points="192,-398.5 38,-398.5 38,-368.5 192,-368.5 192,-398.5"/>
<text text-anchor="start" x="46" y="-386.5" font-family="Helvetica,sans-Serif" font-size="10.00">plugins/audio/oboe</text>
<text text-anchor="middle" x="115" y="-375.5" font-family="Helvetica,sans-Serif" font-size="10.00">/src/Madgine/audio/oboeapi.cpp</text>
</a>
</g>
</g>
<!-- Node1&#45;&gt;Node3 -->
<g id="edge2" class="edge">
<title>Node1&#45;&gt;Node3</title>
<path fill="none" stroke="#63b8ff" d="M351.98,-514.73C323.5,-506.32 289.84,-494.9 261,-481 247.96,-474.72 173.48,-424.35 136.22,-398.99"/>
<polygon fill="#63b8ff" stroke="#63b8ff" points="350.99,-518.09 361.57,-517.49 352.93,-511.36 350.99,-518.09"/>
</g>
<!-- Node4 -->
<g id="node4" class="node">
<title>Node4</title>
<g id="a_node4"><a xlink:href="portaudioapi_8cpp.html" target="_top" xlink:title=" ">
<polygon fill="white" stroke="#666666" points="383.5,-398.5 210.5,-398.5 210.5,-368.5 383.5,-368.5 383.5,-398.5"/>
<text text-anchor="start" x="218.5" y="-386.5" font-family="Helvetica,sans-Serif" font-size="10.00">plugins/audio/portaudio</text>
<text text-anchor="middle" x="297" y="-375.5" font-family="Helvetica,sans-Serif" font-size="10.00">/src/Madgine/audio/portaudioapi.cpp</text>
</a>
</g>
</g>
<!-- Node1&#45;&gt;Node4 -->
<g id="edge3" class="edge">
<title>Node1&#45;&gt;Node4</title>
<path fill="none" stroke="#63b8ff" d="M352.06,-525.41C322.67,-519.27 290.22,-506.67 272,-481 254.17,-455.88 273.22,-419.04 286.49,-398.92"/>
<polygon fill="#63b8ff" stroke="#63b8ff" points="351.17,-528.8 361.64,-527.18 352.45,-521.92 351.17,-528.8"/>
</g>
<!-- Node5 -->
<g id="node5" class="node">
<title>Node5</title>
<g id="a_node5"><a xlink:href="python3env_8cpp.html" target="_top" xlink:title=" ">
<polygon fill="white" stroke="#666666" points="561,-475.5 419,-475.5 419,-445.5 561,-445.5 561,-475.5"/>
<text text-anchor="start" x="427" y="-463.5" font-family="Helvetica,sans-Serif" font-size="10.00">plugins/behavior/python3</text>
<text text-anchor="middle" x="490" y="-452.5" font-family="Helvetica,sans-Serif" font-size="10.00">/src/Python3/python3env.cpp</text>
</a>
</g>
</g>
<!-- Node1&#45;&gt;Node5 -->
<g id="edge4" class="edge">
<title>Node1&#45;&gt;Node5</title>
<path fill="none" stroke="#63b8ff" d="M438.95,-508.8C450.59,-498.02 464.23,-485.38 474.48,-475.88"/>
<polygon fill="#63b8ff" stroke="#63b8ff" points="436.61,-506.21 431.65,-515.57 441.36,-511.34 436.61,-506.21"/>
</g>
<!-- Node6 -->
<g id="node6" class="node">
<title>Node6</title>
<g id="a_node6"><a xlink:href="resourcemanager_8cpp.html" target="_top" xlink:title=" ">
<polygon fill="white" stroke="#666666" points="698.5,-481 579.5,-481 579.5,-440 698.5,-440 698.5,-481"/>
<text text-anchor="start" x="587.5" y="-469" font-family="Helvetica,sans-Serif" font-size="10.00">plugins/resources/api</text>
<text text-anchor="start" x="587.5" y="-458" font-family="Helvetica,sans-Serif" font-size="10.00">/src/Madgine/resources</text>
<text text-anchor="middle" x="639" y="-447" font-family="Helvetica,sans-Serif" font-size="10.00">/resourcemanager.cpp</text>
</a>
</g>
</g>
<!-- Node1&#45;&gt;Node6 -->
<g id="edge5" class="edge">
<title>Node1&#45;&gt;Node6</title>
<path fill="none" stroke="#63b8ff" d="M472.44,-513.18C505.14,-503.03 546.06,-490.34 579.15,-480.07"/>
<polygon fill="#63b8ff" stroke="#63b8ff" points="471.64,-509.76 463.13,-516.07 473.72,-516.45 471.64,-509.76"/>
</g>
<!-- Node7 -->
<g id="node7" class="node">
<title>Node7</title>
<g id="a_node7"><a xlink:href="plugins_2resources_2api_2src_2_madgine_2resources_2sender_8h.html" target="_top" xlink:title=" ">
<polygon fill="white" stroke="#666666" points="400.5,-481 281.5,-481 281.5,-440 400.5,-440 400.5,-481"/>
<text text-anchor="start" x="289.5" y="-469" font-family="Helvetica,sans-Serif" font-size="10.00">plugins/resources/api</text>
<text text-anchor="start" x="289.5" y="-458" font-family="Helvetica,sans-Serif" font-size="10.00">/src/Madgine/resources</text>
<text text-anchor="middle" x="341" y="-447" font-family="Helvetica,sans-Serif" font-size="10.00">/sender.h</text>
</a>
</g>
</g>
<!-- Node1&#45;&gt;Node7 -->
<g id="edge6" class="edge">
<title>Node1&#45;&gt;Node7</title>
<path fill="none" stroke="#63b8ff" d="M391.5,-508.93C382.1,-500.1 371.36,-490.01 362.21,-481.42"/>
<polygon fill="#63b8ff" stroke="#63b8ff" points="388.88,-511.27 398.56,-515.56 393.67,-506.17 388.88,-511.27"/>
</g>
<!-- Node25 -->
<g id="node25" class="node">
<title>Node25</title>
<g id="a_node25"><a xlink:href="root_8cpp.html" target="_top" xlink:title=" ">
<polygon fill="white" stroke="#666666" points="829.5,-475.5 716.5,-475.5 716.5,-445.5 829.5,-445.5 829.5,-475.5"/>
<text text-anchor="start" x="724.5" y="-463.5" font-family="Helvetica,sans-Serif" font-size="10.00">plugins/root/api/src</text>
<text text-anchor="middle" x="773" y="-452.5" font-family="Helvetica,sans-Serif" font-size="10.00">/Madgine/root/root.cpp</text>
</a>
</g>
</g>
<!-- Node1&#45;&gt;Node25 -->
<g id="edge35" class="edge">
<title>Node1&#45;&gt;Node25</title>
<path fill="none" stroke="#63b8ff" d="M478.11,-522.51C537.75,-513.95 629.53,-499.39 708,-481 714.31,-479.52 720.91,-477.78 727.38,-475.95"/>
<polygon fill="#63b8ff" stroke="#63b8ff" points="477.9,-519.01 468.49,-523.88 478.88,-525.94 477.9,-519.01"/>
</g>
<!-- Node26 -->
<g id="node26" class="node">
<title>Node26</title>
<g id="a_node26"><a xlink:href="rootcomponentcollector_8cpp.html" target="_top" xlink:title=" ">
<polygon fill="white" stroke="#666666" points="1046,-475.5 848,-475.5 848,-445.5 1046,-445.5 1046,-475.5"/>
<text text-anchor="start" x="856" y="-463.5" font-family="Helvetica,sans-Serif" font-size="10.00">plugins/root/api/src</text>
<text text-anchor="middle" x="947" y="-452.5" font-family="Helvetica,sans-Serif" font-size="10.00">/Madgine/root/rootcomponentcollector.cpp</text>
</a>
</g>
</g>
<!-- Node1&#45;&gt;Node26 -->
<g id="edge36" class="edge">
<title>Node1&#45;&gt;Node26</title>
<path fill="none" stroke="#63b8ff" d="M477.94,-524.79C560.88,-516.34 711.22,-500.05 839,-481 849.08,-479.5 859.67,-477.77 870.1,-475.98"/>
<polygon fill="#63b8ff" stroke="#63b8ff" points="477.8,-521.29 468.2,-525.78 478.51,-528.26 477.8,-521.29"/>
</g>
<!-- Node7&#45;&gt;Node3 -->
<g id="edge7" class="edge">
<title>Node7&#45;&gt;Node3</title>
<path fill="none" stroke="#63b8ff" d="M270.39,-436.07C233.72,-423.9 190.08,-409.42 158.4,-398.9"/>
<polygon fill="#63b8ff" stroke="#63b8ff" points="269,-439.29 279.59,-439.12 271.2,-432.65 269,-439.29"/>
</g>
<!-- Node7&#45;&gt;Node4 -->
<g id="edge8" class="edge">
<title>Node7&#45;&gt;Node4</title>
<path fill="none" stroke="#63b8ff" d="M323.66,-429.94C317.39,-419.25 310.59,-407.66 305.43,-398.86"/>
<polygon fill="#63b8ff" stroke="#63b8ff" points="320.59,-431.63 328.67,-438.49 326.63,-428.09 320.59,-431.63"/>
</g>
<!-- Node8 -->
<g id="node8" class="node">
<title>Node8</title>
<g id="a_node8"><a xlink:href="nodegraphloader_8h.html" target="_top" xlink:title=" ">
<polygon fill="white" stroke="#666666" points="604.5,-398.5 401.5,-398.5 401.5,-368.5 604.5,-368.5 604.5,-398.5"/>
<text text-anchor="start" x="409.5" y="-386.5" font-family="Helvetica,sans-Serif" font-size="10.00">plugins/behavior/nodegraph</text>
<text text-anchor="middle" x="503" y="-375.5" font-family="Helvetica,sans-Serif" font-size="10.00">/src/Madgine/nodegraph/nodegraphloader.h</text>
</a>
</g>
</g>
<!-- Node7&#45;&gt;Node8 -->
<g id="edge9" class="edge">
<title>Node7&#45;&gt;Node8</title>
<path fill="none" stroke="#63b8ff" d="M394.34,-434.81C420.04,-422.91 449.96,-409.06 471.89,-398.9"/>
<polygon fill="#63b8ff" stroke="#63b8ff" points="392.97,-431.58 385.36,-438.96 395.91,-437.94 392.97,-431.58"/>
</g>
<!-- Node24 -->
<g id="node24" class="node">
<title>Node24</title>
<g id="a_node24"><a xlink:href="tempwidget_8cpp.html" target="_top" xlink:title=" ">
<polygon fill="white" stroke="#666666" points="751,-404 623,-404 623,-363 751,-363 751,-404"/>
<text text-anchor="start" x="631" y="-392" font-family="Helvetica,sans-Serif" font-size="10.00">plugins/misc/widgets</text>
<text text-anchor="start" x="631" y="-381" font-family="Helvetica,sans-Serif" font-size="10.00">/src/Madgine/widgets</text>
<text text-anchor="middle" x="687" y="-370" font-family="Helvetica,sans-Serif" font-size="10.00">/behavior/tempwidget.cpp</text>
</a>
</g>
</g>
<!-- Node7&#45;&gt;Node24 -->
<g id="edge34" class="edge">
<title>Node7&#45;&gt;Node24</title>
<path fill="none" stroke="#63b8ff" d="M411.74,-439.73C501.7,-419.76 527.53,-423.14 614,-404 616.82,-403.38 619.69,-402.72 622.59,-402.03"/>
<polygon fill="#63b8ff" stroke="#63b8ff" points="411.2,-436.27 402.22,-441.88 412.75,-443.09 411.2,-436.27"/>
</g>
<!-- Node9 -->
<g id="node9" class="node">
<title>Node9</title>
<g id="a_node9"><a xlink:href="nodegraphloader_8cpp.html" target="_top" xlink:title=" ">
<polygon fill="white" stroke="#666666" points="326.5,-261 113.5,-261 113.5,-231 326.5,-231 326.5,-261"/>
<text text-anchor="start" x="121.5" y="-249" font-family="Helvetica,sans-Serif" font-size="10.00">plugins/behavior/nodegraph</text>
<text text-anchor="middle" x="220" y="-238" font-family="Helvetica,sans-Serif" font-size="10.00">/src/Madgine/nodegraph/nodegraphloader.cpp</text>
</a>
</g>
</g>
<!-- Node8&#45;&gt;Node9 -->
<g id="edge10" class="edge">
<title>Node8&#45;&gt;Node9</title>
<path fill="none" stroke="#63b8ff" d="M462.84,-363.27C405.48,-335.81 301.37,-285.96 250.14,-261.43"/>
<polygon fill="#63b8ff" stroke="#63b8ff" points="461.09,-366.31 471.62,-367.47 464.11,-360 461.09,-366.31"/>
</g>
<!-- Node10 -->
<g id="node10" class="node">
<title>Node10</title>
<g id="a_node10"><a xlink:href="nodeinterpreter_8h.html" target="_top" xlink:title=" ">
<polygon fill="white" stroke="#666666" points="716,-327 520,-327 520,-297 716,-297 716,-327"/>
<text text-anchor="start" x="528" y="-315" font-family="Helvetica,sans-Serif" font-size="10.00">plugins/behavior/nodegraph</text>
<text text-anchor="middle" x="618" y="-304" font-family="Helvetica,sans-Serif" font-size="10.00">/src/Madgine/nodegraph/nodeinterpreter.h</text>
</a>
</g>
</g>
<!-- Node8&#45;&gt;Node10 -->
<g id="edge11" class="edge">
<title>Node8&#45;&gt;Node10</title>
<path fill="none" stroke="#63b8ff" d="M536.62,-362.18C555.09,-351.02 577.56,-337.44 594.2,-327.38"/>
<polygon fill="#63b8ff" stroke="#63b8ff" points="534.87,-359.15 528.12,-367.32 538.49,-365.14 534.87,-359.15"/>
</g>
<!-- Node10&#45;&gt;Node9 -->
<g id="edge26" class="edge">
<title>Node10&#45;&gt;Node9</title>
<path fill="none" stroke="#63b8ff" d="M516.89,-294.74C453.07,-284.48 371.37,-271.34 309.83,-261.45"/>
<polygon fill="#63b8ff" stroke="#63b8ff" points="516.26,-298.18 526.69,-296.32 517.37,-291.27 516.26,-298.18"/>
</g>
<!-- Node11 -->
<g id="node11" class="node">
<title>Node11</title>
<g id="a_node11"><a xlink:href="nodeexecution_8cpp.html" target="_top" xlink:title=" ">
<polygon fill="white" stroke="#666666" points="708,-189.5 504,-189.5 504,-159.5 708,-159.5 708,-189.5"/>
<text text-anchor="start" x="512" y="-177.5" font-family="Helvetica,sans-Serif" font-size="10.00">plugins/behavior/nodegraph</text>
<text text-anchor="middle" x="606" y="-166.5" font-family="Helvetica,sans-Serif" font-size="10.00">/src/Madgine/nodegraph/nodeexecution.cpp</text>
</a>
</g>
</g>
<!-- Node10&#45;&gt;Node11 -->
<g id="edge12" class="edge">
<title>Node10&#45;&gt;Node11</title>
<path fill="none" stroke="#63b8ff" d="M643.61,-288.86C650.99,-280.91 658.1,-271.33 662,-261 666.71,-248.53 667.13,-243.31 662,-231 655,-214.2 640.15,-199.87 627.51,-189.99"/>
<polygon fill="#63b8ff" stroke="#63b8ff" points="641.32,-286.2 636.7,-295.74 646.26,-291.16 641.32,-286.2"/>
</g>
<!-- Node12 -->
<g id="node12" class="node">
<title>Node12</title>
<g id="a_node12"><a xlink:href="nodeexecution_8h.html" target="_top" xlink:title=" ">
<polygon fill="white" stroke="#666666" points="653,-261 459,-261 459,-231 653,-231 653,-261"/>
<text text-anchor="start" x="467" y="-249" font-family="Helvetica,sans-Serif" font-size="10.00">plugins/behavior/nodegraph</text>
<text text-anchor="middle" x="556" y="-238" font-family="Helvetica,sans-Serif" font-size="10.00">/src/Madgine/nodegraph/nodeexecution.h</text>
</a>
</g>
</g>
<!-- Node10&#45;&gt;Node12 -->
<g id="edge13" class="edge">
<title>Node10&#45;&gt;Node12</title>
<path fill="none" stroke="#63b8ff" d="M596.5,-288.81C587.62,-279.64 577.58,-269.28 569.72,-261.16"/>
<polygon fill="#63b8ff" stroke="#63b8ff" points="593.72,-290.96 603.19,-295.71 598.74,-286.09 593.72,-290.96"/>
</g>
<!-- Node13 -->
<g id="node13" class="node">
<title>Node13</title>
<g id="a_node13"><a xlink:href="nodeinterpreter_8cpp.html" target="_top" xlink:title=" ">
<polygon fill="white" stroke="#666666" points="932,-189.5 726,-189.5 726,-159.5 932,-159.5 932,-189.5"/>
<text text-anchor="start" x="734" y="-177.5" font-family="Helvetica,sans-Serif" font-size="10.00">plugins/behavior/nodegraph</text>
<text text-anchor="middle" x="829" y="-166.5" font-family="Helvetica,sans-Serif" font-size="10.00">/src/Madgine/nodegraph/nodeinterpreter.cpp</text>
</a>
</g>
</g>
<!-- Node10&#45;&gt;Node13 -->
<g id="edge27" class="edge">
<title>Node10&#45;&gt;Node13</title>
<path fill="none" stroke="#63b8ff" d="M648.71,-290.31C673.06,-274 708.03,-250.78 739,-231 761.28,-216.77 786.97,-200.99 805.19,-189.9"/>
<polygon fill="#63b8ff" stroke="#63b8ff" points="646.9,-287.31 640.54,-295.79 650.8,-293.12 646.9,-287.31"/>
</g>
<!-- Node14 -->
<g id="node14" class="node">
<title>Node14</title>
<g id="a_node14"><a xlink:href="accessornode_8cpp.html" target="_top" xlink:title=" ">
<polygon fill="white" stroke="#666666" points="1100,-195 950,-195 950,-154 1100,-154 1100,-195"/>
<text text-anchor="start" x="958" y="-183" font-family="Helvetica,sans-Serif" font-size="10.00">plugins/behavior/nodegraph</text>
<text text-anchor="start" x="958" y="-172" font-family="Helvetica,sans-Serif" font-size="10.00">/src/Madgine/nodegraph/nodes</text>
<text text-anchor="middle" x="1025" y="-161" font-family="Helvetica,sans-Serif" font-size="10.00">/accessornode.cpp</text>
</a>
</g>
</g>
<!-- Node10&#45;&gt;Node14 -->
<g id="edge28" class="edge">
<title>Node10&#45;&gt;Node14</title>
<path fill="none" stroke="#63b8ff" d="M727.3,-301.88C806.96,-293.81 907.12,-280.31 944,-261 973.35,-245.64 997.99,-215.48 1012.13,-195.4"/>
<polygon fill="#63b8ff" stroke="#63b8ff" points="727.32,-298.36 717.71,-302.83 728.01,-305.33 727.32,-298.36"/>
</g>
<!-- Node15 -->
<g id="node15" class="node">
<title>Node15</title>
<g id="a_node15"><a xlink:href="functionnode_8cpp.html" target="_top" xlink:title=" ">
<polygon fill="white" stroke="#666666" points="150,-195 0,-195 0,-154 150,-154 150,-195"/>
<text text-anchor="start" x="8" y="-183" font-family="Helvetica,sans-Serif" font-size="10.00">plugins/behavior/nodegraph</text>
<text text-anchor="start" x="8" y="-172" font-family="Helvetica,sans-Serif" font-size="10.00">/src/Madgine/nodegraph/nodes</text>
<text text-anchor="middle" x="75" y="-161" font-family="Helvetica,sans-Serif" font-size="10.00">/functionnode.cpp</text>
</a>
</g>
</g>
<!-- Node10&#45;&gt;Node15 -->
<g id="edge29" class="edge">
<title>Node10&#45;&gt;Node15</title>
<path fill="none" stroke="#63b8ff" d="M508.3,-301.56C463.38,-294.55 411.97,-282.32 369,-261 350.95,-252.04 353.04,-239.99 335,-231 263.54,-195.38 237,-212.03 159,-195 156.07,-194.36 153.09,-193.7 150.08,-193.03"/>
<polygon fill="#63b8ff" stroke="#63b8ff" points="507.67,-305.01 518.07,-303.01 508.7,-298.08 507.67,-305.01"/>
</g>
<!-- Node16 -->
<g id="node16" class="node">
<title>Node16</title>
<g id="a_node16"><a xlink:href="librarynode_8cpp.html" target="_top" xlink:title=" ">
<polygon fill="white" stroke="#666666" points="318,-195 168,-195 168,-154 318,-154 318,-195"/>
<text text-anchor="start" x="176" y="-183" font-family="Helvetica,sans-Serif" font-size="10.00">plugins/behavior/nodegraph</text>
<text text-anchor="start" x="176" y="-172" font-family="Helvetica,sans-Serif" font-size="10.00">/src/Madgine/nodegraph/nodes</text>
<text text-anchor="middle" x="243" y="-161" font-family="Helvetica,sans-Serif" font-size="10.00">/util/librarynode.cpp</text>
</a>
</g>
</g>
<!-- Node10&#45;&gt;Node16 -->
<g id="edge32" class="edge">
<title>Node10&#45;&gt;Node16</title>
<path fill="none" stroke="#63b8ff" d="M534.68,-294C500.15,-285.79 460.05,-274.7 425,-261 398.7,-250.72 394.38,-243.37 369,-231 343.43,-218.54 314.4,-205.67 290.66,-195.47"/>
<polygon fill="#63b8ff" stroke="#63b8ff" points="533.67,-297.36 544.2,-296.22 535.26,-290.54 533.67,-297.36"/>
</g>
<!-- Node17 -->
<g id="node17" class="node">
<title>Node17</title>
<g id="a_node17"><a xlink:href="sendernode_8h.html" target="_top" xlink:title=" ">
<polygon fill="white" stroke="#666666" points="486,-195 336,-195 336,-154 486,-154 486,-195"/>
<text text-anchor="start" x="344" y="-183" font-family="Helvetica,sans-Serif" font-size="10.00">plugins/behavior/nodegraph</text>
<text text-anchor="start" x="344" y="-172" font-family="Helvetica,sans-Serif" font-size="10.00">/src/Madgine/nodegraph/nodes</text>
<text text-anchor="middle" x="411" y="-161" font-family="Helvetica,sans-Serif" font-size="10.00">/util/sendernode.h</text>
</a>
</g>
</g>
<!-- Node10&#45;&gt;Node17 -->
<g id="edge33" class="edge">
<title>Node10&#45;&gt;Node17</title>
<path fill="none" stroke="#63b8ff" d="M509.01,-293.28C487.7,-285.95 466.79,-275.61 450,-261 430.31,-243.86 420,-214.75 415.03,-195.32"/>
<polygon fill="#63b8ff" stroke="#63b8ff" points="507.79,-296.56 518.38,-296.27 509.92,-289.89 507.79,-296.56"/>
</g>
<!-- Node19 -->
<g id="node19" class="node">
<title>Node19</title>
<g id="a_node19"><a xlink:href="pumpnode_8cpp.html" target="_top" xlink:title=" ">
<polygon fill="white" stroke="#666666" points="864,-118 714,-118 714,-77 864,-77 864,-118"/>
<text text-anchor="start" x="722" y="-106" font-family="Helvetica,sans-Serif" font-size="10.00">plugins/behavior/nodegraph</text>
<text text-anchor="start" x="722" y="-95" font-family="Helvetica,sans-Serif" font-size="10.00">/src/Madgine/nodegraph/nodes</text>
<text text-anchor="middle" x="789" y="-84" font-family="Helvetica,sans-Serif" font-size="10.00">/pumpnode.cpp</text>
</a>
</g>
</g>
<!-- Node10&#45;&gt;Node19 -->
<g id="edge30" class="edge">
<title>Node10&#45;&gt;Node19</title>
<path fill="none" stroke="#63b8ff" d="M727.71,-302.54C859.86,-289.59 1069.16,-259.24 1109,-195 1118.6,-179.51 1120.73,-167.94 1109,-154 1101.12,-144.63 956.53,-122.41 864.43,-109.1"/>
<polygon fill="#63b8ff" stroke="#63b8ff" points="727.48,-299.05 717.86,-303.48 728.15,-306.01 727.48,-299.05"/>
</g>
<!-- Node20 -->
<g id="node20" class="node">
<title>Node20</title>
<g id="a_node20"><a xlink:href="testnode_8cpp.html" target="_top" xlink:title=" ">
<polygon fill="white" stroke="#666666" points="1090,-118 940,-118 940,-77 1090,-77 1090,-118"/>
<text text-anchor="start" x="948" y="-106" font-family="Helvetica,sans-Serif" font-size="10.00">plugins/behavior/nodegraph</text>
<text text-anchor="start" x="948" y="-95" font-family="Helvetica,sans-Serif" font-size="10.00">/src/Madgine/nodegraph/nodes</text>
<text text-anchor="middle" x="1015" y="-84" font-family="Helvetica,sans-Serif" font-size="10.00">/testnode.cpp</text>
</a>
</g>
</g>
<!-- Node10&#45;&gt;Node20 -->
<g id="edge31" class="edge">
<title>Node10&#45;&gt;Node20</title>
<path fill="none" stroke="#63b8ff" d="M727.54,-304.36C832.69,-296.83 983.35,-282.72 1038,-261 1095.48,-238.15 1159.61,-206.56 1127,-154 1117.16,-138.14 1101.29,-126.68 1084.56,-118.44"/>
<polygon fill="#63b8ff" stroke="#63b8ff" points="727.47,-300.85 717.74,-305.05 727.96,-307.83 727.47,-300.85"/>
</g>
<!-- Node23 -->
<g id="node23" class="node">
<title>Node23</title>
<g id="a_node23"><a xlink:href="nodegraph_8cpp.html" target="_top" xlink:title=" ">
<polygon fill="white" stroke="#666666" points="934.5,-261 747.5,-261 747.5,-231 934.5,-231 934.5,-261"/>
<text text-anchor="start" x="755.5" y="-249" font-family="Helvetica,sans-Serif" font-size="10.00">plugins/behavior/nodegraph</text>
<text text-anchor="middle" x="841" y="-238" font-family="Helvetica,sans-Serif" font-size="10.00">/src/Madgine/nodegraph/nodegraph.cpp</text>
</a>
</g>
</g>
<!-- Node10&#45;&gt;Node23 -->
<g id="edge25" class="edge">
<title>Node10&#45;&gt;Node23</title>
<path fill="none" stroke="#63b8ff" d="M679.39,-293.38C714.45,-283.32 757.86,-270.86 790.86,-261.39"/>
<polygon fill="#63b8ff" stroke="#63b8ff" points="678.42,-290.02 669.78,-296.14 680.36,-296.75 678.42,-290.02"/>
</g>
<!-- Node12&#45;&gt;Node11 -->
<g id="edge14" class="edge">
<title>Node12&#45;&gt;Node11</title>
<path fill="none" stroke="#63b8ff" d="M572.89,-221.53C580.43,-211.04 589.09,-199.01 595.65,-189.88"/>
<polygon fill="#63b8ff" stroke="#63b8ff" points="570.24,-219.21 567.24,-229.37 575.93,-223.3 570.24,-219.21"/>
</g>
<!-- Node12&#45;&gt;Node13 -->
<g id="edge15" class="edge">
<title>Node12&#45;&gt;Node13</title>
<path fill="none" stroke="#63b8ff" d="M623.89,-227.72C669.54,-216.09 729.03,-200.95 772.18,-189.97"/>
<polygon fill="#63b8ff" stroke="#63b8ff" points="623.19,-224.28 614.36,-230.14 624.92,-231.07 623.19,-224.28"/>
</g>
<!-- Node12&#45;&gt;Node14 -->
<g id="edge16" class="edge">
<title>Node12&#45;&gt;Node14</title>
<path fill="none" stroke="#63b8ff" d="M664.52,-233.81C741.9,-225.12 848.22,-211.75 941,-195 943.8,-194.49 946.65,-193.96 949.52,-193.39"/>
<polygon fill="#63b8ff" stroke="#63b8ff" points="664.38,-230.3 654.83,-234.89 665.15,-237.26 664.38,-230.3"/>
</g>
<!-- Node12&#45;&gt;Node15 -->
<g id="edge17" class="edge">
<title>Node12&#45;&gt;Node15</title>
<path fill="none" stroke="#63b8ff" d="M447.42,-234.37C367.37,-225.79 255.99,-212.32 159,-195 156.2,-194.5 153.35,-193.97 150.48,-193.41"/>
<polygon fill="#63b8ff" stroke="#63b8ff" points="446.68,-237.81 457,-235.39 447.42,-230.85 446.68,-237.81"/>
</g>
<!-- Node12&#45;&gt;Node16 -->
<g id="edge18" class="edge">
<title>Node12&#45;&gt;Node16</title>
<path fill="none" stroke="#63b8ff" d="M477.58,-228.15C433.34,-218.57 377.05,-206.27 327,-195 324.08,-194.34 321.1,-193.67 318.09,-192.98"/>
<polygon fill="#63b8ff" stroke="#63b8ff" points="476.57,-231.51 487.08,-230.2 478.05,-224.66 476.57,-231.51"/>
</g>
<!-- Node12&#45;&gt;Node17 -->
<g id="edge19" class="edge">
<title>Node12&#45;&gt;Node17</title>
<path fill="none" stroke="#63b8ff" d="M515.77,-225.72C496.09,-216.28 472.41,-204.94 452.55,-195.42"/>
<polygon fill="#63b8ff" stroke="#63b8ff" points="514.06,-228.78 524.59,-229.95 517.09,-222.47 514.06,-228.78"/>
</g>
<!-- Node18 -->
<g id="node18" class="node">
<title>Node18</title>
<g id="a_node18"><a xlink:href="nodebase_8cpp.html" target="_top" xlink:title=" ">
<polygon fill="white" stroke="#666666" points="411,-112.5 227,-112.5 227,-82.5 411,-82.5 411,-112.5"/>
<text text-anchor="start" x="235" y="-100.5" font-family="Helvetica,sans-Serif" font-size="10.00">plugins/behavior/nodegraph</text>
<text text-anchor="middle" x="319" y="-89.5" font-family="Helvetica,sans-Serif" font-size="10.00">/src/Madgine/nodegraph/nodebase.cpp</text>
</a>
</g>
</g>
<!-- Node17&#45;&gt;Node18 -->
<g id="edge20" class="edge">
<title>Node17&#45;&gt;Node18</title>
<path fill="none" stroke="#63b8ff" d="M377.96,-146.57C364,-135.18 348.3,-122.39 336.62,-112.86"/>
<polygon fill="#63b8ff" stroke="#63b8ff" points="375.69,-149.23 385.65,-152.84 380.12,-143.81 375.69,-149.23"/>
</g>
<!-- Node17&#45;&gt;Node19 -->
<g id="edge21" class="edge">
<title>Node17&#45;&gt;Node19</title>
<path fill="none" stroke="#63b8ff" d="M497.27,-153.56C576.67,-137 656.78,-122.1 713.6,-111.84"/>
<polygon fill="#63b8ff" stroke="#63b8ff" points="496.62,-150.12 487.55,-155.6 498.06,-156.97 496.62,-150.12"/>
</g>
<!-- Node17&#45;&gt;Node20 -->
<g id="edge22" class="edge">
<title>Node17&#45;&gt;Node20</title>
<path fill="none" stroke="#63b8ff" d="M497.57,-153.69C663.5,-127.3 708.97,-137.07 873,-118 894.63,-115.49 918.06,-112.41 939.54,-109.46"/>
<polygon fill="#63b8ff" stroke="#63b8ff" points="497.27,-150.19 487.96,-155.24 498.39,-157.1 497.27,-150.19"/>
</g>
<!-- Node21 -->
<g id="node21" class="node">
<title>Node21</title>
<g id="a_node21"><a xlink:href="sendernode__impl_8h.html" target="_top" xlink:title=" ">
<polygon fill="white" stroke="#666666" points="579,-118 429,-118 429,-77 579,-77 579,-118"/>
<text text-anchor="start" x="437" y="-106" font-family="Helvetica,sans-Serif" font-size="10.00">plugins/behavior/nodegraph</text>
<text text-anchor="start" x="437" y="-95" font-family="Helvetica,sans-Serif" font-size="10.00">/src/Madgine/nodegraph/nodes</text>
<text text-anchor="middle" x="504" y="-84" font-family="Helvetica,sans-Serif" font-size="10.00">/util/sendernode_impl.h</text>
</a>
</g>
</g>
<!-- Node17&#45;&gt;Node21 -->
<g id="edge23" class="edge">
<title>Node17&#45;&gt;Node21</title>
<path fill="none" stroke="#63b8ff" d="M444.39,-146.57C455.95,-137.25 468.68,-126.98 479.41,-118.33"/>
<polygon fill="#63b8ff" stroke="#63b8ff" points="442.2,-143.84 436.61,-152.84 446.59,-149.29 442.2,-143.84"/>
</g>
<!-- Node22 -->
<g id="node22" class="node">
<title>Node22</title>
<g id="a_node22"><a xlink:href="sendernode_8cpp.html" target="_top" xlink:title=" ">
<polygon fill="white" stroke="#666666" points="579,-41 429,-41 429,0 579,0 579,-41"/>
<text text-anchor="start" x="437" y="-29" font-family="Helvetica,sans-Serif" font-size="10.00">plugins/behavior/nodegraph</text>
<text text-anchor="start" x="437" y="-18" font-family="Helvetica,sans-Serif" font-size="10.00">/src/Madgine/nodegraph/nodes</text>
<text text-anchor="middle" x="504" y="-7" font-family="Helvetica,sans-Serif" font-size="10.00">/util/sendernode.cpp</text>
</a>
</g>
</g>
<!-- Node21&#45;&gt;Node22 -->
<g id="edge24" class="edge">
<title>Node21&#45;&gt;Node22</title>
<path fill="none" stroke="#63b8ff" d="M504,-65.36C504,-57.24 504,-48.7 504,-41.33"/>
<polygon fill="#63b8ff" stroke="#63b8ff" points="500.5,-65.28 504,-75.28 507.5,-65.28 500.5,-65.28"/>
</g>
</g>
</svg>
        <g id="navigator" transform="translate(0 0)" fill="#404254">
                <rect fill="#f2f5e9" fill-opacity="0.5" stroke="#606060" stroke-width=".5" x="0" y="0" width="60" height="60"/>
                <use id="zoomplus" xlink:href="#zoomPlus" x="17" y="9" onmousedown="handleZoom(evt,'in')"/>
                <use id="zoomminus" xlink:href="#zoomMin" x="42" y="9" onmousedown="handleZoom(evt,'out')"/>
                <use id="reset" xlink:href="#resetDef" x="30" y="36" onmousedown="handleReset()"/>
                <g id="arrowUp" xlink:href="#dirArrow" transform="translate(30 24)" onmousedown="handlePan(0,-1)">
                  <use xlink:href="#rim" fill="#404040">
                        <set attributeName="fill" to="#808080" begin="arrowUp.mouseover" end="arrowUp.mouseout"/>
                  </use>
                  <path fill="none" stroke="white" stroke-width="1.5" d="M0,-3.0v7 M-2.5,-0.5L0,-3.0L2.5,-0.5"/>
                </g>
                <g id="arrowRight" xlink:href="#dirArrow" transform="rotate(90) translate(36 -43)" onmousedown="handlePan(1,0)">
                  <use xlink:href="#rim" fill="#404040">
                        <set attributeName="fill" to="#808080" begin="arrowRight.mouseover" end="arrowRight.mouseout"/>
                  </use>
                  <path fill="none" stroke="white" stroke-width="1.5" d="M0,-3.0v7 M-2.5,-0.5L0,-3.0L2.5,-0.5"/>
                </g>
                <g id="arrowDown" xlink:href="#dirArrow" transform="rotate(180) translate(-30 -48)" onmousedown="handlePan(0,1)">
                  <use xlink:href="#rim" fill="#404040">
                        <set attributeName="fill" to="#808080" begin="arrowDown.mouseover" end="arrowDown.mouseout"/>
                  </use>
                  <path fill="none" stroke="white" stroke-width="1.5" d="M0,-3.0v7 M-2.5,-0.5L0,-3.0L2.5,-0.5"/>
                </g>
                <g id="arrowLeft" xlink:href="#dirArrow" transform="rotate(270) translate(-36 17)" onmousedown="handlePan(-1,0)">
                  <use xlink:href="#rim" fill="#404040">
                        <set attributeName="fill" to="#808080" begin="arrowLeft.mouseover" end="arrowLeft.mouseout"/>
                  </use>
                  <path fill="none" stroke="white" stroke-width="1.5" d="M0,-3.0v7 M-2.5,-0.5L0,-3.0L2.5,-0.5"/>
                </g>
        </g>
        <svg viewBox="0 0 15 15" width="100%" height="30px" preserveAspectRatio="xMaxYMin meet">
         <g id="arrow_out" transform="scale(0.3 0.3)">
          <a xlink:href="root_8h__dep__incl_org.svg" target="_base">
           <rect id="button" ry="5" rx="5" y="6" x="6" height="38" width="38"
                fill="#f2f5e9" fill-opacity="0.5" stroke="#606060" stroke-width="1.0"/>
           <path id="arrow"
             d="M 11.500037,31.436501 C 11.940474,20.09759 22.043105,11.32322 32.158766,21.979434 L 37.068811,17.246167 C 37.068811,17.246167 37.088388,32 37.088388,32 L 22.160133,31.978069 C 22.160133,31.978069 26.997745,27.140456 26.997745,27.140456 C 18.528582,18.264221 13.291696,25.230495 11.500037,31.436501 z"
             style="fill:#404040;"/>
          </a>
         </g>
        </svg>
</svg>
