<?xml version="1.0" encoding="UTF-8" standalone="no"?>
<!DOCTYPE svg PUBLIC "-//W3C//DTD SVG 1.1//EN"
 "http://www.w3.org/Graphics/SVG/1.1/DTD/svg11.dtd">
<!-- Generated by graphviz version 7.0.5 (20221223.1930)
 -->
<!-- Title: plugins/root/api/src/Madgine/rootlib.h Pages: 1 -->
<!--zoomable 247 -->
<svg id="main" version="1.1" xmlns="http://www.w3.org/2000/svg" xmlns:xlink="http://www.w3.org/1999/xlink" xml:space="preserve" onload="init(evt)">
<style type="text/css"><![CDATA[
.edge:hover path { stroke: red; }
.edge:hover polygon { stroke: red; fill: red; }
]]></style>
<script type="text/javascript"><![CDATA[
var edges = document.getElementsByTagName('g');
if (edges && edges.length) {
  for (var i=0;i<edges.length;i++) {
    if (edges[i].id.substr(0,4)=='edge') {
      edges[i].setAttribute('class','edge');
    }
  }
}
]]></script>
        <defs>
                <circle id="rim" cx="0" cy="0" r="7"/>
                <circle id="rim2" cx="0" cy="0" r="3.5"/>
                <g id="zoomPlus">
                        <use xlink:href="#rim" fill="#404040">
                                <set attributeName="fill" to="#808080" begin="zoomplus.mouseover" end="zoomplus.mouseout"/>
                        </use>
                        <path d="M-4,0h8M0,-4v8" fill="none" stroke="white" stroke-width="1.5" pointer-events="none"/>
                </g>
                <g id="zoomMin">
                        <use xlink:href="#rim" fill="#404040">
                                <set attributeName="fill" to="#808080" begin="zoomminus.mouseover" end="zoomminus.mouseout"/>
                        </use>
                        <path d="M-4,0h8" fill="none" stroke="white" stroke-width="1.5" pointer-events="none"/>
                </g>
                <g id="dirArrow">
                        <path fill="none" stroke="white" stroke-width="1.5" d="M0,-3.0v7 M-2.5,-0.5L0,-3.0L2.5,-0.5"/>
                </g>
               <g id="resetDef">
                       <use xlink:href="#rim2" fill="#404040">
                               <set attributeName="fill" to="#808080" begin="reset.mouseover" end="reset.mouseout"/>
                       </use>
               </g>
        </defs>

<script type="text/javascript">
var viewWidth = 5126;
var viewHeight = 247;
var sectionId = 'dynsection-0';
</script>
<script xlink:href="svgpan.js"/>
<svg id="graph" class="graph">
<g id="viewport">
<title>plugins/root/api/src/Madgine/rootlib.h</title>
<!-- Node1 -->
<g id="node1" class="node">
<title>Node1</title>
<g id="a_node1"><a xlink:title=" ">
<polygon fill="#999999" stroke="#666666" points="3115.5,-239 3016.5,-239 3016.5,-209 3115.5,-209 3115.5,-239"/>
<text text-anchor="start" x="3024.5" y="-227" font-family="Helvetica,sans-Serif" font-size="10.00">plugins/root/api/src</text>
<text text-anchor="middle" x="3066" y="-216" font-family="Helvetica,sans-Serif" font-size="10.00">/Madgine/rootlib.h</text>
</a>
</g>
</g>
<!-- Node2 -->
<g id="node2" class="node">
<title>Node2</title>
<g id="a_node2"><a xlink:href="python3lib_8h.html" target="_top" xlink:title=" ">
<polygon fill="white" stroke="#666666" points="2533.5,-107 2408.5,-107 2408.5,-77 2533.5,-77 2533.5,-107"/>
<text text-anchor="start" x="2416.5" y="-95" font-family="Helvetica,sans-Serif" font-size="10.00">plugins/behavior/python3</text>
<text text-anchor="middle" x="2471" y="-84" font-family="Helvetica,sans-Serif" font-size="10.00">/src/Python3/python3lib.h</text>
</a>
</g>
</g>
<!-- Node1&#45;&gt;Node2 -->
<g id="edge1" class="edge">
<title>Node1&#45;&gt;Node2</title>
<path fill="none" stroke="#63b8ff" d="M3004.97,-214.59C2944.3,-205.81 2848.76,-190.84 2767,-173 2678.58,-153.71 2577.07,-124.76 2518.84,-107.49"/>
<polygon fill="#63b8ff" stroke="#63b8ff" points="3004.35,-218.04 3014.75,-215.99 3005.35,-211.11 3004.35,-218.04"/>
</g>
<!-- Node33 -->
<g id="node33" class="node">
<title>Node33</title>
<g id="a_node33"><a xlink:href="debuglib_8h.html" target="_top" xlink:title=" ">
<polygon fill="white" stroke="#666666" points="2885.5,-173 2776.5,-173 2776.5,-143 2885.5,-143 2885.5,-173"/>
<text text-anchor="start" x="2784.5" y="-161" font-family="Helvetica,sans-Serif" font-size="10.00">plugins/debug/api/src</text>
<text text-anchor="middle" x="2831" y="-150" font-family="Helvetica,sans-Serif" font-size="10.00">/Madgine/debuglib.h</text>
</a>
</g>
</g>
<!-- Node1&#45;&gt;Node33 -->
<g id="edge32" class="edge">
<title>Node1&#45;&gt;Node33</title>
<path fill="none" stroke="#63b8ff" d="M3005.36,-206.49C2967.82,-196.26 2920.07,-183.26 2884.03,-173.44"/>
<polygon fill="#63b8ff" stroke="#63b8ff" points="3004.13,-209.78 3014.7,-209.03 3005.97,-203.02 3004.13,-209.78"/>
</g>
<!-- Node39 -->
<g id="node39" class="node">
<title>Node39</title>
<g id="a_node39"><a xlink:href="keyvalueregistry_8cpp.html" target="_top" xlink:title=" ">
<polygon fill="white" stroke="#666666" points="3070.5,-173 2903.5,-173 2903.5,-143 3070.5,-143 3070.5,-173"/>
<text text-anchor="start" x="2911.5" y="-161" font-family="Helvetica,sans-Serif" font-size="10.00">plugins/root/api/src</text>
<text text-anchor="middle" x="2987" y="-150" font-family="Helvetica,sans-Serif" font-size="10.00">/Madgine/root/keyvalueregistry.cpp</text>
</a>
</g>
</g>
<!-- Node1&#45;&gt;Node39 -->
<g id="edge39" class="edge">
<title>Node1&#45;&gt;Node39</title>
<path fill="none" stroke="#63b8ff" d="M3039.71,-201.7C3028.22,-192.4 3015.06,-181.73 3004.76,-173.39"/>
<polygon fill="#63b8ff" stroke="#63b8ff" points="3037.32,-204.27 3047.29,-207.84 3041.72,-198.83 3037.32,-204.27"/>
</g>
<!-- Node40 -->
<g id="node40" class="node">
<title>Node40</title>
<g id="a_node40"><a xlink:href="root_8cpp.html" target="_top" xlink:title=" ">
<polygon fill="white" stroke="#666666" points="3201.5,-173 3088.5,-173 3088.5,-143 3201.5,-143 3201.5,-173"/>
<text text-anchor="start" x="3096.5" y="-161" font-family="Helvetica,sans-Serif" font-size="10.00">plugins/root/api/src</text>
<text text-anchor="middle" x="3145" y="-150" font-family="Helvetica,sans-Serif" font-size="10.00">/Madgine/root/root.cpp</text>
</a>
</g>
</g>
<!-- Node1&#45;&gt;Node40 -->
<g id="edge40" class="edge">
<title>Node1&#45;&gt;Node40</title>
<path fill="none" stroke="#63b8ff" d="M3092.29,-201.7C3103.78,-192.4 3116.94,-181.73 3127.24,-173.39"/>
<polygon fill="#63b8ff" stroke="#63b8ff" points="3090.28,-198.83 3084.71,-207.84 3094.68,-204.27 3090.28,-198.83"/>
</g>
<!-- Node41 -->
<g id="node41" class="node">
<title>Node41</title>
<g id="a_node41"><a xlink:href="rootcomponentbase_8cpp.html" target="_top" xlink:title=" ">
<polygon fill="white" stroke="#666666" points="3402,-173 3220,-173 3220,-143 3402,-143 3402,-173"/>
<text text-anchor="start" x="3228" y="-161" font-family="Helvetica,sans-Serif" font-size="10.00">plugins/root/api/src</text>
<text text-anchor="middle" x="3311" y="-150" font-family="Helvetica,sans-Serif" font-size="10.00">/Madgine/root/rootcomponentbase.cpp</text>
</a>
</g>
</g>
<!-- Node1&#45;&gt;Node41 -->
<g id="edge41" class="edge">
<title>Node1&#45;&gt;Node41</title>
<path fill="none" stroke="#63b8ff" d="M3126.94,-207.08C3166.39,-196.78 3217.35,-183.46 3255.64,-173.46"/>
<polygon fill="#63b8ff" stroke="#63b8ff" points="3126.13,-203.68 3117.34,-209.59 3127.9,-210.45 3126.13,-203.68"/>
</g>
<!-- Node42 -->
<g id="node42" class="node">
<title>Node42</title>
<g id="a_node42"><a xlink:href="rootcomponentcollector_8cpp.html" target="_top" xlink:title=" ">
<polygon fill="white" stroke="#666666" points="3618,-173 3420,-173 3420,-143 3618,-143 3618,-173"/>
<text text-anchor="start" x="3428" y="-161" font-family="Helvetica,sans-Serif" font-size="10.00">plugins/root/api/src</text>
<text text-anchor="middle" x="3519" y="-150" font-family="Helvetica,sans-Serif" font-size="10.00">/Madgine/root/rootcomponentcollector.cpp</text>
</a>
</g>
</g>
<!-- Node1&#45;&gt;Node42 -->
<g id="edge42" class="edge">
<title>Node1&#45;&gt;Node42</title>
<path fill="none" stroke="#63b8ff" d="M3126.9,-214.4C3201.93,-203.8 3330.43,-185.64 3419.79,-173.02"/>
<polygon fill="#63b8ff" stroke="#63b8ff" points="3126.69,-210.89 3117.27,-215.76 3127.66,-217.82 3126.69,-210.89"/>
</g>
<!-- Node3 -->
<g id="node3" class="node">
<title>Node3</title>
<g id="a_node3"><a xlink:href="python3compat_8cpp.html" target="_top" xlink:title=" ">
<polygon fill="white" stroke="#666666" points="158,-35.5 0,-35.5 0,-5.5 158,-5.5 158,-35.5"/>
<text text-anchor="start" x="8" y="-23.5" font-family="Helvetica,sans-Serif" font-size="10.00">plugins/behavior/python3</text>
<text text-anchor="middle" x="79" y="-12.5" font-family="Helvetica,sans-Serif" font-size="10.00">/src/Python3/python3compat.cpp</text>
</a>
</g>
</g>
<!-- Node2&#45;&gt;Node3 -->
<g id="edge2" class="edge">
<title>Node2&#45;&gt;Node3</title>
<path fill="none" stroke="#63b8ff" d="M2396.95,-91.35C2053.52,-92.66 613.64,-94.8 167,-41 157.06,-39.8 146.59,-37.98 136.47,-35.93"/>
<polygon fill="#63b8ff" stroke="#63b8ff" points="2396.73,-94.85 2406.71,-91.31 2396.7,-87.85 2396.73,-94.85"/>
</g>
<!-- Node4 -->
<g id="node4" class="node">
<title>Node4</title>
<g id="a_node4"><a xlink:href="python3debugger_8cpp.html" target="_top" xlink:title=" ">
<polygon fill="white" stroke="#666666" points="342,-35.5 176,-35.5 176,-5.5 342,-5.5 342,-35.5"/>
<text text-anchor="start" x="184" y="-23.5" font-family="Helvetica,sans-Serif" font-size="10.00">plugins/behavior/python3</text>
<text text-anchor="middle" x="259" y="-12.5" font-family="Helvetica,sans-Serif" font-size="10.00">/src/Python3/python3debugger.cpp</text>
</a>
</g>
</g>
<!-- Node2&#45;&gt;Node4 -->
<g id="edge3" class="edge">
<title>Node2&#45;&gt;Node4</title>
<path fill="none" stroke="#63b8ff" d="M2396.82,-91.09C2070.35,-91.22 759.6,-88.7 351,-41 340.62,-39.79 329.68,-37.96 319.11,-35.91"/>
<polygon fill="#63b8ff" stroke="#63b8ff" points="2396.5,-94.59 2406.5,-91.09 2396.5,-87.59 2396.5,-94.59"/>
</g>
<!-- Node5 -->
<g id="node5" class="node">
<title>Node5</title>
<g id="a_node5"><a xlink:href="python3env_8cpp.html" target="_top" xlink:title=" ">
<polygon fill="white" stroke="#666666" points="502,-35.5 360,-35.5 360,-5.5 502,-5.5 502,-35.5"/>
<text text-anchor="start" x="368" y="-23.5" font-family="Helvetica,sans-Serif" font-size="10.00">plugins/behavior/python3</text>
<text text-anchor="middle" x="431" y="-12.5" font-family="Helvetica,sans-Serif" font-size="10.00">/src/Python3/python3env.cpp</text>
</a>
</g>
</g>
<!-- Node2&#45;&gt;Node5 -->
<g id="edge4" class="edge">
<title>Node2&#45;&gt;Node5</title>
<path fill="none" stroke="#63b8ff" d="M2397.35,-91.22C2087.17,-91.84 885.96,-90.9 511,-41 501.93,-39.79 492.4,-37.97 483.2,-35.92"/>
<polygon fill="#63b8ff" stroke="#63b8ff" points="2396.93,-94.72 2406.92,-91.2 2396.92,-87.72 2396.93,-94.72"/>
</g>
<!-- Node6 -->
<g id="node6" class="node">
<title>Node6</title>
<g id="a_node6"><a xlink:href="python3fileloader_8cpp.html" target="_top" xlink:title=" ">
<polygon fill="white" stroke="#666666" points="684,-35.5 520,-35.5 520,-5.5 684,-5.5 684,-35.5"/>
<text text-anchor="start" x="528" y="-23.5" font-family="Helvetica,sans-Serif" font-size="10.00">plugins/behavior/python3</text>
<text text-anchor="middle" x="602" y="-12.5" font-family="Helvetica,sans-Serif" font-size="10.00">/src/Python3/python3fileloader.cpp</text>
</a>
</g>
</g>
<!-- Node2&#45;&gt;Node6 -->
<g id="edge5" class="edge">
<title>Node2&#45;&gt;Node6</title>
<path fill="none" stroke="#63b8ff" d="M2397.13,-90.72C2105.14,-89.36 1030.92,-81.61 693,-41 682.89,-39.79 672.25,-37.99 661.95,-35.97"/>
<polygon fill="#63b8ff" stroke="#63b8ff" points="2396.88,-94.22 2406.9,-90.77 2396.92,-87.22 2396.88,-94.22"/>
</g>
<!-- Node7 -->
<g id="node7" class="node">
<title>Node7</title>
<g id="a_node7"><a xlink:href="python3streamredirect_8cpp.html" target="_top" xlink:title=" ">
<polygon fill="white" stroke="#666666" points="890,-35.5 702,-35.5 702,-5.5 890,-5.5 890,-35.5"/>
<text text-anchor="start" x="710" y="-23.5" font-family="Helvetica,sans-Serif" font-size="10.00">plugins/behavior/python3</text>
<text text-anchor="middle" x="796" y="-12.5" font-family="Helvetica,sans-Serif" font-size="10.00">/src/Python3/python3streamredirect.cpp</text>
</a>
</g>
</g>
<!-- Node2&#45;&gt;Node7 -->
<g id="edge6" class="edge">
<title>Node2&#45;&gt;Node7</title>
<path fill="none" stroke="#63b8ff" d="M2396.9,-90.17C2126.73,-86.91 1194.84,-73.51 899,-41 887.78,-39.77 875.96,-37.99 864.48,-36"/>
<polygon fill="#63b8ff" stroke="#63b8ff" points="2396.58,-93.67 2406.62,-90.29 2396.66,-86.67 2396.58,-93.67"/>
</g>
<!-- Node8 -->
<g id="node8" class="node">
<title>Node8</title>
<g id="a_node8"><a xlink:href="pymatrix3_8cpp.html" target="_top" xlink:title=" ">
<polygon fill="white" stroke="#666666" points="1032,-41 908,-41 908,0 1032,0 1032,-41"/>
<text text-anchor="start" x="916" y="-29" font-family="Helvetica,sans-Serif" font-size="10.00">plugins/behavior/python3</text>
<text text-anchor="start" x="916" y="-18" font-family="Helvetica,sans-Serif" font-size="10.00">/src/Python3/util/math</text>
<text text-anchor="middle" x="970" y="-7" font-family="Helvetica,sans-Serif" font-size="10.00">/pymatrix3.cpp</text>
</a>
</g>
</g>
<!-- Node2&#45;&gt;Node8 -->
<g id="edge7" class="edge">
<title>Node2&#45;&gt;Node8</title>
<path fill="none" stroke="#63b8ff" d="M2396.79,-90.69C2142.34,-89.25 1306.28,-81.5 1041,-41 1038.09,-40.56 1035.14,-40.03 1032.16,-39.45"/>
<polygon fill="#63b8ff" stroke="#63b8ff" points="2396.57,-94.18 2406.59,-90.74 2396.61,-87.18 2396.57,-94.18"/>
</g>
<!-- Node9 -->
<g id="node9" class="node">
<title>Node9</title>
<g id="a_node9"><a xlink:href="pymatrix4_8cpp.html" target="_top" xlink:title=" ">
<polygon fill="white" stroke="#666666" points="1174,-41 1050,-41 1050,0 1174,0 1174,-41"/>
<text text-anchor="start" x="1058" y="-29" font-family="Helvetica,sans-Serif" font-size="10.00">plugins/behavior/python3</text>
<text text-anchor="start" x="1058" y="-18" font-family="Helvetica,sans-Serif" font-size="10.00">/src/Python3/util/math</text>
<text text-anchor="middle" x="1112" y="-7" font-family="Helvetica,sans-Serif" font-size="10.00">/pymatrix4.cpp</text>
</a>
</g>
</g>
<!-- Node2&#45;&gt;Node9 -->
<g id="edge8" class="edge">
<title>Node2&#45;&gt;Node9</title>
<path fill="none" stroke="#63b8ff" d="M2397.05,-90.35C2159.8,-87.93 1419.49,-77.57 1183,-41 1180.09,-40.55 1177.14,-40.02 1174.16,-39.44"/>
<polygon fill="#63b8ff" stroke="#63b8ff" points="2396.75,-93.85 2406.79,-90.45 2396.82,-86.85 2396.75,-93.85"/>
</g>
<!-- Node10 -->
<g id="node10" class="node">
<title>Node10</title>
<g id="a_node10"><a xlink:href="pyquaternion_8cpp.html" target="_top" xlink:title=" ">
<polygon fill="white" stroke="#666666" points="1316,-41 1192,-41 1192,0 1316,0 1316,-41"/>
<text text-anchor="start" x="1200" y="-29" font-family="Helvetica,sans-Serif" font-size="10.00">plugins/behavior/python3</text>
<text text-anchor="start" x="1200" y="-18" font-family="Helvetica,sans-Serif" font-size="10.00">/src/Python3/util/math</text>
<text text-anchor="middle" x="1254" y="-7" font-family="Helvetica,sans-Serif" font-size="10.00">/pyquaternion.cpp</text>
</a>
</g>
</g>
<!-- Node2&#45;&gt;Node10 -->
<g id="edge9" class="edge">
<title>Node2&#45;&gt;Node10</title>
<path fill="none" stroke="#63b8ff" d="M2396.76,-89.94C2177.09,-86.44 1532.65,-73.62 1325,-41 1322.1,-40.54 1319.14,-40.01 1316.17,-39.42"/>
<polygon fill="#63b8ff" stroke="#63b8ff" points="2396.58,-93.43 2406.63,-90.09 2396.69,-86.43 2396.58,-93.43"/>
</g>
<!-- Node11 -->
<g id="node11" class="node">
<title>Node11</title>
<g id="a_node11"><a xlink:href="pyvector2_8cpp.html" target="_top" xlink:title=" ">
<polygon fill="white" stroke="#666666" points="1458,-41 1334,-41 1334,0 1458,0 1458,-41"/>
<text text-anchor="start" x="1342" y="-29" font-family="Helvetica,sans-Serif" font-size="10.00">plugins/behavior/python3</text>
<text text-anchor="start" x="1342" y="-18" font-family="Helvetica,sans-Serif" font-size="10.00">/src/Python3/util/math</text>
<text text-anchor="middle" x="1396" y="-7" font-family="Helvetica,sans-Serif" font-size="10.00">/pyvector2.cpp</text>
</a>
</g>
</g>
<!-- Node2&#45;&gt;Node11 -->
<g id="edge10" class="edge">
<title>Node2&#45;&gt;Node11</title>
<path fill="none" stroke="#63b8ff" d="M2396.79,-89.4C2196.16,-84.75 1646.08,-69.7 1467,-41 1464.1,-40.53 1461.14,-40 1458.17,-39.4"/>
<polygon fill="#63b8ff" stroke="#63b8ff" points="2396.48,-92.9 2406.56,-89.63 2396.64,-85.9 2396.48,-92.9"/>
</g>
<!-- Node12 -->
<g id="node12" class="node">
<title>Node12</title>
<g id="a_node12"><a xlink:href="pyvector3_8cpp.html" target="_top" xlink:title=" ">
<polygon fill="white" stroke="#666666" points="1600,-41 1476,-41 1476,0 1600,0 1600,-41"/>
<text text-anchor="start" x="1484" y="-29" font-family="Helvetica,sans-Serif" font-size="10.00">plugins/behavior/python3</text>
<text text-anchor="start" x="1484" y="-18" font-family="Helvetica,sans-Serif" font-size="10.00">/src/Python3/util/math</text>
<text text-anchor="middle" x="1538" y="-7" font-family="Helvetica,sans-Serif" font-size="10.00">/pyvector3.cpp</text>
</a>
</g>
</g>
<!-- Node2&#45;&gt;Node12 -->
<g id="edge11" class="edge">
<title>Node2&#45;&gt;Node12</title>
<path fill="none" stroke="#63b8ff" d="M2396.73,-91.92C2246.76,-92.62 1897.5,-88.44 1609,-41 1606.1,-40.52 1603.15,-39.97 1600.17,-39.37"/>
<polygon fill="#63b8ff" stroke="#63b8ff" points="2396.55,-95.42 2406.53,-91.86 2396.51,-88.42 2396.55,-95.42"/>
</g>
<!-- Node13 -->
<g id="node13" class="node">
<title>Node13</title>
<g id="a_node13"><a xlink:href="pyvector4_8cpp.html" target="_top" xlink:title=" ">
<polygon fill="white" stroke="#666666" points="1742,-41 1618,-41 1618,0 1742,0 1742,-41"/>
<text text-anchor="start" x="1626" y="-29" font-family="Helvetica,sans-Serif" font-size="10.00">plugins/behavior/python3</text>
<text text-anchor="start" x="1626" y="-18" font-family="Helvetica,sans-Serif" font-size="10.00">/src/Python3/util/math</text>
<text text-anchor="middle" x="1680" y="-7" font-family="Helvetica,sans-Serif" font-size="10.00">/pyvector4.cpp</text>
</a>
</g>
</g>
<!-- Node2&#45;&gt;Node13 -->
<g id="edge12" class="edge">
<title>Node2&#45;&gt;Node13</title>
<path fill="none" stroke="#63b8ff" d="M2396.93,-90.69C2265.78,-89.07 1984.51,-80.77 1751,-41 1748.1,-40.51 1745.15,-39.94 1742.18,-39.33"/>
<polygon fill="#63b8ff" stroke="#63b8ff" points="2396.83,-94.19 2406.87,-90.8 2396.91,-87.19 2396.83,-94.19"/>
</g>
<!-- Node14 -->
<g id="node14" class="node">
<title>Node14</title>
<g id="a_node14"><a xlink:href="pyapifunction_8cpp.html" target="_top" xlink:title=" ">
<polygon fill="white" stroke="#666666" points="1925.5,-35.5 1760.5,-35.5 1760.5,-5.5 1925.5,-5.5 1925.5,-35.5"/>
<text text-anchor="start" x="1768.5" y="-23.5" font-family="Helvetica,sans-Serif" font-size="10.00">plugins/behavior/python3</text>
<text text-anchor="middle" x="1843" y="-12.5" font-family="Helvetica,sans-Serif" font-size="10.00">/src/Python3/util/pyapifunction.cpp</text>
</a>
</g>
</g>
<!-- Node2&#45;&gt;Node14 -->
<g id="edge13" class="edge">
<title>Node2&#45;&gt;Node14</title>
<path fill="none" stroke="#63b8ff" d="M2396.99,-86.89C2293.12,-80.48 2098.37,-66.17 1934,-41 1924.74,-39.58 1915,-37.8 1905.48,-35.9"/>
<polygon fill="#63b8ff" stroke="#63b8ff" points="2396.58,-90.37 2406.77,-87.48 2397,-83.38 2396.58,-90.37"/>
</g>
<!-- Node15 -->
<g id="node15" class="node">
<title>Node15</title>
<g id="a_node15"><a xlink:href="pyboundapifunction_8cpp.html" target="_top" xlink:title=" ">
<polygon fill="white" stroke="#666666" points="2134.5,-35.5 1943.5,-35.5 1943.5,-5.5 2134.5,-5.5 2134.5,-35.5"/>
<text text-anchor="start" x="1951.5" y="-23.5" font-family="Helvetica,sans-Serif" font-size="10.00">plugins/behavior/python3</text>
<text text-anchor="middle" x="2039" y="-12.5" font-family="Helvetica,sans-Serif" font-size="10.00">/src/Python3/util/pyboundapifunction.cpp</text>
</a>
</g>
</g>
<!-- Node2&#45;&gt;Node15 -->
<g id="edge14" class="edge">
<title>Node2&#45;&gt;Node15</title>
<path fill="none" stroke="#63b8ff" d="M2396.81,-80.43C2330.26,-70.77 2229.97,-55.78 2143,-41 2133.76,-39.43 2124.08,-37.71 2114.49,-35.97"/>
<polygon fill="#63b8ff" stroke="#63b8ff" points="2396.12,-83.86 2406.52,-81.83 2397.12,-76.94 2396.12,-83.86"/>
</g>
<!-- Node16 -->
<g id="node16" class="node">
<title>Node16</title>
<g id="a_node16"><a xlink:href="pydictptr_8cpp.html" target="_top" xlink:title=" ">
<polygon fill="white" stroke="#666666" points="2297.5,-35.5 2152.5,-35.5 2152.5,-5.5 2297.5,-5.5 2297.5,-35.5"/>
<text text-anchor="start" x="2160.5" y="-23.5" font-family="Helvetica,sans-Serif" font-size="10.00">plugins/behavior/python3</text>
<text text-anchor="middle" x="2225" y="-12.5" font-family="Helvetica,sans-Serif" font-size="10.00">/src/Python3/util/pydictptr.cpp</text>
</a>
</g>
</g>
<!-- Node2&#45;&gt;Node16 -->
<g id="edge15" class="edge">
<title>Node2&#45;&gt;Node16</title>
<path fill="none" stroke="#63b8ff" d="M2408.78,-73.42C2367.78,-61.84 2314.75,-46.86 2276.2,-35.97"/>
<polygon fill="#63b8ff" stroke="#63b8ff" points="2407.7,-76.75 2418.27,-76.1 2409.6,-70.02 2407.7,-76.75"/>
</g>
<!-- Node17 -->
<g id="node17" class="node">
<title>Node17</title>
<g id="a_node17"><a xlink:href="pyenum_8cpp.html" target="_top" xlink:title=" ">
<polygon fill="white" stroke="#666666" points="2458,-35.5 2316,-35.5 2316,-5.5 2458,-5.5 2458,-35.5"/>
<text text-anchor="start" x="2324" y="-23.5" font-family="Helvetica,sans-Serif" font-size="10.00">plugins/behavior/python3</text>
<text text-anchor="middle" x="2387" y="-12.5" font-family="Helvetica,sans-Serif" font-size="10.00">/src/Python3/util/pyenum.cpp</text>
</a>
</g>
</g>
<!-- Node2&#45;&gt;Node17 -->
<g id="edge16" class="edge">
<title>Node2&#45;&gt;Node17</title>
<path fill="none" stroke="#63b8ff" d="M2444.94,-69.43C2431.74,-58.52 2416.09,-45.57 2404.38,-35.88"/>
<polygon fill="#63b8ff" stroke="#63b8ff" points="2442.49,-71.96 2452.43,-75.63 2446.96,-66.56 2442.49,-71.96"/>
</g>
<!-- Node18 -->
<g id="node18" class="node">
<title>Node18</title>
<g id="a_node18"><a xlink:href="pyexecution_8cpp.html" target="_top" xlink:title=" ">
<polygon fill="white" stroke="#666666" points="2635.5,-35.5 2476.5,-35.5 2476.5,-5.5 2635.5,-5.5 2635.5,-35.5"/>
<text text-anchor="start" x="2484.5" y="-23.5" font-family="Helvetica,sans-Serif" font-size="10.00">plugins/behavior/python3</text>
<text text-anchor="middle" x="2556" y="-12.5" font-family="Helvetica,sans-Serif" font-size="10.00">/src/Python3/util/pyexecution.cpp</text>
</a>
</g>
</g>
<!-- Node2&#45;&gt;Node18 -->
<g id="edge17" class="edge">
<title>Node2&#45;&gt;Node18</title>
<path fill="none" stroke="#63b8ff" d="M2497.38,-69.43C2510.72,-58.52 2526.56,-45.57 2538.41,-35.88"/>
<polygon fill="#63b8ff" stroke="#63b8ff" points="2495.31,-66.6 2489.78,-75.64 2499.74,-72.02 2495.31,-66.6"/>
</g>
<!-- Node19 -->
<g id="node19" class="node">
<title>Node19</title>
<g id="a_node19"><a xlink:href="pyflags_8cpp.html" target="_top" xlink:title=" ">
<polygon fill="white" stroke="#666666" points="2792,-35.5 2654,-35.5 2654,-5.5 2792,-5.5 2792,-35.5"/>
<text text-anchor="start" x="2662" y="-23.5" font-family="Helvetica,sans-Serif" font-size="10.00">plugins/behavior/python3</text>
<text text-anchor="middle" x="2723" y="-12.5" font-family="Helvetica,sans-Serif" font-size="10.00">/src/Python3/util/pyflags.cpp</text>
</a>
</g>
</g>
<!-- Node2&#45;&gt;Node19 -->
<g id="edge18" class="edge">
<title>Node2&#45;&gt;Node19</title>
<path fill="none" stroke="#63b8ff" d="M2534.47,-73.49C2576.5,-61.9 2630.97,-46.88 2670.55,-35.97"/>
<polygon fill="#63b8ff" stroke="#63b8ff" points="2533.69,-70.08 2524.98,-76.11 2535.55,-76.83 2533.69,-70.08"/>
</g>
<!-- Node20 -->
<g id="node20" class="node">
<title>Node20</title>
<g id="a_node20"><a xlink:href="pyframeptr_8cpp.html" target="_top" xlink:title=" ">
<polygon fill="white" stroke="#666666" points="2964,-35.5 2810,-35.5 2810,-5.5 2964,-5.5 2964,-35.5"/>
<text text-anchor="start" x="2818" y="-23.5" font-family="Helvetica,sans-Serif" font-size="10.00">plugins/behavior/python3</text>
<text text-anchor="middle" x="2887" y="-12.5" font-family="Helvetica,sans-Serif" font-size="10.00">/src/Python3/util/pyframeptr.cpp</text>
</a>
</g>
</g>
<!-- Node2&#45;&gt;Node20 -->
<g id="edge19" class="edge">
<title>Node2&#45;&gt;Node20</title>
<path fill="none" stroke="#63b8ff" d="M2545.09,-76.72C2659.15,-58.16 2690.67,-61.17 2801,-41 2809.13,-39.51 2817.66,-37.79 2826.06,-35.99"/>
<polygon fill="#63b8ff" stroke="#63b8ff" points="2544.58,-73.26 2535.29,-78.34 2545.72,-80.16 2544.58,-73.26"/>
</g>
<!-- Node21 -->
<g id="node21" class="node">
<title>Node21</title>
<g id="a_node21"><a xlink:href="pylistptr_8cpp.html" target="_top" xlink:title=" ">
<polygon fill="white" stroke="#666666" points="3124,-35.5 2982,-35.5 2982,-5.5 3124,-5.5 3124,-35.5"/>
<text text-anchor="start" x="2990" y="-23.5" font-family="Helvetica,sans-Serif" font-size="10.00">plugins/behavior/python3</text>
<text text-anchor="middle" x="3053" y="-12.5" font-family="Helvetica,sans-Serif" font-size="10.00">/src/Python3/util/pylistptr.cpp</text>
</a>
</g>
</g>
<!-- Node2&#45;&gt;Node21 -->
<g id="edge20" class="edge">
<title>Node2&#45;&gt;Node21</title>
<path fill="none" stroke="#63b8ff" d="M2544.98,-76.85C2734.95,-51.45 2787.31,-71.21 2973,-41 2981.32,-39.65 2990.06,-37.88 2998.58,-35.96"/>
<polygon fill="#63b8ff" stroke="#63b8ff" points="2544.7,-73.36 2535.26,-78.18 2545.64,-80.29 2544.7,-73.36"/>
</g>
<!-- Node22 -->
<g id="node22" class="node">
<title>Node22</title>
<g id="a_node22"><a xlink:href="pymoduleptr_8cpp.html" target="_top" xlink:title=" ">
<polygon fill="white" stroke="#666666" points="3303.5,-35.5 3142.5,-35.5 3142.5,-5.5 3303.5,-5.5 3303.5,-35.5"/>
<text text-anchor="start" x="3150.5" y="-23.5" font-family="Helvetica,sans-Serif" font-size="10.00">plugins/behavior/python3</text>
<text text-anchor="middle" x="3223" y="-12.5" font-family="Helvetica,sans-Serif" font-size="10.00">/src/Python3/util/pymoduleptr.cpp</text>
</a>
</g>
</g>
<!-- Node2&#45;&gt;Node22 -->
<g id="edge21" class="edge">
<title>Node2&#45;&gt;Node22</title>
<path fill="none" stroke="#63b8ff" d="M2545.09,-76.87C2805.61,-44.78 2876.44,-76.41 3133,-41 3142.5,-39.69 3152.49,-37.92 3162.22,-35.98"/>
<polygon fill="#63b8ff" stroke="#63b8ff" points="2544.74,-73.39 2535.25,-78.11 2545.61,-80.34 2544.74,-73.39"/>
</g>
<!-- Node23 -->
<g id="node23" class="node">
<title>Node23</title>
<g id="a_node23"><a xlink:href="pyobjectiter_8cpp.html" target="_top" xlink:title=" ">
<polygon fill="white" stroke="#666666" points="3480,-35.5 3322,-35.5 3322,-5.5 3480,-5.5 3480,-35.5"/>
<text text-anchor="start" x="3330" y="-23.5" font-family="Helvetica,sans-Serif" font-size="10.00">plugins/behavior/python3</text>
<text text-anchor="middle" x="3401" y="-12.5" font-family="Helvetica,sans-Serif" font-size="10.00">/src/Python3/util/pyobjectiter.cpp</text>
</a>
</g>
</g>
<!-- Node2&#45;&gt;Node23 -->
<g id="edge22" class="edge">
<title>Node2&#45;&gt;Node23</title>
<path fill="none" stroke="#63b8ff" d="M2545.17,-76.89C2885.17,-37.28 2977.13,-85.73 3313,-41 3322.62,-39.72 3332.74,-37.92 3342.55,-35.92"/>
<polygon fill="#63b8ff" stroke="#63b8ff" points="2544.77,-73.41 2535.25,-78.06 2545.59,-80.36 2544.77,-73.41"/>
</g>
<!-- Node24 -->
<g id="node24" class="node">
<title>Node24</title>
<g id="a_node24"><a xlink:href="pyobjectptr_8cpp.html" target="_top" xlink:title=" ">
<polygon fill="white" stroke="#666666" points="3653.5,-35.5 3498.5,-35.5 3498.5,-5.5 3653.5,-5.5 3653.5,-35.5"/>
<text text-anchor="start" x="3506.5" y="-23.5" font-family="Helvetica,sans-Serif" font-size="10.00">plugins/behavior/python3</text>
<text text-anchor="middle" x="3576" y="-12.5" font-family="Helvetica,sans-Serif" font-size="10.00">/src/Python3/util/pyobjectptr.cpp</text>
</a>
</g>
</g>
<!-- Node2&#45;&gt;Node24 -->
<g id="edge23" class="edge">
<title>Node2&#45;&gt;Node24</title>
<path fill="none" stroke="#63b8ff" d="M2544.93,-76.93C2962.94,-29.86 3075.43,-94.76 3489,-41 3498.52,-39.76 3508.53,-37.98 3518.23,-35.99"/>
<polygon fill="#63b8ff" stroke="#63b8ff" points="2544.78,-73.43 2535.24,-78.04 2545.58,-80.38 2544.78,-73.43"/>
</g>
<!-- Node25 -->
<g id="node25" class="node">
<title>Node25</title>
<g id="a_node25"><a xlink:href="pyobjectutil_8cpp.html" target="_top" xlink:title=" ">
<polygon fill="white" stroke="#666666" points="3828.5,-35.5 3671.5,-35.5 3671.5,-5.5 3828.5,-5.5 3828.5,-35.5"/>
<text text-anchor="start" x="3679.5" y="-23.5" font-family="Helvetica,sans-Serif" font-size="10.00">plugins/behavior/python3</text>
<text text-anchor="middle" x="3750" y="-12.5" font-family="Helvetica,sans-Serif" font-size="10.00">/src/Python3/util/pyobjectutil.cpp</text>
</a>
</g>
</g>
<!-- Node2&#45;&gt;Node25 -->
<g id="edge24" class="edge">
<title>Node2&#45;&gt;Node25</title>
<path fill="none" stroke="#63b8ff" d="M2545.12,-76.92C3039.91,-22.53 3172.67,-103.27 3663,-41 3672.67,-39.77 3682.86,-37.97 3692.71,-35.94"/>
<polygon fill="#63b8ff" stroke="#63b8ff" points="2544.79,-73.44 2535.24,-78.02 2545.57,-80.39 2544.79,-73.44"/>
</g>
<!-- Node26 -->
<g id="node26" class="node">
<title>Node26</title>
<g id="a_node26"><a xlink:href="pyownedscopeptr_8cpp.html" target="_top" xlink:title=" ">
<polygon fill="white" stroke="#666666" points="4031,-35.5 3847,-35.5 3847,-5.5 4031,-5.5 4031,-35.5"/>
<text text-anchor="start" x="3855" y="-23.5" font-family="Helvetica,sans-Serif" font-size="10.00">plugins/behavior/python3</text>
<text text-anchor="middle" x="3939" y="-12.5" font-family="Helvetica,sans-Serif" font-size="10.00">/src/Python3/util/pyownedscopeptr.cpp</text>
</a>
</g>
</g>
<!-- Node2&#45;&gt;Node26 -->
<g id="edge25" class="edge">
<title>Node2&#45;&gt;Node26</title>
<path fill="none" stroke="#63b8ff" d="M2545.18,-76.92C3117.3,-15.02 3269.43,-103.37 3838,-41 3849.1,-39.78 3860.79,-38 3872.14,-35.99"/>
<polygon fill="#63b8ff" stroke="#63b8ff" points="2544.8,-73.44 2535.24,-78.01 2545.56,-80.4 2544.8,-73.44"/>
</g>
<!-- Node27 -->
<g id="node27" class="node">
<title>Node27</title>
<g id="a_node27"><a xlink:href="pyscopeiterator_8cpp.html" target="_top" xlink:title=" ">
<polygon fill="white" stroke="#666666" points="4223,-35.5 4049,-35.5 4049,-5.5 4223,-5.5 4223,-35.5"/>
<text text-anchor="start" x="4057" y="-23.5" font-family="Helvetica,sans-Serif" font-size="10.00">plugins/behavior/python3</text>
<text text-anchor="middle" x="4136" y="-12.5" font-family="Helvetica,sans-Serif" font-size="10.00">/src/Python3/util/pyscopeiterator.cpp</text>
</a>
</g>
</g>
<!-- Node2&#45;&gt;Node27 -->
<g id="edge26" class="edge">
<title>Node2&#45;&gt;Node27</title>
<path fill="none" stroke="#63b8ff" d="M2544.99,-76.95C3206.61,-6.47 3382.37,-115.11 4040,-41 4050.65,-39.8 4061.87,-38.01 4072.73,-35.99"/>
<polygon fill="#63b8ff" stroke="#63b8ff" points="2544.81,-73.45 2535.24,-78 2545.56,-80.41 2544.81,-73.45"/>
</g>
<!-- Node28 -->
<g id="node28" class="node">
<title>Node28</title>
<g id="a_node28"><a xlink:href="pyscopeptr_8cpp.html" target="_top" xlink:title=" ">
<polygon fill="white" stroke="#666666" points="4396.5,-35.5 4241.5,-35.5 4241.5,-5.5 4396.5,-5.5 4396.5,-35.5"/>
<text text-anchor="start" x="4249.5" y="-23.5" font-family="Helvetica,sans-Serif" font-size="10.00">plugins/behavior/python3</text>
<text text-anchor="middle" x="4319" y="-12.5" font-family="Helvetica,sans-Serif" font-size="10.00">/src/Python3/util/pyscopeptr.cpp</text>
</a>
</g>
</g>
<!-- Node2&#45;&gt;Node28 -->
<g id="edge27" class="edge">
<title>Node2&#45;&gt;Node28</title>
<path fill="none" stroke="#63b8ff" d="M2545.04,-76.95C3291.56,1.61 3490.37,-131.1 4232,-41 4241.83,-39.81 4252.19,-37.99 4262.19,-35.94"/>
<polygon fill="#63b8ff" stroke="#63b8ff" points="2544.81,-73.45 2535.24,-77.99 2545.55,-80.41 2544.81,-73.45"/>
</g>
<!-- Node29 -->
<g id="node29" class="node">
<title>Node29</title>
<g id="a_node29"><a xlink:href="pysender_8cpp.html" target="_top" xlink:title=" ">
<polygon fill="white" stroke="#666666" points="4561.5,-35.5 4414.5,-35.5 4414.5,-5.5 4561.5,-5.5 4561.5,-35.5"/>
<text text-anchor="start" x="4422.5" y="-23.5" font-family="Helvetica,sans-Serif" font-size="10.00">plugins/behavior/python3</text>
<text text-anchor="middle" x="4488" y="-12.5" font-family="Helvetica,sans-Serif" font-size="10.00">/src/Python3/util/pysender.cpp</text>
</a>
</g>
</g>
<!-- Node2&#45;&gt;Node29 -->
<g id="edge28" class="edge">
<title>Node2&#45;&gt;Node29</title>
<path fill="none" stroke="#63b8ff" d="M2544.98,-76.98C2973.01,-34.36 3998.84,-92.74 4406,-41 4415.29,-39.82 4425.06,-38.01 4434.49,-35.96"/>
<polygon fill="#63b8ff" stroke="#63b8ff" points="2544.83,-73.48 2535.24,-77.99 2545.54,-80.44 2544.83,-73.48"/>
</g>
<!-- Node30 -->
<g id="node30" class="node">
<title>Node30</title>
<g id="a_node30"><a xlink:href="python3lock_8cpp.html" target="_top" xlink:title=" ">
<polygon fill="white" stroke="#666666" points="4740,-35.5 4580,-35.5 4580,-5.5 4740,-5.5 4740,-35.5"/>
<text text-anchor="start" x="4588" y="-23.5" font-family="Helvetica,sans-Serif" font-size="10.00">plugins/behavior/python3</text>
<text text-anchor="middle" x="4660" y="-12.5" font-family="Helvetica,sans-Serif" font-size="10.00">/src/Python3/util/python3lock.cpp</text>
</a>
</g>
</g>
<!-- Node2&#45;&gt;Node30 -->
<g id="edge29" class="edge">
<title>Node2&#45;&gt;Node30</title>
<path fill="none" stroke="#63b8ff" d="M2544.92,-76.99C3009.46,-30.82 4126.94,-93.07 4571,-41 4581.05,-39.82 4591.64,-38.01 4601.87,-35.96"/>
<polygon fill="#63b8ff" stroke="#63b8ff" points="2544.83,-73.48 2535.24,-77.98 2545.54,-80.44 2544.83,-73.48"/>
</g>
<!-- Node31 -->
<g id="node31" class="node">
<title>Node31</title>
<g id="a_node31"><a xlink:href="pyvirtualiterator_8cpp.html" target="_top" xlink:title=" ">
<polygon fill="white" stroke="#666666" points="4932,-35.5 4758,-35.5 4758,-5.5 4932,-5.5 4932,-35.5"/>
<text text-anchor="start" x="4766" y="-23.5" font-family="Helvetica,sans-Serif" font-size="10.00">plugins/behavior/python3</text>
<text text-anchor="middle" x="4845" y="-12.5" font-family="Helvetica,sans-Serif" font-size="10.00">/src/Python3/util/pyvirtualiterator.cpp</text>
</a>
</g>
</g>
<!-- Node2&#45;&gt;Node31 -->
<g id="edge30" class="edge">
<title>Node2&#45;&gt;Node31</title>
<path fill="none" stroke="#63b8ff" d="M2545.14,-76.97C3049.22,-27.04 4265.28,-93.62 4749,-41 4759.82,-39.82 4771.23,-38.02 4782.26,-35.97"/>
<polygon fill="#63b8ff" stroke="#63b8ff" points="2544.83,-73.48 2535.24,-77.98 2545.54,-80.44 2544.83,-73.48"/>
</g>
<!-- Node32 -->
<g id="node32" class="node">
<title>Node32</title>
<g id="a_node32"><a xlink:href="pyvirtualrange_8cpp.html" target="_top" xlink:title=" ">
<polygon fill="white" stroke="#666666" points="5118,-35.5 4950,-35.5 4950,-5.5 5118,-5.5 5118,-35.5"/>
<text text-anchor="start" x="4958" y="-23.5" font-family="Helvetica,sans-Serif" font-size="10.00">plugins/behavior/python3</text>
<text text-anchor="middle" x="5034" y="-12.5" font-family="Helvetica,sans-Serif" font-size="10.00">/src/Python3/util/pyvirtualrange.cpp</text>
</a>
</g>
</g>
<!-- Node2&#45;&gt;Node32 -->
<g id="edge31" class="edge">
<title>Node2&#45;&gt;Node32</title>
<path fill="none" stroke="#63b8ff" d="M2544.9,-76.99C3091.35,-22.98 4414.94,-99.55 4941,-41 4951.49,-39.83 4962.55,-38.03 4973.24,-35.98"/>
<polygon fill="#63b8ff" stroke="#63b8ff" points="2544.83,-73.48 2535.24,-77.97 2545.54,-80.44 2544.83,-73.48"/>
</g>
<!-- Node33&#45;&gt;Node2 -->
<g id="edge33" class="edge">
<title>Node33&#45;&gt;Node2</title>
<path fill="none" stroke="#63b8ff" d="M2764.98,-145.93C2706.57,-136.04 2619.03,-120.99 2543,-107 2539.99,-106.45 2536.92,-105.87 2533.81,-105.29"/>
<polygon fill="#63b8ff" stroke="#63b8ff" points="2764.33,-149.37 2774.77,-147.58 2765.5,-142.46 2764.33,-149.37"/>
</g>
<!-- Node34 -->
<g id="node34" class="node">
<title>Node34</title>
<g id="a_node34"><a xlink:href="debuggablelifetime_8cpp.html" target="_top" xlink:title=" ">
<polygon fill="white" stroke="#666666" points="2740,-107 2552,-107 2552,-77 2740,-77 2740,-107"/>
<text text-anchor="start" x="2560" y="-95" font-family="Helvetica,sans-Serif" font-size="10.00">plugins/debug/api/src</text>
<text text-anchor="middle" x="2646" y="-84" font-family="Helvetica,sans-Serif" font-size="10.00">/Madgine/debug/debuggablelifetime.cpp</text>
</a>
</g>
</g>
<!-- Node33&#45;&gt;Node34 -->
<g id="edge34" class="edge">
<title>Node33&#45;&gt;Node34</title>
<path fill="none" stroke="#63b8ff" d="M2778.78,-138.94C2749.96,-128.97 2714.66,-116.75 2687.7,-107.43"/>
<polygon fill="#63b8ff" stroke="#63b8ff" points="2777.46,-142.18 2788.05,-142.14 2779.75,-135.57 2777.46,-142.18"/>
</g>
<!-- Node35 -->
<g id="node35" class="node">
<title>Node35</title>
<g id="a_node35"><a xlink:href="debugger_8cpp.html" target="_top" xlink:title=" ">
<polygon fill="white" stroke="#666666" points="2904,-107 2758,-107 2758,-77 2904,-77 2904,-107"/>
<text text-anchor="start" x="2766" y="-95" font-family="Helvetica,sans-Serif" font-size="10.00">plugins/debug/api/src</text>
<text text-anchor="middle" x="2831" y="-84" font-family="Helvetica,sans-Serif" font-size="10.00">/Madgine/debug/debugger.cpp</text>
</a>
</g>
</g>
<!-- Node33&#45;&gt;Node35 -->
<g id="edge35" class="edge">
<title>Node33&#45;&gt;Node35</title>
<path fill="none" stroke="#63b8ff" d="M2831,-131.39C2831,-123.13 2831,-114.28 2831,-107.16"/>
<polygon fill="#63b8ff" stroke="#63b8ff" points="2827.5,-131.28 2831,-141.28 2834.5,-131.28 2827.5,-131.28"/>
</g>
<!-- Node36 -->
<g id="node36" class="node">
<title>Node36</title>
<g id="a_node36"><a xlink:href="debuglocation_8cpp.html" target="_top" xlink:title=" ">
<polygon fill="white" stroke="#666666" points="3089.5,-107 2922.5,-107 2922.5,-77 3089.5,-77 3089.5,-107"/>
<text text-anchor="start" x="2930.5" y="-95" font-family="Helvetica,sans-Serif" font-size="10.00">plugins/debug/api/src</text>
<text text-anchor="middle" x="3006" y="-84" font-family="Helvetica,sans-Serif" font-size="10.00">/Madgine/debug/debuglocation.cpp</text>
</a>
</g>
</g>
<!-- Node33&#45;&gt;Node36 -->
<g id="edge36" class="edge">
<title>Node33&#45;&gt;Node36</title>
<path fill="none" stroke="#63b8ff" d="M2880.75,-138.8C2907.95,-128.86 2941.17,-116.71 2966.56,-107.43"/>
<polygon fill="#63b8ff" stroke="#63b8ff" points="2879.88,-135.4 2871.69,-142.12 2882.29,-141.97 2879.88,-135.4"/>
</g>
<!-- Node37 -->
<g id="node37" class="node">
<title>Node37</title>
<g id="a_node37"><a xlink:href="debuglocationsplitter_8cpp.html" target="_top" xlink:title=" ">
<polygon fill="white" stroke="#666666" points="3304,-107 3108,-107 3108,-77 3304,-77 3304,-107"/>
<text text-anchor="start" x="3116" y="-95" font-family="Helvetica,sans-Serif" font-size="10.00">plugins/debug/api/src</text>
<text text-anchor="middle" x="3206" y="-84" font-family="Helvetica,sans-Serif" font-size="10.00">/Madgine/debug/debuglocationsplitter.cpp</text>
</a>
</g>
</g>
<!-- Node33&#45;&gt;Node37 -->
<g id="edge37" class="edge">
<title>Node33&#45;&gt;Node37</title>
<path fill="none" stroke="#63b8ff" d="M2897.04,-142.68C2973.42,-128.35 3049.27,-116.24 3107.71,-107.36"/>
<polygon fill="#63b8ff" stroke="#63b8ff" points="2896.44,-139.23 2887.26,-144.53 2897.73,-146.11 2896.44,-139.23"/>
</g>
<!-- Node38 -->
<g id="node38" class="node">
<title>Node38</title>
<g id="a_node38"><a xlink:href="senderlocation_8cpp.html" target="_top" xlink:title=" ">
<polygon fill="white" stroke="#666666" points="3492,-107 3322,-107 3322,-77 3492,-77 3492,-107"/>
<text text-anchor="start" x="3330" y="-95" font-family="Helvetica,sans-Serif" font-size="10.00">plugins/debug/api/src</text>
<text text-anchor="middle" x="3407" y="-84" font-family="Helvetica,sans-Serif" font-size="10.00">/Madgine/debug/senderlocation.cpp</text>
</a>
</g>
</g>
<!-- Node33&#45;&gt;Node38 -->
<g id="edge38" class="edge">
<title>Node33&#45;&gt;Node38</title>
<path fill="none" stroke="#63b8ff" d="M2896.91,-142.86C3081.3,-115.54 3131.42,-128.32 3313,-107 3315.87,-106.66 3318.78,-106.31 3321.72,-105.94"/>
<polygon fill="#63b8ff" stroke="#63b8ff" points="2896.59,-139.37 2887.22,-144.32 2897.63,-146.29 2896.59,-139.37"/>
</g>
</g>
</svg>
        <g id="navigator" transform="translate(0 0)" fill="#404254">
                <rect fill="#f2f5e9" fill-opacity="0.5" stroke="#606060" stroke-width=".5" x="0" y="0" width="60" height="60"/>
                <use id="zoomplus" xlink:href="#zoomPlus" x="17" y="9" onmousedown="handleZoom(evt,'in')"/>
                <use id="zoomminus" xlink:href="#zoomMin" x="42" y="9" onmousedown="handleZoom(evt,'out')"/>
                <use id="reset" xlink:href="#resetDef" x="30" y="36" onmousedown="handleReset()"/>
                <g id="arrowUp" xlink:href="#dirArrow" transform="translate(30 24)" onmousedown="handlePan(0,-1)">
                  <use xlink:href="#rim" fill="#404040">
                        <set attributeName="fill" to="#808080" begin="arrowUp.mouseover" end="arrowUp.mouseout"/>
                  </use>
                  <path fill="none" stroke="white" stroke-width="1.5" d="M0,-3.0v7 M-2.5,-0.5L0,-3.0L2.5,-0.5"/>
                </g>
                <g id="arrowRight" xlink:href="#dirArrow" transform="rotate(90) translate(36 -43)" onmousedown="handlePan(1,0)">
                  <use xlink:href="#rim" fill="#404040">
                        <set attributeName="fill" to="#808080" begin="arrowRight.mouseover" end="arrowRight.mouseout"/>
                  </use>
                  <path fill="none" stroke="white" stroke-width="1.5" d="M0,-3.0v7 M-2.5,-0.5L0,-3.0L2.5,-0.5"/>
                </g>
                <g id="arrowDown" xlink:href="#dirArrow" transform="rotate(180) translate(-30 -48)" onmousedown="handlePan(0,1)">
                  <use xlink:href="#rim" fill="#404040">
                        <set attributeName="fill" to="#808080" begin="arrowDown.mouseover" end="arrowDown.mouseout"/>
                  </use>
                  <path fill="none" stroke="white" stroke-width="1.5" d="M0,-3.0v7 M-2.5,-0.5L0,-3.0L2.5,-0.5"/>
                </g>
                <g id="arrowLeft" xlink:href="#dirArrow" transform="rotate(270) translate(-36 17)" onmousedown="handlePan(-1,0)">
                  <use xlink:href="#rim" fill="#404040">
                        <set attributeName="fill" to="#808080" begin="arrowLeft.mouseover" end="arrowLeft.mouseout"/>
                  </use>
                  <path fill="none" stroke="white" stroke-width="1.5" d="M0,-3.0v7 M-2.5,-0.5L0,-3.0L2.5,-0.5"/>
                </g>
        </g>
        <svg viewBox="0 0 15 15" width="100%" height="30px" preserveAspectRatio="xMaxYMin meet">
         <g id="arrow_out" transform="scale(0.3 0.3)">
          <a xlink:href="rootlib_8h__dep__incl_org.svg" target="_base">
           <rect id="button" ry="5" rx="5" y="6" x="6" height="38" width="38"
                fill="#f2f5e9" fill-opacity="0.5" stroke="#606060" stroke-width="1.0"/>
           <path id="arrow"
             d="M 11.500037,31.436501 C 11.940474,20.09759 22.043105,11.32322 32.158766,21.979434 L 37.068811,17.246167 C 37.068811,17.246167 37.088388,32 37.088388,32 L 22.160133,31.978069 C 22.160133,31.978069 26.997745,27.140456 26.997745,27.140456 C 18.528582,18.264221 13.291696,25.230495 11.500037,31.436501 z"
             style="fill:#404040;"/>
          </a>
         </g>
        </svg>
</svg>
