<?xml version="1.0" encoding="UTF-8" standalone="no"?>
<!DOCTYPE svg PUBLIC "-//W3C//DTD SVG 1.1//EN"
 "http://www.w3.org/Graphics/SVG/1.1/DTD/svg11.dtd">
<!-- Generated by graphviz version 7.0.5 (20221223.1930)
 -->
<!-- Title: plugins/misc/scene/renderer/Madgine/scenerendererlib.h Pages: 1 -->
<svg width="1429pt" height="192pt"
 viewBox="0.00 0.00 1429.00 192.00" xmlns="http://www.w3.org/2000/svg" xmlns:xlink="http://www.w3.org/1999/xlink">
<g id="graph0" class="graph" transform="scale(1 1) rotate(0) translate(4 188)">
<title>plugins/misc/scene/renderer/Madgine/scenerendererlib.h</title>
<!-- Node1 -->
<g id="node1" class="node">
<title>Node1</title>
<g id="a_node1"><a xlink:title=" ">
<polygon fill="#999999" stroke="#666666" points="707.5,-184 531.5,-184 531.5,-154 707.5,-154 707.5,-184"/>
<text text-anchor="start" x="539.5" y="-172" font-family="Helvetica,sans-Serif" font-size="10.00">plugins/misc/scene</text>
<text text-anchor="middle" x="619.5" y="-161" font-family="Helvetica,sans-Serif" font-size="10.00">/renderer/Madgine/scenerendererlib.h</text>
</a>
</g>
</g>
<!-- Node2 -->
<g id="node2" class="node">
<title>Node2</title>
<g id="a_node2"><a xlink:href="litscenerenderdata_8cpp.html" target="_top" xlink:title=" ">
<polygon fill="white" stroke="#666666" points="125,-118 0,-118 0,-77 125,-77 125,-118"/>
<text text-anchor="start" x="8" y="-106" font-family="Helvetica,sans-Serif" font-size="10.00">plugins/misc/scene</text>
<text text-anchor="start" x="8" y="-95" font-family="Helvetica,sans-Serif" font-size="10.00">/renderer/Madgine/render</text>
<text text-anchor="middle" x="62.5" y="-84" font-family="Helvetica,sans-Serif" font-size="10.00">/litscenerenderdata.cpp</text>
</a>
</g>
</g>
<!-- Node1&#45;&gt;Node2 -->
<g id="edge1" class="edge">
<title>Node1&#45;&gt;Node2</title>
<path fill="none" stroke="#63b8ff" d="M519.84,-162.45C421.32,-155.86 266.59,-142.53 134.5,-118 131.44,-117.43 128.33,-116.8 125.19,-116.12"/>
<polygon fill="#63b8ff" stroke="#63b8ff" points="519.55,-165.94 529.76,-163.11 520.01,-158.96 519.55,-165.94"/>
</g>
<!-- Node3 -->
<g id="node3" class="node">
<title>Node3</title>
<g id="a_node3"><a xlink:href="pointshadowrenderpass_8cpp.html" target="_top" xlink:title=" ">
<polygon fill="white" stroke="#666666" points="283.5,-118 143.5,-118 143.5,-77 283.5,-77 283.5,-118"/>
<text text-anchor="start" x="151.5" y="-106" font-family="Helvetica,sans-Serif" font-size="10.00">plugins/misc/scene</text>
<text text-anchor="start" x="151.5" y="-95" font-family="Helvetica,sans-Serif" font-size="10.00">/renderer/Madgine/render</text>
<text text-anchor="middle" x="213.5" y="-84" font-family="Helvetica,sans-Serif" font-size="10.00">/pointshadowrenderpass.cpp</text>
</a>
</g>
</g>
<!-- Node1&#45;&gt;Node3 -->
<g id="edge2" class="edge">
<title>Node1&#45;&gt;Node3</title>
<path fill="none" stroke="#63b8ff" d="M520.28,-155.2C455.24,-146.23 368.5,-133.16 292.5,-118 289.59,-117.42 286.63,-116.8 283.64,-116.16"/>
<polygon fill="#63b8ff" stroke="#63b8ff" points="519.46,-158.62 529.84,-156.51 520.41,-151.69 519.46,-158.62"/>
</g>
<!-- Node4 -->
<g id="node4" class="node">
<title>Node4</title>
<g id="a_node4"><a xlink:href="scenemainwindowcomponent_8cpp.html" target="_top" xlink:title=" ">
<polygon fill="white" stroke="#666666" points="467.5,-118 301.5,-118 301.5,-77 467.5,-77 467.5,-118"/>
<text text-anchor="start" x="309.5" y="-106" font-family="Helvetica,sans-Serif" font-size="10.00">plugins/misc/scene</text>
<text text-anchor="start" x="309.5" y="-95" font-family="Helvetica,sans-Serif" font-size="10.00">/renderer/Madgine/render</text>
<text text-anchor="middle" x="384.5" y="-84" font-family="Helvetica,sans-Serif" font-size="10.00">/scenemainwindowcomponent.cpp</text>
</a>
</g>
</g>
<!-- Node1&#45;&gt;Node4 -->
<g id="edge3" class="edge">
<title>Node1&#45;&gt;Node4</title>
<path fill="none" stroke="#63b8ff" d="M559.68,-150.31C526.73,-140.56 485.73,-128.44 451.68,-118.37"/>
<polygon fill="#63b8ff" stroke="#63b8ff" points="558.49,-153.61 569.07,-153.09 560.47,-146.89 558.49,-153.61"/>
</g>
<!-- Node5 -->
<g id="node5" class="node">
<title>Node5</title>
<g id="a_node5"><a xlink:href="scenerenderdata_8cpp.html" target="_top" xlink:title=" ">
<polygon fill="white" stroke="#666666" points="611,-118 486,-118 486,-77 611,-77 611,-118"/>
<text text-anchor="start" x="494" y="-106" font-family="Helvetica,sans-Serif" font-size="10.00">plugins/misc/scene</text>
<text text-anchor="start" x="494" y="-95" font-family="Helvetica,sans-Serif" font-size="10.00">/renderer/Madgine/render</text>
<text text-anchor="middle" x="548.5" y="-84" font-family="Helvetica,sans-Serif" font-size="10.00">/scenerenderdata.cpp</text>
</a>
</g>
</g>
<!-- Node1&#45;&gt;Node5 -->
<g id="edge4" class="edge">
<title>Node1&#45;&gt;Node5</title>
<path fill="none" stroke="#63b8ff" d="M596.68,-145.66C587.73,-136.9 577.54,-126.93 568.85,-118.42"/>
<polygon fill="#63b8ff" stroke="#63b8ff" points="594.11,-148.05 603.71,-152.54 599.01,-143.04 594.11,-148.05"/>
</g>
<!-- Node6 -->
<g id="node6" class="node">
<title>Node6</title>
<g id="a_node6"><a xlink:href="scenerenderpass_8cpp.html" target="_top" xlink:title=" ">
<polygon fill="white" stroke="#666666" points="754,-118 629,-118 629,-77 754,-77 754,-118"/>
<text text-anchor="start" x="637" y="-106" font-family="Helvetica,sans-Serif" font-size="10.00">plugins/misc/scene</text>
<text text-anchor="start" x="637" y="-95" font-family="Helvetica,sans-Serif" font-size="10.00">/renderer/Madgine/render</text>
<text text-anchor="middle" x="691.5" y="-84" font-family="Helvetica,sans-Serif" font-size="10.00">/scenerenderpass.cpp</text>
</a>
</g>
</g>
<!-- Node1&#45;&gt;Node6 -->
<g id="edge5" class="edge">
<title>Node1&#45;&gt;Node6</title>
<path fill="none" stroke="#63b8ff" d="M642.65,-145.66C651.72,-136.9 662.05,-126.93 670.87,-118.42"/>
<polygon fill="#63b8ff" stroke="#63b8ff" points="640.27,-143.09 635.51,-152.55 645.13,-148.12 640.27,-143.09"/>
</g>
<!-- Node7 -->
<g id="node7" class="node">
<title>Node7</title>
<g id="a_node7"><a xlink:href="shadowrenderpass_8cpp.html" target="_top" xlink:title=" ">
<polygon fill="white" stroke="#666666" points="897,-118 772,-118 772,-77 897,-77 897,-118"/>
<text text-anchor="start" x="780" y="-106" font-family="Helvetica,sans-Serif" font-size="10.00">plugins/misc/scene</text>
<text text-anchor="start" x="780" y="-95" font-family="Helvetica,sans-Serif" font-size="10.00">/renderer/Madgine/render</text>
<text text-anchor="middle" x="834.5" y="-84" font-family="Helvetica,sans-Serif" font-size="10.00">/shadowrenderpass.cpp</text>
</a>
</g>
</g>
<!-- Node1&#45;&gt;Node7 -->
<g id="edge6" class="edge">
<title>Node1&#45;&gt;Node7</title>
<path fill="none" stroke="#63b8ff" d="M675.02,-150.05C705.03,-140.35 742.15,-128.35 773.03,-118.37"/>
<polygon fill="#63b8ff" stroke="#63b8ff" points="674.19,-146.64 665.75,-153.05 676.34,-153.3 674.19,-146.64"/>
</g>
<!-- Node8 -->
<g id="node8" class="node">
<title>Node8</title>
<g id="a_node8"><a xlink:href="shadowscenerenderdata_8cpp.html" target="_top" xlink:title=" ">
<polygon fill="white" stroke="#666666" points="1058,-118 915,-118 915,-77 1058,-77 1058,-118"/>
<text text-anchor="start" x="923" y="-106" font-family="Helvetica,sans-Serif" font-size="10.00">plugins/misc/scene</text>
<text text-anchor="start" x="923" y="-95" font-family="Helvetica,sans-Serif" font-size="10.00">/renderer/Madgine/render</text>
<text text-anchor="middle" x="986.5" y="-84" font-family="Helvetica,sans-Serif" font-size="10.00">/shadowscenerenderdata.cpp</text>
</a>
</g>
</g>
<!-- Node1&#45;&gt;Node8 -->
<g id="edge7" class="edge">
<title>Node1&#45;&gt;Node8</title>
<path fill="none" stroke="#63b8ff" d="M718.89,-152.21C774.03,-143.05 843.74,-130.82 905.5,-118 908.47,-117.38 911.51,-116.74 914.56,-116.07"/>
<polygon fill="#63b8ff" stroke="#63b8ff" points="718.5,-148.73 709.2,-153.81 719.64,-155.63 718.5,-148.73"/>
</g>
<!-- Node9 -->
<g id="node9" class="node">
<title>Node9</title>
<g id="a_node9"><a xlink:href="scenerenderertoolslib_8h.html" target="_top" xlink:title=" ">
<polygon fill="white" stroke="#666666" points="1225,-118 1076,-118 1076,-77 1225,-77 1225,-118"/>
<text text-anchor="start" x="1084" y="-106" font-family="Helvetica,sans-Serif" font-size="10.00">plugins/misc/scene</text>
<text text-anchor="start" x="1084" y="-95" font-family="Helvetica,sans-Serif" font-size="10.00">/renderer_tools/Madgine</text>
<text text-anchor="middle" x="1150.5" y="-84" font-family="Helvetica,sans-Serif" font-size="10.00">_Tools/scenerenderertoolslib.h</text>
</a>
</g>
</g>
<!-- Node1&#45;&gt;Node9 -->
<g id="edge8" class="edge">
<title>Node1&#45;&gt;Node9</title>
<path fill="none" stroke="#63b8ff" d="M719.35,-160.3C810.46,-152.46 948.61,-138.52 1067.5,-118 1070.27,-117.52 1073.09,-117.01 1075.93,-116.46"/>
<polygon fill="#63b8ff" stroke="#63b8ff" points="719.1,-156.81 709.43,-161.15 719.69,-163.78 719.1,-156.81"/>
</g>
<!-- Node10 -->
<g id="node10" class="node">
<title>Node10</title>
<g id="a_node10"><a xlink:href="gridpass_8cpp.html" target="_top" xlink:title=" ">
<polygon fill="white" stroke="#666666" points="1047,-41 890,-41 890,0 1047,0 1047,-41"/>
<text text-anchor="start" x="898" y="-29" font-family="Helvetica,sans-Serif" font-size="10.00">plugins/misc/scene</text>
<text text-anchor="start" x="898" y="-18" font-family="Helvetica,sans-Serif" font-size="10.00">/renderer_tools/Madgine</text>
<text text-anchor="middle" x="968.5" y="-7" font-family="Helvetica,sans-Serif" font-size="10.00">_Tools/sceneeditor/gridpass.cpp</text>
</a>
</g>
</g>
<!-- Node9&#45;&gt;Node10 -->
<g id="edge9" class="edge">
<title>Node9&#45;&gt;Node10</title>
<path fill="none" stroke="#63b8ff" d="M1091.74,-72.29C1067.6,-62.34 1039.98,-50.96 1017.02,-41.49"/>
<polygon fill="#63b8ff" stroke="#63b8ff" points="1090.23,-75.45 1100.81,-76.02 1092.89,-68.98 1090.23,-75.45"/>
</g>
<!-- Node11 -->
<g id="node11" class="node">
<title>Node11</title>
<g id="a_node11"><a xlink:href="sceneeditor_8cpp.html" target="_top" xlink:title=" ">
<polygon fill="white" stroke="#666666" points="1235.5,-41 1065.5,-41 1065.5,0 1235.5,0 1235.5,-41"/>
<text text-anchor="start" x="1073.5" y="-29" font-family="Helvetica,sans-Serif" font-size="10.00">plugins/misc/scene</text>
<text text-anchor="start" x="1073.5" y="-18" font-family="Helvetica,sans-Serif" font-size="10.00">/renderer_tools/Madgine</text>
<text text-anchor="middle" x="1150.5" y="-7" font-family="Helvetica,sans-Serif" font-size="10.00">_Tools/sceneeditor/sceneeditor.cpp</text>
</a>
</g>
</g>
<!-- Node9&#45;&gt;Node11 -->
<g id="edge10" class="edge">
<title>Node9&#45;&gt;Node11</title>
<path fill="none" stroke="#63b8ff" d="M1150.5,-65.36C1150.5,-57.24 1150.5,-48.7 1150.5,-41.33"/>
<polygon fill="#63b8ff" stroke="#63b8ff" points="1147,-65.28 1150.5,-75.28 1154,-65.28 1147,-65.28"/>
</g>
<!-- Node12 -->
<g id="node12" class="node">
<title>Node12</title>
<g id="a_node12"><a xlink:href="sceneview_8cpp.html" target="_top" xlink:title=" ">
<polygon fill="white" stroke="#666666" points="1421,-41 1254,-41 1254,0 1421,0 1421,-41"/>
<text text-anchor="start" x="1262" y="-29" font-family="Helvetica,sans-Serif" font-size="10.00">plugins/misc/scene</text>
<text text-anchor="start" x="1262" y="-18" font-family="Helvetica,sans-Serif" font-size="10.00">/renderer_tools/Madgine</text>
<text text-anchor="middle" x="1337.5" y="-7" font-family="Helvetica,sans-Serif" font-size="10.00">_Tools/sceneeditor/sceneview.cpp</text>
</a>
</g>
</g>
<!-- Node9&#45;&gt;Node12 -->
<g id="edge11" class="edge">
<title>Node9&#45;&gt;Node12</title>
<path fill="none" stroke="#63b8ff" d="M1210.54,-72.42C1235.42,-62.44 1263.95,-51 1287.65,-41.49"/>
<polygon fill="#63b8ff" stroke="#63b8ff" points="1209.5,-69.06 1201.53,-76.03 1212.11,-75.56 1209.5,-69.06"/>
</g>
</g>
</svg>
