<?xml version="1.0" encoding="UTF-8" standalone="no"?>
<!DOCTYPE svg PUBLIC "-//W3C//DTD SVG 1.1//EN"
 "http://www.w3.org/Graphics/SVG/1.1/DTD/svg11.dtd">
<!-- Generated by graphviz version 7.0.5 (20221223.1930)
 -->
<!-- Title: plugins/misc/scene/src/Madgine/scenelib.h Pages: 1 -->
<!--zoomable 115 -->
<svg id="main" version="1.1" xmlns="http://www.w3.org/2000/svg" xmlns:xlink="http://www.w3.org/1999/xlink" xml:space="preserve" onload="init(evt)">
<style type="text/css"><![CDATA[
.edge:hover path { stroke: red; }
.edge:hover polygon { stroke: red; fill: red; }
]]></style>
<script type="text/javascript"><![CDATA[
var edges = document.getElementsByTagName('g');
if (edges && edges.length) {
  for (var i=0;i<edges.length;i++) {
    if (edges[i].id.substr(0,4)=='edge') {
      edges[i].setAttribute('class','edge');
    }
  }
}
]]></script>
        <defs>
                <circle id="rim" cx="0" cy="0" r="7"/>
                <circle id="rim2" cx="0" cy="0" r="3.5"/>
                <g id="zoomPlus">
                        <use xlink:href="#rim" fill="#404040">
                                <set attributeName="fill" to="#808080" begin="zoomplus.mouseover" end="zoomplus.mouseout"/>
                        </use>
                        <path d="M-4,0h8M0,-4v8" fill="none" stroke="white" stroke-width="1.5" pointer-events="none"/>
                </g>
                <g id="zoomMin">
                        <use xlink:href="#rim" fill="#404040">
                                <set attributeName="fill" to="#808080" begin="zoomminus.mouseover" end="zoomminus.mouseout"/>
                        </use>
                        <path d="M-4,0h8" fill="none" stroke="white" stroke-width="1.5" pointer-events="none"/>
                </g>
                <g id="dirArrow">
                        <path fill="none" stroke="white" stroke-width="1.5" d="M0,-3.0v7 M-2.5,-0.5L0,-3.0L2.5,-0.5"/>
                </g>
               <g id="resetDef">
                       <use xlink:href="#rim2" fill="#404040">
                               <set attributeName="fill" to="#808080" begin="reset.mouseover" end="reset.mouseout"/>
                       </use>
               </g>
        </defs>

<script type="text/javascript">
var viewWidth = 3331;
var viewHeight = 115;
var sectionId = 'dynsection-0';
</script>
<script xlink:href="svgpan.js"/>
<svg id="graph" class="graph">
<g id="viewport">
<title>plugins/misc/scene/src/Madgine/scenelib.h</title>
<!-- Node1 -->
<g id="node1" class="node">
<title>Node1</title>
<g id="a_node1"><a xlink:title=" ">
<polygon fill="#999999" stroke="#666666" points="1574.5,-107 1455.5,-107 1455.5,-77 1574.5,-77 1574.5,-107"/>
<text text-anchor="start" x="1463.5" y="-95" font-family="Helvetica,sans-Serif" font-size="10.00">plugins/misc/scene</text>
<text text-anchor="middle" x="1515" y="-84" font-family="Helvetica,sans-Serif" font-size="10.00">/src/Madgine/scenelib.h</text>
</a>
</g>
</g>
<!-- Node2 -->
<g id="node2" class="node">
<title>Node2</title>
<g id="a_node2"><a xlink:href="animation_8cpp.html" target="_top" xlink:title=" ">
<polygon fill="white" stroke="#666666" points="142,-41 0,-41 0,0 142,0 142,-41"/>
<text text-anchor="start" x="8" y="-29" font-family="Helvetica,sans-Serif" font-size="10.00">plugins/misc/scene</text>
<text text-anchor="start" x="8" y="-18" font-family="Helvetica,sans-Serif" font-size="10.00">/src/Madgine/scene/behavior</text>
<text text-anchor="middle" x="71" y="-7" font-family="Helvetica,sans-Serif" font-size="10.00">/animation.cpp</text>
</a>
</g>
</g>
<!-- Node1&#45;&gt;Node2 -->
<g id="edge1" class="edge">
<title>Node1&#45;&gt;Node2</title>
<path fill="none" stroke="#63b8ff" d="M1443.53,-90.29C1200.09,-87.57 404.31,-76.14 151,-41 148.17,-40.61 145.29,-40.16 142.39,-39.66"/>
<polygon fill="#63b8ff" stroke="#63b8ff" points="1443.49,-93.79 1453.53,-90.4 1443.57,-86.79 1443.49,-93.79"/>
</g>
<!-- Node3 -->
<g id="node3" class="node">
<title>Node3</title>
<g id="a_node3"><a xlink:href="scenesenders_8cpp.html" target="_top" xlink:title=" ">
<polygon fill="white" stroke="#666666" points="302,-41 160,-41 160,0 302,0 302,-41"/>
<text text-anchor="start" x="168" y="-29" font-family="Helvetica,sans-Serif" font-size="10.00">plugins/misc/scene</text>
<text text-anchor="start" x="168" y="-18" font-family="Helvetica,sans-Serif" font-size="10.00">/src/Madgine/scene/behavior</text>
<text text-anchor="middle" x="231" y="-7" font-family="Helvetica,sans-Serif" font-size="10.00">/scenesenders.cpp</text>
</a>
</g>
</g>
<!-- Node1&#45;&gt;Node3 -->
<g id="edge2" class="edge">
<title>Node1&#45;&gt;Node3</title>
<path fill="none" stroke="#63b8ff" d="M1444.1,-89.89C1220.5,-86.12 531.92,-72.2 311,-41 308.17,-40.6 305.29,-40.14 302.39,-39.64"/>
<polygon fill="#63b8ff" stroke="#63b8ff" points="1443.76,-93.39 1453.82,-90.06 1443.88,-86.39 1443.76,-93.39"/>
</g>
<!-- Node4 -->
<g id="node4" class="node">
<title>Node4</title>
<g id="a_node4"><a xlink:href="behavior_2transform_8cpp.html" target="_top" xlink:title=" ">
<polygon fill="white" stroke="#666666" points="462,-41 320,-41 320,0 462,0 462,-41"/>
<text text-anchor="start" x="328" y="-29" font-family="Helvetica,sans-Serif" font-size="10.00">plugins/misc/scene</text>
<text text-anchor="start" x="328" y="-18" font-family="Helvetica,sans-Serif" font-size="10.00">/src/Madgine/scene/behavior</text>
<text text-anchor="middle" x="391" y="-7" font-family="Helvetica,sans-Serif" font-size="10.00">/transform.cpp</text>
</a>
</g>
</g>
<!-- Node1&#45;&gt;Node4 -->
<g id="edge3" class="edge">
<title>Node1&#45;&gt;Node4</title>
<path fill="none" stroke="#63b8ff" d="M1443.68,-89.36C1240.19,-84.41 659.4,-68.22 471,-41 468.17,-40.59 465.29,-40.13 462.4,-39.62"/>
<polygon fill="#63b8ff" stroke="#63b8ff" points="1443.5,-92.86 1453.59,-89.6 1443.67,-85.86 1443.5,-92.86"/>
</g>
<!-- Node5 -->
<g id="node5" class="node">
<title>Node5</title>
<g id="a_node5"><a xlink:href="material_8cpp.html" target="_top" xlink:title=" ">
<polygon fill="white" stroke="#666666" points="608,-41 480,-41 480,0 608,0 608,-41"/>
<text text-anchor="start" x="488" y="-29" font-family="Helvetica,sans-Serif" font-size="10.00">plugins/misc/scene</text>
<text text-anchor="start" x="488" y="-18" font-family="Helvetica,sans-Serif" font-size="10.00">/src/Madgine/scene/entity</text>
<text text-anchor="middle" x="544" y="-7" font-family="Helvetica,sans-Serif" font-size="10.00">/components/material.cpp</text>
</a>
</g>
</g>
<!-- Node1&#45;&gt;Node5 -->
<g id="edge4" class="edge">
<title>Node1&#45;&gt;Node5</title>
<path fill="none" stroke="#63b8ff" d="M1443.68,-88.92C1260.31,-83.27 775.78,-66.35 617,-41 614.15,-40.54 611.25,-40.02 608.33,-39.45"/>
<polygon fill="#63b8ff" stroke="#63b8ff" points="1443.44,-92.42 1453.54,-89.22 1443.65,-85.42 1443.44,-92.42"/>
</g>
<!-- Node6 -->
<g id="node6" class="node">
<title>Node6</title>
<g id="a_node6"><a xlink:href="mesh_8cpp.html" target="_top" xlink:title=" ">
<polygon fill="white" stroke="#666666" points="754,-41 626,-41 626,0 754,0 754,-41"/>
<text text-anchor="start" x="634" y="-29" font-family="Helvetica,sans-Serif" font-size="10.00">plugins/misc/scene</text>
<text text-anchor="start" x="634" y="-18" font-family="Helvetica,sans-Serif" font-size="10.00">/src/Madgine/scene/entity</text>
<text text-anchor="middle" x="690" y="-7" font-family="Helvetica,sans-Serif" font-size="10.00">/components/mesh.cpp</text>
</a>
</g>
</g>
<!-- Node1&#45;&gt;Node6 -->
<g id="edge5" class="edge">
<title>Node1&#45;&gt;Node6</title>
<path fill="none" stroke="#63b8ff" d="M1443.78,-90.86C1309.64,-89.59 1010.74,-81.92 763,-41 760.15,-40.53 757.26,-40 754.34,-39.41"/>
<polygon fill="#63b8ff" stroke="#63b8ff" points="1443.54,-94.36 1453.57,-90.95 1443.6,-87.36 1443.54,-94.36"/>
</g>
<!-- Node7 -->
<g id="node7" class="node">
<title>Node7</title>
<g id="a_node7"><a xlink:href="pointlight_8cpp.html" target="_top" xlink:title=" ">
<polygon fill="white" stroke="#666666" points="905.5,-41 772.5,-41 772.5,0 905.5,0 905.5,-41"/>
<text text-anchor="start" x="780.5" y="-29" font-family="Helvetica,sans-Serif" font-size="10.00">plugins/misc/scene</text>
<text text-anchor="start" x="780.5" y="-18" font-family="Helvetica,sans-Serif" font-size="10.00">/src/Madgine/scene/entity</text>
<text text-anchor="middle" x="839" y="-7" font-family="Helvetica,sans-Serif" font-size="10.00">/components/pointlight.cpp</text>
</a>
</g>
</g>
<!-- Node1&#45;&gt;Node7 -->
<g id="edge6" class="edge">
<title>Node1&#45;&gt;Node7</title>
<path fill="none" stroke="#63b8ff" d="M1444.07,-89.03C1331.14,-85.01 1103.85,-73.33 914,-41 911.35,-40.55 908.65,-40.05 905.94,-39.51"/>
<polygon fill="#63b8ff" stroke="#63b8ff" points="1443.66,-92.52 1453.78,-89.37 1443.9,-85.52 1443.66,-92.52"/>
</g>
<!-- Node8 -->
<g id="node8" class="node">
<title>Node8</title>
<g id="a_node8"><a xlink:href="skeleton_8cpp.html" target="_top" xlink:title=" ">
<polygon fill="white" stroke="#666666" points="1054.5,-41 923.5,-41 923.5,0 1054.5,0 1054.5,-41"/>
<text text-anchor="start" x="931.5" y="-29" font-family="Helvetica,sans-Serif" font-size="10.00">plugins/misc/scene</text>
<text text-anchor="start" x="931.5" y="-18" font-family="Helvetica,sans-Serif" font-size="10.00">/src/Madgine/scene/entity</text>
<text text-anchor="middle" x="989" y="-7" font-family="Helvetica,sans-Serif" font-size="10.00">/components/skeleton.cpp</text>
</a>
</g>
</g>
<!-- Node1&#45;&gt;Node8 -->
<g id="edge7" class="edge">
<title>Node1&#45;&gt;Node8</title>
<path fill="none" stroke="#63b8ff" d="M1444,-86.4C1354.58,-79.86 1196.48,-65.83 1063,-41 1060.26,-40.49 1057.47,-39.93 1054.65,-39.34"/>
<polygon fill="#63b8ff" stroke="#63b8ff" points="1443.62,-89.88 1453.85,-87.11 1444.13,-82.9 1443.62,-89.88"/>
</g>
<!-- Node9 -->
<g id="node9" class="node">
<title>Node9</title>
<g id="a_node9"><a xlink:href="entity_2components_2transform_8cpp.html" target="_top" xlink:title=" ">
<polygon fill="white" stroke="#666666" points="1207.5,-41 1072.5,-41 1072.5,0 1207.5,0 1207.5,-41"/>
<text text-anchor="start" x="1080.5" y="-29" font-family="Helvetica,sans-Serif" font-size="10.00">plugins/misc/scene</text>
<text text-anchor="start" x="1080.5" y="-18" font-family="Helvetica,sans-Serif" font-size="10.00">/src/Madgine/scene/entity</text>
<text text-anchor="middle" x="1140" y="-7" font-family="Helvetica,sans-Serif" font-size="10.00">/components/transform.cpp</text>
</a>
</g>
</g>
<!-- Node1&#45;&gt;Node9 -->
<g id="edge8" class="edge">
<title>Node1&#45;&gt;Node9</title>
<path fill="none" stroke="#63b8ff" d="M1443.74,-80.72C1383.17,-71.58 1294.05,-57.19 1217,-41 1214.03,-40.38 1211,-39.72 1207.95,-39.03"/>
<polygon fill="#63b8ff" stroke="#63b8ff" points="1443.18,-84.17 1453.58,-82.2 1444.21,-77.25 1443.18,-84.17"/>
</g>
<!-- Node10 -->
<g id="node10" class="node">
<title>Node10</title>
<g id="a_node10"><a xlink:href="entity_8cpp.html" target="_top" xlink:title=" ">
<polygon fill="white" stroke="#666666" points="1354,-41 1226,-41 1226,0 1354,0 1354,-41"/>
<text text-anchor="start" x="1234" y="-29" font-family="Helvetica,sans-Serif" font-size="10.00">plugins/misc/scene</text>
<text text-anchor="start" x="1234" y="-18" font-family="Helvetica,sans-Serif" font-size="10.00">/src/Madgine/scene/entity</text>
<text text-anchor="middle" x="1290" y="-7" font-family="Helvetica,sans-Serif" font-size="10.00">/entity.cpp</text>
</a>
</g>
</g>
<!-- Node1&#45;&gt;Node10 -->
<g id="edge9" class="edge">
<title>Node1&#45;&gt;Node10</title>
<path fill="none" stroke="#63b8ff" d="M1457.31,-73.18C1425.84,-63.46 1386.78,-51.4 1354.33,-41.37"/>
<polygon fill="#63b8ff" stroke="#63b8ff" points="1456.07,-76.46 1466.66,-76.07 1458.14,-69.77 1456.07,-76.46"/>
</g>
<!-- Node11 -->
<g id="node11" class="node">
<title>Node11</title>
<g id="a_node11"><a xlink:href="entitycomponentbase_8cpp.html" target="_top" xlink:title=" ">
<polygon fill="white" stroke="#666666" points="1502,-41 1372,-41 1372,0 1502,0 1502,-41"/>
<text text-anchor="start" x="1380" y="-29" font-family="Helvetica,sans-Serif" font-size="10.00">plugins/misc/scene</text>
<text text-anchor="start" x="1380" y="-18" font-family="Helvetica,sans-Serif" font-size="10.00">/src/Madgine/scene/entity</text>
<text text-anchor="middle" x="1437" y="-7" font-family="Helvetica,sans-Serif" font-size="10.00">/entitycomponentbase.cpp</text>
</a>
</g>
</g>
<!-- Node1&#45;&gt;Node11 -->
<g id="edge10" class="edge">
<title>Node1&#45;&gt;Node11</title>
<path fill="none" stroke="#63b8ff" d="M1490.53,-69.2C1480.56,-60.31 1469.1,-50.1 1459.35,-41.42"/>
<polygon fill="#63b8ff" stroke="#63b8ff" points="1487.91,-71.55 1497.71,-75.59 1492.57,-66.33 1487.91,-71.55"/>
</g>
<!-- Node12 -->
<g id="node12" class="node">
<title>Node12</title>
<g id="a_node12"><a xlink:href="entitycomponentcollector_8cpp.html" target="_top" xlink:title=" ">
<polygon fill="white" stroke="#666666" points="1666,-41 1520,-41 1520,0 1666,0 1666,-41"/>
<text text-anchor="start" x="1528" y="-29" font-family="Helvetica,sans-Serif" font-size="10.00">plugins/misc/scene</text>
<text text-anchor="start" x="1528" y="-18" font-family="Helvetica,sans-Serif" font-size="10.00">/src/Madgine/scene/entity</text>
<text text-anchor="middle" x="1593" y="-7" font-family="Helvetica,sans-Serif" font-size="10.00">/entitycomponentcollector.cpp</text>
</a>
</g>
</g>
<!-- Node1&#45;&gt;Node12 -->
<g id="edge11" class="edge">
<title>Node1&#45;&gt;Node12</title>
<path fill="none" stroke="#63b8ff" d="M1539.47,-69.2C1549.44,-60.31 1560.9,-50.1 1570.65,-41.42"/>
<polygon fill="#63b8ff" stroke="#63b8ff" points="1537.43,-66.33 1532.29,-75.59 1542.09,-71.55 1537.43,-66.33"/>
</g>
<!-- Node13 -->
<g id="node13" class="node">
<title>Node13</title>
<g id="a_node13"><a xlink:href="entitycomponenthandle_8cpp.html" target="_top" xlink:title=" ">
<polygon fill="white" stroke="#666666" points="1821.5,-41 1684.5,-41 1684.5,0 1821.5,0 1821.5,-41"/>
<text text-anchor="start" x="1692.5" y="-29" font-family="Helvetica,sans-Serif" font-size="10.00">plugins/misc/scene</text>
<text text-anchor="start" x="1692.5" y="-18" font-family="Helvetica,sans-Serif" font-size="10.00">/src/Madgine/scene/entity</text>
<text text-anchor="middle" x="1753" y="-7" font-family="Helvetica,sans-Serif" font-size="10.00">/entitycomponenthandle.cpp</text>
</a>
</g>
</g>
<!-- Node1&#45;&gt;Node13 -->
<g id="edge12" class="edge">
<title>Node1&#45;&gt;Node13</title>
<path fill="none" stroke="#63b8ff" d="M1575.59,-73.31C1608.96,-63.56 1650.48,-51.44 1684.96,-41.37"/>
<polygon fill="#63b8ff" stroke="#63b8ff" points="1574.67,-69.93 1566.06,-76.09 1576.64,-76.65 1574.67,-69.93"/>
</g>
<!-- Node14 -->
<g id="node14" class="node">
<title>Node14</title>
<g id="a_node14"><a xlink:href="entitycomponentlist_8cpp.html" target="_top" xlink:title=" ">
<polygon fill="white" stroke="#666666" points="1968,-41 1840,-41 1840,0 1968,0 1968,-41"/>
<text text-anchor="start" x="1848" y="-29" font-family="Helvetica,sans-Serif" font-size="10.00">plugins/misc/scene</text>
<text text-anchor="start" x="1848" y="-18" font-family="Helvetica,sans-Serif" font-size="10.00">/src/Madgine/scene/entity</text>
<text text-anchor="middle" x="1904" y="-7" font-family="Helvetica,sans-Serif" font-size="10.00">/entitycomponentlist.cpp</text>
</a>
</g>
</g>
<!-- Node1&#45;&gt;Node14 -->
<g id="edge13" class="edge">
<title>Node1&#45;&gt;Node14</title>
<path fill="none" stroke="#63b8ff" d="M1585.96,-81.92C1650.26,-73.19 1747.45,-58.72 1831,-41 1833.82,-40.4 1836.7,-39.76 1839.6,-39.09"/>
<polygon fill="#63b8ff" stroke="#63b8ff" points="1585.69,-78.43 1576.25,-83.23 1586.62,-85.37 1585.69,-78.43"/>
</g>
<!-- Node15 -->
<g id="node15" class="node">
<title>Node15</title>
<g id="a_node15"><a xlink:href="entitycomponentlistbase_8cpp.html" target="_top" xlink:title=" ">
<polygon fill="white" stroke="#666666" points="2129.5,-41 1986.5,-41 1986.5,0 2129.5,0 2129.5,-41"/>
<text text-anchor="start" x="1994.5" y="-29" font-family="Helvetica,sans-Serif" font-size="10.00">plugins/misc/scene</text>
<text text-anchor="start" x="1994.5" y="-18" font-family="Helvetica,sans-Serif" font-size="10.00">/src/Madgine/scene/entity</text>
<text text-anchor="middle" x="2058" y="-7" font-family="Helvetica,sans-Serif" font-size="10.00">/entitycomponentlistbase.cpp</text>
</a>
</g>
</g>
<!-- Node1&#45;&gt;Node15 -->
<g id="edge14" class="edge">
<title>Node1&#45;&gt;Node15</title>
<path fill="none" stroke="#63b8ff" d="M1586.06,-86.16C1677.12,-79.3 1839.6,-64.87 1977,-41 1979.99,-40.48 1983.04,-39.91 1986.11,-39.31"/>
<polygon fill="#63b8ff" stroke="#63b8ff" points="1586,-82.65 1576.29,-86.88 1586.52,-89.63 1586,-82.65"/>
</g>
<!-- Node16 -->
<g id="node16" class="node">
<title>Node16</title>
<g id="a_node16"><a xlink:href="entitycomponentptr_8cpp.html" target="_top" xlink:title=" ">
<polygon fill="white" stroke="#666666" points="2276,-41 2148,-41 2148,0 2276,0 2276,-41"/>
<text text-anchor="start" x="2156" y="-29" font-family="Helvetica,sans-Serif" font-size="10.00">plugins/misc/scene</text>
<text text-anchor="start" x="2156" y="-18" font-family="Helvetica,sans-Serif" font-size="10.00">/src/Madgine/scene/entity</text>
<text text-anchor="middle" x="2212" y="-7" font-family="Helvetica,sans-Serif" font-size="10.00">/entitycomponentptr.cpp</text>
</a>
</g>
</g>
<!-- Node1&#45;&gt;Node16 -->
<g id="edge15" class="edge">
<title>Node1&#45;&gt;Node16</title>
<path fill="none" stroke="#63b8ff" d="M1586.03,-89.49C1702.37,-86.07 1940.5,-75.17 2139,-41 2141.84,-40.51 2144.74,-39.96 2147.65,-39.37"/>
<polygon fill="#63b8ff" stroke="#63b8ff" points="1586.22,-85.98 1576.33,-89.76 1586.42,-92.98 1586.22,-85.98"/>
</g>
<!-- Node17 -->
<g id="node17" class="node">
<title>Node17</title>
<g id="a_node17"><a xlink:href="entityptr_8cpp.html" target="_top" xlink:title=" ">
<polygon fill="white" stroke="#666666" points="2422,-41 2294,-41 2294,0 2422,0 2422,-41"/>
<text text-anchor="start" x="2302" y="-29" font-family="Helvetica,sans-Serif" font-size="10.00">plugins/misc/scene</text>
<text text-anchor="start" x="2302" y="-18" font-family="Helvetica,sans-Serif" font-size="10.00">/src/Madgine/scene/entity</text>
<text text-anchor="middle" x="2358" y="-7" font-family="Helvetica,sans-Serif" font-size="10.00">/entityptr.cpp</text>
</a>
</g>
</g>
<!-- Node1&#45;&gt;Node17 -->
<g id="edge16" class="edge">
<title>Node1&#45;&gt;Node17</title>
<path fill="none" stroke="#63b8ff" d="M1586.37,-91.02C1722.95,-90.03 2030.36,-82.86 2285,-41 2287.85,-40.53 2290.75,-40 2293.66,-39.42"/>
<polygon fill="#63b8ff" stroke="#63b8ff" points="1586.36,-87.52 1576.38,-91.08 1586.4,-94.52 1586.36,-87.52"/>
</g>
<!-- Node18 -->
<g id="node18" class="node">
<title>Node18</title>
<g id="a_node18"><a xlink:href="scenecomponentbase_8cpp.html" target="_top" xlink:title=" ">
<polygon fill="white" stroke="#666666" points="2658,-35.5 2440,-35.5 2440,-5.5 2658,-5.5 2658,-35.5"/>
<text text-anchor="start" x="2448" y="-23.5" font-family="Helvetica,sans-Serif" font-size="10.00">plugins/misc/scene</text>
<text text-anchor="middle" x="2549" y="-12.5" font-family="Helvetica,sans-Serif" font-size="10.00">/src/Madgine/scene/scenecomponentbase.cpp</text>
</a>
</g>
</g>
<!-- Node1&#45;&gt;Node18 -->
<g id="edge17" class="edge">
<title>Node1&#45;&gt;Node18</title>
<path fill="none" stroke="#63b8ff" d="M1586.09,-89.76C1740.37,-86.49 2117.27,-75.38 2431,-41 2443.18,-39.67 2456.01,-37.91 2468.55,-36"/>
<polygon fill="#63b8ff" stroke="#63b8ff" points="1586.37,-86.25 1576.45,-89.96 1586.52,-93.25 1586.37,-86.25"/>
</g>
<!-- Node19 -->
<g id="node19" class="node">
<title>Node19</title>
<g id="a_node19"><a xlink:href="scenecomponentcollector_8cpp.html" target="_top" xlink:title=" ">
<polygon fill="white" stroke="#666666" points="2910,-35.5 2676,-35.5 2676,-5.5 2910,-5.5 2910,-35.5"/>
<text text-anchor="start" x="2684" y="-23.5" font-family="Helvetica,sans-Serif" font-size="10.00">plugins/misc/scene</text>
<text text-anchor="middle" x="2793" y="-12.5" font-family="Helvetica,sans-Serif" font-size="10.00">/src/Madgine/scene/scenecomponentcollector.cpp</text>
</a>
</g>
</g>
<!-- Node1&#45;&gt;Node19 -->
<g id="edge18" class="edge">
<title>Node1&#45;&gt;Node19</title>
<path fill="none" stroke="#63b8ff" d="M1586.29,-90.63C1767.33,-89.11 2259.33,-81.27 2667,-41 2680.22,-39.69 2694.16,-37.93 2707.76,-35.99"/>
<polygon fill="#63b8ff" stroke="#63b8ff" points="1586.31,-87.13 1576.34,-90.71 1586.36,-94.13 1586.31,-87.13"/>
</g>
<!-- Node20 -->
<g id="node20" class="node">
<title>Node20</title>
<g id="a_node20"><a xlink:href="scenecontainer_8cpp.html" target="_top" xlink:title=" ">
<polygon fill="white" stroke="#666666" points="3117.5,-35.5 2928.5,-35.5 2928.5,-5.5 3117.5,-5.5 3117.5,-35.5"/>
<text text-anchor="start" x="2936.5" y="-23.5" font-family="Helvetica,sans-Serif" font-size="10.00">plugins/misc/scene</text>
<text text-anchor="middle" x="3023" y="-12.5" font-family="Helvetica,sans-Serif" font-size="10.00">/src/Madgine/scene/scenecontainer.cpp</text>
</a>
</g>
</g>
<!-- Node1&#45;&gt;Node20 -->
<g id="edge19" class="edge">
<title>Node1&#45;&gt;Node20</title>
<path fill="none" stroke="#63b8ff" d="M1586.01,-89.88C1833.38,-85.75 2656.51,-70.12 2919,-41 2930.32,-39.74 2942.26,-37.95 2953.85,-35.96"/>
<polygon fill="#63b8ff" stroke="#63b8ff" points="1586.12,-86.38 1576.18,-90.04 1586.24,-93.38 1586.12,-86.38"/>
</g>
<!-- Node21 -->
<g id="node21" class="node">
<title>Node21</title>
<g id="a_node21"><a xlink:href="scenemanager_8cpp.html" target="_top" xlink:title=" ">
<polygon fill="white" stroke="#666666" points="3322.5,-35.5 3135.5,-35.5 3135.5,-5.5 3322.5,-5.5 3322.5,-35.5"/>
<text text-anchor="start" x="3143.5" y="-23.5" font-family="Helvetica,sans-Serif" font-size="10.00">plugins/misc/scene</text>
<text text-anchor="middle" x="3229" y="-12.5" font-family="Helvetica,sans-Serif" font-size="10.00">/src/Madgine/scene/scenemanager.cpp</text>
</a>
</g>
</g>
<!-- Node1&#45;&gt;Node21 -->
<g id="edge20" class="edge">
<title>Node1&#45;&gt;Node21</title>
<path fill="none" stroke="#63b8ff" d="M1585.89,-90.29C1856.13,-87.36 2821.77,-74.7 3127,-41 3138.2,-39.76 3150.01,-37.97 3161.47,-35.96"/>
<polygon fill="#63b8ff" stroke="#63b8ff" points="1586.16,-86.79 1576.2,-90.4 1586.23,-93.79 1586.16,-86.79"/>
</g>
</g>
</svg>
        <g id="navigator" transform="translate(0 0)" fill="#404254">
                <rect fill="#f2f5e9" fill-opacity="0.5" stroke="#606060" stroke-width=".5" x="0" y="0" width="60" height="60"/>
                <use id="zoomplus" xlink:href="#zoomPlus" x="17" y="9" onmousedown="handleZoom(evt,'in')"/>
                <use id="zoomminus" xlink:href="#zoomMin" x="42" y="9" onmousedown="handleZoom(evt,'out')"/>
                <use id="reset" xlink:href="#resetDef" x="30" y="36" onmousedown="handleReset()"/>
                <g id="arrowUp" xlink:href="#dirArrow" transform="translate(30 24)" onmousedown="handlePan(0,-1)">
                  <use xlink:href="#rim" fill="#404040">
                        <set attributeName="fill" to="#808080" begin="arrowUp.mouseover" end="arrowUp.mouseout"/>
                  </use>
                  <path fill="none" stroke="white" stroke-width="1.5" d="M0,-3.0v7 M-2.5,-0.5L0,-3.0L2.5,-0.5"/>
                </g>
                <g id="arrowRight" xlink:href="#dirArrow" transform="rotate(90) translate(36 -43)" onmousedown="handlePan(1,0)">
                  <use xlink:href="#rim" fill="#404040">
                        <set attributeName="fill" to="#808080" begin="arrowRight.mouseover" end="arrowRight.mouseout"/>
                  </use>
                  <path fill="none" stroke="white" stroke-width="1.5" d="M0,-3.0v7 M-2.5,-0.5L0,-3.0L2.5,-0.5"/>
                </g>
                <g id="arrowDown" xlink:href="#dirArrow" transform="rotate(180) translate(-30 -48)" onmousedown="handlePan(0,1)">
                  <use xlink:href="#rim" fill="#404040">
                        <set attributeName="fill" to="#808080" begin="arrowDown.mouseover" end="arrowDown.mouseout"/>
                  </use>
                  <path fill="none" stroke="white" stroke-width="1.5" d="M0,-3.0v7 M-2.5,-0.5L0,-3.0L2.5,-0.5"/>
                </g>
                <g id="arrowLeft" xlink:href="#dirArrow" transform="rotate(270) translate(-36 17)" onmousedown="handlePan(-1,0)">
                  <use xlink:href="#rim" fill="#404040">
                        <set attributeName="fill" to="#808080" begin="arrowLeft.mouseover" end="arrowLeft.mouseout"/>
                  </use>
                  <path fill="none" stroke="white" stroke-width="1.5" d="M0,-3.0v7 M-2.5,-0.5L0,-3.0L2.5,-0.5"/>
                </g>
        </g>
        <svg viewBox="0 0 15 15" width="100%" height="30px" preserveAspectRatio="xMaxYMin meet">
         <g id="arrow_out" transform="scale(0.3 0.3)">
          <a xlink:href="scenelib_8h__dep__incl_org.svg" target="_base">
           <rect id="button" ry="5" rx="5" y="6" x="6" height="38" width="38"
                fill="#f2f5e9" fill-opacity="0.5" stroke="#606060" stroke-width="1.0"/>
           <path id="arrow"
             d="M 11.500037,31.436501 C 11.940474,20.09759 22.043105,11.32322 32.158766,21.979434 L 37.068811,17.246167 C 37.068811,17.246167 37.088388,32 37.088388,32 L 22.160133,31.978069 C 22.160133,31.978069 26.997745,27.140456 26.997745,27.140456 C 18.528582,18.264221 13.291696,25.230495 11.500037,31.436501 z"
             style="fill:#404040;"/>
          </a>
         </g>
        </svg>
</svg>
