<?xml version="1.0" encoding="UTF-8" standalone="no"?>
<!DOCTYPE svg PUBLIC "-//W3C//DTD SVG 1.1//EN"
 "http://www.w3.org/Graphics/SVG/1.1/DTD/svg11.dtd">
<!-- Generated by graphviz version 7.0.5 (20221223.1930)
 -->
<!-- Title: src/Meta/keyvalue/scopefield.cpp Pages: 1 -->
<svg width="699pt" height="467pt"
 viewBox="0.00 0.00 698.50 467.00" xmlns="http://www.w3.org/2000/svg" xmlns:xlink="http://www.w3.org/1999/xlink">
<g id="graph0" class="graph" transform="scale(1 1) rotate(0) translate(4 463)">
<title>src/Meta/keyvalue/scopefield.cpp</title>
<!-- Node1 -->
<g id="node1" class="node">
<title>Node1</title>
<g id="a_node1"><a xlink:title=" ">
<polygon fill="#999999" stroke="#666666" points="321.5,-459 160.5,-459 160.5,-440 321.5,-440 321.5,-459"/>
<text text-anchor="middle" x="241" y="-447" font-family="Helvetica,sans-Serif" font-size="10.00">src/Meta/keyvalue/scopefield.cpp</text>
</a>
</g>
</g>
<!-- Node2 -->
<g id="node2" class="node">
<title>Node2</title>
<g id="a_node2"><a xlink:href="metalib_8h.html" target="_top" xlink:title=" ">
<polygon fill="white" stroke="#666666" points="187.5,-404 124.5,-404 124.5,-385 187.5,-385 187.5,-404"/>
<text text-anchor="middle" x="156" y="-392" font-family="Helvetica,sans-Serif" font-size="10.00">../metalib.h</text>
</a>
</g>
</g>
<!-- Node1&#45;&gt;Node2 -->
<g id="edge1" class="edge">
<title>Node1&#45;&gt;Node2</title>
<path fill="none" stroke="#63b8ff" d="M226.58,-439.51C213.8,-431.54 194.9,-419.75 179.87,-410.38"/>
<polygon fill="#63b8ff" stroke="#63b8ff" points="181.83,-407.48 171.49,-405.16 178.12,-413.42 181.83,-407.48"/>
</g>
<!-- Node5 -->
<g id="node5" class="node">
<title>Node5</title>
<g id="a_node5"><a xlink:href="scopefield_8h.html" target="_top" xlink:title=" ">
<polygon fill="white" stroke="#666666" points="275,-404 207,-404 207,-385 275,-385 275,-404"/>
<text text-anchor="middle" x="241" y="-392" font-family="Helvetica,sans-Serif" font-size="10.00">scopefield.h</text>
</a>
</g>
</g>
<!-- Node1&#45;&gt;Node5 -->
<g id="edge4" class="edge">
<title>Node1&#45;&gt;Node5</title>
<path fill="none" stroke="#63b8ff" d="M241,-439.75C241,-433.27 241,-424.16 241,-415.9"/>
<polygon fill="#63b8ff" stroke="#63b8ff" points="244.5,-415.96 241,-405.96 237.5,-415.96 244.5,-415.96"/>
</g>
<!-- Node20 -->
<g id="node20" class="node">
<title>Node20</title>
<g id="a_node20"><a xlink:href="accessor_8h.html" target="_top" xlink:title=" ">
<polygon fill="white" stroke="#666666" points="357,-404 293,-404 293,-385 357,-385 357,-404"/>
<text text-anchor="middle" x="325" y="-392" font-family="Helvetica,sans-Serif" font-size="10.00">accessor.h</text>
</a>
</g>
</g>
<!-- Node1&#45;&gt;Node20 -->
<g id="edge22" class="edge">
<title>Node1&#45;&gt;Node20</title>
<path fill="none" stroke="#63b8ff" d="M255.25,-439.51C267.88,-431.54 286.56,-419.75 301.41,-410.38"/>
<polygon fill="#63b8ff" stroke="#63b8ff" points="303.09,-413.46 309.68,-405.17 299.36,-407.54 303.09,-413.46"/>
</g>
<!-- Node3 -->
<g id="node3" class="node">
<title>Node3</title>
<g id="a_node3"><a xlink:href="genericlib_8h.html" target="_top" xlink:title=" ">
<polygon fill="white" stroke="#666666" points="102,-349 0,-349 0,-330 102,-330 102,-349"/>
<text text-anchor="middle" x="51" y="-337" font-family="Helvetica,sans-Serif" font-size="10.00">Generic/genericlib.h</text>
</a>
</g>
</g>
<!-- Node2&#45;&gt;Node3 -->
<g id="edge2" class="edge">
<title>Node2&#45;&gt;Node3</title>
<path fill="none" stroke="#63b8ff" d="M138.19,-384.51C121.87,-376.27 97.47,-363.96 78.63,-354.45"/>
<polygon fill="#63b8ff" stroke="#63b8ff" points="80.4,-351.42 69.9,-350.04 77.25,-357.67 80.4,-351.42"/>
</g>
<!-- Node4 -->
<g id="node4" class="node">
<title>Node4</title>
<g id="a_node4"><a xlink:title=" ">
<polygon fill="#e0e0e0" stroke="#999999" points="191.5,-349 120.5,-349 120.5,-330 191.5,-330 191.5,-349"/>
<text text-anchor="middle" x="156" y="-337" font-family="Helvetica,sans-Serif" font-size="10.00">metaconfig.h</text>
</a>
</g>
</g>
<!-- Node2&#45;&gt;Node4 -->
<g id="edge3" class="edge">
<title>Node2&#45;&gt;Node4</title>
<path fill="none" stroke="#63b8ff" d="M156,-384.75C156,-378.27 156,-369.16 156,-360.9"/>
<polygon fill="#63b8ff" stroke="#63b8ff" points="159.5,-360.96 156,-350.96 152.5,-360.96 159.5,-360.96"/>
</g>
<!-- Node6 -->
<g id="node6" class="node">
<title>Node6</title>
<g id="a_node6"><a xlink:href="scopeptr_8h.html" target="_top" xlink:title=" ">
<polygon fill="white" stroke="#666666" points="272,-349 210,-349 210,-330 272,-330 272,-349"/>
<text text-anchor="middle" x="241" y="-337" font-family="Helvetica,sans-Serif" font-size="10.00">scopeptr.h</text>
</a>
</g>
</g>
<!-- Node5&#45;&gt;Node6 -->
<g id="edge5" class="edge">
<title>Node5&#45;&gt;Node6</title>
<path fill="none" stroke="#63b8ff" d="M241,-384.75C241,-378.27 241,-369.16 241,-360.9"/>
<polygon fill="#63b8ff" stroke="#63b8ff" points="244.5,-360.96 241,-350.96 237.5,-360.96 244.5,-360.96"/>
</g>
<!-- Node7 -->
<g id="node7" class="node">
<title>Node7</title>
<g id="a_node7"><a xlink:href="metatable_8h.html" target="_top" xlink:title=" ">
<polygon fill="white" stroke="#666666" points="237.5,-294 170.5,-294 170.5,-275 237.5,-275 237.5,-294"/>
<text text-anchor="middle" x="204" y="-282" font-family="Helvetica,sans-Serif" font-size="10.00">metatable.h</text>
</a>
</g>
</g>
<!-- Node6&#45;&gt;Node7 -->
<g id="edge6" class="edge">
<title>Node6&#45;&gt;Node7</title>
<path fill="none" stroke="#63b8ff" d="M234.89,-329.75C229.99,-322.73 222.95,-312.64 216.83,-303.87"/>
<polygon fill="#63b8ff" stroke="#63b8ff" points="219.7,-301.88 211.11,-295.68 213.96,-305.89 219.7,-301.88"/>
</g>
<!-- Node13 -->
<g id="node13" class="node">
<title>Node13</title>
<g id="a_node13"><a xlink:href="valuetype__desc_8h.html" target="_top" xlink:title=" ">
<polygon fill="white" stroke="#666666" points="371,-294 279,-294 279,-275 371,-275 371,-294"/>
<text text-anchor="middle" x="325" y="-282" font-family="Helvetica,sans-Serif" font-size="10.00">valuetype_desc.h</text>
</a>
</g>
</g>
<!-- Node6&#45;&gt;Node13 -->
<g id="edge12" class="edge">
<title>Node6&#45;&gt;Node13</title>
<path fill="none" stroke="#63b8ff" d="M255.25,-329.51C267.88,-321.54 286.56,-309.75 301.41,-300.38"/>
<polygon fill="#63b8ff" stroke="#63b8ff" points="303.09,-303.46 309.68,-295.17 299.36,-297.54 303.09,-303.46"/>
</g>
<!-- Node8 -->
<g id="node8" class="node">
<title>Node8</title>
<g id="a_node8"><a xlink:href="table__forward_8h.html" target="_top" xlink:title=" ">
<polygon fill="white" stroke="#666666" points="221.5,-239 138.5,-239 138.5,-220 221.5,-220 221.5,-239"/>
<text text-anchor="middle" x="180" y="-227" font-family="Helvetica,sans-Serif" font-size="10.00">table_forward.h</text>
</a>
</g>
</g>
<!-- Node7&#45;&gt;Node8 -->
<g id="edge7" class="edge">
<title>Node7&#45;&gt;Node8</title>
<path fill="none" stroke="#63b8ff" d="M200.04,-274.75C196.96,-267.96 192.59,-258.3 188.71,-249.73"/>
<polygon fill="#63b8ff" stroke="#63b8ff" points="191.99,-248.49 184.67,-240.82 185.61,-251.37 191.99,-248.49"/>
</g>
<!-- Node9 -->
<g id="node9" class="node">
<title>Node9</title>
<g id="a_node9"><a xlink:href="genericresult_8h.html" target="_top" xlink:title=" ">
<polygon fill="white" stroke="#666666" points="222,-184 106,-184 106,-165 222,-165 222,-184"/>
<text text-anchor="middle" x="164" y="-172" font-family="Helvetica,sans-Serif" font-size="10.00">Generic/genericresult.h</text>
</a>
</g>
</g>
<!-- Node8&#45;&gt;Node9 -->
<g id="edge8" class="edge">
<title>Node8&#45;&gt;Node9</title>
<path fill="none" stroke="#63b8ff" d="M177.36,-219.75C175.36,-213.11 172.52,-203.73 169.98,-195.31"/>
<polygon fill="#63b8ff" stroke="#63b8ff" points="173.38,-194.45 167.14,-185.89 166.68,-196.48 173.38,-194.45"/>
</g>
<!-- Node10 -->
<g id="node10" class="node">
<title>Node10</title>
<g id="a_node10"><a xlink:href="enum_8h.html" target="_top" xlink:title=" ">
<polygon fill="white" stroke="#666666" points="205,-129 157,-129 157,-110 205,-110 205,-129"/>
<text text-anchor="middle" x="181" y="-117" font-family="Helvetica,sans-Serif" font-size="10.00">enum.h</text>
</a>
</g>
</g>
<!-- Node9&#45;&gt;Node10 -->
<g id="edge9" class="edge">
<title>Node9&#45;&gt;Node10</title>
<path fill="none" stroke="#63b8ff" d="M166.81,-164.75C168.94,-158.11 171.94,-148.73 174.64,-140.31"/>
<polygon fill="#63b8ff" stroke="#63b8ff" points="177.95,-141.47 177.67,-130.88 171.28,-139.34 177.95,-141.47"/>
</g>
<!-- Node11 -->
<g id="node11" class="node">
<title>Node11</title>
<g id="a_node11"><a xlink:href="array_8h.html" target="_top" xlink:title=" ">
<polygon fill="white" stroke="#666666" points="239,-74 175,-74 175,-55 239,-55 239,-74"/>
<text text-anchor="middle" x="207" y="-62" font-family="Helvetica,sans-Serif" font-size="10.00">bits/array.h</text>
</a>
</g>
</g>
<!-- Node10&#45;&gt;Node11 -->
<g id="edge10" class="edge">
<title>Node10&#45;&gt;Node11</title>
<path fill="none" stroke="#63b8ff" d="M185.29,-109.75C188.62,-102.96 193.36,-93.3 197.56,-84.73"/>
<polygon fill="#63b8ff" stroke="#63b8ff" points="200.68,-86.32 201.95,-75.8 194.4,-83.24 200.68,-86.32"/>
</g>
<!-- Node12 -->
<g id="node12" class="node">
<title>Node12</title>
<g id="a_node12"><a xlink:href="types_8h.html" target="_top" xlink:title=" ">
<polygon fill="white" stroke="#666666" points="230.5,-19 183.5,-19 183.5,0 230.5,0 230.5,-19"/>
<text text-anchor="middle" x="207" y="-7" font-family="Helvetica,sans-Serif" font-size="10.00">types.h</text>
</a>
</g>
</g>
<!-- Node11&#45;&gt;Node12 -->
<g id="edge11" class="edge">
<title>Node11&#45;&gt;Node12</title>
<path fill="none" stroke="#63b8ff" d="M207,-54.75C207,-48.27 207,-39.16 207,-30.9"/>
<polygon fill="#63b8ff" stroke="#63b8ff" points="210.5,-30.96 207,-20.96 203.5,-30.96 210.5,-30.96"/>
</g>
<!-- Node13&#45;&gt;Node8 -->
<g id="edge19" class="edge">
<title>Node13&#45;&gt;Node8</title>
<path fill="none" stroke="#63b8ff" d="M300.4,-274.51C276.93,-265.93 241.33,-252.92 214.93,-243.27"/>
<polygon fill="#63b8ff" stroke="#63b8ff" points="216.25,-240.02 205.66,-239.88 213.85,-246.6 216.25,-240.02"/>
</g>
<!-- Node13&#45;&gt;Node11 -->
<g id="edge16" class="edge">
<title>Node13&#45;&gt;Node11</title>
<path fill="none" stroke="#63b8ff" d="M309.47,-274.56C296.97,-266.65 279.77,-254.05 269,-239 234,-190.11 216.97,-119.46 210.39,-85.38"/>
<polygon fill="#63b8ff" stroke="#63b8ff" points="213.87,-84.93 208.64,-75.72 206.98,-86.18 213.87,-84.93"/>
</g>
<!-- Node14 -->
<g id="node14" class="node">
<title>Node14</title>
<g id="a_node14"><a xlink:href="valuetype__types_8h.html" target="_top" xlink:title=" ">
<polygon fill="white" stroke="#666666" points="372,-239 278,-239 278,-220 372,-220 372,-239"/>
<text text-anchor="middle" x="325" y="-227" font-family="Helvetica,sans-Serif" font-size="10.00">valuetype_types.h</text>
</a>
</g>
</g>
<!-- Node13&#45;&gt;Node14 -->
<g id="edge13" class="edge">
<title>Node13&#45;&gt;Node14</title>
<path fill="none" stroke="#63b8ff" d="M325,-274.75C325,-268.27 325,-259.16 325,-250.9"/>
<polygon fill="#63b8ff" stroke="#63b8ff" points="328.5,-250.96 325,-240.96 321.5,-250.96 328.5,-250.96"/>
</g>
<!-- Node15 -->
<g id="node15" class="node">
<title>Node15</title>
<g id="a_node15"><a xlink:href="valuetypedefinclude_8h.html" target="_top" xlink:title=" ">
<polygon fill="white" stroke="#666666" points="398.5,-184 289.5,-184 289.5,-165 398.5,-165 398.5,-184"/>
<text text-anchor="middle" x="344" y="-172" font-family="Helvetica,sans-Serif" font-size="10.00">valuetypedefinclude.h</text>
</a>
</g>
</g>
<!-- Node13&#45;&gt;Node15 -->
<g id="edge21" class="edge">
<title>Node13&#45;&gt;Node15</title>
<path fill="none" stroke="#63b8ff" d="M343.31,-274.65C356.48,-267.17 373.23,-255.1 381,-239 388.93,-222.57 376.46,-204.68 363.9,-192.09"/>
<polygon fill="#63b8ff" stroke="#63b8ff" points="366.28,-189.53 356.55,-185.33 361.54,-194.68 366.28,-189.53"/>
</g>
<!-- Node17 -->
<g id="node17" class="node">
<title>Node17</title>
<g id="a_node17"><a xlink:href="keyvalue_8h.html" target="_top" xlink:title=" ">
<polygon fill="white" stroke="#666666" points="527.5,-239 428.5,-239 428.5,-220 527.5,-220 527.5,-239"/>
<text text-anchor="middle" x="478" y="-227" font-family="Helvetica,sans-Serif" font-size="10.00">Generic/keyvalue.h</text>
</a>
</g>
</g>
<!-- Node13&#45;&gt;Node17 -->
<g id="edge17" class="edge">
<title>Node13&#45;&gt;Node17</title>
<path fill="none" stroke="#63b8ff" d="M350.95,-274.51C375.87,-265.88 413.73,-252.76 441.64,-243.1"/>
<polygon fill="#63b8ff" stroke="#63b8ff" points="442.44,-246.52 450.74,-239.94 440.15,-239.91 442.44,-246.52"/>
</g>
<!-- Node19 -->
<g id="node19" class="node">
<title>Node19</title>
<g id="a_node19"><a xlink:href="execution_2concepts_8h.html" target="_top" xlink:title=" ">
<polygon fill="white" stroke="#666666" points="690.5,-239 545.5,-239 545.5,-220 690.5,-220 690.5,-239"/>
<text text-anchor="middle" x="618" y="-227" font-family="Helvetica,sans-Serif" font-size="10.00">Generic/execution/concepts.h</text>
</a>
</g>
</g>
<!-- Node13&#45;&gt;Node19 -->
<g id="edge20" class="edge">
<title>Node13&#45;&gt;Node19</title>
<path fill="none" stroke="#63b8ff" d="M371.43,-275.1C421.7,-266.01 502.08,-251.47 557.32,-241.48"/>
<polygon fill="#63b8ff" stroke="#63b8ff" points="557.66,-244.97 566.87,-239.75 556.41,-238.08 557.66,-244.97"/>
</g>
<!-- Node14&#45;&gt;Node15 -->
<g id="edge14" class="edge">
<title>Node14&#45;&gt;Node15</title>
<path fill="none" stroke="#63b8ff" d="M328.14,-219.75C330.54,-213.04 333.96,-203.52 337,-195.02"/>
<polygon fill="#63b8ff" stroke="#63b8ff" points="340.2,-196.46 340.28,-185.87 333.61,-194.1 340.2,-196.46"/>
</g>
<!-- Node16 -->
<g id="node16" class="node">
<title>Node16</title>
<g id="a_node16"><a xlink:href="valuetypedef_8h.html" target="_top" xlink:title=" ">
<polygon fill="white" stroke="#666666" points="383.5,-129 304.5,-129 304.5,-110 383.5,-110 383.5,-129"/>
<text text-anchor="middle" x="344" y="-117" font-family="Helvetica,sans-Serif" font-size="10.00">valuetypedef.h</text>
</a>
</g>
</g>
<!-- Node15&#45;&gt;Node16 -->
<g id="edge15" class="edge">
<title>Node15&#45;&gt;Node16</title>
<path fill="none" stroke="#63b8ff" d="M344,-164.75C344,-158.27 344,-149.16 344,-140.9"/>
<polygon fill="#63b8ff" stroke="#63b8ff" points="347.5,-140.96 344,-130.96 340.5,-140.96 347.5,-140.96"/>
</g>
<!-- Node18 -->
<g id="node18" class="node">
<title>Node18</title>
<g id="a_node18"><a xlink:href="comparator__traits_8h.html" target="_top" xlink:title=" ">
<polygon fill="white" stroke="#666666" points="528,-184 428,-184 428,-165 528,-165 528,-184"/>
<text text-anchor="middle" x="478" y="-172" font-family="Helvetica,sans-Serif" font-size="10.00">comparator_traits.h</text>
</a>
</g>
</g>
<!-- Node17&#45;&gt;Node18 -->
<g id="edge18" class="edge">
<title>Node17&#45;&gt;Node18</title>
<path fill="none" stroke="#63b8ff" d="M478,-219.75C478,-213.27 478,-204.16 478,-195.9"/>
<polygon fill="#63b8ff" stroke="#63b8ff" points="481.5,-195.96 478,-185.96 474.5,-195.96 481.5,-195.96"/>
</g>
<!-- Node20&#45;&gt;Node13 -->
<g id="edge23" class="edge">
<title>Node20&#45;&gt;Node13</title>
<path fill="none" stroke="#63b8ff" d="M325,-384.66C325,-367.57 325,-329.61 325,-305.92"/>
<polygon fill="#63b8ff" stroke="#63b8ff" points="328.5,-305.97 325,-295.97 321.5,-305.97 328.5,-305.97"/>
</g>
</g>
</svg>
