<?xml version="1.0" encoding="UTF-8" standalone="no"?>
<!DOCTYPE svg PUBLIC "-//W3C//DTD SVG 1.1//EN"
 "http://www.w3.org/Graphics/SVG/1.1/DTD/svg11.dtd">
<!-- Generated by graphviz version 7.0.5 (20221223.1930)
 -->
<!-- Title: src/Meta/keyvalue/scopeiterator.cpp Pages: 1 -->
<svg width="542pt" height="522pt"
 viewBox="0.00 0.00 541.50 522.00" xmlns="http://www.w3.org/2000/svg" xmlns:xlink="http://www.w3.org/1999/xlink">
<g id="graph0" class="graph" transform="scale(1 1) rotate(0) translate(4 518)">
<title>src/Meta/keyvalue/scopeiterator.cpp</title>
<!-- Node1 -->
<g id="node1" class="node">
<title>Node1</title>
<g id="a_node1"><a xlink:title=" ">
<polygon fill="#999999" stroke="#666666" points="382.5,-514 209.5,-514 209.5,-495 382.5,-495 382.5,-514"/>
<text text-anchor="middle" x="296" y="-502" font-family="Helvetica,sans-Serif" font-size="10.00">src/Meta/keyvalue/scopeiterator.cpp</text>
</a>
</g>
</g>
<!-- Node2 -->
<g id="node2" class="node">
<title>Node2</title>
<g id="a_node2"><a xlink:href="metalib_8h.html" target="_top" xlink:title=" ">
<polygon fill="white" stroke="#666666" points="187.5,-459 124.5,-459 124.5,-440 187.5,-440 187.5,-459"/>
<text text-anchor="middle" x="156" y="-447" font-family="Helvetica,sans-Serif" font-size="10.00">../metalib.h</text>
</a>
</g>
</g>
<!-- Node1&#45;&gt;Node2 -->
<g id="edge1" class="edge">
<title>Node1&#45;&gt;Node2</title>
<path fill="none" stroke="#63b8ff" d="M272.25,-494.51C249.69,-485.97 215.53,-473.03 190.06,-463.4"/>
<polygon fill="#63b8ff" stroke="#63b8ff" points="191.41,-460.16 180.81,-459.89 188.93,-466.71 191.41,-460.16"/>
</g>
<!-- Node5 -->
<g id="node5" class="node">
<title>Node5</title>
<g id="a_node5"><a xlink:href="scopeiterator_8h.html" target="_top" xlink:title=" ">
<polygon fill="white" stroke="#666666" points="336,-459 256,-459 256,-440 336,-440 336,-459"/>
<text text-anchor="middle" x="296" y="-447" font-family="Helvetica,sans-Serif" font-size="10.00">scopeiterator.h</text>
</a>
</g>
</g>
<!-- Node1&#45;&gt;Node5 -->
<g id="edge4" class="edge">
<title>Node1&#45;&gt;Node5</title>
<path fill="none" stroke="#63b8ff" d="M296,-494.75C296,-488.27 296,-479.16 296,-470.9"/>
<polygon fill="#63b8ff" stroke="#63b8ff" points="299.5,-470.96 296,-460.96 292.5,-470.96 299.5,-470.96"/>
</g>
<!-- Node7 -->
<g id="node7" class="node">
<title>Node7</title>
<g id="a_node7"><a xlink:href="scopefield_8h.html" target="_top" xlink:title=" ">
<polygon fill="white" stroke="#666666" points="418,-404 350,-404 350,-385 418,-385 418,-404"/>
<text text-anchor="middle" x="384" y="-392" font-family="Helvetica,sans-Serif" font-size="10.00">scopefield.h</text>
</a>
</g>
</g>
<!-- Node1&#45;&gt;Node7 -->
<g id="edge26" class="edge">
<title>Node1&#45;&gt;Node7</title>
<path fill="none" stroke="#63b8ff" d="M307.35,-494.75C317.87,-486.31 333.56,-472.8 345,-459 356.61,-444.99 367.23,-427.21 374.45,-414.03"/>
<polygon fill="#63b8ff" stroke="#63b8ff" points="377.35,-416.04 378.95,-405.56 371.17,-412.75 377.35,-416.04"/>
</g>
<!-- Node9 -->
<g id="node9" class="node">
<title>Node9</title>
<g id="a_node9"><a xlink:href="metatable_8h.html" target="_top" xlink:title=" ">
<polygon fill="white" stroke="#666666" points="479.5,-294 412.5,-294 412.5,-275 479.5,-275 479.5,-294"/>
<text text-anchor="middle" x="446" y="-282" font-family="Helvetica,sans-Serif" font-size="10.00">metatable.h</text>
</a>
</g>
</g>
<!-- Node1&#45;&gt;Node9 -->
<g id="edge27" class="edge">
<title>Node1&#45;&gt;Node9</title>
<path fill="none" stroke="#63b8ff" d="M316.78,-494.58C347.05,-480.35 402.31,-449.41 427,-404 443.96,-372.81 446.76,-330.65 446.74,-305.93"/>
<polygon fill="#63b8ff" stroke="#63b8ff" points="450.24,-305.91 446.55,-295.98 443.24,-306.04 450.24,-305.91"/>
</g>
<!-- Node22 -->
<g id="node22" class="node">
<title>Node22</title>
<g id="a_node22"><a xlink:href="accessor_8h.html" target="_top" xlink:title=" ">
<polygon fill="white" stroke="#666666" points="252,-349 188,-349 188,-330 252,-330 252,-349"/>
<text text-anchor="middle" x="220" y="-337" font-family="Helvetica,sans-Serif" font-size="10.00">accessor.h</text>
</a>
</g>
</g>
<!-- Node1&#45;&gt;Node22 -->
<g id="edge24" class="edge">
<title>Node1&#45;&gt;Node22</title>
<path fill="none" stroke="#63b8ff" d="M282.23,-494.58C271.02,-486.6 255.7,-473.88 247,-459 228.78,-427.82 222.85,-385.36 220.93,-360.64"/>
<polygon fill="#63b8ff" stroke="#63b8ff" points="224.44,-360.76 220.33,-351 217.46,-361.2 224.44,-360.76"/>
</g>
<!-- Node3 -->
<g id="node3" class="node">
<title>Node3</title>
<g id="a_node3"><a xlink:href="genericlib_8h.html" target="_top" xlink:title=" ">
<polygon fill="white" stroke="#666666" points="102,-404 0,-404 0,-385 102,-385 102,-404"/>
<text text-anchor="middle" x="51" y="-392" font-family="Helvetica,sans-Serif" font-size="10.00">Generic/genericlib.h</text>
</a>
</g>
</g>
<!-- Node2&#45;&gt;Node3 -->
<g id="edge2" class="edge">
<title>Node2&#45;&gt;Node3</title>
<path fill="none" stroke="#63b8ff" d="M138.19,-439.51C121.87,-431.27 97.47,-418.96 78.63,-409.45"/>
<polygon fill="#63b8ff" stroke="#63b8ff" points="80.4,-406.42 69.9,-405.04 77.25,-412.67 80.4,-406.42"/>
</g>
<!-- Node4 -->
<g id="node4" class="node">
<title>Node4</title>
<g id="a_node4"><a xlink:title=" ">
<polygon fill="#e0e0e0" stroke="#999999" points="191.5,-404 120.5,-404 120.5,-385 191.5,-385 191.5,-404"/>
<text text-anchor="middle" x="156" y="-392" font-family="Helvetica,sans-Serif" font-size="10.00">metaconfig.h</text>
</a>
</g>
</g>
<!-- Node2&#45;&gt;Node4 -->
<g id="edge3" class="edge">
<title>Node2&#45;&gt;Node4</title>
<path fill="none" stroke="#63b8ff" d="M156,-439.75C156,-433.27 156,-424.16 156,-415.9"/>
<polygon fill="#63b8ff" stroke="#63b8ff" points="159.5,-415.96 156,-405.96 152.5,-415.96 159.5,-415.96"/>
</g>
<!-- Node6 -->
<g id="node6" class="node">
<title>Node6</title>
<g id="a_node6"><a xlink:href="proxy_8h.html" target="_top" xlink:title=" ">
<polygon fill="white" stroke="#666666" points="331.5,-404 248.5,-404 248.5,-385 331.5,-385 331.5,-404"/>
<text text-anchor="middle" x="290" y="-392" font-family="Helvetica,sans-Serif" font-size="10.00">Generic/proxy.h</text>
</a>
</g>
</g>
<!-- Node5&#45;&gt;Node6 -->
<g id="edge5" class="edge">
<title>Node5&#45;&gt;Node6</title>
<path fill="none" stroke="#63b8ff" d="M295.01,-439.75C294.27,-433.19 293.22,-423.95 292.28,-415.6"/>
<polygon fill="#63b8ff" stroke="#63b8ff" points="295.79,-415.49 291.18,-405.95 288.83,-416.28 295.79,-415.49"/>
</g>
<!-- Node5&#45;&gt;Node7 -->
<g id="edge6" class="edge">
<title>Node5&#45;&gt;Node7</title>
<path fill="none" stroke="#63b8ff" d="M310.93,-439.51C324.28,-431.47 344.11,-419.53 359.74,-410.11"/>
<polygon fill="#63b8ff" stroke="#63b8ff" points="361.24,-413.3 368,-405.14 357.62,-407.3 361.24,-413.3"/>
</g>
<!-- Node8 -->
<g id="node8" class="node">
<title>Node8</title>
<g id="a_node8"><a xlink:href="scopeptr_8h.html" target="_top" xlink:title=" ">
<polygon fill="white" stroke="#666666" points="415,-349 353,-349 353,-330 415,-330 415,-349"/>
<text text-anchor="middle" x="384" y="-337" font-family="Helvetica,sans-Serif" font-size="10.00">scopeptr.h</text>
</a>
</g>
</g>
<!-- Node7&#45;&gt;Node8 -->
<g id="edge7" class="edge">
<title>Node7&#45;&gt;Node8</title>
<path fill="none" stroke="#63b8ff" d="M384,-384.75C384,-378.27 384,-369.16 384,-360.9"/>
<polygon fill="#63b8ff" stroke="#63b8ff" points="387.5,-360.96 384,-350.96 380.5,-360.96 387.5,-360.96"/>
</g>
<!-- Node8&#45;&gt;Node9 -->
<g id="edge8" class="edge">
<title>Node8&#45;&gt;Node9</title>
<path fill="none" stroke="#63b8ff" d="M394.52,-329.51C403.39,-321.93 416.31,-310.88 426.99,-301.75"/>
<polygon fill="#63b8ff" stroke="#63b8ff" points="429.16,-304.5 434.49,-295.34 424.61,-299.18 429.16,-304.5"/>
</g>
<!-- Node15 -->
<g id="node15" class="node">
<title>Node15</title>
<g id="a_node15"><a xlink:href="valuetype__desc_8h.html" target="_top" xlink:title=" ">
<polygon fill="white" stroke="#666666" points="266,-294 174,-294 174,-275 266,-275 266,-294"/>
<text text-anchor="middle" x="220" y="-282" font-family="Helvetica,sans-Serif" font-size="10.00">valuetype_desc.h</text>
</a>
</g>
</g>
<!-- Node8&#45;&gt;Node15 -->
<g id="edge14" class="edge">
<title>Node8&#45;&gt;Node15</title>
<path fill="none" stroke="#63b8ff" d="M356.18,-329.51C329.36,-320.84 288.54,-307.65 258.58,-297.97"/>
<polygon fill="#63b8ff" stroke="#63b8ff" points="259.71,-294.66 249.12,-294.91 257.56,-301.32 259.71,-294.66"/>
</g>
<!-- Node10 -->
<g id="node10" class="node">
<title>Node10</title>
<g id="a_node10"><a xlink:href="table__forward_8h.html" target="_top" xlink:title=" ">
<polygon fill="white" stroke="#666666" points="533.5,-239 450.5,-239 450.5,-220 533.5,-220 533.5,-239"/>
<text text-anchor="middle" x="492" y="-227" font-family="Helvetica,sans-Serif" font-size="10.00">table_forward.h</text>
</a>
</g>
</g>
<!-- Node9&#45;&gt;Node10 -->
<g id="edge9" class="edge">
<title>Node9&#45;&gt;Node10</title>
<path fill="none" stroke="#63b8ff" d="M453.6,-274.75C459.88,-267.5 469.01,-256.98 476.8,-248.02"/>
<polygon fill="#63b8ff" stroke="#63b8ff" points="479.34,-250.43 483.25,-240.59 474.05,-245.84 479.34,-250.43"/>
</g>
<!-- Node11 -->
<g id="node11" class="node">
<title>Node11</title>
<g id="a_node11"><a xlink:href="genericresult_8h.html" target="_top" xlink:title=" ">
<polygon fill="white" stroke="#666666" points="477,-184 361,-184 361,-165 477,-165 477,-184"/>
<text text-anchor="middle" x="419" y="-172" font-family="Helvetica,sans-Serif" font-size="10.00">Generic/genericresult.h</text>
</a>
</g>
</g>
<!-- Node10&#45;&gt;Node11 -->
<g id="edge10" class="edge">
<title>Node10&#45;&gt;Node11</title>
<path fill="none" stroke="#63b8ff" d="M479.62,-219.51C468.85,-211.7 453.03,-200.21 440.25,-190.93"/>
<polygon fill="#63b8ff" stroke="#63b8ff" points="442.57,-188.29 432.43,-185.25 438.46,-193.95 442.57,-188.29"/>
</g>
<!-- Node12 -->
<g id="node12" class="node">
<title>Node12</title>
<g id="a_node12"><a xlink:href="enum_8h.html" target="_top" xlink:title=" ">
<polygon fill="white" stroke="#666666" points="275,-129 227,-129 227,-110 275,-110 275,-129"/>
<text text-anchor="middle" x="251" y="-117" font-family="Helvetica,sans-Serif" font-size="10.00">enum.h</text>
</a>
</g>
</g>
<!-- Node11&#45;&gt;Node12 -->
<g id="edge11" class="edge">
<title>Node11&#45;&gt;Node12</title>
<path fill="none" stroke="#63b8ff" d="M390.5,-164.51C361.65,-155.41 317,-141.32 286.01,-131.55"/>
<polygon fill="#63b8ff" stroke="#63b8ff" points="287.3,-128.28 276.71,-128.61 285.2,-134.96 287.3,-128.28"/>
</g>
<!-- Node13 -->
<g id="node13" class="node">
<title>Node13</title>
<g id="a_node13"><a xlink:href="array_8h.html" target="_top" xlink:title=" ">
<polygon fill="white" stroke="#666666" points="117,-74 53,-74 53,-55 117,-55 117,-74"/>
<text text-anchor="middle" x="85" y="-62" font-family="Helvetica,sans-Serif" font-size="10.00">bits/array.h</text>
</a>
</g>
</g>
<!-- Node12&#45;&gt;Node13 -->
<g id="edge12" class="edge">
<title>Node12&#45;&gt;Node13</title>
<path fill="none" stroke="#63b8ff" d="M226.51,-110.68C199.4,-102.03 155.35,-87.96 123.6,-77.82"/>
<polygon fill="#63b8ff" stroke="#63b8ff" points="124.96,-74.58 114.37,-74.88 122.83,-81.25 124.96,-74.58"/>
</g>
<!-- Node14 -->
<g id="node14" class="node">
<title>Node14</title>
<g id="a_node14"><a xlink:href="types_8h.html" target="_top" xlink:title=" ">
<polygon fill="white" stroke="#666666" points="108.5,-19 61.5,-19 61.5,0 108.5,0 108.5,-19"/>
<text text-anchor="middle" x="85" y="-7" font-family="Helvetica,sans-Serif" font-size="10.00">types.h</text>
</a>
</g>
</g>
<!-- Node13&#45;&gt;Node14 -->
<g id="edge13" class="edge">
<title>Node13&#45;&gt;Node14</title>
<path fill="none" stroke="#63b8ff" d="M85,-54.75C85,-48.27 85,-39.16 85,-30.9"/>
<polygon fill="#63b8ff" stroke="#63b8ff" points="88.5,-30.96 85,-20.96 81.5,-30.96 88.5,-30.96"/>
</g>
<!-- Node15&#45;&gt;Node10 -->
<g id="edge21" class="edge">
<title>Node15&#45;&gt;Node10</title>
<path fill="none" stroke="#63b8ff" d="M266.14,-274.51C313.95,-265.19 388.58,-250.65 438.83,-240.86"/>
<polygon fill="#63b8ff" stroke="#63b8ff" points="439.47,-244.3 448.62,-238.95 438.13,-237.43 439.47,-244.3"/>
</g>
<!-- Node15&#45;&gt;Node13 -->
<g id="edge18" class="edge">
<title>Node15&#45;&gt;Node13</title>
<path fill="none" stroke="#63b8ff" d="M173.55,-283.72C133.66,-281.44 77.03,-271.96 41,-239 -1.32,-200.28 7.28,-159.06 37,-110 43.71,-98.92 53.97,-88.88 63.27,-81.16"/>
<polygon fill="#63b8ff" stroke="#63b8ff" points="65.19,-84.1 70.91,-75.18 60.88,-78.59 65.19,-84.1"/>
</g>
<!-- Node16 -->
<g id="node16" class="node">
<title>Node16</title>
<g id="a_node16"><a xlink:href="valuetype__types_8h.html" target="_top" xlink:title=" ">
<polygon fill="white" stroke="#666666" points="152,-239 58,-239 58,-220 152,-220 152,-239"/>
<text text-anchor="middle" x="105" y="-227" font-family="Helvetica,sans-Serif" font-size="10.00">valuetype_types.h</text>
</a>
</g>
</g>
<!-- Node15&#45;&gt;Node16 -->
<g id="edge15" class="edge">
<title>Node15&#45;&gt;Node16</title>
<path fill="none" stroke="#63b8ff" d="M200.49,-274.51C182.37,-266.16 155.15,-253.61 134.4,-244.05"/>
<polygon fill="#63b8ff" stroke="#63b8ff" points="136.14,-241 125.59,-239.99 133.21,-247.36 136.14,-241"/>
</g>
<!-- Node17 -->
<g id="node17" class="node">
<title>Node17</title>
<g id="a_node17"><a xlink:href="valuetypedefinclude_8h.html" target="_top" xlink:title=" ">
<polygon fill="white" stroke="#666666" points="140.5,-184 31.5,-184 31.5,-165 140.5,-165 140.5,-184"/>
<text text-anchor="middle" x="86" y="-172" font-family="Helvetica,sans-Serif" font-size="10.00">valuetypedefinclude.h</text>
</a>
</g>
</g>
<!-- Node15&#45;&gt;Node17 -->
<g id="edge23" class="edge">
<title>Node15&#45;&gt;Node17</title>
<path fill="none" stroke="#63b8ff" d="M173.91,-277.86C128.64,-271.26 64.2,-258.66 49,-239 37.43,-224.04 51.67,-205.11 65.7,-191.83"/>
<polygon fill="#63b8ff" stroke="#63b8ff" points="67.84,-194.6 73.04,-185.37 63.22,-189.35 67.84,-194.6"/>
</g>
<!-- Node19 -->
<g id="node19" class="node">
<title>Node19</title>
<g id="a_node19"><a xlink:href="keyvalue_8h.html" target="_top" xlink:title=" ">
<polygon fill="white" stroke="#666666" points="269.5,-239 170.5,-239 170.5,-220 269.5,-220 269.5,-239"/>
<text text-anchor="middle" x="220" y="-227" font-family="Helvetica,sans-Serif" font-size="10.00">Generic/keyvalue.h</text>
</a>
</g>
</g>
<!-- Node15&#45;&gt;Node19 -->
<g id="edge19" class="edge">
<title>Node15&#45;&gt;Node19</title>
<path fill="none" stroke="#63b8ff" d="M220,-274.75C220,-268.27 220,-259.16 220,-250.9"/>
<polygon fill="#63b8ff" stroke="#63b8ff" points="223.5,-250.96 220,-240.96 216.5,-250.96 223.5,-250.96"/>
</g>
<!-- Node21 -->
<g id="node21" class="node">
<title>Node21</title>
<g id="a_node21"><a xlink:href="execution_2concepts_8h.html" target="_top" xlink:title=" ">
<polygon fill="white" stroke="#666666" points="432.5,-239 287.5,-239 287.5,-220 432.5,-220 432.5,-239"/>
<text text-anchor="middle" x="360" y="-227" font-family="Helvetica,sans-Serif" font-size="10.00">Generic/execution/concepts.h</text>
</a>
</g>
</g>
<!-- Node15&#45;&gt;Node21 -->
<g id="edge22" class="edge">
<title>Node15&#45;&gt;Node21</title>
<path fill="none" stroke="#63b8ff" d="M243.75,-274.51C266.31,-265.97 300.47,-253.03 325.94,-243.4"/>
<polygon fill="#63b8ff" stroke="#63b8ff" points="327.07,-246.71 335.19,-239.89 324.59,-240.16 327.07,-246.71"/>
</g>
<!-- Node16&#45;&gt;Node17 -->
<g id="edge16" class="edge">
<title>Node16&#45;&gt;Node17</title>
<path fill="none" stroke="#63b8ff" d="M101.86,-219.75C99.46,-213.04 96.04,-203.52 93,-195.02"/>
<polygon fill="#63b8ff" stroke="#63b8ff" points="96.39,-194.1 89.72,-185.87 89.8,-196.46 96.39,-194.1"/>
</g>
<!-- Node18 -->
<g id="node18" class="node">
<title>Node18</title>
<g id="a_node18"><a xlink:href="valuetypedef_8h.html" target="_top" xlink:title=" ">
<polygon fill="white" stroke="#666666" points="125.5,-129 46.5,-129 46.5,-110 125.5,-110 125.5,-129"/>
<text text-anchor="middle" x="86" y="-117" font-family="Helvetica,sans-Serif" font-size="10.00">valuetypedef.h</text>
</a>
</g>
</g>
<!-- Node17&#45;&gt;Node18 -->
<g id="edge17" class="edge">
<title>Node17&#45;&gt;Node18</title>
<path fill="none" stroke="#63b8ff" d="M86,-164.75C86,-158.27 86,-149.16 86,-140.9"/>
<polygon fill="#63b8ff" stroke="#63b8ff" points="89.5,-140.96 86,-130.96 82.5,-140.96 89.5,-140.96"/>
</g>
<!-- Node20 -->
<g id="node20" class="node">
<title>Node20</title>
<g id="a_node20"><a xlink:href="comparator__traits_8h.html" target="_top" xlink:title=" ">
<polygon fill="white" stroke="#666666" points="270,-184 170,-184 170,-165 270,-165 270,-184"/>
<text text-anchor="middle" x="220" y="-172" font-family="Helvetica,sans-Serif" font-size="10.00">comparator_traits.h</text>
</a>
</g>
</g>
<!-- Node19&#45;&gt;Node20 -->
<g id="edge20" class="edge">
<title>Node19&#45;&gt;Node20</title>
<path fill="none" stroke="#63b8ff" d="M220,-219.75C220,-213.27 220,-204.16 220,-195.9"/>
<polygon fill="#63b8ff" stroke="#63b8ff" points="223.5,-195.96 220,-185.96 216.5,-195.96 223.5,-195.96"/>
</g>
<!-- Node22&#45;&gt;Node15 -->
<g id="edge25" class="edge">
<title>Node22&#45;&gt;Node15</title>
<path fill="none" stroke="#63b8ff" d="M220,-329.75C220,-323.27 220,-314.16 220,-305.9"/>
<polygon fill="#63b8ff" stroke="#63b8ff" points="223.5,-305.96 220,-295.96 216.5,-305.96 223.5,-305.96"/>
</g>
</g>
</svg>
