<?xml version="1.0" encoding="UTF-8" standalone="no"?>
<!DOCTYPE svg PUBLIC "-//W3C//DTD SVG 1.1//EN"
 "http://www.w3.org/Graphics/SVG/1.1/DTD/svg11.dtd">
<!-- Generated by graphviz version 7.0.5 (20221223.1930)
 -->
<!-- Title: src/Meta/serialize/streams/serializestreamdata.cpp Pages: 1 -->
<svg width="534pt" height="423pt"
 viewBox="0.00 0.00 534.00 423.00" xmlns="http://www.w3.org/2000/svg" xmlns:xlink="http://www.w3.org/1999/xlink">
<g id="graph0" class="graph" transform="scale(1 1) rotate(0) translate(4 419)">
<title>src/Meta/serialize/streams/serializestreamdata.cpp</title>
<!-- Node1 -->
<g id="node1" class="node">
<title>Node1</title>
<g id="a_node1"><a xlink:title=" ">
<polygon fill="#999999" stroke="#666666" points="354,-415 194,-415 194,-385 354,-385 354,-415"/>
<text text-anchor="start" x="202" y="-403" font-family="Helvetica,sans-Serif" font-size="10.00">src/Meta/serialize</text>
<text text-anchor="middle" x="274" y="-392" font-family="Helvetica,sans-Serif" font-size="10.00">/streams/serializestreamdata.cpp</text>
</a>
</g>
</g>
<!-- Node2 -->
<g id="node2" class="node">
<title>Node2</title>
<g id="a_node2"><a xlink:href="metalib_8h.html" target="_top" xlink:title=" ">
<polygon fill="white" stroke="#666666" points="191.5,-349 120.5,-349 120.5,-330 191.5,-330 191.5,-349"/>
<text text-anchor="middle" x="156" y="-337" font-family="Helvetica,sans-Serif" font-size="10.00">../../metalib.h</text>
</a>
</g>
</g>
<!-- Node1&#45;&gt;Node2 -->
<g id="edge1" class="edge">
<title>Node1&#45;&gt;Node2</title>
<path fill="none" stroke="#63b8ff" d="M244.83,-384.54C226.23,-375.32 202.27,-363.44 183.92,-354.34"/>
<polygon fill="#63b8ff" stroke="#63b8ff" points="185.71,-351.32 175.2,-350.02 182.6,-357.6 185.71,-351.32"/>
</g>
<!-- Node5 -->
<g id="node5" class="node">
<title>Node5</title>
<g id="a_node5"><a xlink:href="serializestreamdata_8h.html" target="_top" xlink:title=" ">
<polygon fill="white" stroke="#666666" points="328,-349 220,-349 220,-330 328,-330 328,-349"/>
<text text-anchor="middle" x="274" y="-337" font-family="Helvetica,sans-Serif" font-size="10.00">serializestreamdata.h</text>
</a>
</g>
</g>
<!-- Node1&#45;&gt;Node5 -->
<g id="edge4" class="edge">
<title>Node1&#45;&gt;Node5</title>
<path fill="none" stroke="#63b8ff" d="M274,-384.54C274,-377.34 274,-368.53 274,-360.68"/>
<polygon fill="#63b8ff" stroke="#63b8ff" points="277.5,-360.69 274,-350.69 270.5,-360.69 277.5,-360.69"/>
</g>
<!-- Node15 -->
<g id="node15" class="node">
<title>Node15</title>
<g id="a_node15"><a xlink:href="serializemanager_8h.html" target="_top" xlink:title=" ">
<polygon fill="white" stroke="#666666" points="450,-349 346,-349 346,-330 450,-330 450,-349"/>
<text text-anchor="middle" x="398" y="-337" font-family="Helvetica,sans-Serif" font-size="10.00">../serializemanager.h</text>
</a>
</g>
</g>
<!-- Node1&#45;&gt;Node15 -->
<g id="edge14" class="edge">
<title>Node1&#45;&gt;Node15</title>
<path fill="none" stroke="#63b8ff" d="M304.65,-384.54C324.29,-375.28 349.62,-363.33 368.93,-354.21"/>
<polygon fill="#63b8ff" stroke="#63b8ff" points="370.33,-357.42 377.88,-349.99 367.34,-351.09 370.33,-357.42"/>
</g>
<!-- Node3 -->
<g id="node3" class="node">
<title>Node3</title>
<g id="a_node3"><a xlink:href="genericlib_8h.html" target="_top" xlink:title=" ">
<polygon fill="white" stroke="#666666" points="102,-294 0,-294 0,-275 102,-275 102,-294"/>
<text text-anchor="middle" x="51" y="-282" font-family="Helvetica,sans-Serif" font-size="10.00">Generic/genericlib.h</text>
</a>
</g>
</g>
<!-- Node2&#45;&gt;Node3 -->
<g id="edge2" class="edge">
<title>Node2&#45;&gt;Node3</title>
<path fill="none" stroke="#63b8ff" d="M138.19,-329.51C121.87,-321.27 97.47,-308.96 78.63,-299.45"/>
<polygon fill="#63b8ff" stroke="#63b8ff" points="80.4,-296.42 69.9,-295.04 77.25,-302.67 80.4,-296.42"/>
</g>
<!-- Node4 -->
<g id="node4" class="node">
<title>Node4</title>
<g id="a_node4"><a xlink:title=" ">
<polygon fill="#e0e0e0" stroke="#999999" points="191.5,-294 120.5,-294 120.5,-275 191.5,-275 191.5,-294"/>
<text text-anchor="middle" x="156" y="-282" font-family="Helvetica,sans-Serif" font-size="10.00">metaconfig.h</text>
</a>
</g>
</g>
<!-- Node2&#45;&gt;Node4 -->
<g id="edge3" class="edge">
<title>Node2&#45;&gt;Node4</title>
<path fill="none" stroke="#63b8ff" d="M156,-329.75C156,-323.27 156,-314.16 156,-305.9"/>
<polygon fill="#63b8ff" stroke="#63b8ff" points="159.5,-305.96 156,-295.96 152.5,-305.96 159.5,-305.96"/>
</g>
<!-- Node6 -->
<g id="node6" class="node">
<title>Node6</title>
<g id="a_node6"><a xlink:href="serializableunitptr_8h.html" target="_top" xlink:title=" ">
<polygon fill="white" stroke="#666666" points="358.5,-294 209.5,-294 209.5,-275 358.5,-275 358.5,-294"/>
<text text-anchor="middle" x="284" y="-282" font-family="Helvetica,sans-Serif" font-size="10.00">../hierarchy/serializableunitptr.h</text>
</a>
</g>
</g>
<!-- Node5&#45;&gt;Node6 -->
<g id="edge5" class="edge">
<title>Node5&#45;&gt;Node6</title>
<path fill="none" stroke="#63b8ff" d="M275.65,-329.75C276.89,-323.19 278.63,-313.95 280.21,-305.6"/>
<polygon fill="#63b8ff" stroke="#63b8ff" points="283.62,-306.4 282.03,-295.93 276.74,-305.11 283.62,-306.4"/>
</g>
<!-- Node7 -->
<g id="node7" class="node">
<title>Node7</title>
<g id="a_node7"><a xlink:href="callerhierarchy_8h.html" target="_top" xlink:title=" ">
<polygon fill="white" stroke="#666666" points="137.5,-239 14.5,-239 14.5,-220 137.5,-220 137.5,-239"/>
<text text-anchor="middle" x="76" y="-227" font-family="Helvetica,sans-Serif" font-size="10.00">Generic/callerhierarchy.h</text>
</a>
</g>
</g>
<!-- Node6&#45;&gt;Node7 -->
<g id="edge6" class="edge">
<title>Node6&#45;&gt;Node7</title>
<path fill="none" stroke="#63b8ff" d="M248.72,-274.51C213.8,-265.61 160.17,-251.95 121.95,-242.21"/>
<polygon fill="#63b8ff" stroke="#63b8ff" points="123.13,-238.9 112.58,-239.82 121.4,-245.68 123.13,-238.9"/>
</g>
<!-- Node8 -->
<g id="node8" class="node">
<title>Node8</title>
<g id="a_node8"><a xlink:href="serializetable__forward_8h.html" target="_top" xlink:title=" ">
<polygon fill="white" stroke="#666666" points="274,-239 156,-239 156,-220 274,-220 274,-239"/>
<text text-anchor="middle" x="215" y="-227" font-family="Helvetica,sans-Serif" font-size="10.00">serializetable_forward.h</text>
</a>
</g>
</g>
<!-- Node6&#45;&gt;Node8 -->
<g id="edge7" class="edge">
<title>Node6&#45;&gt;Node8</title>
<path fill="none" stroke="#63b8ff" d="M272.3,-274.51C262.22,-266.77 247.46,-255.43 235.44,-246.2"/>
<polygon fill="#63b8ff" stroke="#63b8ff" points="237.79,-243.6 227.73,-240.28 233.53,-249.15 237.79,-243.6"/>
</g>
<!-- Node9 -->
<g id="node9" class="node">
<title>Node9</title>
<g id="a_node9"><a xlink:href="streamresult_8h.html" target="_top" xlink:title=" ">
<polygon fill="white" stroke="#666666" points="416,-239 292,-239 292,-220 416,-220 416,-239"/>
<text text-anchor="middle" x="354" y="-227" font-family="Helvetica,sans-Serif" font-size="10.00">../streams/streamresult.h</text>
</a>
</g>
</g>
<!-- Node6&#45;&gt;Node9 -->
<g id="edge8" class="edge">
<title>Node6&#45;&gt;Node9</title>
<path fill="none" stroke="#63b8ff" d="M295.87,-274.51C306.09,-266.77 321.07,-255.43 333.26,-246.2"/>
<polygon fill="#63b8ff" stroke="#63b8ff" points="335.23,-249.1 341.09,-240.27 331.01,-243.52 335.23,-249.1"/>
</g>
<!-- Node14 -->
<g id="node14" class="node">
<title>Node14</title>
<g id="a_node14"><a xlink:href="primitivetypes_8h.html" target="_top" xlink:title=" ">
<polygon fill="white" stroke="#666666" points="526,-239 434,-239 434,-220 526,-220 526,-239"/>
<text text-anchor="middle" x="480" y="-227" font-family="Helvetica,sans-Serif" font-size="10.00">../primitivetypes.h</text>
</a>
</g>
</g>
<!-- Node6&#45;&gt;Node14 -->
<g id="edge13" class="edge">
<title>Node6&#45;&gt;Node14</title>
<path fill="none" stroke="#63b8ff" d="M317.25,-274.51C350.01,-265.65 400.25,-252.07 436.24,-242.33"/>
<polygon fill="#63b8ff" stroke="#63b8ff" points="436.72,-245.83 445.45,-239.84 434.89,-239.07 436.72,-245.83"/>
</g>
<!-- Node10 -->
<g id="node10" class="node">
<title>Node10</title>
<g id="a_node10"><a xlink:href="streamstate_8h.html" target="_top" xlink:title=" ">
<polygon fill="white" stroke="#666666" points="392,-184 316,-184 316,-165 392,-165 392,-184"/>
<text text-anchor="middle" x="354" y="-172" font-family="Helvetica,sans-Serif" font-size="10.00">streamstate.h</text>
</a>
</g>
</g>
<!-- Node9&#45;&gt;Node10 -->
<g id="edge9" class="edge">
<title>Node9&#45;&gt;Node10</title>
<path fill="none" stroke="#63b8ff" d="M354,-219.75C354,-213.27 354,-204.16 354,-195.9"/>
<polygon fill="#63b8ff" stroke="#63b8ff" points="357.5,-195.96 354,-185.96 350.5,-195.96 357.5,-195.96"/>
</g>
<!-- Node11 -->
<g id="node11" class="node">
<title>Node11</title>
<g id="a_node11"><a xlink:href="enum_8h.html" target="_top" xlink:title=" ">
<polygon fill="white" stroke="#666666" points="396.5,-129 311.5,-129 311.5,-110 396.5,-110 396.5,-129"/>
<text text-anchor="middle" x="354" y="-117" font-family="Helvetica,sans-Serif" font-size="10.00">Generic/enum.h</text>
</a>
</g>
</g>
<!-- Node10&#45;&gt;Node11 -->
<g id="edge10" class="edge">
<title>Node10&#45;&gt;Node11</title>
<path fill="none" stroke="#63b8ff" d="M354,-164.75C354,-158.27 354,-149.16 354,-140.9"/>
<polygon fill="#63b8ff" stroke="#63b8ff" points="357.5,-140.96 354,-130.96 350.5,-140.96 357.5,-140.96"/>
</g>
<!-- Node12 -->
<g id="node12" class="node">
<title>Node12</title>
<g id="a_node12"><a xlink:href="array_8h.html" target="_top" xlink:title=" ">
<polygon fill="white" stroke="#666666" points="386,-74 322,-74 322,-55 386,-55 386,-74"/>
<text text-anchor="middle" x="354" y="-62" font-family="Helvetica,sans-Serif" font-size="10.00">bits/array.h</text>
</a>
</g>
</g>
<!-- Node11&#45;&gt;Node12 -->
<g id="edge11" class="edge">
<title>Node11&#45;&gt;Node12</title>
<path fill="none" stroke="#63b8ff" d="M354,-109.75C354,-103.27 354,-94.16 354,-85.9"/>
<polygon fill="#63b8ff" stroke="#63b8ff" points="357.5,-85.96 354,-75.96 350.5,-85.96 357.5,-85.96"/>
</g>
<!-- Node13 -->
<g id="node13" class="node">
<title>Node13</title>
<g id="a_node13"><a xlink:href="types_8h.html" target="_top" xlink:title=" ">
<polygon fill="white" stroke="#666666" points="377.5,-19 330.5,-19 330.5,0 377.5,0 377.5,-19"/>
<text text-anchor="middle" x="354" y="-7" font-family="Helvetica,sans-Serif" font-size="10.00">types.h</text>
</a>
</g>
</g>
<!-- Node12&#45;&gt;Node13 -->
<g id="edge12" class="edge">
<title>Node12&#45;&gt;Node13</title>
<path fill="none" stroke="#63b8ff" d="M354,-54.75C354,-48.27 354,-39.16 354,-30.9"/>
<polygon fill="#63b8ff" stroke="#63b8ff" points="357.5,-30.96 354,-20.96 350.5,-30.96 357.5,-30.96"/>
</g>
</g>
</svg>
