<?xml version="1.0" encoding="UTF-8" standalone="no"?>
<!DOCTYPE svg PUBLIC "-//W3C//DTD SVG 1.1//EN"
 "http://www.w3.org/Graphics/SVG/1.1/DTD/svg11.dtd">
<!-- Generated by graphviz version 7.0.5 (20221223.1930)
 -->
<!-- Title: src/Meta/serialize/streams/serializestream.cpp Pages: 1 -->
<svg width="924pt" height="423pt"
 viewBox="0.00 0.00 923.50 423.00" xmlns="http://www.w3.org/2000/svg" xmlns:xlink="http://www.w3.org/1999/xlink">
<g id="graph0" class="graph" transform="scale(1 1) rotate(0) translate(4 419)">
<title>src/Meta/serialize/streams/serializestream.cpp</title>
<!-- Node1 -->
<g id="node1" class="node">
<title>Node1</title>
<g id="a_node1"><a xlink:title=" ">
<polygon fill="#999999" stroke="#666666" points="554.5,-415 413.5,-415 413.5,-385 554.5,-385 554.5,-415"/>
<text text-anchor="start" x="421.5" y="-403" font-family="Helvetica,sans-Serif" font-size="10.00">src/Meta/serialize</text>
<text text-anchor="middle" x="484" y="-392" font-family="Helvetica,sans-Serif" font-size="10.00">/streams/serializestream.cpp</text>
</a>
</g>
</g>
<!-- Node2 -->
<g id="node2" class="node">
<title>Node2</title>
<g id="a_node2"><a xlink:href="metalib_8h.html" target="_top" xlink:title=" ">
<polygon fill="white" stroke="#666666" points="191.5,-349 120.5,-349 120.5,-330 191.5,-330 191.5,-349"/>
<text text-anchor="middle" x="156" y="-337" font-family="Helvetica,sans-Serif" font-size="10.00">../../metalib.h</text>
</a>
</g>
</g>
<!-- Node1&#45;&gt;Node2 -->
<g id="edge1" class="edge">
<title>Node1&#45;&gt;Node2</title>
<path fill="none" stroke="#63b8ff" d="M413.23,-386.38C349.59,-375.03 257.89,-358.67 202.9,-348.86"/>
<polygon fill="#63b8ff" stroke="#63b8ff" points="203.69,-345.45 193.23,-347.14 202.46,-352.34 203.69,-345.45"/>
</g>
<!-- Node5 -->
<g id="node5" class="node">
<title>Node5</title>
<g id="a_node5"><a xlink:href="serializestream_8h.html" target="_top" xlink:title=" ">
<polygon fill="white" stroke="#666666" points="373.5,-349 284.5,-349 284.5,-330 373.5,-330 373.5,-349"/>
<text text-anchor="middle" x="329" y="-337" font-family="Helvetica,sans-Serif" font-size="10.00">serializestream.h</text>
</a>
</g>
</g>
<!-- Node1&#45;&gt;Node5 -->
<g id="edge4" class="edge">
<title>Node1&#45;&gt;Node5</title>
<path fill="none" stroke="#63b8ff" d="M445.69,-384.54C420.34,-374.97 387.41,-362.55 363,-353.33"/>
<polygon fill="#63b8ff" stroke="#63b8ff" points="364.45,-350.14 353.85,-349.88 361.97,-356.69 364.45,-350.14"/>
</g>
<!-- Node12 -->
<g id="node12" class="node">
<title>Node12</title>
<g id="a_node12"><a xlink:href="serializableunitptr_8h.html" target="_top" xlink:title=" ">
<polygon fill="white" stroke="#666666" points="506.5,-294 357.5,-294 357.5,-275 506.5,-275 506.5,-294"/>
<text text-anchor="middle" x="432" y="-282" font-family="Helvetica,sans-Serif" font-size="10.00">../hierarchy/serializableunitptr.h</text>
</a>
</g>
</g>
<!-- Node1&#45;&gt;Node12 -->
<g id="edge23" class="edge">
<title>Node1&#45;&gt;Node12</title>
<path fill="none" stroke="#63b8ff" d="M456.05,-384.64C442.82,-376.22 428.35,-364.21 421,-349 414.29,-335.12 418,-317.78 422.84,-304.73"/>
<polygon fill="#63b8ff" stroke="#63b8ff" points="426.05,-306.13 426.76,-295.56 419.61,-303.39 426.05,-306.13"/>
</g>
<!-- Node16 -->
<g id="node16" class="node">
<title>Node16</title>
<g id="a_node16"><a xlink:href="serializestreamdata_8h.html" target="_top" xlink:title=" ">
<polygon fill="white" stroke="#666666" points="538,-349 430,-349 430,-330 538,-330 538,-349"/>
<text text-anchor="middle" x="484" y="-337" font-family="Helvetica,sans-Serif" font-size="10.00">serializestreamdata.h</text>
</a>
</g>
</g>
<!-- Node1&#45;&gt;Node16 -->
<g id="edge16" class="edge">
<title>Node1&#45;&gt;Node16</title>
<path fill="none" stroke="#63b8ff" d="M484,-384.54C484,-377.34 484,-368.53 484,-360.68"/>
<polygon fill="#63b8ff" stroke="#63b8ff" points="487.5,-360.69 484,-350.69 480.5,-360.69 487.5,-360.69"/>
</g>
<!-- Node17 -->
<g id="node17" class="node">
<title>Node17</title>
<g id="a_node17"><a xlink:href="bytebuffer_8h.html" target="_top" xlink:title=" ">
<polygon fill="white" stroke="#666666" points="659.5,-349 556.5,-349 556.5,-330 659.5,-330 659.5,-349"/>
<text text-anchor="middle" x="608" y="-337" font-family="Helvetica,sans-Serif" font-size="10.00">Generic/bytebuffer.h</text>
</a>
</g>
</g>
<!-- Node1&#45;&gt;Node17 -->
<g id="edge18" class="edge">
<title>Node1&#45;&gt;Node17</title>
<path fill="none" stroke="#63b8ff" d="M514.65,-384.54C534.29,-375.28 559.62,-363.33 578.93,-354.21"/>
<polygon fill="#63b8ff" stroke="#63b8ff" points="580.33,-357.42 587.88,-349.99 577.34,-351.09 580.33,-357.42"/>
</g>
<!-- Node20 -->
<g id="node20" class="node">
<title>Node20</title>
<g id="a_node20"><a xlink:href="serializemanager_8h.html" target="_top" xlink:title=" ">
<polygon fill="white" stroke="#666666" points="782,-349 678,-349 678,-330 782,-330 782,-349"/>
<text text-anchor="middle" x="730" y="-337" font-family="Helvetica,sans-Serif" font-size="10.00">../serializemanager.h</text>
</a>
</g>
</g>
<!-- Node1&#45;&gt;Node20 -->
<g id="edge21" class="edge">
<title>Node1&#45;&gt;Node20</title>
<path fill="none" stroke="#63b8ff" d="M544.81,-384.54C586.9,-374.53 642.17,-361.39 681.34,-352.07"/>
<polygon fill="#63b8ff" stroke="#63b8ff" points="682.05,-355.5 690.97,-349.78 680.43,-348.69 682.05,-355.5"/>
</g>
<!-- Node21 -->
<g id="node21" class="node">
<title>Node21</title>
<g id="a_node21"><a xlink:href="base64_8h.html" target="_top" xlink:title=" ">
<polygon fill="white" stroke="#666666" points="915.5,-349 800.5,-349 800.5,-330 915.5,-330 915.5,-349"/>
<text text-anchor="middle" x="858" y="-337" font-family="Helvetica,sans-Serif" font-size="10.00">Meta/base64/base64.h</text>
</a>
</g>
</g>
<!-- Node1&#45;&gt;Node21 -->
<g id="edge22" class="edge">
<title>Node1&#45;&gt;Node21</title>
<path fill="none" stroke="#63b8ff" d="M554.79,-387.93C622.15,-377.39 722.85,-361.64 789.46,-351.22"/>
<polygon fill="#63b8ff" stroke="#63b8ff" points="789.83,-354.71 799.17,-349.7 788.75,-347.79 789.83,-354.71"/>
</g>
<!-- Node3 -->
<g id="node3" class="node">
<title>Node3</title>
<g id="a_node3"><a xlink:href="genericlib_8h.html" target="_top" xlink:title=" ">
<polygon fill="white" stroke="#666666" points="102,-294 0,-294 0,-275 102,-275 102,-294"/>
<text text-anchor="middle" x="51" y="-282" font-family="Helvetica,sans-Serif" font-size="10.00">Generic/genericlib.h</text>
</a>
</g>
</g>
<!-- Node2&#45;&gt;Node3 -->
<g id="edge2" class="edge">
<title>Node2&#45;&gt;Node3</title>
<path fill="none" stroke="#63b8ff" d="M138.19,-329.51C121.87,-321.27 97.47,-308.96 78.63,-299.45"/>
<polygon fill="#63b8ff" stroke="#63b8ff" points="80.4,-296.42 69.9,-295.04 77.25,-302.67 80.4,-296.42"/>
</g>
<!-- Node4 -->
<g id="node4" class="node">
<title>Node4</title>
<g id="a_node4"><a xlink:title=" ">
<polygon fill="#e0e0e0" stroke="#999999" points="191.5,-294 120.5,-294 120.5,-275 191.5,-275 191.5,-294"/>
<text text-anchor="middle" x="156" y="-282" font-family="Helvetica,sans-Serif" font-size="10.00">metaconfig.h</text>
</a>
</g>
</g>
<!-- Node2&#45;&gt;Node4 -->
<g id="edge3" class="edge">
<title>Node2&#45;&gt;Node4</title>
<path fill="none" stroke="#63b8ff" d="M156,-329.75C156,-323.27 156,-314.16 156,-305.9"/>
<polygon fill="#63b8ff" stroke="#63b8ff" points="159.5,-305.96 156,-295.96 152.5,-305.96 159.5,-305.96"/>
</g>
<!-- Node6 -->
<g id="node6" class="node">
<title>Node6</title>
<g id="a_node6"><a xlink:href="stream_8h.html" target="_top" xlink:title=" ">
<polygon fill="white" stroke="#666666" points="300.5,-294 209.5,-294 209.5,-275 300.5,-275 300.5,-294"/>
<text text-anchor="middle" x="255" y="-282" font-family="Helvetica,sans-Serif" font-size="10.00">Generic/stream.h</text>
</a>
</g>
</g>
<!-- Node5&#45;&gt;Node6 -->
<g id="edge5" class="edge">
<title>Node5&#45;&gt;Node6</title>
<path fill="none" stroke="#63b8ff" d="M316.45,-329.51C305.54,-321.7 289.5,-310.21 276.54,-300.93"/>
<polygon fill="#63b8ff" stroke="#63b8ff" points="278.77,-298.22 268.6,-295.24 274.69,-303.91 278.77,-298.22"/>
</g>
<!-- Node7 -->
<g id="node7" class="node">
<title>Node7</title>
<g id="a_node7"><a xlink:href="streamresult_8h.html" target="_top" xlink:title=" ">
<polygon fill="white" stroke="#666666" points="282,-239 204,-239 204,-220 282,-220 282,-239"/>
<text text-anchor="middle" x="243" y="-227" font-family="Helvetica,sans-Serif" font-size="10.00">streamresult.h</text>
</a>
</g>
</g>
<!-- Node5&#45;&gt;Node7 -->
<g id="edge6" class="edge">
<title>Node5&#45;&gt;Node7</title>
<path fill="none" stroke="#63b8ff" d="M328.11,-329.88C326.38,-316.84 321.59,-291.86 309,-275 299.61,-262.42 285.55,-252.24 272.82,-244.81"/>
<polygon fill="#63b8ff" stroke="#63b8ff" points="274.79,-241.9 264.34,-240.17 271.43,-248.04 274.79,-241.9"/>
</g>
<!-- Node5&#45;&gt;Node12 -->
<g id="edge11" class="edge">
<title>Node5&#45;&gt;Node12</title>
<path fill="none" stroke="#63b8ff" d="M346.47,-329.51C362.4,-321.31 386.19,-309.07 404.64,-299.58"/>
<polygon fill="#63b8ff" stroke="#63b8ff" points="406.15,-302.74 413.44,-295.05 402.95,-296.51 406.15,-302.74"/>
</g>
<!-- Node8 -->
<g id="node8" class="node">
<title>Node8</title>
<g id="a_node8"><a xlink:href="streamstate_8h.html" target="_top" xlink:title=" ">
<polygon fill="white" stroke="#666666" points="281,-184 205,-184 205,-165 281,-165 281,-184"/>
<text text-anchor="middle" x="243" y="-172" font-family="Helvetica,sans-Serif" font-size="10.00">streamstate.h</text>
</a>
</g>
</g>
<!-- Node7&#45;&gt;Node8 -->
<g id="edge7" class="edge">
<title>Node7&#45;&gt;Node8</title>
<path fill="none" stroke="#63b8ff" d="M243,-219.75C243,-213.27 243,-204.16 243,-195.9"/>
<polygon fill="#63b8ff" stroke="#63b8ff" points="246.5,-195.96 243,-185.96 239.5,-195.96 246.5,-195.96"/>
</g>
<!-- Node9 -->
<g id="node9" class="node">
<title>Node9</title>
<g id="a_node9"><a xlink:href="enum_8h.html" target="_top" xlink:title=" ">
<polygon fill="white" stroke="#666666" points="285.5,-129 200.5,-129 200.5,-110 285.5,-110 285.5,-129"/>
<text text-anchor="middle" x="243" y="-117" font-family="Helvetica,sans-Serif" font-size="10.00">Generic/enum.h</text>
</a>
</g>
</g>
<!-- Node8&#45;&gt;Node9 -->
<g id="edge8" class="edge">
<title>Node8&#45;&gt;Node9</title>
<path fill="none" stroke="#63b8ff" d="M243,-164.75C243,-158.27 243,-149.16 243,-140.9"/>
<polygon fill="#63b8ff" stroke="#63b8ff" points="246.5,-140.96 243,-130.96 239.5,-140.96 246.5,-140.96"/>
</g>
<!-- Node10 -->
<g id="node10" class="node">
<title>Node10</title>
<g id="a_node10"><a xlink:href="array_8h.html" target="_top" xlink:title=" ">
<polygon fill="white" stroke="#666666" points="275,-74 211,-74 211,-55 275,-55 275,-74"/>
<text text-anchor="middle" x="243" y="-62" font-family="Helvetica,sans-Serif" font-size="10.00">bits/array.h</text>
</a>
</g>
</g>
<!-- Node9&#45;&gt;Node10 -->
<g id="edge9" class="edge">
<title>Node9&#45;&gt;Node10</title>
<path fill="none" stroke="#63b8ff" d="M243,-109.75C243,-103.27 243,-94.16 243,-85.9"/>
<polygon fill="#63b8ff" stroke="#63b8ff" points="246.5,-85.96 243,-75.96 239.5,-85.96 246.5,-85.96"/>
</g>
<!-- Node11 -->
<g id="node11" class="node">
<title>Node11</title>
<g id="a_node11"><a xlink:href="types_8h.html" target="_top" xlink:title=" ">
<polygon fill="white" stroke="#666666" points="266.5,-19 219.5,-19 219.5,0 266.5,0 266.5,-19"/>
<text text-anchor="middle" x="243" y="-7" font-family="Helvetica,sans-Serif" font-size="10.00">types.h</text>
</a>
</g>
</g>
<!-- Node10&#45;&gt;Node11 -->
<g id="edge10" class="edge">
<title>Node10&#45;&gt;Node11</title>
<path fill="none" stroke="#63b8ff" d="M243,-54.75C243,-48.27 243,-39.16 243,-30.9"/>
<polygon fill="#63b8ff" stroke="#63b8ff" points="246.5,-30.96 243,-20.96 239.5,-30.96 246.5,-30.96"/>
</g>
<!-- Node12&#45;&gt;Node7 -->
<g id="edge14" class="edge">
<title>Node12&#45;&gt;Node7</title>
<path fill="none" stroke="#63b8ff" d="M399.94,-274.51C368.48,-265.69 320.32,-252.18 285.65,-242.46"/>
<polygon fill="#63b8ff" stroke="#63b8ff" points="286.93,-239.19 276.36,-239.85 285.04,-245.93 286.93,-239.19"/>
</g>
<!-- Node13 -->
<g id="node13" class="node">
<title>Node13</title>
<g id="a_node13"><a xlink:href="callerhierarchy_8h.html" target="_top" xlink:title=" ">
<polygon fill="white" stroke="#666666" points="423.5,-239 300.5,-239 300.5,-220 423.5,-220 423.5,-239"/>
<text text-anchor="middle" x="362" y="-227" font-family="Helvetica,sans-Serif" font-size="10.00">Generic/callerhierarchy.h</text>
</a>
</g>
</g>
<!-- Node12&#45;&gt;Node13 -->
<g id="edge12" class="edge">
<title>Node12&#45;&gt;Node13</title>
<path fill="none" stroke="#63b8ff" d="M420.13,-274.51C409.91,-266.77 394.93,-255.43 382.74,-246.2"/>
<polygon fill="#63b8ff" stroke="#63b8ff" points="384.99,-243.52 374.91,-240.27 380.77,-249.1 384.99,-243.52"/>
</g>
<!-- Node14 -->
<g id="node14" class="node">
<title>Node14</title>
<g id="a_node14"><a xlink:href="serializetable__forward_8h.html" target="_top" xlink:title=" ">
<polygon fill="white" stroke="#666666" points="560,-239 442,-239 442,-220 560,-220 560,-239"/>
<text text-anchor="middle" x="501" y="-227" font-family="Helvetica,sans-Serif" font-size="10.00">serializetable_forward.h</text>
</a>
</g>
</g>
<!-- Node12&#45;&gt;Node14 -->
<g id="edge13" class="edge">
<title>Node12&#45;&gt;Node14</title>
<path fill="none" stroke="#63b8ff" d="M443.7,-274.51C453.78,-266.77 468.54,-255.43 480.56,-246.2"/>
<polygon fill="#63b8ff" stroke="#63b8ff" points="482.47,-249.15 488.27,-240.28 478.21,-243.6 482.47,-249.15"/>
</g>
<!-- Node15 -->
<g id="node15" class="node">
<title>Node15</title>
<g id="a_node15"><a xlink:href="primitivetypes_8h.html" target="_top" xlink:title=" ">
<polygon fill="white" stroke="#666666" points="670,-239 578,-239 578,-220 670,-220 670,-239"/>
<text text-anchor="middle" x="624" y="-227" font-family="Helvetica,sans-Serif" font-size="10.00">../primitivetypes.h</text>
</a>
</g>
</g>
<!-- Node12&#45;&gt;Node15 -->
<g id="edge15" class="edge">
<title>Node12&#45;&gt;Node15</title>
<path fill="none" stroke="#63b8ff" d="M464.57,-274.51C496.53,-265.69 545.45,-252.18 580.68,-242.46"/>
<polygon fill="#63b8ff" stroke="#63b8ff" points="581.42,-245.88 590.13,-239.85 579.56,-239.14 581.42,-245.88"/>
</g>
<!-- Node16&#45;&gt;Node12 -->
<g id="edge17" class="edge">
<title>Node16&#45;&gt;Node12</title>
<path fill="none" stroke="#63b8ff" d="M475.41,-329.75C468.16,-322.35 457.55,-311.54 448.63,-302.45"/>
<polygon fill="#63b8ff" stroke="#63b8ff" points="451.34,-300.21 441.83,-295.52 446.34,-305.11 451.34,-300.21"/>
</g>
<!-- Node18 -->
<g id="node18" class="node">
<title>Node18</title>
<g id="a_node18"><a xlink:href="any_8h.html" target="_top" xlink:title=" ">
<polygon fill="white" stroke="#666666" points="649.5,-294 610.5,-294 610.5,-275 649.5,-275 649.5,-294"/>
<text text-anchor="middle" x="630" y="-282" font-family="Helvetica,sans-Serif" font-size="10.00">any.h</text>
</a>
</g>
</g>
<!-- Node17&#45;&gt;Node18 -->
<g id="edge19" class="edge">
<title>Node17&#45;&gt;Node18</title>
<path fill="none" stroke="#63b8ff" d="M611.63,-329.75C614.42,-323.04 618.37,-313.52 621.9,-305.02"/>
<polygon fill="#63b8ff" stroke="#63b8ff" points="625.11,-306.42 625.71,-295.84 618.64,-303.73 625.11,-306.42"/>
</g>
<!-- Node19 -->
<g id="node19" class="node">
<title>Node19</title>
<g id="a_node19"><a xlink:href="inheritable_8h.html" target="_top" xlink:title=" ">
<polygon fill="white" stroke="#666666" points="756,-239 688,-239 688,-220 756,-220 756,-239"/>
<text text-anchor="middle" x="722" y="-227" font-family="Helvetica,sans-Serif" font-size="10.00">inheritable.h</text>
</a>
</g>
</g>
<!-- Node18&#45;&gt;Node19 -->
<g id="edge20" class="edge">
<title>Node18&#45;&gt;Node19</title>
<path fill="none" stroke="#63b8ff" d="M645.61,-274.51C659.7,-266.39 680.69,-254.3 697.1,-244.85"/>
<polygon fill="#63b8ff" stroke="#63b8ff" points="698.39,-248.14 705.31,-240.11 694.9,-242.07 698.39,-248.14"/>
</g>
</g>
</svg>
