<?xml version="1.0" encoding="UTF-8" standalone="no"?>
<!DOCTYPE svg PUBLIC "-//W3C//DTD SVG 1.1//EN"
 "http://www.w3.org/Graphics/SVG/1.1/DTD/svg11.dtd">
<!-- Generated by graphviz version 7.0.5 (20221223.1930)
 -->
<!-- Title: src/Meta/serialize/streams/serializablemapholder.cpp Pages: 1 -->
<!--zoomable 533 -->
<svg id="main" version="1.1" xmlns="http://www.w3.org/2000/svg" xmlns:xlink="http://www.w3.org/1999/xlink" xml:space="preserve" onload="init(evt)">
<style type="text/css"><![CDATA[
.edge:hover path { stroke: red; }
.edge:hover polygon { stroke: red; fill: red; }
]]></style>
<script type="text/javascript"><![CDATA[
var edges = document.getElementsByTagName('g');
if (edges && edges.length) {
  for (var i=0;i<edges.length;i++) {
    if (edges[i].id.substr(0,4)=='edge') {
      edges[i].setAttribute('class','edge');
    }
  }
}
]]></script>
        <defs>
                <circle id="rim" cx="0" cy="0" r="7"/>
                <circle id="rim2" cx="0" cy="0" r="3.5"/>
                <g id="zoomPlus">
                        <use xlink:href="#rim" fill="#404040">
                                <set attributeName="fill" to="#808080" begin="zoomplus.mouseover" end="zoomplus.mouseout"/>
                        </use>
                        <path d="M-4,0h8M0,-4v8" fill="none" stroke="white" stroke-width="1.5" pointer-events="none"/>
                </g>
                <g id="zoomMin">
                        <use xlink:href="#rim" fill="#404040">
                                <set attributeName="fill" to="#808080" begin="zoomminus.mouseover" end="zoomminus.mouseout"/>
                        </use>
                        <path d="M-4,0h8" fill="none" stroke="white" stroke-width="1.5" pointer-events="none"/>
                </g>
                <g id="dirArrow">
                        <path fill="none" stroke="white" stroke-width="1.5" d="M0,-3.0v7 M-2.5,-0.5L0,-3.0L2.5,-0.5"/>
                </g>
               <g id="resetDef">
                       <use xlink:href="#rim2" fill="#404040">
                               <set attributeName="fill" to="#808080" begin="reset.mouseover" end="reset.mouseout"/>
                       </use>
               </g>
        </defs>

<script type="text/javascript">
var viewWidth = 680;
var viewHeight = 533;
var sectionId = 'dynsection-0';
</script>
<script xlink:href="svgpan.js"/>
<svg id="graph" class="graph">
<g id="viewport">
<title>src/Meta/serialize/streams/serializablemapholder.cpp</title>
<!-- Node1 -->
<g id="node1" class="node">
<title>Node1</title>
<g id="a_node1"><a xlink:title=" ">
<polygon fill="#999999" stroke="#666666" points="393.5,-525 224.5,-525 224.5,-495 393.5,-495 393.5,-525"/>
<text text-anchor="start" x="232.5" y="-513" font-family="Helvetica,sans-Serif" font-size="10.00">src/Meta/serialize</text>
<text text-anchor="middle" x="309" y="-502" font-family="Helvetica,sans-Serif" font-size="10.00">/streams/serializablemapholder.cpp</text>
</a>
</g>
</g>
<!-- Node2 -->
<g id="node2" class="node">
<title>Node2</title>
<g id="a_node2"><a xlink:href="metalib_8h.html" target="_top" xlink:title=" ">
<polygon fill="white" stroke="#666666" points="90.5,-459 19.5,-459 19.5,-440 90.5,-440 90.5,-459"/>
<text text-anchor="middle" x="55" y="-447" font-family="Helvetica,sans-Serif" font-size="10.00">../../metalib.h</text>
</a>
</g>
</g>
<!-- Node1&#45;&gt;Node2 -->
<g id="edge1" class="edge">
<title>Node1&#45;&gt;Node2</title>
<path fill="none" stroke="#63b8ff" d="M246.21,-494.54C201.59,-484.26 142.62,-470.68 102.03,-461.33"/>
<polygon fill="#63b8ff" stroke="#63b8ff" points="102.84,-457.93 92.31,-459.09 101.27,-464.75 102.84,-457.93"/>
</g>
<!-- Node5 -->
<g id="node5" class="node">
<title>Node5</title>
<g id="a_node5"><a xlink:href="serializablemapholder_8h.html" target="_top" xlink:title=" ">
<polygon fill="white" stroke="#666666" points="225.5,-459 108.5,-459 108.5,-440 225.5,-440 225.5,-459"/>
<text text-anchor="middle" x="167" y="-447" font-family="Helvetica,sans-Serif" font-size="10.00">serializablemapholder.h</text>
</a>
</g>
</g>
<!-- Node1&#45;&gt;Node5 -->
<g id="edge4" class="edge">
<title>Node1&#45;&gt;Node5</title>
<path fill="none" stroke="#63b8ff" d="M273.9,-494.54C250.99,-485.1 221.33,-472.88 199.06,-463.71"/>
<polygon fill="#63b8ff" stroke="#63b8ff" points="200.45,-460.5 189.87,-459.92 197.79,-466.97 200.45,-460.5"/>
</g>
<!-- Node6 -->
<g id="node6" class="node">
<title>Node6</title>
<g id="a_node6"><a xlink:href="formattedserializestream_8h.html" target="_top" xlink:title=" ">
<polygon fill="white" stroke="#666666" points="374.5,-459 243.5,-459 243.5,-440 374.5,-440 374.5,-459"/>
<text text-anchor="middle" x="309" y="-447" font-family="Helvetica,sans-Serif" font-size="10.00">formattedserializestream.h</text>
</a>
</g>
</g>
<!-- Node1&#45;&gt;Node6 -->
<g id="edge5" class="edge">
<title>Node1&#45;&gt;Node6</title>
<path fill="none" stroke="#63b8ff" d="M309,-494.54C309,-487.34 309,-478.53 309,-470.68"/>
<polygon fill="#63b8ff" stroke="#63b8ff" points="312.5,-470.69 309,-460.69 305.5,-470.69 312.5,-470.69"/>
</g>
<!-- Node15 -->
<g id="node15" class="node">
<title>Node15</title>
<g id="a_node15"><a xlink:href="serializableunitptr_8h.html" target="_top" xlink:title=" ">
<polygon fill="white" stroke="#666666" points="510.5,-294 361.5,-294 361.5,-275 510.5,-275 510.5,-294"/>
<text text-anchor="middle" x="436" y="-282" font-family="Helvetica,sans-Serif" font-size="10.00">../hierarchy/serializableunitptr.h</text>
</a>
</g>
</g>
<!-- Node1&#45;&gt;Node15 -->
<g id="edge22" class="edge">
<title>Node1&#45;&gt;Node15</title>
<path fill="none" stroke="#63b8ff" d="M339.75,-494.55C354.73,-486.1 371.87,-474.1 383,-459 418.53,-410.78 404.35,-387.24 422,-330 424.51,-321.87 427.31,-312.93 429.75,-305.2"/>
<polygon fill="#63b8ff" stroke="#63b8ff" points="433.04,-306.39 432.73,-295.8 426.37,-304.28 433.04,-306.39"/>
</g>
<!-- Node19 -->
<g id="node19" class="node">
<title>Node19</title>
<g id="a_node19"><a xlink:href="serializestreamdata_8h.html" target="_top" xlink:title=" ">
<polygon fill="white" stroke="#666666" points="539,-349 431,-349 431,-330 539,-330 539,-349"/>
<text text-anchor="middle" x="485" y="-337" font-family="Helvetica,sans-Serif" font-size="10.00">serializestreamdata.h</text>
</a>
</g>
</g>
<!-- Node1&#45;&gt;Node19 -->
<g id="edge20" class="edge">
<title>Node1&#45;&gt;Node19</title>
<path fill="none" stroke="#63b8ff" d="M355.79,-494.6C376.32,-486.57 399.63,-474.91 417,-459 447.65,-430.92 468.2,-385.75 478.12,-360.05"/>
<polygon fill="#63b8ff" stroke="#63b8ff" points="481.33,-361.47 481.5,-350.87 474.76,-359.04 481.33,-361.47"/>
</g>
<!-- Node3 -->
<g id="node3" class="node">
<title>Node3</title>
<g id="a_node3"><a xlink:href="genericlib_8h.html" target="_top" xlink:title=" ">
<polygon fill="white" stroke="#666666" points="102,-404 0,-404 0,-385 102,-385 102,-404"/>
<text text-anchor="middle" x="51" y="-392" font-family="Helvetica,sans-Serif" font-size="10.00">Generic/genericlib.h</text>
</a>
</g>
</g>
<!-- Node2&#45;&gt;Node3 -->
<g id="edge2" class="edge">
<title>Node2&#45;&gt;Node3</title>
<path fill="none" stroke="#63b8ff" d="M54.34,-439.75C53.85,-433.27 53.16,-424.16 52.54,-415.9"/>
<polygon fill="#63b8ff" stroke="#63b8ff" points="56.03,-415.66 51.79,-405.95 49.05,-416.19 56.03,-415.66"/>
</g>
<!-- Node4 -->
<g id="node4" class="node">
<title>Node4</title>
<g id="a_node4"><a xlink:title=" ">
<polygon fill="#e0e0e0" stroke="#999999" points="191.5,-404 120.5,-404 120.5,-385 191.5,-385 191.5,-404"/>
<text text-anchor="middle" x="156" y="-392" font-family="Helvetica,sans-Serif" font-size="10.00">metaconfig.h</text>
</a>
</g>
</g>
<!-- Node2&#45;&gt;Node4 -->
<g id="edge3" class="edge">
<title>Node2&#45;&gt;Node4</title>
<path fill="none" stroke="#63b8ff" d="M72.13,-439.51C87.75,-431.31 111.08,-419.07 129.17,-409.58"/>
<polygon fill="#63b8ff" stroke="#63b8ff" points="130.55,-412.81 137.78,-405.06 127.3,-406.61 130.55,-412.81"/>
</g>
<!-- Node7 -->
<g id="node7" class="node">
<title>Node7</title>
<g id="a_node7"><a xlink:href="formatter_8h.html" target="_top" xlink:title=" ">
<polygon fill="white" stroke="#666666" points="297.5,-404 234.5,-404 234.5,-385 297.5,-385 297.5,-404"/>
<text text-anchor="middle" x="266" y="-392" font-family="Helvetica,sans-Serif" font-size="10.00">formatter.h</text>
</a>
</g>
</g>
<!-- Node6&#45;&gt;Node7 -->
<g id="edge6" class="edge">
<title>Node6&#45;&gt;Node7</title>
<path fill="none" stroke="#63b8ff" d="M301.9,-439.75C296.08,-432.58 287.67,-422.2 280.44,-413.3"/>
<polygon fill="#63b8ff" stroke="#63b8ff" points="283.23,-411.18 274.21,-405.62 277.79,-415.59 283.23,-411.18"/>
</g>
<!-- Node18 -->
<g id="node18" class="node">
<title>Node18</title>
<g id="a_node18"><a xlink:href="primitivetypes_8h.html" target="_top" xlink:title=" ">
<polygon fill="white" stroke="#666666" points="394,-239 302,-239 302,-220 394,-220 394,-239"/>
<text text-anchor="middle" x="348" y="-227" font-family="Helvetica,sans-Serif" font-size="10.00">../primitivetypes.h</text>
</a>
</g>
</g>
<!-- Node6&#45;&gt;Node18 -->
<g id="edge19" class="edge">
<title>Node6&#45;&gt;Node18</title>
<path fill="none" stroke="#63b8ff" d="M310.58,-439.68C316.32,-407.57 336.22,-296.33 344.42,-250.49"/>
<polygon fill="#63b8ff" stroke="#63b8ff" points="347.86,-251.14 346.18,-240.68 340.97,-249.9 347.86,-251.14"/>
</g>
<!-- Node8 -->
<g id="node8" class="node">
<title>Node8</title>
<g id="a_node8"><a xlink:href="serializestream_8h.html" target="_top" xlink:title=" ">
<polygon fill="white" stroke="#666666" points="304.5,-349 215.5,-349 215.5,-330 304.5,-330 304.5,-349"/>
<text text-anchor="middle" x="260" y="-337" font-family="Helvetica,sans-Serif" font-size="10.00">serializestream.h</text>
</a>
</g>
</g>
<!-- Node7&#45;&gt;Node8 -->
<g id="edge7" class="edge">
<title>Node7&#45;&gt;Node8</title>
<path fill="none" stroke="#63b8ff" d="M265.01,-384.75C264.27,-378.19 263.22,-368.95 262.28,-360.6"/>
<polygon fill="#63b8ff" stroke="#63b8ff" points="265.79,-360.49 261.18,-350.95 258.83,-361.28 265.79,-360.49"/>
</g>
<!-- Node9 -->
<g id="node9" class="node">
<title>Node9</title>
<g id="a_node9"><a xlink:href="stream_8h.html" target="_top" xlink:title=" ">
<polygon fill="white" stroke="#666666" points="231.5,-294 140.5,-294 140.5,-275 231.5,-275 231.5,-294"/>
<text text-anchor="middle" x="186" y="-282" font-family="Helvetica,sans-Serif" font-size="10.00">Generic/stream.h</text>
</a>
</g>
</g>
<!-- Node8&#45;&gt;Node9 -->
<g id="edge8" class="edge">
<title>Node8&#45;&gt;Node9</title>
<path fill="none" stroke="#63b8ff" d="M247.45,-329.51C236.54,-321.7 220.5,-310.21 207.54,-300.93"/>
<polygon fill="#63b8ff" stroke="#63b8ff" points="209.77,-298.22 199.6,-295.24 205.69,-303.91 209.77,-298.22"/>
</g>
<!-- Node10 -->
<g id="node10" class="node">
<title>Node10</title>
<g id="a_node10"><a xlink:href="streamresult_8h.html" target="_top" xlink:title=" ">
<polygon fill="white" stroke="#666666" points="284,-239 206,-239 206,-220 284,-220 284,-239"/>
<text text-anchor="middle" x="245" y="-227" font-family="Helvetica,sans-Serif" font-size="10.00">streamresult.h</text>
</a>
</g>
</g>
<!-- Node8&#45;&gt;Node10 -->
<g id="edge9" class="edge">
<title>Node8&#45;&gt;Node10</title>
<path fill="none" stroke="#63b8ff" d="M258.77,-329.66C256.39,-312.5 251.08,-274.26 247.79,-250.6"/>
<polygon fill="#63b8ff" stroke="#63b8ff" points="251.3,-250.38 246.45,-240.96 244.36,-251.35 251.3,-250.38"/>
</g>
<!-- Node8&#45;&gt;Node15 -->
<g id="edge14" class="edge">
<title>Node8&#45;&gt;Node15</title>
<path fill="none" stroke="#63b8ff" d="M289.86,-329.51C318.89,-320.76 363.22,-307.42 395.44,-297.71"/>
<polygon fill="#63b8ff" stroke="#63b8ff" points="396.28,-301.12 404.84,-294.88 394.26,-294.41 396.28,-301.12"/>
</g>
<!-- Node11 -->
<g id="node11" class="node">
<title>Node11</title>
<g id="a_node11"><a xlink:href="streamstate_8h.html" target="_top" xlink:title=" ">
<polygon fill="white" stroke="#666666" points="283,-184 207,-184 207,-165 283,-165 283,-184"/>
<text text-anchor="middle" x="245" y="-172" font-family="Helvetica,sans-Serif" font-size="10.00">streamstate.h</text>
</a>
</g>
</g>
<!-- Node10&#45;&gt;Node11 -->
<g id="edge10" class="edge">
<title>Node10&#45;&gt;Node11</title>
<path fill="none" stroke="#63b8ff" d="M245,-219.75C245,-213.27 245,-204.16 245,-195.9"/>
<polygon fill="#63b8ff" stroke="#63b8ff" points="248.5,-195.96 245,-185.96 241.5,-195.96 248.5,-195.96"/>
</g>
<!-- Node12 -->
<g id="node12" class="node">
<title>Node12</title>
<g id="a_node12"><a xlink:href="enum_8h.html" target="_top" xlink:title=" ">
<polygon fill="white" stroke="#666666" points="287.5,-129 202.5,-129 202.5,-110 287.5,-110 287.5,-129"/>
<text text-anchor="middle" x="245" y="-117" font-family="Helvetica,sans-Serif" font-size="10.00">Generic/enum.h</text>
</a>
</g>
</g>
<!-- Node11&#45;&gt;Node12 -->
<g id="edge11" class="edge">
<title>Node11&#45;&gt;Node12</title>
<path fill="none" stroke="#63b8ff" d="M245,-164.75C245,-158.27 245,-149.16 245,-140.9"/>
<polygon fill="#63b8ff" stroke="#63b8ff" points="248.5,-140.96 245,-130.96 241.5,-140.96 248.5,-140.96"/>
</g>
<!-- Node13 -->
<g id="node13" class="node">
<title>Node13</title>
<g id="a_node13"><a xlink:href="array_8h.html" target="_top" xlink:title=" ">
<polygon fill="white" stroke="#666666" points="277,-74 213,-74 213,-55 277,-55 277,-74"/>
<text text-anchor="middle" x="245" y="-62" font-family="Helvetica,sans-Serif" font-size="10.00">bits/array.h</text>
</a>
</g>
</g>
<!-- Node12&#45;&gt;Node13 -->
<g id="edge12" class="edge">
<title>Node12&#45;&gt;Node13</title>
<path fill="none" stroke="#63b8ff" d="M245,-109.75C245,-103.27 245,-94.16 245,-85.9"/>
<polygon fill="#63b8ff" stroke="#63b8ff" points="248.5,-85.96 245,-75.96 241.5,-85.96 248.5,-85.96"/>
</g>
<!-- Node14 -->
<g id="node14" class="node">
<title>Node14</title>
<g id="a_node14"><a xlink:href="types_8h.html" target="_top" xlink:title=" ">
<polygon fill="white" stroke="#666666" points="268.5,-19 221.5,-19 221.5,0 268.5,0 268.5,-19"/>
<text text-anchor="middle" x="245" y="-7" font-family="Helvetica,sans-Serif" font-size="10.00">types.h</text>
</a>
</g>
</g>
<!-- Node13&#45;&gt;Node14 -->
<g id="edge13" class="edge">
<title>Node13&#45;&gt;Node14</title>
<path fill="none" stroke="#63b8ff" d="M245,-54.75C245,-48.27 245,-39.16 245,-30.9"/>
<polygon fill="#63b8ff" stroke="#63b8ff" points="248.5,-30.96 245,-20.96 241.5,-30.96 248.5,-30.96"/>
</g>
<!-- Node15&#45;&gt;Node10 -->
<g id="edge17" class="edge">
<title>Node15&#45;&gt;Node10</title>
<path fill="none" stroke="#63b8ff" d="M403.6,-274.51C371.81,-265.69 323.14,-252.18 288.1,-242.46"/>
<polygon fill="#63b8ff" stroke="#63b8ff" points="289.27,-239.15 278.7,-239.85 287.4,-245.9 289.27,-239.15"/>
</g>
<!-- Node16 -->
<g id="node16" class="node">
<title>Node16</title>
<g id="a_node16"><a xlink:href="callerhierarchy_8h.html" target="_top" xlink:title=" ">
<polygon fill="white" stroke="#666666" points="535.5,-239 412.5,-239 412.5,-220 535.5,-220 535.5,-239"/>
<text text-anchor="middle" x="474" y="-227" font-family="Helvetica,sans-Serif" font-size="10.00">Generic/callerhierarchy.h</text>
</a>
</g>
</g>
<!-- Node15&#45;&gt;Node16 -->
<g id="edge15" class="edge">
<title>Node15&#45;&gt;Node16</title>
<path fill="none" stroke="#63b8ff" d="M442.27,-274.75C447.36,-267.66 454.7,-257.42 461.03,-248.59"/>
<polygon fill="#63b8ff" stroke="#63b8ff" points="463.72,-250.84 466.71,-240.67 458.04,-246.76 463.72,-250.84"/>
</g>
<!-- Node17 -->
<g id="node17" class="node">
<title>Node17</title>
<g id="a_node17"><a xlink:href="serializetable__forward_8h.html" target="_top" xlink:title=" ">
<polygon fill="white" stroke="#666666" points="672,-239 554,-239 554,-220 672,-220 672,-239"/>
<text text-anchor="middle" x="613" y="-227" font-family="Helvetica,sans-Serif" font-size="10.00">serializetable_forward.h</text>
</a>
</g>
</g>
<!-- Node15&#45;&gt;Node17 -->
<g id="edge16" class="edge">
<title>Node15&#45;&gt;Node17</title>
<path fill="none" stroke="#63b8ff" d="M466.03,-274.51C495.23,-265.76 539.81,-252.42 572.21,-242.71"/>
<polygon fill="#63b8ff" stroke="#63b8ff" points="573.1,-246.1 581.67,-239.88 571.09,-239.4 573.1,-246.1"/>
</g>
<!-- Node15&#45;&gt;Node18 -->
<g id="edge18" class="edge">
<title>Node15&#45;&gt;Node18</title>
<path fill="none" stroke="#63b8ff" d="M421.07,-274.51C407.72,-266.47 387.89,-254.53 372.26,-245.11"/>
<polygon fill="#63b8ff" stroke="#63b8ff" points="374.38,-242.3 364,-240.14 370.76,-248.3 374.38,-242.3"/>
</g>
<!-- Node19&#45;&gt;Node15 -->
<g id="edge21" class="edge">
<title>Node19&#45;&gt;Node15</title>
<path fill="none" stroke="#63b8ff" d="M476.91,-329.75C470.14,-322.43 460.28,-311.76 451.94,-302.74"/>
<polygon fill="#63b8ff" stroke="#63b8ff" points="454.65,-300.52 445.29,-295.55 449.51,-305.27 454.65,-300.52"/>
</g>
</g>
</svg>
        <g id="navigator" transform="translate(0 0)" fill="#404254">
                <rect fill="#f2f5e9" fill-opacity="0.5" stroke="#606060" stroke-width=".5" x="0" y="0" width="60" height="60"/>
                <use id="zoomplus" xlink:href="#zoomPlus" x="17" y="9" onmousedown="handleZoom(evt,'in')"/>
                <use id="zoomminus" xlink:href="#zoomMin" x="42" y="9" onmousedown="handleZoom(evt,'out')"/>
                <use id="reset" xlink:href="#resetDef" x="30" y="36" onmousedown="handleReset()"/>
                <g id="arrowUp" xlink:href="#dirArrow" transform="translate(30 24)" onmousedown="handlePan(0,-1)">
                  <use xlink:href="#rim" fill="#404040">
                        <set attributeName="fill" to="#808080" begin="arrowUp.mouseover" end="arrowUp.mouseout"/>
                  </use>
                  <path fill="none" stroke="white" stroke-width="1.5" d="M0,-3.0v7 M-2.5,-0.5L0,-3.0L2.5,-0.5"/>
                </g>
                <g id="arrowRight" xlink:href="#dirArrow" transform="rotate(90) translate(36 -43)" onmousedown="handlePan(1,0)">
                  <use xlink:href="#rim" fill="#404040">
                        <set attributeName="fill" to="#808080" begin="arrowRight.mouseover" end="arrowRight.mouseout"/>
                  </use>
                  <path fill="none" stroke="white" stroke-width="1.5" d="M0,-3.0v7 M-2.5,-0.5L0,-3.0L2.5,-0.5"/>
                </g>
                <g id="arrowDown" xlink:href="#dirArrow" transform="rotate(180) translate(-30 -48)" onmousedown="handlePan(0,1)">
                  <use xlink:href="#rim" fill="#404040">
                        <set attributeName="fill" to="#808080" begin="arrowDown.mouseover" end="arrowDown.mouseout"/>
                  </use>
                  <path fill="none" stroke="white" stroke-width="1.5" d="M0,-3.0v7 M-2.5,-0.5L0,-3.0L2.5,-0.5"/>
                </g>
                <g id="arrowLeft" xlink:href="#dirArrow" transform="rotate(270) translate(-36 17)" onmousedown="handlePan(-1,0)">
                  <use xlink:href="#rim" fill="#404040">
                        <set attributeName="fill" to="#808080" begin="arrowLeft.mouseover" end="arrowLeft.mouseout"/>
                  </use>
                  <path fill="none" stroke="white" stroke-width="1.5" d="M0,-3.0v7 M-2.5,-0.5L0,-3.0L2.5,-0.5"/>
                </g>
        </g>
        <svg viewBox="0 0 15 15" width="100%" height="30px" preserveAspectRatio="xMaxYMin meet">
         <g id="arrow_out" transform="scale(0.3 0.3)">
          <a xlink:href="serializablemapholder_8cpp__incl_org.svg" target="_base">
           <rect id="button" ry="5" rx="5" y="6" x="6" height="38" width="38"
                fill="#f2f5e9" fill-opacity="0.5" stroke="#606060" stroke-width="1.0"/>
           <path id="arrow"
             d="M 11.500037,31.436501 C 11.940474,20.09759 22.043105,11.32322 32.158766,21.979434 L 37.068811,17.246167 C 37.068811,17.246167 37.088388,32 37.088388,32 L 22.160133,31.978069 C 22.160133,31.978069 26.997745,27.140456 26.997745,27.140456 C 18.528582,18.264221 13.291696,25.230495 11.500037,31.436501 z"
             style="fill:#404040;"/>
          </a>
         </g>
        </svg>
</svg>
