<?xml version="1.0" encoding="UTF-8" standalone="no"?>
<!DOCTYPE svg PUBLIC "-//W3C//DTD SVG 1.1//EN"
 "http://www.w3.org/Graphics/SVG/1.1/DTD/svg11.dtd">
<!-- Generated by graphviz version 7.0.5 (20221223.1930)
 -->
<!-- Title: plugins/server/api/src/Madgine/server/serverlog.cpp Pages: 1 -->
<svg width="230pt" height="214pt"
 viewBox="0.00 0.00 230.00 214.00" xmlns="http://www.w3.org/2000/svg" xmlns:xlink="http://www.w3.org/1999/xlink">
<g id="graph0" class="graph" transform="scale(1 1) rotate(0) translate(4 210)">
<title>plugins/server/api/src/Madgine/server/serverlog.cpp</title>
<!-- Node1 -->
<g id="node1" class="node">
<title>Node1</title>
<g id="a_node1"><a xlink:title=" ">
<polygon fill="#999999" stroke="#666666" points="169.5,-206 66.5,-206 66.5,-165 169.5,-165 169.5,-206"/>
<text text-anchor="start" x="74.5" y="-194" font-family="Helvetica,sans-Serif" font-size="10.00">plugins/server/api</text>
<text text-anchor="start" x="74.5" y="-183" font-family="Helvetica,sans-Serif" font-size="10.00">/src/Madgine/server</text>
<text text-anchor="middle" x="118" y="-172" font-family="Helvetica,sans-Serif" font-size="10.00">/serverlog.cpp</text>
</a>
</g>
</g>
<!-- Node2 -->
<g id="node2" class="node">
<title>Node2</title>
<g id="a_node2"><a xlink:href="serverlib_8h.html" target="_top" xlink:title=" ">
<polygon fill="white" stroke="#666666" points="68,-129 0,-129 0,-110 68,-110 68,-129"/>
<text text-anchor="middle" x="34" y="-117" font-family="Helvetica,sans-Serif" font-size="10.00">../serverlib.h</text>
</a>
</g>
</g>
<!-- Node1&#45;&gt;Node2 -->
<g id="edge1" class="edge">
<title>Node1&#45;&gt;Node2</title>
<path fill="none" stroke="#63b8ff" d="M91.88,-164.6C79.81,-155.41 65.69,-144.65 54.42,-136.06"/>
<polygon fill="#63b8ff" stroke="#63b8ff" points="56.65,-133.36 46.57,-130.08 52.41,-138.92 56.65,-133.36"/>
</g>
<!-- Node3 -->
<g id="node3" class="node">
<title>Node3</title>
<g id="a_node3"><a xlink:href="serverlog_8h.html" target="_top" xlink:title=" ">
<polygon fill="white" stroke="#666666" points="150,-129 86,-129 86,-110 150,-110 150,-129"/>
<text text-anchor="middle" x="118" y="-117" font-family="Helvetica,sans-Serif" font-size="10.00">serverlog.h</text>
</a>
</g>
</g>
<!-- Node1&#45;&gt;Node3 -->
<g id="edge2" class="edge">
<title>Node1&#45;&gt;Node3</title>
<path fill="none" stroke="#63b8ff" d="M118,-164.6C118,-156.98 118,-148.3 118,-140.66"/>
<polygon fill="#63b8ff" stroke="#63b8ff" points="121.5,-140.68 118,-130.68 114.5,-140.68 121.5,-140.68"/>
</g>
<!-- Node6 -->
<g id="node6" class="node">
<title>Node6</title>
<g id="a_node6"><a xlink:title=" ">
<polygon fill="#e0e0e0" stroke="#999999" points="222,-129 168,-129 168,-110 222,-110 222,-129"/>
<text text-anchor="middle" x="195" y="-117" font-family="Helvetica,sans-Serif" font-size="10.00">iostream</text>
</a>
</g>
</g>
<!-- Node1&#45;&gt;Node6 -->
<g id="edge5" class="edge">
<title>Node1&#45;&gt;Node6</title>
<path fill="none" stroke="#63b8ff" d="M141.94,-164.6C152.89,-155.5 165.69,-144.86 175.97,-136.32"/>
<polygon fill="#63b8ff" stroke="#63b8ff" points="177.96,-139.21 183.41,-130.13 173.49,-133.83 177.96,-139.21"/>
</g>
<!-- Node4 -->
<g id="node4" class="node">
<title>Node4</title>
<g id="a_node4"><a xlink:href="standardlog_8h.html" target="_top" xlink:title=" ">
<polygon fill="white" stroke="#666666" points="186.5,-74 49.5,-74 49.5,-55 186.5,-55 186.5,-74"/>
<text text-anchor="middle" x="118" y="-62" font-family="Helvetica,sans-Serif" font-size="10.00">Interfaces/log/standardlog.h</text>
</a>
</g>
</g>
<!-- Node3&#45;&gt;Node4 -->
<g id="edge3" class="edge">
<title>Node3&#45;&gt;Node4</title>
<path fill="none" stroke="#63b8ff" d="M118,-109.75C118,-103.27 118,-94.16 118,-85.9"/>
<polygon fill="#63b8ff" stroke="#63b8ff" points="121.5,-85.96 118,-75.96 114.5,-85.96 121.5,-85.96"/>
</g>
<!-- Node5 -->
<g id="node5" class="node">
<title>Node5</title>
<g id="a_node5"><a xlink:href="log_8h.html" target="_top" xlink:title=" ">
<polygon fill="white" stroke="#666666" points="136.5,-19 99.5,-19 99.5,0 136.5,0 136.5,-19"/>
<text text-anchor="middle" x="118" y="-7" font-family="Helvetica,sans-Serif" font-size="10.00">log.h</text>
</a>
</g>
</g>
<!-- Node4&#45;&gt;Node5 -->
<g id="edge4" class="edge">
<title>Node4&#45;&gt;Node5</title>
<path fill="none" stroke="#63b8ff" d="M118,-54.75C118,-48.27 118,-39.16 118,-30.9"/>
<polygon fill="#63b8ff" stroke="#63b8ff" points="121.5,-30.96 118,-20.96 114.5,-30.96 121.5,-30.96"/>
</g>
</g>
</svg>
