<?xml version="1.0" encoding="UTF-8" standalone="no"?>
<!DOCTYPE svg PUBLIC "-//W3C//DTD SVG 1.1//EN"
 "http://www.w3.org/Graphics/SVG/1.1/DTD/svg11.dtd">
<!-- Generated by graphviz version 7.0.5 (20221223.1930)
 -->
<!-- Title: plugins/misc/widgets/src/Madgine/widgets/util/layouts/sizeconstraints.h Pages: 1 -->
<!--zoomable 357 -->
<svg id="main" version="1.1" xmlns="http://www.w3.org/2000/svg" xmlns:xlink="http://www.w3.org/1999/xlink" xml:space="preserve" onload="init(evt)">
<style type="text/css"><![CDATA[
.edge:hover path { stroke: red; }
.edge:hover polygon { stroke: red; fill: red; }
]]></style>
<script type="text/javascript"><![CDATA[
var edges = document.getElementsByTagName('g');
if (edges && edges.length) {
  for (var i=0;i<edges.length;i++) {
    if (edges[i].id.substr(0,4)=='edge') {
      edges[i].setAttribute('class','edge');
    }
  }
}
]]></script>
        <defs>
                <circle id="rim" cx="0" cy="0" r="7"/>
                <circle id="rim2" cx="0" cy="0" r="3.5"/>
                <g id="zoomPlus">
                        <use xlink:href="#rim" fill="#404040">
                                <set attributeName="fill" to="#808080" begin="zoomplus.mouseover" end="zoomplus.mouseout"/>
                        </use>
                        <path d="M-4,0h8M0,-4v8" fill="none" stroke="white" stroke-width="1.5" pointer-events="none"/>
                </g>
                <g id="zoomMin">
                        <use xlink:href="#rim" fill="#404040">
                                <set attributeName="fill" to="#808080" begin="zoomminus.mouseover" end="zoomminus.mouseout"/>
                        </use>
                        <path d="M-4,0h8" fill="none" stroke="white" stroke-width="1.5" pointer-events="none"/>
                </g>
                <g id="dirArrow">
                        <path fill="none" stroke="white" stroke-width="1.5" d="M0,-3.0v7 M-2.5,-0.5L0,-3.0L2.5,-0.5"/>
                </g>
               <g id="resetDef">
                       <use xlink:href="#rim2" fill="#404040">
                               <set attributeName="fill" to="#808080" begin="reset.mouseover" end="reset.mouseout"/>
                       </use>
               </g>
        </defs>

<script type="text/javascript">
var viewWidth = 1829;
var viewHeight = 357;
var sectionId = 'dynsection-0';
</script>
<script xlink:href="svgpan.js"/>
<svg id="graph" class="graph">
<g id="viewport">
<title>plugins/misc/widgets/src/Madgine/widgets/util/layouts/sizeconstraints.h</title>
<!-- Node1 -->
<g id="node1" class="node">
<title>Node1</title>
<g id="a_node1"><a xlink:title=" ">
<polygon fill="#999999" stroke="#666666" points="568,-349 426,-349 426,-308 568,-308 568,-349"/>
<text text-anchor="start" x="434" y="-337" font-family="Helvetica,sans-Serif" font-size="10.00">plugins/misc/widgets</text>
<text text-anchor="start" x="434" y="-326" font-family="Helvetica,sans-Serif" font-size="10.00">/src/Madgine/widgets</text>
<text text-anchor="middle" x="497" y="-315" font-family="Helvetica,sans-Serif" font-size="10.00">/util/layouts/sizeconstraints.h</text>
</a>
</g>
</g>
<!-- Node2 -->
<g id="node2" class="node">
<title>Node2</title>
<g id="a_node2"><a xlink:href="layout_8cpp.html" target="_top" xlink:title=" ">
<polygon fill="white" stroke="#666666" points="110,-272 0,-272 0,-231 110,-231 110,-272"/>
<text text-anchor="start" x="8" y="-260" font-family="Helvetica,sans-Serif" font-size="10.00">plugins/misc/widgets</text>
<text text-anchor="start" x="8" y="-249" font-family="Helvetica,sans-Serif" font-size="10.00">/src/Madgine/widgets</text>
<text text-anchor="middle" x="55" y="-238" font-family="Helvetica,sans-Serif" font-size="10.00">/layout.cpp</text>
</a>
</g>
</g>
<!-- Node1&#45;&gt;Node2 -->
<g id="edge1" class="edge">
<title>Node1&#45;&gt;Node2</title>
<path fill="none" stroke="#63b8ff" d="M414.65,-319.01C337.63,-310.23 219.7,-294.6 119,-272 116.17,-271.36 113.28,-270.67 110.37,-269.93"/>
<polygon fill="#63b8ff" stroke="#63b8ff" points="413.87,-322.45 424.2,-320.09 414.66,-315.49 413.87,-322.45"/>
</g>
<!-- Node3 -->
<g id="node3" class="node">
<title>Node3</title>
<g id="a_node3"><a xlink:href="explicitlayoutrenderdata_8h.html" target="_top" xlink:title=" ">
<polygon fill="white" stroke="#666666" points="488,-272 310,-272 310,-231 488,-231 488,-272"/>
<text text-anchor="start" x="318" y="-260" font-family="Helvetica,sans-Serif" font-size="10.00">plugins/misc/widgets</text>
<text text-anchor="start" x="318" y="-249" font-family="Helvetica,sans-Serif" font-size="10.00">/src/Madgine/widgets</text>
<text text-anchor="middle" x="399" y="-238" font-family="Helvetica,sans-Serif" font-size="10.00">/util/layouts/explicitlayoutrenderdata.h</text>
</a>
</g>
</g>
<!-- Node1&#45;&gt;Node3 -->
<g id="edge2" class="edge">
<title>Node1&#45;&gt;Node3</title>
<path fill="none" stroke="#63b8ff" d="M462,-300.71C449.85,-291.41 436.44,-281.15 425.13,-272.49"/>
<polygon fill="#63b8ff" stroke="#63b8ff" points="459.72,-303.38 469.79,-306.68 463.98,-297.82 459.72,-303.38"/>
</g>
<!-- Node9 -->
<g id="node9" class="node">
<title>Node9</title>
<g id="a_node9"><a xlink:href="gridlayoutrenderdata_8h.html" target="_top" xlink:title=" ">
<polygon fill="white" stroke="#666666" points="292,-272 128,-272 128,-231 292,-231 292,-272"/>
<text text-anchor="start" x="136" y="-260" font-family="Helvetica,sans-Serif" font-size="10.00">plugins/misc/widgets</text>
<text text-anchor="start" x="136" y="-249" font-family="Helvetica,sans-Serif" font-size="10.00">/src/Madgine/widgets</text>
<text text-anchor="middle" x="210" y="-238" font-family="Helvetica,sans-Serif" font-size="10.00">/util/layouts/gridlayoutrenderdata.h</text>
</a>
</g>
</g>
<!-- Node1&#45;&gt;Node9 -->
<g id="edge8" class="edge">
<title>Node1&#45;&gt;Node9</title>
<path fill="none" stroke="#63b8ff" d="M414.79,-306.02C374.41,-295.47 326.06,-282.83 286.48,-272.49"/>
<polygon fill="#63b8ff" stroke="#63b8ff" points="413.66,-309.34 424.22,-308.48 415.43,-302.57 413.66,-309.34"/>
</g>
<!-- Node10 -->
<g id="node10" class="node">
<title>Node10</title>
<g id="a_node10"><a xlink:href="uniformlayoutrenderdata_8h.html" target="_top" xlink:title=" ">
<polygon fill="white" stroke="#666666" points="686,-272 506,-272 506,-231 686,-231 686,-272"/>
<text text-anchor="start" x="514" y="-260" font-family="Helvetica,sans-Serif" font-size="10.00">plugins/misc/widgets</text>
<text text-anchor="start" x="514" y="-249" font-family="Helvetica,sans-Serif" font-size="10.00">/src/Madgine/widgets</text>
<text text-anchor="middle" x="596" y="-238" font-family="Helvetica,sans-Serif" font-size="10.00">/util/layouts/uniformlayoutrenderdata.h</text>
</a>
</g>
</g>
<!-- Node1&#45;&gt;Node10 -->
<g id="edge10" class="edge">
<title>Node1&#45;&gt;Node10</title>
<path fill="none" stroke="#63b8ff" d="M532.36,-300.71C544.63,-291.41 558.18,-281.15 569.61,-272.49"/>
<polygon fill="#63b8ff" stroke="#63b8ff" points="530.33,-297.86 524.48,-306.68 534.56,-303.44 530.33,-297.86"/>
</g>
<!-- Node14 -->
<g id="node14" class="node">
<title>Node14</title>
<g id="a_node14"><a xlink:href="tabbarrenderdata_8h.html" target="_top" xlink:title=" ">
<polygon fill="white" stroke="#666666" points="820,-272 704,-272 704,-231 820,-231 820,-272"/>
<text text-anchor="start" x="712" y="-260" font-family="Helvetica,sans-Serif" font-size="10.00">plugins/misc/widgets</text>
<text text-anchor="start" x="712" y="-249" font-family="Helvetica,sans-Serif" font-size="10.00">/src/Madgine/widgets</text>
<text text-anchor="middle" x="762" y="-238" font-family="Helvetica,sans-Serif" font-size="10.00">/util/tabbarrenderdata.h</text>
</a>
</g>
</g>
<!-- Node1&#45;&gt;Node14 -->
<g id="edge16" class="edge">
<title>Node1&#45;&gt;Node14</title>
<path fill="none" stroke="#63b8ff" d="M578.92,-304.73C614.6,-294.77 656.89,-282.89 695,-272 697.8,-271.2 700.66,-270.38 703.54,-269.55"/>
<polygon fill="#63b8ff" stroke="#63b8ff" points="578.22,-301.3 569.53,-307.36 580.1,-308.04 578.22,-301.3"/>
</g>
<!-- Node16 -->
<g id="node16" class="node">
<title>Node16</title>
<g id="a_node16"><a xlink:href="textrenderdata_8h.html" target="_top" xlink:title=" ">
<polygon fill="white" stroke="#666666" points="1138,-272 1028,-272 1028,-231 1138,-231 1138,-272"/>
<text text-anchor="start" x="1036" y="-260" font-family="Helvetica,sans-Serif" font-size="10.00">plugins/misc/widgets</text>
<text text-anchor="start" x="1036" y="-249" font-family="Helvetica,sans-Serif" font-size="10.00">/src/Madgine/widgets</text>
<text text-anchor="middle" x="1083" y="-238" font-family="Helvetica,sans-Serif" font-size="10.00">/util/textrenderdata.h</text>
</a>
</g>
</g>
<!-- Node1&#45;&gt;Node16 -->
<g id="edge18" class="edge">
<title>Node1&#45;&gt;Node16</title>
<path fill="none" stroke="#63b8ff" d="M579.33,-316.96C700.7,-301.43 924.42,-272.8 1027.87,-259.56"/>
<polygon fill="#63b8ff" stroke="#63b8ff" points="579.25,-313.45 569.77,-318.19 580.13,-320.39 579.25,-313.45"/>
</g>
<!-- Node4 -->
<g id="node4" class="node">
<title>Node4</title>
<g id="a_node4"><a xlink:href="tablewidget_8h.html" target="_top" xlink:title=" ">
<polygon fill="white" stroke="#666666" points="666,-195 556,-195 556,-154 666,-154 666,-195"/>
<text text-anchor="start" x="564" y="-183" font-family="Helvetica,sans-Serif" font-size="10.00">plugins/misc/widgets</text>
<text text-anchor="start" x="564" y="-172" font-family="Helvetica,sans-Serif" font-size="10.00">/src/Madgine/widgets</text>
<text text-anchor="middle" x="611" y="-161" font-family="Helvetica,sans-Serif" font-size="10.00">/tablewidget.h</text>
</a>
</g>
</g>
<!-- Node3&#45;&gt;Node4 -->
<g id="edge3" class="edge">
<title>Node3&#45;&gt;Node4</title>
<path fill="none" stroke="#63b8ff" d="M466.06,-226.77C494.89,-216.58 528.18,-204.8 555.58,-195.1"/>
<polygon fill="#63b8ff" stroke="#63b8ff" points="464.94,-223.46 456.68,-230.09 467.28,-230.06 464.94,-223.46"/>
</g>
<!-- Node8 -->
<g id="node8" class="node">
<title>Node8</title>
<g id="a_node8"><a xlink:href="explicitlayoutrenderdata_8cpp.html" target="_top" xlink:title=" ">
<polygon fill="white" stroke="#666666" points="328,-195 140,-195 140,-154 328,-154 328,-195"/>
<text text-anchor="start" x="148" y="-183" font-family="Helvetica,sans-Serif" font-size="10.00">plugins/misc/widgets</text>
<text text-anchor="start" x="148" y="-172" font-family="Helvetica,sans-Serif" font-size="10.00">/src/Madgine/widgets</text>
<text text-anchor="middle" x="234" y="-161" font-family="Helvetica,sans-Serif" font-size="10.00">/util/layouts/explicitlayoutrenderdata.cpp</text>
</a>
</g>
</g>
<!-- Node3&#45;&gt;Node8 -->
<g id="edge7" class="edge">
<title>Node3&#45;&gt;Node8</title>
<path fill="none" stroke="#63b8ff" d="M344.85,-225.88C323.17,-216.03 298.53,-204.83 277.99,-195.49"/>
<polygon fill="#63b8ff" stroke="#63b8ff" points="343.29,-229.02 353.84,-229.97 346.18,-222.65 343.29,-229.02"/>
</g>
<!-- Node5 -->
<g id="node5" class="node">
<title>Node5</title>
<g id="a_node5"><a xlink:href="tempwidget_8cpp.html" target="_top" xlink:title=" ">
<polygon fill="white" stroke="#666666" points="583,-118 455,-118 455,-77 583,-77 583,-118"/>
<text text-anchor="start" x="463" y="-106" font-family="Helvetica,sans-Serif" font-size="10.00">plugins/misc/widgets</text>
<text text-anchor="start" x="463" y="-95" font-family="Helvetica,sans-Serif" font-size="10.00">/src/Madgine/widgets</text>
<text text-anchor="middle" x="519" y="-84" font-family="Helvetica,sans-Serif" font-size="10.00">/behavior/tempwidget.cpp</text>
</a>
</g>
</g>
<!-- Node4&#45;&gt;Node5 -->
<g id="edge4" class="edge">
<title>Node4&#45;&gt;Node5</title>
<path fill="none" stroke="#63b8ff" d="M577.97,-146.57C566.53,-137.25 553.94,-126.98 543.33,-118.33"/>
<polygon fill="#63b8ff" stroke="#63b8ff" points="575.69,-149.23 585.65,-152.84 580.12,-143.81 575.69,-149.23"/>
</g>
<!-- Node6 -->
<g id="node6" class="node">
<title>Node6</title>
<g id="a_node6"><a xlink:href="tablewidget_8cpp.html" target="_top" xlink:title=" ">
<polygon fill="white" stroke="#666666" points="302,-118 192,-118 192,-77 302,-77 302,-118"/>
<text text-anchor="start" x="200" y="-106" font-family="Helvetica,sans-Serif" font-size="10.00">plugins/misc/widgets</text>
<text text-anchor="start" x="200" y="-95" font-family="Helvetica,sans-Serif" font-size="10.00">/src/Madgine/widgets</text>
<text text-anchor="middle" x="247" y="-84" font-family="Helvetica,sans-Serif" font-size="10.00">/tablewidget.cpp</text>
</a>
</g>
</g>
<!-- Node4&#45;&gt;Node6 -->
<g id="edge5" class="edge">
<title>Node4&#45;&gt;Node6</title>
<path fill="none" stroke="#63b8ff" d="M544.66,-153.55C454.76,-132.06 360.56,-116 302.41,-106.83"/>
<polygon fill="#63b8ff" stroke="#63b8ff" points="543.59,-156.9 554.13,-155.85 545.24,-150.09 543.59,-156.9"/>
</g>
<!-- Node7 -->
<g id="node7" class="node">
<title>Node7</title>
<g id="a_node7"><a xlink:href="widgetloader_8cpp.html" target="_top" xlink:title=" ">
<polygon fill="white" stroke="#666666" points="870,-41 760,-41 760,0 870,0 870,-41"/>
<text text-anchor="start" x="768" y="-29" font-family="Helvetica,sans-Serif" font-size="10.00">plugins/misc/widgets</text>
<text text-anchor="start" x="768" y="-18" font-family="Helvetica,sans-Serif" font-size="10.00">/src/Madgine/widgets</text>
<text text-anchor="middle" x="815" y="-7" font-family="Helvetica,sans-Serif" font-size="10.00">/widgetloader.cpp</text>
</a>
</g>
</g>
<!-- Node4&#45;&gt;Node7 -->
<g id="edge6" class="edge">
<title>Node4&#45;&gt;Node7</title>
<path fill="none" stroke="#63b8ff" d="M609.28,-142.66C609.8,-121.68 614,-94.63 630,-77 662.79,-40.87 718.06,-27.88 759.68,-23.4"/>
<polygon fill="#63b8ff" stroke="#63b8ff" points="605.78,-142.39 609.32,-152.37 612.78,-142.36 605.78,-142.39"/>
</g>
<!-- Node9&#45;&gt;Node6 -->
<g id="edge9" class="edge">
<title>Node9&#45;&gt;Node6</title>
<path fill="none" stroke="#63b8ff" d="M157.32,-224.18C146.75,-216.31 137.04,-206.62 131,-195 122.6,-178.83 121.29,-169.42 131,-154 144.51,-132.56 168.84,-119.22 191.74,-111.02"/>
<polygon fill="#63b8ff" stroke="#63b8ff" points="155.29,-227.03 165.52,-229.77 159.23,-221.24 155.29,-227.03"/>
</g>
<!-- Node10&#45;&gt;Node4 -->
<g id="edge14" class="edge">
<title>Node10&#45;&gt;Node4</title>
<path fill="none" stroke="#63b8ff" d="M602.17,-219.65C603.81,-211.43 605.54,-202.78 607.03,-195.33"/>
<polygon fill="#63b8ff" stroke="#63b8ff" points="598.77,-218.82 600.24,-229.31 605.63,-220.19 598.77,-218.82"/>
</g>
<!-- Node11 -->
<g id="node11" class="node">
<title>Node11</title>
<g id="a_node11"><a xlink:href="tabbar_8h.html" target="_top" xlink:title=" ">
<polygon fill="white" stroke="#666666" points="938,-195 828,-195 828,-154 938,-154 938,-195"/>
<text text-anchor="start" x="836" y="-183" font-family="Helvetica,sans-Serif" font-size="10.00">plugins/misc/widgets</text>
<text text-anchor="start" x="836" y="-172" font-family="Helvetica,sans-Serif" font-size="10.00">/src/Madgine/widgets</text>
<text text-anchor="middle" x="883" y="-161" font-family="Helvetica,sans-Serif" font-size="10.00">/tabbar.h</text>
</a>
</g>
</g>
<!-- Node10&#45;&gt;Node11 -->
<g id="edge11" class="edge">
<title>Node10&#45;&gt;Node11</title>
<path fill="none" stroke="#63b8ff" d="M691.68,-227.84C731.22,-218.18 777.44,-206.5 819,-195 821.8,-194.23 824.66,-193.42 827.55,-192.59"/>
<polygon fill="#63b8ff" stroke="#63b8ff" points="691.08,-224.38 682.19,-230.15 692.73,-231.19 691.08,-224.38"/>
</g>
<!-- Node13 -->
<g id="node13" class="node">
<title>Node13</title>
<g id="a_node13"><a xlink:href="uniformlayoutrenderdata_8cpp.html" target="_top" xlink:title=" ">
<polygon fill="white" stroke="#666666" points="537.5,-195 346.5,-195 346.5,-154 537.5,-154 537.5,-195"/>
<text text-anchor="start" x="354.5" y="-183" font-family="Helvetica,sans-Serif" font-size="10.00">plugins/misc/widgets</text>
<text text-anchor="start" x="354.5" y="-172" font-family="Helvetica,sans-Serif" font-size="10.00">/src/Madgine/widgets</text>
<text text-anchor="middle" x="442" y="-161" font-family="Helvetica,sans-Serif" font-size="10.00">/util/layouts/uniformlayoutrenderdata.cpp</text>
</a>
</g>
</g>
<!-- Node10&#45;&gt;Node13 -->
<g id="edge15" class="edge">
<title>Node10&#45;&gt;Node13</title>
<path fill="none" stroke="#63b8ff" d="M544.9,-225.62C524.81,-215.83 502.05,-204.75 483.06,-195.49"/>
<polygon fill="#63b8ff" stroke="#63b8ff" points="543.25,-228.7 553.77,-229.94 546.32,-222.41 543.25,-228.7"/>
</g>
<!-- Node11&#45;&gt;Node7 -->
<g id="edge13" class="edge">
<title>Node11&#45;&gt;Node7</title>
<path fill="none" stroke="#63b8ff" d="M828.37,-147.53C817.39,-139.65 807.3,-129.86 801,-118 788.14,-93.78 797.17,-61.57 805.52,-41.18"/>
<polygon fill="#63b8ff" stroke="#63b8ff" points="826.2,-150.3 836.47,-152.87 830.05,-144.45 826.2,-150.3"/>
</g>
<!-- Node12 -->
<g id="node12" class="node">
<title>Node12</title>
<g id="a_node12"><a xlink:href="tabbar_8cpp.html" target="_top" xlink:title=" ">
<polygon fill="white" stroke="#666666" points="749,-118 639,-118 639,-77 749,-77 749,-118"/>
<text text-anchor="start" x="647" y="-106" font-family="Helvetica,sans-Serif" font-size="10.00">plugins/misc/widgets</text>
<text text-anchor="start" x="647" y="-95" font-family="Helvetica,sans-Serif" font-size="10.00">/src/Madgine/widgets</text>
<text text-anchor="middle" x="694" y="-84" font-family="Helvetica,sans-Serif" font-size="10.00">/tabbar.cpp</text>
</a>
</g>
</g>
<!-- Node11&#45;&gt;Node12 -->
<g id="edge12" class="edge">
<title>Node11&#45;&gt;Node12</title>
<path fill="none" stroke="#63b8ff" d="M822.32,-149.42C797.17,-139.44 768.34,-128 744.39,-118.49"/>
<polygon fill="#63b8ff" stroke="#63b8ff" points="820.85,-152.6 831.44,-153.04 823.44,-146.1 820.85,-152.6"/>
</g>
<!-- Node15 -->
<g id="node15" class="node">
<title>Node15</title>
<g id="a_node15"><a xlink:href="tabbarrenderdata_8cpp.html" target="_top" xlink:title=" ">
<polygon fill="white" stroke="#666666" points="810,-195 684,-195 684,-154 810,-154 810,-195"/>
<text text-anchor="start" x="692" y="-183" font-family="Helvetica,sans-Serif" font-size="10.00">plugins/misc/widgets</text>
<text text-anchor="start" x="692" y="-172" font-family="Helvetica,sans-Serif" font-size="10.00">/src/Madgine/widgets</text>
<text text-anchor="middle" x="747" y="-161" font-family="Helvetica,sans-Serif" font-size="10.00">/util/tabbarrenderdata.cpp</text>
</a>
</g>
</g>
<!-- Node14&#45;&gt;Node15 -->
<g id="edge17" class="edge">
<title>Node14&#45;&gt;Node15</title>
<path fill="none" stroke="#63b8ff" d="M755.83,-219.65C754.19,-211.43 752.46,-202.78 750.97,-195.33"/>
<polygon fill="#63b8ff" stroke="#63b8ff" points="752.37,-220.19 757.76,-229.31 759.23,-218.82 752.37,-220.19"/>
</g>
<!-- Node16&#45;&gt;Node4 -->
<g id="edge29" class="edge">
<title>Node16&#45;&gt;Node4</title>
<path fill="none" stroke="#63b8ff" d="M1016.68,-244.78C935.48,-237.02 794.05,-221.06 675,-195 672.16,-194.38 669.27,-193.69 666.36,-192.96"/>
<polygon fill="#63b8ff" stroke="#63b8ff" points="1015.94,-248.23 1026.23,-245.68 1016.6,-241.26 1015.94,-248.23"/>
</g>
<!-- Node16&#45;&gt;Node11 -->
<g id="edge28" class="edge">
<title>Node16&#45;&gt;Node11</title>
<path fill="none" stroke="#63b8ff" d="M1019.5,-226.69C992.72,-216.65 961.89,-205.09 936.32,-195.49"/>
<polygon fill="#63b8ff" stroke="#63b8ff" points="1017.92,-229.83 1028.51,-230.07 1020.38,-223.28 1017.92,-229.83"/>
</g>
<!-- Node17 -->
<g id="node17" class="node">
<title>Node17</title>
<g id="a_node17"><a xlink:href="button_8h.html" target="_top" xlink:title=" ">
<polygon fill="white" stroke="#666666" points="1656,-195 1546,-195 1546,-154 1656,-154 1656,-195"/>
<text text-anchor="start" x="1554" y="-183" font-family="Helvetica,sans-Serif" font-size="10.00">plugins/misc/widgets</text>
<text text-anchor="start" x="1554" y="-172" font-family="Helvetica,sans-Serif" font-size="10.00">/src/Madgine/widgets</text>
<text text-anchor="middle" x="1601" y="-161" font-family="Helvetica,sans-Serif" font-size="10.00">/button.h</text>
</a>
</g>
</g>
<!-- Node16&#45;&gt;Node17 -->
<g id="edge19" class="edge">
<title>Node16&#45;&gt;Node17</title>
<path fill="none" stroke="#63b8ff" d="M1149.48,-243.79C1234.21,-234.81 1385.05,-217.39 1513,-195 1523.64,-193.14 1534.93,-190.86 1545.76,-188.53"/>
<polygon fill="#63b8ff" stroke="#63b8ff" points="1149.3,-240.29 1139.73,-244.82 1150.04,-247.25 1149.3,-240.29"/>
</g>
<!-- Node21 -->
<g id="node21" class="node">
<title>Node21</title>
<g id="a_node21"><a xlink:href="label_8h.html" target="_top" xlink:title=" ">
<polygon fill="white" stroke="#666666" points="1074,-195 964,-195 964,-154 1074,-154 1074,-195"/>
<text text-anchor="start" x="972" y="-183" font-family="Helvetica,sans-Serif" font-size="10.00">plugins/misc/widgets</text>
<text text-anchor="start" x="972" y="-172" font-family="Helvetica,sans-Serif" font-size="10.00">/src/Madgine/widgets</text>
<text text-anchor="middle" x="1019" y="-161" font-family="Helvetica,sans-Serif" font-size="10.00">/label.h</text>
</a>
</g>
</g>
<!-- Node16&#45;&gt;Node21 -->
<g id="edge24" class="edge">
<title>Node16&#45;&gt;Node21</title>
<path fill="none" stroke="#63b8ff" d="M1058.83,-222.18C1051.2,-213.24 1042.94,-203.55 1035.93,-195.33"/>
<polygon fill="#63b8ff" stroke="#63b8ff" points="1056.05,-224.31 1065.2,-229.64 1061.37,-219.76 1056.05,-224.31"/>
</g>
<!-- Node24 -->
<g id="node24" class="node">
<title>Node24</title>
<g id="a_node24"><a xlink:href="textbox_8h.html" target="_top" xlink:title=" ">
<polygon fill="white" stroke="#666666" points="1207,-195 1097,-195 1097,-154 1207,-154 1207,-195"/>
<text text-anchor="start" x="1105" y="-183" font-family="Helvetica,sans-Serif" font-size="10.00">plugins/misc/widgets</text>
<text text-anchor="start" x="1105" y="-172" font-family="Helvetica,sans-Serif" font-size="10.00">/src/Madgine/widgets</text>
<text text-anchor="middle" x="1152" y="-161" font-family="Helvetica,sans-Serif" font-size="10.00">/textbox.h</text>
</a>
</g>
</g>
<!-- Node16&#45;&gt;Node24 -->
<g id="edge30" class="edge">
<title>Node16&#45;&gt;Node24</title>
<path fill="none" stroke="#63b8ff" d="M1108.8,-222.46C1117.1,-213.44 1126.11,-203.64 1133.75,-195.33"/>
<polygon fill="#63b8ff" stroke="#63b8ff" points="1106.35,-219.95 1102.15,-229.68 1111.5,-224.69 1106.35,-219.95"/>
</g>
<!-- Node26 -->
<g id="node26" class="node">
<title>Node26</title>
<g id="a_node26"><a xlink:href="multilinetextrenderdata_8h.html" target="_top" xlink:title=" ">
<polygon fill="white" stroke="#666666" points="1370,-195 1230,-195 1230,-154 1370,-154 1370,-195"/>
<text text-anchor="start" x="1238" y="-183" font-family="Helvetica,sans-Serif" font-size="10.00">plugins/misc/widgets</text>
<text text-anchor="start" x="1238" y="-172" font-family="Helvetica,sans-Serif" font-size="10.00">/src/Madgine/widgets</text>
<text text-anchor="middle" x="1300" y="-161" font-family="Helvetica,sans-Serif" font-size="10.00">/util/multilinetextrenderdata.h</text>
</a>
</g>
</g>
<!-- Node16&#45;&gt;Node26 -->
<g id="edge32" class="edge">
<title>Node16&#45;&gt;Node26</title>
<path fill="none" stroke="#63b8ff" d="M1149.06,-227.67C1178.88,-217.36 1213.78,-205.3 1242.51,-195.37"/>
<polygon fill="#63b8ff" stroke="#63b8ff" points="1148.06,-224.31 1139.75,-230.89 1150.34,-230.93 1148.06,-224.31"/>
</g>
<!-- Node30 -->
<g id="node30" class="node">
<title>Node30</title>
<g id="a_node30"><a xlink:href="textrenderdata_8cpp.html" target="_top" xlink:title=" ">
<polygon fill="white" stroke="#666666" points="1503.5,-195 1388.5,-195 1388.5,-154 1503.5,-154 1503.5,-195"/>
<text text-anchor="start" x="1396.5" y="-183" font-family="Helvetica,sans-Serif" font-size="10.00">plugins/misc/widgets</text>
<text text-anchor="start" x="1396.5" y="-172" font-family="Helvetica,sans-Serif" font-size="10.00">/src/Madgine/widgets</text>
<text text-anchor="middle" x="1446" y="-161" font-family="Helvetica,sans-Serif" font-size="10.00">/util/textrenderdata.cpp</text>
</a>
</g>
</g>
<!-- Node16&#45;&gt;Node30 -->
<g id="edge37" class="edge">
<title>Node16&#45;&gt;Node30</title>
<path fill="none" stroke="#63b8ff" d="M1149.7,-239.91C1209.95,-229.89 1300.88,-213.64 1379,-195 1382.06,-194.27 1385.2,-193.48 1388.35,-192.67"/>
<polygon fill="#63b8ff" stroke="#63b8ff" points="1149.23,-236.44 1139.93,-241.52 1150.37,-243.35 1149.23,-236.44"/>
</g>
<!-- Node17&#45;&gt;Node7 -->
<g id="edge23" class="edge">
<title>Node17&#45;&gt;Node7</title>
<path fill="none" stroke="#63b8ff" d="M1577.44,-145.06C1554.34,-117.33 1522,-79.03 1518,-77 1460.82,-47.98 1026.42,-29.29 870.5,-23.46"/>
<polygon fill="#63b8ff" stroke="#63b8ff" points="1574.52,-147.02 1583.6,-152.47 1579.9,-142.54 1574.52,-147.02"/>
</g>
<!-- Node18 -->
<g id="node18" class="node">
<title>Node18</title>
<g id="a_node18"><a xlink:href="widgethandler_8h.html" target="_top" xlink:title=" ">
<polygon fill="white" stroke="#666666" points="1821,-118 1693,-118 1693,-77 1821,-77 1821,-118"/>
<text text-anchor="start" x="1701" y="-106" font-family="Helvetica,sans-Serif" font-size="10.00">plugins/misc/widgets</text>
<text text-anchor="start" x="1701" y="-95" font-family="Helvetica,sans-Serif" font-size="10.00">/handler/Madgine/widgets</text>
<text text-anchor="middle" x="1757" y="-84" font-family="Helvetica,sans-Serif" font-size="10.00">/widgethandler.h</text>
</a>
</g>
</g>
<!-- Node17&#45;&gt;Node18 -->
<g id="edge20" class="edge">
<title>Node17&#45;&gt;Node18</title>
<path fill="none" stroke="#63b8ff" d="M1652.76,-148.62C1673.11,-138.83 1696.17,-127.75 1715.41,-118.49"/>
<polygon fill="#63b8ff" stroke="#63b8ff" points="1651.26,-145.46 1643.76,-152.94 1654.29,-151.76 1651.26,-145.46"/>
</g>
<!-- Node20 -->
<g id="node20" class="node">
<title>Node20</title>
<g id="a_node20"><a xlink:href="button_8cpp.html" target="_top" xlink:title=" ">
<polygon fill="white" stroke="#666666" points="1675,-118 1565,-118 1565,-77 1675,-77 1675,-118"/>
<text text-anchor="start" x="1573" y="-106" font-family="Helvetica,sans-Serif" font-size="10.00">plugins/misc/widgets</text>
<text text-anchor="start" x="1573" y="-95" font-family="Helvetica,sans-Serif" font-size="10.00">/src/Madgine/widgets</text>
<text text-anchor="middle" x="1620" y="-84" font-family="Helvetica,sans-Serif" font-size="10.00">/button.cpp</text>
</a>
</g>
</g>
<!-- Node17&#45;&gt;Node20 -->
<g id="edge22" class="edge">
<title>Node17&#45;&gt;Node20</title>
<path fill="none" stroke="#63b8ff" d="M1608.82,-142.65C1610.9,-134.43 1613.09,-125.78 1614.98,-118.33"/>
<polygon fill="#63b8ff" stroke="#63b8ff" points="1605.43,-141.77 1606.36,-152.33 1612.21,-143.49 1605.43,-141.77"/>
</g>
<!-- Node19 -->
<g id="node19" class="node">
<title>Node19</title>
<g id="a_node19"><a xlink:href="widgethandler_8cpp.html" target="_top" xlink:title=" ">
<polygon fill="white" stroke="#666666" points="1821,-41 1693,-41 1693,0 1821,0 1821,-41"/>
<text text-anchor="start" x="1701" y="-29" font-family="Helvetica,sans-Serif" font-size="10.00">plugins/misc/widgets</text>
<text text-anchor="start" x="1701" y="-18" font-family="Helvetica,sans-Serif" font-size="10.00">/handler/Madgine/widgets</text>
<text text-anchor="middle" x="1757" y="-7" font-family="Helvetica,sans-Serif" font-size="10.00">/widgethandler.cpp</text>
</a>
</g>
</g>
<!-- Node18&#45;&gt;Node19 -->
<g id="edge21" class="edge">
<title>Node18&#45;&gt;Node19</title>
<path fill="none" stroke="#63b8ff" d="M1757,-65.36C1757,-57.24 1757,-48.7 1757,-41.33"/>
<polygon fill="#63b8ff" stroke="#63b8ff" points="1753.5,-65.28 1757,-75.28 1760.5,-65.28 1753.5,-65.28"/>
</g>
<!-- Node21&#45;&gt;Node7 -->
<g id="edge27" class="edge">
<title>Node21&#45;&gt;Node7</title>
<path fill="none" stroke="#63b8ff" d="M952.76,-155.36C901.4,-141.02 838.24,-122.67 834,-118 814.95,-97.01 812.62,-62.66 813.33,-41.11"/>
<polygon fill="#63b8ff" stroke="#63b8ff" points="951.81,-158.73 962.39,-158.04 953.69,-151.99 951.81,-158.73"/>
</g>
<!-- Node22 -->
<g id="node22" class="node">
<title>Node22</title>
<g id="a_node22"><a xlink:href="compoundwidget_8cpp.html" target="_top" xlink:title=" ">
<polygon fill="white" stroke="#666666" points="1082.5,-118 971.5,-118 971.5,-77 1082.5,-77 1082.5,-118"/>
<text text-anchor="start" x="979.5" y="-106" font-family="Helvetica,sans-Serif" font-size="10.00">plugins/misc/widgets</text>
<text text-anchor="start" x="979.5" y="-95" font-family="Helvetica,sans-Serif" font-size="10.00">/src/Madgine/widgets</text>
<text text-anchor="middle" x="1027" y="-84" font-family="Helvetica,sans-Serif" font-size="10.00">/compoundwidget.cpp</text>
</a>
</g>
</g>
<!-- Node21&#45;&gt;Node22 -->
<g id="edge25" class="edge">
<title>Node21&#45;&gt;Node22</title>
<path fill="none" stroke="#63b8ff" d="M1022.32,-142.36C1023.19,-134.24 1024.1,-125.7 1024.88,-118.33"/>
<polygon fill="#63b8ff" stroke="#63b8ff" points="1018.84,-141.97 1021.26,-152.29 1025.8,-142.72 1018.84,-141.97"/>
</g>
<!-- Node23 -->
<g id="node23" class="node">
<title>Node23</title>
<g id="a_node23"><a xlink:href="label_8cpp.html" target="_top" xlink:title=" ">
<polygon fill="white" stroke="#666666" points="953,-118 843,-118 843,-77 953,-77 953,-118"/>
<text text-anchor="start" x="851" y="-106" font-family="Helvetica,sans-Serif" font-size="10.00">plugins/misc/widgets</text>
<text text-anchor="start" x="851" y="-95" font-family="Helvetica,sans-Serif" font-size="10.00">/src/Madgine/widgets</text>
<text text-anchor="middle" x="898" y="-84" font-family="Helvetica,sans-Serif" font-size="10.00">/label.cpp</text>
</a>
</g>
</g>
<!-- Node21&#45;&gt;Node23 -->
<g id="edge26" class="edge">
<title>Node21&#45;&gt;Node23</title>
<path fill="none" stroke="#63b8ff" d="M977.11,-147.53C961.76,-138.02 944.64,-127.41 930.26,-118.49"/>
<polygon fill="#63b8ff" stroke="#63b8ff" points="975.26,-150.51 985.61,-152.8 978.95,-144.56 975.26,-150.51"/>
</g>
<!-- Node25 -->
<g id="node25" class="node">
<title>Node25</title>
<g id="a_node25"><a xlink:href="textbox_8cpp.html" target="_top" xlink:title=" ">
<polygon fill="white" stroke="#666666" points="1211,-118 1101,-118 1101,-77 1211,-77 1211,-118"/>
<text text-anchor="start" x="1109" y="-106" font-family="Helvetica,sans-Serif" font-size="10.00">plugins/misc/widgets</text>
<text text-anchor="start" x="1109" y="-95" font-family="Helvetica,sans-Serif" font-size="10.00">/src/Madgine/widgets</text>
<text text-anchor="middle" x="1156" y="-84" font-family="Helvetica,sans-Serif" font-size="10.00">/textbox.cpp</text>
</a>
</g>
</g>
<!-- Node24&#45;&gt;Node25 -->
<g id="edge31" class="edge">
<title>Node24&#45;&gt;Node25</title>
<path fill="none" stroke="#63b8ff" d="M1153.66,-142.36C1154.09,-134.24 1154.55,-125.7 1154.94,-118.33"/>
<polygon fill="#63b8ff" stroke="#63b8ff" points="1150.17,-142.11 1153.13,-152.28 1157.16,-142.48 1150.17,-142.11"/>
</g>
<!-- Node27 -->
<g id="node27" class="node">
<title>Node27</title>
<g id="a_node27"><a xlink:href="textedit_8h.html" target="_top" xlink:title=" ">
<polygon fill="white" stroke="#666666" points="1509,-118 1399,-118 1399,-77 1509,-77 1509,-118"/>
<text text-anchor="start" x="1407" y="-106" font-family="Helvetica,sans-Serif" font-size="10.00">plugins/misc/widgets</text>
<text text-anchor="start" x="1407" y="-95" font-family="Helvetica,sans-Serif" font-size="10.00">/src/Madgine/widgets</text>
<text text-anchor="middle" x="1454" y="-84" font-family="Helvetica,sans-Serif" font-size="10.00">/textedit.h</text>
</a>
</g>
</g>
<!-- Node26&#45;&gt;Node27 -->
<g id="edge33" class="edge">
<title>Node26&#45;&gt;Node27</title>
<path fill="none" stroke="#63b8ff" d="M1351.1,-148.62C1371.19,-138.83 1393.95,-127.75 1412.94,-118.49"/>
<polygon fill="#63b8ff" stroke="#63b8ff" points="1349.68,-145.41 1342.23,-152.94 1352.75,-151.7 1349.68,-145.41"/>
</g>
<!-- Node29 -->
<g id="node29" class="node">
<title>Node29</title>
<g id="a_node29"><a xlink:href="multilinetextrenderdata_8cpp.html" target="_top" xlink:title=" ">
<polygon fill="white" stroke="#666666" points="1380.5,-118 1229.5,-118 1229.5,-77 1380.5,-77 1380.5,-118"/>
<text text-anchor="start" x="1237.5" y="-106" font-family="Helvetica,sans-Serif" font-size="10.00">plugins/misc/widgets</text>
<text text-anchor="start" x="1237.5" y="-95" font-family="Helvetica,sans-Serif" font-size="10.00">/src/Madgine/widgets</text>
<text text-anchor="middle" x="1305" y="-84" font-family="Helvetica,sans-Serif" font-size="10.00">/util/multilinetextrenderdata.cpp</text>
</a>
</g>
</g>
<!-- Node26&#45;&gt;Node29 -->
<g id="edge36" class="edge">
<title>Node26&#45;&gt;Node29</title>
<path fill="none" stroke="#63b8ff" d="M1302.08,-142.36C1302.62,-134.24 1303.19,-125.7 1303.68,-118.33"/>
<polygon fill="#63b8ff" stroke="#63b8ff" points="1298.59,-142.07 1301.41,-152.28 1305.57,-142.54 1298.59,-142.07"/>
</g>
<!-- Node27&#45;&gt;Node7 -->
<g id="edge35" class="edge">
<title>Node27&#45;&gt;Node7</title>
<path fill="none" stroke="#63b8ff" d="M1387.38,-76.69C1192.97,-39.13 971.36,-27.02 870.24,-23.17"/>
<polygon fill="#63b8ff" stroke="#63b8ff" points="1386.7,-80.12 1397.18,-78.61 1388.05,-73.25 1386.7,-80.12"/>
</g>
<!-- Node28 -->
<g id="node28" class="node">
<title>Node28</title>
<g id="a_node28"><a xlink:href="textedit_8cpp.html" target="_top" xlink:title=" ">
<polygon fill="white" stroke="#666666" points="1509,-41 1399,-41 1399,0 1509,0 1509,-41"/>
<text text-anchor="start" x="1407" y="-29" font-family="Helvetica,sans-Serif" font-size="10.00">plugins/misc/widgets</text>
<text text-anchor="start" x="1407" y="-18" font-family="Helvetica,sans-Serif" font-size="10.00">/src/Madgine/widgets</text>
<text text-anchor="middle" x="1454" y="-7" font-family="Helvetica,sans-Serif" font-size="10.00">/textedit.cpp</text>
</a>
</g>
</g>
<!-- Node27&#45;&gt;Node28 -->
<g id="edge34" class="edge">
<title>Node27&#45;&gt;Node28</title>
<path fill="none" stroke="#63b8ff" d="M1454,-65.36C1454,-57.24 1454,-48.7 1454,-41.33"/>
<polygon fill="#63b8ff" stroke="#63b8ff" points="1450.5,-65.28 1454,-75.28 1457.5,-65.28 1450.5,-65.28"/>
</g>
</g>
</svg>
        <g id="navigator" transform="translate(0 0)" fill="#404254">
                <rect fill="#f2f5e9" fill-opacity="0.5" stroke="#606060" stroke-width=".5" x="0" y="0" width="60" height="60"/>
                <use id="zoomplus" xlink:href="#zoomPlus" x="17" y="9" onmousedown="handleZoom(evt,'in')"/>
                <use id="zoomminus" xlink:href="#zoomMin" x="42" y="9" onmousedown="handleZoom(evt,'out')"/>
                <use id="reset" xlink:href="#resetDef" x="30" y="36" onmousedown="handleReset()"/>
                <g id="arrowUp" xlink:href="#dirArrow" transform="translate(30 24)" onmousedown="handlePan(0,-1)">
                  <use xlink:href="#rim" fill="#404040">
                        <set attributeName="fill" to="#808080" begin="arrowUp.mouseover" end="arrowUp.mouseout"/>
                  </use>
                  <path fill="none" stroke="white" stroke-width="1.5" d="M0,-3.0v7 M-2.5,-0.5L0,-3.0L2.5,-0.5"/>
                </g>
                <g id="arrowRight" xlink:href="#dirArrow" transform="rotate(90) translate(36 -43)" onmousedown="handlePan(1,0)">
                  <use xlink:href="#rim" fill="#404040">
                        <set attributeName="fill" to="#808080" begin="arrowRight.mouseover" end="arrowRight.mouseout"/>
                  </use>
                  <path fill="none" stroke="white" stroke-width="1.5" d="M0,-3.0v7 M-2.5,-0.5L0,-3.0L2.5,-0.5"/>
                </g>
                <g id="arrowDown" xlink:href="#dirArrow" transform="rotate(180) translate(-30 -48)" onmousedown="handlePan(0,1)">
                  <use xlink:href="#rim" fill="#404040">
                        <set attributeName="fill" to="#808080" begin="arrowDown.mouseover" end="arrowDown.mouseout"/>
                  </use>
                  <path fill="none" stroke="white" stroke-width="1.5" d="M0,-3.0v7 M-2.5,-0.5L0,-3.0L2.5,-0.5"/>
                </g>
                <g id="arrowLeft" xlink:href="#dirArrow" transform="rotate(270) translate(-36 17)" onmousedown="handlePan(-1,0)">
                  <use xlink:href="#rim" fill="#404040">
                        <set attributeName="fill" to="#808080" begin="arrowLeft.mouseover" end="arrowLeft.mouseout"/>
                  </use>
                  <path fill="none" stroke="white" stroke-width="1.5" d="M0,-3.0v7 M-2.5,-0.5L0,-3.0L2.5,-0.5"/>
                </g>
        </g>
        <svg viewBox="0 0 15 15" width="100%" height="30px" preserveAspectRatio="xMaxYMin meet">
         <g id="arrow_out" transform="scale(0.3 0.3)">
          <a xlink:href="sizeconstraints_8h__dep__incl_org.svg" target="_base">
           <rect id="button" ry="5" rx="5" y="6" x="6" height="38" width="38"
                fill="#f2f5e9" fill-opacity="0.5" stroke="#606060" stroke-width="1.0"/>
           <path id="arrow"
             d="M 11.500037,31.436501 C 11.940474,20.09759 22.043105,11.32322 32.158766,21.979434 L 37.068811,17.246167 C 37.068811,17.246167 37.088388,32 37.088388,32 L 22.160133,31.978069 C 22.160133,31.978069 26.997745,27.140456 26.997745,27.140456 C 18.528582,18.264221 13.291696,25.230495 11.500037,31.436501 z"
             style="fill:#404040;"/>
          </a>
         </g>
        </svg>
</svg>
