<?xml version="1.0" encoding="UTF-8" standalone="no"?>
<!DOCTYPE svg PUBLIC "-//W3C//DTD SVG 1.1//EN"
 "http://www.w3.org/Graphics/SVG/1.1/DTD/svg11.dtd">
<!-- Generated by graphviz version 7.0.5 (20221223.1930)
 -->
<!-- Title: plugins/resources/skeletonloader/Madgine/skeletonloader/skeletondescriptor.h Pages: 1 -->
<svg width="1586pt" height="390pt"
 viewBox="0.00 0.00 1586.00 390.00" xmlns="http://www.w3.org/2000/svg" xmlns:xlink="http://www.w3.org/1999/xlink">
<g id="graph0" class="graph" transform="scale(1 1) rotate(0) translate(4 386)">
<title>plugins/resources/skeletonloader/Madgine/skeletonloader/skeletondescriptor.h</title>
<!-- Node1 -->
<g id="node1" class="node">
<title>Node1</title>
<g id="a_node1"><a xlink:title=" ">
<polygon fill="#999999" stroke="#666666" points="584.5,-382 372.5,-382 372.5,-352 584.5,-352 584.5,-382"/>
<text text-anchor="start" x="380.5" y="-370" font-family="Helvetica,sans-Serif" font-size="10.00">plugins/resources/skeletonloader</text>
<text text-anchor="middle" x="478.5" y="-359" font-family="Helvetica,sans-Serif" font-size="10.00">/Madgine/skeletonloader/skeletondescriptor.h</text>
</a>
</g>
</g>
<!-- Node2 -->
<g id="node2" class="node">
<title>Node2</title>
<g id="a_node2"><a xlink:href="skeleton_8cpp.html" target="_top" xlink:title=" ">
<polygon fill="white" stroke="#666666" points="131,-41 0,-41 0,0 131,0 131,-41"/>
<text text-anchor="start" x="8" y="-29" font-family="Helvetica,sans-Serif" font-size="10.00">plugins/misc/scene</text>
<text text-anchor="start" x="8" y="-18" font-family="Helvetica,sans-Serif" font-size="10.00">/src/Madgine/scene/entity</text>
<text text-anchor="middle" x="65.5" y="-7" font-family="Helvetica,sans-Serif" font-size="10.00">/components/skeleton.cpp</text>
</a>
</g>
</g>
<!-- Node1&#45;&gt;Node2 -->
<g id="edge1" class="edge">
<title>Node1&#45;&gt;Node2</title>
<path fill="none" stroke="#63b8ff" d="M436.52,-346.2C398.2,-324.88 347.5,-287.03 347.5,-236 347.5,-236 347.5,-236 347.5,-168 347.5,-119.52 214.59,-68.56 131.26,-41.37"/>
<polygon fill="#63b8ff" stroke="#63b8ff" points="434.65,-349.17 445.12,-350.8 437.96,-343 434.65,-349.17"/>
</g>
<!-- Node3 -->
<g id="node3" class="node">
<title>Node3</title>
<g id="a_node3"><a xlink:href="skeletonloader_8h.html" target="_top" xlink:title=" ">
<polygon fill="white" stroke="#666666" points="947.5,-316 751.5,-316 751.5,-286 947.5,-286 947.5,-316"/>
<text text-anchor="start" x="759.5" y="-304" font-family="Helvetica,sans-Serif" font-size="10.00">plugins/resources/skeletonloader</text>
<text text-anchor="middle" x="849.5" y="-293" font-family="Helvetica,sans-Serif" font-size="10.00">/Madgine/skeletonloader/skeletonloader.h</text>
</a>
</g>
</g>
<!-- Node1&#45;&gt;Node3 -->
<g id="edge2" class="edge">
<title>Node1&#45;&gt;Node3</title>
<path fill="none" stroke="#63b8ff" d="M573.49,-349.61C632.87,-339.37 708.64,-326.3 765.76,-316.45"/>
<polygon fill="#63b8ff" stroke="#63b8ff" points="572.97,-346.15 563.71,-351.3 574.16,-353.05 572.97,-346.15"/>
</g>
<!-- Node4 -->
<g id="node4" class="node">
<title>Node4</title>
<g id="a_node4"><a xlink:href="animation_8h.html" target="_top" xlink:title=" ">
<polygon fill="white" stroke="#666666" points="1220.5,-118 1078.5,-118 1078.5,-77 1220.5,-77 1220.5,-118"/>
<text text-anchor="start" x="1086.5" y="-106" font-family="Helvetica,sans-Serif" font-size="10.00">plugins/misc/scene</text>
<text text-anchor="start" x="1086.5" y="-95" font-family="Helvetica,sans-Serif" font-size="10.00">/src/Madgine/scene/behavior</text>
<text text-anchor="middle" x="1149.5" y="-84" font-family="Helvetica,sans-Serif" font-size="10.00">/animation.h</text>
</a>
</g>
</g>
<!-- Node3&#45;&gt;Node4 -->
<g id="edge3" class="edge">
<title>Node3&#45;&gt;Node4</title>
<path fill="none" stroke="#63b8ff" d="M874.36,-278.06C909.26,-247.89 975.48,-192.9 1037.5,-154 1058.64,-140.74 1083.39,-128.19 1104.24,-118.4"/>
<polygon fill="#63b8ff" stroke="#63b8ff" points="872.17,-275.33 866.92,-284.53 876.76,-280.61 872.17,-275.33"/>
</g>
<!-- Node8 -->
<g id="node8" class="node">
<title>Node8</title>
<g id="a_node8"><a xlink:href="skeleton_8h.html" target="_top" xlink:title=" ">
<polygon fill="white" stroke="#666666" points="872.5,-118 744.5,-118 744.5,-77 872.5,-77 872.5,-118"/>
<text text-anchor="start" x="752.5" y="-106" font-family="Helvetica,sans-Serif" font-size="10.00">plugins/misc/scene</text>
<text text-anchor="start" x="752.5" y="-95" font-family="Helvetica,sans-Serif" font-size="10.00">/src/Madgine/scene/entity</text>
<text text-anchor="middle" x="808.5" y="-84" font-family="Helvetica,sans-Serif" font-size="10.00">/components/skeleton.h</text>
</a>
</g>
</g>
<!-- Node3&#45;&gt;Node8 -->
<g id="edge7" class="edge">
<title>Node3&#45;&gt;Node8</title>
<path fill="none" stroke="#63b8ff" d="M844.29,-274.42C836.02,-233.73 820.02,-155.13 812.54,-118.36"/>
<polygon fill="#63b8ff" stroke="#63b8ff" points="840.83,-274.92 846.25,-284.03 847.69,-273.53 840.83,-274.92"/>
</g>
<!-- Node15 -->
<g id="node15" class="node">
<title>Node15</title>
<g id="a_node15"><a xlink:href="animationdescriptor_8h.html" target="_top" xlink:title=" ">
<polygon fill="white" stroke="#666666" points="1241,-250 1018,-250 1018,-220 1241,-220 1241,-250"/>
<text text-anchor="start" x="1026" y="-238" font-family="Helvetica,sans-Serif" font-size="10.00">plugins/resources/animationloader</text>
<text text-anchor="middle" x="1129.5" y="-227" font-family="Helvetica,sans-Serif" font-size="10.00">/Madgine/animationloader/animationdescriptor.h</text>
</a>
</g>
</g>
<!-- Node3&#45;&gt;Node15 -->
<g id="edge18" class="edge">
<title>Node3&#45;&gt;Node15</title>
<path fill="none" stroke="#63b8ff" d="M923.74,-283.03C968.24,-272.86 1024.21,-260.07 1066.54,-250.39"/>
<polygon fill="#63b8ff" stroke="#63b8ff" points="923.13,-279.58 914.16,-285.22 924.69,-286.4 923.13,-279.58"/>
</g>
<!-- Node18 -->
<g id="node18" class="node">
<title>Node18</title>
<g id="a_node18"><a xlink:href="skeletonloader_8cpp.html" target="_top" xlink:title=" ">
<polygon fill="white" stroke="#666666" points="821.5,-250 615.5,-250 615.5,-220 821.5,-220 821.5,-250"/>
<text text-anchor="start" x="623.5" y="-238" font-family="Helvetica,sans-Serif" font-size="10.00">plugins/resources/skeletonloader</text>
<text text-anchor="middle" x="718.5" y="-227" font-family="Helvetica,sans-Serif" font-size="10.00">/Madgine/skeletonloader/skeletonloader.cpp</text>
</a>
</g>
</g>
<!-- Node3&#45;&gt;Node18 -->
<g id="edge22" class="edge">
<title>Node3&#45;&gt;Node18</title>
<path fill="none" stroke="#63b8ff" d="M809.77,-280.59C789.81,-270.84 766.07,-259.24 747.8,-250.31"/>
<polygon fill="#63b8ff" stroke="#63b8ff" points="808.22,-283.73 818.74,-284.97 811.29,-277.44 808.22,-283.73"/>
</g>
<!-- Node5 -->
<g id="node5" class="node">
<title>Node5</title>
<g id="a_node5"><a xlink:href="scenerenderdata_8cpp.html" target="_top" xlink:title=" ">
<polygon fill="white" stroke="#666666" points="1212,-41 1087,-41 1087,0 1212,0 1212,-41"/>
<text text-anchor="start" x="1095" y="-29" font-family="Helvetica,sans-Serif" font-size="10.00">plugins/misc/scene</text>
<text text-anchor="start" x="1095" y="-18" font-family="Helvetica,sans-Serif" font-size="10.00">/renderer/Madgine/render</text>
<text text-anchor="middle" x="1149.5" y="-7" font-family="Helvetica,sans-Serif" font-size="10.00">/scenerenderdata.cpp</text>
</a>
</g>
</g>
<!-- Node4&#45;&gt;Node5 -->
<g id="edge4" class="edge">
<title>Node4&#45;&gt;Node5</title>
<path fill="none" stroke="#63b8ff" d="M1149.5,-65.36C1149.5,-57.24 1149.5,-48.7 1149.5,-41.33"/>
<polygon fill="#63b8ff" stroke="#63b8ff" points="1146,-65.28 1149.5,-75.28 1153,-65.28 1146,-65.28"/>
</g>
<!-- Node6 -->
<g id="node6" class="node">
<title>Node6</title>
<g id="a_node6"><a xlink:href="animation_8cpp.html" target="_top" xlink:title=" ">
<polygon fill="white" stroke="#666666" points="1372.5,-41 1230.5,-41 1230.5,0 1372.5,0 1372.5,-41"/>
<text text-anchor="start" x="1238.5" y="-29" font-family="Helvetica,sans-Serif" font-size="10.00">plugins/misc/scene</text>
<text text-anchor="start" x="1238.5" y="-18" font-family="Helvetica,sans-Serif" font-size="10.00">/src/Madgine/scene/behavior</text>
<text text-anchor="middle" x="1301.5" y="-7" font-family="Helvetica,sans-Serif" font-size="10.00">/animation.cpp</text>
</a>
</g>
</g>
<!-- Node4&#45;&gt;Node6 -->
<g id="edge5" class="edge">
<title>Node4&#45;&gt;Node6</title>
<path fill="none" stroke="#63b8ff" d="M1199.93,-71.62C1219.77,-61.83 1242.23,-50.75 1260.98,-41.49"/>
<polygon fill="#63b8ff" stroke="#63b8ff" points="1198.61,-68.36 1191.19,-75.93 1201.71,-74.64 1198.61,-68.36"/>
</g>
<!-- Node7 -->
<g id="node7" class="node">
<title>Node7</title>
<g id="a_node7"><a xlink:href="scenemanager_8cpp.html" target="_top" xlink:title=" ">
<polygon fill="white" stroke="#666666" points="1578,-35.5 1391,-35.5 1391,-5.5 1578,-5.5 1578,-35.5"/>
<text text-anchor="start" x="1399" y="-23.5" font-family="Helvetica,sans-Serif" font-size="10.00">plugins/misc/scene</text>
<text text-anchor="middle" x="1484.5" y="-12.5" font-family="Helvetica,sans-Serif" font-size="10.00">/src/Madgine/scene/scenemanager.cpp</text>
</a>
</g>
</g>
<!-- Node4&#45;&gt;Node7 -->
<g id="edge6" class="edge">
<title>Node4&#45;&gt;Node7</title>
<path fill="none" stroke="#63b8ff" d="M1231.68,-76.75C1300.66,-60.98 1367.89,-46.37 1416.49,-35.95"/>
<polygon fill="#63b8ff" stroke="#63b8ff" points="1231.04,-73.31 1222.07,-78.96 1232.6,-80.13 1231.04,-73.31"/>
</g>
<!-- Node8&#45;&gt;Node2 -->
<g id="edge16" class="edge">
<title>Node8&#45;&gt;Node2</title>
<path fill="none" stroke="#63b8ff" d="M733.12,-94.54C608.68,-90.34 352.8,-77.66 139.5,-41 136.75,-40.53 133.95,-40 131.14,-39.43"/>
<polygon fill="#63b8ff" stroke="#63b8ff" points="732.76,-98.03 742.87,-94.86 732.99,-91.03 732.76,-98.03"/>
</g>
<!-- Node8&#45;&gt;Node5 -->
<g id="edge10" class="edge">
<title>Node8&#45;&gt;Node5</title>
<path fill="none" stroke="#63b8ff" d="M884.1,-82.18C938.16,-71.63 1012.54,-56.48 1077.5,-41 1080.52,-40.28 1083.61,-39.52 1086.73,-38.74"/>
<polygon fill="#63b8ff" stroke="#63b8ff" points="883.51,-78.73 874.36,-84.07 884.85,-85.6 883.51,-78.73"/>
</g>
<!-- Node8&#45;&gt;Node6 -->
<g id="edge15" class="edge">
<title>Node8&#45;&gt;Node6</title>
<path fill="none" stroke="#63b8ff" d="M884.23,-88.75C967.35,-79.68 1104.54,-63.05 1221.5,-41 1224.31,-40.47 1227.17,-39.9 1230.05,-39.31"/>
<polygon fill="#63b8ff" stroke="#63b8ff" points="883.94,-85.26 874.37,-89.82 884.69,-92.22 883.94,-85.26"/>
</g>
<!-- Node8&#45;&gt;Node7 -->
<g id="edge17" class="edge">
<title>Node8&#45;&gt;Node7</title>
<path fill="none" stroke="#63b8ff" d="M884.03,-91.37C993.88,-83.42 1204,-66.35 1381.5,-41 1391.59,-39.56 1402.19,-37.82 1412.6,-35.97"/>
<polygon fill="#63b8ff" stroke="#63b8ff" points="883.98,-87.87 874.26,-92.08 884.48,-94.85 883.98,-87.87"/>
</g>
<!-- Node9 -->
<g id="node9" class="node">
<title>Node9</title>
<g id="a_node9"><a xlink:href="litscenerenderdata_8cpp.html" target="_top" xlink:title=" ">
<polygon fill="white" stroke="#666666" points="274,-41 149,-41 149,0 274,0 274,-41"/>
<text text-anchor="start" x="157" y="-29" font-family="Helvetica,sans-Serif" font-size="10.00">plugins/misc/scene</text>
<text text-anchor="start" x="157" y="-18" font-family="Helvetica,sans-Serif" font-size="10.00">/renderer/Madgine/render</text>
<text text-anchor="middle" x="211.5" y="-7" font-family="Helvetica,sans-Serif" font-size="10.00">/litscenerenderdata.cpp</text>
</a>
</g>
</g>
<!-- Node8&#45;&gt;Node9 -->
<g id="edge8" class="edge">
<title>Node8&#45;&gt;Node9</title>
<path fill="none" stroke="#63b8ff" d="M732.71,-92.29C630.16,-85.72 441.82,-70.61 283.5,-41 280.44,-40.43 277.33,-39.79 274.19,-39.11"/>
<polygon fill="#63b8ff" stroke="#63b8ff" points="732.47,-95.78 742.67,-92.91 732.91,-88.79 732.47,-95.78"/>
</g>
<!-- Node10 -->
<g id="node10" class="node">
<title>Node10</title>
<g id="a_node10"><a xlink:href="pointshadowrenderpass_8cpp.html" target="_top" xlink:title=" ">
<polygon fill="white" stroke="#666666" points="432.5,-41 292.5,-41 292.5,0 432.5,0 432.5,-41"/>
<text text-anchor="start" x="300.5" y="-29" font-family="Helvetica,sans-Serif" font-size="10.00">plugins/misc/scene</text>
<text text-anchor="start" x="300.5" y="-18" font-family="Helvetica,sans-Serif" font-size="10.00">/renderer/Madgine/render</text>
<text text-anchor="middle" x="362.5" y="-7" font-family="Helvetica,sans-Serif" font-size="10.00">/pointshadowrenderpass.cpp</text>
</a>
</g>
</g>
<!-- Node8&#45;&gt;Node10 -->
<g id="edge9" class="edge">
<title>Node8&#45;&gt;Node10</title>
<path fill="none" stroke="#63b8ff" d="M733.09,-87.16C658.65,-77.45 541.75,-60.91 441.5,-41 438.59,-40.42 435.63,-39.81 432.64,-39.17"/>
<polygon fill="#63b8ff" stroke="#63b8ff" points="732.34,-90.59 742.71,-88.4 733.24,-83.65 732.34,-90.59"/>
</g>
<!-- Node11 -->
<g id="node11" class="node">
<title>Node11</title>
<g id="a_node11"><a xlink:href="scenerenderpass_8cpp.html" target="_top" xlink:title=" ">
<polygon fill="white" stroke="#666666" points="576,-41 451,-41 451,0 576,0 576,-41"/>
<text text-anchor="start" x="459" y="-29" font-family="Helvetica,sans-Serif" font-size="10.00">plugins/misc/scene</text>
<text text-anchor="start" x="459" y="-18" font-family="Helvetica,sans-Serif" font-size="10.00">/renderer/Madgine/render</text>
<text text-anchor="middle" x="513.5" y="-7" font-family="Helvetica,sans-Serif" font-size="10.00">/scenerenderpass.cpp</text>
</a>
</g>
</g>
<!-- Node8&#45;&gt;Node11 -->
<g id="edge11" class="edge">
<title>Node8&#45;&gt;Node11</title>
<path fill="none" stroke="#63b8ff" d="M733.11,-78.32C689.6,-67.71 633.89,-53.9 584.5,-41 581.78,-40.29 579,-39.56 576.2,-38.81"/>
<polygon fill="#63b8ff" stroke="#63b8ff" points="732.17,-81.69 742.71,-80.66 733.82,-74.89 732.17,-81.69"/>
</g>
<!-- Node12 -->
<g id="node12" class="node">
<title>Node12</title>
<g id="a_node12"><a xlink:href="shadowrenderpass_8cpp.html" target="_top" xlink:title=" ">
<polygon fill="white" stroke="#666666" points="719,-41 594,-41 594,0 719,0 719,-41"/>
<text text-anchor="start" x="602" y="-29" font-family="Helvetica,sans-Serif" font-size="10.00">plugins/misc/scene</text>
<text text-anchor="start" x="602" y="-18" font-family="Helvetica,sans-Serif" font-size="10.00">/renderer/Madgine/render</text>
<text text-anchor="middle" x="656.5" y="-7" font-family="Helvetica,sans-Serif" font-size="10.00">/shadowrenderpass.cpp</text>
</a>
</g>
</g>
<!-- Node8&#45;&gt;Node12 -->
<g id="edge12" class="edge">
<title>Node8&#45;&gt;Node12</title>
<path fill="none" stroke="#63b8ff" d="M758.07,-71.62C738.23,-61.83 715.77,-50.75 697.02,-41.49"/>
<polygon fill="#63b8ff" stroke="#63b8ff" points="756.29,-74.64 766.81,-75.93 759.39,-68.36 756.29,-74.64"/>
</g>
<!-- Node13 -->
<g id="node13" class="node">
<title>Node13</title>
<g id="a_node13"><a xlink:href="shadowscenerenderdata_8cpp.html" target="_top" xlink:title=" ">
<polygon fill="white" stroke="#666666" points="880,-41 737,-41 737,0 880,0 880,-41"/>
<text text-anchor="start" x="745" y="-29" font-family="Helvetica,sans-Serif" font-size="10.00">plugins/misc/scene</text>
<text text-anchor="start" x="745" y="-18" font-family="Helvetica,sans-Serif" font-size="10.00">/renderer/Madgine/render</text>
<text text-anchor="middle" x="808.5" y="-7" font-family="Helvetica,sans-Serif" font-size="10.00">/shadowscenerenderdata.cpp</text>
</a>
</g>
</g>
<!-- Node8&#45;&gt;Node13 -->
<g id="edge13" class="edge">
<title>Node8&#45;&gt;Node13</title>
<path fill="none" stroke="#63b8ff" d="M808.5,-65.36C808.5,-57.24 808.5,-48.7 808.5,-41.33"/>
<polygon fill="#63b8ff" stroke="#63b8ff" points="805,-65.28 808.5,-75.28 812,-65.28 805,-65.28"/>
</g>
<!-- Node14 -->
<g id="node14" class="node">
<title>Node14</title>
<g id="a_node14"><a xlink:href="sceneeditor_8cpp.html" target="_top" xlink:title=" ">
<polygon fill="white" stroke="#666666" points="1068.5,-41 898.5,-41 898.5,0 1068.5,0 1068.5,-41"/>
<text text-anchor="start" x="906.5" y="-29" font-family="Helvetica,sans-Serif" font-size="10.00">plugins/misc/scene</text>
<text text-anchor="start" x="906.5" y="-18" font-family="Helvetica,sans-Serif" font-size="10.00">/renderer_tools/Madgine</text>
<text text-anchor="middle" x="983.5" y="-7" font-family="Helvetica,sans-Serif" font-size="10.00">_Tools/sceneeditor/sceneeditor.cpp</text>
</a>
</g>
</g>
<!-- Node8&#45;&gt;Node14 -->
<g id="edge14" class="edge">
<title>Node8&#45;&gt;Node14</title>
<path fill="none" stroke="#63b8ff" d="M865.31,-72.15C888.45,-62.24 914.86,-50.92 936.85,-41.49"/>
<polygon fill="#63b8ff" stroke="#63b8ff" points="864.14,-68.85 856.33,-76 866.9,-75.28 864.14,-68.85"/>
</g>
<!-- Node16 -->
<g id="node16" class="node">
<title>Node16</title>
<g id="a_node16"><a xlink:href="animationloader_8h.html" target="_top" xlink:title=" ">
<polygon fill="white" stroke="#666666" points="1252.5,-184 1046.5,-184 1046.5,-154 1252.5,-154 1252.5,-184"/>
<text text-anchor="start" x="1054.5" y="-172" font-family="Helvetica,sans-Serif" font-size="10.00">plugins/resources/animationloader</text>
<text text-anchor="middle" x="1149.5" y="-161" font-family="Helvetica,sans-Serif" font-size="10.00">/Madgine/animationloader/animationloader.h</text>
</a>
</g>
</g>
<!-- Node15&#45;&gt;Node16 -->
<g id="edge19" class="edge">
<title>Node15&#45;&gt;Node16</title>
<path fill="none" stroke="#63b8ff" d="M1137.32,-208.97C1139.95,-200.55 1142.8,-191.45 1145.07,-184.16"/>
<polygon fill="#63b8ff" stroke="#63b8ff" points="1134.03,-207.76 1134.39,-218.35 1140.71,-209.85 1134.03,-207.76"/>
</g>
<!-- Node16&#45;&gt;Node4 -->
<g id="edge20" class="edge">
<title>Node16&#45;&gt;Node4</title>
<path fill="none" stroke="#63b8ff" d="M1149.5,-142.36C1149.5,-134.45 1149.5,-125.87 1149.5,-118.42"/>
<polygon fill="#63b8ff" stroke="#63b8ff" points="1146,-142.09 1149.5,-152.09 1153,-142.09 1146,-142.09"/>
</g>
<!-- Node17 -->
<g id="node17" class="node">
<title>Node17</title>
<g id="a_node17"><a xlink:href="animationloader_8cpp.html" target="_top" xlink:title=" ">
<polygon fill="white" stroke="#666666" points="1456,-112.5 1239,-112.5 1239,-82.5 1456,-82.5 1456,-112.5"/>
<text text-anchor="start" x="1247" y="-100.5" font-family="Helvetica,sans-Serif" font-size="10.00">plugins/resources/animationloader</text>
<text text-anchor="middle" x="1347.5" y="-89.5" font-family="Helvetica,sans-Serif" font-size="10.00">/Madgine/animationloader/animationloader.cpp</text>
</a>
</g>
</g>
<!-- Node16&#45;&gt;Node17 -->
<g id="edge21" class="edge">
<title>Node16&#45;&gt;Node17</title>
<path fill="none" stroke="#63b8ff" d="M1201.29,-149.82C1234.12,-138.3 1276.01,-123.59 1306.53,-112.88"/>
<polygon fill="#63b8ff" stroke="#63b8ff" points="1200.23,-146.48 1191.95,-153.1 1202.55,-153.09 1200.23,-146.48"/>
</g>
</g>
</svg>
