<?xml version="1.0" encoding="UTF-8" standalone="no"?>
<!DOCTYPE svg PUBLIC "-//W3C//DTD SVG 1.1//EN"
 "http://www.w3.org/Graphics/SVG/1.1/DTD/svg11.dtd">
<!-- Generated by graphviz version 7.0.5 (20221223.1930)
 -->
<!-- Title: plugins/resources/skeletonloader/Madgine/skeletonloader/skeletondescriptor.h Pages: 1 -->
<svg width="220pt" height="313pt"
 viewBox="0.00 0.00 220.00 313.00" xmlns="http://www.w3.org/2000/svg" xmlns:xlink="http://www.w3.org/1999/xlink">
<g id="graph0" class="graph" transform="scale(1 1) rotate(0) translate(4 309)">
<title>plugins/resources/skeletonloader/Madgine/skeletonloader/skeletondescriptor.h</title>
<!-- Node1 -->
<g id="node1" class="node">
<title>Node1</title>
<g id="a_node1"><a xlink:title=" ">
<polygon fill="#999999" stroke="#666666" points="212,-305 0,-305 0,-275 212,-275 212,-305"/>
<text text-anchor="start" x="8" y="-293" font-family="Helvetica,sans-Serif" font-size="10.00">plugins/resources/skeletonloader</text>
<text text-anchor="middle" x="106" y="-282" font-family="Helvetica,sans-Serif" font-size="10.00">/Madgine/skeletonloader/skeletondescriptor.h</text>
</a>
</g>
</g>
<!-- Node2 -->
<g id="node2" class="node">
<title>Node2</title>
<g id="a_node2"><a xlink:href="matrix4_8h.html" target="_top" xlink:title=" ">
<polygon fill="white" stroke="#666666" points="158.5,-239 53.5,-239 53.5,-220 158.5,-220 158.5,-239"/>
<text text-anchor="middle" x="106" y="-227" font-family="Helvetica,sans-Serif" font-size="10.00">Meta/math/matrix4.h</text>
</a>
</g>
</g>
<!-- Node1&#45;&gt;Node2 -->
<g id="edge1" class="edge">
<title>Node1&#45;&gt;Node2</title>
<path fill="none" stroke="#63b8ff" d="M106,-274.54C106,-267.34 106,-258.53 106,-250.68"/>
<polygon fill="#63b8ff" stroke="#63b8ff" points="109.5,-250.69 106,-240.69 102.5,-250.69 109.5,-250.69"/>
</g>
<!-- Node3 -->
<g id="node3" class="node">
<title>Node3</title>
<g id="a_node3"><a xlink:href="matrix3_8h.html" target="_top" xlink:title=" ">
<polygon fill="white" stroke="#666666" points="97,-184 41,-184 41,-165 97,-165 97,-184"/>
<text text-anchor="middle" x="69" y="-172" font-family="Helvetica,sans-Serif" font-size="10.00">matrix3.h</text>
</a>
</g>
</g>
<!-- Node2&#45;&gt;Node3 -->
<g id="edge2" class="edge">
<title>Node2&#45;&gt;Node3</title>
<path fill="none" stroke="#63b8ff" d="M99.89,-219.75C94.99,-212.73 87.95,-202.64 81.83,-193.87"/>
<polygon fill="#63b8ff" stroke="#63b8ff" points="84.7,-191.88 76.11,-185.68 78.96,-195.89 84.7,-191.88"/>
</g>
<!-- Node9 -->
<g id="node9" class="node">
<title>Node9</title>
<g id="a_node9"><a xlink:href="vector4_8h.html" target="_top" xlink:title=" ">
<polygon fill="white" stroke="#666666" points="171,-184 115,-184 115,-165 171,-165 171,-184"/>
<text text-anchor="middle" x="143" y="-172" font-family="Helvetica,sans-Serif" font-size="10.00">vector4.h</text>
</a>
</g>
</g>
<!-- Node2&#45;&gt;Node9 -->
<g id="edge10" class="edge">
<title>Node2&#45;&gt;Node9</title>
<path fill="none" stroke="#63b8ff" d="M112.11,-219.75C117.01,-212.73 124.05,-202.64 130.17,-193.87"/>
<polygon fill="#63b8ff" stroke="#63b8ff" points="133.04,-195.89 135.89,-185.68 127.3,-191.88 133.04,-195.89"/>
</g>
<!-- Node4 -->
<g id="node4" class="node">
<title>Node4</title>
<g id="a_node4"><a xlink:href="vector3_8h.html" target="_top" xlink:title=" ">
<polygon fill="white" stroke="#666666" points="134,-129 78,-129 78,-110 134,-110 134,-129"/>
<text text-anchor="middle" x="106" y="-117" font-family="Helvetica,sans-Serif" font-size="10.00">vector3.h</text>
</a>
</g>
</g>
<!-- Node3&#45;&gt;Node4 -->
<g id="edge3" class="edge">
<title>Node3&#45;&gt;Node4</title>
<path fill="none" stroke="#63b8ff" d="M75.11,-164.75C80.01,-157.73 87.05,-147.64 93.17,-138.87"/>
<polygon fill="#63b8ff" stroke="#63b8ff" points="96.04,-140.89 98.89,-130.68 90.3,-136.88 96.04,-140.89"/>
</g>
<!-- Node5 -->
<g id="node5" class="node">
<title>Node5</title>
<g id="a_node5"><a xlink:href="common_8h.html" target="_top" xlink:title=" ">
<polygon fill="white" stroke="#666666" points="107,-19 45,-19 45,0 107,0 107,-19"/>
<text text-anchor="middle" x="76" y="-7" font-family="Helvetica,sans-Serif" font-size="10.00">common.h</text>
</a>
</g>
</g>
<!-- Node4&#45;&gt;Node5 -->
<g id="edge4" class="edge">
<title>Node4&#45;&gt;Node5</title>
<path fill="none" stroke="#63b8ff" d="M95.21,-109.55C86.26,-101.36 74.19,-88.36 69,-74 63.91,-59.93 66.13,-43.06 69.37,-30.24"/>
<polygon fill="#63b8ff" stroke="#63b8ff" points="72.66,-31.46 72.15,-20.87 65.95,-29.46 72.66,-31.46"/>
</g>
<!-- Node6 -->
<g id="node6" class="node">
<title>Node6</title>
<g id="a_node6"><a xlink:href="vector2_8h.html" target="_top" xlink:title=" ">
<polygon fill="white" stroke="#666666" points="134,-74 78,-74 78,-55 134,-55 134,-74"/>
<text text-anchor="middle" x="106" y="-62" font-family="Helvetica,sans-Serif" font-size="10.00">vector2.h</text>
</a>
</g>
</g>
<!-- Node4&#45;&gt;Node6 -->
<g id="edge5" class="edge">
<title>Node4&#45;&gt;Node6</title>
<path fill="none" stroke="#63b8ff" d="M106,-109.75C106,-103.27 106,-94.16 106,-85.9"/>
<polygon fill="#63b8ff" stroke="#63b8ff" points="109.5,-85.96 106,-75.96 102.5,-85.96 109.5,-85.96"/>
</g>
<!-- Node8 -->
<g id="node8" class="node">
<title>Node8</title>
<g id="a_node8"><a xlink:href="vector3i_8h.html" target="_top" xlink:title=" ">
<polygon fill="white" stroke="#666666" points="211.5,-74 152.5,-74 152.5,-55 211.5,-55 211.5,-74"/>
<text text-anchor="middle" x="182" y="-62" font-family="Helvetica,sans-Serif" font-size="10.00">vector3i.h</text>
</a>
</g>
</g>
<!-- Node4&#45;&gt;Node8 -->
<g id="edge8" class="edge">
<title>Node4&#45;&gt;Node8</title>
<path fill="none" stroke="#63b8ff" d="M118.89,-109.51C130.1,-101.7 146.57,-90.21 159.88,-80.93"/>
<polygon fill="#63b8ff" stroke="#63b8ff" points="161.86,-83.81 168.06,-75.22 157.85,-78.07 161.86,-83.81"/>
</g>
<!-- Node6&#45;&gt;Node5 -->
<g id="edge7" class="edge">
<title>Node6&#45;&gt;Node5</title>
<path fill="none" stroke="#63b8ff" d="M101.05,-54.75C97.16,-47.88 91.61,-38.08 86.72,-29.45"/>
<polygon fill="#63b8ff" stroke="#63b8ff" points="89.78,-27.74 81.81,-20.76 83.69,-31.19 89.78,-27.74"/>
</g>
<!-- Node7 -->
<g id="node7" class="node">
<title>Node7</title>
<g id="a_node7"><a xlink:href="vector2i_8h.html" target="_top" xlink:title=" ">
<polygon fill="white" stroke="#666666" points="197.5,-19 138.5,-19 138.5,0 197.5,0 197.5,-19"/>
<text text-anchor="middle" x="168" y="-7" font-family="Helvetica,sans-Serif" font-size="10.00">vector2i.h</text>
</a>
</g>
</g>
<!-- Node6&#45;&gt;Node7 -->
<g id="edge6" class="edge">
<title>Node6&#45;&gt;Node7</title>
<path fill="none" stroke="#63b8ff" d="M116.52,-54.51C125.39,-46.93 138.31,-35.88 148.99,-26.75"/>
<polygon fill="#63b8ff" stroke="#63b8ff" points="151.16,-29.5 156.49,-20.34 146.61,-24.18 151.16,-29.5"/>
</g>
<!-- Node8&#45;&gt;Node7 -->
<g id="edge9" class="edge">
<title>Node8&#45;&gt;Node7</title>
<path fill="none" stroke="#63b8ff" d="M179.69,-54.75C177.94,-48.11 175.46,-38.73 173.23,-30.31"/>
<polygon fill="#63b8ff" stroke="#63b8ff" points="176.69,-29.68 170.75,-20.91 169.92,-31.47 176.69,-29.68"/>
</g>
<!-- Node9&#45;&gt;Node4 -->
<g id="edge11" class="edge">
<title>Node9&#45;&gt;Node4</title>
<path fill="none" stroke="#63b8ff" d="M136.89,-164.75C131.99,-157.73 124.95,-147.64 118.83,-138.87"/>
<polygon fill="#63b8ff" stroke="#63b8ff" points="121.7,-136.88 113.11,-130.68 115.96,-140.89 121.7,-136.88"/>
</g>
</g>
</svg>
