<?xml version="1.0" encoding="UTF-8" standalone="no"?>
<!DOCTYPE svg PUBLIC "-//W3C//DTD SVG 1.1//EN"
 "http://www.w3.org/Graphics/SVG/1.1/DTD/svg11.dtd">
<!-- Generated by graphviz version 7.0.5 (20221223.1930)
 -->
<!-- Title: plugins/misc/scene/src/Madgine/scene/entity/components/skeleton.h Pages: 1 -->
<svg width="1585pt" height="126pt"
 viewBox="0.00 0.00 1585.00 126.00" xmlns="http://www.w3.org/2000/svg" xmlns:xlink="http://www.w3.org/1999/xlink">
<g id="graph0" class="graph" transform="scale(1 1) rotate(0) translate(4 122)">
<title>plugins/misc/scene/src/Madgine/scene/entity/components/skeleton.h</title>
<!-- Node1 -->
<g id="node1" class="node">
<title>Node1</title>
<g id="a_node1"><a xlink:title=" ">
<polygon fill="#999999" stroke="#666666" points="790.5,-118 662.5,-118 662.5,-77 790.5,-77 790.5,-118"/>
<text text-anchor="start" x="670.5" y="-106" font-family="Helvetica,sans-Serif" font-size="10.00">plugins/misc/scene</text>
<text text-anchor="start" x="670.5" y="-95" font-family="Helvetica,sans-Serif" font-size="10.00">/src/Madgine/scene/entity</text>
<text text-anchor="middle" x="726.5" y="-84" font-family="Helvetica,sans-Serif" font-size="10.00">/components/skeleton.h</text>
</a>
</g>
</g>
<!-- Node2 -->
<g id="node2" class="node">
<title>Node2</title>
<g id="a_node2"><a xlink:href="litscenerenderdata_8cpp.html" target="_top" xlink:title=" ">
<polygon fill="white" stroke="#666666" points="125,-41 0,-41 0,0 125,0 125,-41"/>
<text text-anchor="start" x="8" y="-29" font-family="Helvetica,sans-Serif" font-size="10.00">plugins/misc/scene</text>
<text text-anchor="start" x="8" y="-18" font-family="Helvetica,sans-Serif" font-size="10.00">/renderer/Madgine/render</text>
<text text-anchor="middle" x="62.5" y="-7" font-family="Helvetica,sans-Serif" font-size="10.00">/litscenerenderdata.cpp</text>
</a>
</g>
</g>
<!-- Node1&#45;&gt;Node2 -->
<g id="edge1" class="edge">
<title>Node1&#45;&gt;Node2</title>
<path fill="none" stroke="#63b8ff" d="M650.79,-93.55C537.66,-88.2 318.15,-74.23 134.5,-41 131.44,-40.45 128.32,-39.83 125.18,-39.15"/>
<polygon fill="#63b8ff" stroke="#63b8ff" points="650.4,-97.03 660.55,-94 650.72,-90.04 650.4,-97.03"/>
</g>
<!-- Node3 -->
<g id="node3" class="node">
<title>Node3</title>
<g id="a_node3"><a xlink:href="pointshadowrenderpass_8cpp.html" target="_top" xlink:title=" ">
<polygon fill="white" stroke="#666666" points="283.5,-41 143.5,-41 143.5,0 283.5,0 283.5,-41"/>
<text text-anchor="start" x="151.5" y="-29" font-family="Helvetica,sans-Serif" font-size="10.00">plugins/misc/scene</text>
<text text-anchor="start" x="151.5" y="-18" font-family="Helvetica,sans-Serif" font-size="10.00">/renderer/Madgine/render</text>
<text text-anchor="middle" x="213.5" y="-7" font-family="Helvetica,sans-Serif" font-size="10.00">/pointshadowrenderpass.cpp</text>
</a>
</g>
</g>
<!-- Node1&#45;&gt;Node3 -->
<g id="edge2" class="edge">
<title>Node1&#45;&gt;Node3</title>
<path fill="none" stroke="#63b8ff" d="M650.83,-89.48C563.9,-80.81 417.2,-64.28 292.5,-41 289.58,-40.46 286.61,-39.87 283.62,-39.25"/>
<polygon fill="#63b8ff" stroke="#63b8ff" points="650.36,-92.95 660.66,-90.46 651.05,-85.99 650.36,-92.95"/>
</g>
<!-- Node4 -->
<g id="node4" class="node">
<title>Node4</title>
<g id="a_node4"><a xlink:href="scenerenderdata_8cpp.html" target="_top" xlink:title=" ">
<polygon fill="white" stroke="#666666" points="427,-41 302,-41 302,0 427,0 427,-41"/>
<text text-anchor="start" x="310" y="-29" font-family="Helvetica,sans-Serif" font-size="10.00">plugins/misc/scene</text>
<text text-anchor="start" x="310" y="-18" font-family="Helvetica,sans-Serif" font-size="10.00">/renderer/Madgine/render</text>
<text text-anchor="middle" x="364.5" y="-7" font-family="Helvetica,sans-Serif" font-size="10.00">/scenerenderdata.cpp</text>
</a>
</g>
</g>
<!-- Node1&#45;&gt;Node4 -->
<g id="edge3" class="edge">
<title>Node1&#45;&gt;Node4</title>
<path fill="none" stroke="#63b8ff" d="M650.96,-83.79C592.02,-73.47 508.21,-57.89 435.5,-41 432.76,-40.36 429.97,-39.69 427.15,-39"/>
<polygon fill="#63b8ff" stroke="#63b8ff" points="650.1,-87.2 660.55,-85.46 651.3,-80.3 650.1,-87.2"/>
</g>
<!-- Node5 -->
<g id="node5" class="node">
<title>Node5</title>
<g id="a_node5"><a xlink:href="scenerenderpass_8cpp.html" target="_top" xlink:title=" ">
<polygon fill="white" stroke="#666666" points="570,-41 445,-41 445,0 570,0 570,-41"/>
<text text-anchor="start" x="453" y="-29" font-family="Helvetica,sans-Serif" font-size="10.00">plugins/misc/scene</text>
<text text-anchor="start" x="453" y="-18" font-family="Helvetica,sans-Serif" font-size="10.00">/renderer/Madgine/render</text>
<text text-anchor="middle" x="507.5" y="-7" font-family="Helvetica,sans-Serif" font-size="10.00">/scenerenderpass.cpp</text>
</a>
</g>
</g>
<!-- Node1&#45;&gt;Node5 -->
<g id="edge4" class="edge">
<title>Node1&#45;&gt;Node5</title>
<path fill="none" stroke="#63b8ff" d="M657.75,-72.95C628.24,-62.85 594.14,-51.17 565.88,-41.49"/>
<polygon fill="#63b8ff" stroke="#63b8ff" points="656.36,-76.18 666.96,-76.11 658.63,-69.56 656.36,-76.18"/>
</g>
<!-- Node6 -->
<g id="node6" class="node">
<title>Node6</title>
<g id="a_node6"><a xlink:href="shadowrenderpass_8cpp.html" target="_top" xlink:title=" ">
<polygon fill="white" stroke="#666666" points="713,-41 588,-41 588,0 713,0 713,-41"/>
<text text-anchor="start" x="596" y="-29" font-family="Helvetica,sans-Serif" font-size="10.00">plugins/misc/scene</text>
<text text-anchor="start" x="596" y="-18" font-family="Helvetica,sans-Serif" font-size="10.00">/renderer/Madgine/render</text>
<text text-anchor="middle" x="650.5" y="-7" font-family="Helvetica,sans-Serif" font-size="10.00">/shadowrenderpass.cpp</text>
</a>
</g>
</g>
<!-- Node1&#45;&gt;Node6 -->
<g id="edge5" class="edge">
<title>Node1&#45;&gt;Node6</title>
<path fill="none" stroke="#63b8ff" d="M698.37,-68.74C689.15,-59.64 679.1,-49.72 670.6,-41.33"/>
<polygon fill="#63b8ff" stroke="#63b8ff" points="695.88,-71.2 705.45,-75.73 700.8,-66.22 695.88,-71.2"/>
</g>
<!-- Node7 -->
<g id="node7" class="node">
<title>Node7</title>
<g id="a_node7"><a xlink:href="shadowscenerenderdata_8cpp.html" target="_top" xlink:title=" ">
<polygon fill="white" stroke="#666666" points="874,-41 731,-41 731,0 874,0 874,-41"/>
<text text-anchor="start" x="739" y="-29" font-family="Helvetica,sans-Serif" font-size="10.00">plugins/misc/scene</text>
<text text-anchor="start" x="739" y="-18" font-family="Helvetica,sans-Serif" font-size="10.00">/renderer/Madgine/render</text>
<text text-anchor="middle" x="802.5" y="-7" font-family="Helvetica,sans-Serif" font-size="10.00">/shadowscenerenderdata.cpp</text>
</a>
</g>
</g>
<!-- Node1&#45;&gt;Node7 -->
<g id="edge6" class="edge">
<title>Node1&#45;&gt;Node7</title>
<path fill="none" stroke="#63b8ff" d="M754.63,-68.74C763.85,-59.64 773.9,-49.72 782.4,-41.33"/>
<polygon fill="#63b8ff" stroke="#63b8ff" points="752.2,-66.22 747.55,-75.73 757.12,-71.2 752.2,-66.22"/>
</g>
<!-- Node8 -->
<g id="node8" class="node">
<title>Node8</title>
<g id="a_node8"><a xlink:href="sceneeditor_8cpp.html" target="_top" xlink:title=" ">
<polygon fill="white" stroke="#666666" points="1062.5,-41 892.5,-41 892.5,0 1062.5,0 1062.5,-41"/>
<text text-anchor="start" x="900.5" y="-29" font-family="Helvetica,sans-Serif" font-size="10.00">plugins/misc/scene</text>
<text text-anchor="start" x="900.5" y="-18" font-family="Helvetica,sans-Serif" font-size="10.00">/renderer_tools/Madgine</text>
<text text-anchor="middle" x="977.5" y="-7" font-family="Helvetica,sans-Serif" font-size="10.00">_Tools/sceneeditor/sceneeditor.cpp</text>
</a>
</g>
</g>
<!-- Node1&#45;&gt;Node8 -->
<g id="edge7" class="edge">
<title>Node1&#45;&gt;Node8</title>
<path fill="none" stroke="#63b8ff" d="M801.83,-73.99C836.46,-63.64 877.2,-51.47 910.73,-41.45"/>
<polygon fill="#63b8ff" stroke="#63b8ff" points="800.84,-70.63 792.26,-76.85 802.85,-77.34 800.84,-70.63"/>
</g>
<!-- Node9 -->
<g id="node9" class="node">
<title>Node9</title>
<g id="a_node9"><a xlink:href="animation_8cpp.html" target="_top" xlink:title=" ">
<polygon fill="white" stroke="#666666" points="1222.5,-41 1080.5,-41 1080.5,0 1222.5,0 1222.5,-41"/>
<text text-anchor="start" x="1088.5" y="-29" font-family="Helvetica,sans-Serif" font-size="10.00">plugins/misc/scene</text>
<text text-anchor="start" x="1088.5" y="-18" font-family="Helvetica,sans-Serif" font-size="10.00">/src/Madgine/scene/behavior</text>
<text text-anchor="middle" x="1151.5" y="-7" font-family="Helvetica,sans-Serif" font-size="10.00">/animation.cpp</text>
</a>
</g>
</g>
<!-- Node1&#45;&gt;Node9 -->
<g id="edge8" class="edge">
<title>Node1&#45;&gt;Node9</title>
<path fill="none" stroke="#63b8ff" d="M802.35,-86.07C872.47,-76.01 979.4,-59.6 1071.5,-41 1074.3,-40.43 1077.16,-39.84 1080.03,-39.22"/>
<polygon fill="#63b8ff" stroke="#63b8ff" points="801.9,-82.6 792.49,-87.48 802.89,-89.53 801.9,-82.6"/>
</g>
<!-- Node10 -->
<g id="node10" class="node">
<title>Node10</title>
<g id="a_node10"><a xlink:href="skeleton_8cpp.html" target="_top" xlink:title=" ">
<polygon fill="white" stroke="#666666" points="1372,-41 1241,-41 1241,0 1372,0 1372,-41"/>
<text text-anchor="start" x="1249" y="-29" font-family="Helvetica,sans-Serif" font-size="10.00">plugins/misc/scene</text>
<text text-anchor="start" x="1249" y="-18" font-family="Helvetica,sans-Serif" font-size="10.00">/src/Madgine/scene/entity</text>
<text text-anchor="middle" x="1306.5" y="-7" font-family="Helvetica,sans-Serif" font-size="10.00">/components/skeleton.cpp</text>
</a>
</g>
</g>
<!-- Node1&#45;&gt;Node10 -->
<g id="edge9" class="edge">
<title>Node1&#45;&gt;Node10</title>
<path fill="none" stroke="#63b8ff" d="M802.11,-91.62C901.29,-84.45 1080.47,-68.78 1231.5,-41 1234.54,-40.44 1237.65,-39.82 1240.77,-39.16"/>
<polygon fill="#63b8ff" stroke="#63b8ff" points="801.94,-88.13 792.22,-92.33 802.44,-95.11 801.94,-88.13"/>
</g>
<!-- Node11 -->
<g id="node11" class="node">
<title>Node11</title>
<g id="a_node11"><a xlink:href="scenemanager_8cpp.html" target="_top" xlink:title=" ">
<polygon fill="white" stroke="#666666" points="1577,-35.5 1390,-35.5 1390,-5.5 1577,-5.5 1577,-35.5"/>
<text text-anchor="start" x="1398" y="-23.5" font-family="Helvetica,sans-Serif" font-size="10.00">plugins/misc/scene</text>
<text text-anchor="middle" x="1483.5" y="-12.5" font-family="Helvetica,sans-Serif" font-size="10.00">/src/Madgine/scene/scenemanager.cpp</text>
</a>
</g>
</g>
<!-- Node1&#45;&gt;Node11 -->
<g id="edge10" class="edge">
<title>Node1&#45;&gt;Node11</title>
<path fill="none" stroke="#63b8ff" d="M802.33,-92.65C924.64,-85.87 1172.86,-69.7 1381.5,-41 1391.68,-39.6 1402.38,-37.86 1412.87,-35.99"/>
<polygon fill="#63b8ff" stroke="#63b8ff" points="802.2,-89.15 792.41,-93.2 802.58,-96.14 802.2,-89.15"/>
</g>
</g>
</svg>
