<?xml version="1.0" encoding="UTF-8" standalone="no"?>
<!DOCTYPE svg PUBLIC "-//W3C//DTD SVG 1.1//EN"
 "http://www.w3.org/Graphics/SVG/1.1/DTD/svg11.dtd">
<!-- Generated by graphviz version 7.0.5 (20221223.1930)
 -->
<!-- Title: src/Interfaces/socket/socketapi.h Pages: 1 -->
<svg width="236pt" height="258pt"
 viewBox="0.00 0.00 235.50 258.00" xmlns="http://www.w3.org/2000/svg" xmlns:xlink="http://www.w3.org/1999/xlink">
<g id="graph0" class="graph" transform="scale(1 1) rotate(0) translate(4 254)">
<title>src/Interfaces/socket/socketapi.h</title>
<!-- Node1 -->
<g id="node1" class="node">
<title>Node1</title>
<g id="a_node1"><a xlink:title=" ">
<polygon fill="#999999" stroke="#666666" points="162,-250 53,-250 53,-220 162,-220 162,-250"/>
<text text-anchor="start" x="61" y="-238" font-family="Helvetica,sans-Serif" font-size="10.00">src/Interfaces/socket</text>
<text text-anchor="middle" x="107.5" y="-227" font-family="Helvetica,sans-Serif" font-size="10.00">/socketapi.h</text>
</a>
</g>
</g>
<!-- Node2 -->
<g id="node2" class="node">
<title>Node2</title>
<g id="a_node2"><a xlink:href="timeout_8h.html" target="_top" xlink:title=" ">
<polygon fill="white" stroke="#666666" points="93,-184 0,-184 0,-165 93,-165 93,-184"/>
<text text-anchor="middle" x="46.5" y="-172" font-family="Helvetica,sans-Serif" font-size="10.00">Generic/timeout.h</text>
</a>
</g>
</g>
<!-- Node1&#45;&gt;Node2 -->
<g id="edge1" class="edge">
<title>Node1&#45;&gt;Node2</title>
<path fill="none" stroke="#63b8ff" d="M92.42,-219.54C83.74,-211.22 72.8,-200.72 63.78,-192.07"/>
<polygon fill="#63b8ff" stroke="#63b8ff" points="66.28,-189.62 56.64,-185.22 61.43,-194.67 66.28,-189.62"/>
</g>
<!-- Node3 -->
<g id="node3" class="node">
<title>Node3</title>
<g id="a_node3"><a xlink:href="genericresult_8h.html" target="_top" xlink:title=" ">
<polygon fill="white" stroke="#666666" points="227.5,-184 111.5,-184 111.5,-165 227.5,-165 227.5,-184"/>
<text text-anchor="middle" x="169.5" y="-172" font-family="Helvetica,sans-Serif" font-size="10.00">Generic/genericresult.h</text>
</a>
</g>
</g>
<!-- Node1&#45;&gt;Node3 -->
<g id="edge2" class="edge">
<title>Node1&#45;&gt;Node3</title>
<path fill="none" stroke="#63b8ff" d="M122.83,-219.54C131.65,-211.22 142.77,-200.72 151.94,-192.07"/>
<polygon fill="#63b8ff" stroke="#63b8ff" points="154.33,-194.62 159.2,-185.21 149.53,-189.53 154.33,-194.62"/>
</g>
<!-- Node4 -->
<g id="node4" class="node">
<title>Node4</title>
<g id="a_node4"><a xlink:href="enum_8h.html" target="_top" xlink:title=" ">
<polygon fill="white" stroke="#666666" points="193.5,-129 145.5,-129 145.5,-110 193.5,-110 193.5,-129"/>
<text text-anchor="middle" x="169.5" y="-117" font-family="Helvetica,sans-Serif" font-size="10.00">enum.h</text>
</a>
</g>
</g>
<!-- Node3&#45;&gt;Node4 -->
<g id="edge3" class="edge">
<title>Node3&#45;&gt;Node4</title>
<path fill="none" stroke="#63b8ff" d="M169.5,-164.75C169.5,-158.27 169.5,-149.16 169.5,-140.9"/>
<polygon fill="#63b8ff" stroke="#63b8ff" points="173,-140.96 169.5,-130.96 166,-140.96 173,-140.96"/>
</g>
<!-- Node5 -->
<g id="node5" class="node">
<title>Node5</title>
<g id="a_node5"><a xlink:href="array_8h.html" target="_top" xlink:title=" ">
<polygon fill="white" stroke="#666666" points="201.5,-74 137.5,-74 137.5,-55 201.5,-55 201.5,-74"/>
<text text-anchor="middle" x="169.5" y="-62" font-family="Helvetica,sans-Serif" font-size="10.00">bits/array.h</text>
</a>
</g>
</g>
<!-- Node4&#45;&gt;Node5 -->
<g id="edge4" class="edge">
<title>Node4&#45;&gt;Node5</title>
<path fill="none" stroke="#63b8ff" d="M169.5,-109.75C169.5,-103.27 169.5,-94.16 169.5,-85.9"/>
<polygon fill="#63b8ff" stroke="#63b8ff" points="173,-85.96 169.5,-75.96 166,-85.96 173,-85.96"/>
</g>
<!-- Node6 -->
<g id="node6" class="node">
<title>Node6</title>
<g id="a_node6"><a xlink:href="types_8h.html" target="_top" xlink:title=" ">
<polygon fill="white" stroke="#666666" points="193,-19 146,-19 146,0 193,0 193,-19"/>
<text text-anchor="middle" x="169.5" y="-7" font-family="Helvetica,sans-Serif" font-size="10.00">types.h</text>
</a>
</g>
</g>
<!-- Node5&#45;&gt;Node6 -->
<g id="edge5" class="edge">
<title>Node5&#45;&gt;Node6</title>
<path fill="none" stroke="#63b8ff" d="M169.5,-54.75C169.5,-48.27 169.5,-39.16 169.5,-30.9"/>
<polygon fill="#63b8ff" stroke="#63b8ff" points="173,-30.96 169.5,-20.96 166,-30.96 173,-30.96"/>
</g>
</g>
</svg>
