<?xml version="1.0" encoding="UTF-8" standalone="no"?>
<!DOCTYPE svg PUBLIC "-//W3C//DTD SVG 1.1//EN"
 "http://www.w3.org/Graphics/SVG/1.1/DTD/svg11.dtd">
<!-- Generated by graphviz version 7.0.5 (20221223.1930)
 -->
<!-- Title: src/Modules/threading/awaitables/awaitablesender.h Pages: 1 -->
<svg width="717pt" height="203pt"
 viewBox="0.00 0.00 717.00 203.00" xmlns="http://www.w3.org/2000/svg" xmlns:xlink="http://www.w3.org/1999/xlink">
<g id="graph0" class="graph" transform="scale(1 1) rotate(0) translate(4 199)">
<title>src/Modules/threading/awaitables/awaitablesender.h</title>
<!-- Node1 -->
<g id="node1" class="node">
<title>Node1</title>
<g id="a_node1"><a xlink:title=" ">
<polygon fill="#999999" stroke="#666666" points="517,-195 370,-195 370,-165 517,-165 517,-195"/>
<text text-anchor="start" x="378" y="-183" font-family="Helvetica,sans-Serif" font-size="10.00">src/Modules/threading</text>
<text text-anchor="middle" x="443.5" y="-172" font-family="Helvetica,sans-Serif" font-size="10.00">/awaitables/awaitablesender.h</text>
</a>
</g>
</g>
<!-- Node2 -->
<g id="node2" class="node">
<title>Node2</title>
<g id="a_node2"><a xlink:href="algorithm_8h.html" target="_top" xlink:title=" ">
<polygon fill="white" stroke="#666666" points="263,-129 118,-129 118,-110 263,-110 263,-129"/>
<text text-anchor="middle" x="190.5" y="-117" font-family="Helvetica,sans-Serif" font-size="10.00">Generic/execution/algorithm.h</text>
</a>
</g>
</g>
<!-- Node1&#45;&gt;Node2 -->
<g id="edge1" class="edge">
<title>Node1&#45;&gt;Node2</title>
<path fill="none" stroke="#63b8ff" d="M380.96,-164.54C337.58,-154.51 280.59,-141.33 240.29,-132.01"/>
<polygon fill="#63b8ff" stroke="#63b8ff" points="241.14,-128.62 230.6,-129.77 239.56,-135.44 241.14,-128.62"/>
</g>
<!-- Node9 -->
<g id="node9" class="node">
<title>Node9</title>
<g id="a_node9"><a xlink:href="storage_8h.html" target="_top" xlink:title=" ">
<polygon fill="white" stroke="#666666" points="463.5,-74 407.5,-74 407.5,-55 463.5,-55 463.5,-74"/>
<text text-anchor="middle" x="435.5" y="-62" font-family="Helvetica,sans-Serif" font-size="10.00">storage.h</text>
</a>
</g>
</g>
<!-- Node1&#45;&gt;Node9 -->
<g id="edge11" class="edge">
<title>Node1&#45;&gt;Node9</title>
<path fill="none" stroke="#63b8ff" d="M442.49,-164.63C441.07,-144.59 438.51,-108.17 436.91,-85.49"/>
<polygon fill="#63b8ff" stroke="#63b8ff" points="440.42,-85.47 436.22,-75.74 433.43,-85.96 440.42,-85.47"/>
</g>
<!-- Node10 -->
<g id="node10" class="node">
<title>Node10</title>
<g id="a_node10"><a xlink:href="src_2_generic_2execution_2sender_8h.html" target="_top" xlink:title=" ">
<polygon fill="white" stroke="#666666" points="415.5,-129 281.5,-129 281.5,-110 415.5,-110 415.5,-129"/>
<text text-anchor="middle" x="348.5" y="-117" font-family="Helvetica,sans-Serif" font-size="10.00">Generic/execution/sender.h</text>
</a>
</g>
</g>
<!-- Node1&#45;&gt;Node10 -->
<g id="edge9" class="edge">
<title>Node1&#45;&gt;Node10</title>
<path fill="none" stroke="#63b8ff" d="M420.02,-164.54C405.6,-155.66 387.19,-144.32 372.65,-135.37"/>
<polygon fill="#63b8ff" stroke="#63b8ff" points="374.5,-132.4 364.15,-130.14 370.83,-138.36 374.5,-132.4"/>
</g>
<!-- Node11 -->
<g id="node11" class="node">
<title>Node11</title>
<g id="a_node11"><a xlink:href="makeowning_8h.html" target="_top" xlink:title=" ">
<polygon fill="white" stroke="#666666" points="587.5,-129 471.5,-129 471.5,-110 587.5,-110 587.5,-129"/>
<text text-anchor="middle" x="529.5" y="-117" font-family="Helvetica,sans-Serif" font-size="10.00">Generic/makeowning.h</text>
</a>
</g>
</g>
<!-- Node1&#45;&gt;Node11 -->
<g id="edge12" class="edge">
<title>Node1&#45;&gt;Node11</title>
<path fill="none" stroke="#63b8ff" d="M464.76,-164.54C477.68,-155.75 494.16,-144.54 507.25,-135.63"/>
<polygon fill="#63b8ff" stroke="#63b8ff" points="508.94,-138.72 515.24,-130.2 505.01,-132.93 508.94,-138.72"/>
</g>
<!-- Node12 -->
<g id="node12" class="node">
<title>Node12</title>
<g id="a_node12"><a xlink:href="withresult_8h.html" target="_top" xlink:title=" ">
<polygon fill="white" stroke="#666666" points="709,-129 606,-129 606,-110 709,-110 709,-129"/>
<text text-anchor="middle" x="657.5" y="-117" font-family="Helvetica,sans-Serif" font-size="10.00">Generic/withresult.h</text>
</a>
</g>
</g>
<!-- Node1&#45;&gt;Node12 -->
<g id="edge13" class="edge">
<title>Node1&#45;&gt;Node12</title>
<path fill="none" stroke="#63b8ff" d="M496.4,-164.54C532.54,-154.66 579.85,-141.73 613.84,-132.43"/>
<polygon fill="#63b8ff" stroke="#63b8ff" points="614.64,-135.84 623.37,-129.83 612.8,-129.09 614.64,-135.84"/>
</g>
<!-- Node3 -->
<g id="node3" class="node">
<title>Node3</title>
<g id="a_node3"><a xlink:href="delayedconstruct_8h.html" target="_top" xlink:title=" ">
<polygon fill="white" stroke="#666666" points="105,-74 0,-74 0,-55 105,-55 105,-74"/>
<text text-anchor="middle" x="52.5" y="-62" font-family="Helvetica,sans-Serif" font-size="10.00">../delayedconstruct.h</text>
</a>
</g>
</g>
<!-- Node2&#45;&gt;Node3 -->
<g id="edge2" class="edge">
<title>Node2&#45;&gt;Node3</title>
<path fill="none" stroke="#63b8ff" d="M167.09,-109.51C144.85,-100.97 111.17,-88.03 86.08,-78.4"/>
<polygon fill="#63b8ff" stroke="#63b8ff" points="87.57,-75.22 76.98,-74.9 85.06,-81.75 87.57,-75.22"/>
</g>
<!-- Node5 -->
<g id="node5" class="node">
<title>Node5</title>
<g id="a_node5"><a xlink:href="manuallifetime_8h.html" target="_top" xlink:title=" ">
<polygon fill="white" stroke="#666666" points="218,-74 123,-74 123,-55 218,-55 218,-74"/>
<text text-anchor="middle" x="170.5" y="-62" font-family="Helvetica,sans-Serif" font-size="10.00">../manuallifetime.h</text>
</a>
</g>
</g>
<!-- Node2&#45;&gt;Node5 -->
<g id="edge4" class="edge">
<title>Node2&#45;&gt;Node5</title>
<path fill="none" stroke="#63b8ff" d="M187.2,-109.75C184.67,-103.04 181.07,-93.52 177.87,-85.02"/>
<polygon fill="#63b8ff" stroke="#63b8ff" points="181.21,-83.98 174.41,-75.86 174.66,-86.45 181.21,-83.98"/>
</g>
<!-- Node6 -->
<g id="node6" class="node">
<title>Node6</title>
<g id="a_node6"><a xlink:href="pipable_8h.html" target="_top" xlink:title=" ">
<polygon fill="white" stroke="#666666" points="298.5,-74 236.5,-74 236.5,-55 298.5,-55 298.5,-74"/>
<text text-anchor="middle" x="267.5" y="-62" font-family="Helvetica,sans-Serif" font-size="10.00">../pipable.h</text>
</a>
</g>
</g>
<!-- Node2&#45;&gt;Node6 -->
<g id="edge5" class="edge">
<title>Node2&#45;&gt;Node6</title>
<path fill="none" stroke="#63b8ff" d="M203.56,-109.51C215.02,-101.62 231.93,-89.98 245.48,-80.65"/>
<polygon fill="#63b8ff" stroke="#63b8ff" points="247.13,-83.77 253.38,-75.22 243.16,-78 247.13,-83.77"/>
</g>
<!-- Node8 -->
<g id="node8" class="node">
<title>Node8</title>
<g id="a_node8"><a xlink:href="execution_2concepts_8h.html" target="_top" xlink:title=" ">
<polygon fill="white" stroke="#666666" points="380.5,-74 316.5,-74 316.5,-55 380.5,-55 380.5,-74"/>
<text text-anchor="middle" x="348.5" y="-62" font-family="Helvetica,sans-Serif" font-size="10.00">concepts.h</text>
</a>
</g>
</g>
<!-- Node2&#45;&gt;Node8 -->
<g id="edge7" class="edge">
<title>Node2&#45;&gt;Node8</title>
<path fill="none" stroke="#63b8ff" d="M217.3,-109.51C243.03,-100.88 282.13,-87.76 310.95,-78.1"/>
<polygon fill="#63b8ff" stroke="#63b8ff" points="312.03,-81.43 320.4,-74.93 309.8,-74.79 312.03,-81.43"/>
</g>
<!-- Node2&#45;&gt;Node9 -->
<g id="edge8" class="edge">
<title>Node2&#45;&gt;Node9</title>
<path fill="none" stroke="#63b8ff" d="M232.06,-109.51C277.9,-99.59 351.11,-83.76 396.08,-74.03"/>
<polygon fill="#63b8ff" stroke="#63b8ff" points="396.63,-77.49 405.66,-71.95 395.15,-70.65 396.63,-77.49"/>
</g>
<!-- Node4 -->
<g id="node4" class="node">
<title>Node4</title>
<g id="a_node4"><a xlink:href="closure_8h.html" target="_top" xlink:title=" ">
<polygon fill="white" stroke="#666666" points="80.5,-19 24.5,-19 24.5,0 80.5,0 80.5,-19"/>
<text text-anchor="middle" x="52.5" y="-7" font-family="Helvetica,sans-Serif" font-size="10.00">closure.h</text>
</a>
</g>
</g>
<!-- Node3&#45;&gt;Node4 -->
<g id="edge3" class="edge">
<title>Node3&#45;&gt;Node4</title>
<path fill="none" stroke="#63b8ff" d="M52.5,-54.75C52.5,-48.27 52.5,-39.16 52.5,-30.9"/>
<polygon fill="#63b8ff" stroke="#63b8ff" points="56,-30.96 52.5,-20.96 49,-30.96 56,-30.96"/>
</g>
<!-- Node7 -->
<g id="node7" class="node">
<title>Node7</title>
<g id="a_node7"><a xlink:href="lift_8h.html" target="_top" xlink:title=" ">
<polygon fill="white" stroke="#666666" points="285,-19 250,-19 250,0 285,0 285,-19"/>
<text text-anchor="middle" x="267.5" y="-7" font-family="Helvetica,sans-Serif" font-size="10.00">lift.h</text>
</a>
</g>
</g>
<!-- Node6&#45;&gt;Node7 -->
<g id="edge6" class="edge">
<title>Node6&#45;&gt;Node7</title>
<path fill="none" stroke="#63b8ff" d="M267.5,-54.75C267.5,-48.27 267.5,-39.16 267.5,-30.9"/>
<polygon fill="#63b8ff" stroke="#63b8ff" points="271,-30.96 267.5,-20.96 264,-30.96 271,-30.96"/>
</g>
<!-- Node10&#45;&gt;Node8 -->
<g id="edge10" class="edge">
<title>Node10&#45;&gt;Node8</title>
<path fill="none" stroke="#63b8ff" d="M348.5,-109.75C348.5,-103.27 348.5,-94.16 348.5,-85.9"/>
<polygon fill="#63b8ff" stroke="#63b8ff" points="352,-85.96 348.5,-75.96 345,-85.96 352,-85.96"/>
</g>
</g>
</svg>
