<?xml version="1.0" encoding="UTF-8" standalone="no"?>
<!DOCTYPE svg PUBLIC "-//W3C//DTD SVG 1.1//EN"
 "http://www.w3.org/Graphics/SVG/1.1/DTD/svg11.dtd">
<!-- Generated by graphviz version 7.0.5 (20221223.1930)
 -->
<!-- Title: src/Interfaces/log/standardlog.cpp Pages: 1 -->
<svg width="318pt" height="148pt"
 viewBox="0.00 0.00 317.50 148.00" xmlns="http://www.w3.org/2000/svg" xmlns:xlink="http://www.w3.org/1999/xlink">
<g id="graph0" class="graph" transform="scale(1 1) rotate(0) translate(4 144)">
<title>src/Interfaces/log/standardlog.cpp</title>
<!-- Node1 -->
<g id="node1" class="node">
<title>Node1</title>
<g id="a_node1"><a xlink:title=" ">
<polygon fill="#999999" stroke="#666666" points="226,-140 134,-140 134,-110 226,-110 226,-140"/>
<text text-anchor="start" x="142" y="-128" font-family="Helvetica,sans-Serif" font-size="10.00">src/Interfaces/log</text>
<text text-anchor="middle" x="180" y="-117" font-family="Helvetica,sans-Serif" font-size="10.00">/standardlog.cpp</text>
</a>
</g>
</g>
<!-- Node2 -->
<g id="node2" class="node">
<title>Node2</title>
<g id="a_node2"><a xlink:href="interfaceslib_8h.html" target="_top" xlink:title=" ">
<polygon fill="white" stroke="#666666" points="84,-74 0,-74 0,-55 84,-55 84,-74"/>
<text text-anchor="middle" x="42" y="-62" font-family="Helvetica,sans-Serif" font-size="10.00">../interfaceslib.h</text>
</a>
</g>
</g>
<!-- Node1&#45;&gt;Node2 -->
<g id="edge1" class="edge">
<title>Node1&#45;&gt;Node2</title>
<path fill="none" stroke="#63b8ff" d="M145.89,-109.54C123.73,-100.15 95.06,-87.99 73.45,-78.83"/>
<polygon fill="#63b8ff" stroke="#63b8ff" points="74.83,-75.62 64.26,-74.94 72.1,-82.06 74.83,-75.62"/>
</g>
<!-- Node3 -->
<g id="node3" class="node">
<title>Node3</title>
<g id="a_node3"><a xlink:href="standardlog_8h.html" target="_top" xlink:title=" ">
<polygon fill="white" stroke="#666666" points="176,-74 102,-74 102,-55 176,-55 176,-74"/>
<text text-anchor="middle" x="139" y="-62" font-family="Helvetica,sans-Serif" font-size="10.00">standardlog.h</text>
</a>
</g>
</g>
<!-- Node1&#45;&gt;Node3 -->
<g id="edge2" class="edge">
<title>Node1&#45;&gt;Node3</title>
<path fill="none" stroke="#63b8ff" d="M169.87,-109.54C164.34,-101.65 157.44,-91.81 151.57,-83.44"/>
<polygon fill="#63b8ff" stroke="#63b8ff" points="154.55,-81.59 145.95,-75.41 148.82,-85.61 154.55,-81.59"/>
</g>
<!-- Node5 -->
<g id="node5" class="node">
<title>Node5</title>
<g id="a_node5"><a xlink:title=" ">
<polygon fill="#e0e0e0" stroke="#999999" points="248,-74 194,-74 194,-55 248,-55 248,-74"/>
<text text-anchor="middle" x="221" y="-62" font-family="Helvetica,sans-Serif" font-size="10.00">iostream</text>
</a>
</g>
</g>
<!-- Node1&#45;&gt;Node5 -->
<g id="edge4" class="edge">
<title>Node1&#45;&gt;Node5</title>
<path fill="none" stroke="#63b8ff" d="M190.13,-109.54C195.66,-101.65 202.56,-91.81 208.43,-83.44"/>
<polygon fill="#63b8ff" stroke="#63b8ff" points="211.18,-85.61 214.05,-75.41 205.45,-81.59 211.18,-85.61"/>
</g>
<!-- Node6 -->
<g id="node6" class="node">
<title>Node6</title>
<g id="a_node6"><a xlink:title=" ">
<polygon fill="#e0e0e0" stroke="#999999" points="309.5,-74 266.5,-74 266.5,-55 309.5,-55 309.5,-74"/>
<text text-anchor="middle" x="288" y="-62" font-family="Helvetica,sans-Serif" font-size="10.00">time.h</text>
</a>
</g>
</g>
<!-- Node1&#45;&gt;Node6 -->
<g id="edge5" class="edge">
<title>Node1&#45;&gt;Node6</title>
<path fill="none" stroke="#63b8ff" d="M206.7,-109.54C223.56,-100.4 245.24,-88.66 261.98,-79.6"/>
<polygon fill="#63b8ff" stroke="#63b8ff" points="263.21,-82.91 270.34,-75.07 259.88,-76.75 263.21,-82.91"/>
</g>
<!-- Node4 -->
<g id="node4" class="node">
<title>Node4</title>
<g id="a_node4"><a xlink:href="log_8h.html" target="_top" xlink:title=" ">
<polygon fill="white" stroke="#666666" points="157.5,-19 120.5,-19 120.5,0 157.5,0 157.5,-19"/>
<text text-anchor="middle" x="139" y="-7" font-family="Helvetica,sans-Serif" font-size="10.00">log.h</text>
</a>
</g>
</g>
<!-- Node3&#45;&gt;Node4 -->
<g id="edge3" class="edge">
<title>Node3&#45;&gt;Node4</title>
<path fill="none" stroke="#63b8ff" d="M139,-54.75C139,-48.27 139,-39.16 139,-30.9"/>
<polygon fill="#63b8ff" stroke="#63b8ff" points="142.5,-30.96 139,-20.96 135.5,-30.96 142.5,-30.96"/>
</g>
</g>
</svg>
