<?xml version="1.0" encoding="UTF-8" standalone="no"?>
<!DOCTYPE svg PUBLIC "-//W3C//DTD SVG 1.1//EN"
 "http://www.w3.org/Graphics/SVG/1.1/DTD/svg11.dtd">
<!-- Generated by graphviz version 7.0.5 (20221223.1930)
 -->
<!-- Title: plugins/misc/widgets/src/Madgine/widgets/stb_textedit.h Pages: 1 -->
<svg width="393pt" height="203pt"
 viewBox="0.00 0.00 393.00 203.00" xmlns="http://www.w3.org/2000/svg" xmlns:xlink="http://www.w3.org/1999/xlink">
<g id="graph0" class="graph" transform="scale(1 1) rotate(0) translate(4 199)">
<title>plugins/misc/widgets/src/Madgine/widgets/stb_textedit.h</title>
<!-- Node1 -->
<g id="node1" class="node">
<title>Node1</title>
<g id="a_node1"><a xlink:title=" ">
<polygon fill="#999999" stroke="#666666" points="215,-195 105,-195 105,-154 215,-154 215,-195"/>
<text text-anchor="start" x="113" y="-183" font-family="Helvetica,sans-Serif" font-size="10.00">plugins/misc/widgets</text>
<text text-anchor="start" x="113" y="-172" font-family="Helvetica,sans-Serif" font-size="10.00">/src/Madgine/widgets</text>
<text text-anchor="middle" x="160" y="-161" font-family="Helvetica,sans-Serif" font-size="10.00">/stb_textedit.h</text>
</a>
</g>
</g>
<!-- Node2 -->
<g id="node2" class="node">
<title>Node2</title>
<g id="a_node2"><a xlink:href="textbox_8cpp.html" target="_top" xlink:title=" ">
<polygon fill="white" stroke="#666666" points="110,-41 0,-41 0,0 110,0 110,-41"/>
<text text-anchor="start" x="8" y="-29" font-family="Helvetica,sans-Serif" font-size="10.00">plugins/misc/widgets</text>
<text text-anchor="start" x="8" y="-18" font-family="Helvetica,sans-Serif" font-size="10.00">/src/Madgine/widgets</text>
<text text-anchor="middle" x="55" y="-7" font-family="Helvetica,sans-Serif" font-size="10.00">/textbox.cpp</text>
</a>
</g>
</g>
<!-- Node1&#45;&gt;Node2 -->
<g id="edge1" class="edge">
<title>Node1&#45;&gt;Node2</title>
<path fill="none" stroke="#63b8ff" d="M94.32,-152.48C78.77,-144.26 64.08,-133.07 55,-118 40.91,-94.61 44.76,-61.88 49.42,-41.19"/>
<polygon fill="#63b8ff" stroke="#63b8ff" points="92.72,-155.59 103.25,-156.8 95.78,-149.29 92.72,-155.59"/>
</g>
<!-- Node3 -->
<g id="node3" class="node">
<title>Node3</title>
<g id="a_node3"><a xlink:href="textbox_8h.html" target="_top" xlink:title=" ">
<polygon fill="white" stroke="#666666" points="174,-118 64,-118 64,-77 174,-77 174,-118"/>
<text text-anchor="start" x="72" y="-106" font-family="Helvetica,sans-Serif" font-size="10.00">plugins/misc/widgets</text>
<text text-anchor="start" x="72" y="-95" font-family="Helvetica,sans-Serif" font-size="10.00">/src/Madgine/widgets</text>
<text text-anchor="middle" x="119" y="-84" font-family="Helvetica,sans-Serif" font-size="10.00">/textbox.h</text>
</a>
</g>
</g>
<!-- Node1&#45;&gt;Node3 -->
<g id="edge2" class="edge">
<title>Node1&#45;&gt;Node3</title>
<path fill="none" stroke="#63b8ff" d="M143.75,-143.78C139.08,-135.23 134.1,-126.12 129.84,-118.33"/>
<polygon fill="#63b8ff" stroke="#63b8ff" points="140.63,-145.37 148.5,-152.47 146.78,-142.01 140.63,-145.37"/>
</g>
<!-- Node4 -->
<g id="node4" class="node">
<title>Node4</title>
<g id="a_node4"><a xlink:href="textedit_8cpp.html" target="_top" xlink:title=" ">
<polygon fill="white" stroke="#666666" points="257,-41 147,-41 147,0 257,0 257,-41"/>
<text text-anchor="start" x="155" y="-29" font-family="Helvetica,sans-Serif" font-size="10.00">plugins/misc/widgets</text>
<text text-anchor="start" x="155" y="-18" font-family="Helvetica,sans-Serif" font-size="10.00">/src/Madgine/widgets</text>
<text text-anchor="middle" x="202" y="-7" font-family="Helvetica,sans-Serif" font-size="10.00">/textedit.cpp</text>
</a>
</g>
</g>
<!-- Node1&#45;&gt;Node4 -->
<g id="edge4" class="edge">
<title>Node1&#45;&gt;Node4</title>
<path fill="none" stroke="#63b8ff" d="M173.86,-143.13C177.18,-135.07 180.49,-126.31 183,-118 190.86,-92.01 196.28,-61.08 199.27,-41.37"/>
<polygon fill="#63b8ff" stroke="#63b8ff" points="170.71,-141.59 169.99,-152.16 177.14,-144.35 170.71,-141.59"/>
</g>
<!-- Node5 -->
<g id="node5" class="node">
<title>Node5</title>
<g id="a_node5"><a xlink:href="textedit_8h.html" target="_top" xlink:title=" ">
<polygon fill="white" stroke="#666666" points="340,-118 230,-118 230,-77 340,-77 340,-118"/>
<text text-anchor="start" x="238" y="-106" font-family="Helvetica,sans-Serif" font-size="10.00">plugins/misc/widgets</text>
<text text-anchor="start" x="238" y="-95" font-family="Helvetica,sans-Serif" font-size="10.00">/src/Madgine/widgets</text>
<text text-anchor="middle" x="285" y="-84" font-family="Helvetica,sans-Serif" font-size="10.00">/textedit.h</text>
</a>
</g>
</g>
<!-- Node1&#45;&gt;Node5 -->
<g id="edge5" class="edge">
<title>Node1&#45;&gt;Node5</title>
<path fill="none" stroke="#63b8ff" d="M202.83,-147.8C218.8,-138.22 236.68,-127.49 251.68,-118.49"/>
<polygon fill="#63b8ff" stroke="#63b8ff" points="201.24,-144.67 194.47,-152.82 204.84,-150.68 201.24,-144.67"/>
</g>
<!-- Node3&#45;&gt;Node2 -->
<g id="edge3" class="edge">
<title>Node3&#45;&gt;Node2</title>
<path fill="none" stroke="#63b8ff" d="M94.83,-68.18C87.2,-59.24 78.94,-49.55 71.93,-41.33"/>
<polygon fill="#63b8ff" stroke="#63b8ff" points="92.05,-70.31 101.2,-75.64 97.37,-65.76 92.05,-70.31"/>
</g>
<!-- Node5&#45;&gt;Node4 -->
<g id="edge6" class="edge">
<title>Node5&#45;&gt;Node4</title>
<path fill="none" stroke="#63b8ff" d="M254.89,-69.29C244.66,-60.05 233.42,-49.89 223.95,-41.33"/>
<polygon fill="#63b8ff" stroke="#63b8ff" points="252.3,-71.67 262.07,-75.78 257,-66.48 252.3,-71.67"/>
</g>
<!-- Node6 -->
<g id="node6" class="node">
<title>Node6</title>
<g id="a_node6"><a xlink:href="widgetloader_8cpp.html" target="_top" xlink:title=" ">
<polygon fill="white" stroke="#666666" points="385,-41 275,-41 275,0 385,0 385,-41"/>
<text text-anchor="start" x="283" y="-29" font-family="Helvetica,sans-Serif" font-size="10.00">plugins/misc/widgets</text>
<text text-anchor="start" x="283" y="-18" font-family="Helvetica,sans-Serif" font-size="10.00">/src/Madgine/widgets</text>
<text text-anchor="middle" x="330" y="-7" font-family="Helvetica,sans-Serif" font-size="10.00">/widgetloader.cpp</text>
</a>
</g>
</g>
<!-- Node5&#45;&gt;Node6 -->
<g id="edge7" class="edge">
<title>Node5&#45;&gt;Node6</title>
<path fill="none" stroke="#63b8ff" d="M302.66,-67.06C307.84,-58.43 313.37,-49.21 318.1,-41.33"/>
<polygon fill="#63b8ff" stroke="#63b8ff" points="299.75,-65.12 297.6,-75.5 305.75,-68.72 299.75,-65.12"/>
</g>
</g>
</svg>
