<?xml version="1.0" encoding="UTF-8" standalone="no"?>
<!DOCTYPE svg PUBLIC "-//W3C//DTD SVG 1.1//EN"
 "http://www.w3.org/Graphics/SVG/1.1/DTD/svg11.dtd">
<!-- Generated by graphviz version 7.0.5 (20221223.1930)
 -->
<!-- Title: src/Meta/serialize/streams/streamresult.cpp Pages: 1 -->
<!--zoomable 533 -->
<svg id="main" version="1.1" xmlns="http://www.w3.org/2000/svg" xmlns:xlink="http://www.w3.org/1999/xlink" xml:space="preserve" onload="init(evt)">
<style type="text/css"><![CDATA[
.edge:hover path { stroke: red; }
.edge:hover polygon { stroke: red; fill: red; }
]]></style>
<script type="text/javascript"><![CDATA[
var edges = document.getElementsByTagName('g');
if (edges && edges.length) {
  for (var i=0;i<edges.length;i++) {
    if (edges[i].id.substr(0,4)=='edge') {
      edges[i].setAttribute('class','edge');
    }
  }
}
]]></script>
        <defs>
                <circle id="rim" cx="0" cy="0" r="7"/>
                <circle id="rim2" cx="0" cy="0" r="3.5"/>
                <g id="zoomPlus">
                        <use xlink:href="#rim" fill="#404040">
                                <set attributeName="fill" to="#808080" begin="zoomplus.mouseover" end="zoomplus.mouseout"/>
                        </use>
                        <path d="M-4,0h8M0,-4v8" fill="none" stroke="white" stroke-width="1.5" pointer-events="none"/>
                </g>
                <g id="zoomMin">
                        <use xlink:href="#rim" fill="#404040">
                                <set attributeName="fill" to="#808080" begin="zoomminus.mouseover" end="zoomminus.mouseout"/>
                        </use>
                        <path d="M-4,0h8" fill="none" stroke="white" stroke-width="1.5" pointer-events="none"/>
                </g>
                <g id="dirArrow">
                        <path fill="none" stroke="white" stroke-width="1.5" d="M0,-3.0v7 M-2.5,-0.5L0,-3.0L2.5,-0.5"/>
                </g>
               <g id="resetDef">
                       <use xlink:href="#rim2" fill="#404040">
                               <set attributeName="fill" to="#808080" begin="reset.mouseover" end="reset.mouseout"/>
                       </use>
               </g>
        </defs>

<script type="text/javascript">
var viewWidth = 655;
var viewHeight = 533;
var sectionId = 'dynsection-0';
</script>
<script xlink:href="svgpan.js"/>
<svg id="graph" class="graph">
<g id="viewport">
<title>src/Meta/serialize/streams/streamresult.cpp</title>
<!-- Node1 -->
<g id="node1" class="node">
<title>Node1</title>
<g id="a_node1"><a xlink:title=" ">
<polygon fill="#999999" stroke="#666666" points="285,-525 155,-525 155,-495 285,-495 285,-525"/>
<text text-anchor="start" x="163" y="-513" font-family="Helvetica,sans-Serif" font-size="10.00">src/Meta/serialize</text>
<text text-anchor="middle" x="220" y="-502" font-family="Helvetica,sans-Serif" font-size="10.00">/streams/streamresult.cpp</text>
</a>
</g>
</g>
<!-- Node2 -->
<g id="node2" class="node">
<title>Node2</title>
<g id="a_node2"><a xlink:href="metalib_8h.html" target="_top" xlink:title=" ">
<polygon fill="white" stroke="#666666" points="191.5,-459 120.5,-459 120.5,-440 191.5,-440 191.5,-459"/>
<text text-anchor="middle" x="156" y="-447" font-family="Helvetica,sans-Serif" font-size="10.00">../../metalib.h</text>
</a>
</g>
</g>
<!-- Node1&#45;&gt;Node2 -->
<g id="edge1" class="edge">
<title>Node1&#45;&gt;Node2</title>
<path fill="none" stroke="#63b8ff" d="M204.18,-494.54C194.98,-486.13 183.36,-475.51 173.83,-466.8"/>
<polygon fill="#63b8ff" stroke="#63b8ff" points="176.35,-464.36 166.61,-460.2 171.63,-469.53 176.35,-464.36"/>
</g>
<!-- Node5 -->
<g id="node5" class="node">
<title>Node5</title>
<g id="a_node5"><a xlink:href="streamresult_8h.html" target="_top" xlink:title=" ">
<polygon fill="white" stroke="#666666" points="259,-239 181,-239 181,-220 259,-220 259,-239"/>
<text text-anchor="middle" x="220" y="-227" font-family="Helvetica,sans-Serif" font-size="10.00">streamresult.h</text>
</a>
</g>
</g>
<!-- Node1&#45;&gt;Node5 -->
<g id="edge4" class="edge">
<title>Node1&#45;&gt;Node5</title>
<path fill="none" stroke="#63b8ff" d="M220,-494.67C220,-473.14 220,-431.17 220,-395.5 220,-395.5 220,-395.5 220,-338.5 220,-307.92 220,-272.48 220,-250.77"/>
<polygon fill="#63b8ff" stroke="#63b8ff" points="223.5,-250.97 220,-240.97 216.5,-250.97 223.5,-250.97"/>
</g>
<!-- Node10 -->
<g id="node10" class="node">
<title>Node10</title>
<g id="a_node10"><a xlink:href="formattedserializestream_8h.html" target="_top" xlink:title=" ">
<polygon fill="white" stroke="#666666" points="397.5,-459 266.5,-459 266.5,-440 397.5,-440 397.5,-459"/>
<text text-anchor="middle" x="332" y="-447" font-family="Helvetica,sans-Serif" font-size="10.00">formattedserializestream.h</text>
</a>
</g>
</g>
<!-- Node1&#45;&gt;Node10 -->
<g id="edge9" class="edge">
<title>Node1&#45;&gt;Node10</title>
<path fill="none" stroke="#63b8ff" d="M247.69,-494.54C265.17,-485.4 287.66,-473.66 305.01,-464.6"/>
<polygon fill="#63b8ff" stroke="#63b8ff" points="306.48,-467.78 313.72,-460.05 303.24,-461.57 306.48,-467.78"/>
</g>
<!-- Node3 -->
<g id="node3" class="node">
<title>Node3</title>
<g id="a_node3"><a xlink:href="genericlib_8h.html" target="_top" xlink:title=" ">
<polygon fill="white" stroke="#666666" points="102,-404 0,-404 0,-385 102,-385 102,-404"/>
<text text-anchor="middle" x="51" y="-392" font-family="Helvetica,sans-Serif" font-size="10.00">Generic/genericlib.h</text>
</a>
</g>
</g>
<!-- Node2&#45;&gt;Node3 -->
<g id="edge2" class="edge">
<title>Node2&#45;&gt;Node3</title>
<path fill="none" stroke="#63b8ff" d="M138.19,-439.51C121.87,-431.27 97.47,-418.96 78.63,-409.45"/>
<polygon fill="#63b8ff" stroke="#63b8ff" points="80.4,-406.42 69.9,-405.04 77.25,-412.67 80.4,-406.42"/>
</g>
<!-- Node4 -->
<g id="node4" class="node">
<title>Node4</title>
<g id="a_node4"><a xlink:title=" ">
<polygon fill="#e0e0e0" stroke="#999999" points="191.5,-404 120.5,-404 120.5,-385 191.5,-385 191.5,-404"/>
<text text-anchor="middle" x="156" y="-392" font-family="Helvetica,sans-Serif" font-size="10.00">metaconfig.h</text>
</a>
</g>
</g>
<!-- Node2&#45;&gt;Node4 -->
<g id="edge3" class="edge">
<title>Node2&#45;&gt;Node4</title>
<path fill="none" stroke="#63b8ff" d="M156,-439.75C156,-433.27 156,-424.16 156,-415.9"/>
<polygon fill="#63b8ff" stroke="#63b8ff" points="159.5,-415.96 156,-405.96 152.5,-415.96 159.5,-415.96"/>
</g>
<!-- Node6 -->
<g id="node6" class="node">
<title>Node6</title>
<g id="a_node6"><a xlink:href="streamstate_8h.html" target="_top" xlink:title=" ">
<polygon fill="white" stroke="#666666" points="258,-184 182,-184 182,-165 258,-165 258,-184"/>
<text text-anchor="middle" x="220" y="-172" font-family="Helvetica,sans-Serif" font-size="10.00">streamstate.h</text>
</a>
</g>
</g>
<!-- Node5&#45;&gt;Node6 -->
<g id="edge5" class="edge">
<title>Node5&#45;&gt;Node6</title>
<path fill="none" stroke="#63b8ff" d="M220,-219.75C220,-213.27 220,-204.16 220,-195.9"/>
<polygon fill="#63b8ff" stroke="#63b8ff" points="223.5,-195.96 220,-185.96 216.5,-195.96 223.5,-195.96"/>
</g>
<!-- Node7 -->
<g id="node7" class="node">
<title>Node7</title>
<g id="a_node7"><a xlink:href="enum_8h.html" target="_top" xlink:title=" ">
<polygon fill="white" stroke="#666666" points="262.5,-129 177.5,-129 177.5,-110 262.5,-110 262.5,-129"/>
<text text-anchor="middle" x="220" y="-117" font-family="Helvetica,sans-Serif" font-size="10.00">Generic/enum.h</text>
</a>
</g>
</g>
<!-- Node6&#45;&gt;Node7 -->
<g id="edge6" class="edge">
<title>Node6&#45;&gt;Node7</title>
<path fill="none" stroke="#63b8ff" d="M220,-164.75C220,-158.27 220,-149.16 220,-140.9"/>
<polygon fill="#63b8ff" stroke="#63b8ff" points="223.5,-140.96 220,-130.96 216.5,-140.96 223.5,-140.96"/>
</g>
<!-- Node8 -->
<g id="node8" class="node">
<title>Node8</title>
<g id="a_node8"><a xlink:href="array_8h.html" target="_top" xlink:title=" ">
<polygon fill="white" stroke="#666666" points="252,-74 188,-74 188,-55 252,-55 252,-74"/>
<text text-anchor="middle" x="220" y="-62" font-family="Helvetica,sans-Serif" font-size="10.00">bits/array.h</text>
</a>
</g>
</g>
<!-- Node7&#45;&gt;Node8 -->
<g id="edge7" class="edge">
<title>Node7&#45;&gt;Node8</title>
<path fill="none" stroke="#63b8ff" d="M220,-109.75C220,-103.27 220,-94.16 220,-85.9"/>
<polygon fill="#63b8ff" stroke="#63b8ff" points="223.5,-85.96 220,-75.96 216.5,-85.96 223.5,-85.96"/>
</g>
<!-- Node9 -->
<g id="node9" class="node">
<title>Node9</title>
<g id="a_node9"><a xlink:href="types_8h.html" target="_top" xlink:title=" ">
<polygon fill="white" stroke="#666666" points="243.5,-19 196.5,-19 196.5,0 243.5,0 243.5,-19"/>
<text text-anchor="middle" x="220" y="-7" font-family="Helvetica,sans-Serif" font-size="10.00">types.h</text>
</a>
</g>
</g>
<!-- Node8&#45;&gt;Node9 -->
<g id="edge8" class="edge">
<title>Node8&#45;&gt;Node9</title>
<path fill="none" stroke="#63b8ff" d="M220,-54.75C220,-48.27 220,-39.16 220,-30.9"/>
<polygon fill="#63b8ff" stroke="#63b8ff" points="223.5,-30.96 220,-20.96 216.5,-30.96 223.5,-30.96"/>
</g>
<!-- Node11 -->
<g id="node11" class="node">
<title>Node11</title>
<g id="a_node11"><a xlink:href="formatter_8h.html" target="_top" xlink:title=" ">
<polygon fill="white" stroke="#666666" points="363.5,-404 300.5,-404 300.5,-385 363.5,-385 363.5,-404"/>
<text text-anchor="middle" x="332" y="-392" font-family="Helvetica,sans-Serif" font-size="10.00">formatter.h</text>
</a>
</g>
</g>
<!-- Node10&#45;&gt;Node11 -->
<g id="edge10" class="edge">
<title>Node10&#45;&gt;Node11</title>
<path fill="none" stroke="#63b8ff" d="M332,-439.75C332,-433.27 332,-424.16 332,-415.9"/>
<polygon fill="#63b8ff" stroke="#63b8ff" points="335.5,-415.96 332,-405.96 328.5,-415.96 335.5,-415.96"/>
</g>
<!-- Node17 -->
<g id="node17" class="node">
<title>Node17</title>
<g id="a_node17"><a xlink:href="primitivetypes_8h.html" target="_top" xlink:title=" ">
<polygon fill="white" stroke="#666666" points="647,-239 555,-239 555,-220 647,-220 647,-239"/>
<text text-anchor="middle" x="601" y="-227" font-family="Helvetica,sans-Serif" font-size="10.00">../primitivetypes.h</text>
</a>
</g>
</g>
<!-- Node10&#45;&gt;Node17 -->
<g id="edge19" class="edge">
<title>Node10&#45;&gt;Node17</title>
<path fill="none" stroke="#63b8ff" d="M348.38,-439.6C387.07,-418.07 485.96,-360.09 554,-294 567.97,-280.43 580.91,-262.37 589.66,-248.98"/>
<polygon fill="#63b8ff" stroke="#63b8ff" points="592.51,-251.02 594.91,-240.7 586.6,-247.27 592.51,-251.02"/>
</g>
<!-- Node12 -->
<g id="node12" class="node">
<title>Node12</title>
<g id="a_node12"><a xlink:href="serializestream_8h.html" target="_top" xlink:title=" ">
<polygon fill="white" stroke="#666666" points="376.5,-349 287.5,-349 287.5,-330 376.5,-330 376.5,-349"/>
<text text-anchor="middle" x="332" y="-337" font-family="Helvetica,sans-Serif" font-size="10.00">serializestream.h</text>
</a>
</g>
</g>
<!-- Node11&#45;&gt;Node12 -->
<g id="edge11" class="edge">
<title>Node11&#45;&gt;Node12</title>
<path fill="none" stroke="#63b8ff" d="M332,-384.75C332,-378.27 332,-369.16 332,-360.9"/>
<polygon fill="#63b8ff" stroke="#63b8ff" points="335.5,-360.96 332,-350.96 328.5,-360.96 335.5,-360.96"/>
</g>
<!-- Node12&#45;&gt;Node5 -->
<g id="edge13" class="edge">
<title>Node12&#45;&gt;Node5</title>
<path fill="none" stroke="#63b8ff" d="M320.44,-329.74C309.22,-321.07 291.91,-307.22 278,-294 262.5,-279.27 246.19,-261.14 234.82,-248.03"/>
<polygon fill="#63b8ff" stroke="#63b8ff" points="237.66,-245.96 228.49,-240.64 232.34,-250.51 237.66,-245.96"/>
</g>
<!-- Node13 -->
<g id="node13" class="node">
<title>Node13</title>
<g id="a_node13"><a xlink:href="stream_8h.html" target="_top" xlink:title=" ">
<polygon fill="white" stroke="#666666" points="377.5,-294 286.5,-294 286.5,-275 377.5,-275 377.5,-294"/>
<text text-anchor="middle" x="332" y="-282" font-family="Helvetica,sans-Serif" font-size="10.00">Generic/stream.h</text>
</a>
</g>
</g>
<!-- Node12&#45;&gt;Node13 -->
<g id="edge12" class="edge">
<title>Node12&#45;&gt;Node13</title>
<path fill="none" stroke="#63b8ff" d="M332,-329.75C332,-323.27 332,-314.16 332,-305.9"/>
<polygon fill="#63b8ff" stroke="#63b8ff" points="335.5,-305.96 332,-295.96 328.5,-305.96 335.5,-305.96"/>
</g>
<!-- Node14 -->
<g id="node14" class="node">
<title>Node14</title>
<g id="a_node14"><a xlink:href="serializableunitptr_8h.html" target="_top" xlink:title=" ">
<polygon fill="white" stroke="#666666" points="544.5,-294 395.5,-294 395.5,-275 544.5,-275 544.5,-294"/>
<text text-anchor="middle" x="470" y="-282" font-family="Helvetica,sans-Serif" font-size="10.00">../hierarchy/serializableunitptr.h</text>
</a>
</g>
</g>
<!-- Node12&#45;&gt;Node14 -->
<g id="edge14" class="edge">
<title>Node12&#45;&gt;Node14</title>
<path fill="none" stroke="#63b8ff" d="M355.41,-329.51C377.65,-320.97 411.33,-308.03 436.42,-298.4"/>
<polygon fill="#63b8ff" stroke="#63b8ff" points="437.44,-301.75 445.52,-294.9 434.93,-295.22 437.44,-301.75"/>
</g>
<!-- Node14&#45;&gt;Node5 -->
<g id="edge17" class="edge">
<title>Node14&#45;&gt;Node5</title>
<path fill="none" stroke="#63b8ff" d="M427.59,-274.51C384.18,-265.31 316.72,-251.01 270.56,-241.22"/>
<polygon fill="#63b8ff" stroke="#63b8ff" points="271.31,-237.8 260.8,-239.15 269.85,-244.65 271.31,-237.8"/>
</g>
<!-- Node15 -->
<g id="node15" class="node">
<title>Node15</title>
<g id="a_node15"><a xlink:href="callerhierarchy_8h.html" target="_top" xlink:title=" ">
<polygon fill="white" stroke="#666666" points="400.5,-239 277.5,-239 277.5,-220 400.5,-220 400.5,-239"/>
<text text-anchor="middle" x="339" y="-227" font-family="Helvetica,sans-Serif" font-size="10.00">Generic/callerhierarchy.h</text>
</a>
</g>
</g>
<!-- Node14&#45;&gt;Node15 -->
<g id="edge15" class="edge">
<title>Node14&#45;&gt;Node15</title>
<path fill="none" stroke="#63b8ff" d="M447.78,-274.51C426.86,-266.04 395.27,-253.27 371.52,-243.66"/>
<polygon fill="#63b8ff" stroke="#63b8ff" points="372.88,-240.43 362.3,-239.93 370.25,-246.92 372.88,-240.43"/>
</g>
<!-- Node16 -->
<g id="node16" class="node">
<title>Node16</title>
<g id="a_node16"><a xlink:href="serializetable__forward_8h.html" target="_top" xlink:title=" ">
<polygon fill="white" stroke="#666666" points="537,-239 419,-239 419,-220 537,-220 537,-239"/>
<text text-anchor="middle" x="478" y="-227" font-family="Helvetica,sans-Serif" font-size="10.00">serializetable_forward.h</text>
</a>
</g>
</g>
<!-- Node14&#45;&gt;Node16 -->
<g id="edge16" class="edge">
<title>Node14&#45;&gt;Node16</title>
<path fill="none" stroke="#63b8ff" d="M471.32,-274.75C472.31,-268.19 473.71,-258.95 474.97,-250.6"/>
<polygon fill="#63b8ff" stroke="#63b8ff" points="478.39,-251.35 476.42,-240.94 471.47,-250.3 478.39,-251.35"/>
</g>
<!-- Node14&#45;&gt;Node17 -->
<g id="edge18" class="edge">
<title>Node14&#45;&gt;Node17</title>
<path fill="none" stroke="#63b8ff" d="M492.22,-274.51C513.14,-266.04 544.73,-253.27 568.48,-243.66"/>
<polygon fill="#63b8ff" stroke="#63b8ff" points="569.75,-246.92 577.7,-239.93 567.12,-240.43 569.75,-246.92"/>
</g>
</g>
</svg>
        <g id="navigator" transform="translate(0 0)" fill="#404254">
                <rect fill="#f2f5e9" fill-opacity="0.5" stroke="#606060" stroke-width=".5" x="0" y="0" width="60" height="60"/>
                <use id="zoomplus" xlink:href="#zoomPlus" x="17" y="9" onmousedown="handleZoom(evt,'in')"/>
                <use id="zoomminus" xlink:href="#zoomMin" x="42" y="9" onmousedown="handleZoom(evt,'out')"/>
                <use id="reset" xlink:href="#resetDef" x="30" y="36" onmousedown="handleReset()"/>
                <g id="arrowUp" xlink:href="#dirArrow" transform="translate(30 24)" onmousedown="handlePan(0,-1)">
                  <use xlink:href="#rim" fill="#404040">
                        <set attributeName="fill" to="#808080" begin="arrowUp.mouseover" end="arrowUp.mouseout"/>
                  </use>
                  <path fill="none" stroke="white" stroke-width="1.5" d="M0,-3.0v7 M-2.5,-0.5L0,-3.0L2.5,-0.5"/>
                </g>
                <g id="arrowRight" xlink:href="#dirArrow" transform="rotate(90) translate(36 -43)" onmousedown="handlePan(1,0)">
                  <use xlink:href="#rim" fill="#404040">
                        <set attributeName="fill" to="#808080" begin="arrowRight.mouseover" end="arrowRight.mouseout"/>
                  </use>
                  <path fill="none" stroke="white" stroke-width="1.5" d="M0,-3.0v7 M-2.5,-0.5L0,-3.0L2.5,-0.5"/>
                </g>
                <g id="arrowDown" xlink:href="#dirArrow" transform="rotate(180) translate(-30 -48)" onmousedown="handlePan(0,1)">
                  <use xlink:href="#rim" fill="#404040">
                        <set attributeName="fill" to="#808080" begin="arrowDown.mouseover" end="arrowDown.mouseout"/>
                  </use>
                  <path fill="none" stroke="white" stroke-width="1.5" d="M0,-3.0v7 M-2.5,-0.5L0,-3.0L2.5,-0.5"/>
                </g>
                <g id="arrowLeft" xlink:href="#dirArrow" transform="rotate(270) translate(-36 17)" onmousedown="handlePan(-1,0)">
                  <use xlink:href="#rim" fill="#404040">
                        <set attributeName="fill" to="#808080" begin="arrowLeft.mouseover" end="arrowLeft.mouseout"/>
                  </use>
                  <path fill="none" stroke="white" stroke-width="1.5" d="M0,-3.0v7 M-2.5,-0.5L0,-3.0L2.5,-0.5"/>
                </g>
        </g>
        <svg viewBox="0 0 15 15" width="100%" height="30px" preserveAspectRatio="xMaxYMin meet">
         <g id="arrow_out" transform="scale(0.3 0.3)">
          <a xlink:href="streamresult_8cpp__incl_org.svg" target="_base">
           <rect id="button" ry="5" rx="5" y="6" x="6" height="38" width="38"
                fill="#f2f5e9" fill-opacity="0.5" stroke="#606060" stroke-width="1.0"/>
           <path id="arrow"
             d="M 11.500037,31.436501 C 11.940474,20.09759 22.043105,11.32322 32.158766,21.979434 L 37.068811,17.246167 C 37.068811,17.246167 37.088388,32 37.088388,32 L 22.160133,31.978069 C 22.160133,31.978069 26.997745,27.140456 26.997745,27.140456 C 18.528582,18.264221 13.291696,25.230495 11.500037,31.436501 z"
             style="fill:#404040;"/>
          </a>
         </g>
        </svg>
</svg>
