<?xml version="1.0" encoding="UTF-8" standalone="no"?>
<!DOCTYPE svg PUBLIC "-//W3C//DTD SVG 1.1//EN"
 "http://www.w3.org/Graphics/SVG/1.1/DTD/svg11.dtd">
<!-- Generated by graphviz version 7.0.5 (20221223.1930)
 -->
<!-- Title: src/Generic/stringutil.h Pages: 1 -->
<svg width="174pt" height="137pt"
 viewBox="0.00 0.00 174.00 137.00" xmlns="http://www.w3.org/2000/svg" xmlns:xlink="http://www.w3.org/1999/xlink">
<g id="graph0" class="graph" transform="scale(1 1) rotate(0) translate(4 133)">
<title>src/Generic/stringutil.h</title>
<!-- Node1 -->
<g id="node1" class="node">
<title>Node1</title>
<g id="a_node1"><a xlink:title=" ">
<polygon fill="#999999" stroke="#666666" points="150.5,-129 36.5,-129 36.5,-110 150.5,-110 150.5,-129"/>
<text text-anchor="middle" x="93.5" y="-117" font-family="Helvetica,sans-Serif" font-size="10.00">src/Generic/stringutil.h</text>
</a>
</g>
</g>
<!-- Node2 -->
<g id="node2" class="node">
<title>Node2</title>
<g id="a_node2"><a xlink:href="generator_8h.html" target="_top" xlink:title=" ">
<polygon fill="white" stroke="#666666" points="150,-74 37,-74 37,-55 150,-55 150,-74"/>
<text text-anchor="middle" x="93.5" y="-62" font-family="Helvetica,sans-Serif" font-size="10.00">coroutines/generator.h</text>
</a>
</g>
</g>
<!-- Node1&#45;&gt;Node2 -->
<g id="edge1" class="edge">
<title>Node1&#45;&gt;Node2</title>
<path fill="none" stroke="#63b8ff" d="M93.5,-109.75C93.5,-103.27 93.5,-94.16 93.5,-85.9"/>
<polygon fill="#63b8ff" stroke="#63b8ff" points="97,-85.96 93.5,-75.96 90,-85.96 97,-85.96"/>
</g>
<!-- Node3 -->
<g id="node3" class="node">
<title>Node3</title>
<g id="a_node3"><a xlink:href="manuallifetime_8h.html" target="_top" xlink:title=" ">
<polygon fill="white" stroke="#666666" points="95,-19 0,-19 0,0 95,0 95,-19"/>
<text text-anchor="middle" x="47.5" y="-7" font-family="Helvetica,sans-Serif" font-size="10.00">../manuallifetime.h</text>
</a>
</g>
</g>
<!-- Node2&#45;&gt;Node3 -->
<g id="edge2" class="edge">
<title>Node2&#45;&gt;Node3</title>
<path fill="none" stroke="#63b8ff" d="M85.9,-54.75C79.62,-47.5 70.49,-36.98 62.7,-28.02"/>
<polygon fill="#63b8ff" stroke="#63b8ff" points="65.45,-25.84 56.25,-20.59 60.16,-30.43 65.45,-25.84"/>
</g>
<!-- Node4 -->
<g id="node4" class="node">
<title>Node4</title>
<g id="a_node4"><a xlink:href="src_2_generic_2coroutines_2handle_8h.html" target="_top" xlink:title=" ">
<polygon fill="white" stroke="#666666" points="166,-19 113,-19 113,0 166,0 166,-19"/>
<text text-anchor="middle" x="139.5" y="-7" font-family="Helvetica,sans-Serif" font-size="10.00">handle.h</text>
</a>
</g>
</g>
<!-- Node2&#45;&gt;Node4 -->
<g id="edge3" class="edge">
<title>Node2&#45;&gt;Node4</title>
<path fill="none" stroke="#63b8ff" d="M101.1,-54.75C107.38,-47.5 116.51,-36.98 124.3,-28.02"/>
<polygon fill="#63b8ff" stroke="#63b8ff" points="126.84,-30.43 130.75,-20.59 121.55,-25.84 126.84,-30.43"/>
</g>
</g>
</svg>
