<?xml version="1.0" encoding="UTF-8" standalone="no"?>
<!DOCTYPE svg PUBLIC "-//W3C//DTD SVG 1.1//EN"
 "http://www.w3.org/Graphics/SVG/1.1/DTD/svg11.dtd">
<!-- Generated by graphviz version 7.0.5 (20221223.1930)
 -->
<!-- Title: Engine::Widgets::Button Pages: 1 -->
<svg width="136pt" height="280pt"
 viewBox="0.00 0.00 136.00 280.00" xmlns="http://www.w3.org/2000/svg" xmlns:xlink="http://www.w3.org/1999/xlink">
<g id="graph0" class="graph" transform="scale(1 1) rotate(0) translate(4 276)">
<title>Engine::Widgets::Button</title>
<!-- Node1 -->
<g id="node1" class="node">
<title>Node1</title>
<g id="a_node1"><a xlink:title=" ">
<polygon fill="#999999" stroke="#666666" points="123.5,-19 4.5,-19 4.5,0 123.5,0 123.5,-19"/>
<text text-anchor="middle" x="64" y="-7" font-family="Helvetica,sans-Serif" font-size="10.00">Engine::Widgets::Button</text>
</a>
</g>
</g>
<!-- Node2 -->
<g id="node2" class="node">
<title>Node2</title>
<g id="a_node2"><a xlink:href="struct_engine_1_1_widgets_1_1_widget.html" target="_top" xlink:title=" ">
<polygon fill="white" stroke="#666666" points="124,-85 4,-85 4,-55 124,-55 124,-85"/>
<text text-anchor="start" x="12" y="-73" font-family="Helvetica,sans-Serif" font-size="10.00">Engine::Widgets::Widget</text>
<text text-anchor="middle" x="64" y="-62" font-family="Helvetica,sans-Serif" font-size="10.00">&lt; Button &gt;</text>
</a>
</g>
</g>
<!-- Node2&#45;&gt;Node1 -->
<g id="edge1" class="edge">
<title>Node2&#45;&gt;Node1</title>
<path fill="none" stroke="#63b8ff" d="M64,-43.3C64,-34.65 64,-25.58 64,-19.18"/>
<polygon fill="#63b8ff" stroke="#63b8ff" points="60.5,-43.03 64,-53.03 67.5,-43.03 60.5,-43.03"/>
</g>
<!-- Node3 -->
<g id="node3" class="node">
<title>Node3</title>
<g id="a_node3"><a xlink:href="struct_engine_1_1_virtual_scope.html" target="_top" xlink:title=" ">
<polygon fill="white" stroke="#666666" points="117,-151 11,-151 11,-121 117,-121 117,-151"/>
<text text-anchor="start" x="19" y="-139" font-family="Helvetica,sans-Serif" font-size="10.00">Engine::VirtualScope</text>
<text text-anchor="middle" x="64" y="-128" font-family="Helvetica,sans-Serif" font-size="10.00">&lt; T, Base &gt;</text>
</a>
</g>
</g>
<!-- Node3&#45;&gt;Node2 -->
<g id="edge2" class="edge">
<title>Node3&#45;&gt;Node2</title>
<path fill="none" stroke="#63b8ff" d="M64,-109.39C64,-101.13 64,-92.28 64,-85.16"/>
<polygon fill="#63b8ff" stroke="#63b8ff" points="60.5,-109.28 64,-119.28 67.5,-109.28 60.5,-109.28"/>
</g>
<!-- Node4 -->
<g id="node4" class="node">
<title>Node4</title>
<g id="a_node4"><a xlink:href="struct_engine_1_1_virtual_scope_base.html" target="_top" xlink:title=" ">
<polygon fill="white" stroke="#666666" points="128,-217 0,-217 0,-187 128,-187 128,-217"/>
<text text-anchor="start" x="8" y="-205" font-family="Helvetica,sans-Serif" font-size="10.00">Engine::VirtualScopeBase</text>
<text text-anchor="middle" x="64" y="-194" font-family="Helvetica,sans-Serif" font-size="10.00">&lt; Base &gt;</text>
</a>
</g>
</g>
<!-- Node4&#45;&gt;Node3 -->
<g id="edge3" class="edge">
<title>Node4&#45;&gt;Node3</title>
<path fill="none" stroke="#63b8ff" d="M64,-175.39C64,-167.13 64,-158.28 64,-151.16"/>
<polygon fill="#63b8ff" stroke="#63b8ff" points="60.5,-175.28 64,-185.28 67.5,-175.28 60.5,-175.28"/>
</g>
<!-- Node5 -->
<g id="node5" class="node">
<title>Node5</title>
<g id="a_node5"><a xlink:href="classvoid.html" target="_top" xlink:title=" ">
<polygon fill="white" stroke="#666666" points="81.5,-272 46.5,-272 46.5,-253 81.5,-253 81.5,-272"/>
<text text-anchor="middle" x="64" y="-260" font-family="Helvetica,sans-Serif" font-size="10.00">void</text>
</a>
</g>
</g>
<!-- Node5&#45;&gt;Node4 -->
<g id="edge4" class="edge">
<title>Node5&#45;&gt;Node4</title>
<path fill="none" stroke="#63b8ff" d="M64,-241.51C64,-233.49 64,-224.43 64,-217.11"/>
<polygon fill="#63b8ff" stroke="#63b8ff" points="60.5,-241.35 64,-251.35 67.5,-241.35 60.5,-241.35"/>
</g>
</g>
</svg>
