<?xml version="1.0" encoding="UTF-8" standalone="no"?>
<!DOCTYPE svg PUBLIC "-//W3C//DTD SVG 1.1//EN"
 "http://www.w3.org/Graphics/SVG/1.1/DTD/svg11.dtd">
<!-- Generated by graphviz version 7.0.5 (20221223.1930)
 -->
<!-- Title: Engine::NodeGraph::AccessorNode Pages: 1 -->
<svg width="581pt" height="60pt"
 viewBox="0.00 0.00 581.00 60.00" xmlns="http://www.w3.org/2000/svg" xmlns:xlink="http://www.w3.org/1999/xlink">
<g id="graph0" class="graph" transform="scale(1 1) rotate(0) translate(4 56)">
<title>Engine::NodeGraph::AccessorNode</title>
<!-- Node1 -->
<g id="node1" class="node">
<title>Node1</title>
<g id="a_node1"><a xlink:title=" ">
<polygon fill="#999999" stroke="#666666" points="573,-41 469,-41 469,-11 573,-11 573,-41"/>
<text text-anchor="start" x="477" y="-29" font-family="Helvetica,sans-Serif" font-size="10.00">Engine::NodeGraph::</text>
<text text-anchor="middle" x="521" y="-18" font-family="Helvetica,sans-Serif" font-size="10.00">AccessorNode</text>
</a>
</g>
</g>
<!-- Node2 -->
<g id="node2" class="node">
<title>Node2</title>
<g id="a_node2"><a xlink:href="struct_engine_1_1_serialize_1_1_virtual_data.html" target="_top" xlink:title=" ">
<polygon fill="white" stroke="#666666" points="433,-52 283,-52 283,0 433,0 433,-52"/>
<text text-anchor="start" x="291" y="-40" font-family="Helvetica,sans-Serif" font-size="10.00">Engine::Serialize::</text>
<text text-anchor="start" x="291" y="-29" font-family="Helvetica,sans-Serif" font-size="10.00">VirtualData&lt; AccessorNode,</text>
<text text-anchor="start" x="291" y="-18" font-family="Helvetica,sans-Serif" font-size="10.00"> VirtualScope&lt; AccessorNode,</text>
<text text-anchor="middle" x="358" y="-7" font-family="Helvetica,sans-Serif" font-size="10.00"> NodeBase &gt; &gt;</text>
</a>
</g>
</g>
<!-- Node2&#45;&gt;Node1 -->
<g id="edge1" class="edge">
<title>Node2&#45;&gt;Node1</title>
<path fill="none" stroke="#63b8ff" d="M444.67,-26C452.95,-26 461.15,-26 468.93,-26"/>
<polygon fill="#63b8ff" stroke="#63b8ff" points="444.89,-22.5 434.89,-26 444.89,-29.5 444.89,-22.5"/>
</g>
<!-- Node3 -->
<g id="node3" class="node">
<title>Node3</title>
<g id="a_node3"><a xlink:href="struct_engine_1_1_virtual_scope.html" target="_top" xlink:title=" ">
<polygon fill="white" stroke="#666666" points="247,-41 98,-41 98,-11 247,-11 247,-41"/>
<text text-anchor="start" x="106" y="-29" font-family="Helvetica,sans-Serif" font-size="10.00">Engine::VirtualScope</text>
<text text-anchor="middle" x="172.5" y="-18" font-family="Helvetica,sans-Serif" font-size="10.00">&lt; AccessorNode, NodeBase &gt;</text>
</a>
</g>
</g>
<!-- Node3&#45;&gt;Node2 -->
<g id="edge2" class="edge">
<title>Node3&#45;&gt;Node2</title>
<path fill="none" stroke="#63b8ff" d="M258.64,-26C266.68,-26 274.78,-26 282.71,-26"/>
<polygon fill="#63b8ff" stroke="#63b8ff" points="258.86,-22.5 248.86,-26 258.86,-29.5 258.86,-22.5"/>
</g>
<!-- Node4 -->
<g id="node4" class="node">
<title>Node4</title>
<g id="a_node4"><a xlink:title=" ">
<polygon fill="white" stroke="#666666" points="62,-35.5 0,-35.5 0,-16.5 62,-16.5 62,-35.5"/>
<text text-anchor="middle" x="31" y="-23.5" font-family="Helvetica,sans-Serif" font-size="10.00">NodeBase</text>
</a>
</g>
</g>
<!-- Node4&#45;&gt;Node3 -->
<g id="edge3" class="edge">
<title>Node4&#45;&gt;Node3</title>
<path fill="none" stroke="#63b8ff" d="M73.66,-26C81.23,-26 89.33,-26 97.5,-26"/>
<polygon fill="#63b8ff" stroke="#63b8ff" points="73.78,-22.5 63.78,-26 73.78,-29.5 73.78,-22.5"/>
</g>
</g>
</svg>
