<?xml version="1.0" encoding="UTF-8" standalone="no"?>
<!DOCTYPE svg PUBLIC "-//W3C//DTD SVG 1.1//EN"
 "http://www.w3.org/Graphics/SVG/1.1/DTD/svg11.dtd">
<!-- Generated by graphviz version 7.0.5 (20221223.1930)
 -->
<!-- Title: Engine::container_api_impl&lt; C, std::map&lt; K, T, Ty... &gt; &gt; Pages: 1 -->
<svg width="166pt" height="159pt"
 viewBox="0.00 0.00 166.00 159.00" xmlns="http://www.w3.org/2000/svg" xmlns:xlink="http://www.w3.org/1999/xlink">
<g id="graph0" class="graph" transform="scale(1 1) rotate(0) translate(4 155)">
<title>Engine::container_api_impl&lt; C, std::map&lt; K, T, Ty... &gt; &gt;</title>
<!-- Node1 -->
<g id="node1" class="node">
<title>Node1</title>
<g id="a_node1"><a xlink:title=" ">
<polygon fill="#999999" stroke="#666666" points="136.5,-41 21.5,-41 21.5,0 136.5,0 136.5,-41"/>
<text text-anchor="start" x="29.5" y="-29" font-family="Helvetica,sans-Serif" font-size="10.00">Engine::container_api</text>
<text text-anchor="start" x="29.5" y="-18" font-family="Helvetica,sans-Serif" font-size="10.00">_impl&lt; C, std::map&lt; K,</text>
<text text-anchor="middle" x="79" y="-7" font-family="Helvetica,sans-Serif" font-size="10.00"> T, Ty... &gt; &gt;</text>
</a>
</g>
</g>
<!-- Node2 -->
<g id="node2" class="node">
<title>Node2</title>
<g id="a_node2"><a xlink:href="struct_engine_1_1_sorted_container_api.html" target="_top" xlink:title=" ">
<polygon fill="white" stroke="#666666" points="158,-96 0,-96 0,-77 158,-77 158,-96"/>
<text text-anchor="middle" x="79" y="-84" font-family="Helvetica,sans-Serif" font-size="10.00">Engine::SortedContainerApi&lt; C &gt;</text>
</a>
</g>
</g>
<!-- Node2&#45;&gt;Node1 -->
<g id="edge1" class="edge">
<title>Node2&#45;&gt;Node1</title>
<path fill="none" stroke="#63b8ff" d="M79,-65.14C79,-57.54 79,-48.93 79,-41.38"/>
<polygon fill="#63b8ff" stroke="#63b8ff" points="75.5,-65.09 79,-75.09 82.5,-65.09 75.5,-65.09"/>
</g>
<!-- Node3 -->
<g id="node3" class="node">
<title>Node3</title>
<g id="a_node3"><a xlink:title=" ">
<polygon fill="white" stroke="#666666" points="93.5,-151 64.5,-151 64.5,-132 93.5,-132 93.5,-151"/>
<text text-anchor="middle" x="79" y="-139" font-family="Helvetica,sans-Serif" font-size="10.00">C</text>
</a>
</g>
</g>
<!-- Node3&#45;&gt;Node2 -->
<g id="edge2" class="edge">
<title>Node3&#45;&gt;Node2</title>
<path fill="none" stroke="#63b8ff" d="M79,-120.35C79,-112.1 79,-102.97 79,-96.44"/>
<polygon fill="#63b8ff" stroke="#63b8ff" points="75.5,-120.23 79,-130.23 82.5,-120.23 75.5,-120.23"/>
</g>
</g>
</svg>
