<?xml version="1.0" encoding="UTF-8" standalone="no"?>
<!DOCTYPE svg PUBLIC "-//W3C//DTD SVG 1.1//EN"
 "http://www.w3.org/Graphics/SVG/1.1/DTD/svg11.dtd">
<!-- Generated by graphviz version 7.0.5 (20221223.1930)
 -->
<!-- Title: Engine::Serialize::SerializableUnitBase Pages: 1 -->
<svg width="526pt" height="194pt"
 viewBox="0.00 0.00 526.00 193.50" xmlns="http://www.w3.org/2000/svg" xmlns:xlink="http://www.w3.org/1999/xlink">
<g id="graph0" class="graph" transform="scale(1 1) rotate(0) translate(4 189.5)">
<title>Engine::Serialize::SerializableUnitBase</title>
<!-- Node1 -->
<g id="node1" class="node">
<title>Node1</title>
<g id="a_node1"><a xlink:title=" ">
<polygon fill="#999999" stroke="#666666" points="107,-113.5 0,-113.5 0,-83.5 107,-83.5 107,-113.5"/>
<text text-anchor="start" x="8" y="-101.5" font-family="Helvetica,sans-Serif" font-size="10.00">Engine::Serialize::</text>
<text text-anchor="middle" x="53.5" y="-90.5" font-family="Helvetica,sans-Serif" font-size="10.00">SerializableUnitBase</text>
</a>
</g>
</g>
<!-- Node2 -->
<g id="node2" class="node">
<title>Node2</title>
<g id="a_node2"><a xlink:href="struct_engine_1_1_serialize_1_1_virtual_serializable_unit_base.html" target="_top" xlink:title=" ">
<polygon fill="white" stroke="#666666" points="294.5,-185.5 148.5,-185.5 148.5,-155.5 294.5,-155.5 294.5,-185.5"/>
<text text-anchor="start" x="156.5" y="-173.5" font-family="Helvetica,sans-Serif" font-size="10.00">Engine::Serialize::</text>
<text text-anchor="middle" x="221.5" y="-162.5" font-family="Helvetica,sans-Serif" font-size="10.00">VirtualSerializableUnitBase&lt;&gt;</text>
</a>
</g>
</g>
<!-- Node1&#45;&gt;Node2 -->
<g id="edge1" class="edge">
<title>Node1&#45;&gt;Node2</title>
<path fill="none" stroke="#63b8ff" d="M89.72,-119.67C105.63,-128.69 124.9,-138.88 143,-146.5 150.27,-149.56 158.07,-152.43 165.81,-155.05"/>
<polygon fill="#63b8ff" stroke="#63b8ff" points="91.51,-116.66 81.1,-114.7 88.01,-122.73 91.51,-116.66"/>
</g>
<!-- Node4 -->
<g id="node4" class="node">
<title>Node4</title>
<g id="a_node4"><a xlink:href="struct_engine_1_1_scene_1_1_entity_1_1_syncable_entity_component_base.html" target="_top" xlink:title=" ">
<polygon fill="white" stroke="#666666" points="300,-137.5 143,-137.5 143,-107.5 300,-107.5 300,-137.5"/>
<text text-anchor="start" x="151" y="-125.5" font-family="Helvetica,sans-Serif" font-size="10.00">Engine::Scene::Entity</text>
<text text-anchor="middle" x="221.5" y="-114.5" font-family="Helvetica,sans-Serif" font-size="10.00">::SyncableEntityComponentBase</text>
</a>
</g>
</g>
<!-- Node1&#45;&gt;Node4 -->
<g id="edge3" class="edge">
<title>Node1&#45;&gt;Node4</title>
<path fill="none" stroke="#63b8ff" d="M118.74,-107.79C126.56,-108.92 134.62,-110.08 142.61,-111.24"/>
<polygon fill="#63b8ff" stroke="#63b8ff" points="119.38,-104.34 108.98,-106.38 118.37,-111.27 119.38,-104.34"/>
</g>
<!-- Node5 -->
<g id="node5" class="node">
<title>Node5</title>
<g id="a_node5"><a xlink:href="struct_engine_1_1_serialize_1_1_syncable_unit_base.html" target="_top" xlink:title=" ">
<polygon fill="white" stroke="#666666" points="270,-89.5 173,-89.5 173,-59.5 270,-59.5 270,-89.5"/>
<text text-anchor="start" x="181" y="-77.5" font-family="Helvetica,sans-Serif" font-size="10.00">Engine::Serialize::</text>
<text text-anchor="middle" x="221.5" y="-66.5" font-family="Helvetica,sans-Serif" font-size="10.00">SyncableUnitBase</text>
</a>
</g>
</g>
<!-- Node1&#45;&gt;Node5 -->
<g id="edge4" class="edge">
<title>Node1&#45;&gt;Node5</title>
<path fill="none" stroke="#63b8ff" d="M118.72,-89.21C136.62,-86.63 155.74,-83.86 172.52,-81.44"/>
<polygon fill="#63b8ff" stroke="#63b8ff" points="118.37,-85.73 108.98,-90.62 119.38,-92.66 118.37,-85.73"/>
</g>
<!-- Node9 -->
<g id="node9" class="node">
<title>Node9</title>
<g id="a_node9"><a xlink:href="struct_engine_1_1_serialize_1_1_virtual_serializable_unit_base.html" target="_top" xlink:title=" ">
<polygon fill="white" stroke="#666666" points="288.5,-41 154.5,-41 154.5,0 288.5,0 288.5,-41"/>
<text text-anchor="start" x="162.5" y="-29" font-family="Helvetica,sans-Serif" font-size="10.00">Engine::Serialize::</text>
<text text-anchor="start" x="162.5" y="-18" font-family="Helvetica,sans-Serif" font-size="10.00">VirtualSerializableUnitBase</text>
<text text-anchor="middle" x="221.5" y="-7" font-family="Helvetica,sans-Serif" font-size="10.00">&lt; _Base, _Bases &gt;</text>
</a>
</g>
</g>
<!-- Node1&#45;&gt;Node9 -->
<g id="edge8" class="edge">
<title>Node1&#45;&gt;Node9</title>
<path fill="none" stroke="#63b8ff" d="M90.68,-77.52C106.5,-68.7 125.43,-58.62 143,-50.5 149.68,-47.41 156.77,-44.36 163.85,-41.46"/>
<polygon fill="#63b8ff" stroke="#63b8ff" points="89.08,-74.4 82.09,-82.36 92.52,-80.5 89.08,-74.4"/>
</g>
<!-- Node3 -->
<g id="node3" class="node">
<title>Node3</title>
<g id="a_node3"><a xlink:href="struct_engine_1_1_serialize_1_1_virtual_unit.html" target="_top" xlink:title=" ">
<polygon fill="white" stroke="#666666" points="486,-185.5 368,-185.5 368,-155.5 486,-155.5 486,-185.5"/>
<text text-anchor="start" x="376" y="-173.5" font-family="Helvetica,sans-Serif" font-size="10.00">Engine::Serialize::</text>
<text text-anchor="middle" x="427" y="-162.5" font-family="Helvetica,sans-Serif" font-size="10.00">VirtualUnit&lt; T, _Base &gt;</text>
</a>
</g>
</g>
<!-- Node2&#45;&gt;Node3 -->
<g id="edge2" class="edge">
<title>Node2&#45;&gt;Node3</title>
<path fill="none" stroke="#63b8ff" d="M306.16,-170.5C326.81,-170.5 348.48,-170.5 367.64,-170.5"/>
<polygon fill="#63b8ff" stroke="#63b8ff" points="306.33,-167 296.33,-170.5 306.33,-174 306.33,-167"/>
</g>
<!-- Node6 -->
<g id="node6" class="node">
<title>Node6</title>
<g id="a_node6"><a xlink:href="struct_engine_1_1_scene_1_1_scene_component_base.html" target="_top" xlink:title=" ">
<polygon fill="white" stroke="#666666" points="518,-132 336,-132 336,-113 518,-113 518,-132"/>
<text text-anchor="middle" x="427" y="-120" font-family="Helvetica,sans-Serif" font-size="10.00">Engine::Scene::SceneComponentBase</text>
</a>
</g>
</g>
<!-- Node5&#45;&gt;Node6 -->
<g id="edge5" class="edge">
<title>Node5&#45;&gt;Node6</title>
<path fill="none" stroke="#63b8ff" d="M281.08,-90.71C298.68,-95.39 318.08,-100.34 336,-104.5 348.11,-107.31 361.19,-110.08 373.53,-112.57"/>
<polygon fill="#63b8ff" stroke="#63b8ff" points="282.41,-87.45 271.85,-88.24 280.6,-94.21 282.41,-87.45"/>
</g>
<!-- Node7 -->
<g id="node7" class="node">
<title>Node7</title>
<g id="a_node7"><a xlink:href="struct_engine_1_1_serialize_1_1_table_initialized.html" target="_top" xlink:title=" ">
<polygon fill="white" stroke="#666666" points="476,-95 378,-95 378,-54 476,-54 476,-95"/>
<text text-anchor="start" x="386" y="-83" font-family="Helvetica,sans-Serif" font-size="10.00">Engine::Serialize::</text>
<text text-anchor="start" x="386" y="-72" font-family="Helvetica,sans-Serif" font-size="10.00">TableInitialized&lt; T,</text>
<text text-anchor="middle" x="427" y="-61" font-family="Helvetica,sans-Serif" font-size="10.00"> _Base &gt;</text>
</a>
</g>
</g>
<!-- Node5&#45;&gt;Node7 -->
<g id="edge6" class="edge">
<title>Node5&#45;&gt;Node7</title>
<path fill="none" stroke="#63b8ff" d="M281.81,-74.5C312.28,-74.5 348.92,-74.5 377.65,-74.5"/>
<polygon fill="#63b8ff" stroke="#63b8ff" points="281.98,-71 271.98,-74.5 281.98,-78 281.98,-71"/>
</g>
<!-- Node8 -->
<g id="node8" class="node">
<title>Node8</title>
<g id="a_node8"><a xlink:href="struct_engine_1_1_serialize_1_1_top_level_unit_base.html" target="_top" xlink:title=" ">
<polygon fill="white" stroke="#666666" points="476,-35.5 378,-35.5 378,-5.5 476,-5.5 476,-35.5"/>
<text text-anchor="start" x="386" y="-23.5" font-family="Helvetica,sans-Serif" font-size="10.00">Engine::Serialize::</text>
<text text-anchor="middle" x="427" y="-12.5" font-family="Helvetica,sans-Serif" font-size="10.00">TopLevelUnitBase</text>
</a>
</g>
</g>
<!-- Node5&#45;&gt;Node8 -->
<g id="edge7" class="edge">
<title>Node5&#45;&gt;Node8</title>
<path fill="none" stroke="#63b8ff" d="M281.41,-58.87C311.95,-50.76 348.8,-40.99 377.65,-33.33"/>
<polygon fill="#63b8ff" stroke="#63b8ff" points="280.7,-55.44 271.93,-61.38 282.5,-62.2 280.7,-55.44"/>
</g>
</g>
</svg>
