<?xml version="1.0" encoding="UTF-8" standalone="no"?>
<!DOCTYPE svg PUBLIC "-//W3C//DTD SVG 1.1//EN"
 "http://www.w3.org/Graphics/SVG/1.1/DTD/svg11.dtd">
<!-- Generated by graphviz version 7.0.5 (20221223.1930)
 -->
<!-- Title: Engine::Debug::Debugger Pages: 1 -->
<svg width="153pt" height="280pt"
 viewBox="0.00 0.00 153.00 280.00" xmlns="http://www.w3.org/2000/svg" xmlns:xlink="http://www.w3.org/1999/xlink">
<g id="graph0" class="graph" transform="scale(1 1) rotate(0) translate(4 276)">
<title>Engine::Debug::Debugger</title>
<!-- Node1 -->
<g id="node1" class="node">
<title>Node1</title>
<g id="a_node1"><a xlink:title=" ">
<polygon fill="#999999" stroke="#666666" points="134.5,-19 10.5,-19 10.5,0 134.5,0 134.5,-19"/>
<text text-anchor="middle" x="72.5" y="-7" font-family="Helvetica,sans-Serif" font-size="10.00">Engine::Debug::Debugger</text>
</a>
</g>
</g>
<!-- Node2 -->
<g id="node2" class="node">
<title>Node2</title>
<g id="a_node2"><a xlink:href="struct_engine_1_1_root_1_1_root_component.html" target="_top" xlink:title=" ">
<polygon fill="white" stroke="#666666" points="145,-85 0,-85 0,-55 145,-55 145,-85"/>
<text text-anchor="start" x="8" y="-73" font-family="Helvetica,sans-Serif" font-size="10.00">Engine::Root::RootComponent</text>
<text text-anchor="middle" x="72.5" y="-62" font-family="Helvetica,sans-Serif" font-size="10.00">&lt; Debugger &gt;</text>
</a>
</g>
</g>
<!-- Node2&#45;&gt;Node1 -->
<g id="edge1" class="edge">
<title>Node2&#45;&gt;Node1</title>
<path fill="none" stroke="#63b8ff" d="M72.5,-43.3C72.5,-34.65 72.5,-25.58 72.5,-19.18"/>
<polygon fill="#63b8ff" stroke="#63b8ff" points="69,-43.03 72.5,-53.03 76,-43.03 69,-43.03"/>
</g>
<!-- Node3 -->
<g id="node3" class="node">
<title>Node3</title>
<g id="a_node3"><a xlink:href="struct_engine_1_1_virtual_scope.html" target="_top" xlink:title=" ">
<polygon fill="white" stroke="#666666" points="125.5,-151 19.5,-151 19.5,-121 125.5,-121 125.5,-151"/>
<text text-anchor="start" x="27.5" y="-139" font-family="Helvetica,sans-Serif" font-size="10.00">Engine::VirtualScope</text>
<text text-anchor="middle" x="72.5" y="-128" font-family="Helvetica,sans-Serif" font-size="10.00">&lt; T, Base &gt;</text>
</a>
</g>
</g>
<!-- Node3&#45;&gt;Node2 -->
<g id="edge2" class="edge">
<title>Node3&#45;&gt;Node2</title>
<path fill="none" stroke="#63b8ff" d="M72.5,-109.39C72.5,-101.13 72.5,-92.28 72.5,-85.16"/>
<polygon fill="#63b8ff" stroke="#63b8ff" points="69,-109.28 72.5,-119.28 76,-109.28 69,-109.28"/>
</g>
<!-- Node4 -->
<g id="node4" class="node">
<title>Node4</title>
<g id="a_node4"><a xlink:href="struct_engine_1_1_virtual_scope_base.html" target="_top" xlink:title=" ">
<polygon fill="white" stroke="#666666" points="136.5,-217 8.5,-217 8.5,-187 136.5,-187 136.5,-217"/>
<text text-anchor="start" x="16.5" y="-205" font-family="Helvetica,sans-Serif" font-size="10.00">Engine::VirtualScopeBase</text>
<text text-anchor="middle" x="72.5" y="-194" font-family="Helvetica,sans-Serif" font-size="10.00">&lt; Base &gt;</text>
</a>
</g>
</g>
<!-- Node4&#45;&gt;Node3 -->
<g id="edge3" class="edge">
<title>Node4&#45;&gt;Node3</title>
<path fill="none" stroke="#63b8ff" d="M72.5,-175.39C72.5,-167.13 72.5,-158.28 72.5,-151.16"/>
<polygon fill="#63b8ff" stroke="#63b8ff" points="69,-175.28 72.5,-185.28 76,-175.28 69,-175.28"/>
</g>
<!-- Node5 -->
<g id="node5" class="node">
<title>Node5</title>
<g id="a_node5"><a xlink:href="classvoid.html" target="_top" xlink:title=" ">
<polygon fill="white" stroke="#666666" points="90,-272 55,-272 55,-253 90,-253 90,-272"/>
<text text-anchor="middle" x="72.5" y="-260" font-family="Helvetica,sans-Serif" font-size="10.00">void</text>
</a>
</g>
</g>
<!-- Node5&#45;&gt;Node4 -->
<g id="edge4" class="edge">
<title>Node5&#45;&gt;Node4</title>
<path fill="none" stroke="#63b8ff" d="M72.5,-241.51C72.5,-233.49 72.5,-224.43 72.5,-217.11"/>
<polygon fill="#63b8ff" stroke="#63b8ff" points="69,-241.35 72.5,-251.35 76,-241.35 69,-241.35"/>
</g>
</g>
</svg>
