<?xml version="1.0" encoding="UTF-8" standalone="no"?>
<!DOCTYPE svg PUBLIC "-//W3C//DTD SVG 1.1//EN"
 "http://www.w3.org/Graphics/SVG/1.1/DTD/svg11.dtd">
<!-- Generated by graphviz version 7.0.5 (20221223.1930)
 -->
<!-- Title: Engine::App::GlobalAPIBase Pages: 1 -->
<svg width="489pt" height="86pt"
 viewBox="0.00 0.00 489.00 86.00" xmlns="http://www.w3.org/2000/svg" xmlns:xlink="http://www.w3.org/1999/xlink">
<g id="graph0" class="graph" transform="scale(1 1) rotate(0) translate(4 82)">
<title>Engine::App::GlobalAPIBase</title>
<!-- Node1 -->
<g id="node1" class="node">
<title>Node1</title>
<g id="a_node1"><a xlink:title=" ">
<polygon fill="#999999" stroke="#666666" points="481,-48.5 342,-48.5 342,-29.5 481,-29.5 481,-48.5"/>
<text text-anchor="middle" x="411.5" y="-36.5" font-family="Helvetica,sans-Serif" font-size="10.00">Engine::App::GlobalAPIBase</text>
</a>
</g>
</g>
<!-- Node2 -->
<g id="node2" class="node">
<title>Node2</title>
<g id="a_node2"><a xlink:href="struct_engine_1_1_virtual_scope_base.html" target="_top" xlink:title=" ">
<polygon fill="white" stroke="#666666" points="287.5,-78 159.5,-78 159.5,-48 287.5,-48 287.5,-78"/>
<text text-anchor="start" x="167.5" y="-66" font-family="Helvetica,sans-Serif" font-size="10.00">Engine::VirtualScopeBase</text>
<text text-anchor="middle" x="223.5" y="-55" font-family="Helvetica,sans-Serif" font-size="10.00">&lt; Base &gt;</text>
</a>
</g>
</g>
<!-- Node2&#45;&gt;Node1 -->
<g id="edge1" class="edge">
<title>Node2&#45;&gt;Node1</title>
<path fill="none" stroke="#63b8ff" d="M299.09,-53.38C313.11,-51.57 327.72,-49.68 341.57,-47.89"/>
<polygon fill="#63b8ff" stroke="#63b8ff" points="298.96,-49.86 289.49,-54.61 299.86,-56.81 298.96,-49.86"/>
</g>
<!-- Node3 -->
<g id="node3" class="node">
<title>Node3</title>
<g id="a_node3"><a xlink:href="classvoid.html" target="_top" xlink:title=" ">
<polygon fill="white" stroke="#666666" points="70,-72.5 35,-72.5 35,-53.5 70,-53.5 70,-72.5"/>
<text text-anchor="middle" x="52.5" y="-60.5" font-family="Helvetica,sans-Serif" font-size="10.00">void</text>
</a>
</g>
</g>
<!-- Node3&#45;&gt;Node2 -->
<g id="edge2" class="edge">
<title>Node3&#45;&gt;Node2</title>
<path fill="none" stroke="#63b8ff" d="M81.69,-63C102.84,-63 132.63,-63 159.36,-63"/>
<polygon fill="#63b8ff" stroke="#63b8ff" points="81.84,-59.5 71.84,-63 81.84,-66.5 81.84,-59.5"/>
</g>
<!-- Node4 -->
<g id="node4" class="node">
<title>Node4</title>
<g id="a_node4"><a xlink:href="struct_engine_1_1_threading_1_1_madgine_object.html" target="_top" xlink:title=" ">
<polygon fill="white" stroke="#666666" points="306,-30 141,-30 141,0 306,0 306,-30"/>
<text text-anchor="start" x="149" y="-18" font-family="Helvetica,sans-Serif" font-size="10.00">Engine::Threading::</text>
<text text-anchor="middle" x="223.5" y="-7" font-family="Helvetica,sans-Serif" font-size="10.00">MadgineObject&lt; GlobalAPIBase &gt;</text>
</a>
</g>
</g>
<!-- Node4&#45;&gt;Node1 -->
<g id="edge3" class="edge">
<title>Node4&#45;&gt;Node1</title>
<path fill="none" stroke="#63b8ff" d="M317.73,-27.03C325.8,-28.07 333.87,-29.11 341.69,-30.12"/>
<polygon fill="#63b8ff" stroke="#63b8ff" points="318.22,-23.56 307.85,-25.76 317.32,-30.51 318.22,-23.56"/>
</g>
<!-- Node5 -->
<g id="node5" class="node">
<title>Node5</title>
<g id="a_node5"><a xlink:href="struct_engine_1_1_threading_1_1_madgine_object_state.html" target="_top" xlink:title=" ">
<polygon fill="white" stroke="#666666" points="105,-30 0,-30 0,0 105,0 105,-30"/>
<text text-anchor="start" x="8" y="-18" font-family="Helvetica,sans-Serif" font-size="10.00">Engine::Threading::</text>
<text text-anchor="middle" x="52.5" y="-7" font-family="Helvetica,sans-Serif" font-size="10.00">MadgineObjectState</text>
</a>
</g>
</g>
<!-- Node5&#45;&gt;Node4 -->
<g id="edge4" class="edge">
<title>Node5&#45;&gt;Node4</title>
<path fill="none" stroke="#63b8ff" d="M116.47,-15C124.37,-15 132.54,-15 140.68,-15"/>
<polygon fill="#63b8ff" stroke="#63b8ff" points="116.64,-11.5 106.64,-15 116.64,-18.5 116.64,-11.5"/>
</g>
</g>
</svg>
