<?xml version="1.0" encoding="UTF-8" standalone="no"?>
<!DOCTYPE svg PUBLIC "-//W3C//DTD SVG 1.1//EN"
 "http://www.w3.org/Graphics/SVG/1.1/DTD/svg11.dtd">
<!-- Generated by graphviz version 7.0.5 (20221223.1930)
 -->
<!-- Title: Engine::container_api_impl&lt; C, std::set&lt; Ty... &gt; &gt; Pages: 1 -->
<svg width="166pt" height="148pt"
 viewBox="0.00 0.00 166.00 148.00" xmlns="http://www.w3.org/2000/svg" xmlns:xlink="http://www.w3.org/1999/xlink">
<g id="graph0" class="graph" transform="scale(1 1) rotate(0) translate(4 144)">
<title>Engine::container_api_impl&lt; C, std::set&lt; Ty... &gt; &gt;</title>
<!-- Node1 -->
<g id="node1" class="node">
<title>Node1</title>
<g id="a_node1"><a xlink:title=" ">
<polygon fill="#999999" stroke="#666666" points="146,-30 12,-30 12,0 146,0 146,-30"/>
<text text-anchor="start" x="20" y="-18" font-family="Helvetica,sans-Serif" font-size="10.00">Engine::container_api</text>
<text text-anchor="middle" x="79" y="-7" font-family="Helvetica,sans-Serif" font-size="10.00">_impl&lt; C, std::set&lt; Ty... &gt; &gt;</text>
</a>
</g>
</g>
<!-- Node2 -->
<g id="node2" class="node">
<title>Node2</title>
<g id="a_node2"><a xlink:href="struct_engine_1_1_sorted_container_api.html" target="_top" xlink:title=" ">
<polygon fill="white" stroke="#666666" points="158,-85 0,-85 0,-66 158,-66 158,-85"/>
<text text-anchor="middle" x="79" y="-73" font-family="Helvetica,sans-Serif" font-size="10.00">Engine::SortedContainerApi&lt; C &gt;</text>
</a>
</g>
</g>
<!-- Node2&#45;&gt;Node1 -->
<g id="edge1" class="edge">
<title>Node2&#45;&gt;Node1</title>
<path fill="none" stroke="#63b8ff" d="M79,-54.51C79,-46.49 79,-37.43 79,-30.11"/>
<polygon fill="#63b8ff" stroke="#63b8ff" points="75.5,-54.35 79,-64.35 82.5,-54.35 75.5,-54.35"/>
</g>
<!-- Node3 -->
<g id="node3" class="node">
<title>Node3</title>
<g id="a_node3"><a xlink:title=" ">
<polygon fill="white" stroke="#666666" points="93.5,-140 64.5,-140 64.5,-121 93.5,-121 93.5,-140"/>
<text text-anchor="middle" x="79" y="-128" font-family="Helvetica,sans-Serif" font-size="10.00">C</text>
</a>
</g>
</g>
<!-- Node3&#45;&gt;Node2 -->
<g id="edge2" class="edge">
<title>Node3&#45;&gt;Node2</title>
<path fill="none" stroke="#63b8ff" d="M79,-109.35C79,-101.1 79,-91.97 79,-85.44"/>
<polygon fill="#63b8ff" stroke="#63b8ff" points="75.5,-109.23 79,-119.23 82.5,-109.23 75.5,-109.23"/>
</g>
</g>
</svg>
