<?xml version="1.0" encoding="UTF-8" standalone="no"?>
<!DOCTYPE svg PUBLIC "-//W3C//DTD SVG 1.1//EN"
 "http://www.w3.org/Graphics/SVG/1.1/DTD/svg11.dtd">
<!-- Generated by graphviz version 7.0.5 (20221223.1930)
 -->
<!-- Title: Engine::NativeBehaviorFactory Pages: 1 -->
<svg width="157pt" height="159pt"
 viewBox="0.00 0.00 157.00 159.00" xmlns="http://www.w3.org/2000/svg" xmlns:xlink="http://www.w3.org/1999/xlink">
<g id="graph0" class="graph" transform="scale(1 1) rotate(0) translate(4 155)">
<title>Engine::NativeBehaviorFactory</title>
<!-- Node1 -->
<g id="node1" class="node">
<title>Node1</title>
<g id="a_node1"><a xlink:title=" ">
<polygon fill="#999999" stroke="#666666" points="149,-19 0,-19 0,0 149,0 149,-19"/>
<text text-anchor="middle" x="74.5" y="-7" font-family="Helvetica,sans-Serif" font-size="10.00">Engine::NativeBehaviorFactory</text>
</a>
</g>
</g>
<!-- Node2 -->
<g id="node2" class="node">
<title>Node2</title>
<g id="a_node2"><a xlink:href="struct_engine_1_1_behavior_factory.html" target="_top" xlink:title=" ">
<polygon fill="white" stroke="#666666" points="140.5,-85 8.5,-85 8.5,-55 140.5,-55 140.5,-85"/>
<text text-anchor="start" x="16.5" y="-73" font-family="Helvetica,sans-Serif" font-size="10.00">Engine::BehaviorFactory</text>
<text text-anchor="middle" x="74.5" y="-62" font-family="Helvetica,sans-Serif" font-size="10.00">&lt; NativeBehaviorFactory &gt;</text>
</a>
</g>
</g>
<!-- Node2&#45;&gt;Node1 -->
<g id="edge1" class="edge">
<title>Node2&#45;&gt;Node1</title>
<path fill="none" stroke="#63b8ff" d="M74.5,-43.3C74.5,-34.65 74.5,-25.58 74.5,-19.18"/>
<polygon fill="#63b8ff" stroke="#63b8ff" points="71,-43.03 74.5,-53.03 78,-43.03 71,-43.03"/>
</g>
<!-- Node3 -->
<g id="node3" class="node">
<title>Node3</title>
<g id="a_node3"><a xlink:title=" ">
<polygon fill="white" stroke="#666666" points="143,-151 6,-151 6,-121 143,-121 143,-151"/>
<text text-anchor="start" x="14" y="-139" font-family="Helvetica,sans-Serif" font-size="10.00">BehaviorFactoryComponent</text>
<text text-anchor="middle" x="74.5" y="-128" font-family="Helvetica,sans-Serif" font-size="10.00">&lt; NativeBehaviorFactory &#160;&gt;</text>
</a>
</g>
</g>
<!-- Node3&#45;&gt;Node2 -->
<g id="edge2" class="edge">
<title>Node3&#45;&gt;Node2</title>
<path fill="none" stroke="#63b8ff" d="M74.5,-109.39C74.5,-101.13 74.5,-92.28 74.5,-85.16"/>
<polygon fill="#63b8ff" stroke="#63b8ff" points="71,-109.28 74.5,-119.28 78,-109.28 71,-109.28"/>
</g>
</g>
</svg>
