<?xml version="1.0" encoding="UTF-8" standalone="no"?>
<!DOCTYPE svg PUBLIC "-//W3C//DTD SVG 1.1//EN"
 "http://www.w3.org/Graphics/SVG/1.1/DTD/svg11.dtd">
<!-- Generated by graphviz version 7.0.5 (20221223.1930)
 -->
<!-- Title: Engine::Render::RenderDebuggable Pages: 1 -->
<!--zoomable 284 -->
<svg id="main" version="1.1" xmlns="http://www.w3.org/2000/svg" xmlns:xlink="http://www.w3.org/1999/xlink" xml:space="preserve" onload="init(evt)">
<style type="text/css"><![CDATA[
.edge:hover path { stroke: red; }
.edge:hover polygon { stroke: red; fill: red; }
]]></style>
<script type="text/javascript"><![CDATA[
var edges = document.getElementsByTagName('g');
if (edges && edges.length) {
  for (var i=0;i<edges.length;i++) {
    if (edges[i].id.substr(0,4)=='edge') {
      edges[i].setAttribute('class','edge');
    }
  }
}
]]></script>
        <defs>
                <circle id="rim" cx="0" cy="0" r="7"/>
                <circle id="rim2" cx="0" cy="0" r="3.5"/>
                <g id="zoomPlus">
                        <use xlink:href="#rim" fill="#404040">
                                <set attributeName="fill" to="#808080" begin="zoomplus.mouseover" end="zoomplus.mouseout"/>
                        </use>
                        <path d="M-4,0h8M0,-4v8" fill="none" stroke="white" stroke-width="1.5" pointer-events="none"/>
                </g>
                <g id="zoomMin">
                        <use xlink:href="#rim" fill="#404040">
                                <set attributeName="fill" to="#808080" begin="zoomminus.mouseover" end="zoomminus.mouseout"/>
                        </use>
                        <path d="M-4,0h8" fill="none" stroke="white" stroke-width="1.5" pointer-events="none"/>
                </g>
                <g id="dirArrow">
                        <path fill="none" stroke="white" stroke-width="1.5" d="M0,-3.0v7 M-2.5,-0.5L0,-3.0L2.5,-0.5"/>
                </g>
               <g id="resetDef">
                       <use xlink:href="#rim2" fill="#404040">
                               <set attributeName="fill" to="#808080" begin="reset.mouseover" end="reset.mouseout"/>
                       </use>
               </g>
        </defs>

<script type="text/javascript">
var viewWidth = 919;
var viewHeight = 284;
var sectionId = 'dynsection-0';
</script>
<script xlink:href="svgpan.js"/>
<svg id="graph" class="graph">
<g id="viewport">
<title>Engine::Render::RenderDebuggable</title>
<!-- Node1 -->
<g id="node1" class="node">
<title>Node1</title>
<g id="a_node1"><a xlink:title=" ">
<polygon fill="#999999" stroke="#666666" points="167,-136 0,-136 0,-117 167,-117 167,-136"/>
<text text-anchor="middle" x="83.5" y="-124" font-family="Helvetica,sans-Serif" font-size="10.00">Engine::Render::RenderDebuggable</text>
</a>
</g>
</g>
<!-- Node2 -->
<g id="node2" class="node">
<title>Node2</title>
<g id="a_node2"><a xlink:href="struct_engine_1_1_render_1_1_render_pass.html" target="_top" xlink:title=" ">
<polygon fill="white" stroke="#666666" points="342,-136 203,-136 203,-117 342,-117 342,-136"/>
<text text-anchor="middle" x="272.5" y="-124" font-family="Helvetica,sans-Serif" font-size="10.00">Engine::Render::RenderPass</text>
</a>
</g>
</g>
<!-- Node1&#45;&gt;Node2 -->
<g id="edge1" class="edge">
<title>Node1&#45;&gt;Node2</title>
<path fill="none" stroke="#63b8ff" d="M178.74,-126.5C186.82,-126.5 194.9,-126.5 202.72,-126.5"/>
<polygon fill="#63b8ff" stroke="#63b8ff" points="178.85,-123 168.85,-126.5 178.85,-130 178.85,-123"/>
</g>
<!-- Node3 -->
<g id="node3" class="node">
<title>Node3</title>
<g id="a_node3"><a xlink:href="struct_engine_1_1_virtual_scope_base.html" target="_top" xlink:title=" ">
<polygon fill="white" stroke="#666666" points="529,-264.5 401,-264.5 401,-234.5 529,-234.5 529,-264.5"/>
<text text-anchor="start" x="409" y="-252.5" font-family="Helvetica,sans-Serif" font-size="10.00">Engine::VirtualScopeBase</text>
<text text-anchor="middle" x="465" y="-241.5" font-family="Helvetica,sans-Serif" font-size="10.00">&lt; Render::RenderPass &gt;</text>
</a>
</g>
</g>
<!-- Node2&#45;&gt;Node3 -->
<g id="edge2" class="edge">
<title>Node2&#45;&gt;Node3</title>
<path fill="none" stroke="#63b8ff" d="M288.2,-145.13C306.79,-167.46 340.87,-204.47 378,-225.5 385.01,-229.47 392.73,-232.82 400.57,-235.64"/>
<polygon fill="#63b8ff" stroke="#63b8ff" points="290.99,-143.01 281.96,-137.46 285.55,-147.43 290.99,-143.01"/>
</g>
<!-- Node6 -->
<g id="node6" class="node">
<title>Node6</title>
<g id="a_node6"><a xlink:href="struct_engine_1_1_render_1_1_bloom_pass.html" target="_top" xlink:title=" ">
<polygon fill="white" stroke="#666666" points="533,-216 397,-216 397,-197 533,-197 533,-216"/>
<text text-anchor="middle" x="465" y="-204" font-family="Helvetica,sans-Serif" font-size="10.00">Engine::Render::BloomPass</text>
</a>
</g>
</g>
<!-- Node2&#45;&gt;Node6 -->
<g id="edge5" class="edge">
<title>Node2&#45;&gt;Node6</title>
<path fill="none" stroke="#63b8ff" d="M296.32,-143.05C316.77,-157.13 348.06,-176.86 378,-188.5 386.25,-191.71 395.17,-194.38 404.04,-196.61"/>
<polygon fill="#63b8ff" stroke="#63b8ff" points="298.38,-140.22 288.18,-137.34 294.36,-145.95 298.38,-140.22"/>
</g>
<!-- Node7 -->
<g id="node7" class="node">
<title>Node7</title>
<g id="a_node7"><a xlink:href="struct_engine_1_1_render_1_1_blur_pass.html" target="_top" xlink:title=" ">
<polygon fill="white" stroke="#666666" points="527.5,-179 402.5,-179 402.5,-160 527.5,-160 527.5,-179"/>
<text text-anchor="middle" x="465" y="-167" font-family="Helvetica,sans-Serif" font-size="10.00">Engine::Render::BlurPass</text>
</a>
</g>
</g>
<!-- Node2&#45;&gt;Node7 -->
<g id="edge6" class="edge">
<title>Node2&#45;&gt;Node7</title>
<path fill="none" stroke="#63b8ff" d="M327.4,-138.97C343.65,-142.7 361.55,-146.79 378,-150.5 391.13,-153.46 405.39,-156.63 418.46,-159.51"/>
<polygon fill="#63b8ff" stroke="#63b8ff" points="328.45,-135.62 317.92,-136.79 326.88,-142.44 328.45,-135.62"/>
</g>
<!-- Node8 -->
<g id="node8" class="node">
<title>Node8</title>
<g id="a_node8"><a xlink:href="struct_engine_1_1_render_1_1_point_shadow_render_pass.html" target="_top" xlink:title=" ">
<polygon fill="white" stroke="#666666" points="536.5,-141.5 393.5,-141.5 393.5,-111.5 536.5,-111.5 536.5,-141.5"/>
<text text-anchor="start" x="401.5" y="-129.5" font-family="Helvetica,sans-Serif" font-size="10.00">Engine::Render::PointShadow</text>
<text text-anchor="middle" x="465" y="-118.5" font-family="Helvetica,sans-Serif" font-size="10.00">RenderPass</text>
</a>
</g>
</g>
<!-- Node2&#45;&gt;Node8 -->
<g id="edge7" class="edge">
<title>Node2&#45;&gt;Node8</title>
<path fill="none" stroke="#63b8ff" d="M353.65,-126.5C366.75,-126.5 380.23,-126.5 393.08,-126.5"/>
<polygon fill="#63b8ff" stroke="#63b8ff" points="353.79,-123 343.79,-126.5 353.79,-130 353.79,-123"/>
</g>
<!-- Node9 -->
<g id="node9" class="node">
<title>Node9</title>
<g id="a_node9"><a xlink:href="struct_engine_1_1_render_1_1_scene_render_pass.html" target="_top" xlink:title=" ">
<polygon fill="white" stroke="#666666" points="548.5,-93 381.5,-93 381.5,-74 548.5,-74 548.5,-93"/>
<text text-anchor="middle" x="465" y="-81" font-family="Helvetica,sans-Serif" font-size="10.00">Engine::Render::SceneRenderPass</text>
</a>
</g>
</g>
<!-- Node2&#45;&gt;Node9 -->
<g id="edge8" class="edge">
<title>Node2&#45;&gt;Node9</title>
<path fill="none" stroke="#63b8ff" d="M327.4,-114.03C343.65,-110.3 361.55,-106.21 378,-102.5 391.13,-99.54 405.39,-96.37 418.46,-93.49"/>
<polygon fill="#63b8ff" stroke="#63b8ff" points="326.88,-110.56 317.92,-116.21 328.45,-117.38 326.88,-110.56"/>
</g>
<!-- Node10 -->
<g id="node10" class="node">
<title>Node10</title>
<g id="a_node10"><a xlink:href="struct_engine_1_1_render_1_1_shadow_render_pass.html" target="_top" xlink:title=" ">
<polygon fill="white" stroke="#666666" points="552,-56 378,-56 378,-37 552,-37 552,-56"/>
<text text-anchor="middle" x="465" y="-44" font-family="Helvetica,sans-Serif" font-size="10.00">Engine::Render::ShadowRenderPass</text>
</a>
</g>
</g>
<!-- Node2&#45;&gt;Node10 -->
<g id="edge9" class="edge">
<title>Node2&#45;&gt;Node10</title>
<path fill="none" stroke="#63b8ff" d="M296.74,-110.08C317.24,-96.31 348.38,-77.09 378,-65.5 387.26,-61.88 397.36,-58.87 407.27,-56.4"/>
<polygon fill="#63b8ff" stroke="#63b8ff" points="294.84,-107.14 288.57,-115.67 298.8,-112.91 294.84,-107.14"/>
</g>
<!-- Node11 -->
<g id="node11" class="node">
<title>Node11</title>
<g id="a_node11"><a xlink:href="struct_engine_1_1_tools_1_1_grid_pass.html" target="_top" xlink:title=" ">
<polygon fill="white" stroke="#666666" points="524.5,-19 405.5,-19 405.5,0 524.5,0 524.5,-19"/>
<text text-anchor="middle" x="465" y="-7" font-family="Helvetica,sans-Serif" font-size="10.00">Engine::Tools::GridPass</text>
</a>
</g>
</g>
<!-- Node2&#45;&gt;Node11 -->
<g id="edge10" class="edge">
<title>Node2&#45;&gt;Node11</title>
<path fill="none" stroke="#63b8ff" d="M288.06,-107.72C306.5,-85.29 340.44,-48.31 378,-28.5 386.39,-24.08 395.75,-20.68 405.14,-18.08"/>
<polygon fill="#63b8ff" stroke="#63b8ff" points="285.39,-105.45 281.87,-115.44 290.85,-109.82 285.39,-105.45"/>
</g>
<!-- Node4 -->
<g id="node4" class="node">
<title>Node4</title>
<g id="a_node4"><a xlink:href="struct_engine_1_1_serialize_1_1_virtual_serializable_data_base.html" target="_top" xlink:title=" ">
<polygon fill="white" stroke="#666666" points="730,-275.5 588,-275.5 588,-223.5 730,-223.5 730,-275.5"/>
<text text-anchor="start" x="596" y="-263.5" font-family="Helvetica,sans-Serif" font-size="10.00">Engine::Serialize::</text>
<text text-anchor="start" x="596" y="-252.5" font-family="Helvetica,sans-Serif" font-size="10.00">VirtualSerializableDataBase</text>
<text text-anchor="start" x="596" y="-241.5" font-family="Helvetica,sans-Serif" font-size="10.00">&lt; VirtualScopeBase&lt; Render</text>
<text text-anchor="middle" x="659" y="-230.5" font-family="Helvetica,sans-Serif" font-size="10.00">::RenderPass &gt; &gt;</text>
</a>
</g>
</g>
<!-- Node3&#45;&gt;Node4 -->
<g id="edge3" class="edge">
<title>Node3&#45;&gt;Node4</title>
<path fill="none" stroke="#63b8ff" d="M540.53,-249.5C556.05,-249.5 572.35,-249.5 587.71,-249.5"/>
<polygon fill="#63b8ff" stroke="#63b8ff" points="540.91,-246 530.91,-249.5 540.91,-253 540.91,-246"/>
</g>
<!-- Node5 -->
<g id="node5" class="node">
<title>Node5</title>
<g id="a_node5"><a xlink:href="struct_engine_1_1_window_1_1_main_window_component_base.html" target="_top" xlink:title=" ">
<polygon fill="white" stroke="#666666" points="911,-264.5 766,-264.5 766,-234.5 911,-234.5 911,-264.5"/>
<text text-anchor="start" x="774" y="-252.5" font-family="Helvetica,sans-Serif" font-size="10.00">Engine::Window::MainWindow</text>
<text text-anchor="middle" x="838.5" y="-241.5" font-family="Helvetica,sans-Serif" font-size="10.00">ComponentBase</text>
</a>
</g>
</g>
<!-- Node4&#45;&gt;Node5 -->
<g id="edge4" class="edge">
<title>Node4&#45;&gt;Node5</title>
<path fill="none" stroke="#63b8ff" d="M741.68,-249.5C749.7,-249.5 757.81,-249.5 765.72,-249.5"/>
<polygon fill="#63b8ff" stroke="#63b8ff" points="741.92,-246 731.92,-249.5 741.92,-253 741.92,-246"/>
</g>
</g>
</svg>
        <g id="navigator" transform="translate(0 0)" fill="#404254">
                <rect fill="#f2f5e9" fill-opacity="0.5" stroke="#606060" stroke-width=".5" x="0" y="0" width="60" height="60"/>
                <use id="zoomplus" xlink:href="#zoomPlus" x="17" y="9" onmousedown="handleZoom(evt,'in')"/>
                <use id="zoomminus" xlink:href="#zoomMin" x="42" y="9" onmousedown="handleZoom(evt,'out')"/>
                <use id="reset" xlink:href="#resetDef" x="30" y="36" onmousedown="handleReset()"/>
                <g id="arrowUp" xlink:href="#dirArrow" transform="translate(30 24)" onmousedown="handlePan(0,-1)">
                  <use xlink:href="#rim" fill="#404040">
                        <set attributeName="fill" to="#808080" begin="arrowUp.mouseover" end="arrowUp.mouseout"/>
                  </use>
                  <path fill="none" stroke="white" stroke-width="1.5" d="M0,-3.0v7 M-2.5,-0.5L0,-3.0L2.5,-0.5"/>
                </g>
                <g id="arrowRight" xlink:href="#dirArrow" transform="rotate(90) translate(36 -43)" onmousedown="handlePan(1,0)">
                  <use xlink:href="#rim" fill="#404040">
                        <set attributeName="fill" to="#808080" begin="arrowRight.mouseover" end="arrowRight.mouseout"/>
                  </use>
                  <path fill="none" stroke="white" stroke-width="1.5" d="M0,-3.0v7 M-2.5,-0.5L0,-3.0L2.5,-0.5"/>
                </g>
                <g id="arrowDown" xlink:href="#dirArrow" transform="rotate(180) translate(-30 -48)" onmousedown="handlePan(0,1)">
                  <use xlink:href="#rim" fill="#404040">
                        <set attributeName="fill" to="#808080" begin="arrowDown.mouseover" end="arrowDown.mouseout"/>
                  </use>
                  <path fill="none" stroke="white" stroke-width="1.5" d="M0,-3.0v7 M-2.5,-0.5L0,-3.0L2.5,-0.5"/>
                </g>
                <g id="arrowLeft" xlink:href="#dirArrow" transform="rotate(270) translate(-36 17)" onmousedown="handlePan(-1,0)">
                  <use xlink:href="#rim" fill="#404040">
                        <set attributeName="fill" to="#808080" begin="arrowLeft.mouseover" end="arrowLeft.mouseout"/>
                  </use>
                  <path fill="none" stroke="white" stroke-width="1.5" d="M0,-3.0v7 M-2.5,-0.5L0,-3.0L2.5,-0.5"/>
                </g>
        </g>
        <svg viewBox="0 0 15 15" width="100%" height="30px" preserveAspectRatio="xMaxYMin meet">
         <g id="arrow_out" transform="scale(0.3 0.3)">
          <a xlink:href="struct_engine_1_1_render_1_1_render_debuggable__inherit__graph_org.svg" target="_base">
           <rect id="button" ry="5" rx="5" y="6" x="6" height="38" width="38"
                fill="#f2f5e9" fill-opacity="0.5" stroke="#606060" stroke-width="1.0"/>
           <path id="arrow"
             d="M 11.500037,31.436501 C 11.940474,20.09759 22.043105,11.32322 32.158766,21.979434 L 37.068811,17.246167 C 37.068811,17.246167 37.088388,32 37.088388,32 L 22.160133,31.978069 C 22.160133,31.978069 26.997745,27.140456 26.997745,27.140456 C 18.528582,18.264221 13.291696,25.230495 11.500037,31.436501 z"
             style="fill:#404040;"/>
          </a>
         </g>
        </svg>
</svg>
