<?xml version="1.0" encoding="UTF-8" standalone="no"?>
<!DOCTYPE svg PUBLIC "-//W3C//DTD SVG 1.1//EN"
 "http://www.w3.org/Graphics/SVG/1.1/DTD/svg11.dtd">
<!-- Generated by graphviz version 7.0.5 (20221223.1930)
 -->
<!-- Title: Engine::CompactContainer&lt; C, Observer &gt; Pages: 1 -->
<svg width="172pt" height="93pt"
 viewBox="0.00 0.00 172.00 93.00" xmlns="http://www.w3.org/2000/svg" xmlns:xlink="http://www.w3.org/1999/xlink">
<g id="graph0" class="graph" transform="scale(1 1) rotate(0) translate(4 89)">
<title>Engine::CompactContainer&lt; C, Observer &gt;</title>
<!-- Node1 -->
<g id="node1" class="node">
<title>Node1</title>
<g id="a_node1"><a xlink:title=" ">
<polygon fill="#999999" stroke="#666666" points="131,-30 0,-30 0,0 131,0 131,-30"/>
<text text-anchor="start" x="8" y="-18" font-family="Helvetica,sans-Serif" font-size="10.00">Engine::CompactContainer</text>
<text text-anchor="middle" x="65.5" y="-7" font-family="Helvetica,sans-Serif" font-size="10.00">&lt; C, Observer &gt;</text>
</a>
</g>
</g>
<!-- Node2 -->
<g id="node2" class="node">
<title>Node2</title>
<g id="a_node2"><a xlink:title=" ">
<polygon fill="white" stroke="#666666" points="37,-85 8,-85 8,-66 37,-66 37,-85"/>
<text text-anchor="middle" x="22.5" y="-73" font-family="Helvetica,sans-Serif" font-size="10.00">C</text>
</a>
</g>
</g>
<!-- Node2&#45;&gt;Node1 -->
<g id="edge1" class="edge">
<title>Node2&#45;&gt;Node1</title>
<path fill="none" stroke="#63b8ff" d="M35.53,-56.78C41.81,-48.23 49.24,-38.13 55.13,-30.11"/>
<polygon fill="#63b8ff" stroke="#63b8ff" points="32.84,-54.52 29.74,-64.65 38.48,-58.66 32.84,-54.52"/>
</g>
<!-- Node3 -->
<g id="node3" class="node">
<title>Node3</title>
<g id="a_node3"><a xlink:href="struct_engine_1_1_no_op_functor.html" target="_top" xlink:title=" ">
<polygon fill="white" stroke="#666666" points="164,-85 55,-85 55,-66 164,-66 164,-85"/>
<text text-anchor="middle" x="109.5" y="-73" font-family="Helvetica,sans-Serif" font-size="10.00">Engine::NoOpFunctor</text>
</a>
</g>
</g>
<!-- Node3&#45;&gt;Node1 -->
<g id="edge2" class="edge">
<title>Node3&#45;&gt;Node1</title>
<path fill="none" stroke="#63b8ff" d="M96.17,-56.78C89.74,-48.23 82.14,-38.13 76.12,-30.11"/>
<polygon fill="#63b8ff" stroke="#63b8ff" points="93.29,-58.77 102.1,-64.66 98.88,-54.56 93.29,-58.77"/>
</g>
</g>
</svg>
