<?xml version="1.0" encoding="UTF-8" standalone="no"?>
<!DOCTYPE svg PUBLIC "-//W3C//DTD SVG 1.1//EN"
 "http://www.w3.org/Graphics/SVG/1.1/DTD/svg11.dtd">
<!-- Generated by graphviz version 7.0.5 (20221223.1930)
 -->
<!-- Title: Engine::Serialize::SerializableContainerImpl&lt; C, Observer, OffsetPtr &gt; Pages: 1 -->
<svg width="305pt" height="258pt"
 viewBox="0.00 0.00 304.50 258.00" xmlns="http://www.w3.org/2000/svg" xmlns:xlink="http://www.w3.org/1999/xlink">
<g id="graph0" class="graph" transform="scale(1 1) rotate(0) translate(4 254)">
<title>Engine::Serialize::SerializableContainerImpl&lt; C, Observer, OffsetPtr &gt;</title>
<!-- Node1 -->
<g id="node1" class="node">
<title>Node1</title>
<g id="a_node1"><a xlink:title=" ">
<polygon fill="#999999" stroke="#666666" points="219.5,-118 90.5,-118 90.5,-77 219.5,-77 219.5,-118"/>
<text text-anchor="start" x="98.5" y="-106" font-family="Helvetica,sans-Serif" font-size="10.00">Engine::Serialize::</text>
<text text-anchor="start" x="98.5" y="-95" font-family="Helvetica,sans-Serif" font-size="10.00">SerializableContainerImpl</text>
<text text-anchor="middle" x="155" y="-84" font-family="Helvetica,sans-Serif" font-size="10.00">&lt; C, Observer, OffsetPtr &gt;</text>
</a>
</g>
</g>
<!-- Node6 -->
<g id="node6" class="node">
<title>Node6</title>
<g id="a_node6"><a xlink:href="struct_engine_1_1_serialize_1_1_syncable_container_impl.html" target="_top" xlink:title=" ">
<polygon fill="white" stroke="#666666" points="219.5,-41 90.5,-41 90.5,0 219.5,0 219.5,-41"/>
<text text-anchor="start" x="98.5" y="-29" font-family="Helvetica,sans-Serif" font-size="10.00">Engine::Serialize::</text>
<text text-anchor="start" x="98.5" y="-18" font-family="Helvetica,sans-Serif" font-size="10.00">SyncableContainerImpl</text>
<text text-anchor="middle" x="155" y="-7" font-family="Helvetica,sans-Serif" font-size="10.00">&lt; C, Observer, OffsetPtr &gt;</text>
</a>
</g>
</g>
<!-- Node1&#45;&gt;Node6 -->
<g id="edge5" class="edge">
<title>Node1&#45;&gt;Node6</title>
<path fill="none" stroke="#63b8ff" d="M155,-65.36C155,-57.24 155,-48.7 155,-41.33"/>
<polygon fill="#63b8ff" stroke="#63b8ff" points="151.5,-65.28 155,-75.28 158.5,-65.28 151.5,-65.28"/>
</g>
<!-- Node2 -->
<g id="node2" class="node">
<title>Node2</title>
<g id="a_node2"><a xlink:href="struct_engine_1_1_serialize_1_1_serializable.html" target="_top" xlink:title=" ">
<polygon fill="white" stroke="#666666" points="122,-184 0,-184 0,-154 122,-154 122,-184"/>
<text text-anchor="start" x="8" y="-172" font-family="Helvetica,sans-Serif" font-size="10.00">Engine::Serialize::</text>
<text text-anchor="middle" x="61" y="-161" font-family="Helvetica,sans-Serif" font-size="10.00">Serializable&lt; OffsetPtr &gt;</text>
</a>
</g>
</g>
<!-- Node2&#45;&gt;Node1 -->
<g id="edge1" class="edge">
<title>Node2&#45;&gt;Node1</title>
<path fill="none" stroke="#63b8ff" d="M89.4,-147C101.67,-137.93 115.96,-127.37 128.06,-118.42"/>
<polygon fill="#63b8ff" stroke="#63b8ff" points="87.65,-143.94 81.69,-152.7 91.82,-149.57 87.65,-143.94"/>
</g>
<!-- Node3 -->
<g id="node3" class="node">
<title>Node3</title>
<g id="a_node3"><a xlink:href="struct_engine_1_1_serialize_1_1_serializable_base.html" target="_top" xlink:title=" ">
<polygon fill="white" stroke="#666666" points="107,-250 15,-250 15,-220 107,-220 107,-250"/>
<text text-anchor="start" x="23" y="-238" font-family="Helvetica,sans-Serif" font-size="10.00">Engine::Serialize::</text>
<text text-anchor="middle" x="61" y="-227" font-family="Helvetica,sans-Serif" font-size="10.00">SerializableBase</text>
</a>
</g>
</g>
<!-- Node3&#45;&gt;Node2 -->
<g id="edge2" class="edge">
<title>Node3&#45;&gt;Node2</title>
<path fill="none" stroke="#63b8ff" d="M61,-208.39C61,-200.13 61,-191.28 61,-184.16"/>
<polygon fill="#63b8ff" stroke="#63b8ff" points="57.5,-208.28 61,-218.28 64.5,-208.28 57.5,-208.28"/>
</g>
<!-- Node4 -->
<g id="node4" class="node">
<title>Node4</title>
<g id="a_node4"><a xlink:title=" ">
<polygon fill="white" stroke="#666666" points="169.5,-178.5 140.5,-178.5 140.5,-159.5 169.5,-159.5 169.5,-178.5"/>
<text text-anchor="middle" x="155" y="-166.5" font-family="Helvetica,sans-Serif" font-size="10.00">C</text>
</a>
</g>
</g>
<!-- Node4&#45;&gt;Node1 -->
<g id="edge3" class="edge">
<title>Node4&#45;&gt;Node1</title>
<path fill="none" stroke="#63b8ff" d="M155,-147.89C155,-138.59 155,-127.56 155,-118.29"/>
<polygon fill="#63b8ff" stroke="#63b8ff" points="151.5,-147.68 155,-157.68 158.5,-147.68 151.5,-147.68"/>
</g>
<!-- Node5 -->
<g id="node5" class="node">
<title>Node5</title>
<g id="a_node5"><a xlink:href="struct_engine_1_1_no_op_functor.html" target="_top" xlink:title=" ">
<polygon fill="white" stroke="#666666" points="296.5,-178.5 187.5,-178.5 187.5,-159.5 296.5,-159.5 296.5,-178.5"/>
<text text-anchor="middle" x="242" y="-166.5" font-family="Helvetica,sans-Serif" font-size="10.00">Engine::NoOpFunctor</text>
</a>
</g>
</g>
<!-- Node5&#45;&gt;Node1 -->
<g id="edge4" class="edge">
<title>Node5&#45;&gt;Node1</title>
<path fill="none" stroke="#63b8ff" d="M222.21,-152.19C209.63,-142.14 193.23,-129.04 179.78,-118.29"/>
<polygon fill="#63b8ff" stroke="#63b8ff" points="219.8,-154.75 229.8,-158.25 224.17,-149.28 219.8,-154.75"/>
</g>
</g>
</svg>
