<?xml version="1.0" encoding="UTF-8" standalone="no"?>
<!DOCTYPE svg PUBLIC "-//W3C//DTD SVG 1.1//EN"
 "http://www.w3.org/Graphics/SVG/1.1/DTD/svg11.dtd">
<!-- Generated by graphviz version 7.0.5 (20221223.1930)
 -->
<!-- Title: Engine::Render::RenderTarget Pages: 1 -->
<!--zoomable 278 -->
<svg id="main" version="1.1" xmlns="http://www.w3.org/2000/svg" xmlns:xlink="http://www.w3.org/1999/xlink" xml:space="preserve" onload="init(evt)">
<style type="text/css"><![CDATA[
.edge:hover path { stroke: red; }
.edge:hover polygon { stroke: red; fill: red; }
]]></style>
<script type="text/javascript"><![CDATA[
var edges = document.getElementsByTagName('g');
if (edges && edges.length) {
  for (var i=0;i<edges.length;i++) {
    if (edges[i].id.substr(0,4)=='edge') {
      edges[i].setAttribute('class','edge');
    }
  }
}
]]></script>
        <defs>
                <circle id="rim" cx="0" cy="0" r="7"/>
                <circle id="rim2" cx="0" cy="0" r="3.5"/>
                <g id="zoomPlus">
                        <use xlink:href="#rim" fill="#404040">
                                <set attributeName="fill" to="#808080" begin="zoomplus.mouseover" end="zoomplus.mouseout"/>
                        </use>
                        <path d="M-4,0h8M0,-4v8" fill="none" stroke="white" stroke-width="1.5" pointer-events="none"/>
                </g>
                <g id="zoomMin">
                        <use xlink:href="#rim" fill="#404040">
                                <set attributeName="fill" to="#808080" begin="zoomminus.mouseover" end="zoomminus.mouseout"/>
                        </use>
                        <path d="M-4,0h8" fill="none" stroke="white" stroke-width="1.5" pointer-events="none"/>
                </g>
                <g id="dirArrow">
                        <path fill="none" stroke="white" stroke-width="1.5" d="M0,-3.0v7 M-2.5,-0.5L0,-3.0L2.5,-0.5"/>
                </g>
               <g id="resetDef">
                       <use xlink:href="#rim2" fill="#404040">
                               <set attributeName="fill" to="#808080" begin="reset.mouseover" end="reset.mouseout"/>
                       </use>
               </g>
        </defs>

<script type="text/javascript">
var viewWidth = 703;
var viewHeight = 278;
var sectionId = 'dynsection-0';
</script>
<script xlink:href="svgpan.js"/>
<svg id="graph" class="graph">
<g id="viewport">
<title>Engine::Render::RenderTarget</title>
<!-- Node1 -->
<g id="node1" class="node">
<title>Node1</title>
<g id="a_node1"><a xlink:title=" ">
<polygon fill="#999999" stroke="#666666" points="317,-144.5 173,-144.5 173,-125.5 317,-125.5 317,-144.5"/>
<text text-anchor="middle" x="245" y="-132.5" font-family="Helvetica,sans-Serif" font-size="10.00">Engine::Render::RenderTarget</text>
</a>
</g>
</g>
<!-- Node3 -->
<g id="node3" class="node">
<title>Node3</title>
<g id="a_node3"><a xlink:href="struct_engine_1_1_render_1_1_direct_x12_render_target.html" target="_top" xlink:title=" ">
<polygon fill="white" stroke="#666666" points="493.5,-222 365.5,-222 365.5,-192 493.5,-192 493.5,-222"/>
<text text-anchor="start" x="373.5" y="-210" font-family="Helvetica,sans-Serif" font-size="10.00">Engine::Render::DirectX12</text>
<text text-anchor="middle" x="429.5" y="-199" font-family="Helvetica,sans-Serif" font-size="10.00">RenderTarget</text>
</a>
</g>
</g>
<!-- Node1&#45;&gt;Node3 -->
<g id="edge2" class="edge">
<title>Node1&#45;&gt;Node3</title>
<path fill="none" stroke="#63b8ff" d="M281.33,-148.94C312.35,-161.18 357.39,-178.95 389.46,-191.6"/>
<polygon fill="#63b8ff" stroke="#63b8ff" points="282.99,-145.83 272.4,-145.42 280.42,-152.34 282.99,-145.83"/>
</g>
<!-- Node6 -->
<g id="node6" class="node">
<title>Node6</title>
<g id="a_node6"><a xlink:href="struct_engine_1_1_render_1_1_open_g_l_render_target.html" target="_top" xlink:title=" ">
<polygon fill="white" stroke="#666666" points="506,-150 353,-150 353,-120 506,-120 506,-150"/>
<text text-anchor="start" x="361" y="-138" font-family="Helvetica,sans-Serif" font-size="10.00">Engine::Render::OpenGLRender</text>
<text text-anchor="middle" x="429.5" y="-127" font-family="Helvetica,sans-Serif" font-size="10.00">Target</text>
</a>
</g>
</g>
<!-- Node1&#45;&gt;Node6 -->
<g id="edge5" class="edge">
<title>Node1&#45;&gt;Node6</title>
<path fill="none" stroke="#63b8ff" d="M328.6,-135C336.62,-135 344.74,-135 352.69,-135"/>
<polygon fill="#63b8ff" stroke="#63b8ff" points="328.86,-131.5 318.86,-135 328.86,-138.5 328.86,-131.5"/>
</g>
<!-- Node9 -->
<g id="node9" class="node">
<title>Node9</title>
<g id="a_node9"><a xlink:href="struct_engine_1_1_render_1_1_vulkan_render_target.html" target="_top" xlink:title=" ">
<polygon fill="white" stroke="#666666" points="502.5,-78 356.5,-78 356.5,-48 502.5,-48 502.5,-78"/>
<text text-anchor="start" x="364.5" y="-66" font-family="Helvetica,sans-Serif" font-size="10.00">Engine::Render::VulkanRender</text>
<text text-anchor="middle" x="429.5" y="-55" font-family="Helvetica,sans-Serif" font-size="10.00">Target</text>
</a>
</g>
</g>
<!-- Node1&#45;&gt;Node9 -->
<g id="edge8" class="edge">
<title>Node1&#45;&gt;Node9</title>
<path fill="none" stroke="#63b8ff" d="M281.33,-121.06C312.35,-108.82 357.39,-91.05 389.46,-78.4"/>
<polygon fill="#63b8ff" stroke="#63b8ff" points="280.42,-117.66 272.4,-124.58 282.99,-124.17 280.42,-117.66"/>
</g>
<!-- Node2 -->
<g id="node2" class="node">
<title>Node2</title>
<g id="a_node2"><a xlink:href="struct_engine_1_1_render_1_1_render_data.html" target="_top" xlink:title=" ">
<polygon fill="white" stroke="#666666" points="137,-144.5 0,-144.5 0,-125.5 137,-125.5 137,-144.5"/>
<text text-anchor="middle" x="68.5" y="-132.5" font-family="Helvetica,sans-Serif" font-size="10.00">Engine::Render::RenderData</text>
</a>
</g>
</g>
<!-- Node2&#45;&gt;Node1 -->
<g id="edge1" class="edge">
<title>Node2&#45;&gt;Node1</title>
<path fill="none" stroke="#63b8ff" d="M148.71,-135C156.73,-135 164.84,-135 172.76,-135"/>
<polygon fill="#63b8ff" stroke="#63b8ff" points="148.98,-131.5 138.98,-135 148.98,-138.5 148.98,-131.5"/>
</g>
<!-- Node4 -->
<g id="node4" class="node">
<title>Node4</title>
<g id="a_node4"><a xlink:href="struct_engine_1_1_render_1_1_direct_x12_render_texture.html" target="_top" xlink:title=" ">
<polygon fill="white" stroke="#666666" points="682.5,-270 554.5,-270 554.5,-240 682.5,-240 682.5,-270"/>
<text text-anchor="start" x="562.5" y="-258" font-family="Helvetica,sans-Serif" font-size="10.00">Engine::Render::DirectX12</text>
<text text-anchor="middle" x="618.5" y="-247" font-family="Helvetica,sans-Serif" font-size="10.00">RenderTexture</text>
</a>
</g>
</g>
<!-- Node3&#45;&gt;Node4 -->
<g id="edge3" class="edge">
<title>Node3&#45;&gt;Node4</title>
<path fill="none" stroke="#63b8ff" d="M501.66,-225.27C520.04,-229.98 539.66,-235.02 557.42,-239.58"/>
<polygon fill="#63b8ff" stroke="#63b8ff" points="502.72,-221.92 492.16,-222.83 500.98,-228.7 502.72,-221.92"/>
</g>
<!-- Node5 -->
<g id="node5" class="node">
<title>Node5</title>
<g id="a_node5"><a xlink:href="struct_engine_1_1_render_1_1_direct_x12_render_window.html" target="_top" xlink:title=" ">
<polygon fill="white" stroke="#666666" points="682.5,-222 554.5,-222 554.5,-192 682.5,-192 682.5,-222"/>
<text text-anchor="start" x="562.5" y="-210" font-family="Helvetica,sans-Serif" font-size="10.00">Engine::Render::DirectX12</text>
<text text-anchor="middle" x="618.5" y="-199" font-family="Helvetica,sans-Serif" font-size="10.00">RenderWindow</text>
</a>
</g>
</g>
<!-- Node3&#45;&gt;Node5 -->
<g id="edge4" class="edge">
<title>Node3&#45;&gt;Node5</title>
<path fill="none" stroke="#63b8ff" d="M504.96,-207C521.28,-207 538.42,-207 554.26,-207"/>
<polygon fill="#63b8ff" stroke="#63b8ff" points="505.32,-203.5 495.32,-207 505.32,-210.5 505.32,-203.5"/>
</g>
<!-- Node7 -->
<g id="node7" class="node">
<title>Node7</title>
<g id="a_node7"><a xlink:href="struct_engine_1_1_render_1_1_open_g_l_render_texture.html" target="_top" xlink:title=" ">
<polygon fill="white" stroke="#666666" points="695,-174 542,-174 542,-144 695,-144 695,-174"/>
<text text-anchor="start" x="550" y="-162" font-family="Helvetica,sans-Serif" font-size="10.00">Engine::Render::OpenGLRender</text>
<text text-anchor="middle" x="618.5" y="-151" font-family="Helvetica,sans-Serif" font-size="10.00">Texture</text>
</a>
</g>
</g>
<!-- Node6&#45;&gt;Node7 -->
<g id="edge6" class="edge">
<title>Node6&#45;&gt;Node7</title>
<path fill="none" stroke="#63b8ff" d="M517.57,-146.17C525.6,-147.2 533.69,-148.24 541.6,-149.26"/>
<polygon fill="#63b8ff" stroke="#63b8ff" points="518.16,-142.72 507.79,-144.92 517.26,-149.66 518.16,-142.72"/>
</g>
<!-- Node8 -->
<g id="node8" class="node">
<title>Node8</title>
<g id="a_node8"><a xlink:href="struct_engine_1_1_render_1_1_open_g_l_render_window.html" target="_top" xlink:title=" ">
<polygon fill="white" stroke="#666666" points="695,-126 542,-126 542,-96 695,-96 695,-126"/>
<text text-anchor="start" x="550" y="-114" font-family="Helvetica,sans-Serif" font-size="10.00">Engine::Render::OpenGLRender</text>
<text text-anchor="middle" x="618.5" y="-103" font-family="Helvetica,sans-Serif" font-size="10.00">Window</text>
</a>
</g>
</g>
<!-- Node6&#45;&gt;Node8 -->
<g id="edge7" class="edge">
<title>Node6&#45;&gt;Node8</title>
<path fill="none" stroke="#63b8ff" d="M517.57,-123.83C525.6,-122.8 533.69,-121.76 541.6,-120.74"/>
<polygon fill="#63b8ff" stroke="#63b8ff" points="517.26,-120.34 507.79,-125.08 518.16,-127.28 517.26,-120.34"/>
</g>
<!-- Node10 -->
<g id="node10" class="node">
<title>Node10</title>
<g id="a_node10"><a xlink:href="struct_engine_1_1_render_1_1_vulkan_render_texture.html" target="_top" xlink:title=" ">
<polygon fill="white" stroke="#666666" points="691.5,-78 545.5,-78 545.5,-48 691.5,-48 691.5,-78"/>
<text text-anchor="start" x="553.5" y="-66" font-family="Helvetica,sans-Serif" font-size="10.00">Engine::Render::VulkanRender</text>
<text text-anchor="middle" x="618.5" y="-55" font-family="Helvetica,sans-Serif" font-size="10.00">Texture</text>
</a>
</g>
</g>
<!-- Node9&#45;&gt;Node10 -->
<g id="edge9" class="edge">
<title>Node9&#45;&gt;Node10</title>
<path fill="none" stroke="#63b8ff" d="M514.3,-63C524.57,-63 535,-63 545.08,-63"/>
<polygon fill="#63b8ff" stroke="#63b8ff" points="514.31,-59.5 504.31,-63 514.31,-66.5 514.31,-59.5"/>
</g>
<!-- Node11 -->
<g id="node11" class="node">
<title>Node11</title>
<g id="a_node11"><a xlink:href="struct_engine_1_1_render_1_1_vulkan_render_window.html" target="_top" xlink:title=" ">
<polygon fill="white" stroke="#666666" points="691.5,-30 545.5,-30 545.5,0 691.5,0 691.5,-30"/>
<text text-anchor="start" x="553.5" y="-18" font-family="Helvetica,sans-Serif" font-size="10.00">Engine::Render::VulkanRender</text>
<text text-anchor="middle" x="618.5" y="-7" font-family="Helvetica,sans-Serif" font-size="10.00">Window</text>
</a>
</g>
</g>
<!-- Node9&#45;&gt;Node11 -->
<g id="edge10" class="edge">
<title>Node9&#45;&gt;Node11</title>
<path fill="none" stroke="#63b8ff" d="M501.66,-44.73C520.04,-40.02 539.66,-34.98 557.42,-30.42"/>
<polygon fill="#63b8ff" stroke="#63b8ff" points="500.98,-41.3 492.16,-47.17 502.72,-48.08 500.98,-41.3"/>
</g>
</g>
</svg>
        <g id="navigator" transform="translate(0 0)" fill="#404254">
                <rect fill="#f2f5e9" fill-opacity="0.5" stroke="#606060" stroke-width=".5" x="0" y="0" width="60" height="60"/>
                <use id="zoomplus" xlink:href="#zoomPlus" x="17" y="9" onmousedown="handleZoom(evt,'in')"/>
                <use id="zoomminus" xlink:href="#zoomMin" x="42" y="9" onmousedown="handleZoom(evt,'out')"/>
                <use id="reset" xlink:href="#resetDef" x="30" y="36" onmousedown="handleReset()"/>
                <g id="arrowUp" xlink:href="#dirArrow" transform="translate(30 24)" onmousedown="handlePan(0,-1)">
                  <use xlink:href="#rim" fill="#404040">
                        <set attributeName="fill" to="#808080" begin="arrowUp.mouseover" end="arrowUp.mouseout"/>
                  </use>
                  <path fill="none" stroke="white" stroke-width="1.5" d="M0,-3.0v7 M-2.5,-0.5L0,-3.0L2.5,-0.5"/>
                </g>
                <g id="arrowRight" xlink:href="#dirArrow" transform="rotate(90) translate(36 -43)" onmousedown="handlePan(1,0)">
                  <use xlink:href="#rim" fill="#404040">
                        <set attributeName="fill" to="#808080" begin="arrowRight.mouseover" end="arrowRight.mouseout"/>
                  </use>
                  <path fill="none" stroke="white" stroke-width="1.5" d="M0,-3.0v7 M-2.5,-0.5L0,-3.0L2.5,-0.5"/>
                </g>
                <g id="arrowDown" xlink:href="#dirArrow" transform="rotate(180) translate(-30 -48)" onmousedown="handlePan(0,1)">
                  <use xlink:href="#rim" fill="#404040">
                        <set attributeName="fill" to="#808080" begin="arrowDown.mouseover" end="arrowDown.mouseout"/>
                  </use>
                  <path fill="none" stroke="white" stroke-width="1.5" d="M0,-3.0v7 M-2.5,-0.5L0,-3.0L2.5,-0.5"/>
                </g>
                <g id="arrowLeft" xlink:href="#dirArrow" transform="rotate(270) translate(-36 17)" onmousedown="handlePan(-1,0)">
                  <use xlink:href="#rim" fill="#404040">
                        <set attributeName="fill" to="#808080" begin="arrowLeft.mouseover" end="arrowLeft.mouseout"/>
                  </use>
                  <path fill="none" stroke="white" stroke-width="1.5" d="M0,-3.0v7 M-2.5,-0.5L0,-3.0L2.5,-0.5"/>
                </g>
        </g>
        <svg viewBox="0 0 15 15" width="100%" height="30px" preserveAspectRatio="xMaxYMin meet">
         <g id="arrow_out" transform="scale(0.3 0.3)">
          <a xlink:href="struct_engine_1_1_render_1_1_render_target__inherit__graph_org.svg" target="_base">
           <rect id="button" ry="5" rx="5" y="6" x="6" height="38" width="38"
                fill="#f2f5e9" fill-opacity="0.5" stroke="#606060" stroke-width="1.0"/>
           <path id="arrow"
             d="M 11.500037,31.436501 C 11.940474,20.09759 22.043105,11.32322 32.158766,21.979434 L 37.068811,17.246167 C 37.068811,17.246167 37.088388,32 37.088388,32 L 22.160133,31.978069 C 22.160133,31.978069 26.997745,27.140456 26.997745,27.140456 C 18.528582,18.264221 13.291696,25.230495 11.500037,31.436501 z"
             style="fill:#404040;"/>
          </a>
         </g>
        </svg>
</svg>
