<?xml version="1.0" encoding="UTF-8" standalone="no"?>
<!DOCTYPE svg PUBLIC "-//W3C//DTD SVG 1.1//EN"
 "http://www.w3.org/Graphics/SVG/1.1/DTD/svg11.dtd">
<!-- Generated by graphviz version 7.0.5 (20221223.1930)
 -->
<!-- Title: Engine::Widgets::TempWidgetStateImpl&lt; Rec &gt; Pages: 1 -->
<svg width="153pt" height="170pt"
 viewBox="0.00 0.00 153.00 170.00" xmlns="http://www.w3.org/2000/svg" xmlns:xlink="http://www.w3.org/1999/xlink">
<g id="graph0" class="graph" transform="scale(1 1) rotate(0) translate(4 166)">
<title>Engine::Widgets::TempWidgetStateImpl&lt; Rec &gt;</title>
<!-- Node1 -->
<g id="node1" class="node">
<title>Node1</title>
<g id="a_node1"><a xlink:title=" ">
<polygon fill="#999999" stroke="#666666" points="145,-30 0,-30 0,0 145,0 145,-30"/>
<text text-anchor="start" x="8" y="-18" font-family="Helvetica,sans-Serif" font-size="10.00">Engine::Widgets::TempWidget</text>
<text text-anchor="middle" x="72.5" y="-7" font-family="Helvetica,sans-Serif" font-size="10.00">StateImpl&lt; Rec &gt;</text>
</a>
</g>
</g>
<!-- Node2 -->
<g id="node2" class="node">
<title>Node2</title>
<g id="a_node2"><a xlink:href="struct_engine_1_1_virtual_behavior_state.html" target="_top" xlink:title=" ">
<polygon fill="white" stroke="#666666" points="142.5,-96 2.5,-96 2.5,-66 142.5,-66 142.5,-96"/>
<text text-anchor="start" x="10.5" y="-84" font-family="Helvetica,sans-Serif" font-size="10.00">Engine::VirtualBehaviorState</text>
<text text-anchor="middle" x="72.5" y="-73" font-family="Helvetica,sans-Serif" font-size="10.00">&lt; Rec, TempWidgetState &gt;</text>
</a>
</g>
</g>
<!-- Node2&#45;&gt;Node1 -->
<g id="edge1" class="edge">
<title>Node2&#45;&gt;Node1</title>
<path fill="none" stroke="#63b8ff" d="M72.5,-54.39C72.5,-46.13 72.5,-37.28 72.5,-30.16"/>
<polygon fill="#63b8ff" stroke="#63b8ff" points="69,-54.28 72.5,-64.28 76,-54.28 69,-54.28"/>
</g>
<!-- Node3 -->
<g id="node3" class="node">
<title>Node3</title>
<g id="a_node3"><a xlink:title=" ">
<polygon fill="white" stroke="#666666" points="140.5,-162 4.5,-162 4.5,-132 140.5,-132 140.5,-162"/>
<text text-anchor="start" x="12.5" y="-150" font-family="Helvetica,sans-Serif" font-size="10.00">Execution::VirtualState</text>
<text text-anchor="middle" x="72.5" y="-139" font-family="Helvetica,sans-Serif" font-size="10.00">&lt; Rec, TempWidgetState &#160;&gt;</text>
</a>
</g>
</g>
<!-- Node3&#45;&gt;Node2 -->
<g id="edge2" class="edge">
<title>Node3&#45;&gt;Node2</title>
<path fill="none" stroke="#63b8ff" d="M72.5,-120.39C72.5,-112.13 72.5,-103.28 72.5,-96.16"/>
<polygon fill="#63b8ff" stroke="#63b8ff" points="69,-120.28 72.5,-130.28 76,-120.28 69,-120.28"/>
</g>
</g>
</svg>
