<?xml version="1.0" encoding="UTF-8" standalone="no"?>
<!DOCTYPE svg PUBLIC "-//W3C//DTD SVG 1.1//EN"
 "http://www.w3.org/Graphics/SVG/1.1/DTD/svg11.dtd">
<!-- Generated by graphviz version 7.0.5 (20221223.1930)
 -->
<!-- Title: Engine::Serialize::TableInitialized&lt; T, _Base &gt; Pages: 1 -->
<svg width="382pt" height="98pt"
 viewBox="0.00 0.00 382.00 97.50" xmlns="http://www.w3.org/2000/svg" xmlns:xlink="http://www.w3.org/1999/xlink">
<g id="graph0" class="graph" transform="scale(1 1) rotate(0) translate(4 93.5)">
<title>Engine::Serialize::TableInitialized&lt; T, _Base &gt;</title>
<!-- Node1 -->
<g id="node1" class="node">
<title>Node1</title>
<g id="a_node1"><a xlink:title=" ">
<polygon fill="#999999" stroke="#666666" points="374,-68 276,-68 276,-27 374,-27 374,-68"/>
<text text-anchor="start" x="284" y="-56" font-family="Helvetica,sans-Serif" font-size="10.00">Engine::Serialize::</text>
<text text-anchor="start" x="284" y="-45" font-family="Helvetica,sans-Serif" font-size="10.00">TableInitialized&lt; T,</text>
<text text-anchor="middle" x="325" y="-34" font-family="Helvetica,sans-Serif" font-size="10.00"> _Base &gt;</text>
</a>
</g>
</g>
<!-- Node2 -->
<g id="node2" class="node">
<title>Node2</title>
<g id="a_node2"><a xlink:href="struct_engine_1_1_serialize_1_1_syncable_unit_base.html" target="_top" xlink:title=" ">
<polygon fill="white" stroke="#666666" points="240,-89.5 143,-89.5 143,-59.5 240,-59.5 240,-89.5"/>
<text text-anchor="start" x="151" y="-77.5" font-family="Helvetica,sans-Serif" font-size="10.00">Engine::Serialize::</text>
<text text-anchor="middle" x="191.5" y="-66.5" font-family="Helvetica,sans-Serif" font-size="10.00">SyncableUnitBase</text>
</a>
</g>
</g>
<!-- Node2&#45;&gt;Node1 -->
<g id="edge1" class="edge">
<title>Node2&#45;&gt;Node1</title>
<path fill="none" stroke="#63b8ff" d="M251.55,-62.38C259.57,-60.73 267.72,-59.06 275.53,-57.45"/>
<polygon fill="#63b8ff" stroke="#63b8ff" points="250.92,-58.93 241.83,-64.37 252.33,-65.79 250.92,-58.93"/>
</g>
<!-- Node3 -->
<g id="node3" class="node">
<title>Node3</title>
<g id="a_node3"><a xlink:href="struct_engine_1_1_serialize_1_1_serializable_unit_base.html" target="_top" xlink:title=" ">
<polygon fill="white" stroke="#666666" points="107,-89.5 0,-89.5 0,-59.5 107,-59.5 107,-89.5"/>
<text text-anchor="start" x="8" y="-77.5" font-family="Helvetica,sans-Serif" font-size="10.00">Engine::Serialize::</text>
<text text-anchor="middle" x="53.5" y="-66.5" font-family="Helvetica,sans-Serif" font-size="10.00">SerializableUnitBase</text>
</a>
</g>
</g>
<!-- Node3&#45;&gt;Node2 -->
<g id="edge2" class="edge">
<title>Node3&#45;&gt;Node2</title>
<path fill="none" stroke="#63b8ff" d="M118.79,-74.5C126.87,-74.5 135.01,-74.5 142.77,-74.5"/>
<polygon fill="#63b8ff" stroke="#63b8ff" points="118.98,-71 108.98,-74.5 118.98,-78 118.98,-71"/>
</g>
<!-- Node4 -->
<g id="node4" class="node">
<title>Node4</title>
<g id="a_node4"><a xlink:href="struct_engine_1_1_serialize_1_1_table_initializer.html" target="_top" xlink:title=" ">
<polygon fill="white" stroke="#666666" points="239.5,-41 143.5,-41 143.5,0 239.5,0 239.5,-41"/>
<text text-anchor="start" x="151.5" y="-29" font-family="Helvetica,sans-Serif" font-size="10.00">Engine::Serialize::</text>
<text text-anchor="start" x="151.5" y="-18" font-family="Helvetica,sans-Serif" font-size="10.00">TableInitializer&lt; T,</text>
<text text-anchor="middle" x="191.5" y="-7" font-family="Helvetica,sans-Serif" font-size="10.00"> Base &gt;</text>
</a>
</g>
</g>
<!-- Node4&#45;&gt;Node1 -->
<g id="edge3" class="edge">
<title>Node4&#45;&gt;Node1</title>
<path fill="none" stroke="#8b1a1a" d="M251.06,-32.52C259.3,-34.22 267.69,-35.94 275.71,-37.59"/>
<polygon fill="#8b1a1a" stroke="#8b1a1a" points="251.96,-29.13 241.46,-30.55 250.55,-35.99 251.96,-29.13"/>
</g>
</g>
</svg>
