<?xml version="1.0" encoding="UTF-8" standalone="no"?>
<!DOCTYPE svg PUBLIC "-//W3C//DTD SVG 1.1//EN"
 "http://www.w3.org/Graphics/SVG/1.1/DTD/svg11.dtd">
<!-- Generated by graphviz version 7.0.5 (20221223.1930)
 -->
<!-- Title: Engine::ParameterTupleBase Pages: 1 -->
<svg width="340pt" height="159pt"
 viewBox="0.00 0.00 340.00 159.00" xmlns="http://www.w3.org/2000/svg" xmlns:xlink="http://www.w3.org/1999/xlink">
<g id="graph0" class="graph" transform="scale(1 1) rotate(0) translate(4 155)">
<title>Engine::ParameterTupleBase</title>
<!-- Node1 -->
<g id="node1" class="node">
<title>Node1</title>
<g id="a_node1"><a xlink:title=" ">
<polygon fill="#999999" stroke="#666666" points="236.5,-151 94.5,-151 94.5,-132 236.5,-132 236.5,-151"/>
<text text-anchor="middle" x="165.5" y="-139" font-family="Helvetica,sans-Serif" font-size="10.00">Engine::ParameterTupleBase</text>
</a>
</g>
</g>
<!-- Node2 -->
<g id="node2" class="node">
<title>Node2</title>
<g id="a_node2"><a xlink:href="struct_engine_1_1_parameter_tuple_instance.html" target="_top" xlink:title=" ">
<polygon fill="white" stroke="#666666" points="157,-96 0,-96 0,-66 157,-66 157,-96"/>
<text text-anchor="start" x="8" y="-84" font-family="Helvetica,sans-Serif" font-size="10.00">Engine::ParameterTupleInstance</text>
<text text-anchor="middle" x="78.5" y="-73" font-family="Helvetica,sans-Serif" font-size="10.00">&lt; Ty... &gt;</text>
</a>
</g>
</g>
<!-- Node1&#45;&gt;Node2 -->
<g id="edge1" class="edge">
<title>Node1&#45;&gt;Node2</title>
<path fill="none" stroke="#63b8ff" d="M142.93,-125.33C129.68,-116.42 113.03,-105.22 99.97,-96.44"/>
<polygon fill="#63b8ff" stroke="#63b8ff" points="140.78,-128.09 151.03,-130.77 144.69,-122.29 140.78,-128.09"/>
</g>
<!-- Node4 -->
<g id="node4" class="node">
<title>Node4</title>
<g id="a_node4"><a xlink:href="struct_engine_1_1_parameter_tuple_instance.html" target="_top" xlink:title=" ">
<polygon fill="white" stroke="#666666" points="332,-96 175,-96 175,-66 332,-66 332,-96"/>
<text text-anchor="start" x="183" y="-84" font-family="Helvetica,sans-Serif" font-size="10.00">Engine::ParameterTupleInstance</text>
<text text-anchor="middle" x="253.5" y="-73" font-family="Helvetica,sans-Serif" font-size="10.00">&lt; Ty &gt;</text>
</a>
</g>
</g>
<!-- Node1&#45;&gt;Node4 -->
<g id="edge3" class="edge">
<title>Node1&#45;&gt;Node4</title>
<path fill="none" stroke="#63b8ff" d="M188.33,-125.33C201.73,-116.42 218.57,-105.22 231.78,-96.44"/>
<polygon fill="#63b8ff" stroke="#63b8ff" points="186.52,-122.33 180.13,-130.78 190.39,-128.16 186.52,-122.33"/>
</g>
<!-- Node3 -->
<g id="node3" class="node">
<title>Node3</title>
<g id="a_node3"><a xlink:href="struct_engine_1_1_typed_parameter_tuple_instance.html" target="_top" xlink:title=" ">
<polygon fill="white" stroke="#666666" points="151.5,-30 5.5,-30 5.5,0 151.5,0 151.5,-30"/>
<text text-anchor="start" x="13.5" y="-18" font-family="Helvetica,sans-Serif" font-size="10.00">Engine::TypedParameterTuple</text>
<text text-anchor="middle" x="78.5" y="-7" font-family="Helvetica,sans-Serif" font-size="10.00">Instance&lt; Names, Ty &gt;</text>
</a>
</g>
</g>
<!-- Node2&#45;&gt;Node3 -->
<g id="edge2" class="edge">
<title>Node2&#45;&gt;Node3</title>
<path fill="none" stroke="#63b8ff" d="M78.5,-54.39C78.5,-46.13 78.5,-37.28 78.5,-30.16"/>
<polygon fill="#63b8ff" stroke="#63b8ff" points="75,-54.28 78.5,-64.28 82,-54.28 75,-54.28"/>
</g>
</g>
</svg>
