<?xml version="1.0" encoding="UTF-8" standalone="no"?>
<!DOCTYPE svg PUBLIC "-//W3C//DTD SVG 1.1//EN"
 "http://www.w3.org/Graphics/SVG/1.1/DTD/svg11.dtd">
<!-- Generated by graphviz version 7.0.5 (20221223.1930)
 -->
<!-- Title: Engine::LambdaHolder&lt; Functor &gt; Pages: 1 -->
<svg width="258pt" height="93pt"
 viewBox="0.00 0.00 257.50 93.00" xmlns="http://www.w3.org/2000/svg" xmlns:xlink="http://www.w3.org/1999/xlink">
<g id="graph0" class="graph" transform="scale(1 1) rotate(0) translate(4 89)">
<title>Engine::LambdaHolder&lt; Functor &gt;</title>
<!-- Node1 -->
<g id="node1" class="node">
<title>Node1</title>
<g id="a_node1"><a xlink:title=" ">
<polygon fill="#999999" stroke="#666666" points="186.5,-30 72.5,-30 72.5,0 186.5,0 186.5,-30"/>
<text text-anchor="start" x="80.5" y="-18" font-family="Helvetica,sans-Serif" font-size="10.00">Engine::LambdaHolder</text>
<text text-anchor="middle" x="129.5" y="-7" font-family="Helvetica,sans-Serif" font-size="10.00">&lt; Functor &gt;</text>
</a>
</g>
</g>
<!-- Node2 -->
<g id="node2" class="node">
<title>Node2</title>
<g id="a_node2"><a xlink:href="struct_engine_1_1_proxy_scope_base.html" target="_top" xlink:title=" ">
<polygon fill="white" stroke="#666666" points="125,-85 0,-85 0,-66 125,-66 125,-85"/>
<text text-anchor="middle" x="62.5" y="-73" font-family="Helvetica,sans-Serif" font-size="10.00">Engine::ProxyScopeBase</text>
</a>
</g>
</g>
<!-- Node2&#45;&gt;Node1 -->
<g id="edge1" class="edge">
<title>Node2&#45;&gt;Node1</title>
<path fill="none" stroke="#63b8ff" d="M81.09,-58.27C91.08,-49.54 103.3,-38.87 112.96,-30.44"/>
<polygon fill="#63b8ff" stroke="#63b8ff" points="79.05,-55.41 73.82,-64.62 83.65,-60.68 79.05,-55.41"/>
</g>
<!-- Node3 -->
<g id="node3" class="node">
<title>Node3</title>
<g id="a_node3"><a xlink:href="struct_engine_1_1_functor.html" target="_top" xlink:title=" ">
<polygon fill="white" stroke="#666666" points="249.5,-85 143.5,-85 143.5,-66 249.5,-66 249.5,-85"/>
<text text-anchor="middle" x="196.5" y="-73" font-family="Helvetica,sans-Serif" font-size="10.00">Engine::Functor&lt; F &gt;</text>
</a>
</g>
</g>
<!-- Node3&#45;&gt;Node1 -->
<g id="edge2" class="edge">
<title>Node3&#45;&gt;Node1</title>
<path fill="none" stroke="#63b8ff" d="M177.91,-58.27C167.92,-49.54 155.7,-38.87 146.04,-30.44"/>
<polygon fill="#63b8ff" stroke="#63b8ff" points="175.35,-60.68 185.18,-64.62 179.95,-55.41 175.35,-60.68"/>
</g>
</g>
</svg>
