<?xml version="1.0" encoding="UTF-8" standalone="no"?>
<!DOCTYPE svg PUBLIC "-//W3C//DTD SVG 1.1//EN"
 "http://www.w3.org/Graphics/SVG/1.1/DTD/svg11.dtd">
<!-- Generated by graphviz version 7.0.5 (20221223.1930)
 -->
<!-- Title: Engine::Threading::DataMutex::state&lt; Rec, F &gt; Pages: 1 -->
<svg width="238pt" height="104pt"
 viewBox="0.00 0.00 237.50 104.00" xmlns="http://www.w3.org/2000/svg" xmlns:xlink="http://www.w3.org/1999/xlink">
<g id="graph0" class="graph" transform="scale(1 1) rotate(0) translate(4 100)">
<title>Engine::Threading::DataMutex::state&lt; Rec, F &gt;</title>
<!-- Node1 -->
<g id="node1" class="node">
<title>Node1</title>
<g id="a_node1"><a xlink:title=" ">
<polygon fill="#999999" stroke="#666666" points="185.5,-30 51.5,-30 51.5,0 185.5,0 185.5,-30"/>
<text text-anchor="start" x="59.5" y="-18" font-family="Helvetica,sans-Serif" font-size="10.00">Engine::Threading::</text>
<text text-anchor="middle" x="118.5" y="-7" font-family="Helvetica,sans-Serif" font-size="10.00">DataMutex::state&lt; Rec, F &gt;</text>
</a>
</g>
</g>
<!-- Node2 -->
<g id="node2" class="node">
<title>Node2</title>
<g id="a_node2"><a xlink:href="struct_engine_1_1_threading_1_1_data_mutex_1_1_lock_state.html" target="_top" xlink:title=" ">
<polygon fill="white" stroke="#666666" points="113,-96 0,-96 0,-66 113,-66 113,-96"/>
<text text-anchor="start" x="8" y="-84" font-family="Helvetica,sans-Serif" font-size="10.00">Engine::Threading::</text>
<text text-anchor="middle" x="56.5" y="-73" font-family="Helvetica,sans-Serif" font-size="10.00">DataMutex::LockState</text>
</a>
</g>
</g>
<!-- Node2&#45;&gt;Node1 -->
<g id="edge1" class="edge">
<title>Node2&#45;&gt;Node1</title>
<path fill="none" stroke="#63b8ff" d="M78,-57.81C86.88,-48.64 96.92,-38.28 104.78,-30.16"/>
<polygon fill="#63b8ff" stroke="#63b8ff" points="75.76,-55.09 71.31,-64.71 80.78,-59.96 75.76,-55.09"/>
</g>
<!-- Node3 -->
<g id="node3" class="node">
<title>Node3</title>
<g id="a_node3"><a xlink:href="struct_engine_1_1_execution_1_1base__state.html" target="_top" xlink:title=" ">
<polygon fill="white" stroke="#666666" points="229.5,-96 131.5,-96 131.5,-66 229.5,-66 229.5,-96"/>
<text text-anchor="start" x="139.5" y="-84" font-family="Helvetica,sans-Serif" font-size="10.00">Engine::Execution::</text>
<text text-anchor="middle" x="180.5" y="-73" font-family="Helvetica,sans-Serif" font-size="10.00">base_state&lt; Rec &gt;</text>
</a>
</g>
</g>
<!-- Node3&#45;&gt;Node1 -->
<g id="edge2" class="edge">
<title>Node3&#45;&gt;Node1</title>
<path fill="none" stroke="#63b8ff" d="M159,-57.81C150.12,-48.64 140.08,-38.28 132.22,-30.16"/>
<polygon fill="#63b8ff" stroke="#63b8ff" points="156.22,-59.96 165.69,-64.71 161.24,-55.09 156.22,-59.96"/>
</g>
</g>
</svg>
