<?xml version="1.0" encoding="UTF-8" standalone="no"?>
<!DOCTYPE svg PUBLIC "-//W3C//DTD SVG 1.1//EN"
 "http://www.w3.org/Graphics/SVG/1.1/DTD/svg11.dtd">
<!-- Generated by graphviz version 7.0.5 (20221223.1930)
 -->
<!-- Title: Engine::Render::DirectX12RenderTarget Pages: 1 -->
<svg width="282pt" height="214pt"
 viewBox="0.00 0.00 282.00 214.00" xmlns="http://www.w3.org/2000/svg" xmlns:xlink="http://www.w3.org/1999/xlink">
<g id="graph0" class="graph" transform="scale(1 1) rotate(0) translate(4 210)">
<title>Engine::Render::DirectX12RenderTarget</title>
<!-- Node1 -->
<g id="node1" class="node">
<title>Node1</title>
<g id="a_node1"><a xlink:title=" ">
<polygon fill="#999999" stroke="#666666" points="201,-96 73,-96 73,-66 201,-66 201,-96"/>
<text text-anchor="start" x="81" y="-84" font-family="Helvetica,sans-Serif" font-size="10.00">Engine::Render::DirectX12</text>
<text text-anchor="middle" x="137" y="-73" font-family="Helvetica,sans-Serif" font-size="10.00">RenderTarget</text>
</a>
</g>
</g>
<!-- Node4 -->
<g id="node4" class="node">
<title>Node4</title>
<g id="a_node4"><a xlink:href="struct_engine_1_1_render_1_1_direct_x12_render_texture.html" target="_top" xlink:title=" ">
<polygon fill="white" stroke="#666666" points="128,-30 0,-30 0,0 128,0 128,-30"/>
<text text-anchor="start" x="8" y="-18" font-family="Helvetica,sans-Serif" font-size="10.00">Engine::Render::DirectX12</text>
<text text-anchor="middle" x="64" y="-7" font-family="Helvetica,sans-Serif" font-size="10.00">RenderTexture</text>
</a>
</g>
</g>
<!-- Node1&#45;&gt;Node4 -->
<g id="edge3" class="edge">
<title>Node1&#45;&gt;Node4</title>
<path fill="none" stroke="#63b8ff" d="M112.39,-58.42C101.85,-49.18 89.83,-38.65 80.41,-30.39"/>
<polygon fill="#63b8ff" stroke="#63b8ff" points="109.83,-60.84 119.66,-64.8 114.45,-55.57 109.83,-60.84"/>
</g>
<!-- Node5 -->
<g id="node5" class="node">
<title>Node5</title>
<g id="a_node5"><a xlink:href="struct_engine_1_1_render_1_1_direct_x12_render_window.html" target="_top" xlink:title=" ">
<polygon fill="white" stroke="#666666" points="274,-30 146,-30 146,0 274,0 274,-30"/>
<text text-anchor="start" x="154" y="-18" font-family="Helvetica,sans-Serif" font-size="10.00">Engine::Render::DirectX12</text>
<text text-anchor="middle" x="210" y="-7" font-family="Helvetica,sans-Serif" font-size="10.00">RenderWindow</text>
</a>
</g>
</g>
<!-- Node1&#45;&gt;Node5 -->
<g id="edge4" class="edge">
<title>Node1&#45;&gt;Node5</title>
<path fill="none" stroke="#63b8ff" d="M161.61,-58.42C172.15,-49.18 184.17,-38.65 193.59,-30.39"/>
<polygon fill="#63b8ff" stroke="#63b8ff" points="159.55,-55.57 154.34,-64.8 164.17,-60.84 159.55,-55.57"/>
</g>
<!-- Node2 -->
<g id="node2" class="node">
<title>Node2</title>
<g id="a_node2"><a xlink:href="struct_engine_1_1_render_1_1_render_target.html" target="_top" xlink:title=" ">
<polygon fill="white" stroke="#666666" points="209,-151 65,-151 65,-132 209,-132 209,-151"/>
<text text-anchor="middle" x="137" y="-139" font-family="Helvetica,sans-Serif" font-size="10.00">Engine::Render::RenderTarget</text>
</a>
</g>
</g>
<!-- Node2&#45;&gt;Node1 -->
<g id="edge1" class="edge">
<title>Node2&#45;&gt;Node1</title>
<path fill="none" stroke="#63b8ff" d="M137,-120.51C137,-112.49 137,-103.43 137,-96.11"/>
<polygon fill="#63b8ff" stroke="#63b8ff" points="133.5,-120.35 137,-130.35 140.5,-120.35 133.5,-120.35"/>
</g>
<!-- Node3 -->
<g id="node3" class="node">
<title>Node3</title>
<g id="a_node3"><a xlink:href="struct_engine_1_1_render_1_1_render_data.html" target="_top" xlink:title=" ">
<polygon fill="white" stroke="#666666" points="205.5,-206 68.5,-206 68.5,-187 205.5,-187 205.5,-206"/>
<text text-anchor="middle" x="137" y="-194" font-family="Helvetica,sans-Serif" font-size="10.00">Engine::Render::RenderData</text>
</a>
</g>
</g>
<!-- Node3&#45;&gt;Node2 -->
<g id="edge2" class="edge">
<title>Node3&#45;&gt;Node2</title>
<path fill="none" stroke="#63b8ff" d="M137,-175.35C137,-167.1 137,-157.97 137,-151.44"/>
<polygon fill="#63b8ff" stroke="#63b8ff" points="133.5,-175.23 137,-185.23 140.5,-175.23 133.5,-175.23"/>
</g>
</g>
</svg>
