<?xml version="1.0" encoding="UTF-8" standalone="no"?>
<!DOCTYPE svg PUBLIC "-//W3C//DTD SVG 1.1//EN"
 "http://www.w3.org/Graphics/SVG/1.1/DTD/svg11.dtd">
<!-- Generated by graphviz version 7.0.5 (20221223.1930)
 -->
<!-- Title: Engine::Threading::MadgineObjectState Pages: 1 -->
<svg width="774pt" height="698pt"
 viewBox="0.00 0.00 774.00 698.00" xmlns="http://www.w3.org/2000/svg" xmlns:xlink="http://www.w3.org/1999/xlink">
<g id="graph0" class="graph" transform="scale(1 1) rotate(0) translate(4 694)">
<title>Engine::Threading::MadgineObjectState</title>
<!-- Node1 -->
<g id="node1" class="node">
<title>Node1</title>
<g id="a_node1"><a xlink:title=" ">
<polygon fill="#999999" stroke="#666666" points="105,-363 0,-363 0,-333 105,-333 105,-363"/>
<text text-anchor="start" x="8" y="-351" font-family="Helvetica,sans-Serif" font-size="10.00">Engine::Threading::</text>
<text text-anchor="middle" x="52.5" y="-340" font-family="Helvetica,sans-Serif" font-size="10.00">MadgineObjectState</text>
</a>
</g>
</g>
<!-- Node2 -->
<g id="node2" class="node">
<title>Node2</title>
<g id="a_node2"><a xlink:href="struct_engine_1_1_threading_1_1_madgine_object.html" target="_top" xlink:title=" ">
<polygon fill="white" stroke="#666666" points="311.5,-690 165.5,-690 165.5,-660 311.5,-660 311.5,-690"/>
<text text-anchor="start" x="173.5" y="-678" font-family="Helvetica,sans-Serif" font-size="10.00">Engine::Threading::</text>
<text text-anchor="middle" x="238.5" y="-667" font-family="Helvetica,sans-Serif" font-size="10.00">MadgineObject&lt; Application &gt;</text>
</a>
</g>
</g>
<!-- Node1&#45;&gt;Node2 -->
<g id="edge1" class="edge">
<title>Node1&#45;&gt;Node2</title>
<path fill="none" stroke="#63b8ff" d="M52.91,-374.43C53.11,-433.13 62.22,-575.11 141,-651 147.84,-657.59 156.19,-662.45 165.1,-666.03"/>
<polygon fill="#63b8ff" stroke="#63b8ff" points="56.41,-374.76 52.97,-364.74 49.41,-374.72 56.41,-374.76"/>
</g>
<!-- Node4 -->
<g id="node4" class="node">
<title>Node4</title>
<g id="a_node4"><a xlink:href="struct_engine_1_1_threading_1_1_madgine_object.html" target="_top" xlink:title=" ">
<polygon fill="white" stroke="#666666" points="321,-642 156,-642 156,-612 321,-612 321,-642"/>
<text text-anchor="start" x="164" y="-630" font-family="Helvetica,sans-Serif" font-size="10.00">Engine::Threading::</text>
<text text-anchor="middle" x="238.5" y="-619" font-family="Helvetica,sans-Serif" font-size="10.00">MadgineObject&lt; GlobalAPIBase &gt;</text>
</a>
</g>
</g>
<!-- Node1&#45;&gt;Node4 -->
<g id="edge3" class="edge">
<title>Node1&#45;&gt;Node4</title>
<path fill="none" stroke="#63b8ff" d="M54.61,-374.5C58.26,-426.35 73.93,-541.51 141,-603 145.45,-607.08 150.49,-610.5 155.88,-613.35"/>
<polygon fill="#63b8ff" stroke="#63b8ff" points="58.12,-374.59 54.03,-364.82 51.13,-375.01 58.12,-374.59"/>
</g>
<!-- Node6 -->
<g id="node6" class="node">
<title>Node6</title>
<g id="a_node6"><a xlink:href="struct_engine_1_1_threading_1_1_madgine_object.html" target="_top" xlink:title=" ">
<polygon fill="white" stroke="#666666" points="316,-594 161,-594 161,-564 316,-564 316,-594"/>
<text text-anchor="start" x="169" y="-582" font-family="Helvetica,sans-Serif" font-size="10.00">Engine::Threading::</text>
<text text-anchor="middle" x="238.5" y="-571" font-family="Helvetica,sans-Serif" font-size="10.00">MadgineObject&lt; PortAudioApi &gt;</text>
</a>
</g>
</g>
<!-- Node1&#45;&gt;Node6 -->
<g id="edge5" class="edge">
<title>Node1&#45;&gt;Node6</title>
<path fill="none" stroke="#63b8ff" d="M57.07,-374.73C64.43,-419.06 85.56,-507.61 141,-555 146.91,-560.05 153.72,-564.06 160.93,-567.25"/>
<polygon fill="#63b8ff" stroke="#63b8ff" points="60.54,-374.32 55.57,-364.96 53.62,-375.38 60.54,-374.32"/>
</g>
<!-- Node8 -->
<g id="node8" class="node">
<title>Node8</title>
<g id="a_node8"><a xlink:href="struct_engine_1_1_threading_1_1_madgine_object.html" target="_top" xlink:title=" ">
<polygon fill="white" stroke="#666666" points="316,-546 161,-546 161,-516 316,-516 316,-546"/>
<text text-anchor="start" x="169" y="-534" font-family="Helvetica,sans-Serif" font-size="10.00">Engine::Threading::</text>
<text text-anchor="middle" x="238.5" y="-523" font-family="Helvetica,sans-Serif" font-size="10.00">MadgineObject&lt; HandlerBase &gt;</text>
</a>
</g>
</g>
<!-- Node1&#45;&gt;Node8 -->
<g id="edge7" class="edge">
<title>Node1&#45;&gt;Node8</title>
<path fill="none" stroke="#63b8ff" d="M60.73,-374.37C71.89,-410.01 96.8,-473 141,-507 147.02,-511.63 153.82,-515.38 160.96,-518.41"/>
<polygon fill="#63b8ff" stroke="#63b8ff" points="64.11,-373.45 57.89,-364.86 57.4,-375.45 64.11,-373.45"/>
</g>
<!-- Node11 -->
<g id="node11" class="node">
<title>Node11</title>
<g id="a_node11"><a xlink:href="struct_engine_1_1_threading_1_1_madgine_object.html" target="_top" xlink:title=" ">
<polygon fill="white" stroke="#666666" points="323.5,-498 153.5,-498 153.5,-468 323.5,-468 323.5,-498"/>
<text text-anchor="start" x="161.5" y="-486" font-family="Helvetica,sans-Serif" font-size="10.00">Engine::Threading::</text>
<text text-anchor="middle" x="238.5" y="-475" font-family="Helvetica,sans-Serif" font-size="10.00">MadgineObject&lt; HandlerManager &gt;</text>
</a>
</g>
</g>
<!-- Node1&#45;&gt;Node11 -->
<g id="edge10" class="edge">
<title>Node1&#45;&gt;Node11</title>
<path fill="none" stroke="#63b8ff" d="M66.76,-373.24C81.48,-398.77 107.63,-437.45 141,-459 146.08,-462.28 151.57,-465.11 157.27,-467.55"/>
<polygon fill="#63b8ff" stroke="#63b8ff" points="69.82,-371.55 61.9,-364.52 63.7,-374.96 69.82,-371.55"/>
</g>
<!-- Node13 -->
<g id="node13" class="node">
<title>Node13</title>
<g id="a_node13"><a xlink:href="struct_engine_1_1_threading_1_1_madgine_object.html" target="_top" xlink:title=" ">
<polygon fill="white" stroke="#666666" points="319,-449.5 158,-449.5 158,-408.5 319,-408.5 319,-449.5"/>
<text text-anchor="start" x="166" y="-437.5" font-family="Helvetica,sans-Serif" font-size="10.00">Engine::Threading::</text>
<text text-anchor="start" x="166" y="-426.5" font-family="Helvetica,sans-Serif" font-size="10.00">MadgineObject&lt; ResourceLoader</text>
<text text-anchor="middle" x="238.5" y="-415.5" font-family="Helvetica,sans-Serif" font-size="10.00">Base &gt;</text>
</a>
</g>
</g>
<!-- Node1&#45;&gt;Node13 -->
<g id="edge12" class="edge">
<title>Node1&#45;&gt;Node13</title>
<path fill="none" stroke="#63b8ff" d="M85.98,-369.3C102.07,-379.23 122.07,-390.67 141,-399 148.31,-402.22 156.06,-405.24 163.88,-408.03"/>
<polygon fill="#63b8ff" stroke="#63b8ff" points="88.12,-366.51 77.79,-364.16 84.39,-372.44 88.12,-366.51"/>
</g>
<!-- Node15 -->
<g id="node15" class="node">
<title>Node15</title>
<g id="a_node15"><a xlink:href="struct_engine_1_1_threading_1_1_madgine_object.html" target="_top" xlink:title=" ">
<polygon fill="white" stroke="#666666" points="327,-390 150,-390 150,-360 327,-360 327,-390"/>
<text text-anchor="start" x="158" y="-378" font-family="Helvetica,sans-Serif" font-size="10.00">Engine::Threading::</text>
<text text-anchor="middle" x="238.5" y="-367" font-family="Helvetica,sans-Serif" font-size="10.00">MadgineObject&lt; ResourceManager &gt;</text>
</a>
</g>
</g>
<!-- Node1&#45;&gt;Node15 -->
<g id="edge14" class="edge">
<title>Node1&#45;&gt;Node15</title>
<path fill="none" stroke="#63b8ff" d="M116.54,-357.25C127.19,-358.81 138.42,-360.46 149.57,-362.1"/>
<polygon fill="#63b8ff" stroke="#63b8ff" points="117.14,-353.8 106.74,-355.81 116.13,-360.73 117.14,-353.8"/>
</g>
<!-- Node17 -->
<g id="node17" class="node">
<title>Node17</title>
<g id="a_node17"><a xlink:href="struct_engine_1_1_threading_1_1_madgine_object.html" target="_top" xlink:title=" ">
<polygon fill="white" stroke="#666666" points="322,-341.5 155,-341.5 155,-300.5 322,-300.5 322,-341.5"/>
<text text-anchor="start" x="163" y="-329.5" font-family="Helvetica,sans-Serif" font-size="10.00">Engine::Threading::</text>
<text text-anchor="start" x="163" y="-318.5" font-family="Helvetica,sans-Serif" font-size="10.00">MadgineObject&lt; SceneComponent</text>
<text text-anchor="middle" x="238.5" y="-307.5" font-family="Helvetica,sans-Serif" font-size="10.00">Base &gt;</text>
</a>
</g>
</g>
<!-- Node1&#45;&gt;Node17 -->
<g id="edge16" class="edge">
<title>Node1&#45;&gt;Node17</title>
<path fill="none" stroke="#63b8ff" d="M116.36,-338.78C128.74,-336.96 141.9,-335.03 154.82,-333.13"/>
<polygon fill="#63b8ff" stroke="#63b8ff" points="116.13,-335.27 106.74,-340.19 117.14,-342.2 116.13,-335.27"/>
</g>
<!-- Node19 -->
<g id="node19" class="node">
<title>Node19</title>
<g id="a_node19"><a xlink:href="struct_engine_1_1_threading_1_1_madgine_object.html" target="_top" xlink:title=" ">
<polygon fill="white" stroke="#666666" points="332.5,-282 144.5,-282 144.5,-252 332.5,-252 332.5,-282"/>
<text text-anchor="start" x="152.5" y="-270" font-family="Helvetica,sans-Serif" font-size="10.00">Engine::Threading::</text>
<text text-anchor="middle" x="238.5" y="-259" font-family="Helvetica,sans-Serif" font-size="10.00">MadgineObject&lt; Python3Environment &gt;</text>
</a>
</g>
</g>
<!-- Node1&#45;&gt;Node19 -->
<g id="edge18" class="edge">
<title>Node1&#45;&gt;Node19</title>
<path fill="none" stroke="#63b8ff" d="M82.4,-326.21C98.86,-314.66 120.27,-301.04 141,-292 149.25,-288.4 158.13,-285.23 167.04,-282.47"/>
<polygon fill="#63b8ff" stroke="#63b8ff" points="80.65,-323.16 74.56,-331.83 84.72,-328.85 80.65,-323.16"/>
</g>
<!-- Node21 -->
<g id="node21" class="node">
<title>Node21</title>
<g id="a_node21"><a xlink:href="struct_engine_1_1_threading_1_1_madgine_object.html" target="_top" xlink:title=" ">
<polygon fill="white" stroke="#666666" points="302,-234 175,-234 175,-204 302,-204 302,-234"/>
<text text-anchor="start" x="183" y="-222" font-family="Helvetica,sans-Serif" font-size="10.00">Engine::Threading::</text>
<text text-anchor="middle" x="238.5" y="-211" font-family="Helvetica,sans-Serif" font-size="10.00">MadgineObject&lt; Server &gt;</text>
</a>
</g>
</g>
<!-- Node1&#45;&gt;Node21 -->
<g id="edge20" class="edge">
<title>Node1&#45;&gt;Node21</title>
<path fill="none" stroke="#63b8ff" d="M67.83,-322.94C82.94,-298.8 108.98,-263.07 141,-243 151.17,-236.63 162.92,-231.95 174.66,-228.51"/>
<polygon fill="#63b8ff" stroke="#63b8ff" points="65.01,-320.84 62.82,-331.21 71,-324.47 65.01,-320.84"/>
</g>
<!-- Node23 -->
<g id="node23" class="node">
<title>Node23</title>
<g id="a_node23"><a xlink:href="struct_engine_1_1_threading_1_1_madgine_object.html" target="_top" xlink:title=" ">
<polygon fill="white" stroke="#666666" points="321.5,-186 155.5,-186 155.5,-156 321.5,-156 321.5,-186"/>
<text text-anchor="start" x="163.5" y="-174" font-family="Helvetica,sans-Serif" font-size="10.00">Engine::Threading::</text>
<text text-anchor="middle" x="238.5" y="-163" font-family="Helvetica,sans-Serif" font-size="10.00">MadgineObject&lt; ServerAPIBase &gt;</text>
</a>
</g>
</g>
<!-- Node1&#45;&gt;Node23 -->
<g id="edge22" class="edge">
<title>Node1&#45;&gt;Node23</title>
<path fill="none" stroke="#63b8ff" d="M61.19,-322.09C72.77,-287.68 98.02,-227.5 141,-195 145.41,-191.67 150.22,-188.79 155.27,-186.31"/>
<polygon fill="#63b8ff" stroke="#63b8ff" points="57.98,-320.66 58.25,-331.25 64.64,-322.8 57.98,-320.66"/>
</g>
<!-- Node25 -->
<g id="node25" class="node">
<title>Node25</title>
<g id="a_node25"><a xlink:href="struct_engine_1_1_threading_1_1_madgine_object.html" target="_top" xlink:title=" ">
<polygon fill="white" stroke="#666666" points="315.5,-138 161.5,-138 161.5,-108 315.5,-108 315.5,-138"/>
<text text-anchor="start" x="169.5" y="-126" font-family="Helvetica,sans-Serif" font-size="10.00">Engine::Threading::</text>
<text text-anchor="middle" x="238.5" y="-115" font-family="Helvetica,sans-Serif" font-size="10.00">MadgineObject&lt; MainWindow &gt;</text>
</a>
</g>
</g>
<!-- Node1&#45;&gt;Node25 -->
<g id="edge24" class="edge">
<title>Node1&#45;&gt;Node25</title>
<path fill="none" stroke="#63b8ff" d="M57.42,-321.44C65.23,-278.17 86.93,-192.73 141,-147 147.06,-141.87 154.06,-137.81 161.47,-134.6"/>
<polygon fill="#63b8ff" stroke="#63b8ff" points="53.98,-320.76 55.78,-331.2 60.88,-321.92 53.98,-320.76"/>
</g>
<!-- Node27 -->
<g id="node27" class="node">
<title>Node27</title>
<g id="a_node27"><a xlink:href="struct_engine_1_1_threading_1_1_madgine_object.html" target="_top" xlink:title=" ">
<polygon fill="white" stroke="#666666" points="336,-89.5 141,-89.5 141,-48.5 336,-48.5 336,-89.5"/>
<text text-anchor="start" x="149" y="-77.5" font-family="Helvetica,sans-Serif" font-size="10.00">Engine::Threading::</text>
<text text-anchor="start" x="149" y="-66.5" font-family="Helvetica,sans-Serif" font-size="10.00">MadgineObject&lt; MainWindowComponent</text>
<text text-anchor="middle" x="238.5" y="-55.5" font-family="Helvetica,sans-Serif" font-size="10.00">Base &gt;</text>
</a>
</g>
</g>
<!-- Node1&#45;&gt;Node27 -->
<g id="edge26" class="edge">
<title>Node1&#45;&gt;Node27</title>
<path fill="none" stroke="#63b8ff" d="M55.22,-321.4C59.92,-270.83 77.31,-160.41 141,-99 144.54,-95.59 148.45,-92.57 152.63,-89.89"/>
<polygon fill="#63b8ff" stroke="#63b8ff" points="51.75,-320.86 54.42,-331.12 58.73,-321.44 51.75,-320.86"/>
</g>
<!-- Node29 -->
<g id="node29" class="node">
<title>Node29</title>
<g id="a_node29"><a xlink:href="struct_engine_1_1_threading_1_1_madgine_object.html" target="_top" xlink:title=" ">
<polygon fill="white" stroke="#666666" points="290.5,-30 186.5,-30 186.5,0 290.5,0 290.5,-30"/>
<text text-anchor="start" x="194.5" y="-18" font-family="Helvetica,sans-Serif" font-size="10.00">Engine::Threading::</text>
<text text-anchor="middle" x="238.5" y="-7" font-family="Helvetica,sans-Serif" font-size="10.00">MadgineObject&lt; T &gt;</text>
</a>
</g>
</g>
<!-- Node1&#45;&gt;Node29 -->
<g id="edge28" class="edge">
<title>Node1&#45;&gt;Node29</title>
<path fill="none" stroke="#63b8ff" d="M52.73,-321.47C52.53,-261.91 60.79,-116.67 141,-39 153.09,-27.29 169.97,-21.02 186.24,-17.74"/>
<polygon fill="#63b8ff" stroke="#63b8ff" points="49.23,-321.36 52.86,-331.32 56.23,-321.27 49.23,-321.36"/>
</g>
<!-- Node3 -->
<g id="node3" class="node">
<title>Node3</title>
<g id="a_node3"><a xlink:href="struct_engine_1_1_app_1_1_application.html" target="_top" xlink:title="The Application manages all GlobalAPIComponents.">
<polygon fill="white" stroke="#666666" points="523,-684.5 403,-684.5 403,-665.5 523,-665.5 523,-684.5"/>
<text text-anchor="middle" x="463" y="-672.5" font-family="Helvetica,sans-Serif" font-size="10.00">Engine::App::Application</text>
</a>
</g>
</g>
<!-- Node2&#45;&gt;Node3 -->
<g id="edge2" class="edge">
<title>Node2&#45;&gt;Node3</title>
<path fill="none" stroke="#63b8ff" d="M322.96,-675C349.49,-675 378.28,-675 402.75,-675"/>
<polygon fill="#63b8ff" stroke="#63b8ff" points="323.25,-671.5 313.25,-675 323.25,-678.5 323.25,-671.5"/>
</g>
<!-- Node5 -->
<g id="node5" class="node">
<title>Node5</title>
<g id="a_node5"><a xlink:href="struct_engine_1_1_app_1_1_global_a_p_i_base.html" target="_top" xlink:title=" ">
<polygon fill="white" stroke="#666666" points="532.5,-636.5 393.5,-636.5 393.5,-617.5 532.5,-617.5 532.5,-636.5"/>
<text text-anchor="middle" x="463" y="-624.5" font-family="Helvetica,sans-Serif" font-size="10.00">Engine::App::GlobalAPIBase</text>
</a>
</g>
</g>
<!-- Node4&#45;&gt;Node5 -->
<g id="edge4" class="edge">
<title>Node4&#45;&gt;Node5</title>
<path fill="none" stroke="#63b8ff" d="M332.84,-627C353.02,-627 374.01,-627 393.05,-627"/>
<polygon fill="#63b8ff" stroke="#63b8ff" points="332.92,-623.5 322.92,-627 332.92,-630.5 332.92,-623.5"/>
</g>
<!-- Node7 -->
<g id="node7" class="node">
<title>Node7</title>
<g id="a_node7"><a xlink:href="struct_engine_1_1_audio_1_1_port_audio_api.html" target="_top" xlink:title=" ">
<polygon fill="white" stroke="#666666" points="531.5,-588.5 394.5,-588.5 394.5,-569.5 531.5,-569.5 531.5,-588.5"/>
<text text-anchor="middle" x="463" y="-576.5" font-family="Helvetica,sans-Serif" font-size="10.00">Engine::Audio::PortAudioApi</text>
</a>
</g>
</g>
<!-- Node6&#45;&gt;Node7 -->
<g id="edge6" class="edge">
<title>Node6&#45;&gt;Node7</title>
<path fill="none" stroke="#63b8ff" d="M327.78,-579C349.83,-579 373.14,-579 394.04,-579"/>
<polygon fill="#63b8ff" stroke="#63b8ff" points="327.9,-575.5 317.9,-579 327.9,-582.5 327.9,-575.5"/>
</g>
<!-- Node9 -->
<g id="node9" class="node">
<title>Node9</title>
<g id="a_node9"><a xlink:href="struct_engine_1_1_handler_base.html" target="_top" xlink:title=" ">
<polygon fill="white" stroke="#666666" points="516.5,-540.5 409.5,-540.5 409.5,-521.5 516.5,-521.5 516.5,-540.5"/>
<text text-anchor="middle" x="463" y="-528.5" font-family="Helvetica,sans-Serif" font-size="10.00">Engine::HandlerBase</text>
</a>
</g>
</g>
<!-- Node8&#45;&gt;Node9 -->
<g id="edge8" class="edge">
<title>Node8&#45;&gt;Node9</title>
<path fill="none" stroke="#63b8ff" d="M327.67,-531C355.29,-531 384.9,-531 409.27,-531"/>
<polygon fill="#63b8ff" stroke="#63b8ff" points="327.9,-527.5 317.9,-531 327.9,-534.5 327.9,-527.5"/>
</g>
<!-- Node10 -->
<g id="node10" class="node">
<title>Node10</title>
<g id="a_node10"><a xlink:href="struct_engine_1_1_widgets_1_1_widget_handler_base.html" target="_top" xlink:title=" ">
<polygon fill="white" stroke="#666666" points="766,-540.5 590,-540.5 590,-521.5 766,-521.5 766,-540.5"/>
<text text-anchor="middle" x="678" y="-528.5" font-family="Helvetica,sans-Serif" font-size="10.00">Engine::Widgets::WidgetHandlerBase</text>
</a>
</g>
</g>
<!-- Node9&#45;&gt;Node10 -->
<g id="edge9" class="edge">
<title>Node9&#45;&gt;Node10</title>
<path fill="none" stroke="#63b8ff" d="M528.3,-531C547.56,-531 569.02,-531 589.51,-531"/>
<polygon fill="#63b8ff" stroke="#63b8ff" points="528.44,-527.5 518.44,-531 528.44,-534.5 528.44,-527.5"/>
</g>
<!-- Node12 -->
<g id="node12" class="node">
<title>Node12</title>
<g id="a_node12"><a xlink:href="struct_engine_1_1_handler_manager.html" target="_top" xlink:title=" ">
<polygon fill="white" stroke="#666666" points="524,-492.5 402,-492.5 402,-473.5 524,-473.5 524,-492.5"/>
<text text-anchor="middle" x="463" y="-480.5" font-family="Helvetica,sans-Serif" font-size="10.00">Engine::HandlerManager</text>
</a>
</g>
</g>
<!-- Node11&#45;&gt;Node12 -->
<g id="edge11" class="edge">
<title>Node11&#45;&gt;Node12</title>
<path fill="none" stroke="#63b8ff" d="M335.24,-483C357.72,-483 381.07,-483 401.51,-483"/>
<polygon fill="#63b8ff" stroke="#63b8ff" points="335.45,-479.5 325.45,-483 335.45,-486.5 335.45,-479.5"/>
</g>
<!-- Node14 -->
<g id="node14" class="node">
<title>Node14</title>
<g id="a_node14"><a xlink:href="struct_engine_1_1_resources_1_1_resource_loader_base.html" target="_top" xlink:title=" ">
<polygon fill="white" stroke="#666666" points="518,-444 408,-444 408,-414 518,-414 518,-444"/>
<text text-anchor="start" x="416" y="-432" font-family="Helvetica,sans-Serif" font-size="10.00">Engine::Resources::</text>
<text text-anchor="middle" x="463" y="-421" font-family="Helvetica,sans-Serif" font-size="10.00">ResourceLoaderBase</text>
</a>
</g>
</g>
<!-- Node13&#45;&gt;Node14 -->
<g id="edge13" class="edge">
<title>Node13&#45;&gt;Node14</title>
<path fill="none" stroke="#63b8ff" d="M330.67,-429C356.78,-429 384.42,-429 407.56,-429"/>
<polygon fill="#63b8ff" stroke="#63b8ff" points="330.71,-425.5 320.71,-429 330.71,-432.5 330.71,-425.5"/>
</g>
<!-- Node16 -->
<g id="node16" class="node">
<title>Node16</title>
<g id="a_node16"><a xlink:href="struct_engine_1_1_resources_1_1_resource_manager.html" target="_top" xlink:title=" ">
<polygon fill="white" stroke="#666666" points="513.5,-390 412.5,-390 412.5,-360 513.5,-360 513.5,-390"/>
<text text-anchor="start" x="420.5" y="-378" font-family="Helvetica,sans-Serif" font-size="10.00">Engine::Resources::</text>
<text text-anchor="middle" x="463" y="-367" font-family="Helvetica,sans-Serif" font-size="10.00">ResourceManager</text>
</a>
</g>
</g>
<!-- Node15&#45;&gt;Node16 -->
<g id="edge15" class="edge">
<title>Node15&#45;&gt;Node16</title>
<path fill="none" stroke="#63b8ff" d="M338.66,-375C364.11,-375 390.41,-375 412.16,-375"/>
<polygon fill="#63b8ff" stroke="#63b8ff" points="338.95,-371.5 328.95,-375 338.95,-378.5 338.95,-371.5"/>
</g>
<!-- Node18 -->
<g id="node18" class="node">
<title>Node18</title>
<g id="a_node18"><a xlink:href="struct_engine_1_1_scene_1_1_scene_component_base.html" target="_top" xlink:title=" ">
<polygon fill="white" stroke="#666666" points="554,-330.5 372,-330.5 372,-311.5 554,-311.5 554,-330.5"/>
<text text-anchor="middle" x="463" y="-318.5" font-family="Helvetica,sans-Serif" font-size="10.00">Engine::Scene::SceneComponentBase</text>
</a>
</g>
</g>
<!-- Node17&#45;&gt;Node18 -->
<g id="edge17" class="edge">
<title>Node17&#45;&gt;Node18</title>
<path fill="none" stroke="#63b8ff" d="M333.77,-321C346.3,-321 359.14,-321 371.61,-321"/>
<polygon fill="#63b8ff" stroke="#63b8ff" points="333.86,-317.5 323.86,-321 333.86,-324.5 333.86,-317.5"/>
</g>
<!-- Node20 -->
<g id="node20" class="node">
<title>Node20</title>
<g id="a_node20"><a xlink:href="struct_engine_1_1_scripting_1_1_python3_1_1_python3_environment.html" target="_top" xlink:title=" ">
<polygon fill="white" stroke="#666666" points="536,-282 390,-282 390,-252 536,-252 536,-282"/>
<text text-anchor="start" x="398" y="-270" font-family="Helvetica,sans-Serif" font-size="10.00">Engine::Scripting::</text>
<text text-anchor="middle" x="463" y="-259" font-family="Helvetica,sans-Serif" font-size="10.00">Python3::Python3Environment</text>
</a>
</g>
</g>
<!-- Node19&#45;&gt;Node20 -->
<g id="edge19" class="edge">
<title>Node19&#45;&gt;Node20</title>
<path fill="none" stroke="#63b8ff" d="M344.11,-267C359.57,-267 375.21,-267 389.82,-267"/>
<polygon fill="#63b8ff" stroke="#63b8ff" points="344.41,-263.5 334.41,-267 344.41,-270.5 344.41,-263.5"/>
</g>
<!-- Node22 -->
<g id="node22" class="node">
<title>Node22</title>
<g id="a_node22"><a xlink:href="struct_engine_1_1_server_1_1_server.html" target="_top" xlink:title=" ">
<polygon fill="white" stroke="#666666" points="519,-228.5 407,-228.5 407,-209.5 519,-209.5 519,-228.5"/>
<text text-anchor="middle" x="463" y="-216.5" font-family="Helvetica,sans-Serif" font-size="10.00">Engine::Server::Server</text>
</a>
</g>
</g>
<!-- Node21&#45;&gt;Node22 -->
<g id="edge21" class="edge">
<title>Node21&#45;&gt;Node22</title>
<path fill="none" stroke="#63b8ff" d="M313.8,-219C344.2,-219 378.76,-219 406.86,-219"/>
<polygon fill="#63b8ff" stroke="#63b8ff" points="313.88,-215.5 303.88,-219 313.88,-222.5 313.88,-215.5"/>
</g>
<!-- Node24 -->
<g id="node24" class="node">
<title>Node24</title>
<g id="a_node24"><a xlink:href="struct_engine_1_1_server_1_1_server_a_p_i_base.html" target="_top" xlink:title=" ">
<polygon fill="white" stroke="#666666" points="538.5,-180.5 387.5,-180.5 387.5,-161.5 538.5,-161.5 538.5,-180.5"/>
<text text-anchor="middle" x="463" y="-168.5" font-family="Helvetica,sans-Serif" font-size="10.00">Engine::Server::ServerAPIBase</text>
</a>
</g>
</g>
<!-- Node23&#45;&gt;Node24 -->
<g id="edge23" class="edge">
<title>Node23&#45;&gt;Node24</title>
<path fill="none" stroke="#63b8ff" d="M333.14,-171C351.15,-171 369.79,-171 387.11,-171"/>
<polygon fill="#63b8ff" stroke="#63b8ff" points="333.23,-167.5 323.23,-171 333.23,-174.5 333.23,-167.5"/>
</g>
<!-- Node26 -->
<g id="node26" class="node">
<title>Node26</title>
<g id="a_node26"><a xlink:href="struct_engine_1_1_window_1_1_main_window.html" target="_top" xlink:title="The MainWindow manages multiple concepts relevant for client applications.">
<polygon fill="white" stroke="#666666" points="535.5,-132.5 390.5,-132.5 390.5,-113.5 535.5,-113.5 535.5,-132.5"/>
<text text-anchor="middle" x="463" y="-120.5" font-family="Helvetica,sans-Serif" font-size="10.00">Engine::Window::MainWindow</text>
</a>
</g>
</g>
<!-- Node25&#45;&gt;Node26 -->
<g id="edge25" class="edge">
<title>Node25&#45;&gt;Node26</title>
<path fill="none" stroke="#63b8ff" d="M327.24,-123C348.16,-123 370.24,-123 390.34,-123"/>
<polygon fill="#63b8ff" stroke="#63b8ff" points="327.27,-119.5 317.27,-123 327.27,-126.5 327.27,-119.5"/>
</g>
<!-- Node28 -->
<g id="node28" class="node">
<title>Node28</title>
<g id="a_node28"><a xlink:href="struct_engine_1_1_window_1_1_main_window_component_base.html" target="_top" xlink:title=" ">
<polygon fill="white" stroke="#666666" points="535.5,-84 390.5,-84 390.5,-54 535.5,-54 535.5,-84"/>
<text text-anchor="start" x="398.5" y="-72" font-family="Helvetica,sans-Serif" font-size="10.00">Engine::Window::MainWindow</text>
<text text-anchor="middle" x="463" y="-61" font-family="Helvetica,sans-Serif" font-size="10.00">ComponentBase</text>
</a>
</g>
</g>
<!-- Node27&#45;&gt;Node28 -->
<g id="edge27" class="edge">
<title>Node27&#45;&gt;Node28</title>
<path fill="none" stroke="#63b8ff" d="M347.91,-69C362.24,-69 376.63,-69 390.14,-69"/>
<polygon fill="#63b8ff" stroke="#63b8ff" points="347.96,-65.5 337.96,-69 347.96,-72.5 347.96,-65.5"/>
</g>
</g>
</svg>
