<?xml version="1.0" encoding="UTF-8" standalone="no"?>
<!DOCTYPE svg PUBLIC "-//W3C//DTD SVG 1.1//EN"
 "http://www.w3.org/Graphics/SVG/1.1/DTD/svg11.dtd">
<!-- Generated by graphviz version 7.0.5 (20221223.1930)
 -->
<!-- Title: Engine::Resources::VirtualResourceLoaderImpl&lt; T, _Data, _Base &gt; Pages: 1 -->
<svg width="721pt" height="71pt"
 viewBox="0.00 0.00 721.00 71.00" xmlns="http://www.w3.org/2000/svg" xmlns:xlink="http://www.w3.org/1999/xlink">
<g id="graph0" class="graph" transform="scale(1 1) rotate(0) translate(4 67)">
<title>Engine::Resources::VirtualResourceLoaderImpl&lt; T, _Data, _Base &gt;</title>
<!-- Node1 -->
<g id="node1" class="node">
<title>Node1</title>
<g id="a_node1"><a xlink:title=" ">
<polygon fill="#999999" stroke="#666666" points="713,-52 579,-52 579,-11 713,-11 713,-52"/>
<text text-anchor="start" x="587" y="-40" font-family="Helvetica,sans-Serif" font-size="10.00">Engine::Resources::</text>
<text text-anchor="start" x="587" y="-29" font-family="Helvetica,sans-Serif" font-size="10.00">VirtualResourceLoaderImpl</text>
<text text-anchor="middle" x="646" y="-18" font-family="Helvetica,sans-Serif" font-size="10.00">&lt; T, _Data, _Base &gt;</text>
</a>
</g>
</g>
<!-- Node2 -->
<g id="node2" class="node">
<title>Node2</title>
<g id="a_node2"><a xlink:title=" ">
<polygon fill="white" stroke="#666666" points="543,-63 391,-63 391,0 543,0 543,-63"/>
<text text-anchor="start" x="399" y="-51" font-family="Helvetica,sans-Serif" font-size="10.00">Engine::UniqueComponent</text>
<text text-anchor="start" x="399" y="-40" font-family="Helvetica,sans-Serif" font-size="10.00">::VirtualComponentImpl</text>
<text text-anchor="start" x="399" y="-29" font-family="Helvetica,sans-Serif" font-size="10.00">&lt; T, VirtualScope&lt; T, Resource</text>
<text text-anchor="start" x="399" y="-18" font-family="Helvetica,sans-Serif" font-size="10.00">LoaderImpl&lt; T, _Data, _Base</text>
<text text-anchor="middle" x="467" y="-7" font-family="Helvetica,sans-Serif" font-size="10.00"> &gt; &gt;, _Base &gt;</text>
</a>
</g>
</g>
<!-- Node2&#45;&gt;Node1 -->
<g id="edge1" class="edge">
<title>Node2&#45;&gt;Node1</title>
<path fill="none" stroke="#63b8ff" d="M554.69,-31.5C562.76,-31.5 570.86,-31.5 578.7,-31.5"/>
<polygon fill="#63b8ff" stroke="#63b8ff" points="554.83,-28 544.83,-31.5 554.83,-35 554.83,-28"/>
</g>
<!-- Node3 -->
<g id="node3" class="node">
<title>Node3</title>
<g id="a_node3"><a xlink:title=" ">
<polygon fill="white" stroke="#666666" points="355,-52 229,-52 229,-11 355,-11 355,-52"/>
<text text-anchor="start" x="237" y="-40" font-family="Helvetica,sans-Serif" font-size="10.00">Engine::VirtualScope</text>
<text text-anchor="start" x="237" y="-29" font-family="Helvetica,sans-Serif" font-size="10.00">&lt; T, ResourceLoaderImpl</text>
<text text-anchor="middle" x="292" y="-18" font-family="Helvetica,sans-Serif" font-size="10.00">&lt; T, _Data, _Base &gt; &gt;</text>
</a>
</g>
</g>
<!-- Node3&#45;&gt;Node2 -->
<g id="edge2" class="edge">
<title>Node3&#45;&gt;Node2</title>
<path fill="none" stroke="#63b8ff" d="M366.86,-31.5C374.74,-31.5 382.76,-31.5 390.65,-31.5"/>
<polygon fill="#63b8ff" stroke="#63b8ff" points="366.97,-28 356.97,-31.5 366.97,-35 366.97,-28"/>
</g>
<!-- Node4 -->
<g id="node4" class="node">
<title>Node4</title>
<g id="a_node4"><a xlink:title=" ">
<polygon fill="white" stroke="#666666" points="193,-52 80,-52 80,-11 193,-11 193,-52"/>
<text text-anchor="start" x="88" y="-40" font-family="Helvetica,sans-Serif" font-size="10.00">Engine::Resources::</text>
<text text-anchor="start" x="88" y="-29" font-family="Helvetica,sans-Serif" font-size="10.00">ResourceLoaderImpl&lt;</text>
<text text-anchor="middle" x="136.5" y="-18" font-family="Helvetica,sans-Serif" font-size="10.00"> T, _Data, _Base &gt;</text>
</a>
</g>
</g>
<!-- Node4&#45;&gt;Node3 -->
<g id="edge3" class="edge">
<title>Node4&#45;&gt;Node3</title>
<path fill="none" stroke="#63b8ff" d="M204.84,-31.5C212.77,-31.5 220.84,-31.5 228.7,-31.5"/>
<polygon fill="#63b8ff" stroke="#63b8ff" points="204.86,-28 194.86,-31.5 204.86,-35 204.86,-28"/>
</g>
<!-- Node5 -->
<g id="node5" class="node">
<title>Node5</title>
<g id="a_node5"><a xlink:title=" ">
<polygon fill="white" stroke="#666666" points="44,-41 0,-41 0,-22 44,-22 44,-41"/>
<text text-anchor="middle" x="22" y="-29" font-family="Helvetica,sans-Serif" font-size="10.00">_Base</text>
</a>
</g>
</g>
<!-- Node5&#45;&gt;Node4 -->
<g id="edge4" class="edge">
<title>Node5&#45;&gt;Node4</title>
<path fill="none" stroke="#63b8ff" d="M55.85,-31.5C63.31,-31.5 71.43,-31.5 79.54,-31.5"/>
<polygon fill="#63b8ff" stroke="#63b8ff" points="55.94,-28 45.94,-31.5 55.94,-35 55.94,-28"/>
</g>
</g>
</svg>
