<?xml version="1.0" encoding="UTF-8" standalone="no"?>
<!DOCTYPE svg PUBLIC "-//W3C//DTD SVG 1.1//EN"
 "http://www.w3.org/Graphics/SVG/1.1/DTD/svg11.dtd">
<!-- Generated by graphviz version 7.0.5 (20221223.1930)
 -->
<!-- Title: Engine::Widgets::CompoundWidget Pages: 1 -->
<svg width="145pt" height="291pt"
 viewBox="0.00 0.00 145.00 291.00" xmlns="http://www.w3.org/2000/svg" xmlns:xlink="http://www.w3.org/1999/xlink">
<g id="graph0" class="graph" transform="scale(1 1) rotate(0) translate(4 287)">
<title>Engine::Widgets::CompoundWidget</title>
<!-- Node1 -->
<g id="node1" class="node">
<title>Node1</title>
<g id="a_node1"><a xlink:title=" ">
<polygon fill="#999999" stroke="#666666" points="137,-30 0,-30 0,0 137,0 137,-30"/>
<text text-anchor="start" x="8" y="-18" font-family="Helvetica,sans-Serif" font-size="10.00">Engine::Widgets::Compound</text>
<text text-anchor="middle" x="68.5" y="-7" font-family="Helvetica,sans-Serif" font-size="10.00">Widget</text>
</a>
</g>
</g>
<!-- Node2 -->
<g id="node2" class="node">
<title>Node2</title>
<g id="a_node2"><a xlink:href="struct_engine_1_1_widgets_1_1_widget.html" target="_top" xlink:title=" ">
<polygon fill="white" stroke="#666666" points="128.5,-96 8.5,-96 8.5,-66 128.5,-66 128.5,-96"/>
<text text-anchor="start" x="16.5" y="-84" font-family="Helvetica,sans-Serif" font-size="10.00">Engine::Widgets::Widget</text>
<text text-anchor="middle" x="68.5" y="-73" font-family="Helvetica,sans-Serif" font-size="10.00">&lt; CompoundWidget &gt;</text>
</a>
</g>
</g>
<!-- Node2&#45;&gt;Node1 -->
<g id="edge1" class="edge">
<title>Node2&#45;&gt;Node1</title>
<path fill="none" stroke="#63b8ff" d="M68.5,-54.39C68.5,-46.13 68.5,-37.28 68.5,-30.16"/>
<polygon fill="#63b8ff" stroke="#63b8ff" points="65,-54.28 68.5,-64.28 72,-54.28 65,-54.28"/>
</g>
<!-- Node3 -->
<g id="node3" class="node">
<title>Node3</title>
<g id="a_node3"><a xlink:href="struct_engine_1_1_virtual_scope.html" target="_top" xlink:title=" ">
<polygon fill="white" stroke="#666666" points="121.5,-162 15.5,-162 15.5,-132 121.5,-132 121.5,-162"/>
<text text-anchor="start" x="23.5" y="-150" font-family="Helvetica,sans-Serif" font-size="10.00">Engine::VirtualScope</text>
<text text-anchor="middle" x="68.5" y="-139" font-family="Helvetica,sans-Serif" font-size="10.00">&lt; T, Base &gt;</text>
</a>
</g>
</g>
<!-- Node3&#45;&gt;Node2 -->
<g id="edge2" class="edge">
<title>Node3&#45;&gt;Node2</title>
<path fill="none" stroke="#63b8ff" d="M68.5,-120.39C68.5,-112.13 68.5,-103.28 68.5,-96.16"/>
<polygon fill="#63b8ff" stroke="#63b8ff" points="65,-120.28 68.5,-130.28 72,-120.28 65,-120.28"/>
</g>
<!-- Node4 -->
<g id="node4" class="node">
<title>Node4</title>
<g id="a_node4"><a xlink:href="struct_engine_1_1_virtual_scope_base.html" target="_top" xlink:title=" ">
<polygon fill="white" stroke="#666666" points="132.5,-228 4.5,-228 4.5,-198 132.5,-198 132.5,-228"/>
<text text-anchor="start" x="12.5" y="-216" font-family="Helvetica,sans-Serif" font-size="10.00">Engine::VirtualScopeBase</text>
<text text-anchor="middle" x="68.5" y="-205" font-family="Helvetica,sans-Serif" font-size="10.00">&lt; Base &gt;</text>
</a>
</g>
</g>
<!-- Node4&#45;&gt;Node3 -->
<g id="edge3" class="edge">
<title>Node4&#45;&gt;Node3</title>
<path fill="none" stroke="#63b8ff" d="M68.5,-186.39C68.5,-178.13 68.5,-169.28 68.5,-162.16"/>
<polygon fill="#63b8ff" stroke="#63b8ff" points="65,-186.28 68.5,-196.28 72,-186.28 65,-186.28"/>
</g>
<!-- Node5 -->
<g id="node5" class="node">
<title>Node5</title>
<g id="a_node5"><a xlink:href="classvoid.html" target="_top" xlink:title=" ">
<polygon fill="white" stroke="#666666" points="86,-283 51,-283 51,-264 86,-264 86,-283"/>
<text text-anchor="middle" x="68.5" y="-271" font-family="Helvetica,sans-Serif" font-size="10.00">void</text>
</a>
</g>
</g>
<!-- Node5&#45;&gt;Node4 -->
<g id="edge4" class="edge">
<title>Node5&#45;&gt;Node4</title>
<path fill="none" stroke="#63b8ff" d="M68.5,-252.51C68.5,-244.49 68.5,-235.43 68.5,-228.11"/>
<polygon fill="#63b8ff" stroke="#63b8ff" points="65,-252.35 68.5,-262.35 72,-252.35 65,-252.35"/>
</g>
</g>
</svg>
