<?xml version="1.0" encoding="UTF-8" standalone="no"?>
<!DOCTYPE svg PUBLIC "-//W3C//DTD SVG 1.1//EN"
 "http://www.w3.org/Graphics/SVG/1.1/DTD/svg11.dtd">
<!-- Generated by graphviz version 7.0.5 (20221223.1930)
 -->
<!-- Title: ReleasePtr&lt; T &gt; Pages: 1 -->
<svg width="110pt" height="82pt"
 viewBox="0.00 0.00 110.00 82.00" xmlns="http://www.w3.org/2000/svg" xmlns:xlink="http://www.w3.org/1999/xlink">
<g id="graph0" class="graph" transform="scale(1 1) rotate(0) translate(4 78)">
<title>ReleasePtr&lt; T &gt;</title>
<!-- Node1 -->
<g id="node1" class="node">
<title>Node1</title>
<g id="a_node1"><a xlink:title=" ">
<polygon fill="#999999" stroke="#666666" points="94.5,-19 7.5,-19 7.5,0 94.5,0 94.5,-19"/>
<text text-anchor="middle" x="51" y="-7" font-family="Helvetica,sans-Serif" font-size="10.00">ReleasePtr&lt; T &gt;</text>
</a>
</g>
</g>
<!-- Node2 -->
<g id="node2" class="node">
<title>Node2</title>
<g id="a_node2"><a xlink:title=" ">
<polygon fill="white" stroke="#666666" points="102,-74 0,-74 0,-55 102,-55 102,-74"/>
<text text-anchor="middle" x="51" y="-62" font-family="Helvetica,sans-Serif" font-size="10.00">std::unique_ptr&lt; T &gt;</text>
</a>
</g>
</g>
<!-- Node2&#45;&gt;Node1 -->
<g id="edge1" class="edge">
<title>Node2&#45;&gt;Node1</title>
<path fill="none" stroke="#63b8ff" d="M44.43,-43.35C43.96,-35.1 44.42,-25.97 45.79,-19.44"/>
<polygon fill="#63b8ff" stroke="#63b8ff" points="40.95,-43.75 45.65,-53.25 47.9,-42.89 40.95,-43.75"/>
</g>
<!-- Node2&#45;&gt;Node1 -->
<g id="edge2" class="edge">
<title>Node2&#45;&gt;Node1</title>
<path fill="none" stroke="#63b8ff" d="M57.57,-43.35C58.04,-35.1 57.58,-25.97 56.21,-19.44"/>
<polygon fill="#63b8ff" stroke="#63b8ff" points="54.1,-42.89 56.35,-53.25 61.05,-43.75 54.1,-42.89"/>
</g>
</g>
</svg>
