<?xml version="1.0" encoding="UTF-8" standalone="no"?>
<!DOCTYPE svg PUBLIC "-//W3C//DTD SVG 1.1//EN"
 "http://www.w3.org/Graphics/SVG/1.1/DTD/svg11.dtd">
<!-- Generated by graphviz version 7.0.5 (20221223.1930)
 -->
<!-- Title: Engine::Scripting::Python3::Python3Environment Pages: 1 -->
<svg width="755pt" height="86pt"
 viewBox="0.00 0.00 755.00 86.00" xmlns="http://www.w3.org/2000/svg" xmlns:xlink="http://www.w3.org/1999/xlink">
<g id="graph0" class="graph" transform="scale(1 1) rotate(0) translate(4 82)">
<title>Engine::Scripting::Python3::Python3Environment</title>
<!-- Node1 -->
<g id="node1" class="node">
<title>Node1</title>
<g id="a_node1"><a xlink:title=" ">
<polygon fill="#999999" stroke="#666666" points="747,-54 601,-54 601,-24 747,-24 747,-54"/>
<text text-anchor="start" x="609" y="-42" font-family="Helvetica,sans-Serif" font-size="10.00">Engine::Scripting::</text>
<text text-anchor="middle" x="674" y="-31" font-family="Helvetica,sans-Serif" font-size="10.00">Python3::Python3Environment</text>
</a>
</g>
</g>
<!-- Node2 -->
<g id="node2" class="node">
<title>Node2</title>
<g id="a_node2"><a xlink:href="struct_engine_1_1_root_1_1_root_component.html" target="_top" xlink:title=" ">
<polygon fill="white" stroke="#666666" points="543.5,-78 398.5,-78 398.5,-48 543.5,-48 543.5,-78"/>
<text text-anchor="start" x="406.5" y="-66" font-family="Helvetica,sans-Serif" font-size="10.00">Engine::Root::RootComponent</text>
<text text-anchor="middle" x="471" y="-55" font-family="Helvetica,sans-Serif" font-size="10.00">&lt; Python3Environment &gt;</text>
</a>
</g>
</g>
<!-- Node2&#45;&gt;Node1 -->
<g id="edge1" class="edge">
<title>Node2&#45;&gt;Node1</title>
<path fill="none" stroke="#63b8ff" d="M555.41,-53.04C570.49,-51.24 586.1,-49.38 600.83,-47.62"/>
<polygon fill="#63b8ff" stroke="#63b8ff" points="555.02,-49.56 545.5,-54.22 555.85,-56.51 555.02,-49.56"/>
</g>
<!-- Node3 -->
<g id="node3" class="node">
<title>Node3</title>
<g id="a_node3"><a xlink:href="struct_engine_1_1_virtual_scope.html" target="_top" xlink:title=" ">
<polygon fill="white" stroke="#666666" points="341,-78 235,-78 235,-48 341,-48 341,-78"/>
<text text-anchor="start" x="243" y="-66" font-family="Helvetica,sans-Serif" font-size="10.00">Engine::VirtualScope</text>
<text text-anchor="middle" x="288" y="-55" font-family="Helvetica,sans-Serif" font-size="10.00">&lt; T, Base &gt;</text>
</a>
</g>
</g>
<!-- Node3&#45;&gt;Node2 -->
<g id="edge2" class="edge">
<title>Node3&#45;&gt;Node2</title>
<path fill="none" stroke="#63b8ff" d="M352.44,-63C367.24,-63 383.11,-63 398.24,-63"/>
<polygon fill="#63b8ff" stroke="#63b8ff" points="352.87,-59.5 342.87,-63 352.87,-66.5 352.87,-59.5"/>
</g>
<!-- Node4 -->
<g id="node4" class="node">
<title>Node4</title>
<g id="a_node4"><a xlink:href="struct_engine_1_1_virtual_scope_base.html" target="_top" xlink:title=" ">
<polygon fill="white" stroke="#666666" points="199,-78 71,-78 71,-48 199,-48 199,-78"/>
<text text-anchor="start" x="79" y="-66" font-family="Helvetica,sans-Serif" font-size="10.00">Engine::VirtualScopeBase</text>
<text text-anchor="middle" x="135" y="-55" font-family="Helvetica,sans-Serif" font-size="10.00">&lt; Base &gt;</text>
</a>
</g>
</g>
<!-- Node4&#45;&gt;Node3 -->
<g id="edge3" class="edge">
<title>Node4&#45;&gt;Node3</title>
<path fill="none" stroke="#63b8ff" d="M210.59,-63C218.71,-63 226.84,-63 234.6,-63"/>
<polygon fill="#63b8ff" stroke="#63b8ff" points="210.68,-59.5 200.68,-63 210.68,-66.5 210.68,-59.5"/>
</g>
<!-- Node5 -->
<g id="node5" class="node">
<title>Node5</title>
<g id="a_node5"><a xlink:href="classvoid.html" target="_top" xlink:title=" ">
<polygon fill="white" stroke="#666666" points="35,-72.5 0,-72.5 0,-53.5 35,-53.5 35,-72.5"/>
<text text-anchor="middle" x="17.5" y="-60.5" font-family="Helvetica,sans-Serif" font-size="10.00">void</text>
</a>
</g>
</g>
<!-- Node5&#45;&gt;Node4 -->
<g id="edge4" class="edge">
<title>Node5&#45;&gt;Node4</title>
<path fill="none" stroke="#63b8ff" d="M46.51,-63C53.89,-63 62.17,-63 70.61,-63"/>
<polygon fill="#63b8ff" stroke="#63b8ff" points="46.56,-59.5 36.56,-63 46.56,-66.5 46.56,-59.5"/>
</g>
<!-- Node6 -->
<g id="node6" class="node">
<title>Node6</title>
<g id="a_node6"><a xlink:href="struct_engine_1_1_threading_1_1_madgine_object.html" target="_top" xlink:title=" ">
<polygon fill="white" stroke="#666666" points="565,-30 377,-30 377,0 565,0 565,-30"/>
<text text-anchor="start" x="385" y="-18" font-family="Helvetica,sans-Serif" font-size="10.00">Engine::Threading::</text>
<text text-anchor="middle" x="471" y="-7" font-family="Helvetica,sans-Serif" font-size="10.00">MadgineObject&lt; Python3Environment &gt;</text>
</a>
</g>
</g>
<!-- Node6&#45;&gt;Node1 -->
<g id="edge5" class="edge">
<title>Node6&#45;&gt;Node1</title>
<path fill="none" stroke="#63b8ff" d="M576.79,-27.51C584.81,-28.47 592.8,-29.42 600.55,-30.35"/>
<polygon fill="#63b8ff" stroke="#63b8ff" points="577.29,-24.05 566.94,-26.34 576.46,-31 577.29,-24.05"/>
</g>
<!-- Node7 -->
<g id="node7" class="node">
<title>Node7</title>
<g id="a_node7"><a xlink:href="struct_engine_1_1_threading_1_1_madgine_object_state.html" target="_top" xlink:title=" ">
<polygon fill="white" stroke="#666666" points="340.5,-30 235.5,-30 235.5,0 340.5,0 340.5,-30"/>
<text text-anchor="start" x="243.5" y="-18" font-family="Helvetica,sans-Serif" font-size="10.00">Engine::Threading::</text>
<text text-anchor="middle" x="288" y="-7" font-family="Helvetica,sans-Serif" font-size="10.00">MadgineObjectState</text>
</a>
</g>
</g>
<!-- Node7&#45;&gt;Node6 -->
<g id="edge6" class="edge">
<title>Node7&#45;&gt;Node6</title>
<path fill="none" stroke="#63b8ff" d="M352.26,-15C360.21,-15 368.47,-15 376.75,-15"/>
<polygon fill="#63b8ff" stroke="#63b8ff" points="352.38,-11.5 342.38,-15 352.38,-18.5 352.38,-11.5"/>
</g>
</g>
</svg>
