<?xml version="1.0" encoding="UTF-8" standalone="no"?>
<!DOCTYPE svg PUBLIC "-//W3C//DTD SVG 1.1//EN"
 "http://www.w3.org/Graphics/SVG/1.1/DTD/svg11.dtd">
<!-- Generated by graphviz version 7.0.5 (20221223.1930)
 -->
<!-- Title: Engine::Resources::ResourceLoaderImpl&lt; T, _Data, _Base &gt; Pages: 1 -->
<svg width="445pt" height="60pt"
 viewBox="0.00 0.00 445.00 60.00" xmlns="http://www.w3.org/2000/svg" xmlns:xlink="http://www.w3.org/1999/xlink">
<g id="graph0" class="graph" transform="scale(1 1) rotate(0) translate(4 56)">
<title>Engine::Resources::ResourceLoaderImpl&lt; T, _Data, _Base &gt;</title>
<!-- Node1 -->
<g id="node1" class="node">
<title>Node1</title>
<g id="a_node1"><a xlink:title=" ">
<polygon fill="#999999" stroke="#666666" points="437,-46.5 324,-46.5 324,-5.5 437,-5.5 437,-46.5"/>
<text text-anchor="start" x="332" y="-34.5" font-family="Helvetica,sans-Serif" font-size="10.00">Engine::Resources::</text>
<text text-anchor="start" x="332" y="-23.5" font-family="Helvetica,sans-Serif" font-size="10.00">ResourceLoaderImpl&lt;</text>
<text text-anchor="middle" x="380.5" y="-12.5" font-family="Helvetica,sans-Serif" font-size="10.00"> T, _Data, _Base &gt;</text>
</a>
</g>
</g>
<!-- Node2 -->
<g id="node2" class="node">
<title>Node2</title>
<g id="a_node2"><a xlink:href="struct_engine_1_1_resources_1_1_resource_loader_interface.html" target="_top" xlink:title=" ">
<polygon fill="white" stroke="#666666" points="288,-52 162,-52 162,0 288,0 288,-52"/>
<text text-anchor="start" x="170" y="-40" font-family="Helvetica,sans-Serif" font-size="10.00">Engine::Resources::</text>
<text text-anchor="start" x="170" y="-29" font-family="Helvetica,sans-Serif" font-size="10.00">ResourceLoaderInterface</text>
<text text-anchor="start" x="170" y="-18" font-family="Helvetica,sans-Serif" font-size="10.00">&lt; T, _Data, _Container,</text>
<text text-anchor="middle" x="225" y="-7" font-family="Helvetica,sans-Serif" font-size="10.00"> _Storage, _Base &gt;</text>
</a>
</g>
</g>
<!-- Node2&#45;&gt;Node1 -->
<g id="edge1" class="edge">
<title>Node2&#45;&gt;Node1</title>
<path fill="none" stroke="#63b8ff" d="M299.7,-26C307.72,-26 315.78,-26 323.54,-26"/>
<polygon fill="#63b8ff" stroke="#63b8ff" points="299.95,-22.5 289.95,-26 299.95,-29.5 299.95,-22.5"/>
</g>
<!-- Node3 -->
<g id="node3" class="node">
<title>Node3</title>
<g id="a_node3"><a xlink:title=" ">
<polygon fill="white" stroke="#666666" points="126,-41 0,-41 0,-11 126,-11 126,-41"/>
<text text-anchor="start" x="8" y="-29" font-family="Helvetica,sans-Serif" font-size="10.00">ResourceLoaderCollector</text>
<text text-anchor="middle" x="63" y="-18" font-family="Helvetica,sans-Serif" font-size="10.00">::Base</text>
</a>
</g>
</g>
<!-- Node3&#45;&gt;Node2 -->
<g id="edge2" class="edge">
<title>Node3&#45;&gt;Node2</title>
<path fill="none" stroke="#63b8ff" d="M137.57,-26C145.6,-26 153.71,-26 161.59,-26"/>
<polygon fill="#63b8ff" stroke="#63b8ff" points="137.83,-22.5 127.83,-26 137.83,-29.5 137.83,-22.5"/>
</g>
</g>
</svg>
