<?xml version="1.0" encoding="UTF-8" standalone="no"?>
<!DOCTYPE svg PUBLIC "-//W3C//DTD SVG 1.1//EN"
 "http://www.w3.org/Graphics/SVG/1.1/DTD/svg11.dtd">
<!-- Generated by graphviz version 7.0.5 (20221223.1930)
 -->
<!-- Title: Engine::Window::MainWindow Pages: 1 -->
<svg width="484pt" height="86pt"
 viewBox="0.00 0.00 484.00 86.00" xmlns="http://www.w3.org/2000/svg" xmlns:xlink="http://www.w3.org/1999/xlink">
<g id="graph0" class="graph" transform="scale(1 1) rotate(0) translate(4 82)">
<title>Engine::Window::MainWindow</title>
<!-- Node1 -->
<g id="node1" class="node">
<title>Node1</title>
<g id="a_node1"><a xlink:title="The MainWindow manages multiple concepts relevant for client applications.">
<polygon fill="#999999" stroke="#666666" points="476,-48.5 331,-48.5 331,-29.5 476,-29.5 476,-48.5"/>
<text text-anchor="middle" x="403.5" y="-36.5" font-family="Helvetica,sans-Serif" font-size="10.00">Engine::Window::MainWindow</text>
</a>
</g>
</g>
<!-- Node2 -->
<g id="node2" class="node">
<title>Node2</title>
<g id="a_node2"><a xlink:href="struct_engine_1_1_window_1_1_window_event_listener.html" target="_top" xlink:title=" ">
<polygon fill="white" stroke="#666666" points="292.5,-78 143.5,-78 143.5,-48 292.5,-48 292.5,-78"/>
<text text-anchor="start" x="151.5" y="-66" font-family="Helvetica,sans-Serif" font-size="10.00">Engine::Window::WindowEvent</text>
<text text-anchor="middle" x="218" y="-55" font-family="Helvetica,sans-Serif" font-size="10.00">Listener</text>
</a>
</g>
</g>
<!-- Node2&#45;&gt;Node1 -->
<g id="edge1" class="edge">
<title>Node2&#45;&gt;Node1</title>
<path fill="none" stroke="#63b8ff" d="M304.03,-51.88C312.91,-50.72 321.88,-49.54 330.6,-48.4"/>
<polygon fill="#63b8ff" stroke="#63b8ff" points="303.81,-48.38 294.34,-53.15 304.71,-55.32 303.81,-48.38"/>
</g>
<!-- Node3 -->
<g id="node3" class="node">
<title>Node3</title>
<g id="a_node3"><a xlink:href="struct_engine_1_1_threading_1_1_madgine_object.html" target="_top" xlink:title=" ">
<polygon fill="white" stroke="#666666" points="295,-30 141,-30 141,0 295,0 295,-30"/>
<text text-anchor="start" x="149" y="-18" font-family="Helvetica,sans-Serif" font-size="10.00">Engine::Threading::</text>
<text text-anchor="middle" x="218" y="-7" font-family="Helvetica,sans-Serif" font-size="10.00">MadgineObject&lt; MainWindow &gt;</text>
</a>
</g>
</g>
<!-- Node3&#45;&gt;Node1 -->
<g id="edge2" class="edge">
<title>Node3&#45;&gt;Node1</title>
<path fill="none" stroke="#63b8ff" d="M306.72,-26.47C314.7,-27.52 322.72,-28.57 330.54,-29.59"/>
<polygon fill="#63b8ff" stroke="#63b8ff" points="307.36,-23.03 296.99,-25.2 306.45,-29.97 307.36,-23.03"/>
</g>
<!-- Node4 -->
<g id="node4" class="node">
<title>Node4</title>
<g id="a_node4"><a xlink:href="struct_engine_1_1_threading_1_1_madgine_object_state.html" target="_top" xlink:title=" ">
<polygon fill="white" stroke="#666666" points="105,-30 0,-30 0,0 105,0 105,-30"/>
<text text-anchor="start" x="8" y="-18" font-family="Helvetica,sans-Serif" font-size="10.00">Engine::Threading::</text>
<text text-anchor="middle" x="52.5" y="-7" font-family="Helvetica,sans-Serif" font-size="10.00">MadgineObjectState</text>
</a>
</g>
</g>
<!-- Node4&#45;&gt;Node3 -->
<g id="edge3" class="edge">
<title>Node4&#45;&gt;Node3</title>
<path fill="none" stroke="#63b8ff" d="M116.53,-15C124.39,-15 132.48,-15 140.52,-15"/>
<polygon fill="#63b8ff" stroke="#63b8ff" points="116.75,-11.5 106.75,-15 116.75,-18.5 116.75,-11.5"/>
</g>
</g>
</svg>
