<?xml version="1.0" encoding="UTF-8" standalone="no"?>
<!DOCTYPE svg PUBLIC "-//W3C//DTD SVG 1.1//EN"
 "http://www.w3.org/Graphics/SVG/1.1/DTD/svg11.dtd">
<!-- Generated by graphviz version 7.0.5 (20221223.1930)
 -->
<!-- Title: Engine::NodeGraph::SenderNode&lt; Config, Algorithm, Arguments &gt; Pages: 1 -->
<svg width="705pt" height="60pt"
 viewBox="0.00 0.00 705.00 60.00" xmlns="http://www.w3.org/2000/svg" xmlns:xlink="http://www.w3.org/1999/xlink">
<g id="graph0" class="graph" transform="scale(1 1) rotate(0) translate(4 56)">
<title>Engine::NodeGraph::SenderNode&lt; Config, Algorithm, Arguments &gt;</title>
<!-- Node1 -->
<g id="node1" class="node">
<title>Node1</title>
<g id="a_node1"><a xlink:title=" ">
<polygon fill="#999999" stroke="#666666" points="697,-46.5 576,-46.5 576,-5.5 697,-5.5 697,-46.5"/>
<text text-anchor="start" x="584" y="-34.5" font-family="Helvetica,sans-Serif" font-size="10.00">Engine::NodeGraph::</text>
<text text-anchor="start" x="584" y="-23.5" font-family="Helvetica,sans-Serif" font-size="10.00">SenderNode&lt; Config,</text>
<text text-anchor="middle" x="636.5" y="-12.5" font-family="Helvetica,sans-Serif" font-size="10.00"> Algorithm, Arguments &gt;</text>
</a>
</g>
</g>
<!-- Node2 -->
<g id="node2" class="node">
<title>Node2</title>
<g id="a_node2"><a xlink:href="struct_engine_1_1_node_graph_1_1_node.html" target="_top" xlink:title=" ">
<polygon fill="white" stroke="#666666" points="540,-52 400,-52 400,0 540,0 540,-52"/>
<text text-anchor="start" x="408" y="-40" font-family="Helvetica,sans-Serif" font-size="10.00">Engine::NodeGraph::</text>
<text text-anchor="start" x="408" y="-29" font-family="Helvetica,sans-Serif" font-size="10.00">Node&lt; SenderNode&lt; Config,</text>
<text text-anchor="start" x="408" y="-18" font-family="Helvetica,sans-Serif" font-size="10.00"> Algorithm, Arguments...</text>
<text text-anchor="middle" x="470" y="-7" font-family="Helvetica,sans-Serif" font-size="10.00"> &gt;, AutoMaskNode&lt;&gt; &gt;</text>
</a>
</g>
</g>
<!-- Node2&#45;&gt;Node1 -->
<g id="edge1" class="edge">
<title>Node2&#45;&gt;Node1</title>
<path fill="none" stroke="#63b8ff" d="M551.67,-26C559.76,-26 567.86,-26 575.68,-26"/>
<polygon fill="#63b8ff" stroke="#63b8ff" points="551.8,-22.5 541.8,-26 551.8,-29.5 551.8,-22.5"/>
</g>
<!-- Node3 -->
<g id="node3" class="node">
<title>Node3</title>
<g id="a_node3"><a xlink:href="struct_engine_1_1_serialize_1_1_virtual_data.html" target="_top" xlink:title=" ">
<polygon fill="white" stroke="#666666" points="364,-41 244,-41 244,-11 364,-11 364,-41"/>
<text text-anchor="start" x="252" y="-29" font-family="Helvetica,sans-Serif" font-size="10.00">Engine::Serialize::</text>
<text text-anchor="middle" x="304" y="-18" font-family="Helvetica,sans-Serif" font-size="10.00">VirtualData&lt; T, _Base &gt;</text>
</a>
</g>
</g>
<!-- Node3&#45;&gt;Node2 -->
<g id="edge2" class="edge">
<title>Node3&#45;&gt;Node2</title>
<path fill="none" stroke="#63b8ff" d="M375.67,-26C383.59,-26 391.65,-26 399.55,-26"/>
<polygon fill="#63b8ff" stroke="#63b8ff" points="375.72,-22.5 365.72,-26 375.72,-29.5 375.72,-22.5"/>
</g>
<!-- Node4 -->
<g id="node4" class="node">
<title>Node4</title>
<g id="a_node4"><a xlink:href="struct_engine_1_1_serialize_1_1_virtual_serializable_data_base.html" target="_top" xlink:title=" ">
<polygon fill="white" stroke="#666666" points="208,-46.5 71,-46.5 71,-5.5 208,-5.5 208,-46.5"/>
<text text-anchor="start" x="79" y="-34.5" font-family="Helvetica,sans-Serif" font-size="10.00">Engine::Serialize::</text>
<text text-anchor="start" x="79" y="-23.5" font-family="Helvetica,sans-Serif" font-size="10.00">VirtualSerializableDataBase</text>
<text text-anchor="middle" x="139.5" y="-12.5" font-family="Helvetica,sans-Serif" font-size="10.00">&lt; _Base &gt;</text>
</a>
</g>
</g>
<!-- Node4&#45;&gt;Node3 -->
<g id="edge3" class="edge">
<title>Node4&#45;&gt;Node3</title>
<path fill="none" stroke="#63b8ff" d="M219.75,-26C227.77,-26 235.81,-26 243.56,-26"/>
<polygon fill="#63b8ff" stroke="#63b8ff" points="219.99,-22.5 209.99,-26 219.99,-29.5 219.99,-22.5"/>
</g>
<!-- Node5 -->
<g id="node5" class="node">
<title>Node5</title>
<g id="a_node5"><a xlink:href="classvoid.html" target="_top" xlink:title=" ">
<polygon fill="white" stroke="#666666" points="35,-35.5 0,-35.5 0,-16.5 35,-16.5 35,-35.5"/>
<text text-anchor="middle" x="17.5" y="-23.5" font-family="Helvetica,sans-Serif" font-size="10.00">void</text>
</a>
</g>
</g>
<!-- Node5&#45;&gt;Node4 -->
<g id="edge4" class="edge">
<title>Node5&#45;&gt;Node4</title>
<path fill="none" stroke="#63b8ff" d="M46.74,-26C54.01,-26 62.17,-26 70.53,-26"/>
<polygon fill="#63b8ff" stroke="#63b8ff" points="46.95,-22.5 36.95,-26 46.95,-29.5 46.95,-22.5"/>
</g>
</g>
</svg>
