<?xml version="1.0" encoding="UTF-8" standalone="no"?>
<!DOCTYPE svg PUBLIC "-//W3C//DTD SVG 1.1//EN"
 "http://www.w3.org/Graphics/SVG/1.1/DTD/svg11.dtd">
<!-- Generated by graphviz version 7.0.5 (20221223.1930)
 -->
<!-- Title: Engine::Render::PipelineInstance Pages: 1 -->
<!--zoomable 278 -->
<svg id="main" version="1.1" xmlns="http://www.w3.org/2000/svg" xmlns:xlink="http://www.w3.org/1999/xlink" xml:space="preserve" onload="init(evt)">
<style type="text/css"><![CDATA[
.edge:hover path { stroke: red; }
.edge:hover polygon { stroke: red; fill: red; }
]]></style>
<script type="text/javascript"><![CDATA[
var edges = document.getElementsByTagName('g');
if (edges && edges.length) {
  for (var i=0;i<edges.length;i++) {
    if (edges[i].id.substr(0,4)=='edge') {
      edges[i].setAttribute('class','edge');
    }
  }
}
]]></script>
        <defs>
                <circle id="rim" cx="0" cy="0" r="7"/>
                <circle id="rim2" cx="0" cy="0" r="3.5"/>
                <g id="zoomPlus">
                        <use xlink:href="#rim" fill="#404040">
                                <set attributeName="fill" to="#808080" begin="zoomplus.mouseover" end="zoomplus.mouseout"/>
                        </use>
                        <path d="M-4,0h8M0,-4v8" fill="none" stroke="white" stroke-width="1.5" pointer-events="none"/>
                </g>
                <g id="zoomMin">
                        <use xlink:href="#rim" fill="#404040">
                                <set attributeName="fill" to="#808080" begin="zoomminus.mouseover" end="zoomminus.mouseout"/>
                        </use>
                        <path d="M-4,0h8" fill="none" stroke="white" stroke-width="1.5" pointer-events="none"/>
                </g>
                <g id="dirArrow">
                        <path fill="none" stroke="white" stroke-width="1.5" d="M0,-3.0v7 M-2.5,-0.5L0,-3.0L2.5,-0.5"/>
                </g>
               <g id="resetDef">
                       <use xlink:href="#rim2" fill="#404040">
                               <set attributeName="fill" to="#808080" begin="reset.mouseover" end="reset.mouseout"/>
                       </use>
               </g>
        </defs>

<script type="text/javascript">
var viewWidth = 514;
var viewHeight = 278;
var sectionId = 'dynsection-0';
</script>
<script xlink:href="svgpan.js"/>
<svg id="graph" class="graph">
<g id="viewport">
<title>Engine::Render::PipelineInstance</title>
<!-- Node1 -->
<g id="node1" class="node">
<title>Node1</title>
<g id="a_node1"><a xlink:title=" ">
<polygon fill="#999999" stroke="#666666" points="120,-150 0,-150 0,-120 120,-120 120,-150"/>
<text text-anchor="start" x="8" y="-138" font-family="Helvetica,sans-Serif" font-size="10.00">Engine::Render::Pipeline</text>
<text text-anchor="middle" x="60" y="-127" font-family="Helvetica,sans-Serif" font-size="10.00">Instance</text>
</a>
</g>
</g>
<!-- Node2 -->
<g id="node2" class="node">
<title>Node2</title>
<g id="a_node2"><a xlink:href="struct_engine_1_1_render_1_1_direct_x12_pipeline_instance.html" target="_top" xlink:title=" ">
<polygon fill="white" stroke="#666666" points="298.5,-222 170.5,-222 170.5,-192 298.5,-192 298.5,-222"/>
<text text-anchor="start" x="178.5" y="-210" font-family="Helvetica,sans-Serif" font-size="10.00">Engine::Render::DirectX12</text>
<text text-anchor="middle" x="234.5" y="-199" font-family="Helvetica,sans-Serif" font-size="10.00">PipelineInstance</text>
</a>
</g>
</g>
<!-- Node1&#45;&gt;Node2 -->
<g id="edge1" class="edge">
<title>Node1&#45;&gt;Node2</title>
<path fill="none" stroke="#63b8ff" d="M108.3,-154.74C136.11,-166.35 170.76,-180.81 196.56,-191.58"/>
<polygon fill="#63b8ff" stroke="#63b8ff" points="109.98,-151.65 99.4,-151.03 107.28,-158.11 109.98,-151.65"/>
</g>
<!-- Node5 -->
<g id="node5" class="node">
<title>Node5</title>
<g id="a_node5"><a xlink:href="struct_engine_1_1_render_1_1_open_g_l_pipeline_instance.html" target="_top" xlink:title=" ">
<polygon fill="white" stroke="#666666" points="313,-150 156,-150 156,-120 313,-120 313,-150"/>
<text text-anchor="start" x="164" y="-138" font-family="Helvetica,sans-Serif" font-size="10.00">Engine::Render::OpenGLPipeline</text>
<text text-anchor="middle" x="234.5" y="-127" font-family="Helvetica,sans-Serif" font-size="10.00">Instance</text>
</a>
</g>
</g>
<!-- Node1&#45;&gt;Node5 -->
<g id="edge4" class="edge">
<title>Node1&#45;&gt;Node5</title>
<path fill="none" stroke="#63b8ff" d="M131.78,-135C139.68,-135 147.76,-135 155.75,-135"/>
<polygon fill="#63b8ff" stroke="#63b8ff" points="131.88,-131.5 121.88,-135 131.88,-138.5 131.88,-131.5"/>
</g>
<!-- Node8 -->
<g id="node8" class="node">
<title>Node8</title>
<g id="a_node8"><a xlink:href="struct_engine_1_1_render_1_1_vulkan_pipeline_instance.html" target="_top" xlink:title=" ">
<polygon fill="white" stroke="#666666" points="309.5,-78 159.5,-78 159.5,-48 309.5,-48 309.5,-78"/>
<text text-anchor="start" x="167.5" y="-66" font-family="Helvetica,sans-Serif" font-size="10.00">Engine::Render::VulkanPipeline</text>
<text text-anchor="middle" x="234.5" y="-55" font-family="Helvetica,sans-Serif" font-size="10.00">Instance</text>
</a>
</g>
</g>
<!-- Node1&#45;&gt;Node8 -->
<g id="edge7" class="edge">
<title>Node1&#45;&gt;Node8</title>
<path fill="none" stroke="#63b8ff" d="M108.3,-115.26C136.11,-103.65 170.76,-89.19 196.56,-78.42"/>
<polygon fill="#63b8ff" stroke="#63b8ff" points="107.28,-111.89 99.4,-118.97 109.98,-118.35 107.28,-111.89"/>
</g>
<!-- Node3 -->
<g id="node3" class="node">
<title>Node3</title>
<g id="a_node3"><a xlink:href="struct_engine_1_1_render_1_1_direct_x12_pipeline_instance_handle.html" target="_top" xlink:title=" ">
<polygon fill="white" stroke="#666666" points="491.5,-270 363.5,-270 363.5,-240 491.5,-240 491.5,-270"/>
<text text-anchor="start" x="371.5" y="-258" font-family="Helvetica,sans-Serif" font-size="10.00">Engine::Render::DirectX12</text>
<text text-anchor="middle" x="427.5" y="-247" font-family="Helvetica,sans-Serif" font-size="10.00">PipelineInstanceHandle</text>
</a>
</g>
</g>
<!-- Node2&#45;&gt;Node3 -->
<g id="edge2" class="edge">
<title>Node2&#45;&gt;Node3</title>
<path fill="none" stroke="#63b8ff" d="M307.92,-225.2C326.77,-229.94 346.91,-235 365.13,-239.58"/>
<polygon fill="#63b8ff" stroke="#63b8ff" points="309,-221.86 298.45,-222.82 307.3,-228.65 309,-221.86"/>
</g>
<!-- Node4 -->
<g id="node4" class="node">
<title>Node4</title>
<g id="a_node4"><a xlink:href="struct_engine_1_1_render_1_1_direct_x12_pipeline_instance_ptr.html" target="_top" xlink:title=" ">
<polygon fill="white" stroke="#666666" points="491.5,-222 363.5,-222 363.5,-192 491.5,-192 491.5,-222"/>
<text text-anchor="start" x="371.5" y="-210" font-family="Helvetica,sans-Serif" font-size="10.00">Engine::Render::DirectX12</text>
<text text-anchor="middle" x="427.5" y="-199" font-family="Helvetica,sans-Serif" font-size="10.00">PipelineInstancePtr</text>
</a>
</g>
</g>
<!-- Node2&#45;&gt;Node4 -->
<g id="edge3" class="edge">
<title>Node2&#45;&gt;Node4</title>
<path fill="none" stroke="#63b8ff" d="M310.15,-207C327.62,-207 346.08,-207 363.01,-207"/>
<polygon fill="#63b8ff" stroke="#63b8ff" points="310.35,-203.5 300.35,-207 310.35,-210.5 310.35,-203.5"/>
</g>
<!-- Node6 -->
<g id="node6" class="node">
<title>Node6</title>
<g id="a_node6"><a xlink:href="struct_engine_1_1_render_1_1_open_g_l_pipeline_instance_handle.html" target="_top" xlink:title=" ">
<polygon fill="white" stroke="#666666" points="506,-174 349,-174 349,-144 506,-144 506,-174"/>
<text text-anchor="start" x="357" y="-162" font-family="Helvetica,sans-Serif" font-size="10.00">Engine::Render::OpenGLPipeline</text>
<text text-anchor="middle" x="427.5" y="-151" font-family="Helvetica,sans-Serif" font-size="10.00">InstanceHandle</text>
</a>
</g>
</g>
<!-- Node5&#45;&gt;Node6 -->
<g id="edge5" class="edge">
<title>Node5&#45;&gt;Node6</title>
<path fill="none" stroke="#63b8ff" d="M324.75,-146.21C332.78,-147.22 340.87,-148.24 348.79,-149.23"/>
<polygon fill="#63b8ff" stroke="#63b8ff" points="325.32,-142.76 314.96,-144.99 324.45,-149.7 325.32,-142.76"/>
</g>
<!-- Node7 -->
<g id="node7" class="node">
<title>Node7</title>
<g id="a_node7"><a xlink:href="struct_engine_1_1_render_1_1_open_g_l_pipeline_instance_ptr.html" target="_top" xlink:title=" ">
<polygon fill="white" stroke="#666666" points="506,-126 349,-126 349,-96 506,-96 506,-126"/>
<text text-anchor="start" x="357" y="-114" font-family="Helvetica,sans-Serif" font-size="10.00">Engine::Render::OpenGLPipeline</text>
<text text-anchor="middle" x="427.5" y="-103" font-family="Helvetica,sans-Serif" font-size="10.00">InstancePtr</text>
</a>
</g>
</g>
<!-- Node5&#45;&gt;Node7 -->
<g id="edge6" class="edge">
<title>Node5&#45;&gt;Node7</title>
<path fill="none" stroke="#63b8ff" d="M324.75,-123.79C332.78,-122.78 340.87,-121.76 348.79,-120.77"/>
<polygon fill="#63b8ff" stroke="#63b8ff" points="324.45,-120.3 314.96,-125.01 325.32,-127.24 324.45,-120.3"/>
</g>
<!-- Node9 -->
<g id="node9" class="node">
<title>Node9</title>
<g id="a_node9"><a xlink:href="struct_engine_1_1_render_1_1_vulkan_pipeline_instance_handle.html" target="_top" xlink:title=" ">
<polygon fill="white" stroke="#666666" points="502.5,-78 352.5,-78 352.5,-48 502.5,-48 502.5,-78"/>
<text text-anchor="start" x="360.5" y="-66" font-family="Helvetica,sans-Serif" font-size="10.00">Engine::Render::VulkanPipeline</text>
<text text-anchor="middle" x="427.5" y="-55" font-family="Helvetica,sans-Serif" font-size="10.00">InstanceHandle</text>
</a>
</g>
</g>
<!-- Node8&#45;&gt;Node9 -->
<g id="edge8" class="edge">
<title>Node8&#45;&gt;Node9</title>
<path fill="none" stroke="#63b8ff" d="M321.1,-63C331.51,-63 342.08,-63 352.31,-63"/>
<polygon fill="#63b8ff" stroke="#63b8ff" points="321.41,-59.5 311.41,-63 321.41,-66.5 321.41,-59.5"/>
</g>
<!-- Node10 -->
<g id="node10" class="node">
<title>Node10</title>
<g id="a_node10"><a xlink:href="struct_engine_1_1_render_1_1_vulkan_pipeline_instance_ptr.html" target="_top" xlink:title=" ">
<polygon fill="white" stroke="#666666" points="502.5,-30 352.5,-30 352.5,0 502.5,0 502.5,-30"/>
<text text-anchor="start" x="360.5" y="-18" font-family="Helvetica,sans-Serif" font-size="10.00">Engine::Render::VulkanPipeline</text>
<text text-anchor="middle" x="427.5" y="-7" font-family="Helvetica,sans-Serif" font-size="10.00">InstancePtr</text>
</a>
</g>
</g>
<!-- Node8&#45;&gt;Node10 -->
<g id="edge9" class="edge">
<title>Node8&#45;&gt;Node10</title>
<path fill="none" stroke="#63b8ff" d="M307.92,-44.8C326.77,-40.06 346.91,-35 365.13,-30.42"/>
<polygon fill="#63b8ff" stroke="#63b8ff" points="307.3,-41.35 298.45,-47.18 309,-48.14 307.3,-41.35"/>
</g>
</g>
</svg>
        <g id="navigator" transform="translate(0 0)" fill="#404254">
                <rect fill="#f2f5e9" fill-opacity="0.5" stroke="#606060" stroke-width=".5" x="0" y="0" width="60" height="60"/>
                <use id="zoomplus" xlink:href="#zoomPlus" x="17" y="9" onmousedown="handleZoom(evt,'in')"/>
                <use id="zoomminus" xlink:href="#zoomMin" x="42" y="9" onmousedown="handleZoom(evt,'out')"/>
                <use id="reset" xlink:href="#resetDef" x="30" y="36" onmousedown="handleReset()"/>
                <g id="arrowUp" xlink:href="#dirArrow" transform="translate(30 24)" onmousedown="handlePan(0,-1)">
                  <use xlink:href="#rim" fill="#404040">
                        <set attributeName="fill" to="#808080" begin="arrowUp.mouseover" end="arrowUp.mouseout"/>
                  </use>
                  <path fill="none" stroke="white" stroke-width="1.5" d="M0,-3.0v7 M-2.5,-0.5L0,-3.0L2.5,-0.5"/>
                </g>
                <g id="arrowRight" xlink:href="#dirArrow" transform="rotate(90) translate(36 -43)" onmousedown="handlePan(1,0)">
                  <use xlink:href="#rim" fill="#404040">
                        <set attributeName="fill" to="#808080" begin="arrowRight.mouseover" end="arrowRight.mouseout"/>
                  </use>
                  <path fill="none" stroke="white" stroke-width="1.5" d="M0,-3.0v7 M-2.5,-0.5L0,-3.0L2.5,-0.5"/>
                </g>
                <g id="arrowDown" xlink:href="#dirArrow" transform="rotate(180) translate(-30 -48)" onmousedown="handlePan(0,1)">
                  <use xlink:href="#rim" fill="#404040">
                        <set attributeName="fill" to="#808080" begin="arrowDown.mouseover" end="arrowDown.mouseout"/>
                  </use>
                  <path fill="none" stroke="white" stroke-width="1.5" d="M0,-3.0v7 M-2.5,-0.5L0,-3.0L2.5,-0.5"/>
                </g>
                <g id="arrowLeft" xlink:href="#dirArrow" transform="rotate(270) translate(-36 17)" onmousedown="handlePan(-1,0)">
                  <use xlink:href="#rim" fill="#404040">
                        <set attributeName="fill" to="#808080" begin="arrowLeft.mouseover" end="arrowLeft.mouseout"/>
                  </use>
                  <path fill="none" stroke="white" stroke-width="1.5" d="M0,-3.0v7 M-2.5,-0.5L0,-3.0L2.5,-0.5"/>
                </g>
        </g>
        <svg viewBox="0 0 15 15" width="100%" height="30px" preserveAspectRatio="xMaxYMin meet">
         <g id="arrow_out" transform="scale(0.3 0.3)">
          <a xlink:href="struct_engine_1_1_render_1_1_pipeline_instance__inherit__graph_org.svg" target="_base">
           <rect id="button" ry="5" rx="5" y="6" x="6" height="38" width="38"
                fill="#f2f5e9" fill-opacity="0.5" stroke="#606060" stroke-width="1.0"/>
           <path id="arrow"
             d="M 11.500037,31.436501 C 11.940474,20.09759 22.043105,11.32322 32.158766,21.979434 L 37.068811,17.246167 C 37.068811,17.246167 37.088388,32 37.088388,32 L 22.160133,31.978069 C 22.160133,31.978069 26.997745,27.140456 26.997745,27.140456 C 18.528582,18.264221 13.291696,25.230495 11.500037,31.436501 z"
             style="fill:#404040;"/>
          </a>
         </g>
        </svg>
</svg>
