<?xml version="1.0" encoding="UTF-8" standalone="no"?>
<!DOCTYPE svg PUBLIC "-//W3C//DTD SVG 1.1//EN"
 "http://www.w3.org/Graphics/SVG/1.1/DTD/svg11.dtd">
<!-- Generated by graphviz version 7.0.5 (20221223.1930)
 -->
<!-- Title: Engine::Serialize::SyncableContainerImpl&lt; C, Observer, OffsetPtr &gt;::_RemoveOperation Pages: 1 -->
<svg width="130pt" height="170pt"
 viewBox="0.00 0.00 130.00 170.00" xmlns="http://www.w3.org/2000/svg" xmlns:xlink="http://www.w3.org/1999/xlink">
<g id="graph0" class="graph" transform="scale(1 1) rotate(0) translate(4 166)">
<title>Engine::Serialize::SyncableContainerImpl&lt; C, Observer, OffsetPtr &gt;::_RemoveOperation</title>
<!-- Node1 -->
<g id="node1" class="node">
<title>Node1</title>
<g id="a_node1"><a xlink:title=" ">
<polygon fill="#999999" stroke="#666666" points="121.5,-52 0.5,-52 0.5,0 121.5,0 121.5,-52"/>
<text text-anchor="start" x="8.5" y="-40" font-family="Helvetica,sans-Serif" font-size="10.00">Engine::Serialize::</text>
<text text-anchor="start" x="8.5" y="-29" font-family="Helvetica,sans-Serif" font-size="10.00">SyncableContainerImpl</text>
<text text-anchor="start" x="8.5" y="-18" font-family="Helvetica,sans-Serif" font-size="10.00">&lt; C, Observer, OffsetPtr</text>
<text text-anchor="middle" x="61" y="-7" font-family="Helvetica,sans-Serif" font-size="10.00"> &gt;::_RemoveOperation</text>
</a>
</g>
</g>
<!-- Node2 -->
<g id="node2" class="node">
<title>Node2</title>
<g id="a_node2"><a xlink:href="struct_engine_1_1_atomic_container_operation.html" target="_top" xlink:title=" ">
<polygon fill="white" stroke="#666666" points="122,-107 0,-107 0,-88 122,-88 122,-107"/>
<text text-anchor="middle" x="61" y="-95" font-family="Helvetica,sans-Serif" font-size="10.00">Base::RemoveOperation</text>
</a>
</g>
</g>
<!-- Node2&#45;&gt;Node1 -->
<g id="edge1" class="edge">
<title>Node2&#45;&gt;Node1</title>
<path fill="none" stroke="#63b8ff" d="M61,-76.2C61,-68.77 61,-60.28 61,-52.46"/>
<polygon fill="#63b8ff" stroke="#63b8ff" points="57.5,-76.18 61,-86.18 64.5,-76.18 57.5,-76.18"/>
</g>
<!-- Node3 -->
<g id="node3" class="node">
<title>Node3</title>
<g id="a_node3"><a xlink:href="class_op.html" target="_top" xlink:title=" ">
<polygon fill="white" stroke="#666666" points="75.5,-162 46.5,-162 46.5,-143 75.5,-143 75.5,-162"/>
<text text-anchor="middle" x="61" y="-150" font-family="Helvetica,sans-Serif" font-size="10.00">Op</text>
</a>
</g>
</g>
<!-- Node3&#45;&gt;Node2 -->
<g id="edge2" class="edge">
<title>Node3&#45;&gt;Node2</title>
<path fill="none" stroke="#63b8ff" d="M61,-131.35C61,-123.1 61,-113.97 61,-107.44"/>
<polygon fill="#63b8ff" stroke="#63b8ff" points="57.5,-131.23 61,-141.23 64.5,-131.23 57.5,-131.23"/>
</g>
</g>
</svg>
