<?xml version="1.0" encoding="UTF-8" standalone="no"?>
<!DOCTYPE svg PUBLIC "-//W3C//DTD SVG 1.1//EN"
 "http://www.w3.org/Graphics/SVG/1.1/DTD/svg11.dtd">
<!-- Generated by graphviz version 7.0.5 (20221223.1930)
 -->
<!-- Title: Engine::Render::OpenGLPipelineLoader Pages: 1 -->
<svg width="616pt" height="60pt"
 viewBox="0.00 0.00 616.00 60.00" xmlns="http://www.w3.org/2000/svg" xmlns:xlink="http://www.w3.org/1999/xlink">
<g id="graph0" class="graph" transform="scale(1 1) rotate(0) translate(4 56)">
<title>Engine::Render::OpenGLPipelineLoader</title>
<!-- Node1 -->
<g id="node1" class="node">
<title>Node1</title>
<g id="a_node1"><a xlink:title=" ">
<polygon fill="#999999" stroke="#666666" points="608,-41 451,-41 451,-11 608,-11 608,-41"/>
<text text-anchor="start" x="459" y="-29" font-family="Helvetica,sans-Serif" font-size="10.00">Engine::Render::OpenGLPipeline</text>
<text text-anchor="middle" x="529.5" y="-18" font-family="Helvetica,sans-Serif" font-size="10.00">Loader</text>
</a>
</g>
</g>
<!-- Node2 -->
<g id="node2" class="node">
<title>Node2</title>
<g id="a_node2"><a xlink:href="struct_engine_1_1_resources_1_1_virtual_resource_loader_impl.html" target="_top" xlink:title=" ">
<polygon fill="white" stroke="#666666" points="415,-52 247,-52 247,0 415,0 415,-52"/>
<text text-anchor="start" x="255" y="-40" font-family="Helvetica,sans-Serif" font-size="10.00">Engine::Resources::</text>
<text text-anchor="start" x="255" y="-29" font-family="Helvetica,sans-Serif" font-size="10.00">VirtualResourceLoaderImpl</text>
<text text-anchor="start" x="255" y="-18" font-family="Helvetica,sans-Serif" font-size="10.00">&lt; OpenGLPipelineLoader,</text>
<text text-anchor="middle" x="331" y="-7" font-family="Helvetica,sans-Serif" font-size="10.00"> OpenGLPipeline, PipelineLoader &gt;</text>
</a>
</g>
</g>
<!-- Node2&#45;&gt;Node1 -->
<g id="edge1" class="edge">
<title>Node2&#45;&gt;Node1</title>
<path fill="none" stroke="#63b8ff" d="M426.66,-26C434.7,-26 442.77,-26 450.66,-26"/>
<polygon fill="#63b8ff" stroke="#63b8ff" points="426.85,-22.5 416.85,-26 426.85,-29.5 426.85,-22.5"/>
</g>
<!-- Node3 -->
<g id="node3" class="node">
<title>Node3</title>
<g id="a_node3"><a xlink:href="struct_engine_1_1_unique_component_1_1_virtual_component_impl.html" target="_top" xlink:title=" ">
<polygon fill="white" stroke="#666666" points="211,-46.5 80,-46.5 80,-5.5 211,-5.5 211,-46.5"/>
<text text-anchor="start" x="88" y="-34.5" font-family="Helvetica,sans-Serif" font-size="10.00">Engine::UniqueComponent</text>
<text text-anchor="start" x="88" y="-23.5" font-family="Helvetica,sans-Serif" font-size="10.00">::VirtualComponentImpl</text>
<text text-anchor="middle" x="145.5" y="-12.5" font-family="Helvetica,sans-Serif" font-size="10.00">&lt; _T, _Base, _VBase &gt;</text>
</a>
</g>
</g>
<!-- Node3&#45;&gt;Node2 -->
<g id="edge2" class="edge">
<title>Node3&#45;&gt;Node2</title>
<path fill="none" stroke="#63b8ff" d="M222.89,-26C230.79,-26 238.84,-26 246.81,-26"/>
<polygon fill="#63b8ff" stroke="#63b8ff" points="222.97,-22.5 212.97,-26 222.97,-29.5 222.97,-22.5"/>
</g>
<!-- Node4 -->
<g id="node4" class="node">
<title>Node4</title>
<g id="a_node4"><a xlink:title=" ">
<polygon fill="white" stroke="#666666" points="44,-35.5 0,-35.5 0,-16.5 44,-16.5 44,-35.5"/>
<text text-anchor="middle" x="22" y="-23.5" font-family="Helvetica,sans-Serif" font-size="10.00">_Base</text>
</a>
</g>
</g>
<!-- Node4&#45;&gt;Node3 -->
<g id="edge3" class="edge">
<title>Node4&#45;&gt;Node3</title>
<path fill="none" stroke="#63b8ff" d="M55.83,-26C63.28,-26 71.45,-26 79.72,-26"/>
<polygon fill="#63b8ff" stroke="#63b8ff" points="55.96,-22.5 45.96,-26 55.96,-29.5 55.96,-22.5"/>
</g>
</g>
</svg>
