<?xml version="1.0" encoding="UTF-8" standalone="no"?>
<!DOCTYPE svg PUBLIC "-//W3C//DTD SVG 1.1//EN"
 "http://www.w3.org/Graphics/SVG/1.1/DTD/svg11.dtd">
<!-- Generated by graphviz version 7.0.5 (20221223.1930)
 -->
<!-- Title: Engine::Serialize::SyncableUnitBase Pages: 1 -->
<svg width="466pt" height="135pt"
 viewBox="0.00 0.00 466.00 134.50" xmlns="http://www.w3.org/2000/svg" xmlns:xlink="http://www.w3.org/1999/xlink">
<g id="graph0" class="graph" transform="scale(1 1) rotate(0) translate(4 130.5)">
<title>Engine::Serialize::SyncableUnitBase</title>
<!-- Node1 -->
<g id="node1" class="node">
<title>Node1</title>
<g id="a_node1"><a xlink:title=" ">
<polygon fill="#999999" stroke="#666666" points="240,-84 143,-84 143,-54 240,-54 240,-84"/>
<text text-anchor="start" x="151" y="-72" font-family="Helvetica,sans-Serif" font-size="10.00">Engine::Serialize::</text>
<text text-anchor="middle" x="191.5" y="-61" font-family="Helvetica,sans-Serif" font-size="10.00">SyncableUnitBase</text>
</a>
</g>
</g>
<!-- Node3 -->
<g id="node3" class="node">
<title>Node3</title>
<g id="a_node3"><a xlink:href="struct_engine_1_1_scene_1_1_scene_component_base.html" target="_top" xlink:title=" ">
<polygon fill="white" stroke="#666666" points="458,-126.5 276,-126.5 276,-107.5 458,-107.5 458,-126.5"/>
<text text-anchor="middle" x="367" y="-114.5" font-family="Helvetica,sans-Serif" font-size="10.00">Engine::Scene::SceneComponentBase</text>
</a>
</g>
</g>
<!-- Node1&#45;&gt;Node3 -->
<g id="edge2" class="edge">
<title>Node1&#45;&gt;Node3</title>
<path fill="none" stroke="#63b8ff" d="M242.34,-88.26C253.33,-92.13 264.98,-95.94 276,-99 286.75,-101.99 298.35,-104.69 309.53,-107.03"/>
<polygon fill="#63b8ff" stroke="#63b8ff" points="243.64,-85.01 233.04,-84.91 241.27,-91.59 243.64,-85.01"/>
</g>
<!-- Node4 -->
<g id="node4" class="node">
<title>Node4</title>
<g id="a_node4"><a xlink:href="struct_engine_1_1_serialize_1_1_table_initialized.html" target="_top" xlink:title=" ">
<polygon fill="white" stroke="#666666" points="416,-89.5 318,-89.5 318,-48.5 416,-48.5 416,-89.5"/>
<text text-anchor="start" x="326" y="-77.5" font-family="Helvetica,sans-Serif" font-size="10.00">Engine::Serialize::</text>
<text text-anchor="start" x="326" y="-66.5" font-family="Helvetica,sans-Serif" font-size="10.00">TableInitialized&lt; T,</text>
<text text-anchor="middle" x="367" y="-55.5" font-family="Helvetica,sans-Serif" font-size="10.00"> _Base &gt;</text>
</a>
</g>
</g>
<!-- Node1&#45;&gt;Node4 -->
<g id="edge3" class="edge">
<title>Node1&#45;&gt;Node4</title>
<path fill="none" stroke="#63b8ff" d="M251.69,-69C273.2,-69 297.23,-69 317.68,-69"/>
<polygon fill="#63b8ff" stroke="#63b8ff" points="251.88,-65.5 241.88,-69 251.88,-72.5 251.88,-65.5"/>
</g>
<!-- Node5 -->
<g id="node5" class="node">
<title>Node5</title>
<g id="a_node5"><a xlink:href="struct_engine_1_1_serialize_1_1_top_level_unit_base.html" target="_top" xlink:title=" ">
<polygon fill="white" stroke="#666666" points="416,-30 318,-30 318,0 416,0 416,-30"/>
<text text-anchor="start" x="326" y="-18" font-family="Helvetica,sans-Serif" font-size="10.00">Engine::Serialize::</text>
<text text-anchor="middle" x="367" y="-7" font-family="Helvetica,sans-Serif" font-size="10.00">TopLevelUnitBase</text>
</a>
</g>
</g>
<!-- Node1&#45;&gt;Node5 -->
<g id="edge4" class="edge">
<title>Node1&#45;&gt;Node5</title>
<path fill="none" stroke="#63b8ff" d="M244.16,-49.67C254.64,-45.97 265.63,-42.24 276,-39 289.43,-34.81 304.12,-30.69 317.68,-27.08"/>
<polygon fill="#63b8ff" stroke="#63b8ff" points="243.12,-46.33 234.89,-52.99 245.48,-52.92 243.12,-46.33"/>
</g>
<!-- Node2 -->
<g id="node2" class="node">
<title>Node2</title>
<g id="a_node2"><a xlink:href="struct_engine_1_1_serialize_1_1_serializable_unit_base.html" target="_top" xlink:title=" ">
<polygon fill="white" stroke="#666666" points="107,-84 0,-84 0,-54 107,-54 107,-84"/>
<text text-anchor="start" x="8" y="-72" font-family="Helvetica,sans-Serif" font-size="10.00">Engine::Serialize::</text>
<text text-anchor="middle" x="53.5" y="-61" font-family="Helvetica,sans-Serif" font-size="10.00">SerializableUnitBase</text>
</a>
</g>
</g>
<!-- Node2&#45;&gt;Node1 -->
<g id="edge1" class="edge">
<title>Node2&#45;&gt;Node1</title>
<path fill="none" stroke="#63b8ff" d="M118.79,-69C126.87,-69 135.01,-69 142.77,-69"/>
<polygon fill="#63b8ff" stroke="#63b8ff" points="118.98,-65.5 108.98,-69 118.98,-72.5 118.98,-65.5"/>
</g>
</g>
</svg>
