<?xml version="1.0" encoding="UTF-8" standalone="no"?>
<!DOCTYPE svg PUBLIC "-//W3C//DTD SVG 1.1//EN"
 "http://www.w3.org/Graphics/SVG/1.1/DTD/svg11.dtd">
<!-- Generated by graphviz version 7.0.5 (20221223.1930)
 -->
<!-- Title: Engine::Window::LayoutLoader Pages: 1 -->
<svg width="620pt" height="93pt"
 viewBox="0.00 0.00 620.00 93.00" xmlns="http://www.w3.org/2000/svg" xmlns:xlink="http://www.w3.org/1999/xlink">
<g id="graph0" class="graph" transform="scale(1 1) rotate(0) translate(4 89)">
<title>Engine::Window::LayoutLoader</title>
<!-- Node1 -->
<g id="node1" class="node">
<title>Node1</title>
<g id="a_node1"><a xlink:title=" ">
<polygon fill="#999999" stroke="#666666" points="612,-52 463,-52 463,-33 612,-33 612,-52"/>
<text text-anchor="middle" x="537.5" y="-40" font-family="Helvetica,sans-Serif" font-size="10.00">Engine::Window::LayoutLoader</text>
</a>
</g>
</g>
<!-- Node2 -->
<g id="node2" class="node">
<title>Node2</title>
<g id="a_node2"><a xlink:href="struct_engine_1_1_resources_1_1_resource_loader.html" target="_top" xlink:title=" ">
<polygon fill="white" stroke="#666666" points="427,-63 269,-63 269,-22 427,-22 427,-63"/>
<text text-anchor="start" x="277" y="-51" font-family="Helvetica,sans-Serif" font-size="10.00">Engine::Resources::</text>
<text text-anchor="start" x="277" y="-40" font-family="Helvetica,sans-Serif" font-size="10.00">ResourceLoader&lt; LayoutLoader,</text>
<text text-anchor="middle" x="348" y="-29" font-family="Helvetica,sans-Serif" font-size="10.00"> LayoutDummy &gt;</text>
</a>
</g>
</g>
<!-- Node2&#45;&gt;Node1 -->
<g id="edge1" class="edge">
<title>Node2&#45;&gt;Node1</title>
<path fill="none" stroke="#63b8ff" d="M438.69,-42.5C446.69,-42.5 454.73,-42.5 462.58,-42.5"/>
<polygon fill="#63b8ff" stroke="#63b8ff" points="438.94,-39 428.94,-42.5 438.94,-46 438.94,-39"/>
</g>
<!-- Node3 -->
<g id="node3" class="node">
<title>Node3</title>
<g id="a_node3"><a xlink:title=" ">
<polygon fill="white" stroke="#666666" points="233,-85 0,-85 0,0 233,0 233,-85"/>
<text text-anchor="start" x="8" y="-73" font-family="Helvetica,sans-Serif" font-size="10.00">ResourceLoaderComponent</text>
<text text-anchor="start" x="8" y="-62" font-family="Helvetica,sans-Serif" font-size="10.00">&lt; LayoutLoader , VirtualScope</text>
<text text-anchor="start" x="8" y="-51" font-family="Helvetica,sans-Serif" font-size="10.00">&lt; LayoutLoader , ResourceLoaderImpl</text>
<text text-anchor="start" x="8" y="-40" font-family="Helvetica,sans-Serif" font-size="10.00">&lt; LayoutLoader , LayoutDummy , ResourceLoader</text>
<text text-anchor="start" x="8" y="-29" font-family="Helvetica,sans-Serif" font-size="10.00">Interface&lt; LayoutLoader , LayoutDummy ,</text>
<text text-anchor="start" x="8" y="-18" font-family="Helvetica,sans-Serif" font-size="10.00"> std::list&lt;Placeholder&lt;0&gt;&gt; , Threading::</text>
<text text-anchor="middle" x="116.5" y="-7" font-family="Helvetica,sans-Serif" font-size="10.00">GlobalStorage &#160;&gt; &gt; &gt; &gt;</text>
</a>
</g>
</g>
<!-- Node3&#45;&gt;Node2 -->
<g id="edge2" class="edge">
<title>Node3&#45;&gt;Node2</title>
<path fill="none" stroke="#63b8ff" d="M244.52,-42.5C252.75,-42.5 260.89,-42.5 268.78,-42.5"/>
<polygon fill="#63b8ff" stroke="#63b8ff" points="244.77,-39 234.77,-42.5 244.77,-46 244.77,-39"/>
</g>
</g>
</svg>
