<?xml version="1.0" encoding="UTF-8" standalone="no"?>
<!DOCTYPE svg PUBLIC "-//W3C//DTD SVG 1.1//EN"
 "http://www.w3.org/Graphics/SVG/1.1/DTD/svg11.dtd">
<!-- Generated by graphviz version 7.0.5 (20221223.1930)
 -->
<!-- Title: Engine::NodeGraph::SenderNode&lt; Config, Algorithm, Arguments &gt;::DummyReceiver Pages: 1 -->
<svg width="144pt" height="203pt"
 viewBox="0.00 0.00 144.00 203.00" xmlns="http://www.w3.org/2000/svg" xmlns:xlink="http://www.w3.org/1999/xlink">
<g id="graph0" class="graph" transform="scale(1 1) rotate(0) translate(4 199)">
<title>Engine::NodeGraph::SenderNode&lt; Config, Algorithm, Arguments &gt;::DummyReceiver</title>
<!-- Node1 -->
<g id="node1" class="node">
<title>Node1</title>
<g id="a_node1"><a xlink:title=" ">
<polygon fill="#999999" stroke="#666666" points="124.5,-52 11.5,-52 11.5,0 124.5,0 124.5,-52"/>
<text text-anchor="start" x="19.5" y="-40" font-family="Helvetica,sans-Serif" font-size="10.00">Engine::NodeGraph::</text>
<text text-anchor="start" x="19.5" y="-29" font-family="Helvetica,sans-Serif" font-size="10.00">SenderNode&lt; Config,</text>
<text text-anchor="start" x="19.5" y="-18" font-family="Helvetica,sans-Serif" font-size="10.00"> Algorithm, Arguments</text>
<text text-anchor="middle" x="68" y="-7" font-family="Helvetica,sans-Serif" font-size="10.00"> &gt;::DummyReceiver</text>
</a>
</g>
</g>
<!-- Node2 -->
<g id="node2" class="node">
<title>Node2</title>
<g id="a_node2"><a xlink:href="struct_engine_1_1_execution_1_1execution__receiver.html" target="_top" xlink:title=" ">
<polygon fill="white" stroke="#666666" points="136,-129 0,-129 0,-88 136,-88 136,-129"/>
<text text-anchor="start" x="8" y="-117" font-family="Helvetica,sans-Serif" font-size="10.00">NodeExecutionReceiver</text>
<text text-anchor="start" x="8" y="-106" font-family="Helvetica,sans-Serif" font-size="10.00">&lt; SenderNode&lt; Config,</text>
<text text-anchor="middle" x="68" y="-95" font-family="Helvetica,sans-Serif" font-size="10.00"> Algorithm, Arguments... &gt; &gt;</text>
</a>
</g>
</g>
<!-- Node2&#45;&gt;Node1 -->
<g id="edge1" class="edge">
<title>Node2&#45;&gt;Node1</title>
<path fill="none" stroke="#63b8ff" d="M68,-76.2C68,-68.34 68,-59.99 68,-52.45"/>
<polygon fill="#63b8ff" stroke="#63b8ff" points="64.5,-76.09 68,-86.09 71.5,-76.09 64.5,-76.09"/>
</g>
<!-- Node3 -->
<g id="node3" class="node">
<title>Node3</title>
<g id="a_node3"><a xlink:href="struct_engine_1_1_execution_1_1_c_p_u__context.html" target="_top" xlink:title=" ">
<polygon fill="white" stroke="#666666" points="116.5,-195 19.5,-195 19.5,-165 116.5,-165 116.5,-195"/>
<text text-anchor="start" x="27.5" y="-183" font-family="Helvetica,sans-Serif" font-size="10.00">Engine::Execution::</text>
<text text-anchor="middle" x="68" y="-172" font-family="Helvetica,sans-Serif" font-size="10.00">CPU_context</text>
</a>
</g>
</g>
<!-- Node3&#45;&gt;Node2 -->
<g id="edge2" class="edge">
<title>Node3&#45;&gt;Node2</title>
<path fill="none" stroke="#63b8ff" d="M68,-153.36C68,-145.45 68,-136.87 68,-129.42"/>
<polygon fill="#63b8ff" stroke="#63b8ff" points="64.5,-153.09 68,-163.09 71.5,-153.09 64.5,-153.09"/>
</g>
</g>
</svg>
