<?xml version="1.0" encoding="UTF-8" standalone="no"?>
<!DOCTYPE svg PUBLIC "-//W3C//DTD SVG 1.1//EN"
 "http://www.w3.org/Graphics/SVG/1.1/DTD/svg11.dtd">
<!-- Generated by graphviz version 7.0.5 (20221223.1930)
 -->
<!-- Title: Engine::IntervalClock&lt; Timepoint &gt;::state&lt; Inner, Rec &gt; Pages: 1 -->
<svg width="274pt" height="86pt"
 viewBox="0.00 0.00 274.00 86.00" xmlns="http://www.w3.org/2000/svg" xmlns:xlink="http://www.w3.org/1999/xlink">
<g id="graph0" class="graph" transform="scale(1 1) rotate(0) translate(4 82)">
<title>Engine::IntervalClock&lt; Timepoint &gt;::state&lt; Inner, Rec &gt;</title>
<!-- Node1 -->
<g id="node1" class="node">
<title>Node1</title>
<g id="a_node1"><a xlink:title=" ">
<polygon fill="#999999" stroke="#666666" points="266,-59.5 159,-59.5 159,-18.5 266,-18.5 266,-59.5"/>
<text text-anchor="start" x="167" y="-47.5" font-family="Helvetica,sans-Serif" font-size="10.00">Engine::IntervalClock</text>
<text text-anchor="start" x="167" y="-36.5" font-family="Helvetica,sans-Serif" font-size="10.00">&lt; Timepoint &gt;::state</text>
<text text-anchor="middle" x="212.5" y="-25.5" font-family="Helvetica,sans-Serif" font-size="10.00">&lt; Inner, Rec &gt;</text>
</a>
</g>
</g>
<!-- Node2 -->
<g id="node2" class="node">
<title>Node2</title>
<g id="a_node2"><a xlink:href="struct_engine_1_1_interval_clock_1_1_wait_state.html" target="_top" xlink:title=" ">
<polygon fill="white" stroke="#666666" points="123,-78 0,-78 0,-48 123,-48 123,-78"/>
<text text-anchor="start" x="8" y="-66" font-family="Helvetica,sans-Serif" font-size="10.00">Engine::IntervalClock</text>
<text text-anchor="middle" x="61.5" y="-55" font-family="Helvetica,sans-Serif" font-size="10.00">&lt; Timepoint &gt;::WaitState</text>
</a>
</g>
</g>
<!-- Node2&#45;&gt;Node1 -->
<g id="edge1" class="edge">
<title>Node2&#45;&gt;Node1</title>
<path fill="none" stroke="#63b8ff" d="M134.23,-51.45C142.45,-50.12 150.7,-48.79 158.6,-47.52"/>
<polygon fill="#63b8ff" stroke="#63b8ff" points="133.91,-47.95 124.6,-53 135.03,-54.86 133.91,-47.95"/>
</g>
<!-- Node3 -->
<g id="node3" class="node">
<title>Node3</title>
<g id="a_node3"><a xlink:href="struct_engine_1_1_execution_1_1base__state.html" target="_top" xlink:title=" ">
<polygon fill="white" stroke="#666666" points="110.5,-30 12.5,-30 12.5,0 110.5,0 110.5,-30"/>
<text text-anchor="start" x="20.5" y="-18" font-family="Helvetica,sans-Serif" font-size="10.00">Engine::Execution::</text>
<text text-anchor="middle" x="61.5" y="-7" font-family="Helvetica,sans-Serif" font-size="10.00">base_state&lt; Rec &gt;</text>
</a>
</g>
</g>
<!-- Node3&#45;&gt;Node1 -->
<g id="edge2" class="edge">
<title>Node3&#45;&gt;Node1</title>
<path fill="none" stroke="#63b8ff" d="M122.24,-24.62C134.31,-26.57 146.92,-28.6 158.74,-30.5"/>
<polygon fill="#63b8ff" stroke="#63b8ff" points="122.8,-21.17 112.37,-23.03 121.69,-28.08 122.8,-21.17"/>
</g>
</g>
</svg>
