<?xml version="1.0" encoding="UTF-8" standalone="no"?>
<!DOCTYPE svg PUBLIC "-//W3C//DTD SVG 1.1//EN"
 "http://www.w3.org/Graphics/SVG/1.1/DTD/svg11.dtd">
<!-- Generated by graphviz version 7.0.5 (20221223.1930)
 -->
<!-- Title: Engine::container_traits&lt; C, typename &gt; Pages: 1 -->
<svg width="308pt" height="98pt"
 viewBox="0.00 0.00 308.00 97.50" xmlns="http://www.w3.org/2000/svg" xmlns:xlink="http://www.w3.org/1999/xlink">
<g id="graph0" class="graph" transform="scale(1 1) rotate(0) translate(4 93.5)">
<title>Engine::container_traits&lt; C, typename &gt;</title>
<!-- Node1 -->
<g id="node1" class="node">
<title>Node1</title>
<g id="a_node1"><a xlink:title=" ">
<polygon fill="#999999" stroke="#666666" points="117,-57 0,-57 0,-27 117,-27 117,-57"/>
<text text-anchor="start" x="8" y="-45" font-family="Helvetica,sans-Serif" font-size="10.00">Engine::container_traits</text>
<text text-anchor="middle" x="58.5" y="-34" font-family="Helvetica,sans-Serif" font-size="10.00">&lt; C, typename &gt;</text>
</a>
</g>
</g>
<!-- Node2 -->
<g id="node2" class="node">
<title>Node2</title>
<g id="a_node2"><a xlink:title=" ">
<polygon fill="white" stroke="#666666" points="286.5,-89.5 166.5,-89.5 166.5,-48.5 286.5,-48.5 286.5,-89.5"/>
<text text-anchor="start" x="174.5" y="-77.5" font-family="Helvetica,sans-Serif" font-size="10.00">Engine::container_traits</text>
<text text-anchor="start" x="174.5" y="-66.5" font-family="Helvetica,sans-Serif" font-size="10.00">&lt; FreeListContainer&lt; C,</text>
<text text-anchor="middle" x="226.5" y="-55.5" font-family="Helvetica,sans-Serif" font-size="10.00"> DataTraits &gt;, void &gt;</text>
</a>
</g>
</g>
<!-- Node1&#45;&gt;Node2 -->
<g id="edge1" class="edge">
<title>Node1&#45;&gt;Node2</title>
<path fill="none" stroke="#63b8ff" d="M128.41,-53.21C140.91,-55.24 153.84,-57.34 166.04,-59.33"/>
<polygon fill="#63b8ff" stroke="#63b8ff" points="129.02,-49.76 118.59,-51.61 127.9,-56.67 129.02,-49.76"/>
</g>
<!-- Node3 -->
<g id="node3" class="node">
<title>Node3</title>
<g id="a_node3"><a xlink:title=" ">
<polygon fill="white" stroke="#666666" points="300,-30 153,-30 153,0 300,0 300,-30"/>
<text text-anchor="start" x="161" y="-18" font-family="Helvetica,sans-Serif" font-size="10.00">Engine::container_traits</text>
<text text-anchor="middle" x="226.5" y="-7" font-family="Helvetica,sans-Serif" font-size="10.00">&lt; RefcountedContainer&lt; C &gt; &gt;</text>
</a>
</g>
</g>
<!-- Node1&#45;&gt;Node3 -->
<g id="edge2" class="edge">
<title>Node1&#45;&gt;Node3</title>
<path fill="none" stroke="#63b8ff" d="M128.26,-30.82C136.26,-29.51 144.45,-28.18 152.51,-26.87"/>
<polygon fill="#63b8ff" stroke="#63b8ff" points="127.9,-27.33 118.59,-32.39 129.02,-34.24 127.9,-27.33"/>
</g>
</g>
</svg>
