<?xml version="1.0" encoding="UTF-8" standalone="no"?>
<!DOCTYPE svg PUBLIC "-//W3C//DTD SVG 1.1//EN"
 "http://www.w3.org/Graphics/SVG/1.1/DTD/svg11.dtd">
<!-- Generated by graphviz version 7.0.5 (20221223.1930)
 -->
<!-- Title: Engine::Render::VulkanTextureLoader Pages: 1 -->
<svg width="627pt" height="60pt"
 viewBox="0.00 0.00 627.00 60.00" xmlns="http://www.w3.org/2000/svg" xmlns:xlink="http://www.w3.org/1999/xlink">
<g id="graph0" class="graph" transform="scale(1 1) rotate(0) translate(4 56)">
<title>Engine::Render::VulkanTextureLoader</title>
<!-- Node1 -->
<g id="node1" class="node">
<title>Node1</title>
<g id="a_node1"><a xlink:title=" ">
<polygon fill="#999999" stroke="#666666" points="619,-41 471,-41 471,-11 619,-11 619,-41"/>
<text text-anchor="start" x="479" y="-29" font-family="Helvetica,sans-Serif" font-size="10.00">Engine::Render::VulkanTexture</text>
<text text-anchor="middle" x="545" y="-18" font-family="Helvetica,sans-Serif" font-size="10.00">Loader</text>
</a>
</g>
</g>
<!-- Node2 -->
<g id="node2" class="node">
<title>Node2</title>
<g id="a_node2"><a xlink:href="struct_engine_1_1_resources_1_1_virtual_resource_loader_impl.html" target="_top" xlink:title=" ">
<polygon fill="white" stroke="#666666" points="435,-52 247,-52 247,0 435,0 435,-52"/>
<text text-anchor="start" x="255" y="-40" font-family="Helvetica,sans-Serif" font-size="10.00">Engine::Resources::</text>
<text text-anchor="start" x="255" y="-29" font-family="Helvetica,sans-Serif" font-size="10.00">VirtualResourceLoaderImpl</text>
<text text-anchor="start" x="255" y="-18" font-family="Helvetica,sans-Serif" font-size="10.00">&lt; VulkanTextureLoader, VulkanTexture,</text>
<text text-anchor="middle" x="341" y="-7" font-family="Helvetica,sans-Serif" font-size="10.00"> TextureLoader &gt;</text>
</a>
</g>
</g>
<!-- Node2&#45;&gt;Node1 -->
<g id="edge1" class="edge">
<title>Node2&#45;&gt;Node1</title>
<path fill="none" stroke="#63b8ff" d="M446.76,-26C454.86,-26 462.92,-26 470.74,-26"/>
<polygon fill="#63b8ff" stroke="#63b8ff" points="446.83,-22.5 436.83,-26 446.83,-29.5 446.83,-22.5"/>
</g>
<!-- Node3 -->
<g id="node3" class="node">
<title>Node3</title>
<g id="a_node3"><a xlink:href="struct_engine_1_1_unique_component_1_1_virtual_component_impl.html" target="_top" xlink:title=" ">
<polygon fill="white" stroke="#666666" points="211,-46.5 80,-46.5 80,-5.5 211,-5.5 211,-46.5"/>
<text text-anchor="start" x="88" y="-34.5" font-family="Helvetica,sans-Serif" font-size="10.00">Engine::UniqueComponent</text>
<text text-anchor="start" x="88" y="-23.5" font-family="Helvetica,sans-Serif" font-size="10.00">::VirtualComponentImpl</text>
<text text-anchor="middle" x="145.5" y="-12.5" font-family="Helvetica,sans-Serif" font-size="10.00">&lt; _T, _Base, _VBase &gt;</text>
</a>
</g>
</g>
<!-- Node3&#45;&gt;Node2 -->
<g id="edge2" class="edge">
<title>Node3&#45;&gt;Node2</title>
<path fill="none" stroke="#63b8ff" d="M222.79,-26C230.62,-26 238.64,-26 246.63,-26"/>
<polygon fill="#63b8ff" stroke="#63b8ff" points="222.98,-22.5 212.98,-26 222.98,-29.5 222.98,-22.5"/>
</g>
<!-- Node4 -->
<g id="node4" class="node">
<title>Node4</title>
<g id="a_node4"><a xlink:title=" ">
<polygon fill="white" stroke="#666666" points="44,-35.5 0,-35.5 0,-16.5 44,-16.5 44,-35.5"/>
<text text-anchor="middle" x="22" y="-23.5" font-family="Helvetica,sans-Serif" font-size="10.00">_Base</text>
</a>
</g>
</g>
<!-- Node4&#45;&gt;Node3 -->
<g id="edge3" class="edge">
<title>Node4&#45;&gt;Node3</title>
<path fill="none" stroke="#63b8ff" d="M55.83,-26C63.28,-26 71.45,-26 79.72,-26"/>
<polygon fill="#63b8ff" stroke="#63b8ff" points="55.96,-22.5 45.96,-26 55.96,-29.5 55.96,-22.5"/>
</g>
</g>
</svg>
