<?xml version="1.0" encoding="UTF-8" standalone="no"?>
<!DOCTYPE svg PUBLIC "-//W3C//DTD SVG 1.1//EN"
 "http://www.w3.org/Graphics/SVG/1.1/DTD/svg11.dtd">
<!-- Generated by graphviz version 7.0.5 (20221223.1930)
 -->
<!-- Title: Engine::Resources::ResourceLoaderBase Pages: 1 -->
<svg width="456pt" height="98pt"
 viewBox="0.00 0.00 456.00 97.50" xmlns="http://www.w3.org/2000/svg" xmlns:xlink="http://www.w3.org/1999/xlink">
<g id="graph0" class="graph" transform="scale(1 1) rotate(0) translate(4 93.5)">
<title>Engine::Resources::ResourceLoaderBase</title>
<!-- Node1 -->
<g id="node1" class="node">
<title>Node1</title>
<g id="a_node1"><a xlink:title=" ">
<polygon fill="#999999" stroke="#666666" points="448,-62.5 338,-62.5 338,-32.5 448,-32.5 448,-62.5"/>
<text text-anchor="start" x="346" y="-50.5" font-family="Helvetica,sans-Serif" font-size="10.00">Engine::Resources::</text>
<text text-anchor="middle" x="393" y="-39.5" font-family="Helvetica,sans-Serif" font-size="10.00">ResourceLoaderBase</text>
</a>
</g>
</g>
<!-- Node2 -->
<g id="node2" class="node">
<title>Node2</title>
<g id="a_node2"><a xlink:href="struct_engine_1_1_virtual_scope_base.html" target="_top" xlink:title=" ">
<polygon fill="white" stroke="#666666" points="285.5,-89.5 157.5,-89.5 157.5,-59.5 285.5,-59.5 285.5,-89.5"/>
<text text-anchor="start" x="165.5" y="-77.5" font-family="Helvetica,sans-Serif" font-size="10.00">Engine::VirtualScopeBase</text>
<text text-anchor="middle" x="221.5" y="-66.5" font-family="Helvetica,sans-Serif" font-size="10.00">&lt; Base &gt;</text>
</a>
</g>
</g>
<!-- Node2&#45;&gt;Node1 -->
<g id="edge1" class="edge">
<title>Node2&#45;&gt;Node1</title>
<path fill="none" stroke="#63b8ff" d="M296.6,-62.7C310.43,-60.49 324.64,-58.23 337.74,-56.14"/>
<polygon fill="#63b8ff" stroke="#63b8ff" points="296.44,-59.18 287.11,-64.21 297.54,-66.09 296.44,-59.18"/>
</g>
<!-- Node3 -->
<g id="node3" class="node">
<title>Node3</title>
<g id="a_node3"><a xlink:href="classvoid.html" target="_top" xlink:title=" ">
<polygon fill="white" stroke="#666666" points="70,-84 35,-84 35,-65 70,-65 70,-84"/>
<text text-anchor="middle" x="52.5" y="-72" font-family="Helvetica,sans-Serif" font-size="10.00">void</text>
</a>
</g>
</g>
<!-- Node3&#45;&gt;Node2 -->
<g id="edge2" class="edge">
<title>Node3&#45;&gt;Node2</title>
<path fill="none" stroke="#63b8ff" d="M81.84,-74.5C102.47,-74.5 131.23,-74.5 157.21,-74.5"/>
<polygon fill="#63b8ff" stroke="#63b8ff" points="81.95,-71 71.95,-74.5 81.95,-78 81.95,-71"/>
</g>
<!-- Node4 -->
<g id="node4" class="node">
<title>Node4</title>
<g id="a_node4"><a xlink:href="struct_engine_1_1_threading_1_1_madgine_object.html" target="_top" xlink:title=" ">
<polygon fill="white" stroke="#666666" points="302,-41 141,-41 141,0 302,0 302,-41"/>
<text text-anchor="start" x="149" y="-29" font-family="Helvetica,sans-Serif" font-size="10.00">Engine::Threading::</text>
<text text-anchor="start" x="149" y="-18" font-family="Helvetica,sans-Serif" font-size="10.00">MadgineObject&lt; ResourceLoader</text>
<text text-anchor="middle" x="221.5" y="-7" font-family="Helvetica,sans-Serif" font-size="10.00">Base &gt;</text>
</a>
</g>
</g>
<!-- Node4&#45;&gt;Node1 -->
<g id="edge3" class="edge">
<title>Node4&#45;&gt;Node1</title>
<path fill="none" stroke="#63b8ff" d="M313.57,-35.01C321.82,-36.32 330,-37.62 337.78,-38.86"/>
<polygon fill="#63b8ff" stroke="#63b8ff" points="314.21,-31.56 303.78,-33.45 313.11,-38.48 314.21,-31.56"/>
</g>
<!-- Node5 -->
<g id="node5" class="node">
<title>Node5</title>
<g id="a_node5"><a xlink:href="struct_engine_1_1_threading_1_1_madgine_object_state.html" target="_top" xlink:title=" ">
<polygon fill="white" stroke="#666666" points="105,-35.5 0,-35.5 0,-5.5 105,-5.5 105,-35.5"/>
<text text-anchor="start" x="8" y="-23.5" font-family="Helvetica,sans-Serif" font-size="10.00">Engine::Threading::</text>
<text text-anchor="middle" x="52.5" y="-12.5" font-family="Helvetica,sans-Serif" font-size="10.00">MadgineObjectState</text>
</a>
</g>
</g>
<!-- Node5&#45;&gt;Node4 -->
<g id="edge4" class="edge">
<title>Node5&#45;&gt;Node4</title>
<path fill="none" stroke="#63b8ff" d="M116.7,-20.5C124.55,-20.5 132.65,-20.5 140.71,-20.5"/>
<polygon fill="#63b8ff" stroke="#63b8ff" points="116.94,-17 106.94,-20.5 116.94,-24 116.94,-17"/>
</g>
</g>
</svg>
