<?xml version="1.0" encoding="UTF-8" standalone="no"?>
<!DOCTYPE svg PUBLIC "-//W3C//DTD SVG 1.1//EN"
 "http://www.w3.org/Graphics/SVG/1.1/DTD/svg11.dtd">
<!-- Generated by graphviz version 7.0.5 (20221223.1930)
 -->
<!-- Title: Engine::Audio::PlaybackState Pages: 1 -->
<svg width="502pt" height="93pt"
 viewBox="0.00 0.00 502.00 93.00" xmlns="http://www.w3.org/2000/svg" xmlns:xlink="http://www.w3.org/1999/xlink">
<g id="graph0" class="graph" transform="scale(1 1) rotate(0) translate(4 89)">
<title>Engine::Audio::PlaybackState</title>
<!-- Node1 -->
<g id="node1" class="node">
<title>Node1</title>
<g id="a_node1"><a xlink:title=" ">
<polygon fill="#999999" stroke="#666666" points="494,-52 351,-52 351,-33 494,-33 494,-52"/>
<text text-anchor="middle" x="422.5" y="-40" font-family="Helvetica,sans-Serif" font-size="10.00">Engine::Audio::PlaybackState</text>
</a>
</g>
</g>
<!-- Node2 -->
<g id="node2" class="node">
<title>Node2</title>
<g id="a_node2"><a xlink:href="struct_engine_1_1_behavior_receiver.html" target="_top" xlink:title=" ">
<polygon fill="white" stroke="#666666" points="315,-52 188,-52 188,-33 315,-33 315,-52"/>
<text text-anchor="middle" x="251.5" y="-40" font-family="Helvetica,sans-Serif" font-size="10.00">Engine::BehaviorReceiver</text>
</a>
</g>
</g>
<!-- Node2&#45;&gt;Node1 -->
<g id="edge1" class="edge">
<title>Node2&#45;&gt;Node1</title>
<path fill="none" stroke="#63b8ff" d="M326.85,-35.79C334.73,-35.73 342.72,-35.74 350.56,-35.83"/>
<polygon fill="#63b8ff" stroke="#63b8ff" points="326.89,-32.29 316.94,-35.93 326.99,-39.29 326.89,-32.29"/>
</g>
<!-- Node2&#45;&gt;Node1 -->
<g id="edge3" class="edge">
<title>Node2&#45;&gt;Node1</title>
<path fill="none" stroke="#63b8ff" d="M326.85,-49.21C334.73,-49.27 342.72,-49.26 350.56,-49.17"/>
<polygon fill="#63b8ff" stroke="#63b8ff" points="326.99,-45.71 316.94,-49.07 326.89,-52.71 326.99,-45.71"/>
</g>
<!-- Node3 -->
<g id="node3" class="node">
<title>Node3</title>
<g id="a_node3"><a xlink:href="struct_engine_1_1_execution_1_1_virtual_receiver_base_ex.html" target="_top" xlink:title=" ">
<polygon fill="white" stroke="#666666" points="152,-85 0,-85 0,0 152,0 152,-85"/>
<text text-anchor="start" x="8" y="-73" font-family="Helvetica,sans-Serif" font-size="10.00">Engine::Execution::</text>
<text text-anchor="start" x="8" y="-62" font-family="Helvetica,sans-Serif" font-size="10.00">VirtualReceiverBaseEx</text>
<text text-anchor="start" x="8" y="-51" font-family="Helvetica,sans-Serif" font-size="10.00">&lt; type_pack&lt; BehaviorError</text>
<text text-anchor="start" x="8" y="-40" font-family="Helvetica,sans-Serif" font-size="10.00"> &gt;, type_pack&lt; ArgumentList</text>
<text text-anchor="start" x="8" y="-29" font-family="Helvetica,sans-Serif" font-size="10.00"> &gt;, Execution::get_stop_token,</text>
<text text-anchor="start" x="8" y="-18" font-family="Helvetica,sans-Serif" font-size="10.00"> Execution::get_debug_location,</text>
<text text-anchor="middle" x="76" y="-7" font-family="Helvetica,sans-Serif" font-size="10.00"> Log::get_log, get_binding_d &gt;</text>
</a>
</g>
</g>
<!-- Node3&#45;&gt;Node2 -->
<g id="edge2" class="edge">
<title>Node3&#45;&gt;Node2</title>
<path fill="none" stroke="#63b8ff" d="M163.74,-42.5C171.82,-42.5 179.9,-42.5 187.7,-42.5"/>
<polygon fill="#63b8ff" stroke="#63b8ff" points="163.86,-39 153.86,-42.5 163.86,-46 163.86,-39"/>
</g>
</g>
</svg>
