<?xml version="1.0" encoding="UTF-8" standalone="no"?>
<!DOCTYPE svg PUBLIC "-//W3C//DTD SVG 1.1//EN"
 "http://www.w3.org/Graphics/SVG/1.1/DTD/svg11.dtd">
<!-- Generated by graphviz version 7.0.5 (20221223.1930)
 -->
<!-- Title: Engine::Threading::TaskSuspendablePromiseTypeBase Pages: 1 -->
<svg width="670pt" height="103pt"
 viewBox="0.00 0.00 670.00 103.00" xmlns="http://www.w3.org/2000/svg" xmlns:xlink="http://www.w3.org/1999/xlink">
<g id="graph0" class="graph" transform="scale(1 1) rotate(0) translate(4 99)">
<title>Engine::Threading::TaskSuspendablePromiseTypeBase</title>
<!-- Node1 -->
<g id="node1" class="node">
<title>Node1</title>
<g id="a_node1"><a xlink:title=" ">
<polygon fill="#999999" stroke="#666666" points="328,-62.5 154,-62.5 154,-32.5 328,-32.5 328,-62.5"/>
<text text-anchor="start" x="162" y="-50.5" font-family="Helvetica,sans-Serif" font-size="10.00">Engine::Threading::</text>
<text text-anchor="middle" x="241" y="-39.5" font-family="Helvetica,sans-Serif" font-size="10.00">TaskSuspendablePromiseTypeBase</text>
</a>
</g>
</g>
<!-- Node3 -->
<g id="node3" class="node">
<title>Node3</title>
<g id="a_node3"><a xlink:href="struct_engine_1_1_threading_1_1_task_suspendable_promise.html" target="_top" xlink:title=" ">
<polygon fill="white" stroke="#666666" points="517,-89.5 364,-89.5 364,-59.5 517,-59.5 517,-89.5"/>
<text text-anchor="start" x="372" y="-77.5" font-family="Helvetica,sans-Serif" font-size="10.00">Engine::Threading::</text>
<text text-anchor="middle" x="440.5" y="-66.5" font-family="Helvetica,sans-Serif" font-size="10.00">TaskSuspendablePromise&lt; T &gt;</text>
</a>
</g>
</g>
<!-- Node1&#45;&gt;Node3 -->
<g id="edge2" class="edge">
<title>Node1&#45;&gt;Node3</title>
<path fill="none" stroke="#63b8ff" d="M339.66,-60.85C347.69,-61.95 355.73,-63.05 363.56,-64.12"/>
<polygon fill="#63b8ff" stroke="#63b8ff" points="340.22,-57.4 329.84,-59.51 339.27,-64.33 340.22,-57.4"/>
</g>
<!-- Node5 -->
<g id="node5" class="node">
<title>Node5</title>
<g id="a_node5"><a xlink:href="struct_engine_1_1_threading_1_1_task_suspendable_promise_3_01void_01_4.html" target="_top" xlink:title=" ">
<polygon fill="white" stroke="#666666" points="506,-41 375,-41 375,0 506,0 506,-41"/>
<text text-anchor="start" x="383" y="-29" font-family="Helvetica,sans-Serif" font-size="10.00">Engine::Threading::</text>
<text text-anchor="start" x="383" y="-18" font-family="Helvetica,sans-Serif" font-size="10.00">TaskSuspendablePromise</text>
<text text-anchor="middle" x="440.5" y="-7" font-family="Helvetica,sans-Serif" font-size="10.00">&lt; void &gt;</text>
</a>
</g>
</g>
<!-- Node1&#45;&gt;Node5 -->
<g id="edge4" class="edge">
<title>Node1&#45;&gt;Node5</title>
<path fill="none" stroke="#63b8ff" d="M339.7,-34.14C351.58,-32.52 363.49,-30.89 374.72,-29.36"/>
<polygon fill="#63b8ff" stroke="#63b8ff" points="339.27,-30.67 329.84,-35.49 340.22,-37.6 339.27,-30.67"/>
</g>
<!-- Node2 -->
<g id="node2" class="node">
<title>Node2</title>
<g id="a_node2"><a xlink:href="struct_engine_1_1_threading_1_1_task_promise_type_base.html" target="_top" xlink:title=" ">
<polygon fill="white" stroke="#666666" points="118,-62.5 0,-62.5 0,-32.5 118,-32.5 118,-62.5"/>
<text text-anchor="start" x="8" y="-50.5" font-family="Helvetica,sans-Serif" font-size="10.00">Engine::Threading::</text>
<text text-anchor="middle" x="59" y="-39.5" font-family="Helvetica,sans-Serif" font-size="10.00">TaskPromiseTypeBase</text>
</a>
</g>
</g>
<!-- Node2&#45;&gt;Node1 -->
<g id="edge1" class="edge">
<title>Node2&#45;&gt;Node1</title>
<path fill="none" stroke="#63b8ff" d="M129.77,-47.5C137.63,-47.5 145.71,-47.5 153.75,-47.5"/>
<polygon fill="#63b8ff" stroke="#63b8ff" points="129.95,-44 119.95,-47.5 129.95,-51 129.95,-44"/>
</g>
<!-- Node4 -->
<g id="node4" class="node">
<title>Node4</title>
<g id="a_node4"><a xlink:href="struct_engine_1_1_threading_1_1_task_1_1promise__type.html" target="_top" xlink:title=" ">
<polygon fill="white" stroke="#666666" points="662,-95 553,-95 553,-54 662,-54 662,-95"/>
<text text-anchor="start" x="561" y="-83" font-family="Helvetica,sans-Serif" font-size="10.00">Engine::Threading::</text>
<text text-anchor="start" x="561" y="-72" font-family="Helvetica,sans-Serif" font-size="10.00">Task&lt; _T, Immediate</text>
<text text-anchor="middle" x="607.5" y="-61" font-family="Helvetica,sans-Serif" font-size="10.00"> &gt;::promise_type</text>
</a>
</g>
</g>
<!-- Node3&#45;&gt;Node4 -->
<g id="edge3" class="edge">
<title>Node3&#45;&gt;Node4</title>
<path fill="none" stroke="#63b8ff" d="M528.54,-74.5C536.83,-74.5 545.05,-74.5 552.88,-74.5"/>
<polygon fill="#63b8ff" stroke="#63b8ff" points="528.75,-71 518.75,-74.5 528.75,-78 528.75,-71"/>
</g>
</g>
</svg>
