<?xml version="1.0" encoding="UTF-8" standalone="no"?>
<!DOCTYPE svg PUBLIC "-//W3C//DTD SVG 1.1//EN"
 "http://www.w3.org/Graphics/SVG/1.1/DTD/svg11.dtd">
<!-- Generated by graphviz version 7.0.5 (20221223.1930)
 -->
<!-- Title: Engine::Scene::SceneComponentBase Pages: 1 -->
<svg width="536pt" height="146pt"
 viewBox="0.00 0.00 536.00 145.50" xmlns="http://www.w3.org/2000/svg" xmlns:xlink="http://www.w3.org/1999/xlink">
<g id="graph0" class="graph" transform="scale(1 1) rotate(0) translate(4 141.5)">
<title>Engine::Scene::SceneComponentBase</title>
<!-- Node1 -->
<g id="node1" class="node">
<title>Node1</title>
<g id="a_node1"><a xlink:title=" ">
<polygon fill="#999999" stroke="#666666" points="528,-84 346,-84 346,-65 528,-65 528,-84"/>
<text text-anchor="middle" x="437" y="-72" font-family="Helvetica,sans-Serif" font-size="10.00">Engine::Scene::SceneComponentBase</text>
</a>
</g>
</g>
<!-- Node2 -->
<g id="node2" class="node">
<title>Node2</title>
<g id="a_node2"><a xlink:href="struct_engine_1_1_virtual_scope_base.html" target="_top" xlink:title=" ">
<polygon fill="white" stroke="#666666" points="290.5,-137.5 162.5,-137.5 162.5,-107.5 290.5,-107.5 290.5,-137.5"/>
<text text-anchor="start" x="170.5" y="-125.5" font-family="Helvetica,sans-Serif" font-size="10.00">Engine::VirtualScopeBase</text>
<text text-anchor="middle" x="226.5" y="-114.5" font-family="Helvetica,sans-Serif" font-size="10.00">&lt; Base &gt;</text>
</a>
</g>
</g>
<!-- Node2&#45;&gt;Node1 -->
<g id="edge1" class="edge">
<title>Node2&#45;&gt;Node1</title>
<path fill="none" stroke="#63b8ff" d="M301.93,-105.37C332.36,-98.36 366.48,-90.5 392.69,-84.47"/>
<polygon fill="#63b8ff" stroke="#63b8ff" points="301.34,-101.91 292.38,-107.56 302.91,-108.73 301.34,-101.91"/>
</g>
<!-- Node3 -->
<g id="node3" class="node">
<title>Node3</title>
<g id="a_node3"><a xlink:href="classvoid.html" target="_top" xlink:title=" ">
<polygon fill="white" stroke="#666666" points="71,-132 36,-132 36,-113 71,-113 71,-132"/>
<text text-anchor="middle" x="53.5" y="-120" font-family="Helvetica,sans-Serif" font-size="10.00">void</text>
</a>
</g>
</g>
<!-- Node3&#45;&gt;Node2 -->
<g id="edge2" class="edge">
<title>Node3&#45;&gt;Node2</title>
<path fill="none" stroke="#63b8ff" d="M82.47,-122.5C104.04,-122.5 134.73,-122.5 162.15,-122.5"/>
<polygon fill="#63b8ff" stroke="#63b8ff" points="82.72,-119 72.72,-122.5 82.72,-126 82.72,-119"/>
</g>
<!-- Node4 -->
<g id="node4" class="node">
<title>Node4</title>
<g id="a_node4"><a xlink:href="struct_engine_1_1_serialize_1_1_syncable_unit_base.html" target="_top" xlink:title=" ">
<polygon fill="white" stroke="#666666" points="275,-89.5 178,-89.5 178,-59.5 275,-59.5 275,-89.5"/>
<text text-anchor="start" x="186" y="-77.5" font-family="Helvetica,sans-Serif" font-size="10.00">Engine::Serialize::</text>
<text text-anchor="middle" x="226.5" y="-66.5" font-family="Helvetica,sans-Serif" font-size="10.00">SyncableUnitBase</text>
</a>
</g>
</g>
<!-- Node4&#45;&gt;Node1 -->
<g id="edge3" class="edge">
<title>Node4&#45;&gt;Node1</title>
<path fill="none" stroke="#63b8ff" d="M286.74,-74.5C305.1,-74.5 325.77,-74.5 345.74,-74.5"/>
<polygon fill="#63b8ff" stroke="#63b8ff" points="286.85,-71 276.85,-74.5 286.85,-78 286.85,-71"/>
</g>
<!-- Node5 -->
<g id="node5" class="node">
<title>Node5</title>
<g id="a_node5"><a xlink:href="struct_engine_1_1_serialize_1_1_serializable_unit_base.html" target="_top" xlink:title=" ">
<polygon fill="white" stroke="#666666" points="107,-89.5 0,-89.5 0,-59.5 107,-59.5 107,-89.5"/>
<text text-anchor="start" x="8" y="-77.5" font-family="Helvetica,sans-Serif" font-size="10.00">Engine::Serialize::</text>
<text text-anchor="middle" x="53.5" y="-66.5" font-family="Helvetica,sans-Serif" font-size="10.00">SerializableUnitBase</text>
</a>
</g>
</g>
<!-- Node5&#45;&gt;Node4 -->
<g id="edge4" class="edge">
<title>Node5&#45;&gt;Node4</title>
<path fill="none" stroke="#63b8ff" d="M118.52,-74.5C138.11,-74.5 159.3,-74.5 177.62,-74.5"/>
<polygon fill="#63b8ff" stroke="#63b8ff" points="118.71,-71 108.71,-74.5 118.71,-78 118.71,-71"/>
</g>
<!-- Node6 -->
<g id="node6" class="node">
<title>Node6</title>
<g id="a_node6"><a xlink:href="struct_engine_1_1_threading_1_1_madgine_object.html" target="_top" xlink:title=" ">
<polygon fill="white" stroke="#666666" points="310,-41 143,-41 143,0 310,0 310,-41"/>
<text text-anchor="start" x="151" y="-29" font-family="Helvetica,sans-Serif" font-size="10.00">Engine::Threading::</text>
<text text-anchor="start" x="151" y="-18" font-family="Helvetica,sans-Serif" font-size="10.00">MadgineObject&lt; SceneComponent</text>
<text text-anchor="middle" x="226.5" y="-7" font-family="Helvetica,sans-Serif" font-size="10.00">Base &gt;</text>
</a>
</g>
</g>
<!-- Node6&#45;&gt;Node1 -->
<g id="edge5" class="edge">
<title>Node6&#45;&gt;Node1</title>
<path fill="none" stroke="#63b8ff" d="M319.29,-44.27C346.83,-51.4 375.54,-58.84 397.59,-64.55"/>
<polygon fill="#63b8ff" stroke="#63b8ff" points="320.43,-40.95 309.88,-41.83 318.68,-47.73 320.43,-40.95"/>
</g>
<!-- Node7 -->
<g id="node7" class="node">
<title>Node7</title>
<g id="a_node7"><a xlink:href="struct_engine_1_1_threading_1_1_madgine_object_state.html" target="_top" xlink:title=" ">
<polygon fill="white" stroke="#666666" points="106,-35.5 1,-35.5 1,-5.5 106,-5.5 106,-35.5"/>
<text text-anchor="start" x="9" y="-23.5" font-family="Helvetica,sans-Serif" font-size="10.00">Engine::Threading::</text>
<text text-anchor="middle" x="53.5" y="-12.5" font-family="Helvetica,sans-Serif" font-size="10.00">MadgineObjectState</text>
</a>
</g>
</g>
<!-- Node7&#45;&gt;Node6 -->
<g id="edge6" class="edge">
<title>Node7&#45;&gt;Node6</title>
<path fill="none" stroke="#63b8ff" d="M117.59,-20.5C125.75,-20.5 134.21,-20.5 142.64,-20.5"/>
<polygon fill="#63b8ff" stroke="#63b8ff" points="117.78,-17 107.78,-20.5 117.78,-24 117.78,-17"/>
</g>
</g>
</svg>
