<?xml version="1.0" encoding="UTF-8" standalone="no"?>
<!DOCTYPE svg PUBLIC "-//W3C//DTD SVG 1.1//EN"
 "http://www.w3.org/Graphics/SVG/1.1/DTD/svg11.dtd">
<!-- Generated by graphviz version 7.0.5 (20221223.1930)
 -->
<!-- Title: Engine::Serialize::VirtualSerializableDataBase&lt; _Base &gt; Pages: 1 -->
<svg width="755pt" height="204pt"
 viewBox="0.00 0.00 755.00 204.00" xmlns="http://www.w3.org/2000/svg" xmlns:xlink="http://www.w3.org/1999/xlink">
<g id="graph0" class="graph" transform="scale(1 1) rotate(0) translate(4 200)">
<title>Engine::Serialize::VirtualSerializableDataBase&lt; _Base &gt;</title>
<!-- Node1 -->
<g id="node1" class="node">
<title>Node1</title>
<g id="a_node1"><a xlink:title=" ">
<polygon fill="#999999" stroke="#666666" points="208,-112.5 71,-112.5 71,-71.5 208,-71.5 208,-112.5"/>
<text text-anchor="start" x="79" y="-100.5" font-family="Helvetica,sans-Serif" font-size="10.00">Engine::Serialize::</text>
<text text-anchor="start" x="79" y="-89.5" font-family="Helvetica,sans-Serif" font-size="10.00">VirtualSerializableDataBase</text>
<text text-anchor="middle" x="139.5" y="-78.5" font-family="Helvetica,sans-Serif" font-size="10.00">&lt; _Base &gt;</text>
</a>
</g>
</g>
<!-- Node3 -->
<g id="node3" class="node">
<title>Node3</title>
<g id="a_node3"><a xlink:href="struct_engine_1_1_serialize_1_1_virtual_data.html" target="_top" xlink:title=" ">
<polygon fill="white" stroke="#666666" points="364,-107 244,-107 244,-77 364,-77 364,-107"/>
<text text-anchor="start" x="252" y="-95" font-family="Helvetica,sans-Serif" font-size="10.00">Engine::Serialize::</text>
<text text-anchor="middle" x="304" y="-84" font-family="Helvetica,sans-Serif" font-size="10.00">VirtualData&lt; T, _Base &gt;</text>
</a>
</g>
</g>
<!-- Node1&#45;&gt;Node3 -->
<g id="edge2" class="edge">
<title>Node1&#45;&gt;Node3</title>
<path fill="none" stroke="#63b8ff" d="M219.75,-92C227.77,-92 235.81,-92 243.56,-92"/>
<polygon fill="#63b8ff" stroke="#63b8ff" points="219.99,-88.5 209.99,-92 219.99,-95.5 219.99,-88.5"/>
</g>
<!-- Node2 -->
<g id="node2" class="node">
<title>Node2</title>
<g id="a_node2"><a xlink:href="classvoid.html" target="_top" xlink:title=" ">
<polygon fill="white" stroke="#666666" points="35,-101.5 0,-101.5 0,-82.5 35,-82.5 35,-101.5"/>
<text text-anchor="middle" x="17.5" y="-89.5" font-family="Helvetica,sans-Serif" font-size="10.00">void</text>
</a>
</g>
</g>
<!-- Node2&#45;&gt;Node1 -->
<g id="edge1" class="edge">
<title>Node2&#45;&gt;Node1</title>
<path fill="none" stroke="#63b8ff" d="M46.74,-92C54.01,-92 62.17,-92 70.53,-92"/>
<polygon fill="#63b8ff" stroke="#63b8ff" points="46.95,-88.5 36.95,-92 46.95,-95.5 46.95,-88.5"/>
</g>
<!-- Node4 -->
<g id="node4" class="node">
<title>Node4</title>
<g id="a_node4"><a xlink:href="struct_engine_1_1_node_graph_1_1_node.html" target="_top" xlink:title=" ">
<polygon fill="white" stroke="#666666" points="590,-196 400,-196 400,-166 590,-166 590,-196"/>
<text text-anchor="start" x="408" y="-184" font-family="Helvetica,sans-Serif" font-size="10.00">Engine::NodeGraph::</text>
<text text-anchor="middle" x="495" y="-173" font-family="Helvetica,sans-Serif" font-size="10.00">Node&lt; PumpNode, AutoMaskNode&lt;&gt; &gt;</text>
</a>
</g>
</g>
<!-- Node3&#45;&gt;Node4 -->
<g id="edge3" class="edge">
<title>Node3&#45;&gt;Node4</title>
<path fill="none" stroke="#63b8ff" d="M331.97,-114.26C350.2,-128.31 375.35,-145.84 400,-157 407.21,-160.26 414.94,-163.14 422.76,-165.66"/>
<polygon fill="#63b8ff" stroke="#63b8ff" points="334.32,-111.65 324.3,-108.22 329.99,-117.15 334.32,-111.65"/>
</g>
<!-- Node6 -->
<g id="node6" class="node">
<title>Node6</title>
<g id="a_node6"><a xlink:href="struct_engine_1_1_node_graph_1_1_node.html" target="_top" xlink:title=" ">
<polygon fill="white" stroke="#666666" points="565,-148 425,-148 425,-96 565,-96 565,-148"/>
<text text-anchor="start" x="433" y="-136" font-family="Helvetica,sans-Serif" font-size="10.00">Engine::NodeGraph::</text>
<text text-anchor="start" x="433" y="-125" font-family="Helvetica,sans-Serif" font-size="10.00">Node&lt; SenderNode&lt; Config,</text>
<text text-anchor="start" x="433" y="-114" font-family="Helvetica,sans-Serif" font-size="10.00"> Algorithm, Arguments...</text>
<text text-anchor="middle" x="495" y="-103" font-family="Helvetica,sans-Serif" font-size="10.00"> &gt;, AutoMaskNode&lt;&gt; &gt;</text>
</a>
</g>
</g>
<!-- Node3&#45;&gt;Node6 -->
<g id="edge5" class="edge">
<title>Node3&#45;&gt;Node6</title>
<path fill="none" stroke="#63b8ff" d="M375.27,-103.15C391.42,-105.72 408.58,-108.44 424.68,-111"/>
<polygon fill="#63b8ff" stroke="#63b8ff" points="376.2,-99.76 365.78,-101.65 375.1,-106.67 376.2,-99.76"/>
</g>
<!-- Node8 -->
<g id="node8" class="node">
<title>Node8</title>
<g id="a_node8"><a xlink:href="struct_engine_1_1_node_graph_1_1_node.html" target="_top" xlink:title=" ">
<polygon fill="white" stroke="#666666" points="547,-78 443,-78 443,-48 547,-48 547,-78"/>
<text text-anchor="start" x="451" y="-66" font-family="Helvetica,sans-Serif" font-size="10.00">Engine::NodeGraph::</text>
<text text-anchor="middle" x="495" y="-55" font-family="Helvetica,sans-Serif" font-size="10.00">Node&lt; TestNode &gt;</text>
</a>
</g>
</g>
<!-- Node3&#45;&gt;Node8 -->
<g id="edge7" class="edge">
<title>Node3&#45;&gt;Node8</title>
<path fill="none" stroke="#63b8ff" d="M375.39,-81.2C397.68,-77.78 421.88,-74.07 442.58,-70.89"/>
<polygon fill="#63b8ff" stroke="#63b8ff" points="375.13,-77.7 365.78,-82.67 376.19,-84.62 375.13,-77.7"/>
</g>
<!-- Node10 -->
<g id="node10" class="node">
<title>Node10</title>
<g id="a_node10"><a xlink:href="struct_engine_1_1_node_graph_1_1_node.html" target="_top" xlink:title=" ">
<polygon fill="white" stroke="#666666" points="547,-30 443,-30 443,0 547,0 547,-30"/>
<text text-anchor="start" x="451" y="-18" font-family="Helvetica,sans-Serif" font-size="10.00">Engine::NodeGraph::</text>
<text text-anchor="middle" x="495" y="-7" font-family="Helvetica,sans-Serif" font-size="10.00">Node&lt; T, Base &gt;</text>
</a>
</g>
</g>
<!-- Node3&#45;&gt;Node10 -->
<g id="edge9" class="edge">
<title>Node3&#45;&gt;Node10</title>
<path fill="none" stroke="#63b8ff" d="M337.73,-70.96C355.58,-60.21 378.39,-47.62 400,-39 413.61,-33.57 428.83,-29.06 442.99,-25.47"/>
<polygon fill="#63b8ff" stroke="#63b8ff" points="336.34,-67.71 329.65,-75.92 340,-73.67 336.34,-67.71"/>
</g>
<!-- Node5 -->
<g id="node5" class="node">
<title>Node5</title>
<g id="a_node5"><a xlink:href="struct_engine_1_1_node_graph_1_1_pump_node.html" target="_top" xlink:title=" ">
<polygon fill="white" stroke="#666666" points="738.5,-196 634.5,-196 634.5,-166 738.5,-166 738.5,-196"/>
<text text-anchor="start" x="642.5" y="-184" font-family="Helvetica,sans-Serif" font-size="10.00">Engine::NodeGraph::</text>
<text text-anchor="middle" x="686.5" y="-173" font-family="Helvetica,sans-Serif" font-size="10.00">PumpNode</text>
</a>
</g>
</g>
<!-- Node4&#45;&gt;Node5 -->
<g id="edge4" class="edge">
<title>Node4&#45;&gt;Node5</title>
<path fill="none" stroke="#63b8ff" d="M601.71,-181C612.91,-181 623.9,-181 634.05,-181"/>
<polygon fill="#63b8ff" stroke="#63b8ff" points="601.99,-177.5 591.99,-181 601.99,-184.5 601.99,-177.5"/>
</g>
<!-- Node7 -->
<g id="node7" class="node">
<title>Node7</title>
<g id="a_node7"><a xlink:href="struct_engine_1_1_node_graph_1_1_sender_node.html" target="_top" xlink:title=" ">
<polygon fill="white" stroke="#666666" points="747,-142.5 626,-142.5 626,-101.5 747,-101.5 747,-142.5"/>
<text text-anchor="start" x="634" y="-130.5" font-family="Helvetica,sans-Serif" font-size="10.00">Engine::NodeGraph::</text>
<text text-anchor="start" x="634" y="-119.5" font-family="Helvetica,sans-Serif" font-size="10.00">SenderNode&lt; Config,</text>
<text text-anchor="middle" x="686.5" y="-108.5" font-family="Helvetica,sans-Serif" font-size="10.00"> Algorithm, Arguments &gt;</text>
</a>
</g>
</g>
<!-- Node6&#45;&gt;Node7 -->
<g id="edge6" class="edge">
<title>Node6&#45;&gt;Node7</title>
<path fill="none" stroke="#63b8ff" d="M576.74,-122C593.16,-122 610.16,-122 625.7,-122"/>
<polygon fill="#63b8ff" stroke="#63b8ff" points="577,-118.5 567,-122 577,-125.5 577,-118.5"/>
</g>
<!-- Node9 -->
<g id="node9" class="node">
<title>Node9</title>
<g id="a_node9"><a xlink:href="struct_engine_1_1_node_graph_1_1_test_node.html" target="_top" xlink:title=" ">
<polygon fill="white" stroke="#666666" points="738.5,-78 634.5,-78 634.5,-48 738.5,-48 738.5,-78"/>
<text text-anchor="start" x="642.5" y="-66" font-family="Helvetica,sans-Serif" font-size="10.00">Engine::NodeGraph::</text>
<text text-anchor="middle" x="686.5" y="-55" font-family="Helvetica,sans-Serif" font-size="10.00">TestNode</text>
</a>
</g>
</g>
<!-- Node8&#45;&gt;Node9 -->
<g id="edge8" class="edge">
<title>Node8&#45;&gt;Node9</title>
<path fill="none" stroke="#63b8ff" d="M558.65,-63C583.15,-63 610.89,-63 634.18,-63"/>
<polygon fill="#63b8ff" stroke="#63b8ff" points="558.8,-59.5 548.79,-63 558.79,-66.5 558.8,-59.5"/>
</g>
</g>
</svg>
