<?xml version="1.0" encoding="UTF-8" standalone="no"?>
<!DOCTYPE svg PUBLIC "-//W3C//DTD SVG 1.1//EN"
 "http://www.w3.org/Graphics/SVG/1.1/DTD/svg11.dtd">
<!-- Generated by graphviz version 7.0.5 (20221223.1930)
 -->
<!-- Title: Engine::Resources::ResourceLoaderInterface&lt; T, _Data, _Container, _Storage, _Base &gt; Pages: 1 -->
<svg width="134pt" height="203pt"
 viewBox="0.00 0.00 134.00 203.00" xmlns="http://www.w3.org/2000/svg" xmlns:xlink="http://www.w3.org/1999/xlink">
<g id="graph0" class="graph" transform="scale(1 1) rotate(0) translate(4 199)">
<title>Engine::Resources::ResourceLoaderInterface&lt; T, _Data, _Container, _Storage, _Base &gt;</title>
<!-- Node1 -->
<g id="node1" class="node">
<title>Node1</title>
<g id="a_node1"><a xlink:title=" ">
<polygon fill="#999999" stroke="#666666" points="126,-129 0,-129 0,-77 126,-77 126,-129"/>
<text text-anchor="start" x="8" y="-117" font-family="Helvetica,sans-Serif" font-size="10.00">Engine::Resources::</text>
<text text-anchor="start" x="8" y="-106" font-family="Helvetica,sans-Serif" font-size="10.00">ResourceLoaderInterface</text>
<text text-anchor="start" x="8" y="-95" font-family="Helvetica,sans-Serif" font-size="10.00">&lt; T, _Data, _Container,</text>
<text text-anchor="middle" x="63" y="-84" font-family="Helvetica,sans-Serif" font-size="10.00"> _Storage, _Base &gt;</text>
</a>
</g>
</g>
<!-- Node3 -->
<g id="node3" class="node">
<title>Node3</title>
<g id="a_node3"><a xlink:href="struct_engine_1_1_resources_1_1_resource_loader_impl.html" target="_top" xlink:title=" ">
<polygon fill="white" stroke="#666666" points="119.5,-41 6.5,-41 6.5,0 119.5,0 119.5,-41"/>
<text text-anchor="start" x="14.5" y="-29" font-family="Helvetica,sans-Serif" font-size="10.00">Engine::Resources::</text>
<text text-anchor="start" x="14.5" y="-18" font-family="Helvetica,sans-Serif" font-size="10.00">ResourceLoaderImpl&lt;</text>
<text text-anchor="middle" x="63" y="-7" font-family="Helvetica,sans-Serif" font-size="10.00"> T, _Data, _Base &gt;</text>
</a>
</g>
</g>
<!-- Node1&#45;&gt;Node3 -->
<g id="edge2" class="edge">
<title>Node1&#45;&gt;Node3</title>
<path fill="none" stroke="#63b8ff" d="M63,-65.23C63,-57.04 63,-48.66 63,-41.45"/>
<polygon fill="#63b8ff" stroke="#63b8ff" points="59.5,-65.02 63,-75.02 66.5,-65.02 59.5,-65.02"/>
</g>
<!-- Node2 -->
<g id="node2" class="node">
<title>Node2</title>
<g id="a_node2"><a xlink:title=" ">
<polygon fill="white" stroke="#666666" points="126,-195 0,-195 0,-165 126,-165 126,-195"/>
<text text-anchor="start" x="8" y="-183" font-family="Helvetica,sans-Serif" font-size="10.00">ResourceLoaderCollector</text>
<text text-anchor="middle" x="63" y="-172" font-family="Helvetica,sans-Serif" font-size="10.00">::Base</text>
</a>
</g>
</g>
<!-- Node2&#45;&gt;Node1 -->
<g id="edge1" class="edge">
<title>Node2&#45;&gt;Node1</title>
<path fill="none" stroke="#63b8ff" d="M63,-153.23C63,-145.51 63,-137.05 63,-129.35"/>
<polygon fill="#63b8ff" stroke="#63b8ff" points="59.5,-153.03 63,-163.03 66.5,-153.03 59.5,-153.03"/>
</g>
</g>
</svg>
