<?xml version="1.0" encoding="UTF-8" standalone="no"?>
<!DOCTYPE svg PUBLIC "-//W3C//DTD SVG 1.1//EN"
 "http://www.w3.org/Graphics/SVG/1.1/DTD/svg11.dtd">
<!-- Generated by graphviz version 7.0.5 (20221223.1930)
 -->
<!-- Title: Engine::Serialize::SerializableBase Pages: 1 -->
<svg width="679pt" height="179pt"
 viewBox="0.00 0.00 679.00 178.50" xmlns="http://www.w3.org/2000/svg" xmlns:xlink="http://www.w3.org/1999/xlink">
<g id="graph0" class="graph" transform="scale(1 1) rotate(0) translate(4 174.5)">
<title>Engine::Serialize::SerializableBase</title>
<!-- Node1 -->
<g id="node1" class="node">
<title>Node1</title>
<g id="a_node1"><a xlink:title=" ">
<polygon fill="#999999" stroke="#666666" points="92,-94.5 0,-94.5 0,-64.5 92,-64.5 92,-94.5"/>
<text text-anchor="start" x="8" y="-82.5" font-family="Helvetica,sans-Serif" font-size="10.00">Engine::Serialize::</text>
<text text-anchor="middle" x="46" y="-71.5" font-family="Helvetica,sans-Serif" font-size="10.00">SerializableBase</text>
</a>
</g>
</g>
<!-- Node2 -->
<g id="node2" class="node">
<title>Node2</title>
<g id="a_node2"><a xlink:href="struct_engine_1_1_serialize_1_1_serializable.html" target="_top" xlink:title=" ">
<polygon fill="white" stroke="#666666" points="286,-154 128,-154 128,-113 286,-113 286,-154"/>
<text text-anchor="start" x="136" y="-142" font-family="Helvetica,sans-Serif" font-size="10.00">Engine::Serialize::</text>
<text text-anchor="start" x="136" y="-131" font-family="Helvetica,sans-Serif" font-size="10.00">Serializable&lt; TaggedPlaceholder</text>
<text text-anchor="middle" x="207" y="-120" font-family="Helvetica,sans-Serif" font-size="10.00">&lt; MemberOffsetPtrTag, 0 &gt; &gt;</text>
</a>
</g>
</g>
<!-- Node1&#45;&gt;Node2 -->
<g id="edge1" class="edge">
<title>Node1&#45;&gt;Node2</title>
<path fill="none" stroke="#63b8ff" d="M102.7,-98.42C116.19,-103 130.68,-107.92 144.42,-112.59"/>
<polygon fill="#63b8ff" stroke="#63b8ff" points="104.17,-95.22 93.57,-95.32 101.91,-101.85 104.17,-95.22"/>
</g>
<!-- Node3 -->
<g id="node3" class="node">
<title>Node3</title>
<g id="a_node3"><a xlink:href="struct_engine_1_1_serialize_1_1_serializable.html" target="_top" xlink:title=" ">
<polygon fill="white" stroke="#666666" points="268,-94.5 146,-94.5 146,-64.5 268,-64.5 268,-94.5"/>
<text text-anchor="start" x="154" y="-82.5" font-family="Helvetica,sans-Serif" font-size="10.00">Engine::Serialize::</text>
<text text-anchor="middle" x="207" y="-71.5" font-family="Helvetica,sans-Serif" font-size="10.00">Serializable&lt; OffsetPtr &gt;</text>
</a>
</g>
</g>
<!-- Node1&#45;&gt;Node3 -->
<g id="edge2" class="edge">
<title>Node1&#45;&gt;Node3</title>
<path fill="none" stroke="#63b8ff" d="M103.36,-79.5C117.05,-79.5 131.74,-79.5 145.6,-79.5"/>
<polygon fill="#63b8ff" stroke="#63b8ff" points="103.65,-76 93.65,-79.5 103.65,-83 103.65,-76"/>
</g>
<!-- Node8 -->
<g id="node8" class="node">
<title>Node8</title>
<g id="a_node8"><a xlink:href="struct_engine_1_1_serialize_1_1_serialized.html" target="_top" xlink:title=" ">
<polygon fill="white" stroke="#666666" points="253,-46.5 161,-46.5 161,-16.5 253,-16.5 253,-46.5"/>
<text text-anchor="start" x="169" y="-34.5" font-family="Helvetica,sans-Serif" font-size="10.00">Engine::Serialize::</text>
<text text-anchor="middle" x="207" y="-23.5" font-family="Helvetica,sans-Serif" font-size="10.00">Serialized&lt; T &gt;</text>
</a>
</g>
</g>
<!-- Node1&#45;&gt;Node8 -->
<g id="edge7" class="edge">
<title>Node1&#45;&gt;Node8</title>
<path fill="none" stroke="#63b8ff" d="M103.01,-62.59C121.92,-56.88 142.78,-50.59 160.75,-45.16"/>
<polygon fill="#63b8ff" stroke="#63b8ff" points="102.15,-59.2 93.59,-65.44 104.17,-65.9 102.15,-59.2"/>
</g>
<!-- Node4 -->
<g id="node4" class="node">
<title>Node4</title>
<g id="a_node4"><a xlink:href="struct_engine_1_1_serialize_1_1_serializable_container_impl.html" target="_top" xlink:title=" ">
<polygon fill="white" stroke="#666666" points="506,-170.5 322,-170.5 322,-118.5 506,-118.5 506,-170.5"/>
<text text-anchor="start" x="330" y="-158.5" font-family="Helvetica,sans-Serif" font-size="10.00">Engine::Serialize::</text>
<text text-anchor="start" x="330" y="-147.5" font-family="Helvetica,sans-Serif" font-size="10.00">SerializableContainerImpl</text>
<text text-anchor="start" x="330" y="-136.5" font-family="Helvetica,sans-Serif" font-size="10.00">&lt; C, NoOpFunctor, TaggedPlaceholder</text>
<text text-anchor="middle" x="414" y="-125.5" font-family="Helvetica,sans-Serif" font-size="10.00">&lt; MemberOffsetPtrTag, 0 &gt; &gt;</text>
</a>
</g>
</g>
<!-- Node3&#45;&gt;Node4 -->
<g id="edge3" class="edge">
<title>Node3&#45;&gt;Node4</title>
<path fill="none" stroke="#63b8ff" d="M267.63,-98.41C287.02,-104.55 308.89,-111.49 329.68,-118.08"/>
<polygon fill="#63b8ff" stroke="#63b8ff" points="268.88,-95.13 258.28,-95.44 266.76,-101.8 268.88,-95.13"/>
</g>
<!-- Node5 -->
<g id="node5" class="node">
<title>Node5</title>
<g id="a_node5"><a xlink:href="struct_engine_1_1_serialize_1_1_serializable_container_impl.html" target="_top" xlink:title=" ">
<polygon fill="white" stroke="#666666" points="478.5,-100 349.5,-100 349.5,-59 478.5,-59 478.5,-100"/>
<text text-anchor="start" x="357.5" y="-88" font-family="Helvetica,sans-Serif" font-size="10.00">Engine::Serialize::</text>
<text text-anchor="start" x="357.5" y="-77" font-family="Helvetica,sans-Serif" font-size="10.00">SerializableContainerImpl</text>
<text text-anchor="middle" x="414" y="-66" font-family="Helvetica,sans-Serif" font-size="10.00">&lt; C, Observer, OffsetPtr &gt;</text>
</a>
</g>
</g>
<!-- Node3&#45;&gt;Node5 -->
<g id="edge4" class="edge">
<title>Node3&#45;&gt;Node5</title>
<path fill="none" stroke="#63b8ff" d="M279.65,-79.5C302.26,-79.5 327.08,-79.5 349.11,-79.5"/>
<polygon fill="#63b8ff" stroke="#63b8ff" points="279.91,-76 269.91,-79.5 279.91,-83 279.91,-76"/>
</g>
<!-- Node7 -->
<g id="node7" class="node">
<title>Node7</title>
<g id="a_node7"><a xlink:href="struct_engine_1_1_serialize_1_1_synced.html" target="_top" xlink:title=" ">
<polygon fill="white" stroke="#666666" points="469.5,-41 358.5,-41 358.5,0 469.5,0 469.5,-41"/>
<text text-anchor="start" x="366.5" y="-29" font-family="Helvetica,sans-Serif" font-size="10.00">Engine::Serialize::</text>
<text text-anchor="start" x="366.5" y="-18" font-family="Helvetica,sans-Serif" font-size="10.00">Synced&lt; T, Observer,</text>
<text text-anchor="middle" x="414" y="-7" font-family="Helvetica,sans-Serif" font-size="10.00"> OffsetPtr &gt;</text>
</a>
</g>
</g>
<!-- Node3&#45;&gt;Node7 -->
<g id="edge6" class="edge">
<title>Node3&#45;&gt;Node7</title>
<path fill="none" stroke="#63b8ff" d="M272.34,-60.98C299.94,-53.04 331.85,-43.86 358.29,-36.25"/>
<polygon fill="#63b8ff" stroke="#63b8ff" points="271.69,-57.53 263.05,-63.66 273.63,-64.25 271.69,-57.53"/>
</g>
<!-- Node6 -->
<g id="node6" class="node">
<title>Node6</title>
<g id="a_node6"><a xlink:href="struct_engine_1_1_serialize_1_1_syncable_container_impl.html" target="_top" xlink:title=" ">
<polygon fill="white" stroke="#666666" points="671,-100 542,-100 542,-59 671,-59 671,-100"/>
<text text-anchor="start" x="550" y="-88" font-family="Helvetica,sans-Serif" font-size="10.00">Engine::Serialize::</text>
<text text-anchor="start" x="550" y="-77" font-family="Helvetica,sans-Serif" font-size="10.00">SyncableContainerImpl</text>
<text text-anchor="middle" x="606.5" y="-66" font-family="Helvetica,sans-Serif" font-size="10.00">&lt; C, Observer, OffsetPtr &gt;</text>
</a>
</g>
</g>
<!-- Node5&#45;&gt;Node6 -->
<g id="edge5" class="edge">
<title>Node5&#45;&gt;Node6</title>
<path fill="none" stroke="#63b8ff" d="M490.04,-79.5C507.13,-79.5 525.13,-79.5 541.71,-79.5"/>
<polygon fill="#63b8ff" stroke="#63b8ff" points="490.48,-76 480.48,-79.5 490.48,-83 490.48,-76"/>
</g>
</g>
</svg>
