<?xml version="1.0" encoding="UTF-8" standalone="no"?>
<!DOCTYPE svg PUBLIC "-//W3C//DTD SVG 1.1//EN"
 "http://www.w3.org/Graphics/SVG/1.1/DTD/svg11.dtd">
<!-- Generated by graphviz version 7.0.5 (20221223.1930)
 -->
<!-- Title: Engine::Render::OpenGLPipelineInstance Pages: 1 -->
<svg width="514pt" height="86pt"
 viewBox="0.00 0.00 514.00 86.00" xmlns="http://www.w3.org/2000/svg" xmlns:xlink="http://www.w3.org/1999/xlink">
<g id="graph0" class="graph" transform="scale(1 1) rotate(0) translate(4 82)">
<title>Engine::Render::OpenGLPipelineInstance</title>
<!-- Node1 -->
<g id="node1" class="node">
<title>Node1</title>
<g id="a_node1"><a xlink:title=" ">
<polygon fill="#999999" stroke="#666666" points="313,-54 156,-54 156,-24 313,-24 313,-54"/>
<text text-anchor="start" x="164" y="-42" font-family="Helvetica,sans-Serif" font-size="10.00">Engine::Render::OpenGLPipeline</text>
<text text-anchor="middle" x="234.5" y="-31" font-family="Helvetica,sans-Serif" font-size="10.00">Instance</text>
</a>
</g>
</g>
<!-- Node3 -->
<g id="node3" class="node">
<title>Node3</title>
<g id="a_node3"><a xlink:href="struct_engine_1_1_render_1_1_open_g_l_pipeline_instance_handle.html" target="_top" xlink:title=" ">
<polygon fill="white" stroke="#666666" points="506,-78 349,-78 349,-48 506,-48 506,-78"/>
<text text-anchor="start" x="357" y="-66" font-family="Helvetica,sans-Serif" font-size="10.00">Engine::Render::OpenGLPipeline</text>
<text text-anchor="middle" x="427.5" y="-55" font-family="Helvetica,sans-Serif" font-size="10.00">InstanceHandle</text>
</a>
</g>
</g>
<!-- Node1&#45;&gt;Node3 -->
<g id="edge2" class="edge">
<title>Node1&#45;&gt;Node3</title>
<path fill="none" stroke="#63b8ff" d="M324.75,-50.21C332.78,-51.22 340.87,-52.24 348.79,-53.23"/>
<polygon fill="#63b8ff" stroke="#63b8ff" points="325.32,-46.76 314.96,-48.99 324.45,-53.7 325.32,-46.76"/>
</g>
<!-- Node4 -->
<g id="node4" class="node">
<title>Node4</title>
<g id="a_node4"><a xlink:href="struct_engine_1_1_render_1_1_open_g_l_pipeline_instance_ptr.html" target="_top" xlink:title=" ">
<polygon fill="white" stroke="#666666" points="506,-30 349,-30 349,0 506,0 506,-30"/>
<text text-anchor="start" x="357" y="-18" font-family="Helvetica,sans-Serif" font-size="10.00">Engine::Render::OpenGLPipeline</text>
<text text-anchor="middle" x="427.5" y="-7" font-family="Helvetica,sans-Serif" font-size="10.00">InstancePtr</text>
</a>
</g>
</g>
<!-- Node1&#45;&gt;Node4 -->
<g id="edge3" class="edge">
<title>Node1&#45;&gt;Node4</title>
<path fill="none" stroke="#63b8ff" d="M324.75,-27.79C332.78,-26.78 340.87,-25.76 348.79,-24.77"/>
<polygon fill="#63b8ff" stroke="#63b8ff" points="324.45,-24.3 314.96,-29.01 325.32,-31.24 324.45,-24.3"/>
</g>
<!-- Node2 -->
<g id="node2" class="node">
<title>Node2</title>
<g id="a_node2"><a xlink:href="struct_engine_1_1_render_1_1_pipeline_instance.html" target="_top" xlink:title=" ">
<polygon fill="white" stroke="#666666" points="120,-54 0,-54 0,-24 120,-24 120,-54"/>
<text text-anchor="start" x="8" y="-42" font-family="Helvetica,sans-Serif" font-size="10.00">Engine::Render::Pipeline</text>
<text text-anchor="middle" x="60" y="-31" font-family="Helvetica,sans-Serif" font-size="10.00">Instance</text>
</a>
</g>
</g>
<!-- Node2&#45;&gt;Node1 -->
<g id="edge1" class="edge">
<title>Node2&#45;&gt;Node1</title>
<path fill="none" stroke="#63b8ff" d="M131.78,-39C139.68,-39 147.76,-39 155.75,-39"/>
<polygon fill="#63b8ff" stroke="#63b8ff" points="131.88,-35.5 121.88,-39 131.88,-42.5 131.88,-35.5"/>
</g>
</g>
</svg>
