<?xml version="1.0" encoding="UTF-8" standalone="no"?>
<!DOCTYPE svg PUBLIC "-//W3C//DTD SVG 1.1//EN"
 "http://www.w3.org/Graphics/SVG/1.1/DTD/svg11.dtd">
<!-- Generated by graphviz version 7.0.5 (20221223.1930)
 -->
<!-- Title: Engine::Server::Server Pages: 1 -->
<svg width="135pt" height="159pt"
 viewBox="0.00 0.00 135.00 159.00" xmlns="http://www.w3.org/2000/svg" xmlns:xlink="http://www.w3.org/1999/xlink">
<g id="graph0" class="graph" transform="scale(1 1) rotate(0) translate(4 155)">
<title>Engine::Server::Server</title>
<!-- Node1 -->
<g id="node1" class="node">
<title>Node1</title>
<g id="a_node1"><a xlink:title=" ">
<polygon fill="#999999" stroke="#666666" points="119.5,-19 7.5,-19 7.5,0 119.5,0 119.5,-19"/>
<text text-anchor="middle" x="63.5" y="-7" font-family="Helvetica,sans-Serif" font-size="10.00">Engine::Server::Server</text>
</a>
</g>
</g>
<!-- Node2 -->
<g id="node2" class="node">
<title>Node2</title>
<g id="a_node2"><a xlink:href="struct_engine_1_1_threading_1_1_madgine_object.html" target="_top" xlink:title=" ">
<polygon fill="white" stroke="#666666" points="127,-85 0,-85 0,-55 127,-55 127,-85"/>
<text text-anchor="start" x="8" y="-73" font-family="Helvetica,sans-Serif" font-size="10.00">Engine::Threading::</text>
<text text-anchor="middle" x="63.5" y="-62" font-family="Helvetica,sans-Serif" font-size="10.00">MadgineObject&lt; Server &gt;</text>
</a>
</g>
</g>
<!-- Node2&#45;&gt;Node1 -->
<g id="edge1" class="edge">
<title>Node2&#45;&gt;Node1</title>
<path fill="none" stroke="#63b8ff" d="M63.5,-43.3C63.5,-34.65 63.5,-25.58 63.5,-19.18"/>
<polygon fill="#63b8ff" stroke="#63b8ff" points="60,-43.03 63.5,-53.03 67,-43.03 60,-43.03"/>
</g>
<!-- Node3 -->
<g id="node3" class="node">
<title>Node3</title>
<g id="a_node3"><a xlink:href="struct_engine_1_1_threading_1_1_madgine_object_state.html" target="_top" xlink:title=" ">
<polygon fill="white" stroke="#666666" points="116,-151 11,-151 11,-121 116,-121 116,-151"/>
<text text-anchor="start" x="19" y="-139" font-family="Helvetica,sans-Serif" font-size="10.00">Engine::Threading::</text>
<text text-anchor="middle" x="63.5" y="-128" font-family="Helvetica,sans-Serif" font-size="10.00">MadgineObjectState</text>
</a>
</g>
</g>
<!-- Node3&#45;&gt;Node2 -->
<g id="edge2" class="edge">
<title>Node3&#45;&gt;Node2</title>
<path fill="none" stroke="#63b8ff" d="M63.5,-109.39C63.5,-101.13 63.5,-92.28 63.5,-85.16"/>
<polygon fill="#63b8ff" stroke="#63b8ff" points="60,-109.28 63.5,-119.28 67,-109.28 60,-109.28"/>
</g>
</g>
</svg>
