<?xml version="1.0" encoding="UTF-8" standalone="no"?>
<!DOCTYPE svg PUBLIC "-//W3C//DTD SVG 1.1//EN"
 "http://www.w3.org/Graphics/SVG/1.1/DTD/svg11.dtd">
<!-- Generated by graphviz version 7.0.5 (20221223.1930)
 -->
<!-- Title: Engine::DoublyLinkedNodeBase&lt; PtrT &gt; Pages: 1 -->
<svg width="288pt" height="104pt"
 viewBox="0.00 0.00 288.00 104.00" xmlns="http://www.w3.org/2000/svg" xmlns:xlink="http://www.w3.org/1999/xlink">
<g id="graph0" class="graph" transform="scale(1 1) rotate(0) translate(4 100)">
<title>Engine::DoublyLinkedNodeBase&lt; PtrT &gt;</title>
<!-- Node1 -->
<g id="node1" class="node">
<title>Node1</title>
<g id="a_node1"><a xlink:title=" ">
<polygon fill="#999999" stroke="#666666" points="206,-96 74,-96 74,-66 206,-66 206,-96"/>
<text text-anchor="start" x="82" y="-84" font-family="Helvetica,sans-Serif" font-size="10.00">Engine::DoublyLinkedNode</text>
<text text-anchor="middle" x="140" y="-73" font-family="Helvetica,sans-Serif" font-size="10.00">Base&lt; PtrT &gt;</text>
</a>
</g>
</g>
<!-- Node2 -->
<g id="node2" class="node">
<title>Node2</title>
<g id="a_node2"><a xlink:href="struct_engine_1_1_doubly_linked_node.html" target="_top" xlink:title=" ">
<polygon fill="white" stroke="#666666" points="132,-30 0,-30 0,0 132,0 132,-30"/>
<text text-anchor="start" x="8" y="-18" font-family="Helvetica,sans-Serif" font-size="10.00">Engine::DoublyLinkedNode</text>
<text text-anchor="middle" x="66" y="-7" font-family="Helvetica,sans-Serif" font-size="10.00">&lt; PtrT &gt;</text>
</a>
</g>
</g>
<!-- Node1&#45;&gt;Node2 -->
<g id="edge1" class="edge">
<title>Node1&#45;&gt;Node2</title>
<path fill="none" stroke="#63b8ff" d="M115.05,-58.42C104.37,-49.18 92.19,-38.65 82.63,-30.39"/>
<polygon fill="#63b8ff" stroke="#63b8ff" points="112.58,-60.91 122.43,-64.81 117.16,-55.62 112.58,-60.91"/>
</g>
<!-- Node3 -->
<g id="node3" class="node">
<title>Node3</title>
<g id="a_node3"><a xlink:href="struct_engine_1_1_doubly_linked_start_node.html" target="_top" xlink:title=" ">
<polygon fill="white" stroke="#666666" points="280,-30 150,-30 150,0 280,0 280,-30"/>
<text text-anchor="start" x="158" y="-18" font-family="Helvetica,sans-Serif" font-size="10.00">Engine::DoublyLinkedStart</text>
<text text-anchor="middle" x="215" y="-7" font-family="Helvetica,sans-Serif" font-size="10.00">Node&lt; PtrT &gt;</text>
</a>
</g>
</g>
<!-- Node1&#45;&gt;Node3 -->
<g id="edge2" class="edge">
<title>Node1&#45;&gt;Node3</title>
<path fill="none" stroke="#63b8ff" d="M165.29,-58.42C176.11,-49.18 188.46,-38.65 198.14,-30.39"/>
<polygon fill="#63b8ff" stroke="#63b8ff" points="163.13,-55.66 157.8,-64.81 167.68,-60.99 163.13,-55.66"/>
</g>
</g>
</svg>
