<?xml version="1.0" encoding="UTF-8" standalone="no"?>
<!DOCTYPE svg PUBLIC "-//W3C//DTD SVG 1.1//EN"
 "http://www.w3.org/Graphics/SVG/1.1/DTD/svg11.dtd">
<!-- Generated by graphviz version 7.0.5 (20221223.1930)
 -->
<!-- Title: Engine::Debug::ParentLocation Pages: 1 -->
<!--zoomable 210 -->
<svg id="main" version="1.1" xmlns="http://www.w3.org/2000/svg" xmlns:xlink="http://www.w3.org/1999/xlink" xml:space="preserve" onload="init(evt)">
<style type="text/css"><![CDATA[
.edge:hover path { stroke: red; }
.edge:hover polygon { stroke: red; fill: red; }
]]></style>
<script type="text/javascript"><![CDATA[
var edges = document.getElementsByTagName('g');
if (edges && edges.length) {
  for (var i=0;i<edges.length;i++) {
    if (edges[i].id.substr(0,4)=='edge') {
      edges[i].setAttribute('class','edge');
    }
  }
}
]]></script>
        <defs>
                <circle id="rim" cx="0" cy="0" r="7"/>
                <circle id="rim2" cx="0" cy="0" r="3.5"/>
                <g id="zoomPlus">
                        <use xlink:href="#rim" fill="#404040">
                                <set attributeName="fill" to="#808080" begin="zoomplus.mouseover" end="zoomplus.mouseout"/>
                        </use>
                        <path d="M-4,0h8M0,-4v8" fill="none" stroke="white" stroke-width="1.5" pointer-events="none"/>
                </g>
                <g id="zoomMin">
                        <use xlink:href="#rim" fill="#404040">
                                <set attributeName="fill" to="#808080" begin="zoomminus.mouseover" end="zoomminus.mouseout"/>
                        </use>
                        <path d="M-4,0h8" fill="none" stroke="white" stroke-width="1.5" pointer-events="none"/>
                </g>
                <g id="dirArrow">
                        <path fill="none" stroke="white" stroke-width="1.5" d="M0,-3.0v7 M-2.5,-0.5L0,-3.0L2.5,-0.5"/>
                </g>
               <g id="resetDef">
                       <use xlink:href="#rim2" fill="#404040">
                               <set attributeName="fill" to="#808080" begin="reset.mouseover" end="reset.mouseout"/>
                       </use>
               </g>
        </defs>

<script type="text/javascript">
var viewWidth = 534;
var viewHeight = 210;
var sectionId = 'dynsection-0';
</script>
<script xlink:href="svgpan.js"/>
<svg id="graph" class="graph">
<g id="viewport">
<title>Engine::Debug::ParentLocation</title>
<!-- Node1 -->
<g id="node1" class="node">
<title>Node1</title>
<g id="a_node1"><a xlink:title=" ">
<polygon fill="#999999" stroke="#666666" points="149,-133.5 0,-133.5 0,-114.5 149,-114.5 149,-133.5"/>
<text text-anchor="middle" x="74.5" y="-121.5" font-family="Helvetica,sans-Serif" font-size="10.00">Engine::Debug::ParentLocation</text>
</a>
</g>
</g>
<!-- Node2 -->
<g id="node2" class="node">
<title>Node2</title>
<g id="a_node2"><a xlink:href="struct_engine_1_1_debug_1_1_context_info.html" target="_top" xlink:title=" ">
<polygon fill="white" stroke="#666666" points="325,-152.5 193,-152.5 193,-133.5 325,-133.5 325,-152.5"/>
<text text-anchor="middle" x="259" y="-140.5" font-family="Helvetica,sans-Serif" font-size="10.00">Engine::Debug::ContextInfo</text>
</a>
</g>
</g>
<!-- Node1&#45;&gt;Node2 -->
<g id="edge1" class="edge">
<title>Node1&#45;&gt;Node2</title>
<path fill="none" stroke="#63b8ff" d="M160.64,-132.86C171.43,-133.99 182.33,-135.12 192.73,-136.21"/>
<polygon fill="#63b8ff" stroke="#63b8ff" points="161.28,-129.41 150.97,-131.86 160.56,-136.37 161.28,-129.41"/>
</g>
<!-- Node3 -->
<g id="node3" class="node">
<title>Node3</title>
<g id="a_node3"><a xlink:href="struct_engine_1_1_debug_1_1_debug_location.html" target="_top" xlink:title=" ">
<polygon fill="white" stroke="#666666" points="333,-115.5 185,-115.5 185,-96.5 333,-96.5 333,-115.5"/>
<text text-anchor="middle" x="259" y="-103.5" font-family="Helvetica,sans-Serif" font-size="10.00">Engine::Debug::DebugLocation</text>
</a>
</g>
</g>
<!-- Node1&#45;&gt;Node3 -->
<g id="edge2" class="edge">
<title>Node1&#45;&gt;Node3</title>
<path fill="none" stroke="#63b8ff" d="M160.67,-115.6C168.64,-114.81 176.67,-114.02 184.52,-113.25"/>
<polygon fill="#63b8ff" stroke="#63b8ff" points="160.58,-112.09 150.97,-116.56 161.27,-119.06 160.58,-112.09"/>
</g>
<!-- Node4 -->
<g id="node4" class="node">
<title>Node4</title>
<g id="a_node4"><a xlink:href="struct_engine_1_1_coroutine_location.html" target="_top" xlink:title=" ">
<polygon fill="white" stroke="#666666" points="512,-201.5 383,-201.5 383,-182.5 512,-182.5 512,-201.5"/>
<text text-anchor="middle" x="447.5" y="-189.5" font-family="Helvetica,sans-Serif" font-size="10.00">Engine::CoroutineLocation</text>
</a>
</g>
</g>
<!-- Node3&#45;&gt;Node4 -->
<g id="edge3" class="edge">
<title>Node3&#45;&gt;Node4</title>
<path fill="none" stroke="#63b8ff" d="M325.08,-120.38C327.83,-121.78 330.49,-123.31 333,-125 355.14,-139.86 346.75,-158.3 369,-173 374.55,-176.67 380.74,-179.62 387.14,-182.01"/>
<polygon fill="#63b8ff" stroke="#63b8ff" points="326.74,-117.28 316.18,-116.49 323.94,-123.7 326.74,-117.28"/>
</g>
<!-- Node5 -->
<g id="node5" class="node">
<title>Node5</title>
<g id="a_node5"><a xlink:href="struct_engine_1_1_debug_1_1_debug_location_splitter.html" target="_top" xlink:title=" ">
<polygon fill="white" stroke="#666666" points="521.5,-164 373.5,-164 373.5,-134 521.5,-134 521.5,-164"/>
<text text-anchor="start" x="381.5" y="-152" font-family="Helvetica,sans-Serif" font-size="10.00">Engine::Debug::DebugLocation</text>
<text text-anchor="middle" x="447.5" y="-141" font-family="Helvetica,sans-Serif" font-size="10.00">Splitter</text>
</a>
</g>
</g>
<!-- Node3&#45;&gt;Node5 -->
<g id="edge4" class="edge">
<title>Node3&#45;&gt;Node5</title>
<path fill="none" stroke="#63b8ff" d="M314.22,-118.5C334.58,-123.2 357.97,-128.59 379.37,-133.52"/>
<polygon fill="#63b8ff" stroke="#63b8ff" points="315.26,-115.15 304.73,-116.31 313.69,-121.97 315.26,-115.15"/>
</g>
<!-- Node6 -->
<g id="node6" class="node">
<title>Node6</title>
<g id="a_node6"><a xlink:href="struct_engine_1_1_debug_1_1_sender_location.html" target="_top" xlink:title=" ">
<polygon fill="white" stroke="#666666" points="523,-115.5 372,-115.5 372,-96.5 523,-96.5 523,-115.5"/>
<text text-anchor="middle" x="447.5" y="-103.5" font-family="Helvetica,sans-Serif" font-size="10.00">Engine::Debug::SenderLocation</text>
</a>
</g>
</g>
<!-- Node3&#45;&gt;Node6 -->
<g id="edge5" class="edge">
<title>Node3&#45;&gt;Node6</title>
<path fill="none" stroke="#63b8ff" d="M344.72,-106C353.68,-106 362.75,-106 371.59,-106"/>
<polygon fill="#63b8ff" stroke="#63b8ff" points="344.96,-102.5 334.96,-106 344.96,-109.5 344.96,-102.5"/>
</g>
<!-- Node7 -->
<g id="node7" class="node">
<title>Node7</title>
<g id="a_node7"><a xlink:href="struct_engine_1_1_node_graph_1_1_node_debug_location.html" target="_top" xlink:title=" ">
<polygon fill="white" stroke="#666666" points="500,-78 395,-78 395,-48 500,-48 500,-78"/>
<text text-anchor="start" x="403" y="-66" font-family="Helvetica,sans-Serif" font-size="10.00">Engine::NodeGraph::</text>
<text text-anchor="middle" x="447.5" y="-55" font-family="Helvetica,sans-Serif" font-size="10.00">NodeDebugLocation</text>
</a>
</g>
</g>
<!-- Node3&#45;&gt;Node7 -->
<g id="edge6" class="edge">
<title>Node3&#45;&gt;Node7</title>
<path fill="none" stroke="#63b8ff" d="M314.15,-93.51C339.47,-87.68 369.48,-80.76 394.52,-74.99"/>
<polygon fill="#63b8ff" stroke="#63b8ff" points="313.69,-90.03 304.73,-95.69 315.26,-96.85 313.69,-90.03"/>
</g>
<!-- Node8 -->
<g id="node8" class="node">
<title>Node8</title>
<g id="a_node8"><a xlink:href="struct_engine_1_1_scripting_1_1_python3_1_1_python3_debug_location.html" target="_top" xlink:title=" ">
<polygon fill="white" stroke="#666666" points="526,-30 369,-30 369,0 526,0 526,-30"/>
<text text-anchor="start" x="377" y="-18" font-family="Helvetica,sans-Serif" font-size="10.00">Engine::Scripting::</text>
<text text-anchor="middle" x="447.5" y="-7" font-family="Helvetica,sans-Serif" font-size="10.00">Python3::Python3DebugLocation</text>
</a>
</g>
</g>
<!-- Node3&#45;&gt;Node8 -->
<g id="edge7" class="edge">
<title>Node3&#45;&gt;Node8</title>
<path fill="none" stroke="#63b8ff" d="M282.71,-89.69C304.13,-74.89 337.56,-53.25 369,-39 375.93,-35.86 383.38,-32.97 390.83,-30.38"/>
<polygon fill="#63b8ff" stroke="#63b8ff" points="280.91,-86.68 274.73,-95.29 284.92,-92.41 280.91,-86.68"/>
</g>
</g>
</svg>
        <g id="navigator" transform="translate(0 0)" fill="#404254">
                <rect fill="#f2f5e9" fill-opacity="0.5" stroke="#606060" stroke-width=".5" x="0" y="0" width="60" height="60"/>
                <use id="zoomplus" xlink:href="#zoomPlus" x="17" y="9" onmousedown="handleZoom(evt,'in')"/>
                <use id="zoomminus" xlink:href="#zoomMin" x="42" y="9" onmousedown="handleZoom(evt,'out')"/>
                <use id="reset" xlink:href="#resetDef" x="30" y="36" onmousedown="handleReset()"/>
                <g id="arrowUp" xlink:href="#dirArrow" transform="translate(30 24)" onmousedown="handlePan(0,-1)">
                  <use xlink:href="#rim" fill="#404040">
                        <set attributeName="fill" to="#808080" begin="arrowUp.mouseover" end="arrowUp.mouseout"/>
                  </use>
                  <path fill="none" stroke="white" stroke-width="1.5" d="M0,-3.0v7 M-2.5,-0.5L0,-3.0L2.5,-0.5"/>
                </g>
                <g id="arrowRight" xlink:href="#dirArrow" transform="rotate(90) translate(36 -43)" onmousedown="handlePan(1,0)">
                  <use xlink:href="#rim" fill="#404040">
                        <set attributeName="fill" to="#808080" begin="arrowRight.mouseover" end="arrowRight.mouseout"/>
                  </use>
                  <path fill="none" stroke="white" stroke-width="1.5" d="M0,-3.0v7 M-2.5,-0.5L0,-3.0L2.5,-0.5"/>
                </g>
                <g id="arrowDown" xlink:href="#dirArrow" transform="rotate(180) translate(-30 -48)" onmousedown="handlePan(0,1)">
                  <use xlink:href="#rim" fill="#404040">
                        <set attributeName="fill" to="#808080" begin="arrowDown.mouseover" end="arrowDown.mouseout"/>
                  </use>
                  <path fill="none" stroke="white" stroke-width="1.5" d="M0,-3.0v7 M-2.5,-0.5L0,-3.0L2.5,-0.5"/>
                </g>
                <g id="arrowLeft" xlink:href="#dirArrow" transform="rotate(270) translate(-36 17)" onmousedown="handlePan(-1,0)">
                  <use xlink:href="#rim" fill="#404040">
                        <set attributeName="fill" to="#808080" begin="arrowLeft.mouseover" end="arrowLeft.mouseout"/>
                  </use>
                  <path fill="none" stroke="white" stroke-width="1.5" d="M0,-3.0v7 M-2.5,-0.5L0,-3.0L2.5,-0.5"/>
                </g>
        </g>
        <svg viewBox="0 0 15 15" width="100%" height="30px" preserveAspectRatio="xMaxYMin meet">
         <g id="arrow_out" transform="scale(0.3 0.3)">
          <a xlink:href="struct_engine_1_1_debug_1_1_parent_location__inherit__graph_org.svg" target="_base">
           <rect id="button" ry="5" rx="5" y="6" x="6" height="38" width="38"
                fill="#f2f5e9" fill-opacity="0.5" stroke="#606060" stroke-width="1.0"/>
           <path id="arrow"
             d="M 11.500037,31.436501 C 11.940474,20.09759 22.043105,11.32322 32.158766,21.979434 L 37.068811,17.246167 C 37.068811,17.246167 37.088388,32 37.088388,32 L 22.160133,31.978069 C 22.160133,31.978069 26.997745,27.140456 26.997745,27.140456 C 18.528582,18.264221 13.291696,25.230495 11.500037,31.436501 z"
             style="fill:#404040;"/>
          </a>
         </g>
        </svg>
</svg>
