<?xml version="1.0" encoding="UTF-8" standalone="no"?>
<!DOCTYPE svg PUBLIC "-//W3C//DTD SVG 1.1//EN"
 "http://www.w3.org/Graphics/SVG/1.1/DTD/svg11.dtd">
<!-- Generated by graphviz version 7.0.5 (20221223.1930)
 -->
<!-- Title: Engine::Render::OpenGLRenderTexture Pages: 1 -->
<svg width="161pt" height="214pt"
 viewBox="0.00 0.00 161.00 214.00" xmlns="http://www.w3.org/2000/svg" xmlns:xlink="http://www.w3.org/1999/xlink">
<g id="graph0" class="graph" transform="scale(1 1) rotate(0) translate(4 210)">
<title>Engine::Render::OpenGLRenderTexture</title>
<!-- Node1 -->
<g id="node1" class="node">
<title>Node1</title>
<g id="a_node1"><a xlink:title=" ">
<polygon fill="#999999" stroke="#666666" points="153,-30 0,-30 0,0 153,0 153,-30"/>
<text text-anchor="start" x="8" y="-18" font-family="Helvetica,sans-Serif" font-size="10.00">Engine::Render::OpenGLRender</text>
<text text-anchor="middle" x="76.5" y="-7" font-family="Helvetica,sans-Serif" font-size="10.00">Texture</text>
</a>
</g>
</g>
<!-- Node2 -->
<g id="node2" class="node">
<title>Node2</title>
<g id="a_node2"><a xlink:href="struct_engine_1_1_render_1_1_open_g_l_render_target.html" target="_top" xlink:title=" ">
<polygon fill="white" stroke="#666666" points="153,-96 0,-96 0,-66 153,-66 153,-96"/>
<text text-anchor="start" x="8" y="-84" font-family="Helvetica,sans-Serif" font-size="10.00">Engine::Render::OpenGLRender</text>
<text text-anchor="middle" x="76.5" y="-73" font-family="Helvetica,sans-Serif" font-size="10.00">Target</text>
</a>
</g>
</g>
<!-- Node2&#45;&gt;Node1 -->
<g id="edge1" class="edge">
<title>Node2&#45;&gt;Node1</title>
<path fill="none" stroke="#63b8ff" d="M76.5,-54.39C76.5,-46.13 76.5,-37.28 76.5,-30.16"/>
<polygon fill="#63b8ff" stroke="#63b8ff" points="73,-54.28 76.5,-64.28 80,-54.28 73,-54.28"/>
</g>
<!-- Node3 -->
<g id="node3" class="node">
<title>Node3</title>
<g id="a_node3"><a xlink:href="struct_engine_1_1_render_1_1_render_target.html" target="_top" xlink:title=" ">
<polygon fill="white" stroke="#666666" points="148.5,-151 4.5,-151 4.5,-132 148.5,-132 148.5,-151"/>
<text text-anchor="middle" x="76.5" y="-139" font-family="Helvetica,sans-Serif" font-size="10.00">Engine::Render::RenderTarget</text>
</a>
</g>
</g>
<!-- Node3&#45;&gt;Node2 -->
<g id="edge2" class="edge">
<title>Node3&#45;&gt;Node2</title>
<path fill="none" stroke="#63b8ff" d="M76.5,-120.51C76.5,-112.49 76.5,-103.43 76.5,-96.11"/>
<polygon fill="#63b8ff" stroke="#63b8ff" points="73,-120.35 76.5,-130.35 80,-120.35 73,-120.35"/>
</g>
<!-- Node4 -->
<g id="node4" class="node">
<title>Node4</title>
<g id="a_node4"><a xlink:href="struct_engine_1_1_render_1_1_render_data.html" target="_top" xlink:title=" ">
<polygon fill="white" stroke="#666666" points="145,-206 8,-206 8,-187 145,-187 145,-206"/>
<text text-anchor="middle" x="76.5" y="-194" font-family="Helvetica,sans-Serif" font-size="10.00">Engine::Render::RenderData</text>
</a>
</g>
</g>
<!-- Node4&#45;&gt;Node3 -->
<g id="edge3" class="edge">
<title>Node4&#45;&gt;Node3</title>
<path fill="none" stroke="#63b8ff" d="M76.5,-175.35C76.5,-167.1 76.5,-157.97 76.5,-151.44"/>
<polygon fill="#63b8ff" stroke="#63b8ff" points="73,-175.23 76.5,-185.23 80,-175.23 73,-175.23"/>
</g>
</g>
</svg>
