<?xml version="1.0" encoding="UTF-8" standalone="no"?>
<!DOCTYPE svg PUBLIC "-//W3C//DTD SVG 1.1//EN"
 "http://www.w3.org/Graphics/SVG/1.1/DTD/svg11.dtd">
<!-- Generated by graphviz version 7.0.5 (20221223.1930)
 -->
<!-- Title: Engine::Threading::TaskSuspendablePromise&lt; T &gt; Pages: 1 -->
<svg width="182pt" height="247pt"
 viewBox="0.00 0.00 182.00 247.00" xmlns="http://www.w3.org/2000/svg" xmlns:xlink="http://www.w3.org/1999/xlink">
<g id="graph0" class="graph" transform="scale(1 1) rotate(0) translate(4 243)">
<title>Engine::Threading::TaskSuspendablePromise&lt; T &gt;</title>
<!-- Node1 -->
<g id="node1" class="node">
<title>Node1</title>
<g id="a_node1"><a xlink:title=" ">
<polygon fill="#999999" stroke="#666666" points="163.5,-107 10.5,-107 10.5,-77 163.5,-77 163.5,-107"/>
<text text-anchor="start" x="18.5" y="-95" font-family="Helvetica,sans-Serif" font-size="10.00">Engine::Threading::</text>
<text text-anchor="middle" x="87" y="-84" font-family="Helvetica,sans-Serif" font-size="10.00">TaskSuspendablePromise&lt; T &gt;</text>
</a>
</g>
</g>
<!-- Node4 -->
<g id="node4" class="node">
<title>Node4</title>
<g id="a_node4"><a xlink:href="struct_engine_1_1_threading_1_1_task_1_1promise__type.html" target="_top" xlink:title=" ">
<polygon fill="white" stroke="#666666" points="141.5,-41 32.5,-41 32.5,0 141.5,0 141.5,-41"/>
<text text-anchor="start" x="40.5" y="-29" font-family="Helvetica,sans-Serif" font-size="10.00">Engine::Threading::</text>
<text text-anchor="start" x="40.5" y="-18" font-family="Helvetica,sans-Serif" font-size="10.00">Task&lt; _T, Immediate</text>
<text text-anchor="middle" x="87" y="-7" font-family="Helvetica,sans-Serif" font-size="10.00"> &gt;::promise_type</text>
</a>
</g>
</g>
<!-- Node1&#45;&gt;Node4 -->
<g id="edge3" class="edge">
<title>Node1&#45;&gt;Node4</title>
<path fill="none" stroke="#63b8ff" d="M87,-65.36C87,-57.45 87,-48.87 87,-41.42"/>
<polygon fill="#63b8ff" stroke="#63b8ff" points="83.5,-65.09 87,-75.09 90.5,-65.09 83.5,-65.09"/>
</g>
<!-- Node2 -->
<g id="node2" class="node">
<title>Node2</title>
<g id="a_node2"><a xlink:href="struct_engine_1_1_threading_1_1_task_suspendable_promise_type_base.html" target="_top" xlink:title=" ">
<polygon fill="white" stroke="#666666" points="174,-173 0,-173 0,-143 174,-143 174,-173"/>
<text text-anchor="start" x="8" y="-161" font-family="Helvetica,sans-Serif" font-size="10.00">Engine::Threading::</text>
<text text-anchor="middle" x="87" y="-150" font-family="Helvetica,sans-Serif" font-size="10.00">TaskSuspendablePromiseTypeBase</text>
</a>
</g>
</g>
<!-- Node2&#45;&gt;Node1 -->
<g id="edge1" class="edge">
<title>Node2&#45;&gt;Node1</title>
<path fill="none" stroke="#63b8ff" d="M87,-131.39C87,-123.13 87,-114.28 87,-107.16"/>
<polygon fill="#63b8ff" stroke="#63b8ff" points="83.5,-131.28 87,-141.28 90.5,-131.28 83.5,-131.28"/>
</g>
<!-- Node3 -->
<g id="node3" class="node">
<title>Node3</title>
<g id="a_node3"><a xlink:href="struct_engine_1_1_threading_1_1_task_promise_type_base.html" target="_top" xlink:title=" ">
<polygon fill="white" stroke="#666666" points="146,-239 28,-239 28,-209 146,-209 146,-239"/>
<text text-anchor="start" x="36" y="-227" font-family="Helvetica,sans-Serif" font-size="10.00">Engine::Threading::</text>
<text text-anchor="middle" x="87" y="-216" font-family="Helvetica,sans-Serif" font-size="10.00">TaskPromiseTypeBase</text>
</a>
</g>
</g>
<!-- Node3&#45;&gt;Node2 -->
<g id="edge2" class="edge">
<title>Node3&#45;&gt;Node2</title>
<path fill="none" stroke="#63b8ff" d="M87,-197.39C87,-189.13 87,-180.28 87,-173.16"/>
<polygon fill="#63b8ff" stroke="#63b8ff" points="83.5,-197.28 87,-207.28 90.5,-197.28 83.5,-197.28"/>
</g>
</g>
</svg>
