<?xml version="1.0" encoding="UTF-8" standalone="no"?>
<!DOCTYPE svg PUBLIC "-//W3C//DTD SVG 1.1//EN"
 "http://www.w3.org/Graphics/SVG/1.1/DTD/svg11.dtd">
<!-- Generated by graphviz version 7.0.5 (20221223.1930)
 -->
<!-- Title: Engine::NodeGraph::NodeInterpreterData Pages: 1 -->
<svg width="261pt" height="108pt"
 viewBox="0.00 0.00 261.00 108.00" xmlns="http://www.w3.org/2000/svg" xmlns:xlink="http://www.w3.org/1999/xlink">
<g id="graph0" class="graph" transform="scale(1 1) rotate(0) translate(4 104)">
<title>Engine::NodeGraph::NodeInterpreterData</title>
<!-- Node1 -->
<g id="node1" class="node">
<title>Node1</title>
<g id="a_node1"><a xlink:title=" ">
<polygon fill="#999999" stroke="#666666" points="104,-70 0,-70 0,-40 104,-40 104,-70"/>
<text text-anchor="start" x="8" y="-58" font-family="Helvetica,sans-Serif" font-size="10.00">Engine::NodeGraph::</text>
<text text-anchor="middle" x="52" y="-47" font-family="Helvetica,sans-Serif" font-size="10.00">NodeInterpreterData</text>
</a>
</g>
</g>
<!-- Node2 -->
<g id="node2" class="node">
<title>Node2</title>
<g id="a_node2"><a xlink:href="struct_engine_1_1_node_graph_1_1_library_interpret_data.html" target="_top" xlink:title=" ">
<polygon fill="white" stroke="#666666" points="248.5,-100 144.5,-100 144.5,-70 248.5,-70 248.5,-100"/>
<text text-anchor="start" x="152.5" y="-88" font-family="Helvetica,sans-Serif" font-size="10.00">Engine::NodeGraph::</text>
<text text-anchor="middle" x="196.5" y="-77" font-family="Helvetica,sans-Serif" font-size="10.00">LibraryInterpretData</text>
</a>
</g>
</g>
<!-- Node1&#45;&gt;Node2 -->
<g id="edge1" class="edge">
<title>Node1&#45;&gt;Node2</title>
<path fill="none" stroke="#63b8ff" d="M115.52,-68.16C125.08,-70.17 134.85,-72.23 144.13,-74.19"/>
<polygon fill="#63b8ff" stroke="#63b8ff" points="116.43,-64.78 105.93,-66.14 114.99,-71.63 116.43,-64.78"/>
</g>
<!-- Node3 -->
<g id="node3" class="node">
<title>Node3</title>
<g id="a_node3"><a xlink:href="struct_engine_1_1_node_graph_1_1_sender_node_1_1_interpret_data.html" target="_top" xlink:title=" ">
<polygon fill="white" stroke="#666666" points="253,-52 140,-52 140,0 253,0 253,-52"/>
<text text-anchor="start" x="148" y="-40" font-family="Helvetica,sans-Serif" font-size="10.00">Engine::NodeGraph::</text>
<text text-anchor="start" x="148" y="-29" font-family="Helvetica,sans-Serif" font-size="10.00">SenderNode&lt; Config,</text>
<text text-anchor="start" x="148" y="-18" font-family="Helvetica,sans-Serif" font-size="10.00"> Algorithm, Arguments</text>
<text text-anchor="middle" x="196.5" y="-7" font-family="Helvetica,sans-Serif" font-size="10.00"> &gt;::InterpretData</text>
</a>
</g>
</g>
<!-- Node1&#45;&gt;Node3 -->
<g id="edge2" class="edge">
<title>Node1&#45;&gt;Node3</title>
<path fill="none" stroke="#63b8ff" d="M115.66,-42.25C123.7,-40.61 131.88,-38.95 139.79,-37.34"/>
<polygon fill="#63b8ff" stroke="#63b8ff" points="115.03,-38.8 105.93,-44.23 116.43,-45.66 115.03,-38.8"/>
</g>
</g>
</svg>
