<?xml version="1.0" encoding="UTF-8" standalone="no"?>
<!DOCTYPE svg PUBLIC "-//W3C//DTD SVG 1.1//EN"
 "http://www.w3.org/Graphics/SVG/1.1/DTD/svg11.dtd">
<!-- Generated by graphviz version 7.0.5 (20221223.1930)
 -->
<!-- Title: Engine::Serialize::VirtualUnit&lt; T, _Base &gt; Pages: 1 -->
<svg width="184pt" height="170pt"
 viewBox="0.00 0.00 183.50 170.00" xmlns="http://www.w3.org/2000/svg" xmlns:xlink="http://www.w3.org/1999/xlink">
<g id="graph0" class="graph" transform="scale(1 1) rotate(0) translate(4 166)">
<title>Engine::Serialize::VirtualUnit&lt; T, _Base &gt;</title>
<!-- Node1 -->
<g id="node1" class="node">
<title>Node1</title>
<g id="a_node1"><a xlink:title=" ">
<polygon fill="#999999" stroke="#666666" points="160.5,-30 42.5,-30 42.5,0 160.5,0 160.5,-30"/>
<text text-anchor="start" x="50.5" y="-18" font-family="Helvetica,sans-Serif" font-size="10.00">Engine::Serialize::</text>
<text text-anchor="middle" x="101.5" y="-7" font-family="Helvetica,sans-Serif" font-size="10.00">VirtualUnit&lt; T, _Base &gt;</text>
</a>
</g>
</g>
<!-- Node2 -->
<g id="node2" class="node">
<title>Node2</title>
<g id="a_node2"><a xlink:href="struct_engine_1_1_serialize_1_1_virtual_serializable_unit_base.html" target="_top" xlink:title=" ">
<polygon fill="white" stroke="#666666" points="174.5,-96 28.5,-96 28.5,-66 174.5,-66 174.5,-96"/>
<text text-anchor="start" x="36.5" y="-84" font-family="Helvetica,sans-Serif" font-size="10.00">Engine::Serialize::</text>
<text text-anchor="middle" x="101.5" y="-73" font-family="Helvetica,sans-Serif" font-size="10.00">VirtualSerializableUnitBase&lt;&gt;</text>
</a>
</g>
</g>
<!-- Node2&#45;&gt;Node1 -->
<g id="edge1" class="edge">
<title>Node2&#45;&gt;Node1</title>
<path fill="none" stroke="#63b8ff" d="M101.5,-54.39C101.5,-46.13 101.5,-37.28 101.5,-30.16"/>
<polygon fill="#63b8ff" stroke="#63b8ff" points="98,-54.28 101.5,-64.28 105,-54.28 98,-54.28"/>
</g>
<!-- Node3 -->
<g id="node3" class="node">
<title>Node3</title>
<g id="a_node3"><a xlink:href="struct_engine_1_1_serialize_1_1_serializable_unit_base.html" target="_top" xlink:title=" ">
<polygon fill="white" stroke="#666666" points="107,-162 0,-162 0,-132 107,-132 107,-162"/>
<text text-anchor="start" x="8" y="-150" font-family="Helvetica,sans-Serif" font-size="10.00">Engine::Serialize::</text>
<text text-anchor="middle" x="53.5" y="-139" font-family="Helvetica,sans-Serif" font-size="10.00">SerializableUnitBase</text>
</a>
</g>
</g>
<!-- Node3&#45;&gt;Node2 -->
<g id="edge2" class="edge">
<title>Node3&#45;&gt;Node2</title>
<path fill="none" stroke="#63b8ff" d="M70.99,-122.68C77.65,-113.79 85.04,-103.95 90.88,-96.16"/>
<polygon fill="#63b8ff" stroke="#63b8ff" points="68.26,-120.49 65.06,-130.59 73.86,-124.69 68.26,-120.49"/>
</g>
<!-- Node4 -->
<g id="node4" class="node">
<title>Node4</title>
<g id="a_node4"><a xlink:title=" ">
<polygon fill="white" stroke="#666666" points="175.5,-156.5 125.5,-156.5 125.5,-137.5 175.5,-137.5 175.5,-156.5"/>
<text text-anchor="middle" x="150.5" y="-144.5" font-family="Helvetica,sans-Serif" font-size="10.00">_Bases</text>
</a>
</g>
</g>
<!-- Node4&#45;&gt;Node2 -->
<g id="edge3" class="edge">
<title>Node4&#45;&gt;Node2</title>
<path fill="none" stroke="#63b8ff" d="M136.73,-128.01C129.03,-117.96 119.57,-105.61 112.4,-96.23"/>
<polygon fill="#63b8ff" stroke="#63b8ff" points="133.91,-130.09 142.77,-135.9 139.47,-125.83 133.91,-130.09"/>
</g>
</g>
</svg>
