<?xml version="1.0" encoding="UTF-8" standalone="no"?>
<!DOCTYPE svg PUBLIC "-//W3C//DTD SVG 1.1//EN"
 "http://www.w3.org/Graphics/SVG/1.1/DTD/svg11.dtd">
<!-- Generated by graphviz version 7.0.5 (20221223.1930)
 -->
<!-- Title: Engine::NodeGraph::SenderNode&lt; Config, Algorithm, Arguments &gt; Pages: 1 -->
<!--zoomable 60 -->
<svg id="main" version="1.1" xmlns="http://www.w3.org/2000/svg" xmlns:xlink="http://www.w3.org/1999/xlink" xml:space="preserve" onload="init(evt)">
<style type="text/css"><![CDATA[
.edge:hover path { stroke: red; }
.edge:hover polygon { stroke: red; fill: red; }
]]></style>
<script type="text/javascript"><![CDATA[
var edges = document.getElementsByTagName('g');
if (edges && edges.length) {
  for (var i=0;i<edges.length;i++) {
    if (edges[i].id.substr(0,4)=='edge') {
      edges[i].setAttribute('class','edge');
    }
  }
}
]]></script>
        <defs>
                <circle id="rim" cx="0" cy="0" r="7"/>
                <circle id="rim2" cx="0" cy="0" r="3.5"/>
                <g id="zoomPlus">
                        <use xlink:href="#rim" fill="#404040">
                                <set attributeName="fill" to="#808080" begin="zoomplus.mouseover" end="zoomplus.mouseout"/>
                        </use>
                        <path d="M-4,0h8M0,-4v8" fill="none" stroke="white" stroke-width="1.5" pointer-events="none"/>
                </g>
                <g id="zoomMin">
                        <use xlink:href="#rim" fill="#404040">
                                <set attributeName="fill" to="#808080" begin="zoomminus.mouseover" end="zoomminus.mouseout"/>
                        </use>
                        <path d="M-4,0h8" fill="none" stroke="white" stroke-width="1.5" pointer-events="none"/>
                </g>
                <g id="dirArrow">
                        <path fill="none" stroke="white" stroke-width="1.5" d="M0,-3.0v7 M-2.5,-0.5L0,-3.0L2.5,-0.5"/>
                </g>
               <g id="resetDef">
                       <use xlink:href="#rim2" fill="#404040">
                               <set attributeName="fill" to="#808080" begin="reset.mouseover" end="reset.mouseout"/>
                       </use>
               </g>
        </defs>

<script type="text/javascript">
var viewWidth = 705;
var viewHeight = 60;
var sectionId = 'dynsection-0';
</script>
<script xlink:href="svgpan.js"/>
<svg id="graph" class="graph">
<g id="viewport">
<title>Engine::NodeGraph::SenderNode&lt; Config, Algorithm, Arguments &gt;</title>
<!-- Node1 -->
<g id="node1" class="node">
<title>Node1</title>
<g id="a_node1"><a xlink:title=" ">
<polygon fill="#999999" stroke="#666666" points="697,-46.5 576,-46.5 576,-5.5 697,-5.5 697,-46.5"/>
<text text-anchor="start" x="584" y="-34.5" font-family="Helvetica,sans-Serif" font-size="10.00">Engine::NodeGraph::</text>
<text text-anchor="start" x="584" y="-23.5" font-family="Helvetica,sans-Serif" font-size="10.00">SenderNode&lt; Config,</text>
<text text-anchor="middle" x="636.5" y="-12.5" font-family="Helvetica,sans-Serif" font-size="10.00"> Algorithm, Arguments &gt;</text>
</a>
</g>
</g>
<!-- Node2 -->
<g id="node2" class="node">
<title>Node2</title>
<g id="a_node2"><a xlink:href="struct_engine_1_1_node_graph_1_1_node.html" target="_top" xlink:title=" ">
<polygon fill="white" stroke="#666666" points="540,-52 400,-52 400,0 540,0 540,-52"/>
<text text-anchor="start" x="408" y="-40" font-family="Helvetica,sans-Serif" font-size="10.00">Engine::NodeGraph::</text>
<text text-anchor="start" x="408" y="-29" font-family="Helvetica,sans-Serif" font-size="10.00">Node&lt; SenderNode&lt; Config,</text>
<text text-anchor="start" x="408" y="-18" font-family="Helvetica,sans-Serif" font-size="10.00"> Algorithm, Arguments...</text>
<text text-anchor="middle" x="470" y="-7" font-family="Helvetica,sans-Serif" font-size="10.00"> &gt;, AutoMaskNode&lt;&gt; &gt;</text>
</a>
</g>
</g>
<!-- Node2&#45;&gt;Node1 -->
<g id="edge1" class="edge">
<title>Node2&#45;&gt;Node1</title>
<path fill="none" stroke="#63b8ff" d="M551.67,-26C559.76,-26 567.86,-26 575.68,-26"/>
<polygon fill="#63b8ff" stroke="#63b8ff" points="551.8,-22.5 541.8,-26 551.8,-29.5 551.8,-22.5"/>
</g>
<!-- Node3 -->
<g id="node3" class="node">
<title>Node3</title>
<g id="a_node3"><a xlink:href="struct_engine_1_1_serialize_1_1_virtual_data.html" target="_top" xlink:title=" ">
<polygon fill="white" stroke="#666666" points="364,-41 244,-41 244,-11 364,-11 364,-41"/>
<text text-anchor="start" x="252" y="-29" font-family="Helvetica,sans-Serif" font-size="10.00">Engine::Serialize::</text>
<text text-anchor="middle" x="304" y="-18" font-family="Helvetica,sans-Serif" font-size="10.00">VirtualData&lt; T, _Base &gt;</text>
</a>
</g>
</g>
<!-- Node3&#45;&gt;Node2 -->
<g id="edge2" class="edge">
<title>Node3&#45;&gt;Node2</title>
<path fill="none" stroke="#63b8ff" d="M375.67,-26C383.59,-26 391.65,-26 399.55,-26"/>
<polygon fill="#63b8ff" stroke="#63b8ff" points="375.72,-22.5 365.72,-26 375.72,-29.5 375.72,-22.5"/>
</g>
<!-- Node4 -->
<g id="node4" class="node">
<title>Node4</title>
<g id="a_node4"><a xlink:href="struct_engine_1_1_serialize_1_1_virtual_serializable_data_base.html" target="_top" xlink:title=" ">
<polygon fill="white" stroke="#666666" points="208,-46.5 71,-46.5 71,-5.5 208,-5.5 208,-46.5"/>
<text text-anchor="start" x="79" y="-34.5" font-family="Helvetica,sans-Serif" font-size="10.00">Engine::Serialize::</text>
<text text-anchor="start" x="79" y="-23.5" font-family="Helvetica,sans-Serif" font-size="10.00">VirtualSerializableDataBase</text>
<text text-anchor="middle" x="139.5" y="-12.5" font-family="Helvetica,sans-Serif" font-size="10.00">&lt; _Base &gt;</text>
</a>
</g>
</g>
<!-- Node4&#45;&gt;Node3 -->
<g id="edge3" class="edge">
<title>Node4&#45;&gt;Node3</title>
<path fill="none" stroke="#63b8ff" d="M219.75,-26C227.77,-26 235.81,-26 243.56,-26"/>
<polygon fill="#63b8ff" stroke="#63b8ff" points="219.99,-22.5 209.99,-26 219.99,-29.5 219.99,-22.5"/>
</g>
<!-- Node5 -->
<g id="node5" class="node">
<title>Node5</title>
<g id="a_node5"><a xlink:href="classvoid.html" target="_top" xlink:title=" ">
<polygon fill="white" stroke="#666666" points="35,-35.5 0,-35.5 0,-16.5 35,-16.5 35,-35.5"/>
<text text-anchor="middle" x="17.5" y="-23.5" font-family="Helvetica,sans-Serif" font-size="10.00">void</text>
</a>
</g>
</g>
<!-- Node5&#45;&gt;Node4 -->
<g id="edge4" class="edge">
<title>Node5&#45;&gt;Node4</title>
<path fill="none" stroke="#63b8ff" d="M46.74,-26C54.01,-26 62.17,-26 70.53,-26"/>
<polygon fill="#63b8ff" stroke="#63b8ff" points="46.95,-22.5 36.95,-26 46.95,-29.5 46.95,-22.5"/>
</g>
</g>
</svg>
        <g id="navigator" transform="translate(0 0)" fill="#404254">
                <rect fill="#f2f5e9" fill-opacity="0.5" stroke="#606060" stroke-width=".5" x="0" y="0" width="60" height="60"/>
                <use id="zoomplus" xlink:href="#zoomPlus" x="17" y="9" onmousedown="handleZoom(evt,'in')"/>
                <use id="zoomminus" xlink:href="#zoomMin" x="42" y="9" onmousedown="handleZoom(evt,'out')"/>
                <use id="reset" xlink:href="#resetDef" x="30" y="36" onmousedown="handleReset()"/>
                <g id="arrowUp" xlink:href="#dirArrow" transform="translate(30 24)" onmousedown="handlePan(0,-1)">
                  <use xlink:href="#rim" fill="#404040">
                        <set attributeName="fill" to="#808080" begin="arrowUp.mouseover" end="arrowUp.mouseout"/>
                  </use>
                  <path fill="none" stroke="white" stroke-width="1.5" d="M0,-3.0v7 M-2.5,-0.5L0,-3.0L2.5,-0.5"/>
                </g>
                <g id="arrowRight" xlink:href="#dirArrow" transform="rotate(90) translate(36 -43)" onmousedown="handlePan(1,0)">
                  <use xlink:href="#rim" fill="#404040">
                        <set attributeName="fill" to="#808080" begin="arrowRight.mouseover" end="arrowRight.mouseout"/>
                  </use>
                  <path fill="none" stroke="white" stroke-width="1.5" d="M0,-3.0v7 M-2.5,-0.5L0,-3.0L2.5,-0.5"/>
                </g>
                <g id="arrowDown" xlink:href="#dirArrow" transform="rotate(180) translate(-30 -48)" onmousedown="handlePan(0,1)">
                  <use xlink:href="#rim" fill="#404040">
                        <set attributeName="fill" to="#808080" begin="arrowDown.mouseover" end="arrowDown.mouseout"/>
                  </use>
                  <path fill="none" stroke="white" stroke-width="1.5" d="M0,-3.0v7 M-2.5,-0.5L0,-3.0L2.5,-0.5"/>
                </g>
                <g id="arrowLeft" xlink:href="#dirArrow" transform="rotate(270) translate(-36 17)" onmousedown="handlePan(-1,0)">
                  <use xlink:href="#rim" fill="#404040">
                        <set attributeName="fill" to="#808080" begin="arrowLeft.mouseover" end="arrowLeft.mouseout"/>
                  </use>
                  <path fill="none" stroke="white" stroke-width="1.5" d="M0,-3.0v7 M-2.5,-0.5L0,-3.0L2.5,-0.5"/>
                </g>
        </g>
        <svg viewBox="0 0 15 15" width="100%" height="30px" preserveAspectRatio="xMaxYMin meet">
         <g id="arrow_out" transform="scale(0.3 0.3)">
          <a xlink:href="struct_engine_1_1_node_graph_1_1_sender_node__inherit__graph_org.svg" target="_base">
           <rect id="button" ry="5" rx="5" y="6" x="6" height="38" width="38"
                fill="#f2f5e9" fill-opacity="0.5" stroke="#606060" stroke-width="1.0"/>
           <path id="arrow"
             d="M 11.500037,31.436501 C 11.940474,20.09759 22.043105,11.32322 32.158766,21.979434 L 37.068811,17.246167 C 37.068811,17.246167 37.088388,32 37.088388,32 L 22.160133,31.978069 C 22.160133,31.978069 26.997745,27.140456 26.997745,27.140456 C 18.528582,18.264221 13.291696,25.230495 11.500037,31.436501 z"
             style="fill:#404040;"/>
          </a>
         </g>
        </svg>
</svg>
