<?xml version="1.0" encoding="UTF-8" standalone="no"?>
<!DOCTYPE svg PUBLIC "-//W3C//DTD SVG 1.1//EN"
 "http://www.w3.org/Graphics/SVG/1.1/DTD/svg11.dtd">
<!-- Generated by graphviz version 7.0.5 (20221223.1930)
 -->
<!-- Title: Engine::Serialize::Serializable&lt; OffsetPtr &gt; Pages: 1 -->
<svg width="643pt" height="179pt"
 viewBox="0.00 0.00 643.00 178.50" xmlns="http://www.w3.org/2000/svg" xmlns:xlink="http://www.w3.org/1999/xlink">
<g id="graph0" class="graph" transform="scale(1 1) rotate(0) translate(4 174.5)">
<title>Engine::Serialize::Serializable&lt; OffsetPtr &gt;</title>
<!-- Node1 -->
<g id="node1" class="node">
<title>Node1</title>
<g id="a_node1"><a xlink:title=" ">
<polygon fill="#999999" stroke="#666666" points="250,-94.5 128,-94.5 128,-64.5 250,-64.5 250,-94.5"/>
<text text-anchor="start" x="136" y="-82.5" font-family="Helvetica,sans-Serif" font-size="10.00">Engine::Serialize::</text>
<text text-anchor="middle" x="189" y="-71.5" font-family="Helvetica,sans-Serif" font-size="10.00">Serializable&lt; OffsetPtr &gt;</text>
</a>
</g>
</g>
<!-- Node3 -->
<g id="node3" class="node">
<title>Node3</title>
<g id="a_node3"><a xlink:href="struct_engine_1_1_serialize_1_1_serializable_container_impl.html" target="_top" xlink:title=" ">
<polygon fill="white" stroke="#666666" points="470,-170.5 286,-170.5 286,-118.5 470,-118.5 470,-170.5"/>
<text text-anchor="start" x="294" y="-158.5" font-family="Helvetica,sans-Serif" font-size="10.00">Engine::Serialize::</text>
<text text-anchor="start" x="294" y="-147.5" font-family="Helvetica,sans-Serif" font-size="10.00">SerializableContainerImpl</text>
<text text-anchor="start" x="294" y="-136.5" font-family="Helvetica,sans-Serif" font-size="10.00">&lt; C, NoOpFunctor, TaggedPlaceholder</text>
<text text-anchor="middle" x="378" y="-125.5" font-family="Helvetica,sans-Serif" font-size="10.00">&lt; MemberOffsetPtrTag, 0 &gt; &gt;</text>
</a>
</g>
</g>
<!-- Node1&#45;&gt;Node3 -->
<g id="edge2" class="edge">
<title>Node1&#45;&gt;Node3</title>
<path fill="none" stroke="#63b8ff" d="M244.9,-98.58C262.4,-104.67 282.09,-111.51 300.82,-118.02"/>
<polygon fill="#63b8ff" stroke="#63b8ff" points="246.34,-95.38 235.75,-95.4 244.04,-101.99 246.34,-95.38"/>
</g>
<!-- Node4 -->
<g id="node4" class="node">
<title>Node4</title>
<g id="a_node4"><a xlink:href="struct_engine_1_1_serialize_1_1_serializable_container_impl.html" target="_top" xlink:title=" ">
<polygon fill="white" stroke="#666666" points="442.5,-100 313.5,-100 313.5,-59 442.5,-59 442.5,-100"/>
<text text-anchor="start" x="321.5" y="-88" font-family="Helvetica,sans-Serif" font-size="10.00">Engine::Serialize::</text>
<text text-anchor="start" x="321.5" y="-77" font-family="Helvetica,sans-Serif" font-size="10.00">SerializableContainerImpl</text>
<text text-anchor="middle" x="378" y="-66" font-family="Helvetica,sans-Serif" font-size="10.00">&lt; C, Observer, OffsetPtr &gt;</text>
</a>
</g>
</g>
<!-- Node1&#45;&gt;Node4 -->
<g id="edge3" class="edge">
<title>Node1&#45;&gt;Node4</title>
<path fill="none" stroke="#63b8ff" d="M261.96,-79.5C278.84,-79.5 296.71,-79.5 313.21,-79.5"/>
<polygon fill="#63b8ff" stroke="#63b8ff" points="261.97,-76 251.97,-79.5 261.97,-83 261.97,-76"/>
</g>
<!-- Node6 -->
<g id="node6" class="node">
<title>Node6</title>
<g id="a_node6"><a xlink:href="struct_engine_1_1_serialize_1_1_synced.html" target="_top" xlink:title=" ">
<polygon fill="white" stroke="#666666" points="433.5,-41 322.5,-41 322.5,0 433.5,0 433.5,-41"/>
<text text-anchor="start" x="330.5" y="-29" font-family="Helvetica,sans-Serif" font-size="10.00">Engine::Serialize::</text>
<text text-anchor="start" x="330.5" y="-18" font-family="Helvetica,sans-Serif" font-size="10.00">Synced&lt; T, Observer,</text>
<text text-anchor="middle" x="378" y="-7" font-family="Helvetica,sans-Serif" font-size="10.00"> OffsetPtr &gt;</text>
</a>
</g>
</g>
<!-- Node1&#45;&gt;Node6 -->
<g id="edge5" class="edge">
<title>Node1&#45;&gt;Node6</title>
<path fill="none" stroke="#63b8ff" d="M249.47,-60.74C272.82,-53.37 299.46,-44.96 322.33,-37.75"/>
<polygon fill="#63b8ff" stroke="#63b8ff" points="248.57,-57.35 240.09,-63.7 250.68,-64.03 248.57,-57.35"/>
</g>
<!-- Node2 -->
<g id="node2" class="node">
<title>Node2</title>
<g id="a_node2"><a xlink:href="struct_engine_1_1_serialize_1_1_serializable_base.html" target="_top" xlink:title=" ">
<polygon fill="white" stroke="#666666" points="92,-94.5 0,-94.5 0,-64.5 92,-64.5 92,-94.5"/>
<text text-anchor="start" x="8" y="-82.5" font-family="Helvetica,sans-Serif" font-size="10.00">Engine::Serialize::</text>
<text text-anchor="middle" x="46" y="-71.5" font-family="Helvetica,sans-Serif" font-size="10.00">SerializableBase</text>
</a>
</g>
</g>
<!-- Node2&#45;&gt;Node1 -->
<g id="edge1" class="edge">
<title>Node2&#45;&gt;Node1</title>
<path fill="none" stroke="#63b8ff" d="M103.67,-79.5C111.52,-79.5 119.61,-79.5 127.52,-79.5"/>
<polygon fill="#63b8ff" stroke="#63b8ff" points="103.9,-76 93.9,-79.5 103.9,-83 103.9,-76"/>
</g>
<!-- Node5 -->
<g id="node5" class="node">
<title>Node5</title>
<g id="a_node5"><a xlink:href="struct_engine_1_1_serialize_1_1_syncable_container_impl.html" target="_top" xlink:title=" ">
<polygon fill="white" stroke="#666666" points="635,-100 506,-100 506,-59 635,-59 635,-100"/>
<text text-anchor="start" x="514" y="-88" font-family="Helvetica,sans-Serif" font-size="10.00">Engine::Serialize::</text>
<text text-anchor="start" x="514" y="-77" font-family="Helvetica,sans-Serif" font-size="10.00">SyncableContainerImpl</text>
<text text-anchor="middle" x="570.5" y="-66" font-family="Helvetica,sans-Serif" font-size="10.00">&lt; C, Observer, OffsetPtr &gt;</text>
</a>
</g>
</g>
<!-- Node4&#45;&gt;Node5 -->
<g id="edge4" class="edge">
<title>Node4&#45;&gt;Node5</title>
<path fill="none" stroke="#63b8ff" d="M454.04,-79.5C471.13,-79.5 489.13,-79.5 505.71,-79.5"/>
<polygon fill="#63b8ff" stroke="#63b8ff" points="454.48,-76 444.48,-79.5 454.48,-83 454.48,-76"/>
</g>
</g>
</svg>
