<?xml version="1.0" encoding="UTF-8" standalone="no"?>
<!DOCTYPE svg PUBLIC "-//W3C//DTD SVG 1.1//EN"
 "http://www.w3.org/Graphics/SVG/1.1/DTD/svg11.dtd">
<!-- Generated by graphviz version 7.0.5 (20221223.1930)
 -->
<!-- Title: Engine::UniqueComponent::CollectorInfoBase Pages: 1 -->
<svg width="163pt" height="192pt"
 viewBox="0.00 0.00 163.00 192.00" xmlns="http://www.w3.org/2000/svg" xmlns:xlink="http://www.w3.org/1999/xlink">
<g id="graph0" class="graph" transform="scale(1 1) rotate(0) translate(4 188)">
<title>Engine::UniqueComponent::CollectorInfoBase</title>
<!-- Node1 -->
<g id="node1" class="node">
<title>Node1</title>
<g id="a_node1"><a xlink:title=" ">
<polygon fill="#999999" stroke="#666666" points="143,-184 12,-184 12,-154 143,-154 143,-184"/>
<text text-anchor="start" x="20" y="-172" font-family="Helvetica,sans-Serif" font-size="10.00">Engine::UniqueComponent</text>
<text text-anchor="middle" x="77.5" y="-161" font-family="Helvetica,sans-Serif" font-size="10.00">::CollectorInfoBase</text>
</a>
</g>
</g>
<!-- Node2 -->
<g id="node2" class="node">
<title>Node2</title>
<g id="a_node2"><a xlink:href="struct_engine_1_1_unique_component_1_1_registry_1_1_collector_info.html" target="_top" xlink:title=" ">
<polygon fill="white" stroke="#666666" points="155,-118 0,-118 0,-77 155,-77 155,-118"/>
<text text-anchor="start" x="8" y="-106" font-family="Helvetica,sans-Serif" font-size="10.00">Engine::UniqueComponent</text>
<text text-anchor="start" x="8" y="-95" font-family="Helvetica,sans-Serif" font-size="10.00">::Registry&lt; _Base, _Annotations</text>
<text text-anchor="middle" x="77.5" y="-84" font-family="Helvetica,sans-Serif" font-size="10.00"> &gt;::CollectorInfo</text>
</a>
</g>
</g>
<!-- Node1&#45;&gt;Node2 -->
<g id="edge1" class="edge">
<title>Node1&#45;&gt;Node2</title>
<path fill="none" stroke="#63b8ff" d="M77.5,-142.36C77.5,-134.45 77.5,-125.87 77.5,-118.42"/>
<polygon fill="#63b8ff" stroke="#63b8ff" points="74,-142.09 77.5,-152.09 81,-142.09 74,-142.09"/>
</g>
<!-- Node3 -->
<g id="node3" class="node">
<title>Node3</title>
<g id="a_node3"><a xlink:href="struct_engine_1_1_unique_component_1_1_named_registry_1_1_collector_info.html" target="_top" xlink:title=" ">
<polygon fill="white" stroke="#666666" points="149,-41 6,-41 6,0 149,0 149,-41"/>
<text text-anchor="start" x="14" y="-29" font-family="Helvetica,sans-Serif" font-size="10.00">Engine::UniqueComponent</text>
<text text-anchor="start" x="14" y="-18" font-family="Helvetica,sans-Serif" font-size="10.00">::NamedRegistry&lt; _Base,</text>
<text text-anchor="middle" x="77.5" y="-7" font-family="Helvetica,sans-Serif" font-size="10.00"> _Annotations &gt;::CollectorInfo</text>
</a>
</g>
</g>
<!-- Node2&#45;&gt;Node3 -->
<g id="edge2" class="edge">
<title>Node2&#45;&gt;Node3</title>
<path fill="none" stroke="#63b8ff" d="M77.5,-65.36C77.5,-57.24 77.5,-48.7 77.5,-41.33"/>
<polygon fill="#63b8ff" stroke="#63b8ff" points="74,-65.28 77.5,-75.28 81,-65.28 74,-65.28"/>
</g>
</g>
</svg>
