<?xml version="1.0" encoding="UTF-8" standalone="no"?>
<!DOCTYPE svg PUBLIC "-//W3C//DTD SVG 1.1//EN"
 "http://www.w3.org/Graphics/SVG/1.1/DTD/svg11.dtd">
<!-- Generated by graphviz version 7.0.5 (20221223.1930)
 -->
<!-- Title: Engine::Execution::algorithm_receiver&lt; Rec &gt; Pages: 1 -->
<svg width="303pt" height="914pt"
 viewBox="0.00 0.00 303.00 914.00" xmlns="http://www.w3.org/2000/svg" xmlns:xlink="http://www.w3.org/1999/xlink">
<g id="graph0" class="graph" transform="scale(1 1) rotate(0) translate(4 910)">
<title>Engine::Execution::algorithm_receiver&lt; Rec &gt;</title>
<!-- Node1 -->
<g id="node1" class="node">
<title>Node1</title>
<g id="a_node1"><a xlink:title=" ">
<polygon fill="#999999" stroke="#666666" points="130,-460.5 0,-460.5 0,-430.5 130,-430.5 130,-460.5"/>
<text text-anchor="start" x="8" y="-448.5" font-family="Helvetica,sans-Serif" font-size="10.00">Engine::Execution::</text>
<text text-anchor="middle" x="65" y="-437.5" font-family="Helvetica,sans-Serif" font-size="10.00">algorithm_receiver&lt; Rec &gt;</text>
</a>
</g>
</g>
<!-- Node2 -->
<g id="node2" class="node">
<title>Node2</title>
<g id="a_node2"><a xlink:href="struct_engine_1_1_resources_1_1with__handle__t_1_1receiver.html" target="_top" xlink:title=" ">
<polygon fill="white" stroke="#666666" points="288.5,-906 172.5,-906 172.5,-865 288.5,-865 288.5,-906"/>
<text text-anchor="start" x="180.5" y="-894" font-family="Helvetica,sans-Serif" font-size="10.00">Engine::Resources::</text>
<text text-anchor="start" x="180.5" y="-883" font-family="Helvetica,sans-Serif" font-size="10.00">with_handle_t::receiver</text>
<text text-anchor="middle" x="230.5" y="-872" font-family="Helvetica,sans-Serif" font-size="10.00">&lt; _Rec, Handle &gt;</text>
</a>
</g>
</g>
<!-- Node1&#45;&gt;Node2 -->
<g id="edge1" class="edge">
<title>Node1&#45;&gt;Node2</title>
<path fill="none" stroke="#63b8ff" d="M69.4,-472.01C80.25,-553.17 116.33,-796.39 166,-856.5 168.47,-859.49 171.32,-862.19 174.4,-864.61"/>
<polygon fill="#63b8ff" stroke="#63b8ff" points="72.87,-471.59 68.1,-462.13 65.93,-472.5 72.87,-471.59"/>
</g>
<!-- Node3 -->
<g id="node3" class="node">
<title>Node3</title>
<g id="a_node3"><a xlink:href="struct_engine_1_1_debug_1_1debug__channel__t_1_1receiver.html" target="_top" xlink:title=" ">
<polygon fill="white" stroke="#666666" points="285,-847 176,-847 176,-806 285,-806 285,-847"/>
<text text-anchor="start" x="184" y="-835" font-family="Helvetica,sans-Serif" font-size="10.00">Engine::Debug::debug</text>
<text text-anchor="start" x="184" y="-824" font-family="Helvetica,sans-Serif" font-size="10.00">_channel_t::receiver</text>
<text text-anchor="middle" x="230.5" y="-813" font-family="Helvetica,sans-Serif" font-size="10.00">&lt; Rec &gt;</text>
</a>
</g>
</g>
<!-- Node1&#45;&gt;Node3 -->
<g id="edge2" class="edge">
<title>Node1&#45;&gt;Node3</title>
<path fill="none" stroke="#63b8ff" d="M66.29,-472.41C68.4,-536.46 82.18,-699.91 166,-797.5 168.84,-800.81 172.14,-803.76 175.71,-806.39"/>
<polygon fill="#63b8ff" stroke="#63b8ff" points="69.8,-472.39 66.05,-462.48 62.8,-472.57 69.8,-472.39"/>
</g>
<!-- Node4 -->
<g id="node4" class="node">
<title>Node4</title>
<g id="a_node4"><a xlink:href="struct_engine_1_1_execution_1_1_variable__t_1_1receiver.html" target="_top" xlink:title=" ">
<polygon fill="white" stroke="#666666" points="295,-788 166,-788 166,-747 295,-747 295,-788"/>
<text text-anchor="start" x="174" y="-776" font-family="Helvetica,sans-Serif" font-size="10.00">Engine::Execution::</text>
<text text-anchor="start" x="174" y="-765" font-family="Helvetica,sans-Serif" font-size="10.00">Variable_t::receiver</text>
<text text-anchor="middle" x="230.5" y="-754" font-family="Helvetica,sans-Serif" font-size="10.00">&lt; Name, Rec, Sender, T &gt;</text>
</a>
</g>
</g>
<!-- Node1&#45;&gt;Node4 -->
<g id="edge3" class="edge">
<title>Node1&#45;&gt;Node4</title>
<path fill="none" stroke="#63b8ff" d="M68.11,-472.03C73.91,-528.06 94.74,-659.77 166,-738.5 168.68,-741.47 171.73,-744.15 175,-746.57"/>
<polygon fill="#63b8ff" stroke="#63b8ff" points="71.61,-471.8 67.18,-462.18 64.64,-472.46 71.61,-471.8"/>
</g>
<!-- Node5 -->
<g id="node5" class="node">
<title>Node5</title>
<g id="a_node5"><a xlink:href="struct_engine_1_1_execution_1_1assign__t_1_1receiver.html" target="_top" xlink:title=" ">
<polygon fill="white" stroke="#666666" points="279.5,-729 181.5,-729 181.5,-688 279.5,-688 279.5,-729"/>
<text text-anchor="start" x="189.5" y="-717" font-family="Helvetica,sans-Serif" font-size="10.00">Engine::Execution::</text>
<text text-anchor="start" x="189.5" y="-706" font-family="Helvetica,sans-Serif" font-size="10.00">assign_t::receiver&lt;</text>
<text text-anchor="middle" x="230.5" y="-695" font-family="Helvetica,sans-Serif" font-size="10.00"> Rec, Sender, T &gt;</text>
</a>
</g>
</g>
<!-- Node1&#45;&gt;Node5 -->
<g id="edge4" class="edge">
<title>Node1&#45;&gt;Node5</title>
<path fill="none" stroke="#63b8ff" d="M70.76,-471.84C80.57,-519.18 107.25,-619.29 166,-679.5 170.4,-684.01 175.63,-687.89 181.18,-691.2"/>
<polygon fill="#63b8ff" stroke="#63b8ff" points="74.23,-471.36 68.86,-462.23 67.36,-472.72 74.23,-471.36"/>
</g>
<!-- Node6 -->
<g id="node6" class="node">
<title>Node6</title>
<g id="a_node6"><a xlink:href="struct_engine_1_1_execution_1_1finally__t_1_1receiver.html" target="_top" xlink:title=" ">
<polygon fill="white" stroke="#666666" points="279,-670 182,-670 182,-629 279,-629 279,-670"/>
<text text-anchor="start" x="190" y="-658" font-family="Helvetica,sans-Serif" font-size="10.00">Engine::Execution::</text>
<text text-anchor="start" x="190" y="-647" font-family="Helvetica,sans-Serif" font-size="10.00">finally_t::receiver</text>
<text text-anchor="middle" x="230.5" y="-636" font-family="Helvetica,sans-Serif" font-size="10.00">&lt; Rec, F &gt;</text>
</a>
</g>
</g>
<!-- Node1&#45;&gt;Node6 -->
<g id="edge5" class="edge">
<title>Node1&#45;&gt;Node6</title>
<path fill="none" stroke="#63b8ff" d="M74.93,-471.45C88.98,-508.85 119.52,-578.05 166,-620.5 170.65,-624.75 176.04,-628.47 181.66,-631.7"/>
<polygon fill="#63b8ff" stroke="#63b8ff" points="78.33,-470.55 71.62,-462.35 71.75,-472.95 78.33,-470.55"/>
</g>
<!-- Node7 -->
<g id="node7" class="node">
<title>Node7</title>
<g id="a_node7"><a xlink:href="struct_engine_1_1_execution_1_1on_error__t_1_1receiver.html" target="_top" xlink:title=" ">
<polygon fill="white" stroke="#666666" points="279,-611 182,-611 182,-570 279,-570 279,-611"/>
<text text-anchor="start" x="190" y="-599" font-family="Helvetica,sans-Serif" font-size="10.00">Engine::Execution::</text>
<text text-anchor="start" x="190" y="-588" font-family="Helvetica,sans-Serif" font-size="10.00">onError_t::receiver</text>
<text text-anchor="middle" x="230.5" y="-577" font-family="Helvetica,sans-Serif" font-size="10.00">&lt; Rec, T &gt;</text>
</a>
</g>
</g>
<!-- Node1&#45;&gt;Node7 -->
<g id="edge6" class="edge">
<title>Node1&#45;&gt;Node7</title>
<path fill="none" stroke="#63b8ff" d="M82.47,-470.27C100.49,-495.84 131.46,-535.57 166,-561.5 170.85,-565.14 176.22,-568.46 181.74,-571.45"/>
<polygon fill="#63b8ff" stroke="#63b8ff" points="85.42,-468.38 76.86,-462.14 79.66,-472.36 85.42,-468.38"/>
</g>
<!-- Node8 -->
<g id="node8" class="node">
<title>Node8</title>
<g id="a_node8"><a xlink:href="struct_engine_1_1_execution_1_1repeat__t_1_1receiver.html" target="_top" xlink:title=" ">
<polygon fill="white" stroke="#666666" points="279,-552 182,-552 182,-511 279,-511 279,-552"/>
<text text-anchor="start" x="190" y="-540" font-family="Helvetica,sans-Serif" font-size="10.00">Engine::Execution::</text>
<text text-anchor="start" x="190" y="-529" font-family="Helvetica,sans-Serif" font-size="10.00">repeat_t::receiver&lt;</text>
<text text-anchor="middle" x="230.5" y="-518" font-family="Helvetica,sans-Serif" font-size="10.00"> Rec, Sender &gt;</text>
</a>
</g>
</g>
<!-- Node1&#45;&gt;Node8 -->
<g id="edge7" class="edge">
<title>Node1&#45;&gt;Node8</title>
<path fill="none" stroke="#63b8ff" d="M101.25,-466.62C120.22,-477.72 144.14,-491.31 166,-502.5 171.29,-505.21 176.87,-507.94 182.46,-510.59"/>
<polygon fill="#63b8ff" stroke="#63b8ff" points="103.25,-463.73 92.86,-461.68 99.7,-469.77 103.25,-463.73"/>
</g>
<!-- Node9 -->
<g id="node9" class="node">
<title>Node9</title>
<g id="a_node9"><a xlink:href="struct_engine_1_1_execution_1_1then__promise__t_1_1receiver.html" target="_top" xlink:title=" ">
<polygon fill="white" stroke="#666666" points="291.5,-493 169.5,-493 169.5,-452 291.5,-452 291.5,-493"/>
<text text-anchor="start" x="177.5" y="-481" font-family="Helvetica,sans-Serif" font-size="10.00">Engine::Execution::</text>
<text text-anchor="start" x="177.5" y="-470" font-family="Helvetica,sans-Serif" font-size="10.00">then_promise_t::receiver</text>
<text text-anchor="middle" x="230.5" y="-459" font-family="Helvetica,sans-Serif" font-size="10.00">&lt; Rec, P &gt;</text>
</a>
</g>
</g>
<!-- Node1&#45;&gt;Node9 -->
<g id="edge8" class="edge">
<title>Node1&#45;&gt;Node9</title>
<path fill="none" stroke="#63b8ff" d="M141.36,-457.95C150.63,-459.48 160,-461.02 169.01,-462.51"/>
<polygon fill="#63b8ff" stroke="#63b8ff" points="142.08,-454.52 131.64,-456.34 140.94,-461.42 142.08,-454.52"/>
</g>
<!-- Node10 -->
<g id="node10" class="node">
<title>Node10</title>
<g id="a_node10"><a xlink:href="struct_engine_1_1_execution_1_1then__t_1_1receiver.html" target="_top" xlink:title=" ">
<polygon fill="white" stroke="#666666" points="294.5,-433.5 166.5,-433.5 166.5,-403.5 294.5,-403.5 294.5,-433.5"/>
<text text-anchor="start" x="174.5" y="-421.5" font-family="Helvetica,sans-Serif" font-size="10.00">Engine::Execution::</text>
<text text-anchor="middle" x="230.5" y="-410.5" font-family="Helvetica,sans-Serif" font-size="10.00">then_t::receiver&lt; Rec, T &gt;</text>
</a>
</g>
</g>
<!-- Node1&#45;&gt;Node10 -->
<g id="edge9" class="edge">
<title>Node1&#45;&gt;Node10</title>
<path fill="none" stroke="#63b8ff" d="M141.34,-433.06C149.61,-431.69 157.97,-430.31 166.07,-428.97"/>
<polygon fill="#63b8ff" stroke="#63b8ff" points="140.94,-429.58 131.64,-434.66 142.08,-436.48 140.94,-429.58"/>
</g>
<!-- Node11 -->
<g id="node11" class="node">
<title>Node11</title>
<g id="a_node11"><a xlink:href="struct_engine_1_1_execution_1_1to__result__t_1_1receiver.html" target="_top" xlink:title=" ">
<polygon fill="white" stroke="#666666" points="293,-385 168,-385 168,-344 293,-344 293,-385"/>
<text text-anchor="start" x="176" y="-373" font-family="Helvetica,sans-Serif" font-size="10.00">Engine::Execution::</text>
<text text-anchor="start" x="176" y="-362" font-family="Helvetica,sans-Serif" font-size="10.00">to_result_t&lt; R &gt;::receiver</text>
<text text-anchor="middle" x="230.5" y="-351" font-family="Helvetica,sans-Serif" font-size="10.00">&lt; Rec, Sender &gt;</text>
</a>
</g>
</g>
<!-- Node1&#45;&gt;Node11 -->
<g id="edge10" class="edge">
<title>Node1&#45;&gt;Node11</title>
<path fill="none" stroke="#63b8ff" d="M105.66,-424.93C123.96,-415.52 146.02,-404.31 166,-394.5 172.02,-391.54 178.38,-388.47 184.67,-385.47"/>
<polygon fill="#63b8ff" stroke="#63b8ff" points="104.27,-421.7 96.98,-429.4 107.47,-427.93 104.27,-421.7"/>
</g>
<!-- Node12 -->
<g id="node12" class="node">
<title>Node12</title>
<g id="a_node12"><a xlink:href="struct_engine_1_1_execution_1_1with__query__value__t_1_1receiver.html" target="_top" xlink:title=" ">
<polygon fill="white" stroke="#666666" points="291.5,-326 169.5,-326 169.5,-285 291.5,-285 291.5,-326"/>
<text text-anchor="start" x="177.5" y="-314" font-family="Helvetica,sans-Serif" font-size="10.00">Engine::Execution::</text>
<text text-anchor="start" x="177.5" y="-303" font-family="Helvetica,sans-Serif" font-size="10.00">with_query_value_t::</text>
<text text-anchor="middle" x="230.5" y="-292" font-family="Helvetica,sans-Serif" font-size="10.00">receiver&lt; Rec, CPO, T &gt;</text>
</a>
</g>
</g>
<!-- Node1&#45;&gt;Node12 -->
<g id="edge11" class="edge">
<title>Node1&#45;&gt;Node12</title>
<path fill="none" stroke="#63b8ff" d="M83.65,-421.04C102.06,-396.88 132.82,-360.06 166,-335.5 170.41,-332.24 175.23,-329.19 180.18,-326.39"/>
<polygon fill="#63b8ff" stroke="#63b8ff" points="80.86,-418.93 77.68,-429.03 86.47,-423.12 80.86,-418.93"/>
</g>
<!-- Node13 -->
<g id="node13" class="node">
<title>Node13</title>
<g id="a_node13"><a xlink:href="struct_engine_1_1_execution_1_1write__var__t_1_1receiver.html" target="_top" xlink:title=" ">
<polygon fill="white" stroke="#666666" points="282.5,-267 178.5,-267 178.5,-226 282.5,-226 282.5,-267"/>
<text text-anchor="start" x="186.5" y="-255" font-family="Helvetica,sans-Serif" font-size="10.00">Engine::Execution::</text>
<text text-anchor="start" x="186.5" y="-244" font-family="Helvetica,sans-Serif" font-size="10.00">write_var_t::receiver</text>
<text text-anchor="middle" x="230.5" y="-233" font-family="Helvetica,sans-Serif" font-size="10.00">&lt; Name, Rec &gt;</text>
</a>
</g>
</g>
<!-- Node1&#45;&gt;Node13 -->
<g id="edge12" class="edge">
<title>Node1&#45;&gt;Node13</title>
<path fill="none" stroke="#63b8ff" d="M75.54,-419.78C90.09,-383.6 120.98,-317.52 166,-276.5 169.7,-273.13 173.84,-270.08 178.18,-267.31"/>
<polygon fill="#63b8ff" stroke="#63b8ff" points="72.32,-418.41 71.94,-429 78.84,-420.95 72.32,-418.41"/>
</g>
<!-- Node14 -->
<g id="node14" class="node">
<title>Node14</title>
<g id="a_node14"><a xlink:href="struct_engine_1_1_interval_clock_1_1receiver.html" target="_top" xlink:title=" ">
<polygon fill="white" stroke="#666666" points="288,-208 173,-208 173,-167 288,-167 288,-208"/>
<text text-anchor="start" x="181" y="-196" font-family="Helvetica,sans-Serif" font-size="10.00">Engine::IntervalClock</text>
<text text-anchor="start" x="181" y="-185" font-family="Helvetica,sans-Serif" font-size="10.00">&lt; Timepoint &gt;::receiver</text>
<text text-anchor="middle" x="230.5" y="-174" font-family="Helvetica,sans-Serif" font-size="10.00">&lt; Rec &gt;</text>
</a>
</g>
</g>
<!-- Node1&#45;&gt;Node14 -->
<g id="edge13" class="edge">
<title>Node1&#45;&gt;Node14</title>
<path fill="none" stroke="#63b8ff" d="M71.24,-418.93C81.66,-372.53 109.02,-276.1 166,-217.5 169.23,-214.18 172.9,-211.18 176.81,-208.49"/>
<polygon fill="#63b8ff" stroke="#63b8ff" points="67.84,-418.12 69.17,-428.63 74.68,-419.59 67.84,-418.12"/>
</g>
<!-- Node15 -->
<g id="node15" class="node">
<title>Node15</title>
<g id="a_node15"><a xlink:href="struct_engine_1_1_log_1_1log__result__t_1_1receiver.html" target="_top" xlink:title=" ">
<polygon fill="white" stroke="#666666" points="287,-148.5 174,-148.5 174,-118.5 287,-118.5 287,-148.5"/>
<text text-anchor="start" x="182" y="-136.5" font-family="Helvetica,sans-Serif" font-size="10.00">Engine::Log::log_result</text>
<text text-anchor="middle" x="230.5" y="-125.5" font-family="Helvetica,sans-Serif" font-size="10.00">_t::receiver&lt; Rec &gt;</text>
</a>
</g>
</g>
<!-- Node1&#45;&gt;Node15 -->
<g id="edge14" class="edge">
<title>Node1&#45;&gt;Node15</title>
<path fill="none" stroke="#63b8ff" d="M68,-418.82C73.56,-363.12 93.94,-233.48 166,-158.5 169.53,-154.83 173.67,-151.68 178.1,-148.99"/>
<polygon fill="#63b8ff" stroke="#63b8ff" points="64.53,-418.35 67.11,-428.62 71.5,-418.98 64.53,-418.35"/>
</g>
<!-- Node16 -->
<g id="node16" class="node">
<title>Node16</title>
<g id="a_node16"><a xlink:href="struct_engine_1_1_resources_1_1with__handle__t_1_1receiver.html" target="_top" xlink:title=" ">
<polygon fill="white" stroke="#666666" points="288.5,-100 172.5,-100 172.5,-59 288.5,-59 288.5,-100"/>
<text text-anchor="start" x="180.5" y="-88" font-family="Helvetica,sans-Serif" font-size="10.00">Engine::Resources::</text>
<text text-anchor="start" x="180.5" y="-77" font-family="Helvetica,sans-Serif" font-size="10.00">with_handle_t::receiver</text>
<text text-anchor="middle" x="230.5" y="-66" font-family="Helvetica,sans-Serif" font-size="10.00">&lt; Rec, Handle &gt;</text>
</a>
</g>
</g>
<!-- Node1&#45;&gt;Node16 -->
<g id="edge15" class="edge">
<title>Node1&#45;&gt;Node16</title>
<path fill="none" stroke="#63b8ff" d="M66.82,-418.62C70.09,-356.74 86.26,-202.39 166,-109.5 168.94,-106.08 172.35,-103.02 176.05,-100.29"/>
<polygon fill="#63b8ff" stroke="#63b8ff" points="63.33,-418.39 66.38,-428.53 70.32,-418.7 63.33,-418.39"/>
</g>
<!-- Node17 -->
<g id="node17" class="node">
<title>Node17</title>
<g id="a_node17"><a xlink:href="struct_engine_1_1with__binding__t_1_1receiver.html" target="_top" xlink:title=" ">
<polygon fill="white" stroke="#666666" points="284,-41 177,-41 177,0 284,0 284,-41"/>
<text text-anchor="start" x="185" y="-29" font-family="Helvetica,sans-Serif" font-size="10.00">Engine::with_binding</text>
<text text-anchor="start" x="185" y="-18" font-family="Helvetica,sans-Serif" font-size="10.00">_t&lt; Name &gt;::receiver</text>
<text text-anchor="middle" x="230.5" y="-7" font-family="Helvetica,sans-Serif" font-size="10.00">&lt; Rec, F &gt;</text>
</a>
</g>
</g>
<!-- Node1&#45;&gt;Node17 -->
<g id="edge16" class="edge">
<title>Node1&#45;&gt;Node17</title>
<path fill="none" stroke="#63b8ff" d="M65.35,-418.75C65.1,-349.67 73.52,-162.84 166,-50.5 169.1,-46.73 172.78,-43.41 176.79,-40.49"/>
<polygon fill="#63b8ff" stroke="#63b8ff" points="61.85,-418.77 65.47,-428.72 68.85,-418.69 61.85,-418.77"/>
</g>
</g>
</svg>
