<?xml version="1.0" encoding="UTF-8" standalone="no"?>
<!DOCTYPE svg PUBLIC "-//W3C//DTD SVG 1.1//EN"
 "http://www.w3.org/Graphics/SVG/1.1/DTD/svg11.dtd">
<!-- Generated by graphviz version 7.0.5 (20221223.1930)
 -->
<!-- Title: Engine::Debug::SenderLocation Pages: 1 -->
<svg width="159pt" height="137pt"
 viewBox="0.00 0.00 159.00 137.00" xmlns="http://www.w3.org/2000/svg" xmlns:xlink="http://www.w3.org/1999/xlink">
<g id="graph0" class="graph" transform="scale(1 1) rotate(0) translate(4 133)">
<title>Engine::Debug::SenderLocation</title>
<!-- Node1 -->
<g id="node1" class="node">
<title>Node1</title>
<g id="a_node1"><a xlink:title=" ">
<polygon fill="#999999" stroke="#666666" points="151,-19 0,-19 0,0 151,0 151,-19"/>
<text text-anchor="middle" x="75.5" y="-7" font-family="Helvetica,sans-Serif" font-size="10.00">Engine::Debug::SenderLocation</text>
</a>
</g>
</g>
<!-- Node2 -->
<g id="node2" class="node">
<title>Node2</title>
<g id="a_node2"><a xlink:href="struct_engine_1_1_debug_1_1_debug_location.html" target="_top" xlink:title=" ">
<polygon fill="white" stroke="#666666" points="149.5,-74 1.5,-74 1.5,-55 149.5,-55 149.5,-74"/>
<text text-anchor="middle" x="75.5" y="-62" font-family="Helvetica,sans-Serif" font-size="10.00">Engine::Debug::DebugLocation</text>
</a>
</g>
</g>
<!-- Node2&#45;&gt;Node1 -->
<g id="edge1" class="edge">
<title>Node2&#45;&gt;Node1</title>
<path fill="none" stroke="#63b8ff" d="M75.5,-43.35C75.5,-35.1 75.5,-25.97 75.5,-19.44"/>
<polygon fill="#63b8ff" stroke="#63b8ff" points="72,-43.23 75.5,-53.23 79,-43.23 72,-43.23"/>
</g>
<!-- Node3 -->
<g id="node3" class="node">
<title>Node3</title>
<g id="a_node3"><a xlink:href="struct_engine_1_1_debug_1_1_parent_location.html" target="_top" xlink:title=" ">
<polygon fill="white" stroke="#666666" points="150,-129 1,-129 1,-110 150,-110 150,-129"/>
<text text-anchor="middle" x="75.5" y="-117" font-family="Helvetica,sans-Serif" font-size="10.00">Engine::Debug::ParentLocation</text>
</a>
</g>
</g>
<!-- Node3&#45;&gt;Node2 -->
<g id="edge2" class="edge">
<title>Node3&#45;&gt;Node2</title>
<path fill="none" stroke="#63b8ff" d="M75.5,-98.35C75.5,-90.1 75.5,-80.97 75.5,-74.44"/>
<polygon fill="#63b8ff" stroke="#63b8ff" points="72,-98.23 75.5,-108.23 79,-98.23 72,-98.23"/>
</g>
</g>
</svg>
