<?xml version="1.0" encoding="UTF-8" standalone="no"?>
<!DOCTYPE svg PUBLIC "-//W3C//DTD SVG 1.1//EN"
 "http://www.w3.org/Graphics/SVG/1.1/DTD/svg11.dtd">
<!-- Generated by graphviz version 7.0.5 (20221223.1930)
 -->
<!-- Title: Engine::Serialize::StreamVisitorImplHelper&lt; F,... &gt; Pages: 1 -->
<svg width="142pt" height="192pt"
 viewBox="0.00 0.00 142.00 192.00" xmlns="http://www.w3.org/2000/svg" xmlns:xlink="http://www.w3.org/1999/xlink">
<g id="graph0" class="graph" transform="scale(1 1) rotate(0) translate(4 188)">
<title>Engine::Serialize::StreamVisitorImplHelper&lt; F,... &gt;</title>
<!-- Node1 -->
<g id="node1" class="node">
<title>Node1</title>
<g id="a_node1"><a xlink:title=" ">
<polygon fill="#999999" stroke="#666666" points="128.5,-41 5.5,-41 5.5,0 128.5,0 128.5,-41"/>
<text text-anchor="start" x="13.5" y="-29" font-family="Helvetica,sans-Serif" font-size="10.00">Engine::Serialize::</text>
<text text-anchor="start" x="13.5" y="-18" font-family="Helvetica,sans-Serif" font-size="10.00">StreamVisitorImplHelper</text>
<text text-anchor="middle" x="67" y="-7" font-family="Helvetica,sans-Serif" font-size="10.00">&lt; F,... &gt;</text>
</a>
</g>
</g>
<!-- Node2 -->
<g id="node2" class="node">
<title>Node2</title>
<g id="a_node2"><a xlink:href="struct_engine_1_1_serialize_1_1_stream_visitor.html" target="_top" xlink:title=" ">
<polygon fill="white" stroke="#666666" points="113,-107 21,-107 21,-77 113,-77 113,-107"/>
<text text-anchor="start" x="29" y="-95" font-family="Helvetica,sans-Serif" font-size="10.00">Engine::Serialize::</text>
<text text-anchor="middle" x="67" y="-84" font-family="Helvetica,sans-Serif" font-size="10.00">StreamVisitor</text>
</a>
</g>
</g>
<!-- Node2&#45;&gt;Node1 -->
<g id="edge1" class="edge">
<title>Node2&#45;&gt;Node1</title>
<path fill="none" stroke="#63b8ff" d="M67,-65.36C67,-57.45 67,-48.87 67,-41.42"/>
<polygon fill="#63b8ff" stroke="#63b8ff" points="63.5,-65.09 67,-75.09 70.5,-65.09 63.5,-65.09"/>
</g>
<!-- Node3 -->
<g id="node3" class="node">
<title>Node3</title>
<g id="a_node3"><a xlink:title=" ">
<polygon fill="white" stroke="#666666" points="134,-184 0,-184 0,-143 134,-143 134,-184"/>
<text text-anchor="start" x="8" y="-172" font-family="Helvetica,sans-Serif" font-size="10.00">SerializePrimitives</text>
<text text-anchor="start" x="8" y="-161" font-family="Helvetica,sans-Serif" font-size="10.00">::instantiate&lt; StreamVisitor</text>
<text text-anchor="middle" x="67" y="-150" font-family="Helvetica,sans-Serif" font-size="10.00">Base &gt;</text>
</a>
</g>
</g>
<!-- Node3&#45;&gt;Node2 -->
<g id="edge2" class="edge">
<title>Node3&#45;&gt;Node2</title>
<path fill="none" stroke="#63b8ff" d="M67,-131.38C67,-123.04 67,-114.43 67,-107.47"/>
<polygon fill="#63b8ff" stroke="#63b8ff" points="63.5,-131.26 67,-141.26 70.5,-131.26 63.5,-131.26"/>
</g>
</g>
</svg>
