<?xml version="1.0" encoding="UTF-8" standalone="no"?>
<!DOCTYPE svg PUBLIC "-//W3C//DTD SVG 1.1//EN"
 "http://www.w3.org/Graphics/SVG/1.1/DTD/svg11.dtd">
<!-- Generated by graphviz version 7.0.5 (20221223.1930)
 -->
<!-- Title: Engine::NodeGraph::LibraryInterpretData Pages: 1 -->
<svg width="279pt" height="98pt"
 viewBox="0.00 0.00 279.00 97.50" xmlns="http://www.w3.org/2000/svg" xmlns:xlink="http://www.w3.org/1999/xlink">
<g id="graph0" class="graph" transform="scale(1 1) rotate(0) translate(4 93.5)">
<title>Engine::NodeGraph::LibraryInterpretData</title>
<!-- Node1 -->
<g id="node1" class="node">
<title>Node1</title>
<g id="a_node1"><a xlink:title=" ">
<polygon fill="#999999" stroke="#666666" points="271,-62.5 167,-62.5 167,-32.5 271,-32.5 271,-62.5"/>
<text text-anchor="start" x="175" y="-50.5" font-family="Helvetica,sans-Serif" font-size="10.00">Engine::NodeGraph::</text>
<text text-anchor="middle" x="219" y="-39.5" font-family="Helvetica,sans-Serif" font-size="10.00">LibraryInterpretData</text>
</a>
</g>
</g>
<!-- Node2 -->
<g id="node2" class="node">
<title>Node2</title>
<g id="a_node2"><a xlink:href="struct_engine_1_1_node_graph_1_1_node_interpreter_data.html" target="_top" xlink:title=" ">
<polygon fill="white" stroke="#666666" points="117.5,-89.5 13.5,-89.5 13.5,-59.5 117.5,-59.5 117.5,-89.5"/>
<text text-anchor="start" x="21.5" y="-77.5" font-family="Helvetica,sans-Serif" font-size="10.00">Engine::NodeGraph::</text>
<text text-anchor="middle" x="65.5" y="-66.5" font-family="Helvetica,sans-Serif" font-size="10.00">NodeInterpreterData</text>
</a>
</g>
</g>
<!-- Node2&#45;&gt;Node1 -->
<g id="edge1" class="edge">
<title>Node2&#45;&gt;Node1</title>
<path fill="none" stroke="#63b8ff" d="M129.06,-63.35C141.52,-61.13 154.47,-58.82 166.5,-56.68"/>
<polygon fill="#63b8ff" stroke="#63b8ff" points="128.51,-59.89 119.28,-65.09 129.74,-66.78 128.51,-59.89"/>
</g>
<!-- Node3 -->
<g id="node3" class="node">
<title>Node3</title>
<g id="a_node3"><a xlink:title=" ">
<polygon fill="white" stroke="#666666" points="131,-41 0,-41 0,0 131,0 131,-41"/>
<text text-anchor="start" x="8" y="-29" font-family="Helvetica,sans-Serif" font-size="10.00">Execution::VirtualState</text>
<text text-anchor="start" x="8" y="-18" font-family="Helvetica,sans-Serif" font-size="10.00">&lt; LibraryInterpretReceiver,</text>
<text text-anchor="middle" x="65.5" y="-7" font-family="Helvetica,sans-Serif" font-size="10.00"> BehaviorReceiver &gt;</text>
</a>
</g>
</g>
<!-- Node3&#45;&gt;Node1 -->
<g id="edge2" class="edge">
<title>Node3&#45;&gt;Node1</title>
<path fill="none" stroke="#63b8ff" d="M142.42,-34.03C150.68,-35.5 158.94,-36.97 166.8,-38.38"/>
<polygon fill="#63b8ff" stroke="#63b8ff" points="143.14,-30.6 132.68,-32.29 141.91,-37.49 143.14,-30.6"/>
</g>
</g>
</svg>
