<?xml version="1.0" encoding="UTF-8" standalone="no"?>
<!DOCTYPE svg PUBLIC "-//W3C//DTD SVG 1.1//EN"
 "http://www.w3.org/Graphics/SVG/1.1/DTD/svg11.dtd">
<!-- Generated by graphviz version 7.0.5 (20221223.1930)
 -->
<!-- Title: src/Meta/serialize/container/syncable.h Pages: 1 -->
<svg width="521pt" height="368pt"
 viewBox="0.00 0.00 521.00 368.00" xmlns="http://www.w3.org/2000/svg" xmlns:xlink="http://www.w3.org/1999/xlink">
<g id="graph0" class="graph" transform="scale(1 1) rotate(0) translate(4 364)">
<title>src/Meta/serialize/container/syncable.h</title>
<!-- Node1 -->
<g id="node1" class="node">
<title>Node1</title>
<g id="a_node1"><a xlink:title=" ">
<polygon fill="#999999" stroke="#666666" points="291,-360 183,-360 183,-330 291,-330 291,-360"/>
<text text-anchor="start" x="191" y="-348" font-family="Helvetica,sans-Serif" font-size="10.00">src/Meta/serialize</text>
<text text-anchor="middle" x="237" y="-337" font-family="Helvetica,sans-Serif" font-size="10.00">/container/syncable.h</text>
</a>
</g>
</g>
<!-- Node2 -->
<g id="node2" class="node">
<title>Node2</title>
<g id="a_node2"><a xlink:href="comparestreamid_8h.html" target="_top" xlink:title=" ">
<polygon fill="white" stroke="#666666" points="208.5,-294 63.5,-294 63.5,-275 208.5,-275 208.5,-294"/>
<text text-anchor="middle" x="136" y="-282" font-family="Helvetica,sans-Serif" font-size="10.00">../streams/comparestreamid.h</text>
</a>
</g>
</g>
<!-- Node1&#45;&gt;Node2 -->
<g id="edge1" class="edge">
<title>Node1&#45;&gt;Node2</title>
<path fill="none" stroke="#63b8ff" d="M212.03,-329.54C196.56,-320.58 176.75,-309.1 161.23,-300.11"/>
<polygon fill="#63b8ff" stroke="#63b8ff" points="162.99,-297.09 152.58,-295.1 159.48,-303.15 162.99,-297.09"/>
</g>
<!-- Node3 -->
<g id="node3" class="node">
<title>Node3</title>
<g id="a_node3"><a xlink:href="pendingrequest_8h.html" target="_top" xlink:title=" ">
<polygon fill="white" stroke="#666666" points="305,-239 169,-239 169,-220 305,-220 305,-239"/>
<text text-anchor="middle" x="237" y="-227" font-family="Helvetica,sans-Serif" font-size="10.00">../streams/pendingrequest.h</text>
</a>
</g>
</g>
<!-- Node1&#45;&gt;Node3 -->
<g id="edge2" class="edge">
<title>Node1&#45;&gt;Node3</title>
<path fill="none" stroke="#63b8ff" d="M237,-329.63C237,-309.59 237,-273.17 237,-250.49"/>
<polygon fill="#63b8ff" stroke="#63b8ff" points="240.5,-250.74 237,-240.74 233.5,-250.74 240.5,-250.74"/>
</g>
<!-- Node12 -->
<g id="node12" class="node">
<title>Node12</title>
<g id="a_node12"><a xlink:href="writemessage_8h.html" target="_top" xlink:title=" ">
<polygon fill="white" stroke="#666666" points="396.5,-294 265.5,-294 265.5,-275 396.5,-275 396.5,-294"/>
<text text-anchor="middle" x="331" y="-282" font-family="Helvetica,sans-Serif" font-size="10.00">../streams/writemessage.h</text>
</a>
</g>
</g>
<!-- Node1&#45;&gt;Node12 -->
<g id="edge14" class="edge">
<title>Node1&#45;&gt;Node12</title>
<path fill="none" stroke="#63b8ff" d="M260.24,-329.54C274.5,-320.66 292.72,-309.32 307.1,-300.37"/>
<polygon fill="#63b8ff" stroke="#63b8ff" points="308.86,-303.4 315.5,-295.15 305.16,-297.46 308.86,-303.4"/>
</g>
<!-- Node4 -->
<g id="node4" class="node">
<title>Node4</title>
<g id="a_node4"><a xlink:href="src_2_generic_2execution_2sender_8h.html" target="_top" xlink:title=" ">
<polygon fill="white" stroke="#666666" points="134,-129 0,-129 0,-110 134,-110 134,-129"/>
<text text-anchor="middle" x="67" y="-117" font-family="Helvetica,sans-Serif" font-size="10.00">Generic/execution/sender.h</text>
</a>
</g>
</g>
<!-- Node3&#45;&gt;Node4 -->
<g id="edge3" class="edge">
<title>Node3&#45;&gt;Node4</title>
<path fill="none" stroke="#63b8ff" d="M168.6,-222.24C117.68,-216.01 54.3,-204.34 38,-184 26.92,-170.17 37.96,-151.41 49.47,-137.88"/>
<polygon fill="#63b8ff" stroke="#63b8ff" points="52,-140.3 56.22,-130.58 46.86,-135.55 52,-140.3"/>
</g>
<!-- Node6 -->
<g id="node6" class="node">
<title>Node6</title>
<g id="a_node6"><a xlink:href="virtualsender_8h.html" target="_top" xlink:title=" ">
<polygon fill="white" stroke="#666666" points="208.5,-184 47.5,-184 47.5,-165 208.5,-165 208.5,-184"/>
<text text-anchor="middle" x="128" y="-172" font-family="Helvetica,sans-Serif" font-size="10.00">Generic/execution/virtualsender.h</text>
</a>
</g>
</g>
<!-- Node3&#45;&gt;Node6 -->
<g id="edge5" class="edge">
<title>Node3&#45;&gt;Node6</title>
<path fill="none" stroke="#63b8ff" d="M218.51,-219.51C201.5,-211.24 176.01,-198.84 156.41,-189.31"/>
<polygon fill="#63b8ff" stroke="#63b8ff" points="158.1,-186.25 147.58,-185.02 155.04,-192.54 158.1,-186.25"/>
</g>
<!-- Node7 -->
<g id="node7" class="node">
<title>Node7</title>
<g id="a_node7"><a xlink:href="virtualstate_8h.html" target="_top" xlink:title=" ">
<polygon fill="white" stroke="#666666" points="224,-129 152,-129 152,-110 224,-110 224,-129"/>
<text text-anchor="middle" x="188" y="-117" font-family="Helvetica,sans-Serif" font-size="10.00">virtualstate.h</text>
</a>
</g>
</g>
<!-- Node3&#45;&gt;Node7 -->
<g id="edge11" class="edge">
<title>Node3&#45;&gt;Node7</title>
<path fill="none" stroke="#63b8ff" d="M235.22,-219.56C232.52,-206.98 226.76,-183.51 218,-165 213.62,-155.75 207.48,-146.24 201.89,-138.4"/>
<polygon fill="#63b8ff" stroke="#63b8ff" points="204.74,-136.37 195.96,-130.44 199.12,-140.55 204.74,-136.37"/>
</g>
<!-- Node10 -->
<g id="node10" class="node">
<title>Node10</title>
<g id="a_node10"><a xlink:href="forward__capture_8h.html" target="_top" xlink:title=" ">
<polygon fill="white" stroke="#666666" points="396.5,-184 265.5,-184 265.5,-165 396.5,-165 396.5,-184"/>
<text text-anchor="middle" x="331" y="-172" font-family="Helvetica,sans-Serif" font-size="10.00">Generic/forward_capture.h</text>
</a>
</g>
</g>
<!-- Node3&#45;&gt;Node10 -->
<g id="edge12" class="edge">
<title>Node3&#45;&gt;Node10</title>
<path fill="none" stroke="#63b8ff" d="M252.95,-219.51C267.35,-211.39 288.79,-199.3 305.56,-189.85"/>
<polygon fill="#63b8ff" stroke="#63b8ff" points="306.98,-193.06 313.97,-185.1 303.54,-186.96 306.98,-193.06"/>
</g>
<!-- Node11 -->
<g id="node11" class="node">
<title>Node11</title>
<g id="a_node11"><a xlink:href="nulledptr_8h.html" target="_top" xlink:title=" ">
<polygon fill="white" stroke="#666666" points="513,-184 415,-184 415,-165 513,-165 513,-184"/>
<text text-anchor="middle" x="464" y="-172" font-family="Helvetica,sans-Serif" font-size="10.00">Generic/nulledptr.h</text>
</a>
</g>
</g>
<!-- Node3&#45;&gt;Node11 -->
<g id="edge13" class="edge">
<title>Node3&#45;&gt;Node11</title>
<path fill="none" stroke="#63b8ff" d="M275.51,-219.51C313.86,-210.55 372.89,-196.77 414.66,-187.02"/>
<polygon fill="#63b8ff" stroke="#63b8ff" points="415.27,-190.47 424.21,-184.79 413.68,-183.66 415.27,-190.47"/>
</g>
<!-- Node5 -->
<g id="node5" class="node">
<title>Node5</title>
<g id="a_node5"><a xlink:href="execution_2concepts_8h.html" target="_top" xlink:title=" ">
<polygon fill="white" stroke="#666666" points="104,-74 40,-74 40,-55 104,-55 104,-74"/>
<text text-anchor="middle" x="72" y="-62" font-family="Helvetica,sans-Serif" font-size="10.00">concepts.h</text>
</a>
</g>
</g>
<!-- Node4&#45;&gt;Node5 -->
<g id="edge4" class="edge">
<title>Node4&#45;&gt;Node5</title>
<path fill="none" stroke="#63b8ff" d="M67.83,-109.75C68.44,-103.27 69.3,-94.16 70.08,-85.9"/>
<polygon fill="#63b8ff" stroke="#63b8ff" points="73.56,-86.23 71.01,-75.95 66.59,-85.58 73.56,-86.23"/>
</g>
<!-- Node6&#45;&gt;Node4 -->
<g id="edge6" class="edge">
<title>Node6&#45;&gt;Node4</title>
<path fill="none" stroke="#63b8ff" d="M117.65,-164.51C108.92,-156.93 96.21,-145.88 85.7,-136.75"/>
<polygon fill="#63b8ff" stroke="#63b8ff" points="88.18,-134.27 78.34,-130.35 83.59,-139.55 88.18,-134.27"/>
</g>
<!-- Node6&#45;&gt;Node7 -->
<g id="edge7" class="edge">
<title>Node6&#45;&gt;Node7</title>
<path fill="none" stroke="#63b8ff" d="M138.18,-164.51C146.76,-156.93 159.27,-145.88 169.6,-136.75"/>
<polygon fill="#63b8ff" stroke="#63b8ff" points="171.66,-139.6 176.84,-130.36 167.03,-134.36 171.66,-139.6"/>
</g>
<!-- Node7&#45;&gt;Node5 -->
<g id="edge8" class="edge">
<title>Node7&#45;&gt;Node5</title>
<path fill="none" stroke="#63b8ff" d="M168.32,-109.51C150.05,-101.16 122.59,-88.61 101.65,-79.05"/>
<polygon fill="#63b8ff" stroke="#63b8ff" points="103.31,-75.96 92.76,-74.99 100.4,-82.33 103.31,-75.96"/>
</g>
<!-- Node8 -->
<g id="node8" class="node">
<title>Node8</title>
<g id="a_node8"><a xlink:href="virtual__invoke_8h.html" target="_top" xlink:title=" ">
<polygon fill="white" stroke="#666666" points="248.5,-74 127.5,-74 127.5,-55 248.5,-55 248.5,-74"/>
<text text-anchor="middle" x="188" y="-62" font-family="Helvetica,sans-Serif" font-size="10.00">Generic/virtual_invoke.h</text>
</a>
</g>
</g>
<!-- Node7&#45;&gt;Node8 -->
<g id="edge9" class="edge">
<title>Node7&#45;&gt;Node8</title>
<path fill="none" stroke="#63b8ff" d="M188,-109.75C188,-103.27 188,-94.16 188,-85.9"/>
<polygon fill="#63b8ff" stroke="#63b8ff" points="191.5,-85.96 188,-75.96 184.5,-85.96 191.5,-85.96"/>
</g>
<!-- Node9 -->
<g id="node9" class="node">
<title>Node9</title>
<g id="a_node9"><a xlink:href="callable__traits_8h.html" target="_top" xlink:title=" ">
<polygon fill="white" stroke="#666666" points="230,-19 146,-19 146,0 230,0 230,-19"/>
<text text-anchor="middle" x="188" y="-7" font-family="Helvetica,sans-Serif" font-size="10.00">callable_traits.h</text>
</a>
</g>
</g>
<!-- Node8&#45;&gt;Node9 -->
<g id="edge10" class="edge">
<title>Node8&#45;&gt;Node9</title>
<path fill="none" stroke="#63b8ff" d="M188,-54.75C188,-48.27 188,-39.16 188,-30.9"/>
<polygon fill="#63b8ff" stroke="#63b8ff" points="191.5,-30.96 188,-20.96 184.5,-30.96 191.5,-30.96"/>
</g>
<!-- Node12&#45;&gt;Node3 -->
<g id="edge15" class="edge">
<title>Node12&#45;&gt;Node3</title>
<path fill="none" stroke="#63b8ff" d="M315.05,-274.51C300.65,-266.39 279.21,-254.3 262.44,-244.85"/>
<polygon fill="#63b8ff" stroke="#63b8ff" points="264.46,-241.96 254.03,-240.1 261.02,-248.06 264.46,-241.96"/>
</g>
<!-- Node13 -->
<g id="node13" class="node">
<title>Node13</title>
<g id="a_node13"><a xlink:href="serializablemapholder_8h.html" target="_top" xlink:title=" ">
<polygon fill="white" stroke="#666666" points="440.5,-239 323.5,-239 323.5,-220 440.5,-220 440.5,-239"/>
<text text-anchor="middle" x="382" y="-227" font-family="Helvetica,sans-Serif" font-size="10.00">serializablemapholder.h</text>
</a>
</g>
</g>
<!-- Node12&#45;&gt;Node13 -->
<g id="edge16" class="edge">
<title>Node12&#45;&gt;Node13</title>
<path fill="none" stroke="#63b8ff" d="M339.42,-274.75C346.47,-267.43 356.73,-256.76 365.41,-247.74"/>
<polygon fill="#63b8ff" stroke="#63b8ff" points="367.93,-250.17 372.35,-240.53 362.89,-245.31 367.93,-250.17"/>
</g>
</g>
</svg>
