<?xml version="1.0" encoding="UTF-8" standalone="no"?>
<!DOCTYPE svg PUBLIC "-//W3C//DTD SVG 1.1//EN"
 "http://www.w3.org/Graphics/SVG/1.1/DTD/svg11.dtd">
<!-- Generated by graphviz version 7.0.5 (20221223.1930)
 -->
<!-- Title: src/Meta/serialize/container/syncablecontainer.h Pages: 1 -->
<!--zoomable 412 -->
<svg id="main" version="1.1" xmlns="http://www.w3.org/2000/svg" xmlns:xlink="http://www.w3.org/1999/xlink" xml:space="preserve" onload="init(evt)">
<style type="text/css"><![CDATA[
.edge:hover path { stroke: red; }
.edge:hover polygon { stroke: red; fill: red; }
]]></style>
<script type="text/javascript"><![CDATA[
var edges = document.getElementsByTagName('g');
if (edges && edges.length) {
  for (var i=0;i<edges.length;i++) {
    if (edges[i].id.substr(0,4)=='edge') {
      edges[i].setAttribute('class','edge');
    }
  }
}
]]></script>
        <defs>
                <circle id="rim" cx="0" cy="0" r="7"/>
                <circle id="rim2" cx="0" cy="0" r="3.5"/>
                <g id="zoomPlus">
                        <use xlink:href="#rim" fill="#404040">
                                <set attributeName="fill" to="#808080" begin="zoomplus.mouseover" end="zoomplus.mouseout"/>
                        </use>
                        <path d="M-4,0h8M0,-4v8" fill="none" stroke="white" stroke-width="1.5" pointer-events="none"/>
                </g>
                <g id="zoomMin">
                        <use xlink:href="#rim" fill="#404040">
                                <set attributeName="fill" to="#808080" begin="zoomminus.mouseover" end="zoomminus.mouseout"/>
                        </use>
                        <path d="M-4,0h8" fill="none" stroke="white" stroke-width="1.5" pointer-events="none"/>
                </g>
                <g id="dirArrow">
                        <path fill="none" stroke="white" stroke-width="1.5" d="M0,-3.0v7 M-2.5,-0.5L0,-3.0L2.5,-0.5"/>
                </g>
               <g id="resetDef">
                       <use xlink:href="#rim2" fill="#404040">
                               <set attributeName="fill" to="#808080" begin="reset.mouseover" end="reset.mouseout"/>
                       </use>
               </g>
        </defs>

<script type="text/javascript">
var viewWidth = 2883;
var viewHeight = 412;
var sectionId = 'dynsection-1';
</script>
<script xlink:href="svgpan.js"/>
<svg id="graph" class="graph">
<g id="viewport">
<title>src/Meta/serialize/container/syncablecontainer.h</title>
<!-- Node1 -->
<g id="node1" class="node">
<title>Node1</title>
<g id="a_node1"><a xlink:title=" ">
<polygon fill="#999999" stroke="#666666" points="747.5,-404 599.5,-404 599.5,-374 747.5,-374 747.5,-404"/>
<text text-anchor="start" x="607.5" y="-392" font-family="Helvetica,sans-Serif" font-size="10.00">src/Meta/serialize</text>
<text text-anchor="middle" x="673.5" y="-381" font-family="Helvetica,sans-Serif" font-size="10.00">/container/syncablecontainer.h</text>
</a>
</g>
</g>
<!-- Node2 -->
<g id="node2" class="node">
<title>Node2</title>
<g id="a_node2"><a xlink:href="scenecontainer_8h.html" target="_top" xlink:title=" ">
<polygon fill="white" stroke="#666666" points="763,-338 584,-338 584,-308 763,-308 763,-338"/>
<text text-anchor="start" x="592" y="-326" font-family="Helvetica,sans-Serif" font-size="10.00">plugins/misc/scene</text>
<text text-anchor="middle" x="673.5" y="-315" font-family="Helvetica,sans-Serif" font-size="10.00">/src/Madgine/scene/scenecontainer.h</text>
</a>
</g>
</g>
<!-- Node1&#45;&gt;Node2 -->
<g id="edge1" class="edge">
<title>Node1&#45;&gt;Node2</title>
<path fill="none" stroke="#63b8ff" d="M673.5,-362.39C673.5,-354.13 673.5,-345.28 673.5,-338.16"/>
<polygon fill="#63b8ff" stroke="#63b8ff" points="670,-362.28 673.5,-372.28 677,-362.28 670,-362.28"/>
</g>
<!-- Node3 -->
<g id="node3" class="node">
<title>Node3</title>
<g id="a_node3"><a xlink:href="entityptr_8cpp.html" target="_top" xlink:title=" ">
<polygon fill="white" stroke="#666666" points="645.5,-272 517.5,-272 517.5,-231 645.5,-231 645.5,-272"/>
<text text-anchor="start" x="525.5" y="-260" font-family="Helvetica,sans-Serif" font-size="10.00">plugins/misc/scene</text>
<text text-anchor="start" x="525.5" y="-249" font-family="Helvetica,sans-Serif" font-size="10.00">/src/Madgine/scene/entity</text>
<text text-anchor="middle" x="581.5" y="-238" font-family="Helvetica,sans-Serif" font-size="10.00">/entityptr.cpp</text>
</a>
</g>
</g>
<!-- Node2&#45;&gt;Node3 -->
<g id="edge2" class="edge">
<title>Node2&#45;&gt;Node3</title>
<path fill="none" stroke="#63b8ff" d="M645.35,-300.74C633.42,-291.72 619.59,-281.28 607.86,-272.42"/>
<polygon fill="#63b8ff" stroke="#63b8ff" points="643.14,-303.45 653.23,-306.69 647.36,-297.87 643.14,-303.45"/>
</g>
<!-- Node4 -->
<g id="node4" class="node">
<title>Node4</title>
<g id="a_node4"><a xlink:href="scenecontainer_8cpp.html" target="_top" xlink:title=" ">
<polygon fill="white" stroke="#666666" points="189,-189.5 0,-189.5 0,-159.5 189,-159.5 189,-189.5"/>
<text text-anchor="start" x="8" y="-177.5" font-family="Helvetica,sans-Serif" font-size="10.00">plugins/misc/scene</text>
<text text-anchor="middle" x="94.5" y="-166.5" font-family="Helvetica,sans-Serif" font-size="10.00">/src/Madgine/scene/scenecontainer.cpp</text>
</a>
</g>
</g>
<!-- Node2&#45;&gt;Node4 -->
<g id="edge3" class="edge">
<title>Node2&#45;&gt;Node4</title>
<path fill="none" stroke="#63b8ff" d="M675.77,-296.54C676.09,-275.67 672.73,-247.05 654.5,-231 616.27,-197.35 247.99,-201.75 197.5,-195 187.13,-193.61 176.22,-191.87 165.54,-189.99"/>
<polygon fill="#63b8ff" stroke="#63b8ff" points="672.29,-296.11 675.31,-306.26 679.28,-296.44 672.29,-296.11"/>
</g>
<!-- Node5 -->
<g id="node5" class="node">
<title>Node5</title>
<g id="a_node5"><a xlink:href="scenemanager_8h.html" target="_top" xlink:title=" ">
<polygon fill="white" stroke="#666666" points="1456.5,-266.5 1280.5,-266.5 1280.5,-236.5 1456.5,-236.5 1456.5,-266.5"/>
<text text-anchor="start" x="1288.5" y="-254.5" font-family="Helvetica,sans-Serif" font-size="10.00">plugins/misc/scene</text>
<text text-anchor="middle" x="1368.5" y="-243.5" font-family="Helvetica,sans-Serif" font-size="10.00">/src/Madgine/scene/scenemanager.h</text>
</a>
</g>
</g>
<!-- Node2&#45;&gt;Node5 -->
<g id="edge4" class="edge">
<title>Node2&#45;&gt;Node5</title>
<path fill="none" stroke="#63b8ff" d="M774.52,-311.9C910.63,-298.29 1150.73,-274.28 1280.06,-261.34"/>
<polygon fill="#63b8ff" stroke="#63b8ff" points="774.4,-308.39 764.8,-312.87 775.1,-315.36 774.4,-308.39"/>
</g>
<!-- Node5&#45;&gt;Node4 -->
<g id="edge25" class="edge">
<title>Node5&#45;&gt;Node4</title>
<path fill="none" stroke="#63b8ff" d="M1268.74,-247.57C1024.93,-240.11 403.68,-219.28 197.5,-195 186.56,-193.71 175.05,-191.94 163.83,-189.99"/>
<polygon fill="#63b8ff" stroke="#63b8ff" points="1268.45,-251.06 1278.55,-247.87 1268.66,-244.06 1268.45,-251.06"/>
</g>
<!-- Node6 -->
<g id="node6" class="node">
<title>Node6</title>
<g id="a_node6"><a xlink:href="litscenerenderdata_8cpp.html" target="_top" xlink:title=" ">
<polygon fill="white" stroke="#666666" points="332,-195 207,-195 207,-154 332,-154 332,-195"/>
<text text-anchor="start" x="215" y="-183" font-family="Helvetica,sans-Serif" font-size="10.00">plugins/misc/scene</text>
<text text-anchor="start" x="215" y="-172" font-family="Helvetica,sans-Serif" font-size="10.00">/renderer/Madgine/render</text>
<text text-anchor="middle" x="269.5" y="-161" font-family="Helvetica,sans-Serif" font-size="10.00">/litscenerenderdata.cpp</text>
</a>
</g>
</g>
<!-- Node5&#45;&gt;Node6 -->
<g id="edge5" class="edge">
<title>Node5&#45;&gt;Node6</title>
<path fill="none" stroke="#63b8ff" d="M1268.77,-247.79C1046.88,-241.31 518.04,-223.35 341.5,-195 338.43,-194.51 335.31,-193.94 332.16,-193.3"/>
<polygon fill="#63b8ff" stroke="#63b8ff" points="1268.45,-251.28 1278.55,-248.07 1268.66,-244.28 1268.45,-251.28"/>
</g>
<!-- Node7 -->
<g id="node7" class="node">
<title>Node7</title>
<g id="a_node7"><a xlink:href="pointshadowrenderpass_8cpp.html" target="_top" xlink:title=" ">
<polygon fill="white" stroke="#666666" points="490.5,-195 350.5,-195 350.5,-154 490.5,-154 490.5,-195"/>
<text text-anchor="start" x="358.5" y="-183" font-family="Helvetica,sans-Serif" font-size="10.00">plugins/misc/scene</text>
<text text-anchor="start" x="358.5" y="-172" font-family="Helvetica,sans-Serif" font-size="10.00">/renderer/Madgine/render</text>
<text text-anchor="middle" x="420.5" y="-161" font-family="Helvetica,sans-Serif" font-size="10.00">/pointshadowrenderpass.cpp</text>
</a>
</g>
</g>
<!-- Node5&#45;&gt;Node7 -->
<g id="edge6" class="edge">
<title>Node5&#45;&gt;Node7</title>
<path fill="none" stroke="#63b8ff" d="M1268.67,-249.89C1106.42,-247.6 775.82,-237.58 499.5,-195 496.57,-194.55 493.59,-194.04 490.58,-193.49"/>
<polygon fill="#63b8ff" stroke="#63b8ff" points="1268.49,-253.39 1278.54,-250.02 1268.59,-246.39 1268.49,-253.39"/>
</g>
<!-- Node8 -->
<g id="node8" class="node">
<title>Node8</title>
<g id="a_node8"><a xlink:href="scenemainwindowcomponent_8cpp.html" target="_top" xlink:title=" ">
<polygon fill="white" stroke="#666666" points="674.5,-195 508.5,-195 508.5,-154 674.5,-154 674.5,-195"/>
<text text-anchor="start" x="516.5" y="-183" font-family="Helvetica,sans-Serif" font-size="10.00">plugins/misc/scene</text>
<text text-anchor="start" x="516.5" y="-172" font-family="Helvetica,sans-Serif" font-size="10.00">/renderer/Madgine/render</text>
<text text-anchor="middle" x="591.5" y="-161" font-family="Helvetica,sans-Serif" font-size="10.00">/scenemainwindowcomponent.cpp</text>
</a>
</g>
</g>
<!-- Node5&#45;&gt;Node8 -->
<g id="edge7" class="edge">
<title>Node5&#45;&gt;Node8</title>
<path fill="none" stroke="#63b8ff" d="M1268.83,-246.43C1135.09,-240.05 890.43,-225.19 683.5,-195 680.59,-194.58 677.64,-194.11 674.66,-193.62"/>
<polygon fill="#63b8ff" stroke="#63b8ff" points="1268.57,-249.92 1278.72,-246.89 1268.9,-242.93 1268.57,-249.92"/>
</g>
<!-- Node9 -->
<g id="node9" class="node">
<title>Node9</title>
<g id="a_node9"><a xlink:href="scenerenderdata_8cpp.html" target="_top" xlink:title=" ">
<polygon fill="white" stroke="#666666" points="818,-195 693,-195 693,-154 818,-154 818,-195"/>
<text text-anchor="start" x="701" y="-183" font-family="Helvetica,sans-Serif" font-size="10.00">plugins/misc/scene</text>
<text text-anchor="start" x="701" y="-172" font-family="Helvetica,sans-Serif" font-size="10.00">/renderer/Madgine/render</text>
<text text-anchor="middle" x="755.5" y="-161" font-family="Helvetica,sans-Serif" font-size="10.00">/scenerenderdata.cpp</text>
</a>
</g>
</g>
<!-- Node5&#45;&gt;Node9 -->
<g id="edge8" class="edge">
<title>Node5&#45;&gt;Node9</title>
<path fill="none" stroke="#63b8ff" d="M1268.75,-245.26C1159.47,-238.37 979.38,-223.62 826.5,-195 823.86,-194.51 821.18,-193.96 818.47,-193.38"/>
<polygon fill="#63b8ff" stroke="#63b8ff" points="1268.38,-248.74 1278.57,-245.87 1268.81,-241.76 1268.38,-248.74"/>
</g>
<!-- Node10 -->
<g id="node10" class="node">
<title>Node10</title>
<g id="a_node10"><a xlink:href="scenerenderpass_8cpp.html" target="_top" xlink:title=" ">
<polygon fill="white" stroke="#666666" points="961,-195 836,-195 836,-154 961,-154 961,-195"/>
<text text-anchor="start" x="844" y="-183" font-family="Helvetica,sans-Serif" font-size="10.00">plugins/misc/scene</text>
<text text-anchor="start" x="844" y="-172" font-family="Helvetica,sans-Serif" font-size="10.00">/renderer/Madgine/render</text>
<text text-anchor="middle" x="898.5" y="-161" font-family="Helvetica,sans-Serif" font-size="10.00">/scenerenderpass.cpp</text>
</a>
</g>
</g>
<!-- Node5&#45;&gt;Node10 -->
<g id="edge9" class="edge">
<title>Node5&#45;&gt;Node10</title>
<path fill="none" stroke="#63b8ff" d="M1269.18,-240.31C1188.08,-231.13 1070.74,-215.85 969.5,-195 966.87,-194.46 964.2,-193.87 961.5,-193.26"/>
<polygon fill="#63b8ff" stroke="#63b8ff" points="1268.54,-243.76 1278.87,-241.4 1269.32,-236.81 1268.54,-243.76"/>
</g>
<!-- Node11 -->
<g id="node11" class="node">
<title>Node11</title>
<g id="a_node11"><a xlink:href="shadowrenderpass_8cpp.html" target="_top" xlink:title=" ">
<polygon fill="white" stroke="#666666" points="1104,-195 979,-195 979,-154 1104,-154 1104,-195"/>
<text text-anchor="start" x="987" y="-183" font-family="Helvetica,sans-Serif" font-size="10.00">plugins/misc/scene</text>
<text text-anchor="start" x="987" y="-172" font-family="Helvetica,sans-Serif" font-size="10.00">/renderer/Madgine/render</text>
<text text-anchor="middle" x="1041.5" y="-161" font-family="Helvetica,sans-Serif" font-size="10.00">/shadowrenderpass.cpp</text>
</a>
</g>
</g>
<!-- Node5&#45;&gt;Node11 -->
<g id="edge10" class="edge">
<title>Node5&#45;&gt;Node11</title>
<path fill="none" stroke="#63b8ff" d="M1285.68,-233.74C1235.42,-223.27 1170.09,-209.14 1112.5,-195 1109.77,-194.33 1106.98,-193.63 1104.17,-192.91"/>
<polygon fill="#63b8ff" stroke="#63b8ff" points="1284.82,-237.14 1295.33,-235.74 1286.25,-230.28 1284.82,-237.14"/>
</g>
<!-- Node12 -->
<g id="node12" class="node">
<title>Node12</title>
<g id="a_node12"><a xlink:href="shadowscenerenderdata_8cpp.html" target="_top" xlink:title=" ">
<polygon fill="white" stroke="#666666" points="1265,-195 1122,-195 1122,-154 1265,-154 1265,-195"/>
<text text-anchor="start" x="1130" y="-183" font-family="Helvetica,sans-Serif" font-size="10.00">plugins/misc/scene</text>
<text text-anchor="start" x="1130" y="-172" font-family="Helvetica,sans-Serif" font-size="10.00">/renderer/Madgine/render</text>
<text text-anchor="middle" x="1193.5" y="-161" font-family="Helvetica,sans-Serif" font-size="10.00">/shadowscenerenderdata.cpp</text>
</a>
</g>
</g>
<!-- Node5&#45;&gt;Node12 -->
<g id="edge11" class="edge">
<title>Node5&#45;&gt;Node12</title>
<path fill="none" stroke="#63b8ff" d="M1324.18,-231.51C1298.47,-220.49 1266.12,-206.62 1240.04,-195.44"/>
<polygon fill="#63b8ff" stroke="#63b8ff" points="1322.8,-234.72 1333.37,-235.44 1325.55,-228.29 1322.8,-234.72"/>
</g>
<!-- Node13 -->
<g id="node13" class="node">
<title>Node13</title>
<g id="a_node13"><a xlink:href="sceneeditor_8cpp.html" target="_top" xlink:title=" ">
<polygon fill="white" stroke="#666666" points="1453.5,-195 1283.5,-195 1283.5,-154 1453.5,-154 1453.5,-195"/>
<text text-anchor="start" x="1291.5" y="-183" font-family="Helvetica,sans-Serif" font-size="10.00">plugins/misc/scene</text>
<text text-anchor="start" x="1291.5" y="-172" font-family="Helvetica,sans-Serif" font-size="10.00">/renderer_tools/Madgine</text>
<text text-anchor="middle" x="1368.5" y="-161" font-family="Helvetica,sans-Serif" font-size="10.00">_Tools/sceneeditor/sceneeditor.cpp</text>
</a>
</g>
</g>
<!-- Node5&#45;&gt;Node13 -->
<g id="edge12" class="edge">
<title>Node5&#45;&gt;Node13</title>
<path fill="none" stroke="#63b8ff" d="M1368.5,-224.68C1368.5,-215.06 1368.5,-204.3 1368.5,-195.3"/>
<polygon fill="#63b8ff" stroke="#63b8ff" points="1365,-224.53 1368.5,-234.53 1372,-224.53 1365,-224.53"/>
</g>
<!-- Node14 -->
<g id="node14" class="node">
<title>Node14</title>
<g id="a_node14"><a xlink:href="sceneview_8cpp.html" target="_top" xlink:title=" ">
<polygon fill="white" stroke="#666666" points="1639,-195 1472,-195 1472,-154 1639,-154 1639,-195"/>
<text text-anchor="start" x="1480" y="-183" font-family="Helvetica,sans-Serif" font-size="10.00">plugins/misc/scene</text>
<text text-anchor="start" x="1480" y="-172" font-family="Helvetica,sans-Serif" font-size="10.00">/renderer_tools/Madgine</text>
<text text-anchor="middle" x="1555.5" y="-161" font-family="Helvetica,sans-Serif" font-size="10.00">_Tools/sceneeditor/sceneview.cpp</text>
</a>
</g>
</g>
<!-- Node5&#45;&gt;Node14 -->
<g id="edge13" class="edge">
<title>Node5&#45;&gt;Node14</title>
<path fill="none" stroke="#63b8ff" d="M1415.12,-231.8C1442.71,-220.74 1477.65,-206.72 1505.77,-195.44"/>
<polygon fill="#63b8ff" stroke="#63b8ff" points="1413.94,-228.5 1405.96,-235.48 1416.54,-235 1413.94,-228.5"/>
</g>
<!-- Node15 -->
<g id="node15" class="node">
<title>Node15</title>
<g id="a_node15"><a xlink:href="scenesenders_8h.html" target="_top" xlink:title=" ">
<polygon fill="white" stroke="#666666" points="1799.5,-195 1657.5,-195 1657.5,-154 1799.5,-154 1799.5,-195"/>
<text text-anchor="start" x="1665.5" y="-183" font-family="Helvetica,sans-Serif" font-size="10.00">plugins/misc/scene</text>
<text text-anchor="start" x="1665.5" y="-172" font-family="Helvetica,sans-Serif" font-size="10.00">/src/Madgine/scene/behavior</text>
<text text-anchor="middle" x="1728.5" y="-161" font-family="Helvetica,sans-Serif" font-size="10.00">/scenesenders.h</text>
</a>
</g>
</g>
<!-- Node5&#45;&gt;Node15 -->
<g id="edge14" class="edge">
<title>Node5&#45;&gt;Node15</title>
<path fill="none" stroke="#63b8ff" d="M1456.76,-233.88C1511.74,-223.29 1583.87,-208.98 1647.5,-195 1650.75,-194.29 1654.07,-193.54 1657.42,-192.78"/>
<polygon fill="#63b8ff" stroke="#63b8ff" points="1456.29,-230.4 1447.13,-235.73 1457.61,-237.28 1456.29,-230.4"/>
</g>
<!-- Node17 -->
<g id="node17" class="node">
<title>Node17</title>
<g id="a_node17"><a xlink:href="behavior_2transform_8h.html" target="_top" xlink:title=" ">
<polygon fill="white" stroke="#666666" points="1898.5,-118 1756.5,-118 1756.5,-77 1898.5,-77 1898.5,-118"/>
<text text-anchor="start" x="1764.5" y="-106" font-family="Helvetica,sans-Serif" font-size="10.00">plugins/misc/scene</text>
<text text-anchor="start" x="1764.5" y="-95" font-family="Helvetica,sans-Serif" font-size="10.00">/src/Madgine/scene/behavior</text>
<text text-anchor="middle" x="1827.5" y="-84" font-family="Helvetica,sans-Serif" font-size="10.00">/transform.h</text>
</a>
</g>
</g>
<!-- Node5&#45;&gt;Node17 -->
<g id="edge19" class="edge">
<title>Node5&#45;&gt;Node17</title>
<path fill="none" stroke="#63b8ff" d="M1467.73,-251.04C1582.14,-249.49 1760.63,-239.68 1808.5,-195 1829.35,-175.54 1831.08,-140.41 1829.77,-118.33"/>
<polygon fill="#63b8ff" stroke="#63b8ff" points="1468,-247.54 1458.04,-251.15 1468.08,-254.53 1468,-247.54"/>
</g>
<!-- Node20 -->
<g id="node20" class="node">
<title>Node20</title>
<g id="a_node20"><a xlink:href="entity_8cpp.html" target="_top" xlink:title=" ">
<polygon fill="white" stroke="#666666" points="1983.5,-195 1855.5,-195 1855.5,-154 1983.5,-154 1983.5,-195"/>
<text text-anchor="start" x="1863.5" y="-183" font-family="Helvetica,sans-Serif" font-size="10.00">plugins/misc/scene</text>
<text text-anchor="start" x="1863.5" y="-172" font-family="Helvetica,sans-Serif" font-size="10.00">/src/Madgine/scene/entity</text>
<text text-anchor="middle" x="1919.5" y="-161" font-family="Helvetica,sans-Serif" font-size="10.00">/entity.cpp</text>
</a>
</g>
</g>
<!-- Node5&#45;&gt;Node20 -->
<g id="edge20" class="edge">
<title>Node5&#45;&gt;Node20</title>
<path fill="none" stroke="#63b8ff" d="M1468.06,-242.55C1564.17,-234.01 1713.52,-218.41 1841.5,-195 1846.03,-194.17 1850.69,-193.23 1855.37,-192.23"/>
<polygon fill="#63b8ff" stroke="#63b8ff" points="1467.78,-239.07 1458.12,-243.43 1468.39,-246.04 1467.78,-239.07"/>
</g>
<!-- Node21 -->
<g id="node21" class="node">
<title>Node21</title>
<g id="a_node21"><a xlink:href="entitycomponentbase_8cpp.html" target="_top" xlink:title=" ">
<polygon fill="white" stroke="#666666" points="2131.5,-195 2001.5,-195 2001.5,-154 2131.5,-154 2131.5,-195"/>
<text text-anchor="start" x="2009.5" y="-183" font-family="Helvetica,sans-Serif" font-size="10.00">plugins/misc/scene</text>
<text text-anchor="start" x="2009.5" y="-172" font-family="Helvetica,sans-Serif" font-size="10.00">/src/Madgine/scene/entity</text>
<text text-anchor="middle" x="2066.5" y="-161" font-family="Helvetica,sans-Serif" font-size="10.00">/entitycomponentbase.cpp</text>
</a>
</g>
</g>
<!-- Node5&#45;&gt;Node21 -->
<g id="edge21" class="edge">
<title>Node5&#45;&gt;Node21</title>
<path fill="none" stroke="#63b8ff" d="M1468.26,-246.82C1592.03,-241.07 1809.13,-227.08 1992.5,-195 1995.38,-194.5 1998.31,-193.94 2001.26,-193.33"/>
<polygon fill="#63b8ff" stroke="#63b8ff" points="1468.29,-243.32 1458.46,-247.27 1468.61,-250.31 1468.29,-243.32"/>
</g>
<!-- Node22 -->
<g id="node22" class="node">
<title>Node22</title>
<g id="a_node22"><a xlink:href="entitycomponenthandle_8cpp.html" target="_top" xlink:title=" ">
<polygon fill="white" stroke="#666666" points="2287,-195 2150,-195 2150,-154 2287,-154 2287,-195"/>
<text text-anchor="start" x="2158" y="-183" font-family="Helvetica,sans-Serif" font-size="10.00">plugins/misc/scene</text>
<text text-anchor="start" x="2158" y="-172" font-family="Helvetica,sans-Serif" font-size="10.00">/src/Madgine/scene/entity</text>
<text text-anchor="middle" x="2218.5" y="-161" font-family="Helvetica,sans-Serif" font-size="10.00">/entitycomponenthandle.cpp</text>
</a>
</g>
</g>
<!-- Node5&#45;&gt;Node22 -->
<g id="edge22" class="edge">
<title>Node5&#45;&gt;Node22</title>
<path fill="none" stroke="#63b8ff" d="M1468.02,-248.84C1615.68,-245.14 1901.09,-233.24 2140.5,-195 2143.53,-194.52 2146.62,-193.97 2149.73,-193.38"/>
<polygon fill="#63b8ff" stroke="#63b8ff" points="1468.19,-245.34 1458.28,-249.08 1468.36,-252.33 1468.19,-245.34"/>
</g>
<!-- Node23 -->
<g id="node23" class="node">
<title>Node23</title>
<g id="a_node23"><a xlink:href="entitycomponentptr_8cpp.html" target="_top" xlink:title=" ">
<polygon fill="white" stroke="#666666" points="2433.5,-195 2305.5,-195 2305.5,-154 2433.5,-154 2433.5,-195"/>
<text text-anchor="start" x="2313.5" y="-183" font-family="Helvetica,sans-Serif" font-size="10.00">plugins/misc/scene</text>
<text text-anchor="start" x="2313.5" y="-172" font-family="Helvetica,sans-Serif" font-size="10.00">/src/Madgine/scene/entity</text>
<text text-anchor="middle" x="2369.5" y="-161" font-family="Helvetica,sans-Serif" font-size="10.00">/entitycomponentptr.cpp</text>
</a>
</g>
</g>
<!-- Node5&#45;&gt;Node23 -->
<g id="edge23" class="edge">
<title>Node5&#45;&gt;Node23</title>
<path fill="none" stroke="#63b8ff" d="M1468.26,-251.09C1639.03,-250.63 1997.85,-243.31 2296.5,-195 2299.35,-194.54 2302.25,-194.01 2305.17,-193.44"/>
<polygon fill="#63b8ff" stroke="#63b8ff" points="1468.3,-247.59 1458.3,-251.1 1468.31,-254.59 1468.3,-247.59"/>
</g>
<!-- Node24 -->
<g id="node24" class="node">
<title>Node24</title>
<g id="a_node24"><a xlink:href="scenecomponentbase_8cpp.html" target="_top" xlink:title=" ">
<polygon fill="white" stroke="#666666" points="2669.5,-189.5 2451.5,-189.5 2451.5,-159.5 2669.5,-159.5 2669.5,-189.5"/>
<text text-anchor="start" x="2459.5" y="-177.5" font-family="Helvetica,sans-Serif" font-size="10.00">plugins/misc/scene</text>
<text text-anchor="middle" x="2560.5" y="-166.5" font-family="Helvetica,sans-Serif" font-size="10.00">/src/Madgine/scene/scenecomponentbase.cpp</text>
</a>
</g>
</g>
<!-- Node5&#45;&gt;Node24 -->
<g id="edge24" class="edge">
<title>Node5&#45;&gt;Node24</title>
<path fill="none" stroke="#63b8ff" d="M1468.17,-249.08C1658.21,-245.54 2085.28,-233.62 2442.5,-195 2454.78,-193.67 2467.73,-191.91 2480.37,-189.98"/>
<polygon fill="#63b8ff" stroke="#63b8ff" points="1468.27,-245.58 1458.34,-249.26 1468.4,-252.57 1468.27,-245.58"/>
</g>
<!-- Node25 -->
<g id="node25" class="node">
<title>Node25</title>
<g id="a_node25"><a xlink:href="scenemanager_8cpp.html" target="_top" xlink:title=" ">
<polygon fill="white" stroke="#666666" points="2875,-189.5 2688,-189.5 2688,-159.5 2875,-159.5 2875,-189.5"/>
<text text-anchor="start" x="2696" y="-177.5" font-family="Helvetica,sans-Serif" font-size="10.00">plugins/misc/scene</text>
<text text-anchor="middle" x="2781.5" y="-166.5" font-family="Helvetica,sans-Serif" font-size="10.00">/src/Madgine/scene/scenemanager.cpp</text>
</a>
</g>
</g>
<!-- Node5&#45;&gt;Node25 -->
<g id="edge26" class="edge">
<title>Node5&#45;&gt;Node25</title>
<path fill="none" stroke="#63b8ff" d="M1468.09,-251.18C1687.51,-251.62 2228.9,-246.81 2678.5,-195 2689.53,-193.73 2701.15,-191.96 2712.45,-189.99"/>
<polygon fill="#63b8ff" stroke="#63b8ff" points="1468.14,-247.68 1458.13,-251.16 1468.12,-254.68 1468.14,-247.68"/>
</g>
<!-- Node16 -->
<g id="node16" class="node">
<title>Node16</title>
<g id="a_node16"><a xlink:href="scenesenders_8cpp.html" target="_top" xlink:title=" ">
<polygon fill="white" stroke="#666666" points="1738.5,-118 1596.5,-118 1596.5,-77 1738.5,-77 1738.5,-118"/>
<text text-anchor="start" x="1604.5" y="-106" font-family="Helvetica,sans-Serif" font-size="10.00">plugins/misc/scene</text>
<text text-anchor="start" x="1604.5" y="-95" font-family="Helvetica,sans-Serif" font-size="10.00">/src/Madgine/scene/behavior</text>
<text text-anchor="middle" x="1667.5" y="-84" font-family="Helvetica,sans-Serif" font-size="10.00">/scenesenders.cpp</text>
</a>
</g>
</g>
<!-- Node15&#45;&gt;Node16 -->
<g id="edge15" class="edge">
<title>Node15&#45;&gt;Node16</title>
<path fill="none" stroke="#63b8ff" d="M1705.24,-144.9C1698.03,-136.04 1690.25,-126.47 1683.63,-118.33"/>
<polygon fill="#63b8ff" stroke="#63b8ff" points="1702.49,-147.07 1711.52,-152.62 1707.92,-142.65 1702.49,-147.07"/>
</g>
<!-- Node15&#45;&gt;Node17 -->
<g id="edge16" class="edge">
<title>Node15&#45;&gt;Node17</title>
<path fill="none" stroke="#63b8ff" d="M1763.86,-146.71C1776.13,-137.41 1789.68,-127.15 1801.11,-118.49"/>
<polygon fill="#63b8ff" stroke="#63b8ff" points="1761.83,-143.86 1755.98,-152.68 1766.06,-149.44 1761.83,-143.86"/>
</g>
<!-- Node18 -->
<g id="node18" class="node">
<title>Node18</title>
<g id="a_node18"><a xlink:href="animation_8cpp.html" target="_top" xlink:title=" ">
<polygon fill="white" stroke="#666666" points="1818.5,-41 1676.5,-41 1676.5,0 1818.5,0 1818.5,-41"/>
<text text-anchor="start" x="1684.5" y="-29" font-family="Helvetica,sans-Serif" font-size="10.00">plugins/misc/scene</text>
<text text-anchor="start" x="1684.5" y="-18" font-family="Helvetica,sans-Serif" font-size="10.00">/src/Madgine/scene/behavior</text>
<text text-anchor="middle" x="1747.5" y="-7" font-family="Helvetica,sans-Serif" font-size="10.00">/animation.cpp</text>
</a>
</g>
</g>
<!-- Node17&#45;&gt;Node18 -->
<g id="edge17" class="edge">
<title>Node17&#45;&gt;Node18</title>
<path fill="none" stroke="#63b8ff" d="M1798.18,-69.02C1788.4,-59.84 1777.7,-49.81 1768.66,-41.33"/>
<polygon fill="#63b8ff" stroke="#63b8ff" points="1795.69,-71.47 1805.38,-75.76 1800.48,-66.37 1795.69,-71.47"/>
</g>
<!-- Node19 -->
<g id="node19" class="node">
<title>Node19</title>
<g id="a_node19"><a xlink:href="behavior_2transform_8cpp.html" target="_top" xlink:title=" ">
<polygon fill="white" stroke="#666666" points="1978.5,-41 1836.5,-41 1836.5,0 1978.5,0 1978.5,-41"/>
<text text-anchor="start" x="1844.5" y="-29" font-family="Helvetica,sans-Serif" font-size="10.00">plugins/misc/scene</text>
<text text-anchor="start" x="1844.5" y="-18" font-family="Helvetica,sans-Serif" font-size="10.00">/src/Madgine/scene/behavior</text>
<text text-anchor="middle" x="1907.5" y="-7" font-family="Helvetica,sans-Serif" font-size="10.00">/transform.cpp</text>
</a>
</g>
</g>
<!-- Node17&#45;&gt;Node19 -->
<g id="edge18" class="edge">
<title>Node17&#45;&gt;Node19</title>
<path fill="none" stroke="#63b8ff" d="M1856.82,-69.02C1866.6,-59.84 1877.3,-49.81 1886.34,-41.33"/>
<polygon fill="#63b8ff" stroke="#63b8ff" points="1854.52,-66.37 1849.62,-75.76 1859.31,-71.47 1854.52,-66.37"/>
</g>
</g>
</svg>
        <g id="navigator" transform="translate(0 0)" fill="#404254">
                <rect fill="#f2f5e9" fill-opacity="0.5" stroke="#606060" stroke-width=".5" x="0" y="0" width="60" height="60"/>
                <use id="zoomplus" xlink:href="#zoomPlus" x="17" y="9" onmousedown="handleZoom(evt,'in')"/>
                <use id="zoomminus" xlink:href="#zoomMin" x="42" y="9" onmousedown="handleZoom(evt,'out')"/>
                <use id="reset" xlink:href="#resetDef" x="30" y="36" onmousedown="handleReset()"/>
                <g id="arrowUp" xlink:href="#dirArrow" transform="translate(30 24)" onmousedown="handlePan(0,-1)">
                  <use xlink:href="#rim" fill="#404040">
                        <set attributeName="fill" to="#808080" begin="arrowUp.mouseover" end="arrowUp.mouseout"/>
                  </use>
                  <path fill="none" stroke="white" stroke-width="1.5" d="M0,-3.0v7 M-2.5,-0.5L0,-3.0L2.5,-0.5"/>
                </g>
                <g id="arrowRight" xlink:href="#dirArrow" transform="rotate(90) translate(36 -43)" onmousedown="handlePan(1,0)">
                  <use xlink:href="#rim" fill="#404040">
                        <set attributeName="fill" to="#808080" begin="arrowRight.mouseover" end="arrowRight.mouseout"/>
                  </use>
                  <path fill="none" stroke="white" stroke-width="1.5" d="M0,-3.0v7 M-2.5,-0.5L0,-3.0L2.5,-0.5"/>
                </g>
                <g id="arrowDown" xlink:href="#dirArrow" transform="rotate(180) translate(-30 -48)" onmousedown="handlePan(0,1)">
                  <use xlink:href="#rim" fill="#404040">
                        <set attributeName="fill" to="#808080" begin="arrowDown.mouseover" end="arrowDown.mouseout"/>
                  </use>
                  <path fill="none" stroke="white" stroke-width="1.5" d="M0,-3.0v7 M-2.5,-0.5L0,-3.0L2.5,-0.5"/>
                </g>
                <g id="arrowLeft" xlink:href="#dirArrow" transform="rotate(270) translate(-36 17)" onmousedown="handlePan(-1,0)">
                  <use xlink:href="#rim" fill="#404040">
                        <set attributeName="fill" to="#808080" begin="arrowLeft.mouseover" end="arrowLeft.mouseout"/>
                  </use>
                  <path fill="none" stroke="white" stroke-width="1.5" d="M0,-3.0v7 M-2.5,-0.5L0,-3.0L2.5,-0.5"/>
                </g>
        </g>
        <svg viewBox="0 0 15 15" width="100%" height="30px" preserveAspectRatio="xMaxYMin meet">
         <g id="arrow_out" transform="scale(0.3 0.3)">
          <a xlink:href="syncablecontainer_8h__dep__incl_org.svg" target="_base">
           <rect id="button" ry="5" rx="5" y="6" x="6" height="38" width="38"
                fill="#f2f5e9" fill-opacity="0.5" stroke="#606060" stroke-width="1.0"/>
           <path id="arrow"
             d="M 11.500037,31.436501 C 11.940474,20.09759 22.043105,11.32322 32.158766,21.979434 L 37.068811,17.246167 C 37.068811,17.246167 37.088388,32 37.088388,32 L 22.160133,31.978069 C 22.160133,31.978069 26.997745,27.140456 26.997745,27.140456 C 18.528582,18.264221 13.291696,25.230495 11.500037,31.436501 z"
             style="fill:#404040;"/>
          </a>
         </g>
        </svg>
</svg>
