<?xml version="1.0" encoding="UTF-8" standalone="no"?>
<!DOCTYPE svg PUBLIC "-//W3C//DTD SVG 1.1//EN"
 "http://www.w3.org/Graphics/SVG/1.1/DTD/svg11.dtd">
<!-- Generated by graphviz version 7.0.5 (20221223.1930)
 -->
<!-- Title: src/Meta/keyvalue/table_forward.h Pages: 1 -->
<svg width="128pt" height="258pt"
 viewBox="0.00 0.00 128.00 258.00" xmlns="http://www.w3.org/2000/svg" xmlns:xlink="http://www.w3.org/1999/xlink">
<g id="graph0" class="graph" transform="scale(1 1) rotate(0) translate(4 254)">
<title>src/Meta/keyvalue/table_forward.h</title>
<!-- Node1 -->
<g id="node1" class="node">
<title>Node1</title>
<g id="a_node1"><a xlink:title=" ">
<polygon fill="#999999" stroke="#666666" points="120,-250 0,-250 0,-220 120,-220 120,-250"/>
<text text-anchor="start" x="8" y="-238" font-family="Helvetica,sans-Serif" font-size="10.00">src/Meta/keyvalue/table</text>
<text text-anchor="middle" x="60" y="-227" font-family="Helvetica,sans-Serif" font-size="10.00">_forward.h</text>
</a>
</g>
</g>
<!-- Node2 -->
<g id="node2" class="node">
<title>Node2</title>
<g id="a_node2"><a xlink:href="genericresult_8h.html" target="_top" xlink:title=" ">
<polygon fill="white" stroke="#666666" points="118,-184 2,-184 2,-165 118,-165 118,-184"/>
<text text-anchor="middle" x="60" y="-172" font-family="Helvetica,sans-Serif" font-size="10.00">Generic/genericresult.h</text>
</a>
</g>
</g>
<!-- Node1&#45;&gt;Node2 -->
<g id="edge1" class="edge">
<title>Node1&#45;&gt;Node2</title>
<path fill="none" stroke="#63b8ff" d="M60,-219.54C60,-212.34 60,-203.53 60,-195.68"/>
<polygon fill="#63b8ff" stroke="#63b8ff" points="63.5,-195.69 60,-185.69 56.5,-195.69 63.5,-195.69"/>
</g>
<!-- Node3 -->
<g id="node3" class="node">
<title>Node3</title>
<g id="a_node3"><a xlink:href="enum_8h.html" target="_top" xlink:title=" ">
<polygon fill="white" stroke="#666666" points="84,-129 36,-129 36,-110 84,-110 84,-129"/>
<text text-anchor="middle" x="60" y="-117" font-family="Helvetica,sans-Serif" font-size="10.00">enum.h</text>
</a>
</g>
</g>
<!-- Node2&#45;&gt;Node3 -->
<g id="edge2" class="edge">
<title>Node2&#45;&gt;Node3</title>
<path fill="none" stroke="#63b8ff" d="M60,-164.75C60,-158.27 60,-149.16 60,-140.9"/>
<polygon fill="#63b8ff" stroke="#63b8ff" points="63.5,-140.96 60,-130.96 56.5,-140.96 63.5,-140.96"/>
</g>
<!-- Node4 -->
<g id="node4" class="node">
<title>Node4</title>
<g id="a_node4"><a xlink:href="array_8h.html" target="_top" xlink:title=" ">
<polygon fill="white" stroke="#666666" points="92,-74 28,-74 28,-55 92,-55 92,-74"/>
<text text-anchor="middle" x="60" y="-62" font-family="Helvetica,sans-Serif" font-size="10.00">bits/array.h</text>
</a>
</g>
</g>
<!-- Node3&#45;&gt;Node4 -->
<g id="edge3" class="edge">
<title>Node3&#45;&gt;Node4</title>
<path fill="none" stroke="#63b8ff" d="M60,-109.75C60,-103.27 60,-94.16 60,-85.9"/>
<polygon fill="#63b8ff" stroke="#63b8ff" points="63.5,-85.96 60,-75.96 56.5,-85.96 63.5,-85.96"/>
</g>
<!-- Node5 -->
<g id="node5" class="node">
<title>Node5</title>
<g id="a_node5"><a xlink:href="types_8h.html" target="_top" xlink:title=" ">
<polygon fill="white" stroke="#666666" points="83.5,-19 36.5,-19 36.5,0 83.5,0 83.5,-19"/>
<text text-anchor="middle" x="60" y="-7" font-family="Helvetica,sans-Serif" font-size="10.00">types.h</text>
</a>
</g>
</g>
<!-- Node4&#45;&gt;Node5 -->
<g id="edge4" class="edge">
<title>Node4&#45;&gt;Node5</title>
<path fill="none" stroke="#63b8ff" d="M60,-54.75C60,-48.27 60,-39.16 60,-30.9"/>
<polygon fill="#63b8ff" stroke="#63b8ff" points="63.5,-30.96 60,-20.96 56.5,-30.96 63.5,-30.96"/>
</g>
</g>
</svg>
