<?xml version="1.0" encoding="UTF-8" standalone="no"?>
<!DOCTYPE svg PUBLIC "-//W3C//DTD SVG 1.1//EN"
 "http://www.w3.org/Graphics/SVG/1.1/DTD/svg11.dtd">
<!-- Generated by graphviz version 7.0.5 (20221223.1930)
 -->
<!-- Title: src/Meta/serialize/configs/tags.h Pages: 1 -->
<svg width="220pt" height="93pt"
 viewBox="0.00 0.00 220.00 93.00" xmlns="http://www.w3.org/2000/svg" xmlns:xlink="http://www.w3.org/1999/xlink">
<g id="graph0" class="graph" transform="scale(1 1) rotate(0) translate(4 89)">
<title>src/Meta/serialize/configs/tags.h</title>
<!-- Node1 -->
<g id="node1" class="node">
<title>Node1</title>
<g id="a_node1"><a xlink:title=" ">
<polygon fill="#999999" stroke="#666666" points="145.5,-85 52.5,-85 52.5,-55 145.5,-55 145.5,-85"/>
<text text-anchor="start" x="60.5" y="-73" font-family="Helvetica,sans-Serif" font-size="10.00">src/Meta/serialize</text>
<text text-anchor="middle" x="99" y="-62" font-family="Helvetica,sans-Serif" font-size="10.00">/configs/tags.h</text>
</a>
</g>
</g>
<!-- Node2 -->
<g id="node2" class="node">
<title>Node2</title>
<g id="a_node2"><a xlink:href="configselector_8h.html" target="_top" xlink:title=" ">
<polygon fill="white" stroke="#666666" points="84,-19 0,-19 0,0 84,0 84,-19"/>
<text text-anchor="middle" x="42" y="-7" font-family="Helvetica,sans-Serif" font-size="10.00">configselector.h</text>
</a>
</g>
</g>
<!-- Node1&#45;&gt;Node2 -->
<g id="edge1" class="edge">
<title>Node1&#45;&gt;Node2</title>
<path fill="none" stroke="#63b8ff" d="M84.91,-54.54C76.88,-46.3 66.79,-35.94 58.41,-27.34"/>
<polygon fill="#63b8ff" stroke="#63b8ff" points="60.99,-24.98 51.51,-20.26 55.98,-29.86 60.99,-24.98"/>
</g>
<!-- Node3 -->
<g id="node3" class="node">
<title>Node3</title>
<g id="a_node3"><a xlink:href="fixed__string_8h.html" target="_top" xlink:title=" ">
<polygon fill="white" stroke="#666666" points="212,-19 102,-19 102,0 212,0 212,-19"/>
<text text-anchor="middle" x="157" y="-7" font-family="Helvetica,sans-Serif" font-size="10.00">Generic/fixed_string.h</text>
</a>
</g>
</g>
<!-- Node1&#45;&gt;Node3 -->
<g id="edge2" class="edge">
<title>Node1&#45;&gt;Node3</title>
<path fill="none" stroke="#63b8ff" d="M113.34,-54.54C121.5,-46.3 131.77,-35.94 140.3,-27.34"/>
<polygon fill="#63b8ff" stroke="#63b8ff" points="142.78,-29.82 147.33,-20.25 137.81,-24.89 142.78,-29.82"/>
</g>
</g>
</svg>
