<?xml version="1.0" encoding="UTF-8" standalone="no"?>
<!DOCTYPE svg PUBLIC "-//W3C//DTD SVG 1.1//EN"
 "http://www.w3.org/Graphics/SVG/1.1/DTD/svg11.dtd">
<!-- Generated by graphviz version 7.0.5 (20221223.1930)
 -->
<!-- Title: src/Modules/debug/tasktracking/tasktracker.cpp Pages: 1 -->
<svg width="923pt" height="709pt"
 viewBox="0.00 0.00 922.50 709.00" xmlns="http://www.w3.org/2000/svg" xmlns:xlink="http://www.w3.org/1999/xlink">
<g id="graph0" class="graph" transform="scale(1 1) rotate(0) translate(4 705)">
<title>src/Modules/debug/tasktracking/tasktracker.cpp</title>
<!-- Node1 -->
<g id="node1" class="node">
<title>Node1</title>
<g id="a_node1"><a xlink:title=" ">
<polygon fill="#999999" stroke="#666666" points="761,-701 606,-701 606,-671 761,-671 761,-701"/>
<text text-anchor="start" x="614" y="-689" font-family="Helvetica,sans-Serif" font-size="10.00">src/Modules/debug/tasktracking</text>
<text text-anchor="middle" x="683.5" y="-678" font-family="Helvetica,sans-Serif" font-size="10.00">/tasktracker.cpp</text>
</a>
</g>
</g>
<!-- Node2 -->
<g id="node2" class="node">
<title>Node2</title>
<g id="a_node2"><a xlink:href="moduleslib_8h.html" target="_top" xlink:title=" ">
<polygon fill="white" stroke="#666666" points="505.5,-635 419.5,-635 419.5,-616 505.5,-616 505.5,-635"/>
<text text-anchor="middle" x="462.5" y="-623" font-family="Helvetica,sans-Serif" font-size="10.00">../../moduleslib.h</text>
</a>
</g>
</g>
<!-- Node1&#45;&gt;Node2 -->
<g id="edge1" class="edge">
<title>Node1&#45;&gt;Node2</title>
<path fill="none" stroke="#63b8ff" d="M628.87,-670.54C591.39,-660.62 542.26,-647.61 507.13,-638.31"/>
<polygon fill="#63b8ff" stroke="#63b8ff" points="508.27,-634.99 497.71,-635.82 506.48,-641.76 508.27,-634.99"/>
</g>
<!-- Node5 -->
<g id="node5" class="node">
<title>Node5</title>
<g id="a_node5"><a xlink:href="tasktracker_8h.html" target="_top" xlink:title=" ">
<polygon fill="white" stroke="#666666" points="670,-635 597,-635 597,-616 670,-616 670,-635"/>
<text text-anchor="middle" x="633.5" y="-623" font-family="Helvetica,sans-Serif" font-size="10.00">tasktracker.h</text>
</a>
</g>
</g>
<!-- Node1&#45;&gt;Node5 -->
<g id="edge4" class="edge">
<title>Node1&#45;&gt;Node5</title>
<path fill="none" stroke="#63b8ff" d="M671.14,-670.54C664.25,-662.48 655.62,-652.38 648.36,-643.89"/>
<polygon fill="#63b8ff" stroke="#63b8ff" points="651.06,-641.65 641.9,-636.33 645.73,-646.2 651.06,-641.65"/>
</g>
<!-- Node8 -->
<g id="node8" class="node">
<title>Node8</title>
<g id="a_node8"><a xlink:href="taskpromise_8h.html" target="_top" xlink:title=" ">
<polygon fill="white" stroke="#666666" points="793,-519.5 658,-519.5 658,-500.5 793,-500.5 793,-519.5"/>
<text text-anchor="middle" x="725.5" y="-507.5" font-family="Helvetica,sans-Serif" font-size="10.00">../../threading/taskpromise.h</text>
</a>
</g>
</g>
<!-- Node1&#45;&gt;Node8 -->
<g id="edge7" class="edge">
<title>Node1&#45;&gt;Node8</title>
<path fill="none" stroke="#63b8ff" d="M686.94,-670.76C694.44,-639.69 712.28,-565.75 720.81,-530.43"/>
<polygon fill="#63b8ff" stroke="#63b8ff" points="724.1,-531.7 723.05,-521.16 717.3,-530.06 724.1,-531.7"/>
</g>
<!-- Node36 -->
<g id="node36" class="node">
<title>Node36</title>
<g id="a_node36"><a xlink:href="taskqueue_8h.html" target="_top" xlink:title=" ">
<polygon fill="white" stroke="#666666" points="872,-635 745,-635 745,-616 872,-616 872,-635"/>
<text text-anchor="middle" x="808.5" y="-623" font-family="Helvetica,sans-Serif" font-size="10.00">../../threading/taskqueue.h</text>
</a>
</g>
</g>
<!-- Node1&#45;&gt;Node36 -->
<g id="edge44" class="edge">
<title>Node1&#45;&gt;Node36</title>
<path fill="none" stroke="#63b8ff" d="M714.4,-670.54C734.19,-661.28 759.73,-649.33 779.2,-640.21"/>
<polygon fill="#63b8ff" stroke="#63b8ff" points="780.65,-643.4 788.23,-635.99 777.69,-637.06 780.65,-643.4"/>
</g>
<!-- Node3 -->
<g id="node3" class="node">
<title>Node3</title>
<g id="a_node3"><a xlink:href="interfaceslib_8h.html" target="_top" xlink:title=" ">
<polygon fill="white" stroke="#666666" points="524,-580 401,-580 401,-561 524,-561 524,-580"/>
<text text-anchor="middle" x="462.5" y="-568" font-family="Helvetica,sans-Serif" font-size="10.00">Interfaces/interfaceslib.h</text>
</a>
</g>
</g>
<!-- Node2&#45;&gt;Node3 -->
<g id="edge2" class="edge">
<title>Node2&#45;&gt;Node3</title>
<path fill="none" stroke="#63b8ff" d="M462.5,-615.75C462.5,-609.27 462.5,-600.16 462.5,-591.9"/>
<polygon fill="#63b8ff" stroke="#63b8ff" points="466,-591.96 462.5,-581.96 459,-591.96 466,-591.96"/>
</g>
<!-- Node4 -->
<g id="node4" class="node">
<title>Node4</title>
<g id="a_node4"><a xlink:title=" ">
<polygon fill="#e0e0e0" stroke="#999999" points="382.5,-580 296.5,-580 296.5,-561 382.5,-561 382.5,-580"/>
<text text-anchor="middle" x="339.5" y="-568" font-family="Helvetica,sans-Serif" font-size="10.00">modulesconfig.h</text>
</a>
</g>
</g>
<!-- Node2&#45;&gt;Node4 -->
<g id="edge3" class="edge">
<title>Node2&#45;&gt;Node4</title>
<path fill="none" stroke="#63b8ff" d="M441.63,-615.51C422.08,-607.08 392.6,-594.38 370.33,-584.79"/>
<polygon fill="#63b8ff" stroke="#63b8ff" points="372.02,-581.7 361.45,-580.96 369.25,-588.13 372.02,-581.7"/>
</g>
<!-- Node6 -->
<g id="node6" class="node">
<title>Node6</title>
<g id="a_node6"><a xlink:href="stacktrace_8h.html" target="_top" xlink:title=" ">
<polygon fill="white" stroke="#666666" points="688.5,-580 542.5,-580 542.5,-561 688.5,-561 688.5,-580"/>
<text text-anchor="middle" x="615.5" y="-568" font-family="Helvetica,sans-Serif" font-size="10.00">Interfaces/debug/stacktrace.h</text>
</a>
</g>
</g>
<!-- Node5&#45;&gt;Node6 -->
<g id="edge5" class="edge">
<title>Node5&#45;&gt;Node6</title>
<path fill="none" stroke="#63b8ff" d="M630.53,-615.75C628.27,-609.11 625.09,-599.73 622.23,-591.31"/>
<polygon fill="#63b8ff" stroke="#63b8ff" points="625.55,-590.22 619.02,-581.88 618.93,-592.47 625.55,-590.22"/>
</g>
<!-- Node7 -->
<g id="node7" class="node">
<title>Node7</title>
<g id="a_node7"><a xlink:href="traceback_8h.html" target="_top" xlink:title=" ">
<polygon fill="white" stroke="#666666" points="640,-519.5 573,-519.5 573,-500.5 640,-500.5 640,-519.5"/>
<text text-anchor="middle" x="606.5" y="-507.5" font-family="Helvetica,sans-Serif" font-size="10.00">traceback.h</text>
</a>
</g>
</g>
<!-- Node6&#45;&gt;Node7 -->
<g id="edge6" class="edge">
<title>Node6&#45;&gt;Node7</title>
<path fill="none" stroke="#63b8ff" d="M614.17,-560.87C612.96,-553 611.13,-541.1 609.56,-530.89"/>
<polygon fill="#63b8ff" stroke="#63b8ff" points="613.04,-530.51 608.06,-521.16 606.12,-531.58 613.04,-530.51"/>
</g>
<!-- Node9 -->
<g id="node9" class="node">
<title>Node9</title>
<g id="a_node9"><a xlink:href="taskfuture_8h.html" target="_top" xlink:title=" ">
<polygon fill="white" stroke="#666666" points="697.5,-459 629.5,-459 629.5,-440 697.5,-440 697.5,-459"/>
<text text-anchor="middle" x="663.5" y="-447" font-family="Helvetica,sans-Serif" font-size="10.00">taskfuture.h</text>
</a>
</g>
</g>
<!-- Node8&#45;&gt;Node9 -->
<g id="edge8" class="edge">
<title>Node8&#45;&gt;Node9</title>
<path fill="none" stroke="#63b8ff" d="M716.08,-500.12C706.89,-491.44 692.66,-478.02 681.33,-467.32"/>
<polygon fill="#63b8ff" stroke="#63b8ff" points="683.78,-464.82 674.11,-460.51 678.98,-469.92 683.78,-464.82"/>
</g>
<!-- Node10 -->
<g id="node10" class="node">
<title>Node10</title>
<g id="a_node10"><a xlink:href="taskhandle_8h.html" target="_top" xlink:title=" ">
<polygon fill="white" stroke="#666666" points="711,-349 640,-349 640,-330 711,-330 711,-349"/>
<text text-anchor="middle" x="675.5" y="-337" font-family="Helvetica,sans-Serif" font-size="10.00">taskhandle.h</text>
</a>
</g>
</g>
<!-- Node8&#45;&gt;Node10 -->
<g id="edge42" class="edge">
<title>Node8&#45;&gt;Node10</title>
<path fill="none" stroke="#63b8ff" d="M723.14,-500.04C719.63,-486.85 712.8,-461.46 706.5,-440 698.32,-412.11 688.2,-380.04 681.79,-360.02"/>
<polygon fill="#63b8ff" stroke="#63b8ff" points="685.19,-359.15 678.8,-350.7 678.52,-361.29 685.19,-359.15"/>
</g>
<!-- Node20 -->
<g id="node20" class="node">
<title>Node20</title>
<g id="a_node20"><a xlink:href="execution_2concepts_8h.html" target="_top" xlink:title=" ">
<polygon fill="white" stroke="#666666" points="479.5,-74 415.5,-74 415.5,-55 479.5,-55 479.5,-74"/>
<text text-anchor="middle" x="447.5" y="-62" font-family="Helvetica,sans-Serif" font-size="10.00">concepts.h</text>
</a>
</g>
</g>
<!-- Node8&#45;&gt;Node20 -->
<g id="edge43" class="edge">
<title>Node8&#45;&gt;Node20</title>
<path fill="none" stroke="#63b8ff" d="M780.42,-500.05C836.22,-487.46 914.5,-458.56 914.5,-395.5 914.5,-395.5 914.5,-395.5 914.5,-173.5 914.5,-137.85 896.61,-127.4 865.5,-110 802.12,-74.56 584.72,-67.33 491.03,-65.87"/>
<polygon fill="#63b8ff" stroke="#63b8ff" points="491.27,-62.37 481.22,-65.73 491.17,-69.37 491.27,-62.37"/>
</g>
<!-- Node9&#45;&gt;Node10 -->
<g id="edge9" class="edge">
<title>Node9&#45;&gt;Node10</title>
<path fill="none" stroke="#63b8ff" d="M664.48,-439.66C666.39,-422.5 670.64,-384.26 673.27,-360.6"/>
<polygon fill="#63b8ff" stroke="#63b8ff" points="676.71,-361.29 674.34,-350.96 669.75,-360.52 676.71,-361.29"/>
</g>
<!-- Node11 -->
<g id="node11" class="node">
<title>Node11</title>
<g id="a_node11"><a xlink:href="taskpromisesharedstate_8h.html" target="_top" xlink:title=" ">
<polygon fill="white" stroke="#666666" points="647.5,-404 519.5,-404 519.5,-385 647.5,-385 647.5,-404"/>
<text text-anchor="middle" x="583.5" y="-392" font-family="Helvetica,sans-Serif" font-size="10.00">taskpromisesharedstate.h</text>
</a>
</g>
</g>
<!-- Node9&#45;&gt;Node11 -->
<g id="edge10" class="edge">
<title>Node9&#45;&gt;Node11</title>
<path fill="none" stroke="#63b8ff" d="M649.93,-439.51C638.02,-431.62 620.45,-419.98 606.37,-410.65"/>
<polygon fill="#63b8ff" stroke="#63b8ff" points="608.4,-407.8 598.13,-405.19 604.54,-413.63 608.4,-407.8"/>
</g>
<!-- Node11&#45;&gt;Node10 -->
<g id="edge41" class="edge">
<title>Node11&#45;&gt;Node10</title>
<path fill="none" stroke="#63b8ff" d="M599.11,-384.51C613.2,-376.39 634.19,-364.3 650.6,-354.85"/>
<polygon fill="#63b8ff" stroke="#63b8ff" points="651.89,-358.14 658.81,-350.11 648.4,-352.07 651.89,-358.14"/>
</g>
<!-- Node12 -->
<g id="node12" class="node">
<title>Node12</title>
<g id="a_node12"><a xlink:href="flag_8h.html" target="_top" xlink:title=" ">
<polygon fill="white" stroke="#666666" points="546.5,-349 426.5,-349 426.5,-330 546.5,-330 546.5,-349"/>
<text text-anchor="middle" x="486.5" y="-337" font-family="Helvetica,sans-Serif" font-size="10.00">Generic/execution/flag.h</text>
</a>
</g>
</g>
<!-- Node11&#45;&gt;Node12 -->
<g id="edge11" class="edge">
<title>Node11&#45;&gt;Node12</title>
<path fill="none" stroke="#63b8ff" d="M567.05,-384.51C552.18,-376.39 530.06,-364.3 512.75,-354.85"/>
<polygon fill="#63b8ff" stroke="#63b8ff" points="514.49,-351.81 504.04,-350.08 511.14,-357.95 514.49,-351.81"/>
</g>
<!-- Node13 -->
<g id="node13" class="node">
<title>Node13</title>
<g id="a_node13"><a xlink:href="flagstub_8h.html" target="_top" xlink:title=" ">
<polygon fill="white" stroke="#666666" points="488.5,-294 430.5,-294 430.5,-275 488.5,-275 488.5,-294"/>
<text text-anchor="middle" x="459.5" y="-282" font-family="Helvetica,sans-Serif" font-size="10.00">flagstub.h</text>
</a>
</g>
</g>
<!-- Node12&#45;&gt;Node13 -->
<g id="edge12" class="edge">
<title>Node12&#45;&gt;Node13</title>
<path fill="none" stroke="#63b8ff" d="M482.04,-329.75C478.55,-322.88 473.55,-313.08 469.15,-304.45"/>
<polygon fill="#63b8ff" stroke="#63b8ff" points="472.4,-303.11 464.74,-295.79 466.16,-306.29 472.4,-303.11"/>
</g>
<!-- Node14 -->
<g id="node14" class="node">
<title>Node14</title>
<g id="a_node14"><a xlink:href="algorithm_8h.html" target="_top" xlink:title=" ">
<polygon fill="white" stroke="#666666" points="659.5,-239 595.5,-239 595.5,-220 659.5,-220 659.5,-239"/>
<text text-anchor="middle" x="627.5" y="-227" font-family="Helvetica,sans-Serif" font-size="10.00">algorithm.h</text>
</a>
</g>
</g>
<!-- Node13&#45;&gt;Node14 -->
<g id="edge13" class="edge">
<title>Node13&#45;&gt;Node14</title>
<path fill="none" stroke="#63b8ff" d="M488,-274.51C515.6,-265.8 557.66,-252.53 588.38,-242.84"/>
<polygon fill="#63b8ff" stroke="#63b8ff" points="589.22,-246.25 597.7,-239.9 587.11,-239.57 589.22,-246.25"/>
</g>
<!-- Node22 -->
<g id="node22" class="node">
<title>Node22</title>
<g id="a_node22"><a xlink:href="connection_8h.html" target="_top" xlink:title=" ">
<polygon fill="white" stroke="#666666" points="185,-239 114,-239 114,-220 185,-220 185,-239"/>
<text text-anchor="middle" x="149.5" y="-227" font-family="Helvetica,sans-Serif" font-size="10.00">connection.h</text>
</a>
</g>
</g>
<!-- Node13&#45;&gt;Node22 -->
<g id="edge21" class="edge">
<title>Node13&#45;&gt;Node22</title>
<path fill="none" stroke="#63b8ff" d="M430.06,-278.47C376.16,-269.25 261.25,-249.61 196.46,-238.53"/>
<polygon fill="#63b8ff" stroke="#63b8ff" points="197.29,-235.12 186.85,-236.88 196.11,-242.02 197.29,-235.12"/>
</g>
<!-- Node27 -->
<g id="node27" class="node">
<title>Node27</title>
<g id="a_node27"><a xlink:href="virtualsender_8h.html" target="_top" xlink:title=" ">
<polygon fill="white" stroke="#666666" points="223.5,-184 143.5,-184 143.5,-165 223.5,-165 223.5,-184"/>
<text text-anchor="middle" x="183.5" y="-172" font-family="Helvetica,sans-Serif" font-size="10.00">virtualsender.h</text>
</a>
</g>
</g>
<!-- Node13&#45;&gt;Node27 -->
<g id="edge39" class="edge">
<title>Node13&#45;&gt;Node27</title>
<path fill="none" stroke="#63b8ff" d="M436.91,-274.66C388.39,-255.68 274,-210.91 217,-188.61"/>
<polygon fill="#63b8ff" stroke="#63b8ff" points="218.4,-185.4 207.81,-185.01 215.84,-191.92 218.4,-185.4"/>
</g>
<!-- Node32 -->
<g id="node32" class="node">
<title>Node32</title>
<g id="a_node32"><a xlink:href="execution_8h.html" target="_top" xlink:title=" ">
<polygon fill="white" stroke="#666666" points="454,-239 389,-239 389,-220 454,-220 454,-239"/>
<text text-anchor="middle" x="421.5" y="-227" font-family="Helvetica,sans-Serif" font-size="10.00">execution.h</text>
</a>
</g>
</g>
<!-- Node13&#45;&gt;Node32 -->
<g id="edge34" class="edge">
<title>Node13&#45;&gt;Node32</title>
<path fill="none" stroke="#63b8ff" d="M453.23,-274.75C448.14,-267.66 440.8,-257.42 434.47,-248.59"/>
<polygon fill="#63b8ff" stroke="#63b8ff" points="437.46,-246.76 428.79,-240.67 431.78,-250.84 437.46,-246.76"/>
</g>
<!-- Node35 -->
<g id="node35" class="node">
<title>Node35</title>
<g id="a_node35"><a xlink:href="stack_8h.html" target="_top" xlink:title=" ">
<polygon fill="white" stroke="#666666" points="563,-239 472,-239 472,-220 563,-220 563,-239"/>
<text text-anchor="middle" x="517.5" y="-227" font-family="Helvetica,sans-Serif" font-size="10.00">container/stack.h</text>
</a>
</g>
</g>
<!-- Node13&#45;&gt;Node35 -->
<g id="edge40" class="edge">
<title>Node13&#45;&gt;Node35</title>
<path fill="none" stroke="#63b8ff" d="M469.34,-274.51C477.55,-267 489.48,-256.1 499.41,-247.03"/>
<polygon fill="#63b8ff" stroke="#63b8ff" points="501.67,-249.71 506.69,-240.38 496.95,-244.54 501.67,-249.71"/>
</g>
<!-- Node15 -->
<g id="node15" class="node">
<title>Node15</title>
<g id="a_node15"><a xlink:href="delayedconstruct_8h.html" target="_top" xlink:title=" ">
<polygon fill="white" stroke="#666666" points="655,-184 550,-184 550,-165 655,-165 655,-184"/>
<text text-anchor="middle" x="602.5" y="-172" font-family="Helvetica,sans-Serif" font-size="10.00">../delayedconstruct.h</text>
</a>
</g>
</g>
<!-- Node14&#45;&gt;Node15 -->
<g id="edge14" class="edge">
<title>Node14&#45;&gt;Node15</title>
<path fill="none" stroke="#63b8ff" d="M623.37,-219.75C620.17,-212.96 615.61,-203.3 611.57,-194.73"/>
<polygon fill="#63b8ff" stroke="#63b8ff" points="614.8,-193.36 607.36,-185.81 608.46,-196.35 614.8,-193.36"/>
</g>
<!-- Node17 -->
<g id="node17" class="node">
<title>Node17</title>
<g id="a_node17"><a xlink:href="manuallifetime_8h.html" target="_top" xlink:title=" ">
<polygon fill="white" stroke="#666666" points="768,-184 673,-184 673,-165 768,-165 768,-184"/>
<text text-anchor="middle" x="720.5" y="-172" font-family="Helvetica,sans-Serif" font-size="10.00">../manuallifetime.h</text>
</a>
</g>
</g>
<!-- Node14&#45;&gt;Node17 -->
<g id="edge16" class="edge">
<title>Node14&#45;&gt;Node17</title>
<path fill="none" stroke="#63b8ff" d="M643.28,-219.51C657.52,-211.39 678.74,-199.3 695.33,-189.85"/>
<polygon fill="#63b8ff" stroke="#63b8ff" points="696.69,-193.1 703.64,-185.11 693.22,-187.02 696.69,-193.1"/>
</g>
<!-- Node18 -->
<g id="node18" class="node">
<title>Node18</title>
<g id="a_node18"><a xlink:href="pipable_8h.html" target="_top" xlink:title=" ">
<polygon fill="white" stroke="#666666" points="848.5,-184 786.5,-184 786.5,-165 848.5,-165 848.5,-184"/>
<text text-anchor="middle" x="817.5" y="-172" font-family="Helvetica,sans-Serif" font-size="10.00">../pipable.h</text>
</a>
</g>
</g>
<!-- Node14&#45;&gt;Node18 -->
<g id="edge17" class="edge">
<title>Node14&#45;&gt;Node18</title>
<path fill="none" stroke="#63b8ff" d="M659.73,-219.51C691.54,-210.64 740.36,-197.02 775.26,-187.28"/>
<polygon fill="#63b8ff" stroke="#63b8ff" points="775.91,-190.73 784.6,-184.68 774.03,-183.99 775.91,-190.73"/>
</g>
<!-- Node14&#45;&gt;Node20 -->
<g id="edge19" class="edge">
<title>Node14&#45;&gt;Node20</title>
<path fill="none" stroke="#63b8ff" d="M659.67,-227.14C716.92,-223.99 832.78,-213.96 857.5,-184 871.57,-166.94 864.79,-128.55 843.5,-110 817.31,-87.18 588.49,-72.78 491.09,-67.63"/>
<polygon fill="#63b8ff" stroke="#63b8ff" points="491.57,-64.15 481.4,-67.13 491.2,-71.14 491.57,-64.15"/>
</g>
<!-- Node21 -->
<g id="node21" class="node">
<title>Node21</title>
<g id="a_node21"><a xlink:href="storage_8h.html" target="_top" xlink:title=" ">
<polygon fill="white" stroke="#666666" points="531.5,-184 475.5,-184 475.5,-165 531.5,-165 531.5,-184"/>
<text text-anchor="middle" x="503.5" y="-172" font-family="Helvetica,sans-Serif" font-size="10.00">storage.h</text>
</a>
</g>
</g>
<!-- Node14&#45;&gt;Node21 -->
<g id="edge20" class="edge">
<title>Node14&#45;&gt;Node21</title>
<path fill="none" stroke="#63b8ff" d="M606.47,-219.51C586.75,-211.08 557.03,-198.38 534.59,-188.79"/>
<polygon fill="#63b8ff" stroke="#63b8ff" points="536.19,-185.66 525.62,-184.95 533.44,-192.1 536.19,-185.66"/>
</g>
<!-- Node16 -->
<g id="node16" class="node">
<title>Node16</title>
<g id="a_node16"><a xlink:href="closure_8h.html" target="_top" xlink:title=" ">
<polygon fill="white" stroke="#666666" points="630.5,-129 574.5,-129 574.5,-110 630.5,-110 630.5,-129"/>
<text text-anchor="middle" x="602.5" y="-117" font-family="Helvetica,sans-Serif" font-size="10.00">closure.h</text>
</a>
</g>
</g>
<!-- Node15&#45;&gt;Node16 -->
<g id="edge15" class="edge">
<title>Node15&#45;&gt;Node16</title>
<path fill="none" stroke="#63b8ff" d="M602.5,-164.75C602.5,-158.27 602.5,-149.16 602.5,-140.9"/>
<polygon fill="#63b8ff" stroke="#63b8ff" points="606,-140.96 602.5,-130.96 599,-140.96 606,-140.96"/>
</g>
<!-- Node19 -->
<g id="node19" class="node">
<title>Node19</title>
<g id="a_node19"><a xlink:href="lift_8h.html" target="_top" xlink:title=" ">
<polygon fill="white" stroke="#666666" points="835,-129 800,-129 800,-110 835,-110 835,-129"/>
<text text-anchor="middle" x="817.5" y="-117" font-family="Helvetica,sans-Serif" font-size="10.00">lift.h</text>
</a>
</g>
</g>
<!-- Node18&#45;&gt;Node19 -->
<g id="edge18" class="edge">
<title>Node18&#45;&gt;Node19</title>
<path fill="none" stroke="#63b8ff" d="M817.5,-164.75C817.5,-158.27 817.5,-149.16 817.5,-140.9"/>
<polygon fill="#63b8ff" stroke="#63b8ff" points="821,-140.96 817.5,-130.96 814,-140.96 821,-140.96"/>
</g>
<!-- Node23 -->
<g id="node23" class="node">
<title>Node23</title>
<g id="a_node23"><a xlink:href="genericresult_8h.html" target="_top" xlink:title=" ">
<polygon fill="white" stroke="#666666" points="87,-184 0,-184 0,-165 87,-165 87,-184"/>
<text text-anchor="middle" x="43.5" y="-172" font-family="Helvetica,sans-Serif" font-size="10.00">../genericresult.h</text>
</a>
</g>
</g>
<!-- Node22&#45;&gt;Node23 -->
<g id="edge22" class="edge">
<title>Node22&#45;&gt;Node23</title>
<path fill="none" stroke="#63b8ff" d="M131.52,-219.51C115.05,-211.27 90.41,-198.96 71.39,-189.45"/>
<polygon fill="#63b8ff" stroke="#63b8ff" points="73.08,-186.38 62.57,-185.03 69.95,-192.64 73.08,-186.38"/>
</g>
<!-- Node22&#45;&gt;Node27 -->
<g id="edge26" class="edge">
<title>Node22&#45;&gt;Node27</title>
<path fill="none" stroke="#63b8ff" d="M155.11,-219.75C159.62,-212.73 166.09,-202.64 171.71,-193.87"/>
<polygon fill="#63b8ff" stroke="#63b8ff" points="174.49,-196.02 176.95,-185.72 168.6,-192.24 174.49,-196.02"/>
</g>
<!-- Node29 -->
<g id="node29" class="node">
<title>Node29</title>
<g id="a_node29"><a xlink:href="virtualstate_8h.html" target="_top" xlink:title=" ">
<polygon fill="white" stroke="#666666" points="219.5,-129 147.5,-129 147.5,-110 219.5,-110 219.5,-129"/>
<text text-anchor="middle" x="183.5" y="-117" font-family="Helvetica,sans-Serif" font-size="10.00">virtualstate.h</text>
</a>
</g>
</g>
<!-- Node22&#45;&gt;Node29 -->
<g id="edge33" class="edge">
<title>Node22&#45;&gt;Node29</title>
<path fill="none" stroke="#63b8ff" d="M143.9,-219.54C136.78,-206.94 126.34,-183.44 134.5,-165 139.66,-153.34 149.56,-143.42 159.12,-135.93"/>
<polygon fill="#63b8ff" stroke="#63b8ff" points="161.07,-138.84 167.14,-130.16 156.98,-133.16 161.07,-138.84"/>
</g>
<!-- Node24 -->
<g id="node24" class="node">
<title>Node24</title>
<g id="a_node24"><a xlink:href="enum_8h.html" target="_top" xlink:title=" ">
<polygon fill="white" stroke="#666666" points="67.5,-129 19.5,-129 19.5,-110 67.5,-110 67.5,-129"/>
<text text-anchor="middle" x="43.5" y="-117" font-family="Helvetica,sans-Serif" font-size="10.00">enum.h</text>
</a>
</g>
</g>
<!-- Node23&#45;&gt;Node24 -->
<g id="edge23" class="edge">
<title>Node23&#45;&gt;Node24</title>
<path fill="none" stroke="#63b8ff" d="M43.5,-164.75C43.5,-158.27 43.5,-149.16 43.5,-140.9"/>
<polygon fill="#63b8ff" stroke="#63b8ff" points="47,-140.96 43.5,-130.96 40,-140.96 47,-140.96"/>
</g>
<!-- Node25 -->
<g id="node25" class="node">
<title>Node25</title>
<g id="a_node25"><a xlink:href="array_8h.html" target="_top" xlink:title=" ">
<polygon fill="white" stroke="#666666" points="75.5,-74 11.5,-74 11.5,-55 75.5,-55 75.5,-74"/>
<text text-anchor="middle" x="43.5" y="-62" font-family="Helvetica,sans-Serif" font-size="10.00">bits/array.h</text>
</a>
</g>
</g>
<!-- Node24&#45;&gt;Node25 -->
<g id="edge24" class="edge">
<title>Node24&#45;&gt;Node25</title>
<path fill="none" stroke="#63b8ff" d="M43.5,-109.75C43.5,-103.27 43.5,-94.16 43.5,-85.9"/>
<polygon fill="#63b8ff" stroke="#63b8ff" points="47,-85.96 43.5,-75.96 40,-85.96 47,-85.96"/>
</g>
<!-- Node26 -->
<g id="node26" class="node">
<title>Node26</title>
<g id="a_node26"><a xlink:href="types_8h.html" target="_top" xlink:title=" ">
<polygon fill="white" stroke="#666666" points="67,-19 20,-19 20,0 67,0 67,-19"/>
<text text-anchor="middle" x="43.5" y="-7" font-family="Helvetica,sans-Serif" font-size="10.00">types.h</text>
</a>
</g>
</g>
<!-- Node25&#45;&gt;Node26 -->
<g id="edge25" class="edge">
<title>Node25&#45;&gt;Node26</title>
<path fill="none" stroke="#63b8ff" d="M43.5,-54.75C43.5,-48.27 43.5,-39.16 43.5,-30.9"/>
<polygon fill="#63b8ff" stroke="#63b8ff" points="47,-30.96 43.5,-20.96 40,-30.96 47,-30.96"/>
</g>
<!-- Node28 -->
<g id="node28" class="node">
<title>Node28</title>
<g id="a_node28"><a xlink:href="src_2_generic_2execution_2sender_8h.html" target="_top" xlink:title=" ">
<polygon fill="white" stroke="#666666" points="355,-129 302,-129 302,-110 355,-110 355,-129"/>
<text text-anchor="middle" x="328.5" y="-117" font-family="Helvetica,sans-Serif" font-size="10.00">sender.h</text>
</a>
</g>
</g>
<!-- Node27&#45;&gt;Node28 -->
<g id="edge27" class="edge">
<title>Node27&#45;&gt;Node28</title>
<path fill="none" stroke="#63b8ff" d="M208.1,-164.51C231.57,-155.93 267.17,-142.92 293.57,-133.27"/>
<polygon fill="#63b8ff" stroke="#63b8ff" points="294.65,-136.6 302.84,-129.88 292.25,-130.02 294.65,-136.6"/>
</g>
<!-- Node27&#45;&gt;Node29 -->
<g id="edge29" class="edge">
<title>Node27&#45;&gt;Node29</title>
<path fill="none" stroke="#63b8ff" d="M183.5,-164.75C183.5,-158.27 183.5,-149.16 183.5,-140.9"/>
<polygon fill="#63b8ff" stroke="#63b8ff" points="187,-140.96 183.5,-130.96 180,-140.96 187,-140.96"/>
</g>
<!-- Node28&#45;&gt;Node20 -->
<g id="edge28" class="edge">
<title>Node28&#45;&gt;Node20</title>
<path fill="none" stroke="#63b8ff" d="M348.69,-109.51C367.52,-101.12 395.87,-88.5 417.37,-78.92"/>
<polygon fill="#63b8ff" stroke="#63b8ff" points="418.52,-82.24 426.23,-74.97 415.67,-75.85 418.52,-82.24"/>
</g>
<!-- Node29&#45;&gt;Node20 -->
<g id="edge30" class="edge">
<title>Node29&#45;&gt;Node20</title>
<path fill="none" stroke="#63b8ff" d="M219.93,-111.19C268.06,-101.52 352.73,-84.53 404.11,-74.21"/>
<polygon fill="#63b8ff" stroke="#63b8ff" points="404.57,-77.69 413.68,-72.29 403.19,-70.83 404.57,-77.69"/>
</g>
<!-- Node30 -->
<g id="node30" class="node">
<title>Node30</title>
<g id="a_node30"><a xlink:href="virtual__invoke_8h.html" target="_top" xlink:title=" ">
<polygon fill="white" stroke="#666666" points="244,-74 123,-74 123,-55 244,-55 244,-74"/>
<text text-anchor="middle" x="183.5" y="-62" font-family="Helvetica,sans-Serif" font-size="10.00">Generic/virtual_invoke.h</text>
</a>
</g>
</g>
<!-- Node29&#45;&gt;Node30 -->
<g id="edge31" class="edge">
<title>Node29&#45;&gt;Node30</title>
<path fill="none" stroke="#63b8ff" d="M183.5,-109.75C183.5,-103.27 183.5,-94.16 183.5,-85.9"/>
<polygon fill="#63b8ff" stroke="#63b8ff" points="187,-85.96 183.5,-75.96 180,-85.96 187,-85.96"/>
</g>
<!-- Node31 -->
<g id="node31" class="node">
<title>Node31</title>
<g id="a_node31"><a xlink:href="callable__traits_8h.html" target="_top" xlink:title=" ">
<polygon fill="white" stroke="#666666" points="225.5,-19 141.5,-19 141.5,0 225.5,0 225.5,-19"/>
<text text-anchor="middle" x="183.5" y="-7" font-family="Helvetica,sans-Serif" font-size="10.00">callable_traits.h</text>
</a>
</g>
</g>
<!-- Node30&#45;&gt;Node31 -->
<g id="edge32" class="edge">
<title>Node30&#45;&gt;Node31</title>
<path fill="none" stroke="#63b8ff" d="M183.5,-54.75C183.5,-48.27 183.5,-39.16 183.5,-30.9"/>
<polygon fill="#63b8ff" stroke="#63b8ff" points="187,-30.96 183.5,-20.96 180,-30.96 187,-30.96"/>
</g>
<!-- Node32&#45;&gt;Node20 -->
<g id="edge37" class="edge">
<title>Node32&#45;&gt;Node20</title>
<path fill="none" stroke="#63b8ff" d="M422.9,-219.74C426.92,-194.53 438.59,-121.36 444.29,-85.62"/>
<polygon fill="#63b8ff" stroke="#63b8ff" points="447.74,-86.23 445.86,-75.8 440.83,-85.13 447.74,-86.23"/>
</g>
<!-- Node32&#45;&gt;Node21 -->
<g id="edge38" class="edge">
<title>Node32&#45;&gt;Node21</title>
<path fill="none" stroke="#63b8ff" d="M435.41,-219.51C447.74,-211.54 465.97,-199.75 480.47,-190.38"/>
<polygon fill="#63b8ff" stroke="#63b8ff" points="482.03,-193.55 488.52,-185.18 478.23,-187.67 482.03,-193.55"/>
</g>
<!-- Node33 -->
<g id="node33" class="node">
<title>Node33</title>
<g id="a_node33"><a xlink:href="makeowning_8h.html" target="_top" xlink:title=" ">
<polygon fill="white" stroke="#666666" points="327.5,-184 241.5,-184 241.5,-165 327.5,-165 327.5,-184"/>
<text text-anchor="middle" x="284.5" y="-172" font-family="Helvetica,sans-Serif" font-size="10.00">../makeowning.h</text>
</a>
</g>
</g>
<!-- Node32&#45;&gt;Node33 -->
<g id="edge35" class="edge">
<title>Node32&#45;&gt;Node33</title>
<path fill="none" stroke="#63b8ff" d="M398.26,-219.51C376.18,-210.97 342.75,-198.03 317.83,-188.4"/>
<polygon fill="#63b8ff" stroke="#63b8ff" points="319.4,-185.25 308.81,-184.9 316.87,-191.78 319.4,-185.25"/>
</g>
<!-- Node34 -->
<g id="node34" class="node">
<title>Node34</title>
<g id="a_node34"><a xlink:href="withresult_8h.html" target="_top" xlink:title=" ">
<polygon fill="white" stroke="#666666" points="419.5,-184 345.5,-184 345.5,-165 419.5,-165 419.5,-184"/>
<text text-anchor="middle" x="382.5" y="-172" font-family="Helvetica,sans-Serif" font-size="10.00">../withresult.h</text>
</a>
</g>
</g>
<!-- Node32&#45;&gt;Node34 -->
<g id="edge36" class="edge">
<title>Node32&#45;&gt;Node34</title>
<path fill="none" stroke="#63b8ff" d="M415.06,-219.75C409.84,-212.66 402.31,-202.42 395.81,-193.59"/>
<polygon fill="#63b8ff" stroke="#63b8ff" points="398.72,-191.64 389.98,-185.66 393.08,-195.79 398.72,-191.64"/>
</g>
<!-- Node37 -->
<g id="node37" class="node">
<title>Node37</title>
<g id="a_node37"><a xlink:href="task_8h.html" target="_top" xlink:title=" ">
<polygon fill="white" stroke="#666666" points="830,-580 787,-580 787,-561 830,-561 830,-580"/>
<text text-anchor="middle" x="808.5" y="-568" font-family="Helvetica,sans-Serif" font-size="10.00">task.h</text>
</a>
</g>
</g>
<!-- Node36&#45;&gt;Node37 -->
<g id="edge45" class="edge">
<title>Node36&#45;&gt;Node37</title>
<path fill="none" stroke="#63b8ff" d="M808.5,-615.75C808.5,-609.27 808.5,-600.16 808.5,-591.9"/>
<polygon fill="#63b8ff" stroke="#63b8ff" points="812,-591.96 808.5,-581.96 805,-591.96 812,-591.96"/>
</g>
<!-- Node37&#45;&gt;Node8 -->
<g id="edge47" class="edge">
<title>Node37&#45;&gt;Node8</title>
<path fill="none" stroke="#63b8ff" d="M795.89,-560.62C783.1,-551.6 763.02,-537.45 747.58,-526.56"/>
<polygon fill="#63b8ff" stroke="#63b8ff" points="749.65,-523.74 739.46,-520.84 745.62,-529.46 749.65,-523.74"/>
</g>
<!-- Node38 -->
<g id="node38" class="node">
<title>Node38</title>
<g id="a_node38"><a xlink:href="src_2_generic_2coroutines_2handle_8h.html" target="_top" xlink:title=" ">
<polygon fill="white" stroke="#666666" points="909.5,-525 811.5,-525 811.5,-495 909.5,-495 909.5,-525"/>
<text text-anchor="start" x="819.5" y="-513" font-family="Helvetica,sans-Serif" font-size="10.00">Generic/coroutines</text>
<text text-anchor="middle" x="860.5" y="-502" font-family="Helvetica,sans-Serif" font-size="10.00">/handle.h</text>
</a>
</g>
</g>
<!-- Node37&#45;&gt;Node38 -->
<g id="edge46" class="edge">
<title>Node37&#45;&gt;Node38</title>
<path fill="none" stroke="#63b8ff" d="M816.17,-560.87C822.58,-553.67 831.99,-543.07 840.51,-533.49"/>
<polygon fill="#63b8ff" stroke="#63b8ff" points="842.92,-536.05 846.95,-526.25 837.69,-531.39 842.92,-536.05"/>
</g>
</g>
</svg>
