<?xml version="1.0" encoding="UTF-8" standalone="no"?>
<!DOCTYPE svg PUBLIC "-//W3C//DTD SVG 1.1//EN"
 "http://www.w3.org/Graphics/SVG/1.1/DTD/svg11.dtd">
<!-- Generated by graphviz version 7.0.5 (20221223.1930)
 -->
<!-- Title: src/Generic/timeout.h Pages: 1 -->
<svg width="3121pt" height="533pt"
 viewBox="0.00 0.00 3121.00 533.00" xmlns="http://www.w3.org/2000/svg" xmlns:xlink="http://www.w3.org/1999/xlink">
<g id="graph0" class="graph" transform="scale(1 1) rotate(0) translate(4 529)">
<title>src/Generic/timeout.h</title>
<!-- Node1 -->
<g id="node1" class="node">
<title>Node1</title>
<g id="a_node1"><a xlink:title=" ">
<polygon fill="#999999" stroke="#666666" points="621,-525 511,-525 511,-506 621,-506 621,-525"/>
<text text-anchor="middle" x="566" y="-513" font-family="Helvetica,sans-Serif" font-size="10.00">src/Generic/timeout.h</text>
</a>
</g>
</g>
<!-- Node2 -->
<g id="node2" class="node">
<title>Node2</title>
<g id="a_node2"><a xlink:href="socketapi_8h.html" target="_top" xlink:title=" ">
<polygon fill="white" stroke="#666666" points="463.5,-470 354.5,-470 354.5,-440 463.5,-440 463.5,-470"/>
<text text-anchor="start" x="362.5" y="-458" font-family="Helvetica,sans-Serif" font-size="10.00">src/Interfaces/socket</text>
<text text-anchor="middle" x="409" y="-447" font-family="Helvetica,sans-Serif" font-size="10.00">/socketapi.h</text>
</a>
</g>
</g>
<!-- Node1&#45;&gt;Node2 -->
<g id="edge1" class="edge">
<title>Node1&#45;&gt;Node2</title>
<path fill="none" stroke="#63b8ff" d="M531.45,-501.63C506.72,-492.41 473.39,-479.99 447.75,-470.44"/>
<polygon fill="#63b8ff" stroke="#63b8ff" points="530.14,-504.87 540.74,-505.09 532.59,-498.32 530.14,-504.87"/>
</g>
<!-- Node8 -->
<g id="node8" class="node">
<title>Node8</title>
<g id="a_node8"><a xlink:href="syncmanager_8h.html" target="_top" xlink:title=" ">
<polygon fill="white" stroke="#666666" points="791.5,-470 698.5,-470 698.5,-440 791.5,-440 791.5,-470"/>
<text text-anchor="start" x="706.5" y="-458" font-family="Helvetica,sans-Serif" font-size="10.00">src/Meta/serialize</text>
<text text-anchor="middle" x="745" y="-447" font-family="Helvetica,sans-Serif" font-size="10.00">/syncmanager.h</text>
</a>
</g>
</g>
<!-- Node1&#45;&gt;Node8 -->
<g id="edge8" class="edge">
<title>Node1&#45;&gt;Node8</title>
<path fill="none" stroke="#63b8ff" d="M603.87,-502.12C632.22,-492.86 671.06,-480.17 700.82,-470.44"/>
<polygon fill="#63b8ff" stroke="#63b8ff" points="603.04,-498.71 594.62,-505.14 605.22,-505.37 603.04,-498.71"/>
</g>
<!-- Node3 -->
<g id="node3" class="node">
<title>Node3</title>
<g id="a_node3"><a xlink:href="networkbuffer_8h.html" target="_top" xlink:title=" ">
<polygon fill="white" stroke="#666666" points="287.5,-404 164.5,-404 164.5,-374 287.5,-374 287.5,-404"/>
<text text-anchor="start" x="172.5" y="-392" font-family="Helvetica,sans-Serif" font-size="10.00">src/Madgine/serialize</text>
<text text-anchor="middle" x="226" y="-381" font-family="Helvetica,sans-Serif" font-size="10.00">/network/networkbuffer.h</text>
</a>
</g>
</g>
<!-- Node2&#45;&gt;Node3 -->
<g id="edge2" class="edge">
<title>Node2&#45;&gt;Node3</title>
<path fill="none" stroke="#63b8ff" d="M357.35,-435.94C328.84,-425.97 293.92,-413.75 267.25,-404.43"/>
<polygon fill="#63b8ff" stroke="#63b8ff" points="355.91,-439.14 366.5,-439.14 358.22,-432.53 355.91,-439.14"/>
</g>
<!-- Node6 -->
<g id="node6" class="node">
<title>Node6</title>
<g id="a_node6"><a xlink:href="networkmanager_8h.html" target="_top" xlink:title=" ">
<polygon fill="white" stroke="#666666" points="477.5,-404 340.5,-404 340.5,-374 477.5,-374 477.5,-404"/>
<text text-anchor="start" x="348.5" y="-392" font-family="Helvetica,sans-Serif" font-size="10.00">src/Madgine/serialize</text>
<text text-anchor="middle" x="409" y="-381" font-family="Helvetica,sans-Serif" font-size="10.00">/network/networkmanager.h</text>
</a>
</g>
</g>
<!-- Node2&#45;&gt;Node6 -->
<g id="edge5" class="edge">
<title>Node2&#45;&gt;Node6</title>
<path fill="none" stroke="#63b8ff" d="M409,-428.39C409,-420.13 409,-411.28 409,-404.16"/>
<polygon fill="#63b8ff" stroke="#63b8ff" points="405.5,-428.28 409,-438.28 412.5,-428.28 405.5,-428.28"/>
</g>
<!-- Node4 -->
<g id="node4" class="node">
<title>Node4</title>
<g id="a_node4"><a xlink:href="networkbuffer_8cpp.html" target="_top" xlink:title=" ">
<polygon fill="white" stroke="#666666" points="134,-338 0,-338 0,-308 134,-308 134,-338"/>
<text text-anchor="start" x="8" y="-326" font-family="Helvetica,sans-Serif" font-size="10.00">src/Madgine/serialize</text>
<text text-anchor="middle" x="67" y="-315" font-family="Helvetica,sans-Serif" font-size="10.00">/network/networkbuffer.cpp</text>
</a>
</g>
</g>
<!-- Node3&#45;&gt;Node4 -->
<g id="edge3" class="edge">
<title>Node3&#45;&gt;Node4</title>
<path fill="none" stroke="#63b8ff" d="M179.81,-369.41C155.29,-359.54 125.6,-347.59 102.84,-338.43"/>
<polygon fill="#63b8ff" stroke="#63b8ff" points="178.33,-372.58 188.91,-373.07 180.94,-366.09 178.33,-372.58"/>
</g>
<!-- Node5 -->
<g id="node5" class="node">
<title>Node5</title>
<g id="a_node5"><a xlink:href="networkmanager_8cpp.html" target="_top" xlink:title=" ">
<polygon fill="white" stroke="#666666" points="299.5,-338 152.5,-338 152.5,-308 299.5,-308 299.5,-338"/>
<text text-anchor="start" x="160.5" y="-326" font-family="Helvetica,sans-Serif" font-size="10.00">src/Madgine/serialize</text>
<text text-anchor="middle" x="226" y="-315" font-family="Helvetica,sans-Serif" font-size="10.00">/network/networkmanager.cpp</text>
</a>
</g>
</g>
<!-- Node3&#45;&gt;Node5 -->
<g id="edge4" class="edge">
<title>Node3&#45;&gt;Node5</title>
<path fill="none" stroke="#63b8ff" d="M226,-362.39C226,-354.13 226,-345.28 226,-338.16"/>
<polygon fill="#63b8ff" stroke="#63b8ff" points="222.5,-362.28 226,-372.28 229.5,-362.28 222.5,-362.28"/>
</g>
<!-- Node6&#45;&gt;Node5 -->
<g id="edge6" class="edge">
<title>Node6&#45;&gt;Node5</title>
<path fill="none" stroke="#63b8ff" d="M357.35,-369.94C328.84,-359.97 293.92,-347.75 267.25,-338.43"/>
<polygon fill="#63b8ff" stroke="#63b8ff" points="355.91,-373.14 366.5,-373.14 358.22,-366.53 355.91,-373.14"/>
</g>
<!-- Node7 -->
<g id="node7" class="node">
<title>Node7</title>
<g id="a_node7"><a xlink:href="networkmanagertest_8cpp.html" target="_top" xlink:title=" ">
<polygon fill="white" stroke="#666666" points="500.5,-338 317.5,-338 317.5,-308 500.5,-308 500.5,-338"/>
<text text-anchor="start" x="325.5" y="-326" font-family="Helvetica,sans-Serif" font-size="10.00">src/Madgine/serialize</text>
<text text-anchor="middle" x="409" y="-315" font-family="Helvetica,sans-Serif" font-size="10.00">/network/test/networkmanagertest.cpp</text>
</a>
</g>
</g>
<!-- Node6&#45;&gt;Node7 -->
<g id="edge7" class="edge">
<title>Node6&#45;&gt;Node7</title>
<path fill="none" stroke="#63b8ff" d="M409,-362.39C409,-354.13 409,-345.28 409,-338.16"/>
<polygon fill="#63b8ff" stroke="#63b8ff" points="405.5,-362.28 409,-372.28 412.5,-362.28 405.5,-362.28"/>
</g>
<!-- Node8&#45;&gt;Node6 -->
<g id="edge9" class="edge">
<title>Node8&#45;&gt;Node6</title>
<path fill="none" stroke="#63b8ff" d="M687.09,-442.97C628.97,-431.9 539.43,-414.84 477.74,-403.09"/>
<polygon fill="#63b8ff" stroke="#63b8ff" points="686.32,-446.38 696.79,-444.82 687.63,-439.51 686.32,-446.38"/>
</g>
<!-- Node9 -->
<g id="node9" class="node">
<title>Node9</title>
<g id="a_node9"><a xlink:href="syncable_8cpp.html" target="_top" xlink:title=" ">
<polygon fill="white" stroke="#666666" points="637.5,-338 518.5,-338 518.5,-308 637.5,-308 637.5,-338"/>
<text text-anchor="start" x="526.5" y="-326" font-family="Helvetica,sans-Serif" font-size="10.00">src/Meta/serialize</text>
<text text-anchor="middle" x="578" y="-315" font-family="Helvetica,sans-Serif" font-size="10.00">/container/syncable.cpp</text>
</a>
</g>
</g>
<!-- Node8&#45;&gt;Node9 -->
<g id="edge10" class="edge">
<title>Node8&#45;&gt;Node9</title>
<path fill="none" stroke="#63b8ff" d="M731.86,-429.58C721.54,-412.24 705.79,-389.4 687,-374 668.08,-358.49 643.57,-346.68 622.58,-338.45"/>
<polygon fill="#63b8ff" stroke="#63b8ff" points="728.81,-431.3 736.81,-438.24 734.88,-427.82 728.81,-431.3"/>
</g>
<!-- Node10 -->
<g id="node10" class="node">
<title>Node10</title>
<g id="a_node10"><a xlink:href="syncableunit_8cpp.html" target="_top" xlink:title=" ">
<polygon fill="white" stroke="#666666" points="790,-338 656,-338 656,-308 790,-308 790,-338"/>
<text text-anchor="start" x="664" y="-326" font-family="Helvetica,sans-Serif" font-size="10.00">src/Meta/serialize</text>
<text text-anchor="middle" x="723" y="-315" font-family="Helvetica,sans-Serif" font-size="10.00">/hierarchy/syncableunit.cpp</text>
</a>
</g>
</g>
<!-- Node8&#45;&gt;Node10 -->
<g id="edge11" class="edge">
<title>Node8&#45;&gt;Node10</title>
<path fill="none" stroke="#63b8ff" d="M740.66,-428.38C736.11,-401.49 729.12,-360.18 725.45,-338.47"/>
<polygon fill="#63b8ff" stroke="#63b8ff" points="737.19,-428.82 742.31,-438.1 744.09,-427.65 737.19,-428.82"/>
</g>
<!-- Node11 -->
<g id="node11" class="node">
<title>Node11</title>
<g id="a_node11"><a xlink:href="toplevelunit_8cpp.html" target="_top" xlink:title=" ">
<polygon fill="white" stroke="#666666" points="1307.5,-338 1178.5,-338 1178.5,-308 1307.5,-308 1307.5,-338"/>
<text text-anchor="start" x="1186.5" y="-326" font-family="Helvetica,sans-Serif" font-size="10.00">src/Meta/serialize</text>
<text text-anchor="middle" x="1243" y="-315" font-family="Helvetica,sans-Serif" font-size="10.00">/hierarchy/toplevelunit.cpp</text>
</a>
</g>
</g>
<!-- Node8&#45;&gt;Node11 -->
<g id="edge12" class="edge">
<title>Node8&#45;&gt;Node11</title>
<path fill="none" stroke="#63b8ff" d="M803.06,-445C843.74,-437.36 898.71,-424.35 944,-404 965.59,-394.3 966.16,-383.13 988,-374 992.44,-372.15 1104.07,-350.58 1178.15,-336.39"/>
<polygon fill="#63b8ff" stroke="#63b8ff" points="802.69,-441.51 793.47,-446.74 803.94,-448.39 802.69,-441.51"/>
</g>
<!-- Node12 -->
<g id="node12" class="node">
<title>Node12</title>
<g id="a_node12"><a xlink:href="toplevelunit_8h.html" target="_top" xlink:title=" ">
<polygon fill="white" stroke="#666666" points="935.5,-404 816.5,-404 816.5,-374 935.5,-374 935.5,-404"/>
<text text-anchor="start" x="824.5" y="-392" font-family="Helvetica,sans-Serif" font-size="10.00">src/Meta/serialize</text>
<text text-anchor="middle" x="876" y="-381" font-family="Helvetica,sans-Serif" font-size="10.00">/hierarchy/toplevelunit.h</text>
</a>
</g>
</g>
<!-- Node8&#45;&gt;Node12 -->
<g id="edge13" class="edge">
<title>Node8&#45;&gt;Node12</title>
<path fill="none" stroke="#63b8ff" d="M784.73,-434.59C804.69,-424.84 828.43,-413.24 846.7,-404.31"/>
<polygon fill="#63b8ff" stroke="#63b8ff" points="783.21,-431.44 775.76,-438.97 786.28,-437.73 783.21,-431.44"/>
</g>
<!-- Node38 -->
<g id="node38" class="node">
<title>Node38</title>
<g id="a_node38"><a xlink:href="syncmanager_8cpp.html" target="_top" xlink:title=" ">
<polygon fill="white" stroke="#666666" points="1420.5,-338 1325.5,-338 1325.5,-308 1420.5,-308 1420.5,-338"/>
<text text-anchor="start" x="1333.5" y="-326" font-family="Helvetica,sans-Serif" font-size="10.00">src/Meta/serialize</text>
<text text-anchor="middle" x="1373" y="-315" font-family="Helvetica,sans-Serif" font-size="10.00">/syncmanager.cpp</text>
</a>
</g>
</g>
<!-- Node8&#45;&gt;Node38 -->
<g id="edge47" class="edge">
<title>Node8&#45;&gt;Node38</title>
<path fill="none" stroke="#63b8ff" d="M803.15,-448.52C852.04,-442.32 922.9,-429.55 980,-404 1000.61,-394.78 1000,-382.3 1021,-374 1143.83,-325.43 1186.08,-361.8 1316,-338 1319.01,-337.45 1322.09,-336.84 1325.2,-336.18"/>
<polygon fill="#63b8ff" stroke="#63b8ff" points="802.85,-445.03 793.34,-449.71 803.69,-451.98 802.85,-445.03"/>
</g>
<!-- Node39 -->
<g id="node39" class="node">
<title>Node39</title>
<g id="a_node39"><a xlink:href="formattedmessagestream_8cpp.html" target="_top" xlink:title=" ">
<polygon fill="white" stroke="#666666" points="1217.5,-404 1030.5,-404 1030.5,-374 1217.5,-374 1217.5,-404"/>
<text text-anchor="start" x="1038.5" y="-392" font-family="Helvetica,sans-Serif" font-size="10.00">src/Meta/serialize</text>
<text text-anchor="middle" x="1124" y="-381" font-family="Helvetica,sans-Serif" font-size="10.00">/streams/formattedmessagestream.cpp</text>
</a>
</g>
</g>
<!-- Node8&#45;&gt;Node39 -->
<g id="edge45" class="edge">
<title>Node8&#45;&gt;Node39</title>
<path fill="none" stroke="#63b8ff" d="M803.12,-444.19C865.89,-433.59 966.53,-416.59 1038.36,-404.46"/>
<polygon fill="#63b8ff" stroke="#63b8ff" points="802.62,-440.72 793.35,-445.84 803.79,-447.62 802.62,-440.72"/>
</g>
<!-- Node40 -->
<g id="node40" class="node">
<title>Node40</title>
<g id="a_node40"><a xlink:href="syncstreamdata_8cpp.html" target="_top" xlink:title=" ">
<polygon fill="white" stroke="#666666" points="678.5,-404 533.5,-404 533.5,-374 678.5,-374 678.5,-404"/>
<text text-anchor="start" x="541.5" y="-392" font-family="Helvetica,sans-Serif" font-size="10.00">src/Meta/serialize</text>
<text text-anchor="middle" x="606" y="-381" font-family="Helvetica,sans-Serif" font-size="10.00">/streams/syncstreamdata.cpp</text>
</a>
</g>
</g>
<!-- Node8&#45;&gt;Node40 -->
<g id="edge46" class="edge">
<title>Node8&#45;&gt;Node40</title>
<path fill="none" stroke="#63b8ff" d="M703.42,-434.86C682.13,-425.05 656.65,-413.32 637.09,-404.31"/>
<polygon fill="#63b8ff" stroke="#63b8ff" points="701.88,-438 712.43,-439 704.81,-431.64 701.88,-438"/>
</g>
<!-- Node12&#45;&gt;Node9 -->
<g id="edge40" class="edge">
<title>Node12&#45;&gt;Node9</title>
<path fill="none" stroke="#63b8ff" d="M804.8,-372.71C753.84,-361.77 686.02,-347.2 637.85,-336.85"/>
<polygon fill="#63b8ff" stroke="#63b8ff" points="804.06,-376.13 814.57,-374.81 805.53,-369.29 804.06,-376.13"/>
</g>
<!-- Node12&#45;&gt;Node10 -->
<g id="edge42" class="edge">
<title>Node12&#45;&gt;Node10</title>
<path fill="none" stroke="#63b8ff" d="M831.23,-369.27C807.7,-359.43 779.29,-347.55 757.49,-338.43"/>
<polygon fill="#63b8ff" stroke="#63b8ff" points="829.69,-372.42 840.27,-373.05 832.39,-365.97 829.69,-372.42"/>
</g>
<!-- Node12&#45;&gt;Node11 -->
<g id="edge43" class="edge">
<title>Node12&#45;&gt;Node11</title>
<path fill="none" stroke="#63b8ff" d="M946.94,-374.54C947.96,-374.36 948.99,-374.18 950,-374 1047.13,-356.83 1071.87,-355.17 1169,-338 1171.96,-337.48 1174.99,-336.93 1178.04,-336.38"/>
<polygon fill="#63b8ff" stroke="#63b8ff" points="946.46,-371.07 937.24,-376.3 947.7,-377.96 946.46,-371.07"/>
</g>
<!-- Node13 -->
<g id="node13" class="node">
<title>Node13</title>
<g id="a_node13"><a xlink:href="scenecontainer_8h.html" target="_top" xlink:title=" ">
<polygon fill="white" stroke="#666666" points="987.5,-338 808.5,-338 808.5,-308 987.5,-308 987.5,-338"/>
<text text-anchor="start" x="816.5" y="-326" font-family="Helvetica,sans-Serif" font-size="10.00">plugins/misc/scene</text>
<text text-anchor="middle" x="898" y="-315" font-family="Helvetica,sans-Serif" font-size="10.00">/src/Madgine/scene/scenecontainer.h</text>
</a>
</g>
</g>
<!-- Node12&#45;&gt;Node13 -->
<g id="edge14" class="edge">
<title>Node12&#45;&gt;Node13</title>
<path fill="none" stroke="#63b8ff" d="M884.61,-362.97C887.5,-354.55 890.63,-345.45 893.13,-338.16"/>
<polygon fill="#63b8ff" stroke="#63b8ff" points="881.32,-361.77 881.37,-372.36 887.94,-364.05 881.32,-361.77"/>
</g>
<!-- Node37 -->
<g id="node37" class="node">
<title>Node37</title>
<g id="a_node37"><a xlink:href="serializableunitptr_8cpp.html" target="_top" xlink:title=" ">
<polygon fill="white" stroke="#666666" points="1160.5,-338 1005.5,-338 1005.5,-308 1160.5,-308 1160.5,-338"/>
<text text-anchor="start" x="1013.5" y="-326" font-family="Helvetica,sans-Serif" font-size="10.00">src/Meta/serialize</text>
<text text-anchor="middle" x="1083" y="-315" font-family="Helvetica,sans-Serif" font-size="10.00">/hierarchy/serializableunitptr.cpp</text>
</a>
</g>
</g>
<!-- Node12&#45;&gt;Node37 -->
<g id="edge41" class="edge">
<title>Node12&#45;&gt;Node37</title>
<path fill="none" stroke="#63b8ff" d="M933.41,-370.25C965.88,-360.21 1005.96,-347.82 1036.46,-338.39"/>
<polygon fill="#63b8ff" stroke="#63b8ff" points="932.68,-366.81 924.16,-373.11 934.75,-373.5 932.68,-366.81"/>
</g>
<!-- Node12&#45;&gt;Node38 -->
<g id="edge44" class="edge">
<title>Node12&#45;&gt;Node38</title>
<path fill="none" stroke="#63b8ff" d="M947.1,-378.95C960.67,-377.27 974.77,-375.55 988,-374 1133.65,-356.9 1171.59,-363.55 1316,-338 1319.01,-337.47 1322.1,-336.87 1325.2,-336.22"/>
<polygon fill="#63b8ff" stroke="#63b8ff" points="946.84,-375.45 937.35,-380.16 947.71,-382.4 946.84,-375.45"/>
</g>
<!-- Node14 -->
<g id="node14" class="node">
<title>Node14</title>
<g id="a_node14"><a xlink:href="entityptr_8cpp.html" target="_top" xlink:title=" ">
<polygon fill="white" stroke="#666666" points="870,-272 742,-272 742,-231 870,-231 870,-272"/>
<text text-anchor="start" x="750" y="-260" font-family="Helvetica,sans-Serif" font-size="10.00">plugins/misc/scene</text>
<text text-anchor="start" x="750" y="-249" font-family="Helvetica,sans-Serif" font-size="10.00">/src/Madgine/scene/entity</text>
<text text-anchor="middle" x="806" y="-238" font-family="Helvetica,sans-Serif" font-size="10.00">/entityptr.cpp</text>
</a>
</g>
</g>
<!-- Node13&#45;&gt;Node14 -->
<g id="edge15" class="edge">
<title>Node13&#45;&gt;Node14</title>
<path fill="none" stroke="#63b8ff" d="M869.85,-300.74C857.92,-291.72 844.09,-281.28 832.36,-272.42"/>
<polygon fill="#63b8ff" stroke="#63b8ff" points="867.64,-303.45 877.73,-306.69 871.86,-297.87 867.64,-303.45"/>
</g>
<!-- Node15 -->
<g id="node15" class="node">
<title>Node15</title>
<g id="a_node15"><a xlink:href="scenecontainer_8cpp.html" target="_top" xlink:title=" ">
<polygon fill="white" stroke="#666666" points="427.5,-189.5 238.5,-189.5 238.5,-159.5 427.5,-159.5 427.5,-189.5"/>
<text text-anchor="start" x="246.5" y="-177.5" font-family="Helvetica,sans-Serif" font-size="10.00">plugins/misc/scene</text>
<text text-anchor="middle" x="333" y="-166.5" font-family="Helvetica,sans-Serif" font-size="10.00">/src/Madgine/scene/scenecontainer.cpp</text>
</a>
</g>
</g>
<!-- Node13&#45;&gt;Node15 -->
<g id="edge16" class="edge">
<title>Node13&#45;&gt;Node15</title>
<path fill="none" stroke="#63b8ff" d="M900.26,-296.55C900.58,-275.69 897.21,-247.07 879,-231 841.97,-198.32 484.94,-201.6 436,-195 425.63,-193.6 414.72,-191.85 404.04,-189.97"/>
<polygon fill="#63b8ff" stroke="#63b8ff" points="896.78,-296.12 899.8,-306.27 903.77,-296.45 896.78,-296.12"/>
</g>
<!-- Node16 -->
<g id="node16" class="node">
<title>Node16</title>
<g id="a_node16"><a xlink:href="scenemanager_8h.html" target="_top" xlink:title=" ">
<polygon fill="white" stroke="#666666" points="1668,-266.5 1492,-266.5 1492,-236.5 1668,-236.5 1668,-266.5"/>
<text text-anchor="start" x="1500" y="-254.5" font-family="Helvetica,sans-Serif" font-size="10.00">plugins/misc/scene</text>
<text text-anchor="middle" x="1580" y="-243.5" font-family="Helvetica,sans-Serif" font-size="10.00">/src/Madgine/scene/scenemanager.h</text>
</a>
</g>
</g>
<!-- Node13&#45;&gt;Node16 -->
<g id="edge17" class="edge">
<title>Node13&#45;&gt;Node16</title>
<path fill="none" stroke="#63b8ff" d="M999.28,-307.64C1179.87,-286.4 1379.69,-268.87 1491.81,-259.58"/>
<polygon fill="#63b8ff" stroke="#63b8ff" points="998.98,-304.15 989.46,-308.8 999.81,-311.1 998.98,-304.15"/>
</g>
<!-- Node16&#45;&gt;Node15 -->
<g id="edge38" class="edge">
<title>Node16&#45;&gt;Node15</title>
<path fill="none" stroke="#63b8ff" d="M1480.02,-247.43C1240.09,-239.78 636.72,-218.75 436,-195 425.07,-193.71 413.55,-191.93 402.33,-189.98"/>
<polygon fill="#63b8ff" stroke="#63b8ff" points="1479.9,-250.93 1490,-247.75 1480.12,-243.93 1479.9,-250.93"/>
</g>
<!-- Node17 -->
<g id="node17" class="node">
<title>Node17</title>
<g id="a_node17"><a xlink:href="litscenerenderdata_8cpp.html" target="_top" xlink:title=" ">
<polygon fill="white" stroke="#666666" points="2770.5,-195 2645.5,-195 2645.5,-154 2770.5,-154 2770.5,-195"/>
<text text-anchor="start" x="2653.5" y="-183" font-family="Helvetica,sans-Serif" font-size="10.00">plugins/misc/scene</text>
<text text-anchor="start" x="2653.5" y="-172" font-family="Helvetica,sans-Serif" font-size="10.00">/renderer/Madgine/render</text>
<text text-anchor="middle" x="2708" y="-161" font-family="Helvetica,sans-Serif" font-size="10.00">/litscenerenderdata.cpp</text>
</a>
</g>
</g>
<!-- Node16&#45;&gt;Node17 -->
<g id="edge18" class="edge">
<title>Node16&#45;&gt;Node17</title>
<path fill="none" stroke="#63b8ff" d="M1679.39,-248.02C1905.81,-241.92 2454.48,-224.5 2637,-195 2639.65,-194.57 2642.34,-194.08 2645.05,-193.55"/>
<polygon fill="#63b8ff" stroke="#63b8ff" points="1679.61,-244.51 1669.71,-248.28 1679.8,-251.51 1679.61,-244.51"/>
</g>
<!-- Node18 -->
<g id="node18" class="node">
<title>Node18</title>
<g id="a_node18"><a xlink:href="pointshadowrenderpass_8cpp.html" target="_top" xlink:title=" ">
<polygon fill="white" stroke="#666666" points="2929,-195 2789,-195 2789,-154 2929,-154 2929,-195"/>
<text text-anchor="start" x="2797" y="-183" font-family="Helvetica,sans-Serif" font-size="10.00">plugins/misc/scene</text>
<text text-anchor="start" x="2797" y="-172" font-family="Helvetica,sans-Serif" font-size="10.00">/renderer/Madgine/render</text>
<text text-anchor="middle" x="2859" y="-161" font-family="Helvetica,sans-Serif" font-size="10.00">/pointshadowrenderpass.cpp</text>
</a>
</g>
</g>
<!-- Node16&#45;&gt;Node18 -->
<g id="edge19" class="edge">
<title>Node16&#45;&gt;Node18</title>
<path fill="none" stroke="#63b8ff" d="M1679.25,-248.41C1927.14,-242.8 2568.6,-225.68 2780,-195 2782.8,-194.59 2785.64,-194.13 2788.5,-193.63"/>
<polygon fill="#63b8ff" stroke="#63b8ff" points="1679.54,-244.91 1669.62,-248.63 1679.69,-251.9 1679.54,-244.91"/>
</g>
<!-- Node19 -->
<g id="node19" class="node">
<title>Node19</title>
<g id="a_node19"><a xlink:href="scenemainwindowcomponent_8cpp.html" target="_top" xlink:title=" ">
<polygon fill="white" stroke="#666666" points="3113,-195 2947,-195 2947,-154 3113,-154 3113,-195"/>
<text text-anchor="start" x="2955" y="-183" font-family="Helvetica,sans-Serif" font-size="10.00">plugins/misc/scene</text>
<text text-anchor="start" x="2955" y="-172" font-family="Helvetica,sans-Serif" font-size="10.00">/renderer/Madgine/render</text>
<text text-anchor="middle" x="3030" y="-161" font-family="Helvetica,sans-Serif" font-size="10.00">/scenemainwindowcomponent.cpp</text>
</a>
</g>
</g>
<!-- Node16&#45;&gt;Node19 -->
<g id="edge20" class="edge">
<title>Node16&#45;&gt;Node19</title>
<path fill="none" stroke="#63b8ff" d="M1679.6,-248.6C1950.11,-243.1 2694.5,-225.56 2938,-195 2940.92,-194.63 2943.88,-194.22 2946.86,-193.78"/>
<polygon fill="#63b8ff" stroke="#63b8ff" points="1679.68,-245.1 1669.75,-248.8 1679.82,-252.1 1679.68,-245.1"/>
</g>
<!-- Node20 -->
<g id="node20" class="node">
<title>Node20</title>
<g id="a_node20"><a xlink:href="scenerenderdata_8cpp.html" target="_top" xlink:title=" ">
<polygon fill="white" stroke="#666666" points="570.5,-195 445.5,-195 445.5,-154 570.5,-154 570.5,-195"/>
<text text-anchor="start" x="453.5" y="-183" font-family="Helvetica,sans-Serif" font-size="10.00">plugins/misc/scene</text>
<text text-anchor="start" x="453.5" y="-172" font-family="Helvetica,sans-Serif" font-size="10.00">/renderer/Madgine/render</text>
<text text-anchor="middle" x="508" y="-161" font-family="Helvetica,sans-Serif" font-size="10.00">/scenerenderdata.cpp</text>
</a>
</g>
</g>
<!-- Node16&#45;&gt;Node20 -->
<g id="edge21" class="edge">
<title>Node16&#45;&gt;Node20</title>
<path fill="none" stroke="#63b8ff" d="M1480.46,-247.67C1262.83,-241.05 750.4,-222.96 579,-195 576.35,-194.57 573.66,-194.08 570.95,-193.54"/>
<polygon fill="#63b8ff" stroke="#63b8ff" points="1480.25,-251.17 1490.35,-247.97 1480.46,-244.17 1480.25,-251.17"/>
</g>
<!-- Node21 -->
<g id="node21" class="node">
<title>Node21</title>
<g id="a_node21"><a xlink:href="scenerenderpass_8cpp.html" target="_top" xlink:title=" ">
<polygon fill="white" stroke="#666666" points="713.5,-195 588.5,-195 588.5,-154 713.5,-154 713.5,-195"/>
<text text-anchor="start" x="596.5" y="-183" font-family="Helvetica,sans-Serif" font-size="10.00">plugins/misc/scene</text>
<text text-anchor="start" x="596.5" y="-172" font-family="Helvetica,sans-Serif" font-size="10.00">/renderer/Madgine/render</text>
<text text-anchor="middle" x="651" y="-161" font-family="Helvetica,sans-Serif" font-size="10.00">/scenerenderpass.cpp</text>
</a>
</g>
</g>
<!-- Node16&#45;&gt;Node21 -->
<g id="edge22" class="edge">
<title>Node16&#45;&gt;Node21</title>
<path fill="none" stroke="#63b8ff" d="M1480.34,-250.6C1319.62,-249.3 993.71,-240.61 722,-195 719.35,-194.56 716.66,-194.05 713.95,-193.5"/>
<polygon fill="#63b8ff" stroke="#63b8ff" points="1480.09,-254.1 1490.11,-250.67 1480.14,-247.1 1480.09,-254.1"/>
</g>
<!-- Node22 -->
<g id="node22" class="node">
<title>Node22</title>
<g id="a_node22"><a xlink:href="shadowrenderpass_8cpp.html" target="_top" xlink:title=" ">
<polygon fill="white" stroke="#666666" points="856.5,-195 731.5,-195 731.5,-154 856.5,-154 856.5,-195"/>
<text text-anchor="start" x="739.5" y="-183" font-family="Helvetica,sans-Serif" font-size="10.00">plugins/misc/scene</text>
<text text-anchor="start" x="739.5" y="-172" font-family="Helvetica,sans-Serif" font-size="10.00">/renderer/Madgine/render</text>
<text text-anchor="middle" x="794" y="-161" font-family="Helvetica,sans-Serif" font-size="10.00">/shadowrenderpass.cpp</text>
</a>
</g>
</g>
<!-- Node16&#45;&gt;Node22 -->
<g id="edge23" class="edge">
<title>Node16&#45;&gt;Node22</title>
<path fill="none" stroke="#63b8ff" d="M1480.12,-248.74C1341.21,-244.93 1082.27,-232.91 865,-195 862.36,-194.54 859.67,-194.02 856.96,-193.46"/>
<polygon fill="#63b8ff" stroke="#63b8ff" points="1479.94,-252.23 1490.03,-249 1480.13,-245.24 1479.94,-252.23"/>
</g>
<!-- Node23 -->
<g id="node23" class="node">
<title>Node23</title>
<g id="a_node23"><a xlink:href="shadowscenerenderdata_8cpp.html" target="_top" xlink:title=" ">
<polygon fill="white" stroke="#666666" points="1017.5,-195 874.5,-195 874.5,-154 1017.5,-154 1017.5,-195"/>
<text text-anchor="start" x="882.5" y="-183" font-family="Helvetica,sans-Serif" font-size="10.00">plugins/misc/scene</text>
<text text-anchor="start" x="882.5" y="-172" font-family="Helvetica,sans-Serif" font-size="10.00">/renderer/Madgine/render</text>
<text text-anchor="middle" x="946" y="-161" font-family="Helvetica,sans-Serif" font-size="10.00">/shadowscenerenderdata.cpp</text>
</a>
</g>
</g>
<!-- Node16&#45;&gt;Node23 -->
<g id="edge24" class="edge">
<title>Node16&#45;&gt;Node23</title>
<path fill="none" stroke="#63b8ff" d="M1480.69,-244.62C1369.58,-237.1 1184.5,-221.73 1027,-195 1024.01,-194.49 1020.96,-193.94 1017.88,-193.34"/>
<polygon fill="#63b8ff" stroke="#63b8ff" points="1480.15,-248.1 1490.36,-245.27 1480.62,-241.11 1480.15,-248.1"/>
</g>
<!-- Node24 -->
<g id="node24" class="node">
<title>Node24</title>
<g id="a_node24"><a xlink:href="sceneeditor_8cpp.html" target="_top" xlink:title=" ">
<polygon fill="white" stroke="#666666" points="1206,-195 1036,-195 1036,-154 1206,-154 1206,-195"/>
<text text-anchor="start" x="1044" y="-183" font-family="Helvetica,sans-Serif" font-size="10.00">plugins/misc/scene</text>
<text text-anchor="start" x="1044" y="-172" font-family="Helvetica,sans-Serif" font-size="10.00">/renderer_tools/Madgine</text>
<text text-anchor="middle" x="1121" y="-161" font-family="Helvetica,sans-Serif" font-size="10.00">_Tools/sceneeditor/sceneeditor.cpp</text>
</a>
</g>
</g>
<!-- Node16&#45;&gt;Node24 -->
<g id="edge25" class="edge">
<title>Node16&#45;&gt;Node24</title>
<path fill="none" stroke="#63b8ff" d="M1480.56,-236.85C1407.03,-226.4 1304.56,-211.09 1215,-195 1212.13,-194.48 1209.21,-193.95 1206.27,-193.4"/>
<polygon fill="#63b8ff" stroke="#63b8ff" points="1479.76,-240.27 1490.15,-238.21 1480.74,-233.34 1479.76,-240.27"/>
</g>
<!-- Node25 -->
<g id="node25" class="node">
<title>Node25</title>
<g id="a_node25"><a xlink:href="sceneview_8cpp.html" target="_top" xlink:title=" ">
<polygon fill="white" stroke="#666666" points="1391.5,-195 1224.5,-195 1224.5,-154 1391.5,-154 1391.5,-195"/>
<text text-anchor="start" x="1232.5" y="-183" font-family="Helvetica,sans-Serif" font-size="10.00">plugins/misc/scene</text>
<text text-anchor="start" x="1232.5" y="-172" font-family="Helvetica,sans-Serif" font-size="10.00">/renderer_tools/Madgine</text>
<text text-anchor="middle" x="1308" y="-161" font-family="Helvetica,sans-Serif" font-size="10.00">_Tools/sceneeditor/sceneview.cpp</text>
</a>
</g>
</g>
<!-- Node16&#45;&gt;Node25 -->
<g id="edge26" class="edge">
<title>Node16&#45;&gt;Node25</title>
<path fill="none" stroke="#63b8ff" d="M1516.67,-233.04C1475.89,-221.79 1422.77,-207.15 1380.33,-195.44"/>
<polygon fill="#63b8ff" stroke="#63b8ff" points="1515.53,-236.35 1526.1,-235.64 1517.39,-229.6 1515.53,-236.35"/>
</g>
<!-- Node26 -->
<g id="node26" class="node">
<title>Node26</title>
<g id="a_node26"><a xlink:href="scenesenders_8h.html" target="_top" xlink:title=" ">
<polygon fill="white" stroke="#666666" points="1552,-195 1410,-195 1410,-154 1552,-154 1552,-195"/>
<text text-anchor="start" x="1418" y="-183" font-family="Helvetica,sans-Serif" font-size="10.00">plugins/misc/scene</text>
<text text-anchor="start" x="1418" y="-172" font-family="Helvetica,sans-Serif" font-size="10.00">/src/Madgine/scene/behavior</text>
<text text-anchor="middle" x="1481" y="-161" font-family="Helvetica,sans-Serif" font-size="10.00">/scenesenders.h</text>
</a>
</g>
</g>
<!-- Node16&#45;&gt;Node26 -->
<g id="edge27" class="edge">
<title>Node16&#45;&gt;Node26</title>
<path fill="none" stroke="#63b8ff" d="M1552.13,-229.38C1538.02,-218.7 1521,-205.8 1507.14,-195.3"/>
<polygon fill="#63b8ff" stroke="#63b8ff" points="1549.62,-231.88 1559.71,-235.13 1553.85,-226.3 1549.62,-231.88"/>
</g>
<!-- Node28 -->
<g id="node28" class="node">
<title>Node28</title>
<g id="a_node28"><a xlink:href="behavior_2transform_8h.html" target="_top" xlink:title=" ">
<polygon fill="white" stroke="#666666" points="1651,-118 1509,-118 1509,-77 1651,-77 1651,-118"/>
<text text-anchor="start" x="1517" y="-106" font-family="Helvetica,sans-Serif" font-size="10.00">plugins/misc/scene</text>
<text text-anchor="start" x="1517" y="-95" font-family="Helvetica,sans-Serif" font-size="10.00">/src/Madgine/scene/behavior</text>
<text text-anchor="middle" x="1580" y="-84" font-family="Helvetica,sans-Serif" font-size="10.00">/transform.h</text>
</a>
</g>
</g>
<!-- Node16&#45;&gt;Node28 -->
<g id="edge32" class="edge">
<title>Node16&#45;&gt;Node28</title>
<path fill="none" stroke="#63b8ff" d="M1580,-224.98C1580,-194.94 1580,-145.68 1580,-118.34"/>
<polygon fill="#63b8ff" stroke="#63b8ff" points="1576.5,-224.69 1580,-234.69 1583.5,-224.69 1576.5,-224.69"/>
</g>
<!-- Node31 -->
<g id="node31" class="node">
<title>Node31</title>
<g id="a_node31"><a xlink:href="entity_8cpp.html" target="_top" xlink:title=" ">
<polygon fill="white" stroke="#666666" points="1736,-195 1608,-195 1608,-154 1736,-154 1736,-195"/>
<text text-anchor="start" x="1616" y="-183" font-family="Helvetica,sans-Serif" font-size="10.00">plugins/misc/scene</text>
<text text-anchor="start" x="1616" y="-172" font-family="Helvetica,sans-Serif" font-size="10.00">/src/Madgine/scene/entity</text>
<text text-anchor="middle" x="1672" y="-161" font-family="Helvetica,sans-Serif" font-size="10.00">/entity.cpp</text>
</a>
</g>
</g>
<!-- Node16&#45;&gt;Node31 -->
<g id="edge33" class="edge">
<title>Node16&#45;&gt;Node31</title>
<path fill="none" stroke="#63b8ff" d="M1606.66,-228.77C1619.61,-218.21 1635.08,-205.6 1647.71,-195.3"/>
<polygon fill="#63b8ff" stroke="#63b8ff" points="1604.45,-226.05 1598.91,-235.08 1608.87,-231.48 1604.45,-226.05"/>
</g>
<!-- Node32 -->
<g id="node32" class="node">
<title>Node32</title>
<g id="a_node32"><a xlink:href="entitycomponentbase_8cpp.html" target="_top" xlink:title=" ">
<polygon fill="white" stroke="#666666" points="1884,-195 1754,-195 1754,-154 1884,-154 1884,-195"/>
<text text-anchor="start" x="1762" y="-183" font-family="Helvetica,sans-Serif" font-size="10.00">plugins/misc/scene</text>
<text text-anchor="start" x="1762" y="-172" font-family="Helvetica,sans-Serif" font-size="10.00">/src/Madgine/scene/entity</text>
<text text-anchor="middle" x="1819" y="-161" font-family="Helvetica,sans-Serif" font-size="10.00">/entitycomponentbase.cpp</text>
</a>
</g>
</g>
<!-- Node16&#45;&gt;Node32 -->
<g id="edge34" class="edge">
<title>Node16&#45;&gt;Node32</title>
<path fill="none" stroke="#63b8ff" d="M1636.8,-232.68C1672.47,-221.48 1718.55,-207.02 1755.44,-195.44"/>
<polygon fill="#63b8ff" stroke="#63b8ff" points="1636.02,-229.25 1627.53,-235.59 1638.11,-235.93 1636.02,-229.25"/>
</g>
<!-- Node33 -->
<g id="node33" class="node">
<title>Node33</title>
<g id="a_node33"><a xlink:href="entitycomponenthandle_8cpp.html" target="_top" xlink:title=" ">
<polygon fill="white" stroke="#666666" points="2039.5,-195 1902.5,-195 1902.5,-154 2039.5,-154 2039.5,-195"/>
<text text-anchor="start" x="1910.5" y="-183" font-family="Helvetica,sans-Serif" font-size="10.00">plugins/misc/scene</text>
<text text-anchor="start" x="1910.5" y="-172" font-family="Helvetica,sans-Serif" font-size="10.00">/src/Madgine/scene/entity</text>
<text text-anchor="middle" x="1971" y="-161" font-family="Helvetica,sans-Serif" font-size="10.00">/entitycomponenthandle.cpp</text>
</a>
</g>
</g>
<!-- Node16&#45;&gt;Node33 -->
<g id="edge35" class="edge">
<title>Node16&#45;&gt;Node33</title>
<path fill="none" stroke="#63b8ff" d="M1679.64,-234.65C1741.3,-224.39 1821.99,-210.15 1893,-195 1896,-194.36 1899.07,-193.68 1902.16,-192.99"/>
<polygon fill="#63b8ff" stroke="#63b8ff" points="1679.14,-231.18 1669.84,-236.27 1680.28,-238.09 1679.14,-231.18"/>
</g>
<!-- Node34 -->
<g id="node34" class="node">
<title>Node34</title>
<g id="a_node34"><a xlink:href="entitycomponentptr_8cpp.html" target="_top" xlink:title=" ">
<polygon fill="white" stroke="#666666" points="2186,-195 2058,-195 2058,-154 2186,-154 2186,-195"/>
<text text-anchor="start" x="2066" y="-183" font-family="Helvetica,sans-Serif" font-size="10.00">plugins/misc/scene</text>
<text text-anchor="start" x="2066" y="-172" font-family="Helvetica,sans-Serif" font-size="10.00">/src/Madgine/scene/entity</text>
<text text-anchor="middle" x="2122" y="-161" font-family="Helvetica,sans-Serif" font-size="10.00">/entitycomponentptr.cpp</text>
</a>
</g>
</g>
<!-- Node16&#45;&gt;Node34 -->
<g id="edge36" class="edge">
<title>Node16&#45;&gt;Node34</title>
<path fill="none" stroke="#63b8ff" d="M1679.45,-242.76C1774.61,-234.4 1921.91,-218.97 2048,-195 2051.13,-194.4 2054.33,-193.75 2057.55,-193.05"/>
<polygon fill="#63b8ff" stroke="#63b8ff" points="1679.28,-239.26 1669.62,-243.62 1679.88,-246.24 1679.28,-239.26"/>
</g>
<!-- Node35 -->
<g id="node35" class="node">
<title>Node35</title>
<g id="a_node35"><a xlink:href="scenecomponentbase_8cpp.html" target="_top" xlink:title=" ">
<polygon fill="white" stroke="#666666" points="2422,-189.5 2204,-189.5 2204,-159.5 2422,-159.5 2422,-189.5"/>
<text text-anchor="start" x="2212" y="-177.5" font-family="Helvetica,sans-Serif" font-size="10.00">plugins/misc/scene</text>
<text text-anchor="middle" x="2313" y="-166.5" font-family="Helvetica,sans-Serif" font-size="10.00">/src/Madgine/scene/scenecomponentbase.cpp</text>
</a>
</g>
</g>
<!-- Node16&#45;&gt;Node35 -->
<g id="edge37" class="edge">
<title>Node16&#45;&gt;Node35</title>
<path fill="none" stroke="#63b8ff" d="M1679.46,-243.79C1801.26,-235.06 2013.76,-218.12 2195,-195 2206.43,-193.54 2218.45,-191.8 2230.27,-189.96"/>
<polygon fill="#63b8ff" stroke="#63b8ff" points="1679.55,-240.28 1669.83,-244.48 1680.05,-247.26 1679.55,-240.28"/>
</g>
<!-- Node36 -->
<g id="node36" class="node">
<title>Node36</title>
<g id="a_node36"><a xlink:href="scenemanager_8cpp.html" target="_top" xlink:title=" ">
<polygon fill="white" stroke="#666666" points="2627.5,-189.5 2440.5,-189.5 2440.5,-159.5 2627.5,-159.5 2627.5,-189.5"/>
<text text-anchor="start" x="2448.5" y="-177.5" font-family="Helvetica,sans-Serif" font-size="10.00">plugins/misc/scene</text>
<text text-anchor="middle" x="2534" y="-166.5" font-family="Helvetica,sans-Serif" font-size="10.00">/src/Madgine/scene/scenemanager.cpp</text>
</a>
</g>
</g>
<!-- Node16&#45;&gt;Node36 -->
<g id="edge39" class="edge">
<title>Node16&#45;&gt;Node36</title>
<path fill="none" stroke="#63b8ff" d="M1679.42,-247.95C1838.64,-242.98 2160.44,-229.3 2431,-195 2441.65,-193.65 2452.87,-191.89 2463.82,-189.97"/>
<polygon fill="#63b8ff" stroke="#63b8ff" points="1679.64,-244.44 1669.75,-248.24 1679.85,-251.44 1679.64,-244.44"/>
</g>
<!-- Node27 -->
<g id="node27" class="node">
<title>Node27</title>
<g id="a_node27"><a xlink:href="scenesenders_8cpp.html" target="_top" xlink:title=" ">
<polygon fill="white" stroke="#666666" points="1491,-118 1349,-118 1349,-77 1491,-77 1491,-118"/>
<text text-anchor="start" x="1357" y="-106" font-family="Helvetica,sans-Serif" font-size="10.00">plugins/misc/scene</text>
<text text-anchor="start" x="1357" y="-95" font-family="Helvetica,sans-Serif" font-size="10.00">/src/Madgine/scene/behavior</text>
<text text-anchor="middle" x="1420" y="-84" font-family="Helvetica,sans-Serif" font-size="10.00">/scenesenders.cpp</text>
</a>
</g>
</g>
<!-- Node26&#45;&gt;Node27 -->
<g id="edge28" class="edge">
<title>Node26&#45;&gt;Node27</title>
<path fill="none" stroke="#63b8ff" d="M1457.74,-144.9C1450.53,-136.04 1442.75,-126.47 1436.13,-118.33"/>
<polygon fill="#63b8ff" stroke="#63b8ff" points="1454.99,-147.07 1464.02,-152.62 1460.42,-142.65 1454.99,-147.07"/>
</g>
<!-- Node26&#45;&gt;Node28 -->
<g id="edge29" class="edge">
<title>Node26&#45;&gt;Node28</title>
<path fill="none" stroke="#63b8ff" d="M1516.36,-146.71C1528.63,-137.41 1542.18,-127.15 1553.61,-118.49"/>
<polygon fill="#63b8ff" stroke="#63b8ff" points="1514.33,-143.86 1508.48,-152.68 1518.56,-149.44 1514.33,-143.86"/>
</g>
<!-- Node29 -->
<g id="node29" class="node">
<title>Node29</title>
<g id="a_node29"><a xlink:href="animation_8cpp.html" target="_top" xlink:title=" ">
<polygon fill="white" stroke="#666666" points="1571,-41 1429,-41 1429,0 1571,0 1571,-41"/>
<text text-anchor="start" x="1437" y="-29" font-family="Helvetica,sans-Serif" font-size="10.00">plugins/misc/scene</text>
<text text-anchor="start" x="1437" y="-18" font-family="Helvetica,sans-Serif" font-size="10.00">/src/Madgine/scene/behavior</text>
<text text-anchor="middle" x="1500" y="-7" font-family="Helvetica,sans-Serif" font-size="10.00">/animation.cpp</text>
</a>
</g>
</g>
<!-- Node28&#45;&gt;Node29 -->
<g id="edge30" class="edge">
<title>Node28&#45;&gt;Node29</title>
<path fill="none" stroke="#63b8ff" d="M1550.68,-69.02C1540.9,-59.84 1530.2,-49.81 1521.16,-41.33"/>
<polygon fill="#63b8ff" stroke="#63b8ff" points="1548.19,-71.47 1557.88,-75.76 1552.98,-66.37 1548.19,-71.47"/>
</g>
<!-- Node30 -->
<g id="node30" class="node">
<title>Node30</title>
<g id="a_node30"><a xlink:href="behavior_2transform_8cpp.html" target="_top" xlink:title=" ">
<polygon fill="white" stroke="#666666" points="1731,-41 1589,-41 1589,0 1731,0 1731,-41"/>
<text text-anchor="start" x="1597" y="-29" font-family="Helvetica,sans-Serif" font-size="10.00">plugins/misc/scene</text>
<text text-anchor="start" x="1597" y="-18" font-family="Helvetica,sans-Serif" font-size="10.00">/src/Madgine/scene/behavior</text>
<text text-anchor="middle" x="1660" y="-7" font-family="Helvetica,sans-Serif" font-size="10.00">/transform.cpp</text>
</a>
</g>
</g>
<!-- Node28&#45;&gt;Node30 -->
<g id="edge31" class="edge">
<title>Node28&#45;&gt;Node30</title>
<path fill="none" stroke="#63b8ff" d="M1609.32,-69.02C1619.1,-59.84 1629.8,-49.81 1638.84,-41.33"/>
<polygon fill="#63b8ff" stroke="#63b8ff" points="1607.02,-66.37 1602.12,-75.76 1611.81,-71.47 1607.02,-66.37"/>
</g>
</g>
</svg>
