<?xml version="1.0" encoding="UTF-8" standalone="no"?>
<!DOCTYPE svg PUBLIC "-//W3C//DTD SVG 1.1//EN"
 "http://www.w3.org/Graphics/SVG/1.1/DTD/svg11.dtd">
<!-- Generated by graphviz version 7.0.5 (20221223.1930)
 -->
<!-- Title: src/Generic/container/tinyvector.h Pages: 1 -->
<svg width="208pt" height="258pt"
 viewBox="0.00 0.00 207.85 258.00" xmlns="http://www.w3.org/2000/svg" xmlns:xlink="http://www.w3.org/1999/xlink">
<g id="graph0" class="graph" transform="scale(1 1) rotate(0) translate(4 254)">
<title>src/Generic/container/tinyvector.h</title>
<!-- Node1 -->
<g id="node1" class="node">
<title>Node1</title>
<g id="a_node1"><a xlink:title=" ">
<polygon fill="#999999" stroke="#666666" points="130,-250 20,-250 20,-220 130,-220 130,-250"/>
<text text-anchor="start" x="28" y="-238" font-family="Helvetica,sans-Serif" font-size="10.00">src/Generic/container</text>
<text text-anchor="middle" x="75" y="-227" font-family="Helvetica,sans-Serif" font-size="10.00">/tinyvector.h</text>
</a>
</g>
</g>
<!-- Node2 -->
<g id="node2" class="node">
<title>Node2</title>
<g id="a_node2"><a xlink:href="src_2_generic_2bits_2ptr_8h.html" target="_top" xlink:title=" ">
<polygon fill="white" stroke="#666666" points="62,-184 0,-184 0,-165 62,-165 62,-184"/>
<text text-anchor="middle" x="31" y="-172" font-family="Helvetica,sans-Serif" font-size="10.00">../bits/ptr.h</text>
</a>
</g>
</g>
<!-- Node1&#45;&gt;Node2 -->
<g id="edge1" class="edge">
<title>Node1&#45;&gt;Node2</title>
<path fill="none" stroke="#63b8ff" d="M64.12,-219.54C58.12,-211.56 50.63,-201.59 44.28,-193.16"/>
<polygon fill="#63b8ff" stroke="#63b8ff" points="47.24,-191.27 38.43,-185.38 41.65,-195.48 47.24,-191.27"/>
</g>
<!-- Node3 -->
<g id="node3" class="node">
<title>Node3</title>
<g id="a_node3"><a xlink:href="variant_8h.html" target="_top" xlink:title=" ">
<polygon fill="white" stroke="#666666" points="160,-184 80,-184 80,-165 160,-165 160,-184"/>
<text text-anchor="middle" x="120" y="-172" font-family="Helvetica,sans-Serif" font-size="10.00">../bits/variant.h</text>
</a>
</g>
</g>
<!-- Node1&#45;&gt;Node3 -->
<g id="edge2" class="edge">
<title>Node1&#45;&gt;Node3</title>
<path fill="none" stroke="#63b8ff" d="M86.12,-219.54C92.26,-211.56 99.93,-201.59 106.41,-193.16"/>
<polygon fill="#63b8ff" stroke="#63b8ff" points="109.08,-195.44 112.4,-185.37 103.53,-191.17 109.08,-195.44"/>
</g>
<!-- Node4 -->
<g id="node4" class="node">
<title>Node4</title>
<g id="a_node4"><a xlink:href="freebits_8h.html" target="_top" xlink:title=" ">
<polygon fill="white" stroke="#666666" points="92,-74 36,-74 36,-55 92,-55 92,-74"/>
<text text-anchor="middle" x="64" y="-62" font-family="Helvetica,sans-Serif" font-size="10.00">freebits.h</text>
</a>
</g>
</g>
<!-- Node3&#45;&gt;Node4 -->
<g id="edge3" class="edge">
<title>Node3&#45;&gt;Node4</title>
<path fill="none" stroke="#63b8ff" d="M113.52,-164.58C107.29,-155.79 97.85,-141.86 91,-129 83.32,-114.59 76.16,-97.53 71.15,-84.72"/>
<polygon fill="#63b8ff" stroke="#63b8ff" points="74.57,-83.86 67.74,-75.77 68.03,-86.36 74.57,-83.86"/>
</g>
<!-- Node5 -->
<g id="node5" class="node">
<title>Node5</title>
<g id="a_node5"><a xlink:href="pair_8h.html" target="_top" xlink:title=" ">
<polygon fill="white" stroke="#666666" points="140,-129 100,-129 100,-110 140,-110 140,-129"/>
<text text-anchor="middle" x="120" y="-117" font-family="Helvetica,sans-Serif" font-size="10.00">pair.h</text>
</a>
</g>
</g>
<!-- Node3&#45;&gt;Node5 -->
<g id="edge4" class="edge">
<title>Node3&#45;&gt;Node5</title>
<path fill="none" stroke="#63b8ff" d="M120,-164.75C120,-158.27 120,-149.16 120,-140.9"/>
<polygon fill="#63b8ff" stroke="#63b8ff" points="123.5,-140.96 120,-130.96 116.5,-140.96 123.5,-140.96"/>
</g>
<!-- Node6 -->
<g id="node6" class="node">
<title>Node6</title>
<g id="a_node6"><a xlink:href="types_8h.html" target="_top" xlink:title=" ">
<polygon fill="white" stroke="#666666" points="192.5,-19 145.5,-19 145.5,0 192.5,0 192.5,-19"/>
<text text-anchor="middle" x="169" y="-7" font-family="Helvetica,sans-Serif" font-size="10.00">types.h</text>
</a>
</g>
</g>
<!-- Node3&#45;&gt;Node6 -->
<g id="edge9" class="edge">
<title>Node3&#45;&gt;Node6</title>
<path fill="none" stroke="#63b8ff" d="M130.45,-164.68C148.4,-148.76 184.46,-113.21 198,-74 203.55,-57.93 194.31,-40.41 184.83,-27.85"/>
<polygon fill="#63b8ff" stroke="#63b8ff" points="187.8,-25.96 178.73,-20.49 182.41,-30.42 187.8,-25.96"/>
</g>
<!-- Node5&#45;&gt;Node4 -->
<g id="edge5" class="edge">
<title>Node5&#45;&gt;Node4</title>
<path fill="none" stroke="#63b8ff" d="M110.5,-109.51C102.57,-102 91.05,-91.1 81.46,-82.03"/>
<polygon fill="#63b8ff" stroke="#63b8ff" points="84.13,-79.73 74.46,-75.4 79.32,-84.81 84.13,-79.73"/>
</g>
<!-- Node5&#45;&gt;Node6 -->
<g id="edge6" class="edge">
<title>Node5&#45;&gt;Node6</title>
<path fill="none" stroke="#63b8ff" d="M121.78,-109.56C124.48,-96.98 130.24,-73.51 139,-55 143.38,-45.75 149.52,-36.24 155.11,-28.4"/>
<polygon fill="#63b8ff" stroke="#63b8ff" points="157.88,-30.55 161.04,-20.44 152.26,-26.37 157.88,-30.55"/>
</g>
<!-- Node7 -->
<g id="node7" class="node">
<title>Node7</title>
<g id="a_node7"><a xlink:href="field_8h.html" target="_top" xlink:title=" ">
<polygon fill="white" stroke="#666666" points="189.5,-74 148.5,-74 148.5,-55 189.5,-55 189.5,-74"/>
<text text-anchor="middle" x="169" y="-62" font-family="Helvetica,sans-Serif" font-size="10.00">field.h</text>
</a>
</g>
</g>
<!-- Node5&#45;&gt;Node7 -->
<g id="edge7" class="edge">
<title>Node5&#45;&gt;Node7</title>
<path fill="none" stroke="#63b8ff" d="M128.09,-109.75C134.86,-102.43 144.72,-91.76 153.06,-82.74"/>
<polygon fill="#63b8ff" stroke="#63b8ff" points="155.49,-85.27 159.71,-75.55 150.35,-80.52 155.49,-85.27"/>
</g>
<!-- Node7&#45;&gt;Node6 -->
<g id="edge8" class="edge">
<title>Node7&#45;&gt;Node6</title>
<path fill="none" stroke="#63b8ff" d="M169,-54.75C169,-48.27 169,-39.16 169,-30.9"/>
<polygon fill="#63b8ff" stroke="#63b8ff" points="172.5,-30.96 169,-20.96 165.5,-30.96 172.5,-30.96"/>
</g>
</g>
</svg>
