<?xml version="1.0" encoding="UTF-8" standalone="no"?>
<!DOCTYPE svg PUBLIC "-//W3C//DTD SVG 1.1//EN"
 "http://www.w3.org/Graphics/SVG/1.1/DTD/svg11.dtd">
<!-- Generated by graphviz version 7.0.5 (20221223.1930)
 -->
<!-- Title: src/Generic/allocator/tracked.h Pages: 1 -->
<!--zoomable 170 -->
<svg id="main" version="1.1" xmlns="http://www.w3.org/2000/svg" xmlns:xlink="http://www.w3.org/1999/xlink" xml:space="preserve" onload="init(evt)">
<style type="text/css"><![CDATA[
.edge:hover path { stroke: red; }
.edge:hover polygon { stroke: red; fill: red; }
]]></style>
<script type="text/javascript"><![CDATA[
var edges = document.getElementsByTagName('g');
if (edges && edges.length) {
  for (var i=0;i<edges.length;i++) {
    if (edges[i].id.substr(0,4)=='edge') {
      edges[i].setAttribute('class','edge');
    }
  }
}
]]></script>
        <defs>
                <circle id="rim" cx="0" cy="0" r="7"/>
                <circle id="rim2" cx="0" cy="0" r="3.5"/>
                <g id="zoomPlus">
                        <use xlink:href="#rim" fill="#404040">
                                <set attributeName="fill" to="#808080" begin="zoomplus.mouseover" end="zoomplus.mouseout"/>
                        </use>
                        <path d="M-4,0h8M0,-4v8" fill="none" stroke="white" stroke-width="1.5" pointer-events="none"/>
                </g>
                <g id="zoomMin">
                        <use xlink:href="#rim" fill="#404040">
                                <set attributeName="fill" to="#808080" begin="zoomminus.mouseover" end="zoomminus.mouseout"/>
                        </use>
                        <path d="M-4,0h8" fill="none" stroke="white" stroke-width="1.5" pointer-events="none"/>
                </g>
                <g id="dirArrow">
                        <path fill="none" stroke="white" stroke-width="1.5" d="M0,-3.0v7 M-2.5,-0.5L0,-3.0L2.5,-0.5"/>
                </g>
               <g id="resetDef">
                       <use xlink:href="#rim2" fill="#404040">
                               <set attributeName="fill" to="#808080" begin="reset.mouseover" end="reset.mouseout"/>
                       </use>
               </g>
        </defs>

<script type="text/javascript">
var viewWidth = 2908;
var viewHeight = 170;
var sectionId = 'dynsection-1';
</script>
<script xlink:href="svgpan.js"/>
<svg id="graph" class="graph">
<g id="viewport">
<title>src/Generic/allocator/tracked.h</title>
<!-- Node1 -->
<g id="node1" class="node">
<title>Node1</title>
<g id="a_node1"><a xlink:title=" ">
<polygon fill="#999999" stroke="#666666" points="1536,-162 1429,-162 1429,-132 1536,-132 1536,-162"/>
<text text-anchor="start" x="1437" y="-150" font-family="Helvetica,sans-Serif" font-size="10.00">src/Generic/allocator</text>
<text text-anchor="middle" x="1482.5" y="-139" font-family="Helvetica,sans-Serif" font-size="10.00">/tracked.h</text>
</a>
</g>
</g>
<!-- Node2 -->
<g id="node2" class="node">
<title>Node2</title>
<g id="a_node2"><a xlink:href="vulkanrendercontext_8h.html" target="_top" xlink:title=" ">
<polygon fill="white" stroke="#666666" points="1564.5,-96 1400.5,-96 1400.5,-66 1564.5,-66 1564.5,-96"/>
<text text-anchor="start" x="1408.5" y="-84" font-family="Helvetica,sans-Serif" font-size="10.00">plugins/renderer/vulkan</text>
<text text-anchor="middle" x="1482.5" y="-73" font-family="Helvetica,sans-Serif" font-size="10.00">/src/Vulkan/vulkanrendercontext.h</text>
</a>
</g>
</g>
<!-- Node1&#45;&gt;Node2 -->
<g id="edge1" class="edge">
<title>Node1&#45;&gt;Node2</title>
<path fill="none" stroke="#63b8ff" d="M1482.5,-120.39C1482.5,-112.13 1482.5,-103.28 1482.5,-96.16"/>
<polygon fill="#63b8ff" stroke="#63b8ff" points="1479,-120.28 1482.5,-130.28 1486,-120.28 1479,-120.28"/>
</g>
<!-- Node3 -->
<g id="node3" class="node">
<title>Node3</title>
<g id="a_node3"><a xlink:href="vulkanbuffer_8cpp.html" target="_top" xlink:title=" ">
<polygon fill="white" stroke="#666666" points="155,-30 0,-30 0,0 155,0 155,-30"/>
<text text-anchor="start" x="8" y="-18" font-family="Helvetica,sans-Serif" font-size="10.00">plugins/renderer/vulkan</text>
<text text-anchor="middle" x="77.5" y="-7" font-family="Helvetica,sans-Serif" font-size="10.00">/src/Vulkan/util/vulkanbuffer.cpp</text>
</a>
</g>
</g>
<!-- Node2&#45;&gt;Node3 -->
<g id="edge2" class="edge">
<title>Node2&#45;&gt;Node3</title>
<path fill="none" stroke="#63b8ff" d="M1388.78,-80.41C1172.37,-80.5 621.33,-75.77 163.5,-30 160.79,-29.73 158.04,-29.43 155.26,-29.1"/>
<polygon fill="#63b8ff" stroke="#63b8ff" points="1388.56,-83.91 1398.56,-80.4 1388.55,-76.91 1388.56,-83.91"/>
</g>
<!-- Node4 -->
<g id="node4" class="node">
<title>Node4</title>
<g id="a_node4"><a xlink:href="vulkancommandlist_8cpp.html" target="_top" xlink:title=" ">
<polygon fill="white" stroke="#666666" points="360,-30 173,-30 173,0 360,0 360,-30"/>
<text text-anchor="start" x="181" y="-18" font-family="Helvetica,sans-Serif" font-size="10.00">plugins/renderer/vulkan</text>
<text text-anchor="middle" x="266.5" y="-7" font-family="Helvetica,sans-Serif" font-size="10.00">/src/Vulkan/util/vulkancommandlist.cpp</text>
</a>
</g>
</g>
<!-- Node2&#45;&gt;Node4 -->
<g id="edge3" class="edge">
<title>Node2&#45;&gt;Node4</title>
<path fill="none" stroke="#63b8ff" d="M1388.88,-78.64C1197.2,-75.24 746.36,-64.01 369.5,-30 366.53,-29.73 363.52,-29.44 360.48,-29.13"/>
<polygon fill="#63b8ff" stroke="#63b8ff" points="1388.72,-82.14 1398.78,-78.82 1388.85,-75.14 1388.72,-82.14"/>
</g>
<!-- Node5 -->
<g id="node5" class="node">
<title>Node5</title>
<g id="a_node5"><a xlink:href="vulkanconstantbufferheap_8cpp.html" target="_top" xlink:title=" ">
<polygon fill="white" stroke="#666666" points="592.5,-30 378.5,-30 378.5,0 592.5,0 592.5,-30"/>
<text text-anchor="start" x="386.5" y="-18" font-family="Helvetica,sans-Serif" font-size="10.00">plugins/renderer/vulkan</text>
<text text-anchor="middle" x="485.5" y="-7" font-family="Helvetica,sans-Serif" font-size="10.00">/src/Vulkan/util/vulkanconstantbufferheap.cpp</text>
</a>
</g>
</g>
<!-- Node2&#45;&gt;Node5 -->
<g id="edge4" class="edge">
<title>Node2&#45;&gt;Node5</title>
<path fill="none" stroke="#63b8ff" d="M1388.8,-76.64C1227.67,-70.41 887.81,-55.38 601.5,-30 598.67,-29.75 595.8,-29.48 592.91,-29.21"/>
<polygon fill="#63b8ff" stroke="#63b8ff" points="1388.45,-80.12 1398.57,-77.01 1388.71,-73.13 1388.45,-80.12"/>
</g>
<!-- Node6 -->
<g id="node6" class="node">
<title>Node6</title>
<g id="a_node6"><a xlink:href="vulkanheapallocator_8cpp.html" target="_top" xlink:title=" ">
<polygon fill="white" stroke="#666666" points="800,-30 611,-30 611,0 800,0 800,-30"/>
<text text-anchor="start" x="619" y="-18" font-family="Helvetica,sans-Serif" font-size="10.00">plugins/renderer/vulkan</text>
<text text-anchor="middle" x="705.5" y="-7" font-family="Helvetica,sans-Serif" font-size="10.00">/src/Vulkan/util/vulkanheapallocator.cpp</text>
</a>
</g>
</g>
<!-- Node2&#45;&gt;Node6 -->
<g id="edge5" class="edge">
<title>Node2&#45;&gt;Node6</title>
<path fill="none" stroke="#63b8ff" d="M1388.78,-74.81C1258.61,-67.19 1015.79,-51.53 809.5,-30 806.51,-29.69 803.47,-29.36 800.41,-29.01"/>
<polygon fill="#63b8ff" stroke="#63b8ff" points="1388.56,-78.3 1398.75,-75.39 1388.97,-71.31 1388.56,-78.3"/>
</g>
<!-- Node7 -->
<g id="node7" class="node">
<title>Node7</title>
<g id="a_node7"><a xlink:href="vulkanpipeline_8cpp.html" target="_top" xlink:title=" ">
<polygon fill="white" stroke="#666666" points="982.5,-30 818.5,-30 818.5,0 982.5,0 982.5,-30"/>
<text text-anchor="start" x="826.5" y="-18" font-family="Helvetica,sans-Serif" font-size="10.00">plugins/renderer/vulkan</text>
<text text-anchor="middle" x="900.5" y="-7" font-family="Helvetica,sans-Serif" font-size="10.00">/src/Vulkan/util/vulkanpipeline.cpp</text>
</a>
</g>
</g>
<!-- Node2&#45;&gt;Node7 -->
<g id="edge6" class="edge">
<title>Node2&#45;&gt;Node7</title>
<path fill="none" stroke="#63b8ff" d="M1388.8,-71.89C1289.88,-63 1129.46,-47.63 991.5,-30 988.65,-29.64 985.74,-29.25 982.81,-28.86"/>
<polygon fill="#63b8ff" stroke="#63b8ff" points="1388.48,-75.38 1398.75,-72.79 1389.1,-68.41 1388.48,-75.38"/>
</g>
<!-- Node8 -->
<g id="node8" class="node">
<title>Node8</title>
<g id="a_node8"><a xlink:href="vulkanpipelineinstance_8cpp.html" target="_top" xlink:title=" ">
<polygon fill="white" stroke="#666666" points="1202,-30 1001,-30 1001,0 1202,0 1202,-30"/>
<text text-anchor="start" x="1009" y="-18" font-family="Helvetica,sans-Serif" font-size="10.00">plugins/renderer/vulkan</text>
<text text-anchor="middle" x="1101.5" y="-7" font-family="Helvetica,sans-Serif" font-size="10.00">/src/Vulkan/util/vulkanpipelineinstance.cpp</text>
</a>
</g>
</g>
<!-- Node2&#45;&gt;Node8 -->
<g id="edge7" class="edge">
<title>Node2&#45;&gt;Node8</title>
<path fill="none" stroke="#63b8ff" d="M1389.03,-64.3C1327.48,-53.96 1247.5,-40.52 1187.52,-30.45"/>
<polygon fill="#63b8ff" stroke="#63b8ff" points="1388.36,-67.74 1398.81,-65.94 1389.52,-60.83 1388.36,-67.74"/>
</g>
<!-- Node9 -->
<g id="node9" class="node">
<title>Node9</title>
<g id="a_node9"><a xlink:href="vulkantexture_8cpp.html" target="_top" xlink:title=" ">
<polygon fill="white" stroke="#666666" points="1381,-30 1220,-30 1220,0 1381,0 1381,-30"/>
<text text-anchor="start" x="1228" y="-18" font-family="Helvetica,sans-Serif" font-size="10.00">plugins/renderer/vulkan</text>
<text text-anchor="middle" x="1300.5" y="-7" font-family="Helvetica,sans-Serif" font-size="10.00">/src/Vulkan/util/vulkantexture.cpp</text>
</a>
</g>
</g>
<!-- Node2&#45;&gt;Node9 -->
<g id="edge8" class="edge">
<title>Node2&#45;&gt;Node9</title>
<path fill="none" stroke="#63b8ff" d="M1431.13,-61.94C1402.78,-51.97 1368.04,-39.75 1341.52,-30.43"/>
<polygon fill="#63b8ff" stroke="#63b8ff" points="1429.63,-65.12 1440.23,-65.14 1431.96,-58.52 1429.63,-65.12"/>
</g>
<!-- Node10 -->
<g id="node10" class="node">
<title>Node10</title>
<g id="a_node10"><a xlink:href="vulkanmeshloader_8cpp.html" target="_top" xlink:title=" ">
<polygon fill="white" stroke="#666666" points="1565.5,-30 1399.5,-30 1399.5,0 1565.5,0 1565.5,-30"/>
<text text-anchor="start" x="1407.5" y="-18" font-family="Helvetica,sans-Serif" font-size="10.00">plugins/renderer/vulkan</text>
<text text-anchor="middle" x="1482.5" y="-7" font-family="Helvetica,sans-Serif" font-size="10.00">/src/Vulkan/vulkanmeshloader.cpp</text>
</a>
</g>
</g>
<!-- Node2&#45;&gt;Node10 -->
<g id="edge9" class="edge">
<title>Node2&#45;&gt;Node10</title>
<path fill="none" stroke="#63b8ff" d="M1482.5,-54.39C1482.5,-46.13 1482.5,-37.28 1482.5,-30.16"/>
<polygon fill="#63b8ff" stroke="#63b8ff" points="1479,-54.28 1482.5,-64.28 1486,-54.28 1479,-54.28"/>
</g>
<!-- Node11 -->
<g id="node11" class="node">
<title>Node11</title>
<g id="a_node11"><a xlink:href="vulkanpipelineloader_8cpp.html" target="_top" xlink:title=" ">
<polygon fill="white" stroke="#666666" points="1759,-30 1584,-30 1584,0 1759,0 1759,-30"/>
<text text-anchor="start" x="1592" y="-18" font-family="Helvetica,sans-Serif" font-size="10.00">plugins/renderer/vulkan</text>
<text text-anchor="middle" x="1671.5" y="-7" font-family="Helvetica,sans-Serif" font-size="10.00">/src/Vulkan/vulkanpipelineloader.cpp</text>
</a>
</g>
</g>
<!-- Node2&#45;&gt;Node11 -->
<g id="edge10" class="edge">
<title>Node2&#45;&gt;Node11</title>
<path fill="none" stroke="#63b8ff" d="M1535.46,-62.07C1564.97,-52.07 1601.24,-39.79 1628.9,-30.43"/>
<polygon fill="#63b8ff" stroke="#63b8ff" points="1534.7,-58.63 1526.35,-65.15 1536.94,-65.26 1534.7,-58.63"/>
</g>
<!-- Node12 -->
<g id="node12" class="node">
<title>Node12</title>
<g id="a_node12"><a xlink:href="vulkanrendercontext_8cpp.html" target="_top" xlink:title=" ">
<polygon fill="white" stroke="#666666" points="1951.5,-30 1777.5,-30 1777.5,0 1951.5,0 1951.5,-30"/>
<text text-anchor="start" x="1785.5" y="-18" font-family="Helvetica,sans-Serif" font-size="10.00">plugins/renderer/vulkan</text>
<text text-anchor="middle" x="1864.5" y="-7" font-family="Helvetica,sans-Serif" font-size="10.00">/src/Vulkan/vulkanrendercontext.cpp</text>
</a>
</g>
</g>
<!-- Node2&#45;&gt;Node12 -->
<g id="edge11" class="edge">
<title>Node2&#45;&gt;Node12</title>
<path fill="none" stroke="#63b8ff" d="M1576.22,-64.3C1637.93,-53.96 1718.12,-40.52 1778.25,-30.45"/>
<polygon fill="#63b8ff" stroke="#63b8ff" points="1575.69,-60.84 1566.41,-65.94 1576.85,-67.74 1575.69,-60.84"/>
</g>
<!-- Node13 -->
<g id="node13" class="node">
<title>Node13</title>
<g id="a_node13"><a xlink:href="vulkanrendertarget_8cpp.html" target="_top" xlink:title=" ">
<polygon fill="white" stroke="#666666" points="2137,-30 1970,-30 1970,0 2137,0 2137,-30"/>
<text text-anchor="start" x="1978" y="-18" font-family="Helvetica,sans-Serif" font-size="10.00">plugins/renderer/vulkan</text>
<text text-anchor="middle" x="2053.5" y="-7" font-family="Helvetica,sans-Serif" font-size="10.00">/src/Vulkan/vulkanrendertarget.cpp</text>
</a>
</g>
</g>
<!-- Node2&#45;&gt;Node13 -->
<g id="edge12" class="edge">
<title>Node2&#45;&gt;Node13</title>
<path fill="none" stroke="#63b8ff" d="M1575.85,-71.49C1672.31,-62.41 1827.14,-47 1960.5,-30 1963.58,-29.61 1966.71,-29.2 1969.87,-28.77"/>
<polygon fill="#63b8ff" stroke="#63b8ff" points="1575.81,-67.98 1566.18,-72.4 1576.47,-74.95 1575.81,-67.98"/>
</g>
<!-- Node14 -->
<g id="node14" class="node">
<title>Node14</title>
<g id="a_node14"><a xlink:href="vulkanrendertexture_8cpp.html" target="_top" xlink:title=" ">
<polygon fill="white" stroke="#666666" points="2327.5,-30 2155.5,-30 2155.5,0 2327.5,0 2327.5,-30"/>
<text text-anchor="start" x="2163.5" y="-18" font-family="Helvetica,sans-Serif" font-size="10.00">plugins/renderer/vulkan</text>
<text text-anchor="middle" x="2241.5" y="-7" font-family="Helvetica,sans-Serif" font-size="10.00">/src/Vulkan/vulkanrendertexture.cpp</text>
</a>
</g>
</g>
<!-- Node2&#45;&gt;Node14 -->
<g id="edge13" class="edge">
<title>Node2&#45;&gt;Node14</title>
<path fill="none" stroke="#63b8ff" d="M1576.33,-75.04C1705.12,-67.76 1943.79,-52.54 2146.5,-30 2149.32,-29.69 2152.18,-29.35 2155.07,-29"/>
<polygon fill="#63b8ff" stroke="#63b8ff" points="1576.27,-71.54 1566.48,-75.6 1576.66,-78.53 1576.27,-71.54"/>
</g>
<!-- Node15 -->
<g id="node15" class="node">
<title>Node15</title>
<g id="a_node15"><a xlink:href="vulkanrenderwindow_8cpp.html" target="_top" xlink:title=" ">
<polygon fill="white" stroke="#666666" points="2521.5,-30 2345.5,-30 2345.5,0 2521.5,0 2521.5,-30"/>
<text text-anchor="start" x="2353.5" y="-18" font-family="Helvetica,sans-Serif" font-size="10.00">plugins/renderer/vulkan</text>
<text text-anchor="middle" x="2433.5" y="-7" font-family="Helvetica,sans-Serif" font-size="10.00">/src/Vulkan/vulkanrenderwindow.cpp</text>
</a>
</g>
</g>
<!-- Node2&#45;&gt;Node15 -->
<g id="edge14" class="edge">
<title>Node2&#45;&gt;Node15</title>
<path fill="none" stroke="#63b8ff" d="M1576.32,-77.11C1733.77,-71.68 2060.98,-57.9 2336.5,-30 2339.38,-29.71 2342.3,-29.39 2345.25,-29.06"/>
<polygon fill="#63b8ff" stroke="#63b8ff" points="1576.21,-73.61 1566.34,-77.45 1576.45,-80.61 1576.21,-73.61"/>
</g>
<!-- Node16 -->
<g id="node16" class="node">
<title>Node16</title>
<g id="a_node16"><a xlink:href="vulkanshaderloader_8cpp.html" target="_top" xlink:title=" ">
<polygon fill="white" stroke="#666666" points="2711,-30 2540,-30 2540,0 2711,0 2711,-30"/>
<text text-anchor="start" x="2548" y="-18" font-family="Helvetica,sans-Serif" font-size="10.00">plugins/renderer/vulkan</text>
<text text-anchor="middle" x="2625.5" y="-7" font-family="Helvetica,sans-Serif" font-size="10.00">/src/Vulkan/vulkanshaderloader.cpp</text>
</a>
</g>
</g>
<!-- Node2&#45;&gt;Node16 -->
<g id="edge15" class="edge">
<title>Node2&#45;&gt;Node16</title>
<path fill="none" stroke="#63b8ff" d="M1576.39,-78.62C1760.04,-75.24 2179.52,-64.15 2530.5,-30 2533.49,-29.71 2536.52,-29.39 2539.59,-29.05"/>
<polygon fill="#63b8ff" stroke="#63b8ff" points="1576.35,-75.12 1566.41,-78.8 1576.48,-82.12 1576.35,-75.12"/>
</g>
<!-- Node17 -->
<g id="node17" class="node">
<title>Node17</title>
<g id="a_node17"><a xlink:href="vulkantextureloader_8cpp.html" target="_top" xlink:title=" ">
<polygon fill="white" stroke="#666666" points="2900,-30 2729,-30 2729,0 2900,0 2900,-30"/>
<text text-anchor="start" x="2737" y="-18" font-family="Helvetica,sans-Serif" font-size="10.00">plugins/renderer/vulkan</text>
<text text-anchor="middle" x="2814.5" y="-7" font-family="Helvetica,sans-Serif" font-size="10.00">/src/Vulkan/vulkantextureloader.cpp</text>
</a>
</g>
</g>
<!-- Node2&#45;&gt;Node17 -->
<g id="edge16" class="edge">
<title>Node2&#45;&gt;Node17</title>
<path fill="none" stroke="#63b8ff" d="M1576.33,-79.65C1783.34,-78.11 2294.62,-70.2 2720.5,-30 2723.21,-29.74 2725.96,-29.46 2728.74,-29.16"/>
<polygon fill="#63b8ff" stroke="#63b8ff" points="1576.41,-76.15 1566.43,-79.72 1576.46,-83.15 1576.41,-76.15"/>
</g>
</g>
</svg>
        <g id="navigator" transform="translate(0 0)" fill="#404254">
                <rect fill="#f2f5e9" fill-opacity="0.5" stroke="#606060" stroke-width=".5" x="0" y="0" width="60" height="60"/>
                <use id="zoomplus" xlink:href="#zoomPlus" x="17" y="9" onmousedown="handleZoom(evt,'in')"/>
                <use id="zoomminus" xlink:href="#zoomMin" x="42" y="9" onmousedown="handleZoom(evt,'out')"/>
                <use id="reset" xlink:href="#resetDef" x="30" y="36" onmousedown="handleReset()"/>
                <g id="arrowUp" xlink:href="#dirArrow" transform="translate(30 24)" onmousedown="handlePan(0,-1)">
                  <use xlink:href="#rim" fill="#404040">
                        <set attributeName="fill" to="#808080" begin="arrowUp.mouseover" end="arrowUp.mouseout"/>
                  </use>
                  <path fill="none" stroke="white" stroke-width="1.5" d="M0,-3.0v7 M-2.5,-0.5L0,-3.0L2.5,-0.5"/>
                </g>
                <g id="arrowRight" xlink:href="#dirArrow" transform="rotate(90) translate(36 -43)" onmousedown="handlePan(1,0)">
                  <use xlink:href="#rim" fill="#404040">
                        <set attributeName="fill" to="#808080" begin="arrowRight.mouseover" end="arrowRight.mouseout"/>
                  </use>
                  <path fill="none" stroke="white" stroke-width="1.5" d="M0,-3.0v7 M-2.5,-0.5L0,-3.0L2.5,-0.5"/>
                </g>
                <g id="arrowDown" xlink:href="#dirArrow" transform="rotate(180) translate(-30 -48)" onmousedown="handlePan(0,1)">
                  <use xlink:href="#rim" fill="#404040">
                        <set attributeName="fill" to="#808080" begin="arrowDown.mouseover" end="arrowDown.mouseout"/>
                  </use>
                  <path fill="none" stroke="white" stroke-width="1.5" d="M0,-3.0v7 M-2.5,-0.5L0,-3.0L2.5,-0.5"/>
                </g>
                <g id="arrowLeft" xlink:href="#dirArrow" transform="rotate(270) translate(-36 17)" onmousedown="handlePan(-1,0)">
                  <use xlink:href="#rim" fill="#404040">
                        <set attributeName="fill" to="#808080" begin="arrowLeft.mouseover" end="arrowLeft.mouseout"/>
                  </use>
                  <path fill="none" stroke="white" stroke-width="1.5" d="M0,-3.0v7 M-2.5,-0.5L0,-3.0L2.5,-0.5"/>
                </g>
        </g>
        <svg viewBox="0 0 15 15" width="100%" height="30px" preserveAspectRatio="xMaxYMin meet">
         <g id="arrow_out" transform="scale(0.3 0.3)">
          <a xlink:href="tracked_8h__dep__incl_org.svg" target="_base">
           <rect id="button" ry="5" rx="5" y="6" x="6" height="38" width="38"
                fill="#f2f5e9" fill-opacity="0.5" stroke="#606060" stroke-width="1.0"/>
           <path id="arrow"
             d="M 11.500037,31.436501 C 11.940474,20.09759 22.043105,11.32322 32.158766,21.979434 L 37.068811,17.246167 C 37.068811,17.246167 37.088388,32 37.088388,32 L 22.160133,31.978069 C 22.160133,31.978069 26.997745,27.140456 26.997745,27.140456 C 18.528582,18.264221 13.291696,25.230495 11.500037,31.436501 z"
             style="fill:#404040;"/>
          </a>
         </g>
        </svg>
</svg>
