<?xml version="1.0" encoding="UTF-8" standalone="no"?>
<!DOCTYPE svg PUBLIC "-//W3C//DTD SVG 1.1//EN"
 "http://www.w3.org/Graphics/SVG/1.1/DTD/svg11.dtd">
<!-- Generated by graphviz version 7.0.5 (20221223.1930)
 -->
<!-- Title: src/Meta/math/transformation.h Pages: 1 -->
<svg width="1672pt" height="104pt"
 viewBox="0.00 0.00 1671.50 104.00" xmlns="http://www.w3.org/2000/svg" xmlns:xlink="http://www.w3.org/1999/xlink">
<g id="graph0" class="graph" transform="scale(1 1) rotate(0) translate(4 100)">
<title>src/Meta/math/transformation.h</title>
<!-- Node1 -->
<g id="node1" class="node">
<title>Node1</title>
<g id="a_node1"><a xlink:title=" ">
<polygon fill="#999999" stroke="#666666" points="864,-96 712,-96 712,-77 864,-77 864,-96"/>
<text text-anchor="middle" x="788" y="-84" font-family="Helvetica,sans-Serif" font-size="10.00">src/Meta/math/transformation.h</text>
</a>
</g>
</g>
<!-- Node2 -->
<g id="node2" class="node">
<title>Node2</title>
<g id="a_node2"><a xlink:href="pointshadowrenderpass_8cpp.html" target="_top" xlink:title=" ">
<polygon fill="white" stroke="#666666" points="140,-41 0,-41 0,0 140,0 140,-41"/>
<text text-anchor="start" x="8" y="-29" font-family="Helvetica,sans-Serif" font-size="10.00">plugins/misc/scene</text>
<text text-anchor="start" x="8" y="-18" font-family="Helvetica,sans-Serif" font-size="10.00">/renderer/Madgine/render</text>
<text text-anchor="middle" x="70" y="-7" font-family="Helvetica,sans-Serif" font-size="10.00">/pointshadowrenderpass.cpp</text>
</a>
</g>
</g>
<!-- Node1&#45;&gt;Node2 -->
<g id="edge1" class="edge">
<title>Node1&#45;&gt;Node2</title>
<path fill="none" stroke="#63b8ff" d="M700.53,-84.17C576.95,-81.22 344.49,-71.7 149,-41 146.07,-40.54 143.09,-40.02 140.08,-39.46"/>
<polygon fill="#63b8ff" stroke="#63b8ff" points="700.19,-87.67 710.27,-84.4 700.35,-80.67 700.19,-87.67"/>
</g>
<!-- Node3 -->
<g id="node3" class="node">
<title>Node3</title>
<g id="a_node3"><a xlink:href="scenerenderpass_8cpp.html" target="_top" xlink:title=" ">
<polygon fill="white" stroke="#666666" points="283.5,-41 158.5,-41 158.5,0 283.5,0 283.5,-41"/>
<text text-anchor="start" x="166.5" y="-29" font-family="Helvetica,sans-Serif" font-size="10.00">plugins/misc/scene</text>
<text text-anchor="start" x="166.5" y="-18" font-family="Helvetica,sans-Serif" font-size="10.00">/renderer/Madgine/render</text>
<text text-anchor="middle" x="221" y="-7" font-family="Helvetica,sans-Serif" font-size="10.00">/scenerenderpass.cpp</text>
</a>
</g>
</g>
<!-- Node1&#45;&gt;Node3 -->
<g id="edge2" class="edge">
<title>Node1&#45;&gt;Node3</title>
<path fill="none" stroke="#63b8ff" d="M700.6,-82.38C601.02,-77.73 433.73,-66.61 292,-41 289.36,-40.52 286.67,-39.99 283.97,-39.42"/>
<polygon fill="#63b8ff" stroke="#63b8ff" points="700.15,-85.86 710.3,-82.82 700.47,-78.87 700.15,-85.86"/>
</g>
<!-- Node4 -->
<g id="node4" class="node">
<title>Node4</title>
<g id="a_node4"><a xlink:href="sceneview_8cpp.html" target="_top" xlink:title=" ">
<polygon fill="white" stroke="#666666" points="468.5,-41 301.5,-41 301.5,0 468.5,0 468.5,-41"/>
<text text-anchor="start" x="309.5" y="-29" font-family="Helvetica,sans-Serif" font-size="10.00">plugins/misc/scene</text>
<text text-anchor="start" x="309.5" y="-18" font-family="Helvetica,sans-Serif" font-size="10.00">/renderer_tools/Madgine</text>
<text text-anchor="middle" x="385" y="-7" font-family="Helvetica,sans-Serif" font-size="10.00">_Tools/sceneeditor/sceneview.cpp</text>
</a>
</g>
</g>
<!-- Node1&#45;&gt;Node4 -->
<g id="edge3" class="edge">
<title>Node1&#45;&gt;Node4</title>
<path fill="none" stroke="#63b8ff" d="M704.69,-75.01C642.15,-66.79 554.49,-54.5 478,-41 474.99,-40.47 471.94,-39.91 468.85,-39.34"/>
<polygon fill="#63b8ff" stroke="#63b8ff" points="704.2,-78.48 714.57,-76.31 705.11,-71.54 704.2,-78.48"/>
</g>
<!-- Node5 -->
<g id="node5" class="node">
<title>Node5</title>
<g id="a_node5"><a xlink:href="animation_8cpp.html" target="_top" xlink:title=" ">
<polygon fill="white" stroke="#666666" points="629,-41 487,-41 487,0 629,0 629,-41"/>
<text text-anchor="start" x="495" y="-29" font-family="Helvetica,sans-Serif" font-size="10.00">plugins/misc/scene</text>
<text text-anchor="start" x="495" y="-18" font-family="Helvetica,sans-Serif" font-size="10.00">/src/Madgine/scene/behavior</text>
<text text-anchor="middle" x="558" y="-7" font-family="Helvetica,sans-Serif" font-size="10.00">/animation.cpp</text>
</a>
</g>
</g>
<!-- Node1&#45;&gt;Node5 -->
<g id="edge4" class="edge">
<title>Node1&#45;&gt;Node5</title>
<path fill="none" stroke="#63b8ff" d="M745.11,-73.56C712.65,-64.53 667.34,-51.92 629.43,-41.38"/>
<polygon fill="#63b8ff" stroke="#63b8ff" points="743.99,-76.89 754.56,-76.2 745.87,-70.14 743.99,-76.89"/>
</g>
<!-- Node6 -->
<g id="node6" class="node">
<title>Node6</title>
<g id="a_node6"><a xlink:href="skeleton_8cpp.html" target="_top" xlink:title=" ">
<polygon fill="white" stroke="#666666" points="778.5,-41 647.5,-41 647.5,0 778.5,0 778.5,-41"/>
<text text-anchor="start" x="655.5" y="-29" font-family="Helvetica,sans-Serif" font-size="10.00">plugins/misc/scene</text>
<text text-anchor="start" x="655.5" y="-18" font-family="Helvetica,sans-Serif" font-size="10.00">/src/Madgine/scene/entity</text>
<text text-anchor="middle" x="713" y="-7" font-family="Helvetica,sans-Serif" font-size="10.00">/components/skeleton.cpp</text>
</a>
</g>
</g>
<!-- Node1&#45;&gt;Node6 -->
<g id="edge5" class="edge">
<title>Node1&#45;&gt;Node6</title>
<path fill="none" stroke="#63b8ff" d="M768.89,-69.19C758.97,-60.73 746.76,-50.31 736.29,-41.38"/>
<polygon fill="#63b8ff" stroke="#63b8ff" points="766.54,-71.79 776.42,-75.62 771.09,-66.46 766.54,-71.79"/>
</g>
<!-- Node7 -->
<g id="node7" class="node">
<title>Node7</title>
<g id="a_node7"><a xlink:href="entity_2components_2transform_8cpp.html" target="_top" xlink:title=" ">
<polygon fill="white" stroke="#666666" points="931.5,-41 796.5,-41 796.5,0 931.5,0 931.5,-41"/>
<text text-anchor="start" x="804.5" y="-29" font-family="Helvetica,sans-Serif" font-size="10.00">plugins/misc/scene</text>
<text text-anchor="start" x="804.5" y="-18" font-family="Helvetica,sans-Serif" font-size="10.00">/src/Madgine/scene/entity</text>
<text text-anchor="middle" x="864" y="-7" font-family="Helvetica,sans-Serif" font-size="10.00">/components/transform.cpp</text>
</a>
</g>
</g>
<!-- Node1&#45;&gt;Node7 -->
<g id="edge6" class="edge">
<title>Node1&#45;&gt;Node7</title>
<path fill="none" stroke="#63b8ff" d="M807.37,-69.19C817.42,-60.73 829.79,-50.31 840.4,-41.38"/>
<polygon fill="#63b8ff" stroke="#63b8ff" points="805.12,-66.51 799.73,-75.63 809.63,-71.86 805.12,-66.51"/>
</g>
<!-- Node8 -->
<g id="node8" class="node">
<title>Node8</title>
<g id="a_node8"><a xlink:href="camera_8cpp.html" target="_top" xlink:title=" ">
<polygon fill="white" stroke="#666666" points="1106,-35.5 950,-35.5 950,-5.5 1106,-5.5 1106,-35.5"/>
<text text-anchor="start" x="958" y="-23.5" font-family="Helvetica,sans-Serif" font-size="10.00">plugins/renderer/api</text>
<text text-anchor="middle" x="1028" y="-12.5" font-family="Helvetica,sans-Serif" font-size="10.00">/src/Madgine/render/camera.cpp</text>
</a>
</g>
</g>
<!-- Node1&#45;&gt;Node8 -->
<g id="edge7" class="edge">
<title>Node1&#45;&gt;Node8</title>
<path fill="none" stroke="#63b8ff" d="M832.62,-73.6C872.55,-62.95 931.21,-47.31 973.83,-35.95"/>
<polygon fill="#63b8ff" stroke="#63b8ff" points="831.85,-70.19 823.09,-76.14 833.65,-76.95 831.85,-70.19"/>
</g>
<!-- Node9 -->
<g id="node9" class="node">
<title>Node9</title>
<g id="a_node9"><a xlink:href="skeletonloader_8cpp.html" target="_top" xlink:title=" ">
<polygon fill="white" stroke="#666666" points="1330,-35.5 1124,-35.5 1124,-5.5 1330,-5.5 1330,-35.5"/>
<text text-anchor="start" x="1132" y="-23.5" font-family="Helvetica,sans-Serif" font-size="10.00">plugins/resources/skeletonloader</text>
<text text-anchor="middle" x="1227" y="-12.5" font-family="Helvetica,sans-Serif" font-size="10.00">/Madgine/skeletonloader/skeletonloader.cpp</text>
</a>
</g>
</g>
<!-- Node1&#45;&gt;Node9 -->
<g id="edge8" class="edge">
<title>Node1&#45;&gt;Node9</title>
<path fill="none" stroke="#63b8ff" d="M870.74,-75.1C936.92,-66.58 1032.04,-53.86 1115,-41 1125.04,-39.44 1135.58,-37.72 1146,-35.97"/>
<polygon fill="#63b8ff" stroke="#63b8ff" points="870.53,-71.6 861.06,-76.35 871.42,-78.54 870.53,-71.6"/>
</g>
<!-- Node10 -->
<g id="node10" class="node">
<title>Node10</title>
<g id="a_node10"><a xlink:href="frustum_8cpp.html" target="_top" xlink:title=" ">
<polygon fill="white" stroke="#666666" points="1482,-30 1348,-30 1348,-11 1482,-11 1482,-30"/>
<text text-anchor="middle" x="1415" y="-18" font-family="Helvetica,sans-Serif" font-size="10.00">src/Meta/math/frustum.cpp</text>
</a>
</g>
</g>
<!-- Node1&#45;&gt;Node10 -->
<g id="edge9" class="edge">
<title>Node1&#45;&gt;Node10</title>
<path fill="none" stroke="#63b8ff" d="M875.54,-83.03C984.7,-78.9 1176.73,-68.17 1339,-41 1354.32,-38.44 1371.06,-34.29 1384.93,-30.48"/>
<polygon fill="#63b8ff" stroke="#63b8ff" points="875.64,-79.53 865.77,-83.39 875.9,-86.52 875.64,-79.53"/>
</g>
<!-- Node11 -->
<g id="node11" class="node">
<title>Node11</title>
<g id="a_node11"><a xlink:href="transformation_8cpp.html" target="_top" xlink:title=" ">
<polygon fill="white" stroke="#666666" points="1663.5,-30 1500.5,-30 1500.5,-11 1663.5,-11 1663.5,-30"/>
<text text-anchor="middle" x="1582" y="-18" font-family="Helvetica,sans-Serif" font-size="10.00">src/Meta/math/transformation.cpp</text>
</a>
</g>
</g>
<!-- Node1&#45;&gt;Node11 -->
<g id="edge10" class="edge">
<title>Node1&#45;&gt;Node11</title>
<path fill="none" stroke="#63b8ff" d="M875.64,-84.11C1009.07,-81.05 1270.88,-71.38 1491,-41 1509.41,-38.46 1529.64,-34.27 1546.34,-30.42"/>
<polygon fill="#63b8ff" stroke="#63b8ff" points="875.74,-80.61 865.82,-84.33 875.9,-87.6 875.74,-80.61"/>
</g>
</g>
</svg>
