<?xml version="1.0" encoding="UTF-8" standalone="no"?>
<!DOCTYPE svg PUBLIC "-//W3C//DTD SVG 1.1//EN"
 "http://www.w3.org/Graphics/SVG/1.1/DTD/svg11.dtd">
<!-- Generated by graphviz version 7.0.5 (20221223.1930)
 -->
<!-- Title: src/Meta/math/transformation.cpp Pages: 1 -->
<svg width="523pt" height="357pt"
 viewBox="0.00 0.00 522.50 357.00" xmlns="http://www.w3.org/2000/svg" xmlns:xlink="http://www.w3.org/1999/xlink">
<g id="graph0" class="graph" transform="scale(1 1) rotate(0) translate(4 353)">
<title>src/Meta/math/transformation.cpp</title>
<!-- Node1 -->
<g id="node1" class="node">
<title>Node1</title>
<g id="a_node1"><a xlink:title=" ">
<polygon fill="#999999" stroke="#666666" points="379,-349 216,-349 216,-330 379,-330 379,-349"/>
<text text-anchor="middle" x="297.5" y="-337" font-family="Helvetica,sans-Serif" font-size="10.00">src/Meta/math/transformation.cpp</text>
</a>
</g>
</g>
<!-- Node2 -->
<g id="node2" class="node">
<title>Node2</title>
<g id="a_node2"><a xlink:href="metalib_8h.html" target="_top" xlink:title=" ">
<polygon fill="white" stroke="#666666" points="146,-294 83,-294 83,-275 146,-275 146,-294"/>
<text text-anchor="middle" x="114.5" y="-282" font-family="Helvetica,sans-Serif" font-size="10.00">../metalib.h</text>
</a>
</g>
</g>
<!-- Node1&#45;&gt;Node2 -->
<g id="edge1" class="edge">
<title>Node1&#45;&gt;Node2</title>
<path fill="none" stroke="#63b8ff" d="M266.46,-329.51C236.13,-320.73 189.77,-307.3 156.23,-297.59"/>
<polygon fill="#63b8ff" stroke="#63b8ff" points="157.42,-294.29 146.84,-294.87 155.48,-301.01 157.42,-294.29"/>
</g>
<!-- Node5 -->
<g id="node5" class="node">
<title>Node5</title>
<g id="a_node5"><a xlink:href="transformation_8h.html" target="_top" xlink:title=" ">
<polygon fill="white" stroke="#666666" points="250.5,-294 164.5,-294 164.5,-275 250.5,-275 250.5,-294"/>
<text text-anchor="middle" x="207.5" y="-282" font-family="Helvetica,sans-Serif" font-size="10.00">transformation.h</text>
</a>
</g>
</g>
<!-- Node1&#45;&gt;Node5 -->
<g id="edge4" class="edge">
<title>Node1&#45;&gt;Node5</title>
<path fill="none" stroke="#63b8ff" d="M282.23,-329.51C268.57,-321.47 248.3,-309.53 232.32,-300.11"/>
<polygon fill="#63b8ff" stroke="#63b8ff" points="234.24,-297.18 223.85,-295.13 230.69,-303.22 234.24,-297.18"/>
</g>
<!-- Node6 -->
<g id="node6" class="node">
<title>Node6</title>
<g id="a_node6"><a xlink:href="frustum_8h.html" target="_top" xlink:title=" ">
<polygon fill="white" stroke="#666666" points="326,-294 269,-294 269,-275 326,-275 326,-294"/>
<text text-anchor="middle" x="297.5" y="-282" font-family="Helvetica,sans-Serif" font-size="10.00">frustum.h</text>
</a>
</g>
</g>
<!-- Node1&#45;&gt;Node6 -->
<g id="edge5" class="edge">
<title>Node1&#45;&gt;Node6</title>
<path fill="none" stroke="#63b8ff" d="M297.5,-329.75C297.5,-323.27 297.5,-314.16 297.5,-305.9"/>
<polygon fill="#63b8ff" stroke="#63b8ff" points="301,-305.96 297.5,-295.96 294,-305.96 301,-305.96"/>
</g>
<!-- Node7 -->
<g id="node7" class="node">
<title>Node7</title>
<g id="a_node7"><a xlink:href="quaternion_8h.html" target="_top" xlink:title=" ">
<polygon fill="white" stroke="#666666" points="378,-239 309,-239 309,-220 378,-220 378,-239"/>
<text text-anchor="middle" x="343.5" y="-227" font-family="Helvetica,sans-Serif" font-size="10.00">quaternion.h</text>
</a>
</g>
</g>
<!-- Node1&#45;&gt;Node7 -->
<g id="edge22" class="edge">
<title>Node1&#45;&gt;Node7</title>
<path fill="none" stroke="#63b8ff" d="M307.45,-329.67C316.11,-321.38 328.23,-308.15 334.5,-294 340.59,-280.26 342.76,-263.35 343.45,-250.44"/>
<polygon fill="#63b8ff" stroke="#63b8ff" points="346.94,-250.72 343.7,-240.64 339.95,-250.54 346.94,-250.72"/>
</g>
<!-- Node15 -->
<g id="node15" class="node">
<title>Node15</title>
<g id="a_node15"><a xlink:href="matrix4_8h.html" target="_top" xlink:title=" ">
<polygon fill="white" stroke="#666666" points="452.5,-239 396.5,-239 396.5,-220 452.5,-220 452.5,-239"/>
<text text-anchor="middle" x="424.5" y="-227" font-family="Helvetica,sans-Serif" font-size="10.00">matrix4.h</text>
</a>
</g>
</g>
<!-- Node1&#45;&gt;Node15 -->
<g id="edge18" class="edge">
<title>Node1&#45;&gt;Node15</title>
<path fill="none" stroke="#63b8ff" d="M308.33,-329.72C319.28,-320.8 336.67,-306.56 351.5,-294 370.22,-278.15 391.33,-259.72 406.02,-246.81"/>
<polygon fill="#63b8ff" stroke="#63b8ff" points="408.33,-249.45 413.52,-240.21 403.7,-244.19 408.33,-249.45"/>
</g>
<!-- Node3 -->
<g id="node3" class="node">
<title>Node3</title>
<g id="a_node3"><a xlink:href="genericlib_8h.html" target="_top" xlink:title=" ">
<polygon fill="white" stroke="#666666" points="191.5,-239 89.5,-239 89.5,-220 191.5,-220 191.5,-239"/>
<text text-anchor="middle" x="140.5" y="-227" font-family="Helvetica,sans-Serif" font-size="10.00">Generic/genericlib.h</text>
</a>
</g>
</g>
<!-- Node2&#45;&gt;Node3 -->
<g id="edge2" class="edge">
<title>Node2&#45;&gt;Node3</title>
<path fill="none" stroke="#63b8ff" d="M118.79,-274.75C122.12,-267.96 126.86,-258.3 131.06,-249.73"/>
<polygon fill="#63b8ff" stroke="#63b8ff" points="134.18,-251.32 135.45,-240.8 127.9,-248.24 134.18,-251.32"/>
</g>
<!-- Node4 -->
<g id="node4" class="node">
<title>Node4</title>
<g id="a_node4"><a xlink:title=" ">
<polygon fill="#e0e0e0" stroke="#999999" points="71,-239 0,-239 0,-220 71,-220 71,-239"/>
<text text-anchor="middle" x="35.5" y="-227" font-family="Helvetica,sans-Serif" font-size="10.00">metaconfig.h</text>
</a>
</g>
</g>
<!-- Node2&#45;&gt;Node4 -->
<g id="edge3" class="edge">
<title>Node2&#45;&gt;Node4</title>
<path fill="none" stroke="#63b8ff" d="M101.1,-274.51C89.34,-266.62 71.99,-254.98 58.09,-245.65"/>
<polygon fill="#63b8ff" stroke="#63b8ff" points="60.21,-242.87 49.96,-240.2 56.31,-248.68 60.21,-242.87"/>
</g>
<!-- Node6&#45;&gt;Node7 -->
<g id="edge6" class="edge">
<title>Node6&#45;&gt;Node7</title>
<path fill="none" stroke="#63b8ff" d="M305.1,-274.75C311.38,-267.5 320.51,-256.98 328.3,-248.02"/>
<polygon fill="#63b8ff" stroke="#63b8ff" points="330.84,-250.43 334.75,-240.59 325.55,-245.84 330.84,-250.43"/>
</g>
<!-- Node9 -->
<g id="node9" class="node">
<title>Node9</title>
<g id="a_node9"><a xlink:href="vector3_8h.html" target="_top" xlink:title=" ">
<polygon fill="white" stroke="#666666" points="412.5,-129 356.5,-129 356.5,-110 412.5,-110 412.5,-129"/>
<text text-anchor="middle" x="384.5" y="-117" font-family="Helvetica,sans-Serif" font-size="10.00">vector3.h</text>
</a>
</g>
</g>
<!-- Node6&#45;&gt;Node9 -->
<g id="edge17" class="edge">
<title>Node6&#45;&gt;Node9</title>
<path fill="none" stroke="#63b8ff" d="M293.35,-274.59C284.23,-253.59 264.98,-200.1 287.5,-165 300.22,-145.17 324.23,-134.06 345.18,-127.9"/>
<polygon fill="#63b8ff" stroke="#63b8ff" points="345.85,-131.35 354.63,-125.42 344.07,-124.57 345.85,-131.35"/>
</g>
<!-- Node8 -->
<g id="node8" class="node">
<title>Node8</title>
<g id="a_node8"><a xlink:href="matrix3_8h.html" target="_top" xlink:title=" ">
<polygon fill="white" stroke="#666666" points="440.5,-184 384.5,-184 384.5,-165 440.5,-165 440.5,-184"/>
<text text-anchor="middle" x="412.5" y="-172" font-family="Helvetica,sans-Serif" font-size="10.00">matrix3.h</text>
</a>
</g>
</g>
<!-- Node7&#45;&gt;Node8 -->
<g id="edge7" class="edge">
<title>Node7&#45;&gt;Node8</title>
<path fill="none" stroke="#63b8ff" d="M355.2,-219.51C365.28,-211.77 380.04,-200.43 392.06,-191.2"/>
<polygon fill="#63b8ff" stroke="#63b8ff" points="393.97,-194.15 399.77,-185.28 389.71,-188.6 393.97,-194.15"/>
</g>
<!-- Node7&#45;&gt;Node9 -->
<g id="edge16" class="edge">
<title>Node7&#45;&gt;Node9</title>
<path fill="none" stroke="#63b8ff" d="M346.86,-219.66C353.43,-202.34 368.16,-163.55 377.12,-139.95"/>
<polygon fill="#63b8ff" stroke="#63b8ff" points="380.28,-141.47 380.56,-130.88 373.74,-138.98 380.28,-141.47"/>
</g>
<!-- Node14 -->
<g id="node14" class="node">
<title>Node14</title>
<g id="a_node14"><a xlink:href="pi_8h.html" target="_top" xlink:title=" ">
<polygon fill="white" stroke="#666666" points="328.5,-184 296.5,-184 296.5,-165 328.5,-165 328.5,-184"/>
<text text-anchor="middle" x="312.5" y="-172" font-family="Helvetica,sans-Serif" font-size="10.00">pi.h</text>
</a>
</g>
</g>
<!-- Node7&#45;&gt;Node14 -->
<g id="edge15" class="edge">
<title>Node7&#45;&gt;Node14</title>
<path fill="none" stroke="#63b8ff" d="M338.38,-219.75C334.32,-212.81 328.51,-202.86 323.41,-194.16"/>
<polygon fill="#63b8ff" stroke="#63b8ff" points="326.56,-192.61 318.49,-185.75 320.52,-196.15 326.56,-192.61"/>
</g>
<!-- Node8&#45;&gt;Node9 -->
<g id="edge8" class="edge">
<title>Node8&#45;&gt;Node9</title>
<path fill="none" stroke="#63b8ff" d="M407.88,-164.75C404.25,-157.88 399.07,-148.08 394.51,-139.45"/>
<polygon fill="#63b8ff" stroke="#63b8ff" points="397.7,-137.99 389.93,-130.78 391.51,-141.26 397.7,-137.99"/>
</g>
<!-- Node10 -->
<g id="node10" class="node">
<title>Node10</title>
<g id="a_node10"><a xlink:href="common_8h.html" target="_top" xlink:title=" ">
<polygon fill="white" stroke="#666666" points="385.5,-19 323.5,-19 323.5,0 385.5,0 385.5,-19"/>
<text text-anchor="middle" x="354.5" y="-7" font-family="Helvetica,sans-Serif" font-size="10.00">common.h</text>
</a>
</g>
</g>
<!-- Node9&#45;&gt;Node10 -->
<g id="edge9" class="edge">
<title>Node9&#45;&gt;Node10</title>
<path fill="none" stroke="#63b8ff" d="M373.71,-109.55C364.76,-101.36 352.69,-88.36 347.5,-74 342.41,-59.93 344.63,-43.06 347.87,-30.24"/>
<polygon fill="#63b8ff" stroke="#63b8ff" points="351.16,-31.46 350.65,-20.87 344.45,-29.46 351.16,-31.46"/>
</g>
<!-- Node11 -->
<g id="node11" class="node">
<title>Node11</title>
<g id="a_node11"><a xlink:href="vector2_8h.html" target="_top" xlink:title=" ">
<polygon fill="white" stroke="#666666" points="412.5,-74 356.5,-74 356.5,-55 412.5,-55 412.5,-74"/>
<text text-anchor="middle" x="384.5" y="-62" font-family="Helvetica,sans-Serif" font-size="10.00">vector2.h</text>
</a>
</g>
</g>
<!-- Node9&#45;&gt;Node11 -->
<g id="edge10" class="edge">
<title>Node9&#45;&gt;Node11</title>
<path fill="none" stroke="#63b8ff" d="M384.5,-109.75C384.5,-103.27 384.5,-94.16 384.5,-85.9"/>
<polygon fill="#63b8ff" stroke="#63b8ff" points="388,-85.96 384.5,-75.96 381,-85.96 388,-85.96"/>
</g>
<!-- Node13 -->
<g id="node13" class="node">
<title>Node13</title>
<g id="a_node13"><a xlink:href="vector3i_8h.html" target="_top" xlink:title=" ">
<polygon fill="white" stroke="#666666" points="490,-74 431,-74 431,-55 490,-55 490,-74"/>
<text text-anchor="middle" x="460.5" y="-62" font-family="Helvetica,sans-Serif" font-size="10.00">vector3i.h</text>
</a>
</g>
</g>
<!-- Node9&#45;&gt;Node13 -->
<g id="edge13" class="edge">
<title>Node9&#45;&gt;Node13</title>
<path fill="none" stroke="#63b8ff" d="M397.39,-109.51C408.6,-101.7 425.07,-90.21 438.38,-80.93"/>
<polygon fill="#63b8ff" stroke="#63b8ff" points="440.36,-83.81 446.56,-75.22 436.35,-78.07 440.36,-83.81"/>
</g>
<!-- Node11&#45;&gt;Node10 -->
<g id="edge12" class="edge">
<title>Node11&#45;&gt;Node10</title>
<path fill="none" stroke="#63b8ff" d="M379.55,-54.75C375.66,-47.88 370.11,-38.08 365.22,-29.45"/>
<polygon fill="#63b8ff" stroke="#63b8ff" points="368.28,-27.74 360.31,-20.76 362.19,-31.19 368.28,-27.74"/>
</g>
<!-- Node12 -->
<g id="node12" class="node">
<title>Node12</title>
<g id="a_node12"><a xlink:href="vector2i_8h.html" target="_top" xlink:title=" ">
<polygon fill="white" stroke="#666666" points="476,-19 417,-19 417,0 476,0 476,-19"/>
<text text-anchor="middle" x="446.5" y="-7" font-family="Helvetica,sans-Serif" font-size="10.00">vector2i.h</text>
</a>
</g>
</g>
<!-- Node11&#45;&gt;Node12 -->
<g id="edge11" class="edge">
<title>Node11&#45;&gt;Node12</title>
<path fill="none" stroke="#63b8ff" d="M395.02,-54.51C403.89,-46.93 416.81,-35.88 427.49,-26.75"/>
<polygon fill="#63b8ff" stroke="#63b8ff" points="429.66,-29.5 434.99,-20.34 425.11,-24.18 429.66,-29.5"/>
</g>
<!-- Node13&#45;&gt;Node12 -->
<g id="edge14" class="edge">
<title>Node13&#45;&gt;Node12</title>
<path fill="none" stroke="#63b8ff" d="M458.19,-54.75C456.44,-48.11 453.96,-38.73 451.73,-30.31"/>
<polygon fill="#63b8ff" stroke="#63b8ff" points="455.19,-29.68 449.25,-20.91 448.42,-31.47 455.19,-29.68"/>
</g>
<!-- Node15&#45;&gt;Node8 -->
<g id="edge19" class="edge">
<title>Node15&#45;&gt;Node8</title>
<path fill="none" stroke="#63b8ff" d="M422.52,-219.75C421.03,-213.19 418.94,-203.95 417.05,-195.6"/>
<polygon fill="#63b8ff" stroke="#63b8ff" points="420.48,-194.9 414.86,-185.92 413.65,-196.44 420.48,-194.9"/>
</g>
<!-- Node16 -->
<g id="node16" class="node">
<title>Node16</title>
<g id="a_node16"><a xlink:href="vector4_8h.html" target="_top" xlink:title=" ">
<polygon fill="white" stroke="#666666" points="514.5,-184 458.5,-184 458.5,-165 514.5,-165 514.5,-184"/>
<text text-anchor="middle" x="486.5" y="-172" font-family="Helvetica,sans-Serif" font-size="10.00">vector4.h</text>
</a>
</g>
</g>
<!-- Node15&#45;&gt;Node16 -->
<g id="edge20" class="edge">
<title>Node15&#45;&gt;Node16</title>
<path fill="none" stroke="#63b8ff" d="M435.02,-219.51C443.89,-211.93 456.81,-200.88 467.49,-191.75"/>
<polygon fill="#63b8ff" stroke="#63b8ff" points="469.66,-194.5 474.99,-185.34 465.11,-189.18 469.66,-194.5"/>
</g>
<!-- Node16&#45;&gt;Node9 -->
<g id="edge21" class="edge">
<title>Node16&#45;&gt;Node9</title>
<path fill="none" stroke="#63b8ff" d="M469.2,-164.51C453.42,-156.31 429.86,-144.07 411.59,-134.58"/>
<polygon fill="#63b8ff" stroke="#63b8ff" points="413.38,-131.56 402.89,-130.06 410.15,-137.77 413.38,-131.56"/>
</g>
</g>
</svg>
