<?xml version="1.0" encoding="UTF-8" standalone="no"?>
<!DOCTYPE svg PUBLIC "-//W3C//DTD SVG 1.1//EN"
 "http://www.w3.org/Graphics/SVG/1.1/DTD/svg11.dtd">
<!-- Generated by graphviz version 7.0.5 (20221223.1930)
 -->
<!-- Title: src/Madgine/trees/treeformat.cpp Pages: 1 -->
<svg width="233pt" height="137pt"
 viewBox="0.00 0.00 233.00 137.00" xmlns="http://www.w3.org/2000/svg" xmlns:xlink="http://www.w3.org/1999/xlink">
<g id="graph0" class="graph" transform="scale(1 1) rotate(0) translate(4 133)">
<title>src/Madgine/trees/treeformat.cpp</title>
<!-- Node1 -->
<g id="node1" class="node">
<title>Node1</title>
<g id="a_node1"><a xlink:title=" ">
<polygon fill="#999999" stroke="#666666" points="225,-129 65,-129 65,-110 225,-110 225,-129"/>
<text text-anchor="middle" x="145" y="-117" font-family="Helvetica,sans-Serif" font-size="10.00">src/Madgine/trees/treeformat.cpp</text>
</a>
</g>
</g>
<!-- Node2 -->
<g id="node2" class="node">
<title>Node2</title>
<g id="a_node2"><a xlink:href="treeslib_8h.html" target="_top" xlink:title=" ">
<polygon fill="white" stroke="#666666" points="133,-74 77,-74 77,-55 133,-55 133,-74"/>
<text text-anchor="middle" x="105" y="-62" font-family="Helvetica,sans-Serif" font-size="10.00">treeslib.h</text>
</a>
</g>
</g>
<!-- Node1&#45;&gt;Node2 -->
<g id="edge1" class="edge">
<title>Node1&#45;&gt;Node2</title>
<path fill="none" stroke="#63b8ff" d="M138.39,-109.75C133.04,-102.66 125.32,-92.42 118.65,-83.59"/>
<polygon fill="#63b8ff" stroke="#63b8ff" points="121.48,-81.52 112.66,-75.65 115.89,-85.74 121.48,-81.52"/>
</g>
<!-- Node5 -->
<g id="node5" class="node">
<title>Node5</title>
<g id="a_node5"><a xlink:href="treeformat_8h.html" target="_top" xlink:title=" ">
<polygon fill="white" stroke="#666666" points="219,-74 151,-74 151,-55 219,-55 219,-74"/>
<text text-anchor="middle" x="185" y="-62" font-family="Helvetica,sans-Serif" font-size="10.00">treeformat.h</text>
</a>
</g>
</g>
<!-- Node1&#45;&gt;Node5 -->
<g id="edge4" class="edge">
<title>Node1&#45;&gt;Node5</title>
<path fill="none" stroke="#63b8ff" d="M151.61,-109.75C156.96,-102.66 164.68,-92.42 171.35,-83.59"/>
<polygon fill="#63b8ff" stroke="#63b8ff" points="174.11,-85.74 177.34,-75.65 168.52,-81.52 174.11,-85.74"/>
</g>
<!-- Node3 -->
<g id="node3" class="node">
<title>Node3</title>
<g id="a_node3"><a xlink:href="genericlib_8h.html" target="_top" xlink:title=" ">
<polygon fill="white" stroke="#666666" points="102,-19 0,-19 0,0 102,0 102,-19"/>
<text text-anchor="middle" x="51" y="-7" font-family="Helvetica,sans-Serif" font-size="10.00">Generic/genericlib.h</text>
</a>
</g>
</g>
<!-- Node2&#45;&gt;Node3 -->
<g id="edge2" class="edge">
<title>Node2&#45;&gt;Node3</title>
<path fill="none" stroke="#63b8ff" d="M96.08,-54.75C88.55,-47.35 77.53,-36.54 68.27,-27.45"/>
<polygon fill="#63b8ff" stroke="#63b8ff" points="70.78,-25.01 61.19,-20.5 65.88,-30 70.78,-25.01"/>
</g>
<!-- Node4 -->
<g id="node4" class="node">
<title>Node4</title>
<g id="a_node4"><a xlink:href="treesforward_8h.html" target="_top" xlink:title=" ">
<polygon fill="white" stroke="#666666" points="198,-19 120,-19 120,0 198,0 198,-19"/>
<text text-anchor="middle" x="159" y="-7" font-family="Helvetica,sans-Serif" font-size="10.00">treesforward.h</text>
</a>
</g>
</g>
<!-- Node2&#45;&gt;Node4 -->
<g id="edge3" class="edge">
<title>Node2&#45;&gt;Node4</title>
<path fill="none" stroke="#63b8ff" d="M113.92,-54.75C121.45,-47.35 132.47,-36.54 141.73,-27.45"/>
<polygon fill="#63b8ff" stroke="#63b8ff" points="144.12,-30 148.81,-20.5 139.22,-25.01 144.12,-30"/>
</g>
</g>
</svg>
