<?xml version="1.0" encoding="UTF-8" standalone="no"?>
<!DOCTYPE svg PUBLIC "-//W3C//DTD SVG 1.1//EN"
 "http://www.w3.org/Graphics/SVG/1.1/DTD/svg11.dtd">
<!-- Generated by graphviz version 7.0.5 (20221223.1930)
 -->
<!-- Title: src/Meta/serialize/helper/typedobjectserialize.h Pages: 1 -->
<svg width="1878pt" height="643pt"
 viewBox="0.00 0.00 1877.50 643.00" xmlns="http://www.w3.org/2000/svg" xmlns:xlink="http://www.w3.org/1999/xlink">
<g id="graph0" class="graph" transform="scale(1 1) rotate(0) translate(4 639)">
<title>src/Meta/serialize/helper/typedobjectserialize.h</title>
<!-- Node1 -->
<g id="node1" class="node">
<title>Node1</title>
<g id="a_node1"><a xlink:title=" ">
<polygon fill="#999999" stroke="#666666" points="1124.5,-635 983.5,-635 983.5,-605 1124.5,-605 1124.5,-635"/>
<text text-anchor="start" x="991.5" y="-623" font-family="Helvetica,sans-Serif" font-size="10.00">src/Meta/serialize</text>
<text text-anchor="middle" x="1054" y="-612" font-family="Helvetica,sans-Serif" font-size="10.00">/helper/typedobjectserialize.h</text>
</a>
</g>
</g>
<!-- Node2 -->
<g id="node2" class="node">
<title>Node2</title>
<g id="a_node2"><a xlink:href="operations_8h.html" target="_top" xlink:title=" ">
<polygon fill="white" stroke="#666666" points="1092.5,-569 1015.5,-569 1015.5,-550 1092.5,-550 1092.5,-569"/>
<text text-anchor="middle" x="1054" y="-557" font-family="Helvetica,sans-Serif" font-size="10.00">../operations.h</text>
</a>
</g>
</g>
<!-- Node1&#45;&gt;Node2 -->
<g id="edge1" class="edge">
<title>Node1&#45;&gt;Node2</title>
<path fill="none" stroke="#63b8ff" d="M1054,-604.54C1054,-597.34 1054,-588.53 1054,-580.68"/>
<polygon fill="#63b8ff" stroke="#63b8ff" points="1057.5,-580.69 1054,-570.69 1050.5,-580.69 1057.5,-580.69"/>
</g>
<!-- Node3 -->
<g id="node3" class="node">
<title>Node3</title>
<g id="a_node3"><a xlink:href="configselector_8h.html" target="_top" xlink:title=" ">
<polygon fill="white" stroke="#666666" points="118,-459 0,-459 0,-440 118,-440 118,-459"/>
<text text-anchor="middle" x="59" y="-447" font-family="Helvetica,sans-Serif" font-size="10.00">configs/configselector.h</text>
</a>
</g>
</g>
<!-- Node2&#45;&gt;Node3 -->
<g id="edge2" class="edge">
<title>Node2&#45;&gt;Node3</title>
<path fill="none" stroke="#63b8ff" d="M1015.26,-557.95C852.14,-555.47 225.75,-544.02 143,-514 115.99,-504.2 90.49,-482.5 74.82,-467.21"/>
<polygon fill="#63b8ff" stroke="#63b8ff" points="77.37,-464.81 67.86,-460.16 72.39,-469.73 77.37,-464.81"/>
</g>
<!-- Node4 -->
<g id="node4" class="node">
<title>Node4</title>
<g id="a_node4"><a xlink:href="creator_8h.html" target="_top" xlink:title=" ">
<polygon fill="white" stroke="#666666" points="704,-514 616,-514 616,-495 704,-495 704,-514"/>
<text text-anchor="middle" x="660" y="-502" font-family="Helvetica,sans-Serif" font-size="10.00">configs/creator.h</text>
</a>
</g>
</g>
<!-- Node2&#45;&gt;Node4 -->
<g id="edge3" class="edge">
<title>Node2&#45;&gt;Node4</title>
<path fill="none" stroke="#63b8ff" d="M1015.14,-553.27C944.78,-543.81 796.06,-523.8 715.19,-512.92"/>
<polygon fill="#63b8ff" stroke="#63b8ff" points="716.12,-509.52 705.74,-511.65 715.18,-516.45 716.12,-509.52"/>
</g>
<!-- Node23 -->
<g id="node23" class="node">
<title>Node23</title>
<g id="a_node23"><a xlink:href="serializableunitptr_8h.html" target="_top" xlink:title=" ">
<polygon fill="white" stroke="#666666" points="1013.5,-294 864.5,-294 864.5,-275 1013.5,-275 1013.5,-294"/>
<text text-anchor="middle" x="939" y="-282" font-family="Helvetica,sans-Serif" font-size="10.00">../hierarchy/serializableunitptr.h</text>
</a>
</g>
</g>
<!-- Node2&#45;&gt;Node23 -->
<g id="edge35" class="edge">
<title>Node2&#45;&gt;Node23</title>
<path fill="none" stroke="#63b8ff" d="M1053.76,-549.57C1052.98,-529.41 1049.58,-479.04 1035,-440 1014.83,-385.99 974.6,-330.43 953.18,-303.01"/>
<polygon fill="#63b8ff" stroke="#63b8ff" points="956.11,-301.07 947.16,-295.42 950.63,-305.43 956.11,-301.07"/>
</g>
<!-- Node28 -->
<g id="node28" class="node">
<title>Node28</title>
<g id="a_node28"><a xlink:href="_meta_2serialize_2configs_2guard_8h.html" target="_top" xlink:title=" ">
<polygon fill="white" stroke="#666666" points="1164,-514 1082,-514 1082,-495 1164,-495 1164,-514"/>
<text text-anchor="middle" x="1123" y="-502" font-family="Helvetica,sans-Serif" font-size="10.00">configs/guard.h</text>
</a>
</g>
</g>
<!-- Node2&#45;&gt;Node28 -->
<g id="edge29" class="edge">
<title>Node2&#45;&gt;Node28</title>
<path fill="none" stroke="#63b8ff" d="M1065.7,-549.51C1075.78,-541.77 1090.54,-530.43 1102.56,-521.2"/>
<polygon fill="#63b8ff" stroke="#63b8ff" points="1104.47,-524.15 1110.27,-515.28 1100.21,-518.6 1104.47,-524.15"/>
</g>
<!-- Node31 -->
<g id="node31" class="node">
<title>Node31</title>
<g id="a_node31"><a xlink:href="tags_8h.html" target="_top" xlink:title=" ">
<polygon fill="white" stroke="#666666" points="229.5,-514 152.5,-514 152.5,-495 229.5,-495 229.5,-514"/>
<text text-anchor="middle" x="191" y="-502" font-family="Helvetica,sans-Serif" font-size="10.00">configs/tags.h</text>
</a>
</g>
</g>
<!-- Node2&#45;&gt;Node31 -->
<g id="edge32" class="edge">
<title>Node2&#45;&gt;Node31</title>
<path fill="none" stroke="#63b8ff" d="M1015.24,-556.12C875.41,-547.53 396.96,-518.15 240.76,-508.56"/>
<polygon fill="#63b8ff" stroke="#63b8ff" points="241.36,-505.09 231.16,-507.97 240.93,-512.07 241.36,-505.09"/>
</g>
<!-- Node33 -->
<g id="node33" class="node">
<title>Node33</title>
<g id="a_node33"><a xlink:href="formattedmessagestream_8h.html" target="_top" xlink:title=" ">
<polygon fill="white" stroke="#666666" points="1025.5,-514 852.5,-514 852.5,-495 1025.5,-495 1025.5,-514"/>
<text text-anchor="middle" x="939" y="-502" font-family="Helvetica,sans-Serif" font-size="10.00">streams/formattedmessagestream.h</text>
</a>
</g>
</g>
<!-- Node2&#45;&gt;Node33 -->
<g id="edge36" class="edge">
<title>Node2&#45;&gt;Node33</title>
<path fill="none" stroke="#63b8ff" d="M1034.49,-549.51C1016.37,-541.16 989.15,-528.61 968.4,-519.05"/>
<polygon fill="#63b8ff" stroke="#63b8ff" points="970.14,-516 959.59,-514.99 967.21,-522.36 970.14,-516"/>
</g>
<!-- Node43 -->
<g id="node43" class="node">
<title>Node43</title>
<g id="a_node43"><a xlink:href="atomiccontaineroperation_8h.html" target="_top" xlink:title=" ">
<polygon fill="white" stroke="#666666" points="1394,-514 1182,-514 1182,-495 1394,-495 1394,-514"/>
<text text-anchor="middle" x="1288" y="-502" font-family="Helvetica,sans-Serif" font-size="10.00">Generic/container/atomiccontaineroperation.h</text>
</a>
</g>
</g>
<!-- Node2&#45;&gt;Node43 -->
<g id="edge50" class="edge">
<title>Node2&#45;&gt;Node43</title>
<path fill="none" stroke="#63b8ff" d="M1092.9,-549.69C1132.51,-540.72 1194.09,-526.77 1237.45,-516.95"/>
<polygon fill="#63b8ff" stroke="#63b8ff" points="1238.16,-520.38 1247.14,-514.76 1236.61,-513.55 1238.16,-520.38"/>
</g>
<!-- Node44 -->
<g id="node44" class="node">
<title>Node44</title>
<g id="a_node44"><a xlink:href="physical_8h.html" target="_top" xlink:title=" ">
<polygon fill="white" stroke="#666666" points="1514,-514 1412,-514 1412,-495 1514,-495 1514,-514"/>
<text text-anchor="middle" x="1463" y="-502" font-family="Helvetica,sans-Serif" font-size="10.00">container/physical.h</text>
</a>
</g>
</g>
<!-- Node2&#45;&gt;Node44 -->
<g id="edge51" class="edge">
<title>Node2&#45;&gt;Node44</title>
<path fill="none" stroke="#63b8ff" d="M1092.76,-553.74C1155.18,-546.03 1282.15,-530.18 1400.22,-514.36"/>
<polygon fill="#63b8ff" stroke="#63b8ff" points="1400.67,-517.83 1410.12,-513.03 1399.74,-510.89 1400.67,-517.83"/>
</g>
<!-- Node45 -->
<g id="node45" class="node">
<title>Node45</title>
<g id="a_node45"><a xlink:href="statetransmissionflags_8h.html" target="_top" xlink:title=" ">
<polygon fill="white" stroke="#666666" points="1696,-514 1532,-514 1532,-495 1696,-495 1696,-514"/>
<text text-anchor="middle" x="1614" y="-502" font-family="Helvetica,sans-Serif" font-size="10.00">hierarchy/statetransmissionflags.h</text>
</a>
</g>
</g>
<!-- Node2&#45;&gt;Node45 -->
<g id="edge52" class="edge">
<title>Node2&#45;&gt;Node45</title>
<path fill="none" stroke="#63b8ff" d="M1092.93,-554.82C1180.61,-546.52 1395.57,-526.17 1520.28,-514.37"/>
<polygon fill="#63b8ff" stroke="#63b8ff" points="1520.56,-517.86 1530.18,-513.43 1519.9,-510.89 1520.56,-517.86"/>
</g>
<!-- Node46 -->
<g id="node46" class="node">
<title>Node46</title>
<g id="a_node46"><a xlink:href="serializablemapholder_8h.html" target="_top" xlink:title=" ">
<polygon fill="white" stroke="#666666" points="1869.5,-514 1714.5,-514 1714.5,-495 1869.5,-495 1869.5,-514"/>
<text text-anchor="middle" x="1792" y="-502" font-family="Helvetica,sans-Serif" font-size="10.00">streams/serializablemapholder.h</text>
</a>
</g>
</g>
<!-- Node2&#45;&gt;Node46 -->
<g id="edge53" class="edge">
<title>Node2&#45;&gt;Node46</title>
<path fill="none" stroke="#63b8ff" d="M1092.92,-556.24C1192.4,-550.37 1464.32,-533.79 1702.89,-514.15"/>
<polygon fill="#63b8ff" stroke="#63b8ff" points="1703.04,-517.65 1712.71,-513.34 1702.46,-510.67 1703.04,-517.65"/>
</g>
<!-- Node47 -->
<g id="node47" class="node">
<title>Node47</title>
<g id="a_node47"><a xlink:href="visitor_8h.html" target="_top" xlink:title=" ">
<polygon fill="white" stroke="#666666" points="920,-349 870,-349 870,-330 920,-330 920,-349"/>
<text text-anchor="middle" x="895" y="-337" font-family="Helvetica,sans-Serif" font-size="10.00">visitor.h</text>
</a>
</g>
</g>
<!-- Node2&#45;&gt;Node47 -->
<g id="edge54" class="edge">
<title>Node2&#45;&gt;Node47</title>
<path fill="none" stroke="#63b8ff" d="M1015.44,-555.92C960.73,-551.37 864.76,-539.85 843,-514 803.74,-467.36 853.76,-391.86 880.36,-357.96"/>
<polygon fill="#63b8ff" stroke="#63b8ff" points="882.92,-360.36 886.49,-350.38 877.48,-355.95 882.92,-360.36"/>
</g>
<!-- Node5 -->
<g id="node5" class="node">
<title>Node5</title>
<g id="a_node5"><a xlink:href="makeowning_8h.html" target="_top" xlink:title=" ">
<polygon fill="white" stroke="#666666" points="648,-459 532,-459 532,-440 648,-440 648,-459"/>
<text text-anchor="middle" x="590" y="-447" font-family="Helvetica,sans-Serif" font-size="10.00">Generic/makeowning.h</text>
</a>
</g>
</g>
<!-- Node4&#45;&gt;Node5 -->
<g id="edge4" class="edge">
<title>Node4&#45;&gt;Node5</title>
<path fill="none" stroke="#63b8ff" d="M648.13,-494.51C637.91,-486.77 622.93,-475.43 610.74,-466.2"/>
<polygon fill="#63b8ff" stroke="#63b8ff" points="612.99,-463.52 602.91,-460.27 608.77,-469.1 612.99,-463.52"/>
</g>
<!-- Node6 -->
<g id="node6" class="node">
<title>Node6</title>
<g id="a_node6"><a xlink:href="customfunctors_8h.html" target="_top" xlink:title=" ">
<polygon fill="white" stroke="#666666" points="794,-459 666,-459 666,-440 794,-440 794,-459"/>
<text text-anchor="middle" x="730" y="-447" font-family="Helvetica,sans-Serif" font-size="10.00">Generic/customfunctors.h</text>
</a>
</g>
</g>
<!-- Node4&#45;&gt;Node6 -->
<g id="edge5" class="edge">
<title>Node4&#45;&gt;Node6</title>
<path fill="none" stroke="#63b8ff" d="M671.87,-494.51C682.09,-486.77 697.07,-475.43 709.26,-466.2"/>
<polygon fill="#63b8ff" stroke="#63b8ff" points="711.23,-469.1 717.09,-460.27 707.01,-463.52 711.23,-469.1"/>
</g>
<!-- Node10 -->
<g id="node10" class="node">
<title>Node10</title>
<g id="a_node10"><a xlink:href="emplace_8h.html" target="_top" xlink:title=" ">
<polygon fill="white" stroke="#666666" points="404,-459 264,-459 264,-440 404,-440 404,-459"/>
<text text-anchor="middle" x="334" y="-447" font-family="Helvetica,sans-Serif" font-size="10.00">Generic/container/emplace.h</text>
</a>
</g>
</g>
<!-- Node4&#45;&gt;Node10 -->
<g id="edge9" class="edge">
<title>Node4&#45;&gt;Node10</title>
<path fill="none" stroke="#63b8ff" d="M615.69,-496.3C560.19,-487.27 464.56,-471.73 400.32,-461.28"/>
<polygon fill="#63b8ff" stroke="#63b8ff" points="401.03,-457.85 390.6,-459.7 399.9,-464.76 401.03,-457.85"/>
</g>
<!-- Node14 -->
<g id="node14" class="node">
<title>Node14</title>
<g id="a_node14"><a xlink:href="formattedserializestream_8h.html" target="_top" xlink:title=" ">
<polygon fill="white" stroke="#666666" points="1026,-459 850,-459 850,-440 1026,-440 1026,-459"/>
<text text-anchor="middle" x="938" y="-447" font-family="Helvetica,sans-Serif" font-size="10.00">../streams/formattedserializestream.h</text>
</a>
</g>
</g>
<!-- Node4&#45;&gt;Node14 -->
<g id="edge13" class="edge">
<title>Node4&#45;&gt;Node14</title>
<path fill="none" stroke="#63b8ff" d="M704.36,-495.04C751.91,-485.98 827.62,-471.54 879.9,-461.58"/>
<polygon fill="#63b8ff" stroke="#63b8ff" points="880.36,-465.05 889.53,-459.74 879.05,-458.18 880.36,-465.05"/>
</g>
<!-- Node27 -->
<g id="node27" class="node">
<title>Node27</title>
<g id="a_node27"><a xlink:href="functor_8h.html" target="_top" xlink:title=" ">
<polygon fill="white" stroke="#666666" points="513.5,-459 422.5,-459 422.5,-440 513.5,-440 513.5,-459"/>
<text text-anchor="middle" x="468" y="-447" font-family="Helvetica,sans-Serif" font-size="10.00">Generic/functor.h</text>
</a>
</g>
</g>
<!-- Node4&#45;&gt;Node27 -->
<g id="edge28" class="edge">
<title>Node4&#45;&gt;Node27</title>
<path fill="none" stroke="#63b8ff" d="M627.43,-494.51C595.47,-485.69 546.55,-472.18 511.32,-462.46"/>
<polygon fill="#63b8ff" stroke="#63b8ff" points="512.44,-459.14 501.87,-459.85 510.58,-465.88 512.44,-459.14"/>
</g>
<!-- Node7 -->
<g id="node7" class="node">
<title>Node7</title>
<g id="a_node7"><a xlink:href="memberoffsetptr_8h.html" target="_top" xlink:title=" ">
<polygon fill="white" stroke="#666666" points="712.5,-404 617.5,-404 617.5,-385 712.5,-385 712.5,-404"/>
<text text-anchor="middle" x="665" y="-392" font-family="Helvetica,sans-Serif" font-size="10.00">memberoffsetptr.h</text>
</a>
</g>
</g>
<!-- Node6&#45;&gt;Node7 -->
<g id="edge6" class="edge">
<title>Node6&#45;&gt;Node7</title>
<path fill="none" stroke="#63b8ff" d="M718.97,-439.51C709.58,-431.85 695.85,-420.66 684.59,-411.47"/>
<polygon fill="#63b8ff" stroke="#63b8ff" points="687,-408.92 677.04,-405.31 682.57,-414.35 687,-408.92"/>
</g>
<!-- Node8 -->
<g id="node8" class="node">
<title>Node8</title>
<g id="a_node8"><a xlink:href="replace_8h.html" target="_top" xlink:title=" ">
<polygon fill="white" stroke="#666666" points="619,-349 563,-349 563,-330 619,-330 619,-349"/>
<text text-anchor="middle" x="591" y="-337" font-family="Helvetica,sans-Serif" font-size="10.00">replace.h</text>
</a>
</g>
</g>
<!-- Node7&#45;&gt;Node8 -->
<g id="edge7" class="edge">
<title>Node7&#45;&gt;Node8</title>
<path fill="none" stroke="#63b8ff" d="M652.45,-384.51C641.54,-376.7 625.5,-365.21 612.54,-355.93"/>
<polygon fill="#63b8ff" stroke="#63b8ff" points="614.77,-353.22 604.6,-350.24 610.69,-358.91 614.77,-353.22"/>
</g>
<!-- Node9 -->
<g id="node9" class="node">
<title>Node9</title>
<g id="a_node9"><a xlink:href="offsetptr_8h.html" target="_top" xlink:title=" ">
<polygon fill="white" stroke="#666666" points="696.5,-349 637.5,-349 637.5,-330 696.5,-330 696.5,-349"/>
<text text-anchor="middle" x="667" y="-337" font-family="Helvetica,sans-Serif" font-size="10.00">offsetptr.h</text>
</a>
</g>
</g>
<!-- Node7&#45;&gt;Node9 -->
<g id="edge8" class="edge">
<title>Node7&#45;&gt;Node9</title>
<path fill="none" stroke="#63b8ff" d="M665.33,-384.75C665.57,-378.27 665.92,-369.16 666.23,-360.9"/>
<polygon fill="#63b8ff" stroke="#63b8ff" points="669.73,-361.08 666.61,-350.95 662.73,-360.82 669.73,-361.08"/>
</g>
<!-- Node11 -->
<g id="node11" class="node">
<title>Node11</title>
<g id="a_node11"><a xlink:href="container__traits_8h.html" target="_top" xlink:title=" ">
<polygon fill="white" stroke="#666666" points="379.5,-404 288.5,-404 288.5,-385 379.5,-385 379.5,-404"/>
<text text-anchor="middle" x="334" y="-392" font-family="Helvetica,sans-Serif" font-size="10.00">container_traits.h</text>
</a>
</g>
</g>
<!-- Node10&#45;&gt;Node11 -->
<g id="edge10" class="edge">
<title>Node10&#45;&gt;Node11</title>
<path fill="none" stroke="#63b8ff" d="M334,-439.75C334,-433.27 334,-424.16 334,-415.9"/>
<polygon fill="#63b8ff" stroke="#63b8ff" points="337.5,-415.96 334,-405.96 330.5,-415.96 337.5,-415.96"/>
</g>
<!-- Node12 -->
<g id="node12" class="node">
<title>Node12</title>
<g id="a_node12"><a xlink:href="indextype_8h.html" target="_top" xlink:title=" ">
<polygon fill="white" stroke="#666666" points="315,-349 243,-349 243,-330 315,-330 315,-349"/>
<text text-anchor="middle" x="279" y="-337" font-family="Helvetica,sans-Serif" font-size="10.00">../indextype.h</text>
</a>
</g>
</g>
<!-- Node11&#45;&gt;Node12 -->
<g id="edge11" class="edge">
<title>Node11&#45;&gt;Node12</title>
<path fill="none" stroke="#63b8ff" d="M324.92,-384.75C317.16,-377.27 305.79,-366.32 296.3,-357.17"/>
<polygon fill="#63b8ff" stroke="#63b8ff" points="299,-354.91 289.37,-350.49 294.14,-359.95 299,-354.91"/>
</g>
<!-- Node13 -->
<g id="node13" class="node">
<title>Node13</title>
<g id="a_node13"><a xlink:href="underlying__container_8h.html" target="_top" xlink:title=" ">
<polygon fill="white" stroke="#666666" points="446.5,-349 333.5,-349 333.5,-330 446.5,-330 446.5,-349"/>
<text text-anchor="middle" x="390" y="-337" font-family="Helvetica,sans-Serif" font-size="10.00">underlying_container.h</text>
</a>
</g>
</g>
<!-- Node11&#45;&gt;Node13 -->
<g id="edge12" class="edge">
<title>Node11&#45;&gt;Node13</title>
<path fill="none" stroke="#63b8ff" d="M343.5,-384.51C351.43,-377 362.95,-366.1 372.54,-357.03"/>
<polygon fill="#63b8ff" stroke="#63b8ff" points="374.68,-359.81 379.54,-350.4 369.87,-354.73 374.68,-359.81"/>
</g>
<!-- Node15 -->
<g id="node15" class="node">
<title>Node15</title>
<g id="a_node15"><a xlink:href="formatter_8h.html" target="_top" xlink:title=" ">
<polygon fill="white" stroke="#666666" points="793.5,-404 730.5,-404 730.5,-385 793.5,-385 793.5,-404"/>
<text text-anchor="middle" x="762" y="-392" font-family="Helvetica,sans-Serif" font-size="10.00">formatter.h</text>
</a>
</g>
</g>
<!-- Node14&#45;&gt;Node15 -->
<g id="edge14" class="edge">
<title>Node14&#45;&gt;Node15</title>
<path fill="none" stroke="#63b8ff" d="M908.14,-439.51C879.11,-430.76 834.78,-417.42 802.56,-407.71"/>
<polygon fill="#63b8ff" stroke="#63b8ff" points="803.74,-404.41 793.16,-404.88 801.72,-411.12 803.74,-404.41"/>
</g>
<!-- Node26 -->
<g id="node26" class="node">
<title>Node26</title>
<g id="a_node26"><a xlink:href="primitivetypes_8h.html" target="_top" xlink:title=" ">
<polygon fill="white" stroke="#666666" points="1121,-239 1029,-239 1029,-220 1121,-220 1121,-239"/>
<text text-anchor="middle" x="1075" y="-227" font-family="Helvetica,sans-Serif" font-size="10.00">../primitivetypes.h</text>
</a>
</g>
</g>
<!-- Node14&#45;&gt;Node26 -->
<g id="edge27" class="edge">
<title>Node14&#45;&gt;Node26</title>
<path fill="none" stroke="#63b8ff" d="M944.92,-439.82C963,-416.91 1012.55,-352.53 1046,-294 1054.2,-279.66 1061.88,-262.59 1067.28,-249.76"/>
<polygon fill="#63b8ff" stroke="#63b8ff" points="1070.41,-251.36 1070.97,-240.78 1063.94,-248.7 1070.41,-251.36"/>
</g>
<!-- Node16 -->
<g id="node16" class="node">
<title>Node16</title>
<g id="a_node16"><a xlink:href="serializestream_8h.html" target="_top" xlink:title=" ">
<polygon fill="white" stroke="#666666" points="806.5,-349 717.5,-349 717.5,-330 806.5,-330 806.5,-349"/>
<text text-anchor="middle" x="762" y="-337" font-family="Helvetica,sans-Serif" font-size="10.00">serializestream.h</text>
</a>
</g>
</g>
<!-- Node15&#45;&gt;Node16 -->
<g id="edge15" class="edge">
<title>Node15&#45;&gt;Node16</title>
<path fill="none" stroke="#63b8ff" d="M762,-384.75C762,-378.27 762,-369.16 762,-360.9"/>
<polygon fill="#63b8ff" stroke="#63b8ff" points="765.5,-360.96 762,-350.96 758.5,-360.96 765.5,-360.96"/>
</g>
<!-- Node17 -->
<g id="node17" class="node">
<title>Node17</title>
<g id="a_node17"><a xlink:href="stream_8h.html" target="_top" xlink:title=" ">
<polygon fill="white" stroke="#666666" points="807.5,-294 716.5,-294 716.5,-275 807.5,-275 807.5,-294"/>
<text text-anchor="middle" x="762" y="-282" font-family="Helvetica,sans-Serif" font-size="10.00">Generic/stream.h</text>
</a>
</g>
</g>
<!-- Node16&#45;&gt;Node17 -->
<g id="edge16" class="edge">
<title>Node16&#45;&gt;Node17</title>
<path fill="none" stroke="#63b8ff" d="M762,-329.75C762,-323.27 762,-314.16 762,-305.9"/>
<polygon fill="#63b8ff" stroke="#63b8ff" points="765.5,-305.96 762,-295.96 758.5,-305.96 765.5,-305.96"/>
</g>
<!-- Node18 -->
<g id="node18" class="node">
<title>Node18</title>
<g id="a_node18"><a xlink:href="streamresult_8h.html" target="_top" xlink:title=" ">
<polygon fill="white" stroke="#666666" points="733,-239 655,-239 655,-220 733,-220 733,-239"/>
<text text-anchor="middle" x="694" y="-227" font-family="Helvetica,sans-Serif" font-size="10.00">streamresult.h</text>
</a>
</g>
</g>
<!-- Node16&#45;&gt;Node18 -->
<g id="edge17" class="edge">
<title>Node16&#45;&gt;Node18</title>
<path fill="none" stroke="#63b8ff" d="M745.68,-329.56C733.12,-321.81 716.38,-309.43 707,-294 699.03,-280.88 695.86,-263.72 694.64,-250.54"/>
<polygon fill="#63b8ff" stroke="#63b8ff" points="698.15,-250.68 694.07,-240.9 691.17,-251.09 698.15,-250.68"/>
</g>
<!-- Node16&#45;&gt;Node23 -->
<g id="edge22" class="edge">
<title>Node16&#45;&gt;Node23</title>
<path fill="none" stroke="#63b8ff" d="M792.03,-329.51C821.23,-320.76 865.81,-307.42 898.21,-297.71"/>
<polygon fill="#63b8ff" stroke="#63b8ff" points="899.1,-301.1 907.67,-294.88 897.09,-294.4 899.1,-301.1"/>
</g>
<!-- Node19 -->
<g id="node19" class="node">
<title>Node19</title>
<g id="a_node19"><a xlink:href="streamstate_8h.html" target="_top" xlink:title=" ">
<polygon fill="white" stroke="#666666" points="732,-184 656,-184 656,-165 732,-165 732,-184"/>
<text text-anchor="middle" x="694" y="-172" font-family="Helvetica,sans-Serif" font-size="10.00">streamstate.h</text>
</a>
</g>
</g>
<!-- Node18&#45;&gt;Node19 -->
<g id="edge18" class="edge">
<title>Node18&#45;&gt;Node19</title>
<path fill="none" stroke="#63b8ff" d="M694,-219.75C694,-213.27 694,-204.16 694,-195.9"/>
<polygon fill="#63b8ff" stroke="#63b8ff" points="697.5,-195.96 694,-185.96 690.5,-195.96 697.5,-195.96"/>
</g>
<!-- Node20 -->
<g id="node20" class="node">
<title>Node20</title>
<g id="a_node20"><a xlink:href="enum_8h.html" target="_top" xlink:title=" ">
<polygon fill="white" stroke="#666666" points="736.5,-129 651.5,-129 651.5,-110 736.5,-110 736.5,-129"/>
<text text-anchor="middle" x="694" y="-117" font-family="Helvetica,sans-Serif" font-size="10.00">Generic/enum.h</text>
</a>
</g>
</g>
<!-- Node19&#45;&gt;Node20 -->
<g id="edge19" class="edge">
<title>Node19&#45;&gt;Node20</title>
<path fill="none" stroke="#63b8ff" d="M694,-164.75C694,-158.27 694,-149.16 694,-140.9"/>
<polygon fill="#63b8ff" stroke="#63b8ff" points="697.5,-140.96 694,-130.96 690.5,-140.96 697.5,-140.96"/>
</g>
<!-- Node21 -->
<g id="node21" class="node">
<title>Node21</title>
<g id="a_node21"><a xlink:href="array_8h.html" target="_top" xlink:title=" ">
<polygon fill="white" stroke="#666666" points="726,-74 662,-74 662,-55 726,-55 726,-74"/>
<text text-anchor="middle" x="694" y="-62" font-family="Helvetica,sans-Serif" font-size="10.00">bits/array.h</text>
</a>
</g>
</g>
<!-- Node20&#45;&gt;Node21 -->
<g id="edge20" class="edge">
<title>Node20&#45;&gt;Node21</title>
<path fill="none" stroke="#63b8ff" d="M694,-109.75C694,-103.27 694,-94.16 694,-85.9"/>
<polygon fill="#63b8ff" stroke="#63b8ff" points="697.5,-85.96 694,-75.96 690.5,-85.96 697.5,-85.96"/>
</g>
<!-- Node22 -->
<g id="node22" class="node">
<title>Node22</title>
<g id="a_node22"><a xlink:href="types_8h.html" target="_top" xlink:title=" ">
<polygon fill="white" stroke="#666666" points="717.5,-19 670.5,-19 670.5,0 717.5,0 717.5,-19"/>
<text text-anchor="middle" x="694" y="-7" font-family="Helvetica,sans-Serif" font-size="10.00">types.h</text>
</a>
</g>
</g>
<!-- Node21&#45;&gt;Node22 -->
<g id="edge21" class="edge">
<title>Node21&#45;&gt;Node22</title>
<path fill="none" stroke="#63b8ff" d="M694,-54.75C694,-48.27 694,-39.16 694,-30.9"/>
<polygon fill="#63b8ff" stroke="#63b8ff" points="697.5,-30.96 694,-20.96 690.5,-30.96 697.5,-30.96"/>
</g>
<!-- Node23&#45;&gt;Node18 -->
<g id="edge25" class="edge">
<title>Node23&#45;&gt;Node18</title>
<path fill="none" stroke="#63b8ff" d="M897.44,-274.51C855.15,-265.36 789.57,-251.17 744.36,-241.39"/>
<polygon fill="#63b8ff" stroke="#63b8ff" points="745.32,-238.02 734.81,-239.33 743.84,-244.86 745.32,-238.02"/>
</g>
<!-- Node24 -->
<g id="node24" class="node">
<title>Node24</title>
<g id="a_node24"><a xlink:href="callerhierarchy_8h.html" target="_top" xlink:title=" ">
<polygon fill="white" stroke="#666666" points="874.5,-239 751.5,-239 751.5,-220 874.5,-220 874.5,-239"/>
<text text-anchor="middle" x="813" y="-227" font-family="Helvetica,sans-Serif" font-size="10.00">Generic/callerhierarchy.h</text>
</a>
</g>
</g>
<!-- Node23&#45;&gt;Node24 -->
<g id="edge23" class="edge">
<title>Node23&#45;&gt;Node24</title>
<path fill="none" stroke="#63b8ff" d="M917.63,-274.51C897.59,-266.08 867.4,-253.38 844.59,-243.79"/>
<polygon fill="#63b8ff" stroke="#63b8ff" points="846.03,-240.6 835.45,-239.94 843.31,-247.05 846.03,-240.6"/>
</g>
<!-- Node25 -->
<g id="node25" class="node">
<title>Node25</title>
<g id="a_node25"><a xlink:href="serializetable__forward_8h.html" target="_top" xlink:title=" ">
<polygon fill="white" stroke="#666666" points="1011,-239 893,-239 893,-220 1011,-220 1011,-239"/>
<text text-anchor="middle" x="952" y="-227" font-family="Helvetica,sans-Serif" font-size="10.00">serializetable_forward.h</text>
</a>
</g>
</g>
<!-- Node23&#45;&gt;Node25 -->
<g id="edge24" class="edge">
<title>Node23&#45;&gt;Node25</title>
<path fill="none" stroke="#63b8ff" d="M941.15,-274.75C942.76,-268.19 945.02,-258.95 947.07,-250.6"/>
<polygon fill="#63b8ff" stroke="#63b8ff" points="950.46,-251.46 949.45,-240.91 943.66,-249.79 950.46,-251.46"/>
</g>
<!-- Node23&#45;&gt;Node26 -->
<g id="edge26" class="edge">
<title>Node23&#45;&gt;Node26</title>
<path fill="none" stroke="#63b8ff" d="M962.07,-274.51C983.89,-266.01 1016.88,-253.15 1041.58,-243.53"/>
<polygon fill="#63b8ff" stroke="#63b8ff" points="1042.81,-246.8 1050.86,-239.91 1040.27,-240.28 1042.81,-246.8"/>
</g>
<!-- Node29 -->
<g id="node29" class="node">
<title>Node29</title>
<g id="a_node29"><a xlink:href="delayedconstruct_8h.html" target="_top" xlink:title=" ">
<polygon fill="white" stroke="#666666" points="1653,-459 1519,-459 1519,-440 1653,-440 1653,-459"/>
<text text-anchor="middle" x="1586" y="-447" font-family="Helvetica,sans-Serif" font-size="10.00">Generic/delayedconstruct.h</text>
</a>
</g>
</g>
<!-- Node28&#45;&gt;Node29 -->
<g id="edge30" class="edge">
<title>Node28&#45;&gt;Node29</title>
<path fill="none" stroke="#63b8ff" d="M1164.44,-496.25C1167.33,-495.81 1170.21,-495.39 1173,-495 1288.98,-478.91 1423.97,-465.33 1507.21,-457.55"/>
<polygon fill="#63b8ff" stroke="#63b8ff" points="1507.46,-461.04 1517.1,-456.63 1506.81,-454.07 1507.46,-461.04"/>
</g>
<!-- Node30 -->
<g id="node30" class="node">
<title>Node30</title>
<g id="a_node30"><a xlink:href="closure_8h.html" target="_top" xlink:title=" ">
<polygon fill="white" stroke="#666666" points="1686,-404 1630,-404 1630,-385 1686,-385 1686,-404"/>
<text text-anchor="middle" x="1658" y="-392" font-family="Helvetica,sans-Serif" font-size="10.00">closure.h</text>
</a>
</g>
</g>
<!-- Node29&#45;&gt;Node30 -->
<g id="edge31" class="edge">
<title>Node29&#45;&gt;Node30</title>
<path fill="none" stroke="#63b8ff" d="M1598.21,-439.51C1608.83,-431.7 1624.44,-420.21 1637.04,-410.93"/>
<polygon fill="#63b8ff" stroke="#63b8ff" points="1638.77,-414 1644.75,-405.26 1634.62,-408.36 1638.77,-414"/>
</g>
<!-- Node31&#45;&gt;Node3 -->
<g id="edge33" class="edge">
<title>Node31&#45;&gt;Node3</title>
<path fill="none" stroke="#63b8ff" d="M168.61,-494.51C147.43,-486.01 115.41,-473.15 91.44,-463.53"/>
<polygon fill="#63b8ff" stroke="#63b8ff" points="93.05,-460.4 82.47,-459.92 90.44,-466.9 93.05,-460.4"/>
</g>
<!-- Node32 -->
<g id="node32" class="node">
<title>Node32</title>
<g id="a_node32"><a xlink:href="fixed__string_8h.html" target="_top" xlink:title=" ">
<polygon fill="white" stroke="#666666" points="246,-459 136,-459 136,-440 246,-440 246,-459"/>
<text text-anchor="middle" x="191" y="-447" font-family="Helvetica,sans-Serif" font-size="10.00">Generic/fixed_string.h</text>
</a>
</g>
</g>
<!-- Node31&#45;&gt;Node32 -->
<g id="edge34" class="edge">
<title>Node31&#45;&gt;Node32</title>
<path fill="none" stroke="#63b8ff" d="M191,-494.75C191,-488.27 191,-479.16 191,-470.9"/>
<polygon fill="#63b8ff" stroke="#63b8ff" points="194.5,-470.96 191,-460.96 187.5,-470.96 194.5,-470.96"/>
</g>
<!-- Node33&#45;&gt;Node14 -->
<g id="edge37" class="edge">
<title>Node33&#45;&gt;Node14</title>
<path fill="none" stroke="#63b8ff" d="M938.83,-494.75C938.71,-488.27 938.54,-479.16 938.38,-470.9"/>
<polygon fill="#63b8ff" stroke="#63b8ff" points="941.89,-470.89 938.2,-460.96 934.89,-471.02 941.89,-470.89"/>
</g>
<!-- Node34 -->
<g id="node34" class="node">
<title>Node34</title>
<g id="a_node34"><a xlink:href="pendingrequest_8h.html" target="_top" xlink:title=" ">
<polygon fill="white" stroke="#666666" points="1391,-459 1301,-459 1301,-440 1391,-440 1391,-459"/>
<text text-anchor="middle" x="1346" y="-447" font-family="Helvetica,sans-Serif" font-size="10.00">pendingrequest.h</text>
</a>
</g>
</g>
<!-- Node33&#45;&gt;Node34 -->
<g id="edge38" class="edge">
<title>Node33&#45;&gt;Node34</title>
<path fill="none" stroke="#63b8ff" d="M1008.04,-494.51C1087.26,-484.19 1215.7,-467.47 1289.31,-457.88"/>
<polygon fill="#63b8ff" stroke="#63b8ff" points="1289.68,-461.36 1299.14,-456.6 1288.77,-454.42 1289.68,-461.36"/>
</g>
<!-- Node35 -->
<g id="node35" class="node">
<title>Node35</title>
<g id="a_node35"><a xlink:href="src_2_generic_2execution_2sender_8h.html" target="_top" xlink:title=" ">
<polygon fill="white" stroke="#666666" points="1620,-349 1486,-349 1486,-330 1620,-330 1620,-349"/>
<text text-anchor="middle" x="1553" y="-337" font-family="Helvetica,sans-Serif" font-size="10.00">Generic/execution/sender.h</text>
</a>
</g>
</g>
<!-- Node34&#45;&gt;Node35 -->
<g id="edge39" class="edge">
<title>Node34&#45;&gt;Node35</title>
<path fill="none" stroke="#63b8ff" d="M1391.45,-446.64C1453.33,-443.05 1559.14,-432.76 1583,-404 1594.62,-389.99 1582.49,-370.72 1570.35,-357.1"/>
<polygon fill="#63b8ff" stroke="#63b8ff" points="1573.13,-354.94 1563.67,-350.16 1568.08,-359.79 1573.13,-354.94"/>
</g>
<!-- Node37 -->
<g id="node37" class="node">
<title>Node37</title>
<g id="a_node37"><a xlink:href="virtualsender_8h.html" target="_top" xlink:title=" ">
<polygon fill="white" stroke="#666666" points="1573.5,-404 1412.5,-404 1412.5,-385 1573.5,-385 1573.5,-404"/>
<text text-anchor="middle" x="1493" y="-392" font-family="Helvetica,sans-Serif" font-size="10.00">Generic/execution/virtualsender.h</text>
</a>
</g>
</g>
<!-- Node34&#45;&gt;Node37 -->
<g id="edge41" class="edge">
<title>Node34&#45;&gt;Node37</title>
<path fill="none" stroke="#63b8ff" d="M1370.94,-439.51C1394.84,-430.89 1431.14,-417.8 1457.95,-408.14"/>
<polygon fill="#63b8ff" stroke="#63b8ff" points="1458.79,-411.56 1467.01,-404.87 1456.41,-404.97 1458.79,-411.56"/>
</g>
<!-- Node38 -->
<g id="node38" class="node">
<title>Node38</title>
<g id="a_node38"><a xlink:href="virtualstate_8h.html" target="_top" xlink:title=" ">
<polygon fill="white" stroke="#666666" points="1468,-349 1396,-349 1396,-330 1468,-330 1468,-349"/>
<text text-anchor="middle" x="1432" y="-337" font-family="Helvetica,sans-Serif" font-size="10.00">virtualstate.h</text>
</a>
</g>
</g>
<!-- Node34&#45;&gt;Node38 -->
<g id="edge47" class="edge">
<title>Node34&#45;&gt;Node38</title>
<path fill="none" stroke="#63b8ff" d="M1353.04,-439.66C1367.15,-421.94 1399.14,-381.77 1417.78,-358.35"/>
<polygon fill="#63b8ff" stroke="#63b8ff" points="1420.43,-360.65 1423.92,-350.64 1414.95,-356.29 1420.43,-360.65"/>
</g>
<!-- Node41 -->
<g id="node41" class="node">
<title>Node41</title>
<g id="a_node41"><a xlink:href="forward__capture_8h.html" target="_top" xlink:title=" ">
<polygon fill="white" stroke="#666666" points="1239.5,-404 1108.5,-404 1108.5,-385 1239.5,-385 1239.5,-404"/>
<text text-anchor="middle" x="1174" y="-392" font-family="Helvetica,sans-Serif" font-size="10.00">Generic/forward_capture.h</text>
</a>
</g>
</g>
<!-- Node34&#45;&gt;Node41 -->
<g id="edge48" class="edge">
<title>Node34&#45;&gt;Node41</title>
<path fill="none" stroke="#63b8ff" d="M1316.82,-439.51C1288.44,-430.76 1245.12,-417.42 1213.63,-407.71"/>
<polygon fill="#63b8ff" stroke="#63b8ff" points="1215.07,-404.49 1204.48,-404.89 1213.01,-411.18 1215.07,-404.49"/>
</g>
<!-- Node42 -->
<g id="node42" class="node">
<title>Node42</title>
<g id="a_node42"><a xlink:href="nulledptr_8h.html" target="_top" xlink:title=" ">
<polygon fill="white" stroke="#666666" points="1356,-404 1258,-404 1258,-385 1356,-385 1356,-404"/>
<text text-anchor="middle" x="1307" y="-392" font-family="Helvetica,sans-Serif" font-size="10.00">Generic/nulledptr.h</text>
</a>
</g>
</g>
<!-- Node34&#45;&gt;Node42 -->
<g id="edge49" class="edge">
<title>Node34&#45;&gt;Node42</title>
<path fill="none" stroke="#63b8ff" d="M1339.56,-439.75C1334.34,-432.66 1326.81,-422.42 1320.31,-413.59"/>
<polygon fill="#63b8ff" stroke="#63b8ff" points="1323.22,-411.64 1314.48,-405.66 1317.58,-415.79 1323.22,-411.64"/>
</g>
<!-- Node36 -->
<g id="node36" class="node">
<title>Node36</title>
<g id="a_node36"><a xlink:href="execution_2concepts_8h.html" target="_top" xlink:title=" ">
<polygon fill="white" stroke="#666666" points="1580,-294 1516,-294 1516,-275 1580,-275 1580,-294"/>
<text text-anchor="middle" x="1548" y="-282" font-family="Helvetica,sans-Serif" font-size="10.00">concepts.h</text>
</a>
</g>
</g>
<!-- Node35&#45;&gt;Node36 -->
<g id="edge40" class="edge">
<title>Node35&#45;&gt;Node36</title>
<path fill="none" stroke="#63b8ff" d="M1552.17,-329.75C1551.56,-323.27 1550.7,-314.16 1549.92,-305.9"/>
<polygon fill="#63b8ff" stroke="#63b8ff" points="1553.41,-305.58 1548.99,-295.95 1546.44,-306.23 1553.41,-305.58"/>
</g>
<!-- Node37&#45;&gt;Node35 -->
<g id="edge42" class="edge">
<title>Node37&#45;&gt;Node35</title>
<path fill="none" stroke="#63b8ff" d="M1503.18,-384.51C1511.76,-376.93 1524.27,-365.88 1534.6,-356.75"/>
<polygon fill="#63b8ff" stroke="#63b8ff" points="1536.66,-359.6 1541.84,-350.36 1532.03,-354.36 1536.66,-359.6"/>
</g>
<!-- Node37&#45;&gt;Node38 -->
<g id="edge43" class="edge">
<title>Node37&#45;&gt;Node38</title>
<path fill="none" stroke="#63b8ff" d="M1482.65,-384.51C1473.92,-376.93 1461.21,-365.88 1450.7,-356.75"/>
<polygon fill="#63b8ff" stroke="#63b8ff" points="1453.18,-354.27 1443.34,-350.35 1448.59,-359.55 1453.18,-354.27"/>
</g>
<!-- Node38&#45;&gt;Node36 -->
<g id="edge44" class="edge">
<title>Node38&#45;&gt;Node36</title>
<path fill="none" stroke="#63b8ff" d="M1451.68,-329.51C1469.95,-321.16 1497.41,-308.61 1518.35,-299.05"/>
<polygon fill="#63b8ff" stroke="#63b8ff" points="1519.6,-302.33 1527.24,-294.99 1516.69,-295.96 1519.6,-302.33"/>
</g>
<!-- Node39 -->
<g id="node39" class="node">
<title>Node39</title>
<g id="a_node39"><a xlink:href="virtual__invoke_8h.html" target="_top" xlink:title=" ">
<polygon fill="white" stroke="#666666" points="1492.5,-294 1371.5,-294 1371.5,-275 1492.5,-275 1492.5,-294"/>
<text text-anchor="middle" x="1432" y="-282" font-family="Helvetica,sans-Serif" font-size="10.00">Generic/virtual_invoke.h</text>
</a>
</g>
</g>
<!-- Node38&#45;&gt;Node39 -->
<g id="edge45" class="edge">
<title>Node38&#45;&gt;Node39</title>
<path fill="none" stroke="#63b8ff" d="M1432,-329.75C1432,-323.27 1432,-314.16 1432,-305.9"/>
<polygon fill="#63b8ff" stroke="#63b8ff" points="1435.5,-305.96 1432,-295.96 1428.5,-305.96 1435.5,-305.96"/>
</g>
<!-- Node40 -->
<g id="node40" class="node">
<title>Node40</title>
<g id="a_node40"><a xlink:href="callable__traits_8h.html" target="_top" xlink:title=" ">
<polygon fill="white" stroke="#666666" points="1474,-239 1390,-239 1390,-220 1474,-220 1474,-239"/>
<text text-anchor="middle" x="1432" y="-227" font-family="Helvetica,sans-Serif" font-size="10.00">callable_traits.h</text>
</a>
</g>
</g>
<!-- Node39&#45;&gt;Node40 -->
<g id="edge46" class="edge">
<title>Node39&#45;&gt;Node40</title>
<path fill="none" stroke="#63b8ff" d="M1432,-274.75C1432,-268.27 1432,-259.16 1432,-250.9"/>
<polygon fill="#63b8ff" stroke="#63b8ff" points="1435.5,-250.96 1432,-240.96 1428.5,-250.96 1435.5,-250.96"/>
</g>
<!-- Node47&#45;&gt;Node18 -->
<g id="edge56" class="edge">
<title>Node47&#45;&gt;Node18</title>
<path fill="none" stroke="#63b8ff" d="M886.01,-329.59C872.06,-316.19 843.9,-290.73 816,-275 791.59,-261.23 762.12,-250.34 738.25,-242.78"/>
<polygon fill="#63b8ff" stroke="#63b8ff" points="739.42,-239.48 728.83,-239.89 737.36,-246.17 739.42,-239.48"/>
</g>
<!-- Node47&#45;&gt;Node23 -->
<g id="edge55" class="edge">
<title>Node47&#45;&gt;Node23</title>
<path fill="none" stroke="#63b8ff" d="M902.27,-329.75C908.28,-322.5 917.01,-311.98 924.46,-303.02"/>
<polygon fill="#63b8ff" stroke="#63b8ff" points="926.92,-305.54 930.61,-295.61 921.53,-301.07 926.92,-305.54"/>
</g>
<!-- Node47&#45;&gt;Node26 -->
<g id="edge57" class="edge">
<title>Node47&#45;&gt;Node26</title>
<path fill="none" stroke="#63b8ff" d="M920.46,-333.95C947.73,-328.14 991.37,-316.09 1023,-294 1040.13,-282.04 1054.7,-262.95 1064.02,-248.82"/>
<polygon fill="#63b8ff" stroke="#63b8ff" points="1066.91,-250.79 1069.27,-240.46 1060.98,-247.06 1066.91,-250.79"/>
</g>
</g>
</svg>
