<?xml version="1.0" encoding="UTF-8" standalone="no"?>
<!DOCTYPE svg PUBLIC "-//W3C//DTD SVG 1.1//EN"
 "http://www.w3.org/Graphics/SVG/1.1/DTD/svg11.dtd">
<!-- Generated by graphviz version 7.0.5 (20221223.1930)
 -->
<!-- Title: plugins/misc/widgets/src/Madgine/widgets/util/layouts/uniformlayoutrenderdata.h Pages: 1 -->
<svg width="194pt" height="104pt"
 viewBox="0.00 0.00 193.50 104.00" xmlns="http://www.w3.org/2000/svg" xmlns:xlink="http://www.w3.org/1999/xlink">
<g id="graph0" class="graph" transform="scale(1 1) rotate(0) translate(4 100)">
<title>plugins/misc/widgets/src/Madgine/widgets/util/layouts/uniformlayoutrenderdata.h</title>
<!-- Node1 -->
<g id="node1" class="node">
<title>Node1</title>
<g id="a_node1"><a xlink:title=" ">
<polygon fill="#999999" stroke="#666666" points="180,-96 0,-96 0,-55 180,-55 180,-96"/>
<text text-anchor="start" x="8" y="-84" font-family="Helvetica,sans-Serif" font-size="10.00">plugins/misc/widgets</text>
<text text-anchor="start" x="8" y="-73" font-family="Helvetica,sans-Serif" font-size="10.00">/src/Madgine/widgets</text>
<text text-anchor="middle" x="90" y="-62" font-family="Helvetica,sans-Serif" font-size="10.00">/util/layouts/uniformlayoutrenderdata.h</text>
</a>
</g>
</g>
<!-- Node2 -->
<g id="node2" class="node">
<title>Node2</title>
<g id="a_node2"><a xlink:href="misc_2widgets_2src_2_madgine_2widgets_2util_2renderdata_8h.html" target="_top" xlink:title=" ">
<polygon fill="white" stroke="#666666" points="78.5,-19 1.5,-19 1.5,0 78.5,0 78.5,-19"/>
<text text-anchor="middle" x="40" y="-7" font-family="Helvetica,sans-Serif" font-size="10.00">../renderdata.h</text>
</a>
</g>
</g>
<!-- Node1&#45;&gt;Node2 -->
<g id="edge1" class="edge">
<title>Node1&#45;&gt;Node2</title>
<path fill="none" stroke="#63b8ff" d="M74.45,-54.6C67.85,-46.15 60.22,-36.38 53.81,-28.18"/>
<polygon fill="#63b8ff" stroke="#63b8ff" points="56.61,-26.08 47.7,-20.36 51.1,-30.39 56.61,-26.08"/>
</g>
<!-- Node3 -->
<g id="node3" class="node">
<title>Node3</title>
<g id="a_node3"><a xlink:href="sizeconstraints_8h.html" target="_top" xlink:title=" ">
<polygon fill="white" stroke="#666666" points="185.5,-19 96.5,-19 96.5,0 185.5,0 185.5,-19"/>
<text text-anchor="middle" x="141" y="-7" font-family="Helvetica,sans-Serif" font-size="10.00">sizeconstraints.h</text>
</a>
</g>
</g>
<!-- Node1&#45;&gt;Node3 -->
<g id="edge2" class="edge">
<title>Node1&#45;&gt;Node3</title>
<path fill="none" stroke="#63b8ff" d="M105.86,-54.6C112.67,-46.06 120.55,-36.16 127.13,-27.91"/>
<polygon fill="#63b8ff" stroke="#63b8ff" points="129.66,-30.35 133.15,-20.35 124.18,-25.99 129.66,-30.35"/>
</g>
</g>
</svg>
