<?xml version="1.0" encoding="UTF-8" standalone="no"?>
<!DOCTYPE svg PUBLIC "-//W3C//DTD SVG 1.1//EN"
 "http://www.w3.org/Graphics/SVG/1.1/DTD/svg11.dtd">
<!-- Generated by graphviz version 7.0.5 (20221223.1930)
 -->
<!-- Title: src/Modules/uniquecomponent/uniquecomponentregistry.cpp Pages: 1 -->
<svg width="467pt" height="203pt"
 viewBox="0.00 0.00 466.50 203.00" xmlns="http://www.w3.org/2000/svg" xmlns:xlink="http://www.w3.org/1999/xlink">
<g id="graph0" class="graph" transform="scale(1 1) rotate(0) translate(4 199)">
<title>src/Modules/uniquecomponent/uniquecomponentregistry.cpp</title>
<!-- Node1 -->
<g id="node1" class="node">
<title>Node1</title>
<g id="a_node1"><a xlink:title=" ">
<polygon fill="#999999" stroke="#666666" points="318,-195 169,-195 169,-165 318,-165 318,-195"/>
<text text-anchor="start" x="177" y="-183" font-family="Helvetica,sans-Serif" font-size="10.00">src/Modules/uniquecomponent</text>
<text text-anchor="middle" x="243.5" y="-172" font-family="Helvetica,sans-Serif" font-size="10.00">/uniquecomponentregistry.cpp</text>
</a>
</g>
</g>
<!-- Node2 -->
<g id="node2" class="node">
<title>Node2</title>
<g id="a_node2"><a xlink:href="moduleslib_8h.html" target="_top" xlink:title=" ">
<polygon fill="white" stroke="#666666" points="221.5,-129 143.5,-129 143.5,-110 221.5,-110 221.5,-129"/>
<text text-anchor="middle" x="182.5" y="-117" font-family="Helvetica,sans-Serif" font-size="10.00">../moduleslib.h</text>
</a>
</g>
</g>
<!-- Node1&#45;&gt;Node2 -->
<g id="edge1" class="edge">
<title>Node1&#45;&gt;Node2</title>
<path fill="none" stroke="#63b8ff" d="M228.42,-164.54C219.74,-156.22 208.8,-145.72 199.78,-137.07"/>
<polygon fill="#63b8ff" stroke="#63b8ff" points="202.28,-134.62 192.64,-130.22 197.43,-139.67 202.28,-134.62"/>
</g>
<!-- Node5 -->
<g id="node5" class="node">
<title>Node5</title>
<g id="a_node5"><a xlink:href="uniquecomponentregistry_8h.html" target="_top" xlink:title=" ">
<polygon fill="white" stroke="#666666" points="371.5,-129 239.5,-129 239.5,-110 371.5,-110 371.5,-129"/>
<text text-anchor="middle" x="305.5" y="-117" font-family="Helvetica,sans-Serif" font-size="10.00">uniquecomponentregistry.h</text>
</a>
</g>
</g>
<!-- Node1&#45;&gt;Node5 -->
<g id="edge4" class="edge">
<title>Node1&#45;&gt;Node5</title>
<path fill="none" stroke="#63b8ff" d="M258.83,-164.54C267.65,-156.22 278.77,-145.72 287.94,-137.07"/>
<polygon fill="#63b8ff" stroke="#63b8ff" points="290.33,-139.62 295.2,-130.21 285.53,-134.53 290.33,-139.62"/>
</g>
<!-- Node3 -->
<g id="node3" class="node">
<title>Node3</title>
<g id="a_node3"><a xlink:href="interfaceslib_8h.html" target="_top" xlink:title=" ">
<polygon fill="white" stroke="#666666" points="123,-74 0,-74 0,-55 123,-55 123,-74"/>
<text text-anchor="middle" x="61.5" y="-62" font-family="Helvetica,sans-Serif" font-size="10.00">Interfaces/interfaceslib.h</text>
</a>
</g>
</g>
<!-- Node2&#45;&gt;Node3 -->
<g id="edge2" class="edge">
<title>Node2&#45;&gt;Node3</title>
<path fill="none" stroke="#63b8ff" d="M161.97,-109.51C142.82,-101.12 114,-88.5 92.13,-78.92"/>
<polygon fill="#63b8ff" stroke="#63b8ff" points="93.67,-75.77 83.11,-74.97 90.86,-82.18 93.67,-75.77"/>
</g>
<!-- Node4 -->
<g id="node4" class="node">
<title>Node4</title>
<g id="a_node4"><a xlink:title=" ">
<polygon fill="#e0e0e0" stroke="#999999" points="227.5,-74 141.5,-74 141.5,-55 227.5,-55 227.5,-74"/>
<text text-anchor="middle" x="184.5" y="-62" font-family="Helvetica,sans-Serif" font-size="10.00">modulesconfig.h</text>
</a>
</g>
</g>
<!-- Node2&#45;&gt;Node4 -->
<g id="edge3" class="edge">
<title>Node2&#45;&gt;Node4</title>
<path fill="none" stroke="#63b8ff" d="M182.83,-109.75C183.07,-103.27 183.42,-94.16 183.73,-85.9"/>
<polygon fill="#63b8ff" stroke="#63b8ff" points="187.23,-86.08 184.11,-75.95 180.23,-85.82 187.23,-86.08"/>
</g>
<!-- Node6 -->
<g id="node6" class="node">
<title>Node6</title>
<g id="a_node6"><a xlink:href="binaryinfo_8h.html" target="_top" xlink:title=" ">
<polygon fill="white" stroke="#666666" points="357,-74 250,-74 250,-55 357,-55 357,-74"/>
<text text-anchor="middle" x="303.5" y="-62" font-family="Helvetica,sans-Serif" font-size="10.00">../plugins/binaryinfo.h</text>
</a>
</g>
</g>
<!-- Node5&#45;&gt;Node6 -->
<g id="edge5" class="edge">
<title>Node5&#45;&gt;Node6</title>
<path fill="none" stroke="#63b8ff" d="M305.17,-109.75C304.93,-103.27 304.58,-94.16 304.27,-85.9"/>
<polygon fill="#63b8ff" stroke="#63b8ff" points="307.77,-85.82 303.89,-75.95 300.77,-86.08 307.77,-85.82"/>
</g>
<!-- Node8 -->
<g id="node8" class="node">
<title>Node8</title>
<g id="a_node8"><a xlink:href="_modules_2uniquecomponent_2annotations_8h.html" target="_top" xlink:title=" ">
<polygon fill="white" stroke="#666666" points="449.5,-74 375.5,-74 375.5,-55 449.5,-55 449.5,-74"/>
<text text-anchor="middle" x="412.5" y="-62" font-family="Helvetica,sans-Serif" font-size="10.00">annotations.h</text>
</a>
</g>
</g>
<!-- Node5&#45;&gt;Node8 -->
<g id="edge7" class="edge">
<title>Node5&#45;&gt;Node8</title>
<path fill="none" stroke="#63b8ff" d="M323.65,-109.51C340.28,-101.27 365.14,-88.96 384.35,-79.45"/>
<polygon fill="#63b8ff" stroke="#63b8ff" points="385.85,-82.6 393.26,-75.03 382.75,-76.33 385.85,-82.6"/>
</g>
<!-- Node7 -->
<g id="node7" class="node">
<title>Node7</title>
<g id="a_node7"><a xlink:href="pluginlocal_8h.html" target="_top" xlink:title=" ">
<polygon fill="white" stroke="#666666" points="338.5,-19 268.5,-19 268.5,0 338.5,0 338.5,-19"/>
<text text-anchor="middle" x="303.5" y="-7" font-family="Helvetica,sans-Serif" font-size="10.00">pluginlocal.h</text>
</a>
</g>
</g>
<!-- Node6&#45;&gt;Node7 -->
<g id="edge6" class="edge">
<title>Node6&#45;&gt;Node7</title>
<path fill="none" stroke="#63b8ff" d="M303.5,-54.75C303.5,-48.27 303.5,-39.16 303.5,-30.9"/>
<polygon fill="#63b8ff" stroke="#63b8ff" points="307,-30.96 303.5,-20.96 300,-30.96 307,-30.96"/>
</g>
<!-- Node9 -->
<g id="node9" class="node">
<title>Node9</title>
<g id="a_node9"><a xlink:href="replace_8h.html" target="_top" xlink:title=" ">
<polygon fill="white" stroke="#666666" points="458.5,-19 366.5,-19 366.5,0 458.5,0 458.5,-19"/>
<text text-anchor="middle" x="412.5" y="-7" font-family="Helvetica,sans-Serif" font-size="10.00">Generic/replace.h</text>
</a>
</g>
</g>
<!-- Node8&#45;&gt;Node9 -->
<g id="edge8" class="edge">
<title>Node8&#45;&gt;Node9</title>
<path fill="none" stroke="#63b8ff" d="M412.5,-54.75C412.5,-48.27 412.5,-39.16 412.5,-30.9"/>
<polygon fill="#63b8ff" stroke="#63b8ff" points="416,-30.96 412.5,-20.96 409,-30.96 416,-30.96"/>
</g>
</g>
</svg>
