<?xml version="1.0" encoding="UTF-8" standalone="no"?>
<!DOCTYPE svg PUBLIC "-//W3C//DTD SVG 1.1//EN"
 "http://www.w3.org/Graphics/SVG/1.1/DTD/svg11.dtd">
<!-- Generated by graphviz version 7.0.5 (20221223.1930)
 -->
<!-- Title: src/Modules/uniquecomponent/uniquecomponentregistry.h Pages: 1 -->
<svg width="217pt" height="148pt"
 viewBox="0.00 0.00 216.50 148.00" xmlns="http://www.w3.org/2000/svg" xmlns:xlink="http://www.w3.org/1999/xlink">
<g id="graph0" class="graph" transform="scale(1 1) rotate(0) translate(4 144)">
<title>src/Modules/uniquecomponent/uniquecomponentregistry.h</title>
<!-- Node1 -->
<g id="node1" class="node">
<title>Node1</title>
<g id="a_node1"><a xlink:title=" ">
<polygon fill="#999999" stroke="#666666" points="182,-140 33,-140 33,-110 182,-110 182,-140"/>
<text text-anchor="start" x="41" y="-128" font-family="Helvetica,sans-Serif" font-size="10.00">src/Modules/uniquecomponent</text>
<text text-anchor="middle" x="107.5" y="-117" font-family="Helvetica,sans-Serif" font-size="10.00">/uniquecomponentregistry.h</text>
</a>
</g>
</g>
<!-- Node2 -->
<g id="node2" class="node">
<title>Node2</title>
<g id="a_node2"><a xlink:href="binaryinfo_8h.html" target="_top" xlink:title=" ">
<polygon fill="white" stroke="#666666" points="107,-74 0,-74 0,-55 107,-55 107,-74"/>
<text text-anchor="middle" x="53.5" y="-62" font-family="Helvetica,sans-Serif" font-size="10.00">../plugins/binaryinfo.h</text>
</a>
</g>
</g>
<!-- Node1&#45;&gt;Node2 -->
<g id="edge1" class="edge">
<title>Node1&#45;&gt;Node2</title>
<path fill="none" stroke="#63b8ff" d="M94.15,-109.54C86.63,-101.39 77.19,-91.16 69.3,-82.61"/>
<polygon fill="#63b8ff" stroke="#63b8ff" points="71.89,-80.26 62.53,-75.29 66.75,-85.01 71.89,-80.26"/>
</g>
<!-- Node4 -->
<g id="node4" class="node">
<title>Node4</title>
<g id="a_node4"><a xlink:href="_modules_2uniquecomponent_2annotations_8h.html" target="_top" xlink:title=" ">
<polygon fill="white" stroke="#666666" points="199.5,-74 125.5,-74 125.5,-55 199.5,-55 199.5,-74"/>
<text text-anchor="middle" x="162.5" y="-62" font-family="Helvetica,sans-Serif" font-size="10.00">annotations.h</text>
</a>
</g>
</g>
<!-- Node1&#45;&gt;Node4 -->
<g id="edge3" class="edge">
<title>Node1&#45;&gt;Node4</title>
<path fill="none" stroke="#63b8ff" d="M121.1,-109.54C128.84,-101.3 138.58,-90.94 146.67,-82.34"/>
<polygon fill="#63b8ff" stroke="#63b8ff" points="149.01,-84.96 153.31,-75.28 143.91,-80.17 149.01,-84.96"/>
</g>
<!-- Node3 -->
<g id="node3" class="node">
<title>Node3</title>
<g id="a_node3"><a xlink:href="pluginlocal_8h.html" target="_top" xlink:title=" ">
<polygon fill="white" stroke="#666666" points="88.5,-19 18.5,-19 18.5,0 88.5,0 88.5,-19"/>
<text text-anchor="middle" x="53.5" y="-7" font-family="Helvetica,sans-Serif" font-size="10.00">pluginlocal.h</text>
</a>
</g>
</g>
<!-- Node2&#45;&gt;Node3 -->
<g id="edge2" class="edge">
<title>Node2&#45;&gt;Node3</title>
<path fill="none" stroke="#63b8ff" d="M53.5,-54.75C53.5,-48.27 53.5,-39.16 53.5,-30.9"/>
<polygon fill="#63b8ff" stroke="#63b8ff" points="57,-30.96 53.5,-20.96 50,-30.96 57,-30.96"/>
</g>
<!-- Node5 -->
<g id="node5" class="node">
<title>Node5</title>
<g id="a_node5"><a xlink:href="replace_8h.html" target="_top" xlink:title=" ">
<polygon fill="white" stroke="#666666" points="208.5,-19 116.5,-19 116.5,0 208.5,0 208.5,-19"/>
<text text-anchor="middle" x="162.5" y="-7" font-family="Helvetica,sans-Serif" font-size="10.00">Generic/replace.h</text>
</a>
</g>
</g>
<!-- Node4&#45;&gt;Node5 -->
<g id="edge4" class="edge">
<title>Node4&#45;&gt;Node5</title>
<path fill="none" stroke="#63b8ff" d="M162.5,-54.75C162.5,-48.27 162.5,-39.16 162.5,-30.9"/>
<polygon fill="#63b8ff" stroke="#63b8ff" points="166,-30.96 162.5,-20.96 159,-30.96 166,-30.96"/>
</g>
</g>
</svg>
