<?xml version="1.0" encoding="UTF-8" standalone="no"?>
<!DOCTYPE svg PUBLIC "-//W3C//DTD SVG 1.1//EN"
 "http://www.w3.org/Graphics/SVG/1.1/DTD/svg11.dtd">
<!-- Generated by graphviz version 7.0.5 (20221223.1930)
 -->
<!-- Title: src/Meta/math/upto.h Pages: 1 -->
<svg width="656pt" height="159pt"
 viewBox="0.00 0.00 655.50 159.00" xmlns="http://www.w3.org/2000/svg" xmlns:xlink="http://www.w3.org/1999/xlink">
<g id="graph0" class="graph" transform="scale(1 1) rotate(0) translate(4 155)">
<title>src/Meta/math/upto.h</title>
<!-- Node1 -->
<g id="node1" class="node">
<title>Node1</title>
<g id="a_node1"><a xlink:title=" ">
<polygon fill="#999999" stroke="#666666" points="366,-151 257,-151 257,-132 366,-132 366,-151"/>
<text text-anchor="middle" x="311.5" y="-139" font-family="Helvetica,sans-Serif" font-size="10.00">src/Meta/math/upto.h</text>
</a>
</g>
</g>
<!-- Node2 -->
<g id="node2" class="node">
<title>Node2</title>
<g id="a_node2"><a xlink:href="geometry2_8h.html" target="_top" xlink:title=" ">
<polygon fill="white" stroke="#666666" points="292,-96 157,-96 157,-77 292,-77 292,-96"/>
<text text-anchor="middle" x="224.5" y="-84" font-family="Helvetica,sans-Serif" font-size="10.00">src/Meta/math/geometry2.h</text>
</a>
</g>
</g>
<!-- Node1&#45;&gt;Node2 -->
<g id="edge1" class="edge">
<title>Node1&#45;&gt;Node2</title>
<path fill="none" stroke="#63b8ff" d="M287.26,-125.73C271.76,-116.29 252.17,-104.36 239.04,-96.36"/>
<polygon fill="#63b8ff" stroke="#63b8ff" points="285.09,-128.51 295.45,-130.72 288.73,-122.53 285.09,-128.51"/>
</g>
<!-- Node5 -->
<g id="node5" class="node">
<title>Node5</title>
<g id="a_node5"><a xlink:href="geometry3_8h.html" target="_top" xlink:title=" ">
<polygon fill="white" stroke="#666666" points="467,-96 332,-96 332,-77 467,-77 467,-96"/>
<text text-anchor="middle" x="399.5" y="-84" font-family="Helvetica,sans-Serif" font-size="10.00">src/Meta/math/geometry3.h</text>
</a>
</g>
</g>
<!-- Node1&#45;&gt;Node5 -->
<g id="edge4" class="edge">
<title>Node1&#45;&gt;Node5</title>
<path fill="none" stroke="#63b8ff" d="M336.02,-125.73C351.7,-116.29 371.51,-104.36 384.79,-96.36"/>
<polygon fill="#63b8ff" stroke="#63b8ff" points="334.49,-122.57 327.72,-130.73 338.1,-128.57 334.49,-122.57"/>
</g>
<!-- Node3 -->
<g id="node3" class="node">
<title>Node3</title>
<g id="a_node3"><a xlink:href="widgetsrenderdata_8cpp.html" target="_top" xlink:title=" ">
<polygon fill="white" stroke="#666666" points="133,-41 0,-41 0,0 133,0 133,-41"/>
<text text-anchor="start" x="8" y="-29" font-family="Helvetica,sans-Serif" font-size="10.00">plugins/misc/widgets</text>
<text text-anchor="start" x="8" y="-18" font-family="Helvetica,sans-Serif" font-size="10.00">/src/Madgine/widgets</text>
<text text-anchor="middle" x="66.5" y="-7" font-family="Helvetica,sans-Serif" font-size="10.00">/util/widgetsrenderdata.cpp</text>
</a>
</g>
</g>
<!-- Node2&#45;&gt;Node3 -->
<g id="edge2" class="edge">
<title>Node2&#45;&gt;Node3</title>
<path fill="none" stroke="#63b8ff" d="M192.06,-72.36C170.03,-63.43 140.47,-51.46 115.57,-41.38"/>
<polygon fill="#63b8ff" stroke="#63b8ff" points="190.55,-75.52 201.13,-76.03 193.17,-69.03 190.55,-75.52"/>
</g>
<!-- Node4 -->
<g id="node4" class="node">
<title>Node4</title>
<g id="a_node4"><a xlink:href="geometry2_8cpp.html" target="_top" xlink:title=" ">
<polygon fill="white" stroke="#666666" points="297.5,-30 151.5,-30 151.5,-11 297.5,-11 297.5,-30"/>
<text text-anchor="middle" x="224.5" y="-18" font-family="Helvetica,sans-Serif" font-size="10.00">src/Meta/math/geometry2.cpp</text>
</a>
</g>
</g>
<!-- Node2&#45;&gt;Node4 -->
<g id="edge3" class="edge">
<title>Node2&#45;&gt;Node4</title>
<path fill="none" stroke="#63b8ff" d="M224.5,-65.18C224.5,-53.44 224.5,-39.27 224.5,-30.32"/>
<polygon fill="#63b8ff" stroke="#63b8ff" points="221,-65.09 224.5,-75.09 228,-65.09 221,-65.09"/>
</g>
<!-- Node6 -->
<g id="node6" class="node">
<title>Node6</title>
<g id="a_node6"><a xlink:href="sceneview_8cpp.html" target="_top" xlink:title=" ">
<polygon fill="white" stroke="#666666" points="483,-41 316,-41 316,0 483,0 483,-41"/>
<text text-anchor="start" x="324" y="-29" font-family="Helvetica,sans-Serif" font-size="10.00">plugins/misc/scene</text>
<text text-anchor="start" x="324" y="-18" font-family="Helvetica,sans-Serif" font-size="10.00">/renderer_tools/Madgine</text>
<text text-anchor="middle" x="399.5" y="-7" font-family="Helvetica,sans-Serif" font-size="10.00">_Tools/sceneeditor/sceneview.cpp</text>
</a>
</g>
</g>
<!-- Node5&#45;&gt;Node6 -->
<g id="edge5" class="edge">
<title>Node5&#45;&gt;Node6</title>
<path fill="none" stroke="#63b8ff" d="M399.5,-65.14C399.5,-57.54 399.5,-48.93 399.5,-41.38"/>
<polygon fill="#63b8ff" stroke="#63b8ff" points="396,-65.09 399.5,-75.09 403,-65.09 396,-65.09"/>
</g>
<!-- Node7 -->
<g id="node7" class="node">
<title>Node7</title>
<g id="a_node7"><a xlink:href="geometry3_8cpp.html" target="_top" xlink:title=" ">
<polygon fill="white" stroke="#666666" points="647.5,-30 501.5,-30 501.5,-11 647.5,-11 647.5,-30"/>
<text text-anchor="middle" x="574.5" y="-18" font-family="Helvetica,sans-Serif" font-size="10.00">src/Meta/math/geometry3.cpp</text>
</a>
</g>
</g>
<!-- Node5&#45;&gt;Node7 -->
<g id="edge6" class="edge">
<title>Node5&#45;&gt;Node7</title>
<path fill="none" stroke="#63b8ff" d="M434.3,-72.77C468.55,-60.25 519.97,-41.44 550.09,-30.43"/>
<polygon fill="#63b8ff" stroke="#63b8ff" points="433.44,-69.36 425.25,-76.08 435.85,-75.93 433.44,-69.36"/>
</g>
</g>
</svg>
