<?xml version="1.0" encoding="UTF-8" standalone="no"?>
<!DOCTYPE svg PUBLIC "-//W3C//DTD SVG 1.1//EN"
 "http://www.w3.org/Graphics/SVG/1.1/DTD/svg11.dtd">
<!-- Generated by graphviz version 7.0.5 (20221223.1930)
 -->
<!-- Title: src/Meta/keyvalueutil/valuetypeserialize.h Pages: 1 -->
<svg width="1148pt" height="115pt"
 viewBox="0.00 0.00 1148.00 115.00" xmlns="http://www.w3.org/2000/svg" xmlns:xlink="http://www.w3.org/1999/xlink">
<g id="graph0" class="graph" transform="scale(1 1) rotate(0) translate(4 111)">
<title>src/Meta/keyvalueutil/valuetypeserialize.h</title>
<!-- Node1 -->
<g id="node1" class="node">
<title>Node1</title>
<g id="a_node1"><a xlink:title=" ">
<polygon fill="#999999" stroke="#666666" points="651.5,-107 542.5,-107 542.5,-77 651.5,-77 651.5,-107"/>
<text text-anchor="start" x="550.5" y="-95" font-family="Helvetica,sans-Serif" font-size="10.00">src/Meta/keyvalueutil</text>
<text text-anchor="middle" x="597" y="-84" font-family="Helvetica,sans-Serif" font-size="10.00">/valuetypeserialize.h</text>
</a>
</g>
</g>
<!-- Node2 -->
<g id="node2" class="node">
<title>Node2</title>
<g id="a_node2"><a xlink:href="bindings_8cpp.html" target="_top" xlink:title=" ">
<polygon fill="white" stroke="#666666" points="130,-35.5 0,-35.5 0,-5.5 130,-5.5 130,-35.5"/>
<text text-anchor="start" x="8" y="-23.5" font-family="Helvetica,sans-Serif" font-size="10.00">plugins/behavior/api</text>
<text text-anchor="middle" x="65" y="-12.5" font-family="Helvetica,sans-Serif" font-size="10.00">/src/Madgine/bindings.cpp</text>
</a>
</g>
</g>
<!-- Node1&#45;&gt;Node2 -->
<g id="edge1" class="edge">
<title>Node1&#45;&gt;Node2</title>
<path fill="none" stroke="#63b8ff" d="M531.01,-86.89C441.6,-80.63 277.26,-66.62 139,-41 131.42,-39.6 123.48,-37.83 115.73,-35.93"/>
<polygon fill="#63b8ff" stroke="#63b8ff" points="530.6,-90.37 540.82,-87.57 531.08,-83.39 530.6,-90.37"/>
</g>
<!-- Node3 -->
<g id="node3" class="node">
<title>Node3</title>
<g id="a_node3"><a xlink:href="nodegraph_8cpp.html" target="_top" xlink:title=" ">
<polygon fill="white" stroke="#666666" points="335.5,-35.5 148.5,-35.5 148.5,-5.5 335.5,-5.5 335.5,-35.5"/>
<text text-anchor="start" x="156.5" y="-23.5" font-family="Helvetica,sans-Serif" font-size="10.00">plugins/behavior/nodegraph</text>
<text text-anchor="middle" x="242" y="-12.5" font-family="Helvetica,sans-Serif" font-size="10.00">/src/Madgine/nodegraph/nodegraph.cpp</text>
</a>
</g>
</g>
<!-- Node1&#45;&gt;Node3 -->
<g id="edge2" class="edge">
<title>Node1&#45;&gt;Node3</title>
<path fill="none" stroke="#63b8ff" d="M531.27,-78.13C470.22,-66.18 379.43,-48.41 315.89,-35.97"/>
<polygon fill="#63b8ff" stroke="#63b8ff" points="530.34,-81.52 540.82,-80 531.68,-74.65 530.34,-81.52"/>
</g>
<!-- Node4 -->
<g id="node4" class="node">
<title>Node4</title>
<g id="a_node4"><a xlink:href="accessornode_8cpp.html" target="_top" xlink:title=" ">
<polygon fill="white" stroke="#666666" points="504,-41 354,-41 354,0 504,0 504,-41"/>
<text text-anchor="start" x="362" y="-29" font-family="Helvetica,sans-Serif" font-size="10.00">plugins/behavior/nodegraph</text>
<text text-anchor="start" x="362" y="-18" font-family="Helvetica,sans-Serif" font-size="10.00">/src/Madgine/nodegraph/nodes</text>
<text text-anchor="middle" x="429" y="-7" font-family="Helvetica,sans-Serif" font-size="10.00">/accessornode.cpp</text>
</a>
</g>
</g>
<!-- Node1&#45;&gt;Node4 -->
<g id="edge3" class="edge">
<title>Node1&#45;&gt;Node4</title>
<path fill="none" stroke="#63b8ff" d="M551.65,-72.24C528.6,-62.7 500.58,-51.11 477.14,-41.42"/>
<polygon fill="#63b8ff" stroke="#63b8ff" points="550.21,-75.43 560.79,-76.02 552.89,-68.96 550.21,-75.43"/>
</g>
<!-- Node5 -->
<g id="node5" class="node">
<title>Node5</title>
<g id="a_node5"><a xlink:href="functionnode_8cpp.html" target="_top" xlink:title=" ">
<polygon fill="white" stroke="#666666" points="672,-41 522,-41 522,0 672,0 672,-41"/>
<text text-anchor="start" x="530" y="-29" font-family="Helvetica,sans-Serif" font-size="10.00">plugins/behavior/nodegraph</text>
<text text-anchor="start" x="530" y="-18" font-family="Helvetica,sans-Serif" font-size="10.00">/src/Madgine/nodegraph/nodes</text>
<text text-anchor="middle" x="597" y="-7" font-family="Helvetica,sans-Serif" font-size="10.00">/functionnode.cpp</text>
</a>
</g>
</g>
<!-- Node1&#45;&gt;Node5 -->
<g id="edge4" class="edge">
<title>Node1&#45;&gt;Node5</title>
<path fill="none" stroke="#63b8ff" d="M597,-65.36C597,-57.45 597,-48.87 597,-41.42"/>
<polygon fill="#63b8ff" stroke="#63b8ff" points="593.5,-65.09 597,-75.09 600.5,-65.09 593.5,-65.09"/>
</g>
<!-- Node6 -->
<g id="node6" class="node">
<title>Node6</title>
<g id="a_node6"><a xlink:href="librarynode_8cpp.html" target="_top" xlink:title=" ">
<polygon fill="white" stroke="#666666" points="840,-41 690,-41 690,0 840,0 840,-41"/>
<text text-anchor="start" x="698" y="-29" font-family="Helvetica,sans-Serif" font-size="10.00">plugins/behavior/nodegraph</text>
<text text-anchor="start" x="698" y="-18" font-family="Helvetica,sans-Serif" font-size="10.00">/src/Madgine/nodegraph/nodes</text>
<text text-anchor="middle" x="765" y="-7" font-family="Helvetica,sans-Serif" font-size="10.00">/util/librarynode.cpp</text>
</a>
</g>
</g>
<!-- Node1&#45;&gt;Node6 -->
<g id="edge5" class="edge">
<title>Node1&#45;&gt;Node6</title>
<path fill="none" stroke="#63b8ff" d="M642.35,-72.24C665.4,-62.7 693.42,-51.11 716.86,-41.42"/>
<polygon fill="#63b8ff" stroke="#63b8ff" points="641.11,-68.96 633.21,-76.02 643.79,-75.43 641.11,-68.96"/>
</g>
<!-- Node7 -->
<g id="node7" class="node">
<title>Node7</title>
<g id="a_node7"><a xlink:href="sendernode_8cpp.html" target="_top" xlink:title=" ">
<polygon fill="white" stroke="#666666" points="1008,-41 858,-41 858,0 1008,0 1008,-41"/>
<text text-anchor="start" x="866" y="-29" font-family="Helvetica,sans-Serif" font-size="10.00">plugins/behavior/nodegraph</text>
<text text-anchor="start" x="866" y="-18" font-family="Helvetica,sans-Serif" font-size="10.00">/src/Madgine/nodegraph/nodes</text>
<text text-anchor="middle" x="933" y="-7" font-family="Helvetica,sans-Serif" font-size="10.00">/util/sendernode.cpp</text>
</a>
</g>
</g>
<!-- Node1&#45;&gt;Node7 -->
<g id="edge6" class="edge">
<title>Node1&#45;&gt;Node7</title>
<path fill="none" stroke="#63b8ff" d="M662.84,-78.54C713.76,-68.76 785.96,-54.57 849,-41 851.93,-40.37 854.91,-39.72 857.92,-39.06"/>
<polygon fill="#63b8ff" stroke="#63b8ff" points="662.32,-75.07 653.16,-80.39 663.64,-81.95 662.32,-75.07"/>
</g>
<!-- Node8 -->
<g id="node8" class="node">
<title>Node8</title>
<g id="a_node8"><a xlink:href="valuetypeserialize_8cpp.html" target="_top" xlink:title=" ">
<polygon fill="white" stroke="#666666" points="1140,-35.5 1026,-35.5 1026,-5.5 1140,-5.5 1140,-35.5"/>
<text text-anchor="start" x="1034" y="-23.5" font-family="Helvetica,sans-Serif" font-size="10.00">src/Meta/keyvalueutil</text>
<text text-anchor="middle" x="1083" y="-12.5" font-family="Helvetica,sans-Serif" font-size="10.00">/valuetypeserialize.cpp</text>
</a>
</g>
</g>
<!-- Node1&#45;&gt;Node8 -->
<g id="edge7" class="edge">
<title>Node1&#45;&gt;Node8</title>
<path fill="none" stroke="#63b8ff" d="M663.15,-86.59C746.37,-80.26 893.35,-66.44 1017,-41 1023.79,-39.6 1030.89,-37.84 1037.81,-35.94"/>
<polygon fill="#63b8ff" stroke="#63b8ff" points="663.06,-83.09 653.35,-87.33 663.58,-90.07 663.06,-83.09"/>
</g>
</g>
</svg>
