<?xml version="1.0" encoding="UTF-8" standalone="no"?>
<!DOCTYPE svg PUBLIC "-//W3C//DTD SVG 1.1//EN"
 "http://www.w3.org/Graphics/SVG/1.1/DTD/svg11.dtd">
<!-- Generated by graphviz version 7.0.5 (20221223.1930)
 -->
<!-- Title: src/Meta/keyvalue/valuetype_forward.h Pages: 1 -->
<!--zoomable 533 -->
<svg id="main" version="1.1" xmlns="http://www.w3.org/2000/svg" xmlns:xlink="http://www.w3.org/1999/xlink" xml:space="preserve" onload="init(evt)">
<style type="text/css"><![CDATA[
.edge:hover path { stroke: red; }
.edge:hover polygon { stroke: red; fill: red; }
]]></style>
<script type="text/javascript"><![CDATA[
var edges = document.getElementsByTagName('g');
if (edges && edges.length) {
  for (var i=0;i<edges.length;i++) {
    if (edges[i].id.substr(0,4)=='edge') {
      edges[i].setAttribute('class','edge');
    }
  }
}
]]></script>
        <defs>
                <circle id="rim" cx="0" cy="0" r="7"/>
                <circle id="rim2" cx="0" cy="0" r="3.5"/>
                <g id="zoomPlus">
                        <use xlink:href="#rim" fill="#404040">
                                <set attributeName="fill" to="#808080" begin="zoomplus.mouseover" end="zoomplus.mouseout"/>
                        </use>
                        <path d="M-4,0h8M0,-4v8" fill="none" stroke="white" stroke-width="1.5" pointer-events="none"/>
                </g>
                <g id="zoomMin">
                        <use xlink:href="#rim" fill="#404040">
                                <set attributeName="fill" to="#808080" begin="zoomminus.mouseover" end="zoomminus.mouseout"/>
                        </use>
                        <path d="M-4,0h8" fill="none" stroke="white" stroke-width="1.5" pointer-events="none"/>
                </g>
                <g id="dirArrow">
                        <path fill="none" stroke="white" stroke-width="1.5" d="M0,-3.0v7 M-2.5,-0.5L0,-3.0L2.5,-0.5"/>
                </g>
               <g id="resetDef">
                       <use xlink:href="#rim2" fill="#404040">
                               <set attributeName="fill" to="#808080" begin="reset.mouseover" end="reset.mouseout"/>
                       </use>
               </g>
        </defs>

<script type="text/javascript">
var viewWidth = 1125;
var viewHeight = 533;
var sectionId = 'dynsection-0';
</script>
<script xlink:href="svgpan.js"/>
<svg id="graph" class="graph">
<g id="viewport">
<title>src/Meta/keyvalue/valuetype_forward.h</title>
<!-- Node1 -->
<g id="node1" class="node">
<title>Node1</title>
<g id="a_node1"><a xlink:title=" ">
<polygon fill="#999999" stroke="#666666" points="545.5,-525 405.5,-525 405.5,-495 545.5,-495 545.5,-525"/>
<text text-anchor="start" x="413.5" y="-513" font-family="Helvetica,sans-Serif" font-size="10.00">src/Meta/keyvalue/valuetype</text>
<text text-anchor="middle" x="475.5" y="-502" font-family="Helvetica,sans-Serif" font-size="10.00">_forward.h</text>
</a>
</g>
</g>
<!-- Node2 -->
<g id="node2" class="node">
<title>Node2</title>
<g id="a_node2"><a xlink:href="ownedscopeptr_8h.html" target="_top" xlink:title=" ">
<polygon fill="white" stroke="#666666" points="340.5,-459 250.5,-459 250.5,-440 340.5,-440 340.5,-459"/>
<text text-anchor="middle" x="295.5" y="-447" font-family="Helvetica,sans-Serif" font-size="10.00">ownedscopeptr.h</text>
</a>
</g>
</g>
<!-- Node1&#45;&gt;Node2 -->
<g id="edge1" class="edge">
<title>Node1&#45;&gt;Node2</title>
<path fill="none" stroke="#63b8ff" d="M431.01,-494.54C401.14,-484.83 362.19,-472.17 333.72,-462.92"/>
<polygon fill="#63b8ff" stroke="#63b8ff" points="335.02,-459.66 324.42,-459.9 332.85,-466.32 335.02,-459.66"/>
</g>
<!-- Node11 -->
<g id="node11" class="node">
<title>Node11</title>
<g id="a_node11"><a xlink:href="valuetype__desc_8h.html" target="_top" xlink:title=" ">
<polygon fill="white" stroke="#666666" points="307.5,-294 215.5,-294 215.5,-275 307.5,-275 307.5,-294"/>
<text text-anchor="middle" x="261.5" y="-282" font-family="Helvetica,sans-Serif" font-size="10.00">valuetype_desc.h</text>
</a>
</g>
</g>
<!-- Node1&#45;&gt;Node11 -->
<g id="edge38" class="edge">
<title>Node1&#45;&gt;Node11</title>
<path fill="none" stroke="#63b8ff" d="M449.68,-494.69C434.46,-485.58 415.36,-472.9 400.5,-459 347.72,-409.63 347.69,-385.58 301.5,-330 293.78,-320.71 284.82,-310.68 277.35,-302.5"/>
<polygon fill="#63b8ff" stroke="#63b8ff" points="280.05,-300.28 270.7,-295.3 274.91,-305.02 280.05,-300.28"/>
</g>
<!-- Node15 -->
<g id="node15" class="node">
<title>Node15</title>
<g id="a_node15"><a xlink:href="keyvalue_8h.html" target="_top" xlink:title=" ">
<polygon fill="white" stroke="#666666" points="389,-239 290,-239 290,-220 389,-220 389,-239"/>
<text text-anchor="middle" x="339.5" y="-227" font-family="Helvetica,sans-Serif" font-size="10.00">Generic/keyvalue.h</text>
</a>
</g>
</g>
<!-- Node1&#45;&gt;Node15 -->
<g id="edge37" class="edge">
<title>Node1&#45;&gt;Node15</title>
<path fill="none" stroke="#63b8ff" d="M461.66,-494.56C443.66,-474.2 414.5,-435.1 414.5,-395.5 414.5,-395.5 414.5,-395.5 414.5,-338.5 414.5,-300.35 382.54,-265.98 360.34,-246.72"/>
<polygon fill="#63b8ff" stroke="#63b8ff" points="362.64,-244.08 352.71,-240.39 358.17,-249.47 362.64,-244.08"/>
</g>
<!-- Node17 -->
<g id="node17" class="node">
<title>Node17</title>
<g id="a_node17"><a xlink:href="execution_2concepts_8h.html" target="_top" xlink:title=" ">
<polygon fill="white" stroke="#666666" points="552,-239 407,-239 407,-220 552,-220 552,-239"/>
<text text-anchor="middle" x="479.5" y="-227" font-family="Helvetica,sans-Serif" font-size="10.00">Generic/execution/concepts.h</text>
</a>
</g>
</g>
<!-- Node1&#45;&gt;Node17 -->
<g id="edge42" class="edge">
<title>Node1&#45;&gt;Node17</title>
<path fill="none" stroke="#63b8ff" d="M471.56,-494.79C466,-473.43 456.5,-431.66 456.5,-395.5 456.5,-395.5 456.5,-395.5 456.5,-338.5 456.5,-307.09 465.92,-271.65 472.7,-250.2"/>
<polygon fill="#63b8ff" stroke="#63b8ff" points="476.01,-251.36 475.83,-240.76 469.36,-249.16 476.01,-251.36"/>
</g>
<!-- Node18 -->
<g id="node18" class="node">
<title>Node18</title>
<g id="a_node18"><a xlink:href="keyvaluesender_8h.html" target="_top" xlink:title=" ">
<polygon fill="white" stroke="#666666" points="645.5,-349 553.5,-349 553.5,-330 645.5,-330 645.5,-349"/>
<text text-anchor="middle" x="599.5" y="-337" font-family="Helvetica,sans-Serif" font-size="10.00">keyvaluesender.h</text>
</a>
</g>
</g>
<!-- Node1&#45;&gt;Node18 -->
<g id="edge20" class="edge">
<title>Node1&#45;&gt;Node18</title>
<path fill="none" stroke="#63b8ff" d="M476.34,-494.68C478.52,-469.69 486.24,-417.68 513.5,-385 525.34,-370.81 542.87,-360.6 559.01,-353.57"/>
<polygon fill="#63b8ff" stroke="#63b8ff" points="559.99,-356.95 567.95,-349.97 557.37,-350.46 559.99,-356.95"/>
</g>
<!-- Node24 -->
<g id="node24" class="node">
<title>Node24</title>
<g id="a_node24"><a xlink:href="virtualrange_8h.html" target="_top" xlink:title=" ">
<polygon fill="white" stroke="#666666" points="702.5,-459 548.5,-459 548.5,-440 702.5,-440 702.5,-459"/>
<text text-anchor="middle" x="625.5" y="-447" font-family="Helvetica,sans-Serif" font-size="10.00">Generic/container/virtualrange.h</text>
</a>
</g>
</g>
<!-- Node1&#45;&gt;Node24 -->
<g id="edge29" class="edge">
<title>Node1&#45;&gt;Node24</title>
<path fill="none" stroke="#63b8ff" d="M512.58,-494.54C536.99,-485.02 568.69,-472.66 592.28,-463.46"/>
<polygon fill="#63b8ff" stroke="#63b8ff" points="593.36,-466.79 601.41,-459.9 590.82,-460.27 593.36,-466.79"/>
</g>
<!-- Node32 -->
<g id="node32" class="node">
<title>Node32</title>
<g id="a_node32"><a xlink:href="enumholder_8h.html" target="_top" xlink:title=" ">
<polygon fill="white" stroke="#666666" points="802.5,-459 720.5,-459 720.5,-440 802.5,-440 802.5,-459"/>
<text text-anchor="middle" x="761.5" y="-447" font-family="Helvetica,sans-Serif" font-size="10.00">../enumholder.h</text>
</a>
</g>
</g>
<!-- Node1&#45;&gt;Node32 -->
<g id="edge39" class="edge">
<title>Node1&#45;&gt;Node32</title>
<path fill="none" stroke="#63b8ff" d="M545.83,-494.61C596.3,-484.29 663.21,-470.6 709.05,-461.23"/>
<polygon fill="#63b8ff" stroke="#63b8ff" points="709.64,-464.68 718.74,-459.25 708.24,-457.82 709.64,-464.68"/>
</g>
<!-- Node33 -->
<g id="node33" class="node">
<title>Node33</title>
<g id="a_node33"><a xlink:href="flagsholder_8h.html" target="_top" xlink:title=" ">
<polygon fill="white" stroke="#666666" points="803.5,-129 725.5,-129 725.5,-110 803.5,-110 803.5,-129"/>
<text text-anchor="middle" x="764.5" y="-117" font-family="Helvetica,sans-Serif" font-size="10.00">../flagsholder.h</text>
</a>
</g>
</g>
<!-- Node1&#45;&gt;Node33 -->
<g id="edge40" class="edge">
<title>Node1&#45;&gt;Node33</title>
<path fill="none" stroke="#63b8ff" d="M545.93,-503.84C712.45,-490.71 1116.5,-452.93 1116.5,-395.5 1116.5,-395.5 1116.5,-395.5 1116.5,-228.5 1116.5,-166.23 912.62,-136.19 815.19,-125.39"/>
<polygon fill="#63b8ff" stroke="#63b8ff" points="815.68,-121.92 805.36,-124.33 814.93,-128.88 815.68,-121.92"/>
</g>
<!-- Node3 -->
<g id="node3" class="node">
<title>Node3</title>
<g id="a_node3"><a xlink:href="proxyscopebase_8h.html" target="_top" xlink:title=" ">
<polygon fill="white" stroke="#666666" points="327.5,-404 233.5,-404 233.5,-385 327.5,-385 327.5,-404"/>
<text text-anchor="middle" x="280.5" y="-392" font-family="Helvetica,sans-Serif" font-size="10.00">proxyscopebase.h</text>
</a>
</g>
</g>
<!-- Node2&#45;&gt;Node3 -->
<g id="edge2" class="edge">
<title>Node2&#45;&gt;Node3</title>
<path fill="none" stroke="#63b8ff" d="M293.02,-439.75C291.15,-433.11 288.49,-423.73 286.11,-415.31"/>
<polygon fill="#63b8ff" stroke="#63b8ff" points="289.53,-414.57 283.44,-405.9 282.8,-416.47 289.53,-414.57"/>
</g>
<!-- Node4 -->
<g id="node4" class="node">
<title>Node4</title>
<g id="a_node4"><a xlink:href="scopeptr_8h.html" target="_top" xlink:title=" ">
<polygon fill="white" stroke="#666666" points="292.5,-349 230.5,-349 230.5,-330 292.5,-330 292.5,-349"/>
<text text-anchor="middle" x="261.5" y="-337" font-family="Helvetica,sans-Serif" font-size="10.00">scopeptr.h</text>
</a>
</g>
</g>
<!-- Node3&#45;&gt;Node4 -->
<g id="edge3" class="edge">
<title>Node3&#45;&gt;Node4</title>
<path fill="none" stroke="#63b8ff" d="M277.36,-384.75C274.96,-378.04 271.54,-368.52 268.5,-360.02"/>
<polygon fill="#63b8ff" stroke="#63b8ff" points="271.89,-359.1 265.22,-350.87 265.3,-361.46 271.89,-359.1"/>
</g>
<!-- Node5 -->
<g id="node5" class="node">
<title>Node5</title>
<g id="a_node5"><a xlink:href="metatable_8h.html" target="_top" xlink:title=" ">
<polygon fill="white" stroke="#666666" points="136,-294 69,-294 69,-275 136,-275 136,-294"/>
<text text-anchor="middle" x="102.5" y="-282" font-family="Helvetica,sans-Serif" font-size="10.00">metatable.h</text>
</a>
</g>
</g>
<!-- Node4&#45;&gt;Node5 -->
<g id="edge4" class="edge">
<title>Node4&#45;&gt;Node5</title>
<path fill="none" stroke="#63b8ff" d="M234.53,-329.51C208.52,-320.84 168.95,-307.65 139.9,-297.97"/>
<polygon fill="#63b8ff" stroke="#63b8ff" points="141.37,-294.77 130.77,-294.92 139.15,-301.41 141.37,-294.77"/>
</g>
<!-- Node4&#45;&gt;Node11 -->
<g id="edge10" class="edge">
<title>Node4&#45;&gt;Node11</title>
<path fill="none" stroke="#63b8ff" d="M261.5,-329.75C261.5,-323.27 261.5,-314.16 261.5,-305.9"/>
<polygon fill="#63b8ff" stroke="#63b8ff" points="265,-305.96 261.5,-295.96 258,-305.96 265,-305.96"/>
</g>
<!-- Node6 -->
<g id="node6" class="node">
<title>Node6</title>
<g id="a_node6"><a xlink:href="table__forward_8h.html" target="_top" xlink:title=" ">
<polygon fill="white" stroke="#666666" points="83,-239 0,-239 0,-220 83,-220 83,-239"/>
<text text-anchor="middle" x="41.5" y="-227" font-family="Helvetica,sans-Serif" font-size="10.00">table_forward.h</text>
</a>
</g>
</g>
<!-- Node5&#45;&gt;Node6 -->
<g id="edge5" class="edge">
<title>Node5&#45;&gt;Node6</title>
<path fill="none" stroke="#63b8ff" d="M92.15,-274.51C83.42,-266.93 70.71,-255.88 60.2,-246.75"/>
<polygon fill="#63b8ff" stroke="#63b8ff" points="62.68,-244.27 52.84,-240.35 58.09,-249.55 62.68,-244.27"/>
</g>
<!-- Node7 -->
<g id="node7" class="node">
<title>Node7</title>
<g id="a_node7"><a xlink:href="genericresult_8h.html" target="_top" xlink:title=" ">
<polygon fill="white" stroke="#666666" points="405.5,-184 289.5,-184 289.5,-165 405.5,-165 405.5,-184"/>
<text text-anchor="middle" x="347.5" y="-172" font-family="Helvetica,sans-Serif" font-size="10.00">Generic/genericresult.h</text>
</a>
</g>
</g>
<!-- Node6&#45;&gt;Node7 -->
<g id="edge6" class="edge">
<title>Node6&#45;&gt;Node7</title>
<path fill="none" stroke="#63b8ff" d="M83.41,-221.24C135.3,-212.25 224.2,-196.86 284.37,-186.43"/>
<polygon fill="#63b8ff" stroke="#63b8ff" points="284.88,-189.9 294.14,-184.74 283.69,-183 284.88,-189.9"/>
</g>
<!-- Node8 -->
<g id="node8" class="node">
<title>Node8</title>
<g id="a_node8"><a xlink:href="enum_8h.html" target="_top" xlink:title=" ">
<polygon fill="white" stroke="#666666" points="371.5,-129 323.5,-129 323.5,-110 371.5,-110 371.5,-129"/>
<text text-anchor="middle" x="347.5" y="-117" font-family="Helvetica,sans-Serif" font-size="10.00">enum.h</text>
</a>
</g>
</g>
<!-- Node7&#45;&gt;Node8 -->
<g id="edge7" class="edge">
<title>Node7&#45;&gt;Node8</title>
<path fill="none" stroke="#63b8ff" d="M347.5,-164.75C347.5,-158.27 347.5,-149.16 347.5,-140.9"/>
<polygon fill="#63b8ff" stroke="#63b8ff" points="351,-140.96 347.5,-130.96 344,-140.96 351,-140.96"/>
</g>
<!-- Node9 -->
<g id="node9" class="node">
<title>Node9</title>
<g id="a_node9"><a xlink:href="array_8h.html" target="_top" xlink:title=" ">
<polygon fill="white" stroke="#666666" points="379.5,-74 315.5,-74 315.5,-55 379.5,-55 379.5,-74"/>
<text text-anchor="middle" x="347.5" y="-62" font-family="Helvetica,sans-Serif" font-size="10.00">bits/array.h</text>
</a>
</g>
</g>
<!-- Node8&#45;&gt;Node9 -->
<g id="edge8" class="edge">
<title>Node8&#45;&gt;Node9</title>
<path fill="none" stroke="#63b8ff" d="M347.5,-109.75C347.5,-103.27 347.5,-94.16 347.5,-85.9"/>
<polygon fill="#63b8ff" stroke="#63b8ff" points="351,-85.96 347.5,-75.96 344,-85.96 351,-85.96"/>
</g>
<!-- Node10 -->
<g id="node10" class="node">
<title>Node10</title>
<g id="a_node10"><a xlink:href="types_8h.html" target="_top" xlink:title=" ">
<polygon fill="white" stroke="#666666" points="371,-19 324,-19 324,0 371,0 371,-19"/>
<text text-anchor="middle" x="347.5" y="-7" font-family="Helvetica,sans-Serif" font-size="10.00">types.h</text>
</a>
</g>
</g>
<!-- Node9&#45;&gt;Node10 -->
<g id="edge9" class="edge">
<title>Node9&#45;&gt;Node10</title>
<path fill="none" stroke="#63b8ff" d="M347.5,-54.75C347.5,-48.27 347.5,-39.16 347.5,-30.9"/>
<polygon fill="#63b8ff" stroke="#63b8ff" points="351,-30.96 347.5,-20.96 344,-30.96 351,-30.96"/>
</g>
<!-- Node11&#45;&gt;Node6 -->
<g id="edge17" class="edge">
<title>Node11&#45;&gt;Node6</title>
<path fill="none" stroke="#63b8ff" d="M224.18,-274.51C187.09,-265.57 130.04,-251.83 89.58,-242.08"/>
<polygon fill="#63b8ff" stroke="#63b8ff" points="90.65,-238.74 80.11,-239.8 89.01,-245.55 90.65,-238.74"/>
</g>
<!-- Node11&#45;&gt;Node9 -->
<g id="edge14" class="edge">
<title>Node11&#45;&gt;Node9</title>
<path fill="none" stroke="#63b8ff" d="M261.74,-274.58C262.54,-254.41 265.96,-204.05 280.5,-165 290.52,-138.07 298.37,-133.79 314.5,-110 320.57,-101.04 327.68,-91.37 333.74,-83.33"/>
<polygon fill="#63b8ff" stroke="#63b8ff" points="336.5,-85.48 339.78,-75.41 330.94,-81.24 336.5,-85.48"/>
</g>
<!-- Node12 -->
<g id="node12" class="node">
<title>Node12</title>
<g id="a_node12"><a xlink:href="valuetype__types_8h.html" target="_top" xlink:title=" ">
<polygon fill="white" stroke="#666666" points="195.5,-239 101.5,-239 101.5,-220 195.5,-220 195.5,-239"/>
<text text-anchor="middle" x="148.5" y="-227" font-family="Helvetica,sans-Serif" font-size="10.00">valuetype_types.h</text>
</a>
</g>
</g>
<!-- Node11&#45;&gt;Node12 -->
<g id="edge11" class="edge">
<title>Node11&#45;&gt;Node12</title>
<path fill="none" stroke="#63b8ff" d="M242.33,-274.51C224.61,-266.2 198.02,-253.73 177.67,-244.18"/>
<polygon fill="#63b8ff" stroke="#63b8ff" points="179.3,-241.08 168.76,-240 176.32,-247.42 179.3,-241.08"/>
</g>
<!-- Node13 -->
<g id="node13" class="node">
<title>Node13</title>
<g id="a_node13"><a xlink:href="valuetypedefinclude_8h.html" target="_top" xlink:title=" ">
<polygon fill="white" stroke="#666666" points="218,-184 109,-184 109,-165 218,-165 218,-184"/>
<text text-anchor="middle" x="163.5" y="-172" font-family="Helvetica,sans-Serif" font-size="10.00">valuetypedefinclude.h</text>
</a>
</g>
</g>
<!-- Node11&#45;&gt;Node13 -->
<g id="edge19" class="edge">
<title>Node11&#45;&gt;Node13</title>
<path fill="none" stroke="#63b8ff" d="M253.79,-274.84C242.87,-262.59 222.24,-239.51 204.5,-220 196.28,-210.97 187.07,-200.96 179.47,-192.73"/>
<polygon fill="#63b8ff" stroke="#63b8ff" points="182.09,-190.41 172.73,-185.45 176.95,-195.16 182.09,-190.41"/>
</g>
<!-- Node11&#45;&gt;Node15 -->
<g id="edge15" class="edge">
<title>Node11&#45;&gt;Node15</title>
<path fill="none" stroke="#63b8ff" d="M274.73,-274.51C286.34,-266.62 303.47,-254.98 317.2,-245.65"/>
<polygon fill="#63b8ff" stroke="#63b8ff" points="318.91,-248.72 325.21,-240.21 314.97,-242.93 318.91,-248.72"/>
</g>
<!-- Node11&#45;&gt;Node17 -->
<g id="edge18" class="edge">
<title>Node11&#45;&gt;Node17</title>
<path fill="none" stroke="#63b8ff" d="M298.48,-274.51C335.16,-265.59 391.52,-251.89 431.6,-242.15"/>
<polygon fill="#63b8ff" stroke="#63b8ff" points="432.34,-245.57 441.23,-239.8 430.69,-238.77 432.34,-245.57"/>
</g>
<!-- Node12&#45;&gt;Node13 -->
<g id="edge12" class="edge">
<title>Node12&#45;&gt;Node13</title>
<path fill="none" stroke="#63b8ff" d="M150.98,-219.75C152.85,-213.11 155.51,-203.73 157.89,-195.31"/>
<polygon fill="#63b8ff" stroke="#63b8ff" points="161.2,-196.47 160.56,-185.9 154.47,-194.57 161.2,-196.47"/>
</g>
<!-- Node14 -->
<g id="node14" class="node">
<title>Node14</title>
<g id="a_node14"><a xlink:href="valuetypedef_8h.html" target="_top" xlink:title=" ">
<polygon fill="white" stroke="#666666" points="203,-129 124,-129 124,-110 203,-110 203,-129"/>
<text text-anchor="middle" x="163.5" y="-117" font-family="Helvetica,sans-Serif" font-size="10.00">valuetypedef.h</text>
</a>
</g>
</g>
<!-- Node13&#45;&gt;Node14 -->
<g id="edge13" class="edge">
<title>Node13&#45;&gt;Node14</title>
<path fill="none" stroke="#63b8ff" d="M163.5,-164.75C163.5,-158.27 163.5,-149.16 163.5,-140.9"/>
<polygon fill="#63b8ff" stroke="#63b8ff" points="167,-140.96 163.5,-130.96 160,-140.96 167,-140.96"/>
</g>
<!-- Node16 -->
<g id="node16" class="node">
<title>Node16</title>
<g id="a_node16"><a xlink:href="comparator__traits_8h.html" target="_top" xlink:title=" ">
<polygon fill="white" stroke="#666666" points="523.5,-184 423.5,-184 423.5,-165 523.5,-165 523.5,-184"/>
<text text-anchor="middle" x="473.5" y="-172" font-family="Helvetica,sans-Serif" font-size="10.00">comparator_traits.h</text>
</a>
</g>
</g>
<!-- Node15&#45;&gt;Node16 -->
<g id="edge16" class="edge">
<title>Node15&#45;&gt;Node16</title>
<path fill="none" stroke="#63b8ff" d="M362.23,-219.51C383.73,-211.01 416.23,-198.15 440.57,-188.53"/>
<polygon fill="#63b8ff" stroke="#63b8ff" points="441.69,-191.85 449.7,-184.91 439.11,-185.34 441.69,-191.85"/>
</g>
<!-- Node18&#45;&gt;Node7 -->
<g id="edge28" class="edge">
<title>Node18&#45;&gt;Node7</title>
<path fill="none" stroke="#63b8ff" d="M629.9,-329.51C648.21,-322.6 670.62,-311.26 684.5,-294 705.53,-267.85 721.69,-245.17 699.5,-220 659.35,-174.45 495.03,-190.24 417.23,-184.06"/>
<polygon fill="#63b8ff" stroke="#63b8ff" points="417.77,-180.59 407.47,-183.07 417.07,-187.56 417.77,-180.59"/>
</g>
<!-- Node18&#45;&gt;Node17 -->
<g id="edge23" class="edge">
<title>Node18&#45;&gt;Node17</title>
<path fill="none" stroke="#63b8ff" d="M572.85,-329.55C554.41,-322.28 530.26,-310.52 513.5,-294 500.97,-281.64 491.94,-263.67 486.35,-250"/>
<polygon fill="#63b8ff" stroke="#63b8ff" points="489.66,-248.88 482.85,-240.76 483.11,-251.35 489.66,-248.88"/>
</g>
<!-- Node19 -->
<g id="node19" class="node">
<title>Node19</title>
<g id="a_node19"><a xlink:href="delayedconstruct_8h.html" target="_top" xlink:title=" ">
<polygon fill="white" stroke="#666666" points="866.5,-294 732.5,-294 732.5,-275 866.5,-275 866.5,-294"/>
<text text-anchor="middle" x="799.5" y="-282" font-family="Helvetica,sans-Serif" font-size="10.00">Generic/delayedconstruct.h</text>
</a>
</g>
</g>
<!-- Node18&#45;&gt;Node19 -->
<g id="edge21" class="edge">
<title>Node18&#45;&gt;Node19</title>
<path fill="none" stroke="#63b8ff" d="M633.43,-329.51C666.86,-320.65 718.12,-307.07 754.85,-297.33"/>
<polygon fill="#63b8ff" stroke="#63b8ff" points="755.51,-300.78 764.28,-294.83 753.71,-294.01 755.51,-300.78"/>
</g>
<!-- Node21 -->
<g id="node21" class="node">
<title>Node21</title>
<g id="a_node21"><a xlink:href="virtualstate_8h.html" target="_top" xlink:title=" ">
<polygon fill="white" stroke="#666666" points="676,-294 523,-294 523,-275 676,-275 676,-294"/>
<text text-anchor="middle" x="599.5" y="-282" font-family="Helvetica,sans-Serif" font-size="10.00">Generic/execution/virtualstate.h</text>
</a>
</g>
</g>
<!-- Node18&#45;&gt;Node21 -->
<g id="edge24" class="edge">
<title>Node18&#45;&gt;Node21</title>
<path fill="none" stroke="#63b8ff" d="M599.5,-329.75C599.5,-323.27 599.5,-314.16 599.5,-305.9"/>
<polygon fill="#63b8ff" stroke="#63b8ff" points="603,-305.96 599.5,-295.96 596,-305.96 603,-305.96"/>
</g>
<!-- Node20 -->
<g id="node20" class="node">
<title>Node20</title>
<g id="a_node20"><a xlink:href="closure_8h.html" target="_top" xlink:title=" ">
<polygon fill="white" stroke="#666666" points="827.5,-239 771.5,-239 771.5,-220 827.5,-220 827.5,-239"/>
<text text-anchor="middle" x="799.5" y="-227" font-family="Helvetica,sans-Serif" font-size="10.00">closure.h</text>
</a>
</g>
</g>
<!-- Node19&#45;&gt;Node20 -->
<g id="edge22" class="edge">
<title>Node19&#45;&gt;Node20</title>
<path fill="none" stroke="#63b8ff" d="M799.5,-274.75C799.5,-268.27 799.5,-259.16 799.5,-250.9"/>
<polygon fill="#63b8ff" stroke="#63b8ff" points="803,-250.96 799.5,-240.96 796,-250.96 803,-250.96"/>
</g>
<!-- Node21&#45;&gt;Node17 -->
<g id="edge25" class="edge">
<title>Node21&#45;&gt;Node17</title>
<path fill="none" stroke="#63b8ff" d="M579.14,-274.51C560.15,-266.12 531.57,-253.5 509.88,-243.92"/>
<polygon fill="#63b8ff" stroke="#63b8ff" points="511.5,-240.81 500.94,-239.97 508.67,-247.21 511.5,-240.81"/>
</g>
<!-- Node22 -->
<g id="node22" class="node">
<title>Node22</title>
<g id="a_node22"><a xlink:href="virtual__invoke_8h.html" target="_top" xlink:title=" ">
<polygon fill="white" stroke="#666666" points="691,-239 570,-239 570,-220 691,-220 691,-239"/>
<text text-anchor="middle" x="630.5" y="-227" font-family="Helvetica,sans-Serif" font-size="10.00">Generic/virtual_invoke.h</text>
</a>
</g>
</g>
<!-- Node21&#45;&gt;Node22 -->
<g id="edge26" class="edge">
<title>Node21&#45;&gt;Node22</title>
<path fill="none" stroke="#63b8ff" d="M604.62,-274.75C608.68,-267.81 614.49,-257.86 619.59,-249.16"/>
<polygon fill="#63b8ff" stroke="#63b8ff" points="622.48,-251.15 624.51,-240.75 616.44,-247.61 622.48,-251.15"/>
</g>
<!-- Node23 -->
<g id="node23" class="node">
<title>Node23</title>
<g id="a_node23"><a xlink:href="callable__traits_8h.html" target="_top" xlink:title=" ">
<polygon fill="white" stroke="#666666" points="672.5,-184 588.5,-184 588.5,-165 672.5,-165 672.5,-184"/>
<text text-anchor="middle" x="630.5" y="-172" font-family="Helvetica,sans-Serif" font-size="10.00">callable_traits.h</text>
</a>
</g>
</g>
<!-- Node22&#45;&gt;Node23 -->
<g id="edge27" class="edge">
<title>Node22&#45;&gt;Node23</title>
<path fill="none" stroke="#63b8ff" d="M630.5,-219.75C630.5,-213.27 630.5,-204.16 630.5,-195.9"/>
<polygon fill="#63b8ff" stroke="#63b8ff" points="634,-195.96 630.5,-185.96 627,-195.96 634,-195.96"/>
</g>
<!-- Node25 -->
<g id="node25" class="node">
<title>Node25</title>
<g id="a_node25"><a xlink:href="proxy_8h.html" target="_top" xlink:title=" ">
<polygon fill="white" stroke="#666666" points="753.5,-404 699.5,-404 699.5,-385 753.5,-385 753.5,-404"/>
<text text-anchor="middle" x="726.5" y="-392" font-family="Helvetica,sans-Serif" font-size="10.00">../proxy.h</text>
</a>
</g>
</g>
<!-- Node24&#45;&gt;Node25 -->
<g id="edge30" class="edge">
<title>Node24&#45;&gt;Node25</title>
<path fill="none" stroke="#63b8ff" d="M642.63,-439.51C658.25,-431.31 681.58,-419.07 699.67,-409.58"/>
<polygon fill="#63b8ff" stroke="#63b8ff" points="701.05,-412.81 708.28,-405.06 697.8,-406.61 701.05,-412.81"/>
</g>
<!-- Node26 -->
<g id="node26" class="node">
<title>Node26</title>
<g id="a_node26"><a xlink:href="defaultassign_8h.html" target="_top" xlink:title=" ">
<polygon fill="white" stroke="#666666" points="861,-404 772,-404 772,-385 861,-385 861,-404"/>
<text text-anchor="middle" x="816.5" y="-392" font-family="Helvetica,sans-Serif" font-size="10.00">../defaultassign.h</text>
</a>
</g>
</g>
<!-- Node24&#45;&gt;Node26 -->
<g id="edge31" class="edge">
<title>Node24&#45;&gt;Node26</title>
<path fill="none" stroke="#63b8ff" d="M657.9,-439.51C689.69,-430.69 738.36,-417.18 773.4,-407.46"/>
<polygon fill="#63b8ff" stroke="#63b8ff" points="774.1,-410.9 782.8,-404.85 772.23,-404.15 774.1,-410.9"/>
</g>
<!-- Node27 -->
<g id="node27" class="node">
<title>Node27</title>
<g id="a_node27"><a xlink:href="heapobject_8h.html" target="_top" xlink:title=" ">
<polygon fill="white" stroke="#666666" points="602,-404 523,-404 523,-385 602,-385 602,-404"/>
<text text-anchor="middle" x="562.5" y="-392" font-family="Helvetica,sans-Serif" font-size="10.00">../heapobject.h</text>
</a>
</g>
</g>
<!-- Node24&#45;&gt;Node27 -->
<g id="edge32" class="edge">
<title>Node24&#45;&gt;Node27</title>
<path fill="none" stroke="#63b8ff" d="M614.81,-439.51C605.8,-431.93 592.67,-420.88 581.82,-411.75"/>
<polygon fill="#63b8ff" stroke="#63b8ff" points="584.09,-409.09 574.19,-405.33 579.59,-414.45 584.09,-409.09"/>
</g>
<!-- Node28 -->
<g id="node28" class="node">
<title>Node28</title>
<g id="a_node28"><a xlink:href="emplace_8h.html" target="_top" xlink:title=" ">
<polygon fill="white" stroke="#666666" points="681,-404 620,-404 620,-385 681,-385 681,-404"/>
<text text-anchor="middle" x="650.5" y="-392" font-family="Helvetica,sans-Serif" font-size="10.00">emplace.h</text>
</a>
</g>
</g>
<!-- Node24&#45;&gt;Node28 -->
<g id="edge33" class="edge">
<title>Node24&#45;&gt;Node28</title>
<path fill="none" stroke="#63b8ff" d="M629.63,-439.75C632.83,-432.96 637.39,-423.3 641.43,-414.73"/>
<polygon fill="#63b8ff" stroke="#63b8ff" points="644.54,-416.35 645.64,-405.81 638.2,-413.36 644.54,-416.35"/>
</g>
<!-- Node29 -->
<g id="node29" class="node">
<title>Node29</title>
<g id="a_node29"><a xlink:href="container__traits_8h.html" target="_top" xlink:title=" ">
<polygon fill="white" stroke="#666666" points="987,-349 896,-349 896,-330 987,-330 987,-349"/>
<text text-anchor="middle" x="941.5" y="-337" font-family="Helvetica,sans-Serif" font-size="10.00">container_traits.h</text>
</a>
</g>
</g>
<!-- Node28&#45;&gt;Node29 -->
<g id="edge34" class="edge">
<title>Node28&#45;&gt;Node29</title>
<path fill="none" stroke="#63b8ff" d="M681.49,-386.81C684.53,-386.18 687.57,-385.57 690.5,-385 756.93,-372.06 833.57,-358.7 884.51,-350.04"/>
<polygon fill="#63b8ff" stroke="#63b8ff" points="884.85,-353.53 894.12,-348.41 883.68,-346.63 884.85,-353.53"/>
</g>
<!-- Node30 -->
<g id="node30" class="node">
<title>Node30</title>
<g id="a_node30"><a xlink:href="indextype_8h.html" target="_top" xlink:title=" ">
<polygon fill="white" stroke="#666666" points="1088.5,-294 1016.5,-294 1016.5,-275 1088.5,-275 1088.5,-294"/>
<text text-anchor="middle" x="1052.5" y="-282" font-family="Helvetica,sans-Serif" font-size="10.00">../indextype.h</text>
</a>
</g>
</g>
<!-- Node29&#45;&gt;Node30 -->
<g id="edge35" class="edge">
<title>Node29&#45;&gt;Node30</title>
<path fill="none" stroke="#63b8ff" d="M960.33,-329.51C977.66,-321.24 1003.61,-308.84 1023.57,-299.31"/>
<polygon fill="#63b8ff" stroke="#63b8ff" points="1025.07,-302.48 1032.58,-295.01 1022.05,-296.16 1025.07,-302.48"/>
</g>
<!-- Node31 -->
<g id="node31" class="node">
<title>Node31</title>
<g id="a_node31"><a xlink:href="underlying__container_8h.html" target="_top" xlink:title=" ">
<polygon fill="white" stroke="#666666" points="998,-294 885,-294 885,-275 998,-275 998,-294"/>
<text text-anchor="middle" x="941.5" y="-282" font-family="Helvetica,sans-Serif" font-size="10.00">underlying_container.h</text>
</a>
</g>
</g>
<!-- Node29&#45;&gt;Node31 -->
<g id="edge36" class="edge">
<title>Node29&#45;&gt;Node31</title>
<path fill="none" stroke="#63b8ff" d="M941.5,-329.75C941.5,-323.27 941.5,-314.16 941.5,-305.9"/>
<polygon fill="#63b8ff" stroke="#63b8ff" points="945,-305.96 941.5,-295.96 938,-305.96 945,-305.96"/>
</g>
<!-- Node33&#45;&gt;Node9 -->
<g id="edge41" class="edge">
<title>Node33&#45;&gt;Node9</title>
<path fill="none" stroke="#63b8ff" d="M725.27,-113.51C647.2,-103.59 472.89,-81.44 391.25,-71.06"/>
<polygon fill="#63b8ff" stroke="#63b8ff" points="391.76,-67.6 381.4,-69.81 390.88,-74.54 391.76,-67.6"/>
</g>
</g>
</svg>
        <g id="navigator" transform="translate(0 0)" fill="#404254">
                <rect fill="#f2f5e9" fill-opacity="0.5" stroke="#606060" stroke-width=".5" x="0" y="0" width="60" height="60"/>
                <use id="zoomplus" xlink:href="#zoomPlus" x="17" y="9" onmousedown="handleZoom(evt,'in')"/>
                <use id="zoomminus" xlink:href="#zoomMin" x="42" y="9" onmousedown="handleZoom(evt,'out')"/>
                <use id="reset" xlink:href="#resetDef" x="30" y="36" onmousedown="handleReset()"/>
                <g id="arrowUp" xlink:href="#dirArrow" transform="translate(30 24)" onmousedown="handlePan(0,-1)">
                  <use xlink:href="#rim" fill="#404040">
                        <set attributeName="fill" to="#808080" begin="arrowUp.mouseover" end="arrowUp.mouseout"/>
                  </use>
                  <path fill="none" stroke="white" stroke-width="1.5" d="M0,-3.0v7 M-2.5,-0.5L0,-3.0L2.5,-0.5"/>
                </g>
                <g id="arrowRight" xlink:href="#dirArrow" transform="rotate(90) translate(36 -43)" onmousedown="handlePan(1,0)">
                  <use xlink:href="#rim" fill="#404040">
                        <set attributeName="fill" to="#808080" begin="arrowRight.mouseover" end="arrowRight.mouseout"/>
                  </use>
                  <path fill="none" stroke="white" stroke-width="1.5" d="M0,-3.0v7 M-2.5,-0.5L0,-3.0L2.5,-0.5"/>
                </g>
                <g id="arrowDown" xlink:href="#dirArrow" transform="rotate(180) translate(-30 -48)" onmousedown="handlePan(0,1)">
                  <use xlink:href="#rim" fill="#404040">
                        <set attributeName="fill" to="#808080" begin="arrowDown.mouseover" end="arrowDown.mouseout"/>
                  </use>
                  <path fill="none" stroke="white" stroke-width="1.5" d="M0,-3.0v7 M-2.5,-0.5L0,-3.0L2.5,-0.5"/>
                </g>
                <g id="arrowLeft" xlink:href="#dirArrow" transform="rotate(270) translate(-36 17)" onmousedown="handlePan(-1,0)">
                  <use xlink:href="#rim" fill="#404040">
                        <set attributeName="fill" to="#808080" begin="arrowLeft.mouseover" end="arrowLeft.mouseout"/>
                  </use>
                  <path fill="none" stroke="white" stroke-width="1.5" d="M0,-3.0v7 M-2.5,-0.5L0,-3.0L2.5,-0.5"/>
                </g>
        </g>
        <svg viewBox="0 0 15 15" width="100%" height="30px" preserveAspectRatio="xMaxYMin meet">
         <g id="arrow_out" transform="scale(0.3 0.3)">
          <a xlink:href="valuetype__forward_8h__incl_org.svg" target="_base">
           <rect id="button" ry="5" rx="5" y="6" x="6" height="38" width="38"
                fill="#f2f5e9" fill-opacity="0.5" stroke="#606060" stroke-width="1.0"/>
           <path id="arrow"
             d="M 11.500037,31.436501 C 11.940474,20.09759 22.043105,11.32322 32.158766,21.979434 L 37.068811,17.246167 C 37.068811,17.246167 37.088388,32 37.088388,32 L 22.160133,31.978069 C 22.160133,31.978069 26.997745,27.140456 26.997745,27.140456 C 18.528582,18.264221 13.291696,25.230495 11.500037,31.436501 z"
             style="fill:#404040;"/>
          </a>
         </g>
        </svg>
</svg>
