<?xml version="1.0" encoding="UTF-8" standalone="no"?>
<!DOCTYPE svg PUBLIC "-//W3C//DTD SVG 1.1//EN"
 "http://www.w3.org/Graphics/SVG/1.1/DTD/svg11.dtd">
<!-- Generated by graphviz version 7.0.5 (20221223.1930)
 -->
<!-- Title: src/Madgine/render/vertexformat.h Pages: 1 -->
<svg width="287pt" height="368pt"
 viewBox="0.00 0.00 286.50 368.00" xmlns="http://www.w3.org/2000/svg" xmlns:xlink="http://www.w3.org/1999/xlink">
<g id="graph0" class="graph" transform="scale(1 1) rotate(0) translate(4 364)">
<title>src/Madgine/render/vertexformat.h</title>
<!-- Node1 -->
<g id="node1" class="node">
<title>Node1</title>
<g id="a_node1"><a xlink:title=" ">
<polygon fill="#999999" stroke="#666666" points="208,-360 108,-360 108,-330 208,-330 208,-360"/>
<text text-anchor="start" x="116" y="-348" font-family="Helvetica,sans-Serif" font-size="10.00">src/Madgine/render</text>
<text text-anchor="middle" x="158" y="-337" font-family="Helvetica,sans-Serif" font-size="10.00">/vertexformat.h</text>
</a>
</g>
</g>
<!-- Node2 -->
<g id="node2" class="node">
<title>Node2</title>
<g id="a_node2"><a xlink:href="src_2_madgine_2render_2vertex_8h.html" target="_top" xlink:title=" ">
<polygon fill="white" stroke="#666666" points="138,-294 88,-294 88,-275 138,-275 138,-294"/>
<text text-anchor="middle" x="113" y="-282" font-family="Helvetica,sans-Serif" font-size="10.00">vertex.h</text>
</a>
</g>
</g>
<!-- Node1&#45;&gt;Node2 -->
<g id="edge1" class="edge">
<title>Node1&#45;&gt;Node2</title>
<path fill="none" stroke="#63b8ff" d="M146.88,-329.54C140.74,-321.56 133.07,-311.59 126.59,-303.16"/>
<polygon fill="#63b8ff" stroke="#63b8ff" points="129.47,-301.17 120.6,-295.37 123.92,-305.44 129.47,-301.17"/>
</g>
<!-- Node12 -->
<g id="node12" class="node">
<title>Node12</title>
<g id="a_node12"><a xlink:href="offsetptr_8h.html" target="_top" xlink:title=" ">
<polygon fill="white" stroke="#666666" points="252,-294 156,-294 156,-275 252,-275 252,-294"/>
<text text-anchor="middle" x="204" y="-282" font-family="Helvetica,sans-Serif" font-size="10.00">Generic/offsetptr.h</text>
</a>
</g>
</g>
<!-- Node1&#45;&gt;Node12 -->
<g id="edge14" class="edge">
<title>Node1&#45;&gt;Node12</title>
<path fill="none" stroke="#63b8ff" d="M169.37,-329.54C175.64,-321.56 183.48,-311.59 190.11,-303.16"/>
<polygon fill="#63b8ff" stroke="#63b8ff" points="192.81,-305.39 196.24,-295.36 187.31,-301.06 192.81,-305.39"/>
</g>
<!-- Node3 -->
<g id="node3" class="node">
<title>Node3</title>
<g id="a_node3"><a xlink:href="compound_8h.html" target="_top" xlink:title=" ">
<polygon fill="white" stroke="#666666" points="106,-239 0,-239 0,-220 106,-220 106,-239"/>
<text text-anchor="middle" x="53" y="-227" font-family="Helvetica,sans-Serif" font-size="10.00">Generic/compound.h</text>
</a>
</g>
</g>
<!-- Node2&#45;&gt;Node3 -->
<g id="edge2" class="edge">
<title>Node2&#45;&gt;Node3</title>
<path fill="none" stroke="#63b8ff" d="M102.82,-274.51C94.24,-266.93 81.73,-255.88 71.4,-246.75"/>
<polygon fill="#63b8ff" stroke="#63b8ff" points="73.97,-244.36 64.16,-240.36 69.34,-249.6 73.97,-244.36"/>
</g>
<!-- Node4 -->
<g id="node4" class="node">
<title>Node4</title>
<g id="a_node4"><a xlink:href="color4_8h.html" target="_top" xlink:title=" ">
<polygon fill="white" stroke="#666666" points="224,-239 124,-239 124,-220 224,-220 224,-239"/>
<text text-anchor="middle" x="174" y="-227" font-family="Helvetica,sans-Serif" font-size="10.00">Meta/math/color4.h</text>
</a>
</g>
</g>
<!-- Node2&#45;&gt;Node4 -->
<g id="edge3" class="edge">
<title>Node2&#45;&gt;Node4</title>
<path fill="none" stroke="#63b8ff" d="M123.35,-274.51C132.08,-266.93 144.79,-255.88 155.3,-246.75"/>
<polygon fill="#63b8ff" stroke="#63b8ff" points="157.41,-249.55 162.66,-240.35 152.82,-244.27 157.41,-249.55"/>
</g>
<!-- Node5 -->
<g id="node5" class="node">
<title>Node5</title>
<g id="a_node5"><a xlink:href="color3_8h.html" target="_top" xlink:title=" ">
<polygon fill="white" stroke="#666666" points="163,-184 113,-184 113,-165 163,-165 163,-184"/>
<text text-anchor="middle" x="138" y="-172" font-family="Helvetica,sans-Serif" font-size="10.00">color3.h</text>
</a>
</g>
</g>
<!-- Node4&#45;&gt;Node5 -->
<g id="edge4" class="edge">
<title>Node4&#45;&gt;Node5</title>
<path fill="none" stroke="#63b8ff" d="M168.06,-219.75C163.29,-212.73 156.44,-202.64 150.48,-193.87"/>
<polygon fill="#63b8ff" stroke="#63b8ff" points="153.44,-192 144.92,-185.69 147.65,-195.93 153.44,-192"/>
</g>
<!-- Node11 -->
<g id="node11" class="node">
<title>Node11</title>
<g id="a_node11"><a xlink:href="vector4_8h.html" target="_top" xlink:title=" ">
<polygon fill="white" stroke="#666666" points="237,-184 181,-184 181,-165 237,-165 237,-184"/>
<text text-anchor="middle" x="209" y="-172" font-family="Helvetica,sans-Serif" font-size="10.00">vector4.h</text>
</a>
</g>
</g>
<!-- Node4&#45;&gt;Node11 -->
<g id="edge12" class="edge">
<title>Node4&#45;&gt;Node11</title>
<path fill="none" stroke="#63b8ff" d="M179.78,-219.75C184.41,-212.73 191.07,-202.64 196.87,-193.87"/>
<polygon fill="#63b8ff" stroke="#63b8ff" points="199.67,-195.98 202.26,-185.71 193.83,-192.12 199.67,-195.98"/>
</g>
<!-- Node6 -->
<g id="node6" class="node">
<title>Node6</title>
<g id="a_node6"><a xlink:href="vector3_8h.html" target="_top" xlink:title=" ">
<polygon fill="white" stroke="#666666" points="201,-129 145,-129 145,-110 201,-110 201,-129"/>
<text text-anchor="middle" x="173" y="-117" font-family="Helvetica,sans-Serif" font-size="10.00">vector3.h</text>
</a>
</g>
</g>
<!-- Node5&#45;&gt;Node6 -->
<g id="edge5" class="edge">
<title>Node5&#45;&gt;Node6</title>
<path fill="none" stroke="#63b8ff" d="M143.78,-164.75C148.41,-157.73 155.07,-147.64 160.87,-138.87"/>
<polygon fill="#63b8ff" stroke="#63b8ff" points="163.67,-140.98 166.26,-130.71 157.83,-137.12 163.67,-140.98"/>
</g>
<!-- Node7 -->
<g id="node7" class="node">
<title>Node7</title>
<g id="a_node7"><a xlink:href="common_8h.html" target="_top" xlink:title=" ">
<polygon fill="white" stroke="#666666" points="174,-19 112,-19 112,0 174,0 174,-19"/>
<text text-anchor="middle" x="143" y="-7" font-family="Helvetica,sans-Serif" font-size="10.00">common.h</text>
</a>
</g>
</g>
<!-- Node6&#45;&gt;Node7 -->
<g id="edge6" class="edge">
<title>Node6&#45;&gt;Node7</title>
<path fill="none" stroke="#63b8ff" d="M162.21,-109.55C153.26,-101.36 141.19,-88.36 136,-74 130.91,-59.93 133.13,-43.06 136.37,-30.24"/>
<polygon fill="#63b8ff" stroke="#63b8ff" points="139.66,-31.46 139.15,-20.87 132.95,-29.46 139.66,-31.46"/>
</g>
<!-- Node8 -->
<g id="node8" class="node">
<title>Node8</title>
<g id="a_node8"><a xlink:href="vector2_8h.html" target="_top" xlink:title=" ">
<polygon fill="white" stroke="#666666" points="201,-74 145,-74 145,-55 201,-55 201,-74"/>
<text text-anchor="middle" x="173" y="-62" font-family="Helvetica,sans-Serif" font-size="10.00">vector2.h</text>
</a>
</g>
</g>
<!-- Node6&#45;&gt;Node8 -->
<g id="edge7" class="edge">
<title>Node6&#45;&gt;Node8</title>
<path fill="none" stroke="#63b8ff" d="M173,-109.75C173,-103.27 173,-94.16 173,-85.9"/>
<polygon fill="#63b8ff" stroke="#63b8ff" points="176.5,-85.96 173,-75.96 169.5,-85.96 176.5,-85.96"/>
</g>
<!-- Node10 -->
<g id="node10" class="node">
<title>Node10</title>
<g id="a_node10"><a xlink:href="vector3i_8h.html" target="_top" xlink:title=" ">
<polygon fill="white" stroke="#666666" points="278.5,-74 219.5,-74 219.5,-55 278.5,-55 278.5,-74"/>
<text text-anchor="middle" x="249" y="-62" font-family="Helvetica,sans-Serif" font-size="10.00">vector3i.h</text>
</a>
</g>
</g>
<!-- Node6&#45;&gt;Node10 -->
<g id="edge10" class="edge">
<title>Node6&#45;&gt;Node10</title>
<path fill="none" stroke="#63b8ff" d="M185.89,-109.51C197.1,-101.7 213.57,-90.21 226.88,-80.93"/>
<polygon fill="#63b8ff" stroke="#63b8ff" points="228.86,-83.81 235.06,-75.22 224.85,-78.07 228.86,-83.81"/>
</g>
<!-- Node8&#45;&gt;Node7 -->
<g id="edge9" class="edge">
<title>Node8&#45;&gt;Node7</title>
<path fill="none" stroke="#63b8ff" d="M168.05,-54.75C164.16,-47.88 158.61,-38.08 153.72,-29.45"/>
<polygon fill="#63b8ff" stroke="#63b8ff" points="156.78,-27.74 148.81,-20.76 150.69,-31.19 156.78,-27.74"/>
</g>
<!-- Node9 -->
<g id="node9" class="node">
<title>Node9</title>
<g id="a_node9"><a xlink:href="vector2i_8h.html" target="_top" xlink:title=" ">
<polygon fill="white" stroke="#666666" points="264.5,-19 205.5,-19 205.5,0 264.5,0 264.5,-19"/>
<text text-anchor="middle" x="235" y="-7" font-family="Helvetica,sans-Serif" font-size="10.00">vector2i.h</text>
</a>
</g>
</g>
<!-- Node8&#45;&gt;Node9 -->
<g id="edge8" class="edge">
<title>Node8&#45;&gt;Node9</title>
<path fill="none" stroke="#63b8ff" d="M183.52,-54.51C192.39,-46.93 205.31,-35.88 215.99,-26.75"/>
<polygon fill="#63b8ff" stroke="#63b8ff" points="218.16,-29.5 223.49,-20.34 213.61,-24.18 218.16,-29.5"/>
</g>
<!-- Node10&#45;&gt;Node9 -->
<g id="edge11" class="edge">
<title>Node10&#45;&gt;Node9</title>
<path fill="none" stroke="#63b8ff" d="M246.69,-54.75C244.94,-48.11 242.46,-38.73 240.23,-30.31"/>
<polygon fill="#63b8ff" stroke="#63b8ff" points="243.69,-29.68 237.75,-20.91 236.92,-31.47 243.69,-29.68"/>
</g>
<!-- Node11&#45;&gt;Node6 -->
<g id="edge13" class="edge">
<title>Node11&#45;&gt;Node6</title>
<path fill="none" stroke="#63b8ff" d="M203.06,-164.75C198.29,-157.73 191.44,-147.64 185.48,-138.87"/>
<polygon fill="#63b8ff" stroke="#63b8ff" points="188.44,-137 179.92,-130.69 182.65,-140.93 188.44,-137"/>
</g>
</g>
</svg>
