<?xml version="1.0" encoding="UTF-8" standalone="no"?>
<!DOCTYPE svg PUBLIC "-//W3C//DTD SVG 1.1//EN"
 "http://www.w3.org/Graphics/SVG/1.1/DTD/svg11.dtd">
<!-- Generated by graphviz version 7.0.5 (20221223.1930)
 -->
<!-- Title: src/Generic/execution/virtualstate.h Pages: 1 -->
<svg width="292pt" height="148pt"
 viewBox="0.00 0.00 292.00 148.00" xmlns="http://www.w3.org/2000/svg" xmlns:xlink="http://www.w3.org/1999/xlink">
<g id="graph0" class="graph" transform="scale(1 1) rotate(0) translate(4 144)">
<title>src/Generic/execution/virtualstate.h</title>
<!-- Node1 -->
<g id="node1" class="node">
<title>Node1</title>
<g id="a_node1"><a xlink:title=" ">
<polygon fill="#999999" stroke="#666666" points="203,-140 92,-140 92,-110 203,-110 203,-140"/>
<text text-anchor="start" x="100" y="-128" font-family="Helvetica,sans-Serif" font-size="10.00">src/Generic/execution</text>
<text text-anchor="middle" x="147.5" y="-117" font-family="Helvetica,sans-Serif" font-size="10.00">/virtualstate.h</text>
</a>
</g>
</g>
<!-- Node2 -->
<g id="node2" class="node">
<title>Node2</title>
<g id="a_node2"><a xlink:href="execution_2concepts_8h.html" target="_top" xlink:title=" ">
<polygon fill="white" stroke="#666666" points="145,-74 0,-74 0,-55 145,-55 145,-74"/>
<text text-anchor="middle" x="72.5" y="-62" font-family="Helvetica,sans-Serif" font-size="10.00">Generic/execution/concepts.h</text>
</a>
</g>
</g>
<!-- Node1&#45;&gt;Node2 -->
<g id="edge1" class="edge">
<title>Node1&#45;&gt;Node2</title>
<path fill="none" stroke="#63b8ff" d="M128.96,-109.54C117.85,-100.87 103.71,-89.85 92.37,-81"/>
<polygon fill="#63b8ff" stroke="#63b8ff" points="94.85,-78.5 84.82,-75.11 90.55,-84.02 94.85,-78.5"/>
</g>
<!-- Node3 -->
<g id="node3" class="node">
<title>Node3</title>
<g id="a_node3"><a xlink:href="virtual__invoke_8h.html" target="_top" xlink:title=" ">
<polygon fill="white" stroke="#666666" points="284,-74 163,-74 163,-55 284,-55 284,-74"/>
<text text-anchor="middle" x="223.5" y="-62" font-family="Helvetica,sans-Serif" font-size="10.00">Generic/virtual_invoke.h</text>
</a>
</g>
</g>
<!-- Node1&#45;&gt;Node3 -->
<g id="edge2" class="edge">
<title>Node1&#45;&gt;Node3</title>
<path fill="none" stroke="#63b8ff" d="M166.29,-109.54C177.55,-100.87 191.87,-89.85 203.37,-81"/>
<polygon fill="#63b8ff" stroke="#63b8ff" points="205.24,-83.97 211.03,-75.1 200.97,-78.42 205.24,-83.97"/>
</g>
<!-- Node4 -->
<g id="node4" class="node">
<title>Node4</title>
<g id="a_node4"><a xlink:href="callable__traits_8h.html" target="_top" xlink:title=" ">
<polygon fill="white" stroke="#666666" points="265.5,-19 181.5,-19 181.5,0 265.5,0 265.5,-19"/>
<text text-anchor="middle" x="223.5" y="-7" font-family="Helvetica,sans-Serif" font-size="10.00">callable_traits.h</text>
</a>
</g>
</g>
<!-- Node3&#45;&gt;Node4 -->
<g id="edge3" class="edge">
<title>Node3&#45;&gt;Node4</title>
<path fill="none" stroke="#63b8ff" d="M223.5,-54.75C223.5,-48.27 223.5,-39.16 223.5,-30.9"/>
<polygon fill="#63b8ff" stroke="#63b8ff" points="227,-30.96 223.5,-20.96 220,-30.96 227,-30.96"/>
</g>
</g>
</svg>
