<?xml version="1.0" encoding="UTF-8" standalone="no"?>
<!DOCTYPE svg PUBLIC "-//W3C//DTD SVG 1.1//EN"
 "http://www.w3.org/Graphics/SVG/1.1/DTD/svg11.dtd">
<!-- Generated by graphviz version 7.0.5 (20221223.1930)
 -->
<!-- Title: src/Generic/container/virtualrange.h Pages: 1 -->
<svg width="428pt" height="203pt"
 viewBox="0.00 0.00 427.50 203.00" xmlns="http://www.w3.org/2000/svg" xmlns:xlink="http://www.w3.org/1999/xlink">
<g id="graph0" class="graph" transform="scale(1 1) rotate(0) translate(4 199)">
<title>src/Generic/container/virtualrange.h</title>
<!-- Node1 -->
<g id="node1" class="node">
<title>Node1</title>
<g id="a_node1"><a xlink:title=" ">
<polygon fill="#999999" stroke="#666666" points="223,-195 113,-195 113,-165 223,-165 223,-195"/>
<text text-anchor="start" x="121" y="-183" font-family="Helvetica,sans-Serif" font-size="10.00">src/Generic/container</text>
<text text-anchor="middle" x="168" y="-172" font-family="Helvetica,sans-Serif" font-size="10.00">/virtualrange.h</text>
</a>
</g>
</g>
<!-- Node2 -->
<g id="node2" class="node">
<title>Node2</title>
<g id="a_node2"><a xlink:href="proxy_8h.html" target="_top" xlink:title=" ">
<polygon fill="white" stroke="#666666" points="54,-129 0,-129 0,-110 54,-110 54,-129"/>
<text text-anchor="middle" x="27" y="-117" font-family="Helvetica,sans-Serif" font-size="10.00">../proxy.h</text>
</a>
</g>
</g>
<!-- Node1&#45;&gt;Node2 -->
<g id="edge1" class="edge">
<title>Node1&#45;&gt;Node2</title>
<path fill="none" stroke="#63b8ff" d="M133.15,-164.54C110.4,-155.1 80.94,-142.88 58.83,-133.71"/>
<polygon fill="#63b8ff" stroke="#63b8ff" points="60.3,-130.53 49.72,-129.93 57.61,-136.99 60.3,-130.53"/>
</g>
<!-- Node3 -->
<g id="node3" class="node">
<title>Node3</title>
<g id="a_node3"><a xlink:href="defaultassign_8h.html" target="_top" xlink:title=" ">
<polygon fill="white" stroke="#666666" points="161.5,-129 72.5,-129 72.5,-110 161.5,-110 161.5,-129"/>
<text text-anchor="middle" x="117" y="-117" font-family="Helvetica,sans-Serif" font-size="10.00">../defaultassign.h</text>
</a>
</g>
</g>
<!-- Node1&#45;&gt;Node3 -->
<g id="edge2" class="edge">
<title>Node1&#45;&gt;Node3</title>
<path fill="none" stroke="#63b8ff" d="M155.39,-164.54C148.29,-156.39 139.37,-146.16 131.92,-137.61"/>
<polygon fill="#63b8ff" stroke="#63b8ff" points="134.77,-135.55 125.56,-130.32 129.49,-140.15 134.77,-135.55"/>
</g>
<!-- Node4 -->
<g id="node4" class="node">
<title>Node4</title>
<g id="a_node4"><a xlink:href="heapobject_8h.html" target="_top" xlink:title=" ">
<polygon fill="white" stroke="#666666" points="258.5,-129 179.5,-129 179.5,-110 258.5,-110 258.5,-129"/>
<text text-anchor="middle" x="219" y="-117" font-family="Helvetica,sans-Serif" font-size="10.00">../heapobject.h</text>
</a>
</g>
</g>
<!-- Node1&#45;&gt;Node4 -->
<g id="edge3" class="edge">
<title>Node1&#45;&gt;Node4</title>
<path fill="none" stroke="#63b8ff" d="M180.61,-164.54C187.71,-156.39 196.63,-146.16 204.08,-137.61"/>
<polygon fill="#63b8ff" stroke="#63b8ff" points="206.51,-140.15 210.44,-130.32 201.23,-135.55 206.51,-140.15"/>
</g>
<!-- Node5 -->
<g id="node5" class="node">
<title>Node5</title>
<g id="a_node5"><a xlink:href="emplace_8h.html" target="_top" xlink:title=" ">
<polygon fill="white" stroke="#666666" points="337.5,-129 276.5,-129 276.5,-110 337.5,-110 337.5,-129"/>
<text text-anchor="middle" x="307" y="-117" font-family="Helvetica,sans-Serif" font-size="10.00">emplace.h</text>
</a>
</g>
</g>
<!-- Node1&#45;&gt;Node5 -->
<g id="edge4" class="edge">
<title>Node1&#45;&gt;Node5</title>
<path fill="none" stroke="#63b8ff" d="M202.36,-164.54C224.78,-155.1 253.82,-142.88 275.62,-133.71"/>
<polygon fill="#63b8ff" stroke="#63b8ff" points="276.73,-137.04 284.59,-129.93 274.01,-130.59 276.73,-137.04"/>
</g>
<!-- Node6 -->
<g id="node6" class="node">
<title>Node6</title>
<g id="a_node6"><a xlink:href="container__traits_8h.html" target="_top" xlink:title=" ">
<polygon fill="white" stroke="#666666" points="352.5,-74 261.5,-74 261.5,-55 352.5,-55 352.5,-74"/>
<text text-anchor="middle" x="307" y="-62" font-family="Helvetica,sans-Serif" font-size="10.00">container_traits.h</text>
</a>
</g>
</g>
<!-- Node5&#45;&gt;Node6 -->
<g id="edge5" class="edge">
<title>Node5&#45;&gt;Node6</title>
<path fill="none" stroke="#63b8ff" d="M307,-109.75C307,-103.27 307,-94.16 307,-85.9"/>
<polygon fill="#63b8ff" stroke="#63b8ff" points="310.5,-85.96 307,-75.96 303.5,-85.96 310.5,-85.96"/>
</g>
<!-- Node7 -->
<g id="node7" class="node">
<title>Node7</title>
<g id="a_node7"><a xlink:href="indextype_8h.html" target="_top" xlink:title=" ">
<polygon fill="white" stroke="#666666" points="288,-19 216,-19 216,0 288,0 288,-19"/>
<text text-anchor="middle" x="252" y="-7" font-family="Helvetica,sans-Serif" font-size="10.00">../indextype.h</text>
</a>
</g>
</g>
<!-- Node6&#45;&gt;Node7 -->
<g id="edge6" class="edge">
<title>Node6&#45;&gt;Node7</title>
<path fill="none" stroke="#63b8ff" d="M297.92,-54.75C290.16,-47.27 278.79,-36.32 269.3,-27.17"/>
<polygon fill="#63b8ff" stroke="#63b8ff" points="272,-24.91 262.37,-20.49 267.14,-29.95 272,-24.91"/>
</g>
<!-- Node8 -->
<g id="node8" class="node">
<title>Node8</title>
<g id="a_node8"><a xlink:href="underlying__container_8h.html" target="_top" xlink:title=" ">
<polygon fill="white" stroke="#666666" points="419.5,-19 306.5,-19 306.5,0 419.5,0 419.5,-19"/>
<text text-anchor="middle" x="363" y="-7" font-family="Helvetica,sans-Serif" font-size="10.00">underlying_container.h</text>
</a>
</g>
</g>
<!-- Node6&#45;&gt;Node8 -->
<g id="edge7" class="edge">
<title>Node6&#45;&gt;Node8</title>
<path fill="none" stroke="#63b8ff" d="M316.5,-54.51C324.43,-47 335.95,-36.1 345.54,-27.03"/>
<polygon fill="#63b8ff" stroke="#63b8ff" points="347.68,-29.81 352.54,-20.4 342.87,-24.73 347.68,-29.81"/>
</g>
</g>
</svg>
