<?xml version="1.0" encoding="UTF-8" standalone="no"?>
<!DOCTYPE svg PUBLIC "-//W3C//DTD SVG 1.1//EN"
 "http://www.w3.org/Graphics/SVG/1.1/DTD/svg11.dtd">
<!-- Generated by graphviz version 7.0.5 (20221223.1930)
 -->
<!-- Title: src/Generic/execution/virtualsender.h Pages: 1 -->
<svg width="212pt" height="203pt"
 viewBox="0.00 0.00 211.50 203.00" xmlns="http://www.w3.org/2000/svg" xmlns:xlink="http://www.w3.org/1999/xlink">
<g id="graph0" class="graph" transform="scale(1 1) rotate(0) translate(4 199)">
<title>src/Generic/execution/virtualsender.h</title>
<!-- Node1 -->
<g id="node1" class="node">
<title>Node1</title>
<g id="a_node1"><a xlink:title=" ">
<polygon fill="#999999" stroke="#666666" points="127.5,-195 16.5,-195 16.5,-165 127.5,-165 127.5,-195"/>
<text text-anchor="start" x="24.5" y="-183" font-family="Helvetica,sans-Serif" font-size="10.00">src/Generic/execution</text>
<text text-anchor="middle" x="72" y="-172" font-family="Helvetica,sans-Serif" font-size="10.00">/virtualsender.h</text>
</a>
</g>
</g>
<!-- Node2 -->
<g id="node2" class="node">
<title>Node2</title>
<g id="a_node2"><a xlink:href="src_2_generic_2execution_2sender_8h.html" target="_top" xlink:title=" ">
<polygon fill="white" stroke="#666666" points="58.5,-129 5.5,-129 5.5,-110 58.5,-110 58.5,-129"/>
<text text-anchor="middle" x="32" y="-117" font-family="Helvetica,sans-Serif" font-size="10.00">sender.h</text>
</a>
</g>
</g>
<!-- Node1&#45;&gt;Node2 -->
<g id="edge1" class="edge">
<title>Node1&#45;&gt;Node2</title>
<path fill="none" stroke="#63b8ff" d="M62.11,-164.54C56.72,-156.65 49.99,-146.81 44.26,-138.44"/>
<polygon fill="#63b8ff" stroke="#63b8ff" points="47.32,-136.7 38.79,-130.42 41.54,-140.65 47.32,-136.7"/>
</g>
<!-- Node4 -->
<g id="node4" class="node">
<title>Node4</title>
<g id="a_node4"><a xlink:href="virtualstate_8h.html" target="_top" xlink:title=" ">
<polygon fill="white" stroke="#666666" points="149,-129 77,-129 77,-110 149,-110 149,-129"/>
<text text-anchor="middle" x="113" y="-117" font-family="Helvetica,sans-Serif" font-size="10.00">virtualstate.h</text>
</a>
</g>
</g>
<!-- Node1&#45;&gt;Node4 -->
<g id="edge3" class="edge">
<title>Node1&#45;&gt;Node4</title>
<path fill="none" stroke="#63b8ff" d="M82.13,-164.54C87.66,-156.65 94.56,-146.81 100.43,-138.44"/>
<polygon fill="#63b8ff" stroke="#63b8ff" points="103.18,-140.61 106.05,-130.41 97.45,-136.59 103.18,-140.61"/>
</g>
<!-- Node3 -->
<g id="node3" class="node">
<title>Node3</title>
<g id="a_node3"><a xlink:href="execution_2concepts_8h.html" target="_top" xlink:title=" ">
<polygon fill="white" stroke="#666666" points="64,-74 0,-74 0,-55 64,-55 64,-74"/>
<text text-anchor="middle" x="32" y="-62" font-family="Helvetica,sans-Serif" font-size="10.00">concepts.h</text>
</a>
</g>
</g>
<!-- Node2&#45;&gt;Node3 -->
<g id="edge2" class="edge">
<title>Node2&#45;&gt;Node3</title>
<path fill="none" stroke="#63b8ff" d="M32,-109.75C32,-103.27 32,-94.16 32,-85.9"/>
<polygon fill="#63b8ff" stroke="#63b8ff" points="35.5,-85.96 32,-75.96 28.5,-85.96 35.5,-85.96"/>
</g>
<!-- Node4&#45;&gt;Node3 -->
<g id="edge4" class="edge">
<title>Node4&#45;&gt;Node3</title>
<path fill="none" stroke="#63b8ff" d="M99.26,-109.51C87.2,-101.62 69.41,-89.98 55.16,-80.65"/>
<polygon fill="#63b8ff" stroke="#63b8ff" points="57.09,-77.73 46.8,-75.19 53.26,-83.59 57.09,-77.73"/>
</g>
<!-- Node5 -->
<g id="node5" class="node">
<title>Node5</title>
<g id="a_node5"><a xlink:href="virtual__invoke_8h.html" target="_top" xlink:title=" ">
<polygon fill="white" stroke="#666666" points="203.5,-74 82.5,-74 82.5,-55 203.5,-55 203.5,-74"/>
<text text-anchor="middle" x="143" y="-62" font-family="Helvetica,sans-Serif" font-size="10.00">Generic/virtual_invoke.h</text>
</a>
</g>
</g>
<!-- Node4&#45;&gt;Node5 -->
<g id="edge5" class="edge">
<title>Node4&#45;&gt;Node5</title>
<path fill="none" stroke="#63b8ff" d="M117.95,-109.75C121.84,-102.88 127.39,-93.08 132.28,-84.45"/>
<polygon fill="#63b8ff" stroke="#63b8ff" points="135.31,-86.19 137.19,-75.76 129.22,-82.74 135.31,-86.19"/>
</g>
<!-- Node6 -->
<g id="node6" class="node">
<title>Node6</title>
<g id="a_node6"><a xlink:href="callable__traits_8h.html" target="_top" xlink:title=" ">
<polygon fill="white" stroke="#666666" points="185,-19 101,-19 101,0 185,0 185,-19"/>
<text text-anchor="middle" x="143" y="-7" font-family="Helvetica,sans-Serif" font-size="10.00">callable_traits.h</text>
</a>
</g>
</g>
<!-- Node5&#45;&gt;Node6 -->
<g id="edge6" class="edge">
<title>Node5&#45;&gt;Node6</title>
<path fill="none" stroke="#63b8ff" d="M143,-54.75C143,-48.27 143,-39.16 143,-30.9"/>
<polygon fill="#63b8ff" stroke="#63b8ff" points="146.5,-30.96 143,-20.96 139.5,-30.96 146.5,-30.96"/>
</g>
</g>
</svg>
