<?xml version="1.0" encoding="UTF-8" standalone="no"?>
<!DOCTYPE svg PUBLIC "-//W3C//DTD SVG 1.1//EN"
 "http://www.w3.org/Graphics/SVG/1.1/DTD/svg11.dtd">
<!-- Generated by graphviz version 7.0.5 (20221223.1930)
 -->
<!-- Title: plugins/renderer/vulkan/src/Vulkan/vulkanpipelineloader.h Pages: 1 -->
<svg width="517pt" height="170pt"
 viewBox="0.00 0.00 516.50 170.00" xmlns="http://www.w3.org/2000/svg" xmlns:xlink="http://www.w3.org/1999/xlink">
<g id="graph0" class="graph" transform="scale(1 1) rotate(0) translate(4 166)">
<title>plugins/renderer/vulkan/src/Vulkan/vulkanpipelineloader.h</title>
<!-- Node1 -->
<g id="node1" class="node">
<title>Node1</title>
<g id="a_node1"><a xlink:title=" ">
<polygon fill="#999999" stroke="#666666" points="388.5,-162 224.5,-162 224.5,-132 388.5,-132 388.5,-162"/>
<text text-anchor="start" x="232.5" y="-150" font-family="Helvetica,sans-Serif" font-size="10.00">plugins/renderer/vulkan</text>
<text text-anchor="middle" x="306.5" y="-139" font-family="Helvetica,sans-Serif" font-size="10.00">/src/Vulkan/vulkanpipelineloader.h</text>
</a>
</g>
</g>
<!-- Node2 -->
<g id="node2" class="node">
<title>Node2</title>
<g id="a_node2"><a xlink:href="vulkanpipelineinstance_8h.html" target="_top" xlink:title=" ">
<polygon fill="white" stroke="#666666" points="278,-96 87,-96 87,-66 278,-66 278,-96"/>
<text text-anchor="start" x="95" y="-84" font-family="Helvetica,sans-Serif" font-size="10.00">plugins/renderer/vulkan</text>
<text text-anchor="middle" x="182.5" y="-73" font-family="Helvetica,sans-Serif" font-size="10.00">/src/Vulkan/util/vulkanpipelineinstance.h</text>
</a>
</g>
</g>
<!-- Node1&#45;&gt;Node2 -->
<g id="edge1" class="edge">
<title>Node1&#45;&gt;Node2</title>
<path fill="none" stroke="#63b8ff" d="M268.63,-126.45C249.8,-116.73 227.45,-105.2 210.24,-96.31"/>
<polygon fill="#63b8ff" stroke="#63b8ff" points="266.84,-129.47 277.33,-130.94 270.05,-123.25 266.84,-129.47"/>
</g>
<!-- Node4 -->
<g id="node4" class="node">
<title>Node4</title>
<g id="a_node4"><a xlink:href="vulkanpipelineloader_8cpp.html" target="_top" xlink:title=" ">
<polygon fill="white" stroke="#666666" points="394,-30 219,-30 219,0 394,0 394,-30"/>
<text text-anchor="start" x="227" y="-18" font-family="Helvetica,sans-Serif" font-size="10.00">plugins/renderer/vulkan</text>
<text text-anchor="middle" x="306.5" y="-7" font-family="Helvetica,sans-Serif" font-size="10.00">/src/Vulkan/vulkanpipelineloader.cpp</text>
</a>
</g>
</g>
<!-- Node1&#45;&gt;Node4 -->
<g id="edge4" class="edge">
<title>Node1&#45;&gt;Node4</title>
<path fill="none" stroke="#63b8ff" d="M306.5,-120.38C306.5,-93.49 306.5,-52.18 306.5,-30.47"/>
<polygon fill="#63b8ff" stroke="#63b8ff" points="303,-120.08 306.5,-130.08 310,-120.08 303,-120.08"/>
</g>
<!-- Node5 -->
<g id="node5" class="node">
<title>Node5</title>
<g id="a_node5"><a xlink:href="vulkanrendercontext_8cpp.html" target="_top" xlink:title=" ">
<polygon fill="white" stroke="#666666" points="508.5,-96 334.5,-96 334.5,-66 508.5,-66 508.5,-96"/>
<text text-anchor="start" x="342.5" y="-84" font-family="Helvetica,sans-Serif" font-size="10.00">plugins/renderer/vulkan</text>
<text text-anchor="middle" x="421.5" y="-73" font-family="Helvetica,sans-Serif" font-size="10.00">/src/Vulkan/vulkanrendercontext.cpp</text>
</a>
</g>
</g>
<!-- Node1&#45;&gt;Node5 -->
<g id="edge5" class="edge">
<title>Node1&#45;&gt;Node5</title>
<path fill="none" stroke="#63b8ff" d="M342.11,-126.18C359.47,-116.52 379.96,-105.12 395.78,-96.31"/>
<polygon fill="#63b8ff" stroke="#63b8ff" points="340.67,-122.98 333.63,-130.9 344.07,-129.1 340.67,-122.98"/>
</g>
<!-- Node3 -->
<g id="node3" class="node">
<title>Node3</title>
<g id="a_node3"><a xlink:href="vulkanpipelineinstance_8cpp.html" target="_top" xlink:title=" ">
<polygon fill="white" stroke="#666666" points="201,-30 0,-30 0,0 201,0 201,-30"/>
<text text-anchor="start" x="8" y="-18" font-family="Helvetica,sans-Serif" font-size="10.00">plugins/renderer/vulkan</text>
<text text-anchor="middle" x="100.5" y="-7" font-family="Helvetica,sans-Serif" font-size="10.00">/src/Vulkan/util/vulkanpipelineinstance.cpp</text>
</a>
</g>
</g>
<!-- Node2&#45;&gt;Node3 -->
<g id="edge2" class="edge">
<title>Node2&#45;&gt;Node3</title>
<path fill="none" stroke="#63b8ff" d="M155.56,-58.97C143.56,-49.61 129.73,-38.81 118.93,-30.39"/>
<polygon fill="#63b8ff" stroke="#63b8ff" points="153.07,-61.47 163.11,-64.87 157.38,-55.95 153.07,-61.47"/>
</g>
<!-- Node2&#45;&gt;Node4 -->
<g id="edge3" class="edge">
<title>Node2&#45;&gt;Node4</title>
<path fill="none" stroke="#63b8ff" d="M220.37,-60.45C239.2,-50.73 261.55,-39.2 278.76,-30.31"/>
<polygon fill="#63b8ff" stroke="#63b8ff" points="218.95,-57.25 211.67,-64.94 222.16,-63.47 218.95,-57.25"/>
</g>
</g>
</svg>
