<?xml version="1.0" encoding="UTF-8" standalone="no"?>
<!DOCTYPE svg PUBLIC "-//W3C//DTD SVG 1.1//EN"
 "http://www.w3.org/Graphics/SVG/1.1/DTD/svg11.dtd">
<!-- Generated by graphviz version 7.0.5 (20221223.1930)
 -->
<!-- Title: plugins/renderer/vulkan/src/glad/vulkan.h Pages: 1 -->
<svg width="126pt" height="148pt"
 viewBox="0.00 0.00 126.00 148.00" xmlns="http://www.w3.org/2000/svg" xmlns:xlink="http://www.w3.org/1999/xlink">
<g id="graph0" class="graph" transform="scale(1 1) rotate(0) translate(4 144)">
<title>plugins/renderer/vulkan/src/glad/vulkan.h</title>
<!-- Node1 -->
<g id="node1" class="node">
<title>Node1</title>
<g id="a_node1"><a xlink:title=" ">
<polygon fill="#999999" stroke="#666666" points="118,-140 1,-140 1,-110 118,-110 118,-140"/>
<text text-anchor="start" x="9" y="-128" font-family="Helvetica,sans-Serif" font-size="10.00">plugins/renderer/vulkan</text>
<text text-anchor="middle" x="59.5" y="-117" font-family="Helvetica,sans-Serif" font-size="10.00">/src/glad/vulkan.h</text>
</a>
</g>
</g>
<!-- Node2 -->
<g id="node2" class="node">
<title>Node2</title>
<g id="a_node2"><a xlink:href="vk__platform_8h.html" target="_top" xlink:title=" ">
<polygon fill="white" stroke="#666666" points="97,-74 22,-74 22,-55 97,-55 97,-74"/>
<text text-anchor="middle" x="59.5" y="-62" font-family="Helvetica,sans-Serif" font-size="10.00">vk_platform.h</text>
</a>
</g>
</g>
<!-- Node1&#45;&gt;Node2 -->
<g id="edge1" class="edge">
<title>Node1&#45;&gt;Node2</title>
<path fill="none" stroke="#63b8ff" d="M59.5,-109.54C59.5,-102.34 59.5,-93.53 59.5,-85.68"/>
<polygon fill="#63b8ff" stroke="#63b8ff" points="63,-85.69 59.5,-75.69 56,-85.69 63,-85.69"/>
</g>
<!-- Node3 -->
<g id="node3" class="node">
<title>Node3</title>
<g id="a_node3"><a xlink:title=" ">
<polygon fill="#e0e0e0" stroke="#999999" points="51,-19 0,-19 0,0 51,0 51,-19"/>
<text text-anchor="middle" x="25.5" y="-7" font-family="Helvetica,sans-Serif" font-size="10.00">stddef.h</text>
</a>
</g>
</g>
<!-- Node2&#45;&gt;Node3 -->
<g id="edge2" class="edge">
<title>Node2&#45;&gt;Node3</title>
<path fill="none" stroke="#63b8ff" d="M53.89,-54.75C49.38,-47.73 42.91,-37.64 37.29,-28.87"/>
<polygon fill="#63b8ff" stroke="#63b8ff" points="40.4,-27.24 32.05,-20.72 34.51,-31.02 40.4,-27.24"/>
</g>
<!-- Node4 -->
<g id="node4" class="node">
<title>Node4</title>
<g id="a_node4"><a xlink:title=" ">
<polygon fill="#e0e0e0" stroke="#999999" points="117.5,-19 69.5,-19 69.5,0 117.5,0 117.5,-19"/>
<text text-anchor="middle" x="93.5" y="-7" font-family="Helvetica,sans-Serif" font-size="10.00">stdint.h</text>
</a>
</g>
</g>
<!-- Node2&#45;&gt;Node4 -->
<g id="edge3" class="edge">
<title>Node2&#45;&gt;Node4</title>
<path fill="none" stroke="#63b8ff" d="M65.11,-54.75C69.62,-47.73 76.09,-37.64 81.71,-28.87"/>
<polygon fill="#63b8ff" stroke="#63b8ff" points="84.49,-31.02 86.95,-20.72 78.6,-27.24 84.49,-31.02"/>
</g>
</g>
</svg>
