<?xml version="1.0" encoding="UTF-8" standalone="no"?>
<!DOCTYPE svg PUBLIC "-//W3C//DTD SVG 1.1//EN"
 "http://www.w3.org/Graphics/SVG/1.1/DTD/svg11.dtd">
<!-- Generated by graphviz version 7.0.5 (20221223.1930)
 -->
<!-- Title: plugins/renderer/vulkan/src/Vulkan/vulkanrenderwindow.h Pages: 1 -->
<svg width="1912pt" height="819pt"
 viewBox="0.00 0.00 1911.50 819.00" xmlns="http://www.w3.org/2000/svg" xmlns:xlink="http://www.w3.org/1999/xlink">
<g id="graph0" class="graph" transform="scale(1 1) rotate(0) translate(4 815)">
<title>plugins/renderer/vulkan/src/Vulkan/vulkanrenderwindow.h</title>
<!-- Node1 -->
<g id="node1" class="node">
<title>Node1</title>
<g id="a_node1"><a xlink:title=" ">
<polygon fill="#999999" stroke="#666666" points="810.5,-811 645.5,-811 645.5,-781 810.5,-781 810.5,-811"/>
<text text-anchor="start" x="653.5" y="-799" font-family="Helvetica,sans-Serif" font-size="10.00">plugins/renderer/vulkan</text>
<text text-anchor="middle" x="728" y="-788" font-family="Helvetica,sans-Serif" font-size="10.00">/src/Vulkan/vulkanrenderwindow.h</text>
</a>
</g>
</g>
<!-- Node2 -->
<g id="node2" class="node">
<title>Node2</title>
<g id="a_node2"><a xlink:href="vulkanrendertarget_8h.html" target="_top" xlink:title=" ">
<polygon fill="white" stroke="#666666" points="547,-745 443,-745 443,-726 547,-726 547,-745"/>
<text text-anchor="middle" x="495" y="-733" font-family="Helvetica,sans-Serif" font-size="10.00">vulkanrendertarget.h</text>
</a>
</g>
</g>
<!-- Node1&#45;&gt;Node2 -->
<g id="edge1" class="edge">
<title>Node1&#45;&gt;Node2</title>
<path fill="none" stroke="#63b8ff" d="M670.4,-780.54C630.71,-770.57 578.64,-757.5 541.57,-748.19"/>
<polygon fill="#63b8ff" stroke="#63b8ff" points="542.6,-744.84 532.04,-745.8 540.89,-751.63 542.6,-744.84"/>
</g>
<!-- Node57 -->
<g id="node57" class="node">
<title>Node57</title>
<g id="a_node57"><a xlink:href="matrix4_8h.html" target="_top" xlink:title=" ">
<polygon fill="white" stroke="#666666" points="1169.5,-580 1064.5,-580 1064.5,-561 1169.5,-561 1169.5,-580"/>
<text text-anchor="middle" x="1117" y="-568" font-family="Helvetica,sans-Serif" font-size="10.00">Meta/math/matrix4.h</text>
</a>
</g>
</g>
<!-- Node1&#45;&gt;Node57 -->
<g id="edge76" class="edge">
<title>Node1&#45;&gt;Node57</title>
<path fill="none" stroke="#63b8ff" d="M758.95,-780.57C814.75,-754.14 935.29,-695.13 1031,-635 1054.52,-620.23 1079.92,-601.03 1096.98,-587.63"/>
<polygon fill="#63b8ff" stroke="#63b8ff" points="1099.13,-590.38 1104.79,-581.42 1094.78,-584.9 1099.13,-590.38"/>
</g>
<!-- Node3 -->
<g id="node3" class="node">
<title>Node3</title>
<g id="a_node3"><a xlink:href="rendertarget_8h.html" target="_top" xlink:title=" ">
<polygon fill="white" stroke="#666666" points="657,-690 511,-690 511,-671 657,-671 657,-690"/>
<text text-anchor="middle" x="584" y="-678" font-family="Helvetica,sans-Serif" font-size="10.00">Madgine/render/rendertarget.h</text>
</a>
</g>
</g>
<!-- Node2&#45;&gt;Node3 -->
<g id="edge2" class="edge">
<title>Node2&#45;&gt;Node3</title>
<path fill="none" stroke="#63b8ff" d="M510.1,-725.51C523.6,-717.47 543.65,-705.53 559.46,-696.11"/>
<polygon fill="#63b8ff" stroke="#63b8ff" points="561.02,-699.26 567.82,-691.13 557.44,-693.24 561.02,-699.26"/>
</g>
<!-- Node50 -->
<g id="node50" class="node">
<title>Node50</title>
<g id="a_node50"><a xlink:href="vulkancommandlist_8h.html" target="_top" xlink:title=" ">
<polygon fill="white" stroke="#666666" points="124,-690 0,-690 0,-671 124,-671 124,-690"/>
<text text-anchor="middle" x="62" y="-678" font-family="Helvetica,sans-Serif" font-size="10.00">util/vulkancommandlist.h</text>
</a>
</g>
</g>
<!-- Node2&#45;&gt;Node50 -->
<g id="edge63" class="edge">
<title>Node2&#45;&gt;Node50</title>
<path fill="none" stroke="#63b8ff" d="M442.77,-728.11C366.14,-718.73 222.88,-701.19 135.61,-690.51"/>
<polygon fill="#63b8ff" stroke="#63b8ff" points="136.06,-687.04 125.71,-689.3 135.21,-693.99 136.06,-687.04"/>
</g>
<!-- Node54 -->
<g id="node54" class="node">
<title>Node54</title>
<g id="a_node54"><a xlink:href="vulkantexture_8h.html" target="_top" xlink:title=" ">
<polygon fill="white" stroke="#666666" points="454,-690 356,-690 356,-671 454,-671 454,-690"/>
<text text-anchor="middle" x="405" y="-678" font-family="Helvetica,sans-Serif" font-size="10.00">util/vulkantexture.h</text>
</a>
</g>
</g>
<!-- Node2&#45;&gt;Node54 -->
<g id="edge67" class="edge">
<title>Node2&#45;&gt;Node54</title>
<path fill="none" stroke="#63b8ff" d="M479.73,-725.51C466.07,-717.47 445.8,-705.53 429.82,-696.11"/>
<polygon fill="#63b8ff" stroke="#63b8ff" points="431.74,-693.18 421.35,-691.13 428.19,-699.22 431.74,-693.18"/>
</g>
<!-- Node4 -->
<g id="node4" class="node">
<title>Node4</title>
<g id="a_node4"><a xlink:href="resourceblock_8h.html" target="_top" xlink:title=" ">
<polygon fill="white" stroke="#666666" points="482.5,-580 327.5,-580 327.5,-561 482.5,-561 482.5,-580"/>
<text text-anchor="middle" x="405" y="-568" font-family="Helvetica,sans-Serif" font-size="10.00">Madgine/render/resourceblock.h</text>
</a>
</g>
</g>
<!-- Node3&#45;&gt;Node4 -->
<g id="edge3" class="edge">
<title>Node3&#45;&gt;Node4</title>
<path fill="none" stroke="#63b8ff" d="M569.35,-670.66C538.67,-652.15 467.38,-609.13 429.57,-586.32"/>
<polygon fill="#63b8ff" stroke="#63b8ff" points="431.52,-583.41 421.15,-581.24 427.9,-589.4 431.52,-583.41"/>
</g>
<!-- Node7 -->
<g id="node7" class="node">
<title>Node7</title>
<g id="a_node7"><a xlink:href="texturedescriptor_8h.html" target="_top" xlink:title=" ">
<polygon fill="white" stroke="#666666" points="667,-580 501,-580 501,-561 667,-561 667,-580"/>
<text text-anchor="middle" x="584" y="-568" font-family="Helvetica,sans-Serif" font-size="10.00">Madgine/render/texturedescriptor.h</text>
</a>
</g>
</g>
<!-- Node3&#45;&gt;Node7 -->
<g id="edge6" class="edge">
<title>Node3&#45;&gt;Node7</title>
<path fill="none" stroke="#63b8ff" d="M584,-670.66C584,-653.57 584,-615.61 584,-591.92"/>
<polygon fill="#63b8ff" stroke="#63b8ff" points="587.5,-591.97 584,-581.97 580.5,-591.97 587.5,-591.97"/>
</g>
<!-- Node8 -->
<g id="node8" class="node">
<title>Node8</title>
<g id="a_node8"><a xlink:href="src_2_madgine_2render_2vertex_8h.html" target="_top" xlink:title=" ">
<polygon fill="white" stroke="#666666" points="795,-635 675,-635 675,-616 795,-616 795,-635"/>
<text text-anchor="middle" x="735" y="-623" font-family="Helvetica,sans-Serif" font-size="10.00">Madgine/render/vertex.h</text>
</a>
</g>
</g>
<!-- Node3&#45;&gt;Node8 -->
<g id="edge9" class="edge">
<title>Node3&#45;&gt;Node8</title>
<path fill="none" stroke="#63b8ff" d="M609.62,-670.51C634.09,-661.92 671.24,-648.88 698.75,-639.22"/>
<polygon fill="#63b8ff" stroke="#63b8ff" points="699.81,-642.56 708.08,-635.95 697.49,-635.96 699.81,-642.56"/>
</g>
<!-- Node18 -->
<g id="node18" class="node">
<title>Node18</title>
<g id="a_node18"><a xlink:href="renderer_2api_2src_2_madgine_2render_2renderdata_8h.html" target="_top" xlink:title=" ">
<polygon fill="white" stroke="#666666" points="1022,-635 952,-635 952,-616 1022,-616 1022,-635"/>
<text text-anchor="middle" x="987" y="-623" font-family="Helvetica,sans-Serif" font-size="10.00">renderdata.h</text>
</a>
</g>
</g>
<!-- Node3&#45;&gt;Node18 -->
<g id="edge22" class="edge">
<title>Node3&#45;&gt;Node18</title>
<path fill="none" stroke="#63b8ff" d="M652.36,-670.51C734.37,-659.72 869.62,-641.94 940.46,-632.62"/>
<polygon fill="#63b8ff" stroke="#63b8ff" points="940.71,-636.12 950.16,-631.34 939.79,-629.18 940.71,-636.12"/>
</g>
<!-- Node5 -->
<g id="node5" class="node">
<title>Node5</title>
<g id="a_node5"><a xlink:href="src_2_madgine_2render_2ptr_8h.html" target="_top" xlink:title=" ">
<polygon fill="white" stroke="#666666" points="556.5,-519.5 521.5,-519.5 521.5,-500.5 556.5,-500.5 556.5,-519.5"/>
<text text-anchor="middle" x="539" y="-507.5" font-family="Helvetica,sans-Serif" font-size="10.00">ptr.h</text>
</a>
</g>
</g>
<!-- Node4&#45;&gt;Node5 -->
<g id="edge4" class="edge">
<title>Node4&#45;&gt;Node5</title>
<path fill="none" stroke="#63b8ff" d="M425.35,-560.62C448.06,-550.7 484.95,-534.6 510.51,-523.44"/>
<polygon fill="#63b8ff" stroke="#63b8ff" points="511.89,-526.66 519.65,-519.45 509.08,-520.24 511.89,-526.66"/>
</g>
<!-- Node6 -->
<g id="node6" class="node">
<title>Node6</title>
<g id="a_node6"><a xlink:href="opaqueptr_8h.html" target="_top" xlink:title=" ">
<polygon fill="white" stroke="#666666" points="480,-519.5 376,-519.5 376,-500.5 480,-500.5 480,-519.5"/>
<text text-anchor="middle" x="428" y="-507.5" font-family="Helvetica,sans-Serif" font-size="10.00">Generic/opaqueptr.h</text>
</a>
</g>
</g>
<!-- Node4&#45;&gt;Node6 -->
<g id="edge5" class="edge">
<title>Node4&#45;&gt;Node6</title>
<path fill="none" stroke="#63b8ff" d="M408.39,-560.87C411.55,-552.83 416.37,-540.57 420.44,-530.22"/>
<polygon fill="#63b8ff" stroke="#63b8ff" points="423.64,-531.66 424.04,-521.08 417.12,-529.1 423.64,-531.66"/>
</g>
<!-- Node7&#45;&gt;Node5 -->
<g id="edge7" class="edge">
<title>Node7&#45;&gt;Node5</title>
<path fill="none" stroke="#63b8ff" d="M577.36,-560.87C570.85,-552.4 560.72,-539.24 552.51,-528.57"/>
<polygon fill="#63b8ff" stroke="#63b8ff" points="555.46,-526.66 546.59,-520.87 549.91,-530.93 555.46,-526.66"/>
</g>
<!-- Node7&#45;&gt;Node6 -->
<g id="edge8" class="edge">
<title>Node7&#45;&gt;Node6</title>
<path fill="none" stroke="#63b8ff" d="M560.31,-560.62C534.31,-550.87 492.33,-535.12 462.64,-523.99"/>
<polygon fill="#63b8ff" stroke="#63b8ff" points="463.93,-520.73 453.33,-520.5 461.47,-527.29 463.93,-520.73"/>
</g>
<!-- Node9 -->
<g id="node9" class="node">
<title>Node9</title>
<g id="a_node9"><a xlink:href="compound_8h.html" target="_top" xlink:title=" ">
<polygon fill="white" stroke="#666666" points="909,-580 803,-580 803,-561 909,-561 909,-580"/>
<text text-anchor="middle" x="856" y="-568" font-family="Helvetica,sans-Serif" font-size="10.00">Generic/compound.h</text>
</a>
</g>
</g>
<!-- Node8&#45;&gt;Node9 -->
<g id="edge10" class="edge">
<title>Node8&#45;&gt;Node9</title>
<path fill="none" stroke="#63b8ff" d="M755.53,-615.51C774.68,-607.12 803.5,-594.5 825.37,-584.92"/>
<polygon fill="#63b8ff" stroke="#63b8ff" points="826.64,-588.18 834.39,-580.97 823.83,-581.77 826.64,-588.18"/>
</g>
<!-- Node10 -->
<g id="node10" class="node">
<title>Node10</title>
<g id="a_node10"><a xlink:href="color4_8h.html" target="_top" xlink:title=" ">
<polygon fill="white" stroke="#666666" points="785,-580 685,-580 685,-561 785,-561 785,-580"/>
<text text-anchor="middle" x="735" y="-568" font-family="Helvetica,sans-Serif" font-size="10.00">Meta/math/color4.h</text>
</a>
</g>
</g>
<!-- Node8&#45;&gt;Node10 -->
<g id="edge11" class="edge">
<title>Node8&#45;&gt;Node10</title>
<path fill="none" stroke="#63b8ff" d="M735,-615.75C735,-609.27 735,-600.16 735,-591.9"/>
<polygon fill="#63b8ff" stroke="#63b8ff" points="738.5,-591.96 735,-581.96 731.5,-591.96 738.5,-591.96"/>
</g>
<!-- Node11 -->
<g id="node11" class="node">
<title>Node11</title>
<g id="a_node11"><a xlink:href="color3_8h.html" target="_top" xlink:title=" ">
<polygon fill="white" stroke="#666666" points="716,-519.5 666,-519.5 666,-500.5 716,-500.5 716,-519.5"/>
<text text-anchor="middle" x="691" y="-507.5" font-family="Helvetica,sans-Serif" font-size="10.00">color3.h</text>
</a>
</g>
</g>
<!-- Node10&#45;&gt;Node11 -->
<g id="edge12" class="edge">
<title>Node10&#45;&gt;Node11</title>
<path fill="none" stroke="#63b8ff" d="M728.51,-560.87C722.14,-552.4 712.24,-539.24 704.21,-528.57"/>
<polygon fill="#63b8ff" stroke="#63b8ff" points="707.24,-526.76 698.43,-520.88 701.64,-530.97 707.24,-526.76"/>
</g>
<!-- Node17 -->
<g id="node17" class="node">
<title>Node17</title>
<g id="a_node17"><a xlink:href="vector4_8h.html" target="_top" xlink:title=" ">
<polygon fill="white" stroke="#666666" points="790,-519.5 734,-519.5 734,-500.5 790,-500.5 790,-519.5"/>
<text text-anchor="middle" x="762" y="-507.5" font-family="Helvetica,sans-Serif" font-size="10.00">vector4.h</text>
</a>
</g>
</g>
<!-- Node10&#45;&gt;Node17 -->
<g id="edge20" class="edge">
<title>Node10&#45;&gt;Node17</title>
<path fill="none" stroke="#63b8ff" d="M738.98,-560.87C742.73,-552.75 748.47,-540.31 753.28,-529.89"/>
<polygon fill="#63b8ff" stroke="#63b8ff" points="756.35,-531.59 757.37,-521.04 750,-528.65 756.35,-531.59"/>
</g>
<!-- Node12 -->
<g id="node12" class="node">
<title>Node12</title>
<g id="a_node12"><a xlink:href="vector3_8h.html" target="_top" xlink:title=" ">
<polygon fill="white" stroke="#666666" points="719,-459 663,-459 663,-440 719,-440 719,-459"/>
<text text-anchor="middle" x="691" y="-447" font-family="Helvetica,sans-Serif" font-size="10.00">vector3.h</text>
</a>
</g>
</g>
<!-- Node11&#45;&gt;Node12 -->
<g id="edge13" class="edge">
<title>Node11&#45;&gt;Node12</title>
<path fill="none" stroke="#63b8ff" d="M691,-500.37C691,-492.5 691,-480.6 691,-470.39"/>
<polygon fill="#63b8ff" stroke="#63b8ff" points="694.5,-470.68 691,-460.68 687.5,-470.68 694.5,-470.68"/>
</g>
<!-- Node13 -->
<g id="node13" class="node">
<title>Node13</title>
<g id="a_node13"><a xlink:href="common_8h.html" target="_top" xlink:title=" ">
<polygon fill="white" stroke="#666666" points="694,-349 632,-349 632,-330 694,-330 694,-349"/>
<text text-anchor="middle" x="663" y="-337" font-family="Helvetica,sans-Serif" font-size="10.00">common.h</text>
</a>
</g>
</g>
<!-- Node12&#45;&gt;Node13 -->
<g id="edge14" class="edge">
<title>Node12&#45;&gt;Node13</title>
<path fill="none" stroke="#63b8ff" d="M688.71,-439.66C684.26,-422.5 674.34,-384.26 668.21,-360.6"/>
<polygon fill="#63b8ff" stroke="#63b8ff" points="671.6,-359.73 665.7,-350.93 664.82,-361.48 671.6,-359.73"/>
</g>
<!-- Node14 -->
<g id="node14" class="node">
<title>Node14</title>
<g id="a_node14"><a xlink:href="vector2_8h.html" target="_top" xlink:title=" ">
<polygon fill="white" stroke="#666666" points="663,-404 607,-404 607,-385 663,-385 663,-404"/>
<text text-anchor="middle" x="635" y="-392" font-family="Helvetica,sans-Serif" font-size="10.00">vector2.h</text>
</a>
</g>
</g>
<!-- Node12&#45;&gt;Node14 -->
<g id="edge15" class="edge">
<title>Node12&#45;&gt;Node14</title>
<path fill="none" stroke="#63b8ff" d="M681.5,-439.51C673.57,-432 662.05,-421.1 652.46,-412.03"/>
<polygon fill="#63b8ff" stroke="#63b8ff" points="655.13,-409.73 645.46,-405.4 650.32,-414.81 655.13,-409.73"/>
</g>
<!-- Node16 -->
<g id="node16" class="node">
<title>Node16</title>
<g id="a_node16"><a xlink:href="vector3i_8h.html" target="_top" xlink:title=" ">
<polygon fill="white" stroke="#666666" points="529.5,-404 470.5,-404 470.5,-385 529.5,-385 529.5,-404"/>
<text text-anchor="middle" x="500" y="-392" font-family="Helvetica,sans-Serif" font-size="10.00">vector3i.h</text>
</a>
</g>
</g>
<!-- Node12&#45;&gt;Node16 -->
<g id="edge18" class="edge">
<title>Node12&#45;&gt;Node16</title>
<path fill="none" stroke="#63b8ff" d="M662.82,-440.68C630.56,-431.73 577.46,-416.99 540.71,-406.8"/>
<polygon fill="#63b8ff" stroke="#63b8ff" points="541.9,-403.5 531.33,-404.19 540.03,-410.24 541.9,-403.5"/>
</g>
<!-- Node14&#45;&gt;Node13 -->
<g id="edge17" class="edge">
<title>Node14&#45;&gt;Node13</title>
<path fill="none" stroke="#63b8ff" d="M639.62,-384.75C643.25,-377.88 648.43,-368.08 652.99,-359.45"/>
<polygon fill="#63b8ff" stroke="#63b8ff" points="655.99,-361.26 657.57,-350.78 649.8,-357.99 655.99,-361.26"/>
</g>
<!-- Node15 -->
<g id="node15" class="node">
<title>Node15</title>
<g id="a_node15"><a xlink:href="vector2i_8h.html" target="_top" xlink:title=" ">
<polygon fill="white" stroke="#666666" points="443.5,-349 384.5,-349 384.5,-330 443.5,-330 443.5,-349"/>
<text text-anchor="middle" x="414" y="-337" font-family="Helvetica,sans-Serif" font-size="10.00">vector2i.h</text>
</a>
</g>
</g>
<!-- Node14&#45;&gt;Node15 -->
<g id="edge16" class="edge">
<title>Node14&#45;&gt;Node15</title>
<path fill="none" stroke="#63b8ff" d="M606.56,-386.68C568.03,-377.44 499.02,-360.89 454.93,-350.31"/>
<polygon fill="#63b8ff" stroke="#63b8ff" points="455.75,-346.91 445.21,-347.99 454.12,-353.72 455.75,-346.91"/>
</g>
<!-- Node16&#45;&gt;Node15 -->
<g id="edge19" class="edge">
<title>Node16&#45;&gt;Node15</title>
<path fill="none" stroke="#63b8ff" d="M485.41,-384.51C472.48,-376.54 453.36,-364.75 438.15,-355.38"/>
<polygon fill="#63b8ff" stroke="#63b8ff" points="440.01,-352.42 429.66,-350.15 436.34,-358.38 440.01,-352.42"/>
</g>
<!-- Node17&#45;&gt;Node12 -->
<g id="edge21" class="edge">
<title>Node17&#45;&gt;Node12</title>
<path fill="none" stroke="#63b8ff" d="M751.22,-500.12C740.48,-491.27 723.75,-477.48 710.65,-466.69"/>
<polygon fill="#63b8ff" stroke="#63b8ff" points="713,-464.09 703.05,-460.43 708.55,-469.49 713,-464.09"/>
</g>
<!-- Node19 -->
<g id="node19" class="node">
<title>Node19</title>
<g id="a_node19"><a xlink:href="future_8h.html" target="_top" xlink:title=" ">
<polygon fill="white" stroke="#666666" points="1046.5,-580 927.5,-580 927.5,-561 1046.5,-561 1046.5,-580"/>
<text text-anchor="middle" x="987" y="-568" font-family="Helvetica,sans-Serif" font-size="10.00">Madgine/render/future.h</text>
</a>
</g>
</g>
<!-- Node18&#45;&gt;Node19 -->
<g id="edge23" class="edge">
<title>Node18&#45;&gt;Node19</title>
<path fill="none" stroke="#63b8ff" d="M987,-615.75C987,-609.27 987,-600.16 987,-591.9"/>
<polygon fill="#63b8ff" stroke="#63b8ff" points="990.5,-591.96 987,-581.96 983.5,-591.96 990.5,-591.96"/>
</g>
<!-- Node20 -->
<g id="node20" class="node">
<title>Node20</title>
<g id="a_node20"><a xlink:href="task_8h.html" target="_top" xlink:title=" ">
<polygon fill="white" stroke="#666666" points="1312.5,-580 1187.5,-580 1187.5,-561 1312.5,-561 1312.5,-580"/>
<text text-anchor="middle" x="1250" y="-568" font-family="Helvetica,sans-Serif" font-size="10.00">Modules/threading/task.h</text>
</a>
</g>
</g>
<!-- Node18&#45;&gt;Node20 -->
<g id="edge24" class="edge">
<title>Node18&#45;&gt;Node20</title>
<path fill="none" stroke="#63b8ff" d="M1022.47,-617.35C1066.62,-608.45 1142.53,-593.16 1194.43,-582.7"/>
<polygon fill="#63b8ff" stroke="#63b8ff" points="1194.85,-586.18 1203.96,-580.78 1193.47,-579.32 1194.85,-586.18"/>
</g>
<!-- Node21 -->
<g id="node21" class="node">
<title>Node21</title>
<g id="a_node21"><a xlink:href="src_2_generic_2coroutines_2handle_8h.html" target="_top" xlink:title=" ">
<polygon fill="white" stroke="#666666" points="1246,-525 1148,-525 1148,-495 1246,-495 1246,-525"/>
<text text-anchor="start" x="1156" y="-513" font-family="Helvetica,sans-Serif" font-size="10.00">Generic/coroutines</text>
<text text-anchor="middle" x="1197" y="-502" font-family="Helvetica,sans-Serif" font-size="10.00">/handle.h</text>
</a>
</g>
</g>
<!-- Node20&#45;&gt;Node21 -->
<g id="edge25" class="edge">
<title>Node20&#45;&gt;Node21</title>
<path fill="none" stroke="#63b8ff" d="M1242.18,-560.87C1235.65,-553.67 1226.05,-543.07 1217.38,-533.49"/>
<polygon fill="#63b8ff" stroke="#63b8ff" points="1220.11,-531.3 1210.8,-526.24 1214.92,-536 1220.11,-531.3"/>
</g>
<!-- Node22 -->
<g id="node22" class="node">
<title>Node22</title>
<g id="a_node22"><a xlink:href="taskpromise_8h.html" target="_top" xlink:title=" ">
<polygon fill="white" stroke="#666666" points="1341.5,-519.5 1264.5,-519.5 1264.5,-500.5 1341.5,-500.5 1341.5,-519.5"/>
<text text-anchor="middle" x="1303" y="-507.5" font-family="Helvetica,sans-Serif" font-size="10.00">taskpromise.h</text>
</a>
</g>
</g>
<!-- Node20&#45;&gt;Node22 -->
<g id="edge26" class="edge">
<title>Node20&#45;&gt;Node22</title>
<path fill="none" stroke="#63b8ff" d="M1257.82,-560.87C1265.65,-552.23 1277.9,-538.7 1287.67,-527.92"/>
<polygon fill="#63b8ff" stroke="#63b8ff" points="1290.01,-530.55 1294.13,-520.79 1284.82,-525.85 1290.01,-530.55"/>
</g>
<!-- Node23 -->
<g id="node23" class="node">
<title>Node23</title>
<g id="a_node23"><a xlink:href="taskfuture_8h.html" target="_top" xlink:title=" ">
<polygon fill="white" stroke="#666666" points="1337,-459 1269,-459 1269,-440 1337,-440 1337,-459"/>
<text text-anchor="middle" x="1303" y="-447" font-family="Helvetica,sans-Serif" font-size="10.00">taskfuture.h</text>
</a>
</g>
</g>
<!-- Node22&#45;&gt;Node23 -->
<g id="edge27" class="edge">
<title>Node22&#45;&gt;Node23</title>
<path fill="none" stroke="#63b8ff" d="M1303,-500.37C1303,-492.5 1303,-480.6 1303,-470.39"/>
<polygon fill="#63b8ff" stroke="#63b8ff" points="1306.5,-470.68 1303,-460.68 1299.5,-470.68 1306.5,-470.68"/>
</g>
<!-- Node24 -->
<g id="node24" class="node">
<title>Node24</title>
<g id="a_node24"><a xlink:href="taskhandle_8h.html" target="_top" xlink:title=" ">
<polygon fill="white" stroke="#666666" points="1418.5,-349 1347.5,-349 1347.5,-330 1418.5,-330 1418.5,-349"/>
<text text-anchor="middle" x="1383" y="-337" font-family="Helvetica,sans-Serif" font-size="10.00">taskhandle.h</text>
</a>
</g>
</g>
<!-- Node22&#45;&gt;Node24 -->
<g id="edge61" class="edge">
<title>Node22&#45;&gt;Node24</title>
<path fill="none" stroke="#63b8ff" d="M1312.5,-500.29C1322.17,-490.93 1337,-475.22 1346,-459 1363.89,-426.74 1374.4,-384.65 1379.4,-360.29"/>
<polygon fill="#63b8ff" stroke="#63b8ff" points="1382.77,-361.28 1381.23,-350.8 1375.9,-359.95 1382.77,-361.28"/>
</g>
<!-- Node34 -->
<g id="node34" class="node">
<title>Node34</title>
<g id="a_node34"><a xlink:href="execution_2concepts_8h.html" target="_top" xlink:title=" ">
<polygon fill="white" stroke="#666666" points="1488,-74 1424,-74 1424,-55 1488,-55 1488,-74"/>
<text text-anchor="middle" x="1456" y="-62" font-family="Helvetica,sans-Serif" font-size="10.00">concepts.h</text>
</a>
</g>
</g>
<!-- Node22&#45;&gt;Node34 -->
<g id="edge62" class="edge">
<title>Node22&#45;&gt;Node34</title>
<path fill="none" stroke="#63b8ff" d="M1273.74,-500.03C1195.79,-475.92 989,-410.55 989,-395.5 989,-395.5 989,-395.5 989,-173.5 989,-136.74 1009.59,-127.34 1042,-110 1105.27,-76.16 1319.35,-68.04 1412.31,-66.1"/>
<polygon fill="#63b8ff" stroke="#63b8ff" points="1412.11,-69.61 1422.04,-65.92 1411.98,-62.61 1412.11,-69.61"/>
</g>
<!-- Node23&#45;&gt;Node24 -->
<g id="edge28" class="edge">
<title>Node23&#45;&gt;Node24</title>
<path fill="none" stroke="#63b8ff" d="M1311.47,-439.62C1319.66,-430.87 1332.22,-416.96 1342,-404 1352.99,-389.43 1364.14,-371.96 1372.03,-359.03"/>
<polygon fill="#63b8ff" stroke="#63b8ff" points="1374.89,-361.07 1377.04,-350.7 1368.89,-357.46 1374.89,-361.07"/>
</g>
<!-- Node25 -->
<g id="node25" class="node">
<title>Node25</title>
<g id="a_node25"><a xlink:href="taskpromisesharedstate_8h.html" target="_top" xlink:title=" ">
<polygon fill="white" stroke="#666666" points="1333,-404 1205,-404 1205,-385 1333,-385 1333,-404"/>
<text text-anchor="middle" x="1269" y="-392" font-family="Helvetica,sans-Serif" font-size="10.00">taskpromisesharedstate.h</text>
</a>
</g>
</g>
<!-- Node23&#45;&gt;Node25 -->
<g id="edge29" class="edge">
<title>Node23&#45;&gt;Node25</title>
<path fill="none" stroke="#63b8ff" d="M1297.39,-439.75C1292.88,-432.73 1286.41,-422.64 1280.79,-413.87"/>
<polygon fill="#63b8ff" stroke="#63b8ff" points="1283.9,-412.24 1275.55,-405.72 1278.01,-416.02 1283.9,-412.24"/>
</g>
<!-- Node25&#45;&gt;Node24 -->
<g id="edge60" class="edge">
<title>Node25&#45;&gt;Node24</title>
<path fill="none" stroke="#63b8ff" d="M1288.34,-384.51C1306.22,-376.2 1333.04,-363.73 1353.57,-354.18"/>
<polygon fill="#63b8ff" stroke="#63b8ff" points="1354.98,-357.39 1362.57,-350 1352.03,-351.04 1354.98,-357.39"/>
</g>
<!-- Node26 -->
<g id="node26" class="node">
<title>Node26</title>
<g id="a_node26"><a xlink:href="flag_8h.html" target="_top" xlink:title=" ">
<polygon fill="white" stroke="#666666" points="1329,-349 1209,-349 1209,-330 1329,-330 1329,-349"/>
<text text-anchor="middle" x="1269" y="-337" font-family="Helvetica,sans-Serif" font-size="10.00">Generic/execution/flag.h</text>
</a>
</g>
</g>
<!-- Node25&#45;&gt;Node26 -->
<g id="edge30" class="edge">
<title>Node25&#45;&gt;Node26</title>
<path fill="none" stroke="#63b8ff" d="M1269,-384.75C1269,-378.27 1269,-369.16 1269,-360.9"/>
<polygon fill="#63b8ff" stroke="#63b8ff" points="1272.5,-360.96 1269,-350.96 1265.5,-360.96 1272.5,-360.96"/>
</g>
<!-- Node27 -->
<g id="node27" class="node">
<title>Node27</title>
<g id="a_node27"><a xlink:href="flagstub_8h.html" target="_top" xlink:title=" ">
<polygon fill="white" stroke="#666666" points="1473,-294 1415,-294 1415,-275 1473,-275 1473,-294"/>
<text text-anchor="middle" x="1444" y="-282" font-family="Helvetica,sans-Serif" font-size="10.00">flagstub.h</text>
</a>
</g>
</g>
<!-- Node26&#45;&gt;Node27 -->
<g id="edge31" class="edge">
<title>Node26&#45;&gt;Node27</title>
<path fill="none" stroke="#63b8ff" d="M1298.69,-329.51C1327.65,-320.74 1371.9,-307.34 1403.96,-297.62"/>
<polygon fill="#63b8ff" stroke="#63b8ff" points="1404.75,-301.05 1413.3,-294.8 1402.72,-294.35 1404.75,-301.05"/>
</g>
<!-- Node28 -->
<g id="node28" class="node">
<title>Node28</title>
<g id="a_node28"><a xlink:href="algorithm_8h.html" target="_top" xlink:title=" ">
<polygon fill="white" stroke="#666666" points="1274,-239 1210,-239 1210,-220 1274,-220 1274,-239"/>
<text text-anchor="middle" x="1242" y="-227" font-family="Helvetica,sans-Serif" font-size="10.00">algorithm.h</text>
</a>
</g>
</g>
<!-- Node27&#45;&gt;Node28 -->
<g id="edge32" class="edge">
<title>Node27&#45;&gt;Node28</title>
<path fill="none" stroke="#63b8ff" d="M1414.63,-275.79C1380.67,-266.88 1324.45,-252.13 1285.43,-241.9"/>
<polygon fill="#63b8ff" stroke="#63b8ff" points="1286.44,-238.54 1275.88,-239.39 1284.67,-245.31 1286.44,-238.54"/>
</g>
<!-- Node36 -->
<g id="node36" class="node">
<title>Node36</title>
<g id="a_node36"><a xlink:href="connection_8h.html" target="_top" xlink:title=" ">
<polygon fill="white" stroke="#666666" points="1789.5,-239 1718.5,-239 1718.5,-220 1789.5,-220 1789.5,-239"/>
<text text-anchor="middle" x="1754" y="-227" font-family="Helvetica,sans-Serif" font-size="10.00">connection.h</text>
</a>
</g>
</g>
<!-- Node27&#45;&gt;Node36 -->
<g id="edge40" class="edge">
<title>Node27&#45;&gt;Node36</title>
<path fill="none" stroke="#63b8ff" d="M1473.44,-278.47C1527.34,-269.25 1642.25,-249.61 1707.04,-238.53"/>
<polygon fill="#63b8ff" stroke="#63b8ff" points="1707.39,-242.02 1716.65,-236.88 1706.21,-235.12 1707.39,-242.02"/>
</g>
<!-- Node41 -->
<g id="node41" class="node">
<title>Node41</title>
<g id="a_node41"><a xlink:href="virtualsender_8h.html" target="_top" xlink:title=" ">
<polygon fill="white" stroke="#666666" points="1760,-184 1680,-184 1680,-165 1760,-165 1760,-184"/>
<text text-anchor="middle" x="1720" y="-172" font-family="Helvetica,sans-Serif" font-size="10.00">virtualsender.h</text>
</a>
</g>
</g>
<!-- Node27&#45;&gt;Node41 -->
<g id="edge58" class="edge">
<title>Node27&#45;&gt;Node41</title>
<path fill="none" stroke="#63b8ff" d="M1466.59,-274.66C1515.11,-255.68 1629.5,-210.91 1686.5,-188.61"/>
<polygon fill="#63b8ff" stroke="#63b8ff" points="1687.66,-191.92 1695.69,-185.01 1685.1,-185.4 1687.66,-191.92"/>
</g>
<!-- Node46 -->
<g id="node46" class="node">
<title>Node46</title>
<g id="a_node46"><a xlink:href="execution_8h.html" target="_top" xlink:title=" ">
<polygon fill="white" stroke="#666666" points="1524.5,-239 1459.5,-239 1459.5,-220 1524.5,-220 1524.5,-239"/>
<text text-anchor="middle" x="1492" y="-227" font-family="Helvetica,sans-Serif" font-size="10.00">execution.h</text>
</a>
</g>
</g>
<!-- Node27&#45;&gt;Node46 -->
<g id="edge53" class="edge">
<title>Node27&#45;&gt;Node46</title>
<path fill="none" stroke="#63b8ff" d="M1451.93,-274.75C1458.56,-267.43 1468.22,-256.76 1476.39,-247.74"/>
<polygon fill="#63b8ff" stroke="#63b8ff" points="1478.77,-250.33 1482.89,-240.56 1473.58,-245.63 1478.77,-250.33"/>
</g>
<!-- Node49 -->
<g id="node49" class="node">
<title>Node49</title>
<g id="a_node49"><a xlink:href="stack_8h.html" target="_top" xlink:title=" ">
<polygon fill="white" stroke="#666666" points="1441.5,-239 1350.5,-239 1350.5,-220 1441.5,-220 1441.5,-239"/>
<text text-anchor="middle" x="1396" y="-227" font-family="Helvetica,sans-Serif" font-size="10.00">container/stack.h</text>
</a>
</g>
</g>
<!-- Node27&#45;&gt;Node49 -->
<g id="edge59" class="edge">
<title>Node27&#45;&gt;Node49</title>
<path fill="none" stroke="#63b8ff" d="M1436.07,-274.75C1429.44,-267.43 1419.78,-256.76 1411.61,-247.74"/>
<polygon fill="#63b8ff" stroke="#63b8ff" points="1414.42,-245.63 1405.11,-240.56 1409.23,-250.33 1414.42,-245.63"/>
</g>
<!-- Node29 -->
<g id="node29" class="node">
<title>Node29</title>
<g id="a_node29"><a xlink:href="delayedconstruct_8h.html" target="_top" xlink:title=" ">
<polygon fill="white" stroke="#666666" points="1353.5,-184 1248.5,-184 1248.5,-165 1353.5,-165 1353.5,-184"/>
<text text-anchor="middle" x="1301" y="-172" font-family="Helvetica,sans-Serif" font-size="10.00">../delayedconstruct.h</text>
</a>
</g>
</g>
<!-- Node28&#45;&gt;Node29 -->
<g id="edge33" class="edge">
<title>Node28&#45;&gt;Node29</title>
<path fill="none" stroke="#63b8ff" d="M1252.01,-219.51C1260.37,-212 1272.5,-201.1 1282.6,-192.03"/>
<polygon fill="#63b8ff" stroke="#63b8ff" points="1284.91,-194.66 1290.01,-185.37 1280.24,-189.45 1284.91,-194.66"/>
</g>
<!-- Node31 -->
<g id="node31" class="node">
<title>Node31</title>
<g id="a_node31"><a xlink:href="manuallifetime_8h.html" target="_top" xlink:title=" ">
<polygon fill="white" stroke="#666666" points="1230.5,-184 1135.5,-184 1135.5,-165 1230.5,-165 1230.5,-184"/>
<text text-anchor="middle" x="1183" y="-172" font-family="Helvetica,sans-Serif" font-size="10.00">../manuallifetime.h</text>
</a>
</g>
</g>
<!-- Node28&#45;&gt;Node31 -->
<g id="edge35" class="edge">
<title>Node28&#45;&gt;Node31</title>
<path fill="none" stroke="#63b8ff" d="M1231.99,-219.51C1223.63,-212 1211.5,-201.1 1201.4,-192.03"/>
<polygon fill="#63b8ff" stroke="#63b8ff" points="1203.76,-189.45 1193.99,-185.37 1199.09,-194.66 1203.76,-189.45"/>
</g>
<!-- Node32 -->
<g id="node32" class="node">
<title>Node32</title>
<g id="a_node32"><a xlink:href="pipable_8h.html" target="_top" xlink:title=" ">
<polygon fill="white" stroke="#666666" points="1117,-184 1055,-184 1055,-165 1117,-165 1117,-184"/>
<text text-anchor="middle" x="1086" y="-172" font-family="Helvetica,sans-Serif" font-size="10.00">../pipable.h</text>
</a>
</g>
</g>
<!-- Node28&#45;&gt;Node32 -->
<g id="edge36" class="edge">
<title>Node28&#45;&gt;Node32</title>
<path fill="none" stroke="#63b8ff" d="M1215.54,-219.51C1190.14,-210.88 1151.53,-197.76 1123.08,-188.1"/>
<polygon fill="#63b8ff" stroke="#63b8ff" points="1124.36,-184.84 1113.77,-184.93 1122.11,-191.46 1124.36,-184.84"/>
</g>
<!-- Node28&#45;&gt;Node34 -->
<g id="edge38" class="edge">
<title>Node28&#45;&gt;Node34</title>
<path fill="none" stroke="#63b8ff" d="M1209.78,-225.95C1159.53,-221.23 1066.14,-209.22 1046,-184 1032.54,-167.15 1038.25,-128.39 1059,-110 1085.06,-86.9 1314.57,-72.66 1412.27,-67.59"/>
<polygon fill="#63b8ff" stroke="#63b8ff" points="1412.19,-71.1 1422,-67.1 1411.83,-64.11 1412.19,-71.1"/>
</g>
<!-- Node35 -->
<g id="node35" class="node">
<title>Node35</title>
<g id="a_node35"><a xlink:href="storage_8h.html" target="_top" xlink:title=" ">
<polygon fill="white" stroke="#666666" points="1428,-184 1372,-184 1372,-165 1428,-165 1428,-184"/>
<text text-anchor="middle" x="1400" y="-172" font-family="Helvetica,sans-Serif" font-size="10.00">storage.h</text>
</a>
</g>
</g>
<!-- Node28&#45;&gt;Node35 -->
<g id="edge39" class="edge">
<title>Node28&#45;&gt;Node35</title>
<path fill="none" stroke="#63b8ff" d="M1268.8,-219.51C1294.53,-210.88 1333.63,-197.76 1362.45,-188.1"/>
<polygon fill="#63b8ff" stroke="#63b8ff" points="1363.53,-191.43 1371.9,-184.93 1361.3,-184.79 1363.53,-191.43"/>
</g>
<!-- Node30 -->
<g id="node30" class="node">
<title>Node30</title>
<g id="a_node30"><a xlink:href="closure_8h.html" target="_top" xlink:title=" ">
<polygon fill="white" stroke="#666666" points="1329,-129 1273,-129 1273,-110 1329,-110 1329,-129"/>
<text text-anchor="middle" x="1301" y="-117" font-family="Helvetica,sans-Serif" font-size="10.00">closure.h</text>
</a>
</g>
</g>
<!-- Node29&#45;&gt;Node30 -->
<g id="edge34" class="edge">
<title>Node29&#45;&gt;Node30</title>
<path fill="none" stroke="#63b8ff" d="M1301,-164.75C1301,-158.27 1301,-149.16 1301,-140.9"/>
<polygon fill="#63b8ff" stroke="#63b8ff" points="1304.5,-140.96 1301,-130.96 1297.5,-140.96 1304.5,-140.96"/>
</g>
<!-- Node33 -->
<g id="node33" class="node">
<title>Node33</title>
<g id="a_node33"><a xlink:href="lift_8h.html" target="_top" xlink:title=" ">
<polygon fill="white" stroke="#666666" points="1103.5,-129 1068.5,-129 1068.5,-110 1103.5,-110 1103.5,-129"/>
<text text-anchor="middle" x="1086" y="-117" font-family="Helvetica,sans-Serif" font-size="10.00">lift.h</text>
</a>
</g>
</g>
<!-- Node32&#45;&gt;Node33 -->
<g id="edge37" class="edge">
<title>Node32&#45;&gt;Node33</title>
<path fill="none" stroke="#63b8ff" d="M1086,-164.75C1086,-158.27 1086,-149.16 1086,-140.9"/>
<polygon fill="#63b8ff" stroke="#63b8ff" points="1089.5,-140.96 1086,-130.96 1082.5,-140.96 1089.5,-140.96"/>
</g>
<!-- Node37 -->
<g id="node37" class="node">
<title>Node37</title>
<g id="a_node37"><a xlink:href="genericresult_8h.html" target="_top" xlink:title=" ">
<polygon fill="white" stroke="#666666" points="1903.5,-184 1816.5,-184 1816.5,-165 1903.5,-165 1903.5,-184"/>
<text text-anchor="middle" x="1860" y="-172" font-family="Helvetica,sans-Serif" font-size="10.00">../genericresult.h</text>
</a>
</g>
</g>
<!-- Node36&#45;&gt;Node37 -->
<g id="edge41" class="edge">
<title>Node36&#45;&gt;Node37</title>
<path fill="none" stroke="#63b8ff" d="M1771.98,-219.51C1788.45,-211.27 1813.09,-198.96 1832.11,-189.45"/>
<polygon fill="#63b8ff" stroke="#63b8ff" points="1833.55,-192.64 1840.93,-185.03 1830.42,-186.38 1833.55,-192.64"/>
</g>
<!-- Node36&#45;&gt;Node41 -->
<g id="edge45" class="edge">
<title>Node36&#45;&gt;Node41</title>
<path fill="none" stroke="#63b8ff" d="M1748.39,-219.75C1743.88,-212.73 1737.41,-202.64 1731.79,-193.87"/>
<polygon fill="#63b8ff" stroke="#63b8ff" points="1734.9,-192.24 1726.55,-185.72 1729.01,-196.02 1734.9,-192.24"/>
</g>
<!-- Node43 -->
<g id="node43" class="node">
<title>Node43</title>
<g id="a_node43"><a xlink:href="virtualstate_8h.html" target="_top" xlink:title=" ">
<polygon fill="white" stroke="#666666" points="1756,-129 1684,-129 1684,-110 1756,-110 1756,-129"/>
<text text-anchor="middle" x="1720" y="-117" font-family="Helvetica,sans-Serif" font-size="10.00">virtualstate.h</text>
</a>
</g>
</g>
<!-- Node36&#45;&gt;Node43 -->
<g id="edge52" class="edge">
<title>Node36&#45;&gt;Node43</title>
<path fill="none" stroke="#63b8ff" d="M1759.6,-219.54C1766.72,-206.94 1777.16,-183.44 1769,-165 1763.84,-153.34 1753.94,-143.42 1744.38,-135.93"/>
<polygon fill="#63b8ff" stroke="#63b8ff" points="1746.52,-133.16 1736.36,-130.16 1742.43,-138.84 1746.52,-133.16"/>
</g>
<!-- Node38 -->
<g id="node38" class="node">
<title>Node38</title>
<g id="a_node38"><a xlink:href="enum_8h.html" target="_top" xlink:title=" ">
<polygon fill="white" stroke="#666666" points="1884,-129 1836,-129 1836,-110 1884,-110 1884,-129"/>
<text text-anchor="middle" x="1860" y="-117" font-family="Helvetica,sans-Serif" font-size="10.00">enum.h</text>
</a>
</g>
</g>
<!-- Node37&#45;&gt;Node38 -->
<g id="edge42" class="edge">
<title>Node37&#45;&gt;Node38</title>
<path fill="none" stroke="#63b8ff" d="M1860,-164.75C1860,-158.27 1860,-149.16 1860,-140.9"/>
<polygon fill="#63b8ff" stroke="#63b8ff" points="1863.5,-140.96 1860,-130.96 1856.5,-140.96 1863.5,-140.96"/>
</g>
<!-- Node39 -->
<g id="node39" class="node">
<title>Node39</title>
<g id="a_node39"><a xlink:href="array_8h.html" target="_top" xlink:title=" ">
<polygon fill="white" stroke="#666666" points="1892,-74 1828,-74 1828,-55 1892,-55 1892,-74"/>
<text text-anchor="middle" x="1860" y="-62" font-family="Helvetica,sans-Serif" font-size="10.00">bits/array.h</text>
</a>
</g>
</g>
<!-- Node38&#45;&gt;Node39 -->
<g id="edge43" class="edge">
<title>Node38&#45;&gt;Node39</title>
<path fill="none" stroke="#63b8ff" d="M1860,-109.75C1860,-103.27 1860,-94.16 1860,-85.9"/>
<polygon fill="#63b8ff" stroke="#63b8ff" points="1863.5,-85.96 1860,-75.96 1856.5,-85.96 1863.5,-85.96"/>
</g>
<!-- Node40 -->
<g id="node40" class="node">
<title>Node40</title>
<g id="a_node40"><a xlink:href="types_8h.html" target="_top" xlink:title=" ">
<polygon fill="white" stroke="#666666" points="1883.5,-19 1836.5,-19 1836.5,0 1883.5,0 1883.5,-19"/>
<text text-anchor="middle" x="1860" y="-7" font-family="Helvetica,sans-Serif" font-size="10.00">types.h</text>
</a>
</g>
</g>
<!-- Node39&#45;&gt;Node40 -->
<g id="edge44" class="edge">
<title>Node39&#45;&gt;Node40</title>
<path fill="none" stroke="#63b8ff" d="M1860,-54.75C1860,-48.27 1860,-39.16 1860,-30.9"/>
<polygon fill="#63b8ff" stroke="#63b8ff" points="1863.5,-30.96 1860,-20.96 1856.5,-30.96 1863.5,-30.96"/>
</g>
<!-- Node42 -->
<g id="node42" class="node">
<title>Node42</title>
<g id="a_node42"><a xlink:href="src_2_generic_2execution_2sender_8h.html" target="_top" xlink:title=" ">
<polygon fill="white" stroke="#666666" points="1601.5,-129 1548.5,-129 1548.5,-110 1601.5,-110 1601.5,-129"/>
<text text-anchor="middle" x="1575" y="-117" font-family="Helvetica,sans-Serif" font-size="10.00">sender.h</text>
</a>
</g>
</g>
<!-- Node41&#45;&gt;Node42 -->
<g id="edge46" class="edge">
<title>Node41&#45;&gt;Node42</title>
<path fill="none" stroke="#63b8ff" d="M1695.4,-164.51C1671.93,-155.93 1636.33,-142.92 1609.93,-133.27"/>
<polygon fill="#63b8ff" stroke="#63b8ff" points="1611.25,-130.02 1600.66,-129.88 1608.85,-136.6 1611.25,-130.02"/>
</g>
<!-- Node41&#45;&gt;Node43 -->
<g id="edge48" class="edge">
<title>Node41&#45;&gt;Node43</title>
<path fill="none" stroke="#63b8ff" d="M1720,-164.75C1720,-158.27 1720,-149.16 1720,-140.9"/>
<polygon fill="#63b8ff" stroke="#63b8ff" points="1723.5,-140.96 1720,-130.96 1716.5,-140.96 1723.5,-140.96"/>
</g>
<!-- Node42&#45;&gt;Node34 -->
<g id="edge47" class="edge">
<title>Node42&#45;&gt;Node34</title>
<path fill="none" stroke="#63b8ff" d="M1554.81,-109.51C1535.98,-101.12 1507.63,-88.5 1486.13,-78.92"/>
<polygon fill="#63b8ff" stroke="#63b8ff" points="1487.83,-75.85 1477.27,-74.97 1484.98,-82.24 1487.83,-75.85"/>
</g>
<!-- Node43&#45;&gt;Node34 -->
<g id="edge49" class="edge">
<title>Node43&#45;&gt;Node34</title>
<path fill="none" stroke="#63b8ff" d="M1683.57,-111.19C1635.44,-101.52 1550.77,-84.53 1499.39,-74.21"/>
<polygon fill="#63b8ff" stroke="#63b8ff" points="1500.31,-70.83 1489.82,-72.29 1498.93,-77.69 1500.31,-70.83"/>
</g>
<!-- Node44 -->
<g id="node44" class="node">
<title>Node44</title>
<g id="a_node44"><a xlink:href="virtual__invoke_8h.html" target="_top" xlink:title=" ">
<polygon fill="white" stroke="#666666" points="1780.5,-74 1659.5,-74 1659.5,-55 1780.5,-55 1780.5,-74"/>
<text text-anchor="middle" x="1720" y="-62" font-family="Helvetica,sans-Serif" font-size="10.00">Generic/virtual_invoke.h</text>
</a>
</g>
</g>
<!-- Node43&#45;&gt;Node44 -->
<g id="edge50" class="edge">
<title>Node43&#45;&gt;Node44</title>
<path fill="none" stroke="#63b8ff" d="M1720,-109.75C1720,-103.27 1720,-94.16 1720,-85.9"/>
<polygon fill="#63b8ff" stroke="#63b8ff" points="1723.5,-85.96 1720,-75.96 1716.5,-85.96 1723.5,-85.96"/>
</g>
<!-- Node45 -->
<g id="node45" class="node">
<title>Node45</title>
<g id="a_node45"><a xlink:href="callable__traits_8h.html" target="_top" xlink:title=" ">
<polygon fill="white" stroke="#666666" points="1762,-19 1678,-19 1678,0 1762,0 1762,-19"/>
<text text-anchor="middle" x="1720" y="-7" font-family="Helvetica,sans-Serif" font-size="10.00">callable_traits.h</text>
</a>
</g>
</g>
<!-- Node44&#45;&gt;Node45 -->
<g id="edge51" class="edge">
<title>Node44&#45;&gt;Node45</title>
<path fill="none" stroke="#63b8ff" d="M1720,-54.75C1720,-48.27 1720,-39.16 1720,-30.9"/>
<polygon fill="#63b8ff" stroke="#63b8ff" points="1723.5,-30.96 1720,-20.96 1716.5,-30.96 1723.5,-30.96"/>
</g>
<!-- Node46&#45;&gt;Node34 -->
<g id="edge56" class="edge">
<title>Node46&#45;&gt;Node34</title>
<path fill="none" stroke="#63b8ff" d="M1488.07,-219.81C1484.21,-210.97 1478.43,-196.78 1475,-184 1465.89,-150.04 1460.54,-109.36 1457.94,-85.58"/>
<polygon fill="#63b8ff" stroke="#63b8ff" points="1461.44,-85.35 1456.94,-75.76 1454.48,-86.06 1461.44,-85.35"/>
</g>
<!-- Node46&#45;&gt;Node35 -->
<g id="edge57" class="edge">
<title>Node46&#45;&gt;Node35</title>
<path fill="none" stroke="#63b8ff" d="M1476.39,-219.51C1462.3,-211.39 1441.31,-199.3 1424.9,-189.85"/>
<polygon fill="#63b8ff" stroke="#63b8ff" points="1427.1,-187.07 1416.69,-185.11 1423.61,-193.14 1427.1,-187.07"/>
</g>
<!-- Node47 -->
<g id="node47" class="node">
<title>Node47</title>
<g id="a_node47"><a xlink:href="makeowning_8h.html" target="_top" xlink:title=" ">
<polygon fill="white" stroke="#666666" points="1570,-184 1484,-184 1484,-165 1570,-165 1570,-184"/>
<text text-anchor="middle" x="1527" y="-172" font-family="Helvetica,sans-Serif" font-size="10.00">../makeowning.h</text>
</a>
</g>
</g>
<!-- Node46&#45;&gt;Node47 -->
<g id="edge54" class="edge">
<title>Node46&#45;&gt;Node47</title>
<path fill="none" stroke="#63b8ff" d="M1497.78,-219.75C1502.41,-212.73 1509.07,-202.64 1514.87,-193.87"/>
<polygon fill="#63b8ff" stroke="#63b8ff" points="1517.67,-195.98 1520.26,-185.71 1511.83,-192.12 1517.67,-195.98"/>
</g>
<!-- Node48 -->
<g id="node48" class="node">
<title>Node48</title>
<g id="a_node48"><a xlink:href="withresult_8h.html" target="_top" xlink:title=" ">
<polygon fill="white" stroke="#666666" points="1662,-184 1588,-184 1588,-165 1662,-165 1662,-184"/>
<text text-anchor="middle" x="1625" y="-172" font-family="Helvetica,sans-Serif" font-size="10.00">../withresult.h</text>
</a>
</g>
</g>
<!-- Node46&#45;&gt;Node48 -->
<g id="edge55" class="edge">
<title>Node46&#45;&gt;Node48</title>
<path fill="none" stroke="#63b8ff" d="M1514.56,-219.51C1535.9,-211.01 1568.16,-198.15 1592.31,-188.53"/>
<polygon fill="#63b8ff" stroke="#63b8ff" points="1593.37,-191.87 1601.37,-184.92 1590.78,-185.37 1593.37,-191.87"/>
</g>
<!-- Node51 -->
<g id="node51" class="node">
<title>Node51</title>
<g id="a_node51"><a xlink:href="nulledptr_8h.html" target="_top" xlink:title=" ">
<polygon fill="white" stroke="#666666" points="111,-635 13,-635 13,-616 111,-616 111,-635"/>
<text text-anchor="middle" x="62" y="-623" font-family="Helvetica,sans-Serif" font-size="10.00">Generic/nulledptr.h</text>
</a>
</g>
</g>
<!-- Node50&#45;&gt;Node51 -->
<g id="edge64" class="edge">
<title>Node50&#45;&gt;Node51</title>
<path fill="none" stroke="#63b8ff" d="M62,-670.75C62,-664.27 62,-655.16 62,-646.9"/>
<polygon fill="#63b8ff" stroke="#63b8ff" points="65.5,-646.96 62,-636.96 58.5,-646.96 65.5,-646.96"/>
</g>
<!-- Node52 -->
<g id="node52" class="node">
<title>Node52</title>
<g id="a_node52"><a xlink:href="any_8h.html" target="_top" xlink:title=" ">
<polygon fill="white" stroke="#666666" points="121,-580 45,-580 45,-561 121,-561 121,-580"/>
<text text-anchor="middle" x="83" y="-568" font-family="Helvetica,sans-Serif" font-size="10.00">Generic/any.h</text>
</a>
</g>
</g>
<!-- Node50&#45;&gt;Node52 -->
<g id="edge65" class="edge">
<title>Node50&#45;&gt;Node52</title>
<path fill="none" stroke="#63b8ff" d="M43.18,-670.64C21.68,-659.22 -8.96,-638.17 4,-616 12.31,-601.78 27.02,-591.75 41.51,-584.87"/>
<polygon fill="#63b8ff" stroke="#63b8ff" points="42.73,-588.15 50.54,-580.99 39.97,-581.72 42.73,-588.15"/>
</g>
<!-- Node53 -->
<g id="node53" class="node">
<title>Node53</title>
<g id="a_node53"><a xlink:href="inheritable_8h.html" target="_top" xlink:title=" ">
<polygon fill="white" stroke="#666666" points="117,-519.5 49,-519.5 49,-500.5 117,-500.5 117,-519.5"/>
<text text-anchor="middle" x="83" y="-507.5" font-family="Helvetica,sans-Serif" font-size="10.00">inheritable.h</text>
</a>
</g>
</g>
<!-- Node52&#45;&gt;Node53 -->
<g id="edge66" class="edge">
<title>Node52&#45;&gt;Node53</title>
<path fill="none" stroke="#63b8ff" d="M83,-560.87C83,-553 83,-541.1 83,-530.89"/>
<polygon fill="#63b8ff" stroke="#63b8ff" points="86.5,-531.18 83,-521.18 79.5,-531.18 86.5,-531.18"/>
</g>
<!-- Node54&#45;&gt;Node7 -->
<g id="edge75" class="edge">
<title>Node54&#45;&gt;Node7</title>
<path fill="none" stroke="#63b8ff" d="M419.65,-670.66C450.33,-652.15 521.62,-609.13 559.43,-586.32"/>
<polygon fill="#63b8ff" stroke="#63b8ff" points="561.1,-589.4 567.85,-581.24 557.48,-583.41 561.1,-589.4"/>
</g>
<!-- Node54&#45;&gt;Node15 -->
<g id="edge68" class="edge">
<title>Node54&#45;&gt;Node15</title>
<path fill="none" stroke="#63b8ff" d="M371.6,-670.56C329.06,-656.92 261,-626.5 261,-571.5 261,-571.5 261,-571.5 261,-448.5 261,-393.5 327.81,-364.03 373.13,-350.36"/>
<polygon fill="#63b8ff" stroke="#63b8ff" points="374.03,-353.75 382.68,-347.64 372.1,-347.02 374.03,-353.75"/>
</g>
<!-- Node55 -->
<g id="node55" class="node">
<title>Node55</title>
<g id="a_node55"><a xlink:href="texture_8h.html" target="_top" xlink:title=" ">
<polygon fill="white" stroke="#666666" points="466.5,-635 343.5,-635 343.5,-616 466.5,-616 466.5,-635"/>
<text text-anchor="middle" x="405" y="-623" font-family="Helvetica,sans-Serif" font-size="10.00">Madgine/render/texture.h</text>
</a>
</g>
</g>
<!-- Node54&#45;&gt;Node55 -->
<g id="edge69" class="edge">
<title>Node54&#45;&gt;Node55</title>
<path fill="none" stroke="#63b8ff" d="M405,-670.75C405,-664.27 405,-655.16 405,-646.9"/>
<polygon fill="#63b8ff" stroke="#63b8ff" points="408.5,-646.96 405,-636.96 401.5,-646.96 408.5,-646.96"/>
</g>
<!-- Node56 -->
<g id="node56" class="node">
<title>Node56</title>
<g id="a_node56"><a xlink:href="bytebuffer_8h.html" target="_top" xlink:title=" ">
<polygon fill="white" stroke="#666666" points="232.5,-635 129.5,-635 129.5,-616 232.5,-616 232.5,-635"/>
<text text-anchor="middle" x="181" y="-623" font-family="Helvetica,sans-Serif" font-size="10.00">Generic/bytebuffer.h</text>
</a>
</g>
</g>
<!-- Node54&#45;&gt;Node56 -->
<g id="edge73" class="edge">
<title>Node54&#45;&gt;Node56</title>
<path fill="none" stroke="#63b8ff" d="M367,-670.51C329.24,-661.57 271.15,-647.83 229.95,-638.08"/>
<polygon fill="#63b8ff" stroke="#63b8ff" points="230.82,-634.69 220.28,-635.79 229.21,-641.5 230.82,-634.69"/>
</g>
<!-- Node55&#45;&gt;Node4 -->
<g id="edge71" class="edge">
<title>Node55&#45;&gt;Node4</title>
<path fill="none" stroke="#63b8ff" d="M405,-615.75C405,-609.27 405,-600.16 405,-591.9"/>
<polygon fill="#63b8ff" stroke="#63b8ff" points="408.5,-591.96 405,-581.96 401.5,-591.96 408.5,-591.96"/>
</g>
<!-- Node55&#45;&gt;Node7 -->
<g id="edge70" class="edge">
<title>Node55&#45;&gt;Node7</title>
<path fill="none" stroke="#63b8ff" d="M435.36,-615.51C464.9,-606.76 509.98,-593.42 542.75,-583.71"/>
<polygon fill="#63b8ff" stroke="#63b8ff" points="543.74,-587.07 552.33,-580.88 541.75,-580.36 543.74,-587.07"/>
</g>
<!-- Node55&#45;&gt;Node15 -->
<g id="edge72" class="edge">
<title>Node55&#45;&gt;Node15</title>
<path fill="none" stroke="#63b8ff" d="M373.49,-615.52C354.83,-608.65 332.14,-597.37 318,-580 297.92,-555.33 299,-542.81 299,-511 299,-511 299,-511 299,-448.5 299,-402.95 347.53,-371.01 381.54,-354.21"/>
<polygon fill="#63b8ff" stroke="#63b8ff" points="382.63,-357.56 390.18,-350.13 379.65,-351.23 382.63,-357.56"/>
</g>
<!-- Node56&#45;&gt;Node52 -->
<g id="edge74" class="edge">
<title>Node56&#45;&gt;Node52</title>
<path fill="none" stroke="#63b8ff" d="M164.38,-615.51C149.22,-607.31 126.58,-595.07 109.03,-585.58"/>
<polygon fill="#63b8ff" stroke="#63b8ff" points="111.17,-582.76 100.71,-581.08 107.84,-588.91 111.17,-582.76"/>
</g>
<!-- Node57&#45;&gt;Node17 -->
<g id="edge79" class="edge">
<title>Node57&#45;&gt;Node17</title>
<path fill="none" stroke="#63b8ff" d="M1064.24,-560.81C992.41,-548.97 865.49,-528.05 801.39,-517.49"/>
<polygon fill="#63b8ff" stroke="#63b8ff" points="802.11,-514.06 791.68,-515.89 800.97,-520.97 802.11,-514.06"/>
</g>
<!-- Node58 -->
<g id="node58" class="node">
<title>Node58</title>
<g id="a_node58"><a xlink:href="matrix3_8h.html" target="_top" xlink:title=" ">
<polygon fill="white" stroke="#666666" points="1010,-519.5 954,-519.5 954,-500.5 1010,-500.5 1010,-519.5"/>
<text text-anchor="middle" x="982" y="-507.5" font-family="Helvetica,sans-Serif" font-size="10.00">matrix3.h</text>
</a>
</g>
</g>
<!-- Node57&#45;&gt;Node58 -->
<g id="edge77" class="edge">
<title>Node57&#45;&gt;Node58</title>
<path fill="none" stroke="#63b8ff" d="M1096.5,-560.62C1074.29,-550.99 1038.63,-535.54 1013,-524.43"/>
<polygon fill="#63b8ff" stroke="#63b8ff" points="1014.65,-521.33 1004.09,-520.57 1011.87,-527.76 1014.65,-521.33"/>
</g>
<!-- Node58&#45;&gt;Node12 -->
<g id="edge78" class="edge">
<title>Node58&#45;&gt;Node12</title>
<path fill="none" stroke="#63b8ff" d="M953.57,-503.28C901.28,-492.77 789.77,-470.36 730.29,-458.4"/>
<polygon fill="#63b8ff" stroke="#63b8ff" points="731.1,-454.99 720.6,-456.45 729.72,-461.85 731.1,-454.99"/>
</g>
</g>
</svg>
