<?xml version="1.0" encoding="UTF-8" standalone="no"?>
<!DOCTYPE svg PUBLIC "-//W3C//DTD SVG 1.1//EN"
 "http://www.w3.org/Graphics/SVG/1.1/DTD/svg11.dtd">
<!-- Generated by graphviz version 7.0.5 (20221223.1930)
 -->
<!-- Title: src/Interfaces/window/windowsettings.h Pages: 1 -->
<svg width="1885pt" height="181pt"
 viewBox="0.00 0.00 1885.00 181.00" xmlns="http://www.w3.org/2000/svg" xmlns:xlink="http://www.w3.org/1999/xlink">
<g id="graph0" class="graph" transform="scale(1 1) rotate(0) translate(4 177)">
<title>src/Interfaces/window/windowsettings.h</title>
<!-- Node1 -->
<g id="node1" class="node">
<title>Node1</title>
<g id="a_node1"><a xlink:title=" ">
<polygon fill="#999999" stroke="#666666" points="1072,-173 959,-173 959,-143 1072,-143 1072,-173"/>
<text text-anchor="start" x="967" y="-161" font-family="Helvetica,sans-Serif" font-size="10.00">src/Interfaces/window</text>
<text text-anchor="middle" x="1015.5" y="-150" font-family="Helvetica,sans-Serif" font-size="10.00">/windowsettings.h</text>
</a>
</g>
</g>
<!-- Node2 -->
<g id="node2" class="node">
<title>Node2</title>
<g id="a_node2"><a xlink:href="mainwindow_8cpp.html" target="_top" xlink:title=" ">
<polygon fill="white" stroke="#666666" points="109,-41 0,-41 0,0 109,0 109,-41"/>
<text text-anchor="start" x="8" y="-29" font-family="Helvetica,sans-Serif" font-size="10.00">plugins/client/api</text>
<text text-anchor="start" x="8" y="-18" font-family="Helvetica,sans-Serif" font-size="10.00">/src/Madgine/window</text>
<text text-anchor="middle" x="54.5" y="-7" font-family="Helvetica,sans-Serif" font-size="10.00">/mainwindow.cpp</text>
</a>
</g>
</g>
<!-- Node1&#45;&gt;Node2 -->
<g id="edge1" class="edge">
<title>Node1&#45;&gt;Node2</title>
<path fill="none" stroke="#63b8ff" d="M947.37,-152.21C796.49,-140.74 423.27,-107.55 117.5,-41 114.81,-40.42 112.08,-39.77 109.33,-39.08"/>
<polygon fill="#63b8ff" stroke="#63b8ff" points="946.97,-155.69 957.2,-152.95 947.49,-148.71 946.97,-155.69"/>
</g>
<!-- Node3 -->
<g id="node3" class="node">
<title>Node3</title>
<g id="a_node3"><a xlink:href="windowapi_8h.html" target="_top" xlink:title=" ">
<polygon fill="white" stroke="#666666" points="1030,-107 917,-107 917,-77 1030,-77 1030,-107"/>
<text text-anchor="start" x="925" y="-95" font-family="Helvetica,sans-Serif" font-size="10.00">src/Interfaces/window</text>
<text text-anchor="middle" x="973.5" y="-84" font-family="Helvetica,sans-Serif" font-size="10.00">/windowapi.h</text>
</a>
</g>
</g>
<!-- Node1&#45;&gt;Node3 -->
<g id="edge2" class="edge">
<title>Node1&#45;&gt;Node3</title>
<path fill="none" stroke="#63b8ff" d="M1000.01,-133.39C994.23,-124.59 987.85,-114.86 982.8,-107.16"/>
<polygon fill="#63b8ff" stroke="#63b8ff" points="996.94,-135.09 1005.35,-141.53 1002.79,-131.25 996.94,-135.09"/>
</g>
<!-- Node13 -->
<g id="node13" class="node">
<title>Node13</title>
<g id="a_node13"><a xlink:href="windowapi__ios_8mm.html" target="_top" xlink:title=" ">
<polygon fill="white" stroke="#666666" points="1746,-35.5 1633,-35.5 1633,-5.5 1746,-5.5 1746,-35.5"/>
<text text-anchor="start" x="1641" y="-23.5" font-family="Helvetica,sans-Serif" font-size="10.00">src/Interfaces/window</text>
<text text-anchor="middle" x="1689.5" y="-12.5" font-family="Helvetica,sans-Serif" font-size="10.00">/windowapi_ios.mm</text>
</a>
</g>
</g>
<!-- Node1&#45;&gt;Node13 -->
<g id="edge15" class="edge">
<title>Node1&#45;&gt;Node13</title>
<path fill="none" stroke="#63b8ff" d="M1083.69,-146.25C1196.65,-127.94 1429.39,-88.07 1623.5,-41 1629.77,-39.48 1636.33,-37.73 1642.78,-35.92"/>
<polygon fill="#63b8ff" stroke="#63b8ff" points="1083.29,-142.77 1073.98,-147.82 1084.41,-149.68 1083.29,-142.77"/>
</g>
<!-- Node14 -->
<g id="node14" class="node">
<title>Node14</title>
<g id="a_node14"><a xlink:href="windowapi__osx_8mm.html" target="_top" xlink:title=" ">
<polygon fill="white" stroke="#666666" points="1877,-35.5 1764,-35.5 1764,-5.5 1877,-5.5 1877,-35.5"/>
<text text-anchor="start" x="1772" y="-23.5" font-family="Helvetica,sans-Serif" font-size="10.00">src/Interfaces/window</text>
<text text-anchor="middle" x="1820.5" y="-12.5" font-family="Helvetica,sans-Serif" font-size="10.00">/windowapi_osx.mm</text>
</a>
</g>
</g>
<!-- Node1&#45;&gt;Node14 -->
<g id="edge16" class="edge">
<title>Node1&#45;&gt;Node14</title>
<path fill="none" stroke="#63b8ff" d="M1083.72,-150.08C1215.05,-135.92 1511.64,-99.94 1755.5,-41 1761.68,-39.51 1768.15,-37.77 1774.51,-35.97"/>
<polygon fill="#63b8ff" stroke="#63b8ff" points="1083.36,-146.6 1073.79,-151.14 1084.1,-153.56 1083.36,-146.6"/>
</g>
<!-- Node3&#45;&gt;Node2 -->
<g id="edge3" class="edge">
<title>Node3&#45;&gt;Node2</title>
<path fill="none" stroke="#63b8ff" d="M905.24,-89.14C730.15,-84.04 268.28,-68.32 117.5,-41 114.8,-40.51 112.05,-39.94 109.28,-39.31"/>
<polygon fill="#63b8ff" stroke="#63b8ff" points="904.99,-92.64 915.09,-89.43 905.19,-85.64 904.99,-92.64"/>
</g>
<!-- Node4 -->
<g id="node4" class="node">
<title>Node4</title>
<g id="a_node4"><a xlink:href="toolwindow_8cpp.html" target="_top" xlink:title=" ">
<polygon fill="white" stroke="#666666" points="236,-41 127,-41 127,0 236,0 236,-41"/>
<text text-anchor="start" x="135" y="-29" font-family="Helvetica,sans-Serif" font-size="10.00">plugins/client/api</text>
<text text-anchor="start" x="135" y="-18" font-family="Helvetica,sans-Serif" font-size="10.00">/src/Madgine/window</text>
<text text-anchor="middle" x="181.5" y="-7" font-family="Helvetica,sans-Serif" font-size="10.00">/toolwindow.cpp</text>
</a>
</g>
</g>
<!-- Node3&#45;&gt;Node4 -->
<g id="edge4" class="edge">
<title>Node3&#45;&gt;Node4</title>
<path fill="none" stroke="#63b8ff" d="M905.5,-91.45C775.94,-91.18 485.26,-85.17 245.5,-41 242.53,-40.45 239.5,-39.82 236.46,-39.11"/>
<polygon fill="#63b8ff" stroke="#63b8ff" points="905.27,-94.95 915.27,-91.46 905.27,-87.95 905.27,-94.95"/>
</g>
<!-- Node5 -->
<g id="node5" class="node">
<title>Node5</title>
<g id="a_node5"><a xlink:href="textedit_8cpp.html" target="_top" xlink:title=" ">
<polygon fill="white" stroke="#666666" points="364.5,-41 254.5,-41 254.5,0 364.5,0 364.5,-41"/>
<text text-anchor="start" x="262.5" y="-29" font-family="Helvetica,sans-Serif" font-size="10.00">plugins/misc/widgets</text>
<text text-anchor="start" x="262.5" y="-18" font-family="Helvetica,sans-Serif" font-size="10.00">/src/Madgine/widgets</text>
<text text-anchor="middle" x="309.5" y="-7" font-family="Helvetica,sans-Serif" font-size="10.00">/textedit.cpp</text>
</a>
</g>
</g>
<!-- Node3&#45;&gt;Node5 -->
<g id="edge5" class="edge">
<title>Node3&#45;&gt;Node5</title>
<path fill="none" stroke="#63b8ff" d="M905.26,-90.02C793.27,-87.36 563.87,-77.5 373.5,-41 370.65,-40.45 367.74,-39.83 364.82,-39.14"/>
<polygon fill="#63b8ff" stroke="#63b8ff" points="905.12,-93.52 915.19,-90.24 905.27,-86.52 905.12,-93.52"/>
</g>
<!-- Node6 -->
<g id="node6" class="node">
<title>Node6</title>
<g id="a_node6"><a xlink:href="widgetmanager_8cpp.html" target="_top" xlink:title=" ">
<polygon fill="white" stroke="#666666" points="492.5,-41 382.5,-41 382.5,0 492.5,0 492.5,-41"/>
<text text-anchor="start" x="390.5" y="-29" font-family="Helvetica,sans-Serif" font-size="10.00">plugins/misc/widgets</text>
<text text-anchor="start" x="390.5" y="-18" font-family="Helvetica,sans-Serif" font-size="10.00">/src/Madgine/widgets</text>
<text text-anchor="middle" x="437.5" y="-7" font-family="Helvetica,sans-Serif" font-size="10.00">/widgetmanager.cpp</text>
</a>
</g>
</g>
<!-- Node3&#45;&gt;Node6 -->
<g id="edge6" class="edge">
<title>Node3&#45;&gt;Node6</title>
<path fill="none" stroke="#63b8ff" d="M905.24,-87.85C812.91,-82.66 643.4,-69.86 501.5,-41 498.65,-40.42 495.75,-39.77 492.84,-39.06"/>
<polygon fill="#63b8ff" stroke="#63b8ff" points="904.97,-91.34 915.15,-88.39 905.36,-84.35 904.97,-91.34"/>
</g>
<!-- Node7 -->
<g id="node7" class="node">
<title>Node7</title>
<g id="a_node7"><a xlink:href="directx12renderwindow_8cpp.html" target="_top" xlink:title=" ">
<polygon fill="white" stroke="#666666" points="710,-35.5 511,-35.5 511,-5.5 710,-5.5 710,-35.5"/>
<text text-anchor="start" x="519" y="-23.5" font-family="Helvetica,sans-Serif" font-size="10.00">plugins/renderer/directx12</text>
<text text-anchor="middle" x="610.5" y="-12.5" font-family="Helvetica,sans-Serif" font-size="10.00">/src/DirectX12/directx12renderwindow.cpp</text>
</a>
</g>
</g>
<!-- Node3&#45;&gt;Node7 -->
<g id="edge7" class="edge">
<title>Node3&#45;&gt;Node7</title>
<path fill="none" stroke="#63b8ff" d="M905.49,-77.98C843.07,-66.03 750.74,-48.35 686.04,-35.96"/>
<polygon fill="#63b8ff" stroke="#63b8ff" points="904.81,-81.41 915.29,-79.86 906.13,-74.54 904.81,-81.41"/>
</g>
<!-- Node8 -->
<g id="node8" class="node">
<title>Node8</title>
<g id="a_node8"><a xlink:href="iosopengl_8mm.html" target="_top" xlink:title=" ">
<polygon fill="white" stroke="#666666" points="864.5,-35.5 728.5,-35.5 728.5,-5.5 864.5,-5.5 864.5,-35.5"/>
<text text-anchor="start" x="736.5" y="-23.5" font-family="Helvetica,sans-Serif" font-size="10.00">plugins/renderer/opengl</text>
<text text-anchor="middle" x="796.5" y="-12.5" font-family="Helvetica,sans-Serif" font-size="10.00">/src/OpenGL/iosopengl.mm</text>
</a>
</g>
</g>
<!-- Node3&#45;&gt;Node8 -->
<g id="edge8" class="edge">
<title>Node3&#45;&gt;Node8</title>
<path fill="none" stroke="#63b8ff" d="M926.44,-72.52C897.2,-61.04 860.17,-46.5 833.13,-35.88"/>
<polygon fill="#63b8ff" stroke="#63b8ff" points="924.83,-75.65 935.42,-76.05 927.39,-69.13 924.83,-75.65"/>
</g>
<!-- Node9 -->
<g id="node9" class="node">
<title>Node9</title>
<g id="a_node9"><a xlink:href="openglrendercontext_8cpp.html" target="_top" xlink:title=" ">
<polygon fill="white" stroke="#666666" points="1064,-35.5 883,-35.5 883,-5.5 1064,-5.5 1064,-35.5"/>
<text text-anchor="start" x="891" y="-23.5" font-family="Helvetica,sans-Serif" font-size="10.00">plugins/renderer/opengl</text>
<text text-anchor="middle" x="973.5" y="-12.5" font-family="Helvetica,sans-Serif" font-size="10.00">/src/OpenGL/openglrendercontext.cpp</text>
</a>
</g>
</g>
<!-- Node3&#45;&gt;Node9 -->
<g id="edge9" class="edge">
<title>Node3&#45;&gt;Node9</title>
<path fill="none" stroke="#63b8ff" d="M973.5,-65.26C973.5,-55.33 973.5,-44.36 973.5,-35.88"/>
<polygon fill="#63b8ff" stroke="#63b8ff" points="970,-65.09 973.5,-75.09 977,-65.09 970,-65.09"/>
</g>
<!-- Node10 -->
<g id="node10" class="node">
<title>Node10</title>
<g id="a_node10"><a xlink:href="openglrenderwindow_8cpp.html" target="_top" xlink:title=" ">
<polygon fill="white" stroke="#666666" points="1264.5,-35.5 1082.5,-35.5 1082.5,-5.5 1264.5,-5.5 1264.5,-35.5"/>
<text text-anchor="start" x="1090.5" y="-23.5" font-family="Helvetica,sans-Serif" font-size="10.00">plugins/renderer/opengl</text>
<text text-anchor="middle" x="1173.5" y="-12.5" font-family="Helvetica,sans-Serif" font-size="10.00">/src/OpenGL/openglrenderwindow.cpp</text>
</a>
</g>
</g>
<!-- Node3&#45;&gt;Node10 -->
<g id="edge10" class="edge">
<title>Node3&#45;&gt;Node10</title>
<path fill="none" stroke="#63b8ff" d="M1025.81,-72.82C1058.98,-61.3 1101.29,-46.59 1132.11,-35.88"/>
<polygon fill="#63b8ff" stroke="#63b8ff" points="1024.67,-69.51 1016.37,-76.1 1026.96,-76.13 1024.67,-69.51"/>
</g>
<!-- Node11 -->
<g id="node11" class="node">
<title>Node11</title>
<g id="a_node11"><a xlink:href="osxopengl_8mm.html" target="_top" xlink:title=" ">
<polygon fill="white" stroke="#666666" points="1420.5,-35.5 1282.5,-35.5 1282.5,-5.5 1420.5,-5.5 1420.5,-35.5"/>
<text text-anchor="start" x="1290.5" y="-23.5" font-family="Helvetica,sans-Serif" font-size="10.00">plugins/renderer/opengl</text>
<text text-anchor="middle" x="1351.5" y="-12.5" font-family="Helvetica,sans-Serif" font-size="10.00">/src/OpenGL/osxopengl.mm</text>
</a>
</g>
</g>
<!-- Node3&#45;&gt;Node11 -->
<g id="edge11" class="edge">
<title>Node3&#45;&gt;Node11</title>
<path fill="none" stroke="#63b8ff" d="M1041.45,-81.26C1102.44,-72.14 1194.3,-57.47 1273.5,-41 1280.74,-39.49 1288.33,-37.78 1295.81,-36"/>
<polygon fill="#63b8ff" stroke="#63b8ff" points="1041.3,-77.74 1031.92,-82.67 1042.33,-84.67 1041.3,-77.74"/>
</g>
<!-- Node12 -->
<g id="node12" class="node">
<title>Node12</title>
<g id="a_node12"><a xlink:href="vulkanrenderwindow_8cpp.html" target="_top" xlink:title=" ">
<polygon fill="white" stroke="#666666" points="1614.5,-35.5 1438.5,-35.5 1438.5,-5.5 1614.5,-5.5 1614.5,-35.5"/>
<text text-anchor="start" x="1446.5" y="-23.5" font-family="Helvetica,sans-Serif" font-size="10.00">plugins/renderer/vulkan</text>
<text text-anchor="middle" x="1526.5" y="-12.5" font-family="Helvetica,sans-Serif" font-size="10.00">/src/Vulkan/vulkanrenderwindow.cpp</text>
</a>
</g>
</g>
<!-- Node3&#45;&gt;Node12 -->
<g id="edge12" class="edge">
<title>Node3&#45;&gt;Node12</title>
<path fill="none" stroke="#63b8ff" d="M1041.55,-85.45C1130.89,-77.72 1292.47,-62.24 1429.5,-41 1438.92,-39.54 1448.82,-37.8 1458.54,-35.96"/>
<polygon fill="#63b8ff" stroke="#63b8ff" points="1041.4,-81.95 1031.74,-86.29 1042,-88.92 1041.4,-81.95"/>
</g>
<!-- Node3&#45;&gt;Node13 -->
<g id="edge13" class="edge">
<title>Node3&#45;&gt;Node13</title>
<path fill="none" stroke="#63b8ff" d="M1041.53,-90.46C1160.51,-88.47 1413.71,-79.62 1623.5,-41 1630.67,-39.68 1638.17,-37.88 1645.43,-35.91"/>
<polygon fill="#63b8ff" stroke="#63b8ff" points="1041.55,-86.96 1031.61,-90.61 1041.66,-93.96 1041.55,-86.96"/>
</g>
<!-- Node3&#45;&gt;Node14 -->
<g id="edge14" class="edge">
<title>Node3&#45;&gt;Node14</title>
<path fill="none" stroke="#63b8ff" d="M1041.95,-91.82C1178.71,-92.33 1494.96,-87.78 1755.5,-41 1762.57,-39.73 1769.97,-37.96 1777.13,-36"/>
<polygon fill="#63b8ff" stroke="#63b8ff" points="1041.99,-88.33 1031.97,-91.78 1041.95,-95.33 1041.99,-88.33"/>
</g>
</g>
</svg>
