<?xml version="1.0" encoding="UTF-8" standalone="no"?>
<!DOCTYPE svg PUBLIC "-//W3C//DTD SVG 1.1//EN"
 "http://www.w3.org/Graphics/SVG/1.1/DTD/svg11.dtd">
<!-- Generated by graphviz version 7.0.5 (20221223.1930)
 -->
<!-- Title: src/Interfaces/window/windoweventlistener.h Pages: 1 -->
<svg width="3780pt" height="192pt"
 viewBox="0.00 0.00 3779.50 192.00" xmlns="http://www.w3.org/2000/svg" xmlns:xlink="http://www.w3.org/1999/xlink">
<g id="graph0" class="graph" transform="scale(1 1) rotate(0) translate(4 188)">
<title>src/Interfaces/window/windoweventlistener.h</title>
<!-- Node1 -->
<g id="node1" class="node">
<title>Node1</title>
<g id="a_node1"><a xlink:title=" ">
<polygon fill="#999999" stroke="#666666" points="1688.5,-184 1572.5,-184 1572.5,-154 1688.5,-154 1688.5,-184"/>
<text text-anchor="start" x="1580.5" y="-172" font-family="Helvetica,sans-Serif" font-size="10.00">src/Interfaces/window</text>
<text text-anchor="middle" x="1630.5" y="-161" font-family="Helvetica,sans-Serif" font-size="10.00">/windoweventlistener.h</text>
</a>
</g>
</g>
<!-- Node2 -->
<g id="node2" class="node">
<title>Node2</title>
<g id="a_node2"><a xlink:href="mainwindow_8h.html" target="_top" xlink:title=" ">
<polygon fill="white" stroke="#666666" points="2547,-118 2438,-118 2438,-77 2547,-77 2547,-118"/>
<text text-anchor="start" x="2446" y="-106" font-family="Helvetica,sans-Serif" font-size="10.00">plugins/client/api</text>
<text text-anchor="start" x="2446" y="-95" font-family="Helvetica,sans-Serif" font-size="10.00">/src/Madgine/window</text>
<text text-anchor="middle" x="2492.5" y="-84" font-family="Helvetica,sans-Serif" font-size="10.00">/mainwindow.h</text>
</a>
</g>
</g>
<!-- Node1&#45;&gt;Node2 -->
<g id="edge1" class="edge">
<title>Node1&#45;&gt;Node2</title>
<path fill="none" stroke="#63b8ff" d="M1699.81,-162.41C1866.48,-148.97 2287.01,-115.07 2437.71,-102.92"/>
<polygon fill="#63b8ff" stroke="#63b8ff" points="1699.93,-158.89 1690.24,-163.18 1700.49,-165.87 1699.93,-158.89"/>
</g>
<!-- Node18 -->
<g id="node18" class="node">
<title>Node18</title>
<g id="a_node18"><a xlink:href="toolwindow_8h.html" target="_top" xlink:title=" ">
<polygon fill="white" stroke="#666666" points="1685,-118 1576,-118 1576,-77 1685,-77 1685,-118"/>
<text text-anchor="start" x="1584" y="-106" font-family="Helvetica,sans-Serif" font-size="10.00">plugins/client/api</text>
<text text-anchor="start" x="1584" y="-95" font-family="Helvetica,sans-Serif" font-size="10.00">/src/Madgine/window</text>
<text text-anchor="middle" x="1630.5" y="-84" font-family="Helvetica,sans-Serif" font-size="10.00">/toolwindow.h</text>
</a>
</g>
</g>
<!-- Node1&#45;&gt;Node18 -->
<g id="edge17" class="edge">
<title>Node1&#45;&gt;Node18</title>
<path fill="none" stroke="#63b8ff" d="M1630.5,-142.36C1630.5,-134.45 1630.5,-125.87 1630.5,-118.42"/>
<polygon fill="#63b8ff" stroke="#63b8ff" points="1627,-142.09 1630.5,-152.09 1634,-142.09 1627,-142.09"/>
</g>
<!-- Node19 -->
<g id="node19" class="node">
<title>Node19</title>
<g id="a_node19"><a xlink:href="windowapi_8h.html" target="_top" xlink:title=" ">
<polygon fill="white" stroke="#666666" points="1124,-112.5 1011,-112.5 1011,-82.5 1124,-82.5 1124,-112.5"/>
<text text-anchor="start" x="1019" y="-100.5" font-family="Helvetica,sans-Serif" font-size="10.00">src/Interfaces/window</text>
<text text-anchor="middle" x="1067.5" y="-89.5" font-family="Helvetica,sans-Serif" font-size="10.00">/windowapi.h</text>
</a>
</g>
</g>
<!-- Node1&#45;&gt;Node19 -->
<g id="edge20" class="edge">
<title>Node1&#45;&gt;Node19</title>
<path fill="none" stroke="#63b8ff" d="M1560.89,-159.41C1448.28,-145.51 1228.29,-118.35 1124.41,-105.53"/>
<polygon fill="#63b8ff" stroke="#63b8ff" points="1560.25,-162.85 1570.6,-160.61 1561.11,-155.91 1560.25,-162.85"/>
</g>
<!-- Node3 -->
<g id="node3" class="node">
<title>Node3</title>
<g id="a_node3"><a xlink:href="handler_8cpp.html" target="_top" xlink:title=" ">
<polygon fill="white" stroke="#666666" points="2021,-35.5 1896,-35.5 1896,-5.5 2021,-5.5 2021,-35.5"/>
<text text-anchor="start" x="1904" y="-23.5" font-family="Helvetica,sans-Serif" font-size="10.00">plugins/behavior/handler</text>
<text text-anchor="middle" x="1958.5" y="-12.5" font-family="Helvetica,sans-Serif" font-size="10.00">/src/Madgine/handler.cpp</text>
</a>
</g>
</g>
<!-- Node2&#45;&gt;Node3 -->
<g id="edge2" class="edge">
<title>Node2&#45;&gt;Node3</title>
<path fill="none" stroke="#63b8ff" d="M2426.29,-91.58C2336.16,-84.2 2170.1,-68.14 2030.5,-41 2023.25,-39.59 2015.67,-37.84 2008.25,-35.98"/>
<polygon fill="#63b8ff" stroke="#63b8ff" points="2425.94,-95.06 2436.18,-92.38 2426.5,-88.09 2425.94,-95.06"/>
</g>
<!-- Node4 -->
<g id="node4" class="node">
<title>Node4</title>
<g id="a_node4"><a xlink:href="handlermanager_8cpp.html" target="_top" xlink:title=" ">
<polygon fill="white" stroke="#666666" points="2202,-35.5 2039,-35.5 2039,-5.5 2202,-5.5 2202,-35.5"/>
<text text-anchor="start" x="2047" y="-23.5" font-family="Helvetica,sans-Serif" font-size="10.00">plugins/behavior/handler</text>
<text text-anchor="middle" x="2120.5" y="-12.5" font-family="Helvetica,sans-Serif" font-size="10.00">/src/Madgine/handlermanager.cpp</text>
</a>
</g>
</g>
<!-- Node2&#45;&gt;Node4 -->
<g id="edge3" class="edge">
<title>Node2&#45;&gt;Node4</title>
<path fill="none" stroke="#63b8ff" d="M2426.51,-83.78C2369.52,-72.72 2285.02,-56.14 2211.5,-41 2203.75,-39.4 2195.63,-37.7 2187.56,-36"/>
<polygon fill="#63b8ff" stroke="#63b8ff" points="2425.56,-87.16 2436.04,-85.63 2426.89,-80.29 2425.56,-87.16"/>
</g>
<!-- Node5 -->
<g id="node5" class="node">
<title>Node5</title>
<g id="a_node5"><a xlink:href="layoutloader_8cpp.html" target="_top" xlink:title=" ">
<polygon fill="white" stroke="#666666" points="2329,-41 2220,-41 2220,0 2329,0 2329,-41"/>
<text text-anchor="start" x="2228" y="-29" font-family="Helvetica,sans-Serif" font-size="10.00">plugins/client/api</text>
<text text-anchor="start" x="2228" y="-18" font-family="Helvetica,sans-Serif" font-size="10.00">/src/Madgine/window</text>
<text text-anchor="middle" x="2274.5" y="-7" font-family="Helvetica,sans-Serif" font-size="10.00">/layoutloader.cpp</text>
</a>
</g>
</g>
<!-- Node2&#45;&gt;Node5 -->
<g id="edge4" class="edge">
<title>Node2&#45;&gt;Node5</title>
<path fill="none" stroke="#63b8ff" d="M2427,-73.96C2395.8,-63.23 2358.93,-50.55 2329.25,-40.34"/>
<polygon fill="#63b8ff" stroke="#63b8ff" points="2425.74,-77.24 2436.34,-77.18 2428.02,-70.62 2425.74,-77.24"/>
</g>
<!-- Node6 -->
<g id="node6" class="node">
<title>Node6</title>
<g id="a_node6"><a xlink:href="mainwindow_8cpp.html" target="_top" xlink:title=" ">
<polygon fill="white" stroke="#666666" points="1622,-41 1513,-41 1513,0 1622,0 1622,-41"/>
<text text-anchor="start" x="1521" y="-29" font-family="Helvetica,sans-Serif" font-size="10.00">plugins/client/api</text>
<text text-anchor="start" x="1521" y="-18" font-family="Helvetica,sans-Serif" font-size="10.00">/src/Madgine/window</text>
<text text-anchor="middle" x="1567.5" y="-7" font-family="Helvetica,sans-Serif" font-size="10.00">/mainwindow.cpp</text>
</a>
</g>
</g>
<!-- Node2&#45;&gt;Node6 -->
<g id="edge5" class="edge">
<title>Node2&#45;&gt;Node6</title>
<path fill="none" stroke="#63b8ff" d="M2426.34,-94.22C2252.16,-87.89 1783.92,-68.74 1631.5,-41 1628.53,-40.46 1625.5,-39.83 1622.46,-39.13"/>
<polygon fill="#63b8ff" stroke="#63b8ff" points="2425.99,-97.71 2436.11,-94.57 2426.24,-90.71 2425.99,-97.71"/>
</g>
<!-- Node7 -->
<g id="node7" class="node">
<title>Node7</title>
<g id="a_node7"><a xlink:href="mainwindowcomponent_8cpp.html" target="_top" xlink:title=" ">
<polygon fill="white" stroke="#666666" points="2487.5,-41 2347.5,-41 2347.5,0 2487.5,0 2487.5,-41"/>
<text text-anchor="start" x="2355.5" y="-29" font-family="Helvetica,sans-Serif" font-size="10.00">plugins/client/api</text>
<text text-anchor="start" x="2355.5" y="-18" font-family="Helvetica,sans-Serif" font-size="10.00">/src/Madgine/window</text>
<text text-anchor="middle" x="2417.5" y="-7" font-family="Helvetica,sans-Serif" font-size="10.00">/mainwindowcomponent.cpp</text>
</a>
</g>
</g>
<!-- Node2&#45;&gt;Node7 -->
<g id="edge6" class="edge">
<title>Node2&#45;&gt;Node7</title>
<path fill="none" stroke="#63b8ff" d="M2464.74,-68.74C2455.64,-59.64 2445.72,-49.72 2437.33,-41.33"/>
<polygon fill="#63b8ff" stroke="#63b8ff" points="2462.18,-71.13 2471.72,-75.72 2467.13,-66.18 2462.18,-71.13"/>
</g>
<!-- Node8 -->
<g id="node8" class="node">
<title>Node8</title>
<g id="a_node8"><a xlink:href="toolwindow_8cpp.html" target="_top" xlink:title=" ">
<polygon fill="white" stroke="#666666" points="1749,-41 1640,-41 1640,0 1749,0 1749,-41"/>
<text text-anchor="start" x="1648" y="-29" font-family="Helvetica,sans-Serif" font-size="10.00">plugins/client/api</text>
<text text-anchor="start" x="1648" y="-18" font-family="Helvetica,sans-Serif" font-size="10.00">/src/Madgine/window</text>
<text text-anchor="middle" x="1694.5" y="-7" font-family="Helvetica,sans-Serif" font-size="10.00">/toolwindow.cpp</text>
</a>
</g>
</g>
<!-- Node2&#45;&gt;Node8 -->
<g id="edge7" class="edge">
<title>Node2&#45;&gt;Node8</title>
<path fill="none" stroke="#63b8ff" d="M2426.38,-96.35C2296.99,-95 2001.73,-86.67 1758.5,-41 1755.53,-40.44 1752.51,-39.8 1749.47,-39.09"/>
<polygon fill="#63b8ff" stroke="#63b8ff" points="2426.09,-99.85 2436.12,-96.44 2426.16,-92.85 2426.09,-99.85"/>
</g>
<!-- Node9 -->
<g id="node9" class="node">
<title>Node9</title>
<g id="a_node9"><a xlink:href="litscenerenderdata_8cpp.html" target="_top" xlink:title=" ">
<polygon fill="white" stroke="#666666" points="2631,-41 2506,-41 2506,0 2631,0 2631,-41"/>
<text text-anchor="start" x="2514" y="-29" font-family="Helvetica,sans-Serif" font-size="10.00">plugins/misc/scene</text>
<text text-anchor="start" x="2514" y="-18" font-family="Helvetica,sans-Serif" font-size="10.00">/renderer/Madgine/render</text>
<text text-anchor="middle" x="2568.5" y="-7" font-family="Helvetica,sans-Serif" font-size="10.00">/litscenerenderdata.cpp</text>
</a>
</g>
</g>
<!-- Node2&#45;&gt;Node9 -->
<g id="edge8" class="edge">
<title>Node2&#45;&gt;Node9</title>
<path fill="none" stroke="#63b8ff" d="M2520.63,-68.74C2529.85,-59.64 2539.9,-49.72 2548.4,-41.33"/>
<polygon fill="#63b8ff" stroke="#63b8ff" points="2518.2,-66.22 2513.55,-75.73 2523.12,-71.2 2518.2,-66.22"/>
</g>
<!-- Node10 -->
<g id="node10" class="node">
<title>Node10</title>
<g id="a_node10"><a xlink:href="scenemainwindowcomponent_8cpp.html" target="_top" xlink:title=" ">
<polygon fill="white" stroke="#666666" points="2815.5,-41 2649.5,-41 2649.5,0 2815.5,0 2815.5,-41"/>
<text text-anchor="start" x="2657.5" y="-29" font-family="Helvetica,sans-Serif" font-size="10.00">plugins/misc/scene</text>
<text text-anchor="start" x="2657.5" y="-18" font-family="Helvetica,sans-Serif" font-size="10.00">/renderer/Madgine/render</text>
<text text-anchor="middle" x="2732.5" y="-7" font-family="Helvetica,sans-Serif" font-size="10.00">/scenemainwindowcomponent.cpp</text>
</a>
</g>
</g>
<!-- Node2&#45;&gt;Node10 -->
<g id="edge9" class="edge">
<title>Node2&#45;&gt;Node10</title>
<path fill="none" stroke="#63b8ff" d="M2558.14,-75.99C2592.54,-65.24 2634.49,-52.13 2668.63,-41.46"/>
<polygon fill="#63b8ff" stroke="#63b8ff" points="2557.21,-72.61 2548.7,-78.94 2559.29,-79.29 2557.21,-72.61"/>
</g>
<!-- Node11 -->
<g id="node11" class="node">
<title>Node11</title>
<g id="a_node11"><a xlink:href="shadowscenerenderdata_8cpp.html" target="_top" xlink:title=" ">
<polygon fill="white" stroke="#666666" points="2977,-41 2834,-41 2834,0 2977,0 2977,-41"/>
<text text-anchor="start" x="2842" y="-29" font-family="Helvetica,sans-Serif" font-size="10.00">plugins/misc/scene</text>
<text text-anchor="start" x="2842" y="-18" font-family="Helvetica,sans-Serif" font-size="10.00">/renderer/Madgine/render</text>
<text text-anchor="middle" x="2905.5" y="-7" font-family="Helvetica,sans-Serif" font-size="10.00">/shadowscenerenderdata.cpp</text>
</a>
</g>
</g>
<!-- Node2&#45;&gt;Node11 -->
<g id="edge10" class="edge">
<title>Node2&#45;&gt;Node11</title>
<path fill="none" stroke="#63b8ff" d="M2558.6,-86.86C2625.79,-76.73 2732.75,-59.69 2824.5,-41 2827.48,-40.39 2830.51,-39.76 2833.57,-39.1"/>
<polygon fill="#63b8ff" stroke="#63b8ff" points="2558.22,-83.37 2548.85,-88.32 2559.26,-90.3 2558.22,-83.37"/>
</g>
<!-- Node12 -->
<g id="node12" class="node">
<title>Node12</title>
<g id="a_node12"><a xlink:href="sceneeditor_8cpp.html" target="_top" xlink:title=" ">
<polygon fill="white" stroke="#666666" points="3165.5,-41 2995.5,-41 2995.5,0 3165.5,0 3165.5,-41"/>
<text text-anchor="start" x="3003.5" y="-29" font-family="Helvetica,sans-Serif" font-size="10.00">plugins/misc/scene</text>
<text text-anchor="start" x="3003.5" y="-18" font-family="Helvetica,sans-Serif" font-size="10.00">/renderer_tools/Madgine</text>
<text text-anchor="middle" x="3080.5" y="-7" font-family="Helvetica,sans-Serif" font-size="10.00">_Tools/sceneeditor/sceneeditor.cpp</text>
</a>
</g>
</g>
<!-- Node2&#45;&gt;Node12 -->
<g id="edge11" class="edge">
<title>Node2&#45;&gt;Node12</title>
<path fill="none" stroke="#63b8ff" d="M2558.62,-91.03C2653.63,-82.74 2834.12,-65.31 2986.5,-41 2989.3,-40.55 2992.14,-40.08 2995,-39.59"/>
<polygon fill="#63b8ff" stroke="#63b8ff" points="2558.35,-87.54 2548.69,-91.89 2558.95,-94.52 2558.35,-87.54"/>
</g>
<!-- Node13 -->
<g id="node13" class="node">
<title>Node13</title>
<g id="a_node13"><a xlink:href="sceneview_8cpp.html" target="_top" xlink:title=" ">
<polygon fill="white" stroke="#666666" points="3351,-41 3184,-41 3184,0 3351,0 3351,-41"/>
<text text-anchor="start" x="3192" y="-29" font-family="Helvetica,sans-Serif" font-size="10.00">plugins/misc/scene</text>
<text text-anchor="start" x="3192" y="-18" font-family="Helvetica,sans-Serif" font-size="10.00">/renderer_tools/Madgine</text>
<text text-anchor="middle" x="3267.5" y="-7" font-family="Helvetica,sans-Serif" font-size="10.00">_Tools/sceneeditor/sceneview.cpp</text>
</a>
</g>
</g>
<!-- Node2&#45;&gt;Node13 -->
<g id="edge12" class="edge">
<title>Node2&#45;&gt;Node13</title>
<path fill="none" stroke="#63b8ff" d="M2558.48,-93.89C2680.59,-88.44 2949.85,-73.56 3174.5,-41 3177.52,-40.56 3180.59,-40.09 3183.69,-39.58"/>
<polygon fill="#63b8ff" stroke="#63b8ff" points="2558.48,-90.38 2548.64,-94.32 2558.79,-97.38 2558.48,-90.38"/>
</g>
<!-- Node14 -->
<g id="node14" class="node">
<title>Node14</title>
<g id="a_node14"><a xlink:href="widgethandler_8cpp.html" target="_top" xlink:title=" ">
<polygon fill="white" stroke="#666666" points="3497.5,-41 3369.5,-41 3369.5,0 3497.5,0 3497.5,-41"/>
<text text-anchor="start" x="3377.5" y="-29" font-family="Helvetica,sans-Serif" font-size="10.00">plugins/misc/widgets</text>
<text text-anchor="start" x="3377.5" y="-18" font-family="Helvetica,sans-Serif" font-size="10.00">/handler/Madgine/widgets</text>
<text text-anchor="middle" x="3433.5" y="-7" font-family="Helvetica,sans-Serif" font-size="10.00">/widgethandler.cpp</text>
</a>
</g>
</g>
<!-- Node2&#45;&gt;Node14 -->
<g id="edge13" class="edge">
<title>Node2&#45;&gt;Node14</title>
<path fill="none" stroke="#63b8ff" d="M2558.63,-96.7C2704.44,-96.17 3064.16,-89.57 3360.5,-41 3363.35,-40.53 3366.25,-40 3369.16,-39.42"/>
<polygon fill="#63b8ff" stroke="#63b8ff" points="2558.76,-93.2 2548.77,-96.72 2558.78,-100.2 2558.76,-93.2"/>
</g>
<!-- Node15 -->
<g id="node15" class="node">
<title>Node15</title>
<g id="a_node15"><a xlink:href="atlasloader_8cpp.html" target="_top" xlink:title=" ">
<polygon fill="white" stroke="#666666" points="3625.5,-41 3515.5,-41 3515.5,0 3625.5,0 3625.5,-41"/>
<text text-anchor="start" x="3523.5" y="-29" font-family="Helvetica,sans-Serif" font-size="10.00">plugins/misc/widgets</text>
<text text-anchor="start" x="3523.5" y="-18" font-family="Helvetica,sans-Serif" font-size="10.00">/src/Madgine/widgets</text>
<text text-anchor="middle" x="3570.5" y="-7" font-family="Helvetica,sans-Serif" font-size="10.00">/atlasloader.cpp</text>
</a>
</g>
</g>
<!-- Node2&#45;&gt;Node15 -->
<g id="edge14" class="edge">
<title>Node2&#45;&gt;Node15</title>
<path fill="none" stroke="#63b8ff" d="M2558.67,-94.96C2753.58,-90.09 3323.4,-73.41 3506.5,-41 3509.36,-40.49 3512.27,-39.9 3515.2,-39.24"/>
<polygon fill="#63b8ff" stroke="#63b8ff" points="2558.62,-91.46 2548.71,-95.21 2558.79,-98.46 2558.62,-91.46"/>
</g>
<!-- Node16 -->
<g id="node16" class="node">
<title>Node16</title>
<g id="a_node16"><a xlink:href="tempwidget_8cpp.html" target="_top" xlink:title=" ">
<polygon fill="white" stroke="#666666" points="3771.5,-41 3643.5,-41 3643.5,0 3771.5,0 3771.5,-41"/>
<text text-anchor="start" x="3651.5" y="-29" font-family="Helvetica,sans-Serif" font-size="10.00">plugins/misc/widgets</text>
<text text-anchor="start" x="3651.5" y="-18" font-family="Helvetica,sans-Serif" font-size="10.00">/src/Madgine/widgets</text>
<text text-anchor="middle" x="3707.5" y="-7" font-family="Helvetica,sans-Serif" font-size="10.00">/behavior/tempwidget.cpp</text>
</a>
</g>
</g>
<!-- Node2&#45;&gt;Node16 -->
<g id="edge15" class="edge">
<title>Node2&#45;&gt;Node16</title>
<path fill="none" stroke="#63b8ff" d="M2558.9,-95.13C2770.16,-90.46 3425.05,-73.68 3634.5,-41 3637.35,-40.56 3640.25,-40.04 3643.17,-39.48"/>
<polygon fill="#63b8ff" stroke="#63b8ff" points="2558.84,-91.63 2548.92,-95.34 2558.99,-98.62 2558.84,-91.63"/>
</g>
<!-- Node17 -->
<g id="node17" class="node">
<title>Node17</title>
<g id="a_node17"><a xlink:href="widgetmanager_8cpp.html" target="_top" xlink:title=" ">
<polygon fill="white" stroke="#666666" points="1877.5,-41 1767.5,-41 1767.5,0 1877.5,0 1877.5,-41"/>
<text text-anchor="start" x="1775.5" y="-29" font-family="Helvetica,sans-Serif" font-size="10.00">plugins/misc/widgets</text>
<text text-anchor="start" x="1775.5" y="-18" font-family="Helvetica,sans-Serif" font-size="10.00">/src/Madgine/widgets</text>
<text text-anchor="middle" x="1822.5" y="-7" font-family="Helvetica,sans-Serif" font-size="10.00">/widgetmanager.cpp</text>
</a>
</g>
</g>
<!-- Node2&#45;&gt;Node17 -->
<g id="edge16" class="edge">
<title>Node2&#45;&gt;Node17</title>
<path fill="none" stroke="#63b8ff" d="M2426.33,-94.75C2314.42,-90.83 2081.02,-78.51 1887.5,-41 1884.38,-40.39 1881.19,-39.7 1877.99,-38.94"/>
<polygon fill="#63b8ff" stroke="#63b8ff" points="2426.13,-98.25 2436.24,-95.09 2426.36,-91.25 2426.13,-98.25"/>
</g>
<!-- Node18&#45;&gt;Node6 -->
<g id="edge18" class="edge">
<title>Node18&#45;&gt;Node6</title>
<path fill="none" stroke="#63b8ff" d="M1606.71,-68.18C1599.2,-59.24 1591.06,-49.55 1584.16,-41.33"/>
<polygon fill="#63b8ff" stroke="#63b8ff" points="1603.86,-70.23 1612.97,-75.64 1609.22,-65.73 1603.86,-70.23"/>
</g>
<!-- Node18&#45;&gt;Node8 -->
<g id="edge19" class="edge">
<title>Node18&#45;&gt;Node8</title>
<path fill="none" stroke="#63b8ff" d="M1654.67,-68.18C1662.3,-59.24 1670.56,-49.55 1677.57,-41.33"/>
<polygon fill="#63b8ff" stroke="#63b8ff" points="1652.13,-65.76 1648.3,-75.64 1657.45,-70.31 1652.13,-65.76"/>
</g>
<!-- Node19&#45;&gt;Node6 -->
<g id="edge21" class="edge">
<title>Node19&#45;&gt;Node6</title>
<path fill="none" stroke="#63b8ff" d="M1135.67,-91.41C1221.99,-84.16 1374.97,-68.55 1503.5,-41 1506.57,-40.34 1509.7,-39.61 1512.85,-38.82"/>
<polygon fill="#63b8ff" stroke="#63b8ff" points="1135.64,-87.91 1125.96,-92.22 1136.22,-94.88 1135.64,-87.91"/>
</g>
<!-- Node19&#45;&gt;Node8 -->
<g id="edge22" class="edge">
<title>Node19&#45;&gt;Node8</title>
<path fill="none" stroke="#63b8ff" d="M1135.74,-94.23C1242.45,-89.68 1454.93,-76.63 1631.5,-41 1634.19,-40.46 1636.94,-39.84 1639.69,-39.18"/>
<polygon fill="#63b8ff" stroke="#63b8ff" points="1135.86,-90.72 1126.01,-94.63 1136.15,-97.72 1135.86,-90.72"/>
</g>
<!-- Node19&#45;&gt;Node17 -->
<g id="edge24" class="edge">
<title>Node19&#45;&gt;Node17</title>
<path fill="none" stroke="#63b8ff" d="M1135.72,-95.87C1260.46,-93.66 1533.21,-83.85 1758.5,-41 1761.35,-40.46 1764.26,-39.83 1767.18,-39.15"/>
<polygon fill="#63b8ff" stroke="#63b8ff" points="1135.94,-92.37 1125.99,-96.04 1136.05,-99.37 1135.94,-92.37"/>
</g>
<!-- Node20 -->
<g id="node20" class="node">
<title>Node20</title>
<g id="a_node20"><a xlink:href="textedit_8cpp.html" target="_top" xlink:title=" ">
<polygon fill="white" stroke="#666666" points="1122.5,-41 1012.5,-41 1012.5,0 1122.5,0 1122.5,-41"/>
<text text-anchor="start" x="1020.5" y="-29" font-family="Helvetica,sans-Serif" font-size="10.00">plugins/misc/widgets</text>
<text text-anchor="start" x="1020.5" y="-18" font-family="Helvetica,sans-Serif" font-size="10.00">/src/Madgine/widgets</text>
<text text-anchor="middle" x="1067.5" y="-7" font-family="Helvetica,sans-Serif" font-size="10.00">/textedit.cpp</text>
</a>
</g>
</g>
<!-- Node19&#45;&gt;Node20 -->
<g id="edge23" class="edge">
<title>Node19&#45;&gt;Node20</title>
<path fill="none" stroke="#63b8ff" d="M1067.5,-70.68C1067.5,-61.06 1067.5,-50.3 1067.5,-41.3"/>
<polygon fill="#63b8ff" stroke="#63b8ff" points="1064,-70.53 1067.5,-80.53 1071,-70.53 1064,-70.53"/>
</g>
<!-- Node21 -->
<g id="node21" class="node">
<title>Node21</title>
<g id="a_node21"><a xlink:href="directx12renderwindow_8cpp.html" target="_top" xlink:title=" ">
<polygon fill="white" stroke="#666666" points="1340,-35.5 1141,-35.5 1141,-5.5 1340,-5.5 1340,-35.5"/>
<text text-anchor="start" x="1149" y="-23.5" font-family="Helvetica,sans-Serif" font-size="10.00">plugins/renderer/directx12</text>
<text text-anchor="middle" x="1240.5" y="-12.5" font-family="Helvetica,sans-Serif" font-size="10.00">/src/DirectX12/directx12renderwindow.cpp</text>
</a>
</g>
</g>
<!-- Node19&#45;&gt;Node21 -->
<g id="edge25" class="edge">
<title>Node19&#45;&gt;Node21</title>
<path fill="none" stroke="#63b8ff" d="M1111.39,-77.47C1141.19,-64.55 1179.99,-47.73 1207.25,-35.92"/>
<polygon fill="#63b8ff" stroke="#63b8ff" points="1110.03,-74.25 1102.24,-81.44 1112.81,-80.67 1110.03,-74.25"/>
</g>
<!-- Node22 -->
<g id="node22" class="node">
<title>Node22</title>
<g id="a_node22"><a xlink:href="iosopengl_8mm.html" target="_top" xlink:title=" ">
<polygon fill="white" stroke="#666666" points="1494.5,-35.5 1358.5,-35.5 1358.5,-5.5 1494.5,-5.5 1494.5,-35.5"/>
<text text-anchor="start" x="1366.5" y="-23.5" font-family="Helvetica,sans-Serif" font-size="10.00">plugins/renderer/opengl</text>
<text text-anchor="middle" x="1426.5" y="-12.5" font-family="Helvetica,sans-Serif" font-size="10.00">/src/OpenGL/iosopengl.mm</text>
</a>
</g>
</g>
<!-- Node19&#45;&gt;Node22 -->
<g id="edge26" class="edge">
<title>Node19&#45;&gt;Node22</title>
<path fill="none" stroke="#63b8ff" d="M1135.49,-84.18C1192.74,-73.55 1276.71,-57.37 1349.5,-41 1356.5,-39.43 1363.83,-37.69 1371.07,-35.92"/>
<polygon fill="#63b8ff" stroke="#63b8ff" points="1135.09,-80.69 1125.89,-85.95 1136.36,-87.58 1135.09,-80.69"/>
</g>
<!-- Node23 -->
<g id="node23" class="node">
<title>Node23</title>
<g id="a_node23"><a xlink:href="openglrendercontext_8cpp.html" target="_top" xlink:title=" ">
<polygon fill="white" stroke="#666666" points="181,-35.5 0,-35.5 0,-5.5 181,-5.5 181,-35.5"/>
<text text-anchor="start" x="8" y="-23.5" font-family="Helvetica,sans-Serif" font-size="10.00">plugins/renderer/opengl</text>
<text text-anchor="middle" x="90.5" y="-12.5" font-family="Helvetica,sans-Serif" font-size="10.00">/src/OpenGL/openglrendercontext.cpp</text>
</a>
</g>
</g>
<!-- Node19&#45;&gt;Node23 -->
<g id="edge27" class="edge">
<title>Node19&#45;&gt;Node23</title>
<path fill="none" stroke="#63b8ff" d="M999.46,-95.19C851.65,-91.68 490.42,-79.57 190.5,-41 180.06,-39.66 169.07,-37.89 158.35,-35.96"/>
<polygon fill="#63b8ff" stroke="#63b8ff" points="998.98,-98.68 1009.06,-95.41 999.14,-91.68 998.98,-98.68"/>
</g>
<!-- Node24 -->
<g id="node24" class="node">
<title>Node24</title>
<g id="a_node24"><a xlink:href="openglrenderwindow_8cpp.html" target="_top" xlink:title=" ">
<polygon fill="white" stroke="#666666" points="381.5,-35.5 199.5,-35.5 199.5,-5.5 381.5,-5.5 381.5,-35.5"/>
<text text-anchor="start" x="207.5" y="-23.5" font-family="Helvetica,sans-Serif" font-size="10.00">plugins/renderer/opengl</text>
<text text-anchor="middle" x="290.5" y="-12.5" font-family="Helvetica,sans-Serif" font-size="10.00">/src/OpenGL/openglrenderwindow.cpp</text>
</a>
</g>
</g>
<!-- Node19&#45;&gt;Node24 -->
<g id="edge28" class="edge">
<title>Node19&#45;&gt;Node24</title>
<path fill="none" stroke="#63b8ff" d="M999.26,-93.41C876.84,-87.31 612.03,-71.58 390.5,-41 380.42,-39.61 369.83,-37.86 359.46,-35.98"/>
<polygon fill="#63b8ff" stroke="#63b8ff" points="998.98,-96.9 1009.14,-93.9 999.32,-89.91 998.98,-96.9"/>
</g>
<!-- Node25 -->
<g id="node25" class="node">
<title>Node25</title>
<g id="a_node25"><a xlink:href="osxopengl_8mm.html" target="_top" xlink:title=" ">
<polygon fill="white" stroke="#666666" points="537.5,-35.5 399.5,-35.5 399.5,-5.5 537.5,-5.5 537.5,-35.5"/>
<text text-anchor="start" x="407.5" y="-23.5" font-family="Helvetica,sans-Serif" font-size="10.00">plugins/renderer/opengl</text>
<text text-anchor="middle" x="468.5" y="-12.5" font-family="Helvetica,sans-Serif" font-size="10.00">/src/OpenGL/osxopengl.mm</text>
</a>
</g>
</g>
<!-- Node19&#45;&gt;Node25 -->
<g id="edge29" class="edge">
<title>Node19&#45;&gt;Node25</title>
<path fill="none" stroke="#63b8ff" d="M999.43,-92.28C899.54,-85.4 707.61,-69.58 546.5,-41 538.53,-39.59 530.17,-37.81 522,-35.91"/>
<polygon fill="#63b8ff" stroke="#63b8ff" points="999.13,-95.76 1009.35,-92.95 999.61,-88.78 999.13,-95.76"/>
</g>
<!-- Node26 -->
<g id="node26" class="node">
<title>Node26</title>
<g id="a_node26"><a xlink:href="vulkanrenderwindow_8cpp.html" target="_top" xlink:title=" ">
<polygon fill="white" stroke="#666666" points="731.5,-35.5 555.5,-35.5 555.5,-5.5 731.5,-5.5 731.5,-35.5"/>
<text text-anchor="start" x="563.5" y="-23.5" font-family="Helvetica,sans-Serif" font-size="10.00">plugins/renderer/vulkan</text>
<text text-anchor="middle" x="643.5" y="-12.5" font-family="Helvetica,sans-Serif" font-size="10.00">/src/Vulkan/vulkanrenderwindow.cpp</text>
</a>
</g>
</g>
<!-- Node19&#45;&gt;Node26 -->
<g id="edge30" class="edge">
<title>Node19&#45;&gt;Node26</title>
<path fill="none" stroke="#63b8ff" d="M999.59,-85.59C933.38,-74.81 829.88,-57.57 740.5,-41 731.97,-39.42 723.03,-37.7 714.18,-35.97"/>
<polygon fill="#63b8ff" stroke="#63b8ff" points="998.77,-89 1009.2,-87.15 999.89,-82.09 998.77,-89"/>
</g>
<!-- Node27 -->
<g id="node27" class="node">
<title>Node27</title>
<g id="a_node27"><a xlink:href="windowapi__ios_8mm.html" target="_top" xlink:title=" ">
<polygon fill="white" stroke="#666666" points="863,-35.5 750,-35.5 750,-5.5 863,-5.5 863,-35.5"/>
<text text-anchor="start" x="758" y="-23.5" font-family="Helvetica,sans-Serif" font-size="10.00">src/Interfaces/window</text>
<text text-anchor="middle" x="806.5" y="-12.5" font-family="Helvetica,sans-Serif" font-size="10.00">/windowapi_ios.mm</text>
</a>
</g>
</g>
<!-- Node19&#45;&gt;Node27 -->
<g id="edge31" class="edge">
<title>Node19&#45;&gt;Node27</title>
<path fill="none" stroke="#63b8ff" d="M1004.81,-79.02C966.31,-68.21 916,-53.97 871.5,-41 865.96,-39.38 860.16,-37.67 854.4,-35.96"/>
<polygon fill="#63b8ff" stroke="#63b8ff" points="1003.82,-82.37 1014.4,-81.7 1005.71,-75.63 1003.82,-82.37"/>
</g>
<!-- Node28 -->
<g id="node28" class="node">
<title>Node28</title>
<g id="a_node28"><a xlink:href="windowapi__osx_8mm.html" target="_top" xlink:title=" ">
<polygon fill="white" stroke="#666666" points="994,-35.5 881,-35.5 881,-5.5 994,-5.5 994,-35.5"/>
<text text-anchor="start" x="889" y="-23.5" font-family="Helvetica,sans-Serif" font-size="10.00">src/Interfaces/window</text>
<text text-anchor="middle" x="937.5" y="-12.5" font-family="Helvetica,sans-Serif" font-size="10.00">/windowapi_osx.mm</text>
</a>
</g>
</g>
<!-- Node19&#45;&gt;Node28 -->
<g id="edge32" class="edge">
<title>Node19&#45;&gt;Node28</title>
<path fill="none" stroke="#63b8ff" d="M1032.74,-76.44C1010.59,-63.67 982.43,-47.42 962.49,-35.92"/>
<polygon fill="#63b8ff" stroke="#63b8ff" points="1030.71,-79.32 1041.12,-81.28 1034.21,-73.25 1030.71,-79.32"/>
</g>
</g>
</svg>
