<?xml version="1.0" encoding="UTF-8" standalone="no"?>
<!DOCTYPE svg PUBLIC "-//W3C//DTD SVG 1.1//EN"
 "http://www.w3.org/Graphics/SVG/1.1/DTD/svg11.dtd">
<!-- Generated by graphviz version 7.0.5 (20221223.1930)
 -->
<!-- Title: src/Interfaces/window/windowapi_osx.mm Pages: 1 -->
<svg width="491pt" height="148pt"
 viewBox="0.00 0.00 491.00 148.00" xmlns="http://www.w3.org/2000/svg" xmlns:xlink="http://www.w3.org/1999/xlink">
<g id="graph0" class="graph" transform="scale(1 1) rotate(0) translate(4 144)">
<title>src/Interfaces/window/windowapi_osx.mm</title>
<!-- Node1 -->
<g id="node1" class="node">
<title>Node1</title>
<g id="a_node1"><a xlink:title=" ">
<polygon fill="#999999" stroke="#666666" points="396,-140 283,-140 283,-110 396,-110 396,-140"/>
<text text-anchor="start" x="291" y="-128" font-family="Helvetica,sans-Serif" font-size="10.00">src/Interfaces/window</text>
<text text-anchor="middle" x="339.5" y="-117" font-family="Helvetica,sans-Serif" font-size="10.00">/windowapi_osx.mm</text>
</a>
</g>
</g>
<!-- Node2 -->
<g id="node2" class="node">
<title>Node2</title>
<g id="a_node2"><a xlink:href="interfaceslib_8h.html" target="_top" xlink:title=" ">
<polygon fill="white" stroke="#666666" points="255.5,-74 171.5,-74 171.5,-55 255.5,-55 255.5,-74"/>
<text text-anchor="middle" x="213.5" y="-62" font-family="Helvetica,sans-Serif" font-size="10.00">../interfaceslib.h</text>
</a>
</g>
</g>
<!-- Node1&#45;&gt;Node2 -->
<g id="edge1" class="edge">
<title>Node1&#45;&gt;Node2</title>
<path fill="none" stroke="#63b8ff" d="M308.35,-109.54C288.31,-100.23 262.42,-88.22 242.76,-79.09"/>
<polygon fill="#63b8ff" stroke="#63b8ff" points="244.47,-76.02 233.93,-74.98 241.52,-82.37 244.47,-76.02"/>
</g>
<!-- Node3 -->
<g id="node3" class="node">
<title>Node3</title>
<g id="a_node3"><a xlink:href="windowapi_8h.html" target="_top" xlink:title=" ">
<polygon fill="white" stroke="#666666" points="343.5,-74 273.5,-74 273.5,-55 343.5,-55 343.5,-74"/>
<text text-anchor="middle" x="308.5" y="-62" font-family="Helvetica,sans-Serif" font-size="10.00">windowapi.h</text>
</a>
</g>
</g>
<!-- Node1&#45;&gt;Node3 -->
<g id="edge2" class="edge">
<title>Node1&#45;&gt;Node3</title>
<path fill="none" stroke="#63b8ff" d="M331.84,-109.54C327.79,-101.91 322.79,-92.46 318.45,-84.27"/>
<polygon fill="#63b8ff" stroke="#63b8ff" points="321.58,-82.71 313.81,-75.51 315.4,-85.99 321.58,-82.71"/>
</g>
<!-- Node7 -->
<g id="node7" class="node">
<title>Node7</title>
<g id="a_node7"><a xlink:href="windowsettings_8h.html" target="_top" xlink:title=" ">
<polygon fill="white" stroke="#666666" points="471.5,-19 379.5,-19 379.5,0 471.5,0 471.5,-19"/>
<text text-anchor="middle" x="425.5" y="-7" font-family="Helvetica,sans-Serif" font-size="10.00">windowsettings.h</text>
</a>
</g>
</g>
<!-- Node1&#45;&gt;Node7 -->
<g id="edge7" class="edge">
<title>Node1&#45;&gt;Node7</title>
<path fill="none" stroke="#63b8ff" d="M350.23,-109.71C360.72,-95.74 377.17,-73.88 391.5,-55 398.19,-46.19 405.64,-36.42 411.87,-28.29"/>
<polygon fill="#63b8ff" stroke="#63b8ff" points="414.49,-30.62 417.79,-20.55 408.93,-26.37 414.49,-30.62"/>
</g>
<!-- Node8 -->
<g id="node8" class="node">
<title>Node8</title>
<g id="a_node8"><a xlink:title=" ">
<polygon fill="#e0e0e0" stroke="#999999" points="483,-74 400,-74 400,-55 483,-55 483,-74"/>
<text text-anchor="middle" x="441.5" y="-62" font-family="Helvetica,sans-Serif" font-size="10.00">Cocoa/Cocoa.h</text>
</a>
</g>
</g>
<!-- Node1&#45;&gt;Node8 -->
<g id="edge8" class="edge">
<title>Node1&#45;&gt;Node8</title>
<path fill="none" stroke="#63b8ff" d="M364.71,-109.54C380.49,-100.49 400.73,-88.88 416.47,-79.85"/>
<polygon fill="#63b8ff" stroke="#63b8ff" points="417.83,-83.11 424.76,-75.1 414.35,-77.04 417.83,-83.11"/>
</g>
<!-- Node4 -->
<g id="node4" class="node">
<title>Node4</title>
<g id="a_node4"><a xlink:href="windoweventlistener_8h.html" target="_top" xlink:title=" ">
<polygon fill="white" stroke="#666666" points="113,-19 0,-19 0,0 113,0 113,-19"/>
<text text-anchor="middle" x="56.5" y="-7" font-family="Helvetica,sans-Serif" font-size="10.00">windoweventlistener.h</text>
</a>
</g>
</g>
<!-- Node3&#45;&gt;Node4 -->
<g id="edge3" class="edge">
<title>Node3&#45;&gt;Node4</title>
<path fill="none" stroke="#63b8ff" d="M273.2,-56.07C230.85,-47.17 159.42,-32.14 110.21,-21.8"/>
<polygon fill="#63b8ff" stroke="#63b8ff" points="111.13,-18.41 100.62,-19.78 109.69,-25.26 111.13,-18.41"/>
</g>
<!-- Node5 -->
<g id="node5" class="node">
<title>Node5</title>
<g id="a_node5"><a xlink:href="cursoricons_8h.html" target="_top" xlink:title=" ">
<polygon fill="white" stroke="#666666" points="237.5,-19 131.5,-19 131.5,0 237.5,0 237.5,-19"/>
<text text-anchor="middle" x="184.5" y="-7" font-family="Helvetica,sans-Serif" font-size="10.00">../input/cursoricons.h</text>
</a>
</g>
</g>
<!-- Node3&#45;&gt;Node5 -->
<g id="edge4" class="edge">
<title>Node3&#45;&gt;Node5</title>
<path fill="none" stroke="#63b8ff" d="M287.47,-54.51C267.75,-46.08 238.03,-33.38 215.59,-23.79"/>
<polygon fill="#63b8ff" stroke="#63b8ff" points="217.19,-20.66 206.62,-19.95 214.44,-27.1 217.19,-20.66"/>
</g>
<!-- Node6 -->
<g id="node6" class="node">
<title>Node6</title>
<g id="a_node6"><a xlink:href="inputevents_8h.html" target="_top" xlink:title=" ">
<polygon fill="white" stroke="#666666" points="361.5,-19 255.5,-19 255.5,0 361.5,0 361.5,-19"/>
<text text-anchor="middle" x="308.5" y="-7" font-family="Helvetica,sans-Serif" font-size="10.00">../input/inputevents.h</text>
</a>
</g>
</g>
<!-- Node3&#45;&gt;Node6 -->
<g id="edge5" class="edge">
<title>Node3&#45;&gt;Node6</title>
<path fill="none" stroke="#63b8ff" d="M308.5,-54.75C308.5,-48.27 308.5,-39.16 308.5,-30.9"/>
<polygon fill="#63b8ff" stroke="#63b8ff" points="312,-30.96 308.5,-20.96 305,-30.96 312,-30.96"/>
</g>
<!-- Node3&#45;&gt;Node7 -->
<g id="edge6" class="edge">
<title>Node3&#45;&gt;Node7</title>
<path fill="none" stroke="#63b8ff" d="M328.35,-54.51C346.78,-46.16 374.48,-33.61 395.59,-24.05"/>
<polygon fill="#63b8ff" stroke="#63b8ff" points="396.9,-27.3 404.57,-19.98 394.01,-20.92 396.9,-27.3"/>
</g>
</g>
</svg>
