<?xml version="1.0" encoding="UTF-8" standalone="no"?>
<!DOCTYPE svg PUBLIC "-//W3C//DTD SVG 1.1//EN"
 "http://www.w3.org/Graphics/SVG/1.1/DTD/svg11.dtd">
<!-- Generated by graphviz version 7.0.5 (20221223.1930)
 -->
<!-- Title: src/Modules/threading/workgroupstorage.cpp Pages: 1 -->
<svg width="475pt" height="258pt"
 viewBox="0.00 0.00 475.00 258.00" xmlns="http://www.w3.org/2000/svg" xmlns:xlink="http://www.w3.org/1999/xlink">
<g id="graph0" class="graph" transform="scale(1 1) rotate(0) translate(4 254)">
<title>src/Modules/threading/workgroupstorage.cpp</title>
<!-- Node1 -->
<g id="node1" class="node">
<title>Node1</title>
<g id="a_node1"><a xlink:title=" ">
<polygon fill="#999999" stroke="#666666" points="339,-250 224,-250 224,-220 339,-220 339,-250"/>
<text text-anchor="start" x="232" y="-238" font-family="Helvetica,sans-Serif" font-size="10.00">src/Modules/threading</text>
<text text-anchor="middle" x="281.5" y="-227" font-family="Helvetica,sans-Serif" font-size="10.00">/workgroupstorage.cpp</text>
</a>
</g>
</g>
<!-- Node2 -->
<g id="node2" class="node">
<title>Node2</title>
<g id="a_node2"><a xlink:href="moduleslib_8h.html" target="_top" xlink:title=" ">
<polygon fill="white" stroke="#666666" points="222.5,-184 144.5,-184 144.5,-165 222.5,-165 222.5,-184"/>
<text text-anchor="middle" x="183.5" y="-172" font-family="Helvetica,sans-Serif" font-size="10.00">../moduleslib.h</text>
</a>
</g>
</g>
<!-- Node1&#45;&gt;Node2 -->
<g id="edge1" class="edge">
<title>Node1&#45;&gt;Node2</title>
<path fill="none" stroke="#63b8ff" d="M257.28,-219.54C242.26,-210.58 223.04,-199.1 207.98,-190.11"/>
<polygon fill="#63b8ff" stroke="#63b8ff" points="210,-187.24 199.62,-185.12 206.41,-193.25 210,-187.24"/>
</g>
<!-- Node5 -->
<g id="node5" class="node">
<title>Node5</title>
<g id="a_node5"><a xlink:href="globalvariablemanager_8h.html" target="_top" xlink:title=" ">
<polygon fill="white" stroke="#666666" points="370,-129 249,-129 249,-110 370,-110 370,-129"/>
<text text-anchor="middle" x="309.5" y="-117" font-family="Helvetica,sans-Serif" font-size="10.00">globalvariablemanager.h</text>
</a>
</g>
</g>
<!-- Node1&#45;&gt;Node5 -->
<g id="edge4" class="edge">
<title>Node1&#45;&gt;Node5</title>
<path fill="none" stroke="#63b8ff" d="M274.66,-219.56C268.88,-205.3 262.58,-183.05 269.5,-165 273.61,-154.29 281.61,-144.54 289.39,-136.91"/>
<polygon fill="#63b8ff" stroke="#63b8ff" points="291.66,-139.58 296.73,-130.28 286.97,-134.39 291.66,-139.58"/>
</g>
<!-- Node8 -->
<g id="node8" class="node">
<title>Node8</title>
<g id="a_node8"><a xlink:href="workgroup_8h.html" target="_top" xlink:title=" ">
<polygon fill="white" stroke="#666666" points="348,-184 279,-184 279,-165 348,-165 348,-184"/>
<text text-anchor="middle" x="313.5" y="-172" font-family="Helvetica,sans-Serif" font-size="10.00">workgroup.h</text>
</a>
</g>
</g>
<!-- Node1&#45;&gt;Node8 -->
<g id="edge7" class="edge">
<title>Node1&#45;&gt;Node8</title>
<path fill="none" stroke="#63b8ff" d="M289.41,-219.54C293.58,-211.91 298.75,-202.46 303.23,-194.27"/>
<polygon fill="#63b8ff" stroke="#63b8ff" points="306.3,-195.96 308.03,-185.5 300.16,-192.6 306.3,-195.96"/>
</g>
<!-- Node9 -->
<g id="node9" class="node">
<title>Node9</title>
<g id="a_node9"><a xlink:href="workgroupstorage_8h.html" target="_top" xlink:title=" ">
<polygon fill="white" stroke="#666666" points="467,-184 366,-184 366,-165 467,-165 467,-184"/>
<text text-anchor="middle" x="416.5" y="-172" font-family="Helvetica,sans-Serif" font-size="10.00">workgroupstorage.h</text>
</a>
</g>
</g>
<!-- Node1&#45;&gt;Node9 -->
<g id="edge8" class="edge">
<title>Node1&#45;&gt;Node9</title>
<path fill="none" stroke="#63b8ff" d="M314.87,-219.54C336.55,-210.15 364.59,-197.99 385.73,-188.83"/>
<polygon fill="#63b8ff" stroke="#63b8ff" points="386.91,-192.14 394.7,-184.95 384.13,-185.71 386.91,-192.14"/>
</g>
<!-- Node3 -->
<g id="node3" class="node">
<title>Node3</title>
<g id="a_node3"><a xlink:href="interfaceslib_8h.html" target="_top" xlink:title=" ">
<polygon fill="white" stroke="#666666" points="123,-129 0,-129 0,-110 123,-110 123,-129"/>
<text text-anchor="middle" x="61.5" y="-117" font-family="Helvetica,sans-Serif" font-size="10.00">Interfaces/interfaceslib.h</text>
</a>
</g>
</g>
<!-- Node2&#45;&gt;Node3 -->
<g id="edge2" class="edge">
<title>Node2&#45;&gt;Node3</title>
<path fill="none" stroke="#63b8ff" d="M162.8,-164.51C143.5,-156.12 114.44,-143.5 92.39,-133.92"/>
<polygon fill="#63b8ff" stroke="#63b8ff" points="93.84,-130.74 83.28,-129.96 91.06,-137.16 93.84,-130.74"/>
</g>
<!-- Node4 -->
<g id="node4" class="node">
<title>Node4</title>
<g id="a_node4"><a xlink:title=" ">
<polygon fill="#e0e0e0" stroke="#999999" points="227.5,-129 141.5,-129 141.5,-110 227.5,-110 227.5,-129"/>
<text text-anchor="middle" x="184.5" y="-117" font-family="Helvetica,sans-Serif" font-size="10.00">modulesconfig.h</text>
</a>
</g>
</g>
<!-- Node2&#45;&gt;Node4 -->
<g id="edge3" class="edge">
<title>Node2&#45;&gt;Node4</title>
<path fill="none" stroke="#63b8ff" d="M183.67,-164.75C183.79,-158.27 183.96,-149.16 184.12,-140.9"/>
<polygon fill="#63b8ff" stroke="#63b8ff" points="187.61,-141.02 184.3,-130.96 180.61,-140.89 187.61,-141.02"/>
</g>
<!-- Node6 -->
<g id="node6" class="node">
<title>Node6</title>
<g id="a_node6"><a xlink:href="any_8h.html" target="_top" xlink:title=" ">
<polygon fill="white" stroke="#666666" points="399.5,-74 323.5,-74 323.5,-55 399.5,-55 399.5,-74"/>
<text text-anchor="middle" x="361.5" y="-62" font-family="Helvetica,sans-Serif" font-size="10.00">Generic/any.h</text>
</a>
</g>
</g>
<!-- Node5&#45;&gt;Node6 -->
<g id="edge5" class="edge">
<title>Node5&#45;&gt;Node6</title>
<path fill="none" stroke="#63b8ff" d="M318.09,-109.75C325.34,-102.35 335.95,-91.54 344.87,-82.45"/>
<polygon fill="#63b8ff" stroke="#63b8ff" points="347.16,-85.11 351.67,-75.52 342.16,-80.21 347.16,-85.11"/>
</g>
<!-- Node7 -->
<g id="node7" class="node">
<title>Node7</title>
<g id="a_node7"><a xlink:href="inheritable_8h.html" target="_top" xlink:title=" ">
<polygon fill="white" stroke="#666666" points="395.5,-19 327.5,-19 327.5,0 395.5,0 395.5,-19"/>
<text text-anchor="middle" x="361.5" y="-7" font-family="Helvetica,sans-Serif" font-size="10.00">inheritable.h</text>
</a>
</g>
</g>
<!-- Node6&#45;&gt;Node7 -->
<g id="edge6" class="edge">
<title>Node6&#45;&gt;Node7</title>
<path fill="none" stroke="#63b8ff" d="M361.5,-54.75C361.5,-48.27 361.5,-39.16 361.5,-30.9"/>
<polygon fill="#63b8ff" stroke="#63b8ff" points="365,-30.96 361.5,-20.96 358,-30.96 365,-30.96"/>
</g>
<!-- Node10 -->
<g id="node10" class="node">
<title>Node10</title>
<g id="a_node10"><a xlink:href="global_8h.html" target="_top" xlink:title=" ">
<polygon fill="white" stroke="#666666" points="440.5,-129 390.5,-129 390.5,-110 440.5,-110 440.5,-129"/>
<text text-anchor="middle" x="415.5" y="-117" font-family="Helvetica,sans-Serif" font-size="10.00">global.h</text>
</a>
</g>
</g>
<!-- Node9&#45;&gt;Node10 -->
<g id="edge9" class="edge">
<title>Node9&#45;&gt;Node10</title>
<path fill="none" stroke="#63b8ff" d="M416.33,-164.75C416.21,-158.27 416.04,-149.16 415.88,-140.9"/>
<polygon fill="#63b8ff" stroke="#63b8ff" points="419.39,-140.89 415.7,-130.96 412.39,-141.02 419.39,-140.89"/>
</g>
<!-- Node10&#45;&gt;Node6 -->
<g id="edge10" class="edge">
<title>Node10&#45;&gt;Node6</title>
<path fill="none" stroke="#63b8ff" d="M406.58,-109.75C399.05,-102.35 388.03,-91.54 378.77,-82.45"/>
<polygon fill="#63b8ff" stroke="#63b8ff" points="381.28,-80.01 371.69,-75.5 376.38,-85 381.28,-80.01"/>
</g>
</g>
</svg>
