<?xml version="1.0" encoding="UTF-8" standalone="no"?>
<!DOCTYPE svg PUBLIC "-//W3C//DTD SVG 1.1//EN"
 "http://www.w3.org/Graphics/SVG/1.1/DTD/svg11.dtd">
<!-- Generated by graphviz version 7.0.5 (20221223.1930)
 -->
<!-- Title: src/Modules/threading/workgroup.h Pages: 1 -->
<!--zoomable 335 -->
<svg id="main" version="1.1" xmlns="http://www.w3.org/2000/svg" xmlns:xlink="http://www.w3.org/1999/xlink" xml:space="preserve" onload="init(evt)">
<style type="text/css"><![CDATA[
.edge:hover path { stroke: red; }
.edge:hover polygon { stroke: red; fill: red; }
]]></style>
<script type="text/javascript"><![CDATA[
var edges = document.getElementsByTagName('g');
if (edges && edges.length) {
  for (var i=0;i<edges.length;i++) {
    if (edges[i].id.substr(0,4)=='edge') {
      edges[i].setAttribute('class','edge');
    }
  }
}
]]></script>
        <defs>
                <circle id="rim" cx="0" cy="0" r="7"/>
                <circle id="rim2" cx="0" cy="0" r="3.5"/>
                <g id="zoomPlus">
                        <use xlink:href="#rim" fill="#404040">
                                <set attributeName="fill" to="#808080" begin="zoomplus.mouseover" end="zoomplus.mouseout"/>
                        </use>
                        <path d="M-4,0h8M0,-4v8" fill="none" stroke="white" stroke-width="1.5" pointer-events="none"/>
                </g>
                <g id="zoomMin">
                        <use xlink:href="#rim" fill="#404040">
                                <set attributeName="fill" to="#808080" begin="zoomminus.mouseover" end="zoomminus.mouseout"/>
                        </use>
                        <path d="M-4,0h8" fill="none" stroke="white" stroke-width="1.5" pointer-events="none"/>
                </g>
                <g id="dirArrow">
                        <path fill="none" stroke="white" stroke-width="1.5" d="M0,-3.0v7 M-2.5,-0.5L0,-3.0L2.5,-0.5"/>
                </g>
               <g id="resetDef">
                       <use xlink:href="#rim2" fill="#404040">
                               <set attributeName="fill" to="#808080" begin="reset.mouseover" end="reset.mouseout"/>
                       </use>
               </g>
        </defs>

<script type="text/javascript">
var viewWidth = 1190;
var viewHeight = 335;
var sectionId = 'dynsection-0';
</script>
<script xlink:href="svgpan.js"/>
<svg id="graph" class="graph">
<g id="viewport">
<title>src/Modules/threading/workgroup.h</title>
<!-- Node1 -->
<g id="node1" class="node">
<title>Node1</title>
<g id="a_node1"><a xlink:title=" ">
<polygon fill="#999999" stroke="#666666" points="656,-327 543,-327 543,-297 656,-297 656,-327"/>
<text text-anchor="start" x="551" y="-315" font-family="Helvetica,sans-Serif" font-size="10.00">src/Modules/threading</text>
<text text-anchor="middle" x="599.5" y="-304" font-family="Helvetica,sans-Serif" font-size="10.00">/workgroup.h</text>
</a>
</g>
</g>
<!-- Node2 -->
<g id="node2" class="node">
<title>Node2</title>
<g id="a_node2"><a xlink:href="profiler_8cpp.html" target="_top" xlink:title=" ">
<polygon fill="white" stroke="#666666" points="131,-261 0,-261 0,-231 131,-231 131,-261"/>
<text text-anchor="start" x="8" y="-249" font-family="Helvetica,sans-Serif" font-size="10.00">src/Modules/debug/profiler</text>
<text text-anchor="middle" x="65.5" y="-238" font-family="Helvetica,sans-Serif" font-size="10.00">/profiler.cpp</text>
</a>
</g>
</g>
<!-- Node1&#45;&gt;Node2 -->
<g id="edge1" class="edge">
<title>Node1&#45;&gt;Node2</title>
<path fill="none" stroke="#63b8ff" d="M531.41,-305.21C441.61,-297.21 278.77,-281.41 140.5,-261 137.49,-260.56 134.41,-260.08 131.3,-259.58"/>
<polygon fill="#63b8ff" stroke="#63b8ff" points="531.02,-308.69 541.29,-306.09 531.63,-301.72 531.02,-308.69"/>
</g>
<!-- Node3 -->
<g id="node3" class="node">
<title>Node3</title>
<g id="a_node3"><a xlink:href="profilerthread_8cpp.html" target="_top" xlink:title=" ">
<polygon fill="white" stroke="#666666" points="280,-261 149,-261 149,-231 280,-231 280,-261"/>
<text text-anchor="start" x="157" y="-249" font-family="Helvetica,sans-Serif" font-size="10.00">src/Modules/debug/profiler</text>
<text text-anchor="middle" x="214.5" y="-238" font-family="Helvetica,sans-Serif" font-size="10.00">/profilerthread.cpp</text>
</a>
</g>
</g>
<!-- Node1&#45;&gt;Node3 -->
<g id="edge2" class="edge">
<title>Node1&#45;&gt;Node3</title>
<path fill="none" stroke="#63b8ff" d="M531.23,-300.48C468.37,-290.68 372.55,-275.45 289.5,-261 286.5,-260.48 283.43,-259.94 280.33,-259.38"/>
<polygon fill="#63b8ff" stroke="#63b8ff" points="530.66,-303.94 541.08,-302.02 531.74,-297.02 530.66,-303.94"/>
</g>
<!-- Node4 -->
<g id="node4" class="node">
<title>Node4</title>
<g id="a_node4"><a xlink:href="pluginmanager_8cpp.html" target="_top" xlink:title=" ">
<polygon fill="white" stroke="#666666" points="402.5,-261 298.5,-261 298.5,-231 402.5,-231 402.5,-261"/>
<text text-anchor="start" x="306.5" y="-249" font-family="Helvetica,sans-Serif" font-size="10.00">src/Modules/plugins</text>
<text text-anchor="middle" x="350.5" y="-238" font-family="Helvetica,sans-Serif" font-size="10.00">/pluginmanager.cpp</text>
</a>
</g>
</g>
<!-- Node1&#45;&gt;Node4 -->
<g id="edge3" class="edge">
<title>Node1&#45;&gt;Node4</title>
<path fill="none" stroke="#63b8ff" d="M532.38,-293.75C491.63,-283.27 440.37,-270.1 402.66,-260.41"/>
<polygon fill="#63b8ff" stroke="#63b8ff" points="531.29,-297.08 541.84,-296.18 533.03,-290.3 531.29,-297.08"/>
</g>
<!-- Node5 -->
<g id="node5" class="node">
<title>Node5</title>
<g id="a_node5"><a xlink:href="pluginsection_8cpp.html" target="_top" xlink:title=" ">
<polygon fill="white" stroke="#666666" points="524.5,-261 420.5,-261 420.5,-231 524.5,-231 524.5,-261"/>
<text text-anchor="start" x="428.5" y="-249" font-family="Helvetica,sans-Serif" font-size="10.00">src/Modules/plugins</text>
<text text-anchor="middle" x="472.5" y="-238" font-family="Helvetica,sans-Serif" font-size="10.00">/pluginsection.cpp</text>
</a>
</g>
</g>
<!-- Node1&#45;&gt;Node5 -->
<g id="edge4" class="edge">
<title>Node1&#45;&gt;Node5</title>
<path fill="none" stroke="#63b8ff" d="M560.98,-291.59C541.64,-281.84 518.62,-270.24 500.91,-261.31"/>
<polygon fill="#63b8ff" stroke="#63b8ff" points="559.14,-294.58 569.65,-295.96 562.29,-288.33 559.14,-294.58"/>
</g>
<!-- Node6 -->
<g id="node6" class="node">
<title>Node6</title>
<g id="a_node6"><a xlink:href="scheduler_8cpp.html" target="_top" xlink:title=" ">
<polygon fill="white" stroke="#666666" points="656,-261 543,-261 543,-231 656,-231 656,-261"/>
<text text-anchor="start" x="551" y="-249" font-family="Helvetica,sans-Serif" font-size="10.00">src/Modules/threading</text>
<text text-anchor="middle" x="599.5" y="-238" font-family="Helvetica,sans-Serif" font-size="10.00">/scheduler.cpp</text>
</a>
</g>
</g>
<!-- Node1&#45;&gt;Node6 -->
<g id="edge5" class="edge">
<title>Node1&#45;&gt;Node6</title>
<path fill="none" stroke="#63b8ff" d="M599.5,-285.39C599.5,-277.13 599.5,-268.28 599.5,-261.16"/>
<polygon fill="#63b8ff" stroke="#63b8ff" points="596,-285.28 599.5,-295.28 603,-285.28 596,-285.28"/>
</g>
<!-- Node7 -->
<g id="node7" class="node">
<title>Node7</title>
<g id="a_node7"><a xlink:href="taskqueue_8cpp.html" target="_top" xlink:title=" ">
<polygon fill="white" stroke="#666666" points="787,-261 674,-261 674,-231 787,-231 787,-261"/>
<text text-anchor="start" x="682" y="-249" font-family="Helvetica,sans-Serif" font-size="10.00">src/Modules/threading</text>
<text text-anchor="middle" x="730.5" y="-238" font-family="Helvetica,sans-Serif" font-size="10.00">/taskqueue.cpp</text>
</a>
</g>
</g>
<!-- Node1&#45;&gt;Node7 -->
<g id="edge6" class="edge">
<title>Node1&#45;&gt;Node7</title>
<path fill="none" stroke="#63b8ff" d="M639.23,-291.59C659.19,-281.84 682.93,-270.24 701.2,-261.31"/>
<polygon fill="#63b8ff" stroke="#63b8ff" points="637.71,-288.44 630.26,-295.97 640.78,-294.73 637.71,-288.44"/>
</g>
<!-- Node8 -->
<g id="node8" class="node">
<title>Node8</title>
<g id="a_node8"><a xlink:href="workgroup_8cpp.html" target="_top" xlink:title=" ">
<polygon fill="white" stroke="#666666" points="918,-261 805,-261 805,-231 918,-231 918,-261"/>
<text text-anchor="start" x="813" y="-249" font-family="Helvetica,sans-Serif" font-size="10.00">src/Modules/threading</text>
<text text-anchor="middle" x="861.5" y="-238" font-family="Helvetica,sans-Serif" font-size="10.00">/workgroup.cpp</text>
</a>
</g>
</g>
<!-- Node1&#45;&gt;Node8 -->
<g id="edge7" class="edge">
<title>Node1&#45;&gt;Node8</title>
<path fill="none" stroke="#63b8ff" d="M667.48,-294.39C710.12,-283.98 764.45,-270.71 804.76,-260.86"/>
<polygon fill="#63b8ff" stroke="#63b8ff" points="666.7,-290.98 657.82,-296.75 668.37,-297.78 666.7,-290.98"/>
</g>
<!-- Node9 -->
<g id="node9" class="node">
<title>Node9</title>
<g id="a_node9"><a xlink:href="workgrouphandle_8h.html" target="_top" xlink:title=" ">
<polygon fill="white" stroke="#666666" points="1049,-261 936,-261 936,-231 1049,-231 1049,-261"/>
<text text-anchor="start" x="944" y="-249" font-family="Helvetica,sans-Serif" font-size="10.00">src/Modules/threading</text>
<text text-anchor="middle" x="992.5" y="-238" font-family="Helvetica,sans-Serif" font-size="10.00">/workgrouphandle.h</text>
</a>
</g>
</g>
<!-- Node1&#45;&gt;Node9 -->
<g id="edge8" class="edge">
<title>Node1&#45;&gt;Node9</title>
<path fill="none" stroke="#63b8ff" d="M667.42,-301.88C733.89,-292.66 837.93,-277.46 927.5,-261 930.22,-260.5 933.01,-259.97 935.82,-259.42"/>
<polygon fill="#63b8ff" stroke="#63b8ff" points="667.19,-298.37 657.77,-303.21 668.15,-305.31 667.19,-298.37"/>
</g>
<!-- Node15 -->
<g id="node15" class="node">
<title>Node15</title>
<g id="a_node15"><a xlink:href="workgroupstorage_8cpp.html" target="_top" xlink:title=" ">
<polygon fill="white" stroke="#666666" points="1182,-261 1067,-261 1067,-231 1182,-231 1182,-261"/>
<text text-anchor="start" x="1075" y="-249" font-family="Helvetica,sans-Serif" font-size="10.00">src/Modules/threading</text>
<text text-anchor="middle" x="1124.5" y="-238" font-family="Helvetica,sans-Serif" font-size="10.00">/workgroupstorage.cpp</text>
</a>
</g>
</g>
<!-- Node1&#45;&gt;Node15 -->
<g id="edge14" class="edge">
<title>Node1&#45;&gt;Node15</title>
<path fill="none" stroke="#63b8ff" d="M667.67,-305.73C757.56,-298.29 920.49,-283.1 1058.5,-261 1061.16,-260.57 1063.88,-260.11 1066.61,-259.62"/>
<polygon fill="#63b8ff" stroke="#63b8ff" points="667.46,-302.23 657.78,-306.54 668.04,-309.21 667.46,-302.23"/>
</g>
<!-- Node10 -->
<g id="node10" class="node">
<title>Node10</title>
<g id="a_node10"><a xlink:href="serverinstance_8h.html" target="_top" xlink:title=" ">
<polygon fill="white" stroke="#666666" points="1044,-195 941,-195 941,-154 1044,-154 1044,-195"/>
<text text-anchor="start" x="949" y="-183" font-family="Helvetica,sans-Serif" font-size="10.00">plugins/server/api</text>
<text text-anchor="start" x="949" y="-172" font-family="Helvetica,sans-Serif" font-size="10.00">/src/Madgine/server</text>
<text text-anchor="middle" x="992.5" y="-161" font-family="Helvetica,sans-Serif" font-size="10.00">/serverinstance.h</text>
</a>
</g>
</g>
<!-- Node9&#45;&gt;Node10 -->
<g id="edge9" class="edge">
<title>Node9&#45;&gt;Node10</title>
<path fill="none" stroke="#63b8ff" d="M992.5,-219.36C992.5,-211.45 992.5,-202.87 992.5,-195.42"/>
<polygon fill="#63b8ff" stroke="#63b8ff" points="989,-219.09 992.5,-229.09 996,-219.09 989,-219.09"/>
</g>
<!-- Node11 -->
<g id="node11" class="node">
<title>Node11</title>
<g id="a_node11"><a xlink:href="server_8h.html" target="_top" xlink:title=" ">
<polygon fill="white" stroke="#666666" points="984,-118 881,-118 881,-77 984,-77 984,-118"/>
<text text-anchor="start" x="889" y="-106" font-family="Helvetica,sans-Serif" font-size="10.00">plugins/server/api</text>
<text text-anchor="start" x="889" y="-95" font-family="Helvetica,sans-Serif" font-size="10.00">/src/Madgine/server</text>
<text text-anchor="middle" x="932.5" y="-84" font-family="Helvetica,sans-Serif" font-size="10.00">/server.h</text>
</a>
</g>
</g>
<!-- Node10&#45;&gt;Node11 -->
<g id="edge10" class="edge">
<title>Node10&#45;&gt;Node11</title>
<path fill="none" stroke="#63b8ff" d="M969.62,-144.9C962.53,-136.04 954.87,-126.47 948.37,-118.33"/>
<polygon fill="#63b8ff" stroke="#63b8ff" points="966.81,-146.99 975.79,-152.61 972.28,-142.62 966.81,-146.99"/>
</g>
<!-- Node14 -->
<g id="node14" class="node">
<title>Node14</title>
<g id="a_node14"><a xlink:href="serverinstance_8cpp.html" target="_top" xlink:title=" ">
<polygon fill="white" stroke="#666666" points="1105,-118 1002,-118 1002,-77 1105,-77 1105,-118"/>
<text text-anchor="start" x="1010" y="-106" font-family="Helvetica,sans-Serif" font-size="10.00">plugins/server/api</text>
<text text-anchor="start" x="1010" y="-95" font-family="Helvetica,sans-Serif" font-size="10.00">/src/Madgine/server</text>
<text text-anchor="middle" x="1053.5" y="-84" font-family="Helvetica,sans-Serif" font-size="10.00">/serverinstance.cpp</text>
</a>
</g>
</g>
<!-- Node10&#45;&gt;Node14 -->
<g id="edge13" class="edge">
<title>Node10&#45;&gt;Node14</title>
<path fill="none" stroke="#63b8ff" d="M1015.76,-144.9C1022.97,-136.04 1030.75,-126.47 1037.37,-118.33"/>
<polygon fill="#63b8ff" stroke="#63b8ff" points="1013.08,-142.65 1009.48,-152.62 1018.51,-147.07 1013.08,-142.65"/>
</g>
<!-- Node12 -->
<g id="node12" class="node">
<title>Node12</title>
<g id="a_node12"><a xlink:href="server_8cpp.html" target="_top" xlink:title=" ">
<polygon fill="white" stroke="#666666" points="924,-41 821,-41 821,0 924,0 924,-41"/>
<text text-anchor="start" x="829" y="-29" font-family="Helvetica,sans-Serif" font-size="10.00">plugins/server/api</text>
<text text-anchor="start" x="829" y="-18" font-family="Helvetica,sans-Serif" font-size="10.00">/src/Madgine/server</text>
<text text-anchor="middle" x="872.5" y="-7" font-family="Helvetica,sans-Serif" font-size="10.00">/server.cpp</text>
</a>
</g>
</g>
<!-- Node11&#45;&gt;Node12 -->
<g id="edge11" class="edge">
<title>Node11&#45;&gt;Node12</title>
<path fill="none" stroke="#63b8ff" d="M909.62,-67.9C902.53,-59.04 894.87,-49.47 888.37,-41.33"/>
<polygon fill="#63b8ff" stroke="#63b8ff" points="906.81,-69.99 915.79,-75.61 912.28,-65.62 906.81,-69.99"/>
</g>
<!-- Node13 -->
<g id="node13" class="node">
<title>Node13</title>
<g id="a_node13"><a xlink:href="serverapibase_8cpp.html" target="_top" xlink:title=" ">
<polygon fill="white" stroke="#666666" points="1045,-41 942,-41 942,0 1045,0 1045,-41"/>
<text text-anchor="start" x="950" y="-29" font-family="Helvetica,sans-Serif" font-size="10.00">plugins/server/api</text>
<text text-anchor="start" x="950" y="-18" font-family="Helvetica,sans-Serif" font-size="10.00">/src/Madgine/server</text>
<text text-anchor="middle" x="993.5" y="-7" font-family="Helvetica,sans-Serif" font-size="10.00">/serverapibase.cpp</text>
</a>
</g>
</g>
<!-- Node11&#45;&gt;Node13 -->
<g id="edge12" class="edge">
<title>Node11&#45;&gt;Node13</title>
<path fill="none" stroke="#63b8ff" d="M955.76,-67.9C962.97,-59.04 970.75,-49.47 977.37,-41.33"/>
<polygon fill="#63b8ff" stroke="#63b8ff" points="953.08,-65.65 949.48,-75.62 958.51,-70.07 953.08,-65.65"/>
</g>
</g>
</svg>
        <g id="navigator" transform="translate(0 0)" fill="#404254">
                <rect fill="#f2f5e9" fill-opacity="0.5" stroke="#606060" stroke-width=".5" x="0" y="0" width="60" height="60"/>
                <use id="zoomplus" xlink:href="#zoomPlus" x="17" y="9" onmousedown="handleZoom(evt,'in')"/>
                <use id="zoomminus" xlink:href="#zoomMin" x="42" y="9" onmousedown="handleZoom(evt,'out')"/>
                <use id="reset" xlink:href="#resetDef" x="30" y="36" onmousedown="handleReset()"/>
                <g id="arrowUp" xlink:href="#dirArrow" transform="translate(30 24)" onmousedown="handlePan(0,-1)">
                  <use xlink:href="#rim" fill="#404040">
                        <set attributeName="fill" to="#808080" begin="arrowUp.mouseover" end="arrowUp.mouseout"/>
                  </use>
                  <path fill="none" stroke="white" stroke-width="1.5" d="M0,-3.0v7 M-2.5,-0.5L0,-3.0L2.5,-0.5"/>
                </g>
                <g id="arrowRight" xlink:href="#dirArrow" transform="rotate(90) translate(36 -43)" onmousedown="handlePan(1,0)">
                  <use xlink:href="#rim" fill="#404040">
                        <set attributeName="fill" to="#808080" begin="arrowRight.mouseover" end="arrowRight.mouseout"/>
                  </use>
                  <path fill="none" stroke="white" stroke-width="1.5" d="M0,-3.0v7 M-2.5,-0.5L0,-3.0L2.5,-0.5"/>
                </g>
                <g id="arrowDown" xlink:href="#dirArrow" transform="rotate(180) translate(-30 -48)" onmousedown="handlePan(0,1)">
                  <use xlink:href="#rim" fill="#404040">
                        <set attributeName="fill" to="#808080" begin="arrowDown.mouseover" end="arrowDown.mouseout"/>
                  </use>
                  <path fill="none" stroke="white" stroke-width="1.5" d="M0,-3.0v7 M-2.5,-0.5L0,-3.0L2.5,-0.5"/>
                </g>
                <g id="arrowLeft" xlink:href="#dirArrow" transform="rotate(270) translate(-36 17)" onmousedown="handlePan(-1,0)">
                  <use xlink:href="#rim" fill="#404040">
                        <set attributeName="fill" to="#808080" begin="arrowLeft.mouseover" end="arrowLeft.mouseout"/>
                  </use>
                  <path fill="none" stroke="white" stroke-width="1.5" d="M0,-3.0v7 M-2.5,-0.5L0,-3.0L2.5,-0.5"/>
                </g>
        </g>
        <svg viewBox="0 0 15 15" width="100%" height="30px" preserveAspectRatio="xMaxYMin meet">
         <g id="arrow_out" transform="scale(0.3 0.3)">
          <a xlink:href="workgroup_8h__dep__incl_org.svg" target="_base">
           <rect id="button" ry="5" rx="5" y="6" x="6" height="38" width="38"
                fill="#f2f5e9" fill-opacity="0.5" stroke="#606060" stroke-width="1.0"/>
           <path id="arrow"
             d="M 11.500037,31.436501 C 11.940474,20.09759 22.043105,11.32322 32.158766,21.979434 L 37.068811,17.246167 C 37.068811,17.246167 37.088388,32 37.088388,32 L 22.160133,31.978069 C 22.160133,31.978069 26.997745,27.140456 26.997745,27.140456 C 18.528582,18.264221 13.291696,25.230495 11.500037,31.436501 z"
             style="fill:#404040;"/>
          </a>
         </g>
        </svg>
</svg>
