<?xml version="1.0" encoding="UTF-8" standalone="no"?>
<!DOCTYPE svg PUBLIC "-//W3C//DTD SVG 1.1//EN"
 "http://www.w3.org/Graphics/SVG/1.1/DTD/svg11.dtd">
<!-- Generated by graphviz version 7.0.5 (20221223.1930)
 -->
<!-- Title: src/Meta/serialize/formatter/xmlformatter.h Pages: 1 -->
<svg width="254pt" height="104pt"
 viewBox="0.00 0.00 253.50 104.00" xmlns="http://www.w3.org/2000/svg" xmlns:xlink="http://www.w3.org/1999/xlink">
<g id="graph0" class="graph" transform="scale(1 1) rotate(0) translate(4 100)">
<title>src/Meta/serialize/formatter/xmlformatter.h</title>
<!-- Node1 -->
<g id="node1" class="node">
<title>Node1</title>
<g id="a_node1"><a xlink:title=" ">
<polygon fill="#999999" stroke="#666666" points="174,-96 51,-96 51,-66 174,-66 174,-96"/>
<text text-anchor="start" x="59" y="-84" font-family="Helvetica,sans-Serif" font-size="10.00">src/Meta/serialize</text>
<text text-anchor="middle" x="112.5" y="-73" font-family="Helvetica,sans-Serif" font-size="10.00">/formatter/xmlformatter.h</text>
</a>
</g>
</g>
<!-- Node2 -->
<g id="node2" class="node">
<title>Node2</title>
<g id="a_node2"><a xlink:href="formats_8cpp.html" target="_top" xlink:title=" ">
<polygon fill="white" stroke="#666666" points="93,-30 0,-30 0,0 93,0 93,-30"/>
<text text-anchor="start" x="8" y="-18" font-family="Helvetica,sans-Serif" font-size="10.00">src/Meta/serialize</text>
<text text-anchor="middle" x="46.5" y="-7" font-family="Helvetica,sans-Serif" font-size="10.00">/formats.cpp</text>
</a>
</g>
</g>
<!-- Node1&#45;&gt;Node2 -->
<g id="edge1" class="edge">
<title>Node1&#45;&gt;Node2</title>
<path fill="none" stroke="#63b8ff" d="M89.61,-57.81C80.16,-48.64 69.47,-38.28 61.11,-30.16"/>
<polygon fill="#63b8ff" stroke="#63b8ff" points="87.15,-60.29 96.77,-64.74 92.02,-55.27 87.15,-60.29"/>
</g>
<!-- Node3 -->
<g id="node3" class="node">
<title>Node3</title>
<g id="a_node3"><a xlink:href="xmlformatter_8cpp.html" target="_top" xlink:title=" ">
<polygon fill="white" stroke="#666666" points="245.5,-30 111.5,-30 111.5,0 245.5,0 245.5,-30"/>
<text text-anchor="start" x="119.5" y="-18" font-family="Helvetica,sans-Serif" font-size="10.00">src/Meta/serialize</text>
<text text-anchor="middle" x="178.5" y="-7" font-family="Helvetica,sans-Serif" font-size="10.00">/formatter/xmlformatter.cpp</text>
</a>
</g>
</g>
<!-- Node1&#45;&gt;Node3 -->
<g id="edge2" class="edge">
<title>Node1&#45;&gt;Node3</title>
<path fill="none" stroke="#63b8ff" d="M135.39,-57.81C144.84,-48.64 155.53,-38.28 163.89,-30.16"/>
<polygon fill="#63b8ff" stroke="#63b8ff" points="132.98,-55.27 128.23,-64.74 137.85,-60.29 132.98,-55.27"/>
</g>
</g>
</svg>
