<?xml version="1.0" encoding="UTF-8" standalone="no"?>
<!DOCTYPE svg PUBLIC "-//W3C//DTD SVG 1.1//EN"
 "http://www.w3.org/Graphics/SVG/1.1/DTD/svg11.dtd">
<!-- Generated by graphviz version 7.0.5 (20221223.1930)
 -->
<!-- Title: plugins/renderer/opengl/src/OpenGL/opengllib.h Pages: 1 -->
<!--zoomable 104 -->
<svg id="main" version="1.1" xmlns="http://www.w3.org/2000/svg" xmlns:xlink="http://www.w3.org/1999/xlink" xml:space="preserve" onload="init(evt)">
<style type="text/css"><![CDATA[
.edge:hover path { stroke: red; }
.edge:hover polygon { stroke: red; fill: red; }
]]></style>
<script type="text/javascript"><![CDATA[
var edges = document.getElementsByTagName('g');
if (edges && edges.length) {
  for (var i=0;i<edges.length;i++) {
    if (edges[i].id.substr(0,4)=='edge') {
      edges[i].setAttribute('class','edge');
    }
  }
}
]]></script>
        <defs>
                <circle id="rim" cx="0" cy="0" r="7"/>
                <circle id="rim2" cx="0" cy="0" r="3.5"/>
                <g id="zoomPlus">
                        <use xlink:href="#rim" fill="#404040">
                                <set attributeName="fill" to="#808080" begin="zoomplus.mouseover" end="zoomplus.mouseout"/>
                        </use>
                        <path d="M-4,0h8M0,-4v8" fill="none" stroke="white" stroke-width="1.5" pointer-events="none"/>
                </g>
                <g id="zoomMin">
                        <use xlink:href="#rim" fill="#404040">
                                <set attributeName="fill" to="#808080" begin="zoomminus.mouseover" end="zoomminus.mouseout"/>
                        </use>
                        <path d="M-4,0h8" fill="none" stroke="white" stroke-width="1.5" pointer-events="none"/>
                </g>
                <g id="dirArrow">
                        <path fill="none" stroke="white" stroke-width="1.5" d="M0,-3.0v7 M-2.5,-0.5L0,-3.0L2.5,-0.5"/>
                </g>
               <g id="resetDef">
                       <use xlink:href="#rim2" fill="#404040">
                               <set attributeName="fill" to="#808080" begin="reset.mouseover" end="reset.mouseout"/>
                       </use>
               </g>
        </defs>

<script type="text/javascript">
var viewWidth = 2850;
var viewHeight = 104;
var sectionId = 'dynsection-0';
</script>
<script xlink:href="svgpan.js"/>
<svg id="graph" class="graph">
<g id="viewport">
<title>plugins/renderer/opengl/src/OpenGL/opengllib.h</title>
<!-- Node1 -->
<g id="node1" class="node">
<title>Node1</title>
<g id="a_node1"><a xlink:title=" ">
<polygon fill="#999999" stroke="#666666" points="1470,-96 1348,-96 1348,-66 1470,-66 1470,-96"/>
<text text-anchor="start" x="1356" y="-84" font-family="Helvetica,sans-Serif" font-size="10.00">plugins/renderer/opengl</text>
<text text-anchor="middle" x="1409" y="-73" font-family="Helvetica,sans-Serif" font-size="10.00">/src/OpenGL/opengllib.h</text>
</a>
</g>
</g>
<!-- Node2 -->
<g id="node2" class="node">
<title>Node2</title>
<g id="a_node2"><a xlink:href="iosopengl_8mm.html" target="_top" xlink:title=" ">
<polygon fill="white" stroke="#666666" points="136,-30 0,-30 0,0 136,0 136,-30"/>
<text text-anchor="start" x="8" y="-18" font-family="Helvetica,sans-Serif" font-size="10.00">plugins/renderer/opengl</text>
<text text-anchor="middle" x="68" y="-7" font-family="Helvetica,sans-Serif" font-size="10.00">/src/OpenGL/iosopengl.mm</text>
</a>
</g>
</g>
<!-- Node1&#45;&gt;Node2 -->
<g id="edge1" class="edge">
<title>Node1&#45;&gt;Node2</title>
<path fill="none" stroke="#63b8ff" d="M1336.15,-80.68C1141.93,-81.73 595.85,-79.66 145,-30 142.16,-29.69 139.27,-29.33 136.36,-28.94"/>
<polygon fill="#63b8ff" stroke="#63b8ff" points="1336.11,-84.18 1346.09,-80.62 1336.07,-77.18 1336.11,-84.18"/>
</g>
<!-- Node3 -->
<g id="node3" class="node">
<title>Node3</title>
<g id="a_node3"><a xlink:href="openglpipelineloader_8cpp.html" target="_top" xlink:title=" ">
<polygon fill="white" stroke="#666666" points="336,-30 154,-30 154,0 336,0 336,-30"/>
<text text-anchor="start" x="162" y="-18" font-family="Helvetica,sans-Serif" font-size="10.00">plugins/renderer/opengl</text>
<text text-anchor="middle" x="245" y="-7" font-family="Helvetica,sans-Serif" font-size="10.00">/src/OpenGL/openglpipelineloader.cpp</text>
</a>
</g>
</g>
<!-- Node1&#45;&gt;Node3 -->
<g id="edge2" class="edge">
<title>Node1&#45;&gt;Node3</title>
<path fill="none" stroke="#63b8ff" d="M1336.24,-78.89C1163.77,-75.75 716.68,-64.68 345,-30 342.12,-29.73 339.2,-29.44 336.25,-29.13"/>
<polygon fill="#63b8ff" stroke="#63b8ff" points="1336.11,-82.39 1346.18,-79.07 1336.24,-75.39 1336.11,-82.39"/>
</g>
<!-- Node4 -->
<g id="node4" class="node">
<title>Node4</title>
<g id="a_node4"><a xlink:href="openglrendercontext_8cpp.html" target="_top" xlink:title=" ">
<polygon fill="white" stroke="#666666" points="535.5,-30 354.5,-30 354.5,0 535.5,0 535.5,-30"/>
<text text-anchor="start" x="362.5" y="-18" font-family="Helvetica,sans-Serif" font-size="10.00">plugins/renderer/opengl</text>
<text text-anchor="middle" x="445" y="-7" font-family="Helvetica,sans-Serif" font-size="10.00">/src/OpenGL/openglrendercontext.cpp</text>
</a>
</g>
</g>
<!-- Node1&#45;&gt;Node4 -->
<g id="edge3" class="edge">
<title>Node1&#45;&gt;Node4</title>
<path fill="none" stroke="#63b8ff" d="M1336.37,-77.79C1187.59,-72.83 837.55,-58.89 545,-30 542.03,-29.71 539.02,-29.39 535.98,-29.06"/>
<polygon fill="#63b8ff" stroke="#63b8ff" points="1335.96,-81.28 1346.07,-78.11 1336.19,-74.28 1335.96,-81.28"/>
</g>
<!-- Node5 -->
<g id="node5" class="node">
<title>Node5</title>
<g id="a_node5"><a xlink:href="openglrendertarget_8cpp.html" target="_top" xlink:title=" ">
<polygon fill="white" stroke="#666666" points="728,-30 554,-30 554,0 728,0 728,-30"/>
<text text-anchor="start" x="562" y="-18" font-family="Helvetica,sans-Serif" font-size="10.00">plugins/renderer/opengl</text>
<text text-anchor="middle" x="641" y="-7" font-family="Helvetica,sans-Serif" font-size="10.00">/src/OpenGL/openglrendertarget.cpp</text>
</a>
</g>
</g>
<!-- Node1&#45;&gt;Node5 -->
<g id="edge4" class="edge">
<title>Node1&#45;&gt;Node5</title>
<path fill="none" stroke="#63b8ff" d="M1336.56,-76.29C1213.23,-69.6 954.64,-53.94 737,-30 734.15,-29.69 731.26,-29.35 728.34,-29"/>
<polygon fill="#63b8ff" stroke="#63b8ff" points="1336.03,-79.77 1346.2,-76.81 1336.41,-72.78 1336.03,-79.77"/>
</g>
<!-- Node6 -->
<g id="node6" class="node">
<title>Node6</title>
<g id="a_node6"><a xlink:href="openglrendertexture_8cpp.html" target="_top" xlink:title=" ">
<polygon fill="white" stroke="#666666" points="925.5,-30 746.5,-30 746.5,0 925.5,0 925.5,-30"/>
<text text-anchor="start" x="754.5" y="-18" font-family="Helvetica,sans-Serif" font-size="10.00">plugins/renderer/opengl</text>
<text text-anchor="middle" x="836" y="-7" font-family="Helvetica,sans-Serif" font-size="10.00">/src/OpenGL/openglrendertexture.cpp</text>
</a>
</g>
</g>
<!-- Node1&#45;&gt;Node6 -->
<g id="edge5" class="edge">
<title>Node1&#45;&gt;Node6</title>
<path fill="none" stroke="#63b8ff" d="M1336.3,-73.14C1243.2,-64.16 1076.91,-47.51 935,-30 931.99,-29.63 928.92,-29.24 925.83,-28.84"/>
<polygon fill="#63b8ff" stroke="#63b8ff" points="1335.77,-76.6 1346.06,-74.08 1336.44,-69.63 1335.77,-76.6"/>
</g>
<!-- Node7 -->
<g id="node7" class="node">
<title>Node7</title>
<g id="a_node7"><a xlink:href="openglrenderwindow_8cpp.html" target="_top" xlink:title=" ">
<polygon fill="white" stroke="#666666" points="1126,-30 944,-30 944,0 1126,0 1126,-30"/>
<text text-anchor="start" x="952" y="-18" font-family="Helvetica,sans-Serif" font-size="10.00">plugins/renderer/opengl</text>
<text text-anchor="middle" x="1035" y="-7" font-family="Helvetica,sans-Serif" font-size="10.00">/src/OpenGL/openglrenderwindow.cpp</text>
</a>
</g>
</g>
<!-- Node1&#45;&gt;Node7 -->
<g id="edge6" class="edge">
<title>Node1&#45;&gt;Node7</title>
<path fill="none" stroke="#63b8ff" d="M1336.39,-67.57C1274.26,-56.94 1184.77,-41.63 1119.45,-30.45"/>
<polygon fill="#63b8ff" stroke="#63b8ff" points="1335.72,-71.01 1346.17,-69.25 1336.9,-64.11 1335.72,-71.01"/>
</g>
<!-- Node8 -->
<g id="node8" class="node">
<title>Node8</title>
<g id="a_node8"><a xlink:href="openglshaderloader_8cpp.html" target="_top" xlink:title=" ">
<polygon fill="white" stroke="#666666" points="1322,-30 1144,-30 1144,0 1322,0 1322,-30"/>
<text text-anchor="start" x="1152" y="-18" font-family="Helvetica,sans-Serif" font-size="10.00">plugins/renderer/opengl</text>
<text text-anchor="middle" x="1233" y="-7" font-family="Helvetica,sans-Serif" font-size="10.00">/src/OpenGL/openglshaderloader.cpp</text>
</a>
</g>
</g>
<!-- Node1&#45;&gt;Node8 -->
<g id="edge7" class="edge">
<title>Node1&#45;&gt;Node8</title>
<path fill="none" stroke="#63b8ff" d="M1358.96,-61.8C1331.61,-51.86 1298.21,-39.71 1272.67,-30.43"/>
<polygon fill="#63b8ff" stroke="#63b8ff" points="1357.49,-64.99 1368.08,-65.12 1359.88,-58.41 1357.49,-64.99"/>
</g>
<!-- Node9 -->
<g id="node9" class="node">
<title>Node9</title>
<g id="a_node9"><a xlink:href="osxopengl_8mm.html" target="_top" xlink:title=" ">
<polygon fill="white" stroke="#666666" points="1478,-30 1340,-30 1340,0 1478,0 1478,-30"/>
<text text-anchor="start" x="1348" y="-18" font-family="Helvetica,sans-Serif" font-size="10.00">plugins/renderer/opengl</text>
<text text-anchor="middle" x="1409" y="-7" font-family="Helvetica,sans-Serif" font-size="10.00">/src/OpenGL/osxopengl.mm</text>
</a>
</g>
</g>
<!-- Node1&#45;&gt;Node9 -->
<g id="edge8" class="edge">
<title>Node1&#45;&gt;Node9</title>
<path fill="none" stroke="#63b8ff" d="M1409,-54.39C1409,-46.13 1409,-37.28 1409,-30.16"/>
<polygon fill="#63b8ff" stroke="#63b8ff" points="1405.5,-54.28 1409,-64.28 1412.5,-54.28 1405.5,-54.28"/>
</g>
<!-- Node10 -->
<g id="node10" class="node">
<title>Node10</title>
<g id="a_node10"><a xlink:href="gldump_8cpp.html" target="_top" xlink:title=" ">
<polygon fill="white" stroke="#666666" points="1637.5,-30 1496.5,-30 1496.5,0 1637.5,0 1637.5,-30"/>
<text text-anchor="start" x="1504.5" y="-18" font-family="Helvetica,sans-Serif" font-size="10.00">plugins/renderer/opengl</text>
<text text-anchor="middle" x="1567" y="-7" font-family="Helvetica,sans-Serif" font-size="10.00">/src/OpenGL/util/gldump.cpp</text>
</a>
</g>
</g>
<!-- Node1&#45;&gt;Node10 -->
<g id="edge9" class="edge">
<title>Node1&#45;&gt;Node10</title>
<path fill="none" stroke="#63b8ff" d="M1454.9,-61.41C1479.27,-51.54 1508.77,-39.59 1531.39,-30.43"/>
<polygon fill="#63b8ff" stroke="#63b8ff" points="1453.82,-58.07 1445.86,-65.07 1456.44,-64.56 1453.82,-58.07"/>
</g>
<!-- Node11 -->
<g id="node11" class="node">
<title>Node11</title>
<g id="a_node11"><a xlink:href="openglheapallocator_8cpp.html" target="_top" xlink:title=" ">
<polygon fill="white" stroke="#666666" points="1852,-30 1656,-30 1656,0 1852,0 1852,-30"/>
<text text-anchor="start" x="1664" y="-18" font-family="Helvetica,sans-Serif" font-size="10.00">plugins/renderer/opengl</text>
<text text-anchor="middle" x="1754" y="-7" font-family="Helvetica,sans-Serif" font-size="10.00">/src/OpenGL/util/openglheapallocator.cpp</text>
</a>
</g>
</g>
<!-- Node1&#45;&gt;Node11 -->
<g id="edge10" class="edge">
<title>Node1&#45;&gt;Node11</title>
<path fill="none" stroke="#63b8ff" d="M1481.37,-66.57C1538.36,-56 1617.65,-41.29 1676.04,-30.46"/>
<polygon fill="#63b8ff" stroke="#63b8ff" points="1480.96,-63.09 1471.77,-68.36 1482.24,-69.97 1480.96,-63.09"/>
</g>
<!-- Node12 -->
<g id="node12" class="node">
<title>Node12</title>
<g id="a_node12"><a xlink:href="openglpipeline_8cpp.html" target="_top" xlink:title=" ">
<polygon fill="white" stroke="#666666" points="2041.5,-30 1870.5,-30 1870.5,0 2041.5,0 2041.5,-30"/>
<text text-anchor="start" x="1878.5" y="-18" font-family="Helvetica,sans-Serif" font-size="10.00">plugins/renderer/opengl</text>
<text text-anchor="middle" x="1956" y="-7" font-family="Helvetica,sans-Serif" font-size="10.00">/src/OpenGL/util/openglpipeline.cpp</text>
</a>
</g>
</g>
<!-- Node1&#45;&gt;Node12 -->
<g id="edge11" class="edge">
<title>Node1&#45;&gt;Node12</title>
<path fill="none" stroke="#63b8ff" d="M1481.86,-72.76C1571.28,-63.68 1727.47,-47.22 1861,-30 1863.98,-29.62 1867,-29.22 1870.06,-28.81"/>
<polygon fill="#63b8ff" stroke="#63b8ff" points="1481.6,-69.27 1472,-73.76 1482.3,-76.23 1481.6,-69.27"/>
</g>
<!-- Node13 -->
<g id="node13" class="node">
<title>Node13</title>
<g id="a_node13"><a xlink:href="openglpipelineinstance_8cpp.html" target="_top" xlink:title=" ">
<polygon fill="white" stroke="#666666" points="2268,-30 2060,-30 2060,0 2268,0 2268,-30"/>
<text text-anchor="start" x="2068" y="-18" font-family="Helvetica,sans-Serif" font-size="10.00">plugins/renderer/opengl</text>
<text text-anchor="middle" x="2164" y="-7" font-family="Helvetica,sans-Serif" font-size="10.00">/src/OpenGL/util/openglpipelineinstance.cpp</text>
</a>
</g>
</g>
<!-- Node1&#45;&gt;Node13 -->
<g id="edge12" class="edge">
<title>Node1&#45;&gt;Node13</title>
<path fill="none" stroke="#63b8ff" d="M1481.64,-75.42C1600.72,-67.68 1844.86,-50.79 2051,-30 2053.85,-29.71 2056.74,-29.41 2059.66,-29.1"/>
<polygon fill="#63b8ff" stroke="#63b8ff" points="1481.42,-71.93 1471.67,-76.07 1481.88,-78.92 1481.42,-71.93"/>
</g>
<!-- Node14 -->
<g id="node14" class="node">
<title>Node14</title>
<g id="a_node14"><a xlink:href="openglshader_8cpp.html" target="_top" xlink:title=" ">
<polygon fill="white" stroke="#666666" points="2453.5,-30 2286.5,-30 2286.5,0 2453.5,0 2453.5,-30"/>
<text text-anchor="start" x="2294.5" y="-18" font-family="Helvetica,sans-Serif" font-size="10.00">plugins/renderer/opengl</text>
<text text-anchor="middle" x="2370" y="-7" font-family="Helvetica,sans-Serif" font-size="10.00">/src/OpenGL/util/openglshader.cpp</text>
</a>
</g>
</g>
<!-- Node1&#45;&gt;Node14 -->
<g id="edge13" class="edge">
<title>Node1&#45;&gt;Node14</title>
<path fill="none" stroke="#63b8ff" d="M1481.71,-78.07C1631.07,-73.6 1983.07,-60.52 2277,-30 2280,-29.69 2283.06,-29.35 2286.14,-28.99"/>
<polygon fill="#63b8ff" stroke="#63b8ff" points="1481.86,-74.56 1471.97,-78.36 1482.07,-81.56 1481.86,-74.56"/>
</g>
<!-- Node15 -->
<g id="node15" class="node">
<title>Node15</title>
<g id="a_node15"><a xlink:href="opengltexture_8cpp.html" target="_top" xlink:title=" ">
<polygon fill="white" stroke="#666666" points="2638.5,-30 2471.5,-30 2471.5,0 2638.5,0 2638.5,-30"/>
<text text-anchor="start" x="2479.5" y="-18" font-family="Helvetica,sans-Serif" font-size="10.00">plugins/renderer/opengl</text>
<text text-anchor="middle" x="2555" y="-7" font-family="Helvetica,sans-Serif" font-size="10.00">/src/OpenGL/util/opengltexture.cpp</text>
</a>
</g>
</g>
<!-- Node1&#45;&gt;Node15 -->
<g id="edge14" class="edge">
<title>Node1&#45;&gt;Node15</title>
<path fill="none" stroke="#63b8ff" d="M1481.73,-79.14C1653.09,-76.56 2095.47,-66.58 2463,-30 2465.73,-29.73 2468.51,-29.43 2471.31,-29.11"/>
<polygon fill="#63b8ff" stroke="#63b8ff" points="1481.81,-75.64 1471.86,-79.29 1481.91,-82.64 1481.81,-75.64"/>
</g>
<!-- Node16 -->
<g id="node16" class="node">
<title>Node16</title>
<g id="a_node16"><a xlink:href="openglvertexarray_8cpp.html" target="_top" xlink:title=" ">
<polygon fill="white" stroke="#666666" points="2841.5,-30 2656.5,-30 2656.5,0 2841.5,0 2841.5,-30"/>
<text text-anchor="start" x="2664.5" y="-18" font-family="Helvetica,sans-Serif" font-size="10.00">plugins/renderer/opengl</text>
<text text-anchor="middle" x="2749" y="-7" font-family="Helvetica,sans-Serif" font-size="10.00">/src/OpenGL/util/openglvertexarray.cpp</text>
</a>
</g>
</g>
<!-- Node1&#45;&gt;Node16 -->
<g id="edge15" class="edge">
<title>Node1&#45;&gt;Node16</title>
<path fill="none" stroke="#63b8ff" d="M1481.67,-79.54C1672.96,-77.78 2206.19,-69.44 2648,-30 2650.64,-29.76 2653.33,-29.51 2656.03,-29.23"/>
<polygon fill="#63b8ff" stroke="#63b8ff" points="1481.86,-76.03 1471.89,-79.62 1481.92,-83.03 1481.86,-76.03"/>
</g>
</g>
</svg>
        <g id="navigator" transform="translate(0 0)" fill="#404254">
                <rect fill="#f2f5e9" fill-opacity="0.5" stroke="#606060" stroke-width=".5" x="0" y="0" width="60" height="60"/>
                <use id="zoomplus" xlink:href="#zoomPlus" x="17" y="9" onmousedown="handleZoom(evt,'in')"/>
                <use id="zoomminus" xlink:href="#zoomMin" x="42" y="9" onmousedown="handleZoom(evt,'out')"/>
                <use id="reset" xlink:href="#resetDef" x="30" y="36" onmousedown="handleReset()"/>
                <g id="arrowUp" xlink:href="#dirArrow" transform="translate(30 24)" onmousedown="handlePan(0,-1)">
                  <use xlink:href="#rim" fill="#404040">
                        <set attributeName="fill" to="#808080" begin="arrowUp.mouseover" end="arrowUp.mouseout"/>
                  </use>
                  <path fill="none" stroke="white" stroke-width="1.5" d="M0,-3.0v7 M-2.5,-0.5L0,-3.0L2.5,-0.5"/>
                </g>
                <g id="arrowRight" xlink:href="#dirArrow" transform="rotate(90) translate(36 -43)" onmousedown="handlePan(1,0)">
                  <use xlink:href="#rim" fill="#404040">
                        <set attributeName="fill" to="#808080" begin="arrowRight.mouseover" end="arrowRight.mouseout"/>
                  </use>
                  <path fill="none" stroke="white" stroke-width="1.5" d="M0,-3.0v7 M-2.5,-0.5L0,-3.0L2.5,-0.5"/>
                </g>
                <g id="arrowDown" xlink:href="#dirArrow" transform="rotate(180) translate(-30 -48)" onmousedown="handlePan(0,1)">
                  <use xlink:href="#rim" fill="#404040">
                        <set attributeName="fill" to="#808080" begin="arrowDown.mouseover" end="arrowDown.mouseout"/>
                  </use>
                  <path fill="none" stroke="white" stroke-width="1.5" d="M0,-3.0v7 M-2.5,-0.5L0,-3.0L2.5,-0.5"/>
                </g>
                <g id="arrowLeft" xlink:href="#dirArrow" transform="rotate(270) translate(-36 17)" onmousedown="handlePan(-1,0)">
                  <use xlink:href="#rim" fill="#404040">
                        <set attributeName="fill" to="#808080" begin="arrowLeft.mouseover" end="arrowLeft.mouseout"/>
                  </use>
                  <path fill="none" stroke="white" stroke-width="1.5" d="M0,-3.0v7 M-2.5,-0.5L0,-3.0L2.5,-0.5"/>
                </g>
        </g>
        <svg viewBox="0 0 15 15" width="100%" height="30px" preserveAspectRatio="xMaxYMin meet">
         <g id="arrow_out" transform="scale(0.3 0.3)">
          <a xlink:href="opengllib_8h__dep__incl_org.svg" target="_base">
           <rect id="button" ry="5" rx="5" y="6" x="6" height="38" width="38"
                fill="#f2f5e9" fill-opacity="0.5" stroke="#606060" stroke-width="1.0"/>
           <path id="arrow"
             d="M 11.500037,31.436501 C 11.940474,20.09759 22.043105,11.32322 32.158766,21.979434 L 37.068811,17.246167 C 37.068811,17.246167 37.088388,32 37.088388,32 L 22.160133,31.978069 C 22.160133,31.978069 26.997745,27.140456 26.997745,27.140456 C 18.528582,18.264221 13.291696,25.230495 11.500037,31.436501 z"
             style="fill:#404040;"/>
          </a>
         </g>
        </svg>
</svg>
